/* XPM */
static char * bulmasetup_xpm[] = {
"48 48 258 2",
"  	c None",
". 	c #4486B4",
"+ 	c #2875A9",
"@ 	c #005B99",
"# 	c #307AAC",
"$ 	c #2271A7",
"% 	c #498AB6",
"& 	c #2775A8",
"* 	c #4789B5",
"= 	c #206FA5",
"- 	c #F8FBFD",
"; 	c #F2F6F9",
"> 	c #DFE9F3",
", 	c #5D96BE",
"' 	c #F9FCFD",
") 	c #EBF2F7",
"! 	c #DEEBF3",
"~ 	c #DAE7F0",
"{ 	c #E5EEF5",
"] 	c #F3F7FA",
"^ 	c #A8C6DC",
"/ 	c #065F9B",
"( 	c #1C6EA5",
"_ 	c #FDFDFF",
": 	c #EFF5F9",
"< 	c #E0EBF3",
"[ 	c #D2E2ED",
"} 	c #C6DBE9",
"| 	c #C2D8E6",
"1 	c #CCDEEB",
"2 	c #E9F1F6",
"3 	c #528FBA",
"4 	c #689EC3",
"5 	c #F5F9FB",
"6 	c #E6EFF5",
"7 	c #D6E5EF",
"8 	c #C8DCE9",
"9 	c #B9D2E3",
"0 	c #ACCBDE",
"a 	c #ABC9DC",
"b 	c #B3CEE1",
"c 	c #C1D7E6",
"d 	c #D0E1EC",
"e 	c #DFEAF2",
"f 	c #EEF4F8",
"g 	c #DAE7F1",
"h 	c #0C629E",
"i 	c #4084B2",
"j 	c #EDF3F8",
"k 	c #DDE9F1",
"l 	c #CDDFEB",
"m 	c #BED5E5",
"n 	c #AFCCDF",
"o 	c #A0C2D9",
"p 	c #93B9D4",
"q 	c #99BED6",
"r 	c #9ABED7",
"s 	c #A8C7DC",
"t 	c #B7D1E2",
"u 	c #C7DBE9",
"v 	c #F7FAFC",
"w 	c #4F8DB9",
"x 	c #1166A0",
"y 	c #E7F0F5",
"z 	c #C6DAE8",
"A 	c #B5CFE1",
"B 	c #A6C6DB",
"C 	c #96BBD5",
"D 	c #91B8D3",
"E 	c #347DAE",
"F 	c #699EC2",
"G 	c #90B8D3",
"H 	c #9FC1D9",
"I 	c #BFD6E5",
"J 	c #CFE0EC",
"K 	c #F0F5F9",
"L 	c #99BDD6",
"M 	c #F2F7FA",
"N 	c #E1ECF3",
"O 	c #9EC1D8",
"P 	c #90B7D2",
"Q 	c #5A95BE",
"R 	c #97BCD6",
"S 	c #97BCD5",
"T 	c #A7C6DC",
"U 	c #B8D1E3",
"V 	c #C9DCE9",
"W 	c #F6F9FB",
"X 	c #1266A1",
"Y 	c #639AC1",
"Z 	c #BAD3E3",
"` 	c #A9C8DD",
" .	c #98BDD6",
"..	c #95BBD5",
"+.	c #176AA2",
"@.	c #A2C3DA",
"#.	c #C4D9E7",
"$.	c #377FAF",
"%.	c #5491BB",
"&.	c #ECF3F7",
"*.	c #A5C5DB",
"=.	c #94BAD4",
"-.	c #7DACCB",
";.	c #699EC3",
">.	c #8EB7D2",
",.	c #D3E3ED",
"'.	c #E4EEF4",
").	c #4A8BB7",
"!.	c #FDFFFF",
"~.	c #D9E7F0",
"{.	c #A4C4DB",
"].	c #92B9D3",
"^.	c #6CA0C4",
"/.	c #91B8D2",
"(.	c #9CBFD7",
"_.	c #AECBDF",
":.	c #C0D6E6",
"<.	c #D1E1ED",
"[.	c #E3EDF4",
"}.	c #5591BB",
"|.	c #4286B4",
"1.	c #B6D0E2",
"2.	c #6FA2C5",
"3.	c #5390BB",
"4.	c #DBE8F1",
"5.	c #82AECC",
"6.	c #8FB7D1",
"7.	c #B0CCDF",
"8.	c #4889B6",
"9.	c #4B8BB6",
"0.	c #DEEAF2",
"a.	c #BBD3E4",
"b.	c #AAC8DD",
"c.	c #2372A7",
"d.	c #2371A7",
"e.	c #C5DAE8",
"f.	c #327CAD",
"g.	c #5792BB",
"h.	c #E2ECF3",
"i.	c #8FB7D2",
"j.	c #0A619D",
"k.	c #92B8D3",
"l.	c #CADDEA",
"m.	c #EDF5F9",
"n.	c #669CC2",
"o.	c #F8FAFC",
"p.	c #D7E5EF",
"q.	c #92B9D4",
"r.	c #498AB7",
"s.	c #9CC0D8",
"t.	c #F1F6F9",
"u.	c #85B1CF",
"v.	c #FFFFFF",
"w.	c #CEDFEB",
"x.	c #96BBD4",
"y.	c #9EC0D8",
"z.	c #4386B4",
"A.	c #1B6DA4",
"B.	c #F6FAFC",
"C.	c #D8E6EF",
"D.	c #B1CDE0",
"E.	c #C3D8E7",
"F.	c #045E9B",
"G.	c #4B8CB7",
"H.	c #D4E3EE",
"I.	c #EAF1F7",
"J.	c #3C82B1",
"K.	c #FBFCFC",
"L.	c #E0EAF2",
"M.	c #DCE8F0",
"N.	c #F4F8FB",
"O.	c #7EADCB",
"P.	c #015C99",
"Q.	c #2B77AA",
"R.	c #F8FAFB",
"S.	c #ADCBDD",
"T.	c #679EC2",
"U.	c #4C8BB7",
"V.	c #3D82B1",
"W.	c #5592BB",
"X.	c #5F98BE",
"Y.	c #357CAE",
"Z.	c #3F83B3",
"`.	c #3B82B1",
" +	c #4387B4",
".+	c #1065A0",
"++	c #4D8DB8",
"@+	c #2B76AA",
"#+	c #5C97BF",
"$+	c #6A9FC3",
"%+	c #4185B3",
"&+	c #619AC0",
"*+	c #2C77AA",
"=+	c #5E97BE",
"-+	c #337CAE",
";+	c #669DC1",
">+	c #3D82B2",
",+	c #2D78AB",
"'+	c #699EC4",
")+	c #4486B5",
"!+	c #6099C0",
"~+	c #5994BC",
"{+	c #679EC3",
"]+	c #4E8CB8",
"^+	c #08609C",
"/+	c #6199C0",
"(+	c #07609C",
"_+	c #09619D",
":+	c #3A80B0",
"<+	c #4487B4",
"[+	c #5893BC",
"}+	c #2E79AC",
"|+	c #2573A8",
"1+	c #4285B4",
"2+	c #3F83B2",
"3+	c #649BC2",
"4+	c #035D9A",
"5+	c #508EB9",
"6+	c #5190BA",
"7+	c #4085B3",
"8+	c #055E9B",
"9+	c #4C8CB8",
"0+	c #5693BC",
"a+	c #0D639F",
"b+	c #3C81B1",
"c+	c #5390BA",
"d+	c #317AAC",
"e+	c #2674A8",
"f+	c #1E6EA5",
"g+	c #196BA3",
"h+	c #5A95BD",
"i+	c #367EAE",
"j+	c #5591BA",
"k+	c #3A81B0",
"l+	c #5290BA",
"m+	c #5C97BD",
"n+	c #5894BC",
"o+	c #5692BC",
"p+	c #327BAD",
"q+	c #629AC1",
"r+	c #5F97BF",
"s+	c #5A94BD",
"t+	c #0B629E",
"u+	c #2976AA",
"v+	c #5893BD",
"w+	c #5E98BF",
"x+	c #1F6FA5",
"y+	c #5B95BE",
"z+	c #5D98BF",
"A+	c #5994BD",
"B+	c #4688B5",
"C+	c #5F98BF",
"D+	c #4E8EB8",
"E+	c #5290B9",
"F+	c #3E83B2",
"G+	c #689FC3",
"H+	c #669DC2",
"I+	c #649BC1",
"                                                                      .                         ",
"                                                                    + @ #                       ",
"                                                                  $ @ @ @ %                     ",
"                                                                & @ @ @ @ @                     ",
"                                                              * @ @ @ @ @ @ =                   ",
"                    -                                       ; > = @ @ @ @ @ @ ,                 ",
"                  ' ) !                                   ~ { ] ^ / @ @ @ @ @ (                 ",
"                _ : < [ }                               | 1 ~ 2 - 3 @ @ @ @ @ @ 4               ",
"                5 6 7 8 9 0                           a b c d e f g h @ @ @ @ @ i               ",
"              _ j k l m n o p                       q r s t u 7 6 v w @ @ @ @ @ x               ",
"              - y 7 z A B C D E F                     G H n I J < K L @ @ @ @ @ @               ",
"              M N d I n O P Q @ /                     R S T U V ~ ) W X @ @ @ @ @ Y             ",
"              : k 1 Z `  ...+.@ #                       D @.b #.7 y ' $.@ @ @ @ @ %.            ",
"            _ &.~ V t *.=.-.@ @ ;.                      >.O n c ,.'.W ).@ @ @ @ @ %             ",
"            !.) ~.u A {.].^.@ @                         /.(._.:.<.[.5 }.@ @ @ @ @ |.            ",
"            !.) ~.u 1.{.].2.@ @                         G (._.:.<.[.5 3.@ @ @ @ @ .             ",
"            _ &.4.V t B =.5.@ @ Y                       6.O 7.c ,.{ W 8.@ @ @ @ @ 9.            ",
"              : 0.1 a.b.L =.c.@ d.                      D @.b e.7 y ' f.@ @ @ @ @ g.            ",
"              ] h.<.:.n H i.4 @ j.                    k. .s 9 l.4.&.m.j.@ @ @ @ @ n.            ",
"              o.y p.u 1.T S q.r.                    s.D o 7.:.d < t.u.@ @ @ @ @ @               ",
"              v.f 0.w.I 7.@.x.                      y.(.b.U 8 p.y - z.@ @ @ @ @ A.              ",
"                B.y C.V a._.                          D.A E.<.< : 9 F.@ @ @ @ @ G.              ",
"                  K h.H.z                               z w.4.I.' J.@ @ @ @ @ @                 ",
"                  K.j L.                                  M.y N.O.P.@ @ @ @ @ Q.                ",
"                    R.                                      ] S.h @ @ @ @ @ @ T.                ",
"                                                              U.@ @ @ @ @ @ #                   ",
"                                                                V.@ @ @ @ /                     ",
"                                      W.X.                        |.@ @ @ X.                    ",
"                                      Y.Z.                          `.@  +                      ",
"                .+                    V.++                            W.                        ",
"                 +                    @+#+                                                      ",
"                                      .+$+                                                      ",
"            ;.%+&+        G.*+g.=+    @     g.-+    ;+>+          |.,+4     '+)+,+!+            ",
"              d.~+    {+]+  ;.^+      ^+    /+(+      _+{+      :+  i ,+  T.<+  n.[+            ",
"              +.;+    }+      @     /+|+    /+|+      P.      $     )+U.  1+V.                  ",
"              P.    2+3+      4+    5+Z.    6+7+      8+    ~+9+  0+ +    4 (+Q.                ",
"              (+    a+      G.x     b+c+    `.%.    g.c.    d+Y. +            V.(+              ",
"            &+e+    @       *+f+    c./+    d.&+    g+$.    c.h+                i+j+            ",
"            5+k+    +.l+  |.m+@+    (+$+    = n+  Z.o+p+    k+p+        q+r+    1+              ",
"            ]+x c+  s+@ &   o+2+    ^+d+F   9+x -+  T.^+5+    t+u+i+4   v+8+. G.w+              ",
"                            . ,                                                                 ",
"                            x+                                  y+      ;+    z+                ",
"                    V.    #+A+                                r+  B+  f.q+  C+  B+              ",
"                    + t+c.m+                                %.    B+  D+  E+    %.              ",
"                                                            w     m+&+    .   l+s+              ",
"                                                          v+  F+!+  m+    G+% H+I+              ",
"                                                                                                ",
"                                                                          G.[+                  "};
