/* XPM */
static char * bulmatpv_xpm[] = {
"48 48 571 2",
"  	c None",
". 	c #9CAEEE",
"+ 	c #DBF3E7",
"@ 	c #DEF7E7",
"# 	c #7682F3",
"$ 	c #BBD0EB",
"% 	c #E6FFE6",
"& 	c #C2D6EB",
"* 	c #ABBEED",
"= 	c #CFE6E8",
"- 	c #DAF2E7",
"; 	c #C5DAEA",
"> 	c #A6B7EF",
", 	c #C6DBEA",
"' 	c #BCD1EA",
") 	c #BDD1EB",
"! 	c #C3D8EA",
"~ 	c #CBE1E9",
"{ 	c #DCF4E7",
"] 	c #E1F9E7",
"^ 	c #C7DDE9",
"/ 	c #D2E9E8",
"( 	c #D6EDE8",
"_ 	c #A9BDED",
": 	c #C6DBE9",
"< 	c #BBCFEB",
"[ 	c #BFD4EA",
"} 	c #DDF5E7",
"| 	c #C7DCEA",
"1 	c #ACBFEC",
"2 	c #E4FDE6",
"3 	c #CAE0E9",
"4 	c #E2FBE6",
"5 	c #C9DFE9",
"6 	c #C8DEE9",
"7 	c #C2D7EA",
"8 	c #D8F0E7",
"9 	c #C9DEEB",
"0 	c #D8EFE8",
"a 	c #B8CCEB",
"b 	c #D5ECE8",
"c 	c #CFE5E9",
"d 	c #C4D9EA",
"e 	c #D3EAE8",
"f 	c #B6CAEB",
"g 	c #E0F8E7",
"h 	c #C6DCE9",
"i 	c #000080",
"j 	c #BED3EA",
"k 	c #CDE3E9",
"l 	c #BCD0EB",
"m 	c #E3FCE6",
"n 	c #D0E7E8",
"o 	c #B0C4EC",
"p 	c #D7EEE8",
"q 	c #C1D6EA",
"r 	c #B3C5ED",
"s 	c #DFF7E7",
"t 	c #B0C3EC",
"u 	c #B5C9EB",
"v 	c #CCE2E9",
"w 	c #ACBEED",
"x 	c #B4C8EB",
"y 	c #DEF6E7",
"z 	c #E1FAE6",
"A 	c #C0D5EA",
"B 	c #D9F1E7",
"C 	c #D1E8E7",
"D 	c #080676",
"E 	c #C2D7E9",
"F 	c #BCD1EB",
"G 	c #54556D",
"H 	c #57442C",
"I 	c #BDD2EA",
"J 	c #C9DEEA",
"K 	c #B9CBED",
"L 	c #C9E0E9",
"M 	c #436E9F",
"N 	c #A0B7C9",
"O 	c #96A7EE",
"P 	c #AEC2EC",
"Q 	c #C9DDE9",
"R 	c #C3D9E9",
"S 	c #645C54",
"T 	c #645B49",
"U 	c #A1B2EE",
"V 	c #B4C7EC",
"W 	c #AABDEC",
"X 	c #3B5F94",
"Y 	c #658AA5",
"Z 	c #564832",
"` 	c #A5B6EE",
" .	c #D1E8E8",
"..	c #B7CDEB",
"+.	c #D8EFE7",
"@.	c #A7BAEC",
"#.	c #E5FEE6",
"$.	c #B9CDEB",
"%.	c #CCE3E9",
"&.	c #21558E",
"*.	c #7298B4",
"=.	c #563E1E",
"-.	c #D7EFE7",
";.	c #9AAAEE",
">.	c #CEE4E9",
",.	c #DDF4E8",
"'.	c #426896",
").	c #3C6D9B",
"!.	c #90A2AD",
"~.	c #AABCED",
"{.	c #A4B6ED",
"].	c #D5EDE9",
"^.	c #BACFEB",
"/.	c #D5EBE9",
"(.	c #4F5F86",
"_.	c #778DA0",
":.	c #7B7B77",
"<.	c #95A4EF",
"[.	c #D3E9E9",
"}.	c #ADC0EC",
"|.	c #547599",
"1.	c #164F88",
"2.	c #768287",
"3.	c #8E9DEF",
"4.	c #8E9DF0",
"5.	c #8A98F0",
"6.	c #AFC2EC",
"7.	c #7481F2",
"8.	c #9FB0EE",
"9.	c #CBE2E9",
"0.	c #A0B2EE",
"a.	c #D4EBE8",
"b.	c #C8DEEA",
"c.	c #BACDED",
"d.	c #A9BDEC",
"e.	c #2E5692",
"f.	c #44779F",
"g.	c #787367",
"h.	c #707DF2",
"i.	c #ABBEEC",
"j.	c #8997F1",
"k.	c #98A8EF",
"l.	c #8594F0",
"m.	c #BED2EB",
"n.	c #94A5ED",
"o.	c #5B7B98",
"p.	c #5C637B",
"q.	c #7C98AB",
"r.	c #6771F4",
"s.	c #8D9DF1",
"t.	c #7582F2",
"u.	c #8998F0",
"v.	c #B7CBEB",
"w.	c #91A0EF",
"x.	c #B9CCEC",
"y.	c #658397",
"z.	c #0E3E84",
"A.	c #5B83A3",
"B.	c #7C8AF1",
"C.	c #8F9EF0",
"D.	c #7A87F2",
"E.	c #A0B1EE",
"F.	c #7B88F1",
"G.	c #8997F0",
"H.	c #B3C6EC",
"I.	c #B9CDEC",
"J.	c #C8DFEA",
"K.	c #627485",
"L.	c #355E96",
"M.	c #4576A0",
"N.	c #777770",
"O.	c #8897F0",
"P.	c #95A5EF",
"Q.	c #8999EF",
"R.	c #8D9BF1",
"S.	c #8B9AF0",
"T.	c #6D79F3",
"U.	c #A3B5ED",
"V.	c #B9CCEB",
"W.	c #C7DCE9",
"X.	c #DCF6E4",
"Y.	c #5C81A0",
"Z.	c #345892",
"`.	c #31547C",
" +	c #7D919C",
".+	c #8C9BEF",
"++	c #808EF1",
"@+	c #99A9EF",
"#+	c #8492F1",
"$+	c #DDF4DE",
"%+	c #5C7EA0",
"&+	c #1A4C8A",
"*+	c #5684A6",
"=+	c #6F6C61",
"-+	c #4154B6",
";+	c #9BB0E5",
">+	c #8593F1",
",+	c #94A4EE",
"'+	c #9CADEE",
")+	c #292DFB",
"!+	c #818FF1",
"~+	c #9EAFEE",
"{+	c #C2D7EB",
"]+	c #AAC1BB",
"^+	c #596A8B",
"/+	c #315A94",
"(+	c #6D90AA",
"_+	c #736C5C",
":+	c #373130",
"<+	c #618298",
"[+	c #427096",
"}+	c #4D6A8F",
"|+	c #52697C",
"1+	c #52608D",
"2+	c #6F80D6",
"3+	c #B4C6EC",
"4+	c #5E68F5",
"5+	c #646FF4",
"6+	c #A6B9ED",
"7+	c #D0E7E9",
"8+	c #B2C8CF",
"9+	c #51779C",
"0+	c #1F508D",
"a+	c #64809A",
"b+	c #5F7D93",
"c+	c #565651",
"d+	c #768674",
"e+	c #788575",
"f+	c #5A7D97",
"g+	c #1F5C8C",
"h+	c #115285",
"i+	c #4D7697",
"j+	c #536786",
"k+	c #525F7C",
"l+	c #52597D",
"m+	c #6A7699",
"n+	c #8A9BEF",
"o+	c #99AAEE",
"p+	c #A7BAEE",
"q+	c #A7BAED",
"r+	c #A9BCEC",
"s+	c #B7CAEC",
"t+	c #A7B9ED",
"u+	c #A1B6BE",
"v+	c #6E7F96",
"w+	c #134383",
"x+	c #4A71A3",
"y+	c #7595AD",
"z+	c #777367",
"A+	c #475561",
"B+	c #373531",
"C+	c #677662",
"D+	c #687C65",
"E+	c #727A6E",
"F+	c #376B95",
"G+	c #427297",
"H+	c #205E8C",
"I+	c #496492",
"J+	c #4E5B83",
"K+	c #415075",
"L+	c #586D90",
"M+	c #8FA5DD",
"N+	c #BACBEA",
"O+	c #A7BCD5",
"P+	c #B9CBE3",
"Q+	c #D5EDD9",
"R+	c #7E9AAA",
"S+	c #406999",
"T+	c #285692",
"U+	c #55739D",
"V+	c #395D84",
"W+	c #82898A",
"X+	c #4D5C6A",
"Y+	c #08497B",
"Z+	c #6F8788",
"`+	c #526950",
" @	c #667963",
".@	c #4D5051",
"+@	c #597386",
"@@	c #125385",
"#@	c #346993",
"$@	c #145486",
"%@	c #3E6997",
"&@	c #626C82",
"*@	c #575D79",
"=@	c #5C7B9F",
"-@	c #657B8D",
";@	c #627787",
">@	c #6A7B87",
",@	c #7B8D9A",
"'@	c #95ACB3",
")@	c #89A1AF",
"!@	c #7E9AAB",
"~@	c #55789E",
"{@	c #315A93",
"]@	c #556081",
"^@	c #154684",
"/@	c #698EB2",
"(@	c #84A0B5",
"_@	c #838784",
":@	c #6D7169",
"<@	c #386990",
"[@	c #566D55",
"}@	c #6C7560",
"|@	c #3D6E94",
"1@	c #514F43",
"2@	c #406A89",
"3@	c #376C95",
"4@	c #276290",
"5@	c #4A7698",
"6@	c #4F6D96",
"7@	c #61758A",
"8@	c #677374",
"9@	c #544120",
"0@	c #5B4E36",
"a@	c #534120",
"b@	c #506D90",
"c@	c #0E4080",
"d@	c #114181",
"e@	c #4A6BA3",
"f@	c #5177A6",
"g@	c #6A92B2",
"h@	c #7E878A",
"i@	c #527C9C",
"j@	c #77776F",
"k@	c #799BB7",
"l@	c #79897D",
"m@	c #637861",
"n@	c #5F695F",
"o@	c #647481",
"p@	c #341D09",
"q@	c #331B08",
"r@	c #80939F",
"s@	c #769BB9",
"t@	c #7698B2",
"u@	c #7699B5",
"v@	c #7598B4",
"w@	c #564226",
"x@	c #533E1E",
"y@	c #543D1D",
"z@	c #543D1E",
"A@	c #527094",
"B@	c #306690",
"C@	c #547D9D",
"D@	c #929BA0",
"E@	c #888882",
"F@	c #8E8B7F",
"G@	c #B3CEE1",
"H@	c #CBDEEB",
"I@	c #636566",
"J@	c #6F808B",
"K@	c #697C66",
"L@	c #545952",
"M@	c #200E01",
"N@	c #2A1505",
"O@	c #2D1402",
"P@	c #523C1D",
"Q@	c #54422F",
"R@	c #767068",
"S@	c #C0CFD9",
"T@	c #C5D5E1",
"U@	c #BAC8CF",
"V@	c #6F6450",
"W@	c #543C1D",
"X@	c #533D1C",
"Y@	c #533D1D",
"Z@	c #728085",
"`@	c #6F8BA1",
" #	c #84AFCE",
".#	c #ADCADE",
"+#	c #FDFFFF",
"@#	c #3E3F3A",
"##	c #6B7E68",
"$#	c #3F3D36",
"%#	c #251002",
"&#	c #230E00",
"*#	c #240F00",
"=#	c #281506",
"-#	c #2B1302",
";#	c #3E2919",
">#	c #DED9D2",
",#	c #C6BFB3",
"'#	c #543E1E",
")#	c #553D1D",
"!#	c #3F83B3",
"~#	c #99BDD6",
"{#	c #88B2D0",
"]#	c #D0E1EC",
"^#	c #E0EBF1",
"/#	c #000000",
"(#	c #040200",
"_#	c #241308",
":#	c #271103",
"<#	c #1F0C00",
"[#	c #1D0C00",
"}#	c #1F0D00",
"|#	c #1E0B00",
"1#	c #1F6DA5",
"2#	c #81AECD",
"3#	c #87B1CF",
"4#	c #A0C2DA",
"5#	c #C0D7E5",
"6#	c #508EB9",
"7#	c #005A9B",
"8#	c #2A1000",
"9#	c #281100",
"0#	c #230F00",
"a#	c #281000",
"b#	c #291100",
"c#	c #1568A1",
"d#	c #6A9FC3",
"e#	c #79A8CA",
"f#	c #AFCCDF",
"g#	c #ACCADE",
"h#	c #005B98",
"i#	c #291000",
"j#	c #060100",
"k#	c #2A1100",
"l#	c #170900",
"m#	c #120700",
"n#	c #260F00",
"o#	c #1669A2",
"p#	c #5994BC",
"q#	c #639AC1",
"r#	c #196AA2",
"s#	c #9CBFD7",
"t#	c #09619D",
"u#	c #005B9A",
"v#	c #2B1100",
"w#	c #150800",
"x#	c #090400",
"y#	c #271000",
"z#	c #2371A7",
"A#	c #4E8EB8",
"B#	c #4C8CB8",
"C#	c #0C629E",
"D#	c #85B1CE",
"E#	c #97BDD5",
"F#	c #2D78AA",
"G#	c #005999",
"H#	c #3F281B",
"I#	c #B1CCDE",
"J#	c #92B7D1",
"K#	c #6094B8",
"L#	c #0B161D",
"M#	c #271509",
"N#	c #120800",
"O#	c #250F00",
"P#	c #005B99",
"Q#	c #0B629D",
"R#	c #2975A9",
"S#	c #3B81B1",
"T#	c #2B77AB",
"U#	c #005C9A",
"V#	c #005C99",
"W#	c #0A619C",
"X#	c #72A5C6",
"Y#	c #84B0CE",
"Z#	c #3B80B0",
"`#	c #005A9A",
" $	c #4C565B",
".$	c #687681",
"+$	c #758FA0",
"@$	c #43403E",
"#$	c #342D29",
"$$	c #22597B",
"%$	c #025C9A",
"&$	c #173446",
"*$	c #25170C",
"=$	c #0A3A5C",
"-$	c #015C99",
";$	c #035D9A",
">$	c #1065A0",
",$	c #2070A6",
"'$	c #206FA6",
")$	c #005A99",
"!$	c #1267A1",
"~$	c #669DC2",
"{$	c #76A7C9",
"]$	c #367DAF",
"^$	c #005C9B",
"/$	c #2D1E15",
"($	c #4A5D68",
"_$	c #6A9CBF",
":$	c #6DA0C2",
"<$	c #44505A",
"[$	c #312F2E",
"}$	c #30688D",
"|$	c #2975A8",
"1$	c #1B6DA4",
"2$	c #1569A2",
"3$	c #0A619D",
"4$	c #0D639E",
"5$	c #055E9B",
"6$	c #2472A7",
"7$	c #5C96BE",
"8$	c #6DA1C5",
"9$	c #2472A8",
"0$	c #005B9B",
"a$	c #C6D7E5",
"b$	c #B0CCDE",
"c$	c #5A6D78",
"d$	c #152027",
"e$	c #012136",
"f$	c #264053",
"g$	c #324B5A",
"h$	c #326B92",
"i$	c #357BAA",
"j$	c #2C77AB",
"k$	c #176AA2",
"l$	c #0C639E",
"m$	c #0B619E",
"n$	c #3B81B0",
"o$	c #5390BA",
"p$	c #5894BC",
"q$	c #0A629D",
"r$	c #82A3BA",
"s$	c #656E72",
"t$	c #678394",
"u$	c #88A8BD",
"v$	c #6699BD",
"w$	c #114260",
"x$	c #0A456C",
"y$	c #00375C",
"z$	c #005188",
"A$	c #005A98",
"B$	c #2B76AA",
"C$	c #4285B4",
"D$	c #4D8CB8",
"E$	c #2A77AA",
"F$	c #005D9A",
"G$	c #0E5D93",
"H$	c #779EBA",
"I$	c #8EB6D1",
"J$	c #698395",
"K$	c #59666E",
"L$	c #628092",
"M$	c #45799E",
"N$	c #236795",
"O$	c #0E649F",
"P$	c #045D9B",
"Q$	c #1569A1",
"R$	c #2B77AA",
"S$	c #3A80B0",
"T$	c #3D83B2",
"U$	c #2976AA",
"V$	c #025D9B",
"W$	c #001A29",
"X$	c #004F86",
"Y$	c #045E9B",
"Z$	c #4184AF",
"`$	c #7FAAC8",
" %	c #7AA8CA",
".%	c #70A1C1",
"+%	c #6198BF",
"@%	c #5893BC",
"#%	c #4789B5",
"$%	c #4285B3",
"%%	c #3E83B2",
"&%	c #3C82B1",
"*%	c #367EAE",
"=%	c #327CAD",
"-%	c #1367A1",
";%	c #005289",
">%	c #10649C",
",%	c #2E79AA",
"'%	c #4387B4",
")%	c #377EAE",
"!%	c #2A76AB",
"~%	c #196AA3",
"{%	c #07609B",
"                                                                                                ",
"                                                . + @                                           ",
"                                # $ % &     * = - % % ;                                         ",
"                              > , % % %   ' ) ! ~ { ]                                           ",
"                              ^ ) ^ / ( _ : < % % [ }                                           ",
"                            | 1 2 % 3 4 5 6 ^ ~ 7 8 % 9                                         ",
"                            0 a b c d e f 1 5 g 3 % % h                               i         ",
"                            f j } 2 k l + m n ; / % % [                               i         ",
"                          o p % f ) q ~ % / f 4 3 ] %                                 i         ",
"                          r % + h s t % p { ~ % % u v                                 i         ",
"                          w % v c 8 x g 6 0 y z A B C                                 D         ",
"                          ! = c v [ ~ ! % = % < % % E       F 6 / m                   G H       ",
"                          = I % J q v % p 8 e p l K     L ^ , d % % ~                 M N       ",
"                        O 4 k % P 0 k % ^ ! n z Q     R 5 < % g ! s                   S T       ",
"                        U % n k V z ( c m A % !     W 6 a n c ; e y                 X Y Z       ",
"                        ` %  ...j n g / % q +.    @.#.#.$.4 v #.% %.                &.*.=.      ",
"                        1 s -.;.#.= >.% I ,.    V / p 5 7 n k % %                 '.).!.        ",
"                        ~.c 5 {.(  .B [ ].    ^.h d b 6 { % >.% /.                (._.:.        ",
"                        U v <.( k d 6 [.    }.} 3 % 3 c g n 5 ^                 |.1.2.          ",
"                      3.u 4.5.6.7.8.9.    0.+ a.% q c p a % % b.c.6.d.          e.f.g.          ",
"                      h.i.j.k.l.7 m.    n. .= 4 3 ! ) 8 ~ v < < i.7 q 3       o.p.q.            ",
"                      r.s.t.u.v.'     w.d >.a.; % , 4 % k c x.< 2 b b % -   y.z.A.              ",
"                      B.C.D.E.~ F.  G.H.c ~ k 3 [ 3 = % I.J.q ] >.] [ g - K.L.M.N.              ",
"                      O.l.P.l Q.  R.P.S.T.U.a c ^ 6 k V.W.s j k 3 n z X.Y.Z.`. +                ",
"                      .+++k.@+  O.B.#+l / % % % y v , y , k % % / % $+%+&+*+=+                  ",
"                    -+;+>+u ,+'+)+!+; H.~+1 >.e x {+k f % { ~ 4 c ]+^+/+(+_+                    ",
"          :+    <+[+}+|+1+2+3+4+5+a {.f >.g ~ 6+7+% + $.v j 0 8+9+0+a+b+                        ",
"      c+d+e+  f+g+h+i+j+k+l+m+n+o+p+q+r+s+l t+H. .v l 8 % u+v+w+x+y+z+                          ",
"  A+B+C+D+E+  F+h+G+h+H+I+J+K+L+M+N+O+P+U.~.= g h k Q+R+S+T+U+V+W+                              ",
"X+Y+Z+`+ @.@+@@@#@$@h+h+h+%@&@*@=@-@;@>@,@'@)@!@~@{@]@^@/@(@_@:@                                ",
"  <@[@`+}@|@1@2@3@4@4@4@5@4@6@7@8@9@0@a@b@c@d@e@f@g@h@i@j@                                      ",
"  k@l@m@n@o@p@q@r@s@s@t@u@s@v@w@x@y@z@z@A@B@C@D@E@F@      G@H@                                  ",
"  I@J@K@L@M@N@O@P@Q@R@S@T@U@V@W@X@W@X@Y@Z@`@             #.#      +#                            ",
"    @###$#%#&#*#=#-#;#>#,#        z@'#)#              !#~#{#    ]#^#                            ",
"  /#(#_#:#  <#[#}#|#                                1#2#3#    4#5#6#7#                          ",
"/#  8#        &#9#}#0#a#b#                        c#d#e#      f#g#h#                            ",
"/#i#          j#}#k#l#m#n#k#k#                  o#p#q#r#    s#g#t#u#                            ",
"    v#          /#w#8#  /#x#y#b#            u#z#A#B#C#    D#E#F#G#                              ",
"  /#    H#I#J#K#  L#M#    N#O#        h#P#Q#R#S#T#U#V#W#X#Y#Z#`#                                ",
"           $.$+$@$#$$$%$&$*$=$`#P#P#-$;$>$,$'$t#P#)$!$~${$]$^$                                  ",
"              /$($_$:$<$[$}$|$'$1$2$C#3$4$5$P#P#)$6$7$8$9$0$                                    ",
"      a$b$c$d$e$    f$g$h$i$j$z#k$l$%$P#P#P#P#m$n$o$p$q$P#                                      ",
"      r$s$t$u$v$  w$x$y$z$P#u#A$P#P#P#P#P#C#B$C$D$E$F$u#                                        ",
"      P#G$H$I$J$K$L$M$N$O$U#P#h#P$q$Q$,$R$S$T$U$V$P#                                            ",
"      W$X$A$Y$Z$`$ %.%d#+%@%6##%$%%%&%*%=%-%V#P#0$                                              ",
"              V#P#;%>%,%T$'%S#)%!%~%{%P#u#h#                                                    ",
"                    P#h#A$P#P#P#P#P#A$                                                          ",
"                                                                                                "};
