/* XPM */
static char * bulmacont_xpm[] = {
"48 48 597 2",
"  	c None",
". 	c #FFFFFF",
"+ 	c #6A805D",
"@ 	c #476639",
"# 	c #385A30",
"$ 	c #466540",
"% 	c #576A4E",
"& 	c #808477",
"* 	c #B0BDA8",
"= 	c #3E4826",
"- 	c #4C451E",
"; 	c #527246",
"> 	c #376031",
", 	c #1E4C19",
"' 	c #3C592C",
") 	c #384428",
"! 	c #3F4B2F",
"~ 	c #555B48",
"{ 	c #616853",
"] 	c #44493B",
"^ 	c #ECEDE9",
"/ 	c #4F6042",
"( 	c #503B21",
"_ 	c #56653E",
": 	c #6B6A4C",
"< 	c #7D9D75",
"[ 	c #2A5524",
"} 	c #405D31",
"| 	c #426332",
"1 	c #454E33",
"2 	c #496038",
"3 	c #3E3825",
"4 	c #384121",
"5 	c #32352C",
"6 	c #809479",
"7 	c #365B2C",
"8 	c #4B4A22",
"9 	c #4F4823",
"0 	c #627C55",
"a 	c #477C43",
"b 	c #3D5D34",
"c 	c #495938",
"d 	c #475437",
"e 	c #495137",
"f 	c #4E603F",
"g 	c #515B3D",
"h 	c #3F4A27",
"i 	c #434E32",
"j 	c #DDE0DA",
"k 	c #43683C",
"l 	c #325D29",
"m 	c #3C5D2F",
"n 	c #4B7440",
"o 	c #477B41",
"p 	c #54714F",
"q 	c #57684A",
"r 	c #496037",
"s 	c #455E34",
"t 	c #4B573C",
"u 	c #527242",
"v 	c #4A6C3A",
"w 	c #374725",
"x 	c #385527",
"y 	c #1B1D17",
"z 	c #758B70",
"A 	c #3F6739",
"B 	c #335C2A",
"C 	c #335B29",
"D 	c #436239",
"E 	c #64795C",
"F 	c #7A8871",
"G 	c #4D6B42",
"H 	c #364A2A",
"I 	c #354329",
"J 	c #3F4633",
"K 	c #484E3D",
"L 	c #455638",
"M 	c #324C24",
"N 	c #213817",
"O 	c #32382D",
"P 	c #C0C8BB",
"Q 	c #53754E",
"R 	c #43693C",
"S 	c #355B2C",
"T 	c #3A562E",
"U 	c #47593B",
"V 	c #617059",
"W 	c #616C5C",
"X 	c #506F44",
"Y 	c #4B7F39",
"Z 	c #476A36",
"` 	c #4D613F",
" .	c #5A5F4D",
"..	c #535E44",
"+.	c #40642C",
"@.	c #3B4E2C",
"#.	c #161812",
"$.	c #7D9376",
"%.	c #2B4028",
"&.	c #42653D",
"*.	c #3B5D30",
"=.	c #3B542F",
"-.	c #4D6941",
";.	c #66775F",
">.	c #6E8068",
",.	c #536D46",
"'.	c #3F5630",
").	c #406031",
"!.	c #4E6F41",
"~.	c #5D6A51",
"{.	c #4D5C3F",
"].	c #334F25",
"^.	c #405332",
"/.	c #F7FAF7",
"(.	c #6F9F67",
"_.	c #395836",
":.	c #55774C",
"<.	c #435F37",
"[.	c #456238",
"}.	c #516A46",
"|.	c #677E60",
"1.	c #759470",
"2.	c #5C8151",
"3.	c #4D6E40",
"4.	c #48643C",
"5.	c #49693E",
"6.	c #395332",
"7.	c #36562E",
"8.	c #28441E",
"9.	c #2A3324",
"0.	c #DFE3DB",
"a.	c #4E7948",
"b.	c #5F7C5A",
"c.	c #53724A",
"d.	c #47693A",
"e.	c #476A3A",
"f.	c #527047",
"g.	c #6B8164",
"h.	c #738B6E",
"i.	c #57724D",
"j.	c #3E5B34",
"k.	c #25451E",
"l.	c #21411C",
"m.	c #3B5A34",
"n.	c #2C3F27",
"o.	c #0F130D",
"p.	c #7F9375",
"q.	c #4D7046",
"r.	c #648B5E",
"s.	c #557C4C",
"t.	c #457038",
"u.	c #47773B",
"v.	c #537248",
"w.	c #698464",
"x.	c #3E6037",
"y.	c #1D3D17",
"z.	c #22431B",
"A.	c #3D5E34",
"B.	c #262E22",
"C.	c #E2E5DE",
"D.	c #3C612F",
"E.	c #507248",
"F.	c #68A662",
"G.	c #528648",
"H.	c #468738",
"I.	c #446F38",
"J.	c #528148",
"K.	c #4E704A",
"L.	c #4E6E4B",
"M.	c #2A4924",
"N.	c #2A4D22",
"O.	c #335129",
"P.	c #1E231B",
"Q.	c #8FA386",
"R.	c #295420",
"S.	c #69A963",
"T.	c #518B47",
"U.	c #3A692F",
"V.	c #427935",
"W.	c #407E38",
"X.	c #4D6C48",
"Y.	c #466442",
"Z.	c #3A5C32",
"`.	c #284420",
" +	c #131611",
".+	c #F5FBF5",
"++	c #85B580",
"@+	c #366230",
"#+	c #42673C",
"$+	c #577851",
"%+	c #416739",
"&+	c #2B5623",
"*+	c #2C6C22",
"=+	c #457E3C",
"-+	c #4E6D4A",
";+	c #5A7955",
">+	c #416238",
",+	c #2C3727",
"'+	c #91B387",
")+	c #89BE84",
"!+	c #7FB379",
"~+	c #42633D",
"{+	c #2A4B24",
"]+	c #2A4D24",
"^+	c #1F4218",
"/+	c #294C20",
"(+	c #2A4B25",
"_+	c #4D6B4A",
":+	c #4D6C49",
"<+	c #506945",
"[+	c #FDFFFD",
"}+	c #7DB073",
"|+	c #89BD82",
"1+	c #6DA062",
"2+	c #41633A",
"3+	c #34582C",
"4+	c #11320C",
"5+	c #11310C",
"6+	c #163611",
"7+	c #173612",
"8+	c #526A4A",
"9+	c #2C2D2B",
"0+	c #0F0F0C",
"a+	c #A8BE95",
"b+	c #85BA7E",
"c+	c #75AB63",
"d+	c #4A7036",
"e+	c #4D6B43",
"f+	c #4E7046",
"g+	c #3E6036",
"h+	c #466641",
"i+	c #2A4828",
"j+	c #0B2809",
"k+	c #1C3611",
"l+	c #7E8C73",
"m+	c #67864E",
"n+	c #56703B",
"o+	c #4E6333",
"p+	c #689750",
"q+	c #649C50",
"r+	c #4D8438",
"s+	c #355B2E",
"t+	c #54734A",
"u+	c #4F7147",
"v+	c #4E7045",
"w+	c #4F7049",
"x+	c #486742",
"y+	c #132F10",
"z+	c #0E3B08",
"A+	c #425D28",
"B+	c #282C17",
"C+	c #F3F8F1",
"D+	c #3B7526",
"E+	c #568E3F",
"F+	c #5A923D",
"G+	c #60814B",
"H+	c #5E7D54",
"I+	c #54764E",
"J+	c #56774E",
"K+	c #567851",
"L+	c #4E6C48",
"M+	c #1A4112",
"N+	c #1D5115",
"O+	c #263A19",
"P+	c #81A56E",
"Q+	c #74A95F",
"R+	c #78AA5E",
"S+	c #3F7830",
"T+	c #548F42",
"U+	c #699F50",
"V+	c #80AE5F",
"W+	c #5F804F",
"X+	c #587852",
"Y+	c #5F7F59",
"Z+	c #557552",
"`+	c #476642",
" @	c #4D833D",
".@	c #396F2F",
"+@	c #1F5111",
"@@	c #2E4D1A",
"#@	c #285E16",
"$@	c #4C832F",
"%@	c #346A1E",
"&@	c #51883E",
"*@	c #659F58",
"=@	c #77AC63",
"-@	c #88BA6D",
";@	c #76A862",
">@	c #608959",
",@	c #60805B",
"'@	c #4F6D4C",
")@	c #4F7B49",
"!@	c #75AA63",
"~@	c #5E9453",
"{@	c #205612",
"]@	c #104208",
"^@	c #244D14",
"/@	c #FCFEFC",
"(@	c #174D0C",
"_@	c #386C1F",
":@	c #245A15",
"<@	c #558C46",
"[@	c #689D5F",
"}@	c #73A665",
"|@	c #7FAF6C",
"1@	c #74A667",
"2@	c #679A5E",
"3@	c #67995F",
"4@	c #70A465",
"5@	c #72A666",
"6@	c #6BA062",
"7@	c #54853B",
"8@	c #1C5312",
"9@	c #205212",
"0@	c #18460D",
"a@	c #1F4A12",
"b@	c #194D0D",
"c@	c #2A611F",
"d@	c #609656",
"e@	c #578B4A",
"f@	c #61935A",
"g@	c #68995E",
"h@	c #5A8D55",
"i@	c #5B8E56",
"j@	c #5F9158",
"k@	c #659B53",
"l@	c #5C9149",
"m@	c #2C6521",
"n@	c #34641D",
"o@	c #15460C",
"p@	c #81A56B",
"q@	c #6D9555",
"r@	c #7CA05F",
"s@	c #ACC698",
"t@	c #4E743E",
"u@	c #0E4308",
"v@	c #396E2E",
"w@	c #72A66A",
"x@	c #568B46",
"y@	c #477841",
"z@	c #4C7C44",
"A@	c #467741",
"B@	c #42733E",
"C@	c #467740",
"D@	c #507748",
"E@	c #7A9D67",
"F@	c #84B873",
"G@	c #5D954F",
"H@	c #427A32",
"I@	c #34681E",
"J@	c #184D0D",
"K@	c #89AC6A",
"L@	c #8A9B7B",
"M@	c #567C3D",
"N@	c #397228",
"O@	c #4E8639",
"P@	c #1C4E10",
"Q@	c #15480C",
"R@	c #4A7E3F",
"S@	c #80B379",
"T@	c #729A5E",
"U@	c #2B5C28",
"V@	c #2F5E29",
"W@	c #2B5B28",
"X@	c #285826",
"Y@	c #295926",
"Z@	c #285926",
"`@	c #2B5A27",
" #	c #4E5D3E",
".#	c #DBDFD8",
"+#	c #8CB77E",
"@#	c #86BA79",
"##	c #659D58",
"$#	c #588F44",
"%#	c #376D24",
"&#	c #2C6219",
"*#	c #759755",
"=#	c #B9BFAA",
"-#	c #53723A",
";#	c #396225",
">#	c #2F5B1B",
",#	c #34551D",
"'#	c #34601D",
")#	c #0A3C05",
"!#	c #1A500E",
"~#	c #5C8F51",
"{#	c #799268",
"]#	c #575B60",
"^#	c #5B744F",
"/#	c #235120",
"(#	c #1E4F1C",
"_#	c #1C4D1B",
":#	c #1D4D1B",
"<#	c #34562E",
"[#	c #49563B",
"}#	c #B1B7B1",
"|#	c #8FAD7C",
"1#	c #88BA7E",
"2#	c #75AB67",
"3#	c #5C9047",
"4#	c #1C4F10",
"5#	c #495E2D",
"6#	c #616E48",
"7#	c #67844B",
"8#	c #637D45",
"9#	c #415229",
"0#	c #262D15",
"a#	c #434C4A",
"b#	c #5D744C",
"c#	c #11440A",
"d#	c #396C26",
"e#	c #81AE74",
"f#	c #0D1E26",
"g#	c #69786F",
"h#	c #58684B",
"i#	c #506443",
"j#	c #4D623F",
"k#	c #3B4A36",
"l#	c #9AA195",
"m#	c #84AB73",
"n#	c #71A258",
"o#	c #225812",
"p#	c #264C15",
"q#	c #506831",
"r#	c #4D6B3D",
"s#	c #2A5B17",
"t#	c #39712E",
"u#	c #86AC77",
"v#	c #C3D3B4",
"w#	c #74AB6A",
"x#	c #397129",
"y#	c #114609",
"z#	c #2F421B",
"A#	c #BBD4E2",
"B#	c #335A24",
"C#	c #154D0C",
"D#	c #518844",
"E#	c #7F966C",
"F#	c #E0EBF2",
"G#	c #83B178",
"H#	c #5F9450",
"I#	c #235914",
"J#	c #224914",
"K#	c #C8DBE9",
"L#	c #3A6228",
"M#	c #1A530E",
"N#	c #80B067",
"O#	c #4C5E48",
"P#	c #005A99",
"Q#	c #005B99",
"R#	c #005B98",
"S#	c #005C99",
"T#	c #B8CCA8",
"U#	c #79AE70",
"V#	c #619145",
"W#	c #1C4F0F",
"X#	c #1B2B22",
"Y#	c #CADAD9",
"Z#	c #1A4910",
"`#	c #296018",
" $	c #6E9E61",
".$	c #002842",
"+$	c #005A9A",
"@$	c #DEEAEF",
"#$	c #93C58A",
"$$	c #639956",
"%$	c #285D17",
"&$	c #2F481D",
"*$	c #587C50",
"=$	c #92B583",
"-$	c #A6C3A2",
";$	c #619043",
">$	c #2D6419",
",$	c #407630",
"'$	c #94BB84",
")$	c #00375E",
"!$	c #005C98",
"~$	c #005C9A",
"{$	c #005B9A",
"]$	c #A5C5DB",
"^$	c #9CC391",
"/$	c #7EB276",
"($	c #457C37",
"_$	c #2D5119",
":$	c #7C9573",
"<$	c #2D4720",
"[$	c #254316",
"}$	c #215314",
"|$	c #467E27",
"1$	c #3E7922",
"2$	c #49802D",
"3$	c #70A35E",
"4$	c #4D7637",
"5$	c #003C63",
"6$	c #307AAD",
"7$	c #AFC6A2",
"8$	c #94C58C",
"9$	c #568B4C",
"0$	c #1C4F15",
"a$	c #395E24",
"b$	c #567A56",
"c$	c #031F0D",
"d$	c #C2CFC2",
"e$	c #2D5B2A",
"f$	c #1D4A15",
"g$	c #1A4B0E",
"h$	c #235513",
"i$	c #32631E",
"j$	c #396A20",
"k$	c #36682B",
"l$	c #376C26",
"m$	c #4D6A3F",
"n$	c #17300E",
"o$	c #CEE0DE",
"p$	c #9BCC93",
"q$	c #82B676",
"r$	c #5F9746",
"s$	c #3B7224",
"t$	c #508141",
"u$	c #5A8A48",
"v$	c #54884C",
"w$	c #597D52",
"x$	c #000C13",
"y$	c #494949",
"z$	c #91AD7E",
"A$	c #1F5510",
"B$	c #243F14",
"C$	c #384F31",
"D$	c #1A2D0F",
"E$	c #142733",
"F$	c #004E84",
"G$	c #004473",
"H$	c #00416C",
"I$	c #004F86",
"J$	c #045D9A",
"K$	c #B4CBC2",
"L$	c #75A65E",
"M$	c #356A2A",
"N$	c #609756",
"O$	c #669B53",
"P$	c #2C6318",
"Q$	c #407C2D",
"R$	c #4F8240",
"S$	c #4A6C39",
"T$	c #63845E",
"U$	c #81A87C",
"V$	c #76A07F",
"W$	c #BBC6B2",
"X$	c #325F2D",
"Y$	c #202911",
"Z$	c #002E50",
"`$	c #00395E",
" %	c #005187",
".%	c #0C639D",
"+%	c #93ACA1",
"@%	c #1C3C13",
"#%	c #2C3B27",
"$%	c #2A4E1B",
"%%	c #5B8949",
"&%	c #275C15",
"*%	c #45792B",
"=%	c #346223",
"-%	c #16470C",
";%	c #1F5013",
">%	c #35602C",
",%	c #3A6031",
"'%	c #001910",
")%	c #10200C",
"!%	c #005794",
"~%	c #1165A0",
"{%	c #00426C",
"]%	c #2272A7",
"^%	c #6E8874",
"/%	c #142E0E",
"(%	c #697865",
"_%	c #1A4A0E",
":%	c #518848",
"<%	c #90B384",
"[%	c #001E32",
"}%	c #002944",
"|%	c #002733",
"1%	c #003459",
"2%	c #005793",
"3%	c #12669F",
"4%	c #0A5789",
"5%	c #003E6A",
"6%	c #0C639E",
"7%	c #8499A2",
"8%	c #254919",
"9%	c #689462",
"0%	c #003150",
"a%	c #003B63",
"b%	c #196CA2",
"c%	c #94ACB1",
"d%	c #021908",
"e%	c #003659",
"f%	c #00548D",
"                                                                                                ",
"                                      . + @ # $ % &                                             ",
"                                      * = - ; > , ' ) ! ~ { ]                                   ",
"                                    ^ / ( _ : < [ } | 1 2 3 4 5                                 ",
"                                  . 6 7 8 9 0 a b c d e f g h i                                 ",
"                                  j k l m n o p q r s t u v w x y                               ",
"                                . z A B C D E F G H I J K L M N O                               ",
"                                P Q R S T U V W X Y Z `  ...+.@.#.                              ",
"                              . $.%.&.*.=.-.;.>.,.'.).!.~.{.].^.                                ",
"                              /.(._.:.<.[.}.|.1.2.3.4.5.6.7.8.9.                                ",
"                              0.a.b.c.d.e.f.g.h.i.j.k.l.m.n.o.                                  ",
"                              p.q.r.s.t.u.v.g.w.x.y.z.A.B.                                      ",
"                            C.D.E.F.G.H.I.J.K.L.M.N.O.P.                                        ",
"                            Q.R.q.S.T.U.V.W.X.Y.Z.`. +                                          ",
"                          .+++@+#+$+%+&+*+=+-+;+>+,+                                            ",
"                          '+)+!+~+{+]+^+/+(+_+:+<+                                              ",
"                        [+}+|+1+2+3+4+5+6+7+8+9+0+                                              ",
"                        a+b+c+d+e+f+g+h+i+j+k+l+m+n+o+                                          ",
"                        p+q+r+s+t+u+v+w+x+y+z+A+B+                                              ",
"                      C+D+E+F+G+H+I+J+K+L+M+N+O+                                                ",
"                  P+Q+R+S+T+U+V+W+X+Y+Z+`+ @.@+@@@                                              ",
"                . #@$@%@&@*@=@-@;@>@,@'@)@!@~@{@]@^@                                            ",
"                /@(@_@:@<@[@}@|@1@[@2@3@4@5@6@7@8@9@0@                                          ",
"                . a@b@c@d@e@f@g@f@h@i@h@j@j@i@k@l@m@n@o@                                        ",
"          p@q@r@s@t@u@v@w@x@y@z@A@B@B@B@C@C@D@E@F@G@H@I@J@K@                                    ",
"          L@M@N@O@P@Q@R@S@T@U@V@W@X@Y@Z@`@W@ #.#+#@###$#%#&#*#                                  ",
"      =#-#;#>#,#'#)#!#~#{#]#^#/#(#_#:#:#<#[#    }#|#1#2#3#4#5#6#7#8#                            ",
"          9#0#a#b#c#d#e#f#    g#h#i#j#k#            l#m#n#o#p#    q#                            ",
"                r#s#t#u#                              v#w#x#y#z#                                ",
"              A#B#C#D#E#                              F#G#H#I#J#                                ",
"              K#L#M#N#O#      P#P#Q#Q#R#Q#S#            T#U#V#W#X#                              ",
"              Y#Z#`# $.$  P#+$P#S#Q#R#Q#R#Q#Q#P#Q#Q#    @$#$$$%$&$                              ",
"      *$=$  -$;$>$,$'$)$R#!$R#R#S#R#Q#R#Q#R#~${$R#+$Q#S#]$^$/$($_$                              ",
"    :$<$[$}$|$1$2$3$4$5$  Q#S#Q#Q#Q#Q#{$Q#Q#S#Q#Q#Q#Q#R#6$7$8$9$0$a$      b$c$                  ",
"d$e$f$g$h$i$j$k$l$m$n$    P#Q#~$R#~$Q#S#P#Q#S#S#Q#P#S#R#~$o$p$q$r$s$t$u$v$w$x$                  ",
"      y$z$A$B$C$D$E$        P#F$G$H$G$I$Q#S#Q#Q#Q#Q#Q#J$K$L$M$N$O$P$Q$R$S$T$U$V$                ",
"      W$X$Y$                                Z$`$ %Q#Q#.%+%@%#%$%%%&%*%=%-%;%>%,%'%              ",
"        )%                                          )$!%~%{%]%^%/%(%_%:%<%[%}%  |%              ",
"                                                        1%2%3%4%5%6%7%8%9%0%                    ",
"                                                            a%{$+$~$b%c%d%e%                    ",
"                                                                f%                              ",
"                                                                                                ",
"                                                                                                ",
"                                                                                                ",
"                                                                                                ",
"                                                                                                ",
"                                                                                                ",
"                                                                                                "};
