/* XPM */
static const char *cpasivo[]={
"16 16 5 1",
". c None",
"# c #808000",
"b c #808080",
"c c #c00000",
"a c #c0c000",
"................",
".......#######..",
".......#aaaa##b.",
".......#aaa#a#b.",
"..#####aaaaa##b.",
"..#aaaaaaaa#a#b.",
"..#aaccccaaa##b.",
"..#aacaaaca#a#b.",
"..#aacaaacaa##b.",
"..#aaccccaa#a#b.",
"..#aacaaaaaa##b.",
"..#aacaaaaa#a#b.",
"..#aacaaaaaa##b.",
"..#aaaaaaaa#a#b.",
"..############b.",
"...bbbbbbbbbbbb."};
