<?xml version="1.0" encoding="UTF-8" standalone="no"?>
<!-- Created with Inkscape (http://www.inkscape.org/) -->
<svg
   xmlns:dc="http://purl.org/dc/elements/1.1/"
   xmlns:cc="http://creativecommons.org/ns#"
   xmlns:rdf="http://www.w3.org/1999/02/22-rdf-syntax-ns#"
   xmlns:svg="http://www.w3.org/2000/svg"
   xmlns="http://www.w3.org/2000/svg"
   xmlns:xlink="http://www.w3.org/1999/xlink"
   xmlns:sodipodi="http://sodipodi.sourceforge.net/DTD/sodipodi-0.dtd"
   xmlns:inkscape="http://www.inkscape.org/namespaces/inkscape"
   width="248"
   height="248"
   id="svg2"
   sodipodi:version="0.32"
   inkscape:version="0.46"
   sodipodi:docbase="/home/anna/Desktop/elferrer/Documents/iglues/Nuevo logotipo IGLUES - 12 06 2006"
   sodipodi:docname="iglues.org.svg"
   inkscape:export-filename="/home/raul/Documents/iglues/Nuevo logotipo IGLUES - 12 06 2006/IGLUES definitivo - color azul.png"
   inkscape:export-xdpi="96"
   inkscape:export-ydpi="96"
   inkscape:output_extension="org.inkscape.output.svg.inkscape"
   sodipodi:modified="true"
   version="1.0">
  <defs
     id="defs4">
    <inkscape:perspective
       sodipodi:type="inkscape:persp3d"
       inkscape:vp_x="0 : 526.18109 : 1"
       inkscape:vp_y="0 : 1000 : 0"
       inkscape:vp_z="744.09448 : 526.18109 : 1"
       inkscape:persp3d-origin="372.04724 : 350.78739 : 1"
       id="perspective52" />
    <linearGradient
       id="linearGradient3286">
      <stop
         id="stop3288"
         offset="0"
         style="stop-color:#005b99;stop-opacity:1;" />
      <stop
         id="stop3290"
         offset="1"
         style="stop-color:#005b99;stop-opacity:0;" />
    </linearGradient>
    <linearGradient
       id="linearGradient5761">
      <stop
         style="stop-color:#000000;stop-opacity:1;"
         offset="0"
         id="stop5763" />
      <stop
         style="stop-color:#000000;stop-opacity:0;"
         offset="1"
         id="stop5765" />
    </linearGradient>
    <radialGradient
       inkscape:collect="always"
       xlink:href="#linearGradient5761"
       id="radialGradient2369"
       gradientUnits="userSpaceOnUse"
       gradientTransform="matrix(-3.377282e-6,-1,1,-3.377282e-6,-485.8917,715.1012)"
       cx="609.01288"
       cy="601.34766"
       fx="609.01288"
       fy="601.34766"
       r="74.342102" />
    <radialGradient
       inkscape:collect="always"
       xlink:href="#linearGradient5761"
       id="radialGradient5039"
       gradientUnits="userSpaceOnUse"
       gradientTransform="matrix(-3.377282e-6,-1,1,-3.377282e-6,-485.8917,715.1012)"
       cx="609.01288"
       cy="601.34766"
       fx="609.01288"
       fy="601.34766"
       r="74.342102" />
    <radialGradient
       inkscape:collect="always"
       xlink:href="#linearGradient5761"
       id="radialGradient1635"
       gradientUnits="userSpaceOnUse"
       gradientTransform="matrix(-3.377282e-6,-1,1,-3.377282e-6,-517.6013,695.2827)"
       cx="609.01288"
       cy="601.34766"
       fx="609.01288"
       fy="601.34766"
       r="74.342102" />
    <radialGradient
       inkscape:collect="always"
       xlink:href="#linearGradient5761"
       id="radialGradient1656"
       gradientUnits="userSpaceOnUse"
       gradientTransform="matrix(-3.377282e-6,-1,1,-3.377282e-6,-517.6013,695.2827)"
       cx="609.01288"
       cy="601.34766"
       fx="609.01288"
       fy="601.34766"
       r="74.342102" />
    <radialGradient
       inkscape:collect="always"
       xlink:href="#linearGradient5761"
       id="radialGradient1678"
       gradientUnits="userSpaceOnUse"
       gradientTransform="matrix(-3.377282e-6,-1,1,-3.377282e-6,264.5016,691.8005)"
       cx="609.01288"
       cy="601.34766"
       fx="609.01288"
       fy="601.34766"
       r="74.342102" />
    <radialGradient
       inkscape:collect="always"
       xlink:href="#linearGradient5761"
       id="radialGradient1681"
       gradientUnits="userSpaceOnUse"
       gradientTransform="matrix(-3.377282e-6,-1,1,-3.377282e-6,577.589,688.1279)"
       cx="609.01288"
       cy="601.34766"
       fx="609.01288"
       fy="601.34766"
       r="74.342102" />
    <radialGradient
       inkscape:collect="always"
       xlink:href="#linearGradient5761"
       id="radialGradient1695"
       gradientUnits="userSpaceOnUse"
       gradientTransform="matrix(-3.377282e-6,-1,1,-3.377282e-6,-517.6013,695.2827)"
       cx="609.01288"
       cy="601.34766"
       fx="609.01288"
       fy="601.34766"
       r="74.342102" />
    <radialGradient
       inkscape:collect="always"
       xlink:href="#linearGradient5761"
       id="radialGradient1698"
       gradientUnits="userSpaceOnUse"
       gradientTransform="matrix(-3.377282e-6,-1,1,-3.377282e-6,573.0997,653.7322)"
       cx="609.01288"
       cy="601.34766"
       fx="609.01288"
       fy="601.34766"
       r="74.342102" />
    <radialGradient
       inkscape:collect="always"
       xlink:href="#linearGradient5761"
       id="radialGradient4043"
       gradientUnits="userSpaceOnUse"
       gradientTransform="matrix(-3.377282e-6,-1,1,-3.377282e-6,573.0997,653.7322)"
       cx="609.01288"
       cy="601.34766"
       fx="609.01288"
       fy="601.34766"
       r="74.342102" />
    <radialGradient
       inkscape:collect="always"
       xlink:href="#linearGradient5761"
       id="radialGradient4943"
       gradientUnits="userSpaceOnUse"
       gradientTransform="matrix(-4.817017e-7,-0.14263,0.14263,-4.817017e-7,127.7738,907.1157)"
       cx="609.01288"
       cy="601.34766"
       fx="609.01288"
       fy="601.34766"
       r="74.342102" />
    <radialGradient
       inkscape:collect="always"
       xlink:href="#linearGradient5761"
       id="radialGradient4966"
       gradientUnits="userSpaceOnUse"
       gradientTransform="matrix(-4.817017e-7,-0.14263,0.14263,-4.817017e-7,526.9488,907.1921)"
       cx="609.01288"
       cy="601.34766"
       fx="609.01288"
       fy="601.34766"
       r="74.342102" />
    <radialGradient
       inkscape:collect="always"
       xlink:href="#linearGradient5761"
       id="radialGradient1538"
       gradientUnits="userSpaceOnUse"
       gradientTransform="matrix(-3.377282e-6,-1,1,-3.377282e-6,-247.89275,691.8916)"
       cx="609.01288"
       cy="601.34766"
       fx="609.01288"
       fy="601.34766"
       r="74.342102" />
    <radialGradient
       inkscape:collect="always"
       xlink:href="#linearGradient5761"
       id="radialGradient1672"
       gradientUnits="userSpaceOnUse"
       gradientTransform="matrix(-3.377282e-6,-1,1,-3.377282e-6,1051.786,400.6338)"
       cx="609.01288"
       cy="601.34766"
       fx="609.01288"
       fy="601.34766"
       r="74.342102" />
    <radialGradient
       inkscape:collect="always"
       xlink:href="#linearGradient5761"
       id="radialGradient3193"
       gradientUnits="userSpaceOnUse"
       gradientTransform="matrix(-3.377282e-6,-1,1,-3.377282e-6,346.1469,677.4057)"
       cx="609.01288"
       cy="601.34766"
       fx="609.01288"
       fy="601.34766"
       r="74.342102" />
    <radialGradient
       inkscape:collect="always"
       xlink:href="#linearGradient5761"
       id="radialGradient4125"
       gradientUnits="userSpaceOnUse"
       gradientTransform="matrix(-3.377282e-6,-1,1,-3.377282e-6,346.1469,677.4057)"
       cx="609.01288"
       cy="601.34766"
       fx="609.01288"
       fy="601.34766"
       r="74.342102" />
    <radialGradient
       inkscape:collect="always"
       xlink:href="#linearGradient5761"
       id="radialGradient4127"
       gradientUnits="userSpaceOnUse"
       gradientTransform="matrix(-3.377282e-6,-1,1,-3.377282e-6,346.1469,677.4057)"
       cx="609.01288"
       cy="601.34766"
       fx="609.01288"
       fy="601.34766"
       r="74.342102" />
    <radialGradient
       inkscape:collect="always"
       xlink:href="#linearGradient5761"
       id="radialGradient1431"
       gradientUnits="userSpaceOnUse"
       gradientTransform="matrix(-3.377282e-6,-1,1,-3.377282e-6,-874.291,1073.162)"
       cx="609.01288"
       cy="601.34766"
       fx="609.01288"
       fy="601.34766"
       r="74.342102" />
    <radialGradient
       inkscape:collect="always"
       xlink:href="#linearGradient5761"
       id="radialGradient3204"
       gradientUnits="userSpaceOnUse"
       gradientTransform="matrix(1.425676e-6,-0.422137,-0.422137,-1.425676e-6,827.4633,688.1003)"
       cx="609.01288"
       cy="601.34766"
       fx="609.01288"
       fy="601.34766"
       r="74.342102" />
    <radialGradient
       inkscape:collect="always"
       xlink:href="#linearGradient5761"
       id="radialGradient1432"
       gradientUnits="userSpaceOnUse"
       gradientTransform="matrix(-1.425676e-6,-0.422137,0.422137,-1.425676e-6,-75.89276,688.1003)"
       cx="609.01288"
       cy="601.34766"
       fx="609.01288"
       fy="601.34766"
       r="74.342102" />
    <radialGradient
       inkscape:collect="always"
       xlink:href="#linearGradient3286"
       id="radialGradient2303"
       gradientUnits="userSpaceOnUse"
       gradientTransform="matrix(-3.377282e-6,-1,1,-3.377282e-6,2.10725,691.8916)"
       cx="609.01288"
       cy="601.34766"
       fx="609.01288"
       fy="601.34766"
       r="74.342102" />
    <radialGradient
       inkscape:collect="always"
       xlink:href="#linearGradient3286"
       id="radialGradient3237"
       gradientUnits="userSpaceOnUse"
       gradientTransform="matrix(-3.377282e-6,-1,1,-3.377282e-6,2.10725,691.8916)"
       cx="609.01288"
       cy="601.34766"
       fx="609.01288"
       fy="601.34766"
       r="74.342102" />
  </defs>
  <sodipodi:namedview
     id="base"
     pagecolor="#ffffff"
     bordercolor="#666666"
     borderopacity="1.0"
     inkscape:pageopacity="0.0"
     inkscape:pageshadow="2"
     inkscape:zoom="1.3286765"
     inkscape:cx="114.6867"
     inkscape:cy="124"
     inkscape:document-units="px"
     inkscape:current-layer="layer1"
     showguides="true"
     inkscape:guide-bbox="true"
     inkscape:window-width="973"
     inkscape:window-height="668"
     inkscape:window-x="0"
     inkscape:window-y="0"
     showgrid="false" />
  <metadata
     id="metadata7">
    <rdf:RDF>
      <cc:Work
         rdf:about="">
        <dc:format>image/svg+xml</dc:format>
        <dc:type
           rdf:resource="http://purl.org/dc/dcmitype/StillImage" />
      </cc:Work>
    </rdf:RDF>
  </metadata>
  <g
     inkscape:label="Layer 1"
     inkscape:groupmode="layer"
     id="layer1">
    <g
       id="g3239"
       transform="translate(-499.76053,-303.65369)">
      <g
         style="fill:#ffffff;fill-opacity:1"
         transform="translate(3.3391409,297.96009)"
         id="g2441">
        <text
           inkscape:export-ydpi="144.53"
           inkscape:export-xdpi="144.53"
           inkscape:export-filename="/home/raul/Documents/iglues/Nuevo logotipo IGLUES - 12 06 2006/IGLUES definitivo - color azul.png"
           xml:space="preserve"
           style="font-size:87.91007233px;font-style:italic;font-variant:normal;font-weight:normal;font-stretch:normal;text-indent:0;text-align:start;text-decoration:none;line-height:125%;letter-spacing:normal;word-spacing:normal;text-transform:none;direction:ltr;block-progression:tb;writing-mode:lr-tb;text-anchor:start;fill:#ffffff;fill-opacity:1;fill-rule:nonzero;stroke:none;stroke-width:0.625;stroke-linecap:butt;stroke-linejoin:miter;marker:none;marker-start:none;marker-mid:none;marker-end:none;stroke-miterlimit:4;stroke-dasharray:none;stroke-dashoffset:0;stroke-opacity:1;visibility:visible;display:inline;overflow:visible;font-family:Gentium"
           x="524.01221"
           y="212.03618"
           id="text2443"
           sodipodi:linespacing="125%"><tspan
             sodipodi:role="line"
             id="tspan2445"
             x="524.01221"
             y="212.03618">iglues</tspan></text>
        <path
           id="path2447"
           style="fill:#ffffff;fill-opacity:1;fill-rule:nonzero;stroke:none;stroke-width:0.625;stroke-linecap:butt;stroke-linejoin:miter;marker:none;marker-start:none;marker-mid:none;marker-end:none;stroke-miterlimit:4;stroke-dashoffset:0;stroke-opacity:1;visibility:visible;display:inline;overflow:visible"
           d="M 680.02555,159.33538 C 699.61325,139.69488 711.73185,112.58808 711.73195,82.70799 C 711.73195,52.79119 699.58435,25.69882 679.95495,6.0966204 L 657.41785,28.74369 C 671.24035,42.57079 679.79445,61.66719 679.79445,82.73919 C 679.79435,103.78278 671.26105,122.85168 657.46925,136.66998 L 680.02555,159.33538 z M 577.53615,56.99955 C 570.98425,63.59525 566.94245,72.70387 566.94245,82.74955 C 566.94245,92.92545 571.11505,102.11848 577.81745,108.74955 L 586.72365,99.9683 C 582.24695,95.61091 579.44245,89.5234 579.44245,82.7808 C 579.44245,76.2182 582.08045,70.24378 586.34865,65.9058 L 577.53615,56.99955 z"
           sodipodi:nodetypes="csccscccsccscc"
           inkscape:export-filename="/home/raul/Documents/iglues/Nuevo logotipo IGLUES - 12 06 2006/IGLUES definitivo - color azul.png"
           inkscape:export-xdpi="144.53"
           inkscape:export-ydpi="144.53" />
        <path
           id="path2449"
           style="fill:#ffffff;fill-opacity:1;fill-rule:nonzero;stroke:none;stroke-width:0.625;stroke-linecap:butt;stroke-linejoin:miter;marker:none;marker-start:none;marker-mid:none;marker-end:none;stroke-miterlimit:4;stroke-dashoffset:0;stroke-opacity:1;visibility:visible;display:inline;overflow:visible"
           d="M 630.77845,109.94408 C 637.72625,102.96618 642.02685,93.35029 642.02685,82.74969 C 642.02685,72.14629 637.72405,62.54129 630.77295,55.57609 L 656.13845,30.28619 C 669.52225,43.73019 677.79495,62.26669 677.79495,82.73399 C 677.79485,103.34668 669.40425,122.00098 655.85245,135.46758 L 630.77845,109.94408 z M 551.15665,135.57008 C 537.54405,122.09578 529.11075,103.39898 529.11075,82.73399 C 529.11075,62.21499 537.42535,43.63649 550.86885,30.18429 L 576.25985,55.50009 C 569.27725,62.47139 564.95635,72.10769 564.95625,82.74969 C 564.95625,93.46529 569.33725,103.17458 576.40505,110.17018 L 551.15665,135.57008 z"
           inkscape:export-filename="/home/raul/Documents/iglues/Nuevo logotipo IGLUES - 12 06 2006/IGLUES definitivo - color azul.png"
           inkscape:export-xdpi="144.53"
           inkscape:export-ydpi="144.53" />
        <path
           d="M 663.98265,220.27384 C 663.12295,220.31031 662.27025,220.53912 661.42305,220.92792 C 660.48835,221.35698 659.64505,221.87912 658.86375,222.49202 C 657.85235,223.30416 656.99395,224.14961 656.30425,225.02302 C 655.61465,225.89645 655.06865,226.80306 654.65485,227.75308 C 654.24115,228.70312 653.92875,229.68402 653.74485,230.71065 C 653.56085,231.72199 653.48885,232.79248 653.48885,233.89573 C 653.48885,235.15222 653.62435,236.30569 653.91535,237.39362 C 654.22195,238.46624 654.65655,239.41222 655.22365,240.209 C 655.80575,240.99049 656.50055,241.61313 657.32795,242.05749 C 658.17085,242.51718 659.12765,242.74001 660.20025,242.74 C 660.65995,242.74 661.14725,242.66352 661.62215,242.54094 C 662.09725,242.41836 662.55605,242.25889 663.01565,242.02905 C 663.47535,241.81452 663.93625,241.55236 664.38065,241.26122 C 664.82505,240.97008 665.23355,240.67299 665.63195,240.3512 C 666.48995,239.64633 667.23495,238.85112 667.87855,237.96239 C 668.53745,237.05834 669.11205,236.09925 669.55645,235.11857 C 670.00065,234.12258 670.32195,233.11766 670.55175,232.07569 C 670.78155,231.0184 670.89305,229.97414 670.89305,228.94749 C 670.89305,227.67568 670.76845,226.5069 670.52325,225.44959 C 670.27815,224.39232 669.89365,223.4857 669.35735,222.71952 C 668.83635,221.95339 668.15255,221.35699 667.30985,220.92792 C 666.46705,220.4989 665.46225,220.27388 664.26685,220.27384 C 664.17785,220.27384 664.07155,220.27006 663.98265,220.27384 z M 679.11175,220.27384 C 678.92495,220.29252 678.63555,220.37332 678.28695,220.47291 C 677.87325,220.59552 677.40355,220.75718 676.83665,220.95636 C 676.26975,221.15558 675.64695,221.39151 674.98815,221.66731 C 674.34455,221.92782 673.69795,222.2009 673.05435,222.49202 L 673.39555,223.34516 C 673.39555,223.34518 673.46765,223.30584 673.65155,223.25985 C 673.85075,223.19858 674.07365,223.15052 674.33415,223.08922 C 674.59455,223.01262 674.86975,222.92302 675.13035,222.86171 C 675.40605,222.80044 675.61805,222.77642 675.75595,222.7764 C 675.87855,222.77642 675.98995,222.80265 676.09715,222.83328 C 676.10495,222.8352 676.11815,222.83107 676.12565,222.83328 C 676.16955,222.84836 676.23045,222.89274 676.26785,222.91859 C 676.31025,222.95085 676.34805,222.98542 676.38165,223.03234 C 676.47355,223.1243 676.56315,223.27284 676.60915,223.48735 C 676.67035,223.68658 676.69445,223.95966 676.69445,224.31206 C 676.69445,224.77177 676.65725,225.38129 676.58065,226.13211 C 676.51945,226.88295 676.41885,227.74152 676.29625,228.69154 C 676.18895,229.64159 676.06675,230.65962 675.89815,231.76287 C 675.74495,232.86613 675.55705,234.01091 675.35785,235.17545 C 675.17405,236.32468 674.97535,237.48035 674.76065,238.6449 C 674.54615,239.80945 674.33635,240.94111 674.10655,242.02905 L 674.84585,242.74 C 675.02975,242.63274 675.26575,242.50822 675.55685,242.37031 C 675.84815,242.24773 676.16045,242.11009 676.46695,241.97217 C 676.78875,241.83427 677.08565,241.69662 677.37695,241.57404 C 677.68335,241.43613 677.94555,241.3116 678.14475,241.20434 C 678.11415,240.59141 678.12725,239.94697 678.17325,239.24211 C 678.21915,238.52192 678.28045,237.78788 678.37225,237.05237 C 678.47965,236.31687 678.59095,235.60904 678.71345,234.9195 C 678.85145,234.21465 678.99995,233.56799 679.16845,232.98571 C 679.49025,231.88245 679.88795,230.80327 680.36295,229.71532 C 680.85335,228.61208 681.37755,227.60275 681.89855,226.72931 C 682.43495,225.84059 682.94175,225.13277 683.46275,224.59644 C 683.99895,224.04483 684.48625,223.77175 684.88465,223.77174 C 684.90605,223.77223 684.94915,223.76976 684.96985,223.77174 C 685.01125,223.77668 685.07295,223.78931 685.11215,223.80017 C 685.12505,223.80412 685.15635,223.82401 685.16905,223.82861 C 685.18155,223.83355 685.21355,223.85145 685.22585,223.85705 C 685.29915,223.89261 685.38875,223.93999 685.45335,223.99924 C 685.45875,224.00435 685.47655,224.02241 685.48185,224.02768 C 685.66555,224.19625 685.82525,224.36882 685.99365,224.56801 C 686.17755,224.7519 686.36325,224.9398 686.56245,225.10833 C 686.63625,225.16628 686.73565,225.21249 686.81845,225.25052 C 686.85645,225.26698 686.92075,225.29505 686.96065,225.3074 C 687.01695,225.32353 687.09965,225.32777 687.15965,225.33584 C 687.21155,225.34176 687.27575,225.36427 687.33035,225.36427 C 687.33515,225.36427 687.35385,225.3645 687.35865,225.36427 C 687.36365,225.36383 687.38225,225.36495 687.38715,225.36427 C 687.39215,225.36337 687.41055,225.33696 687.41565,225.33584 C 687.42065,225.33449 687.43895,225.33741 687.44405,225.33584 C 687.44925,225.33404 687.46725,225.33786 687.47245,225.33584 C 687.48305,225.33135 687.51865,225.31279 687.52945,225.3074 C 687.53475,225.30448 687.55235,225.2821 687.55785,225.27896 C 687.65065,225.22173 687.76485,225.14513 687.87065,225.02302 C 688.06975,224.79318 688.28175,224.5201 688.49625,224.19831 C 688.72605,223.86122 688.93585,223.49854 689.15035,223.1461 C 689.38025,222.79368 689.59205,222.50971 689.77595,222.26451 C 689.43885,222.12663 689.12655,221.93873 688.86595,221.72419 C 688.60555,221.49436 688.35645,221.28466 688.12655,221.07011 C 687.89675,220.85561 687.67385,220.6546 687.44405,220.50135 C 687.41725,220.4822 687.38655,220.46122 687.35865,220.44447 C 687.30275,220.41215 687.21955,220.3819 687.15965,220.35916 C 687.02385,220.31068 686.85975,220.27386 686.70465,220.27384 C 686.21425,220.27387 685.70525,220.38748 685.16905,220.58666 C 684.63275,220.77056 684.06035,221.13102 683.46275,221.66731 C 682.88035,222.20364 682.27315,222.93548 681.61425,223.88549 C 680.95525,224.83553 680.24525,226.06548 679.50975,227.58245 C 679.55575,227.29133 679.61915,226.93307 679.68045,226.47336 C 679.75695,226.01368 679.81815,225.53961 679.87945,225.07989 C 679.94075,224.6049 680.00425,224.17015 680.05015,223.77174 C 680.09605,223.37336 680.10695,223.08716 680.10705,222.91859 C 680.10705,222.3823 680.12225,221.94757 680.10705,221.61044 C 680.09165,221.25802 680.02615,220.99805 679.96475,220.81417 C 679.93315,220.67724 679.89045,220.55193 679.82265,220.47291 C 679.79675,220.44609 679.76795,220.40675 679.73725,220.38759 C 679.61475,220.311 679.44005,220.27388 679.22545,220.27384 C 679.19095,220.27385 679.15475,220.26953 679.11175,220.27384 z M 701.49255,220.27384 C 701.09955,220.29252 700.69295,220.37332 700.26975,220.47291 C 699.76395,220.59552 699.25495,220.75718 698.73395,220.95636 C 698.21305,221.15558 697.71715,221.3784 697.22675,221.63887 C 696.73635,221.89938 696.26235,222.15933 695.83335,222.43514 C 694.69935,223.18598 693.71845,224.03146 692.87575,224.96614 C 692.03295,225.88554 691.33825,226.86645 690.77125,227.92371 C 690.21975,228.96569 689.79585,230.08644 689.51995,231.25098 C 689.24415,232.40022 689.09355,233.56679 689.09345,234.77731 C 689.09345,236.21769 689.25505,237.43453 689.57695,238.44584 C 689.89875,239.44184 690.30945,240.2764 690.79975,240.91996 C 691.30545,241.54821 691.85375,241.99387 692.42075,242.28499 C 693.00305,242.57613 693.53615,242.74001 694.04175,242.74 C 694.71585,242.74 695.42365,242.46692 696.17465,241.9153 C 696.92545,241.37899 697.67255,240.68206 698.39275,239.83931 C 699.12825,238.99655 699.82515,238.06369 700.46875,237.05237 C 701.12755,236.02573 701.68475,235.03172 702.17505,234.06636 C 702.14435,234.78655 702.12025,235.48125 702.08975,236.17078 C 702.05905,236.845 702.00885,237.55504 701.94755,238.27521 C 701.90155,238.98007 701.84035,239.72724 701.74855,240.49339 C 701.67185,241.24422 701.57355,242.0241 701.43565,242.88219 C 701.40785,243.04213 701.37975,243.21049 701.35025,243.36564 L 704.45005,243.36564 C 704.59555,242.84138 704.69655,242.3209 704.79135,241.7731 C 705.00585,240.59323 705.18275,239.3982 705.27485,238.21833 C 705.38205,237.02314 705.44095,235.79539 705.50235,234.49293 C 705.57895,233.17516 705.66645,231.75731 705.75825,230.25564 C 705.86555,228.754 706.02725,227.10243 706.24165,225.27896 C 706.37955,224.17572 706.60465,223.29091 706.89575,222.66265 C 707.20225,222.03442 707.62605,221.49918 708.14705,221.07011 L 707.60665,220.27384 C 707.20825,220.47306 706.81065,220.71121 706.41235,220.95636 C 706.02915,221.20154 705.65555,221.47242 705.30325,221.8095 C 705.05805,221.65629 704.81125,221.50994 704.53535,221.32605 C 704.27495,221.14219 703.98875,220.9674 703.68235,220.81417 C 703.39115,220.66095 703.06555,220.53644 702.74375,220.44447 C 702.42205,220.33723 702.11395,220.27388 701.77685,220.27384 C 701.68785,220.27385 701.58325,220.26953 701.49255,220.27384 z M 699.13215,222.69109 C 699.24035,222.68248 699.36325,222.69109 699.47345,222.69109 C 699.90245,222.69111 700.31315,222.75228 700.69625,222.89015 C 701.07925,223.01275 701.42665,223.17442 701.74855,223.3736 C 702.08555,223.57282 702.38265,223.78475 702.65855,223.99924 C 702.93435,224.21378 703.19645,224.41258 703.42635,224.59644 C 703.31905,224.85695 703.20535,225.13004 703.11355,225.42115 C 703.03685,225.7123 702.98885,226.03785 702.94285,226.35961 C 702.82025,227.07981 702.70665,227.73516 702.63005,228.37872 C 702.56875,229.00697 702.52065,229.6165 702.45945,230.19877 C 701.95375,231.43994 701.35515,232.64808 700.69625,233.78198 C 700.05265,234.91589 699.43445,235.90989 698.79095,236.76798 C 698.16255,237.62608 697.55085,238.29456 696.99925,238.81553 C 696.44765,239.3212 696.01295,239.58336 695.69115,239.58336 C 695.23135,239.58336 694.79675,239.43481 694.38295,239.12835 C 693.96925,238.82189 693.60875,238.38716 693.30235,237.8202 C 692.99585,237.25324 692.74685,236.56945 692.56295,235.77265 C 692.37915,234.97586 692.30705,234.06701 692.30705,233.07102 C 692.30695,232.47343 692.38125,231.80274 692.53455,231.05191 C 692.70305,230.30109 692.92585,229.54302 693.21705,228.77686 C 693.52355,227.99539 693.88405,227.25044 694.29765,226.53024 C 694.72665,225.79475 695.19845,225.13498 695.71965,224.56801 C 696.25585,224.00107 696.85445,223.56854 697.48265,223.23141 C 698.01275,222.93406 698.54755,222.73756 699.13215,222.69109 z M 662.21935,222.97547 C 662.36755,222.96274 662.51925,222.97547 662.67435,222.97547 C 664.25265,222.97549 665.45635,223.58279 666.31445,224.82395 C 667.17255,226.06513 667.62255,227.85435 667.62265,230.19877 C 667.62255,230.82703 667.57235,231.51082 667.48045,232.24631 C 667.38855,232.98183 667.22465,233.72899 667.02545,234.46449 C 666.82625,235.20001 666.59255,235.90782 666.28605,236.59736 C 665.97965,237.27157 665.59275,237.8811 665.14855,238.4174 C 664.71945,238.93839 664.23665,239.3469 663.66975,239.66868 C 663.11805,239.97514 662.46935,240.12369 661.76435,240.12369 C 661.05965,240.12369 660.41505,239.9249 659.80215,239.52649 C 659.20455,239.1281 658.66925,238.60817 658.20965,237.93395 C 657.76525,237.24442 657.41775,236.4492 657.15745,235.54514 C 656.91215,234.62577 656.78775,233.64266 656.78765,232.61601 C 656.78765,231.63535 656.87285,230.57798 657.07205,229.45937 C 657.27125,228.32549 657.60785,227.29654 658.06745,226.33117 C 658.52715,225.36584 659.13655,224.57063 659.88755,223.94237 C 660.53265,223.38932 661.31385,223.05326 662.21935,222.97547 z M 700.29815,247.03417 C 700.03705,247.68198 699.76295,248.25513 699.44495,248.74046 C 698.57155,250.07356 697.40495,250.73113 695.91865,250.73113 C 695.19845,250.73112 694.54955,250.65685 694.01335,250.50363 C 693.47695,250.35038 693.03135,250.16469 692.64825,249.93486 C 692.26515,249.72032 691.92875,249.47129 691.65295,249.19547 C 691.39245,248.93497 691.16955,248.68591 690.97035,248.45608 C 690.78655,248.24155 690.62485,248.06897 690.48695,247.91575 C 690.38735,247.79124 690.27375,247.71159 690.17415,247.68825 C 690.15885,247.68585 690.13255,247.68825 690.11725,247.68825 C 690.11375,247.68844 690.09245,247.68785 690.08875,247.68825 C 690.08505,247.68883 690.06425,247.68747 690.06035,247.68825 C 689.94985,247.71859 689.78865,247.81077 689.57695,247.97263 C 689.33185,248.17182 689.06965,248.40776 688.80905,248.68358 C 688.54865,248.97472 688.32575,249.27181 688.12655,249.5936 C 687.95845,249.87803 687.84005,250.15997 687.81375,250.38987 C 687.81065,250.42363 687.81375,250.47106 687.81375,250.50363 C 687.81375,250.55534 687.82765,250.62093 687.84215,250.67425 C 687.91285,250.89758 688.11615,251.16225 688.43945,251.41365 C 688.86855,251.73542 689.40365,252.01941 690.03195,252.29523 C 690.66005,252.57104 691.34385,252.79386 692.07955,252.97775 C 692.83025,253.17693 693.51185,253.29056 694.15545,253.29057 C 695.35055,253.29056 696.53265,252.96502 697.68175,252.35211 C 698.84635,251.7545 699.88835,250.94838 700.83845,249.90642 C 701.61755,249.06544 702.31495,248.10474 702.91445,247.03417 L 700.29815,247.03417 z M 647.35045,247.01667 C 647.82425,247.4884 648.47715,247.78037 649.19695,247.78037 C 649.91695,247.78037 650.56905,247.48822 651.04195,247.01625 L 652.75905,248.7385 C 651.84625,249.64724 650.58775,250.20892 649.19805,250.20892 C 647.79855,250.20892 646.53195,249.63923 645.61755,248.71911 L 647.35045,247.01667 z M 645.61065,241.61057 C 646.52545,240.68631 647.79495,240.1137 649.19805,240.1137 C 650.59115,240.1137 651.85255,240.67825 652.76595,241.59105 L 651.04705,243.31502 C 650.57375,242.84091 649.91945,242.54753 649.19695,242.54753 C 648.46935,242.54753 647.81015,242.84496 647.33525,243.32486 L 645.61065,241.61057 z"
           style="font-size:87.91007233px;font-style:italic;font-variant:normal;font-weight:normal;font-stretch:normal;text-indent:0;text-align:start;text-decoration:none;line-height:125%;letter-spacing:normal;word-spacing:normal;text-transform:none;direction:ltr;block-progression:tb;writing-mode:lr-tb;text-anchor:start;fill:#ffffff;fill-opacity:1;fill-rule:nonzero;stroke:none;stroke-width:0.625;stroke-linecap:butt;stroke-linejoin:miter;marker:none;marker-start:none;marker-mid:none;marker-end:none;stroke-miterlimit:4;stroke-dashoffset:0;stroke-opacity:1;visibility:visible;display:inline;overflow:visible;font-family:Gentium"
           id="path2451" />
      </g>
      <g
         transform="translate(3.3391399,297.96009)"
         id="g3225">
        <text
           inkscape:export-ydpi="144.53"
           inkscape:export-xdpi="144.53"
           inkscape:export-filename="/home/raul/Documents/iglues/Nuevo logotipo IGLUES - 12 06 2006/IGLUES definitivo - color azul.png"
           xml:space="preserve"
           style="font-size:87.91007233px;font-style:italic;font-variant:normal;font-weight:normal;font-stretch:normal;text-indent:0;text-align:start;text-decoration:none;line-height:125%;letter-spacing:normal;word-spacing:normal;text-transform:none;direction:ltr;block-progression:tb;writing-mode:lr-tb;text-anchor:start;fill:#005b99;fill-opacity:1;fill-rule:nonzero;stroke:none;stroke-width:0.625;stroke-linecap:butt;stroke-linejoin:miter;marker:none;marker-start:none;marker-mid:none;marker-end:none;stroke-miterlimit:4;stroke-dasharray:none;stroke-dashoffset:0;stroke-opacity:1;visibility:visible;display:inline;overflow:visible;font-family:Gentium"
           x="524.01221"
           y="212.03618"
           id="text3227"
           sodipodi:linespacing="125%"><tspan
             sodipodi:role="line"
             id="tspan3229"
             x="524.01221"
             y="212.03618">iglues</tspan></text>
        <path
           id="path3231"
           style="fill:#005b99;fill-opacity:1;fill-rule:nonzero;stroke:none;stroke-width:0.625;stroke-linecap:butt;stroke-linejoin:miter;marker:none;marker-start:none;marker-mid:none;marker-end:none;stroke-miterlimit:4;stroke-dashoffset:0;stroke-opacity:1;visibility:visible;display:inline;overflow:visible"
           d="M 680.02555,159.33538 C 699.61325,139.69488 711.73185,112.58808 711.73195,82.70799 C 711.73195,52.79119 699.58435,25.69882 679.95495,6.0966204 L 657.41785,28.74369 C 671.24035,42.57079 679.79445,61.66719 679.79445,82.73919 C 679.79435,103.78278 671.26105,122.85168 657.46925,136.66998 L 680.02555,159.33538 z M 577.53615,56.99955 C 570.98425,63.59525 566.94245,72.70387 566.94245,82.74955 C 566.94245,92.92545 571.11505,102.11848 577.81745,108.74955 L 586.72365,99.9683 C 582.24695,95.61091 579.44245,89.5234 579.44245,82.7808 C 579.44245,76.2182 582.08045,70.24378 586.34865,65.9058 L 577.53615,56.99955 z"
           sodipodi:nodetypes="csccscccsccscc"
           inkscape:export-filename="/home/raul/Documents/iglues/Nuevo logotipo IGLUES - 12 06 2006/IGLUES definitivo - color azul.png"
           inkscape:export-xdpi="144.53"
           inkscape:export-ydpi="144.53" />
        <path
           id="path3233"
           style="fill:url(#radialGradient3237);fill-opacity:1;fill-rule:nonzero;stroke:none;stroke-width:0.625;stroke-linecap:butt;stroke-linejoin:miter;marker:none;marker-start:none;marker-mid:none;marker-end:none;stroke-miterlimit:4;stroke-dashoffset:0;stroke-opacity:1;visibility:visible;display:inline;overflow:visible"
           d="M 630.77845,109.94408 C 637.72625,102.96618 642.02685,93.35029 642.02685,82.74969 C 642.02685,72.14629 637.72405,62.54129 630.77295,55.57609 L 656.13845,30.28619 C 669.52225,43.73019 677.79495,62.26669 677.79495,82.73399 C 677.79485,103.34668 669.40425,122.00098 655.85245,135.46758 L 630.77845,109.94408 z M 551.15665,135.57008 C 537.54405,122.09578 529.11075,103.39898 529.11075,82.73399 C 529.11075,62.21499 537.42535,43.63649 550.86885,30.18429 L 576.25985,55.50009 C 569.27725,62.47139 564.95635,72.10769 564.95625,82.74969 C 564.95625,93.46529 569.33725,103.17458 576.40505,110.17018 L 551.15665,135.57008 z"
           inkscape:export-filename="/home/raul/Documents/iglues/Nuevo logotipo IGLUES - 12 06 2006/IGLUES definitivo - color azul.png"
           inkscape:export-xdpi="144.53"
           inkscape:export-ydpi="144.53" />
        <path
           d="M 663.98265,220.27384 C 663.12295,220.31031 662.27025,220.53912 661.42305,220.92792 C 660.48835,221.35698 659.64505,221.87912 658.86375,222.49202 C 657.85235,223.30416 656.99395,224.14961 656.30425,225.02302 C 655.61465,225.89645 655.06865,226.80306 654.65485,227.75308 C 654.24115,228.70312 653.92875,229.68402 653.74485,230.71065 C 653.56085,231.72199 653.48885,232.79248 653.48885,233.89573 C 653.48885,235.15222 653.62435,236.30569 653.91535,237.39362 C 654.22195,238.46624 654.65655,239.41222 655.22365,240.209 C 655.80575,240.99049 656.50055,241.61313 657.32795,242.05749 C 658.17085,242.51718 659.12765,242.74001 660.20025,242.74 C 660.65995,242.74 661.14725,242.66352 661.62215,242.54094 C 662.09725,242.41836 662.55605,242.25889 663.01565,242.02905 C 663.47535,241.81452 663.93625,241.55236 664.38065,241.26122 C 664.82505,240.97008 665.23355,240.67299 665.63195,240.3512 C 666.48995,239.64633 667.23495,238.85112 667.87855,237.96239 C 668.53745,237.05834 669.11205,236.09925 669.55645,235.11857 C 670.00065,234.12258 670.32195,233.11766 670.55175,232.07569 C 670.78155,231.0184 670.89305,229.97414 670.89305,228.94749 C 670.89305,227.67568 670.76845,226.5069 670.52325,225.44959 C 670.27815,224.39232 669.89365,223.4857 669.35735,222.71952 C 668.83635,221.95339 668.15255,221.35699 667.30985,220.92792 C 666.46705,220.4989 665.46225,220.27388 664.26685,220.27384 C 664.17785,220.27384 664.07155,220.27006 663.98265,220.27384 z M 679.11175,220.27384 C 678.92495,220.29252 678.63555,220.37332 678.28695,220.47291 C 677.87325,220.59552 677.40355,220.75718 676.83665,220.95636 C 676.26975,221.15558 675.64695,221.39151 674.98815,221.66731 C 674.34455,221.92782 673.69795,222.2009 673.05435,222.49202 L 673.39555,223.34516 C 673.39555,223.34518 673.46765,223.30584 673.65155,223.25985 C 673.85075,223.19858 674.07365,223.15052 674.33415,223.08922 C 674.59455,223.01262 674.86975,222.92302 675.13035,222.86171 C 675.40605,222.80044 675.61805,222.77642 675.75595,222.7764 C 675.87855,222.77642 675.98995,222.80265 676.09715,222.83328 C 676.10495,222.8352 676.11815,222.83107 676.12565,222.83328 C 676.16955,222.84836 676.23045,222.89274 676.26785,222.91859 C 676.31025,222.95085 676.34805,222.98542 676.38165,223.03234 C 676.47355,223.1243 676.56315,223.27284 676.60915,223.48735 C 676.67035,223.68658 676.69445,223.95966 676.69445,224.31206 C 676.69445,224.77177 676.65725,225.38129 676.58065,226.13211 C 676.51945,226.88295 676.41885,227.74152 676.29625,228.69154 C 676.18895,229.64159 676.06675,230.65962 675.89815,231.76287 C 675.74495,232.86613 675.55705,234.01091 675.35785,235.17545 C 675.17405,236.32468 674.97535,237.48035 674.76065,238.6449 C 674.54615,239.80945 674.33635,240.94111 674.10655,242.02905 L 674.84585,242.74 C 675.02975,242.63274 675.26575,242.50822 675.55685,242.37031 C 675.84815,242.24773 676.16045,242.11009 676.46695,241.97217 C 676.78875,241.83427 677.08565,241.69662 677.37695,241.57404 C 677.68335,241.43613 677.94555,241.3116 678.14475,241.20434 C 678.11415,240.59141 678.12725,239.94697 678.17325,239.24211 C 678.21915,238.52192 678.28045,237.78788 678.37225,237.05237 C 678.47965,236.31687 678.59095,235.60904 678.71345,234.9195 C 678.85145,234.21465 678.99995,233.56799 679.16845,232.98571 C 679.49025,231.88245 679.88795,230.80327 680.36295,229.71532 C 680.85335,228.61208 681.37755,227.60275 681.89855,226.72931 C 682.43495,225.84059 682.94175,225.13277 683.46275,224.59644 C 683.99895,224.04483 684.48625,223.77175 684.88465,223.77174 C 684.90605,223.77223 684.94915,223.76976 684.96985,223.77174 C 685.01125,223.77668 685.07295,223.78931 685.11215,223.80017 C 685.12505,223.80412 685.15635,223.82401 685.16905,223.82861 C 685.18155,223.83355 685.21355,223.85145 685.22585,223.85705 C 685.29915,223.89261 685.38875,223.93999 685.45335,223.99924 C 685.45875,224.00435 685.47655,224.02241 685.48185,224.02768 C 685.66555,224.19625 685.82525,224.36882 685.99365,224.56801 C 686.17755,224.7519 686.36325,224.9398 686.56245,225.10833 C 686.63625,225.16628 686.73565,225.21249 686.81845,225.25052 C 686.85645,225.26698 686.92075,225.29505 686.96065,225.3074 C 687.01695,225.32353 687.09965,225.32777 687.15965,225.33584 C 687.21155,225.34176 687.27575,225.36427 687.33035,225.36427 C 687.33515,225.36427 687.35385,225.3645 687.35865,225.36427 C 687.36365,225.36383 687.38225,225.36495 687.38715,225.36427 C 687.39215,225.36337 687.41055,225.33696 687.41565,225.33584 C 687.42065,225.33449 687.43895,225.33741 687.44405,225.33584 C 687.44925,225.33404 687.46725,225.33786 687.47245,225.33584 C 687.48305,225.33135 687.51865,225.31279 687.52945,225.3074 C 687.53475,225.30448 687.55235,225.2821 687.55785,225.27896 C 687.65065,225.22173 687.76485,225.14513 687.87065,225.02302 C 688.06975,224.79318 688.28175,224.5201 688.49625,224.19831 C 688.72605,223.86122 688.93585,223.49854 689.15035,223.1461 C 689.38025,222.79368 689.59205,222.50971 689.77595,222.26451 C 689.43885,222.12663 689.12655,221.93873 688.86595,221.72419 C 688.60555,221.49436 688.35645,221.28466 688.12655,221.07011 C 687.89675,220.85561 687.67385,220.6546 687.44405,220.50135 C 687.41725,220.4822 687.38655,220.46122 687.35865,220.44447 C 687.30275,220.41215 687.21955,220.3819 687.15965,220.35916 C 687.02385,220.31068 686.85975,220.27386 686.70465,220.27384 C 686.21425,220.27387 685.70525,220.38748 685.16905,220.58666 C 684.63275,220.77056 684.06035,221.13102 683.46275,221.66731 C 682.88035,222.20364 682.27315,222.93548 681.61425,223.88549 C 680.95525,224.83553 680.24525,226.06548 679.50975,227.58245 C 679.55575,227.29133 679.61915,226.93307 679.68045,226.47336 C 679.75695,226.01368 679.81815,225.53961 679.87945,225.07989 C 679.94075,224.6049 680.00425,224.17015 680.05015,223.77174 C 680.09605,223.37336 680.10695,223.08716 680.10705,222.91859 C 680.10705,222.3823 680.12225,221.94757 680.10705,221.61044 C 680.09165,221.25802 680.02615,220.99805 679.96475,220.81417 C 679.93315,220.67724 679.89045,220.55193 679.82265,220.47291 C 679.79675,220.44609 679.76795,220.40675 679.73725,220.38759 C 679.61475,220.311 679.44005,220.27388 679.22545,220.27384 C 679.19095,220.27385 679.15475,220.26953 679.11175,220.27384 z M 701.49255,220.27384 C 701.09955,220.29252 700.69295,220.37332 700.26975,220.47291 C 699.76395,220.59552 699.25495,220.75718 698.73395,220.95636 C 698.21305,221.15558 697.71715,221.3784 697.22675,221.63887 C 696.73635,221.89938 696.26235,222.15933 695.83335,222.43514 C 694.69935,223.18598 693.71845,224.03146 692.87575,224.96614 C 692.03295,225.88554 691.33825,226.86645 690.77125,227.92371 C 690.21975,228.96569 689.79585,230.08644 689.51995,231.25098 C 689.24415,232.40022 689.09355,233.56679 689.09345,234.77731 C 689.09345,236.21769 689.25505,237.43453 689.57695,238.44584 C 689.89875,239.44184 690.30945,240.2764 690.79975,240.91996 C 691.30545,241.54821 691.85375,241.99387 692.42075,242.28499 C 693.00305,242.57613 693.53615,242.74001 694.04175,242.74 C 694.71585,242.74 695.42365,242.46692 696.17465,241.9153 C 696.92545,241.37899 697.67255,240.68206 698.39275,239.83931 C 699.12825,238.99655 699.82515,238.06369 700.46875,237.05237 C 701.12755,236.02573 701.68475,235.03172 702.17505,234.06636 C 702.14435,234.78655 702.12025,235.48125 702.08975,236.17078 C 702.05905,236.845 702.00885,237.55504 701.94755,238.27521 C 701.90155,238.98007 701.84035,239.72724 701.74855,240.49339 C 701.67185,241.24422 701.57355,242.0241 701.43565,242.88219 C 701.40785,243.04213 701.37975,243.21049 701.35025,243.36564 L 704.45005,243.36564 C 704.59555,242.84138 704.69655,242.3209 704.79135,241.7731 C 705.00585,240.59323 705.18275,239.3982 705.27485,238.21833 C 705.38205,237.02314 705.44095,235.79539 705.50235,234.49293 C 705.57895,233.17516 705.66645,231.75731 705.75825,230.25564 C 705.86555,228.754 706.02725,227.10243 706.24165,225.27896 C 706.37955,224.17572 706.60465,223.29091 706.89575,222.66265 C 707.20225,222.03442 707.62605,221.49918 708.14705,221.07011 L 707.60665,220.27384 C 707.20825,220.47306 706.81065,220.71121 706.41235,220.95636 C 706.02915,221.20154 705.65555,221.47242 705.30325,221.8095 C 705.05805,221.65629 704.81125,221.50994 704.53535,221.32605 C 704.27495,221.14219 703.98875,220.9674 703.68235,220.81417 C 703.39115,220.66095 703.06555,220.53644 702.74375,220.44447 C 702.42205,220.33723 702.11395,220.27388 701.77685,220.27384 C 701.68785,220.27385 701.58325,220.26953 701.49255,220.27384 z M 699.13215,222.69109 C 699.24035,222.68248 699.36325,222.69109 699.47345,222.69109 C 699.90245,222.69111 700.31315,222.75228 700.69625,222.89015 C 701.07925,223.01275 701.42665,223.17442 701.74855,223.3736 C 702.08555,223.57282 702.38265,223.78475 702.65855,223.99924 C 702.93435,224.21378 703.19645,224.41258 703.42635,224.59644 C 703.31905,224.85695 703.20535,225.13004 703.11355,225.42115 C 703.03685,225.7123 702.98885,226.03785 702.94285,226.35961 C 702.82025,227.07981 702.70665,227.73516 702.63005,228.37872 C 702.56875,229.00697 702.52065,229.6165 702.45945,230.19877 C 701.95375,231.43994 701.35515,232.64808 700.69625,233.78198 C 700.05265,234.91589 699.43445,235.90989 698.79095,236.76798 C 698.16255,237.62608 697.55085,238.29456 696.99925,238.81553 C 696.44765,239.3212 696.01295,239.58336 695.69115,239.58336 C 695.23135,239.58336 694.79675,239.43481 694.38295,239.12835 C 693.96925,238.82189 693.60875,238.38716 693.30235,237.8202 C 692.99585,237.25324 692.74685,236.56945 692.56295,235.77265 C 692.37915,234.97586 692.30705,234.06701 692.30705,233.07102 C 692.30695,232.47343 692.38125,231.80274 692.53455,231.05191 C 692.70305,230.30109 692.92585,229.54302 693.21705,228.77686 C 693.52355,227.99539 693.88405,227.25044 694.29765,226.53024 C 694.72665,225.79475 695.19845,225.13498 695.71965,224.56801 C 696.25585,224.00107 696.85445,223.56854 697.48265,223.23141 C 698.01275,222.93406 698.54755,222.73756 699.13215,222.69109 z M 662.21935,222.97547 C 662.36755,222.96274 662.51925,222.97547 662.67435,222.97547 C 664.25265,222.97549 665.45635,223.58279 666.31445,224.82395 C 667.17255,226.06513 667.62255,227.85435 667.62265,230.19877 C 667.62255,230.82703 667.57235,231.51082 667.48045,232.24631 C 667.38855,232.98183 667.22465,233.72899 667.02545,234.46449 C 666.82625,235.20001 666.59255,235.90782 666.28605,236.59736 C 665.97965,237.27157 665.59275,237.8811 665.14855,238.4174 C 664.71945,238.93839 664.23665,239.3469 663.66975,239.66868 C 663.11805,239.97514 662.46935,240.12369 661.76435,240.12369 C 661.05965,240.12369 660.41505,239.9249 659.80215,239.52649 C 659.20455,239.1281 658.66925,238.60817 658.20965,237.93395 C 657.76525,237.24442 657.41775,236.4492 657.15745,235.54514 C 656.91215,234.62577 656.78775,233.64266 656.78765,232.61601 C 656.78765,231.63535 656.87285,230.57798 657.07205,229.45937 C 657.27125,228.32549 657.60785,227.29654 658.06745,226.33117 C 658.52715,225.36584 659.13655,224.57063 659.88755,223.94237 C 660.53265,223.38932 661.31385,223.05326 662.21935,222.97547 z M 700.29815,247.03417 C 700.03705,247.68198 699.76295,248.25513 699.44495,248.74046 C 698.57155,250.07356 697.40495,250.73113 695.91865,250.73113 C 695.19845,250.73112 694.54955,250.65685 694.01335,250.50363 C 693.47695,250.35038 693.03135,250.16469 692.64825,249.93486 C 692.26515,249.72032 691.92875,249.47129 691.65295,249.19547 C 691.39245,248.93497 691.16955,248.68591 690.97035,248.45608 C 690.78655,248.24155 690.62485,248.06897 690.48695,247.91575 C 690.38735,247.79124 690.27375,247.71159 690.17415,247.68825 C 690.15885,247.68585 690.13255,247.68825 690.11725,247.68825 C 690.11375,247.68844 690.09245,247.68785 690.08875,247.68825 C 690.08505,247.68883 690.06425,247.68747 690.06035,247.68825 C 689.94985,247.71859 689.78865,247.81077 689.57695,247.97263 C 689.33185,248.17182 689.06965,248.40776 688.80905,248.68358 C 688.54865,248.97472 688.32575,249.27181 688.12655,249.5936 C 687.95845,249.87803 687.84005,250.15997 687.81375,250.38987 C 687.81065,250.42363 687.81375,250.47106 687.81375,250.50363 C 687.81375,250.55534 687.82765,250.62093 687.84215,250.67425 C 687.91285,250.89758 688.11615,251.16225 688.43945,251.41365 C 688.86855,251.73542 689.40365,252.01941 690.03195,252.29523 C 690.66005,252.57104 691.34385,252.79386 692.07955,252.97775 C 692.83025,253.17693 693.51185,253.29056 694.15545,253.29057 C 695.35055,253.29056 696.53265,252.96502 697.68175,252.35211 C 698.84635,251.7545 699.88835,250.94838 700.83845,249.90642 C 701.61755,249.06544 702.31495,248.10474 702.91445,247.03417 L 700.29815,247.03417 z M 647.35045,247.01667 C 647.82425,247.4884 648.47715,247.78037 649.19695,247.78037 C 649.91695,247.78037 650.56905,247.48822 651.04195,247.01625 L 652.75905,248.7385 C 651.84625,249.64724 650.58775,250.20892 649.19805,250.20892 C 647.79855,250.20892 646.53195,249.63923 645.61755,248.71911 L 647.35045,247.01667 z M 645.61065,241.61057 C 646.52545,240.68631 647.79495,240.1137 649.19805,240.1137 C 650.59115,240.1137 651.85255,240.67825 652.76595,241.59105 L 651.04705,243.31502 C 650.57375,242.84091 649.91945,242.54753 649.19695,242.54753 C 648.46935,242.54753 647.81015,242.84496 647.33525,243.32486 L 645.61065,241.61057 z"
           style="font-size:87.91007233px;font-style:italic;font-variant:normal;font-weight:normal;font-stretch:normal;text-indent:0;text-align:start;text-decoration:none;line-height:125%;letter-spacing:normal;word-spacing:normal;text-transform:none;direction:ltr;block-progression:tb;writing-mode:lr-tb;text-anchor:start;fill:#005b99;fill-opacity:1;fill-rule:nonzero;stroke:none;stroke-width:0.625;stroke-linecap:butt;stroke-linejoin:miter;marker:none;marker-start:none;marker-mid:none;marker-end:none;stroke-miterlimit:4;stroke-dashoffset:0;stroke-opacity:1;visibility:visible;display:inline;overflow:visible;font-family:Gentium"
           id="path3235" />
      </g>
    </g>
  </g>
</svg>
