<?xml version="1.0" encoding="UTF-8" standalone="no"?>
<!-- Created with Inkscape (http://www.inkscape.org/) -->
<svg
   xmlns:dc="http://purl.org/dc/elements/1.1/"
   xmlns:cc="http://web.resource.org/cc/"
   xmlns:rdf="http://www.w3.org/1999/02/22-rdf-syntax-ns#"
   xmlns:svg="http://www.w3.org/2000/svg"
   xmlns="http://www.w3.org/2000/svg"
   xmlns:xlink="http://www.w3.org/1999/xlink"
   xmlns:sodipodi="http://sodipodi.sourceforge.net/DTD/sodipodi-0.dtd"
   xmlns:inkscape="http://www.inkscape.org/namespaces/inkscape"
   version="1.0"
   width="256"
   height="256"
   id="svg1"
   sodipodi:version="0.32"
   inkscape:version="0.45"
   sodipodi:docname="i_bulmages_cuentas_pasivo.svg"
   sodipodi:docbase="/home/anna/Desktop/elferrer/Documents/noves imatges bulmages/i_bulmages_cuentas_pasivo"
   inkscape:output_extension="org.inkscape.output.svg.inkscape"
   sodipodi:modified="TRUE"
   inkscape:export-filename="/home/anna/Desktop/elferrer/Documents/noves imatges bulmages/i_bulmages_cuentas_pasivo/i_bulmages_cuentas_pasivo_pulsado_L.png"
   inkscape:export-xdpi="96"
   inkscape:export-ydpi="96">
  <metadata
     id="metadata162">
    <rdf:RDF>
      <cc:Work
         rdf:about="">
        <dc:format>image/svg+xml</dc:format>
        <dc:type
           rdf:resource="http://purl.org/dc/dcmitype/StillImage" />
        <cc:license
           rdf:resource="http://creativecommons.org/licenses/GPL/2.0/" />
        <dc:title>cuentas pasivo</dc:title>
        <dc:date>actualizacion 11/03/2007</dc:date>
        <dc:creator>
          <cc:Agent>
            <dc:title>Raül Martínez i Peris</dc:title>
          </cc:Agent>
        </dc:creator>
        <dc:rights>
          <cc:Agent>
            <dc:title>GPL</dc:title>
          </cc:Agent>
        </dc:rights>
        <dc:publisher>
          <cc:Agent>
            <dc:title>Raül Martinez i Peris</dc:title>
          </cc:Agent>
        </dc:publisher>
        <dc:identifier>elferrer</dc:identifier>
        <dc:source>propia</dc:source>
        <dc:language>castellano</dc:language>
        <dc:contributor>
          <cc:Agent>
            <dc:title>www.iglues.org</dc:title>
          </cc:Agent>
        </dc:contributor>
        <dc:description>iconos para las aplicaciones de iglues.org</dc:description>
        <dc:subject>
          <rdf:Bag>
            <rdf:li>bulmagés</rdf:li>
          </rdf:Bag>
        </dc:subject>
      </cc:Work>
      <cc:License
         rdf:about="http://creativecommons.org/licenses/GPL/2.0/">
        <cc:permits
           rdf:resource="http://web.resource.org/cc/Reproduction" />
        <cc:permits
           rdf:resource="http://web.resource.org/cc/Distribution" />
        <cc:requires
           rdf:resource="http://web.resource.org/cc/Notice" />
        <cc:permits
           rdf:resource="http://web.resource.org/cc/DerivativeWorks" />
        <cc:requires
           rdf:resource="http://web.resource.org/cc/ShareAlike" />
        <cc:requires
           rdf:resource="http://web.resource.org/cc/SourceCode" />
      </cc:License>
    </rdf:RDF>
  </metadata>
  <sodipodi:namedview
     inkscape:window-height="690"
     inkscape:window-width="1016"
     inkscape:pageshadow="2"
     inkscape:pageopacity="0.0"
     guidetolerance="10.0"
     gridtolerance="10.0"
     objecttolerance="10.0"
     borderopacity="1.0"
     bordercolor="#666666"
     pagecolor="#ffffff"
     id="base"
     inkscape:zoom="1.9023438"
     inkscape:cx="128"
     inkscape:cy="128"
     inkscape:window-x="0"
     inkscape:window-y="0"
     inkscape:current-layer="layer7"
     gridempspacing="3" />
  <defs
     id="defs3">
    <linearGradient
       id="linearGradient9952">
      <stop
         style="stop-color:blue;stop-opacity:1"
         offset="0"
         id="stop9953" />
      <stop
         style="stop-color:blue;stop-opacity:0"
         offset="1"
         id="stop9954" />
    </linearGradient>
    <linearGradient
       inkscape:collect="always"
       xlink:href="#linearGradient9952"
       id="linearGradient2396"
       gradientUnits="userSpaceOnUse"
       gradientTransform="matrix(0.722825,0,0,5.491502,357.3217,-224.6297)"
       x1="-181.00027"
       y1="65.430992"
       x2="-149.55615"
       y2="65.430992" />
    <linearGradient
       inkscape:collect="always"
       xlink:href="#linearGradient9952"
       id="linearGradient2398"
       gradientUnits="userSpaceOnUse"
       gradientTransform="matrix(0.503358,0.519204,-0.518754,0.503795,350.8416,286.8881)"
       x1="-181.00027"
       y1="65.430992"
       x2="-149.55615"
       y2="65.430992" />
    <linearGradient
       inkscape:collect="always"
       xlink:href="#linearGradient9952"
       id="linearGradient2400"
       gradientUnits="userSpaceOnUse"
       gradientTransform="matrix(0.700557,0.178187,-0.178032,0.701165,364.2407,212.2498)"
       x1="-181.00027"
       y1="65.430992"
       x2="-149.55615"
       y2="65.430992" />
    <linearGradient
       inkscape:collect="always"
       xlink:href="#linearGradient9952"
       id="linearGradient2402"
       gradientUnits="userSpaceOnUse"
       gradientTransform="matrix(0.175051,0.701916,0.701308,-0.175203,211.5968,364.3863)"
       x1="-181.00027"
       y1="65.430992"
       x2="-149.55615"
       y2="65.430992" />
    <linearGradient
       inkscape:collect="always"
       xlink:href="#linearGradient9952"
       id="linearGradient2404"
       gradientUnits="userSpaceOnUse"
       gradientTransform="matrix(-0.518754,0.503795,-0.503358,-0.519204,-30.75042,351.0348)"
       x1="-181.00027"
       y1="65.430992"
       x2="-149.55615"
       y2="65.430992" />
    <linearGradient
       inkscape:collect="always"
       xlink:href="#linearGradient9952"
       id="linearGradient2406"
       gradientUnits="userSpaceOnUse"
       gradientTransform="matrix(-0.178032,0.701165,-0.700557,-0.178187,43.82315,364.4456)"
       x1="-181.00027"
       y1="65.430992"
       x2="-149.55615"
       y2="65.430992" />
    <linearGradient
       inkscape:collect="always"
       xlink:href="#linearGradient9952"
       id="linearGradient2408"
       gradientUnits="userSpaceOnUse"
       gradientTransform="matrix(-0.701308,0.175203,0.175051,0.701916,-108.1815,211.6693)"
       x1="-181.00027"
       y1="65.430992"
       x2="-149.55615"
       y2="65.430992" />
    <linearGradient
       inkscape:collect="always"
       xlink:href="#linearGradient9952"
       id="linearGradient2410"
       gradientUnits="userSpaceOnUse"
       gradientTransform="matrix(0.518754,-0.503795,0.503358,0.519204,286.7504,-95.03481)"
       x1="-181.00027"
       y1="65.430992"
       x2="-149.55615"
       y2="65.430992" />
    <linearGradient
       inkscape:collect="always"
       xlink:href="#linearGradient9952"
       id="linearGradient2412"
       gradientUnits="userSpaceOnUse"
       gradientTransform="matrix(0.178032,-0.701165,0.700557,0.178187,212.1768,-108.4456)"
       x1="-181.00027"
       y1="65.430992"
       x2="-149.55615"
       y2="65.430992" />
    <linearGradient
       inkscape:collect="always"
       xlink:href="#linearGradient9952"
       id="linearGradient2414"
       gradientUnits="userSpaceOnUse"
       gradientTransform="matrix(0.701308,-0.175203,-0.175051,-0.701916,364.1815,44.33066)"
       x1="-181.00027"
       y1="65.430992"
       x2="-149.55615"
       y2="65.430992" />
    <linearGradient
       inkscape:collect="always"
       xlink:href="#linearGradient9952"
       id="linearGradient2416"
       gradientUnits="userSpaceOnUse"
       gradientTransform="matrix(-0.503358,-0.519204,0.518754,-0.503795,-94.84156,-30.88808)"
       x1="-181.00027"
       y1="65.430992"
       x2="-149.55615"
       y2="65.430992" />
    <linearGradient
       inkscape:collect="always"
       xlink:href="#linearGradient9952"
       id="linearGradient2418"
       gradientUnits="userSpaceOnUse"
       gradientTransform="matrix(-0.700557,-0.178187,0.178032,-0.701165,-108.2407,43.75017)"
       x1="-181.00027"
       y1="65.430992"
       x2="-149.55615"
       y2="65.430992" />
    <linearGradient
       inkscape:collect="always"
       xlink:href="#linearGradient9952"
       id="linearGradient2420"
       gradientUnits="userSpaceOnUse"
       gradientTransform="matrix(-0.175051,-0.701916,-0.701308,0.175203,44.40317,-108.3863)"
       x1="-181.00027"
       y1="65.430992"
       x2="-149.55615"
       y2="65.430992" />
    <linearGradient
       inkscape:collect="always"
       xlink:href="#linearGradient9952"
       id="linearGradient2422"
       gradientUnits="userSpaceOnUse"
       gradientTransform="matrix(-0.722825,0,0,-5.491502,-101.3217,480.6296)"
       x1="-181.00027"
       y1="65.430992"
       x2="-149.55615"
       y2="65.430992" />
    <linearGradient
       inkscape:collect="always"
       xlink:href="#linearGradient9952"
       id="linearGradient2424"
       gradientUnits="userSpaceOnUse"
       gradientTransform="matrix(0,-0.723451,5.486744,0,-224.3241,-101.5205)"
       x1="-181.00027"
       y1="65.430992"
       x2="-149.55615"
       y2="65.430992" />
    <linearGradient
       inkscape:collect="always"
       xlink:href="#linearGradient9952"
       id="linearGradient2426"
       gradientUnits="userSpaceOnUse"
       gradientTransform="matrix(0,0.723451,-5.486744,0,480.324,357.5204)"
       x1="-181.00027"
       y1="65.430992"
       x2="-149.55615"
       y2="65.430992" />
    <linearGradient
       inkscape:collect="always"
       xlink:href="#linearGradient9952"
       id="linearGradient2428"
       gradientUnits="userSpaceOnUse"
       gradientTransform="matrix(0.722825,0,0,5.491502,161.2922,-224.6297)"
       x1="-181.00027"
       y1="65.430992"
       x2="-149.55615"
       y2="65.430992" />
    <linearGradient
       inkscape:collect="always"
       xlink:href="#linearGradient9952"
       id="linearGradient2430"
       gradientUnits="userSpaceOnUse"
       gradientTransform="matrix(-0.722825,0,0,-5.491502,97.31552,480.6296)"
       x1="-181.00027"
       y1="65.430992"
       x2="-149.55615"
       y2="65.430992" />
    <linearGradient
       inkscape:collect="always"
       xlink:href="#linearGradient9952"
       id="linearGradient2432"
       gradientUnits="userSpaceOnUse"
       gradientTransform="matrix(0,-0.723451,5.486744,0,-224.3241,95.04349)"
       x1="-181.00027"
       y1="65.430992"
       x2="-149.55615"
       y2="65.430992" />
    <linearGradient
       inkscape:collect="always"
       xlink:href="#linearGradient9952"
       id="linearGradient2434"
       gradientUnits="userSpaceOnUse"
       gradientTransform="matrix(0,0.723451,-5.486744,0,480.324,161.8969)"
       x1="-181.00027"
       y1="65.430992"
       x2="-149.55615"
       y2="65.430992" />
    <filter
       inkscape:collect="always"
       x="-0.1148929"
       width="1.2297858"
       y="-0.1148929"
       height="1.2297858"
       id="filter3283">
      <feGaussianBlur
         inkscape:collect="always"
         stdDeviation="1.5364782"
         id="feGaussianBlur3285" />
    </filter>
    <filter
       inkscape:collect="always"
       x="-0.1148929"
       width="1.2297858"
       y="-0.1148929"
       height="1.2297858"
       id="filter3287">
      <feGaussianBlur
         inkscape:collect="always"
         stdDeviation="1.5364782"
         id="feGaussianBlur3289" />
    </filter>
    <filter
       inkscape:collect="always"
       id="filter3299">
      <feGaussianBlur
         inkscape:collect="always"
         stdDeviation="1.8313236"
         id="feGaussianBlur3301" />
    </filter>
    <filter
       inkscape:collect="always"
       x="-0.10004336"
       width="1.2000867"
       y="-0.099956678"
       height="1.1999134"
       id="filter3221">
      <feGaussianBlur
         inkscape:collect="always"
         stdDeviation="9.0266808"
         id="feGaussianBlur3223" />
    </filter>
  </defs>
  <g
     style="opacity:1;display:inline"
     id="layer1">
    <path
       d=""
       style="opacity:1"
       id="path3945" />
  </g>
  <path
     d=""
     id="path3081" />
  <g
     style="display:inline"
     id="layer2" />
  <g
     style="display:inline"
     id="layer3" />
  <g
     style="opacity:1;display:inline"
     id="layer4" />
  <g
     inkscape:groupmode="layer"
     id="layer5"
     inkscape:label="boton_pulsado"
     style="display:none"
     sodipodi:insensitive="true">
    <g
       id="g2458">
      <g
         transform="translate(-3.15982,0.14121)"
         style="display:inline"
         id="g3979">
        <path
           d="M 225.84614,30.083415 L 249.21903,30.14204 L 249.21903,225.91656 L 225.87247,225.87734 L 225.84614,30.083415 z "
           style="opacity:0.5;fill:url(#linearGradient2396);fill-opacity:1;fill-rule:evenodd;stroke:none;stroke-width:8.9802618;stroke-miterlimit:4;stroke-opacity:1;display:block"
           id="rect10002" />
        <path
           d="M 246.09172,236.81817 L 241.6188,242.20167 L 236.82989,246.55734 L 225.79115,225.87576 L 246.09172,236.81817 z "
           style="opacity:0.5;fill:url(#linearGradient2398);fill-opacity:1;fill-rule:evenodd;stroke:none;stroke-width:8.9802618;stroke-miterlimit:4;stroke-opacity:1"
           id="path2053" />
        <path
           d="M 249.21905,225.96681 L 247.81954,231.47868 L 246.42002,236.99055 L 225.79115,225.87576 L 249.21905,225.96681 z "
           style="opacity:0.5;fill:url(#linearGradient2400);fill-opacity:1;fill-rule:evenodd;stroke:none;stroke-width:8.9802618;stroke-miterlimit:4;stroke-opacity:1"
           id="path2060" />
        <path
           d="M 225.79115,249.32415 L 231.30415,247.94688 L 236.81715,246.56961 L 225.79985,225.87576 L 225.79115,249.32415 z "
           style="opacity:0.5;fill:url(#linearGradient2402);fill-opacity:1;fill-rule:evenodd;stroke:none;stroke-width:8.9802618;stroke-miterlimit:4;stroke-opacity:1"
           id="path2062" />
        <path
           d="M 19.276093,246.19414 L 13.897256,241.71734 L 9.5453636,236.92428 L 30.20902,225.87597 L 19.276093,246.19414 z "
           style="opacity:0.5;fill:url(#linearGradient2404);fill-opacity:1;fill-rule:evenodd;stroke:none;stroke-width:8.9802618;stroke-miterlimit:4;stroke-opacity:1"
           id="path3000" />
        <path
           d="M 30.118045,249.32418 L 24.610958,247.92346 L 19.103856,246.52272 L 30.20902,225.87597 L 30.118045,249.32418 z "
           style="opacity:0.5;fill:url(#linearGradient2406);fill-opacity:1;fill-rule:evenodd;stroke:none;stroke-width:8.9802618;stroke-miterlimit:4;stroke-opacity:1"
           id="path3001" />
        <path
           d="M 6.7809483,225.87597 L 8.1570192,231.39375 L 9.5331053,236.91153 L 30.20902,225.88467 L 6.7809483,225.87597 z "
           style="opacity:0.5;fill:url(#linearGradient2408);fill-opacity:1;fill-rule:evenodd;stroke:none;stroke-width:8.9802618;stroke-miterlimit:4;stroke-opacity:1"
           id="path3002" />
        <path
           d="M 236.72389,9.8058696 L 242.10272,14.28267 L 246.45462,19.075728 L 225.79096,30.12404 L 236.72389,9.8058696 z "
           style="opacity:0.5;fill:url(#linearGradient2410);fill-opacity:1;fill-rule:evenodd;stroke:none;stroke-width:8.9802618;stroke-miterlimit:4;stroke-opacity:1"
           id="path3007" />
        <path
           d="M 225.88193,6.6758271 L 231.38902,8.0765559 L 236.89612,9.4772889 L 225.79096,30.12404 L 225.88193,6.6758271 z "
           style="opacity:0.5;fill:url(#linearGradient2412);fill-opacity:1;fill-rule:evenodd;stroke:none;stroke-width:8.9802618;stroke-miterlimit:4;stroke-opacity:1"
           id="path3008" />
        <path
           d="M 249.21903,30.12404 L 247.84296,24.606264 L 246.46687,19.08848 L 225.79096,30.115338 L 249.21903,30.12404 z "
           style="opacity:0.5;fill:url(#linearGradient2414);fill-opacity:1;fill-rule:evenodd;stroke:none;stroke-width:8.9802618;stroke-miterlimit:4;stroke-opacity:1"
           id="path3009" />
        <path
           d="M 9.9082846,19.181822 L 14.381207,13.79832 L 19.170112,9.4426539 L 30.20885,30.12423 L 9.9082846,19.181822 z "
           style="opacity:0.5;fill:url(#linearGradient2416);fill-opacity:1;fill-rule:evenodd;stroke:none;stroke-width:8.9802618;stroke-miterlimit:4;stroke-opacity:1"
           id="path3011" />
        <path
           d="M 6.7809541,30.033176 L 8.1804693,24.521313 L 9.5799886,19.009435 L 30.20885,30.12423 L 6.7809541,30.033176 z "
           style="opacity:0.5;fill:url(#linearGradient2418);fill-opacity:1;fill-rule:evenodd;stroke:none;stroke-width:8.9802618;stroke-miterlimit:4;stroke-opacity:1"
           id="path3012" />
        <path
           d="M 30.20885,6.6758413 L 24.695855,8.0531055 L 19.182853,9.430385 L 30.200156,30.12423 L 30.20885,6.6758413 z "
           style="opacity:0.5;fill:url(#linearGradient2420);fill-opacity:1;fill-rule:evenodd;stroke:none;stroke-width:8.9802618;stroke-miterlimit:4;stroke-opacity:1"
           id="path3013" />
        <path
           d="M 30.153849,225.91656 L 6.780954,225.85793 L 6.780954,30.083413 L 30.127521,30.122631 L 30.153849,225.91656 z "
           style="opacity:0.5;fill:url(#linearGradient2422);fill-opacity:1;fill-rule:evenodd;stroke:none;stroke-width:8.9802618;stroke-miterlimit:4;stroke-opacity:1;display:block"
           id="path3021" />
        <path
           d="M 30.168259,30.06899 L 30.226838,6.675827 L 225.83173,6.675827 L 225.79255,30.04264 L 30.168259,30.06899 z "
           style="opacity:0.5;fill:url(#linearGradient2424);fill-opacity:1;fill-rule:evenodd;stroke:none;stroke-width:8.9802618;stroke-miterlimit:4;stroke-opacity:1;display:block"
           id="path3023" />
        <path
           d="M 225.83173,225.93098 L 225.77315,249.32415 L 30.168259,249.32415 L 30.207443,225.95733 L 225.83173,225.93098 z "
           style="opacity:0.5;fill:url(#linearGradient2426);fill-opacity:1;fill-rule:evenodd;stroke:none;stroke-width:8.9802618;stroke-miterlimit:4;stroke-opacity:1;display:block"
           id="path3054" />
        <path
           d="M 29.816627,30.083414 L 53.189522,30.14204 L 53.189522,225.91656 L 29.842954,225.87734 L 29.816627,30.083414 z "
           style="opacity:0.5;fill:url(#linearGradient2428);fill-opacity:1;fill-rule:evenodd;stroke:none;stroke-width:8.9802618;stroke-miterlimit:4;stroke-opacity:1;display:block"
           id="path1956" />
        <path
           d="M 228.79098,225.91656 L 205.41809,225.85793 L 205.41809,30.083413 L 228.76465,30.122631 L 228.79098,225.91656 z "
           style="opacity:0.5;fill:url(#linearGradient2430);fill-opacity:1;fill-rule:evenodd;stroke:none;stroke-width:8.9802618;stroke-miterlimit:4;stroke-opacity:1;display:block"
           id="path1990" />
        <path
           d="M 30.168258,226.63294 L 30.226837,203.23978 L 225.83173,203.23978 L 225.79255,226.60659 L 30.168258,226.63294 z "
           style="opacity:0.5;fill:url(#linearGradient2432);fill-opacity:1;fill-rule:evenodd;stroke:none;stroke-width:8.9802618;stroke-miterlimit:4;stroke-opacity:1;display:block"
           id="path1992" />
        <path
           d="M 225.83173,30.307532 L 225.77315,53.700695 L 30.168258,53.700695 L 30.207442,30.333882 L 225.83173,30.307532 z "
           style="opacity:0.5;fill:url(#linearGradient2434);fill-opacity:1;fill-rule:evenodd;stroke:none;stroke-width:8.9802618;stroke-miterlimit:4;stroke-opacity:1;display:block"
           id="path1994" />
      </g>
      <path
         d="M 46.00708,221.46053 L 46.00708,217.88241 L 214.76672,217.88241 L 214.76672,49.1021 L 218.34173,49.06054 L 218.34173,219.68332 L 218.34173,221.46053 L 216.56606,221.46053 L 46.00708,221.46053 z "
         style="fill:#000000;fill-opacity:1;fill-rule:evenodd;stroke:none;stroke-width:4.70592737;stroke-miterlimit:4;stroke-opacity:1;display:block"
         id="path2826" />
      <path
         d="M 34.61253,37.83522 L 36.3882,37.83522 L 213.29223,37.83522 L 215.0679,37.83522 L 215.0679,39.61242 L 215.0679,216.66987 L 215.0679,218.44708 L 213.29223,218.44708 L 36.3882,218.44708 L 34.61253,218.44708 L 34.61253,216.66987 L 34.61253,39.61242 L 34.61253,37.83522 z M 38.18754,41.41333 L 38.18754,214.86896 L 211.49289,214.86896 L 211.49289,41.41333 L 38.18754,41.41333 z "
         style="fill:#00007f;fill-opacity:1;fill-rule:evenodd;stroke:none;stroke-width:8.9802618;stroke-miterlimit:4;stroke-opacity:1;display:block"
         id="rect5542" />
    </g>
  </g>
  <g
     inkscape:groupmode="layer"
     id="layer7"
     inkscape:label="boton_visible"
     style="display:none"
     sodipodi:insensitive="true">
    <path
       id="path2483"
       style="fill:#00007f;fill-opacity:1;fill-rule:evenodd;stroke:none;stroke-width:8.9802618;stroke-miterlimit:4;stroke-opacity:1;display:block;filter:url(#filter3221)"
       d="M 34.61253,37.83522 L 36.3882,37.83522 L 213.29223,37.83522 L 215.0679,37.83522 L 215.0679,39.61242 L 215.0679,216.66987 L 215.0679,218.44708 L 213.29223,218.44708 L 36.3882,218.44708 L 34.61253,218.44708 L 34.61253,216.66987 L 34.61253,39.61242 L 34.61253,37.83522 z M 38.18754,41.41333 L 38.18754,214.86896 L 211.49289,214.86896 L 211.49289,41.41333 L 38.18754,41.41333 z " />
  </g>
  <g
     inkscape:groupmode="layer"
     id="layer8"
     inkscape:label="icono"
     style="display:inline">
    <path
       d=""
       id="path4394" />
    <path
       id="path4414"
       d=""
       style="fill:#00008f;fill-opacity:1;stroke:#ffffff;stroke-width:2.93733549;stroke-miterlimit:4;stroke-dasharray:none;stroke-opacity:1" />
    <g
       id="g2259">
      <rect
         y="163.55983"
         x="29.174913"
         height="52.572979"
         width="191.6035"
         id="rect4400"
         style="fill:#ffffff;fill-opacity:1;fill-rule:evenodd;stroke-width:4;stroke-linecap:round;stroke-miterlimit:4;stroke-dasharray:none;stroke-opacity:1;filter:url(#filter3299)" />
      <rect
         transform="matrix(0,-1,1,0,0,0)"
         y="34.827839"
         x="-209.68306"
         height="33.085823"
         width="39.673428"
         id="rect4404"
         style="fill:#000000;fill-opacity:0.28806583;stroke:#000000;stroke-width:2.82336855;stroke-linecap:round;stroke-miterlimit:4;stroke-dasharray:none;stroke-opacity:1" />
      <rect
         style="fill:#000000;fill-opacity:0.28806583;stroke:#000000;stroke-width:3.99431825;stroke-linecap:round;stroke-miterlimit:4;stroke-dasharray:none;stroke-opacity:1"
         id="rect4406"
         width="39.673428"
         height="66.220451"
         x="-209.68306"
         y="92.475662"
         transform="matrix(0,-1,1,0,0,0)" />
      <rect
         style="fill:#000000;fill-opacity:0.28806583;stroke:#000000;stroke-width:2.82336855;stroke-linecap:round;stroke-miterlimit:4;stroke-dasharray:none;stroke-opacity:1"
         id="rect4408"
         width="39.673428"
         height="33.085823"
         x="-209.68306"
         y="182.03967"
         transform="matrix(0,-1,1,0,0,0)" />
      <path
         transform="matrix(0.6078733,0,0,0.5946481,-150.92947,124.19189)"
         d="M 392.02386 131.62985 A 13.373134 13.373134 0 1 1  365.27759,131.62985 A 13.373134 13.373134 0 1 1  392.02386 131.62985 z"
         sodipodi:ry="13.373134"
         sodipodi:rx="13.373134"
         sodipodi:cy="131.62985"
         sodipodi:cx="378.65073"
         id="path4410"
         style="fill:#000000;fill-opacity:0.41975307;stroke:none;stroke-width:4;stroke-miterlimit:4;stroke-dasharray:none;stroke-opacity:1;filter:url(#filter3287)"
         sodipodi:type="arc" />
      <path
         sodipodi:type="arc"
         style="fill:#000000;fill-opacity:0.41975307;stroke:none;stroke-width:4;stroke-miterlimit:4;stroke-dasharray:none;stroke-opacity:1;filter:url(#filter3283)"
         id="path4412"
         sodipodi:cx="378.65073"
         sodipodi:cy="131.62985"
         sodipodi:rx="13.373134"
         sodipodi:ry="13.373134"
         d="M 392.02386 131.62985 A 13.373134 13.373134 0 1 1  365.27759,131.62985 A 13.373134 13.373134 0 1 1  392.02386 131.62985 z"
         transform="matrix(0.6078733,0,0,0.5946481,-59.923351,124.19189)" />
    </g>
    <path
       sodipodi:nodetypes="csssssssssssscccssssssssssssssssssssssssssssssssssssssssssssssssssssssssssssssssssssssssccccc"
       d="M 163.32065,15.853491 C 160.94642,15.866725 158.62151,16.0877 157.90716,16.516366 C 157.3235,16.866606 156.26332,17.170552 155.55027,17.17924 C 154.22132,17.195421 151.04374,19.051247 149.76853,20.567262 C 148.61715,21.936074 145.79272,28.712632 144.98112,32.093917 C 144.56932,33.809448 144.17747,36.911994 144.09728,38.980453 C 143.95119,42.748529 144.08403,43.347516 145.86494,46.750812 C 146.38518,47.744996 146.4478,48.27391 146.08589,49.107703 C 145.55688,50.326501 144.66701,50.758662 141.33531,51.464592 C 138.80135,52.001486 132.67154,55.385754 130.8766,57.246327 C 128.9519,59.24143 127.62951,62.897809 127.34128,67.07897 C 127.12723,70.183709 126.78531,71.476544 125.49995,74.29695 C 123.79629,78.035217 123.67899,79.364578 124.39516,84.681979 C 124.68159,86.808614 125.3268,88.873175 126.45744,91.163422 L 128.11463,94.514617 L 127.26762,97.166115 C 126.80029,98.619277 125.93913,100.68207 125.35264,101.73259 C 124.40315,103.43335 124.32185,103.93155 124.57929,106.40955 C 124.95051,109.98266 125.97794,114.28071 126.75205,115.54249 C 127.717,117.11534 127.53879,123.92418 126.49427,126.07482 C 126.03711,127.01612 125.54541,128.7026 125.38948,129.79429 C 125.15537,131.43306 125.28435,132.01823 126.05235,133.10866 C 126.56395,133.83508 126.94044,134.85221 126.89935,135.39189 C 126.77135,137.07331 126.88849,137.43841 127.70955,137.71196 C 128.1475,137.85787 128.88877,138.81319 129.36671,139.84789 C 130.18761,141.62505 131.34631,147.06556 131.09756,147.98651 C 130.9529,148.52209 131.47837,151.37429 132.20235,153.98922 C 133.41101,158.35473 134.0859,162.35007 134.04368,165.11077 C 133.99751,168.12777 134.73876,170.33125 136.32691,171.92366 C 137.28133,172.88066 137.23427,172.22649 137.13709,187.16978 C 137.08745,194.80362 137.23784,200.00792 137.54218,201.42158 C 137.80598,202.64697 138.18832,204.98088 138.38919,206.6141 C 138.59008,208.2473 139.02361,210.19225 139.3835,210.92278 C 139.74339,211.65332 140.18475,213.13303 140.34098,214.20034 C 140.49721,215.26763 140.95361,216.85848 141.37213,217.73567 C 141.95561,218.95865 142.05206,219.69714 141.77721,220.97639 C 141.48886,222.3185 141.60427,223.09786 142.40325,224.95363 C 143.01434,226.37298 143.60797,228.98798 143.91315,231.72968 C 144.18593,234.18044 144.70139,237.07149 145.05477,238.1743 C 145.9638,241.01139 148.43767,245.11459 150.02632,246.38658 C 151.68487,247.71453 154.78743,249.22109 156.21315,249.40634 C 159.45874,249.82809 163.78719,248.4387 164.68322,246.68119 C 165.73047,244.62708 164.63307,235.691 163.06285,233.53417 C 162.87242,233.27259 162.45526,232.07124 162.1422,230.84585 C 161.82914,229.62047 161.1112,227.55483 160.55866,226.27938 C 159.57715,224.01368 159.57344,223.68461 159.56435,211.10692 C 159.55923,204.02644 159.64619,197.54223 159.7853,196.70779 C 159.92444,195.8734 159.85682,194.07849 159.63801,192.73056 C 159.16303,189.80482 159.83695,188.27458 161.55297,188.27457 C 162.13959,188.27457 162.97442,188.75428 163.43111,189.30571 C 166.56194,193.08587 166.50018,193.01811 169.24969,193.31978 C 172.40592,193.66607 173.50746,193.31511 175.06826,191.36799 C 176.66093,189.38104 176.44776,186.64748 174.51585,184.5551 C 172.68468,182.57186 172.80786,181.16628 175.21555,176.34283 C 176.71685,173.33519 177.72466,171.92593 179.15598,170.78204 C 181.35311,169.02611 182.88668,166.75347 186.88952,159.32903 C 187.48427,158.2259 188.36218,156.90961 188.87815,156.41976 C 189.39411,155.92991 190.19817,154.84698 190.64581,153.98922 C 191.09346,153.13145 191.9409,151.61833 192.52396,150.63801 C 193.107,149.65771 193.65316,148.63667 193.73922,148.39161 C 195.16774,144.32343 195.32181,143.49697 195.06498,141.79969 C 194.91087,140.78137 194.63412,138.61404 194.43892,136.97543 C 194.0308,133.54936 193.78652,133.15433 189.0991,128.65267 C 180.60486,120.49507 178.5706,118.49802 177.71976,117.49428 C 177.21867,116.90314 176.3669,116.00027 175.84161,115.50564 C 175.31631,115.01102 174.88412,114.36965 174.88412,114.06943 C 174.88412,113.7692 174.22734,112.6645 173.41106,111.63889 C 172.28678,110.22627 171.9639,109.50862 172.15897,108.69278 C 172.32341,108.00496 172.14673,107.19006 171.64339,106.40955 C 171.20994,105.73737 170.61626,104.58544 170.31765,103.86852 C 169.54553,102.01475 170.15923,101.74314 174.33172,102.06403 C 178.40508,102.37729 179.6865,101.93598 179.30329,100.33319 C 179.07638,99.384177 179.23732,99.256883 181.03412,99.044269 C 184.2782,98.660433 185.72535,96.32229 183.7961,94.588284 C 183.32918,94.168605 182.9491,93.300544 182.9491,92.673312 C 182.9491,91.972904 182.3885,90.934404 181.47604,89.948147 C 179.74808,88.080447 179.68412,87.841147 180.81316,85.897254 C 181.27921,85.094845 181.66017,84.334533 181.66017,84.203242 C 181.66017,84.071965 180.70171,82.895484 179.52425,81.588559 C 177.74206,79.610446 177.06322,78.291599 175.36285,73.707719 C 172.63042,66.341475 171.28309,63.503289 169.5443,61.370878 C 167.86481,59.311178 167.80788,58.963678 168.88142,57.356811 C 169.31604,56.706292 170.4893,54.566818 171.4961,52.606207 C 172.67917,50.302324 174.11996,48.291627 175.58382,46.898122 C 176.82956,45.712252 178.36304,43.82725 178.97184,42.736742 C 179.99662,40.901107 180.05278,40.470418 179.8925,36.623563 C 179.72536,32.611969 179.63689,32.252942 177.241,27.15919 C 174.58394,21.510135 171.56948,17.553924 169.06555,16.442706 C 168.12049,16.023299 165.69486,15.840249 163.32065,15.853491 z M 159.24164,147.16122 L 160.34248,156.22264 L 163.7021,149.56049 L 159.24164,147.16122 z "
       style="fill:#0000a1;fill-opacity:1;stroke:#ffffff;stroke-width:4.01086521;stroke-miterlimit:4;stroke-opacity:1"
       id="path4416" />
  </g>
  <g
     inkscape:groupmode="layer"
     id="layer9"
     inkscape:label="propiedad_mas"
     style="display:none"
     sodipodi:insensitive="true">
    <g
       id="g2341"
       style="display:inline"
       transform="matrix(0.806338,0,0,0.806338,-151.22721,2.3862628)">
      <path
         id="path2343"
         d="" />
      <g
         id="g2345"
         style="display:block">
        <g
           id="g6097"
           style="display:block"
           transform="matrix(0.925862,0,0,0.925862,493.5668,41.86428)">
          <path
             id="path3603"
             style="fill:#ffffff;fill-opacity:1;fill-rule:evenodd;stroke:#006900;stroke-width:8.1005621;stroke-miterlimit:4;stroke-opacity:1"
             d="M -191.51536,25.067211 C -191.51536,61.628081 -221.18795,91.300681 -257.74882,91.300681 C -294.3097,91.300681 -323.98229,61.628081 -323.98229,25.067211 C -323.98229,-11.493665 -294.3097,-41.166259 -257.74882,-41.166259 C -221.18795,-41.166259 -191.51536,-11.493665 -191.51536,25.067211 z " />
          <path
             id="polygon1906"
             style="fill:#326400;stroke:none"
             d="M -302.55576,11.965876 L -270.99594,11.965876 L -270.99594,-19.849048 L -244.50173,-19.849048 L -244.50173,11.965876 L -212.9419,11.965876 L -212.9419,38.423643 L -244.50173,38.423643 L -244.50173,69.98347 L -270.99594,69.98347 L -270.99594,38.423643 L -302.55576,38.423643 L -302.55576,11.965876 z " />
        </g>
      </g>
    </g>
  </g>
  <g
     inkscape:groupmode="layer"
     id="layer10"
     inkscape:label="propiedad_menos"
     sodipodi:insensitive="true"
     style="display:none">
    <g
       id="g2734"
       style="opacity:1;display:inline"
       transform="matrix(0.806338,0,0,0.806338,-150.02292,-5.0916723)">
      <path
         id="path2736"
         d="" />
      <g
         id="g2738"
         style="display:block">
        <g
           id="g6091"
           style="display:block"
           transform="matrix(0.925862,0,0,0.925862,565.8858,84.55078)">
          <path
             id="path4848"
             style="fill:#ffffff;fill-opacity:1;fill-rule:evenodd;stroke:#cd0000;stroke-width:8.1005621;stroke-miterlimit:4;stroke-opacity:1"
             d="M -269.62525,184.01896 C -269.62525,220.57983 -299.29784,250.25243 -335.85871,250.25243 C -372.41959,250.25243 -402.09218,220.57983 -402.09218,184.01896 C -402.09218,147.45809 -372.41959,117.78549 -335.85871,117.78549 C -299.29784,117.78549 -269.62525,147.45809 -269.62525,184.01896 z " />
          <path
             id="polygon2119"
             style="fill:#da251d;stroke:none"
             d="M -381.13765,170.52182 L -290.57977,170.52182 L -290.57977,197.51609 L -381.13765,197.51609 L -381.13765,170.52182 z " />
        </g>
      </g>
    </g>
  </g>
  <g
     inkscape:groupmode="layer"
     id="layer11"
     inkscape:label="propiedad_listado"
     style="display:none"
     sodipodi:insensitive="true">
    <g
       id="g2141"
       style="opacity:1;display:inline"
       transform="matrix(0.806338,0,0,0.806338,2.8396517,1.3990522)">
      <path
         id="path2143"
         d="" />
      <g
         id="layer6"
         style="display:block">
        <g
           id="g6094"
           style="display:block"
           transform="matrix(0.925862,0,0,0.925862,143.7747,118.5623)">
          <path
             id="path4847"
             style="fill:#ffffff;fill-opacity:1;fill-rule:evenodd;stroke:#0000cd;stroke-width:8.1005621;stroke-miterlimit:4;stroke-opacity:1"
             d="M -151.23716,-57.772351 C -151.23716,-21.211475 -151.23716,-49.333221 -151.23716,-12.772347 C -151.23716,23.788523 -121.56457,53.461123 -85.00369,53.461123 C -48.44282,53.461123 -18.77023,23.788523 -18.77023,-12.772347 C -18.77023,-49.333221 -18.77023,-21.211475 -18.77023,-57.772351 C -18.77023,-94.333227 -48.44282,-124.00582 -85.00369,-124.00582 C -121.56457,-124.00582 -151.23716,-94.333227 -151.23716,-57.772351 z " />
          <path
             id="polyline1684"
             style="fill:#0000cd;fill-opacity:1;stroke:none"
             d="M -129.21657,-89.000316 L -129.21657,-73.024359 L -40.79082,-73.024359 L -40.79082,-89.000316 L -129.21657,-89.000316 z M -129.21657,-58.51678 L -129.21657,-42.526137 L -40.79082,-42.526137 L -40.79082,-58.51678 L -129.21657,-58.51678 z M -129.21657,-28.018558 L -129.21657,-12.027911 L -40.79082,-12.027911 L -40.79082,-28.018558 L -129.21657,-28.018558 z M -129.21657,2.4796691 L -129.21657,18.455619 L -40.79082,18.455619 L -40.79082,2.4796691 L -129.21657,2.4796691 z " />
        </g>
      </g>
    </g>
  </g>
</svg>
