/* XPM */
static const char *estadisticas[]={
"32 32 4 1",
". c None",
"# c #000000",
"b c #0000ff",
"a c #ff0000",
"................................",
"..#.............................",
"..#..aaa........................",
"###..aaa........................",
"..#..aaa........................",
"..#..aaa........................",
"###..aaa.......aaa..............",
"..#..aaa.......aaa..............",
"..#..aaa.......aaa..............",
"###..aaa.......aaa..............",
"..#..aaa.......aaa..............",
"..#..aaa..bbb..aaa.......aaa....",
"###..aaa..bbb..aaa.......aaa....",
"..#..aaa..bbb..aaa.......aaa....",
"..#..aaa..bbb..aaa.......aaa....",
"###..aaa..bbb..aaa.......aaa....",
"..#..aaa..bbb..aaa.......aaa....",
"..#..aaa..bbb..aaa.......aaa....",
"###..aaa..bbb..aaa..bbb..aaa....",
"..#..aaa..bbb..aaa..bbb..aaa....",
"..#..aaa..bbb..aaa..bbb..aaa....",
"###..aaa..bbb..aaa..bbb..aaa....",
"..#..aaa..bbb..aaa..bbb..aaa....",
"..#..aaa..bbb..aaa..bbb..aaa....",
"###..aaa..bbb..aaa..bbb..aaa....",
"..#..aaa..bbb..aaa..bbb..aaa....",
"..#..aaa..bbb..aaa..bbb..aaa....",
"..#..aaa..bbb..aaa..bbb..aaa....",
".##############################.",
"..#.............................",
"..#...#..##...##...#..##..##.##.",
".....#.........#...#...#..#....."};
