/* XPM */
static const char *configuracion[]={
"32 32 5 1",
". c None",
"a c #000000",
"b c #808080",
"# c #c3c3c3",
"c c #dcdcdc",
"................................",
"................................",
".........#####.......#####......",
"......##########aabb###..##.....",
".....##########aaaaab.#####.....",
"....############aaaaabb.###.....",
"...##############aaaaaab.#...#..",
"...###############aacaaab#.###..",
"..#################aacaaab##.#..",
".##.################aacaaab..#..",
"#####################aacaab..#..",
".####################aaaaab.#...",
".####################aaacaab#...",
".####################aaacaab##..",
".####################aaacaab##..",
"..###################aaacaab....",
"..##ab###############aaacaab....",
"..#aaab#############aaaacaab....",
"..aacaab###########aaaaacaab....",
"..aaacaab#########aaaaaaaab.....",
"...aaacaab#######aaaaaaaaab.....",
"...aaaacaabbbbbaaaaaaaaaaab.....",
"....aaaacaaaaaaaaaaaaaaaaaab....",
".....aaaaccccacaaaaaaaaaaaaab...",
"......aaaaaaaaaaaaaaaaaaaacaab..",
"........aaaaaaaaaaaaaaaaaaacaab.",
".........aaaaaaaaaaaaaaaaaaacaab",
"............aaaaaa....aaaaaaacaa",
".......................aaaaaaaaa",
"........................aaaaaaaa",
".........................aaaaaaa",
"..........................aaaaaa"};
