/* XPM */
static char *lapizp[]={
"16 16 14 1",
". c None",
"l c #000000",
"i c #303000",
"k c #3f3f00",
"g c #606000",
"f c #6f6f00",
"e c #7f0000",
"c c #7f3f00",
"h c #909000",
"a c #bf0000",
"# c #bfbf00",
"j c #c0c000",
"b c #ff0000",
"d c #ffff00",
"............##ab",
"...........##abc",
"..........##abcd",
".........##abcd#",
".........#abcd#.",
"........debcd#..",
".......dcbcd#...",
"......dcbcd#....",
".....#cbcd#.....",
"....#cbcdd......",
"...#cbcdd.......",
"...facdd........",
"..ghe#d.........",
"..igjk..........",
"..llj...........",
"................"};
