<?xml version="1.0" encoding="UTF-8" standalone="no"?>
<!-- Created with Inkscape (http://www.inkscape.org/) -->
<svg
   xmlns:dc="http://purl.org/dc/elements/1.1/"
   xmlns:cc="http://web.resource.org/cc/"
   xmlns:rdf="http://www.w3.org/1999/02/22-rdf-syntax-ns#"
   xmlns:svg="http://www.w3.org/2000/svg"
   xmlns="http://www.w3.org/2000/svg"
   xmlns:sodipodi="http://inkscape.sourceforge.net/DTD/sodipodi-0.dtd"
   xmlns:inkscape="http://www.inkscape.org/namespaces/inkscape"
   width="595.27557pt"
   height="841.88977pt"
   id="svg1"
   sodipodi:version="0.32"
   inkscape:version="0.43"
   sodipodi:docbase="/home/raul/Documents/iglues/propuestas nuevo logo/variaciones 03"
   sodipodi:docname="variaciones 03.svg"
   inkscape:export-filename="/home/raul/Documents/docs/iglues/logos/IGLUES.png"
   inkscape:export-xdpi="96.000000"
   inkscape:export-ydpi="96.000000"
   version="1.0">
  <defs
     id="defs3" />
  <sodipodi:namedview
     id="base"
     pagecolor="#ffffff"
     bordercolor="#666666"
     borderopacity="1.0"
     inkscape:pageopacity="0.0"
     inkscape:pageshadow="2"
     inkscape:zoom="0.50647962"
     inkscape:cx="141.96365"
     inkscape:cy="652.22884"
     inkscape:current-layer="svg1"
     inkscape:window-width="1024"
     inkscape:window-height="699"
     inkscape:window-x="0"
     inkscape:window-y="0"
     inkscape:document-units="pt"
     showguides="true"
     inkscape:guide-bbox="true" />
  <metadata
     id="metadata4">
    <rdf:RDF>
      <cc:Work
         rdf:about="">
        <dc:format>image/svg+xml</dc:format>
        <dc:type
           rdf:resource="http://purl.org/dc/dcmitype/StillImage" />
      </cc:Work>
    </rdf:RDF>
  </metadata>
  <g
     inkscape:label="Layer 1"
     inkscape:groupmode="layer"
     id="layer1" />
  <g
     inkscape:label="Layer 1"
     id="g31231"
     transform="translate(413.8371,-177.1113)" />
  <g
     inkscape:label="Layer 1"
     id="g7746"
     transform="translate(791.3896,654.7196)" />
  <text
     xml:space="preserve"
     style="font-size:137.22338867px;font-style:normal;font-variant:normal;font-weight:bold;font-stretch:normal;text-align:center;line-height:125%;writing-mode:lr-tb;text-anchor:middle;fill:none;fill-opacity:1;fill-rule:nonzero;stroke:#000000;stroke-width:5;stroke-linecap:butt;stroke-linejoin:miter;stroke-miterlimit:4;stroke-dasharray:none;stroke-opacity:1;font-family:DejaVu Sans"
     x="422.48868"
     y="531.53101"
     id="text2208"
     sodipodi:linespacing="125%"
     inkscape:export-filename="/home/raul/Documents/iglues/blender/proposta nou logo/pas02-d.png"
     inkscape:export-xdpi="600"
     inkscape:export-ydpi="600"><tspan
       style="fill:none;fill-opacity:1;stroke:#000000;stroke-width:5;stroke-miterlimit:4;stroke-dasharray:none;stroke-opacity:1"
       sodipodi:role="line"
       id="tspan2210"
       x="422.48868"
       y="531.53101">IGLUES</tspan></text>
  <path
     style="fill:#000000;fill-opacity:1;stroke:none;stroke-width:5;stroke-linecap:butt;stroke-linejoin:miter;stroke-miterlimit:4;stroke-opacity:1"
     d="M 73.500985,424.90375 C 52.226564,425.67041 32.358237,438.75741 24.000985,459.77875 C 12.726198,488.13868 26.609799,520.37897 54.969735,531.65375 C 83.290857,542.91311 115.49687,529.06035 126.81348,500.77875 L 139.03223,500.77875 L 143.78223,493.90375 L 124.21973,493.90375 L 121.37598,500.77875 C 110.43616,525.3068 82.003244,537.01196 56.813485,526.9975 C 30.967479,516.72216 18.381887,487.4685 28.657235,461.6225 C 38.932581,435.7765 68.186228,423.1909 94.032235,433.46625 C 105.9503,438.20439 114.49617,445.93278 120.18848,457.185 L 123.12598,463.46625 L 138.87598,463.46625 L 143.78223,456.59125 L 125.46973,456.59125 C 119.30056,443.50442 109.35955,434.13927 95.875985,428.77875 C 88.785999,425.96006 81.436986,424.74358 74.250985,424.90375 C 74.082563,424.9075 73.919243,424.89845 73.750985,424.90375 C 73.667513,424.90638 73.584414,424.90074 73.500985,424.90375 z M 75.469735,469.96625 C 69.742446,470.18418 65.157236,474.90469 65.157235,480.685 C 65.157235,486.60404 69.956938,491.40376 75.875985,491.40375 C 81.795028,491.40375 86.625987,486.60405 86.625985,480.685 C 86.625985,474.76596 81.795025,469.96625 75.875985,469.96625 C 75.737257,469.96625 75.60719,469.96102 75.469735,469.96625 z "
     id="path3087"
     inkscape:export-filename="/home/raul/Documents/iglues/blender/proposta nou logo/pas02-d.png"
     inkscape:export-xdpi="600"
     inkscape:export-ydpi="600" />
  <text
     sodipodi:linespacing="125%"
     id="text2203"
     y="656.12482"
     x="504.4006"
     style="font-size:137.22338867px;font-style:normal;font-variant:normal;font-weight:bold;font-stretch:normal;text-align:center;line-height:125%;writing-mode:lr-tb;text-anchor:middle;fill:none;fill-opacity:1;fill-rule:nonzero;stroke:#000000;stroke-width:5;stroke-linecap:butt;stroke-linejoin:miter;stroke-miterlimit:4;stroke-dasharray:none;stroke-opacity:1;font-family:DejaVu Sans"
     xml:space="preserve"
     inkscape:export-filename="/home/raul/Documents/iglues/blender/proposta nou logo/pas02-e.png"
     inkscape:export-xdpi="600"
     inkscape:export-ydpi="600"><tspan
       sodipodi:role="line"
       id="tspan2215"
       x="504.40061"
       y="656.12482">LUES</tspan></text>
  <path
     id="path2207"
     d="M 245.62559,549.49758 C 224.35117,550.26424 204.48284,563.35124 196.12559,584.37258 C 184.8508,612.73251 198.7344,644.9728 227.09434,656.24758 C 255.41546,667.50694 287.62148,653.65418 298.93809,625.37258 L 311.15684,625.37258 L 315.90684,618.49758 L 296.34434,618.49758 L 293.50059,625.37258 C 282.56077,649.90063 254.12785,661.60579 228.93809,651.59133 C 203.09208,641.31599 190.50649,612.06233 200.78184,586.21633 C 211.05719,560.37033 240.31083,547.78473 266.15684,558.06008 C 278.07491,562.79822 286.62078,570.52661 292.31309,581.77883 L 295.25059,588.06008 L 311.00059,588.06008 L 315.90684,581.18508 L 297.59434,581.18508 C 291.42517,568.09825 281.48416,558.7331 268.00059,553.37258 C 260.9106,550.55389 253.56159,549.33741 246.37559,549.49758 C 246.20717,549.50133 246.04385,549.49228 245.87559,549.49758 C 245.79212,549.50021 245.70902,549.49457 245.62559,549.49758 z M 247.59434,594.56008 C 241.86705,594.77801 237.28184,599.49852 237.28184,605.27883 C 237.28184,611.19787 242.08154,615.99759 248.00059,615.99758 C 253.91963,615.99758 258.75059,611.19788 258.75059,605.27883 C 258.75059,599.35979 253.91963,594.56008 248.00059,594.56008 C 247.86186,594.56008 247.7318,594.55485 247.59434,594.56008 z "
     style="fill:#000000;fill-opacity:1;stroke:none;stroke-width:6;stroke-linecap:butt;stroke-linejoin:miter;stroke-miterlimit:4;stroke-dasharray:none;stroke-opacity:1"
     inkscape:export-filename="/home/raul/Documents/iglues/blender/proposta nou logo/pas02-e.png"
     inkscape:export-xdpi="600"
     inkscape:export-ydpi="600" />
  <text
     xml:space="preserve"
     style="font-size:137.22338867px;font-style:normal;font-variant:normal;font-weight:bold;font-stretch:normal;text-align:center;line-height:125%;writing-mode:lr-tb;text-anchor:middle;fill:none;fill-opacity:1;fill-rule:nonzero;stroke:#000000;stroke-width:5;stroke-linecap:butt;stroke-linejoin:miter;stroke-miterlimit:4;stroke-dasharray:none;stroke-opacity:1;font-family:DejaVu Sans"
     x="172.83325"
     y="656.12482"
     id="text2209"
     sodipodi:linespacing="125%"
     inkscape:export-filename="/home/raul/Documents/iglues/blender/proposta nou logo/pas02-e.png"
     inkscape:export-xdpi="600"
     inkscape:export-ydpi="600"><tspan
       sodipodi:role="line"
       id="tspan2213"
       x="172.83325"
       y="656.12482">I</tspan></text>
</svg>
