/* XPM */
static const char *ndoc[]={
"22 22 310 2",
"cL c None",
"Qt c None",
".P c #686868",
"cA c #696969",
"cW c #6b6b6b",
"#q c #727272",
"bP c #747474",
".8 c #757575",
"bu c #909090",
"b8 c #959595",
"b9 c #989898",
"cZ c #a6a6a6",
".j c #4c6ca0",
"cV c #545454",
".x c #606060",
"cS c #747474",
"cK c #4a4a4a",
"bt c #2c2c2c",
"cY c #323232",
"c. c #282828",
"cJ c #2a2a2a",
"#J c #202020",
"cI c #252525",
"cX c #282828",
".# c #397acd",
"cR c #202020",
"cz c #242424",
"bO c #191919",
"b7 c #161616",
"ba c #234e8a",
"#p c #121b2f",
"cn c #174ba6",
"cy c #101010",
"b# c #0e0e0e",
"cH c #0f0f0f",
"bQ c #163159",
"cT c #123575",
"#4 c #0d0d0d",
"cm c #0c0c0c",
".O c #103682",
"bv c #18417b",
"c# c #0c182c",
".i c #1a52ae",
"cx c #090909",
"cQ c #090909",
"aU c #090909",
"am c #080808",
"bs c #080808",
".7 c #0a2f76",
"aE c #070707",
".a c #266dc7",
"b6 c #06080c",
".w c #124298",
"cG c #060606",
"cw c #060d1c",
"cU c #081835",
"cl c #060606",
".9 c #2a75cd",
"cB c #0f47b0",
"bN c #050a18",
".y c #2873cc",
".h c #1855b6",
".Q c #2973cd",
"cv c #041438",
".b c #2369c6",
"cP c #051026",
"cu c #041846",
".k c #2570cb",
".g c #1858b8",
"b. c #030f29",
".c c #2067c6",
"ck c #02153d",
"#I c #032471",
"bR c #123f86",
"ct c #041842",
"b5 c #031640",
"cF c #051c4b",
"aV c #1f61b9",
".f c #195aba",
"cM c #0b43ad",
"br c #031e5d",
".d c #1d62c1",
".e c #1a5dbd",
"bM c #011e60",
"cO c #082c71",
".N c #1045a8",
".v c #104bb0",
"aT c #012472",
"cj c #012575",
"cs c #082c77",
"#r c #2a75cf",
"ca c #0d409c",
"bb c #1c5cb7",
"bw c #1a56ad",
".l c #226dca",
"#o c #0a3a9c",
"#3 c #012b8d",
"b4 c #0a3184",
".6 c #0a3ea2",
"co c #1a52b4",
".z c #2d78d0",
"ci c #022b87",
"cE c #07348f",
"aD c #002b8e",
"bS c #1f57ae",
"al c #002d92",
"aF c #2d72ca",
".u c #1b59bc",
"ch c #20499f",
"#. c #2e79d3",
".m c #3279d3",
".R c #337dd4",
"cN c #0a40a5",
"cg c #3d64af",
"cf c #4d70b7",
"bL c #1949a7",
".M c #2862c0",
"#K c #367fd6",
"b3 c #1d4ca9",
".t c #3b77cf",
"a9 c #1547aa",
"bq c #1e50ae",
"cr c #3360b4",
"cC c #245ab9",
".A c #4c90dc",
"bT c #4076c5",
".n c #508edb",
"bx c #3e7dcb",
"cD c #3a6bbd",
"aW c #4386d6",
"#H c #225abf",
"b2 c #5e8dce",
"bc c #5192d9",
"#n c #3973cf",
"an c #3a81d7",
".5 c #437dd0",
".L c #649be0",
"cb c #6592d2",
"ce c #6d8dcc",
"aS c #3d75cd",
".s c #5b92db",
"cq c #89addd",
"#2 c #4b87e0",
".o c #679fe4",
".B c #87bcf0",
"## c #6eb0f1",
"bp c #74b0e9",
"bU c #91bae5",
"cp c #94bbe6",
"b1 c #95bde5",
"#5 c #3d84da",
"#s c #5298ea",
"bK c #5c95d7",
"aC c #64a2ee",
"ak c #68a7f4",
".r c #699ee2",
".S c #6bacea",
"#L c #6caef7",
"a8 c #6da9eb",
"aG c #6dafef",
".p c #72a4e4",
"#G c #77b5f9",
".q c #78a8e3",
"#6 c #7cbcfd",
"aj c #7cbcff",
"ao c #7dbdfb",
"#1 c #7fbfff",
"aB c #81c0ff",
"by c #85bfeb",
"aR c #85c4fe",
"#7 c #89c8ff",
"aA c #8ac9ff",
"ap c #8bcaff",
"aQ c #8ecdff",
"aH c #91cffe",
"aX c #92d0fd",
"#t c #92d0fe",
"#M c #92d0ff",
"bd c #93d0f7",
"a7 c #93d0ff",
"ai c #94d2ff",
".4 c #95ccf5",
"aq c #95d3ff",
"aP c #95d4ff",
"#m c #96d2f9",
"aI c #99d6ff",
"az c #99d7ff",
"a6 c #9ad7ff",
"bo c #9cdafd",
"aY c #9ddaff",
"aO c #9ddbff",
"bJ c #9fd8f7",
"aJ c #9fddff",
"#0 c #a1deff",
"#F c #a3e0ff",
".K c #a4d0f5",
"aZ c #a4e1ff",
"ah c #a6e2ff",
"ay c #a7e3ff",
"a5 c #a9e5ff",
"be c #abe5fe",
"#a c #ace2fe",
"#N c #ace6ff",
"a0 c #ade6ff",
"bm c #afbdd9",
"#8 c #afe7ff",
"a4 c #b0beda",
"aN c #b0bfdb",
"#u c #b0e7ff",
"#E c #b0e8ff",
"aK c #b2daf1",
"bn c #b2e8ff",
".T c #b3e2fd",
"#l c #b4e9ff",
"#B c #b5bfd6",
"ax c #b5c2db",
"a1 c #b6dbf1",
"#Z c #b6e9ff",
"#O c #b6eaff",
"b0 c #b7d6f1",
"af c #b8c4dc",
"ar c #b8dcf0",
"ag c #b8e9ff",
"#9 c #b8eaff",
"bH c #b9d8ee",
".C c #b9dbf5",
"bI c #b9eaff",
"bz c #bae9fd",
"bf c #bbdbf0",
"#D c #bbeaff",
"#v c #bbebff",
"#X c #bcc6dc",
".3 c #beebff",
"a. c #bfdef0",
"#b c #bfecff",
"#Y c #c0ecff",
"#P c #c0edff",
".J c #c3e5fa",
"bA c #c5e7f8",
".0 c #c6c8d7",
"#C c #c6edff",
"#w c #c6eeff",
"#Q c #c7e3f2",
"#k c #c9e0f0",
"bZ c #cae1f4",
"#c c #caefff",
"#j c #cbcddc",
"#A c #ccccdc",
"cd c #ccdff3",
".U c #ccf0ff",
"bG c #cde3f2",
"#x c #cee6f2",
"#z c #d1d1df",
".D c #d1e4f1",
"bB c #d3e6f3",
"#d c #d3e9f3",
".1 c #d5e4f0",
".H c #d5e4f1",
"bF c #d5e6f3",
".I c #d5eefc",
".V c #d6ebf4",
"#i c #d7d7e2",
"bY c #d7e8f6",
".2 c #d7f3fe",
"bE c #dce9f4",
".E c #dceaf4",
"bC c #dceaf5",
"bV c #dcf4ff",
"bD c #deeaf4",
"#W c #dfdfec",
"cc c #dff6ff",
".G c #e0e9f2",
".F c #e0ebf3",
"ae c #e3e3ee",
"as c #e4e4eb",
"#V c #e5e5ef",
"bl c #e5e7f1",
"bX c #e5f2fb",
"ad c #e6e6f0",
"a# c #e7e7ed",
"bg c #e7e9f0",
"bW c #e7f7fe",
"aw c #e9e9f1",
"aM c #e9e9f2",
"bk c #e9ebf3",
"#R c #ebebef",
"ac c #ececf3",
".W c #ededee",
"#y c #ededf0",
".Z c #ededf3",
"av c #ededf4",
"bj c #edeef5",
"#e c #efeff1",
"a2 c #f0f0f4",
"au c #f0f0f6",
"bi c #f0f1f7",
"ab c #f3f3f7",
"#U c #f3f3f8",
"bh c #f3f5f8",
"at c #f4f4f8",
"#h c #f4f4f9",
".Y c #f5f5f7",
"aL c #f7f7fa",
".X c #f8f8f9",
"aa c #f9f9fb",
"a3 c #fafafc",
"#T c #fbfbfc",
"#g c #fcfcfd",
"#S c #fefefe",
"#f c #fefeff",
"QtQtQtQtQtQtQtQtQtQtQtQtQtQtQtQtQtQtQtQtQtQt",
"QtQtQtQtQtQtQtQtQtQtQtQtQtQtQtQtQtQtQtQtQtQt",
"QtQtQtQtQt.#.a.b.c.d.e.f.g.h.i.jQtQtQtQtQtQt",
"QtQtQtQt.k.l.m.n.o.p.q.r.s.t.u.v.w.xQtQtQtQt",
"QtQt.y.z.A.B.C.D.E.F.G.H.I.J.K.L.M.N.O.PQtQt",
"Qt.Q.R.S.T.U.V.W.X.Y.Z.0.1.2.U.3.4.5.6.7.8Qt",
".9#.###a#b#c#d#e#f#g#h#i#j#k#c.3#l#m#n#o#p#q",
"#r#s#t#u#v#w#x#y#f#g#h#z#A#B#C#D#E#F#G#H#I#J",
"#K#L#M#N#O#P#Q#R#S#T#U#V#W#X#Y#Z#N#0#1#2#3#4",
"#5#6#7#0#8#9a.a#aaabacadaeafag#8ahaiajakalam",
"anaoapaq#F#uarasatauavawadax#uayazaAaBaCaDaE",
"aFaGaHaIaJayaK.ZaL#UauavaMaNahaOaPaQaRaSaTaU",
"aVaWaXaYaZa0a1a2a3aL#Uauava4a5#0a6a7a8a9b.b#",
"babbbcbdbe#Obfbgbhbibjbkblbmbnaybobpbqbrbsbt",
"bubvbwbxbybzbAbBbCbDbEbFbGbHbIbJbKbLbMbNbObu",
"QtbPbQbRbSbTbUbVbWbXbYbZb0b1b2b3b4b5b6b7b8Qt",
"QtQtb9c.c#cacbcccdcecfcgchcicjckclcmc.b9QtQt",
"QtQtQtQtcncocpcqcrcsctcucvcwcxcyczcAQtQtQtQt",
"QtQtQtQtcBcCcDcEcFcGcHcIcJcKb9cLQtQtQtQtQtQt",
"QtQtQtQtcMcNcOcPcQcRcSQtQtQtQtQtQtQtQtQtQtQt",
"QtQtQtQtcTcUamb7cVQtQtQtQtQtQtQtQtQtQtQtQtQt",
"QtQtQtQtcWcXcYcZQtQtQtQtQtQtQtQtQtQtQtQtQtQt"};
