/* XPM */
static const char *cneto[]={
"16 16 5 1",
". c None",
"# c #000080",
"b c #0000ff",
"a c #808080",
"c c #ffff00",
"................",
"................",
".......#######a.",
".......#bbbb##a.",
"..#####bbbb#b#a.",
"..#bbbbbbbbb##a.",
"..#bbcbbbbc#b#a.",
"..#bbccbbbcb##a.",
"..#bbcbcbbc#b#a.",
"..#bbcbccbcb##a.",
"..#bbcbbccc#b#a.",
"..#bbcbbbccb##a.",
"..#bbcbbbbc#b#a.",
"..#bbbbbbbbb##a.",
"..############a.",
"...aaaaaaaaaaaa."};
