<?xml version="1.0" encoding="UTF-8" standalone="no"?>
<!-- Created with Inkscape (http://www.inkscape.org/) -->
<svg
   xmlns:dc="http://purl.org/dc/elements/1.1/"
   xmlns:cc="http://web.resource.org/cc/"
   xmlns:rdf="http://www.w3.org/1999/02/22-rdf-syntax-ns#"
   xmlns:svg="http://www.w3.org/2000/svg"
   xmlns="http://www.w3.org/2000/svg"
   xmlns:xlink="http://www.w3.org/1999/xlink"
   xmlns:sodipodi="http://inkscape.sourceforge.net/DTD/sodipodi-0.dtd"
   xmlns:inkscape="http://www.inkscape.org/namespaces/inkscape"
   width="595.27557pt"
   height="841.88977pt"
   id="svg1"
   sodipodi:version="0.32"
   inkscape:version="0.43"
   sodipodi:docbase="/home/raul/Desktop"
   sodipodi:docname="pas02.svg"
   inkscape:export-filename="/home/raul/Documents/docs/iglues/logos/IGLUES.png"
   inkscape:export-xdpi="96.000000"
   inkscape:export-ydpi="96.000000"
   version="1.0">
  <defs
     id="defs3" />
  <sodipodi:namedview
     id="base"
     pagecolor="#ffffff"
     bordercolor="#666666"
     borderopacity="1.0"
     inkscape:pageopacity="0.0"
     inkscape:pageshadow="2"
     inkscape:zoom="0.25323981"
     inkscape:cx="805.0453"
     inkscape:cy="52.756132"
     inkscape:current-layer="svg1"
     inkscape:window-width="1024"
     inkscape:window-height="699"
     inkscape:window-x="0"
     inkscape:window-y="0"
     inkscape:document-units="pt"
     showguides="true"
     inkscape:guide-bbox="true" />
  <metadata
     id="metadata4">
    <rdf:RDF>
      <cc:Work
         rdf:about="">
        <dc:format>image/svg+xml</dc:format>
        <dc:type
           rdf:resource="http://purl.org/dc/dcmitype/StillImage" />
      </cc:Work>
    </rdf:RDF>
  </metadata>
  <g
     inkscape:label="Layer 1"
     inkscape:groupmode="layer"
     id="layer1" />
  <g
     inkscape:label="Layer 1"
     id="g31231"
     transform="translate(413.8371,-177.1113)" />
  <g
     inkscape:label="Layer 1"
     id="g7746"
     transform="translate(791.3896,654.7196)" />
  <path
     style="fill:#000000;fill-opacity:1;fill-rule:evenodd;stroke:#000000;stroke-width:1.25;stroke-linecap:butt;stroke-linejoin:miter;stroke-miterlimit:4;stroke-dasharray:none;stroke-opacity:1"
     d="M 204.71179,760.35771 C 202.7801,760.37923 201.16334,760.49787 200.08679,760.85771 C 197.78297,761.62781 195.65778,768.271 197.14929,770.04521 C 197.15527,770.05204 197.17444,770.06978 197.18054,770.07646 C 201.75008,768.75563 207.33955,768.38866 212.58679,768.42021 C 217.83401,768.45175 223.22492,768.80402 228.30554,769.92021 C 228.28424,766.67246 228.02088,761.57933 224.93054,761.01396 C 221.68148,760.41953 217.78368,760.37228 212.58679,760.42021 C 209.83438,760.44643 207.04314,760.33174 204.71179,760.35771 z M 206.93054,776.10771 C 206.19379,776.19406 205.30719,776.50735 204.24304,777.01396 C 199.33733,778.05641 194.7157,780.09687 190.43054,782.57646 L 191.05554,783.35771 L 191.08679,783.42021 C 192.70716,784.94377 193.9006,788.55154 195.74304,789.01396 C 196.42919,789.17289 197.22228,788.90119 198.14929,787.92021 C 201.84667,785.88134 206.06079,784.80811 210.30554,784.60771 C 210.4675,781.39832 210.5765,778.08456 209.14929,776.73271 C 208.66085,776.2847 207.98545,776.03486 207.08679,776.10771 C 207.0391,776.11158 206.97966,776.10195 206.93054,776.10771 z M 214.80554,776.13896 L 214.83679,777.13896 L 214.83679,777.17021 C 215.10347,778.73793 214.60833,780.97658 214.71179,782.67021 C 214.75795,783.42582 214.93768,784.07839 215.33679,784.51396 C 215.34206,784.5195 215.36249,784.53965 215.36804,784.54521 C 215.44939,784.62314 215.55681,784.70338 215.64929,784.76396 C 216.13337,785.06785 216.86045,785.179 217.89929,784.98271 C 222.09913,785.61289 226.11256,787.17485 229.61804,789.54521 C 233.01477,785.473 236.11024,781.22581 229.24304,779.82646 C 224.67716,777.78912 219.76129,776.63312 214.80554,776.13896 z M 238.11804,785.20146 C 236.88288,787.57583 233.64311,790.26824 233.43054,792.48271 C 237.35083,795.67157 240.47255,799.95117 242.14929,804.76396 C 246.85965,803.40009 252.48793,802.18689 247.77429,797.10771 C 245.28663,792.56112 241.87062,788.68489 238.11804,785.20146 z M 185.77429,786.35771 C 184.70765,786.4811 183.61308,787.43435 182.49304,789.54521 C 179.1554,793.28304 176.588,797.69043 174.64929,802.17021 L 175.61804,802.45146 L 175.68054,802.48271 C 177.83154,802.75534 180.72634,804.71745 182.49304,804.29521 C 182.60266,804.26711 182.73639,804.21805 182.83679,804.17021 C 183.44291,803.8673 183.88191,803.16082 184.02429,801.85771 C 185.91936,798.05987 188.58358,794.65316 191.89929,792.04521 C 190.0155,789.21251 188.02519,786.27143 185.93054,786.35771 C 185.87821,786.35987 185.82675,786.35164 185.77429,786.35771 z M 251.61804,806.29521 C 249.40983,807.61616 244.72801,807.47493 243.77429,809.48271 C 243.51852,810.07729 243.55467,810.89914 244.08679,811.95146 C 244.82496,816.09826 244.52781,820.44915 243.36804,824.48271 C 246.08679,825.25353 248.80554,826.02438 251.52429,826.79521 C 253.14496,820.10893 253.03757,813.05633 251.61804,806.29521 z M 173.99304,806.63896 C 173.85002,806.6677 173.70617,806.73888 173.58679,806.79521 C 173.50694,806.8353 173.40595,806.8936 173.33679,806.95146 C 173.3205,806.96757 173.2852,807.00328 173.27429,807.01396 C 173.20303,807.08752 173.11203,807.19709 173.05554,807.29521 C 172.83027,807.70801 172.73043,808.35174 172.80554,809.26396 C 172.41914,812.03772 172.10732,814.91288 172.21179,817.76396 C 172.21693,817.90417 172.23591,818.03005 172.24304,818.17021 C 172.81153,820.64519 171.99399,825.86955 174.21179,826.48271 C 174.25664,826.49422 174.3207,826.50621 174.36804,826.51396 C 176.25477,825.57048 179.80599,825.68267 181.02429,824.38896 C 181.02766,824.38526 181.05005,824.36308 181.05554,824.35771 C 181.06171,824.35177 181.08138,824.33187 181.08679,824.32646 C 181.13072,824.27271 181.20294,824.17103 181.24304,824.10771 C 181.28782,824.02829 181.33815,823.91542 181.36804,823.82646 C 181.53701,823.28613 181.42177,822.56672 180.89929,821.60771 C 180.08677,817.4291 180.35984,813.05441 181.52429,808.98271 C 179.47749,808.93626 175.98042,806.44585 174.08679,806.63896 C 174.05341,806.64237 174.02604,806.63233 173.99304,806.63896 z M 211.80554,811.20146 C 209.21527,811.5275 207.2118,813.77336 207.21179,816.45146 C 207.21179,819.35344 209.5598,821.70148 212.46179,821.70146 C 215.36377,821.70146 217.71178,819.35345 217.71179,816.45146 C 217.71179,813.54948 215.36377,811.20145 212.46179,811.20146 C 212.28042,811.20146 212.1072,811.1835 211.93054,811.20146 C 211.88914,811.20567 211.84666,811.19628 211.80554,811.20146 z M 242.83679,828.10771 C 242.818,828.11151 242.79297,828.13426 242.77429,828.13896 C 242.68126,828.16436 242.57773,828.20103 242.49304,828.23271 C 242.38303,828.27642 242.24795,828.35085 242.14929,828.42021 C 242.10494,828.45284 242.03487,828.50686 241.99304,828.54521 C 241.61298,828.90877 241.3331,829.53294 241.21179,830.48271 C 239.42808,834.38576 236.68811,837.83195 233.36804,840.48271 L 233.96179,841.29521 L 234.18054,841.57646 C 235.67005,842.95667 237.02306,846.55834 238.58679,846.88896 C 238.60277,846.88921 238.63933,846.88885 238.64929,846.88896 C 238.67711,846.88815 238.71846,846.88896 238.74304,846.88896 C 238.78105,846.89068 238.85614,846.89092 238.89929,846.88896 C 238.94537,846.88427 239.0348,846.86918 239.08679,846.85771 C 239.13343,846.84469 239.22209,846.81574 239.27429,846.79521 C 239.33727,846.76614 239.42922,846.71162 239.49304,846.67021 C 239.84931,846.42941 240.23127,845.98524 240.61804,845.29521 C 244.76107,841.17117 248.07523,836.05933 250.33679,830.60771 C 248.14315,830.44485 244.92226,827.88429 242.93054,828.10771 C 242.9023,828.11088 242.86498,828.102 242.83679,828.10771 z M 183.02429,828.63896 C 181.43182,829.60868 176.58698,829.91808 175.46179,831.29521 C 175.44449,831.3195 175.41964,831.36079 175.39929,831.38896 C 175.39642,831.39178 175.37156,831.41689 175.36804,831.42021 C 175.35201,831.45027 175.32255,831.50547 175.30554,831.54521 C 175.29357,831.57452 175.28155,831.61667 175.27429,831.63896 C 175.27,831.65101 175.24932,831.68322 175.24304,831.70146 C 175.24061,831.70919 175.24397,831.72833 175.24304,831.73271 C 175.24287,831.75403 175.24236,831.80489 175.24304,831.82646 C 175.24302,831.83129 175.24334,831.85367 175.24304,831.85771 C 175.24269,831.88165 175.24243,831.9327 175.24304,831.95146 C 175.24289,831.9756 175.24376,832.01718 175.24304,832.04521 C 175.24318,832.05527 175.2428,832.09174 175.24304,832.10771 C 175.24302,832.10904 175.2431,832.13176 175.24304,832.13896 C 175.24475,832.14016 175.27262,832.16896 175.27429,832.17021 C 175.28379,832.20037 175.29843,832.26813 175.30554,832.29521 C 175.32308,832.3415 175.34434,832.40341 175.36804,832.45146 C 178.20338,838.37975 181.9967,843.58105 186.96179,847.85771 C 188.04753,845.49037 192.3781,842.84531 191.58679,840.67021 C 191.56213,840.60608 191.52693,840.51477 191.49304,840.45146 C 191.44269,840.36119 191.37594,840.25871 191.30554,840.17021 C 191.02854,839.83421 190.575,839.50929 189.96179,839.20146 C 186.84215,836.2969 184.49487,832.63789 183.05554,828.63896 C 183.05318,828.638 183.02686,828.6392 183.02429,828.63896 z M 195.80554,843.60771 C 195.25974,845.30044 191.36316,848.42831 191.21179,850.20146 C 191.21132,850.23365 191.21129,850.3016 191.21179,850.32646 C 191.21146,850.34259 191.2117,850.37298 191.21179,850.38896 C 191.21187,850.39075 191.21185,850.41322 191.21179,850.42021 C 191.21176,850.42289 191.21146,850.44949 191.21179,850.45146 C 191.21519,850.45437 191.24008,850.47993 191.24304,850.48271 C 191.24305,850.4856 191.24313,850.51032 191.24304,850.51396 C 191.24459,850.52024 191.24103,850.53883 191.24304,850.54521 C 191.24542,850.55167 191.27163,850.56994 191.27429,850.57646 C 191.28568,850.6027 191.2948,850.64405 191.30554,850.67021 C 191.31355,850.68648 191.33135,850.72186 191.33679,850.73271 C 191.34643,850.753 191.35744,850.80419 191.36804,850.82646 C 191.37078,850.83165 191.39644,850.85311 191.39929,850.85771 C 191.40282,850.85728 191.42766,850.85779 191.43054,850.85771 C 191.43339,850.86147 191.45903,850.88471 191.46179,850.88896 C 191.47247,850.90699 191.48351,850.93867 191.49304,850.95146 C 191.49947,850.95746 191.51763,850.97678 191.52429,850.98271 C 191.61398,851.05861 191.73663,851.14087 191.86804,851.20146 C 197.44485,854.28314 203.84156,856.32778 210.27429,856.79521 C 209.80444,854.56133 211.3118,850.65336 210.36804,848.88896 C 210.30366,848.77354 210.20549,848.64062 210.11804,848.54521 C 210.09567,848.52179 210.04822,848.47352 210.02429,848.45146 C 209.98353,848.41544 209.91331,848.35857 209.86804,848.32646 C 209.39683,848.00713 208.67133,847.89325 207.61804,848.07646 C 203.3859,847.52973 199.34586,845.95163 195.80554,843.60771 z M 229.11804,843.60771 C 228.59543,843.70082 227.99148,844.09035 227.33679,844.79521 C 223.60513,846.79225 219.43821,848.04218 215.18054,848.17021 C 215.17143,849.64947 215.20018,851.12854 215.21179,852.60771 C 214.9095,853.61155 214.80332,854.36966 214.86804,854.95146 C 214.9031,855.26659 214.99505,855.55148 215.11804,855.76396 C 215.13259,855.78805 215.16493,855.83486 215.18054,855.85771 C 215.18386,855.86148 215.20797,855.88515 215.21179,855.88896 C 215.22479,855.90064 215.26258,855.93928 215.27429,855.95146 C 215.29022,855.97379 215.32205,856.02561 215.33679,856.04521 C 215.35341,856.0617 215.38192,856.0921 215.39929,856.10771 C 216.50777,857.05658 219.06561,856.33015 221.27429,855.76396 C 226.05425,854.72189 230.50874,852.71362 234.71179,850.26396 C 233.01914,848.81569 231.90608,844.73401 230.11804,843.79521 C 229.92493,843.69802 229.70607,843.6298 229.49304,843.60771 C 229.4056,843.60042 229.30157,843.59794 229.21179,843.60771 C 229.17759,843.61143 229.15288,843.6015 229.11804,843.60771 z "
     id="path1355"
     sodipodi:nodetypes="csscscssccccccccccsccccssssccccccccccccccssccsccccccccsssscscscsssssccsccsssssccssssccccsssssssccsccsssssssssssssssscssscsccsssssssssssssssssccssssccccccsssssssccsssc"
     inkscape:export-filename="/home/raul/Documents/iglues/blender/proposta nou logo/pas03.png"
     inkscape:export-xdpi="300"
     inkscape:export-ydpi="300" />
  <path
     sodipodi:nodetypes="cccccccccsccccssssccccccccccccccssccsccccccccsssscscscsssssccsccsssssccssssccccsssssssccsccsssssssssssssssscssscsccsssssssssssssssssccssssccccccsssssssccsssc"
     id="path4937"
     d="M 403.02297,773.60923 C 402.28622,773.69558 401.39962,774.00887 400.33547,774.51548 C 395.42976,775.55793 390.80813,777.59839 386.52297,780.07798 L 387.14797,780.85923 L 387.17922,780.92173 C 388.79959,782.44529 389.99303,786.05306 391.83547,786.51548 C 392.52162,786.67441 393.31471,786.40271 394.24172,785.42173 C 397.9391,783.38286 402.15322,782.30963 406.39797,782.10923 C 406.55993,778.89984 406.66893,775.58608 405.24172,774.23423 C 404.75328,773.78622 404.07788,773.53638 403.17922,773.60923 C 403.13153,773.6131 403.07209,773.60347 403.02297,773.60923 z M 410.89797,773.64048 L 410.92922,774.64048 L 410.92922,774.67173 C 411.1959,776.23945 410.70076,778.4781 410.80422,780.17173 C 410.85038,780.92734 411.03011,781.57991 411.42922,782.01548 C 411.43449,782.02102 411.45492,782.04117 411.46047,782.04673 C 411.54182,782.12466 411.64924,782.2049 411.74172,782.26548 C 412.2258,782.56937 412.95288,782.68052 413.99172,782.48423 C 418.19156,783.11441 422.20499,784.67637 425.71047,787.04673 C 429.1072,782.97452 432.20267,778.72733 425.33547,777.32798 C 420.76959,775.29064 415.85372,774.13464 410.89797,773.64048 z M 434.21047,782.70298 C 432.97531,785.07735 429.73554,787.76976 429.52297,789.98423 C 433.44326,793.17309 436.56498,797.45269 438.24172,802.26548 C 442.95208,800.90161 448.58036,799.68841 443.86672,794.60923 C 441.37906,790.06264 437.96305,786.18641 434.21047,782.70298 z M 381.86672,783.85923 C 380.80008,783.98262 379.70551,784.93587 378.58547,787.04673 C 375.24783,790.78456 372.68043,795.19195 370.74172,799.67173 L 371.71047,799.95298 L 371.77297,799.98423 C 373.92397,800.25686 376.81877,802.21897 378.58547,801.79673 C 378.69509,801.76863 378.82882,801.71957 378.92922,801.67173 C 379.53534,801.36882 379.97434,800.66234 380.11672,799.35923 C 382.01179,795.56139 384.67601,792.15468 387.99172,789.54673 C 386.10793,786.71403 384.11762,783.77295 382.02297,783.85923 C 381.97064,783.86139 381.91918,783.85316 381.86672,783.85923 z M 447.71047,803.79673 C 445.50226,805.11768 440.82044,804.97645 439.86672,806.98423 C 439.61095,807.57881 439.6471,808.40066 440.17922,809.45298 C 440.91739,813.59978 440.62024,817.95067 439.46047,821.98423 C 442.17922,822.75505 444.89797,823.5259 447.61672,824.29673 C 449.23739,817.61045 449.13,810.55785 447.71047,803.79673 z M 370.08547,804.14048 C 369.94245,804.16922 369.7986,804.2404 369.67922,804.29673 C 369.59937,804.33682 369.49838,804.39512 369.42922,804.45298 C 369.41293,804.46909 369.37763,804.5048 369.36672,804.51548 C 369.29546,804.58904 369.20446,804.69861 369.14797,804.79673 C 368.9227,805.20953 368.82286,805.85326 368.89797,806.76548 C 368.51157,809.53924 368.19975,812.4144 368.30422,815.26548 C 368.30936,815.40569 368.32834,815.53157 368.33547,815.67173 C 368.90396,818.14671 368.08642,823.37107 370.30422,823.98423 C 370.34907,823.99574 370.41313,824.00773 370.46047,824.01548 C 372.3472,823.072 375.89842,823.18419 377.11672,821.89048 C 377.12009,821.88678 377.14248,821.8646 377.14797,821.85923 C 377.15414,821.85329 377.17381,821.83339 377.17922,821.82798 C 377.22315,821.77423 377.29537,821.67255 377.33547,821.60923 C 377.38025,821.52981 377.43058,821.41694 377.46047,821.32798 C 377.62944,820.78765 377.5142,820.06824 376.99172,819.10923 C 376.1792,814.93062 376.45227,810.55593 377.61672,806.48423 C 375.56992,806.43778 372.07285,803.94737 370.17922,804.14048 C 370.14584,804.14389 370.11847,804.13385 370.08547,804.14048 z M 407.89797,808.70298 C 405.3077,809.02902 403.30423,811.27488 403.30422,813.95298 C 403.30422,816.85496 405.65223,819.203 408.55422,819.20298 C 411.4562,819.20298 413.80421,816.85497 413.80422,813.95298 C 413.80422,811.051 411.4562,808.70297 408.55422,808.70298 C 408.37285,808.70298 408.19963,808.68502 408.02297,808.70298 C 407.98157,808.70719 407.93909,808.6978 407.89797,808.70298 z M 438.92922,825.60923 C 438.91043,825.61303 438.8854,825.63578 438.86672,825.64048 C 438.77369,825.66588 438.67016,825.70255 438.58547,825.73423 C 438.47546,825.77794 438.34038,825.85237 438.24172,825.92173 C 438.19737,825.95436 438.1273,826.00838 438.08547,826.04673 C 437.70541,826.41029 437.42553,827.03446 437.30422,827.98423 C 435.52051,831.88728 432.78054,835.33347 429.46047,837.98423 L 430.05422,838.79673 L 430.27297,839.07798 C 431.76248,840.45819 433.11549,844.05986 434.67922,844.39048 C 434.6952,844.39073 434.73176,844.39037 434.74172,844.39048 C 434.76954,844.38967 434.81089,844.39048 434.83547,844.39048 C 434.87348,844.3922 434.94857,844.39244 434.99172,844.39048 C 435.0378,844.38579 435.12723,844.3707 435.17922,844.35923 C 435.22586,844.34621 435.31452,844.31726 435.36672,844.29673 C 435.4297,844.26766 435.52165,844.21314 435.58547,844.17173 C 435.94174,843.93093 436.3237,843.48676 436.71047,842.79673 C 440.8535,838.67269 444.16766,833.56085 446.42922,828.10923 C 444.23558,827.94637 441.01469,825.38581 439.02297,825.60923 C 438.99473,825.6124 438.95741,825.60352 438.92922,825.60923 z M 379.11672,826.14048 C 377.52425,827.1102 372.67941,827.4196 371.55422,828.79673 C 371.53692,828.82102 371.51207,828.86231 371.49172,828.89048 C 371.48885,828.8933 371.46399,828.91841 371.46047,828.92173 C 371.44444,828.95179 371.41498,829.00699 371.39797,829.04673 C 371.386,829.07604 371.37398,829.11819 371.36672,829.14048 C 371.36243,829.15253 371.34175,829.18474 371.33547,829.20298 C 371.33304,829.21071 371.3364,829.22985 371.33547,829.23423 C 371.3353,829.25555 371.33479,829.30641 371.33547,829.32798 C 371.33545,829.33281 371.33577,829.35519 371.33547,829.35923 C 371.33512,829.38317 371.33486,829.43422 371.33547,829.45298 C 371.33532,829.47712 371.33619,829.5187 371.33547,829.54673 C 371.33561,829.55679 371.33523,829.59326 371.33547,829.60923 C 371.33545,829.61056 371.33553,829.63328 371.33547,829.64048 C 371.33718,829.64168 371.36505,829.67048 371.36672,829.67173 C 371.37622,829.70189 371.39086,829.76965 371.39797,829.79673 C 371.41551,829.84302 371.43677,829.90493 371.46047,829.95298 C 374.29581,835.88127 378.08913,841.08257 383.05422,845.35923 C 384.13996,842.99189 388.47053,840.34683 387.67922,838.17173 C 387.65456,838.1076 387.61936,838.01629 387.58547,837.95298 C 387.53512,837.86271 387.46837,837.76023 387.39797,837.67173 C 387.12097,837.33573 386.66743,837.01081 386.05422,836.70298 C 382.93458,833.79842 380.5873,830.13941 379.14797,826.14048 C 379.14561,826.13952 379.11929,826.14072 379.11672,826.14048 z M 391.89797,841.10923 C 391.35217,842.80196 387.45559,845.92983 387.30422,847.70298 C 387.30375,847.73517 387.30372,847.80312 387.30422,847.82798 C 387.30389,847.84411 387.30413,847.8745 387.30422,847.89048 C 387.3043,847.89227 387.30428,847.91474 387.30422,847.92173 C 387.30419,847.92441 387.30389,847.95101 387.30422,847.95298 C 387.30762,847.95589 387.33251,847.98145 387.33547,847.98423 C 387.33548,847.98712 387.33556,848.01184 387.33547,848.01548 C 387.33702,848.02176 387.33346,848.04035 387.33547,848.04673 C 387.33785,848.05319 387.36406,848.07146 387.36672,848.07798 C 387.37811,848.10422 387.38723,848.14557 387.39797,848.17173 C 387.40598,848.188 387.42378,848.22338 387.42922,848.23423 C 387.43886,848.25452 387.44987,848.30571 387.46047,848.32798 C 387.46321,848.33317 387.48887,848.35463 387.49172,848.35923 C 387.49525,848.3588 387.52009,848.35931 387.52297,848.35923 C 387.52582,848.36299 387.55146,848.38623 387.55422,848.39048 C 387.5649,848.40851 387.57594,848.44019 387.58547,848.45298 C 387.5919,848.45898 387.61006,848.4783 387.61672,848.48423 C 387.70641,848.56013 387.82906,848.64239 387.96047,848.70298 C 393.53728,851.78466 399.93399,853.8293 406.36672,854.29673 C 405.89687,852.06285 407.40423,848.15488 406.46047,846.39048 C 406.39609,846.27506 406.29792,846.14214 406.21047,846.04673 C 406.1881,846.02331 406.14065,845.97504 406.11672,845.95298 C 406.07596,845.91696 406.00574,845.86009 405.96047,845.82798 C 405.48926,845.50865 404.76376,845.39477 403.71047,845.57798 C 399.47833,845.03125 395.43829,843.45315 391.89797,841.10923 z M 425.21047,841.10923 C 424.68786,841.20234 424.08391,841.59187 423.42922,842.29673 C 419.69756,844.29377 415.53064,845.5437 411.27297,845.67173 C 411.26386,847.15099 411.29261,848.63006 411.30422,850.10923 C 411.00193,851.11307 410.89575,851.87118 410.96047,852.45298 C 410.99553,852.76811 411.08748,853.053 411.21047,853.26548 C 411.22502,853.28957 411.25736,853.33638 411.27297,853.35923 C 411.27629,853.363 411.3004,853.38667 411.30422,853.39048 C 411.31722,853.40216 411.35501,853.4408 411.36672,853.45298 C 411.38265,853.47531 411.41448,853.52713 411.42922,853.54673 C 411.44584,853.56322 411.47435,853.59362 411.49172,853.60923 C 412.6002,854.5581 415.15804,853.83167 417.36672,853.26548 C 422.14668,852.22341 426.60117,850.21514 430.80422,847.76548 C 429.11157,846.31721 427.99851,842.23553 426.21047,841.29673 C 426.01736,841.19954 425.7985,841.13132 425.58547,841.10923 C 425.49803,841.10194 425.394,841.09946 425.30422,841.10923 C 425.27002,841.11295 425.24531,841.10302 425.21047,841.10923 z "
     style="fill:#000000;fill-opacity:1;fill-rule:evenodd;stroke:#000000;stroke-width:1.25;stroke-linecap:butt;stroke-linejoin:miter;stroke-miterlimit:4;stroke-dasharray:none;stroke-opacity:1"
     inkscape:export-filename="/home/raul/Documents/iglues/blender/proposta nou logo/pas03-variants.png"
     inkscape:export-xdpi="300"
     inkscape:export-ydpi="300" />
  <path
     sodipodi:nodetypes="csscscssccccccccccsccccssssccccccccccccccssccsccccccccsssscscscsssssccsccssssccccsssssssccsccsssssssssssssssscssscsccsssssssssssssssssccssssccccccsssssssccsssc"
     id="path4939"
     d="M 305.21105,758.87254 C 303.27936,758.89406 301.6626,759.0127 300.58605,759.37254 C 298.28223,760.14264 296.15704,766.78583 297.64855,768.56004 C 297.65453,768.56687 297.6737,768.58461 297.6798,768.59129 C 302.24934,767.27046 307.83881,766.90349 313.08605,766.93504 C 318.33327,766.96658 323.72418,767.31885 328.8048,768.43504 C 328.7835,765.18729 328.52014,760.09416 325.4298,759.52879 C 322.18074,758.93436 318.28294,758.88711 313.08605,758.93504 C 310.33364,758.96126 307.5424,758.84657 305.21105,758.87254 z M 307.4298,774.62254 C 306.69305,774.70889 305.80645,775.02218 304.7423,775.52879 C 299.83659,776.57124 295.21496,778.6117 290.9298,781.09129 L 291.5548,781.87254 L 291.58605,781.93504 C 293.20642,783.4586 294.39986,787.06637 296.2423,787.52879 C 296.92845,787.68772 297.72154,787.41602 298.64855,786.43504 C 302.34593,784.39617 306.56005,783.32294 310.8048,783.12254 C 310.96676,779.91315 311.07576,776.59939 309.64855,775.24754 C 309.16011,774.79953 308.48471,774.54969 307.58605,774.62254 C 307.53836,774.62641 307.47892,774.61678 307.4298,774.62254 z M 315.3048,774.65379 L 315.33605,775.65379 L 315.33605,775.68504 C 315.60273,777.25276 315.10759,779.49141 315.21105,781.18504 C 315.25721,781.94065 315.43694,782.59322 315.83605,783.02879 C 315.84132,783.03433 315.86175,783.05448 315.8673,783.06004 C 315.94865,783.13797 316.05607,783.21821 316.14855,783.27879 C 316.63263,783.58268 317.35971,783.69383 318.39855,783.49754 C 322.59839,784.12772 326.61182,785.68968 330.1173,788.06004 C 333.51403,783.98783 336.6095,779.74064 329.7423,778.34129 C 325.17642,776.30395 320.26055,775.14795 315.3048,774.65379 z M 338.6173,783.71629 C 337.38214,786.09066 334.14237,788.78307 333.9298,790.99754 C 337.85009,794.1864 340.97181,798.466 342.64855,803.27879 C 347.35891,801.91492 352.98719,800.70172 348.27355,795.62254 C 345.78589,791.07595 342.36988,787.19972 338.6173,783.71629 z M 286.27355,784.87254 C 285.20691,784.99593 284.11234,785.94918 282.9923,788.06004 C 279.65466,791.79787 277.08726,796.20526 275.14855,800.68504 L 276.1173,800.96629 L 276.1798,800.99754 C 278.3308,801.27017 281.2256,803.23228 282.9923,802.81004 C 283.10192,802.78194 283.23565,802.73288 283.33605,802.68504 C 283.94217,802.38213 284.38117,801.67565 284.52355,800.37254 C 286.41862,796.5747 289.08284,793.16799 292.39855,790.56004 C 290.51476,787.72734 288.52445,784.78626 286.4298,784.87254 C 286.37747,784.8747 286.32601,784.86647 286.27355,784.87254 z M 352.1173,804.81004 C 349.90909,806.13099 345.22727,805.98976 344.27355,807.99754 C 344.01778,808.59212 344.05393,809.41397 344.58605,810.46629 C 345.32422,814.61309 345.02707,818.96398 343.8673,822.99754 C 346.58605,823.76836 349.3048,824.53921 352.02355,825.31004 C 353.64422,818.62376 353.53683,811.57116 352.1173,804.81004 z M 274.4923,805.15379 C 274.34928,805.18253 274.20543,805.25371 274.08605,805.31004 C 274.0062,805.35013 273.90521,805.40843 273.83605,805.46629 C 273.81976,805.4824 273.78446,805.51811 273.77355,805.52879 C 273.70229,805.60235 273.61129,805.71192 273.5548,805.81004 C 273.32953,806.22284 273.22969,806.86657 273.3048,807.77879 C 272.9184,810.55255 272.60658,813.42771 272.71105,816.27879 C 272.71619,816.419 272.73517,816.54488 272.7423,816.68504 C 273.31079,819.16002 272.49325,824.38438 274.71105,824.99754 C 274.7559,825.00905 274.81996,825.02104 274.8673,825.02879 C 276.75403,824.08531 280.30525,824.1975 281.52355,822.90379 C 281.52692,822.90009 281.54931,822.87791 281.5548,822.87254 C 281.56097,822.8666 281.58064,822.8467 281.58605,822.84129 C 281.62998,822.78754 281.7022,822.68586 281.7423,822.62254 C 281.78708,822.54312 281.83741,822.43025 281.8673,822.34129 C 282.03627,821.80096 281.92103,821.08155 281.39855,820.12254 C 280.58603,815.94393 280.8591,811.56924 282.02355,807.49754 C 279.97675,807.45109 276.47968,804.96068 274.58605,805.15379 C 274.55267,805.1572 274.5253,805.14716 274.4923,805.15379 z M 343.33605,826.62254 C 343.31726,826.62634 343.29223,826.64909 343.27355,826.65379 C 343.18052,826.67919 343.07699,826.71586 342.9923,826.74754 C 342.88229,826.79125 342.74721,826.86568 342.64855,826.93504 C 342.6042,826.96767 342.53413,827.02169 342.4923,827.06004 C 342.11224,827.4236 341.83236,828.04777 341.71105,828.99754 C 339.92734,832.90059 337.18737,836.34678 333.8673,838.99754 L 334.46105,839.81004 L 334.6798,840.09129 C 336.16931,841.4715 337.52232,845.07317 339.08605,845.40379 C 339.10203,845.40404 339.13859,845.40368 339.14855,845.40379 C 339.17637,845.40298 339.21772,845.40379 339.2423,845.40379 C 339.28031,845.40551 339.3554,845.40575 339.39855,845.40379 C 339.44463,845.3991 339.53406,845.38401 339.58605,845.37254 C 339.63269,845.35952 339.72135,845.33057 339.77355,845.31004 C 339.83653,845.28097 339.92848,845.22645 339.9923,845.18504 C 340.34857,844.94424 340.73053,844.50007 341.1173,843.81004 C 345.26033,839.686 348.57449,834.57416 350.83605,829.12254 C 348.64241,828.95968 345.42152,826.39912 343.4298,826.62254 C 343.40156,826.62571 343.36424,826.61683 343.33605,826.62254 z M 283.52355,827.15379 C 281.93108,828.12351 277.08624,828.43291 275.96105,829.81004 C 275.94375,829.83433 275.9189,829.87562 275.89855,829.90379 C 275.89568,829.90661 275.87082,829.93172 275.8673,829.93504 C 275.85127,829.9651 275.82181,830.0203 275.8048,830.06004 C 275.79283,830.08935 275.78081,830.1315 275.77355,830.15379 C 275.76926,830.16584 275.74858,830.19805 275.7423,830.21629 C 275.73987,830.22402 275.74323,830.24316 275.7423,830.24754 C 275.74213,830.26886 275.74162,830.31972 275.7423,830.34129 C 275.74228,830.34612 275.7426,830.3685 275.7423,830.37254 C 275.74195,830.39648 275.74169,830.44753 275.7423,830.46629 C 275.74215,830.49043 275.74302,830.53201 275.7423,830.56004 C 275.74244,830.5701 275.74206,830.60657 275.7423,830.62254 C 275.74228,830.62387 275.74236,830.64659 275.7423,830.65379 C 275.74401,830.65499 275.77188,830.68379 275.77355,830.68504 C 275.78305,830.7152 275.79769,830.78296 275.8048,830.81004 C 275.82234,830.85633 275.8436,830.91824 275.8673,830.96629 C 278.70264,836.89458 282.49596,842.09588 287.46105,846.37254 C 288.54679,844.0052 292.87736,841.36014 292.08605,839.18504 C 292.06139,839.12091 292.02619,839.0296 291.9923,838.96629 C 291.94195,838.87602 291.8752,838.77354 291.8048,838.68504 C 291.5278,838.34904 291.07426,838.02412 290.46105,837.71629 C 287.34141,834.81173 284.99413,831.15272 283.5548,827.15379 C 283.55244,827.15283 283.52612,827.15403 283.52355,827.15379 z M 296.3048,842.12254 C 295.759,843.81527 291.86242,846.94314 291.71105,848.71629 C 291.71058,848.74848 291.71055,848.81643 291.71105,848.84129 C 291.71072,848.85742 291.71096,848.88781 291.71105,848.90379 C 291.71113,848.90558 291.71111,848.92805 291.71105,848.93504 C 291.71102,848.93772 291.71072,848.96432 291.71105,848.96629 C 291.71445,848.9692 291.73934,848.99476 291.7423,848.99754 C 291.74231,849.00043 291.74239,849.02515 291.7423,849.02879 C 291.74385,849.03507 291.74029,849.05366 291.7423,849.06004 C 291.74468,849.0665 291.77089,849.08477 291.77355,849.09129 C 291.78494,849.11753 291.79406,849.15888 291.8048,849.18504 C 291.81281,849.20131 291.83061,849.23669 291.83605,849.24754 C 291.84569,849.26783 291.8567,849.31902 291.8673,849.34129 C 291.87004,849.34648 291.8957,849.36794 291.89855,849.37254 C 291.90208,849.37211 291.92692,849.37262 291.9298,849.37254 C 291.93265,849.3763 291.95829,849.39954 291.96105,849.40379 C 291.97173,849.42182 291.98277,849.4535 291.9923,849.46629 C 291.99873,849.47229 292.01689,849.49161 292.02355,849.49754 C 292.11324,849.57344 292.23589,849.6557 292.3673,849.71629 C 297.94411,852.79797 304.34082,854.84261 310.77355,855.31004 C 310.3037,853.07616 311.81106,849.16819 310.8673,847.40379 C 310.80292,847.28837 310.70475,847.15545 310.6173,847.06004 C 310.59493,847.03662 310.54748,846.98835 310.52355,846.96629 C 310.48279,846.93027 310.41257,846.8734 310.3673,846.84129 C 309.89609,846.52196 309.17059,846.40808 308.1173,846.59129 C 303.88516,846.04456 299.84512,844.46646 296.3048,842.12254 z M 329.6173,842.12254 C 329.09469,842.21565 328.49074,842.60518 327.83605,843.31004 C 324.10439,845.30708 319.93747,846.55701 315.6798,846.68504 C 315.67069,848.1643 315.69944,849.64337 315.71105,851.12254 C 315.40876,852.12638 315.30258,852.88449 315.3673,853.46629 C 315.40236,853.78142 315.49431,854.06631 315.6173,854.27879 C 315.63185,854.30288 315.66419,854.34969 315.6798,854.37254 C 315.68312,854.37631 315.70723,854.39998 315.71105,854.40379 C 315.72405,854.41547 315.76184,854.45411 315.77355,854.46629 C 315.78948,854.48862 315.82131,854.54044 315.83605,854.56004 C 315.85267,854.57653 315.88118,854.60693 315.89855,854.62254 C 317.00703,855.57141 319.56487,854.84498 321.77355,854.27879 C 326.55351,853.23672 331.008,851.22845 335.21105,848.77879 C 333.5184,847.33052 332.40534,843.24884 330.6173,842.31004 C 330.42419,842.21285 330.20533,842.14463 329.9923,842.12254 C 329.90486,842.11525 329.80083,842.11277 329.71105,842.12254 C 329.67685,842.12626 329.65214,842.11633 329.6173,842.12254 z "
     style="fill:#000000;fill-opacity:1;fill-rule:evenodd;stroke:#000000;stroke-width:1.25;stroke-linecap:butt;stroke-linejoin:miter;stroke-miterlimit:4;stroke-dasharray:none;stroke-opacity:1"
     inkscape:export-filename="/home/raul/Documents/iglues/blender/proposta nou logo/pas03-variants.png"
     inkscape:export-xdpi="300"
     inkscape:export-ydpi="300" />
  <path
     style="fill:#000000;fill-opacity:1;fill-rule:evenodd;stroke:#000000;stroke-width:1.25;stroke-linecap:butt;stroke-linejoin:miter;stroke-miterlimit:4;stroke-dasharray:none;stroke-opacity:1"
     d="M 499.26523,770.17241 C 498.52848,770.25876 497.64188,770.57205 496.57773,771.07866 C 491.67202,772.12111 487.05039,774.16157 482.76523,776.64116 L 483.39023,777.42241 L 483.42148,777.48491 C 485.04185,779.00847 486.23529,782.61624 488.07773,783.07866 C 488.76388,783.23759 489.55697,782.96589 490.48398,781.98491 C 494.18136,779.94604 498.39548,778.87281 502.64023,778.67241 C 502.80219,775.46302 502.91119,772.14926 501.48398,770.79741 C 500.99554,770.3494 500.32014,770.09956 499.42148,770.17241 C 499.37379,770.17628 499.31435,770.16665 499.26523,770.17241 z M 507.14023,770.20366 L 507.17148,771.20366 L 507.17148,771.23491 C 507.43816,772.80263 506.94302,775.04128 507.04648,776.73491 C 507.09264,777.49052 507.27237,778.14309 507.67148,778.57866 C 507.67675,778.5842 507.69718,778.60435 507.70273,778.60991 C 507.78408,778.68784 507.8915,778.76808 507.98398,778.82866 C 508.46806,779.13255 509.19514,779.2437 510.23398,779.04741 C 514.43382,779.67759 518.44725,781.23955 521.95273,783.60991 C 525.34946,779.5377 528.44493,775.29051 521.57773,773.89116 C 517.01185,771.85382 512.09598,770.69782 507.14023,770.20366 z M 530.45273,779.26616 C 529.21757,781.64053 525.9778,784.33294 525.76523,786.54741 C 529.68552,789.73627 532.80724,794.01587 534.48398,798.82866 C 539.19434,797.46479 544.82262,796.25159 540.10898,791.17241 C 537.62132,786.62582 534.20531,782.74959 530.45273,779.26616 z M 478.10898,780.42241 C 477.04234,780.5458 475.94777,781.49905 474.82773,783.60991 C 471.49009,787.34774 468.92269,791.75513 466.98398,796.23491 L 467.95273,796.51616 L 468.01523,796.54741 C 470.16623,796.82004 473.06103,798.78215 474.82773,798.35991 C 474.93735,798.33181 475.07108,798.28275 475.17148,798.23491 C 475.7776,797.932 476.2166,797.22552 476.35898,795.92241 C 478.25405,792.12457 480.91827,788.71786 484.23398,786.10991 C 482.35019,783.27721 480.35988,780.33613 478.26523,780.42241 C 478.2129,780.42457 478.16144,780.41634 478.10898,780.42241 z M 543.95273,800.35991 C 541.74452,801.68086 537.0627,801.53963 536.10898,803.54741 C 535.85321,804.14199 535.88936,804.96384 536.42148,806.01616 C 537.15965,810.16296 536.8625,814.51385 535.70273,818.54741 C 538.42148,819.31823 541.14023,820.08908 543.85898,820.85991 C 545.47965,814.17363 545.37226,807.12103 543.95273,800.35991 z M 466.32773,800.70366 C 466.18471,800.7324 466.04086,800.80358 465.92148,800.85991 C 465.84163,800.9 465.74064,800.9583 465.67148,801.01616 C 465.65519,801.03227 465.61989,801.06798 465.60898,801.07866 C 465.53772,801.15222 465.44672,801.26179 465.39023,801.35991 C 465.16496,801.77271 465.06512,802.41644 465.14023,803.32866 C 464.75383,806.10242 464.44201,808.97758 464.54648,811.82866 C 464.55162,811.96887 464.5706,812.09475 464.57773,812.23491 C 465.14622,814.70989 464.32868,819.93425 466.54648,820.54741 C 466.59133,820.55892 466.65539,820.57091 466.70273,820.57866 C 468.58946,819.63518 472.14068,819.74737 473.35898,818.45366 C 473.36235,818.44996 473.38474,818.42778 473.39023,818.42241 C 473.3964,818.41647 473.41607,818.39657 473.42148,818.39116 C 473.46541,818.33741 473.53763,818.23573 473.57773,818.17241 C 473.62251,818.09299 473.67284,817.98012 473.70273,817.89116 C 473.8717,817.35083 473.75646,816.63142 473.23398,815.67241 C 472.42146,811.4938 472.69453,807.11911 473.85898,803.04741 C 471.81218,803.00096 468.31511,800.51055 466.42148,800.70366 C 466.3881,800.70707 466.36073,800.69703 466.32773,800.70366 z M 535.17148,822.17241 C 535.15269,822.17621 535.12766,822.19896 535.10898,822.20366 C 535.01595,822.22906 534.91242,822.26573 534.82773,822.29741 C 534.71772,822.34112 534.58264,822.41555 534.48398,822.48491 C 534.43963,822.51754 534.36956,822.57156 534.32773,822.60991 C 533.94767,822.97347 533.66779,823.59764 533.54648,824.54741 C 531.76277,828.45046 529.0228,831.89665 525.70273,834.54741 L 526.29648,835.35991 L 526.51523,835.64116 C 528.00474,837.02137 529.35775,840.62304 530.92148,840.95366 C 530.93746,840.95391 530.97402,840.95355 530.98398,840.95366 C 531.0118,840.95285 531.05315,840.95366 531.07773,840.95366 C 531.11574,840.95538 531.19083,840.95562 531.23398,840.95366 C 531.28006,840.94897 531.36949,840.93388 531.42148,840.92241 C 531.46812,840.90939 531.55678,840.88044 531.60898,840.85991 C 531.67196,840.83084 531.76391,840.77632 531.82773,840.73491 C 532.184,840.49411 532.56596,840.04994 532.95273,839.35991 C 537.09576,835.23587 540.40992,830.12403 542.67148,824.67241 C 540.47784,824.50955 537.25695,821.94899 535.26523,822.17241 C 535.23699,822.17558 535.19967,822.1667 535.17148,822.17241 z M 475.35898,822.70366 C 473.76651,823.67338 468.92167,823.98278 467.79648,825.35991 C 467.77918,825.3842 467.75433,825.42549 467.73398,825.45366 C 467.73111,825.45648 467.70625,825.48159 467.70273,825.48491 C 467.6867,825.51497 467.65724,825.57017 467.64023,825.60991 C 467.62826,825.63922 467.61624,825.68137 467.60898,825.70366 C 467.60469,825.71571 467.58401,825.74792 467.57773,825.76616 C 467.5753,825.77389 467.57866,825.79303 467.57773,825.79741 C 467.57756,825.81873 467.57705,825.86959 467.57773,825.89116 C 467.57771,825.89599 467.57803,825.91837 467.57773,825.92241 C 467.57738,825.94635 467.57712,825.9974 467.57773,826.01616 C 467.57758,826.0403 467.57845,826.08188 467.57773,826.10991 C 467.57787,826.11997 467.57749,826.15644 467.57773,826.17241 C 467.57771,826.17374 467.57779,826.19646 467.57773,826.20366 C 467.57944,826.20486 467.60731,826.23366 467.60898,826.23491 C 467.61848,826.26507 467.63312,826.33283 467.64023,826.35991 C 467.65777,826.4062 467.67903,826.46811 467.70273,826.51616 C 470.53807,832.44445 474.33139,837.64575 479.29648,841.92241 C 480.38222,839.55507 484.71279,836.91001 483.92148,834.73491 C 483.89682,834.67078 483.86162,834.57947 483.82773,834.51616 C 483.77738,834.42589 483.71063,834.32341 483.64023,834.23491 C 483.36323,833.89891 482.90969,833.57399 482.29648,833.26616 C 479.17684,830.3616 476.82956,826.70259 475.39023,822.70366 C 475.38787,822.7027 475.36155,822.7039 475.35898,822.70366 z M 488.14023,837.67241 C 487.59443,839.36514 483.69785,842.49301 483.54648,844.26616 C 483.54601,844.29835 483.54598,844.3663 483.54648,844.39116 C 483.54615,844.40729 483.54639,844.43768 483.54648,844.45366 C 483.54656,844.45545 483.54654,844.47792 483.54648,844.48491 C 483.54645,844.48759 483.54615,844.51419 483.54648,844.51616 C 483.54988,844.51907 483.57477,844.54463 483.57773,844.54741 C 483.57774,844.5503 483.57782,844.57502 483.57773,844.57866 C 483.57928,844.58494 483.57572,844.60353 483.57773,844.60991 C 483.58011,844.61637 483.60632,844.63464 483.60898,844.64116 C 483.62037,844.6674 483.62949,844.70875 483.64023,844.73491 C 483.64824,844.75118 483.66604,844.78656 483.67148,844.79741 C 483.68112,844.8177 483.69213,844.86889 483.70273,844.89116 C 483.70547,844.89635 483.73113,844.91781 483.73398,844.92241 C 483.73751,844.92198 483.76235,844.92249 483.76523,844.92241 C 483.76808,844.92617 483.79372,844.94941 483.79648,844.95366 C 483.80716,844.97169 483.8182,845.00337 483.82773,845.01616 C 483.83416,845.02216 483.85232,845.04148 483.85898,845.04741 C 483.94867,845.12331 484.07132,845.20557 484.20273,845.26616 C 489.77954,848.34785 496.17625,850.39245 502.60898,850.85995 C 502.13913,848.62605 503.64649,844.71806 502.70273,842.95366 C 502.63835,842.83824 502.54018,842.70532 502.45273,842.60991 C 502.43036,842.58649 502.38291,842.53822 502.35898,842.51616 C 502.31822,842.48014 502.248,842.42327 502.20273,842.39116 C 501.73152,842.07183 501.00602,841.95795 499.95273,842.14116 C 495.72059,841.59443 491.68055,840.01633 488.14023,837.67241 z M 521.45273,837.67241 C 520.93012,837.76552 520.32617,838.15505 519.67148,838.85991 C 515.93982,840.85695 511.7729,842.10688 507.51523,842.23491 C 507.50612,843.71417 507.53487,845.19324 507.54648,846.67245 C 507.24419,847.67625 507.13801,848.43435 507.20273,849.01615 C 507.23779,849.33125 507.32974,849.61615 507.45273,849.82865 C 507.46728,849.85275 507.49962,849.89955 507.51523,849.92245 C 507.51855,849.92615 507.54266,849.94985 507.54648,849.95365 C 507.55948,849.96535 507.59727,850.00395 507.60898,850.01615 C 507.62491,850.03845 507.65674,850.09035 507.67148,850.10995 C 507.6881,850.12635 507.71661,850.15675 507.73398,850.17245 C 508.84246,851.12125 511.4003,850.39485 513.60898,849.82865 C 518.38894,848.78655 522.84343,846.77835 527.04648,844.32866 C 525.35383,842.88039 524.24077,838.79871 522.45273,837.85991 C 522.25962,837.76272 522.04076,837.6945 521.82773,837.67241 C 521.74029,837.66512 521.63626,837.66264 521.54648,837.67241 C 521.51228,837.67613 521.48757,837.6662 521.45273,837.67241 z "
     id="path4941"
     sodipodi:nodetypes="cccccccccsccccssssccccccccccccccssccsccccccccsssscscscsssssccsccssssccccsssssssccsccsssssssssssssssscssscsccsssssssssssssssssccssssccccccsssssssccsssc"
     inkscape:export-filename="/home/raul/Documents/iglues/blender/proposta nou logo/pas03-variants.png"
     inkscape:export-xdpi="300"
     inkscape:export-ydpi="300" />
  <path
     sodipodi:nodetypes="cczcscss"
     id="path1343"
     d="M 339.49616,334.38172 C 334.49861,333.57736 327.36715,333.90293 322.73833,335.64964 C 322.73833,335.64964 324.86597,335.68838 325.34758,336.87538 C 325.8231,338.04734 326.69051,341.2942 328.31139,342.28471 C 328.919,342.64092 329.92266,342.81439 331.20994,342.44997 C 335.23692,341.31002 338.80996,342.0384 342.92151,343.11219 C 340.94815,341.38643 343.25872,338.32952 342.58617,336.50019 C 342.2406,335.56025 340.64188,334.56613 339.49616,334.38172 z "
     style="fill:#000000;fill-opacity:1;fill-rule:evenodd;stroke:none;stroke-width:1.25;stroke-linecap:butt;stroke-linejoin:miter;stroke-miterlimit:4;stroke-dasharray:none;stroke-opacity:1" />
  <use
     x="0"
     y="0"
     xlink:href="#path1343"
     id="use3096"
     transform="matrix(-0.999969,-7.908543e-3,7.908543e-3,-0.999969,665.6072,752.7857)"
     width="744.09448"
     height="1052.3622" />
  <use
     x="0"
     y="0"
     xlink:href="#path1343"
     id="use3100"
     transform="matrix(0.86917,-0.494512,0.494512,0.86917,-141.7429,214.3835)"
     width="744.09448"
     height="1052.3622" />
  <use
     x="0"
     y="0"
     xlink:href="#path1343"
     id="use3104"
     transform="matrix(0.501453,-0.865185,0.865185,0.501453,-157.8655,476.1978)"
     width="744.09448"
     height="1052.3622" />
  <use
     x="0"
     y="0"
     xlink:href="#path1343"
     id="use3106"
     transform="matrix(-5.06251e-3,0.999987,-0.999987,-5.06251e-3,711.0589,42.68991)"
     width="744.09448"
     height="1052.3622" />
  <use
     x="0"
     y="0"
     xlink:href="#path1343"
     id="use3108"
     transform="matrix(5.06251e-3,-0.999987,0.999987,5.06251e-3,-42.46931,707.4635)"
     width="744.09448"
     height="1052.3622" />
  <use
     height="1052.3622"
     width="744.09448"
     transform="matrix(-0.498435,-0.866927,0.866927,-0.498435,175.372,851.7117)"
     id="use3118"
     xlink:href="#path1343"
     y="0"
     x="0" />
  <use
     x="0"
     y="0"
     xlink:href="#path1343"
     id="use3122"
     transform="matrix(-0.867312,-0.497766,0.497766,-0.867312,437.0689,866.7962)"
     width="744.09448"
     height="1052.3622" />
  <use
     height="1052.3622"
     width="744.09448"
     transform="matrix(-0.50428,0.86354,-0.86354,-0.50428,826.7612,275.5475)"
     id="use3126"
     xlink:href="#path1343"
     y="0"
     x="0" />
  <use
     height="1052.3622"
     width="744.09448"
     transform="matrix(0.862371,0.506277,-0.506277,0.862371,235.8196,-117.5866)"
     id="use3132"
     xlink:href="#path1343"
     y="0"
     x="0" />
  <use
     x="0"
     y="0"
     xlink:href="#path1343"
     id="use3136"
     transform="matrix(0.495341,0.8687,-0.8687,0.495341,494.4411,-101.0661)"
     width="744.09448"
     height="1052.3622" />
  <use
     x="0"
     y="0"
     xlink:href="#path1343"
     id="use3140"
     transform="matrix(-0.869332,0.494229,-0.494229,-0.869332,810.3165,535.9686)"
     width="744.09448"
     height="1052.3622" />
  <path
     style="fill:#000000;fill-opacity:1;fill-rule:evenodd;stroke:none;stroke-width:1.25;stroke-linecap:butt;stroke-linejoin:miter;stroke-miterlimit:4;stroke-dasharray:none;stroke-opacity:1"
     d="M 490.90519,905.63287 C 487.30734,905.70706 483.59209,906.27474 480.78019,907.32037 C 481.19402,907.344 482.89003,907.50049 483.31144,908.53912 C 483.78695,909.71109 484.65931,912.95486 486.28019,913.94537 C 486.8878,914.30156 487.89916,914.49729 489.18644,914.13287 C 493.21341,912.99294 496.76239,913.71533 500.87394,914.78912 C 498.90059,913.06337 501.23399,909.99345 500.56144,908.16412 C 500.21586,907.22419 498.61341,906.25478 497.46769,906.07037 L 497.46769,906.03912 C 495.51553,905.72492 493.23221,905.58489 490.90519,905.63287 z M 502.18644,906.94537 C 502.36531,907.05936 503.67982,907.93909 503.81144,908.97662 C 503.82262,909.08262 503.82739,909.21145 503.81144,909.32037 C 503.62819,910.57177 502.72762,913.80182 503.62394,915.47662 C 503.6669,915.55347 503.72351,915.64914 503.78019,915.72662 C 504.18184,916.25917 504.91763,916.81162 506.03019,917.10162 C 510.05895,918.15183 512.79674,920.55314 515.78019,923.53912 C 515.02589,921.08699 518.49923,919.6297 518.84269,917.72662 C 519.02054,916.7411 518.14361,915.05946 517.24894,914.32037 C 513.35406,911.10286 507.05859,907.79059 502.18644,906.94537 z M 477.65519,908.57037 C 477.29019,908.60885 476.94393,908.71245 476.65519,908.82037 C 471.91368,910.59261 465.87715,914.38818 462.71769,918.19537 C 462.71768,918.19539 464.18452,917.39793 465.21769,917.75787 C 465.27214,917.77807 465.3535,917.82452 465.40519,917.85162 C 465.4649,917.88464 465.5377,917.93322 465.59269,917.97662 C 466.58554,918.76011 468.94406,921.13599 470.84269,921.19537 C 471.54694,921.20449 472.49779,920.86744 473.43644,919.91412 C 476.35848,916.94652 479.79565,915.79026 483.87394,914.69537 C 481.37264,914.1249 481.8515,910.38046 480.37394,909.13287 C 479.81201,908.6584 478.66432,908.46398 477.65519,908.57037 z M 520.68644,917.25787 C 520.7838,917.4441 521.47185,918.82519 521.09269,919.78912 C 521.07403,919.8338 521.05374,919.9027 521.03019,919.94537 C 521.00071,919.99605 520.94234,920.05445 520.90519,920.10162 C 520.12267,921.09521 517.74401,923.45292 517.68644,925.35162 C 517.67796,926.05591 518.01347,927.00762 518.96769,927.94537 C 521.94572,930.87206 523.11629,934.32313 524.21769,938.41412 C 524.78579,935.91229 528.53401,936.36162 529.78019,934.88287 C 530.42554,934.11707 530.50002,932.25076 530.09269,931.16412 C 528.31827,926.43047 524.4917,920.41708 520.68644,917.25787 z M 462.46769,920.19537 C 461.49773,920.32803 460.23184,921.07606 459.62394,921.82037 C 456.42198,925.74086 453.1526,932.0647 452.34269,936.94537 C 452.45149,936.77251 453.26427,935.53302 454.24894,935.32037 C 454.38197,935.29437 454.54799,935.30423 454.68644,935.32037 C 455.93886,935.49662 459.20417,936.35104 460.87394,935.44537 C 461.48681,935.0983 462.13747,934.3356 462.46769,933.03912 C 463.49538,929.00455 465.8734,926.25795 468.84269,923.25787 C 466.39477,924.02589 464.93515,920.52819 463.03019,920.19537 C 462.86064,920.16575 462.669,920.16784 462.46769,920.19537 z M 531.74894,935.47662 C 531.72435,935.87184 531.54517,937.44475 530.62394,937.94537 C 530.58896,937.96334 530.53611,937.99301 530.49894,938.00787 C 529.3246,938.47747 526.09139,939.32952 525.09269,940.94537 C 524.73341,941.55118 524.54729,942.53127 524.90519,943.82037 C 526.02474,947.85304 525.28103,951.43306 524.18644,955.53912 C 525.92216,953.57449 528.94748,955.8899 530.78019,955.22662 C 531.72189,954.8858 532.74623,953.30889 532.93644,952.16412 C 533.7616,947.19782 533.44739,940.11585 531.74894,935.47662 z M 460.34269,937.94537 C 458.60696,939.90995 455.5504,937.59459 453.71769,938.25787 C 452.77602,938.5987 451.7829,940.20685 451.59269,941.35162 C 450.76455,946.33602 451.06521,953.43216 452.78019,958.07037 C 452.789,957.85844 452.88636,956.2987 453.71769,955.66412 C 453.74116,955.64697 453.7868,955.61726 453.81144,955.60162 C 453.85316,955.57643 453.92261,955.52843 453.96769,955.50787 C 453.97684,955.50395 453.98965,955.51159 453.99894,955.50787 C 455.17328,955.03829 458.43774,954.18622 459.43644,952.57037 C 459.79571,951.96458 459.98184,950.95322 459.62394,949.66412 C 458.50438,945.6314 459.2481,942.05143 460.34269,937.94537 z M 459.87394,955.07037 C 459.36144,957.64132 455.56211,957.16927 454.31144,958.66412 C 453.66881,959.43221 453.58774,961.32895 453.99894,962.41412 C 455.7818,967.11911 459.60661,973.06904 463.40519,976.22662 C 463.24595,975.90902 462.71436,974.70564 462.99894,973.82037 C 463.03352,973.71964 463.0969,973.59896 463.15519,973.50787 C 463.17172,973.48331 463.1992,973.43777 463.21769,973.41412 C 463.99666,972.4177 466.38565,970.06301 466.43644,968.16412 C 466.44239,967.45981 466.08149,966.5047 465.12394,965.57037 C 462.12851,962.64746 460.99239,959.17 459.87394,955.07037 z M 532.12394,956.66412 C 532.00828,956.84657 531.09314,958.19753 530.03019,958.28912 C 529.94297,958.29473 529.83809,958.30197 529.74894,958.28912 C 528.49713,958.10876 525.26541,957.23267 523.59269,958.13287 C 522.97871,958.47796 522.30215,959.24373 521.96769,960.53912 C 520.92682,964.57035 518.54052,967.29877 515.56144,970.28912 C 518.01179,969.52913 519.47007,973.01257 521.37394,973.35162 C 522.3599,973.52719 524.04318,972.65425 524.78019,971.75787 C 527.99494,967.84789 531.29807,961.54213 532.12394,956.66412 z M 468.40519,970.19537 C 469.25767,972.67438 465.73246,974.18025 465.40519,976.10162 C 465.23703,977.08886 466.12828,978.74637 467.03019,979.47662 C 470.95654,982.65564 477.27496,985.89813 482.15519,986.69537 C 481.96686,986.57793 480.56027,985.64013 480.53019,984.53912 C 480.52991,984.4805 480.52207,984.41111 480.53019,984.35162 C 480.70115,983.09848 481.56796,979.83002 480.65519,978.16412 C 480.59275,978.05885 480.49377,977.92574 480.40519,977.82037 C 479.98328,977.33263 479.25193,976.86037 478.21769,976.60162 C 474.15762,975.58583 471.43669,973.17327 468.40519,970.19537 z M 513.34269,972.35162 C 512.68712,972.44244 511.88495,972.82877 511.09269,973.63287 C 508.16971,976.59952 504.73384,977.75806 500.65519,978.85162 C 503.15635,979.4229 502.67805,983.16605 504.15519,984.41412 C 504.92015,985.06047 506.78679,985.13255 507.87394,984.72662 C 512.5875,982.96657 518.573,979.19736 521.74894,975.41412 C 521.41066,975.58166 520.08178,976.14742 519.18644,975.72662 C 519.15165,975.70934 519.09483,975.68464 519.06144,975.66412 C 519.02842,975.64276 518.96786,975.59518 518.93644,975.57037 C 517.94381,974.78656 515.58506,972.41162 513.68644,972.35162 C 513.5764,972.35016 513.46409,972.3348 513.34269,972.35162 z M 483.37394,978.63287 C 485.33358,980.37416 482.99713,983.42328 483.65519,985.25787 C 483.99332,986.2005 485.57347,987.22065 486.71769,987.41412 C 491.70091,988.25666 498.82469,987.96074 503.46769,986.25787 C 503.23224,986.24738 501.34788,986.12422 500.90519,985.00787 C 500.43895,983.83221 499.58068,980.60491 497.96769,979.60162 C 497.36293,979.2406 496.38281,979.05989 495.09269,979.41412 C 491.05683,980.52217 487.47687,979.73914 483.37394,978.63287 z "
     id="path4912"
     inkscape:export-filename="/home/raul/Documents/iglues/blender/proposta nou logo/pas04-variants.png"
     inkscape:export-xdpi="300"
     inkscape:export-ydpi="300" />
  <path
     id="path4959"
     d="M 304.45027,898.88751 C 300.92321,898.17345 297.17372,897.91529 294.20126,898.32099 C 294.59991,898.4345 296.2207,898.95794 296.40489,900.06357 C 296.61272,901.31114 296.75493,904.66715 298.1201,905.98801 C 298.63515,906.46841 299.57927,906.88047 300.91508,906.80625 C 305.09384,906.57414 308.39909,908.05483 312.17649,910.00139 C 310.62809,907.88602 313.57612,905.4004 313.3197,903.4683 C 313.18794,902.47556 311.83614,901.17931 310.75844,900.74892 L 310.76527,900.71843 C 308.929,899.9851 306.73151,899.34935 304.45027,898.88751 z M 290.87859,898.85767 C 290.51401,898.81543 290.15348,898.84084 289.84813,898.88303 C 284.83389,899.57597 278.11367,901.96023 274.19841,904.98473 C 274.19839,904.98475 275.80408,904.52721 276.73358,905.10428 C 276.7823,905.1359 276.85154,905.19901 276.89605,905.23675 C 276.9471,905.28202 277.00752,905.34534 277.0517,905.39971 C 277.84927,906.38128 279.63142,909.21525 281.47115,909.68822 C 282.15638,909.85106 283.15791,909.73 284.28224,909.00492 C 287.78231,906.74781 291.3891,906.37084 295.6081,906.1939 C 293.29198,905.09046 294.57776,901.54125 293.40864,900.00085 C 292.96401,899.41502 291.88657,898.97443 290.87859,898.85767 z "
     style="fill:#000000;fill-opacity:1;fill-rule:evenodd;stroke:none;stroke-width:1.25;stroke-linecap:butt;stroke-linejoin:miter;stroke-miterlimit:4;stroke-dasharray:none;stroke-opacity:1"
     sodipodi:nodetypes="ccscscsccccssssscscsc"
     inkscape:export-filename="/home/raul/Documents/iglues/blender/proposta nou logo/pas04-variants.png"
     inkscape:export-xdpi="300"
     inkscape:export-ydpi="300" />
  <path
     sodipodi:nodetypes="cssssscssccssscscssccscsscscsccsscscssccsscsssscsccsscssscsccsscscssccsscsssssccscsscssssccsscscsc"
     style="fill:#000000;fill-opacity:1;fill-rule:evenodd;stroke:none;stroke-width:1.25;stroke-linecap:butt;stroke-linejoin:miter;stroke-miterlimit:4;stroke-dasharray:none;stroke-opacity:1"
     d="M 318.33144,914.29341 C 318.46809,914.45563 319.45978,915.68783 319.27544,916.71733 C 319.25443,916.82183 319.22051,916.94623 319.17274,917.04543 C 318.62403,918.18493 316.79966,920.99843 317.15473,922.86453 C 317.17278,922.95073 317.19822,923.05893 317.22916,923.14983 C 317.45339,923.77803 317.99054,924.52503 318.96567,925.13413 C 322.49673,927.33993 324.39215,930.44943 326.34736,934.19033 C 326.36004,931.62483 330.11011,931.27173 331.00641,929.55813 C 331.47053,928.67073 331.13601,926.80393 330.50299,925.83133 C 327.74713,921.59723 322.72861,916.55553 318.33144,914.29341 z M 332.90599,929.66153 C 332.94327,929.86843 333.18732,931.39193 332.53752,932.19863 C 332.50637,932.23563 332.46642,932.29533 332.43119,932.32903 C 332.38792,932.36863 332.31477,932.40693 332.26523,932.44083 C 331.22163,933.15523 328.24726,934.69473 327.62511,936.48953 C 327.40662,937.15913 327.44251,938.16763 328.07302,939.34763 C 330.04076,943.03023 330.12693,946.67343 329.95592,950.90663 C 331.24547,948.68873 334.68831,950.23733 336.31933,949.19833 C 337.16399,948.66033 337.79258,946.90143 337.72847,945.74273 C 337.44917,940.69523 335.59372,933.81323 332.90599,929.66153 z M 276.46817,915.07313 C 275.50286,914.90993 274.07132,915.24563 273.26883,915.77433 C 269.0419,918.55933 264.03267,923.61773 261.80174,928.03353 C 261.9572,927.90113 263.10315,926.96103 264.10638,927.05223 C 264.24109,927.06713 264.39659,927.12613 264.52391,927.18293 C 265.66648,927.72523 268.52743,929.51613 270.39152,929.15063 C 271.08009,929.00253 271.92888,928.46903 272.63132,927.33033 C 274.81734,923.78703 277.90727,921.87623 281.6372,919.90013 C 279.07162,919.90183 278.72353,916.12783 277.00498,915.24113 C 276.85203,915.16223 276.6685,915.10693 276.46817,915.07313 z M 338.0208,950.35313 C 337.87927,950.72293 337.2384,952.17053 336.20967,952.37303 C 336.17092,952.37973 336.11162,952.39233 336.07171,952.39533 C 334.81071,952.49273 331.4706,952.34003 330.03481,953.58373 C 329.51095,954.05453 329.04056,954.93423 328.99701,956.27143 C 328.86075,960.45443 327.08153,963.64873 324.81031,967.24033 C 327.05367,965.88393 329.24916,968.99733 331.19632,968.91183 C 332.19684,968.86793 333.64547,967.66903 334.16898,966.63333 C 336.44005,962.14033 338.2558,955.28793 338.0208,950.35313 z M 269.1377,931.37773 C 266.89434,932.73413 264.66902,929.61143 262.72186,929.69693 C 261.72137,929.74083 260.29319,930.97893 259.7697,932.01453 C 257.49036,936.52393 255.65744,943.38593 255.90852,948.32463 C 255.98025,948.12503 256.5391,946.66553 257.52204,946.30833 C 257.54956,946.29893 257.60199,946.28423 257.63019,946.27663 C 257.67752,946.26513 257.75814,946.24003 257.80731,946.23393 C 257.81721,946.23283 257.82715,946.24403 257.83713,946.24323 C 259.09812,946.14593 262.46805,946.30793 263.90387,945.06423 C 264.4277,944.59343 264.90745,943.68383 264.951,942.34673 C 265.08726,938.16363 266.86648,934.96933 269.1377,931.37773 z M 263.57455,947.58073 C 262.31743,949.88123 258.83261,948.29573 257.19248,949.34873 C 256.34974,949.88973 255.70577,951.67563 255.774,952.83413 C 256.06992,957.85683 257.94263,964.67773 260.62449,968.82583 C 260.5674,968.47513 260.41957,967.16793 260.95562,966.40813 C 261.01871,966.32233 261.11525,966.22603 261.19809,966.15653 C 261.22119,966.13803 261.26102,966.10283 261.28574,966.08573 C 262.3268,965.36753 265.31012,963.83403 265.92586,962.03703 C 266.14193,961.36663 266.08284,960.34733 265.44813,959.16963 C 263.46265,955.48533 263.41724,951.82733 263.57455,947.58073 z M 332.04927,970.68513 C 331.8844,970.82473 330.60748,971.84063 329.5657,971.61053 C 329.48078,971.58983 329.37854,971.56533 329.29729,971.52643 C 328.15653,970.98043 325.3341,969.17883 323.46883,969.53823 C 322.7798,969.68423 321.90537,970.21293 321.19921,971.34923 C 319.00161,974.88543 315.90921,976.77633 312.17284,978.74023 C 314.73834,978.74693 315.08941,982.50693 316.80506,983.39923 C 317.69355,983.86133 319.56073,983.53113 320.53188,982.89583 C 324.76787,980.12473 329.80391,975.09373 332.04927,970.68513 z M 267.19791,964.56363 C 267.2709,967.18413 263.45681,967.56813 262.5705,969.30403 C 262.11511,970.19593 262.47051,972.04403 263.11308,973.01033 C 265.91046,977.21713 270.97173,982.19903 275.39096,984.41783 C 275.2463,984.24943 274.18409,982.93433 274.4843,981.87453 C 274.50155,981.81853 274.51478,981.74993 274.54031,981.69563 C 275.07781,980.55073 276.88144,977.69053 276.508,975.82803 C 276.47987,975.70893 276.42517,975.55233 276.37211,975.42523 C 276.11517,974.83373 275.5583,974.16463 274.64858,973.60873 C 271.07735,971.42643 269.20138,968.31123 267.19791,964.56363 z M 309.43928,980.04573 C 308.78651,979.93653 307.90556,980.06563 306.90926,980.59633 C 303.23352,982.55433 299.60844,982.63353 295.38936,982.45873 C 297.60566,983.75113 296.03099,987.18043 297.06784,988.81283 C 297.60478,989.65823 299.36466,990.28463 300.52343,990.22193 C 305.54755,989.95043 312.38571,988.14133 316.54681,985.47963 C 316.17392,985.53843 314.73671,985.68143 314.00796,985.01233 C 313.97993,984.98543 313.93307,984.94493 313.90734,984.91533 C 313.88221,984.88513 313.83862,984.82163 313.81606,984.78853 C 313.1029,983.74403 311.56133,980.77283 309.76733,980.14843 C 309.66275,980.11413 309.56016,980.06593 309.43928,980.04573 z M 278.96258,977.08753 C 280.31255,979.33473 277.17193,981.54663 277.25188,983.49403 C 277.29298,984.49463 278.49622,985.94023 279.53039,986.46673 C 284.03437,988.75943 290.92126,990.60513 295.86095,990.36703 C 295.63938,990.28663 293.87787,989.60623 293.78887,988.40853 C 293.69513,987.14733 293.84015,983.81103 292.60054,982.37163 C 292.13124,981.84643 291.24986,981.38123 289.91283,981.33383 C 285.73025,981.18573 282.54768,979.36893 278.96258,977.08753 z "
     id="path4961"
     inkscape:export-filename="/home/raul/Documents/iglues/blender/proposta nou logo/pas04-variants.png"
     inkscape:export-xdpi="300"
     inkscape:export-ydpi="300" />
  <path
     style="fill:#000000;fill-opacity:1;fill-rule:evenodd;stroke:#000000;stroke-width:1.25;stroke-linecap:butt;stroke-linejoin:miter;stroke-miterlimit:4;stroke-dasharray:none;stroke-opacity:1"
     d="M 296.49778,944.29253 C 293.90751,944.61853 291.90404,946.86443 291.90403,949.54253 C 291.90403,952.44453 294.25204,954.79253 297.15403,954.79253 C 300.05601,954.79253 302.40402,952.44453 302.40403,949.54253 C 302.40403,946.64053 300.05601,944.29253 297.15403,944.29253 C 296.97266,944.29253 296.79944,944.27453 296.62278,944.29253 C 296.58138,944.29673 296.5389,944.28733 296.49778,944.29253 z "
     id="path4963"
     sodipodi:nodetypes="csssssc"
     inkscape:export-filename="/home/raul/Documents/iglues/blender/proposta nou logo/pas04-variants.png"
     inkscape:export-xdpi="300"
     inkscape:export-ydpi="300" />
  <path
     sodipodi:nodetypes="ccscscsccccssssscscsc"
     style="fill:#000000;fill-opacity:1;fill-rule:evenodd;stroke:none;stroke-width:1.25;stroke-linecap:butt;stroke-linejoin:miter;stroke-miterlimit:4;stroke-dasharray:none;stroke-opacity:1"
     d="M 207.38896,900.44574 C 203.8619,899.73168 200.11241,899.47352 197.13995,899.87922 C 197.5386,899.99273 199.15939,900.51617 199.34358,901.6218 C 199.55141,902.86937 199.69362,906.22538 201.05879,907.54624 C 201.57384,908.02664 202.51796,908.4387 203.85377,908.36448 C 208.03253,908.13237 211.33778,909.61306 215.11518,911.55962 C 213.56678,909.44425 216.51481,906.95863 216.25839,905.02653 C 216.12663,904.03379 214.77483,902.73754 213.69713,902.30715 L 213.70396,902.27666 C 211.86769,901.54333 209.6702,900.90758 207.38896,900.44574 z M 193.81728,900.4159 C 193.4527,900.37366 193.09217,900.39907 192.78682,900.44126 C 187.77258,901.1342 181.05236,903.51846 177.1371,906.54296 C 177.13708,906.54298 178.74277,906.08544 179.67227,906.66251 C 179.72099,906.69413 179.79023,906.75724 179.83474,906.79498 C 179.88579,906.84025 179.94621,906.90357 179.99039,906.95794 C 180.78796,907.93951 182.57011,910.77348 184.40984,911.24645 C 185.09507,911.40929 186.0966,911.28823 187.22093,910.56315 C 190.721,908.30604 194.32779,907.92907 198.54679,907.75213 C 196.23067,906.64869 197.51645,903.09948 196.34733,901.55908 C 195.9027,900.97325 194.82526,900.53266 193.81728,900.4159 z "
     id="path4965"
     inkscape:export-filename="/home/raul/Documents/iglues/blender/proposta nou logo/pas04.png"
     inkscape:export-xdpi="300"
     inkscape:export-ydpi="300" />
  <path
     id="path4967"
     d="M 419.07758,910.92288 C 419.21423,911.0851 420.20592,912.31734 420.02158,913.34681 C 420.00057,913.45132 419.96665,913.57569 419.91888,913.67487 C 419.37017,914.81439 417.5458,917.62793 417.90087,919.49403 C 417.91892,919.58013 417.94436,919.68843 417.9753,919.77923 C 418.19953,920.40743 418.73668,921.15453 419.71181,921.76363 C 423.24287,923.96943 425.13829,927.07893 427.0935,930.81983 C 427.10618,928.25433 430.85625,927.90113 431.75255,926.18763 C 432.21667,925.30023 431.88215,923.43343 431.24913,922.46083 C 428.49327,918.22663 423.47475,913.18498 419.07758,910.92288 z M 433.65213,926.29103 C 433.68941,926.49783 433.93346,928.02143 433.28366,928.82803 C 433.25251,928.86513 433.21256,928.92483 433.17733,928.95853 C 433.13406,928.99803 433.06091,929.03633 433.01137,929.07023 C 431.96777,929.78473 428.9934,931.32423 428.37125,933.11903 C 428.15276,933.78863 428.18865,934.79713 428.81916,935.97703 C 430.7869,939.65973 430.87307,943.30293 430.70206,947.53613 C 431.99161,945.31823 435.43445,946.86673 437.06547,945.82783 C 437.91013,945.28973 438.53872,943.53093 438.47461,942.37223 C 438.19531,937.32463 436.33986,930.44273 433.65213,926.29103 z M 377.21431,911.70256 C 376.249,911.5394 374.81746,911.87511 374.01497,912.40384 C 369.78804,915.18873 364.77881,920.24713 362.54788,924.66303 C 362.70334,924.53053 363.84929,923.59053 364.85252,923.68173 C 364.98723,923.69663 365.14273,923.75563 365.27005,923.81243 C 366.41262,924.35473 369.27357,926.14563 371.13766,925.78013 C 371.82623,925.63193 372.67502,925.09843 373.37746,923.95983 C 375.56348,920.41653 378.65341,918.50573 382.38334,916.52963 C 379.81776,916.53133 379.46967,912.75729 377.75112,911.87059 C 377.59817,911.79167 377.41464,911.73642 377.21431,911.70256 z M 438.76694,946.98263 C 438.62541,947.35243 437.98454,948.80003 436.95581,949.00253 C 436.91706,949.00923 436.85776,949.02173 436.81785,949.02483 C 435.55685,949.12223 432.21674,948.96943 430.78095,950.21323 C 430.25709,950.68403 429.7867,951.56373 429.74315,952.90093 C 429.60689,957.08383 427.82767,960.27823 425.55645,963.86983 C 427.79981,962.51343 429.9953,965.62683 431.94246,965.54133 C 432.94298,965.49743 434.39161,964.29853 434.91512,963.26283 C 437.18619,958.76983 439.00194,951.91733 438.76694,946.98263 z M 369.88384,928.00723 C 367.64048,929.36363 365.41516,926.24083 363.468,926.32633 C 362.46751,926.37033 361.03933,927.60833 360.51584,928.64403 C 358.2365,933.15343 356.40358,940.01533 356.65466,944.95413 C 356.72639,944.75443 357.28524,943.29503 358.26818,942.93783 C 358.2957,942.92843 358.34813,942.91373 358.37633,942.90613 C 358.42366,942.89453 358.50428,942.86953 358.55345,942.86333 C 358.56335,942.86233 358.57329,942.87343 358.58327,942.87273 C 359.84426,942.77533 363.21419,942.93743 364.65001,941.69363 C 365.17384,941.22293 365.65359,940.31333 365.69714,938.97613 C 365.8334,934.79313 367.61262,931.59883 369.88384,928.00723 z M 364.32069,944.21023 C 363.06357,946.51063 359.57875,944.92523 357.93862,945.97813 C 357.09588,946.51923 356.45191,948.30513 356.52014,949.46353 C 356.81606,954.48633 358.68877,961.30713 361.37063,965.45533 C 361.31354,965.10463 361.16571,963.79743 361.70176,963.03763 C 361.76485,962.95173 361.86139,962.85553 361.94423,962.78603 C 361.96733,962.76753 362.00716,962.73223 362.03188,962.71523 C 363.07294,961.99703 366.05626,960.46353 366.672,958.66653 C 366.88807,957.99613 366.82898,956.97683 366.19427,955.79913 C 364.20879,952.11483 364.16338,948.45673 364.32069,944.21023 z M 432.79541,967.31463 C 432.63054,967.45423 431.35362,968.47013 430.31184,968.23993 C 430.22692,968.21923 430.12468,968.19483 430.04343,968.15593 C 428.90267,967.60983 426.08024,965.80833 424.21497,966.16773 C 423.52594,966.31363 422.65151,966.84233 421.94535,967.97863 C 419.74775,971.51493 416.65535,973.40583 412.91898,975.36973 C 415.48448,975.37643 415.83555,979.13643 417.5512,980.02873 C 418.43969,980.49083 420.30687,980.16063 421.27802,979.52533 C 425.51401,976.75423 430.55005,971.72323 432.79541,967.31463 z M 367.94405,961.19313 C 368.01704,963.81363 364.20295,964.19763 363.31664,965.93343 C 362.86125,966.82543 363.21665,968.67343 363.85922,969.63983 C 366.6566,973.84663 371.71787,978.82853 376.1371,981.04723 C 375.99244,980.87893 374.93023,979.56373 375.23044,978.50403 C 375.24769,978.44803 375.26092,978.37943 375.28645,978.32513 C 375.82395,977.18023 377.62758,974.31993 377.25414,972.45743 C 377.22601,972.33833 377.17131,972.18173 377.11825,972.05473 C 376.86131,971.46323 376.30444,970.79403 375.39472,970.23813 C 371.82349,968.05593 369.94752,964.94063 367.94405,961.19313 z M 410.18542,976.67523 C 409.53265,976.56603 408.6517,976.69513 407.6554,977.22583 C 403.97966,979.18383 400.35458,979.26303 396.1355,979.08823 C 398.3518,980.38063 396.77713,983.80993 397.81398,985.44233 C 398.35092,986.28763 400.1108,986.91403 401.26957,986.85143 C 406.29369,986.57983 413.13185,984.77083 417.29295,982.10913 C 416.92006,982.16793 415.48285,982.31083 414.7541,981.64183 C 414.72607,981.61493 414.67921,981.57443 414.65348,981.54483 C 414.62835,981.51463 414.58476,981.45113 414.5622,981.41803 C 413.84904,980.37343 412.30747,977.40233 410.51347,976.77793 C 410.40889,976.74363 410.3063,976.69543 410.18542,976.67523 z M 379.70872,973.71703 C 381.05869,975.96423 377.91807,978.17613 377.99802,980.12353 C 378.03912,981.12413 379.24236,982.56973 380.27653,983.09613 C 384.78051,985.38883 391.6674,987.23453 396.60709,986.99653 C 396.38552,986.91613 394.62401,986.23563 394.53501,985.03803 C 394.44127,983.77683 394.58629,980.44043 393.34668,979.00113 C 392.87738,978.47593 391.996,978.01073 390.65897,977.96333 C 386.47639,977.81513 383.29382,975.99843 379.70872,973.71703 z "
     style="fill:#000000;fill-opacity:1;fill-rule:evenodd;stroke:none;stroke-width:1.25;stroke-linecap:butt;stroke-linejoin:miter;stroke-miterlimit:4;stroke-dasharray:none;stroke-opacity:1"
     sodipodi:nodetypes="cssssscssccssscscssccscsscscsccsscscssccsscsssscsccsscssscsccsscscssccsscsssssccscsscssssccsscscsc"
     inkscape:export-filename="/home/raul/Documents/iglues/blender/proposta nou logo/pas04-variants.png"
     inkscape:export-xdpi="300"
     inkscape:export-ydpi="300" />
  <path
     sodipodi:nodetypes="csssssc"
     id="path4969"
     d="M 199.43647,945.85079 C 196.8462,946.17679 194.84273,948.42269 194.84272,951.10079 C 194.84272,954.00279 197.19073,956.35079 200.09272,956.35079 C 202.9947,956.35079 205.34271,954.00279 205.34272,951.10079 C 205.34272,948.19879 202.9947,945.85079 200.09272,945.85079 C 199.91135,945.85079 199.73813,945.83279 199.56147,945.85079 C 199.52007,945.85499 199.47759,945.84559 199.43647,945.85079 z "
     style="fill:#000000;fill-opacity:1;fill-rule:evenodd;stroke:#000000;stroke-width:1.25;stroke-linecap:butt;stroke-linejoin:miter;stroke-miterlimit:4;stroke-dasharray:none;stroke-opacity:1"
     inkscape:export-filename="/home/raul/Documents/iglues/blender/proposta nou logo/pas04.png"
     inkscape:export-xdpi="300"
     inkscape:export-ydpi="300" />
  <path
     id="path4971"
     d="M 198.4569,909.73654 C 194.85905,909.81073 191.1438,910.37841 188.3319,911.42404 C 188.74573,911.44767 190.44174,911.60416 190.86315,912.64279 C 191.33866,913.81476 192.21102,917.05853 193.8319,918.04904 C 194.43951,918.40523 195.45087,918.60096 196.73815,918.23654 C 200.76512,917.09661 204.3141,917.819 208.42565,918.89279 C 206.4523,917.16704 208.7857,914.09712 208.11315,912.26779 C 207.76757,911.32786 206.16512,910.35845 205.0194,910.17404 L 205.0194,910.14279 C 203.06724,909.82859 200.78392,909.68856 198.4569,909.73654 z M 209.73815,911.04904 C 209.91702,911.16303 211.23153,912.04276 211.36315,913.08029 C 211.37433,913.18629 211.3791,913.31512 211.36315,913.42404 C 211.1799,914.67544 210.27933,917.90549 211.17565,919.58029 C 211.21861,919.65714 211.27522,919.75281 211.3319,919.83029 C 211.73355,920.36284 212.46934,920.91529 213.5819,921.20529 C 217.61066,922.2555 220.34845,924.65681 223.3319,927.64279 C 222.5776,925.19066 226.05094,923.73337 226.3944,921.83029 C 226.57225,920.84477 225.69532,919.16313 224.80065,918.42404 C 220.90577,915.20653 214.6103,911.89426 209.73815,911.04904 z M 185.2069,912.67404 C 184.8419,912.71252 184.49564,912.81612 184.2069,912.92404 C 179.46539,914.69628 173.42886,918.49185 170.2694,922.29904 C 170.26939,922.29906 171.73623,921.5016 172.7694,921.86154 C 172.82385,921.88174 172.90521,921.92819 172.9569,921.95529 C 173.01661,921.98831 173.08941,922.03689 173.1444,922.08029 C 174.13725,922.86378 176.49577,925.23966 178.3944,925.29904 C 179.09865,925.30816 180.0495,924.97111 180.98815,924.01779 C 183.91019,921.05019 187.34736,919.89393 191.42565,918.79904 C 188.92435,918.22857 189.40321,914.48413 187.92565,913.23654 C 187.36372,912.76207 186.21603,912.56765 185.2069,912.67404 z M 228.23815,921.36154 C 228.33551,921.54777 229.02356,922.92886 228.6444,923.89279 C 228.62574,923.93747 228.60545,924.00637 228.5819,924.04904 C 228.55242,924.09972 228.49405,924.15812 228.4569,924.20529 C 227.67438,925.19888 225.29572,927.55659 225.23815,929.45529 C 225.22967,930.15958 225.56518,931.11129 226.5194,932.04904 C 229.49743,934.97573 230.668,938.4268 231.7694,942.51779 C 232.3375,940.01596 236.08572,940.46529 237.3319,938.98654 C 237.97725,938.22074 238.05173,936.35443 237.6444,935.26779 C 235.86998,930.53414 232.04341,924.52075 228.23815,921.36154 z M 170.0194,924.29904 C 169.04944,924.4317 167.78355,925.17973 167.17565,925.92404 C 163.97369,929.84453 160.70431,936.16837 159.8944,941.04904 C 160.0032,940.87618 160.81598,939.63669 161.80065,939.42404 C 161.93368,939.39804 162.0997,939.4079 162.23815,939.42404 C 163.49057,939.60029 166.75588,940.45471 168.42565,939.54904 C 169.03852,939.20197 169.68918,938.43927 170.0194,937.14279 C 171.04709,933.10822 173.42511,930.36162 176.3944,927.36154 C 173.94648,928.12956 172.48686,924.63186 170.5819,924.29904 C 170.41235,924.26942 170.22071,924.27151 170.0194,924.29904 z M 239.30065,939.58029 C 239.27606,939.97551 239.09688,941.54842 238.17565,942.04904 C 238.14067,942.06701 238.08782,942.09668 238.05065,942.11154 C 236.87631,942.58114 233.6431,943.43319 232.6444,945.04904 C 232.28512,945.65485 232.099,946.63494 232.4569,947.92404 C 233.57645,951.95671 232.83274,955.5367 231.73815,959.6428 C 233.47387,957.6782 236.49919,959.9936 238.3319,959.3303 C 239.2736,958.9895 240.29794,957.4126 240.48815,956.2678 C 241.31331,951.30149 240.9991,944.21952 239.30065,939.58029 z M 167.8944,942.04904 C 166.15867,944.01362 163.10211,941.69826 161.2694,942.36154 C 160.32773,942.70237 159.33461,944.31052 159.1444,945.45529 C 158.31626,950.43969 158.61692,957.5358 160.3319,962.174 C 160.34071,961.9621 160.43807,960.4024 161.2694,959.7678 C 161.29287,959.7506 161.33851,959.7209 161.36315,959.7053 C 161.40487,959.6801 161.47432,959.6321 161.5194,959.6115 C 161.52855,959.6076 161.54136,959.6153 161.55065,959.6115 C 162.72499,959.142 165.98945,958.2899 166.98815,956.674 C 167.34742,956.0682 167.53355,955.05689 167.17565,953.76779 C 166.05609,949.73507 166.79981,946.1551 167.8944,942.04904 z M 167.42565,959.174 C 166.91315,961.745 163.11382,961.2729 161.86315,962.7678 C 161.22052,963.5359 161.13945,965.4326 161.55065,966.5178 C 163.33351,971.2228 167.15832,977.1727 170.9569,980.3303 C 170.79766,980.0127 170.26607,978.8093 170.55065,977.924 C 170.58523,977.8233 170.64861,977.7026 170.7069,977.6115 C 170.72343,977.587 170.75091,977.5414 170.7694,977.5178 C 171.54837,976.5214 173.93736,974.1667 173.98815,972.2678 C 173.9941,971.5635 173.6332,970.6084 172.67565,969.674 C 169.68022,966.7511 168.5441,963.2737 167.42565,959.174 z M 239.67565,960.7678 C 239.55999,960.9502 238.64485,962.3012 237.5819,962.3928 C 237.49468,962.3984 237.3898,962.4056 237.30065,962.3928 C 236.04884,962.2124 232.81712,961.3363 231.1444,962.2365 C 230.53042,962.5816 229.85386,963.3474 229.5194,964.6428 C 228.47853,968.674 226.09223,971.4024 223.11315,974.3928 C 225.5635,973.6328 227.02178,977.1162 228.92565,977.4553 C 229.91161,977.6309 231.59489,976.7579 232.3319,975.8615 C 235.54665,971.9516 238.84978,965.6458 239.67565,960.7678 z M 175.9569,974.299 C 176.80938,976.778 173.28417,978.2839 172.9569,980.2053 C 172.78874,981.1925 173.67999,982.85 174.5819,983.5803 C 178.50825,986.7593 184.82667,990.0018 189.7069,990.799 C 189.51857,990.6816 188.11198,989.7438 188.0819,988.6428 C 188.08162,988.5842 188.07378,988.5148 188.0819,988.4553 C 188.25286,987.2021 189.11967,983.9337 188.2069,982.2678 C 188.14446,982.1625 188.04548,982.0294 187.9569,981.924 C 187.53499,981.4363 186.80364,980.964 185.7694,980.7053 C 181.70933,979.6895 178.9884,977.2769 175.9569,974.299 z M 220.8944,976.4553 C 220.23883,976.5461 219.43666,976.9324 218.6444,977.7365 C 215.72142,980.7032 212.28555,981.8617 208.2069,982.9553 C 210.70806,983.5266 210.22976,987.2697 211.7069,988.5178 C 212.47186,989.1641 214.3385,989.2362 215.42565,988.8303 C 220.13921,987.0702 226.12471,983.301 229.30065,979.5178 C 228.96237,979.6853 227.63349,980.2511 226.73815,979.8303 C 226.70336,979.813 226.64654,979.7883 226.61315,979.7678 C 226.58013,979.7464 226.51957,979.6988 226.48815,979.674 C 225.49552,978.8902 223.13677,976.5153 221.23815,976.4553 C 221.12811,976.4538 221.0158,976.4385 220.8944,976.4553 z M 190.92565,982.7365 C 192.88529,984.4778 190.54884,987.5269 191.2069,989.3615 C 191.54503,990.3042 193.12518,991.3243 194.2694,991.5178 C 199.25262,992.3603 206.3764,992.0644 211.0194,990.3615 C 210.78395,990.351 208.89959,990.2279 208.4569,989.1115 C 207.99066,987.9359 207.13239,984.7086 205.5194,983.7053 C 204.91464,983.3443 203.93452,983.1636 202.6444,983.5178 C 198.60854,984.6258 195.02858,983.8428 190.92565,982.7365 z "
     style="fill:#000000;fill-opacity:1;fill-rule:evenodd;stroke:none;stroke-width:1.25;stroke-linecap:butt;stroke-linejoin:miter;stroke-miterlimit:4;stroke-dasharray:none;stroke-opacity:1"
     inkscape:export-filename="/home/raul/Documents/iglues/blender/proposta nou logo/pas04.png"
     inkscape:export-xdpi="300"
     inkscape:export-ydpi="300" />
  <path
     style="fill:#000000;fill-opacity:1;fill-rule:evenodd;stroke:#000000;stroke-width:1.25;stroke-linecap:butt;stroke-linejoin:miter;stroke-miterlimit:4;stroke-dasharray:none;stroke-opacity:1"
     d="M 398.47793,939.93483 C 395.88766,940.26083 393.88419,942.50673 393.88418,945.18483 C 393.88418,948.08683 396.23219,950.43483 399.13418,950.43483 C 402.03616,950.43483 404.38417,948.08683 404.38418,945.18483 C 404.38418,942.28283 402.03616,939.93483 399.13418,939.93483 C 398.95281,939.93483 398.77959,939.91683 398.60293,939.93483 C 398.56153,939.93903 398.51905,939.92963 398.47793,939.93483 z "
     id="path4973"
     sodipodi:nodetypes="csssssc"
     inkscape:export-filename="/home/raul/Documents/iglues/blender/proposta nou logo/pas04-variants.png"
     inkscape:export-xdpi="300"
     inkscape:export-ydpi="300" />
</svg>
