/* XPM */
static const char *balancetree[]={
"32 32 5 1",
". c None",
"# c #303030",
"a c #800000",
"b c #808000",
"c c #c0c000",
"....#...........................",
"....#...........................",
"...##################...........",
"...##.............a.............",
"...##............a..............",
"...##............a..............",
"...##............a..............",
"...##..........bbbbbb...........",
"...##..........bbbbbb...........",
"...##..........bbbbbb...........",
"...##...........aaa.............",
"...##..........a...aa...........",
"...##.........a......a..........",
"...##......bbbbbb..bbbbbb.......",
"...##......bbbbbb..bbbbbb.......",
"...##......bbbbbb..bbbbbb.......",
"...##.......aaaa......aa........",
"...##......a....a.......a.......",
"...##.....a......a.......a......",
"...##..bbbbbb..bbbbbb..bbbbbb...",
"...##..bbbbbb..bbbbbb..bbbbbb...",
"...##..bbbbbb..bbbbbb..bbbbbb...",
"...##...........................",
"...##...........................",
"..aaaaaaaaaaaaaaaaaaaaaaaaaaaa..",
".aacccacaaacccacccacccaacaacaaa.",
".aaccaacaaaacaaacaaccaaaccaccaa.",
".aacaaacaaaacaaacaacaaaaccaccaa.",
".aacccacccacccaacaacccaaccaccaa.",
".aaaaaaaaaaaaaaaaaaaaaaaaaaaaaa.",
"................................",
"................................"};
