/* XPM */
static const char *usuario[]={
"32 32 5 1",
". c None",
"# c #000000",
"b c #008000",
"a c #c0c000",
"c c #ffffff",
"................................",
"................................",
"................................",
"................................",
".........##########.............",
"........#############...........",
".......###############..........",
"......#################.........",
"......#aaaaaa##########.........",
"......#aaaaaaa##########........",
"......#a###aaa##########........",
"......a#bcc#aa##########........",
".....##bbbcc#a##aaa#####........",
"....#aa#bcc#aa##a#a#####........",
"...#aaaa###aaaaa###a####........",
"...#aaaaaaaaaaaaaaaa####........",
"....##aaaaa##aa#aaaa####........",
".....#aaaa#.#aaa########........",
"....#aaaa#..#aaaaa######........",
"....#####..#aaaaaa######........",
".....cc....#aaaaaa######........",
".....cc.###aaaaaaa######........",
".......#aaaaaaaaaa####..........",
"........#####aaaaa###...........",
"............#aaaaa###...........",
"............#aaaaa#.............",
"............#aaaaa#.............",
".....#######aaaaaaa#####........",
"...##aaaaaaaaaaaaaaaaaaa##......",
"..##aaaaaaaaaaaaaaaaaaaaaa##....",
"###aaaaaaaaaaaaaaaaaaaaaaaaa##..",
"aaaaaaaaaaaaaaaaaaaaaaaaaaaaa##."};
