<?xml version="1.0" standalone="no"?>
<!DOCTYPE svg PUBLIC "-//W3C//DTD SVG 20010904//EN" "http://www.w3.org/TR/2001/REC-SVG-20010904/DTD/svg10.dtd">
<!-- Created using Karbon14, part of koffice: http://www.koffice.org/karbon -->
<svg xmlns="http://www.w3.org/2000/svg" xmlns:xlink="http://www.w3.org/1999/xlink" width="128px" height="128px">
  <defs>
    <linearGradient id="defitem3" gradientUnits="userSpaceOnUse" x1="7.82173" y1="59.2725" x2="118.284" y2="59.2725" >
      <stop stop-color="#5b91e4" offset="0" stop-opacity="1" />
      <stop stop-color="#5b91e4" offset="0.888889" stop-opacity="0.498039" />
      <stop stop-color="#5b91e4" offset="1" stop-opacity="0" />
    </linearGradient>
    <radialGradient id="defitem4" gradientUnits="userSpaceOnUse" cx="64.2414" cy="60.0956" fx="64.2414" fy="60.0956" r="55.9366" >
      <stop stop-color="#5b91e4" offset="0" stop-opacity="1" />
      <stop stop-color="#5b91e4" offset="0.888889" stop-opacity="0.498039" />
      <stop stop-color="#5b91e4" offset="1" stop-opacity="0" />
    </radialGradient>
    <radialGradient id="defitem5" gradientUnits="userSpaceOnUse" cx="64" cy="122.812" fx="64" fy="122.812" r="64" >
      <stop stop-color="#000000" offset="0" stop-opacity="1" />
      <stop stop-color="#000000" offset="1" stop-opacity="0" />
    </radialGradient>
  </defs>
  <g id="Layer">
    <g id="layer1">
      <path id="path3945" fill="#000000" d=""  />
    </g>
    <path id="path3081" fill="#000000" d=""  />
    <g id="layer2">
    </g>
    <g id="layer3">
    </g>
    <g id="layer4">
    </g>
    <g id="layer8">
      <path id="path2167" fill="#000000" d=""  />
      <g id="g6017">
        <path id="path4664" fill="#fff9ff" stroke="url(#defitem3)" stroke-width="1.97474" d="M117.296 59.2725C117.31 89.2401 93.0202 113.541 63.0526 113.541C33.0851 113.541 8.79544 89.2401 8.8091 59.2725"  />
        <path id="path2276" fill="#ffffff" fill-opacity="0.756881" stroke-width="0.5" stroke-linecap="round" stroke-linejoin="round" d="M243.087 127.347L243.087 124.552L243.087 127.347Z"  />
        <path id="path3206" fill="#ffffff" fill-opacity="0.756881" stroke-width="0.5" stroke-linecap="round" stroke-linejoin="round" d="M123.585 40.7164L123.585 37.9217L123.585 40.7164Z"  />
        <g id="g6022">
        </g>
        <g id="layer5">
        </g>
        <path id="path3946" fill="#ffffff" fill-opacity="0.756881" stroke-width="0.5" stroke-linecap="round" stroke-linejoin="round" d="M370.176 106.472L370.176 103.677L370.176 106.472Z"  />
        <path id="path1561" fill="#ffffff" fill-opacity="0.756881" stroke-width="0.5" stroke-linecap="round" stroke-linejoin="round" d="M348.552 39.7165L348.552 38.1898L348.552 39.7165Z"  />
        <path fill="#ffffff" stroke-width="3.632" stroke-linecap="round" stroke-linejoin="round" d="M220.067 123.765L220.067 123.765L221.067 123.765L221.067 123.765L220.067 123.765Z"  />
        <path id="path10351" fill="#ffffff" fill-opacity="0.756881" stroke-width="0.5" stroke-linecap="round" stroke-linejoin="round" d="M199.087 -56.513L199.087 -59.308L199.087 -56.513Z"  />
        <path id="path10353" fill="#ffffff" fill-opacity="0.756881" stroke-width="0.5" stroke-linecap="round" stroke-linejoin="round" d="M79.585 -143.143L79.585 -145.938L79.585 -143.143Z"  />
        <g id="g10355">
        </g>
        <g id="g10357">
        </g>
        <path id="path10418" fill="#ffffff" fill-opacity="0.756881" stroke-width="0.5" stroke-linecap="round" stroke-linejoin="round" d="M326.176 -77.388L326.176 -80.183L326.176 -77.388Z"  />
        <path id="path10424" fill="#ffffff" fill-opacity="0.756881" stroke-width="0.5" stroke-linecap="round" stroke-linejoin="round" d="M233.552 -3.495L233.552 -5.021L233.552 -3.495Z"  />
        <path fill="#ffffff" stroke-width="3.632" stroke-linecap="round" stroke-linejoin="round" d="M176.067 -60.095L176.067 -60.095L177.067 -60.095L177.067 -60.095L176.067 -60.095Z"  />
        <path id="path3185" fill="url(#defitem4)" stroke-width="5" d="M114.349 35.241C124.408 54.7955 121.19 80.0749 106.696 96.5786C92.6864 113.252 68.5558 119.993 47.7408 113.543C27.1618 107.167 11.1696 88.3593 8.76211 66.9651C5.80926 45.016 17.3751 22.003 36.8441 11.399C55.5112 0.569 80.3443 2.165 97.5416 15.168C104.638 20.395 110.439 27.344 114.349 35.241ZM59.9424 106.592C54.4565 105.844 63.6521 110.587 61.0945 106.816L59.9424 106.592L59.9424 106.592ZM83.682 101.377C81.2568 101.75 74.2482 107.129 80.4877 106.421C81.7573 105.922 89.9153 100.063 83.682 101.377ZM84.7238 99.9134C89.7077 104.707 85.5657 93.6678 84.7238 99.9134ZM38.3307 95.5778C42.6673 99.7344 48.7816 99.1865 53.1605 103.165C55.9991 106.976 67.5821 106.987 64.1123 100.571C63.3756 98.7173 57.0439 95.1102 60.8733 95.0004C62.7174 96.3031 65.6145 95.6257 62.2585 94.4355C61.2036 90.8447 57.1295 91.8847 54.4778 89.9636C51.0284 89.091 49.2376 85.7628 48.732 83.5597C45.0646 85.2238 37.5168 76.0212 41.2014 75.5564C39.4337 80.386 47.7874 80.8837 48.8737 79.9029C50.0689 84.3049 58.2183 81.0552 58.0946 77.3718C63.4166 78.3248 61.0688 71.1497 65.476 71.8829C67.4066 69.6973 62.2054 79.384 66.3902 77.0068C67.5245 73.8496 72.4101 72.9585 74.5993 71.9375C76.1264 71.8899 74.7266 66.9169 78.0678 67.2588C79.5715 67.6271 79.626 65.3581 80.75 67.7467C85.766 68.0325 89.7158 62.0354 90.1079 58.2579C93.3317 56.2219 92.477 51.7804 91.954 49.2154C92.7163 46.1402 87.2112 40.6194 93.4696 42.5183C99.1093 42.6251 95.638 34.4915 96.3003 31.4217C99.3297 33.9022 99.3783 29.4533 101.738 28.6739C103.793 25.179 97.4248 20.423 94.793 22.129C92.0913 21.751 90.668 20.187 88.0446 21.37C83.9389 17.787 75.9802 17.275 72.2502 20.101C65.5347 22.228 72.4167 27.293 76.5139 26.947C77.6418 30.8605 81.5085 33.951 83.9038 37.8381C86.1062 39.3514 90.0081 41.7527 87.3178 44.1075C88.0181 46.0911 84.5902 47.3004 88.1503 48.7669C85.6165 53.6726 82.0047 44.506 85.5247 44.8135C84.8102 43.5851 85.2359 39.4564 82.9633 41.1505C85.2596 44.4742 79.3053 44.714 77.665 45.7293C75.8506 45.4649 72.8822 43.767 72.9621 44.4837C68.9513 41.6424 67.008 49.2797 63.6353 50.4009C62.6549 53.9209 65.6051 59.0466 68.7549 54.7077C67.2655 53.0398 70.4611 47.8973 69.408 52.476C69.0145 55.692 74.1214 55.8807 71.4613 59.8571C71.3533 61.4213 69.0246 67.616 68.9467 67.4171C66.1473 67.4471 61.0167 64.9672 61.6453 60.7558C58.2667 60.1255 55.1186 54.0423 59.824 53.0513C58.4986 49.4356 61.8253 44.837 57.8718 42.3956C61.4731 41.2697 56.648 35.7671 56.0986 40.4183C55.408 45.1645 48.559 42.1749 47.1828 45.3824C45.8816 47.616 44.2559 47.647 45.4723 44.2957C47.2266 41.6281 50.424 39.0699 53.5124 40.7858C57.0165 38.549 60.8386 34.9508 60.768 30.601C56.6207 27.58 50.4211 27.114 45.4355 28.0662C43.6555 28.1162 41.8194 22.781 38.2927 24.394C32.6583 20.638 26.6754 22.767 26.3553 29.8655C24.8554 33.518 25.6587 36.9906 28.1177 39.4653C24.7496 43.8975 35.0169 41.4133 31.1223 45.6868C27.8597 45.6996 23.0561 39.1057 23.3699 45.98C24.0056 47.9406 28.065 50.2651 27.7292 47.0056C31.6972 46.831 32.2184 47.7728 33.9875 50.5061C36.5766 51.3266 33.8225 45.3865 37.7632 45.5852C40.1186 44.6348 47.3332 44.8828 41.1914 46.2346C34.6363 45.2542 34.9561 53.3536 38.8051 56.0252C38.9349 59.8349 34.0497 60.3245 31.4321 63.1899C27.5096 63.699 28.6926 68.0551 31.9873 65.2538C34.6484 63.9621 41.0264 68.1576 38.6529 71.9949C41.1991 74.0546 38.2984 80.7941 42.1159 83.578C41.9353 87.3135 46.386 87.3903 46.5902 89.2599C47.503 88.4567 47.6916 92.6489 49.5647 89.2548C52.4359 91.7582 56.1134 91.5713 57.6852 95.2896C54.5209 99.084 53.5292 91.9183 49.9678 93.7284C47.2841 91.9465 42.8703 93.2113 39.867 91.2664C37.9449 92.2156 36.4446 93.4678 38.3307 95.5778ZM70.9196 54.0898C70.3918 53.1959 77.4425 48.4536 75.387 53.0217C73.8752 56.6939 72.3135 52.2317 70.9196 54.0898ZM69.1401 69.1721C72.5078 66.7001 70.4695 70.4558 69.1401 69.1721Z"  />
      </g>
      <g id="g3814">
        <g id="g3816">
          <path id="path3818" fill="#000000" d=""  />
        </g>
        <path id="path3820" fill="#000000" d=""  />
        <g id="g3822">
        </g>
        <g id="g3824">
        </g>
        <g id="g3826">
        </g>
        <g id="g3828">
          <path id="path3830" fill="#000000" d=""  />
          <path id="path1563" fill="url(#defitem5)" stroke-width="0" stroke-linecap="round" stroke-linejoin="round" d="M-2.68214e-05 122.812C-2.6833e-05 125.677 28.6538 128 64 128C99.3462 128 128 125.677 128 122.812"  />
        </g>
      </g>
    </g>
  </g>
</svg>
