/* XPM */
static const char *bulmages[]={
"16 16 39 1",
"m c #000000",
"E c #b4aeac",
"H c #bdb2b4",
"C c #bdb6b4",
"r c #cdbebd",
"G c #d5c6c5",
"w c #dececd",
"t c #ded6cd",
"o c #ded6de",
"D c #e6d6d5",
"F c #e6dad5",
"s c #eedede",
"x c #eee6e6",
"c c #eee6ee",
"k c #eeeaff",
"v c #f6e2e6",
"z c #f6e6e6",
"l c #f6e6ee",
"I c #f6eae6",
"B c #f6eaee",
"j c #f6eaf6",
"J c #f6eeee",
"A c #f6eef6",
"g c #f6eeff",
"h c #f6f2ff",
"e c #f6f6ff",
"f c #ff0000",
"K c #ffeaee",
"y c #ffeee6",
"i c #ffeeee",
". c #fff2ee",
"a c #fff2f6",
"d c #fff2ff",
"b c #fff6ee",
"# c #fff6f6",
"p c #fff6ff",
"n c #fffaf6",
"u c #fffaff",
"q c #ffffff",
".##.#a#bacdeffgh",
"i#.#.#.#ijeklmgh",
".##a#.##nommmmpg",
"i#.#.##qrmsqtmph",
".##.#n#mmnu#vmpg",
"i#.##smwq#.nsmhh",
".###mmxq#.##vmpg",
"i#.#y###.#.nsmhg",
".##.###.#a##zmAB",
"i#.#.#.#.#.#imb#",
".##a#.#a#.##nm#a",
"i#.##a.#.nnBCm##",
".#qzm##nuDmmm##.",
"n.EmFn#GmmFnn#.#",
"Hmm#unmmI.qa#.#a",
"mJq#.am#.K##.#.#"};
