/* XPM */
static const char *cgastos[]={
"16 16 5 1",
". c None",
"c c #00ff00",
"b c #585858",
"# c #800080",
"a c #c000c0",
"................",
"................",
".......#######..",
".......#aaaa##b.",
"..#####aaaa#a#b.",
"..#aaaaaaaaa##b.",
"..#acccccca#a#b.",
"..#acaaaaaaa##b.",
"..#acaaaaaa#a#b.",
"..#acaacccaa##b.",
"..#acaaaaca#a#b.",
"..#acaaaacaa##b.",
"..#acccccca#a#b.",
"..#aaaaaaaaa##b.",
"..############b.",
"...bbbbbbbbbbbb."};
