/* XPM */
static const char *filter[]={
"32 32 86 2",
"Qt c None",
".# c #000000",
"#p c #010101",
".9 c #020202",
"## c #030303",
".k c #040404",
".Y c #050505",
".N c #060606",
"#c c #090909",
".Z c #0b0b0b",
"#a c #0e0e0e",
".l c #0f0f0f",
".4 c #101010",
".c c #161616",
".b c #171717",
".a c #181818",
".5 c #1e1e1e",
".E c #1f1f1f",
".u c #242424",
"#b c #393939",
".8 c #565656",
"#. c #5f5f5f",
"#d c #717171",
".O c #757575",
".6 c #7a7a7a",
"#s c #868686",
"#i c #888888",
"#t c #898989",
"#l c #8b8b8b",
"#r c #8d8d8d",
".m c #939393",
".n c #949494",
".d c #959595",
".2 c #989898",
"#o c #9b9b9b",
".P c #9e9e9e",
".o c #a0a0a0",
"#n c #a1a1a1",
".F c #a2a2a2",
".p c #a3a3a3",
"#g c #a5a5a5",
".v c #a6a6a6",
".G c #a7a7a7",
".Q c #a8a8a8",
".H c #a9a9a9",
".w c #aaaaaa",
".e c #ababab",
".R c #acacac",
".x c #adadad",
"#e c #aeaeae",
".q c #afafaf",
".I c #b0b0b0",
"#h c #b1b1b1",
".0 c #b2b2b2",
".S c #b3b3b3",
"#k c #b4b4b4",
"#q c #b5b5b5",
".J c #b6b6b6",
".y c #b7b7b7",
".T c #b9b9b9",
".X c #bababa",
".r c #bbbbbb",
".7 c #bcbcbc",
".z c #bdbdbd",
".K c #bebebe",
".3 c #bfbfbf",
".f c #c0c0c0",
".U c #c1c1c1",
".A c #c2c2c2",
".L c #c3c3c3",
"#m c #c4c4c4",
".B c #c5c5c5",
".V c #c6c6c6",
".1 c #c7c7c7",
"#f c #c8c8c8",
".C c #c9c9c9",
".s c #cacaca",
".W c #cbcbcb",
".M c #cccccc",
".D c #cdcdcd",
".t c #cecece",
"#j c #cfcfcf",
".g c #d0d0d0",
".h c #d1d1d1",
".i c #d2d2d2",
".j c #d3d3d3",
"QtQtQtQtQtQtQtQtQtQtQtQtQtQtQtQtQtQtQtQtQtQtQtQtQtQtQtQtQtQtQtQt",
"QtQtQtQtQtQtQtQtQtQtQtQtQtQtQtQtQtQtQtQtQtQtQtQtQtQtQtQtQtQtQtQt",
"QtQtQtQtQtQtQtQtQtQtQtQtQtQtQtQtQtQtQtQtQtQtQtQtQtQtQtQtQtQtQtQt",
"QtQtQtQtQtQtQtQtQtQtQtQtQtQtQtQtQtQtQtQtQtQtQtQtQtQtQtQtQtQtQtQt",
"QtQtQtQtQtQtQtQtQtQtQt.#.#.#.#.#.#.#.#.#.#QtQtQtQtQtQtQtQtQtQtQt",
"QtQtQtQtQtQtQt.#.a.b.c.b.d.e.f.g.h.i.j.j.j.#.#.#.#QtQtQtQtQtQtQt",
"QtQtQtQtQt.k.l.#.m.n.o.p.q.r.f.s.t.h.j.j.j.j.j.jQtQt.#.#QtQtQtQt",
"QtQtQtQt.u.m.m.o.v.w.x.y.z.A.B.C.D.g.j.j.j.j.j.j.j.j.j.#QtQtQtQt",
"QtQtQtQt.E.m.F.G.H.e.I.J.K.L.C.M.t.g.j.j.j.j.j.j.j.j.j.f.NQtQtQt",
"QtQtQtQt.#.O.P.Q.R.I.S.T.r.U.V.W.t.g.j.j.j.j.j.j.j.j.j.X.YQtQtQt",
"QtQtQtQt.#.ZQt.o.H.0.J.T.z.A.1.M.D.g.j.j.j.j.j.j.j.j.j.#.#QtQtQt",
"QtQtQtQtQt.#Qt.m.2.Q.J.X.z.3.V.s.D.h.j.j.j.j.j.j.j.#.#.#QtQtQtQt",
"QtQtQtQtQtQt.#.4.c.5.6.v.7.K.B.W.g.i.j.j.j.K.8.9.#.#QtQtQtQtQtQt",
"QtQtQtQtQtQtQt.#.j#.###a.m.r.V.h.j.j.j.j.#.#.##b.#QtQtQtQtQtQtQt",
"QtQtQtQtQtQtQtQt.#.j.U.S.##c##.#.#.#.#.##d#e.d.#QtQtQtQtQtQtQtQt",
"QtQtQtQtQtQtQtQtQtQt.f.j.D.D.D.M.M#f.f.S.q#g.#QtQtQtQtQtQtQtQtQt",
"QtQtQtQtQtQtQtQtQtQt.#.j.j.j.j.j.i.C.T#h#i.#QtQtQtQtQtQtQtQtQtQt",
"QtQtQtQtQtQtQtQtQtQtQt.#.j.j.j.j#j.A#k#l.#QtQtQtQtQtQtQtQtQtQtQt",
"QtQtQtQtQtQtQtQtQtQtQtQtQt.j.t.h#f.y.0.#QtQtQtQtQtQtQtQtQtQtQtQt",
"QtQtQtQtQtQtQtQtQtQtQtQtQt.N#j.W#m.v.#QtQtQtQtQtQtQtQtQtQtQtQtQt",
"QtQtQtQtQtQtQtQtQtQtQtQtQt#a.L.L.K#n.#QtQtQtQtQtQtQtQtQtQtQtQtQt",
"QtQtQtQtQtQtQtQtQtQtQtQtQt.k.f.L.T#o.#QtQtQtQtQtQtQtQtQtQtQtQtQt",
"QtQtQtQtQtQtQtQtQtQtQtQtQt#p.A.L#q.n.#QtQtQtQtQtQtQtQtQtQtQtQtQt",
"QtQtQtQtQtQtQtQtQtQtQtQtQt.#.B.A.0#r.#QtQtQtQtQtQtQtQtQtQtQtQtQt",
"QtQtQtQtQtQtQtQtQtQtQtQtQt.#.V.3.0#i.#QtQtQtQtQtQtQtQtQtQtQtQtQt",
"QtQtQtQtQtQtQtQtQtQtQtQtQt.#.W.U#q#s.#QtQtQtQtQtQtQtQtQtQtQtQtQt",
"QtQtQtQtQtQtQtQtQtQtQtQtQt.#.h.f#k#s.#QtQtQtQtQtQtQtQtQtQtQtQtQt",
"QtQtQtQtQtQtQtQtQtQtQtQtQt.#.h.r#q#t.#QtQtQtQtQtQtQtQtQtQtQtQtQt",
"QtQtQtQtQtQtQtQtQtQtQtQtQtQt.#.#.#.#QtQtQtQtQtQtQtQtQtQtQtQtQtQt",
"QtQtQtQtQtQtQtQtQtQtQtQtQtQtQtQtQtQtQtQtQtQtQtQtQtQtQtQtQtQtQtQt",
"QtQtQtQtQtQtQtQtQtQtQtQtQtQtQtQtQtQtQtQtQtQtQtQtQtQtQtQtQtQtQtQt",
"QtQtQtQtQtQtQtQtQtQtQtQtQtQtQtQtQtQtQtQtQtQtQtQtQtQtQtQtQtQtQtQt"};
