/* XPM */
static char *finish[]={
"32 32 210 2",
"Qt c None",
".j c #000000",
"#. c #001d2a",
".E c #001f3e",
".A c #00202e",
".D c #00203f",
".C c #002340",
".G c #002545",
".F c #002845",
"#j c #0097bc",
".B c #012a46",
"aT c #021621",
"aS c #021720",
".b c #03090e",
"aQ c #030c12",
"bi c #030d12",
".N c #03141d",
".u c #03161d",
"aX c #031722",
"a6 c #04121a",
"aY c #04151e",
"aW c #041621",
"ai c #041c28",
"bo c #041f2b",
".o c #050f14",
"aV c #051621",
"aU c #051721",
"aA c #051b27",
"b# c #051d2b",
".i c #05202c",
"aR c #05202f",
"ah c #064b65",
"aZ c #082c3f",
"#D c #099bc1",
"a1 c #0a9ec0",
"#B c #0aa1c3",
"a5 c #0b4d69",
"bn c #0b506e",
"#C c #0b92b9",
"#V c #0b95bd",
"#r c #0c242f",
".# c #0c3652",
".a c #0c3753",
"bh c #0c5775",
".O c #0c91b6",
"#W c #0c95be",
"bp c #0d3b59",
"bm c #0d3f5e",
"a7 c #0d4564",
"az c #0d5472",
"a0 c #0d5d7f",
"#6 c #0d8bae",
"#U c #0d8eb5",
"#9 c #0d99be",
"#2 c #0e516f",
"aP c #0e5c7d",
"a# c #0e8eb5",
"aa c #0e91b9",
"aK c #0e95bd",
"ac c #0eaccd",
"aL c #0eadce",
".e c #0f2731",
".H c #0f405f",
".c c #0f4160",
"bj c #0f4363",
"ba c #0f4665",
"#8 c #0f8caf",
"ag c #0f8fb5",
"aJ c #0f93b8",
"#k c #0f9bc0",
"a. c #0f9bc1",
"#R c #0fa8c9",
"#T c #1091b8",
"a8 c #10a1bf",
"ab c #10a2c9",
"be c #114463",
"#Q c #11acca",
"ar c #11b4d2",
"aG c #126e94",
"aI c #127fa3",
"#7 c #1288aa",
"as c #12b0cd",
"bl c #134b63",
"aH c #136f93",
"at c #13a6ca",
"aC c #14688e",
"aD c #14688f",
"aF c #146a90",
"ay c #148aaf",
".f c #154767",
"aE c #15688e",
"aO c #158db2",
"bd c #178eb2",
"aq c #17b4cf",
"#5 c #189abb",
"au c #18b6d6",
".k c #194968",
".p c #1a4a68",
"a4 c #1a92b8",
".3 c #1aaccb",
"am c #1cb3c8",
"#J c #1d607b",
"aB c #1d769c",
"bb c #1d94b5",
"#S c #1da4c7",
"bc c #1da7c9",
"al c #1eb6ce",
"#1 c #2190b6",
".d c #22617c",
"bk c #227498",
"ap c #22b6ce",
"av c #22cce0",
"bg c #2386ab",
"af c #25bbd3",
".t c #28718f",
"a2 c #2acee1",
"aN c #2bb8d2",
"an c #2db9cb",
"a9 c #2dcbe0",
".4 c #2eafce",
".h c #2f6378",
"#l c #2fb0ce",
"ao c #2fbed2",
"bf c #307e9d",
"ax c #31c0d7",
".9 c #336d86",
"#M c #35b3cf",
".n c #367088",
"b. c #36c3d8",
"#P c #37b8d1",
".M c #38697d",
"#E c #38b5d1",
"#0 c #38b9d4",
"aw c #39d8e6",
".z c #3a6a7e",
"#i c #3bbcd5",
"a3 c #3dd9e7",
"#q c #416b7d",
"#A c #42b1d0",
"#N c #43b5cf",
"ad c #43cee0",
"#X c #45b3d0",
"#z c #45b6d3",
"aM c #48dfe9",
"ae c #49d5e4",
"#O c #4eb8d0",
"#y c #52bfd8",
"#Z c #53e0ea",
".g c #549bbb",
"#Y c #5fd3e3",
"#4 c #67bfd7",
"#L c #6db9d3",
".Q c #6ec8dd",
".R c #6fcade",
".m c #72b6d4",
"#F c #78cde0",
"ak c #7acde2",
".5 c #7acee1",
".l c #7db0c9",
"#t c #7ec1d5",
"#h c #7ec9e0",
"#m c #80cee0",
"#I c #82bfd8",
"#u c #83cfe0",
"#x c #83d2e4",
".v c #84b3c8",
".q c #84b5ca",
".I c #95cade",
".P c #96c0d3",
"#v c #98d8e6",
"#g c #9cd3e7",
"#w c #9dd9e8",
"#p c #9fcce1",
".L c #a2cfe2",
".2 c #acd9e8",
"#a c #acdbe7",
".J c #b0d9e6",
".s c #b2d2e1",
"#f c #b3deee",
"#G c #b5e0ec",
".y c #b7d5e2",
".T c #b7d5e3",
".1 c #bbdeed",
".U c #bcdfee",
"#s c #bddfec",
"## c #bde3f0",
".w c #bfddeb",
"#K c #c4e1ef",
".8 c #c5dae3",
"#3 c #c5e9f6",
".r c #ceeaf6",
".x c #cfe3ef",
"#n c #d0ecf3",
"aj c #d2f0fc",
"#e c #d4ecf6",
"#b c #d6eef5",
".6 c #d8eff5",
".S c #d9ecf2",
"#H c #d9f2fb",
".V c #e4f3fb",
"#d c #e5f4fb",
".0 c #e6f1f9",
"#c c #e7f5fb",
"#o c #f2f6fb",
".7 c #f9fafd",
".W c #fdfcff",
".Y c #fffcff",
".X c #fffdff",
".Z c #fffeff",
".K c #ffffff",
"QtQtQtQtQtQtQtQtQtQtQtQtQtQtQtQtQtQtQtQtQtQtQtQtQtQtQtQtQtQtQtQt",
"QtQtQtQtQtQtQtQtQtQtQtQtQtQtQtQtQtQtQtQtQtQtQtQtQtQtQtQtQtQtQtQt",
"QtQtQtQtQtQtQtQtQtQtQtQtQtQtQtQtQtQtQtQtQtQtQtQtQtQtQtQtQtQtQtQt",
"QtQtQtQtQtQtQtQtQtQtQtQtQtQtQtQtQtQtQtQtQtQtQtQtQtQtQtQtQtQtQtQt",
"QtQtQtQtQtQtQtQtQtQtQtQtQtQtQt.#QtQtQtQtQtQtQtQtQtQtQtQtQtQtQtQt",
"QtQtQtQtQtQtQtQtQtQtQtQtQtQtQt.a.bQtQtQtQtQtQtQtQtQtQtQtQtQtQtQt",
"QtQtQtQtQtQtQtQtQtQtQtQtQtQtQt.c.d.eQtQtQtQtQtQtQtQtQtQtQtQtQtQt",
"QtQtQtQtQtQtQtQtQtQtQtQtQtQtQt.f.g.h.iQtQtQtQtQtQtQt.j.jQtQtQtQt",
"QtQtQtQtQtQtQtQtQtQtQtQtQtQtQt.k.l.m.n.oQtQtQtQtQtQt.j.jQtQtQtQt",
"QtQtQtQtQtQtQtQtQtQtQtQtQtQtQt.p.q.r.s.t.uQtQtQtQtQt.j.jQtQtQtQt",
"QtQtQtQtQtQtQtQtQtQtQtQtQtQtQt.p.v.w.x.y.z.AQtQtQtQt.j.jQtQtQtQt",
"QtQtQtQtQt.j.B.C.D.E.E.E.E.F.G.H.v.I.J.K.L.M.NQtQtQt.j.jQtQtQtQt",
"QtQtQtQtQt.j.O.O.O.O.O.O.O.O.O.O.P.Q.R.S.K.T.t.oQtQt.j.jQtQtQtQt",
"QtQtQtQtQt.j.O.U.V.W.X.Y.Y.Z.0.1.2.3.4.5.6.7.8.9#.Qt.j.jQtQtQtQt",
"QtQtQtQtQt.j.O###a#b#c#d#e#f#g#h#i#j#k#l#m#n#o#p#q#r.j.jQtQtQtQt",
"QtQtQtQtQt.j.O#s#t#u#v#w#x#y#z#A#B#j#C#D#E#F#G#H#I#J.b.jQtQtQtQt",
"QtQtQtQtQt.j.O#K#L#M#N#O#P#Q#R#S#T#U#V#W#X#Y#Z#0#1#2.b.jQtQtQtQt",
"QtQtQtQtQt.j.O#3#4#5#6#7#8.O#9a.a#aaabacadaeafagahai.j.jQtQtQtQt",
"QtQtQtQtQt.j.OajakalamanaoapaqarasatauavawaxayazaAQt.j.jQtQtQtQt",
"QtQtQtQtQt.j.OaBaCaDaEaFaGaHaIaJaKaLavaMaNaOaPaQQtQt.j.jQtQtQtQt",
"QtQtQtQtQt.jaRaSaTaUaVaWaXaYaZa0a1a2a3aNa4a5a6QtQtQt.j.jQtQtQtQt",
"QtQtQtQtQtQtQtQtQtQtQtQtQtQtQta7a8a9b.aOa5b#QtQtQtQt.j.jQtQtQtQt",
"QtQtQtQtQtQtQtQtQtQtQtQtQtQtQtbabbbcbdaPa6QtQtQtQtQt.j.jQtQtQtQt",
"QtQtQtQtQtQtQtQtQtQtQtQtQtQtQtbebfbgbhbiQtQtQtQtQtQt.j.jQtQtQtQt",
"QtQtQtQtQtQtQtQtQtQtQtQtQtQtQtbjbkblaiQtQtQtQtQtQtQt.j.jQtQtQtQt",
"QtQtQtQtQtQtQtQtQtQtQtQtQtQtQtbmbnboQtQtQtQtQtQtQtQtQtQtQtQtQtQt",
"QtQtQtQtQtQtQtQtQtQtQtQtQtQtQt.a.bQtQtQtQtQtQtQtQtQtQtQtQtQtQtQt",
"QtQtQtQtQtQtQtQtQtQtQtQtQtQtQtbpQtQtQtQtQtQtQtQtQtQtQtQtQtQtQtQt",
"QtQtQtQtQtQtQtQtQtQtQtQtQtQtQtQtQtQtQtQtQtQtQtQtQtQtQtQtQtQtQtQt",
"QtQtQtQtQtQtQtQtQtQtQtQtQtQtQtQtQtQtQtQtQtQtQtQtQtQtQtQtQtQtQtQt",
"QtQtQtQtQtQtQtQtQtQtQtQtQtQtQtQtQtQtQtQtQtQtQtQtQtQtQtQtQtQtQtQt",
"QtQtQtQtQtQtQtQtQtQtQtQtQtQtQtQtQtQtQtQtQtQtQtQtQtQtQtQtQtQtQtQt"};
