/* XPM */
static char *start[]={
"32 32 149 2",
"Qt c None",
".e c #020202",
"#. c #02060e",
"as c #060e1a",
"#3 c #061626",
"ao c #061a2a",
"ab c #061e2e",
"al c #061e32",
"#D c #062636",
"#E c #06526e",
"#P c #0a2236",
"ah c #0a223a",
"ai c #0a2a3e",
"ar c #0a364e",
"ag c #0a3652",
".w c #0a3e5e",
".I c #0a8eb2",
"#g c #0a9ec2",
".C c #0e2e46",
".a c #0e3652",
".# c #0e3a56",
".d c #0e3e5e",
"aq c #0e4a6e",
"ap c #0e4e6e",
"aa c #0e5272",
"#Q c #0e5672",
"af c #0e567a",
".v c #0e5a7a",
"ak c #0e5e7e",
"a# c #0e5e82",
"ae c #0e7296",
"am c #0e769e",
"#R c #0e8ab2",
"#w c #0e96be",
"#v c #0e9abe",
"#h c #0e9ac2",
"#J c #0ea2c6",
".b c #123a56",
".i c #12425e",
".m c #124262",
"#o c #125676",
"an c #12567a",
"#8 c #126686",
"a. c #12668e",
"#9 c #126a92",
"#7 c #127a9e",
"#2 c #128eb2",
"#K c #1292b2",
"#6 c #1296b6",
"#u c #12a2ca",
".1 c #12aaca",
"#f c #12aece",
"#I c #12aed2",
"#F c #12b6d2",
".B c #167ea6",
"#L c #168eb2",
"#O c #1696ba",
".2 c #16a6c6",
"#0 c #16b2ca",
"#U c #16b2ce",
"#1 c #16bad6",
".j c #1a425e",
"#M c #1a92b2",
"#N c #1a96b6",
".3 c #1aa2c6",
"#t c #1ab6d6",
".c c #1e4662",
".n c #1e4a66",
"#C c #1e82a6",
"aj c #229ab6",
"#Z c #22bace",
"#H c #22cade",
"#G c #22cee2",
".f c #26567a",
"#p c #2692b6",
".H c #26aaca",
"ac c #26b6ca",
"#s c #26cae2",
".r c #2a526e",
".V c #2a5272",
"#q c #2ab6ce",
"#S c #2abece",
"#V c #2abed6",
"#4 c #2ac6da",
"#Y c #2ebad2",
"#X c #2ebece",
"#n c #328aae",
".4 c #32aeca",
"#W c #32c2d2",
"#r c #32cede",
".h c #365676",
".O c #369ec2",
"#T c #36d6e2",
"ad c #36dae6",
".g c #3a5e7e",
"#x c #3ab2ce",
".N c #3abad2",
"#B c #42a6ca",
".0 c #42c6d6",
"#5 c #4adeea",
"#i c #4ebed6",
"#e c #4ec6da",
"## c #527a9a",
".U c #5296b6",
".G c #56aac6",
"#m c #5eb6d2",
"#A c #6abad6",
".s c #6e8aa6",
".W c #6e8ea6",
".D c #6e8eaa",
".k c #6e96b2",
".o c #7296b2",
".P c #72bad2",
"#y c #72c2d6",
".l c #769ab6",
".5 c #76cae2",
".F c #7acee2",
".A c #7eaec6",
"#z c #82cade",
"#d c #82d2e6",
"#l c #8ed2e6",
".M c #8edae6",
".Z c #92d2e6",
".q c #9ebace",
"#a c #a6c6da",
"#c c #aadeea",
".Q c #aedeea",
".z c #b2deea",
"#k c #b2e2ee",
".6 c #b6e6f6",
"#j c #bae6ee",
".9 c #c2eef6",
".X c #cedeee",
".x c #d2deea",
".p c #d2e2f2",
"#b c #d2eefa",
".t c #d6deea",
".7 c #d6f2fa",
".L c #daf2f6",
".T c #daf6fe",
".J c #dee2ea",
".u c #deeaf6",
".E c #deeef2",
".8 c #def6fe",
".R c #e6f6fa",
".Y c #f2f6fa",
".K c #faf6fa",
".S c #fafafe",
".y c #fefefe",
"QtQtQtQtQtQtQtQtQtQtQtQtQtQtQtQtQtQtQtQtQtQtQtQtQtQtQtQtQtQtQtQt",
"QtQtQtQtQtQtQtQtQtQtQtQtQtQtQtQtQtQtQtQtQtQtQtQtQtQtQtQtQtQtQtQt",
"QtQtQtQtQtQtQtQtQtQtQtQtQtQtQtQtQtQtQtQtQtQtQtQtQtQtQtQtQtQtQtQt",
"QtQtQtQtQtQtQtQtQtQtQtQtQtQtQtQtQtQtQtQtQtQtQtQtQtQtQtQtQtQtQtQt",
"QtQtQtQtQtQtQtQtQtQtQtQtQtQtQtQtQt.#QtQtQtQtQtQtQtQtQtQtQtQtQtQt",
"QtQtQtQtQtQtQtQtQtQtQtQtQtQtQtQt.a.#QtQtQtQtQtQtQtQtQtQtQtQtQtQt",
"QtQtQtQtQtQtQtQtQtQtQtQtQtQtQt.b.c.dQtQtQtQtQtQtQtQtQtQtQtQtQtQt",
"QtQtQtQtQt.e.eQtQtQtQtQtQtQt.f.g.h.iQtQtQtQtQtQtQtQtQtQtQtQtQtQt",
"QtQtQtQtQt.e.eQtQtQtQtQtQt.j.k.l.g.mQtQtQtQtQtQtQtQtQtQtQtQtQtQt",
"QtQtQtQtQt.e.eQtQtQtQtQt.n.o.p.q.f.dQtQtQtQtQtQtQtQtQtQtQtQtQtQt",
"QtQtQtQtQt.e.eQtQtQtQt.r.s.t.u.q.v.wQtQtQtQtQtQtQtQtQtQtQtQtQtQt",
"QtQtQtQtQt.e.eQtQtQt.c.s.x.y.z.A.B.C.C.C.C.C.C.C.C.C.CQtQtQtQtQt",
"QtQtQtQtQt.e.eQtQt.j.D.t.y.E.F.G.H.I.I.I.I.I.I.I.I.I.CQtQtQtQtQt",
"QtQtQtQtQt.e.eQt.r.o.J.K.L.M.N.N.H.O.P.Q.R.S.y.S.T.U.CQtQtQtQtQt",
"QtQtQtQtQt.e.e.V.W.X.Y.u.Z.0.1.2.3.4.5.6.7.8.T.9.Z.U.CQtQtQtQtQt",
"QtQtQtQtQt#..e###a#b#c#d#e#f#g#g#h.2#i.F#c#j#k#l#m#n.CQtQtQtQtQt",
"QtQtQtQtQt#..e#o#p#q#r#s#t#u#v#w#w#v.3#x#y#z#z#A#B#C.CQtQtQtQtQt",
"QtQtQtQtQt.e.e#D#E.I#F#G#H#I#J#u#K#w#K#K#L#M#N#M#O.B.CQtQtQtQtQt",
"QtQtQtQtQt.e.eQt#P#Q#R#S#T#G#t#I#I#U#V#W#X#Y#Z#0#1#2.CQtQtQtQtQt",
"QtQtQtQtQt.e.eQtQt#3.v#v#4#5#G.1#K#6#7#8#9#9#9a.a#aa.CQtQtQtQtQt",
"QtQtQtQtQt.e.eQtQtQtab#Q#Macadacaeafagahai#D#Daiaiah.CQtQtQtQtQt",
"QtQtQtQtQt.e.eQtQtQtQt#Daa#L#qajak.wQtQtQtQtQtQtQtQtQtQtQtQtQtQt",
"QtQtQtQtQt.e.eQtQtQtQtQtal.vamaean.dQtQtQtQtQtQtQtQtQtQtQtQtQtQt",
"QtQtQtQtQt.e.eQtQtQtQtQtQtao.v#9ap.mQtQtQtQtQtQtQtQtQtQtQtQtQtQt",
"QtQtQtQtQt.e.eQtQtQtQtQtQtQt#D.waq.dQtQtQtQtQtQtQtQtQtQtQtQtQtQt",
"QtQtQtQtQtQtQtQtQtQtQtQtQtQtQt#3ar.wQtQtQtQtQtQtQtQtQtQtQtQtQtQt",
"QtQtQtQtQtQtQtQtQtQtQtQtQtQtQtQtas.#QtQtQtQtQtQtQtQtQtQtQtQtQtQt",
"QtQtQtQtQtQtQtQtQtQtQtQtQtQtQtQtQt#3QtQtQtQtQtQtQtQtQtQtQtQtQtQt",
"QtQtQtQtQtQtQtQtQtQtQtQtQtQtQtQtQtQtQtQtQtQtQtQtQtQtQtQtQtQtQtQt",
"QtQtQtQtQtQtQtQtQtQtQtQtQtQtQtQtQtQtQtQtQtQtQtQtQtQtQtQtQtQtQtQt",
"QtQtQtQtQtQtQtQtQtQtQtQtQtQtQtQtQtQtQtQtQtQtQtQtQtQtQtQtQtQtQtQt",
"QtQtQtQtQtQtQtQtQtQtQtQtQtQtQtQtQtQtQtQtQtQtQtQtQtQtQtQtQtQtQtQt"};
