<?xml version="1.0" encoding="UTF-8" standalone="no"?>
<!-- Created with Inkscape (http://www.inkscape.org/) -->
<svg
   xmlns:dc="http://purl.org/dc/elements/1.1/"
   xmlns:cc="http://web.resource.org/cc/"
   xmlns:rdf="http://www.w3.org/1999/02/22-rdf-syntax-ns#"
   xmlns:svg="http://www.w3.org/2000/svg"
   xmlns="http://www.w3.org/2000/svg"
   xmlns:xlink="http://www.w3.org/1999/xlink"
   xmlns:sodipodi="http://sodipodi.sourceforge.net/DTD/sodipodi-0.dtd"
   xmlns:inkscape="http://www.inkscape.org/namespaces/inkscape"
   version="1.0"
   width="256"
   height="256"
   id="svg1"
   sodipodi:version="0.32"
   inkscape:version="0.45"
   sodipodi:docname="i_bulmages_impresion.svg"
   sodipodi:docbase="/home/anna/Desktop/elferrer/Documents/noves imatges bulmages/i_bulmages_impresion"
   inkscape:output_extension="org.inkscape.output.svg.inkscape"
   sodipodi:modified="TRUE"
   inkscape:export-filename="/home/anna/Desktop/elferrer/Documents/noves imatges bulmages/i_bulmages_impresion/i_bulmages_impresion_pulsado_L.png"
   inkscape:export-xdpi="96"
   inkscape:export-ydpi="96">
  <metadata
     id="metadata162">
    <rdf:RDF>
      <cc:Work
         rdf:about="">
        <dc:format>image/svg+xml</dc:format>
        <dc:type
           rdf:resource="http://purl.org/dc/dcmitype/StillImage" />
        <cc:license
           rdf:resource="http://creativecommons.org/licenses/GPL/2.0/" />
        <dc:title>impresion</dc:title>
        <dc:date>actualizacion 11/03/2007</dc:date>
        <dc:creator>
          <cc:Agent>
            <dc:title>Raül Martínez i Peris</dc:title>
          </cc:Agent>
        </dc:creator>
        <dc:rights>
          <cc:Agent>
            <dc:title>GPL</dc:title>
          </cc:Agent>
        </dc:rights>
        <dc:publisher>
          <cc:Agent>
            <dc:title>Raül Martinez i Peris</dc:title>
          </cc:Agent>
        </dc:publisher>
        <dc:identifier>elferrer</dc:identifier>
        <dc:source>propia</dc:source>
        <dc:language>castellano</dc:language>
        <dc:contributor>
          <cc:Agent>
            <dc:title>www.iglues.org</dc:title>
          </cc:Agent>
        </dc:contributor>
        <dc:description>iconos para las aplicaciones de iglues.org</dc:description>
        <dc:subject>
          <rdf:Bag>
            <rdf:li>bulmagés</rdf:li>
          </rdf:Bag>
        </dc:subject>
      </cc:Work>
      <cc:License
         rdf:about="http://creativecommons.org/licenses/GPL/2.0/">
        <cc:permits
           rdf:resource="http://web.resource.org/cc/Reproduction" />
        <cc:permits
           rdf:resource="http://web.resource.org/cc/Distribution" />
        <cc:requires
           rdf:resource="http://web.resource.org/cc/Notice" />
        <cc:permits
           rdf:resource="http://web.resource.org/cc/DerivativeWorks" />
        <cc:requires
           rdf:resource="http://web.resource.org/cc/ShareAlike" />
        <cc:requires
           rdf:resource="http://web.resource.org/cc/SourceCode" />
      </cc:License>
    </rdf:RDF>
  </metadata>
  <sodipodi:namedview
     inkscape:window-height="690"
     inkscape:window-width="1016"
     inkscape:pageshadow="2"
     inkscape:pageopacity="0.0"
     guidetolerance="10.0"
     gridtolerance="10.0"
     objecttolerance="10.0"
     borderopacity="1.0"
     bordercolor="#666666"
     pagecolor="#ffffff"
     id="base"
     inkscape:zoom="1.9023438"
     inkscape:cx="128"
     inkscape:cy="128"
     inkscape:window-x="0"
     inkscape:window-y="0"
     inkscape:current-layer="layer8"
     gridempspacing="3" />
  <defs
     id="defs3">
    <linearGradient
       id="linearGradient9952">
      <stop
         style="stop-color:blue;stop-opacity:1"
         offset="0"
         id="stop9953" />
      <stop
         style="stop-color:blue;stop-opacity:0"
         offset="1"
         id="stop9954" />
    </linearGradient>
    <linearGradient
       inkscape:collect="always"
       xlink:href="#linearGradient9952"
       id="linearGradient2396"
       gradientUnits="userSpaceOnUse"
       gradientTransform="matrix(0.722825,0,0,5.491502,357.3217,-224.6297)"
       x1="-181.00027"
       y1="65.430992"
       x2="-149.55615"
       y2="65.430992" />
    <linearGradient
       inkscape:collect="always"
       xlink:href="#linearGradient9952"
       id="linearGradient2398"
       gradientUnits="userSpaceOnUse"
       gradientTransform="matrix(0.503358,0.519204,-0.518754,0.503795,350.8416,286.8881)"
       x1="-181.00027"
       y1="65.430992"
       x2="-149.55615"
       y2="65.430992" />
    <linearGradient
       inkscape:collect="always"
       xlink:href="#linearGradient9952"
       id="linearGradient2400"
       gradientUnits="userSpaceOnUse"
       gradientTransform="matrix(0.700557,0.178187,-0.178032,0.701165,364.2407,212.2498)"
       x1="-181.00027"
       y1="65.430992"
       x2="-149.55615"
       y2="65.430992" />
    <linearGradient
       inkscape:collect="always"
       xlink:href="#linearGradient9952"
       id="linearGradient2402"
       gradientUnits="userSpaceOnUse"
       gradientTransform="matrix(0.175051,0.701916,0.701308,-0.175203,211.5968,364.3863)"
       x1="-181.00027"
       y1="65.430992"
       x2="-149.55615"
       y2="65.430992" />
    <linearGradient
       inkscape:collect="always"
       xlink:href="#linearGradient9952"
       id="linearGradient2404"
       gradientUnits="userSpaceOnUse"
       gradientTransform="matrix(-0.518754,0.503795,-0.503358,-0.519204,-30.75042,351.0348)"
       x1="-181.00027"
       y1="65.430992"
       x2="-149.55615"
       y2="65.430992" />
    <linearGradient
       inkscape:collect="always"
       xlink:href="#linearGradient9952"
       id="linearGradient2406"
       gradientUnits="userSpaceOnUse"
       gradientTransform="matrix(-0.178032,0.701165,-0.700557,-0.178187,43.82315,364.4456)"
       x1="-181.00027"
       y1="65.430992"
       x2="-149.55615"
       y2="65.430992" />
    <linearGradient
       inkscape:collect="always"
       xlink:href="#linearGradient9952"
       id="linearGradient2408"
       gradientUnits="userSpaceOnUse"
       gradientTransform="matrix(-0.701308,0.175203,0.175051,0.701916,-108.1815,211.6693)"
       x1="-181.00027"
       y1="65.430992"
       x2="-149.55615"
       y2="65.430992" />
    <linearGradient
       inkscape:collect="always"
       xlink:href="#linearGradient9952"
       id="linearGradient2410"
       gradientUnits="userSpaceOnUse"
       gradientTransform="matrix(0.518754,-0.503795,0.503358,0.519204,286.7504,-95.03481)"
       x1="-181.00027"
       y1="65.430992"
       x2="-149.55615"
       y2="65.430992" />
    <linearGradient
       inkscape:collect="always"
       xlink:href="#linearGradient9952"
       id="linearGradient2412"
       gradientUnits="userSpaceOnUse"
       gradientTransform="matrix(0.178032,-0.701165,0.700557,0.178187,212.1768,-108.4456)"
       x1="-181.00027"
       y1="65.430992"
       x2="-149.55615"
       y2="65.430992" />
    <linearGradient
       inkscape:collect="always"
       xlink:href="#linearGradient9952"
       id="linearGradient2414"
       gradientUnits="userSpaceOnUse"
       gradientTransform="matrix(0.701308,-0.175203,-0.175051,-0.701916,364.1815,44.33066)"
       x1="-181.00027"
       y1="65.430992"
       x2="-149.55615"
       y2="65.430992" />
    <linearGradient
       inkscape:collect="always"
       xlink:href="#linearGradient9952"
       id="linearGradient2416"
       gradientUnits="userSpaceOnUse"
       gradientTransform="matrix(-0.503358,-0.519204,0.518754,-0.503795,-94.84156,-30.88808)"
       x1="-181.00027"
       y1="65.430992"
       x2="-149.55615"
       y2="65.430992" />
    <linearGradient
       inkscape:collect="always"
       xlink:href="#linearGradient9952"
       id="linearGradient2418"
       gradientUnits="userSpaceOnUse"
       gradientTransform="matrix(-0.700557,-0.178187,0.178032,-0.701165,-108.2407,43.75017)"
       x1="-181.00027"
       y1="65.430992"
       x2="-149.55615"
       y2="65.430992" />
    <linearGradient
       inkscape:collect="always"
       xlink:href="#linearGradient9952"
       id="linearGradient2420"
       gradientUnits="userSpaceOnUse"
       gradientTransform="matrix(-0.175051,-0.701916,-0.701308,0.175203,44.40317,-108.3863)"
       x1="-181.00027"
       y1="65.430992"
       x2="-149.55615"
       y2="65.430992" />
    <linearGradient
       inkscape:collect="always"
       xlink:href="#linearGradient9952"
       id="linearGradient2422"
       gradientUnits="userSpaceOnUse"
       gradientTransform="matrix(-0.722825,0,0,-5.491502,-101.3217,480.6296)"
       x1="-181.00027"
       y1="65.430992"
       x2="-149.55615"
       y2="65.430992" />
    <linearGradient
       inkscape:collect="always"
       xlink:href="#linearGradient9952"
       id="linearGradient2424"
       gradientUnits="userSpaceOnUse"
       gradientTransform="matrix(0,-0.723451,5.486744,0,-224.3241,-101.5205)"
       x1="-181.00027"
       y1="65.430992"
       x2="-149.55615"
       y2="65.430992" />
    <linearGradient
       inkscape:collect="always"
       xlink:href="#linearGradient9952"
       id="linearGradient2426"
       gradientUnits="userSpaceOnUse"
       gradientTransform="matrix(0,0.723451,-5.486744,0,480.324,357.5204)"
       x1="-181.00027"
       y1="65.430992"
       x2="-149.55615"
       y2="65.430992" />
    <linearGradient
       inkscape:collect="always"
       xlink:href="#linearGradient9952"
       id="linearGradient2428"
       gradientUnits="userSpaceOnUse"
       gradientTransform="matrix(0.722825,0,0,5.491502,161.2922,-224.6297)"
       x1="-181.00027"
       y1="65.430992"
       x2="-149.55615"
       y2="65.430992" />
    <linearGradient
       inkscape:collect="always"
       xlink:href="#linearGradient9952"
       id="linearGradient2430"
       gradientUnits="userSpaceOnUse"
       gradientTransform="matrix(-0.722825,0,0,-5.491502,97.31552,480.6296)"
       x1="-181.00027"
       y1="65.430992"
       x2="-149.55615"
       y2="65.430992" />
    <linearGradient
       inkscape:collect="always"
       xlink:href="#linearGradient9952"
       id="linearGradient2432"
       gradientUnits="userSpaceOnUse"
       gradientTransform="matrix(0,-0.723451,5.486744,0,-224.3241,95.04349)"
       x1="-181.00027"
       y1="65.430992"
       x2="-149.55615"
       y2="65.430992" />
    <linearGradient
       inkscape:collect="always"
       xlink:href="#linearGradient9952"
       id="linearGradient2434"
       gradientUnits="userSpaceOnUse"
       gradientTransform="matrix(0,0.723451,-5.486744,0,480.324,161.8969)"
       x1="-181.00027"
       y1="65.430992"
       x2="-149.55615"
       y2="65.430992" />
    <linearGradient
       id="linearGradient3715">
      <stop
         id="stop3717"
         offset="0"
         style="stop-color:#0000ff;stop-opacity:1;" />
      <stop
         id="stop3719"
         offset="1"
         style="stop-color:#0000ff;stop-opacity:0;" />
    </linearGradient>
    <linearGradient
       inkscape:collect="always"
       id="linearGradient4404">
      <stop
         style="stop-color:#8774cd;stop-opacity:1.0000000"
         offset="0"
         id="stop4406" />
      <stop
         style="stop-color:#8792cd;stop-opacity:0.34722221"
         offset="1"
         id="stop4408" />
    </linearGradient>
    <linearGradient
       inkscape:collect="always"
       id="linearGradient2137">
      <stop
         style="stop-color:#0000ff;stop-opacity:0.0000000"
         offset="0"
         id="stop2139" />
      <stop
         style="stop-color:#0000ff;stop-opacity:1.0000000"
         offset="1"
         id="stop2141" />
    </linearGradient>
    <radialGradient
       inkscape:collect="always"
       xlink:href="#linearGradient3715"
       id="radialGradient2378"
       gradientUnits="userSpaceOnUse"
       gradientTransform="matrix(0.151879,0.919223,-0.793571,0.112688,438.5284,155.8666)"
       spreadMethod="repeat"
       cx="203.10997"
       cy="328.97427"
       fx="203.10997"
       fy="328.97427"
       r="31.02483" />
    <filter
       inkscape:collect="always"
       x="-0.031960031"
       width="1.0639201"
       y="-0.1059525"
       height="1.211905"
       id="filter3407">
      <feGaussianBlur
         inkscape:collect="always"
         stdDeviation="2.2215557"
         id="feGaussianBlur3409" />
    </filter>
    <filter
       inkscape:collect="always"
       id="filter3423">
      <feGaussianBlur
         inkscape:collect="always"
         stdDeviation="2.5352753"
         id="feGaussianBlur3425" />
    </filter>
    <filter
       inkscape:collect="always"
       id="filter3447">
      <feGaussianBlur
         inkscape:collect="always"
         stdDeviation="1.7338502"
         id="feGaussianBlur3449" />
    </filter>
    <filter
       inkscape:collect="always"
       id="filter3471">
      <feGaussianBlur
         inkscape:collect="always"
         stdDeviation="0.52122897"
         id="feGaussianBlur3473" />
    </filter>
    <filter
       inkscape:collect="always"
       id="filter3499">
      <feGaussianBlur
         inkscape:collect="always"
         stdDeviation="0.26767752"
         id="feGaussianBlur3501" />
    </filter>
    <filter
       inkscape:collect="always"
       x="-0.016235514"
       width="1.032471"
       y="-0.19711048"
       height="1.394221"
       id="filter3511">
      <feGaussianBlur
         inkscape:collect="always"
         stdDeviation="0.8213538"
         id="feGaussianBlur3513" />
    </filter>
    <filter
       inkscape:collect="always"
       x="-0.10004336"
       width="1.2000867"
       y="-0.099956678"
       height="1.1999134"
       id="filter3245">
      <feGaussianBlur
         inkscape:collect="always"
         stdDeviation="9.0266808"
         id="feGaussianBlur3247" />
    </filter>
    <linearGradient
       inkscape:collect="always"
       xlink:href="#linearGradient2137"
       id="linearGradient2278"
       gradientUnits="userSpaceOnUse"
       gradientTransform="matrix(0.603785,0,0,0.3232326,-121.25558,3.935725)"
       x1="404.35361"
       y1="310.99213"
       x2="404.35361"
       y2="378.05078" />
    <linearGradient
       inkscape:collect="always"
       xlink:href="#linearGradient4404"
       id="linearGradient2285"
       gradientUnits="userSpaceOnUse"
       gradientTransform="matrix(0.65,0,0,0.65,-419.9569,-201.01702)"
       x1="708.16071"
       y1="537.17603"
       x2="955.69159"
       y2="631.0802" />
    <linearGradient
       inkscape:collect="always"
       xlink:href="#linearGradient3715"
       id="linearGradient2288"
       gradientUnits="userSpaceOnUse"
       gradientTransform="matrix(0.65,0,0,0.65,-124.13748,-199.28917)"
       x1="402.81226"
       y1="650.36255"
       x2="308.57169"
       y2="494.93445" />
    <linearGradient
       inkscape:collect="always"
       xlink:href="#linearGradient9952"
       id="linearGradient2292"
       gradientUnits="userSpaceOnUse"
       gradientTransform="matrix(0.65,0,0,0.65,-121.53521,-199.93975)"
       x1="342.2402"
       y1="366.53049"
       x2="446.02219"
       y2="437.05103" />
    <linearGradient
       inkscape:collect="always"
       xlink:href="#linearGradient3715"
       id="linearGradient2295"
       gradientUnits="userSpaceOnUse"
       gradientTransform="matrix(0.65,0,0,0.65,-126.08924,-190.18121)"
       spreadMethod="pad"
       x1="374.29727"
       y1="338.26828"
       x2="426.50604"
       y2="513.05615" />
    <filter
       inkscape:collect="always"
       id="filter3276">
      <feGaussianBlur
         inkscape:collect="always"
         stdDeviation="1.8714072"
         id="feGaussianBlur3278" />
    </filter>
    <filter
       inkscape:collect="always"
       id="filter3284">
      <feGaussianBlur
         inkscape:collect="always"
         stdDeviation="1.3303845"
         id="feGaussianBlur3286" />
    </filter>
    <filter
       inkscape:collect="always"
       id="filter3292">
      <feGaussianBlur
         inkscape:collect="always"
         stdDeviation="1.8434312"
         id="feGaussianBlur3294" />
    </filter>
  </defs>
  <g
     style="opacity:1;display:inline"
     id="layer1">
    <path
       d=""
       style="opacity:1"
       id="path3945" />
  </g>
  <path
     d=""
     id="path3081" />
  <g
     style="display:inline"
     id="layer2" />
  <g
     style="display:inline"
     id="layer3" />
  <g
     style="opacity:1;display:inline"
     id="layer4" />
  <g
     inkscape:groupmode="layer"
     id="layer5"
     inkscape:label="boton_pulsado"
     style="display:none"
     sodipodi:insensitive="true">
    <g
       id="g2458">
      <g
         transform="translate(-3.15982,0.14121)"
         style="display:inline"
         id="g3979">
        <path
           d="M 225.84614,30.083415 L 249.21903,30.14204 L 249.21903,225.91656 L 225.87247,225.87734 L 225.84614,30.083415 z "
           style="opacity:0.5;fill:url(#linearGradient2396);fill-opacity:1;fill-rule:evenodd;stroke:none;stroke-width:8.9802618;stroke-miterlimit:4;stroke-opacity:1;display:block"
           id="rect10002" />
        <path
           d="M 246.09172,236.81817 L 241.6188,242.20167 L 236.82989,246.55734 L 225.79115,225.87576 L 246.09172,236.81817 z "
           style="opacity:0.5;fill:url(#linearGradient2398);fill-opacity:1;fill-rule:evenodd;stroke:none;stroke-width:8.9802618;stroke-miterlimit:4;stroke-opacity:1"
           id="path2053" />
        <path
           d="M 249.21905,225.96681 L 247.81954,231.47868 L 246.42002,236.99055 L 225.79115,225.87576 L 249.21905,225.96681 z "
           style="opacity:0.5;fill:url(#linearGradient2400);fill-opacity:1;fill-rule:evenodd;stroke:none;stroke-width:8.9802618;stroke-miterlimit:4;stroke-opacity:1"
           id="path2060" />
        <path
           d="M 225.79115,249.32415 L 231.30415,247.94688 L 236.81715,246.56961 L 225.79985,225.87576 L 225.79115,249.32415 z "
           style="opacity:0.5;fill:url(#linearGradient2402);fill-opacity:1;fill-rule:evenodd;stroke:none;stroke-width:8.9802618;stroke-miterlimit:4;stroke-opacity:1"
           id="path2062" />
        <path
           d="M 19.276093,246.19414 L 13.897256,241.71734 L 9.5453636,236.92428 L 30.20902,225.87597 L 19.276093,246.19414 z "
           style="opacity:0.5;fill:url(#linearGradient2404);fill-opacity:1;fill-rule:evenodd;stroke:none;stroke-width:8.9802618;stroke-miterlimit:4;stroke-opacity:1"
           id="path3000" />
        <path
           d="M 30.118045,249.32418 L 24.610958,247.92346 L 19.103856,246.52272 L 30.20902,225.87597 L 30.118045,249.32418 z "
           style="opacity:0.5;fill:url(#linearGradient2406);fill-opacity:1;fill-rule:evenodd;stroke:none;stroke-width:8.9802618;stroke-miterlimit:4;stroke-opacity:1"
           id="path3001" />
        <path
           d="M 6.7809483,225.87597 L 8.1570192,231.39375 L 9.5331053,236.91153 L 30.20902,225.88467 L 6.7809483,225.87597 z "
           style="opacity:0.5;fill:url(#linearGradient2408);fill-opacity:1;fill-rule:evenodd;stroke:none;stroke-width:8.9802618;stroke-miterlimit:4;stroke-opacity:1"
           id="path3002" />
        <path
           d="M 236.72389,9.8058696 L 242.10272,14.28267 L 246.45462,19.075728 L 225.79096,30.12404 L 236.72389,9.8058696 z "
           style="opacity:0.5;fill:url(#linearGradient2410);fill-opacity:1;fill-rule:evenodd;stroke:none;stroke-width:8.9802618;stroke-miterlimit:4;stroke-opacity:1"
           id="path3007" />
        <path
           d="M 225.88193,6.6758271 L 231.38902,8.0765559 L 236.89612,9.4772889 L 225.79096,30.12404 L 225.88193,6.6758271 z "
           style="opacity:0.5;fill:url(#linearGradient2412);fill-opacity:1;fill-rule:evenodd;stroke:none;stroke-width:8.9802618;stroke-miterlimit:4;stroke-opacity:1"
           id="path3008" />
        <path
           d="M 249.21903,30.12404 L 247.84296,24.606264 L 246.46687,19.08848 L 225.79096,30.115338 L 249.21903,30.12404 z "
           style="opacity:0.5;fill:url(#linearGradient2414);fill-opacity:1;fill-rule:evenodd;stroke:none;stroke-width:8.9802618;stroke-miterlimit:4;stroke-opacity:1"
           id="path3009" />
        <path
           d="M 9.9082846,19.181822 L 14.381207,13.79832 L 19.170112,9.4426539 L 30.20885,30.12423 L 9.9082846,19.181822 z "
           style="opacity:0.5;fill:url(#linearGradient2416);fill-opacity:1;fill-rule:evenodd;stroke:none;stroke-width:8.9802618;stroke-miterlimit:4;stroke-opacity:1"
           id="path3011" />
        <path
           d="M 6.7809541,30.033176 L 8.1804693,24.521313 L 9.5799886,19.009435 L 30.20885,30.12423 L 6.7809541,30.033176 z "
           style="opacity:0.5;fill:url(#linearGradient2418);fill-opacity:1;fill-rule:evenodd;stroke:none;stroke-width:8.9802618;stroke-miterlimit:4;stroke-opacity:1"
           id="path3012" />
        <path
           d="M 30.20885,6.6758413 L 24.695855,8.0531055 L 19.182853,9.430385 L 30.200156,30.12423 L 30.20885,6.6758413 z "
           style="opacity:0.5;fill:url(#linearGradient2420);fill-opacity:1;fill-rule:evenodd;stroke:none;stroke-width:8.9802618;stroke-miterlimit:4;stroke-opacity:1"
           id="path3013" />
        <path
           d="M 30.153849,225.91656 L 6.780954,225.85793 L 6.780954,30.083413 L 30.127521,30.122631 L 30.153849,225.91656 z "
           style="opacity:0.5;fill:url(#linearGradient2422);fill-opacity:1;fill-rule:evenodd;stroke:none;stroke-width:8.9802618;stroke-miterlimit:4;stroke-opacity:1;display:block"
           id="path3021" />
        <path
           d="M 30.168259,30.06899 L 30.226838,6.675827 L 225.83173,6.675827 L 225.79255,30.04264 L 30.168259,30.06899 z "
           style="opacity:0.5;fill:url(#linearGradient2424);fill-opacity:1;fill-rule:evenodd;stroke:none;stroke-width:8.9802618;stroke-miterlimit:4;stroke-opacity:1;display:block"
           id="path3023" />
        <path
           d="M 225.83173,225.93098 L 225.77315,249.32415 L 30.168259,249.32415 L 30.207443,225.95733 L 225.83173,225.93098 z "
           style="opacity:0.5;fill:url(#linearGradient2426);fill-opacity:1;fill-rule:evenodd;stroke:none;stroke-width:8.9802618;stroke-miterlimit:4;stroke-opacity:1;display:block"
           id="path3054" />
        <path
           d="M 29.816627,30.083414 L 53.189522,30.14204 L 53.189522,225.91656 L 29.842954,225.87734 L 29.816627,30.083414 z "
           style="opacity:0.5;fill:url(#linearGradient2428);fill-opacity:1;fill-rule:evenodd;stroke:none;stroke-width:8.9802618;stroke-miterlimit:4;stroke-opacity:1;display:block"
           id="path1956" />
        <path
           d="M 228.79098,225.91656 L 205.41809,225.85793 L 205.41809,30.083413 L 228.76465,30.122631 L 228.79098,225.91656 z "
           style="opacity:0.5;fill:url(#linearGradient2430);fill-opacity:1;fill-rule:evenodd;stroke:none;stroke-width:8.9802618;stroke-miterlimit:4;stroke-opacity:1;display:block"
           id="path1990" />
        <path
           d="M 30.168258,226.63294 L 30.226837,203.23978 L 225.83173,203.23978 L 225.79255,226.60659 L 30.168258,226.63294 z "
           style="opacity:0.5;fill:url(#linearGradient2432);fill-opacity:1;fill-rule:evenodd;stroke:none;stroke-width:8.9802618;stroke-miterlimit:4;stroke-opacity:1;display:block"
           id="path1992" />
        <path
           d="M 225.83173,30.307532 L 225.77315,53.700695 L 30.168258,53.700695 L 30.207442,30.333882 L 225.83173,30.307532 z "
           style="opacity:0.5;fill:url(#linearGradient2434);fill-opacity:1;fill-rule:evenodd;stroke:none;stroke-width:8.9802618;stroke-miterlimit:4;stroke-opacity:1;display:block"
           id="path1994" />
      </g>
      <path
         d="M 46.00708,221.46053 L 46.00708,217.88241 L 214.76672,217.88241 L 214.76672,49.1021 L 218.34173,49.06054 L 218.34173,219.68332 L 218.34173,221.46053 L 216.56606,221.46053 L 46.00708,221.46053 z "
         style="fill:#000000;fill-opacity:1;fill-rule:evenodd;stroke:none;stroke-width:4.70592737;stroke-miterlimit:4;stroke-opacity:1;display:block"
         id="path2826" />
      <path
         d="M 34.61253,37.83522 L 36.3882,37.83522 L 213.29223,37.83522 L 215.0679,37.83522 L 215.0679,39.61242 L 215.0679,216.66987 L 215.0679,218.44708 L 213.29223,218.44708 L 36.3882,218.44708 L 34.61253,218.44708 L 34.61253,216.66987 L 34.61253,39.61242 L 34.61253,37.83522 z M 38.18754,41.41333 L 38.18754,214.86896 L 211.49289,214.86896 L 211.49289,41.41333 L 38.18754,41.41333 z "
         style="fill:#00007f;fill-opacity:1;fill-rule:evenodd;stroke:none;stroke-width:8.9802618;stroke-miterlimit:4;stroke-opacity:1;display:block"
         id="rect5542" />
    </g>
  </g>
  <g
     inkscape:groupmode="layer"
     id="layer7"
     inkscape:label="boton_visible"
     style="display:none"
     sodipodi:insensitive="true">
    <path
       id="path2483"
       style="fill:#00007f;fill-opacity:1;fill-rule:evenodd;stroke:none;stroke-width:8.9802618;stroke-miterlimit:4;stroke-opacity:1;display:block;filter:url(#filter3245)"
       d="M 34.61253,37.83522 L 36.3882,37.83522 L 213.29223,37.83522 L 215.0679,37.83522 L 215.0679,39.61242 L 215.0679,216.66987 L 215.0679,218.44708 L 213.29223,218.44708 L 36.3882,218.44708 L 34.61253,218.44708 L 34.61253,216.66987 L 34.61253,39.61242 L 34.61253,37.83522 z M 38.18754,41.41333 L 38.18754,214.86896 L 211.49289,214.86896 L 211.49289,41.41333 L 38.18754,41.41333 z " />
  </g>
  <g
     inkscape:groupmode="layer"
     id="layer8"
     inkscape:label="icono"
     style="display:inline">
    <path
       d=""
       id="path6102" />
    <g
       id="g3296">
      <path
         sodipodi:nodetypes="ccccccscscc"
         id="path6636"
         d="M 29.21858,133.90525 C 37.446963,99.996443 39.187168,78.677977 52.896215,44.274953 C 79.288613,35.523437 94.687562,37.214302 121.52254,35.482194 C 143.90652,37.207366 172.61435,34.978809 187.83131,40.657735 C 205.19851,76.247276 205.99035,97.020743 216.61213,132.61027 C 212.97038,158.23851 207.1897,188.42692 203.54794,214.05515 C 186.58976,214.65594 170.10563,219.33104 155.58529,214.85701 C 149.48577,212.97761 144.64925,205.0388 122.20334,205.12442 C 101.42804,204.80658 96.434638,207.66551 92.339814,214.54948 C 90.609631,217.45815 48.8361,218.23558 45.129182,208.66424 C 38.907044,184.8148 31.646415,157.75468 29.21858,133.90525 z "
         style="fill:#ffffff;fill-opacity:1;stroke:none;stroke-width:4.3039999;stroke-miterlimit:4;stroke-dasharray:none;stroke-opacity:0.91203703;filter:url(#filter3292)" />
      <path
         style="fill:url(#linearGradient2295);fill-opacity:1;fill-rule:nonzero;stroke:none;filter:url(#filter3423)"
         d="M 55.565947,134.13708 C 46.41836,134.37324 40.061938,136.09666 32.205083,140.45681 C 32.155053,121.39648 48.665748,63.951486 54.42313,50.833563 C 61.726452,41.252518 73.616154,43.953086 84.14033,41.328496 C 112.2534,38.137776 139.51321,40.305994 167.69526,40.008443 C 177.23621,40.759038 184.75306,43.234322 189.00448,53.246227 C 194.28936,64.242497 217.83726,137.43653 215.03015,139.14325 C 207.2409,130.81418 191.30863,132.99992 182.5724,132.98204 C 173.83616,132.96416 64.713527,133.90093 55.565947,134.13708 z "
         id="path1391"
         sodipodi:nodetypes="ccccccczz" />
      <path
         style="fill:url(#linearGradient2292);fill-opacity:1;filter:url(#filter3407)"
         d="M 48.22484,84.143424 C 52.420473,72.317298 52.994065,54.130266 64.419648,49.028845 C 78.594589,43.979573 93.622231,43.425383 108.32778,42.281818 C 128.99473,41.786103 149.62306,43.984715 170.29299,43.472261 C 174.5192,43.455225 181.66743,40.070135 185.57655,45.947552 C 189.67368,52.107628 185.17179,57.198525 183.29665,62.221576 C 181.48848,67.065246 186.99334,88.298146 176.3248,79.418438 C 167.72643,77.009141 158.43226,78.090169 149.53207,78.218511 C 126.59083,80.301846 103.56608,80.121692 80.590537,81.339064 C 74.979789,69.289709 60.74009,72.277732 52.334192,77.89227 C 50.7328,79.772505 49.885622,82.319154 48.22484,84.143424 z "
         id="path6111"
         sodipodi:nodetypes="cccczzccccc" />
      <path
         style="fill:#000000;fill-opacity:0.38888885;fill-rule:nonzero;stroke:#ffffff;stroke-width:1.95000005;stroke-miterlimit:4;stroke-dasharray:none;stroke-opacity:0.78240739;filter:url(#filter3499)"
         d="M 74.220894,68.096809 C 71.54101,64.479156 71.673447,58.839496 75.468998,56.004021 C 78.949605,52.973578 84.905282,52.708475 88.090705,56.29773 C 97.631867,58.307127 107.40272,56.462713 117.04015,57.157751 C 130.87655,57.192162 144.71521,57.204792 158.54827,56.856619 C 160.49306,52.44895 166.42882,53.068328 169.7211,55.500674 C 173.00632,57.450426 174.97338,62.140248 172.36046,65.397574 C 169.31056,68.906007 163.48276,66.498576 159.26544,67.160439 C 147.36385,66.96785 135.46082,67.302002 123.55788,67.421388 C 107.33264,67.70701 91.111248,68.17867 74.88565,68.445775 C 74.664064,68.329451 74.442493,68.213101 74.220894,68.096809 z "
         id="path1455" />
      <path
         sodipodi:nodetypes="czzcccccccz"
         id="path1507"
         d="M 32.883254,143.31768 C 31.081565,136.14994 36.186677,135.92349 46.700278,131.62356 C 57.474789,127.21692 174.55925,126.76976 188.51665,128.77246 C 202.41145,130.76616 214.01819,129.07664 213.35481,136.69988 C 210.53732,152.03372 204.66155,191.87648 202.23754,207.29201 C 193.93512,216.22027 181.00507,209.36841 170.74274,212.44242 C 160.08528,214.25528 150.28417,209.84089 141.50948,203.97802 C 132.16351,201.21156 122.2952,202.60095 112.71913,202.05727 C 102.78726,200.30225 98.595946,213.22105 88.844705,212.82803 C 76.711954,211.936 64.449275,212.93677 52.26576,212.38783 C 43.069196,207.95096 34.80611,150.96749 32.883254,143.31768 z "
         style="fill:url(#linearGradient2288);fill-opacity:1;filter:url(#filter3284)" />
      <path
         style="fill:url(#linearGradient2285);fill-opacity:1;filter:url(#filter3447)"
         d="M 191.28017,148.19498 C 156.16953,150.90921 120.91194,150.7485 85.724588,150.32669 C 73.269158,150.14236 60.788482,149.3857 48.394107,148.61367 C 43.945571,148.51659 39.374641,152.11233 40.528463,156.97894 C 41.634542,166.10417 43.979885,175.04014 45.259546,184.16163 C 46.626503,192.65738 48.334697,201.13755 51.492357,209.15512 C 64.435144,209.02006 77.47551,209.4265 90.358106,208.93107 C 96.476686,206.5656 100.45075,199.03635 107.78231,199.81512 C 117.38901,199.06165 127.14708,199.42532 136.658,200.71919 C 145.22723,203.13436 152.5811,210.31698 162.01246,208.98053 C 172.09992,209.27402 182.16636,208.42122 192.22901,207.83916 C 195.88702,191.10722 198.65236,174.15512 201.13495,157.22194 C 201.70697,153.22715 200.04277,147.7017 195.11943,148.30218 C 193.84731,148.05166 192.56429,148.17591 191.28017,148.19498 z M 181.46347,176.10801 C 189.10111,176.20037 188.72926,189.54766 181.66418,190.12013 C 178.80038,188.13984 178.01161,189.66268 174.73301,190.27855 C 170.6034,190.96951 165.85613,189.96946 163.4175,186.20934 C 164.45046,180.23907 171.86557,178.05284 176.68283,180.76018 C 177.24584,178.4833 179.00739,176.22174 181.46347,176.10801 z M 79.282055,181.0382 C 83.797351,181.45845 86.35891,189.06425 81.033733,190.36108 C 77.46301,190.93125 71.273092,191.25591 71.308251,186.09813 C 71.694923,182.38241 76.112011,180.85516 79.282055,181.0382 z "
         id="path1407" />
      <path
         style="fill:#3c424a;display:block;filter:url(#filter3511)"
         d="M 175.50951,181.26944 C 178.1894,183.30111 178.05696,186.46835 174.26141,188.06076 C 170.7808,189.76265 164.82512,189.91153 161.6397,187.89581 C 152.09854,186.76733 142.32768,187.80316 132.69025,187.41282 C 118.85386,187.39349 105.01519,187.3864 91.182131,187.58193 C 89.237344,190.05728 83.301583,189.70944 80.009301,188.34344 C 76.72409,187.24845 74.757028,184.61465 77.369943,182.78533 C 80.419841,180.81499 86.247643,182.16701 90.46496,181.7953 C 102.36656,181.90346 114.26959,181.7158 126.17252,181.64875 C 142.39776,181.48835 158.61916,181.22347 174.84476,181.07346 C 175.06634,181.13879 175.28791,181.20413 175.50951,181.26944 z "
         id="path1519" />
      <g
         id="g3623"
         transform="matrix(0.65,0,0,0.65,58.297175,-96.35115)">
        <path
           id="path2893"
           d="M 198.26135,403.99767 L 214.81534,395.8884 L 224.78436,400.94785 L 224.12415,390.83992 L 233.01656,378.76191 L 222.40647,377.16286 L 213.80219,365.36153 L 205.53429,374.99839 L 191.35066,377.59369 L 202.17706,389.36979 L 198.26135,403.99767 z "
           style="fill:#ffff00;fill-opacity:1;fill-rule:nonzero;stroke:none;stroke-width:6;stroke-miterlimit:4;stroke-opacity:1;display:block" />
        <path
           id="path2154"
           d="M 201.77197,399.78547 L 214.27669,393.6508 L 221.80719,397.47828 L 221.30848,389.83163 L 228.02572,380.69461 L 220.01096,379.48493 L 213.51137,370.55722 L 207.26588,377.84751 L 196.5517,379.81085 L 204.72986,388.71947 L 201.77197,399.78547 z "
           style="fill:url(#radialGradient2378);fill-opacity:1;fill-rule:nonzero;stroke:none;stroke-width:6;stroke-miterlimit:4;stroke-opacity:1" />
      </g>
      <path
         style="opacity:0.63551402;fill:url(#linearGradient2278);fill-opacity:1;fill-rule:nonzero;stroke:none;stroke-width:6;stroke-miterlimit:4;stroke-opacity:1;filter:url(#filter3471)"
         d="M 111.40511,104.45869 L 134.36902,104.45869 C 136.37776,104.45869 137.9949,105.61299 137.9949,107.04681 L 137.9949,118.99898 C 137.9949,120.4328 135.92304,126.13426 133.91431,126.13426 L 111.97351,126.13426 C 109.96477,126.13426 107.89291,120.31912 107.89291,118.8853 L 107.77923,107.04681 C 107.77923,105.61299 109.39637,104.45869 111.40511,104.45869 z "
         id="rect1408"
         sodipodi:nodetypes="ccccccccc" />
    </g>
  </g>
  <g
     inkscape:groupmode="layer"
     id="layer9"
     inkscape:label="propiedad_mas"
     sodipodi:insensitive="true"
     style="display:none">
    <g
       id="g2341"
       style="display:inline"
       transform="matrix(0.806338,0,0,0.806338,-5.091682,2.3862628)">
      <path
         id="path2343"
         d="" />
      <g
         id="g2345"
         style="display:block">
        <g
           id="g6097"
           style="display:block"
           transform="matrix(0.925862,0,0,0.925862,493.5668,41.86428)">
          <path
             id="path3603"
             style="fill:#ffffff;fill-opacity:1;fill-rule:evenodd;stroke:#006900;stroke-width:8.1005621;stroke-miterlimit:4;stroke-opacity:1"
             d="M -191.51536,25.067211 C -191.51536,61.628081 -221.18795,91.300681 -257.74882,91.300681 C -294.3097,91.300681 -323.98229,61.628081 -323.98229,25.067211 C -323.98229,-11.493665 -294.3097,-41.166259 -257.74882,-41.166259 C -221.18795,-41.166259 -191.51536,-11.493665 -191.51536,25.067211 z " />
          <path
             id="polygon1906"
             style="fill:#326400;stroke:none"
             d="M -302.55576,11.965876 L -270.99594,11.965876 L -270.99594,-19.849048 L -244.50173,-19.849048 L -244.50173,11.965876 L -212.9419,11.965876 L -212.9419,38.423643 L -244.50173,38.423643 L -244.50173,69.98347 L -270.99594,69.98347 L -270.99594,38.423643 L -302.55576,38.423643 L -302.55576,11.965876 z " />
        </g>
      </g>
    </g>
  </g>
  <g
     inkscape:groupmode="layer"
     id="layer10"
     inkscape:label="propiedad_menos"
     sodipodi:insensitive="true"
     style="display:none">
    <g
       id="g2734"
       style="opacity:1;display:inline"
       transform="matrix(0.806338,0,0,0.806338,-150.02292,-5.0916723)">
      <path
         id="path2736"
         d="" />
      <g
         id="g2738"
         style="display:block">
        <g
           id="g6091"
           style="display:block"
           transform="matrix(0.925862,0,0,0.925862,565.8858,84.55078)">
          <path
             id="path4848"
             style="fill:#ffffff;fill-opacity:1;fill-rule:evenodd;stroke:#cd0000;stroke-width:8.1005621;stroke-miterlimit:4;stroke-opacity:1"
             d="M -269.62525,184.01896 C -269.62525,220.57983 -299.29784,250.25243 -335.85871,250.25243 C -372.41959,250.25243 -402.09218,220.57983 -402.09218,184.01896 C -402.09218,147.45809 -372.41959,117.78549 -335.85871,117.78549 C -299.29784,117.78549 -269.62525,147.45809 -269.62525,184.01896 z " />
          <path
             id="polygon2119"
             style="fill:#da251d;stroke:none"
             d="M -381.13765,170.52182 L -290.57977,170.52182 L -290.57977,197.51609 L -381.13765,197.51609 L -381.13765,170.52182 z " />
        </g>
      </g>
    </g>
  </g>
  <g
     inkscape:groupmode="layer"
     id="layer11"
     inkscape:label="propiedad_listado"
     sodipodi:insensitive="true"
     style="display:none">
    <g
       id="g2141"
       style="opacity:1;display:inline"
       transform="matrix(0.806338,0,0,0.806338,150.02651,114.9432)">
      <path
         id="path2143"
         d="" />
      <g
         id="layer6"
         style="display:block">
        <g
           id="g6094"
           style="display:block"
           transform="matrix(0.925862,0,0,0.925862,143.7747,118.5623)">
          <path
             id="path4847"
             style="fill:#ffffff;fill-opacity:1;fill-rule:evenodd;stroke:#0000cd;stroke-width:8.1005621;stroke-miterlimit:4;stroke-opacity:1"
             d="M -151.23716,-57.772351 C -151.23716,-21.211475 -151.23716,-49.333221 -151.23716,-12.772347 C -151.23716,23.788523 -121.56457,53.461123 -85.00369,53.461123 C -48.44282,53.461123 -18.77023,23.788523 -18.77023,-12.772347 C -18.77023,-49.333221 -18.77023,-21.211475 -18.77023,-57.772351 C -18.77023,-94.333227 -48.44282,-124.00582 -85.00369,-124.00582 C -121.56457,-124.00582 -151.23716,-94.333227 -151.23716,-57.772351 z " />
          <path
             id="polyline1684"
             style="fill:#0000cd;fill-opacity:1;stroke:none"
             d="M -129.21657,-89.000316 L -129.21657,-73.024359 L -40.79082,-73.024359 L -40.79082,-89.000316 L -129.21657,-89.000316 z M -129.21657,-58.51678 L -129.21657,-42.526137 L -40.79082,-42.526137 L -40.79082,-58.51678 L -129.21657,-58.51678 z M -129.21657,-28.018558 L -129.21657,-12.027911 L -40.79082,-12.027911 L -40.79082,-28.018558 L -129.21657,-28.018558 z M -129.21657,2.4796691 L -129.21657,18.455619 L -40.79082,18.455619 L -40.79082,2.4796691 L -129.21657,2.4796691 z " />
        </g>
      </g>
    </g>
  </g>
</svg>
