<?xml version="1.0" encoding="UTF-8" standalone="no"?>
<!-- Created with Inkscape (http://www.inkscape.org/) -->
<svg
   xmlns:dc="http://purl.org/dc/elements/1.1/"
   xmlns:cc="http://web.resource.org/cc/"
   xmlns:rdf="http://www.w3.org/1999/02/22-rdf-syntax-ns#"
   xmlns:svg="http://www.w3.org/2000/svg"
   xmlns="http://www.w3.org/2000/svg"
   xmlns:xlink="http://www.w3.org/1999/xlink"
   xmlns:sodipodi="http://inkscape.sourceforge.net/DTD/sodipodi-0.dtd"
   xmlns:inkscape="http://www.inkscape.org/namespaces/inkscape"
   width="320.00000"
   height="320.00000"
   id="svg1"
   sodipodi:version="0.32"
   inkscape:version="0.42"
   sodipodi:docbase="/home/raul/docs/iglues/v0.4"
   sodipodi:docname="i_bulmages_ventas_albaran_a_factura.svg"
   version="1.0"
   x="0.0000000"
   y="0.0000000"
   inkscape:export-filename="/home/raul/docs/iglues/v0.4/i_bulmages_ventas_albaran_a_factura.png"
   inkscape:export-xdpi="96.000000"
   inkscape:export-ydpi="96.000000">
  <defs
     id="defs3">
    <linearGradient
       inkscape:collect="always"
       id="linearGradient9952">
      <stop
         style="stop-color:#0000ff;stop-opacity:1;"
         offset="0"
         id="stop9953" />
      <stop
         style="stop-color:#0000ff;stop-opacity:0;"
         offset="1"
         id="stop9954" />
    </linearGradient>
    <linearGradient
       inkscape:collect="always"
       xlink:href="#linearGradient9952"
       id="linearGradient2369"
       gradientUnits="userSpaceOnUse"
       gradientTransform="matrix(0.664395,0.684716,-0.684716,0.664395,124.5953,290.1885)"
       x1="-181.00027"
       y1="65.430992"
       x2="-149.55615"
       y2="65.430992" />
    <linearGradient
       inkscape:collect="always"
       xlink:href="#linearGradient9952"
       id="linearGradient2370"
       gradientUnits="userSpaceOnUse"
       gradientTransform="matrix(0.924683,0.234989,-0.234989,0.924683,142.2812,191.7570)"
       x1="-181.00027"
       y1="65.430992"
       x2="-149.55615"
       y2="65.430992" />
    <linearGradient
       inkscape:collect="always"
       xlink:href="#linearGradient9952"
       id="linearGradient2371"
       gradientUnits="userSpaceOnUse"
       gradientTransform="matrix(0.231054,0.925674,0.925674,-0.231054,-59.19725,392.3917)"
       x1="-181.00027"
       y1="65.430992"
       x2="-149.55615"
       y2="65.430992" />
    <linearGradient
       inkscape:collect="always"
       xlink:href="#linearGradient9952"
       id="linearGradient2372"
       gradientUnits="userSpaceOnUse"
       gradientTransform="matrix(0.954074,-8.217683e-33,0.000000,7.242089,462.6874,-305.0642)"
       x1="-181.00027"
       y1="65.430992"
       x2="-149.55615"
       y2="65.430992" />
    <linearGradient
       inkscape:collect="always"
       xlink:href="#linearGradient9952"
       id="linearGradient3003"
       gradientUnits="userSpaceOnUse"
       gradientTransform="matrix(0.664395,0.684716,-0.684716,0.664395,124.5953,290.1885)"
       x1="-181.00027"
       y1="65.430992"
       x2="-149.55615"
       y2="65.430992" />
    <linearGradient
       inkscape:collect="always"
       xlink:href="#linearGradient9952"
       id="linearGradient3004"
       gradientUnits="userSpaceOnUse"
       gradientTransform="matrix(0.924683,0.234989,-0.234989,0.924683,142.2812,191.7570)"
       x1="-181.00027"
       y1="65.430992"
       x2="-149.55615"
       y2="65.430992" />
    <linearGradient
       inkscape:collect="always"
       xlink:href="#linearGradient9952"
       id="linearGradient3005"
       gradientUnits="userSpaceOnUse"
       gradientTransform="matrix(0.231054,0.925674,0.925674,-0.231054,-59.19725,392.3917)"
       x1="-181.00027"
       y1="65.430992"
       x2="-149.55615"
       y2="65.430992" />
    <linearGradient
       inkscape:collect="always"
       xlink:href="#linearGradient9952"
       id="linearGradient3022"
       gradientUnits="userSpaceOnUse"
       gradientTransform="matrix(-0.954074,8.217683e-33,0.000000,-7.242089,-142.6873,625.0184)"
       x1="-181.00027"
       y1="65.430992"
       x2="-149.55615"
       y2="65.430992" />
    <linearGradient
       inkscape:collect="always"
       xlink:href="#linearGradient9952"
       id="linearGradient3024"
       gradientUnits="userSpaceOnUse"
       gradientTransform="matrix(-8.217683e-33,-0.954074,7.242089,0.000000,-305.0412,-142.6872)"
       x1="-181.00027"
       y1="65.430992"
       x2="-149.55615"
       y2="65.430992" />
    <linearGradient
       inkscape:collect="always"
       xlink:href="#linearGradient9952"
       id="linearGradient3048"
       gradientUnits="userSpaceOnUse"
       gradientTransform="matrix(0.664395,0.684716,-0.684716,0.664395,124.5953,290.1885)"
       x1="-181.00027"
       y1="65.430992"
       x2="-149.55615"
       y2="65.430992" />
    <linearGradient
       inkscape:collect="always"
       xlink:href="#linearGradient9952"
       id="linearGradient3049"
       gradientUnits="userSpaceOnUse"
       gradientTransform="matrix(0.924683,0.234989,-0.234989,0.924683,142.2812,191.7570)"
       x1="-181.00027"
       y1="65.430992"
       x2="-149.55615"
       y2="65.430992" />
    <linearGradient
       inkscape:collect="always"
       xlink:href="#linearGradient9952"
       id="linearGradient3050"
       gradientUnits="userSpaceOnUse"
       gradientTransform="matrix(0.231054,0.925674,0.925674,-0.231054,-59.19725,392.3917)"
       x1="-181.00027"
       y1="65.430992"
       x2="-149.55615"
       y2="65.430992" />
    <linearGradient
       inkscape:collect="always"
       xlink:href="#linearGradient9952"
       id="linearGradient3051"
       gradientUnits="userSpaceOnUse"
       gradientTransform="matrix(0.664395,0.684716,-0.684716,0.664395,124.5953,290.1885)"
       x1="-181.00027"
       y1="65.430992"
       x2="-149.55615"
       y2="65.430992" />
    <linearGradient
       inkscape:collect="always"
       xlink:href="#linearGradient9952"
       id="linearGradient3052"
       gradientUnits="userSpaceOnUse"
       gradientTransform="matrix(0.924683,0.234989,-0.234989,0.924683,142.2812,191.7570)"
       x1="-181.00027"
       y1="65.430992"
       x2="-149.55615"
       y2="65.430992" />
    <linearGradient
       inkscape:collect="always"
       xlink:href="#linearGradient9952"
       id="linearGradient3053"
       gradientUnits="userSpaceOnUse"
       gradientTransform="matrix(0.231054,0.925674,0.925674,-0.231054,-59.19725,392.3917)"
       x1="-181.00027"
       y1="65.430992"
       x2="-149.55615"
       y2="65.430992" />
    <linearGradient
       inkscape:collect="always"
       xlink:href="#linearGradient9952"
       id="linearGradient3055"
       gradientUnits="userSpaceOnUse"
       gradientTransform="matrix(8.217683e-33,0.954074,-7.242089,0.000000,625.0412,462.6871)"
       x1="-181.00027"
       y1="65.430992"
       x2="-149.55615"
       y2="65.430992" />
  </defs>
  <sodipodi:namedview
     id="base"
     pagecolor="#ffffff"
     bordercolor="#666666"
     borderopacity="1.0"
     inkscape:pageopacity="0.0"
     inkscape:pageshadow="2"
     inkscape:zoom="1.6281250"
     inkscape:cx="159.99999"
     inkscape:cy="159.99996"
     inkscape:current-layer="g1271"
     gridspacingy="10.000000pt"
     gridspacingx="10.000000pt"
     gridoriginy="0.0000000pt"
     gridoriginx="0.0000000pt"
     inkscape:window-width="1014"
     inkscape:window-height="689"
     inkscape:window-x="0"
     inkscape:window-y="0"
     showguides="true"
     inkscape:guide-bbox="true" />
  <metadata
     id="metadata4">
    <rdf:RDF>
      <cc:Work
         rdf:about="">
        <dc:format>image/svg+xml</dc:format>
        <dc:type
           rdf:resource="http://purl.org/dc/dcmitype/StillImage" />
        <cc:license
           rdf:resource="http://creativecommons.org/licenses/GPL/2.0/" />
        <dc:title>Botó base (neutre)</dc:title>
        <dc:date>1 d'agost de 2005</dc:date>
        <dc:creator>
          <cc:Agent>
            <dc:title>Raül Martínez i Peris</dc:title>
          </cc:Agent>
        </dc:creator>
        <dc:language>es-ES</dc:language>
        <dc:rights>
          <cc:Agent>
            <dc:title>Raül Martínez i Peris</dc:title>
          </cc:Agent>
        </dc:rights>
        <dc:publisher>
          <cc:Agent>
            <dc:title>Raül Martínez i Peris</dc:title>
          </cc:Agent>
        </dc:publisher>
        <dc:subject>
          <rdf:Bag>
            <rdf:li>iconos</rdf:li>
          </rdf:Bag>
        </dc:subject>
      </cc:Work>
      <cc:License
         rdf:about="http://creativecommons.org/licenses/GPL/2.0/">
        <cc:permits
           rdf:resource="http://web.resource.org/cc/Reproduction" />
        <cc:permits
           rdf:resource="http://web.resource.org/cc/Distribution" />
        <cc:requires
           rdf:resource="http://web.resource.org/cc/Notice" />
        <cc:permits
           rdf:resource="http://web.resource.org/cc/DerivativeWorks" />
        <cc:requires
           rdf:resource="http://web.resource.org/cc/ShareAlike" />
        <cc:requires
           rdf:resource="http://web.resource.org/cc/SourceCode" />
      </cc:License>
    </rdf:RDF>
  </metadata>
  <g
     inkscape:label="Base"
     inkscape:groupmode="layer"
     id="layer1"
     style="display:block"
     sodipodi:insensitive="1">
    <rect
       style="fill:#ffffff;fill-opacity:1.0000000;fill-rule:evenodd;stroke:none;stroke-width:8.9802618;stroke-miterlimit:4.0000000;stroke-opacity:1.0000000"
       id="rect2373"
       width="320.00000"
       height="320.00000"
       x="0.0000000"
       y="0.0000000"
       rx="0.0000000"
       ry="0.0000000" />
  </g>
  <g
     inkscape:groupmode="layer"
     id="layer5"
     inkscape:label="Boto"
     style="display:block"
     sodipodi:insensitive="true">
    <path
       style="fill:url(#linearGradient2372);fill-opacity:1.0000000;fill-rule:evenodd;stroke:none;stroke-width:8.9802618;stroke-miterlimit:4.0000000;stroke-opacity:1.0000000;display:block"
       d="M 289.14954,30.846585 L 320.00000,30.923900 L 320.00000,289.10762 L 289.18429,289.05590 L 289.14954,30.846585 z "
       id="rect10002"
       sodipodi:nodetypes="ccccc" />
    <g
       id="g2064"
       transform="translate(329.5388,79.35008)"
       style="display:block">
      <path
         style="fill:url(#linearGradient2369);fill-opacity:1.0000000;fill-rule:evenodd;stroke:none;stroke-width:8.9802618;stroke-miterlimit:4.0000000;stroke-opacity:1.0000000"
         d="M -13.666605,224.15727 L -19.570525,231.25693 L -25.891519,237.00110 L -40.461822,209.72663 L -13.666605,224.15727 z "
         id="path2053"
         sodipodi:nodetypes="ccccc" />
      <path
         style="fill:url(#linearGradient2370);fill-opacity:1.0000000;fill-rule:evenodd;stroke:none;stroke-width:8.9802618;stroke-miterlimit:4.0000000;stroke-opacity:1.0000000"
         d="M -9.5387644,209.84671 L -11.386019,217.11565 L -13.233279,224.38461 L -40.461822,209.72663 L -9.5387644,209.84671 z "
         id="path2060"
         sodipodi:nodetypes="ccccc" />
      <path
         style="fill:url(#linearGradient2371);fill-opacity:1.0000000;fill-rule:evenodd;stroke:none;stroke-width:8.9802618;stroke-miterlimit:4.0000000;stroke-opacity:1.0000000"
         d="M -40.461822,240.64992 L -33.185084,238.83361 L -25.908336,237.01728 L -40.450347,209.72663 L -40.461822,240.64992 z "
         id="path2062"
         sodipodi:nodetypes="ccccc" />
    </g>
    <g
       id="g2999"
       transform="matrix(0.000000,1.000000,-1.000000,0.000000,240.6499,329.5388)"
       style="display:block">
      <path
         style="fill:url(#linearGradient3003);fill-opacity:1.0000000;fill-rule:evenodd;stroke:none;stroke-width:8.9802618;stroke-miterlimit:4.0000000;stroke-opacity:1.0000000"
         d="M -13.666605,224.15727 L -19.570525,231.25693 L -25.891519,237.00110 L -40.461822,209.72663 L -13.666605,224.15727 z "
         id="path3000"
         sodipodi:nodetypes="ccccc" />
      <path
         style="fill:url(#linearGradient3004);fill-opacity:1.0000000;fill-rule:evenodd;stroke:none;stroke-width:8.9802618;stroke-miterlimit:4.0000000;stroke-opacity:1.0000000"
         d="M -9.5387644,209.84671 L -11.386019,217.11565 L -13.233279,224.38461 L -40.461822,209.72663 L -9.5387644,209.84671 z "
         id="path3001"
         sodipodi:nodetypes="ccccc" />
      <path
         style="fill:url(#linearGradient3005);fill-opacity:1.0000000;fill-rule:evenodd;stroke:none;stroke-width:8.9802618;stroke-miterlimit:4.0000000;stroke-opacity:1.0000000"
         d="M -40.461822,240.64992 L -33.185084,238.83361 L -25.908336,237.01728 L -40.450347,209.72663 L -40.461822,240.64992 z "
         id="path3002"
         sodipodi:nodetypes="ccccc" />
    </g>
    <g
       id="g3006"
       transform="matrix(0.000000,-1.000000,1.000000,0.000000,79.35008,-9.538764)"
       style="display:block">
      <path
         style="fill:url(#linearGradient3051);fill-opacity:1.0000000;fill-rule:evenodd;stroke:none;stroke-width:8.9802618;stroke-miterlimit:4.0000000;stroke-opacity:1.0000000"
         d="M -13.666605,224.15727 L -19.570525,231.25693 L -25.891519,237.00110 L -40.461822,209.72663 L -13.666605,224.15727 z "
         id="path3007"
         sodipodi:nodetypes="ccccc" />
      <path
         style="fill:url(#linearGradient3052);fill-opacity:1.0000000;fill-rule:evenodd;stroke:none;stroke-width:8.9802618;stroke-miterlimit:4.0000000;stroke-opacity:1.0000000"
         d="M -9.5387644,209.84671 L -11.386019,217.11565 L -13.233279,224.38461 L -40.461822,209.72663 L -9.5387644,209.84671 z "
         id="path3008"
         sodipodi:nodetypes="ccccc" />
      <path
         style="fill:url(#linearGradient3053);fill-opacity:1.0000000;fill-rule:evenodd;stroke:none;stroke-width:8.9802618;stroke-miterlimit:4.0000000;stroke-opacity:1.0000000"
         d="M -40.461822,240.64992 L -33.185084,238.83361 L -25.908336,237.01728 L -40.450347,209.72663 L -40.461822,240.64992 z "
         id="path3009"
         sodipodi:nodetypes="ccccc" />
    </g>
    <g
       id="g3010"
       transform="matrix(-1.000000,0.000000,0.000000,-1.000000,-9.538764,240.6500)"
       style="display:block">
      <path
         style="fill:url(#linearGradient3048);fill-opacity:1.0000000;fill-rule:evenodd;stroke:none;stroke-width:8.9802618;stroke-miterlimit:4.0000000;stroke-opacity:1.0000000"
         d="M -13.666605,224.15727 L -19.570525,231.25693 L -25.891519,237.00110 L -40.461822,209.72663 L -13.666605,224.15727 z "
         id="path3011"
         sodipodi:nodetypes="ccccc" />
      <path
         style="fill:url(#linearGradient3049);fill-opacity:1.0000000;fill-rule:evenodd;stroke:none;stroke-width:8.9802618;stroke-miterlimit:4.0000000;stroke-opacity:1.0000000"
         d="M -9.5387644,209.84671 L -11.386019,217.11565 L -13.233279,224.38461 L -40.461822,209.72663 L -9.5387644,209.84671 z "
         id="path3012"
         sodipodi:nodetypes="ccccc" />
      <path
         style="fill:url(#linearGradient3050);fill-opacity:1.0000000;fill-rule:evenodd;stroke:none;stroke-width:8.9802618;stroke-miterlimit:4.0000000;stroke-opacity:1.0000000"
         d="M -40.461822,240.64992 L -33.185084,238.83361 L -25.908336,237.01728 L -40.450347,209.72663 L -40.461822,240.64992 z "
         id="path3013"
         sodipodi:nodetypes="ccccc" />
    </g>
    <path
       style="fill:url(#linearGradient3022);fill-opacity:1.0000000;fill-rule:evenodd;stroke:none;stroke-width:8.9802618;stroke-miterlimit:4.0000000;stroke-opacity:1.0000000;display:block"
       d="M 30.850460,289.10762 L 1.1102230e-16,289.03030 L 1.1102230e-16,30.846580 L 30.815710,30.898300 L 30.850460,289.10762 z "
       id="path3021"
       sodipodi:nodetypes="ccccc" />
    <path
       style="fill:url(#linearGradient3024);fill-opacity:1.0000000;fill-rule:evenodd;stroke:none;stroke-width:8.9802618;stroke-miterlimit:4.0000000;stroke-opacity:1.0000000;display:block"
       d="M 30.869480,30.850460 L 30.946800,-5.6843419e-14 L 289.13052,-5.6843419e-14 L 289.07880,30.815710 L 30.869480,30.850460 z "
       id="path3023"
       sodipodi:nodetypes="ccccc" />
    <path
       style="fill:url(#linearGradient3055);fill-opacity:1.0000000;fill-rule:evenodd;stroke:none;stroke-width:8.9802618;stroke-miterlimit:4.0000000;stroke-opacity:1.0000000;display:block"
       d="M 289.13052,289.14954 L 289.05320,320.00000 L 30.869480,320.00000 L 30.921200,289.18429 L 289.13052,289.14954 z "
       id="path3054"
       sodipodi:nodetypes="ccccc" />
    <rect
       style="fill:#0000ff;fill-opacity:0.78431374;fill-rule:evenodd;stroke:none;stroke-width:15.000000;stroke-miterlimit:4.0000000;stroke-opacity:1.0000000"
       id="rect3057"
       width="265.03928"
       height="265.03928"
       x="27.480362"
       y="27.480362" />
    <rect
       style="fill:#ffffff;fill-opacity:0.85537916;fill-rule:evenodd;stroke:none;stroke-width:8.9802618;stroke-miterlimit:4.0000000;stroke-opacity:1.0000000;display:block"
       id="rect5542"
       width="320.00000"
       height="320.00000"
       x="0.0000000"
       y="-2.8421709e-14"
       rx="0.0000000"
       ry="0.0000000" />
    <path
       style="fill:#ffffff;fill-opacity:1.0000000;fill-rule:evenodd;stroke:none;stroke-width:15.000000;stroke-miterlimit:4.0000000;stroke-opacity:1.0000000"
       d="M 55.447085,279.42244 L 39.870165,279.40523 L 39.870165,40.016405 L 279.48124,40.016405 L 279.48407,55.593328 L 55.447085,55.593328 L 55.447085,279.42244 z "
       id="path1115"
       sodipodi:nodetypes="ccccccc" />
    <path
       style="fill:#000000;fill-opacity:1.0000000;fill-rule:evenodd;stroke:none;stroke-width:15.000000;stroke-miterlimit:4.0000000;stroke-opacity:1.0000000"
       d="M 25.278887,304.26430 L 25.302367,295.21564 L 294.76719,295.21564 L 294.76719,25.329996 L 303.81585,25.225167 L 303.81585,304.26430 L 25.278887,304.26430 z "
       id="path1119"
       sodipodi:nodetypes="ccccccc" />
    <path
       id="rect6786"
       style="opacity:0.39999983;fill:#0000ff;fill-opacity:1.0000000;fill-rule:evenodd;stroke:none;stroke-width:15.000000;stroke-miterlimit:4.0000000;stroke-opacity:1.0000000"
       d="M 25.000001,25.000000 L 295.00000,25.000000 L 295.00000,295.00000 L 25.000001,295.00000 L 25.000001,25.000000 z M 40.576924,40.576923 L 279.42307,40.576923 L 279.42307,279.42307 L 40.576924,279.42307 L 40.576924,40.576923 z " />
  </g>
  <path
     d=""
     id="path3081" />
  <g
     id="g1271"
     inkscape:groupmode="layer"
     inkscape:label="Dibuix"
     transform="translate(184.5158,-340.6444)"
     style="display:block">
    <g
       id="g1459"
       inkscape:label="Layer 1"
       transform="matrix(0.463792,0.000000,0.000000,0.463792,-272.8634,305.8495)">
      <g
         transform="translate(-148.0062,354.9771)"
         id="g2370">
        <path
           id="path1714"
           d="M 379.86791,71.045808 L 584.71600,71.045814 L 584.71599,352.29577 L 379.86790,352.29576 L 379.86791,71.045808 z "
           style="fill:#ffffff;fill-opacity:1.0000000;stroke:none;display:block" />
        <path
           id="path1071"
           d="M 383.77713,75.467798 L 580.93496,75.467804 L 580.93495,347.87378 L 383.77713,347.87377 L 383.77713,75.467798 z "
           style="fill:#1f1a17;stroke:none;display:block" />
        <path
           id="path84"
           d="M 390.05849,81.236395 L 574.52541,81.236401 L 574.52540,342.10518 L 390.05849,342.10518 L 390.05849,81.236395 z "
           style="fill:#ffffff;fill-opacity:1.0000000;stroke:none;display:block" />
        <polygon
           style="fill:#326400;fill-opacity:1.0000000;stroke:none;display:block"
           transform="matrix(0.128191,3.670576e-9,-3.670576e-9,0.128191,-774.1725,-348.4600)"
           id="polygon82"
           points="9208.0000,3423.0000 10429.000,3423.0000 10429.000,3627.0000 9208.0000,3627.0000 9208.0000,3423.0000 " />
        <polygon
           style="fill:#a9a9a9;fill-opacity:1.0000000;stroke:none"
           transform="matrix(0.135957,0.000000,0.000000,0.135957,-1863.735,-575.5206)"
           id="polygon462"
           points="17299.000,5183.0000 17318.000,5186.0000 17334.000,5193.0000 17348.000,5200.0000 17360.000,5209.0000 17372.000,5223.0000 17382.000,5237.0000 17391.000,5254.0000 17401.000,5273.0000 17413.000,5316.0000 17424.000,5361.0000 17434.000,5413.0000 17444.000,5465.0000 17453.000,5517.0000 17464.000,5571.0000 17478.000,5621.0000 17495.000,5668.0000 17507.000,5692.0000 17519.000,5713.0000 17531.000,5732.0000 17548.000,5749.0000 17564.000,5765.0000 17580.000,5779.0000 17602.000,5791.0000 17625.000,5801.0000 17639.000,5808.0000 17651.000,5815.0000 17666.000,5827.0000 17678.000,5838.0000 17687.000,5850.0000 17696.000,5865.0000 17704.000,5879.0000 17711.000,5893.0000 17715.000,5907.0000 17718.000,5922.0000 17718.000,5936.0000 17715.000,5950.0000 17711.000,5962.0000 17706.000,5971.0000 17694.000,5981.0000 17682.000,5988.0000 17675.000,5988.0000 17670.000,5988.0000 17666.000,5983.0000 17664.000,5979.0000 17659.000,5959.0000 17654.000,5938.0000 17651.000,5917.0000 17647.000,5895.0000 17642.000,5886.0000 17637.000,5879.0000 17633.000,5872.0000 17625.000,5867.0000 17609.000,5863.0000 17592.000,5858.0000 17580.000,5855.0000 17569.000,5855.0000 17557.000,5855.0000 17550.000,5858.0000 17540.000,5863.0000 17535.000,5865.0000 17531.000,5872.0000 17526.000,5877.0000 17524.000,5883.0000 17521.000,5893.0000 17521.000,5909.0000 17524.000,5928.0000 17533.000,5969.0000 17548.000,6007.0000 17559.000,6033.0000 17566.000,6042.0000 17554.000,6047.0000 17545.000,6047.0000 17535.000,6042.0000 17526.000,6038.0000 17517.000,6026.0000 17507.000,6013.0000 17498.000,5997.0000 17491.000,5981.0000 17472.000,5938.0000 17455.000,5888.0000 17438.000,5836.0000 17419.000,5777.0000 17401.000,5720.0000 17382.000,5661.0000 17363.000,5604.0000 17342.000,5555.0000 17330.000,5531.0000 17320.000,5507.0000 17308.000,5488.0000 17294.000,5470.0000 17283.000,5455.0000 17268.000,5441.0000 17254.000,5432.0000 17240.000,5425.0000 17226.000,5420.0000 17214.000,5410.0000 17199.000,5401.0000 17188.000,5389.0000 17178.000,5375.0000 17169.000,5363.0000 17159.000,5349.0000 17155.000,5332.0000 17150.000,5318.0000 17148.000,5304.0000 17148.000,5290.0000 17148.000,5278.0000 17153.000,5266.0000 17159.000,5254.0000 17169.000,5245.0000 17183.000,5240.0000 17190.000,5237.0000 17195.000,5237.0000 17199.000,5242.0000 17202.000,5250.0000 17207.000,5266.0000 17212.000,5287.0000 17214.000,5309.0000 17218.000,5330.0000 17221.000,5339.0000 17226.000,5349.0000 17233.000,5353.0000 17240.000,5358.0000 17271.000,5368.0000 17297.000,5372.0000 17306.000,5372.0000 17315.000,5370.0000 17323.000,5368.0000 17330.000,5366.0000 17334.000,5361.0000 17339.000,5356.0000 17342.000,5351.0000 17344.000,5344.0000 17346.000,5330.0000 17346.000,5313.0000 17344.000,5294.0000 17339.000,5278.0000 17332.000,5259.0000 17325.000,5240.0000 17311.000,5207.0000 17299.000,5183.0000 " />
        <path
           style="fill:#a9a9a9;fill-opacity:1.0000000;stroke:none"
           id="path463"
           d="M 490.12024,289.57558 L 488.46284,287.44463 L 486.45028,285.43207 L 484.79287,284.01143 L 483.37224,282.82757 L 481.71484,281.99887 L 480.29421,281.40694 L 478.87357,281.40694 L 477.45294,281.40694 L 476.38747,281.99887 L 474.96684,282.82757 L 473.78298,283.77466 L 472.71750,285.07691 L 470.46817,288.51010 L 468.21883,293.00877 L 471.29687,291.23298 L 473.78298,290.16751 L 476.38747,289.33880 L 478.63680,289.10203 L 483.72740,289.10203 L 490.12024,289.57558 z M 440.75328,239.14314 L 437.43847,234.99963 L 435.18914,232.39514 L 434.00528,231.92159 L 433.29496,231.56644 L 432.58465,231.56644 L 432.11110,231.92159 L 430.92724,233.34223 L 429.86177,236.06510 L 428.44114,239.73507 L 426.54696,244.23374 L 430.92724,241.15570 L 432.93981,239.14314 L 434.00528,238.90637 L 435.42591,238.66960 L 437.43847,238.90637 L 440.75328,239.14314 z M 506.81267,319.52724 L 504.44495,318.81692 L 502.43239,318.46176 L 501.24853,318.81692 L 500.18305,319.52724 L 499.11758,320.71110 L 497.93372,321.77657 L 495.92116,322.96043 L 493.43505,324.02590 L 489.76509,325.20976 L 486.68705,326.03847 L 484.20094,326.51201 L 481.71484,326.86717 L 480.53098,326.51201 L 479.46550,326.51201 L 478.40003,326.03847 L 477.21617,325.80169 L 474.96684,324.02590 L 472.71750,321.77657 L 469.87624,318.81692 L 467.62690,315.62050 L 465.37757,312.54246 L 463.72017,309.81958 L 462.29953,306.97832 L 461.23406,304.49221 L 460.40536,301.65095 L 459.81343,299.16484 L 459.81343,296.32358 L 460.05020,293.83747 L 460.40536,290.99621 L 461.47083,288.15494 L 462.65469,285.43207 L 464.07532,282.59080 L 465.96950,279.51277 L 468.21883,276.43473 L 470.23140,276.07957 L 471.88880,275.84280 L 472.12557,274.42217 L 472.12557,273.35669 L 472.12557,271.93606 L 471.88880,270.75220 L 471.29687,270.04189 L 470.46817,268.85803 L 469.63947,268.02932 L 468.81076,267.20062 L 467.62690,266.60869 L 466.56143,266.01676 L 465.37757,265.77999 L 464.31210,265.42483 L 462.89146,265.42483 L 461.70760,265.77999 L 460.64213,266.01676 L 459.57666,266.60869 L 456.14346,268.62125 L 453.06543,270.04189 L 450.34255,271.34413 L 447.50128,272.17283 L 445.01518,272.76476 L 442.17391,273.11992 L 439.92458,273.11992 L 437.43847,272.52799 L 434.95237,271.93606 L 432.58465,270.75220 L 430.09854,269.44996 L 427.61244,267.79255 L 425.12633,265.42483 L 422.52184,263.29388 L 419.79896,260.45262 L 416.95770,257.37458 L 414.47159,254.29655 L 412.45903,251.69206 L 411.15678,249.32434 L 409.97292,246.95662 L 409.38099,245.06244 L 409.38099,243.40504 L 409.38099,241.62925 L 409.97292,239.97184 L 410.80162,238.31444 L 411.86710,236.89381 L 413.05096,235.23640 L 414.70836,233.93416 L 418.37833,230.26419 L 422.28507,226.23907 L 421.69314,224.58166 L 421.21959,223.27942 L 422.52184,221.26685 L 423.94247,219.60945 L 425.36310,218.42559 L 427.02051,217.59689 L 428.44114,217.24173 L 430.09854,217.00496 L 431.51917,217.00496 L 433.29496,217.59689 L 434.59721,218.18882 L 436.25461,219.01752 L 437.91202,220.20138 L 439.68781,221.50363 L 442.64746,224.34489 L 445.84388,228.01486 L 448.92192,231.92159 L 451.64479,236.06510 L 454.48606,240.32700 L 456.97216,244.47051 L 461.47083,251.69206 L 464.66725,256.78265 L 465.37757,257.96651 L 466.56143,259.03199 L 467.98206,259.62392 L 469.04754,260.45262 L 471.65203,261.63648 L 473.54620,263.05711 L 474.73006,265.18806 L 475.44038,267.79255 L 476.03231,269.09480 L 476.62424,270.27866 L 477.45294,271.34413 L 478.40003,272.52799 L 489.52831,281.40694 L 500.18305,289.81235 L 502.43239,292.06168 L 504.68172,294.42940 L 506.57590,296.79712 L 508.58846,299.75677 L 510.24586,302.83481 L 511.66650,306.14962 L 512.85036,309.81958 L 513.56067,313.48955 L 513.56067,314.55502 L 513.32390,315.38373 L 512.49520,316.21243 L 511.42972,317.04113 L 508.82523,318.22499 L 506.81267,319.52724 z " />
        <path
           id="polygon78"
           d="M 568.75687,329.79886 C 564.02482,334.43930 557.26130,335.88416 550.85923,336.19436 C 544.79785,336.68944 538.70254,336.22961 532.77812,334.86777 C 527.11233,333.83425 521.88475,331.10188 517.63829,327.23190 C 512.45198,323.06265 508.79180,317.21513 507.03845,310.81774 C 506.02755,308.51195 506.54405,303.95401 502.71821,305.13106 C 500.38328,305.47163 495.79925,305.72644 498.74142,302.27151 C 499.18621,299.19837 501.83817,298.04080 504.51547,298.64047 C 505.10741,296.03110 504.27163,293.11686 505.10039,290.43287 C 503.30669,287.96167 499.16450,290.19972 496.37464,289.37951 C 494.78837,288.68178 497.41507,285.74278 497.73758,284.14605 C 499.67098,281.29287 504.13723,284.72624 506.13487,281.94804 C 506.73861,278.41053 508.12887,274.97001 509.50967,271.62991 C 511.46019,267.56367 514.09242,263.75301 517.76950,261.05998 C 521.99935,257.13802 527.30139,254.43412 532.97182,253.34545 C 541.15367,251.07928 549.86277,251.19135 558.06875,253.26653 C 560.84238,254.13326 563.76604,254.80239 566.33115,256.22813 C 569.11220,257.90608 568.24025,262.13417 567.24226,264.52499 C 563.88966,263.13925 560.20800,261.65888 556.42035,261.49963 C 551.25665,261.37551 545.81339,261.36500 541.14917,263.89501 C 534.76796,266.54564 530.19223,272.56088 528.12775,279.03354 C 526.84447,280.73094 526.62978,284.31763 529.76589,283.00911 C 538.91715,283.00911 548.06842,283.00911 557.21968,283.00911 C 555.61475,285.29728 555.64126,290.21388 551.67757,289.41867 C 543.09874,289.41868 534.51990,289.41867 525.94106,289.41867 C 526.01349,292.26444 524.47770,297.20687 526.79665,298.77661 C 534.41657,298.77663 542.03649,298.77661 549.65641,298.77661 C 548.28938,301.65677 547.76238,306.59392 543.27601,305.18616 C 537.62589,305.18616 531.97576,305.18616 526.32563,305.18616 C 527.81857,310.70077 529.91909,316.48534 534.62366,320.07138 C 537.71821,323.39645 542.23110,324.87043 546.44846,326.14901 C 552.08393,326.78945 557.96061,326.86919 563.43804,325.27204 C 565.89793,323.42348 568.92716,322.16264 568.33624,326.49393 C 568.47646,327.59556 568.61669,328.69722 568.75687,329.79886 z "
           style="fill:#1f1a17;stroke:none;display:block" />
      </g>
    </g>
    <g
       id="g1496"
       inkscape:label="Layer 1"
       transform="matrix(0.737940,0.000000,0.000000,0.737940,-232.2508,75.21693)">
      <g
         inkscape:export-ydpi="96.000000"
         inkscape:export-xdpi="96.000000"
         inkscape:export-filename="/home/raul/iglues/nous dissenys/png/i_bulmages_ventas_facturas.png"
         transform="matrix(0.851270,2.437496e-8,-2.437496e-8,0.851270,39.88734,168.8861)"
         id="g1715"
         style="display:block">
        <path
           id="path1499"
           d="M 285.92910,234.93603 L 526.56731,234.93603 L 526.56731,565.32469 L 285.92910,565.32469 L 285.92910,234.93603 z "
           style="fill:#ffffff;fill-opacity:1.0000000;stroke:none" />
        <path
           id="path1501"
           d="M 290.52133,240.13061 L 522.12567,240.13061 L 522.12567,560.13011 L 290.52133,560.13011 L 290.52133,240.13061 z "
           style="fill:#1f1a17;stroke:none" />
        <path
           id="path1503"
           d="M 297.90014,246.90707 L 514.59627,246.90707 L 514.59627,553.35365 L 297.90014,553.35365 L 297.90014,246.90707 z "
           style="fill:#ffffff;fill-opacity:1.0000000;stroke:none" />
        <path
           id="path1505"
           d="M 507.81989,538.89722 C 502.26108,544.34842 494.31586,546.04572 486.79525,546.41012 C 479.67486,546.99170 472.51460,546.45153 465.55510,544.85175 C 458.89941,543.63766 452.75849,540.42791 447.77010,535.88178 C 441.67766,530.98410 437.37800,524.11492 435.31831,516.59981 C 434.13079,513.89117 434.73753,508.53688 430.24325,509.91958 C 427.50038,510.31966 422.11545,510.61898 425.57166,506.56043 C 426.09416,502.95036 429.20946,501.59055 432.35452,502.29499 C 433.04988,499.22972 432.06808,495.80632 433.04164,492.65339 C 430.93455,489.75043 426.06866,492.37951 422.79136,491.41599 C 420.92795,490.59636 424.01357,487.14387 424.39243,485.26817 C 426.66363,481.91649 431.91020,485.94973 434.25686,482.68613 C 434.96608,478.53056 436.59924,474.48893 438.22129,470.56526 C 440.51259,465.78859 443.60471,461.31215 447.92424,458.14860 C 452.89311,453.54142 459.12149,450.36510 465.78264,449.08623 C 475.39398,446.42412 485.62470,446.55577 495.26439,448.99352 C 498.52261,450.01168 501.95708,450.79772 504.97036,452.47255 C 508.23730,454.44367 507.21301,459.41047 506.04065,462.21900 C 502.10230,460.59115 497.77740,458.85214 493.32799,458.66507 C 487.26211,458.51926 480.86783,458.50691 475.38869,461.47896 C 467.89259,464.59269 462.51741,471.65889 460.09223,479.26242 C 458.58474,481.25639 458.33255,485.46972 462.01658,483.93259 C 472.76671,483.93259 483.51684,483.93259 494.26697,483.93259 C 492.38164,486.62053 492.41278,492.39614 487.75657,491.46199 C 477.67888,491.46201 467.60119,491.46199 457.52350,491.46199 C 457.60858,494.80496 455.80446,500.61091 458.52857,502.45491 C 467.47981,502.45493 476.43104,502.45491 485.38228,502.45491 C 483.77641,505.83828 483.15734,511.63802 477.88713,509.98431 C 471.24984,509.98431 464.61255,509.98431 457.97526,509.98431 C 459.72903,516.46240 462.19655,523.25763 467.72308,527.47021 C 471.35830,531.37622 476.65966,533.10772 481.61386,534.60969 C 488.23393,535.36203 495.13736,535.45570 501.57178,533.57950 C 504.46145,531.40797 508.01993,529.92684 507.32577,535.01487 C 507.49049,536.30898 507.65522,537.60311 507.81989,538.89722 z "
           style="fill:#1f1a17;stroke:none" />
        <path
           id="path80"
           d="M 452.25284,375.20804 C 448.44921,371.91931 443.91550,368.19542 438.62328,368.43158 C 434.65995,368.98082 432.32024,372.85943 430.97743,376.35713 C 430.17477,378.46983 427.04407,386.30197 430.91373,382.04924 C 435.51873,377.32225 442.24040,376.03234 448.57084,375.57625 C 449.79817,375.45351 451.02551,375.33078 452.25284,375.20804 z M 386.59647,330.03165 C 383.42855,327.85043 377.67438,320.08923 374.57917,325.09346 C 373.28781,329.02179 372.02939,335.82293 372.09888,338.19008 C 375.08921,335.77592 376.99708,331.54895 380.84682,330.59180 C 382.74959,330.27061 384.67682,330.19237 386.59647,330.03165 z M 477.55161,404.87387 C 471.42299,402.61755 469.07113,408.53201 465.26735,411.72574 C 460.34776,414.51776 455.28008,417.51383 449.68441,418.54344 C 444.10703,418.71848 439.45905,414.67684 435.44021,411.22090 C 429.31963,405.68099 422.62587,399.75902 420.66612,391.37030 C 418.09833,382.61683 421.44262,373.47529 425.14700,365.57041 C 431.79692,365.30811 428.91410,356.69492 424.33166,355.47251 C 420.67361,353.26068 415.70722,353.84020 412.72314,356.99796 C 408.80028,360.52750 404.39513,363.74979 399.59209,365.91570 C 394.59551,368.14968 388.75893,368.23438 383.53193,366.83530 C 374.89436,363.97718 367.96589,357.79300 360.60718,352.68227 C 357.44031,349.53674 353.64391,346.56676 352.73395,341.92497 C 351.20481,336.60186 355.21530,331.46939 358.09108,327.25022 C 360.51188,323.57981 364.41566,319.94286 361.68739,315.84830 C 363.10648,310.68353 368.16732,306.89691 373.57417,307.62031 C 378.14269,308.64756 382.16744,311.17050 386.16015,313.53824 C 396.83342,321.86477 405.57100,332.31134 414.73211,342.20332 C 417.26396,345.86582 421.26061,347.71446 425.59876,348.10220 C 430.96569,350.86366 432.60786,358.01788 438.35434,360.24718 C 448.08074,365.11475 457.60607,370.42332 467.11872,375.65314 C 473.82163,380.69295 479.65324,387.07617 482.81331,394.93478 C 486.48446,399.53521 479.71908,401.67540 477.55161,404.87387 z "
           style="fill:#aaa9a9;stroke:none" />
        <polygon
           style="fill:#326400;stroke:none"
           transform="matrix(0.150588,0.000000,0.000000,0.150588,-1069.740,-257.8639)"
           id="polygon1508"
           points="9208.0000,3423.0000 10429.000,3423.0000 10429.000,3627.0000 9208.0000,3627.0000 9208.0000,3423.0000 " />
        <polygon
           style="fill:#326400;stroke:none"
           transform="matrix(0.150588,0.000000,0.000000,0.150588,-1069.740,-257.8639)"
           id="polygon86"
           points="9111.0000,4735.0000 9442.0000,4735.0000 9442.0000,4401.0000 9721.0000,4401.0000 9721.0000,4735.0000 10052.000,4735.0000 10052.000,5014.0000 9721.0000,5014.0000 9721.0000,5345.0000 9442.0000,5345.0000 9442.0000,5014.0000 9111.0000,5014.0000 9111.0000,4735.0000 " />
      </g>
    </g>
    <path
       id="path1490"
       style="fill:#c20000;fill-opacity:1.0000000;fill-rule:nonzero;stroke:#c20000;stroke-width:8.4864655;stroke-linecap:butt;stroke-linejoin:miter;stroke-miterlimit:4.0000000;stroke-dasharray:none;stroke-opacity:1.0000000"
       d="M -107.85474,571.40260 C -109.03201,564.74669 -108.84493,558.20179 -107.70288,551.53096 C -105.61140,541.73436 -102.07170,532.35449 -97.564409,523.34057 C -91.584289,511.03390 -82.274389,500.51704 -73.059961,490.25264 C -59.624859,476.62257 -46.938717,462.08532 -31.004090,450.94193 C -22.005183,444.66443 -12.350746,439.85084 -1.7018171,437.29857 L -16.402510,448.01379 C -24.431691,449.98995 -52.917828,462.29687 -13.902880,444.62286 C -30.277133,455.38441 -43.340553,469.70562 -56.556882,483.67107 C -65.583649,493.84568 -74.959938,504.07557 -80.915969,516.19671 C -85.348699,525.12455 -89.121999,534.26402 -91.236199,543.96497 C -92.474839,550.46869 -92.909429,556.92651 -91.098349,563.36144 L -107.85474,571.40260 z M -106.41083,427.64126 C -83.974029,424.48055 -59.437095,422.80360 -36.245489,421.02782 C -24.046386,419.91633 -11.786648,420.16420 0.44937492,420.26318 C 20.088150,419.31423 22.180578,424.32559 17.308657,441.45627 C 11.072926,461.74715 4.1080689,481.82849 2.4365529,503.00889 C 2.3980069,506.95833 1.8154409,510.86951 1.3337879,514.78552 L -15.172195,522.52471 C -14.720554,518.59014 -14.072245,514.67974 -13.936826,510.72227 C -11.697821,489.37238 -4.5722721,469.08298 1.6041359,448.53349 C 5.7954639,432.17305 3.8801669,429.49263 -14.244025,430.31527 C -26.264090,430.38038 -38.292970,430.16075 -50.301545,430.78668 C -74.091335,432.05785 -98.373829,433.89448 -121.62532,438.05223 L -106.41083,427.64126 z " />
  </g>
</svg>
