<?xml version="1.0" encoding="UTF-8" standalone="no"?>
<!-- Created with Inkscape (http://www.inkscape.org/) -->
<svg
   xmlns:dc="http://purl.org/dc/elements/1.1/"
   xmlns:cc="http://web.resource.org/cc/"
   xmlns:rdf="http://www.w3.org/1999/02/22-rdf-syntax-ns#"
   xmlns:svg="http://www.w3.org/2000/svg"
   xmlns="http://www.w3.org/2000/svg"
   xmlns:xlink="http://www.w3.org/1999/xlink"
   xmlns:sodipodi="http://inkscape.sourceforge.net/DTD/sodipodi-0.dtd"
   xmlns:inkscape="http://www.inkscape.org/namespaces/inkscape"
   width="320.00000"
   height="320.00000"
   id="svg1"
   sodipodi:version="0.32"
   inkscape:version="0.42"
   sodipodi:docbase="/home/raul/docs/iglues/v0.4/svg"
   sodipodi:docname="i_bulmages_articulos_familias_mas.svg"
   version="1.0"
   x="0.0000000"
   y="0.0000000"
   inkscape:export-filename="/home/raul/arxius/iglues/nous dissenys/png/i_bulmages_articulos_familias_mas.png"
   inkscape:export-xdpi="96.000000"
   inkscape:export-ydpi="96.000000">
  <defs
     id="defs3">
    <linearGradient
       inkscape:collect="always"
       id="linearGradient9952">
      <stop
         style="stop-color:#0000ff;stop-opacity:1;"
         offset="0"
         id="stop9953" />
      <stop
         style="stop-color:#0000ff;stop-opacity:0;"
         offset="1"
         id="stop9954" />
    </linearGradient>
    <linearGradient
       inkscape:collect="always"
       xlink:href="#linearGradient9952"
       id="linearGradient2369"
       gradientUnits="userSpaceOnUse"
       gradientTransform="matrix(0.664395,0.684716,-0.684716,0.664395,124.5953,290.1885)"
       x1="-181.00027"
       y1="65.430992"
       x2="-149.55615"
       y2="65.430992" />
    <linearGradient
       inkscape:collect="always"
       xlink:href="#linearGradient9952"
       id="linearGradient2370"
       gradientUnits="userSpaceOnUse"
       gradientTransform="matrix(0.924683,0.234989,-0.234989,0.924683,142.2812,191.7570)"
       x1="-181.00027"
       y1="65.430992"
       x2="-149.55615"
       y2="65.430992" />
    <linearGradient
       inkscape:collect="always"
       xlink:href="#linearGradient9952"
       id="linearGradient2371"
       gradientUnits="userSpaceOnUse"
       gradientTransform="matrix(0.231054,0.925674,0.925674,-0.231054,-59.19725,392.3917)"
       x1="-181.00027"
       y1="65.430992"
       x2="-149.55615"
       y2="65.430992" />
    <linearGradient
       inkscape:collect="always"
       xlink:href="#linearGradient9952"
       id="linearGradient2372"
       gradientUnits="userSpaceOnUse"
       gradientTransform="matrix(0.954074,-8.217683e-33,0.000000,7.242089,462.6874,-305.0642)"
       x1="-181.00027"
       y1="65.430992"
       x2="-149.55615"
       y2="65.430992" />
    <linearGradient
       inkscape:collect="always"
       xlink:href="#linearGradient9952"
       id="linearGradient3003"
       gradientUnits="userSpaceOnUse"
       gradientTransform="matrix(0.664395,0.684716,-0.684716,0.664395,124.5953,290.1885)"
       x1="-181.00027"
       y1="65.430992"
       x2="-149.55615"
       y2="65.430992" />
    <linearGradient
       inkscape:collect="always"
       xlink:href="#linearGradient9952"
       id="linearGradient3004"
       gradientUnits="userSpaceOnUse"
       gradientTransform="matrix(0.924683,0.234989,-0.234989,0.924683,142.2812,191.7570)"
       x1="-181.00027"
       y1="65.430992"
       x2="-149.55615"
       y2="65.430992" />
    <linearGradient
       inkscape:collect="always"
       xlink:href="#linearGradient9952"
       id="linearGradient3005"
       gradientUnits="userSpaceOnUse"
       gradientTransform="matrix(0.231054,0.925674,0.925674,-0.231054,-59.19725,392.3917)"
       x1="-181.00027"
       y1="65.430992"
       x2="-149.55615"
       y2="65.430992" />
    <linearGradient
       inkscape:collect="always"
       xlink:href="#linearGradient9952"
       id="linearGradient3022"
       gradientUnits="userSpaceOnUse"
       gradientTransform="matrix(-0.954074,8.217683e-33,0.000000,-7.242089,-142.6873,625.0184)"
       x1="-181.00027"
       y1="65.430992"
       x2="-149.55615"
       y2="65.430992" />
    <linearGradient
       inkscape:collect="always"
       xlink:href="#linearGradient9952"
       id="linearGradient3024"
       gradientUnits="userSpaceOnUse"
       gradientTransform="matrix(-8.217683e-33,-0.954074,7.242089,0.000000,-305.0412,-142.6872)"
       x1="-181.00027"
       y1="65.430992"
       x2="-149.55615"
       y2="65.430992" />
    <linearGradient
       inkscape:collect="always"
       xlink:href="#linearGradient9952"
       id="linearGradient3048"
       gradientUnits="userSpaceOnUse"
       gradientTransform="matrix(0.664395,0.684716,-0.684716,0.664395,124.5953,290.1885)"
       x1="-181.00027"
       y1="65.430992"
       x2="-149.55615"
       y2="65.430992" />
    <linearGradient
       inkscape:collect="always"
       xlink:href="#linearGradient9952"
       id="linearGradient3049"
       gradientUnits="userSpaceOnUse"
       gradientTransform="matrix(0.924683,0.234989,-0.234989,0.924683,142.2812,191.7570)"
       x1="-181.00027"
       y1="65.430992"
       x2="-149.55615"
       y2="65.430992" />
    <linearGradient
       inkscape:collect="always"
       xlink:href="#linearGradient9952"
       id="linearGradient3050"
       gradientUnits="userSpaceOnUse"
       gradientTransform="matrix(0.231054,0.925674,0.925674,-0.231054,-59.19725,392.3917)"
       x1="-181.00027"
       y1="65.430992"
       x2="-149.55615"
       y2="65.430992" />
    <linearGradient
       inkscape:collect="always"
       xlink:href="#linearGradient9952"
       id="linearGradient3051"
       gradientUnits="userSpaceOnUse"
       gradientTransform="matrix(0.664395,0.684716,-0.684716,0.664395,124.5953,290.1885)"
       x1="-181.00027"
       y1="65.430992"
       x2="-149.55615"
       y2="65.430992" />
    <linearGradient
       inkscape:collect="always"
       xlink:href="#linearGradient9952"
       id="linearGradient3052"
       gradientUnits="userSpaceOnUse"
       gradientTransform="matrix(0.924683,0.234989,-0.234989,0.924683,142.2812,191.7570)"
       x1="-181.00027"
       y1="65.430992"
       x2="-149.55615"
       y2="65.430992" />
    <linearGradient
       inkscape:collect="always"
       xlink:href="#linearGradient9952"
       id="linearGradient3053"
       gradientUnits="userSpaceOnUse"
       gradientTransform="matrix(0.231054,0.925674,0.925674,-0.231054,-59.19725,392.3917)"
       x1="-181.00027"
       y1="65.430992"
       x2="-149.55615"
       y2="65.430992" />
    <linearGradient
       inkscape:collect="always"
       xlink:href="#linearGradient9952"
       id="linearGradient3055"
       gradientUnits="userSpaceOnUse"
       gradientTransform="matrix(8.217683e-33,0.954074,-7.242089,0.000000,625.0412,462.6871)"
       x1="-181.00027"
       y1="65.430992"
       x2="-149.55615"
       y2="65.430992" />
    <linearGradient
       inkscape:collect="always"
       xlink:href="#linearGradient9952"
       id="linearGradient1354"
       gradientUnits="userSpaceOnUse"
       gradientTransform="matrix(8.217683e-33,0.954074,-7.242089,0.000000,625.0412,462.6871)"
       x1="-181.00027"
       y1="65.430992"
       x2="-149.55615"
       y2="65.430992" />
    <linearGradient
       inkscape:collect="always"
       xlink:href="#linearGradient9952"
       id="linearGradient1353"
       gradientUnits="userSpaceOnUse"
       gradientTransform="matrix(0.231054,0.925674,0.925674,-0.231054,-59.19725,392.3917)"
       x1="-181.00027"
       y1="65.430992"
       x2="-149.55615"
       y2="65.430992" />
    <linearGradient
       inkscape:collect="always"
       xlink:href="#linearGradient9952"
       id="linearGradient1352"
       gradientUnits="userSpaceOnUse"
       gradientTransform="matrix(0.924683,0.234989,-0.234989,0.924683,142.2812,191.7570)"
       x1="-181.00027"
       y1="65.430992"
       x2="-149.55615"
       y2="65.430992" />
    <linearGradient
       inkscape:collect="always"
       xlink:href="#linearGradient9952"
       id="linearGradient1351"
       gradientUnits="userSpaceOnUse"
       gradientTransform="matrix(0.664395,0.684716,-0.684716,0.664395,124.5953,290.1885)"
       x1="-181.00027"
       y1="65.430992"
       x2="-149.55615"
       y2="65.430992" />
    <linearGradient
       inkscape:collect="always"
       xlink:href="#linearGradient9952"
       id="linearGradient1350"
       gradientUnits="userSpaceOnUse"
       gradientTransform="matrix(0.231054,0.925674,0.925674,-0.231054,-59.19725,392.3917)"
       x1="-181.00027"
       y1="65.430992"
       x2="-149.55615"
       y2="65.430992" />
    <linearGradient
       inkscape:collect="always"
       xlink:href="#linearGradient9952"
       id="linearGradient1349"
       gradientUnits="userSpaceOnUse"
       gradientTransform="matrix(0.924683,0.234989,-0.234989,0.924683,142.2812,191.7570)"
       x1="-181.00027"
       y1="65.430992"
       x2="-149.55615"
       y2="65.430992" />
    <linearGradient
       inkscape:collect="always"
       xlink:href="#linearGradient9952"
       id="linearGradient1348"
       gradientUnits="userSpaceOnUse"
       gradientTransform="matrix(0.664395,0.684716,-0.684716,0.664395,124.5953,290.1885)"
       x1="-181.00027"
       y1="65.430992"
       x2="-149.55615"
       y2="65.430992" />
    <linearGradient
       inkscape:collect="always"
       xlink:href="#linearGradient9952"
       id="linearGradient1347"
       gradientUnits="userSpaceOnUse"
       gradientTransform="matrix(-8.217683e-33,-0.954074,7.242089,0.000000,-305.0412,-142.6872)"
       x1="-181.00027"
       y1="65.430992"
       x2="-149.55615"
       y2="65.430992" />
    <linearGradient
       inkscape:collect="always"
       xlink:href="#linearGradient9952"
       id="linearGradient1346"
       gradientUnits="userSpaceOnUse"
       gradientTransform="matrix(-0.954074,8.217683e-33,0.000000,-7.242089,-142.6873,625.0184)"
       x1="-181.00027"
       y1="65.430992"
       x2="-149.55615"
       y2="65.430992" />
    <linearGradient
       inkscape:collect="always"
       xlink:href="#linearGradient9952"
       id="linearGradient1345"
       gradientUnits="userSpaceOnUse"
       gradientTransform="matrix(0.231054,0.925674,0.925674,-0.231054,-59.19725,392.3917)"
       x1="-181.00027"
       y1="65.430992"
       x2="-149.55615"
       y2="65.430992" />
    <linearGradient
       inkscape:collect="always"
       xlink:href="#linearGradient9952"
       id="linearGradient1344"
       gradientUnits="userSpaceOnUse"
       gradientTransform="matrix(0.924683,0.234989,-0.234989,0.924683,142.2812,191.7570)"
       x1="-181.00027"
       y1="65.430992"
       x2="-149.55615"
       y2="65.430992" />
    <linearGradient
       inkscape:collect="always"
       xlink:href="#linearGradient9952"
       id="linearGradient1343"
       gradientUnits="userSpaceOnUse"
       gradientTransform="matrix(0.664395,0.684716,-0.684716,0.664395,124.5953,290.1885)"
       x1="-181.00027"
       y1="65.430992"
       x2="-149.55615"
       y2="65.430992" />
    <linearGradient
       inkscape:collect="always"
       xlink:href="#linearGradient9952"
       id="linearGradient1342"
       gradientUnits="userSpaceOnUse"
       gradientTransform="matrix(0.954074,-8.217683e-33,0.000000,7.242089,462.6874,-305.0642)"
       x1="-181.00027"
       y1="65.430992"
       x2="-149.55615"
       y2="65.430992" />
    <linearGradient
       inkscape:collect="always"
       xlink:href="#linearGradient9952"
       id="linearGradient1341"
       gradientUnits="userSpaceOnUse"
       gradientTransform="matrix(0.231054,0.925674,0.925674,-0.231054,-59.19725,392.3917)"
       x1="-181.00027"
       y1="65.430992"
       x2="-149.55615"
       y2="65.430992" />
    <linearGradient
       inkscape:collect="always"
       xlink:href="#linearGradient9952"
       id="linearGradient1340"
       gradientUnits="userSpaceOnUse"
       gradientTransform="matrix(0.924683,0.234989,-0.234989,0.924683,142.2812,191.7570)"
       x1="-181.00027"
       y1="65.430992"
       x2="-149.55615"
       y2="65.430992" />
    <linearGradient
       inkscape:collect="always"
       xlink:href="#linearGradient9952"
       id="linearGradient1339"
       gradientUnits="userSpaceOnUse"
       gradientTransform="matrix(0.664395,0.684716,-0.684716,0.664395,124.5953,290.1885)"
       x1="-181.00027"
       y1="65.430992"
       x2="-149.55615"
       y2="65.430992" />
    <linearGradient
       inkscape:collect="always"
       xlink:href="#linearGradient9952"
       id="linearGradient1417"
       gradientUnits="userSpaceOnUse"
       gradientTransform="matrix(0.954074,-8.217683e-33,0.000000,7.242089,462.6874,-305.0642)"
       x1="-181.00027"
       y1="65.430992"
       x2="-149.55615"
       y2="65.430992" />
    <linearGradient
       inkscape:collect="always"
       xlink:href="#linearGradient9952"
       id="linearGradient1418"
       gradientUnits="userSpaceOnUse"
       gradientTransform="matrix(0.664395,0.684716,-0.684716,0.664395,124.5953,290.1885)"
       x1="-181.00027"
       y1="65.430992"
       x2="-149.55615"
       y2="65.430992" />
    <linearGradient
       inkscape:collect="always"
       xlink:href="#linearGradient9952"
       id="linearGradient1419"
       gradientUnits="userSpaceOnUse"
       gradientTransform="matrix(0.924683,0.234989,-0.234989,0.924683,142.2812,191.7570)"
       x1="-181.00027"
       y1="65.430992"
       x2="-149.55615"
       y2="65.430992" />
    <linearGradient
       inkscape:collect="always"
       xlink:href="#linearGradient9952"
       id="linearGradient1420"
       gradientUnits="userSpaceOnUse"
       gradientTransform="matrix(0.231054,0.925674,0.925674,-0.231054,-59.19725,392.3917)"
       x1="-181.00027"
       y1="65.430992"
       x2="-149.55615"
       y2="65.430992" />
    <linearGradient
       inkscape:collect="always"
       xlink:href="#linearGradient9952"
       id="linearGradient1421"
       gradientUnits="userSpaceOnUse"
       gradientTransform="matrix(0.664395,0.684716,-0.684716,0.664395,124.5953,290.1885)"
       x1="-181.00027"
       y1="65.430992"
       x2="-149.55615"
       y2="65.430992" />
    <linearGradient
       inkscape:collect="always"
       xlink:href="#linearGradient9952"
       id="linearGradient1422"
       gradientUnits="userSpaceOnUse"
       gradientTransform="matrix(0.924683,0.234989,-0.234989,0.924683,142.2812,191.7570)"
       x1="-181.00027"
       y1="65.430992"
       x2="-149.55615"
       y2="65.430992" />
    <linearGradient
       inkscape:collect="always"
       xlink:href="#linearGradient9952"
       id="linearGradient1423"
       gradientUnits="userSpaceOnUse"
       gradientTransform="matrix(0.231054,0.925674,0.925674,-0.231054,-59.19725,392.3917)"
       x1="-181.00027"
       y1="65.430992"
       x2="-149.55615"
       y2="65.430992" />
    <linearGradient
       inkscape:collect="always"
       xlink:href="#linearGradient9952"
       id="linearGradient1424"
       gradientUnits="userSpaceOnUse"
       gradientTransform="matrix(0.664395,0.684716,-0.684716,0.664395,124.5953,290.1885)"
       x1="-181.00027"
       y1="65.430992"
       x2="-149.55615"
       y2="65.430992" />
    <linearGradient
       inkscape:collect="always"
       xlink:href="#linearGradient9952"
       id="linearGradient1425"
       gradientUnits="userSpaceOnUse"
       gradientTransform="matrix(0.924683,0.234989,-0.234989,0.924683,142.2812,191.7570)"
       x1="-181.00027"
       y1="65.430992"
       x2="-149.55615"
       y2="65.430992" />
    <linearGradient
       inkscape:collect="always"
       xlink:href="#linearGradient9952"
       id="linearGradient1426"
       gradientUnits="userSpaceOnUse"
       gradientTransform="matrix(0.231054,0.925674,0.925674,-0.231054,-59.19725,392.3917)"
       x1="-181.00027"
       y1="65.430992"
       x2="-149.55615"
       y2="65.430992" />
    <linearGradient
       inkscape:collect="always"
       xlink:href="#linearGradient9952"
       id="linearGradient1427"
       gradientUnits="userSpaceOnUse"
       gradientTransform="matrix(0.664395,0.684716,-0.684716,0.664395,124.5953,290.1885)"
       x1="-181.00027"
       y1="65.430992"
       x2="-149.55615"
       y2="65.430992" />
    <linearGradient
       inkscape:collect="always"
       xlink:href="#linearGradient9952"
       id="linearGradient1428"
       gradientUnits="userSpaceOnUse"
       gradientTransform="matrix(0.924683,0.234989,-0.234989,0.924683,142.2812,191.7570)"
       x1="-181.00027"
       y1="65.430992"
       x2="-149.55615"
       y2="65.430992" />
    <linearGradient
       inkscape:collect="always"
       xlink:href="#linearGradient9952"
       id="linearGradient1429"
       gradientUnits="userSpaceOnUse"
       gradientTransform="matrix(0.231054,0.925674,0.925674,-0.231054,-59.19725,392.3917)"
       x1="-181.00027"
       y1="65.430992"
       x2="-149.55615"
       y2="65.430992" />
    <linearGradient
       inkscape:collect="always"
       xlink:href="#linearGradient9952"
       id="linearGradient1430"
       gradientUnits="userSpaceOnUse"
       gradientTransform="matrix(-0.954074,8.217683e-33,0.000000,-7.242089,-142.6873,625.0184)"
       x1="-181.00027"
       y1="65.430992"
       x2="-149.55615"
       y2="65.430992" />
    <linearGradient
       inkscape:collect="always"
       xlink:href="#linearGradient9952"
       id="linearGradient1431"
       gradientUnits="userSpaceOnUse"
       gradientTransform="matrix(-8.217683e-33,-0.954074,7.242089,0.000000,-305.0412,-142.6872)"
       x1="-181.00027"
       y1="65.430992"
       x2="-149.55615"
       y2="65.430992" />
    <linearGradient
       inkscape:collect="always"
       xlink:href="#linearGradient9952"
       id="linearGradient1432"
       gradientUnits="userSpaceOnUse"
       gradientTransform="matrix(8.217683e-33,0.954074,-7.242089,0.000000,625.0412,462.6871)"
       x1="-181.00027"
       y1="65.430992"
       x2="-149.55615"
       y2="65.430992" />
  </defs>
  <sodipodi:namedview
     id="base"
     pagecolor="#ffffff"
     bordercolor="#666666"
     borderopacity="1.0"
     inkscape:pageopacity="0.0"
     inkscape:pageshadow="2"
     inkscape:zoom="2.9843750"
     inkscape:cx="126.13533"
     inkscape:cy="127.99996"
     inkscape:current-layer="g1271"
     gridspacingy="10.000000pt"
     gridspacingx="10.000000pt"
     gridoriginy="0.0000000pt"
     gridoriginx="0.0000000pt"
     inkscape:window-width="1273"
     inkscape:window-height="944"
     inkscape:window-x="0"
     inkscape:window-y="46"
     showguides="true"
     inkscape:guide-bbox="true" />
  <metadata
     id="metadata4">
    <rdf:RDF>
      <cc:Work
         rdf:about="">
        <dc:format>image/svg+xml</dc:format>
        <dc:type
           rdf:resource="http://purl.org/dc/dcmitype/StillImage" />
        <cc:license
           rdf:resource="http://creativecommons.org/licenses/GPL/2.0/" />
        <dc:title>articulos famlias mas</dc:title>
        <dc:date>1 d'agost de 2005</dc:date>
        <dc:creator>
          <cc:Agent>
            <dc:title>Raül Martínez i Peris</dc:title>
          </cc:Agent>
        </dc:creator>
        <dc:language>es-ES</dc:language>
        <dc:rights>
          <cc:Agent>
            <dc:title>Raül Martínez i Peris</dc:title>
          </cc:Agent>
        </dc:rights>
        <dc:publisher>
          <cc:Agent>
            <dc:title>Raül Martínez i Peris</dc:title>
          </cc:Agent>
        </dc:publisher>
        <dc:subject>
          <rdf:Bag>
            <rdf:li>iconos</rdf:li>
          </rdf:Bag>
        </dc:subject>
      </cc:Work>
      <cc:License
         rdf:about="http://creativecommons.org/licenses/GPL/2.0/">
        <cc:permits
           rdf:resource="http://web.resource.org/cc/Reproduction" />
        <cc:permits
           rdf:resource="http://web.resource.org/cc/Distribution" />
        <cc:requires
           rdf:resource="http://web.resource.org/cc/Notice" />
        <cc:permits
           rdf:resource="http://web.resource.org/cc/DerivativeWorks" />
        <cc:requires
           rdf:resource="http://web.resource.org/cc/ShareAlike" />
        <cc:requires
           rdf:resource="http://web.resource.org/cc/SourceCode" />
      </cc:License>
    </rdf:RDF>
  </metadata>
  <g
     inkscape:label="Base"
     inkscape:groupmode="layer"
     id="layer1"
     style="display:block"
     sodipodi:insensitive="1">
    <rect
       style="fill:#ffffff;fill-opacity:1.0000000;fill-rule:evenodd;stroke:none;stroke-width:8.9802618;stroke-miterlimit:4.0000000;stroke-opacity:1.0000000"
       id="rect2373"
       width="320.00000"
       height="320.00000"
       x="0.0000000"
       y="0.0000000"
       rx="0.0000000"
       ry="0.0000000" />
  </g>
  <g
     inkscape:groupmode="layer"
     id="layer5"
     inkscape:label="Boto"
     style="display:block"
     sodipodi:insensitive="1">
    <g
       id="g1355"
       transform="translate(-7.800000e-6,-1.780000e-5)">
      <g
         inkscape:label="Base"
         inkscape:groupmode="layer"
         id="g1356"
         style="display:block"
         sodipodi:insensitive="true">
        <rect
           style="fill:#ffffff;fill-opacity:1.0000000;fill-rule:evenodd;stroke:none;stroke-width:8.9802618;stroke-miterlimit:4.0000000;stroke-opacity:1.0000000"
           id="rect1357"
           width="320.00000"
           height="320.00000"
           x="0.0000000"
           y="0.0000000"
           rx="0.0000000"
           ry="0.0000000" />
      </g>
      <g
         inkscape:groupmode="layer"
         id="g1358"
         inkscape:label="Boto"
         style="display:block">
        <path
           style="fill:url(#linearGradient1417);fill-opacity:1.0000000;fill-rule:evenodd;stroke:none;stroke-width:8.9802618;stroke-miterlimit:4.0000000;stroke-opacity:1.0000000;display:block"
           d="M 289.14954,30.846585 L 320.00000,30.923900 L 320.00000,289.10762 L 289.18429,289.05590 L 289.14954,30.846585 z "
           id="rect10002"
           sodipodi:nodetypes="ccccc" />
        <g
           id="g2064"
           transform="translate(329.5388,79.35008)"
           style="display:block">
          <path
             style="fill:url(#linearGradient1418);fill-opacity:1.0000000;fill-rule:evenodd;stroke:none;stroke-width:8.9802618;stroke-miterlimit:4.0000000;stroke-opacity:1.0000000"
             d="M -13.666605,224.15727 L -19.570525,231.25693 L -25.891519,237.00110 L -40.461822,209.72663 L -13.666605,224.15727 z "
             id="path2053"
             sodipodi:nodetypes="ccccc" />
          <path
             style="fill:url(#linearGradient1419);fill-opacity:1.0000000;fill-rule:evenodd;stroke:none;stroke-width:8.9802618;stroke-miterlimit:4.0000000;stroke-opacity:1.0000000"
             d="M -9.5387644,209.84671 L -11.386019,217.11565 L -13.233279,224.38461 L -40.461822,209.72663 L -9.5387644,209.84671 z "
             id="path2060"
             sodipodi:nodetypes="ccccc" />
          <path
             style="fill:url(#linearGradient1420);fill-opacity:1.0000000;fill-rule:evenodd;stroke:none;stroke-width:8.9802618;stroke-miterlimit:4.0000000;stroke-opacity:1.0000000"
             d="M -40.461822,240.64992 L -33.185084,238.83361 L -25.908336,237.01728 L -40.450347,209.72663 L -40.461822,240.64992 z "
             id="path2062"
             sodipodi:nodetypes="ccccc" />
        </g>
        <g
           id="g2999"
           transform="matrix(0.000000,1.000000,-1.000000,0.000000,240.6499,329.5388)"
           style="display:block">
          <path
             style="fill:url(#linearGradient1421);fill-opacity:1.0000000;fill-rule:evenodd;stroke:none;stroke-width:8.9802618;stroke-miterlimit:4.0000000;stroke-opacity:1.0000000"
             d="M -13.666605,224.15727 L -19.570525,231.25693 L -25.891519,237.00110 L -40.461822,209.72663 L -13.666605,224.15727 z "
             id="path3000"
             sodipodi:nodetypes="ccccc" />
          <path
             style="fill:url(#linearGradient1422);fill-opacity:1.0000000;fill-rule:evenodd;stroke:none;stroke-width:8.9802618;stroke-miterlimit:4.0000000;stroke-opacity:1.0000000"
             d="M -9.5387644,209.84671 L -11.386019,217.11565 L -13.233279,224.38461 L -40.461822,209.72663 L -9.5387644,209.84671 z "
             id="path3001"
             sodipodi:nodetypes="ccccc" />
          <path
             style="fill:url(#linearGradient1423);fill-opacity:1.0000000;fill-rule:evenodd;stroke:none;stroke-width:8.9802618;stroke-miterlimit:4.0000000;stroke-opacity:1.0000000"
             d="M -40.461822,240.64992 L -33.185084,238.83361 L -25.908336,237.01728 L -40.450347,209.72663 L -40.461822,240.64992 z "
             id="path3002"
             sodipodi:nodetypes="ccccc" />
        </g>
        <g
           id="g3006"
           transform="matrix(0.000000,-1.000000,1.000000,0.000000,79.35008,-9.538764)"
           style="display:block">
          <path
             style="fill:url(#linearGradient1424);fill-opacity:1.0000000;fill-rule:evenodd;stroke:none;stroke-width:8.9802618;stroke-miterlimit:4.0000000;stroke-opacity:1.0000000"
             d="M -13.666605,224.15727 L -19.570525,231.25693 L -25.891519,237.00110 L -40.461822,209.72663 L -13.666605,224.15727 z "
             id="path3007"
             sodipodi:nodetypes="ccccc" />
          <path
             style="fill:url(#linearGradient1425);fill-opacity:1.0000000;fill-rule:evenodd;stroke:none;stroke-width:8.9802618;stroke-miterlimit:4.0000000;stroke-opacity:1.0000000"
             d="M -9.5387644,209.84671 L -11.386019,217.11565 L -13.233279,224.38461 L -40.461822,209.72663 L -9.5387644,209.84671 z "
             id="path3008"
             sodipodi:nodetypes="ccccc" />
          <path
             style="fill:url(#linearGradient1426);fill-opacity:1.0000000;fill-rule:evenodd;stroke:none;stroke-width:8.9802618;stroke-miterlimit:4.0000000;stroke-opacity:1.0000000"
             d="M -40.461822,240.64992 L -33.185084,238.83361 L -25.908336,237.01728 L -40.450347,209.72663 L -40.461822,240.64992 z "
             id="path3009"
             sodipodi:nodetypes="ccccc" />
        </g>
        <g
           id="g3010"
           transform="matrix(-1.000000,0.000000,0.000000,-1.000000,-9.538764,240.6500)"
           style="display:block">
          <path
             style="fill:url(#linearGradient1427);fill-opacity:1.0000000;fill-rule:evenodd;stroke:none;stroke-width:8.9802618;stroke-miterlimit:4.0000000;stroke-opacity:1.0000000"
             d="M -13.666605,224.15727 L -19.570525,231.25693 L -25.891519,237.00110 L -40.461822,209.72663 L -13.666605,224.15727 z "
             id="path3011"
             sodipodi:nodetypes="ccccc" />
          <path
             style="fill:url(#linearGradient1428);fill-opacity:1.0000000;fill-rule:evenodd;stroke:none;stroke-width:8.9802618;stroke-miterlimit:4.0000000;stroke-opacity:1.0000000"
             d="M -9.5387644,209.84671 L -11.386019,217.11565 L -13.233279,224.38461 L -40.461822,209.72663 L -9.5387644,209.84671 z "
             id="path3012"
             sodipodi:nodetypes="ccccc" />
          <path
             style="fill:url(#linearGradient1429);fill-opacity:1.0000000;fill-rule:evenodd;stroke:none;stroke-width:8.9802618;stroke-miterlimit:4.0000000;stroke-opacity:1.0000000"
             d="M -40.461822,240.64992 L -33.185084,238.83361 L -25.908336,237.01728 L -40.450347,209.72663 L -40.461822,240.64992 z "
             id="path3013"
             sodipodi:nodetypes="ccccc" />
        </g>
        <path
           style="fill:url(#linearGradient1430);fill-opacity:1.0000000;fill-rule:evenodd;stroke:none;stroke-width:8.9802618;stroke-miterlimit:4.0000000;stroke-opacity:1.0000000;display:block"
           d="M 30.850460,289.10762 L 1.1102230e-16,289.03030 L 1.1102230e-16,30.846580 L 30.815710,30.898300 L 30.850460,289.10762 z "
           id="path3021"
           sodipodi:nodetypes="ccccc" />
        <path
           style="fill:url(#linearGradient1431);fill-opacity:1.0000000;fill-rule:evenodd;stroke:none;stroke-width:8.9802618;stroke-miterlimit:4.0000000;stroke-opacity:1.0000000;display:block"
           d="M 30.869480,30.850460 L 30.946800,-5.6843419e-14 L 289.13052,-5.6843419e-14 L 289.07880,30.815710 L 30.869480,30.850460 z "
           id="path3023"
           sodipodi:nodetypes="ccccc" />
        <path
           style="fill:url(#linearGradient1432);fill-opacity:1.0000000;fill-rule:evenodd;stroke:none;stroke-width:8.9802618;stroke-miterlimit:4.0000000;stroke-opacity:1.0000000;display:block"
           d="M 289.13052,289.14954 L 289.05320,320.00000 L 30.869480,320.00000 L 30.921200,289.18429 L 289.13052,289.14954 z "
           id="path3054"
           sodipodi:nodetypes="ccccc" />
        <rect
           style="fill:#0000ff;fill-opacity:0.78431374;fill-rule:evenodd;stroke:none;stroke-width:15.000000;stroke-miterlimit:4.0000000;stroke-opacity:1.0000000"
           id="rect3057"
           width="265.03928"
           height="265.03928"
           x="27.480362"
           y="27.480362" />
        <rect
           style="fill:#ffffff;fill-opacity:0.85537916;fill-rule:evenodd;stroke:none;stroke-width:8.9802618;stroke-miterlimit:4.0000000;stroke-opacity:1.0000000;display:block"
           id="rect5542"
           width="320.00000"
           height="320.00000"
           x="0.0000000"
           y="-2.8421709e-14"
           rx="0.0000000"
           ry="0.0000000" />
        <path
           style="fill:#ffffff;fill-opacity:1.0000000;fill-rule:evenodd;stroke:none;stroke-width:15.000000;stroke-miterlimit:4.0000000;stroke-opacity:1.0000000"
           d="M 55.447085,279.42244 L 39.870165,279.40523 L 39.870165,40.016405 L 279.48124,40.016405 L 279.48407,55.593328 L 55.447085,55.593328 L 55.447085,279.42244 z "
           id="path1115"
           sodipodi:nodetypes="ccccccc" />
        <path
           style="fill:#000000;fill-opacity:1.0000000;fill-rule:evenodd;stroke:none;stroke-width:15.000000;stroke-miterlimit:4.0000000;stroke-opacity:1.0000000"
           d="M 25.278887,304.26430 L 25.302367,295.21564 L 294.76719,295.21564 L 294.76719,25.329996 L 303.81585,25.225167 L 303.81585,304.26430 L 25.278887,304.26430 z "
           id="path1119"
           sodipodi:nodetypes="ccccccc" />
        <path
           id="rect6786"
           style="opacity:0.39999983;fill:#0000ff;fill-opacity:1.0000000;fill-rule:evenodd;stroke:none;stroke-width:15.000000;stroke-miterlimit:4.0000000;stroke-opacity:1.0000000"
           d="M 25.000001,25.000000 L 295.00000,25.000000 L 295.00000,295.00000 L 25.000001,295.00000 L 25.000001,25.000000 z M 40.576924,40.576923 L 279.42307,40.576923 L 279.42307,279.42307 L 40.576924,279.42307 L 40.576924,40.576923 z " />
      </g>
      <path
         d=""
         id="path1384" />
      <g
         id="g1385"
         inkscape:groupmode="layer"
         inkscape:label="Dibuix"
         transform="translate(184.5158,-340.6444)"
         style="display:block" />
    </g>
  </g>
  <path
     d=""
     id="path3081" />
  <g
     id="g1271"
     inkscape:groupmode="layer"
     inkscape:label="Dibuix"
     transform="translate(184.5158,-340.6444)"
     style="display:block">
    <g
       id="g1228"
       transform="matrix(1.000006,0.000000,0.000000,1.000000,-190.9567,342.2606)">
      <path
         d=""
         id="path1229" />
      <g
         id="g1230"
         inkscape:groupmode="layer"
         inkscape:label="Dibuix"
         transform="translate(184.5158,-340.6444)"
         style="display:block" />
      <g
         inkscape:label="Layer 1"
         inkscape:groupmode="layer"
         id="g1171"
         transform="translate(-322.2920,-51.67079)">
        <polygon
           points="17299.000,5183.0000 17318.000,5186.0000 17334.000,5193.0000 17348.000,5200.0000 17360.000,5209.0000 17372.000,5223.0000 17382.000,5237.0000 17391.000,5254.0000 17401.000,5273.0000 17413.000,5316.0000 17424.000,5361.0000 17434.000,5413.0000 17444.000,5465.0000 17453.000,5517.0000 17464.000,5571.0000 17478.000,5621.0000 17495.000,5668.0000 17507.000,5692.0000 17519.000,5713.0000 17531.000,5732.0000 17548.000,5749.0000 17564.000,5765.0000 17580.000,5779.0000 17602.000,5791.0000 17625.000,5801.0000 17639.000,5808.0000 17651.000,5815.0000 17666.000,5827.0000 17678.000,5838.0000 17687.000,5850.0000 17696.000,5865.0000 17704.000,5879.0000 17711.000,5893.0000 17715.000,5907.0000 17718.000,5922.0000 17718.000,5936.0000 17715.000,5950.0000 17711.000,5962.0000 17706.000,5971.0000 17694.000,5981.0000 17682.000,5988.0000 17675.000,5988.0000 17670.000,5988.0000 17666.000,5983.0000 17664.000,5979.0000 17659.000,5959.0000 17654.000,5938.0000 17651.000,5917.0000 17647.000,5895.0000 17642.000,5886.0000 17637.000,5879.0000 17633.000,5872.0000 17625.000,5867.0000 17609.000,5863.0000 17592.000,5858.0000 17580.000,5855.0000 17569.000,5855.0000 17557.000,5855.0000 17550.000,5858.0000 17540.000,5863.0000 17535.000,5865.0000 17531.000,5872.0000 17526.000,5877.0000 17524.000,5883.0000 17521.000,5893.0000 17521.000,5909.0000 17524.000,5928.0000 17533.000,5969.0000 17548.000,6007.0000 17559.000,6033.0000 17566.000,6042.0000 17554.000,6047.0000 17545.000,6047.0000 17535.000,6042.0000 17526.000,6038.0000 17517.000,6026.0000 17507.000,6013.0000 17498.000,5997.0000 17491.000,5981.0000 17472.000,5938.0000 17455.000,5888.0000 17438.000,5836.0000 17419.000,5777.0000 17401.000,5720.0000 17382.000,5661.0000 17363.000,5604.0000 17342.000,5555.0000 17330.000,5531.0000 17320.000,5507.0000 17308.000,5488.0000 17294.000,5470.0000 17283.000,5455.0000 17268.000,5441.0000 17254.000,5432.0000 17240.000,5425.0000 17226.000,5420.0000 17214.000,5410.0000 17199.000,5401.0000 17188.000,5389.0000 17178.000,5375.0000 17169.000,5363.0000 17159.000,5349.0000 17155.000,5332.0000 17150.000,5318.0000 17148.000,5304.0000 17148.000,5290.0000 17148.000,5278.0000 17153.000,5266.0000 17159.000,5254.0000 17169.000,5245.0000 17183.000,5240.0000 17190.000,5237.0000 17195.000,5237.0000 17199.000,5242.0000 17202.000,5250.0000 17207.000,5266.0000 17212.000,5287.0000 17214.000,5309.0000 17218.000,5330.0000 17221.000,5339.0000 17226.000,5349.0000 17233.000,5353.0000 17240.000,5358.0000 17271.000,5368.0000 17297.000,5372.0000 17306.000,5372.0000 17315.000,5370.0000 17323.000,5368.0000 17330.000,5366.0000 17334.000,5361.0000 17339.000,5356.0000 17342.000,5351.0000 17344.000,5344.0000 17346.000,5330.0000 17346.000,5313.0000 17344.000,5294.0000 17339.000,5278.0000 17332.000,5259.0000 17325.000,5240.0000 17311.000,5207.0000 17299.000,5183.0000 "
           id="polygon462"
           transform="matrix(0.150122,-6.431486e-2,6.431486e-2,0.150122,-2412.975,565.6711)"
           style="fill:#686c6b;fill-opacity:1.0000000;stroke:none" />
        <path
           d="M 467.03153,285.58420 L 464.02880,284.35941 L 460.72730,283.47074 L 458.15035,282.98537 L 455.96181,282.60456 L 453.73971,282.73540 L 451.90599,282.97079 L 450.42710,283.82238 L 448.94824,284.67398 L 448.19390,285.92888 L 447.21180,287.64314 L 446.54712,289.33872 L 446.21859,291.33305 L 445.93503,296.25535 L 446.29016,302.28683 L 448.42991,298.59312 L 450.37927,295.99367 L 452.59378,293.56975 L 454.79341,291.97492 L 460.09273,288.92339 L 467.03153,285.58420 z M 385.40912,262.67674 L 379.47460,260.35039 L 375.57180,258.98746 L 374.05555,259.20415 L 373.10321,259.26023 L 372.36377,259.68602 L 372.08371,260.33961 L 371.70290,262.52814 L 372.22596,266.00135 L 372.94702,270.67337 L 373.67187,276.49194 L 376.38664,270.66197 L 377.27531,267.36047 L 378.24253,266.47530 L 379.57947,265.37724 L 381.81647,264.41730 L 385.40912,262.67674 z M 502.36269,306.75773 L 499.47209,307.43760 L 497.16412,308.27430 L 496.14462,309.35367 L 495.46124,310.73181 L 495.06175,312.60290 L 494.46804,314.42171 L 493.08263,316.86053 L 491.13327,319.45996 L 488.02250,322.89230 L 485.31503,325.60010 L 483.01085,327.58333 L 480.63571,329.44333 L 479.19042,329.78327 L 478.08126,330.42196 L 476.68824,330.56769 L 475.31391,331.03086 L 471.90787,330.53060 L 468.21796,329.53741 L 463.48606,328.15960 L 459.22843,326.18047 L 455.04176,324.32458 L 451.68420,322.48358 L 448.50213,320.37742 L 445.90270,318.42806 L 443.33685,315.96707 L 441.23037,313.73386 L 439.52718,310.77611 L 438.28338,308.04613 L 436.94993,304.87549 L 436.35590,301.27904 L 435.95608,297.73486 L 435.73179,293.92551 L 435.85852,289.58583 L 436.35496,285.03325 L 438.23715,283.45709 L 439.82057,282.21710 L 439.21546,280.59629 L 438.57678,279.48713 L 437.72519,278.00825 L 436.76905,276.91779 L 435.72706,276.53318 L 434.15472,275.79754 L 432.79528,275.43162 L 431.43584,275.06571 L 429.84861,275.15916 L 428.38463,275.18166 L 427.01030,275.64483 L 425.68824,275.91380 L 424.20936,276.76539 L 423.18986,277.84477 L 422.22264,278.72994 L 421.46831,279.98483 L 419.10077,284.13791 L 416.74813,287.46190 L 414.69423,290.44975 L 412.23323,293.01561 L 410.00003,295.12209 L 407.25516,297.19499 L 404.91361,298.54334 L 401.97074,299.41743 L 399.02788,300.29150 L 395.85343,300.47842 L 392.48477,300.61306 L 388.90321,300.37798 L 384.89586,299.40347 L 380.90720,298.74640 L 376.36950,297.42086 L 371.56664,295.91978 L 367.13349,294.20583 L 363.47718,292.70096 L 360.70222,291.01679 L 358.05051,289.26166 L 356.29885,287.64465 L 355.30533,285.91929 L 354.24085,284.07069 L 353.86353,281.99050 L 353.73268,279.76839 L 353.99026,277.65082 L 354.22914,275.21581 L 355.17387,272.86664 L 356.79437,266.84627 L 358.44845,260.31425 L 356.83873,258.94372 L 355.56515,257.87194 L 355.71437,254.99624 L 356.19972,252.41930 L 356.96894,250.33532 L 358.19755,248.47911 L 359.46353,247.25780 L 361.04695,246.01780 L 362.52582,245.16622 L 364.72925,244.71793 L 366.43972,244.55350 L 368.66184,244.42266 L 371.09686,244.66154 L 373.72608,244.95269 L 378.51025,246.13631 L 384.03766,248.04067 L 389.58377,250.26248 L 394.90208,252.94365 L 400.41460,255.67711 L 405.48643,258.50023 L 414.49847,263.32116 L 420.87746,266.70440 L 422.32656,267.51100 L 424.19765,267.91050 L 426.03135,267.67512 L 427.63729,267.89909 L 431.05822,267.57025 L 433.88164,267.91368 L 436.39142,269.42234 L 438.69210,271.70782 L 440.08892,272.70863 L 441.41478,273.58620 L 442.91615,274.19860 L 444.61172,274.86327 L 461.51869,277.43548 L 477.64885,279.79860 L 481.33876,280.79180 L 485.09962,281.90825 L 488.49079,283.23759 L 492.36001,285.11218 L 495.93046,287.32290 L 499.39639,289.92202 L 502.82873,293.03279 L 505.76810,296.42744 L 506.40679,297.53660 L 506.65708,298.54122 L 506.29116,299.90066 L 505.67875,301.40203 L 503.67714,304.19567 L 502.36269,306.75773 z "
           id="path463"
           style="fill:#000000;fill-opacity:1.0000000;stroke:none" />
        <polygon
           points="17299.000,5183.0000 17318.000,5186.0000 17334.000,5193.0000 17348.000,5200.0000 17360.000,5209.0000 17372.000,5223.0000 17382.000,5237.0000 17391.000,5254.0000 17401.000,5273.0000 17413.000,5316.0000 17424.000,5361.0000 17434.000,5413.0000 17444.000,5465.0000 17453.000,5517.0000 17464.000,5571.0000 17478.000,5621.0000 17495.000,5668.0000 17507.000,5692.0000 17519.000,5713.0000 17531.000,5732.0000 17548.000,5749.0000 17564.000,5765.0000 17580.000,5779.0000 17602.000,5791.0000 17625.000,5801.0000 17639.000,5808.0000 17651.000,5815.0000 17666.000,5827.0000 17678.000,5838.0000 17687.000,5850.0000 17696.000,5865.0000 17704.000,5879.0000 17711.000,5893.0000 17715.000,5907.0000 17718.000,5922.0000 17718.000,5936.0000 17715.000,5950.0000 17711.000,5962.0000 17706.000,5971.0000 17694.000,5981.0000 17682.000,5988.0000 17675.000,5988.0000 17670.000,5988.0000 17666.000,5983.0000 17664.000,5979.0000 17659.000,5959.0000 17654.000,5938.0000 17651.000,5917.0000 17647.000,5895.0000 17642.000,5886.0000 17637.000,5879.0000 17633.000,5872.0000 17625.000,5867.0000 17609.000,5863.0000 17592.000,5858.0000 17580.000,5855.0000 17569.000,5855.0000 17557.000,5855.0000 17550.000,5858.0000 17540.000,5863.0000 17535.000,5865.0000 17531.000,5872.0000 17526.000,5877.0000 17524.000,5883.0000 17521.000,5893.0000 17521.000,5909.0000 17524.000,5928.0000 17533.000,5969.0000 17548.000,6007.0000 17559.000,6033.0000 17566.000,6042.0000 17554.000,6047.0000 17545.000,6047.0000 17535.000,6042.0000 17526.000,6038.0000 17517.000,6026.0000 17507.000,6013.0000 17498.000,5997.0000 17491.000,5981.0000 17472.000,5938.0000 17455.000,5888.0000 17438.000,5836.0000 17419.000,5777.0000 17401.000,5720.0000 17382.000,5661.0000 17363.000,5604.0000 17342.000,5555.0000 17330.000,5531.0000 17320.000,5507.0000 17308.000,5488.0000 17294.000,5470.0000 17283.000,5455.0000 17268.000,5441.0000 17254.000,5432.0000 17240.000,5425.0000 17226.000,5420.0000 17214.000,5410.0000 17199.000,5401.0000 17188.000,5389.0000 17178.000,5375.0000 17169.000,5363.0000 17159.000,5349.0000 17155.000,5332.0000 17150.000,5318.0000 17148.000,5304.0000 17148.000,5290.0000 17148.000,5278.0000 17153.000,5266.0000 17159.000,5254.0000 17169.000,5245.0000 17183.000,5240.0000 17190.000,5237.0000 17195.000,5237.0000 17199.000,5242.0000 17202.000,5250.0000 17207.000,5266.0000 17212.000,5287.0000 17214.000,5309.0000 17218.000,5330.0000 17221.000,5339.0000 17226.000,5349.0000 17233.000,5353.0000 17240.000,5358.0000 17271.000,5368.0000 17297.000,5372.0000 17306.000,5372.0000 17315.000,5370.0000 17323.000,5368.0000 17330.000,5366.0000 17334.000,5361.0000 17339.000,5356.0000 17342.000,5351.0000 17344.000,5344.0000 17346.000,5330.0000 17346.000,5313.0000 17344.000,5294.0000 17339.000,5278.0000 17332.000,5259.0000 17325.000,5240.0000 17311.000,5207.0000 17299.000,5183.0000 "
           id="polygon1774"
           transform="matrix(0.126474,-5.418358e-2,5.418358e-2,0.126474,-1943.866,435.8866)"
           style="fill:#929292;fill-opacity:1.0000000;stroke:none" />
        <path
           d="M 461.22889,199.92162 L 458.69916,198.88976 L 455.91773,198.14109 L 453.74670,197.73218 L 451.90291,197.41135 L 450.03085,197.52158 L 448.48598,197.71990 L 447.24005,198.43734 L 445.99415,199.15478 L 445.35864,200.21200 L 444.53123,201.65623 L 443.97126,203.08472 L 443.69448,204.76490 L 443.45559,208.91181 L 443.75477,213.99319 L 445.55747,210.88132 L 447.19976,208.69135 L 449.06543,206.64926 L 450.91856,205.30565 L 455.38311,202.73481 L 461.22889,199.92162 z M 392.46393,180.62262 L 387.46424,178.66273 L 384.17622,177.51450 L 382.89881,177.69705 L 382.09649,177.74430 L 381.47353,178.10302 L 381.23758,178.65364 L 380.91676,180.49743 L 381.35742,183.42353 L 381.96490,187.35960 L 382.57557,192.26160 L 384.86270,187.34999 L 385.61138,184.56856 L 386.42624,183.82283 L 387.55259,182.89773 L 389.43721,182.08901 L 392.46393,180.62262 z M 490.99456,217.75981 L 488.55931,218.33258 L 486.61489,219.03748 L 485.75598,219.94684 L 485.18026,221.10788 L 484.84370,222.68423 L 484.34351,224.21653 L 483.17633,226.27119 L 481.53405,228.46114 L 478.91329,231.35281 L 476.63231,233.63406 L 474.69110,235.30489 L 472.69009,236.87191 L 471.47247,237.15829 L 470.53803,237.69637 L 469.36444,237.81915 L 468.20661,238.20935 L 465.33709,237.78790 L 462.22843,236.95116 L 458.24192,235.79039 L 454.65496,234.12301 L 451.12779,232.55948 L 448.29913,231.00847 L 445.61831,229.23408 L 443.42835,227.59179 L 441.26668,225.51847 L 439.49202,223.63704 L 438.05712,221.14521 L 437.00926,218.84526 L 435.88585,216.17407 L 435.38540,213.14415 L 435.04856,210.15826 L 434.85959,206.94898 L 434.96636,203.29290 L 435.38461,199.45746 L 436.97030,198.12959 L 438.30430,197.08492 L 437.79451,195.71943 L 437.25643,194.78498 L 436.53899,193.53906 L 435.73346,192.62037 L 434.85561,192.29635 L 433.53096,191.67658 L 432.38566,191.36831 L 431.24036,191.06003 L 429.90316,191.13877 L 428.66978,191.15772 L 427.51194,191.54794 L 426.39814,191.77454 L 425.15222,192.49199 L 424.29332,193.40133 L 423.47845,194.14707 L 422.84295,195.20428 L 420.84835,198.70315 L 418.86631,201.50354 L 417.13594,204.02074 L 415.06261,206.18241 L 413.18119,207.95707 L 410.86871,209.70343 L 408.89600,210.83938 L 406.41670,211.57578 L 403.93741,212.31217 L 401.26301,212.46965 L 398.42500,212.58307 L 395.40762,212.38503 L 392.03152,211.56402 L 388.67117,211.01045 L 384.84826,209.89372 L 380.80197,208.62911 L 377.06714,207.18515 L 373.98678,205.91733 L 371.64895,204.49845 L 369.41494,203.01979 L 367.93921,201.65750 L 367.10220,200.20393 L 366.20539,198.64653 L 365.88751,196.89402 L 365.77728,195.02194 L 365.99428,193.23793 L 366.19553,191.18649 L 366.99144,189.20738 L 368.35668,184.13535 L 369.75020,178.63228 L 368.39405,177.47764 L 367.32109,176.57469 L 367.44680,174.15198 L 367.85570,171.98097 L 368.50375,170.22527 L 369.53882,168.66145 L 370.60538,167.63253 L 371.93938,166.58786 L 373.18529,165.87042 L 375.04162,165.49275 L 376.48266,165.35422 L 378.35474,165.24400 L 380.40618,165.44524 L 382.62124,165.69053 L 386.65179,166.68770 L 391.30851,168.29208 L 395.98097,170.16390 L 400.46153,172.42272 L 405.10570,174.72560 L 409.37859,177.10402 L 416.97102,181.16553 L 422.34517,184.01584 L 423.56600,184.69538 L 425.14235,185.03195 L 426.68721,184.83364 L 428.04017,185.02233 L 430.92222,184.74529 L 433.30088,185.03462 L 435.41532,186.30563 L 437.35359,188.23109 L 438.53038,189.07426 L 439.64739,189.81358 L 440.91225,190.32952 L 442.34073,190.88949 L 456.58446,193.05651 L 470.17373,195.04739 L 473.28240,195.88413 L 476.45083,196.82472 L 479.30781,197.94467 L 482.56754,199.52396 L 485.57556,201.38643 L 488.49553,203.57613 L 491.38719,206.19689 L 493.86354,209.05680 L 494.40162,209.99123 L 494.61248,210.83760 L 494.30421,211.98289 L 493.78826,213.24777 L 492.10196,215.60134 L 490.99456,217.75981 z "
           id="path1775"
           style="fill:#36484a;fill-opacity:1.0000000;stroke:none" />
        <polygon
           points="17299.000,5183.0000 17318.000,5186.0000 17334.000,5193.0000 17348.000,5200.0000 17360.000,5209.0000 17372.000,5223.0000 17382.000,5237.0000 17391.000,5254.0000 17401.000,5273.0000 17413.000,5316.0000 17424.000,5361.0000 17434.000,5413.0000 17444.000,5465.0000 17453.000,5517.0000 17464.000,5571.0000 17478.000,5621.0000 17495.000,5668.0000 17507.000,5692.0000 17519.000,5713.0000 17531.000,5732.0000 17548.000,5749.0000 17564.000,5765.0000 17580.000,5779.0000 17602.000,5791.0000 17625.000,5801.0000 17639.000,5808.0000 17651.000,5815.0000 17666.000,5827.0000 17678.000,5838.0000 17687.000,5850.0000 17696.000,5865.0000 17704.000,5879.0000 17711.000,5893.0000 17715.000,5907.0000 17718.000,5922.0000 17718.000,5936.0000 17715.000,5950.0000 17711.000,5962.0000 17706.000,5971.0000 17694.000,5981.0000 17682.000,5988.0000 17675.000,5988.0000 17670.000,5988.0000 17666.000,5983.0000 17664.000,5979.0000 17659.000,5959.0000 17654.000,5938.0000 17651.000,5917.0000 17647.000,5895.0000 17642.000,5886.0000 17637.000,5879.0000 17633.000,5872.0000 17625.000,5867.0000 17609.000,5863.0000 17592.000,5858.0000 17580.000,5855.0000 17569.000,5855.0000 17557.000,5855.0000 17550.000,5858.0000 17540.000,5863.0000 17535.000,5865.0000 17531.000,5872.0000 17526.000,5877.0000 17524.000,5883.0000 17521.000,5893.0000 17521.000,5909.0000 17524.000,5928.0000 17533.000,5969.0000 17548.000,6007.0000 17559.000,6033.0000 17566.000,6042.0000 17554.000,6047.0000 17545.000,6047.0000 17535.000,6042.0000 17526.000,6038.0000 17517.000,6026.0000 17507.000,6013.0000 17498.000,5997.0000 17491.000,5981.0000 17472.000,5938.0000 17455.000,5888.0000 17438.000,5836.0000 17419.000,5777.0000 17401.000,5720.0000 17382.000,5661.0000 17363.000,5604.0000 17342.000,5555.0000 17330.000,5531.0000 17320.000,5507.0000 17308.000,5488.0000 17294.000,5470.0000 17283.000,5455.0000 17268.000,5441.0000 17254.000,5432.0000 17240.000,5425.0000 17226.000,5420.0000 17214.000,5410.0000 17199.000,5401.0000 17188.000,5389.0000 17178.000,5375.0000 17169.000,5363.0000 17159.000,5349.0000 17155.000,5332.0000 17150.000,5318.0000 17148.000,5304.0000 17148.000,5290.0000 17148.000,5278.0000 17153.000,5266.0000 17159.000,5254.0000 17169.000,5245.0000 17183.000,5240.0000 17190.000,5237.0000 17195.000,5237.0000 17199.000,5242.0000 17202.000,5250.0000 17207.000,5266.0000 17212.000,5287.0000 17214.000,5309.0000 17218.000,5330.0000 17221.000,5339.0000 17226.000,5349.0000 17233.000,5353.0000 17240.000,5358.0000 17271.000,5368.0000 17297.000,5372.0000 17306.000,5372.0000 17315.000,5370.0000 17323.000,5368.0000 17330.000,5366.0000 17334.000,5361.0000 17339.000,5356.0000 17342.000,5351.0000 17344.000,5344.0000 17346.000,5330.0000 17346.000,5313.0000 17344.000,5294.0000 17339.000,5278.0000 17332.000,5259.0000 17325.000,5240.0000 17311.000,5207.0000 17299.000,5183.0000 "
           id="polygon1776"
           transform="matrix(0.110428,-4.730903e-2,4.730903e-2,0.110428,-1625.558,320.7168)"
           style="fill:#bfbfc1;fill-opacity:1.0000000;stroke:none" />
        <path
           d="M 457.29145,114.69219 L 455.08267,113.79125 L 452.65413,113.13756 L 450.75856,112.78053 L 449.14870,112.50041 L 447.51416,112.59665 L 446.16529,112.76981 L 445.07744,113.39622 L 443.98961,114.02264 L 443.43473,114.94573 L 442.71230,116.20672 L 442.22337,117.45397 L 441.98171,118.92097 L 441.77313,122.54174 L 442.03436,126.97842 L 443.60833,124.26138 L 445.04225,122.34927 L 446.67122,120.56626 L 448.28924,119.39312 L 452.18735,117.14846 L 457.29145,114.69219 z M 397.25104,97.841749 L 392.88568,96.130519 L 390.01483,95.127969 L 388.89949,95.287369 L 388.19896,95.328619 L 387.65504,95.641819 L 387.44904,96.122589 L 387.16891,97.732439 L 387.55366,100.28729 L 388.08407,103.72398 L 388.61727,108.00404 L 390.61421,103.71558 L 391.26791,101.28704 L 391.97938,100.63593 L 392.96282,99.828201 L 394.60833,99.122095 L 397.25104,97.841749 z M 483.28060,130.26716 L 481.15431,130.76726 L 479.45659,131.38273 L 478.70666,132.17671 L 478.20398,133.19045 L 477.91013,134.56679 L 477.47339,135.90469 L 476.45431,137.69866 L 475.02038,139.61076 L 472.73214,142.13555 L 470.74055,144.12737 L 469.04563,145.58621 L 467.29850,146.95441 L 466.23537,147.20446 L 465.41948,147.67427 L 464.39480,147.78147 L 463.38386,148.12217 L 460.87842,147.75419 L 458.16417,147.02361 L 454.68344,146.01011 L 451.55159,144.55428 L 448.47192,143.18912 L 446.00215,141.83489 L 443.66145,140.28564 L 441.74935,138.85171 L 439.86194,137.04144 L 438.31244,135.39871 L 437.05959,133.22304 L 436.14468,131.21489 L 435.16380,128.88261 L 434.72685,126.23711 L 434.43274,123.63005 L 434.26775,120.82795 L 434.36097,117.63574 L 434.72615,114.28692 L 436.11066,113.12752 L 437.27541,112.21540 L 436.83029,111.02315 L 436.36049,110.20726 L 435.73407,109.11942 L 435.03075,108.31728 L 434.26427,108.03438 L 433.10768,107.49324 L 432.10770,107.22408 L 431.10771,106.95492 L 429.94016,107.02366 L 428.86327,107.04021 L 427.85233,107.38092 L 426.87985,107.57877 L 425.79200,108.20519 L 425.04207,108.99917 L 424.33059,109.65028 L 423.77572,110.57336 L 422.03418,113.62832 L 420.30361,116.07340 L 418.79279,118.27123 L 416.98251,120.15864 L 415.33979,121.70814 L 413.32071,123.23294 L 411.59829,124.22476 L 409.43355,124.86773 L 407.26882,125.51069 L 404.93373,125.64818 L 402.45579,125.74722 L 399.82125,125.57430 L 396.87349,124.85746 L 393.93948,124.37413 L 390.60160,123.39908 L 387.06868,122.29491 L 383.80771,121.03416 L 381.11817,119.92720 L 379.07695,118.68834 L 377.12638,117.39728 L 375.83789,116.20783 L 375.10707,114.93868 L 374.32405,113.57888 L 374.04650,112.04872 L 373.95025,110.41416 L 374.13972,108.85649 L 374.31543,107.06533 L 375.01037,105.33731 L 376.20239,100.90881 L 377.41911,96.103939 L 376.23502,95.095789 L 375.29819,94.307409 L 375.40796,92.192079 L 375.76498,90.296509 L 376.33080,88.763559 L 377.23455,87.398159 L 378.16579,86.499779 L 379.33053,85.587649 L 380.41837,84.961239 L 382.03918,84.631489 L 383.29739,84.510539 L 384.93194,84.414299 L 386.72312,84.590009 L 388.65714,84.804169 L 392.17631,85.674829 L 396.24220,87.075649 L 400.32185,88.709979 L 404.23394,90.682219 L 408.28888,92.692919 L 412.01965,94.769569 L 418.64878,98.315779 L 423.34109,100.80445 L 424.40704,101.39778 L 425.78338,101.69164 L 427.13223,101.51850 L 428.31354,101.68325 L 430.82993,101.44135 L 432.90680,101.69397 L 434.75297,102.80373 L 436.44532,104.48490 L 437.47281,105.22108 L 438.44809,105.86661 L 439.55248,106.31708 L 440.79972,106.80601 L 453.23628,108.69809 L 465.10141,110.43638 L 467.81566,111.16696 L 470.58210,111.98821 L 473.07660,112.96606 L 475.92275,114.34498 L 478.54913,115.97115 L 481.09862,117.88303 L 483.62341,120.17128 L 485.78557,122.66834 L 486.25539,123.48422 L 486.43950,124.22320 L 486.17034,125.22319 L 485.71985,126.32758 L 484.24749,128.38254 L 483.28060,130.26716 z "
           id="path1777"
           style="fill:#560059;fill-opacity:1.0000000;stroke:none" />
      </g>
    </g>
  </g>
  <g
     inkscape:groupmode="layer"
     id="layer6"
     inkscape:label="Propietat"
     style="display:block"
     sodipodi:insensitive="1">
    <g
       id="g6097"
       transform="matrix(0.925862,0.000000,0.000000,0.925862,493.5668,41.86428)"
       style="display:block">
      <path
         style="fill:#ffffff;fill-opacity:1.0000000;fill-rule:evenodd;stroke:#006900;stroke-width:8.1005621;stroke-miterlimit:4.0000000;stroke-opacity:1.0000000"
         d="M -191.51536,25.067211 C -191.51536,61.628081 -221.18795,91.300681 -257.74882,91.300681 C -294.30970,91.300681 -323.98229,61.628081 -323.98229,25.067211 C -323.98229,-11.493665 -294.30970,-41.166259 -257.74882,-41.166259 C -221.18795,-41.166259 -191.51536,-11.493665 -191.51536,25.067211 z "
         id="path3603" />
      <path
         style="fill:#326400;stroke:none"
         d="M -302.55576,11.965876 L -270.99594,11.965876 L -270.99594,-19.849048 L -244.50173,-19.849048 L -244.50173,11.965876 L -212.94190,11.965876 L -212.94190,38.423643 L -244.50173,38.423643 L -244.50173,69.983470 L -270.99594,69.983470 L -270.99594,38.423643 L -302.55576,38.423643 L -302.55576,11.965876 z "
         id="polygon1906" />
    </g>
  </g>
</svg>
