<?xml version="1.0" encoding="UTF-8" standalone="no"?>
<!DOCTYPE svg PUBLIC "-//W3C//DTD SVG 20010904//EN"
"http://www.w3.org/TR/2001/REC-SVG-20010904/DTD/svg10.dtd">
<!-- Created with Inkscape (http://www.inkscape.org/) -->
<svg
   width="320.00000"
   height="320.00000"
   id="svg1"
   sodipodi:version="0.32"
   inkscape:version="0.40"
   sodipodi:docbase="/home/raul/arxius/iglues/nous dissenys/svg"
   sodipodi:docname="i_bulmages_filtro_listado.svg"
   version="1.0"
   x="0.0000000"
   y="0.0000000"
   inkscape:export-filename="/home/raul/arxius/iglues/nous dissenys/png/i_bulmages_filtro_listado.png"
   inkscape:export-xdpi="96.000000"
   inkscape:export-ydpi="96.000000"
   xmlns="http://www.w3.org/2000/svg"
   xmlns:cc="http://web.resource.org/cc/"
   xmlns:inkscape="http://www.inkscape.org/namespaces/inkscape"
   xmlns:sodipodi="http://sodipodi.sourceforge.net/DTD/sodipodi-0.dtd"
   xmlns:rdf="http://www.w3.org/1999/02/22-rdf-syntax-ns#"
   xmlns:dc="http://purl.org/dc/elements/1.1/"
   xmlns:xlink="http://www.w3.org/1999/xlink">
  <defs
     id="defs3">
    <linearGradient
       inkscape:collect="always"
       id="linearGradient9952">
      <stop
         style="stop-color:#0000ff;stop-opacity:1;"
         offset="0"
         id="stop9953" />
      <stop
         style="stop-color:#0000ff;stop-opacity:0;"
         offset="1"
         id="stop9954" />
    </linearGradient>
    <linearGradient
       inkscape:collect="always"
       xlink:href="#linearGradient9952"
       id="linearGradient1385"
       gradientUnits="userSpaceOnUse"
       gradientTransform="matrix(8.217683e-33,0.954074,-7.242089,0.000000,625.0412,462.6871)"
       x1="-181.00027"
       y1="65.430992"
       x2="-149.55615"
       y2="65.430992" />
    <linearGradient
       inkscape:collect="always"
       xlink:href="#linearGradient9952"
       id="linearGradient1384"
       gradientUnits="userSpaceOnUse"
       gradientTransform="matrix(0.231054,0.925674,0.925674,-0.231054,-59.19725,392.3917)"
       x1="-181.00027"
       y1="65.430992"
       x2="-149.55615"
       y2="65.430992" />
    <linearGradient
       inkscape:collect="always"
       xlink:href="#linearGradient9952"
       id="linearGradient1383"
       gradientUnits="userSpaceOnUse"
       gradientTransform="matrix(0.924683,0.234989,-0.234989,0.924683,142.2812,191.7570)"
       x1="-181.00027"
       y1="65.430992"
       x2="-149.55615"
       y2="65.430992" />
    <linearGradient
       inkscape:collect="always"
       xlink:href="#linearGradient9952"
       id="linearGradient1382"
       gradientUnits="userSpaceOnUse"
       gradientTransform="matrix(0.664395,0.684716,-0.684716,0.664395,124.5953,290.1885)"
       x1="-181.00027"
       y1="65.430992"
       x2="-149.55615"
       y2="65.430992" />
    <linearGradient
       inkscape:collect="always"
       xlink:href="#linearGradient9952"
       id="linearGradient1381"
       gradientUnits="userSpaceOnUse"
       gradientTransform="matrix(0.231054,0.925674,0.925674,-0.231054,-59.19725,392.3917)"
       x1="-181.00027"
       y1="65.430992"
       x2="-149.55615"
       y2="65.430992" />
    <linearGradient
       inkscape:collect="always"
       xlink:href="#linearGradient9952"
       id="linearGradient1380"
       gradientUnits="userSpaceOnUse"
       gradientTransform="matrix(0.924683,0.234989,-0.234989,0.924683,142.2812,191.7570)"
       x1="-181.00027"
       y1="65.430992"
       x2="-149.55615"
       y2="65.430992" />
    <linearGradient
       inkscape:collect="always"
       xlink:href="#linearGradient9952"
       id="linearGradient1379"
       gradientUnits="userSpaceOnUse"
       gradientTransform="matrix(0.664395,0.684716,-0.684716,0.664395,124.5953,290.1885)"
       x1="-181.00027"
       y1="65.430992"
       x2="-149.55615"
       y2="65.430992" />
    <linearGradient
       inkscape:collect="always"
       xlink:href="#linearGradient9952"
       id="linearGradient1378"
       gradientUnits="userSpaceOnUse"
       gradientTransform="matrix(-8.217683e-33,-0.954074,7.242089,0.000000,-305.0412,-142.6872)"
       x1="-181.00027"
       y1="65.430992"
       x2="-149.55615"
       y2="65.430992" />
    <linearGradient
       inkscape:collect="always"
       xlink:href="#linearGradient9952"
       id="linearGradient1377"
       gradientUnits="userSpaceOnUse"
       gradientTransform="matrix(-0.954074,8.217683e-33,0.000000,-7.242089,-142.6873,625.0184)"
       x1="-181.00027"
       y1="65.430992"
       x2="-149.55615"
       y2="65.430992" />
    <linearGradient
       inkscape:collect="always"
       xlink:href="#linearGradient9952"
       id="linearGradient1376"
       gradientUnits="userSpaceOnUse"
       gradientTransform="matrix(0.231054,0.925674,0.925674,-0.231054,-59.19725,392.3917)"
       x1="-181.00027"
       y1="65.430992"
       x2="-149.55615"
       y2="65.430992" />
    <linearGradient
       inkscape:collect="always"
       xlink:href="#linearGradient9952"
       id="linearGradient1375"
       gradientUnits="userSpaceOnUse"
       gradientTransform="matrix(0.924683,0.234989,-0.234989,0.924683,142.2812,191.7570)"
       x1="-181.00027"
       y1="65.430992"
       x2="-149.55615"
       y2="65.430992" />
    <linearGradient
       inkscape:collect="always"
       xlink:href="#linearGradient9952"
       id="linearGradient1374"
       gradientUnits="userSpaceOnUse"
       gradientTransform="matrix(0.664395,0.684716,-0.684716,0.664395,124.5953,290.1885)"
       x1="-181.00027"
       y1="65.430992"
       x2="-149.55615"
       y2="65.430992" />
    <linearGradient
       inkscape:collect="always"
       xlink:href="#linearGradient9952"
       id="linearGradient1373"
       gradientUnits="userSpaceOnUse"
       gradientTransform="matrix(0.954074,-8.217683e-33,0.000000,7.242089,462.6874,-305.0642)"
       x1="-181.00027"
       y1="65.430992"
       x2="-149.55615"
       y2="65.430992" />
    <linearGradient
       inkscape:collect="always"
       xlink:href="#linearGradient9952"
       id="linearGradient1372"
       gradientUnits="userSpaceOnUse"
       gradientTransform="matrix(0.231054,0.925674,0.925674,-0.231054,-59.19725,392.3917)"
       x1="-181.00027"
       y1="65.430992"
       x2="-149.55615"
       y2="65.430992" />
    <linearGradient
       inkscape:collect="always"
       xlink:href="#linearGradient9952"
       id="linearGradient1371"
       gradientUnits="userSpaceOnUse"
       gradientTransform="matrix(0.924683,0.234989,-0.234989,0.924683,142.2812,191.7570)"
       x1="-181.00027"
       y1="65.430992"
       x2="-149.55615"
       y2="65.430992" />
    <linearGradient
       inkscape:collect="always"
       xlink:href="#linearGradient9952"
       id="linearGradient1370"
       gradientUnits="userSpaceOnUse"
       gradientTransform="matrix(0.664395,0.684716,-0.684716,0.664395,124.5953,290.1885)"
       x1="-181.00027"
       y1="65.430992"
       x2="-149.55615"
       y2="65.430992" />
    <linearGradient
       inkscape:collect="always"
       xlink:href="#linearGradient9952"
       id="linearGradient1602"
       gradientUnits="userSpaceOnUse"
       gradientTransform="matrix(0.954074,-8.217683e-33,0.000000,7.242089,507.0450,-401.5478)"
       x1="-181.00027"
       y1="65.430992"
       x2="-149.55615"
       y2="65.430992" />
    <linearGradient
       inkscape:collect="always"
       xlink:href="#linearGradient9952"
       id="linearGradient1603"
       gradientUnits="userSpaceOnUse"
       gradientTransform="matrix(0.664395,0.684716,-0.684716,0.664395,124.5953,290.1885)"
       x1="-181.00027"
       y1="65.430992"
       x2="-149.55615"
       y2="65.430992" />
    <linearGradient
       inkscape:collect="always"
       xlink:href="#linearGradient9952"
       id="linearGradient1604"
       gradientUnits="userSpaceOnUse"
       gradientTransform="matrix(0.924683,0.234989,-0.234989,0.924683,142.2812,191.7570)"
       x1="-181.00027"
       y1="65.430992"
       x2="-149.55615"
       y2="65.430992" />
    <linearGradient
       inkscape:collect="always"
       xlink:href="#linearGradient9952"
       id="linearGradient1605"
       gradientUnits="userSpaceOnUse"
       gradientTransform="matrix(0.231054,0.925674,0.925674,-0.231054,-59.19725,392.3917)"
       x1="-181.00027"
       y1="65.430992"
       x2="-149.55615"
       y2="65.430992" />
    <linearGradient
       inkscape:collect="always"
       xlink:href="#linearGradient9952"
       id="linearGradient1606"
       gradientUnits="userSpaceOnUse"
       gradientTransform="matrix(0.664395,0.684716,-0.684716,0.664395,124.5953,290.1885)"
       x1="-181.00027"
       y1="65.430992"
       x2="-149.55615"
       y2="65.430992" />
    <linearGradient
       inkscape:collect="always"
       xlink:href="#linearGradient9952"
       id="linearGradient1607"
       gradientUnits="userSpaceOnUse"
       gradientTransform="matrix(0.924683,0.234989,-0.234989,0.924683,142.2812,191.7570)"
       x1="-181.00027"
       y1="65.430992"
       x2="-149.55615"
       y2="65.430992" />
    <linearGradient
       inkscape:collect="always"
       xlink:href="#linearGradient9952"
       id="linearGradient1608"
       gradientUnits="userSpaceOnUse"
       gradientTransform="matrix(0.231054,0.925674,0.925674,-0.231054,-59.19725,392.3917)"
       x1="-181.00027"
       y1="65.430992"
       x2="-149.55615"
       y2="65.430992" />
    <linearGradient
       inkscape:collect="always"
       xlink:href="#linearGradient9952"
       id="linearGradient1609"
       gradientUnits="userSpaceOnUse"
       gradientTransform="matrix(0.664395,0.684716,-0.684716,0.664395,124.5953,290.1885)"
       x1="-181.00027"
       y1="65.430992"
       x2="-149.55615"
       y2="65.430992" />
    <linearGradient
       inkscape:collect="always"
       xlink:href="#linearGradient9952"
       id="linearGradient1610"
       gradientUnits="userSpaceOnUse"
       gradientTransform="matrix(0.924683,0.234989,-0.234989,0.924683,142.2812,191.7570)"
       x1="-181.00027"
       y1="65.430992"
       x2="-149.55615"
       y2="65.430992" />
    <linearGradient
       inkscape:collect="always"
       xlink:href="#linearGradient9952"
       id="linearGradient1611"
       gradientUnits="userSpaceOnUse"
       gradientTransform="matrix(0.231054,0.925674,0.925674,-0.231054,-59.19725,392.3917)"
       x1="-181.00027"
       y1="65.430992"
       x2="-149.55615"
       y2="65.430992" />
    <linearGradient
       inkscape:collect="always"
       xlink:href="#linearGradient9952"
       id="linearGradient1612"
       gradientUnits="userSpaceOnUse"
       gradientTransform="matrix(0.664395,0.684716,-0.684716,0.664395,124.5953,290.1885)"
       x1="-181.00027"
       y1="65.430992"
       x2="-149.55615"
       y2="65.430992" />
    <linearGradient
       inkscape:collect="always"
       xlink:href="#linearGradient9952"
       id="linearGradient1613"
       gradientUnits="userSpaceOnUse"
       gradientTransform="matrix(0.924683,0.234989,-0.234989,0.924683,142.2812,191.7570)"
       x1="-181.00027"
       y1="65.430992"
       x2="-149.55615"
       y2="65.430992" />
    <linearGradient
       inkscape:collect="always"
       xlink:href="#linearGradient9952"
       id="linearGradient1614"
       gradientUnits="userSpaceOnUse"
       gradientTransform="matrix(0.231054,0.925674,0.925674,-0.231054,-59.19725,392.3917)"
       x1="-181.00027"
       y1="65.430992"
       x2="-149.55615"
       y2="65.430992" />
    <linearGradient
       inkscape:collect="always"
       xlink:href="#linearGradient9952"
       id="linearGradient1615"
       gradientUnits="userSpaceOnUse"
       gradientTransform="matrix(-0.954074,8.217683e-33,0.000000,-7.242089,-98.32971,528.5349)"
       x1="-181.00027"
       y1="65.430992"
       x2="-149.55615"
       y2="65.430992" />
    <linearGradient
       inkscape:collect="always"
       xlink:href="#linearGradient9952"
       id="linearGradient1616"
       gradientUnits="userSpaceOnUse"
       gradientTransform="matrix(-8.217683e-33,-0.954074,7.242089,0.000000,-260.6836,-239.1708)"
       x1="-181.00027"
       y1="65.430992"
       x2="-149.55615"
       y2="65.430992" />
    <linearGradient
       inkscape:collect="always"
       xlink:href="#linearGradient9952"
       id="linearGradient1617"
       gradientUnits="userSpaceOnUse"
       gradientTransform="matrix(8.217683e-33,0.954074,-7.242089,0.000000,669.3988,366.2039)"
       x1="-181.00027"
       y1="65.430992"
       x2="-149.55615"
       y2="65.430992" />
    <linearGradient
       inkscape:collect="always"
       xlink:href="#linearGradient9952"
       id="linearGradient1694"
       gradientUnits="userSpaceOnUse"
       gradientTransform="matrix(0.954074,-8.217683e-33,0.000000,7.242089,507.0450,-401.5478)"
       x1="-181.00027"
       y1="65.430992"
       x2="-149.55615"
       y2="65.430992" />
    <linearGradient
       inkscape:collect="always"
       xlink:href="#linearGradient9952"
       id="linearGradient1695"
       gradientUnits="userSpaceOnUse"
       gradientTransform="matrix(0.664395,0.684716,-0.684716,0.664395,124.5953,290.1885)"
       x1="-181.00027"
       y1="65.430992"
       x2="-149.55615"
       y2="65.430992" />
    <linearGradient
       inkscape:collect="always"
       xlink:href="#linearGradient9952"
       id="linearGradient1696"
       gradientUnits="userSpaceOnUse"
       gradientTransform="matrix(0.924683,0.234989,-0.234989,0.924683,142.2812,191.7570)"
       x1="-181.00027"
       y1="65.430992"
       x2="-149.55615"
       y2="65.430992" />
    <linearGradient
       inkscape:collect="always"
       xlink:href="#linearGradient9952"
       id="linearGradient1697"
       gradientUnits="userSpaceOnUse"
       gradientTransform="matrix(0.231054,0.925674,0.925674,-0.231054,-59.19725,392.3917)"
       x1="-181.00027"
       y1="65.430992"
       x2="-149.55615"
       y2="65.430992" />
    <linearGradient
       inkscape:collect="always"
       xlink:href="#linearGradient9952"
       id="linearGradient1698"
       gradientUnits="userSpaceOnUse"
       gradientTransform="matrix(0.664395,0.684716,-0.684716,0.664395,124.5953,290.1885)"
       x1="-181.00027"
       y1="65.430992"
       x2="-149.55615"
       y2="65.430992" />
    <linearGradient
       inkscape:collect="always"
       xlink:href="#linearGradient9952"
       id="linearGradient1699"
       gradientUnits="userSpaceOnUse"
       gradientTransform="matrix(0.924683,0.234989,-0.234989,0.924683,142.2812,191.7570)"
       x1="-181.00027"
       y1="65.430992"
       x2="-149.55615"
       y2="65.430992" />
    <linearGradient
       inkscape:collect="always"
       xlink:href="#linearGradient9952"
       id="linearGradient1700"
       gradientUnits="userSpaceOnUse"
       gradientTransform="matrix(0.231054,0.925674,0.925674,-0.231054,-59.19725,392.3917)"
       x1="-181.00027"
       y1="65.430992"
       x2="-149.55615"
       y2="65.430992" />
    <linearGradient
       inkscape:collect="always"
       xlink:href="#linearGradient9952"
       id="linearGradient1701"
       gradientUnits="userSpaceOnUse"
       gradientTransform="matrix(0.664395,0.684716,-0.684716,0.664395,124.5953,290.1885)"
       x1="-181.00027"
       y1="65.430992"
       x2="-149.55615"
       y2="65.430992" />
    <linearGradient
       inkscape:collect="always"
       xlink:href="#linearGradient9952"
       id="linearGradient1702"
       gradientUnits="userSpaceOnUse"
       gradientTransform="matrix(0.924683,0.234989,-0.234989,0.924683,142.2812,191.7570)"
       x1="-181.00027"
       y1="65.430992"
       x2="-149.55615"
       y2="65.430992" />
    <linearGradient
       inkscape:collect="always"
       xlink:href="#linearGradient9952"
       id="linearGradient1703"
       gradientUnits="userSpaceOnUse"
       gradientTransform="matrix(0.231054,0.925674,0.925674,-0.231054,-59.19725,392.3917)"
       x1="-181.00027"
       y1="65.430992"
       x2="-149.55615"
       y2="65.430992" />
    <linearGradient
       inkscape:collect="always"
       xlink:href="#linearGradient9952"
       id="linearGradient1704"
       gradientUnits="userSpaceOnUse"
       gradientTransform="matrix(0.664395,0.684716,-0.684716,0.664395,124.5953,290.1885)"
       x1="-181.00027"
       y1="65.430992"
       x2="-149.55615"
       y2="65.430992" />
    <linearGradient
       inkscape:collect="always"
       xlink:href="#linearGradient9952"
       id="linearGradient1705"
       gradientUnits="userSpaceOnUse"
       gradientTransform="matrix(0.924683,0.234989,-0.234989,0.924683,142.2812,191.7570)"
       x1="-181.00027"
       y1="65.430992"
       x2="-149.55615"
       y2="65.430992" />
    <linearGradient
       inkscape:collect="always"
       xlink:href="#linearGradient9952"
       id="linearGradient1706"
       gradientUnits="userSpaceOnUse"
       gradientTransform="matrix(0.231054,0.925674,0.925674,-0.231054,-59.19725,392.3917)"
       x1="-181.00027"
       y1="65.430992"
       x2="-149.55615"
       y2="65.430992" />
    <linearGradient
       inkscape:collect="always"
       xlink:href="#linearGradient9952"
       id="linearGradient1707"
       gradientUnits="userSpaceOnUse"
       gradientTransform="matrix(-0.954074,8.217683e-33,0.000000,-7.242089,-98.32971,528.5349)"
       x1="-181.00027"
       y1="65.430992"
       x2="-149.55615"
       y2="65.430992" />
    <linearGradient
       inkscape:collect="always"
       xlink:href="#linearGradient9952"
       id="linearGradient1708"
       gradientUnits="userSpaceOnUse"
       gradientTransform="matrix(-8.217683e-33,-0.954074,7.242089,0.000000,-260.6836,-239.1708)"
       x1="-181.00027"
       y1="65.430992"
       x2="-149.55615"
       y2="65.430992" />
    <linearGradient
       inkscape:collect="always"
       xlink:href="#linearGradient9952"
       id="linearGradient1709"
       gradientUnits="userSpaceOnUse"
       gradientTransform="matrix(8.217683e-33,0.954074,-7.242089,0.000000,669.3988,366.2039)"
       x1="-181.00027"
       y1="65.430992"
       x2="-149.55615"
       y2="65.430992" />
  </defs>
  <sodipodi:namedview
     id="base"
     pagecolor="#ffffff"
     bordercolor="#666666"
     borderopacity="1.0"
     inkscape:pageopacity="0.0"
     inkscape:pageshadow="2"
     inkscape:zoom="2.9843750"
     inkscape:cx="126.13533"
     inkscape:cy="127.99996"
     inkscape:current-layer="g1271"
     gridspacingy="10.000000pt"
     gridspacingx="10.000000pt"
     gridoriginy="0.0000000pt"
     gridoriginx="0.0000000pt"
     inkscape:window-width="1273"
     inkscape:window-height="944"
     inkscape:window-x="0"
     inkscape:window-y="46"
     showguides="true"
     inkscape:guide-bbox="true" />
  <metadata
     id="metadata4">
    <rdf:RDF
       id="RDF5">
      <cc:Work
         rdf:about=""
         id="Work6">
        <dc:format
           id="format7">image/svg+xml</dc:format>
        <dc:type
           id="type9"
           rdf:resource="http://purl.org/dc/dcmitype/StillImage" />
        <cc:license
           id="license1725"
           rdf:resource="http://creativecommons.org/licenses/GPL/2.0/" />
      </cc:Work>
      <cc:License
         rdf:about="http://creativecommons.org/licenses/GPL/2.0/"
         id="License1744">
        <cc:permits
           rdf:resource="http://web.resource.org/cc/Reproduction"
           id="permits1745" />
        <cc:permits
           rdf:resource="http://web.resource.org/cc/Distribution"
           id="permits1746" />
        <cc:requires
           rdf:resource="http://web.resource.org/cc/Notice"
           id="requires1747" />
        <cc:permits
           rdf:resource="http://web.resource.org/cc/DerivativeWorks"
           id="permits1748" />
        <cc:requires
           rdf:resource="http://web.resource.org/cc/ShareAlike"
           id="requires1749" />
        <cc:requires
           rdf:resource="http://web.resource.org/cc/SourceCode"
           id="requires1750" />
      </cc:License>
    </rdf:RDF>
  </metadata>
  <g
     inkscape:label="Base"
     inkscape:groupmode="layer"
     id="layer1"
     style="display:block"
     sodipodi:insensitive="1">
    <rect
       style="fill:#ffffff;fill-opacity:1.0000000;fill-rule:evenodd;stroke:none;stroke-width:8.9802618;stroke-miterlimit:4.0000000;stroke-opacity:1.0000000"
       id="rect2373"
       width="320.00000"
       height="320.00000"
       x="0.0000000"
       y="0.0000000"
       rx="0.0000000"
       ry="0.0000000" />
  </g>
  <g
     inkscape:groupmode="layer"
     id="layer5"
     inkscape:label="Boto"
     style="display:block"
     sodipodi:insensitive="1">
    <path
       style="fill:url(#linearGradient1694);fill-opacity:1.0000000;fill-rule:evenodd;stroke:none;stroke-width:8.9802618;stroke-miterlimit:4.0000000;stroke-opacity:1.0000000;display:block;"
       d="M 333.50708,-65.636916 L 364.35754,-65.559606 L 364.35754,192.62411 L 333.54183,192.57239 L 333.50708,-65.636916 z "
       id="rect10002"
       sodipodi:nodetypes="ccccc"
       transform="translate(-44.35756,96.48357)" />
    <g
       id="g2064"
       transform="translate(329.5388,79.35011)"
       style="display:block;">
      <path
         style="fill:url(#linearGradient1695);fill-opacity:1.0000000;fill-rule:evenodd;stroke:none;stroke-width:8.9802618;stroke-miterlimit:4.0000000;stroke-opacity:1.0000000"
         d="M -13.666605,224.15727 L -19.570525,231.25693 L -25.891519,237.00110 L -40.461822,209.72663 L -13.666605,224.15727 z "
         id="path2053"
         sodipodi:nodetypes="ccccc" />
      <path
         style="fill:url(#linearGradient1696);fill-opacity:1.0000000;fill-rule:evenodd;stroke:none;stroke-width:8.9802618;stroke-miterlimit:4.0000000;stroke-opacity:1.0000000"
         d="M -9.5387644,209.84671 L -11.386019,217.11565 L -13.233279,224.38461 L -40.461822,209.72663 L -9.5387644,209.84671 z "
         id="path2060"
         sodipodi:nodetypes="ccccc" />
      <path
         style="fill:url(#linearGradient1697);fill-opacity:1.0000000;fill-rule:evenodd;stroke:none;stroke-width:8.9802618;stroke-miterlimit:4.0000000;stroke-opacity:1.0000000"
         d="M -40.461822,240.64992 L -33.185084,238.83361 L -25.908336,237.01728 L -40.450347,209.72663 L -40.461822,240.64992 z "
         id="path2062"
         sodipodi:nodetypes="ccccc" />
    </g>
    <g
       id="g2999"
       transform="matrix(0.000000,1.000000,-1.000000,0.000000,240.6498,329.5388)"
       style="display:block;">
      <path
         style="fill:url(#linearGradient1698);fill-opacity:1.0000000;fill-rule:evenodd;stroke:none;stroke-width:8.9802618;stroke-miterlimit:4.0000000;stroke-opacity:1.0000000"
         d="M -13.666605,224.15727 L -19.570525,231.25693 L -25.891519,237.00110 L -40.461822,209.72663 L -13.666605,224.15727 z "
         id="path3000"
         sodipodi:nodetypes="ccccc" />
      <path
         style="fill:url(#linearGradient1699);fill-opacity:1.0000000;fill-rule:evenodd;stroke:none;stroke-width:8.9802618;stroke-miterlimit:4.0000000;stroke-opacity:1.0000000"
         d="M -9.5387644,209.84671 L -11.386019,217.11565 L -13.233279,224.38461 L -40.461822,209.72663 L -9.5387644,209.84671 z "
         id="path3001"
         sodipodi:nodetypes="ccccc" />
      <path
         style="fill:url(#linearGradient1700);fill-opacity:1.0000000;fill-rule:evenodd;stroke:none;stroke-width:8.9802618;stroke-miterlimit:4.0000000;stroke-opacity:1.0000000"
         d="M -40.461822,240.64992 L -33.185084,238.83361 L -25.908336,237.01728 L -40.450347,209.72663 L -40.461822,240.64992 z "
         id="path3002"
         sodipodi:nodetypes="ccccc" />
    </g>
    <g
       id="g3006"
       transform="matrix(0.000000,-1.000000,1.000000,0.000000,79.35004,-9.538830)"
       style="display:block;">
      <path
         style="fill:url(#linearGradient1701);fill-opacity:1.0000000;fill-rule:evenodd;stroke:none;stroke-width:8.9802618;stroke-miterlimit:4.0000000;stroke-opacity:1.0000000"
         d="M -13.666605,224.15727 L -19.570525,231.25693 L -25.891519,237.00110 L -40.461822,209.72663 L -13.666605,224.15727 z "
         id="path3007"
         sodipodi:nodetypes="ccccc" />
      <path
         style="fill:url(#linearGradient1702);fill-opacity:1.0000000;fill-rule:evenodd;stroke:none;stroke-width:8.9802618;stroke-miterlimit:4.0000000;stroke-opacity:1.0000000"
         d="M -9.5387644,209.84671 L -11.386019,217.11565 L -13.233279,224.38461 L -40.461822,209.72663 L -9.5387644,209.84671 z "
         id="path3008"
         sodipodi:nodetypes="ccccc" />
      <path
         style="fill:url(#linearGradient1703);fill-opacity:1.0000000;fill-rule:evenodd;stroke:none;stroke-width:8.9802618;stroke-miterlimit:4.0000000;stroke-opacity:1.0000000"
         d="M -40.461822,240.64992 L -33.185084,238.83361 L -25.908336,237.01728 L -40.450347,209.72663 L -40.461822,240.64992 z "
         id="path3009"
         sodipodi:nodetypes="ccccc" />
    </g>
    <g
       id="g3010"
       transform="matrix(-1.000000,0.000000,0.000000,-1.000000,-9.538790,240.6500)"
       style="display:block;">
      <path
         style="fill:url(#linearGradient1704);fill-opacity:1.0000000;fill-rule:evenodd;stroke:none;stroke-width:8.9802618;stroke-miterlimit:4.0000000;stroke-opacity:1.0000000"
         d="M -13.666605,224.15727 L -19.570525,231.25693 L -25.891519,237.00110 L -40.461822,209.72663 L -13.666605,224.15727 z "
         id="path3011"
         sodipodi:nodetypes="ccccc" />
      <path
         style="fill:url(#linearGradient1705);fill-opacity:1.0000000;fill-rule:evenodd;stroke:none;stroke-width:8.9802618;stroke-miterlimit:4.0000000;stroke-opacity:1.0000000"
         d="M -9.5387644,209.84671 L -11.386019,217.11565 L -13.233279,224.38461 L -40.461822,209.72663 L -9.5387644,209.84671 z "
         id="path3012"
         sodipodi:nodetypes="ccccc" />
      <path
         style="fill:url(#linearGradient1706);fill-opacity:1.0000000;fill-rule:evenodd;stroke:none;stroke-width:8.9802618;stroke-miterlimit:4.0000000;stroke-opacity:1.0000000"
         d="M -40.461822,240.64992 L -33.185084,238.83361 L -25.908336,237.01728 L -40.450347,209.72663 L -40.461822,240.64992 z "
         id="path3013"
         sodipodi:nodetypes="ccccc" />
    </g>
    <path
       style="fill:url(#linearGradient1707);fill-opacity:1.0000000;fill-rule:evenodd;stroke:none;stroke-width:8.9802618;stroke-miterlimit:4.0000000;stroke-opacity:1.0000000;display:block;"
       d="M 75.207999,192.62411 L 44.357539,192.54679 L 44.357539,-65.636926 L 75.173249,-65.585206 L 75.207999,192.62411 z "
       id="path3021"
       sodipodi:nodetypes="ccccc"
       transform="translate(-44.35756,96.48357)" />
    <path
       style="fill:url(#linearGradient1708);fill-opacity:1.0000000;fill-rule:evenodd;stroke:none;stroke-width:8.9802618;stroke-miterlimit:4.0000000;stroke-opacity:1.0000000;display:block;"
       d="M 75.227019,-65.633046 L 75.304339,-96.483506 L 333.48806,-96.483506 L 333.43634,-65.667796 L 75.227019,-65.633046 z "
       id="path3023"
       sodipodi:nodetypes="ccccc"
       transform="translate(-44.35756,96.48357)" />
    <path
       style="fill:url(#linearGradient1709);fill-opacity:1.0000000;fill-rule:evenodd;stroke:none;stroke-width:8.9802618;stroke-miterlimit:4.0000000;stroke-opacity:1.0000000;display:block;"
       d="M 333.48806,192.66603 L 333.41074,223.51649 L 75.227019,223.51649 L 75.278739,192.70078 L 333.48806,192.66603 z "
       id="path3054"
       sodipodi:nodetypes="ccccc"
       transform="translate(-44.35756,96.48357)" />
    <rect
       style="fill:#0000ff;fill-opacity:0.78431374;fill-rule:evenodd;stroke:none;stroke-width:15.000000;stroke-miterlimit:4.0000000;stroke-opacity:1.0000000;display:block;"
       id="rect3057"
       width="265.03928"
       height="265.03928"
       x="71.837898"
       y="-69.003174"
       transform="translate(-44.35756,96.48357)" />
    <rect
       style="fill:#ffffff;fill-opacity:0.85537916;fill-rule:evenodd;stroke:none;stroke-width:8.9802618;stroke-miterlimit:4.0000000;stroke-opacity:1.0000000;display:block;"
       id="rect5542"
       width="320.00000"
       height="320.00000"
       x="44.357540"
       y="-96.483521"
       rx="0.0000000"
       ry="0.0000000"
       transform="translate(-44.35756,96.48357)" />
    <path
       style="fill:#ffffff;fill-opacity:1.0000000;fill-rule:evenodd;stroke:none;stroke-width:15.000000;stroke-miterlimit:4.0000000;stroke-opacity:1.0000000;display:block;"
       d="M 99.804629,182.93893 L 84.227709,182.92172 L 84.227709,-56.467096 L 323.83878,-56.467096 L 323.84161,-40.890176 L 99.804629,-40.890176 L 99.804629,182.93893 z "
       id="path1115"
       sodipodi:nodetypes="ccccccc"
       transform="translate(-44.35756,96.48357)" />
    <path
       style="fill:#000000;fill-opacity:1.0000000;fill-rule:evenodd;stroke:none;stroke-width:15.000000;stroke-miterlimit:4.0000000;stroke-opacity:1.0000000;display:block;"
       d="M 69.636429,207.78079 L 69.659909,198.73213 L 339.12473,198.73213 L 339.12473,-71.153506 L 348.17339,-71.258336 L 348.17339,207.78079 L 69.636429,207.78079 z "
       id="path1119"
       sodipodi:nodetypes="ccccccc"
       transform="translate(-44.35756,96.48357)" />
    <path
       id="rect6786"
       style="opacity:0.39999983;fill:#0000ff;fill-opacity:1.0000000;fill-rule:evenodd;stroke:none;stroke-width:15.000000;stroke-miterlimit:4.0000000;stroke-opacity:1.0000000;display:block;"
       d="M 69.357539,-71.483506 L 339.35754,-71.483506 L 339.35754,198.51649 L 69.357539,198.51649 L 69.357539,-71.483506 z M 84.934469,-55.906576 L 323.78061,-55.906576 L 323.78061,182.93956 L 84.934469,182.93956 L 84.934469,-55.906576 z "
       transform="translate(-44.35756,96.48357)" />
  </g>
  <path
     d=""
     id="path3081" />
  <g
     id="g1271"
     inkscape:groupmode="layer"
     inkscape:label="Dibuix"
     transform="translate(184.5158,-340.6444)"
     style="display:block">
    <path
       d=""
       id="path1415"
       transform="translate(-184.5158,340.6444)" />
    <g
       id="g1213"
       transform="matrix(1.000003,0.000000,0.000000,1.000000,-168.4995,330.8150)">
      <path
         style="fill:#007dff;fill-opacity:1.0000000;fill-rule:evenodd;stroke:none;stroke-width:7.5000000;stroke-linecap:round;stroke-linejoin:round;stroke-miterlimit:4.0000000;stroke-dasharray:7.5000000 15.000000 ;stroke-dashoffset:0.0000000;stroke-opacity:1.0000000"
         d="M 268.85957,160.18694 C 268.85957,185.39885 221.34069,206.42807 145.45529,207.56284 C 79.215283,206.99544 28.859523,185.39885 28.859523,160.18694 C 28.859523,134.97501 82.619533,114.51317 148.85955,114.51317 C 215.03221,114.51317 268.75372,134.92773 268.85942,160.11398"
         id="path3871"
         sodipodi:nodetypes="ccccc" />
      <path
         style="fill:#009eff;fill-opacity:1.0000000;fill-rule:evenodd;stroke:none;stroke-width:7.5000000;stroke-linecap:round;stroke-linejoin:round;stroke-miterlimit:4.0000000;stroke-dasharray:7.5000000 15.000000 ;stroke-dashoffset:0.0000000;stroke-opacity:1.0000000"
         d="M 268.85957,172.66922 C 269.42694,183.12935 271.26978,298.91035 150.56167,298.34298 C 31.555703,304.58410 29.994273,184.83148 28.859523,173.80396 C 26.278803,148.72447 23.045073,203.02381 143.75316,210.96707 C 272.33717,204.15855 268.75372,153.65113 268.85942,178.83738"
         id="path1700"
         sodipodi:nodetypes="ccscc" />
      <path
         id="path1698"
         style="fill:#7b7d7b;fill-opacity:0.61552030;fill-rule:evenodd;stroke:none;stroke-width:7.5000000;stroke-linecap:round;stroke-linejoin:round;stroke-miterlimit:4.0000000;stroke-dasharray:7.5000000 15.000000 ;stroke-dashoffset:0.0000000;stroke-opacity:1.0000000"
         d="M 268.85957,160.18694 C 268.85957,185.39886 271.26978,298.91035 150.56168,298.34298 C 31.555703,304.58410 28.859523,185.39886 28.859523,160.18694 C 28.859523,134.97502 82.619533,114.51317 148.85955,114.51317 C 215.03221,114.51317 268.75372,134.92773 268.85942,160.11398 M 76.923353,156.53942 C 76.923353,153.45222 77.170043,139.55272 64.815493,139.62220 C 52.635143,138.85797 52.359193,153.45222 52.359193,156.53942 C 52.359193,159.62663 57.861563,162.13219 64.641273,162.13219 C 71.414093,162.13219 76.912533,159.63242 76.923343,156.54836 M 103.47999,130.75162 C 103.47999,133.29483 103.72668,144.74507 91.372123,144.68783 C 79.191773,145.31739 78.915813,133.29483 78.915813,130.75162 C 78.915813,128.20842 84.418183,126.14437 91.197903,126.14437 C 97.970723,126.14437 103.46917,128.20365 103.47997,130.74426 M 130.03660,156.53942 C 130.03660,153.45222 130.28329,139.55272 117.92874,139.62220 C 105.74839,138.85797 105.47244,153.45222 105.47244,156.53942 C 105.47244,159.62663 110.97480,162.13219 117.75452,162.13219 C 124.52733,162.13219 130.02578,159.63242 130.03658,156.54836 M 130.03660,125.19990 C 130.03660,124.13327 130.28329,119.33102 117.92874,119.35503 C 105.74839,119.09099 105.47244,124.13327 105.47244,125.19990 C 105.47244,126.26652 110.97480,127.13219 117.75452,127.13219 C 124.52733,127.13219 130.02578,126.26852 130.03658,125.20299 M 103.48007,266.77999 C 103.48007,269.32320 103.67547,280.77344 93.889143,280.71620 C 84.240793,281.34576 84.022203,269.32320 84.022203,266.77999 C 84.022203,264.23679 88.380753,262.17274 93.751143,262.17274 C 99.116043,262.17274 103.47149,264.23202 103.48005,266.77263 M 130.03660,288.86083 C 130.03660,287.17249 130.28329,279.57109 117.92874,279.60908 C 105.74839,279.19114 105.47244,287.17249 105.47244,288.86083 C 105.47244,290.54917 110.97480,291.91942 117.75452,291.91942 C 124.52733,291.91942 130.02578,290.55234 130.03658,288.86572 M 50.367023,228.96424 C 50.367023,229.95315 50.425683,234.40551 47.487923,234.38326 C 44.591593,234.62806 44.525973,229.95315 44.525973,228.96424 C 44.525973,227.97533 45.834373,227.17274 47.446503,227.17274 C 49.056993,227.17274 50.364453,227.97348 50.367023,228.96138 M 76.923463,256.84696 C 76.923463,254.61461 77.101773,244.56394 68.171513,244.61418 C 59.367173,244.06157 59.167713,254.61461 59.167713,256.84696 C 59.167713,259.07930 63.144993,260.89106 68.045583,260.89106 C 72.941193,260.89106 76.915633,259.08348 76.923453,256.85341 M 103.47999,232.76550 C 103.47999,235.85271 103.72668,249.75221 91.372123,249.68273 C 79.191773,250.44696 78.915813,235.85271 78.915813,232.76550 C 78.915813,229.67830 84.418183,227.17274 91.197903,227.17274 C 97.970723,227.17274 103.46917,229.67251 103.47997,232.75657 M 130.03660,261.53943 C 130.03660,258.45222 130.28329,244.55272 117.92874,244.62220 C 105.74839,243.85797 105.47244,258.45222 105.47244,261.53943 C 105.47244,264.62663 110.97480,267.13219 117.75452,267.13219 C 124.52733,267.13219 130.02578,264.63242 130.03658,261.54836 M 50.366913,197.76550 C 50.366913,200.85271 50.499643,214.75221 43.852233,214.68273 C 37.298563,215.44696 37.150083,200.85271 37.150083,197.76550 C 37.150083,194.67830 40.110653,192.17274 43.758503,192.17274 C 47.402643,192.17274 50.361093,194.67251 50.366913,197.75657 M 76.923353,226.53943 C 76.923353,223.45222 77.170043,209.55272 64.815493,209.62220 C 52.635143,208.85797 52.359193,223.45222 52.359193,226.53943 C 52.359193,229.62663 57.861563,232.13219 64.641273,232.13219 C 71.414093,232.13219 76.912533,229.63242 76.923343,226.54836 M 103.47999,197.76550 C 103.47999,200.85271 103.72668,214.75221 91.372123,214.68273 C 79.191773,215.44696 78.915813,200.85271 78.915813,197.76550 C 78.915813,194.67830 84.418183,192.17274 91.197903,192.17274 C 97.970723,192.17274 103.46917,194.67251 103.47997,197.75657 M 130.03660,226.53943 C 130.03660,223.45222 130.28329,209.55272 117.92874,209.62220 C 105.74839,208.85797 105.47244,223.45222 105.47244,226.53943 C 105.47244,229.62663 110.97480,232.13219 117.75452,232.13219 C 124.52733,232.13219 130.02578,229.63242 130.03658,226.54836 M 50.366863,162.76550 C 50.366863,165.85271 50.533783,179.75221 42.174223,179.68273 C 33.932553,180.44696 33.745833,165.85271 33.745833,162.76550 C 33.745833,159.67830 37.468943,157.17274 42.056343,157.17274 C 46.639093,157.17274 50.359543,159.67251 50.366863,162.75657 M 76.923353,191.53943 C 76.923353,188.45222 77.170043,174.55272 64.815493,174.62220 C 52.635143,173.85797 52.359193,188.45222 52.359193,191.53943 C 52.359193,194.62663 57.861563,197.13219 64.641273,197.13219 C 71.414093,197.13219 76.912533,194.63242 76.923343,191.54836 M 103.47999,162.76550 C 103.47999,165.85271 103.72668,179.75221 91.372123,179.68273 C 79.191773,180.44696 78.915813,165.85271 78.915813,162.76550 C 78.915813,159.67830 84.418183,157.17274 91.197903,157.17274 C 97.970723,157.17274 103.46917,159.67251 103.47997,162.75657 M 130.03660,191.53943 C 130.03660,188.45222 130.28329,174.55272 117.92874,174.62220 C 105.74839,173.85797 105.47244,188.45222 105.47244,191.53943 C 105.47244,194.62663 110.97480,197.13219 117.75452,197.13219 C 124.52733,197.13219 130.02578,194.63242 130.03658,191.54836 M 154.75349,127.76550 C 154.75349,130.85271 155.00018,144.75221 142.64562,144.68273 C 130.46527,145.44696 130.18932,130.85271 130.18932,127.76550 C 130.18932,124.67830 135.69169,122.17274 142.47141,122.17274 C 149.24422,122.17274 154.74266,124.67251 154.75348,127.75657 M 181.31013,156.53942 C 181.31013,153.45222 181.55681,139.55272 169.20225,139.62220 C 157.02190,138.85797 156.74595,153.45222 156.74595,156.53942 C 156.74595,159.62663 162.24832,162.13219 169.02804,162.13219 C 175.80086,162.13219 181.29929,159.63242 181.31011,156.54836 M 207.86675,127.76550 C 207.86675,130.85271 208.11344,144.75221 195.75887,144.68273 C 183.57853,145.44696 183.30257,130.85271 183.30257,127.76550 C 183.30257,124.67830 188.80495,122.17274 195.58466,122.17274 C 202.35749,122.17274 207.85593,124.67251 207.86674,127.75657 M 234.42336,156.53942 C 234.42336,153.45222 234.67005,139.55272 222.31550,139.62220 C 210.13515,138.85797 209.85920,153.45222 209.85920,156.53942 C 209.85920,159.62663 215.36157,162.13219 222.14128,162.13219 C 228.91410,162.13219 234.41254,159.63242 234.42335,156.54836 M 248.49791,138.85680 C 248.49791,139.92343 248.61924,144.72568 242.54256,144.70168 C 236.55155,144.96572 236.41582,139.92343 236.41582,138.85680 C 236.41582,137.79018 239.12221,136.92451 242.45687,136.92451 C 245.78813,136.92451 248.49258,137.78818 248.49790,138.85372 M 181.31013,125.48148 C 181.31013,124.57028 181.55681,120.46781 169.20225,120.48832 C 157.02190,120.26276 156.74595,124.57028 156.74595,125.48148 C 156.74595,126.39267 162.24832,127.13219 169.02804,127.13219 C 175.80086,127.13219 181.29929,126.39438 181.31011,125.48411 M 154.75349,267.76550 C 154.75349,270.85271 155.00018,284.75221 142.64562,284.68273 C 130.46527,285.44696 130.18932,270.85271 130.18932,267.76550 C 130.18932,264.67830 135.69169,262.17274 142.47141,262.17274 C 149.24422,262.17274 154.74266,264.67251 154.75348,267.75657 M 181.31013,288.86083 C 181.31013,287.17249 181.55681,279.57109 169.20225,279.60908 C 157.02190,279.19114 156.74595,287.17249 156.74595,288.86083 C 156.74595,290.54917 162.24832,291.91942 169.02804,291.91942 C 175.80086,291.91942 181.29929,290.55234 181.31011,288.86572 M 207.86675,267.76550 C 207.86675,270.85271 208.11344,284.75221 195.75887,284.68273 C 183.57853,285.44696 183.30257,270.85271 183.30257,267.76550 C 183.30257,264.67830 188.80495,262.17274 195.58466,262.17274 C 202.35749,262.17274 207.85593,264.67251 207.86674,267.75657 M 154.75349,232.76550 C 154.75349,235.85271 155.00018,249.75221 142.64562,249.68273 C 130.46527,250.44696 130.18932,235.85271 130.18932,232.76550 C 130.18932,229.67830 135.69169,227.17274 142.47141,227.17274 C 149.24422,227.17274 154.74266,229.67251 154.75348,232.75657 M 181.31013,261.53943 C 181.31013,258.45222 181.55681,244.55272 169.20225,244.62220 C 157.02190,243.85797 156.74595,258.45222 156.74595,261.53943 C 156.74595,264.62663 162.24832,267.13219 169.02804,267.13219 C 175.80086,267.13219 181.29929,264.63242 181.31011,261.54836 M 207.86675,232.76550 C 207.86675,235.85271 208.11344,249.75221 195.75887,249.68273 C 183.57853,250.44696 183.30257,235.85271 183.30257,232.76550 C 183.30257,229.67830 188.80495,227.17274 195.58466,227.17274 C 202.35749,227.17274 207.85593,229.67251 207.86674,232.75657 M 234.42336,261.53943 C 234.42336,258.45222 234.67005,244.55272 222.31550,244.62220 C 210.13515,243.85797 209.85920,258.45222 209.85920,261.53943 C 209.85920,264.62663 215.36157,267.13219 222.14128,267.13219 C 228.91410,267.13219 234.41254,264.63242 234.42335,261.54836 M 252.46948,231.49841 C 252.46948,233.88619 252.63070,244.63664 244.55651,244.58291 C 236.59617,245.17399 236.41582,233.88619 236.41582,231.49841 C 236.41582,229.11064 240.01184,227.17274 244.44265,227.17274 C 248.86895,227.17274 252.46241,229.10617 252.46946,231.49151 M 154.75349,197.76550 C 154.75349,200.85271 155.00018,214.75221 142.64562,214.68273 C 130.46527,215.44696 130.18932,200.85271 130.18932,197.76550 C 130.18932,194.67830 135.69169,192.17274 142.47141,192.17274 C 149.24422,192.17274 154.74266,194.67251 154.75348,197.75657 M 181.31013,226.53943 C 181.31013,223.45222 181.55681,209.55272 169.20225,209.62220 C 157.02190,208.85797 156.74595,223.45222 156.74595,226.53943 C 156.74595,229.62663 162.24832,232.13219 169.02804,232.13219 C 175.80086,232.13219 181.29929,229.63242 181.31011,226.54836 M 207.86675,197.76550 C 207.86675,200.85271 208.11344,214.75221 195.75887,214.68273 C 183.57853,215.44696 183.30257,200.85271 183.30257,197.76550 C 183.30257,194.67830 188.80495,192.17274 195.58466,192.17274 C 202.35749,192.17274 207.85593,194.67251 207.86674,197.75657 M 234.42336,226.53943 C 234.42336,223.45222 234.67005,209.55272 222.31550,209.62220 C 210.13515,208.85797 209.85920,223.45222 209.85920,226.53943 C 209.85920,229.62663 215.36157,232.13219 222.14128,232.13219 C 228.91410,232.13219 234.41254,229.63242 234.42335,226.54836 M 260.97999,197.76550 C 260.97999,200.85271 261.22668,214.75221 248.87213,214.68273 C 236.69178,215.44696 236.41582,200.85271 236.41582,197.76550 C 236.41582,194.67830 241.91819,192.17274 248.69791,192.17274 C 255.47072,192.17274 260.96917,194.67251 260.97997,197.75657 M 154.75349,162.76550 C 154.75349,165.85271 155.00018,179.75221 142.64562,179.68273 C 130.46527,180.44696 130.18932,165.85271 130.18932,162.76550 C 130.18932,159.67830 135.69169,157.17274 142.47141,157.17274 C 149.24422,157.17274 154.74266,159.67251 154.75348,162.75657 M 181.31013,191.53943 C 181.31013,188.45222 181.55681,174.55272 169.20225,174.62220 C 157.02190,173.85797 156.74595,188.45222 156.74595,191.53943 C 156.74595,194.62663 162.24832,197.13219 169.02804,197.13219 C 175.80086,197.13219 181.29929,194.63242 181.31011,191.54836 M 207.86675,162.76550 C 207.86675,165.85271 208.11344,179.75221 195.75887,179.68273 C 183.57853,180.44696 183.30257,165.85271 183.30257,162.76550 C 183.30257,159.67830 188.80495,157.17274 195.58466,157.17274 C 202.35749,157.17274 207.85593,159.67251 207.86674,162.75657 M 234.42336,191.53943 C 234.42336,188.45222 234.67005,174.55272 222.31550,174.62220 C 210.13515,173.85797 209.85920,188.45222 209.85920,191.53943 C 209.85920,194.62663 215.36157,197.13219 222.14128,197.13219 C 228.91410,197.13219 234.41254,194.63242 234.42335,191.54836 M 260.97999,162.76550 C 260.97999,165.85271 261.22668,179.75221 248.87213,179.68273 C 236.69178,180.44696 236.41582,165.85271 236.41582,162.76550 C 236.41582,159.67830 241.91819,157.17274 248.69791,157.17274 C 255.47072,157.17274 260.96917,159.67251 260.97997,162.75657" />
      <path
         id="path1069"
         style="fill:#4538b5;fill-opacity:1.0000000;fill-rule:evenodd;stroke:none;stroke-width:7.5000000;stroke-linecap:round;stroke-linejoin:round;stroke-miterlimit:4.0000000;stroke-dasharray:7.5000000 15.000000 ;stroke-dashoffset:0.0000000;stroke-opacity:1.0000000"
         d="M 285.31342,162.74008 C 285.31342,191.86689 226.21555,215.50604 153.39853,215.50604 C 80.581513,215.50604 21.483643,191.86689 21.483643,162.74008 C 21.483643,133.61327 80.581513,109.97412 153.39853,109.97412 C 171.58427,109.97412 227.08425,133.54605 250.63975,25.035829 C 254.99846,4.9571092 295.53856,9.4014192 291.41363,21.573739 C 285.76062,38.255267 196.70327,106.90992 274.88204,142.14892 C 283.26113,145.92579 285.28420,155.38151 285.31325,162.65580 M 269.17869,160.18689 C 269.17869,185.39881 215.41868,205.86065 149.17867,205.86065 C 82.938683,205.86065 29.178673,185.39881 29.178673,160.18689 C 29.178673,134.97497 82.938683,114.51313 149.17867,114.51313 C 215.35132,114.51313 269.07283,134.92768 269.17852,160.11393" />
    </g>
  </g>
  <g
     inkscape:groupmode="layer"
     id="layer6"
     inkscape:label="Propietat"
     style="display:block"
     sodipodi:insensitive="1">
    <g
       id="g6094"
       transform="matrix(0.925862,0.000000,0.000000,0.925862,143.7747,118.5623)"
       inkscape:export-xdpi="96.000000"
       inkscape:export-ydpi="96.000000"
       style="display:block">
      <path
         style="fill:#ffffff;fill-opacity:1.0000000;fill-rule:evenodd;stroke:#0000cd;stroke-width:8.1005621;stroke-miterlimit:4.0000000;stroke-opacity:1.0000000"
         d="M -151.23716,-57.772351 C -151.23716,-21.211475 -151.23716,-49.333221 -151.23716,-12.772347 C -151.23716,23.788523 -121.56457,53.461123 -85.003690,53.461123 C -48.442820,53.461123 -18.770230,23.788523 -18.770230,-12.772347 C -18.770230,-49.333221 -18.770230,-21.211475 -18.770230,-57.772351 C -18.770230,-94.333227 -48.442820,-124.00582 -85.003690,-124.00582 C -121.56457,-124.00582 -151.23716,-94.333227 -151.23716,-57.772351 z "
         id="path4847"
         sodipodi:nodetypes="ccccccc" />
      <path
         style="fill:#0000cd;fill-opacity:1.0000000;stroke:none"
         d="M -129.21657,-89.000316 L -129.21657,-73.024359 L -40.790820,-73.024359 L -40.790820,-89.000316 L -129.21657,-89.000316 z M -129.21657,-58.516780 L -129.21657,-42.526137 L -40.790820,-42.526137 L -40.790820,-58.516780 L -129.21657,-58.516780 z M -129.21657,-28.018558 L -129.21657,-12.027911 L -40.790820,-12.027911 L -40.790820,-28.018558 L -129.21657,-28.018558 z M -129.21657,2.4796691 L -129.21657,18.455619 L -40.790820,18.455619 L -40.790820,2.4796691 L -129.21657,2.4796691 z "
         id="polyline1684"
         sodipodi:nodetypes="cccccccccccccccccccc" />
    </g>
  </g>
</svg>
