<?xml version="1.0" encoding="UTF-8" standalone="no"?>
<!DOCTYPE svg PUBLIC "-//W3C//DTD SVG 20010904//EN"
"http://www.w3.org/TR/2001/REC-SVG-20010904/DTD/svg10.dtd">
<!-- Created with Inkscape (http://www.inkscape.org/) -->
<svg
   width="320.00000"
   height="320.00000"
   id="svg1"
   sodipodi:version="0.32"
   inkscape:version="0.40"
   sodipodi:docbase="/home/raul/iglues/nous dissenys/svg"
   sodipodi:docname="i_bulmages_bancos_mas.svg"
   version="1.0"
   x="0.0000000"
   y="0.0000000"
   inkscape:export-filename="/home/raul/iglues/nous dissenys/png/i_bulmages_bancos_mas.png"
   inkscape:export-xdpi="96.000000"
   inkscape:export-ydpi="96.000000"
   xmlns="http://www.w3.org/2000/svg"
   xmlns:cc="http://web.resource.org/cc/"
   xmlns:inkscape="http://www.inkscape.org/namespaces/inkscape"
   xmlns:sodipodi="http://sodipodi.sourceforge.net/DTD/sodipodi-0.dtd"
   xmlns:rdf="http://www.w3.org/1999/02/22-rdf-syntax-ns#"
   xmlns:dc="http://purl.org/dc/elements/1.1/"
   xmlns:xlink="http://www.w3.org/1999/xlink">
  <defs
     id="defs3">
    <linearGradient
       inkscape:collect="always"
       id="linearGradient9952">
      <stop
         style="stop-color:#0000ff;stop-opacity:1;"
         offset="0"
         id="stop9953" />
      <stop
         style="stop-color:#0000ff;stop-opacity:0;"
         offset="1"
         id="stop9954" />
    </linearGradient>
    <linearGradient
       inkscape:collect="always"
       xlink:href="#linearGradient9952"
       id="linearGradient2369"
       gradientUnits="userSpaceOnUse"
       gradientTransform="matrix(0.664395,0.684716,-0.684716,0.664395,124.5953,290.1885)"
       x1="-181.00027"
       y1="65.430992"
       x2="-149.55615"
       y2="65.430992" />
    <linearGradient
       inkscape:collect="always"
       xlink:href="#linearGradient9952"
       id="linearGradient2370"
       gradientUnits="userSpaceOnUse"
       gradientTransform="matrix(0.924683,0.234989,-0.234989,0.924683,142.2812,191.7570)"
       x1="-181.00027"
       y1="65.430992"
       x2="-149.55615"
       y2="65.430992" />
    <linearGradient
       inkscape:collect="always"
       xlink:href="#linearGradient9952"
       id="linearGradient2371"
       gradientUnits="userSpaceOnUse"
       gradientTransform="matrix(0.231054,0.925674,0.925674,-0.231054,-59.19725,392.3917)"
       x1="-181.00027"
       y1="65.430992"
       x2="-149.55615"
       y2="65.430992" />
    <linearGradient
       inkscape:collect="always"
       xlink:href="#linearGradient9952"
       id="linearGradient2372"
       gradientUnits="userSpaceOnUse"
       gradientTransform="matrix(0.954074,-8.217683e-33,0.000000,7.242089,462.6874,-305.0642)"
       x1="-181.00027"
       y1="65.430992"
       x2="-149.55615"
       y2="65.430992" />
    <linearGradient
       inkscape:collect="always"
       xlink:href="#linearGradient9952"
       id="linearGradient3003"
       gradientUnits="userSpaceOnUse"
       gradientTransform="matrix(0.664395,0.684716,-0.684716,0.664395,124.5953,290.1885)"
       x1="-181.00027"
       y1="65.430992"
       x2="-149.55615"
       y2="65.430992" />
    <linearGradient
       inkscape:collect="always"
       xlink:href="#linearGradient9952"
       id="linearGradient3004"
       gradientUnits="userSpaceOnUse"
       gradientTransform="matrix(0.924683,0.234989,-0.234989,0.924683,142.2812,191.7570)"
       x1="-181.00027"
       y1="65.430992"
       x2="-149.55615"
       y2="65.430992" />
    <linearGradient
       inkscape:collect="always"
       xlink:href="#linearGradient9952"
       id="linearGradient3005"
       gradientUnits="userSpaceOnUse"
       gradientTransform="matrix(0.231054,0.925674,0.925674,-0.231054,-59.19725,392.3917)"
       x1="-181.00027"
       y1="65.430992"
       x2="-149.55615"
       y2="65.430992" />
    <linearGradient
       inkscape:collect="always"
       xlink:href="#linearGradient9952"
       id="linearGradient3022"
       gradientUnits="userSpaceOnUse"
       gradientTransform="matrix(-0.954074,8.217683e-33,0.000000,-7.242089,-142.6873,625.0184)"
       x1="-181.00027"
       y1="65.430992"
       x2="-149.55615"
       y2="65.430992" />
    <linearGradient
       inkscape:collect="always"
       xlink:href="#linearGradient9952"
       id="linearGradient3024"
       gradientUnits="userSpaceOnUse"
       gradientTransform="matrix(-8.217683e-33,-0.954074,7.242089,0.000000,-305.0412,-142.6872)"
       x1="-181.00027"
       y1="65.430992"
       x2="-149.55615"
       y2="65.430992" />
    <linearGradient
       inkscape:collect="always"
       xlink:href="#linearGradient9952"
       id="linearGradient3048"
       gradientUnits="userSpaceOnUse"
       gradientTransform="matrix(0.664395,0.684716,-0.684716,0.664395,124.5953,290.1885)"
       x1="-181.00027"
       y1="65.430992"
       x2="-149.55615"
       y2="65.430992" />
    <linearGradient
       inkscape:collect="always"
       xlink:href="#linearGradient9952"
       id="linearGradient3049"
       gradientUnits="userSpaceOnUse"
       gradientTransform="matrix(0.924683,0.234989,-0.234989,0.924683,142.2812,191.7570)"
       x1="-181.00027"
       y1="65.430992"
       x2="-149.55615"
       y2="65.430992" />
    <linearGradient
       inkscape:collect="always"
       xlink:href="#linearGradient9952"
       id="linearGradient3050"
       gradientUnits="userSpaceOnUse"
       gradientTransform="matrix(0.231054,0.925674,0.925674,-0.231054,-59.19725,392.3917)"
       x1="-181.00027"
       y1="65.430992"
       x2="-149.55615"
       y2="65.430992" />
    <linearGradient
       inkscape:collect="always"
       xlink:href="#linearGradient9952"
       id="linearGradient3051"
       gradientUnits="userSpaceOnUse"
       gradientTransform="matrix(0.664395,0.684716,-0.684716,0.664395,124.5953,290.1885)"
       x1="-181.00027"
       y1="65.430992"
       x2="-149.55615"
       y2="65.430992" />
    <linearGradient
       inkscape:collect="always"
       xlink:href="#linearGradient9952"
       id="linearGradient3052"
       gradientUnits="userSpaceOnUse"
       gradientTransform="matrix(0.924683,0.234989,-0.234989,0.924683,142.2812,191.7570)"
       x1="-181.00027"
       y1="65.430992"
       x2="-149.55615"
       y2="65.430992" />
    <linearGradient
       inkscape:collect="always"
       xlink:href="#linearGradient9952"
       id="linearGradient3053"
       gradientUnits="userSpaceOnUse"
       gradientTransform="matrix(0.231054,0.925674,0.925674,-0.231054,-59.19725,392.3917)"
       x1="-181.00027"
       y1="65.430992"
       x2="-149.55615"
       y2="65.430992" />
    <linearGradient
       inkscape:collect="always"
       xlink:href="#linearGradient9952"
       id="linearGradient3055"
       gradientUnits="userSpaceOnUse"
       gradientTransform="matrix(8.217683e-33,0.954074,-7.242089,0.000000,625.0412,462.6871)"
       x1="-181.00027"
       y1="65.430992"
       x2="-149.55615"
       y2="65.430992" />
    <linearGradient
       inkscape:collect="always"
       xlink:href="#linearGradient9952"
       id="linearGradient1354"
       gradientUnits="userSpaceOnUse"
       gradientTransform="matrix(8.217683e-33,0.954074,-7.242089,0.000000,625.0412,462.6871)"
       x1="-181.00027"
       y1="65.430992"
       x2="-149.55615"
       y2="65.430992" />
    <linearGradient
       inkscape:collect="always"
       xlink:href="#linearGradient9952"
       id="linearGradient1353"
       gradientUnits="userSpaceOnUse"
       gradientTransform="matrix(0.231054,0.925674,0.925674,-0.231054,-59.19725,392.3917)"
       x1="-181.00027"
       y1="65.430992"
       x2="-149.55615"
       y2="65.430992" />
    <linearGradient
       inkscape:collect="always"
       xlink:href="#linearGradient9952"
       id="linearGradient1352"
       gradientUnits="userSpaceOnUse"
       gradientTransform="matrix(0.924683,0.234989,-0.234989,0.924683,142.2812,191.7570)"
       x1="-181.00027"
       y1="65.430992"
       x2="-149.55615"
       y2="65.430992" />
    <linearGradient
       inkscape:collect="always"
       xlink:href="#linearGradient9952"
       id="linearGradient1351"
       gradientUnits="userSpaceOnUse"
       gradientTransform="matrix(0.664395,0.684716,-0.684716,0.664395,124.5953,290.1885)"
       x1="-181.00027"
       y1="65.430992"
       x2="-149.55615"
       y2="65.430992" />
    <linearGradient
       inkscape:collect="always"
       xlink:href="#linearGradient9952"
       id="linearGradient1350"
       gradientUnits="userSpaceOnUse"
       gradientTransform="matrix(0.231054,0.925674,0.925674,-0.231054,-59.19725,392.3917)"
       x1="-181.00027"
       y1="65.430992"
       x2="-149.55615"
       y2="65.430992" />
    <linearGradient
       inkscape:collect="always"
       xlink:href="#linearGradient9952"
       id="linearGradient1349"
       gradientUnits="userSpaceOnUse"
       gradientTransform="matrix(0.924683,0.234989,-0.234989,0.924683,142.2812,191.7570)"
       x1="-181.00027"
       y1="65.430992"
       x2="-149.55615"
       y2="65.430992" />
    <linearGradient
       inkscape:collect="always"
       xlink:href="#linearGradient9952"
       id="linearGradient1348"
       gradientUnits="userSpaceOnUse"
       gradientTransform="matrix(0.664395,0.684716,-0.684716,0.664395,124.5953,290.1885)"
       x1="-181.00027"
       y1="65.430992"
       x2="-149.55615"
       y2="65.430992" />
    <linearGradient
       inkscape:collect="always"
       xlink:href="#linearGradient9952"
       id="linearGradient1347"
       gradientUnits="userSpaceOnUse"
       gradientTransform="matrix(-8.217683e-33,-0.954074,7.242089,0.000000,-305.0412,-142.6872)"
       x1="-181.00027"
       y1="65.430992"
       x2="-149.55615"
       y2="65.430992" />
    <linearGradient
       inkscape:collect="always"
       xlink:href="#linearGradient9952"
       id="linearGradient1346"
       gradientUnits="userSpaceOnUse"
       gradientTransform="matrix(-0.954074,8.217683e-33,0.000000,-7.242089,-142.6873,625.0184)"
       x1="-181.00027"
       y1="65.430992"
       x2="-149.55615"
       y2="65.430992" />
    <linearGradient
       inkscape:collect="always"
       xlink:href="#linearGradient9952"
       id="linearGradient1345"
       gradientUnits="userSpaceOnUse"
       gradientTransform="matrix(0.231054,0.925674,0.925674,-0.231054,-59.19725,392.3917)"
       x1="-181.00027"
       y1="65.430992"
       x2="-149.55615"
       y2="65.430992" />
    <linearGradient
       inkscape:collect="always"
       xlink:href="#linearGradient9952"
       id="linearGradient1344"
       gradientUnits="userSpaceOnUse"
       gradientTransform="matrix(0.924683,0.234989,-0.234989,0.924683,142.2812,191.7570)"
       x1="-181.00027"
       y1="65.430992"
       x2="-149.55615"
       y2="65.430992" />
    <linearGradient
       inkscape:collect="always"
       xlink:href="#linearGradient9952"
       id="linearGradient1343"
       gradientUnits="userSpaceOnUse"
       gradientTransform="matrix(0.664395,0.684716,-0.684716,0.664395,124.5953,290.1885)"
       x1="-181.00027"
       y1="65.430992"
       x2="-149.55615"
       y2="65.430992" />
    <linearGradient
       inkscape:collect="always"
       xlink:href="#linearGradient9952"
       id="linearGradient1342"
       gradientUnits="userSpaceOnUse"
       gradientTransform="matrix(0.954074,-8.217683e-33,0.000000,7.242089,462.6874,-305.0642)"
       x1="-181.00027"
       y1="65.430992"
       x2="-149.55615"
       y2="65.430992" />
    <linearGradient
       inkscape:collect="always"
       xlink:href="#linearGradient9952"
       id="linearGradient1341"
       gradientUnits="userSpaceOnUse"
       gradientTransform="matrix(0.231054,0.925674,0.925674,-0.231054,-59.19725,392.3917)"
       x1="-181.00027"
       y1="65.430992"
       x2="-149.55615"
       y2="65.430992" />
    <linearGradient
       inkscape:collect="always"
       xlink:href="#linearGradient9952"
       id="linearGradient1340"
       gradientUnits="userSpaceOnUse"
       gradientTransform="matrix(0.924683,0.234989,-0.234989,0.924683,142.2812,191.7570)"
       x1="-181.00027"
       y1="65.430992"
       x2="-149.55615"
       y2="65.430992" />
    <linearGradient
       inkscape:collect="always"
       xlink:href="#linearGradient9952"
       id="linearGradient1339"
       gradientUnits="userSpaceOnUse"
       gradientTransform="matrix(0.664395,0.684716,-0.684716,0.664395,124.5953,290.1885)"
       x1="-181.00027"
       y1="65.430992"
       x2="-149.55615"
       y2="65.430992" />
    <linearGradient
       inkscape:collect="always"
       xlink:href="#linearGradient9952"
       id="linearGradient1417"
       gradientUnits="userSpaceOnUse"
       gradientTransform="matrix(0.954074,-8.217683e-33,0.000000,7.242089,462.6874,-305.0642)"
       x1="-181.00027"
       y1="65.430992"
       x2="-149.55615"
       y2="65.430992" />
    <linearGradient
       inkscape:collect="always"
       xlink:href="#linearGradient9952"
       id="linearGradient1418"
       gradientUnits="userSpaceOnUse"
       gradientTransform="matrix(0.664395,0.684716,-0.684716,0.664395,124.5953,290.1885)"
       x1="-181.00027"
       y1="65.430992"
       x2="-149.55615"
       y2="65.430992" />
    <linearGradient
       inkscape:collect="always"
       xlink:href="#linearGradient9952"
       id="linearGradient1419"
       gradientUnits="userSpaceOnUse"
       gradientTransform="matrix(0.924683,0.234989,-0.234989,0.924683,142.2812,191.7570)"
       x1="-181.00027"
       y1="65.430992"
       x2="-149.55615"
       y2="65.430992" />
    <linearGradient
       inkscape:collect="always"
       xlink:href="#linearGradient9952"
       id="linearGradient1420"
       gradientUnits="userSpaceOnUse"
       gradientTransform="matrix(0.231054,0.925674,0.925674,-0.231054,-59.19725,392.3917)"
       x1="-181.00027"
       y1="65.430992"
       x2="-149.55615"
       y2="65.430992" />
    <linearGradient
       inkscape:collect="always"
       xlink:href="#linearGradient9952"
       id="linearGradient1421"
       gradientUnits="userSpaceOnUse"
       gradientTransform="matrix(0.664395,0.684716,-0.684716,0.664395,124.5953,290.1885)"
       x1="-181.00027"
       y1="65.430992"
       x2="-149.55615"
       y2="65.430992" />
    <linearGradient
       inkscape:collect="always"
       xlink:href="#linearGradient9952"
       id="linearGradient1422"
       gradientUnits="userSpaceOnUse"
       gradientTransform="matrix(0.924683,0.234989,-0.234989,0.924683,142.2812,191.7570)"
       x1="-181.00027"
       y1="65.430992"
       x2="-149.55615"
       y2="65.430992" />
    <linearGradient
       inkscape:collect="always"
       xlink:href="#linearGradient9952"
       id="linearGradient1423"
       gradientUnits="userSpaceOnUse"
       gradientTransform="matrix(0.231054,0.925674,0.925674,-0.231054,-59.19725,392.3917)"
       x1="-181.00027"
       y1="65.430992"
       x2="-149.55615"
       y2="65.430992" />
    <linearGradient
       inkscape:collect="always"
       xlink:href="#linearGradient9952"
       id="linearGradient1424"
       gradientUnits="userSpaceOnUse"
       gradientTransform="matrix(0.664395,0.684716,-0.684716,0.664395,124.5953,290.1885)"
       x1="-181.00027"
       y1="65.430992"
       x2="-149.55615"
       y2="65.430992" />
    <linearGradient
       inkscape:collect="always"
       xlink:href="#linearGradient9952"
       id="linearGradient1425"
       gradientUnits="userSpaceOnUse"
       gradientTransform="matrix(0.924683,0.234989,-0.234989,0.924683,142.2812,191.7570)"
       x1="-181.00027"
       y1="65.430992"
       x2="-149.55615"
       y2="65.430992" />
    <linearGradient
       inkscape:collect="always"
       xlink:href="#linearGradient9952"
       id="linearGradient1426"
       gradientUnits="userSpaceOnUse"
       gradientTransform="matrix(0.231054,0.925674,0.925674,-0.231054,-59.19725,392.3917)"
       x1="-181.00027"
       y1="65.430992"
       x2="-149.55615"
       y2="65.430992" />
    <linearGradient
       inkscape:collect="always"
       xlink:href="#linearGradient9952"
       id="linearGradient1427"
       gradientUnits="userSpaceOnUse"
       gradientTransform="matrix(0.664395,0.684716,-0.684716,0.664395,124.5953,290.1885)"
       x1="-181.00027"
       y1="65.430992"
       x2="-149.55615"
       y2="65.430992" />
    <linearGradient
       inkscape:collect="always"
       xlink:href="#linearGradient9952"
       id="linearGradient1428"
       gradientUnits="userSpaceOnUse"
       gradientTransform="matrix(0.924683,0.234989,-0.234989,0.924683,142.2812,191.7570)"
       x1="-181.00027"
       y1="65.430992"
       x2="-149.55615"
       y2="65.430992" />
    <linearGradient
       inkscape:collect="always"
       xlink:href="#linearGradient9952"
       id="linearGradient1429"
       gradientUnits="userSpaceOnUse"
       gradientTransform="matrix(0.231054,0.925674,0.925674,-0.231054,-59.19725,392.3917)"
       x1="-181.00027"
       y1="65.430992"
       x2="-149.55615"
       y2="65.430992" />
    <linearGradient
       inkscape:collect="always"
       xlink:href="#linearGradient9952"
       id="linearGradient1430"
       gradientUnits="userSpaceOnUse"
       gradientTransform="matrix(-0.954074,8.217683e-33,0.000000,-7.242089,-142.6873,625.0184)"
       x1="-181.00027"
       y1="65.430992"
       x2="-149.55615"
       y2="65.430992" />
    <linearGradient
       inkscape:collect="always"
       xlink:href="#linearGradient9952"
       id="linearGradient1431"
       gradientUnits="userSpaceOnUse"
       gradientTransform="matrix(-8.217683e-33,-0.954074,7.242089,0.000000,-305.0412,-142.6872)"
       x1="-181.00027"
       y1="65.430992"
       x2="-149.55615"
       y2="65.430992" />
    <linearGradient
       inkscape:collect="always"
       xlink:href="#linearGradient9952"
       id="linearGradient1432"
       gradientUnits="userSpaceOnUse"
       gradientTransform="matrix(8.217683e-33,0.954074,-7.242089,0.000000,625.0412,462.6871)"
       x1="-181.00027"
       y1="65.430992"
       x2="-149.55615"
       y2="65.430992" />
  </defs>
  <sodipodi:namedview
     id="base"
     pagecolor="#ffffff"
     bordercolor="#666666"
     borderopacity="1.0"
     inkscape:pageopacity="0.0"
     inkscape:pageshadow="2"
     inkscape:zoom="2.9843750"
     inkscape:cx="126.13533"
     inkscape:cy="127.99996"
     inkscape:current-layer="g1271"
     gridspacingy="10.000000pt"
     gridspacingx="10.000000pt"
     gridoriginy="0.0000000pt"
     gridoriginx="0.0000000pt"
     inkscape:window-width="1273"
     inkscape:window-height="944"
     inkscape:window-x="0"
     inkscape:window-y="46"
     showguides="true"
     inkscape:guide-bbox="true" />
  <metadata
     id="metadata4">
    <rdf:RDF
       id="RDF5">
      <cc:Work
         rdf:about=""
         id="Work6">
        <dc:format
           id="format7">image/svg+xml</dc:format>
        <dc:type
           id="type9"
           rdf:resource="http://purl.org/dc/dcmitype/StillImage" />
        <cc:license
           id="license1725"
           rdf:resource="http://creativecommons.org/licenses/GPL/2.0/" />
      </cc:Work>
      <cc:License
         rdf:about="http://creativecommons.org/licenses/GPL/2.0/"
         id="License1744">
        <cc:permits
           rdf:resource="http://web.resource.org/cc/Reproduction"
           id="permits1745" />
        <cc:permits
           rdf:resource="http://web.resource.org/cc/Distribution"
           id="permits1746" />
        <cc:requires
           rdf:resource="http://web.resource.org/cc/Notice"
           id="requires1747" />
        <cc:permits
           rdf:resource="http://web.resource.org/cc/DerivativeWorks"
           id="permits1748" />
        <cc:requires
           rdf:resource="http://web.resource.org/cc/ShareAlike"
           id="requires1749" />
        <cc:requires
           rdf:resource="http://web.resource.org/cc/SourceCode"
           id="requires1750" />
      </cc:License>
    </rdf:RDF>
  </metadata>
  <g
     inkscape:label="Base"
     inkscape:groupmode="layer"
     id="layer1"
     style="display:block"
     sodipodi:insensitive="1">
    <rect
       style="fill:#ffffff;fill-opacity:1.0000000;fill-rule:evenodd;stroke:none;stroke-width:8.9802618;stroke-miterlimit:4.0000000;stroke-opacity:1.0000000"
       id="rect2373"
       width="320.00000"
       height="320.00000"
       x="0.0000000"
       y="0.0000000"
       rx="0.0000000"
       ry="0.0000000" />
  </g>
  <g
     inkscape:groupmode="layer"
     id="layer5"
     inkscape:label="Boto"
     style="display:block"
     sodipodi:insensitive="1">
    <g
       id="g1355"
       transform="translate(-7.800000e-6,-1.780000e-5)">
      <g
         inkscape:label="Base"
         inkscape:groupmode="layer"
         id="g1356"
         style="display:block"
         sodipodi:insensitive="true">
        <rect
           style="fill:#ffffff;fill-opacity:1.0000000;fill-rule:evenodd;stroke:none;stroke-width:8.9802618;stroke-miterlimit:4.0000000;stroke-opacity:1.0000000"
           id="rect1357"
           width="320.00000"
           height="320.00000"
           x="0.0000000"
           y="0.0000000"
           rx="0.0000000"
           ry="0.0000000" />
      </g>
      <g
         inkscape:groupmode="layer"
         id="g1358"
         inkscape:label="Boto"
         style="display:block">
        <path
           style="fill:url(#linearGradient1417);fill-opacity:1.0000000;fill-rule:evenodd;stroke:none;stroke-width:8.9802618;stroke-miterlimit:4.0000000;stroke-opacity:1.0000000;display:block"
           d="M 289.14954,30.846585 L 320.00000,30.923900 L 320.00000,289.10762 L 289.18429,289.05590 L 289.14954,30.846585 z "
           id="rect10002"
           sodipodi:nodetypes="ccccc" />
        <g
           id="g2064"
           transform="translate(329.5388,79.35008)"
           style="display:block">
          <path
             style="fill:url(#linearGradient1418);fill-opacity:1.0000000;fill-rule:evenodd;stroke:none;stroke-width:8.9802618;stroke-miterlimit:4.0000000;stroke-opacity:1.0000000"
             d="M -13.666605,224.15727 L -19.570525,231.25693 L -25.891519,237.00110 L -40.461822,209.72663 L -13.666605,224.15727 z "
             id="path2053"
             sodipodi:nodetypes="ccccc" />
          <path
             style="fill:url(#linearGradient1419);fill-opacity:1.0000000;fill-rule:evenodd;stroke:none;stroke-width:8.9802618;stroke-miterlimit:4.0000000;stroke-opacity:1.0000000"
             d="M -9.5387644,209.84671 L -11.386019,217.11565 L -13.233279,224.38461 L -40.461822,209.72663 L -9.5387644,209.84671 z "
             id="path2060"
             sodipodi:nodetypes="ccccc" />
          <path
             style="fill:url(#linearGradient1420);fill-opacity:1.0000000;fill-rule:evenodd;stroke:none;stroke-width:8.9802618;stroke-miterlimit:4.0000000;stroke-opacity:1.0000000"
             d="M -40.461822,240.64992 L -33.185084,238.83361 L -25.908336,237.01728 L -40.450347,209.72663 L -40.461822,240.64992 z "
             id="path2062"
             sodipodi:nodetypes="ccccc" />
        </g>
        <g
           id="g2999"
           transform="matrix(0.000000,1.000000,-1.000000,0.000000,240.6499,329.5388)"
           style="display:block">
          <path
             style="fill:url(#linearGradient1421);fill-opacity:1.0000000;fill-rule:evenodd;stroke:none;stroke-width:8.9802618;stroke-miterlimit:4.0000000;stroke-opacity:1.0000000"
             d="M -13.666605,224.15727 L -19.570525,231.25693 L -25.891519,237.00110 L -40.461822,209.72663 L -13.666605,224.15727 z "
             id="path3000"
             sodipodi:nodetypes="ccccc" />
          <path
             style="fill:url(#linearGradient1422);fill-opacity:1.0000000;fill-rule:evenodd;stroke:none;stroke-width:8.9802618;stroke-miterlimit:4.0000000;stroke-opacity:1.0000000"
             d="M -9.5387644,209.84671 L -11.386019,217.11565 L -13.233279,224.38461 L -40.461822,209.72663 L -9.5387644,209.84671 z "
             id="path3001"
             sodipodi:nodetypes="ccccc" />
          <path
             style="fill:url(#linearGradient1423);fill-opacity:1.0000000;fill-rule:evenodd;stroke:none;stroke-width:8.9802618;stroke-miterlimit:4.0000000;stroke-opacity:1.0000000"
             d="M -40.461822,240.64992 L -33.185084,238.83361 L -25.908336,237.01728 L -40.450347,209.72663 L -40.461822,240.64992 z "
             id="path3002"
             sodipodi:nodetypes="ccccc" />
        </g>
        <g
           id="g3006"
           transform="matrix(0.000000,-1.000000,1.000000,0.000000,79.35008,-9.538764)"
           style="display:block">
          <path
             style="fill:url(#linearGradient1424);fill-opacity:1.0000000;fill-rule:evenodd;stroke:none;stroke-width:8.9802618;stroke-miterlimit:4.0000000;stroke-opacity:1.0000000"
             d="M -13.666605,224.15727 L -19.570525,231.25693 L -25.891519,237.00110 L -40.461822,209.72663 L -13.666605,224.15727 z "
             id="path3007"
             sodipodi:nodetypes="ccccc" />
          <path
             style="fill:url(#linearGradient1425);fill-opacity:1.0000000;fill-rule:evenodd;stroke:none;stroke-width:8.9802618;stroke-miterlimit:4.0000000;stroke-opacity:1.0000000"
             d="M -9.5387644,209.84671 L -11.386019,217.11565 L -13.233279,224.38461 L -40.461822,209.72663 L -9.5387644,209.84671 z "
             id="path3008"
             sodipodi:nodetypes="ccccc" />
          <path
             style="fill:url(#linearGradient1426);fill-opacity:1.0000000;fill-rule:evenodd;stroke:none;stroke-width:8.9802618;stroke-miterlimit:4.0000000;stroke-opacity:1.0000000"
             d="M -40.461822,240.64992 L -33.185084,238.83361 L -25.908336,237.01728 L -40.450347,209.72663 L -40.461822,240.64992 z "
             id="path3009"
             sodipodi:nodetypes="ccccc" />
        </g>
        <g
           id="g3010"
           transform="matrix(-1.000000,0.000000,0.000000,-1.000000,-9.538764,240.6500)"
           style="display:block">
          <path
             style="fill:url(#linearGradient1427);fill-opacity:1.0000000;fill-rule:evenodd;stroke:none;stroke-width:8.9802618;stroke-miterlimit:4.0000000;stroke-opacity:1.0000000"
             d="M -13.666605,224.15727 L -19.570525,231.25693 L -25.891519,237.00110 L -40.461822,209.72663 L -13.666605,224.15727 z "
             id="path3011"
             sodipodi:nodetypes="ccccc" />
          <path
             style="fill:url(#linearGradient1428);fill-opacity:1.0000000;fill-rule:evenodd;stroke:none;stroke-width:8.9802618;stroke-miterlimit:4.0000000;stroke-opacity:1.0000000"
             d="M -9.5387644,209.84671 L -11.386019,217.11565 L -13.233279,224.38461 L -40.461822,209.72663 L -9.5387644,209.84671 z "
             id="path3012"
             sodipodi:nodetypes="ccccc" />
          <path
             style="fill:url(#linearGradient1429);fill-opacity:1.0000000;fill-rule:evenodd;stroke:none;stroke-width:8.9802618;stroke-miterlimit:4.0000000;stroke-opacity:1.0000000"
             d="M -40.461822,240.64992 L -33.185084,238.83361 L -25.908336,237.01728 L -40.450347,209.72663 L -40.461822,240.64992 z "
             id="path3013"
             sodipodi:nodetypes="ccccc" />
        </g>
        <path
           style="fill:url(#linearGradient1430);fill-opacity:1.0000000;fill-rule:evenodd;stroke:none;stroke-width:8.9802618;stroke-miterlimit:4.0000000;stroke-opacity:1.0000000;display:block"
           d="M 30.850460,289.10762 L 1.1102230e-16,289.03030 L 1.1102230e-16,30.846580 L 30.815710,30.898300 L 30.850460,289.10762 z "
           id="path3021"
           sodipodi:nodetypes="ccccc" />
        <path
           style="fill:url(#linearGradient1431);fill-opacity:1.0000000;fill-rule:evenodd;stroke:none;stroke-width:8.9802618;stroke-miterlimit:4.0000000;stroke-opacity:1.0000000;display:block"
           d="M 30.869480,30.850460 L 30.946800,-5.6843419e-14 L 289.13052,-5.6843419e-14 L 289.07880,30.815710 L 30.869480,30.850460 z "
           id="path3023"
           sodipodi:nodetypes="ccccc" />
        <path
           style="fill:url(#linearGradient1432);fill-opacity:1.0000000;fill-rule:evenodd;stroke:none;stroke-width:8.9802618;stroke-miterlimit:4.0000000;stroke-opacity:1.0000000;display:block"
           d="M 289.13052,289.14954 L 289.05320,320.00000 L 30.869480,320.00000 L 30.921200,289.18429 L 289.13052,289.14954 z "
           id="path3054"
           sodipodi:nodetypes="ccccc" />
        <rect
           style="fill:#0000ff;fill-opacity:0.78431374;fill-rule:evenodd;stroke:none;stroke-width:15.000000;stroke-miterlimit:4.0000000;stroke-opacity:1.0000000"
           id="rect3057"
           width="265.03928"
           height="265.03928"
           x="27.480362"
           y="27.480362" />
        <rect
           style="fill:#ffffff;fill-opacity:0.85537916;fill-rule:evenodd;stroke:none;stroke-width:8.9802618;stroke-miterlimit:4.0000000;stroke-opacity:1.0000000;display:block"
           id="rect5542"
           width="320.00000"
           height="320.00000"
           x="0.0000000"
           y="-2.8421709e-14"
           rx="0.0000000"
           ry="0.0000000" />
        <path
           style="fill:#ffffff;fill-opacity:1.0000000;fill-rule:evenodd;stroke:none;stroke-width:15.000000;stroke-miterlimit:4.0000000;stroke-opacity:1.0000000"
           d="M 55.447085,279.42244 L 39.870165,279.40523 L 39.870165,40.016405 L 279.48124,40.016405 L 279.48407,55.593328 L 55.447085,55.593328 L 55.447085,279.42244 z "
           id="path1115"
           sodipodi:nodetypes="ccccccc" />
        <path
           style="fill:#000000;fill-opacity:1.0000000;fill-rule:evenodd;stroke:none;stroke-width:15.000000;stroke-miterlimit:4.0000000;stroke-opacity:1.0000000"
           d="M 25.278887,304.26430 L 25.302367,295.21564 L 294.76719,295.21564 L 294.76719,25.329996 L 303.81585,25.225167 L 303.81585,304.26430 L 25.278887,304.26430 z "
           id="path1119"
           sodipodi:nodetypes="ccccccc" />
        <path
           id="rect6786"
           style="opacity:0.39999983;fill:#0000ff;fill-opacity:1.0000000;fill-rule:evenodd;stroke:none;stroke-width:15.000000;stroke-miterlimit:4.0000000;stroke-opacity:1.0000000"
           d="M 25.000001,25.000000 L 295.00000,25.000000 L 295.00000,295.00000 L 25.000001,295.00000 L 25.000001,25.000000 z M 40.576924,40.576923 L 279.42307,40.576923 L 279.42307,279.42307 L 40.576924,279.42307 L 40.576924,40.576923 z " />
      </g>
      <path
         d=""
         id="path1384" />
      <g
         id="g1385"
         inkscape:groupmode="layer"
         inkscape:label="Dibuix"
         transform="translate(184.5158,-340.6444)"
         style="display:block" />
    </g>
  </g>
  <path
     d=""
     id="path3081" />
  <g
     id="g1271"
     inkscape:groupmode="layer"
     inkscape:label="Dibuix"
     transform="translate(184.5158,-340.6444)"
     style="display:block">
    <g
       id="g3903"
       transform="matrix(0.116864,0.000000,0.000000,0.116861,-878.3588,-253.3290)">
      <g
         id="g3841"
         transform="translate(646.9791,-789.7608)">
        <path
           style="fill:#1f1a17;stroke:none"
           d="M 7165.9226,7547.0759 L 5440.9226,7547.0759 L 5440.9226,8354.0759 L 7165.9226,8354.0759 L 7165.9226,7547.0759 z M 7146.9226,7568.0759 L 5459.9226,7568.0759 L 5459.9226,8335.0759 L 7146.9226,8335.0759 L 7146.9226,7568.0759 z "
           id="path106" />
        <path
           transform="translate(-520.0774,284.0759)"
           style="fill:#9b9ac2;stroke:none"
           d="M 6439.0000,7280.0000 L 7669.0000,7280.0000 L 7669.0000,8051.0000 L 6439.0000,8051.0000 L 6439.0000,7280.0000 z "
           id="polygon102" />
        <path
           transform="translate(-520.0774,284.0759)"
           style="fill:#ffffff;stroke:none"
           d="M 5980.0000,7284.0000 L 6441.0000,7284.0000 L 6441.0000,8048.0000 L 5980.0000,8048.0000 L 5980.0000,7284.0000 z "
           id="polygon104" />
        <path
           style="fill:#1f1a17;stroke:none"
           d="M 7004.9224,8070.0757 C 6999.2760,8074.1899 6972.2658,8086.8606 6946.2940,8098.3427 C 6912.4889,8108.0312 6822.9415,8109.6501 6780.1714,8092.5022 C 6741.3295,8074.2318 6696.2957,8037.7405 6676.4240,8005.1413 C 6653.0915,7970.7865 6651.5446,7937.0124 6649.9226,7930.0759 C 6634.2559,7930.0821 6618.5893,7930.0759 6602.9226,7930.0759 C 6608.5986,7918.4138 6614.2559,7906.7426 6619.9226,7895.0759 C 6628.5893,7895.0821 6637.2559,7895.0759 6645.9226,7895.0759 C 6645.9288,7877.0759 6645.9226,7859.0759 6645.9226,7841.0759 C 6628.2559,7841.0821 6610.5893,7841.0759 6592.9226,7841.0759 C 6598.5986,7829.7472 6604.2559,7818.4092 6609.9226,7807.0759 C 6623.2559,7807.0821 6636.5893,7807.0759 6649.9226,7807.0759 C 6652.2767,7798.0378 6657.5015,7771.4409 6678.3554,7737.6106 C 6698.7649,7704.5015 6714.1274,7684.9537 6738.2261,7666.6277 C 6761.7770,7648.7183 6809.9427,7633.2796 6829.4016,7632.2287 C 6853.3080,7630.9376 6894.1092,7631.6607 6926.6332,7640.7918 C 6960.1925,7650.2135 6999.6407,7662.3701 7002.3495,7664.6128 C 7003.0933,7665.6426 6998.8937,7695.7209 6997.9226,7703.0759 C 6988.4859,7698.8667 6986.7028,7700.3253 6969.1266,7691.6028 C 6953.3629,7683.7798 6872.9875,7685.4598 6841.7586,7703.1854 C 6811.3771,7720.4301 6788.8397,7739.6751 6779.1142,7758.4223 C 6771.1561,7773.7625 6774.4524,7788.5350 6768.5203,7805.3741 C 6767.7511,7805.9612 6886.4889,7807.0787 6938.9226,7807.0759 C 6933.2651,7818.4138 6927.5893,7829.7426 6921.9226,7841.0759 C 6869.2559,7841.0821 6816.5893,7841.0759 6763.9226,7841.0759 C 6764.3040,7846.8310 6761.9313,7886.0677 6761.9226,7890.0759 C 6762.5110,7891.6786 6867.6665,7895.0759 6898.9226,7895.0759 C 6893.2652,7906.7471 6887.5893,7918.4092 6881.9226,7930.0759 C 6843.2559,7930.0821 6804.5893,7930.0759 6765.9226,7930.0759 C 6768.2621,7939.7411 6774.4840,7982.9503 6839.5620,8033.7866 C 6866.6176,8050.1950 6917.4664,8052.1914 6943.9226,8051.0759 C 6967.4343,8045.4007 6996.1295,8032.6134 7000.9226,8030.0759 C 7002.2619,8043.4085 7003.5896,8056.7425 7004.9224,8070.0757 z "
           id="polygon107"
           sodipodi:nodetypes="cccccccccccczzzzcczzzcccccccccccc" />
        <polygon
           points="6098.0000,7797.0000 6176.0000,7797.0000 6176.0000,7772.0000 6158.0000,7772.0000 6124.0000,7774.0000 6096.0000,7774.0000 6079.0000,7774.0000 6065.0000,7852.0000 6084.0000,7854.0000 6098.0000,7857.0000 6113.0000,7862.0000 6124.0000,7868.0000 6134.0000,7873.0000 6138.0000,7883.0000 6143.0000,7890.0000 6146.0000,7899.0000 6143.0000,7913.0000 6136.0000,7928.0000 6127.0000,7940.0000 6115.0000,7949.0000 6101.0000,7956.0000 6087.0000,7963.0000 6072.0000,7968.0000 6060.0000,7970.0000 6065.0000,7994.0000 6084.0000,7989.0000 6103.0000,7982.0000 6122.0000,7970.0000 6138.0000,7958.0000 6153.0000,7944.0000 6164.0000,7928.0000 6172.0000,7911.0000 6174.0000,7895.0000 6174.0000,7885.0000 6169.0000,7876.0000 6164.0000,7866.0000 6158.0000,7857.0000 6148.0000,7850.0000 6134.0000,7843.0000 6115.0000,7836.0000 6091.0000,7831.0000 6098.0000,7797.0000 "
           id="polygon108"
           style="fill:#1f1a17;stroke:none"
           transform="translate(-520.0774,284.0759)" />
        <polygon
           points="6307.0000,7857.0000 6288.0000,7857.0000 6276.0000,7857.0000 6276.0000,7826.0000 6288.0000,7826.0000 6299.0000,7826.0000 6299.0000,7817.0000 6285.0000,7817.0000 6276.0000,7817.0000 6276.0000,7783.0000 6290.0000,7783.0000 6304.0000,7783.0000 6304.0000,7774.0000 6283.0000,7774.0000 6264.0000,7777.0000 6264.0000,7793.0000 6264.0000,7812.0000 6264.0000,7828.0000 6264.0000,7845.0000 6264.0000,7866.0000 6285.0000,7866.0000 6307.0000,7866.0000 6307.0000,7857.0000 "
           id="polygon109"
           style="fill:#1f1a17;stroke:none"
           transform="translate(-520.0774,284.0759)" />
        <polygon
           points="6344.0000,7797.0000 6344.0000,7783.0000 6344.0000,7777.0000 6333.0000,7777.0000 6333.0000,7786.0000 6333.0000,7795.0000 6333.0000,7803.0000 6333.0000,7821.0000 6333.0000,7836.0000 6335.0000,7845.0000 6339.0000,7852.0000 6347.0000,7862.0000 6356.0000,7866.0000 6364.0000,7866.0000 6370.0000,7868.0000 6380.0000,7866.0000 6387.0000,7864.0000 6394.0000,7859.0000 6401.0000,7854.0000 6406.0000,7845.0000 6409.0000,7833.0000 6411.0000,7819.0000 6411.0000,7803.0000 6411.0000,7795.0000 6411.0000,7783.0000 6411.0000,7774.0000 6398.0000,7774.0000 6398.0000,7783.0000 6398.0000,7795.0000 6398.0000,7800.0000 6398.0000,7814.0000 6398.0000,7826.0000 6396.0000,7838.0000 6394.0000,7845.0000 6389.0000,7850.0000 6384.0000,7854.0000 6380.0000,7857.0000 6370.0000,7857.0000 6366.0000,7857.0000 6359.0000,7854.0000 6354.0000,7852.0000 6349.0000,7845.0000 6347.0000,7838.0000 6344.0000,7831.0000 6344.0000,7819.0000 6344.0000,7807.0000 6344.0000,7797.0000 "
           id="polygon110"
           style="fill:#1f1a17;stroke:none"
           transform="translate(-520.0774,284.0759)" />
        <polygon
           points="6455.0000,7786.0000 6470.0000,7786.0000 6477.0000,7791.0000 6482.0000,7795.0000 6484.0000,7800.0000 6482.0000,7807.0000 6477.0000,7814.0000 6470.0000,7819.0000 6463.0000,7823.0000 6482.0000,7848.0000 6498.0000,7868.0000 6508.0000,7859.0000 6494.0000,7843.0000 6477.0000,7823.0000 6484.0000,7819.0000 6491.0000,7812.0000 6494.0000,7805.0000 6496.0000,7797.0000 6494.0000,7791.0000 6489.0000,7783.0000 6479.0000,7781.0000 6470.0000,7777.0000 6453.0000,7777.0000 6441.0000,7777.0000 6444.0000,7793.0000 6444.0000,7809.0000 6444.0000,7819.0000 6444.0000,7843.0000 6444.0000,7866.0000 6455.0000,7866.0000 6455.0000,7848.0000 6455.0000,7826.0000 6455.0000,7786.0000 "
           id="polygon111"
           style="fill:#1f1a17;stroke:none"
           transform="translate(-520.0774,284.0759)" />
        <path
           d="M 6043.9226,8143.0759 L 6036.9226,8141.0759 L 6029.9226,8138.0759 L 6024.9226,8136.0759 L 6020.9226,8132.0759 L 6015.9226,8127.0759 L 6013.9226,8122.0759 L 6013.9226,8115.0759 L 6010.9226,8107.0759 L 6013.9226,8101.0759 L 6013.9226,8091.0759 L 6018.9226,8087.0759 L 6022.9226,8079.0759 L 6027.9226,8075.0759 L 6032.9226,8070.0759 L 6038.9226,8067.0759 L 6048.9226,8067.0759 L 6055.9226,8067.0759 L 6060.9226,8070.0759 L 6065.9226,8072.0759 L 6069.9226,8077.0759 L 6074.9226,8081.0759 L 6077.9226,8087.0759 L 6079.9226,8093.0759 L 6079.9226,8103.0759 L 6079.9226,8110.0759 L 6077.9226,8120.0759 L 6074.9226,8127.0759 L 6069.9226,8132.0759 L 6063.9226,8136.0759 L 6058.9226,8138.0759 L 6050.9226,8141.0759 L 6043.9226,8143.0759 z M 6043.9226,8152.0759 L 6055.9226,8150.0759 L 6065.9226,8146.0759 L 6074.9226,8141.0759 L 6081.9226,8134.0759 L 6086.9226,8127.0759 L 6088.9226,8117.0759 L 6091.9226,8110.0759 L 6093.9226,8101.0759 L 6091.9226,8091.0759 L 6088.9226,8084.0759 L 6086.9226,8077.0759 L 6079.9226,8070.0759 L 6074.9226,8065.0759 L 6067.9226,8061.0759 L 6058.9226,8058.0759 L 6050.9226,8058.0759 L 6038.9226,8058.0759 L 6029.9226,8063.0759 L 6020.9226,8067.0759 L 6013.9226,8072.0759 L 6008.9226,8081.0759 L 6003.9226,8089.0759 L 6001.9226,8098.0759 L 5998.9226,8110.0759 L 6001.9226,8117.0759 L 6001.9226,8127.0759 L 6006.9226,8134.0759 L 6010.9226,8138.0759 L 6018.9226,8143.0759 L 6024.9226,8148.0759 L 6032.9226,8150.0759 L 6043.9226,8152.0759 z "
           id="path112"
           style="fill:#1f1a17;stroke:none" />
        <path
           transform="translate(-520.0774,284.0759)"
           style="fill:#c2c1c1;stroke:none"
           d="M 6250.0000,7895.0000 L 7606.0000,7895.0000 L 7606.0000,7980.0000 L 6250.0000,7980.0000 L 6250.0000,7895.0000 z "
           id="polygon114" />
        <path
           transform="translate(-520.0774,284.0759)"
           style="fill:#28166f;stroke:none"
           d="M 6074.0000,7334.0000 L 6444.0000,7334.0000 L 6444.0000,7544.0000 L 6074.0000,7544.0000 L 6074.0000,7334.0000 z "
           id="polygon116" />
      </g>
      <g
         id="g3892"
         transform="matrix(0.908872,0.417074,-0.417074,0.908872,3345.497,-2509.382)">
        <path
           style="fill:#9b9ac2;stroke:none"
           d="M 7024.0000,6127.0000 L 8195.0000,6665.0000 L 8195.0000,7935.0000 L 6541.0000,7180.0000 L 7024.0000,6127.0000 z "
           id="polygon118"
           transform="matrix(0.909050,-0.416686,0.416686,0.909050,-2078.063,3178.030)" />
        <path
           style="fill:#1f1a17;stroke:none"
           d="M 8195.0000,6669.0000 L 6394.0000,5843.0000 L 5914.0000,6891.0000 L 8195.0000,7935.0000 L 8195.0000,7970.0000 L 5873.0000,6905.0000 L 6378.0000,5803.0000 L 8195.0000,6634.0000 L 8195.0000,6669.0000 z "
           id="polygon122"
           transform="matrix(0.909050,-0.416686,0.416686,0.909050,-2078.063,3178.030)" />
        <path
           style="fill:#ffffff;stroke:none"
           d="M 7432.0936,5564.6714 L 7893.0936,5564.6714 L 7893.0936,6328.6714 L 7432.0936,6328.6714 L 7432.0936,5564.6714 z "
           id="path3832"
           transform="matrix(1.504917,0.000000,0.000000,1.504917,-5019.774,-2548.472)" />
        <path
           style="fill:#1f1a17;stroke:none"
           d="M 8208.9052,6594.7504 C 8200.4078,6600.9419 8159.7597,6620.0103 8120.6743,6637.2899 C 8069.8004,6651.8702 7935.0390,6654.3066 7870.6736,6628.5004 C 7812.2197,6601.0050 7744.4476,6546.0886 7714.5423,6497.0295 C 7679.4289,6445.3284 7677.1009,6394.5011 7674.6599,6384.0623 C 7651.0828,6384.0716 7627.5059,6384.0623 7603.9288,6384.0623 C 7612.4707,6366.5118 7620.9845,6348.9476 7629.5124,6331.3902 C 7642.5551,6331.3995 7655.5976,6331.3902 7668.6403,6331.3902 C 7668.6496,6304.3017 7668.6403,6277.2132 7668.6403,6250.1247 C 7642.0533,6250.1340 7615.4666,6250.1247 7588.8797,6250.1247 C 7597.4216,6233.0759 7605.9353,6216.0132 7614.4632,6198.9575 C 7634.5288,6198.9668 7654.5944,6198.9575 7674.6599,6198.9575 C 7678.2027,6185.3559 7686.0655,6145.3298 7717.4489,6094.4180 C 7748.1635,6044.5915 7771.2828,6015.1737 7807.5494,5987.5946 C 7842.9915,5960.6425 7915.4769,5937.4085 7944.7609,5935.8270 C 7980.7381,5933.8840 8042.1405,5934.9722 8091.0864,5948.7137 C 8141.5904,5962.8926 8200.9566,5981.1873 8205.0332,5984.5624 C 8206.1525,5986.1121 8199.8325,6031.3775 8198.3710,6042.4461 C 8184.1696,6036.1116 8181.4862,6038.3067 8155.0355,6025.1801 C 8131.3124,6013.4071 8010.3541,6015.9354 7963.3572,6042.6109 C 7917.6356,6068.5628 7883.7186,6097.5249 7869.0826,6125.7379 C 7857.1063,6148.8236 7862.0669,6171.0550 7853.1396,6196.3964 C 7851.9820,6197.2800 8030.6726,6198.9617 8109.5809,6198.9575 C 8101.0669,6216.0201 8092.5253,6233.0690 8083.9974,6250.1247 C 8004.7383,6250.1340 7925.4795,6250.1247 7846.2205,6250.1247 C 7846.7944,6258.7856 7843.2237,6317.8336 7843.2106,6323.8656 C 7844.0961,6326.2775 8002.3464,6331.3902 8049.3843,6331.3902 C 8040.8703,6348.9544 8032.3286,6366.5049 8023.8007,6384.0623 C 7965.6105,6384.0716 7907.4205,6384.0623 7849.2303,6384.0623 C 7852.7511,6398.6076 7862.1145,6463.6339 7960.0515,6540.1383 C 8000.7679,6564.8316 8077.2911,6567.8360 8117.1055,6566.1572 C 8152.4887,6557.6165 8195.6726,6538.3727 8202.8858,6534.5540 C 8204.9013,6554.6184 8206.8994,6574.6850 8208.9052,6594.7504 z "
           id="path3833"
           sodipodi:nodetypes="cccccccccccczzzzcczzzcccccccccccc" />
        <polygon
           points="6098.0000,7797.0000 6176.0000,7797.0000 6176.0000,7772.0000 6158.0000,7772.0000 6124.0000,7774.0000 6096.0000,7774.0000 6079.0000,7774.0000 6065.0000,7852.0000 6084.0000,7854.0000 6098.0000,7857.0000 6113.0000,7862.0000 6124.0000,7868.0000 6134.0000,7873.0000 6138.0000,7883.0000 6143.0000,7890.0000 6146.0000,7899.0000 6143.0000,7913.0000 6136.0000,7928.0000 6127.0000,7940.0000 6115.0000,7949.0000 6101.0000,7956.0000 6087.0000,7963.0000 6072.0000,7968.0000 6060.0000,7970.0000 6065.0000,7994.0000 6084.0000,7989.0000 6103.0000,7982.0000 6122.0000,7970.0000 6138.0000,7958.0000 6153.0000,7944.0000 6164.0000,7928.0000 6172.0000,7911.0000 6174.0000,7895.0000 6174.0000,7885.0000 6169.0000,7876.0000 6164.0000,7866.0000 6158.0000,7857.0000 6148.0000,7850.0000 6134.0000,7843.0000 6115.0000,7836.0000 6091.0000,7831.0000 6098.0000,7797.0000 "
           id="polygon3834"
           style="fill:#1f1a17;stroke:none"
           transform="matrix(1.504917,0.000000,0.000000,1.504917,-2834.493,-5135.919)" />
        <polygon
           points="6307.0000,7857.0000 6288.0000,7857.0000 6276.0000,7857.0000 6276.0000,7826.0000 6288.0000,7826.0000 6299.0000,7826.0000 6299.0000,7817.0000 6285.0000,7817.0000 6276.0000,7817.0000 6276.0000,7783.0000 6290.0000,7783.0000 6304.0000,7783.0000 6304.0000,7774.0000 6283.0000,7774.0000 6264.0000,7777.0000 6264.0000,7793.0000 6264.0000,7812.0000 6264.0000,7828.0000 6264.0000,7845.0000 6264.0000,7866.0000 6285.0000,7866.0000 6307.0000,7866.0000 6307.0000,7857.0000 "
           id="polygon3835"
           style="fill:#1f1a17;stroke:none"
           transform="matrix(1.504917,0.000000,0.000000,1.504917,-2834.493,-5135.919)" />
        <polygon
           points="6344.0000,7797.0000 6344.0000,7783.0000 6344.0000,7777.0000 6333.0000,7777.0000 6333.0000,7786.0000 6333.0000,7795.0000 6333.0000,7803.0000 6333.0000,7821.0000 6333.0000,7836.0000 6335.0000,7845.0000 6339.0000,7852.0000 6347.0000,7862.0000 6356.0000,7866.0000 6364.0000,7866.0000 6370.0000,7868.0000 6380.0000,7866.0000 6387.0000,7864.0000 6394.0000,7859.0000 6401.0000,7854.0000 6406.0000,7845.0000 6409.0000,7833.0000 6411.0000,7819.0000 6411.0000,7803.0000 6411.0000,7795.0000 6411.0000,7783.0000 6411.0000,7774.0000 6398.0000,7774.0000 6398.0000,7783.0000 6398.0000,7795.0000 6398.0000,7800.0000 6398.0000,7814.0000 6398.0000,7826.0000 6396.0000,7838.0000 6394.0000,7845.0000 6389.0000,7850.0000 6384.0000,7854.0000 6380.0000,7857.0000 6370.0000,7857.0000 6366.0000,7857.0000 6359.0000,7854.0000 6354.0000,7852.0000 6349.0000,7845.0000 6347.0000,7838.0000 6344.0000,7831.0000 6344.0000,7819.0000 6344.0000,7807.0000 6344.0000,7797.0000 "
           id="polygon3836"
           style="fill:#1f1a17;stroke:none"
           transform="matrix(1.504917,0.000000,0.000000,1.504917,-2834.493,-5135.919)" />
        <polygon
           points="6455.0000,7786.0000 6470.0000,7786.0000 6477.0000,7791.0000 6482.0000,7795.0000 6484.0000,7800.0000 6482.0000,7807.0000 6477.0000,7814.0000 6470.0000,7819.0000 6463.0000,7823.0000 6482.0000,7848.0000 6498.0000,7868.0000 6508.0000,7859.0000 6494.0000,7843.0000 6477.0000,7823.0000 6484.0000,7819.0000 6491.0000,7812.0000 6494.0000,7805.0000 6496.0000,7797.0000 6494.0000,7791.0000 6489.0000,7783.0000 6479.0000,7781.0000 6470.0000,7777.0000 6453.0000,7777.0000 6441.0000,7777.0000 6444.0000,7793.0000 6444.0000,7809.0000 6444.0000,7819.0000 6444.0000,7843.0000 6444.0000,7866.0000 6455.0000,7866.0000 6455.0000,7848.0000 6455.0000,7826.0000 6455.0000,7786.0000 "
           id="polygon3837"
           style="fill:#1f1a17;stroke:none"
           transform="matrix(1.504917,0.000000,0.000000,1.504917,-2834.493,-5135.919)" />
        <path
           d="M 8016.0936,6139.6714 L 8009.0936,6137.6714 L 8002.0936,6134.6714 L 7997.0936,6132.6714 L 7993.0936,6128.6714 L 7988.0936,6123.6714 L 7986.0936,6118.6714 L 7986.0936,6111.6714 L 7983.0936,6103.6714 L 7986.0936,6097.6714 L 7986.0936,6087.6714 L 7991.0936,6083.6714 L 7995.0936,6075.6714 L 8000.0936,6071.6714 L 8005.0936,6066.6714 L 8011.0936,6063.6714 L 8021.0936,6063.6714 L 8028.0936,6063.6714 L 8033.0936,6066.6714 L 8038.0936,6068.6714 L 8042.0936,6073.6714 L 8047.0936,6077.6714 L 8050.0936,6083.6714 L 8052.0936,6089.6714 L 8052.0936,6099.6714 L 8052.0936,6106.6714 L 8050.0936,6116.6714 L 8047.0936,6123.6714 L 8042.0936,6128.6714 L 8036.0936,6132.6714 L 8031.0936,6134.6714 L 8023.0936,6137.6714 L 8016.0936,6139.6714 z M 8016.0936,6148.6714 L 8028.0936,6146.6714 L 8038.0936,6142.6714 L 8047.0936,6137.6714 L 8054.0936,6130.6714 L 8059.0936,6123.6714 L 8061.0936,6113.6714 L 8064.0936,6106.6714 L 8066.0936,6097.6714 L 8064.0936,6087.6714 L 8061.0936,6080.6714 L 8059.0936,6073.6714 L 8052.0936,6066.6714 L 8047.0936,6061.6714 L 8040.0936,6057.6714 L 8031.0936,6054.6714 L 8023.0936,6054.6714 L 8011.0936,6054.6714 L 8002.0936,6059.6714 L 7993.0936,6063.6714 L 7986.0936,6068.6714 L 7981.0936,6077.6714 L 7976.0936,6085.6714 L 7974.0936,6094.6714 L 7971.0936,6106.6714 L 7974.0936,6113.6714 L 7974.0936,6123.6714 L 7979.0936,6130.6714 L 7983.0936,6134.6714 L 7991.0936,6139.6714 L 7997.0936,6144.6714 L 8005.0936,6146.6714 L 8016.0936,6148.6714 z "
           id="path3838"
           style="fill:#1f1a17;stroke:none"
           transform="matrix(1.504917,0.000000,0.000000,1.504917,-5019.774,-2548.472)" />
        <path
           style="fill:#c2c1c1;stroke:none"
           d="M 7702.0936,6175.6714 L 9034.3744,6175.6714 L 9069.9532,6260.6714 L 7702.0936,6260.6714 L 7702.0936,6175.6714 z "
           id="path3839"
           transform="matrix(1.504917,0.000000,0.000000,1.504917,-5019.774,-2548.472)"
           sodipodi:nodetypes="ccccc" />
      </g>
    </g>
  </g>
  <g
     inkscape:groupmode="layer"
     id="layer6"
     inkscape:label="Propietat"
     style="display:block"
     sodipodi:insensitive="1">
    <g
       id="g6097"
       transform="matrix(0.925862,0.000000,0.000000,0.925862,493.5668,41.86428)"
       style="display:block">
      <path
         style="fill:#ffffff;fill-opacity:1.0000000;fill-rule:evenodd;stroke:#006900;stroke-width:8.1005621;stroke-miterlimit:4.0000000;stroke-opacity:1.0000000"
         d="M -191.51536,25.067211 C -191.51536,61.628081 -221.18795,91.300681 -257.74882,91.300681 C -294.30970,91.300681 -323.98229,61.628081 -323.98229,25.067211 C -323.98229,-11.493665 -294.30970,-41.166259 -257.74882,-41.166259 C -221.18795,-41.166259 -191.51536,-11.493665 -191.51536,25.067211 z "
         id="path3603" />
      <path
         style="fill:#326400;stroke:none"
         d="M -302.55576,11.965876 L -270.99594,11.965876 L -270.99594,-19.849048 L -244.50173,-19.849048 L -244.50173,11.965876 L -212.94190,11.965876 L -212.94190,38.423643 L -244.50173,38.423643 L -244.50173,69.983470 L -270.99594,69.983470 L -270.99594,38.423643 L -302.55576,38.423643 L -302.55576,11.965876 z "
         id="polygon1906" />
    </g>
  </g>
</svg>
