<?xml version="1.0" encoding="UTF-8" standalone="no"?>
<!-- Created with Inkscape (http://www.inkscape.org/) -->
<svg
   xmlns:dc="http://purl.org/dc/elements/1.1/"
   xmlns:cc="http://web.resource.org/cc/"
   xmlns:rdf="http://www.w3.org/1999/02/22-rdf-syntax-ns#"
   xmlns:svg="http://www.w3.org/2000/svg"
   xmlns="http://www.w3.org/2000/svg"
   xmlns:xlink="http://www.w3.org/1999/xlink"
   xmlns:sodipodi="http://inkscape.sourceforge.net/DTD/sodipodi-0.dtd"
   xmlns:inkscape="http://www.inkscape.org/namespaces/inkscape"
   width="320.00000"
   height="320.00000"
   id="svg1"
   sodipodi:version="0.32"
   inkscape:version="0.42"
   sodipodi:docbase="/home/raul/docs/iglues/v0.4/svg"
   sodipodi:docname="i_bulmages_compras_listado.svg"
   version="1.0"
   x="0.0000000"
   y="0.0000000"
   inkscape:export-filename="/home/raul/arxius/iglues/nous dissenys/png/i_bulmages_compras_listado.png"
   inkscape:export-xdpi="96.000000"
   inkscape:export-ydpi="96.000000">
  <defs
     id="defs3">
    <linearGradient
       inkscape:collect="always"
       id="linearGradient9952">
      <stop
         style="stop-color:#0000ff;stop-opacity:1;"
         offset="0"
         id="stop9953" />
      <stop
         style="stop-color:#0000ff;stop-opacity:0;"
         offset="1"
         id="stop9954" />
    </linearGradient>
    <linearGradient
       inkscape:collect="always"
       xlink:href="#linearGradient9952"
       id="linearGradient1385"
       gradientUnits="userSpaceOnUse"
       gradientTransform="matrix(8.217683e-33,0.954074,-7.242089,0.000000,625.0412,462.6871)"
       x1="-181.00027"
       y1="65.430992"
       x2="-149.55615"
       y2="65.430992" />
    <linearGradient
       inkscape:collect="always"
       xlink:href="#linearGradient9952"
       id="linearGradient1384"
       gradientUnits="userSpaceOnUse"
       gradientTransform="matrix(0.231054,0.925674,0.925674,-0.231054,-59.19725,392.3917)"
       x1="-181.00027"
       y1="65.430992"
       x2="-149.55615"
       y2="65.430992" />
    <linearGradient
       inkscape:collect="always"
       xlink:href="#linearGradient9952"
       id="linearGradient1383"
       gradientUnits="userSpaceOnUse"
       gradientTransform="matrix(0.924683,0.234989,-0.234989,0.924683,142.2812,191.7570)"
       x1="-181.00027"
       y1="65.430992"
       x2="-149.55615"
       y2="65.430992" />
    <linearGradient
       inkscape:collect="always"
       xlink:href="#linearGradient9952"
       id="linearGradient1382"
       gradientUnits="userSpaceOnUse"
       gradientTransform="matrix(0.664395,0.684716,-0.684716,0.664395,124.5953,290.1885)"
       x1="-181.00027"
       y1="65.430992"
       x2="-149.55615"
       y2="65.430992" />
    <linearGradient
       inkscape:collect="always"
       xlink:href="#linearGradient9952"
       id="linearGradient1381"
       gradientUnits="userSpaceOnUse"
       gradientTransform="matrix(0.231054,0.925674,0.925674,-0.231054,-59.19725,392.3917)"
       x1="-181.00027"
       y1="65.430992"
       x2="-149.55615"
       y2="65.430992" />
    <linearGradient
       inkscape:collect="always"
       xlink:href="#linearGradient9952"
       id="linearGradient1380"
       gradientUnits="userSpaceOnUse"
       gradientTransform="matrix(0.924683,0.234989,-0.234989,0.924683,142.2812,191.7570)"
       x1="-181.00027"
       y1="65.430992"
       x2="-149.55615"
       y2="65.430992" />
    <linearGradient
       inkscape:collect="always"
       xlink:href="#linearGradient9952"
       id="linearGradient1379"
       gradientUnits="userSpaceOnUse"
       gradientTransform="matrix(0.664395,0.684716,-0.684716,0.664395,124.5953,290.1885)"
       x1="-181.00027"
       y1="65.430992"
       x2="-149.55615"
       y2="65.430992" />
    <linearGradient
       inkscape:collect="always"
       xlink:href="#linearGradient9952"
       id="linearGradient1378"
       gradientUnits="userSpaceOnUse"
       gradientTransform="matrix(-8.217683e-33,-0.954074,7.242089,0.000000,-305.0412,-142.6872)"
       x1="-181.00027"
       y1="65.430992"
       x2="-149.55615"
       y2="65.430992" />
    <linearGradient
       inkscape:collect="always"
       xlink:href="#linearGradient9952"
       id="linearGradient1377"
       gradientUnits="userSpaceOnUse"
       gradientTransform="matrix(-0.954074,8.217683e-33,0.000000,-7.242089,-142.6873,625.0184)"
       x1="-181.00027"
       y1="65.430992"
       x2="-149.55615"
       y2="65.430992" />
    <linearGradient
       inkscape:collect="always"
       xlink:href="#linearGradient9952"
       id="linearGradient1376"
       gradientUnits="userSpaceOnUse"
       gradientTransform="matrix(0.231054,0.925674,0.925674,-0.231054,-59.19725,392.3917)"
       x1="-181.00027"
       y1="65.430992"
       x2="-149.55615"
       y2="65.430992" />
    <linearGradient
       inkscape:collect="always"
       xlink:href="#linearGradient9952"
       id="linearGradient1375"
       gradientUnits="userSpaceOnUse"
       gradientTransform="matrix(0.924683,0.234989,-0.234989,0.924683,142.2812,191.7570)"
       x1="-181.00027"
       y1="65.430992"
       x2="-149.55615"
       y2="65.430992" />
    <linearGradient
       inkscape:collect="always"
       xlink:href="#linearGradient9952"
       id="linearGradient1374"
       gradientUnits="userSpaceOnUse"
       gradientTransform="matrix(0.664395,0.684716,-0.684716,0.664395,124.5953,290.1885)"
       x1="-181.00027"
       y1="65.430992"
       x2="-149.55615"
       y2="65.430992" />
    <linearGradient
       inkscape:collect="always"
       xlink:href="#linearGradient9952"
       id="linearGradient1373"
       gradientUnits="userSpaceOnUse"
       gradientTransform="matrix(0.954074,-8.217683e-33,0.000000,7.242089,462.6874,-305.0642)"
       x1="-181.00027"
       y1="65.430992"
       x2="-149.55615"
       y2="65.430992" />
    <linearGradient
       inkscape:collect="always"
       xlink:href="#linearGradient9952"
       id="linearGradient1372"
       gradientUnits="userSpaceOnUse"
       gradientTransform="matrix(0.231054,0.925674,0.925674,-0.231054,-59.19725,392.3917)"
       x1="-181.00027"
       y1="65.430992"
       x2="-149.55615"
       y2="65.430992" />
    <linearGradient
       inkscape:collect="always"
       xlink:href="#linearGradient9952"
       id="linearGradient1371"
       gradientUnits="userSpaceOnUse"
       gradientTransform="matrix(0.924683,0.234989,-0.234989,0.924683,142.2812,191.7570)"
       x1="-181.00027"
       y1="65.430992"
       x2="-149.55615"
       y2="65.430992" />
    <linearGradient
       inkscape:collect="always"
       xlink:href="#linearGradient9952"
       id="linearGradient1370"
       gradientUnits="userSpaceOnUse"
       gradientTransform="matrix(0.664395,0.684716,-0.684716,0.664395,124.5953,290.1885)"
       x1="-181.00027"
       y1="65.430992"
       x2="-149.55615"
       y2="65.430992" />
    <linearGradient
       inkscape:collect="always"
       xlink:href="#linearGradient9952"
       id="linearGradient1602"
       gradientUnits="userSpaceOnUse"
       gradientTransform="matrix(0.954074,-8.217683e-33,0.000000,7.242089,507.0450,-401.5478)"
       x1="-181.00027"
       y1="65.430992"
       x2="-149.55615"
       y2="65.430992" />
    <linearGradient
       inkscape:collect="always"
       xlink:href="#linearGradient9952"
       id="linearGradient1603"
       gradientUnits="userSpaceOnUse"
       gradientTransform="matrix(0.664395,0.684716,-0.684716,0.664395,124.5953,290.1885)"
       x1="-181.00027"
       y1="65.430992"
       x2="-149.55615"
       y2="65.430992" />
    <linearGradient
       inkscape:collect="always"
       xlink:href="#linearGradient9952"
       id="linearGradient1604"
       gradientUnits="userSpaceOnUse"
       gradientTransform="matrix(0.924683,0.234989,-0.234989,0.924683,142.2812,191.7570)"
       x1="-181.00027"
       y1="65.430992"
       x2="-149.55615"
       y2="65.430992" />
    <linearGradient
       inkscape:collect="always"
       xlink:href="#linearGradient9952"
       id="linearGradient1605"
       gradientUnits="userSpaceOnUse"
       gradientTransform="matrix(0.231054,0.925674,0.925674,-0.231054,-59.19725,392.3917)"
       x1="-181.00027"
       y1="65.430992"
       x2="-149.55615"
       y2="65.430992" />
    <linearGradient
       inkscape:collect="always"
       xlink:href="#linearGradient9952"
       id="linearGradient1606"
       gradientUnits="userSpaceOnUse"
       gradientTransform="matrix(0.664395,0.684716,-0.684716,0.664395,124.5953,290.1885)"
       x1="-181.00027"
       y1="65.430992"
       x2="-149.55615"
       y2="65.430992" />
    <linearGradient
       inkscape:collect="always"
       xlink:href="#linearGradient9952"
       id="linearGradient1607"
       gradientUnits="userSpaceOnUse"
       gradientTransform="matrix(0.924683,0.234989,-0.234989,0.924683,142.2812,191.7570)"
       x1="-181.00027"
       y1="65.430992"
       x2="-149.55615"
       y2="65.430992" />
    <linearGradient
       inkscape:collect="always"
       xlink:href="#linearGradient9952"
       id="linearGradient1608"
       gradientUnits="userSpaceOnUse"
       gradientTransform="matrix(0.231054,0.925674,0.925674,-0.231054,-59.19725,392.3917)"
       x1="-181.00027"
       y1="65.430992"
       x2="-149.55615"
       y2="65.430992" />
    <linearGradient
       inkscape:collect="always"
       xlink:href="#linearGradient9952"
       id="linearGradient1609"
       gradientUnits="userSpaceOnUse"
       gradientTransform="matrix(0.664395,0.684716,-0.684716,0.664395,124.5953,290.1885)"
       x1="-181.00027"
       y1="65.430992"
       x2="-149.55615"
       y2="65.430992" />
    <linearGradient
       inkscape:collect="always"
       xlink:href="#linearGradient9952"
       id="linearGradient1610"
       gradientUnits="userSpaceOnUse"
       gradientTransform="matrix(0.924683,0.234989,-0.234989,0.924683,142.2812,191.7570)"
       x1="-181.00027"
       y1="65.430992"
       x2="-149.55615"
       y2="65.430992" />
    <linearGradient
       inkscape:collect="always"
       xlink:href="#linearGradient9952"
       id="linearGradient1611"
       gradientUnits="userSpaceOnUse"
       gradientTransform="matrix(0.231054,0.925674,0.925674,-0.231054,-59.19725,392.3917)"
       x1="-181.00027"
       y1="65.430992"
       x2="-149.55615"
       y2="65.430992" />
    <linearGradient
       inkscape:collect="always"
       xlink:href="#linearGradient9952"
       id="linearGradient1612"
       gradientUnits="userSpaceOnUse"
       gradientTransform="matrix(0.664395,0.684716,-0.684716,0.664395,124.5953,290.1885)"
       x1="-181.00027"
       y1="65.430992"
       x2="-149.55615"
       y2="65.430992" />
    <linearGradient
       inkscape:collect="always"
       xlink:href="#linearGradient9952"
       id="linearGradient1613"
       gradientUnits="userSpaceOnUse"
       gradientTransform="matrix(0.924683,0.234989,-0.234989,0.924683,142.2812,191.7570)"
       x1="-181.00027"
       y1="65.430992"
       x2="-149.55615"
       y2="65.430992" />
    <linearGradient
       inkscape:collect="always"
       xlink:href="#linearGradient9952"
       id="linearGradient1614"
       gradientUnits="userSpaceOnUse"
       gradientTransform="matrix(0.231054,0.925674,0.925674,-0.231054,-59.19725,392.3917)"
       x1="-181.00027"
       y1="65.430992"
       x2="-149.55615"
       y2="65.430992" />
    <linearGradient
       inkscape:collect="always"
       xlink:href="#linearGradient9952"
       id="linearGradient1615"
       gradientUnits="userSpaceOnUse"
       gradientTransform="matrix(-0.954074,8.217683e-33,0.000000,-7.242089,-98.32971,528.5349)"
       x1="-181.00027"
       y1="65.430992"
       x2="-149.55615"
       y2="65.430992" />
    <linearGradient
       inkscape:collect="always"
       xlink:href="#linearGradient9952"
       id="linearGradient1616"
       gradientUnits="userSpaceOnUse"
       gradientTransform="matrix(-8.217683e-33,-0.954074,7.242089,0.000000,-260.6836,-239.1708)"
       x1="-181.00027"
       y1="65.430992"
       x2="-149.55615"
       y2="65.430992" />
    <linearGradient
       inkscape:collect="always"
       xlink:href="#linearGradient9952"
       id="linearGradient1617"
       gradientUnits="userSpaceOnUse"
       gradientTransform="matrix(8.217683e-33,0.954074,-7.242089,0.000000,669.3988,366.2039)"
       x1="-181.00027"
       y1="65.430992"
       x2="-149.55615"
       y2="65.430992" />
    <linearGradient
       inkscape:collect="always"
       xlink:href="#linearGradient9952"
       id="linearGradient1694"
       gradientUnits="userSpaceOnUse"
       gradientTransform="matrix(0.954074,-8.217683e-33,0.000000,7.242089,507.0450,-401.5478)"
       x1="-181.00027"
       y1="65.430992"
       x2="-149.55615"
       y2="65.430992" />
    <linearGradient
       inkscape:collect="always"
       xlink:href="#linearGradient9952"
       id="linearGradient1695"
       gradientUnits="userSpaceOnUse"
       gradientTransform="matrix(0.664395,0.684716,-0.684716,0.664395,124.5953,290.1885)"
       x1="-181.00027"
       y1="65.430992"
       x2="-149.55615"
       y2="65.430992" />
    <linearGradient
       inkscape:collect="always"
       xlink:href="#linearGradient9952"
       id="linearGradient1696"
       gradientUnits="userSpaceOnUse"
       gradientTransform="matrix(0.924683,0.234989,-0.234989,0.924683,142.2812,191.7570)"
       x1="-181.00027"
       y1="65.430992"
       x2="-149.55615"
       y2="65.430992" />
    <linearGradient
       inkscape:collect="always"
       xlink:href="#linearGradient9952"
       id="linearGradient1697"
       gradientUnits="userSpaceOnUse"
       gradientTransform="matrix(0.231054,0.925674,0.925674,-0.231054,-59.19725,392.3917)"
       x1="-181.00027"
       y1="65.430992"
       x2="-149.55615"
       y2="65.430992" />
    <linearGradient
       inkscape:collect="always"
       xlink:href="#linearGradient9952"
       id="linearGradient1698"
       gradientUnits="userSpaceOnUse"
       gradientTransform="matrix(0.664395,0.684716,-0.684716,0.664395,124.5953,290.1885)"
       x1="-181.00027"
       y1="65.430992"
       x2="-149.55615"
       y2="65.430992" />
    <linearGradient
       inkscape:collect="always"
       xlink:href="#linearGradient9952"
       id="linearGradient1699"
       gradientUnits="userSpaceOnUse"
       gradientTransform="matrix(0.924683,0.234989,-0.234989,0.924683,142.2812,191.7570)"
       x1="-181.00027"
       y1="65.430992"
       x2="-149.55615"
       y2="65.430992" />
    <linearGradient
       inkscape:collect="always"
       xlink:href="#linearGradient9952"
       id="linearGradient1700"
       gradientUnits="userSpaceOnUse"
       gradientTransform="matrix(0.231054,0.925674,0.925674,-0.231054,-59.19725,392.3917)"
       x1="-181.00027"
       y1="65.430992"
       x2="-149.55615"
       y2="65.430992" />
    <linearGradient
       inkscape:collect="always"
       xlink:href="#linearGradient9952"
       id="linearGradient1701"
       gradientUnits="userSpaceOnUse"
       gradientTransform="matrix(0.664395,0.684716,-0.684716,0.664395,124.5953,290.1885)"
       x1="-181.00027"
       y1="65.430992"
       x2="-149.55615"
       y2="65.430992" />
    <linearGradient
       inkscape:collect="always"
       xlink:href="#linearGradient9952"
       id="linearGradient1702"
       gradientUnits="userSpaceOnUse"
       gradientTransform="matrix(0.924683,0.234989,-0.234989,0.924683,142.2812,191.7570)"
       x1="-181.00027"
       y1="65.430992"
       x2="-149.55615"
       y2="65.430992" />
    <linearGradient
       inkscape:collect="always"
       xlink:href="#linearGradient9952"
       id="linearGradient1703"
       gradientUnits="userSpaceOnUse"
       gradientTransform="matrix(0.231054,0.925674,0.925674,-0.231054,-59.19725,392.3917)"
       x1="-181.00027"
       y1="65.430992"
       x2="-149.55615"
       y2="65.430992" />
    <linearGradient
       inkscape:collect="always"
       xlink:href="#linearGradient9952"
       id="linearGradient1704"
       gradientUnits="userSpaceOnUse"
       gradientTransform="matrix(0.664395,0.684716,-0.684716,0.664395,124.5953,290.1885)"
       x1="-181.00027"
       y1="65.430992"
       x2="-149.55615"
       y2="65.430992" />
    <linearGradient
       inkscape:collect="always"
       xlink:href="#linearGradient9952"
       id="linearGradient1705"
       gradientUnits="userSpaceOnUse"
       gradientTransform="matrix(0.924683,0.234989,-0.234989,0.924683,142.2812,191.7570)"
       x1="-181.00027"
       y1="65.430992"
       x2="-149.55615"
       y2="65.430992" />
    <linearGradient
       inkscape:collect="always"
       xlink:href="#linearGradient9952"
       id="linearGradient1706"
       gradientUnits="userSpaceOnUse"
       gradientTransform="matrix(0.231054,0.925674,0.925674,-0.231054,-59.19725,392.3917)"
       x1="-181.00027"
       y1="65.430992"
       x2="-149.55615"
       y2="65.430992" />
    <linearGradient
       inkscape:collect="always"
       xlink:href="#linearGradient9952"
       id="linearGradient1707"
       gradientUnits="userSpaceOnUse"
       gradientTransform="matrix(-0.954074,8.217683e-33,0.000000,-7.242089,-98.32971,528.5349)"
       x1="-181.00027"
       y1="65.430992"
       x2="-149.55615"
       y2="65.430992" />
    <linearGradient
       inkscape:collect="always"
       xlink:href="#linearGradient9952"
       id="linearGradient1708"
       gradientUnits="userSpaceOnUse"
       gradientTransform="matrix(-8.217683e-33,-0.954074,7.242089,0.000000,-260.6836,-239.1708)"
       x1="-181.00027"
       y1="65.430992"
       x2="-149.55615"
       y2="65.430992" />
    <linearGradient
       inkscape:collect="always"
       xlink:href="#linearGradient9952"
       id="linearGradient1709"
       gradientUnits="userSpaceOnUse"
       gradientTransform="matrix(8.217683e-33,0.954074,-7.242089,0.000000,669.3988,366.2039)"
       x1="-181.00027"
       y1="65.430992"
       x2="-149.55615"
       y2="65.430992" />
  </defs>
  <sodipodi:namedview
     id="base"
     pagecolor="#ffffff"
     bordercolor="#666666"
     borderopacity="1.0"
     inkscape:pageopacity="0.0"
     inkscape:pageshadow="2"
     inkscape:zoom="2.9843750"
     inkscape:cx="126.13533"
     inkscape:cy="127.99996"
     inkscape:current-layer="g1271"
     gridspacingy="10.000000pt"
     gridspacingx="10.000000pt"
     gridoriginy="0.0000000pt"
     gridoriginx="0.0000000pt"
     inkscape:window-width="1273"
     inkscape:window-height="944"
     inkscape:window-x="0"
     inkscape:window-y="46"
     showguides="true"
     inkscape:guide-bbox="true" />
  <metadata
     id="metadata4">
    <rdf:RDF>
      <cc:Work
         rdf:about="">
        <dc:format>image/svg+xml</dc:format>
        <dc:type
           rdf:resource="http://purl.org/dc/dcmitype/StillImage" />
        <cc:license
           rdf:resource="http://creativecommons.org/licenses/GPL/2.0/" />
        <dc:title>compras listado</dc:title>
        <dc:date>1 d'agost de 2005</dc:date>
        <dc:creator>
          <cc:Agent>
            <dc:title>Raül Martínez i Peris</dc:title>
          </cc:Agent>
        </dc:creator>
        <dc:language>es-ES</dc:language>
        <dc:rights>
          <cc:Agent>
            <dc:title>Raül Martínez i Peris</dc:title>
          </cc:Agent>
        </dc:rights>
        <dc:publisher>
          <cc:Agent>
            <dc:title>Raül Martínez i Peris</dc:title>
          </cc:Agent>
        </dc:publisher>
        <dc:subject>
          <rdf:Bag>
            <rdf:li>iconos</rdf:li>
          </rdf:Bag>
        </dc:subject>
      </cc:Work>
      <cc:License
         rdf:about="http://creativecommons.org/licenses/GPL/2.0/">
        <cc:permits
           rdf:resource="http://web.resource.org/cc/Reproduction" />
        <cc:permits
           rdf:resource="http://web.resource.org/cc/Distribution" />
        <cc:requires
           rdf:resource="http://web.resource.org/cc/Notice" />
        <cc:permits
           rdf:resource="http://web.resource.org/cc/DerivativeWorks" />
        <cc:requires
           rdf:resource="http://web.resource.org/cc/ShareAlike" />
        <cc:requires
           rdf:resource="http://web.resource.org/cc/SourceCode" />
      </cc:License>
    </rdf:RDF>
  </metadata>
  <g
     inkscape:label="Base"
     inkscape:groupmode="layer"
     id="layer1"
     style="display:block"
     sodipodi:insensitive="1">
    <rect
       style="fill:#ffffff;fill-opacity:1.0000000;fill-rule:evenodd;stroke:none;stroke-width:8.9802618;stroke-miterlimit:4.0000000;stroke-opacity:1.0000000"
       id="rect2373"
       width="320.00000"
       height="320.00000"
       x="0.0000000"
       y="0.0000000"
       rx="0.0000000"
       ry="0.0000000" />
  </g>
  <g
     inkscape:groupmode="layer"
     id="layer5"
     inkscape:label="Boto"
     style="display:block"
     sodipodi:insensitive="1">
    <path
       style="fill:url(#linearGradient1694);fill-opacity:1.0000000;fill-rule:evenodd;stroke:none;stroke-width:8.9802618;stroke-miterlimit:4.0000000;stroke-opacity:1.0000000;display:block;"
       d="M 333.50708,-65.636916 L 364.35754,-65.559606 L 364.35754,192.62411 L 333.54183,192.57239 L 333.50708,-65.636916 z "
       id="rect10002"
       sodipodi:nodetypes="ccccc"
       transform="translate(-44.35756,96.48357)" />
    <g
       id="g2064"
       transform="translate(329.5388,79.35011)"
       style="display:block;">
      <path
         style="fill:url(#linearGradient1695);fill-opacity:1.0000000;fill-rule:evenodd;stroke:none;stroke-width:8.9802618;stroke-miterlimit:4.0000000;stroke-opacity:1.0000000"
         d="M -13.666605,224.15727 L -19.570525,231.25693 L -25.891519,237.00110 L -40.461822,209.72663 L -13.666605,224.15727 z "
         id="path2053"
         sodipodi:nodetypes="ccccc" />
      <path
         style="fill:url(#linearGradient1696);fill-opacity:1.0000000;fill-rule:evenodd;stroke:none;stroke-width:8.9802618;stroke-miterlimit:4.0000000;stroke-opacity:1.0000000"
         d="M -9.5387644,209.84671 L -11.386019,217.11565 L -13.233279,224.38461 L -40.461822,209.72663 L -9.5387644,209.84671 z "
         id="path2060"
         sodipodi:nodetypes="ccccc" />
      <path
         style="fill:url(#linearGradient1697);fill-opacity:1.0000000;fill-rule:evenodd;stroke:none;stroke-width:8.9802618;stroke-miterlimit:4.0000000;stroke-opacity:1.0000000"
         d="M -40.461822,240.64992 L -33.185084,238.83361 L -25.908336,237.01728 L -40.450347,209.72663 L -40.461822,240.64992 z "
         id="path2062"
         sodipodi:nodetypes="ccccc" />
    </g>
    <g
       id="g2999"
       transform="matrix(0.000000,1.000000,-1.000000,0.000000,240.6498,329.5388)"
       style="display:block;">
      <path
         style="fill:url(#linearGradient1698);fill-opacity:1.0000000;fill-rule:evenodd;stroke:none;stroke-width:8.9802618;stroke-miterlimit:4.0000000;stroke-opacity:1.0000000"
         d="M -13.666605,224.15727 L -19.570525,231.25693 L -25.891519,237.00110 L -40.461822,209.72663 L -13.666605,224.15727 z "
         id="path3000"
         sodipodi:nodetypes="ccccc" />
      <path
         style="fill:url(#linearGradient1699);fill-opacity:1.0000000;fill-rule:evenodd;stroke:none;stroke-width:8.9802618;stroke-miterlimit:4.0000000;stroke-opacity:1.0000000"
         d="M -9.5387644,209.84671 L -11.386019,217.11565 L -13.233279,224.38461 L -40.461822,209.72663 L -9.5387644,209.84671 z "
         id="path3001"
         sodipodi:nodetypes="ccccc" />
      <path
         style="fill:url(#linearGradient1700);fill-opacity:1.0000000;fill-rule:evenodd;stroke:none;stroke-width:8.9802618;stroke-miterlimit:4.0000000;stroke-opacity:1.0000000"
         d="M -40.461822,240.64992 L -33.185084,238.83361 L -25.908336,237.01728 L -40.450347,209.72663 L -40.461822,240.64992 z "
         id="path3002"
         sodipodi:nodetypes="ccccc" />
    </g>
    <g
       id="g3006"
       transform="matrix(0.000000,-1.000000,1.000000,0.000000,79.35004,-9.538830)"
       style="display:block;">
      <path
         style="fill:url(#linearGradient1701);fill-opacity:1.0000000;fill-rule:evenodd;stroke:none;stroke-width:8.9802618;stroke-miterlimit:4.0000000;stroke-opacity:1.0000000"
         d="M -13.666605,224.15727 L -19.570525,231.25693 L -25.891519,237.00110 L -40.461822,209.72663 L -13.666605,224.15727 z "
         id="path3007"
         sodipodi:nodetypes="ccccc" />
      <path
         style="fill:url(#linearGradient1702);fill-opacity:1.0000000;fill-rule:evenodd;stroke:none;stroke-width:8.9802618;stroke-miterlimit:4.0000000;stroke-opacity:1.0000000"
         d="M -9.5387644,209.84671 L -11.386019,217.11565 L -13.233279,224.38461 L -40.461822,209.72663 L -9.5387644,209.84671 z "
         id="path3008"
         sodipodi:nodetypes="ccccc" />
      <path
         style="fill:url(#linearGradient1703);fill-opacity:1.0000000;fill-rule:evenodd;stroke:none;stroke-width:8.9802618;stroke-miterlimit:4.0000000;stroke-opacity:1.0000000"
         d="M -40.461822,240.64992 L -33.185084,238.83361 L -25.908336,237.01728 L -40.450347,209.72663 L -40.461822,240.64992 z "
         id="path3009"
         sodipodi:nodetypes="ccccc" />
    </g>
    <g
       id="g3010"
       transform="matrix(-1.000000,0.000000,0.000000,-1.000000,-9.538790,240.6500)"
       style="display:block;">
      <path
         style="fill:url(#linearGradient1704);fill-opacity:1.0000000;fill-rule:evenodd;stroke:none;stroke-width:8.9802618;stroke-miterlimit:4.0000000;stroke-opacity:1.0000000"
         d="M -13.666605,224.15727 L -19.570525,231.25693 L -25.891519,237.00110 L -40.461822,209.72663 L -13.666605,224.15727 z "
         id="path3011"
         sodipodi:nodetypes="ccccc" />
      <path
         style="fill:url(#linearGradient1705);fill-opacity:1.0000000;fill-rule:evenodd;stroke:none;stroke-width:8.9802618;stroke-miterlimit:4.0000000;stroke-opacity:1.0000000"
         d="M -9.5387644,209.84671 L -11.386019,217.11565 L -13.233279,224.38461 L -40.461822,209.72663 L -9.5387644,209.84671 z "
         id="path3012"
         sodipodi:nodetypes="ccccc" />
      <path
         style="fill:url(#linearGradient1706);fill-opacity:1.0000000;fill-rule:evenodd;stroke:none;stroke-width:8.9802618;stroke-miterlimit:4.0000000;stroke-opacity:1.0000000"
         d="M -40.461822,240.64992 L -33.185084,238.83361 L -25.908336,237.01728 L -40.450347,209.72663 L -40.461822,240.64992 z "
         id="path3013"
         sodipodi:nodetypes="ccccc" />
    </g>
    <path
       style="fill:url(#linearGradient1707);fill-opacity:1.0000000;fill-rule:evenodd;stroke:none;stroke-width:8.9802618;stroke-miterlimit:4.0000000;stroke-opacity:1.0000000;display:block;"
       d="M 75.207999,192.62411 L 44.357539,192.54679 L 44.357539,-65.636926 L 75.173249,-65.585206 L 75.207999,192.62411 z "
       id="path3021"
       sodipodi:nodetypes="ccccc"
       transform="translate(-44.35756,96.48357)" />
    <path
       style="fill:url(#linearGradient1708);fill-opacity:1.0000000;fill-rule:evenodd;stroke:none;stroke-width:8.9802618;stroke-miterlimit:4.0000000;stroke-opacity:1.0000000;display:block;"
       d="M 75.227019,-65.633046 L 75.304339,-96.483506 L 333.48806,-96.483506 L 333.43634,-65.667796 L 75.227019,-65.633046 z "
       id="path3023"
       sodipodi:nodetypes="ccccc"
       transform="translate(-44.35756,96.48357)" />
    <path
       style="fill:url(#linearGradient1709);fill-opacity:1.0000000;fill-rule:evenodd;stroke:none;stroke-width:8.9802618;stroke-miterlimit:4.0000000;stroke-opacity:1.0000000;display:block;"
       d="M 333.48806,192.66603 L 333.41074,223.51649 L 75.227019,223.51649 L 75.278739,192.70078 L 333.48806,192.66603 z "
       id="path3054"
       sodipodi:nodetypes="ccccc"
       transform="translate(-44.35756,96.48357)" />
    <rect
       style="fill:#0000ff;fill-opacity:0.78431374;fill-rule:evenodd;stroke:none;stroke-width:15.000000;stroke-miterlimit:4.0000000;stroke-opacity:1.0000000;display:block;"
       id="rect3057"
       width="265.03928"
       height="265.03928"
       x="71.837898"
       y="-69.003174"
       transform="translate(-44.35756,96.48357)" />
    <rect
       style="fill:#ffffff;fill-opacity:0.85537916;fill-rule:evenodd;stroke:none;stroke-width:8.9802618;stroke-miterlimit:4.0000000;stroke-opacity:1.0000000;display:block;"
       id="rect5542"
       width="320.00000"
       height="320.00000"
       x="44.357540"
       y="-96.483521"
       rx="0.0000000"
       ry="0.0000000"
       transform="translate(-44.35756,96.48357)" />
    <path
       style="fill:#ffffff;fill-opacity:1.0000000;fill-rule:evenodd;stroke:none;stroke-width:15.000000;stroke-miterlimit:4.0000000;stroke-opacity:1.0000000;display:block;"
       d="M 99.804629,182.93893 L 84.227709,182.92172 L 84.227709,-56.467096 L 323.83878,-56.467096 L 323.84161,-40.890176 L 99.804629,-40.890176 L 99.804629,182.93893 z "
       id="path1115"
       sodipodi:nodetypes="ccccccc"
       transform="translate(-44.35756,96.48357)" />
    <path
       style="fill:#000000;fill-opacity:1.0000000;fill-rule:evenodd;stroke:none;stroke-width:15.000000;stroke-miterlimit:4.0000000;stroke-opacity:1.0000000;display:block;"
       d="M 69.636429,207.78079 L 69.659909,198.73213 L 339.12473,198.73213 L 339.12473,-71.153506 L 348.17339,-71.258336 L 348.17339,207.78079 L 69.636429,207.78079 z "
       id="path1119"
       sodipodi:nodetypes="ccccccc"
       transform="translate(-44.35756,96.48357)" />
    <path
       id="rect6786"
       style="opacity:0.39999983;fill:#0000ff;fill-opacity:1.0000000;fill-rule:evenodd;stroke:none;stroke-width:15.000000;stroke-miterlimit:4.0000000;stroke-opacity:1.0000000;display:block;"
       d="M 69.357539,-71.483506 L 339.35754,-71.483506 L 339.35754,198.51649 L 69.357539,198.51649 L 69.357539,-71.483506 z M 84.934469,-55.906576 L 323.78061,-55.906576 L 323.78061,182.93956 L 84.934469,182.93956 L 84.934469,-55.906576 z "
       transform="translate(-44.35756,96.48357)" />
  </g>
  <path
     d=""
     id="path3081" />
  <g
     id="g1271"
     inkscape:groupmode="layer"
     inkscape:label="Dibuix"
     transform="translate(184.5158,-340.6444)"
     style="display:block">
    <path
       d=""
       id="path1415"
       transform="translate(-184.5158,340.6444)" />
    <g
       inkscape:label="Layer 1"
       inkscape:groupmode="layer"
       id="g1223"
       transform="translate(-377.0407,-24.55012)">
      <g
         id="g5830"
         transform="matrix(0.453250,0.000000,0.000000,0.453245,580.4513,439.3422)">
        <g
           id="g5823">
          <path
             style="fill:#e6b49b;stroke:#000000;stroke-width:2.7578743;stroke-miterlimit:4.0000000;stroke-opacity:1.0000000"
             d="M -616.10361,55.776580 L -794.43785,116.38865 L -794.43785,436.95918 L -616.10361,311.42484 L -616.10361,55.776580 z "
             id="path1394" />
          <path
             style="fill:#e6b49b;stroke:#000000;stroke-width:2.7578743;stroke-miterlimit:4.0000000;stroke-opacity:1.0000000"
             d="M -617.30659,57.042985 L -240.97295,57.042985 L -240.97295,312.69125 L -616.49843,312.69125 L -617.30659,57.042985 z "
             id="path1396" />
          <path
             style="fill:#d98d68;stroke:#000000;stroke-width:2.7578743;stroke-miterlimit:4.0000000;stroke-opacity:1.0000000"
             d="M -236.99170,57.209178 L -310.52295,120.02168 L -310.52295,436.95918 L -267.14795,364.49043 L -237.24170,312.77168 L -236.99170,57.209178 z "
             id="path1412"
             sodipodi:nodetypes="cccccc" />
          <path
             style="fill:#d98d68;fill-opacity:1.0000000;stroke:#1f1a17"
             d="M -792.42668,118.93814 L -310.76272,118.39936 L -310.76272,436.27602 L -792.42668,437.08418 L -792.42668,118.93814"
             id="path1456" />
          <path
             style="fill:#bb825b;stroke:#000000;stroke-width:2.7578743;stroke-miterlimit:4.0000000;stroke-opacity:1.0000000"
             d="M -614.61272,56.234825 L -678.99621,65.393985 L -827.42843,121.96526 L -794.29383,117.11629 L -614.61272,56.234825 z "
             id="path1457" />
          <path
             style="fill:#bb825b;stroke:#000000;stroke-width:2.7578743;stroke-miterlimit:4.0000000;stroke-opacity:1.0000000"
             d="M -311.15753,120.88771 L -283.14128,151.32844 L -209.32924,86.944945 L -237.34549,56.234825 L -311.15753,120.88771 z "
             id="path1459" />
        </g>
        <g
           id="g5816"
           transform="translate(-632.1137,230.6661)">
          <path
             style="fill:#da251d;stroke:none"
             d="M -161.21818,150.11946 L -162.02628,67.687133 L 2.0302028,23.777113 L 22.234203,100.28292 L -161.21818,150.11946 z M 41.899433,62.030013 L 46.479003,79.270763 L 51.597353,77.385053 L 53.483063,76.846283 L 55.368763,76.038123 L 56.715703,74.691193 L 57.254473,73.613643 L 57.793243,72.266713 L 58.601403,70.381003 L 58.601403,69.034073 L 57.793243,66.609593 L 57.254473,65.262653 L 56.715703,63.376953 L 55.368763,62.030013 L 54.021833,60.683083 L 52.944283,60.144313 L 51.058583,60.144313 L 49.172873,60.144313 L 47.017783,60.683083 L 41.899433,62.030013 z M 291.89027,28.087303 L 274.64952,32.666873 L 268.99240,-5.5860365 L 291.89027,28.087303 z M 316.13507,21.891403 L 299.70248,26.470983 L 302.66574,-14.475797 L 316.13507,21.891403 z M 266.29854,-47.071587 L 285.69438,-51.920547 L 284.34744,-19.055367 L 266.29854,-47.071587 z M 193.83352,-27.675747 L 236.39661,-39.259367 L 246.63331,40.209703 L 240.97619,41.826023 L 239.62925,21.352633 L 209.18856,28.895463 L 193.83352,-27.675747 z M 151.80920,-16.361507 L 165.00914,-20.132917 L 185.48253,56.911673 L 164.47037,62.838173 L 165.81730,59.336153 L 166.35608,56.911673 L 167.16424,53.948413 L 167.70301,50.715773 L 167.16424,43.442333 L 165.81730,35.899513 L 151.80920,-16.361507 z M 111.67058,-5.5860365 L 123.79298,-8.5492865 L 136.99293,42.364793 L 137.53170,46.136203 L 136.99293,49.368843 L 136.99293,50.715773 L 135.91538,51.254553 L 134.56845,51.793323 L 133.22151,52.601483 L 131.87458,52.601483 L 130.79703,52.601483 L 129.45010,52.601483 L 128.10317,51.793323 L 126.21746,49.368843 L 124.87053,45.597433 L 111.67058,-5.5860365 z M 64.527913,7.3445235 L 82.307433,2.2261835 L 96.315543,54.487193 L 98.740023,62.030013 L 101.97266,67.687133 L 103.85837,70.919773 L 106.55223,72.805483 L 108.43794,74.691193 L 110.86242,76.846283 L 85.270693,83.580953 L 87.964553,78.731993 L 89.042103,74.152413 L 89.042103,68.495293 L 87.964553,62.838173 L 86.617623,59.336153 L 85.270693,56.372893 L 83.654373,53.140253 L 80.960503,50.715773 L 78.266633,48.560683 L 75.303383,47.483133 L 72.070743,46.136203 L 68.299323,44.789273 L 70.723803,42.364793 L 72.609513,39.670923 L 73.956443,36.438283 L 75.303383,34.013803 L 75.842153,31.589323 L 75.842153,28.087303 L 75.303383,25.124043 L 74.495223,21.891403 L 73.148283,17.311833 L 70.723803,13.001643 L 67.491163,9.7690035 L 64.527913,7.3445235 z M 33.817833,29.434233 L 37.589243,44.789273 L 41.899433,43.442333 L 44.054523,42.903563 L 45.401463,42.364793 L 46.479003,41.017863 L 47.017783,39.670923 L 47.825943,38.593383 L 48.634103,37.246443 L 48.634103,35.360743 L 47.825943,34.013803 L 46.479003,31.050553 L 44.593303,28.895463 L 42.707593,28.087303 L 41.360663,28.087303 L 39.474953,28.087303 L 38.128023,28.087303 L 33.817833,29.434233 z M 319.36771,-61.618467 L 319.36771,-48.687907 L 314.78814,-60.271527 L 319.36771,-61.618467 z "
             id="path1461" />
          <path
             style="fill:#da251d;stroke:none"
             d="M 318.83224,37.787833 L 318.02408,104.05703 L 151.27353,149.31405 L 130.80012,72.808143 L 314.79144,23.240933 L 318.83224,37.787833 z "
             id="path1462" />
          <path
             style="fill:#da251d;stroke:none"
             d="M -161.21538,150.12221 L -162.02358,67.689793 L -24.905567,31.591933 L -4.4321572,107.82845 L -161.21538,150.12221 z "
             id="path1463" />
          <path
             style="fill:#da251d;stroke:none"
             d="M -106.53268,206.15189 L -121.88768,206.69066 L -122.42648,201.57231 L -123.77338,196.72335 L -137.78148,145.00111 L -124.31218,141.22970 L -106.53268,206.15189 z M -151.78958,206.69066 L -160.67938,206.69066 L -161.21818,169.78469 L -152.32838,202.91925 L -151.78958,204.80495 L -151.78958,206.69066 z M 2.5689728,188.91114 L -13.863607,193.22133 L -20.598277,155.77658 L 2.5689728,188.91114 z M 26.813783,182.44586 L 10.111803,187.02543 L 13.344443,146.88682 L 26.813783,182.44586 z M 117.86647,157.66229 L 89.850263,165.47450 L 90.389033,157.66229 L 114.09506,151.19701 L 117.86647,157.66229 z M 25.466843,101.09108 L 64.527913,90.315623 L 59.409563,173.55610 L 55.368763,174.90303 L 25.466843,101.09108 z M -23.022757,113.75226 L -3.0881472,108.63391 L -5.2432372,141.76847 L -23.022757,113.75226 z M -94.948977,133.41748 L -52.385907,122.10324 L -42.687987,201.03354 L -48.614497,202.91925 L -49.153267,181.90709 L -79.863347,190.25807 L -94.948977,133.41748 z M 103.85837,79.809533 L 288.11886,30.242393 L 308.59224,106.74820 L 149.11533,149.31130 L 103.85837,79.809533 z M 89.042103,132.87871 L 102.51143,129.64607 L 88.503333,104.05434 L 89.042103,132.87871 z "
             id="path1464" />
          <path
             style="fill:#da251d;stroke:none"
             d="M 308.59224,-113.34071 L 317.48200,-113.34071 L 315.59630,-111.99378 L 313.44120,-111.18562 L 309.13102,-110.10807 L 308.59224,-113.34071 z M 319.36771,-94.753027 L 319.36771,-76.165347 L 318.02078,-75.626577 L 313.44120,-92.867317 L 318.82894,-94.214257 L 319.36771,-94.753027 z M 207.84163,-113.34071 L 277.88216,-113.34071 L 293.77598,-54.075637 L 109.51549,-4.7778765 L 89.042103,-81.283697 L 207.84163,-113.34071 z "
             id="path1465" />
          <path
             style="fill:#da251d;stroke:none"
             d="M 207.84163,-113.34071 L 249.32717,-113.34071 L 267.10670,-47.071587 L 107.89917,-4.2391065 L 62.372823,-74.549027 L 207.84163,-113.34071 z M -162.02628,68.495293 L -163.10388,-3.7003265 L -144.78558,63.915723 L -162.02628,68.495293 z M -38.916567,35.360743 L -55.618547,39.670923 L -61.814437,1.4180235 L -38.916567,35.360743 z M -14.671767,28.895463 L -31.373747,33.475033 L -28.141107,-7.4717465 L -14.671767,28.895463 z M 77.189083,4.1118835 L 48.634103,11.654713 L 49.172873,4.1118835 L 72.609513,-2.3533965 L 77.189083,4.1118835 z M -16.018707,-53.267477 L 22.772983,-63.504177 L 17.924013,20.005703 L 13.883213,21.352633 L -16.018707,-53.267477 z M -64.508307,-39.798147 L -44.573697,-44.916487 L -46.459397,-11.781927 L -64.508307,-39.798147 z M -136.43458,-20.671687 L -93.602077,-32.255317 L -83.634777,47.483133 L -89.830677,48.560683 L -90.638777,27.548523 L -121.07948,35.899513 L -136.43458,-20.671687 z M 47.825943,-20.671687 L 61.295273,-24.443107 L 47.825943,-49.496067 L 47.825943,-20.671687 z "
             id="path1466" />
        </g>
        <path
           style="fill:#1f1a17;stroke:none"
           d="M -290.51935,-65.105929 C -280.81832,-41.074149 -278.23468,-14.289059 -283.35143,11.124761 C -285.53122,24.505711 -291.68005,37.018731 -298.94987,48.316621 C -305.10770,56.843308 -312.92185,63.754618 -321.82780,69.311258 C -337.57038,77.460608 -356.00544,76.552148 -372.25907,83.330048 C -388.23497,90.113858 -403.88497,98.062768 -418.07841,108.08762 C -423.34172,110.31761 -425.21118,118.50423 -417.40062,117.26906 C -459.87397,117.53844 -502.34732,117.80783 -544.82067,118.07722 C -544.13270,110.31816 -536.67467,103.43599 -532.41309,96.709478 C -510.82721,68.166338 -488.65763,39.840091 -470.68723,8.8226207 C -466.52681,1.1106407 -462.41595,-7.2368793 -464.44740,-16.272469 C -464.84957,-30.859539 -461.82597,-45.793739 -454.97083,-58.725589 C -446.87241,-72.504059 -434.72292,-83.340159 -421.27838,-91.807189 C -406.72992,-101.16799 -389.58519,-105.76779 -372.70522,-108.59160 C -361.64711,-109.26595 -350.52105,-109.40701 -339.54777,-107.66908 C -354.00487,-88.542599 -368.46197,-69.416119 -382.91908,-50.289649 C -365.31914,-31.163159 -347.71917,-12.036699 -330.11923,7.0897807 C -316.91928,-16.975459 -303.71929,-41.040729 -290.51935,-65.105929 z "
           id="path1467" />
      </g>
    </g>
  </g>
  <g
     inkscape:groupmode="layer"
     id="layer6"
     inkscape:label="Propietat"
     style="display:block"
     sodipodi:insensitive="1">
    <g
       id="g6094"
       transform="matrix(0.925862,0.000000,0.000000,0.925862,143.7747,118.5623)"
       inkscape:export-xdpi="96.000000"
       inkscape:export-ydpi="96.000000"
       style="display:block">
      <path
         style="fill:#ffffff;fill-opacity:1.0000000;fill-rule:evenodd;stroke:#0000cd;stroke-width:8.1005621;stroke-miterlimit:4.0000000;stroke-opacity:1.0000000"
         d="M -151.23716,-57.772351 C -151.23716,-21.211475 -151.23716,-49.333221 -151.23716,-12.772347 C -151.23716,23.788523 -121.56457,53.461123 -85.003690,53.461123 C -48.442820,53.461123 -18.770230,23.788523 -18.770230,-12.772347 C -18.770230,-49.333221 -18.770230,-21.211475 -18.770230,-57.772351 C -18.770230,-94.333227 -48.442820,-124.00582 -85.003690,-124.00582 C -121.56457,-124.00582 -151.23716,-94.333227 -151.23716,-57.772351 z "
         id="path4847"
         sodipodi:nodetypes="ccccccc" />
      <path
         style="fill:#0000cd;fill-opacity:1.0000000;stroke:none"
         d="M -129.21657,-89.000316 L -129.21657,-73.024359 L -40.790820,-73.024359 L -40.790820,-89.000316 L -129.21657,-89.000316 z M -129.21657,-58.516780 L -129.21657,-42.526137 L -40.790820,-42.526137 L -40.790820,-58.516780 L -129.21657,-58.516780 z M -129.21657,-28.018558 L -129.21657,-12.027911 L -40.790820,-12.027911 L -40.790820,-28.018558 L -129.21657,-28.018558 z M -129.21657,2.4796691 L -129.21657,18.455619 L -40.790820,18.455619 L -40.790820,2.4796691 L -129.21657,2.4796691 z "
         id="polyline1684"
         sodipodi:nodetypes="cccccccccccccccccccc" />
    </g>
  </g>
</svg>
