<?xml version="1.0" encoding="UTF-8" standalone="no"?>
<!-- Created with Inkscape (http://www.inkscape.org/) -->
<svg
   xmlns:dc="http://purl.org/dc/elements/1.1/"
   xmlns:cc="http://web.resource.org/cc/"
   xmlns:rdf="http://www.w3.org/1999/02/22-rdf-syntax-ns#"
   xmlns:svg="http://www.w3.org/2000/svg"
   xmlns="http://www.w3.org/2000/svg"
   xmlns:xlink="http://www.w3.org/1999/xlink"
   xmlns:sodipodi="http://sodipodi.sourceforge.net/DTD/sodipodi-0.dtd"
   xmlns:inkscape="http://www.inkscape.org/namespaces/inkscape"
   version="1.0"
   width="256"
   height="256"
   id="svg1"
   sodipodi:version="0.32"
   inkscape:version="0.45"
   sodipodi:docname="i_bulmages_cuentas_gastos.svg"
   sodipodi:docbase="/home/anna/Desktop/elferrer/Documents/noves imatges bulmages/i_bulmages_cuentas_gastos"
   inkscape:output_extension="org.inkscape.output.svg.inkscape"
   sodipodi:modified="TRUE"
   inkscape:export-filename="/home/anna/Desktop/elferrer/Documents/noves imatges bulmages/i_bulmages_cuentas_gastos/i_bulmages_cuentas_gastos_pulsado_L.png"
   inkscape:export-xdpi="96"
   inkscape:export-ydpi="96">
  <metadata
     id="metadata162">
    <rdf:RDF>
      <cc:Work
         rdf:about="">
        <dc:format>image/svg+xml</dc:format>
        <dc:type
           rdf:resource="http://purl.org/dc/dcmitype/StillImage" />
        <cc:license
           rdf:resource="http://creativecommons.org/licenses/GPL/2.0/" />
        <dc:title>cuentas gastos</dc:title>
        <dc:date>actualizacion 11/03/2007</dc:date>
        <dc:creator>
          <cc:Agent>
            <dc:title>Raül Martínez i Peris</dc:title>
          </cc:Agent>
        </dc:creator>
        <dc:rights>
          <cc:Agent>
            <dc:title>GPL</dc:title>
          </cc:Agent>
        </dc:rights>
        <dc:publisher>
          <cc:Agent>
            <dc:title>Raül Martinez i Peris</dc:title>
          </cc:Agent>
        </dc:publisher>
        <dc:identifier>elferrer</dc:identifier>
        <dc:source>propia</dc:source>
        <dc:language>castellano</dc:language>
        <dc:contributor>
          <cc:Agent>
            <dc:title>www.iglues.org</dc:title>
          </cc:Agent>
        </dc:contributor>
        <dc:description>iconos para las aplicaciones de iglues.org</dc:description>
        <dc:subject>
          <rdf:Bag>
            <rdf:li>bulmagés</rdf:li>
          </rdf:Bag>
        </dc:subject>
      </cc:Work>
      <cc:License
         rdf:about="http://creativecommons.org/licenses/GPL/2.0/">
        <cc:permits
           rdf:resource="http://web.resource.org/cc/Reproduction" />
        <cc:permits
           rdf:resource="http://web.resource.org/cc/Distribution" />
        <cc:requires
           rdf:resource="http://web.resource.org/cc/Notice" />
        <cc:permits
           rdf:resource="http://web.resource.org/cc/DerivativeWorks" />
        <cc:requires
           rdf:resource="http://web.resource.org/cc/ShareAlike" />
        <cc:requires
           rdf:resource="http://web.resource.org/cc/SourceCode" />
      </cc:License>
    </rdf:RDF>
  </metadata>
  <sodipodi:namedview
     inkscape:window-height="690"
     inkscape:window-width="1016"
     inkscape:pageshadow="2"
     inkscape:pageopacity="0.0"
     guidetolerance="10.0"
     gridtolerance="10.0"
     objecttolerance="10.0"
     borderopacity="1.0"
     bordercolor="#666666"
     pagecolor="#ffffff"
     id="base"
     inkscape:zoom="1.9023438"
     inkscape:cx="128"
     inkscape:cy="101.21181"
     inkscape:window-x="0"
     inkscape:window-y="0"
     inkscape:current-layer="layer11"
     gridempspacing="3" />
  <defs
     id="defs3">
    <linearGradient
       id="linearGradient9952">
      <stop
         style="stop-color:blue;stop-opacity:1"
         offset="0"
         id="stop9953" />
      <stop
         style="stop-color:blue;stop-opacity:0"
         offset="1"
         id="stop9954" />
    </linearGradient>
    <linearGradient
       inkscape:collect="always"
       xlink:href="#linearGradient9952"
       id="linearGradient2396"
       gradientUnits="userSpaceOnUse"
       gradientTransform="matrix(0.722825,0,0,5.491502,357.3217,-224.6297)"
       x1="-181.00027"
       y1="65.430992"
       x2="-149.55615"
       y2="65.430992" />
    <linearGradient
       inkscape:collect="always"
       xlink:href="#linearGradient9952"
       id="linearGradient2398"
       gradientUnits="userSpaceOnUse"
       gradientTransform="matrix(0.503358,0.519204,-0.518754,0.503795,350.8416,286.8881)"
       x1="-181.00027"
       y1="65.430992"
       x2="-149.55615"
       y2="65.430992" />
    <linearGradient
       inkscape:collect="always"
       xlink:href="#linearGradient9952"
       id="linearGradient2400"
       gradientUnits="userSpaceOnUse"
       gradientTransform="matrix(0.700557,0.178187,-0.178032,0.701165,364.2407,212.2498)"
       x1="-181.00027"
       y1="65.430992"
       x2="-149.55615"
       y2="65.430992" />
    <linearGradient
       inkscape:collect="always"
       xlink:href="#linearGradient9952"
       id="linearGradient2402"
       gradientUnits="userSpaceOnUse"
       gradientTransform="matrix(0.175051,0.701916,0.701308,-0.175203,211.5968,364.3863)"
       x1="-181.00027"
       y1="65.430992"
       x2="-149.55615"
       y2="65.430992" />
    <linearGradient
       inkscape:collect="always"
       xlink:href="#linearGradient9952"
       id="linearGradient2404"
       gradientUnits="userSpaceOnUse"
       gradientTransform="matrix(-0.518754,0.503795,-0.503358,-0.519204,-30.75042,351.0348)"
       x1="-181.00027"
       y1="65.430992"
       x2="-149.55615"
       y2="65.430992" />
    <linearGradient
       inkscape:collect="always"
       xlink:href="#linearGradient9952"
       id="linearGradient2406"
       gradientUnits="userSpaceOnUse"
       gradientTransform="matrix(-0.178032,0.701165,-0.700557,-0.178187,43.82315,364.4456)"
       x1="-181.00027"
       y1="65.430992"
       x2="-149.55615"
       y2="65.430992" />
    <linearGradient
       inkscape:collect="always"
       xlink:href="#linearGradient9952"
       id="linearGradient2408"
       gradientUnits="userSpaceOnUse"
       gradientTransform="matrix(-0.701308,0.175203,0.175051,0.701916,-108.1815,211.6693)"
       x1="-181.00027"
       y1="65.430992"
       x2="-149.55615"
       y2="65.430992" />
    <linearGradient
       inkscape:collect="always"
       xlink:href="#linearGradient9952"
       id="linearGradient2410"
       gradientUnits="userSpaceOnUse"
       gradientTransform="matrix(0.518754,-0.503795,0.503358,0.519204,286.7504,-95.03481)"
       x1="-181.00027"
       y1="65.430992"
       x2="-149.55615"
       y2="65.430992" />
    <linearGradient
       inkscape:collect="always"
       xlink:href="#linearGradient9952"
       id="linearGradient2412"
       gradientUnits="userSpaceOnUse"
       gradientTransform="matrix(0.178032,-0.701165,0.700557,0.178187,212.1768,-108.4456)"
       x1="-181.00027"
       y1="65.430992"
       x2="-149.55615"
       y2="65.430992" />
    <linearGradient
       inkscape:collect="always"
       xlink:href="#linearGradient9952"
       id="linearGradient2414"
       gradientUnits="userSpaceOnUse"
       gradientTransform="matrix(0.701308,-0.175203,-0.175051,-0.701916,364.1815,44.33066)"
       x1="-181.00027"
       y1="65.430992"
       x2="-149.55615"
       y2="65.430992" />
    <linearGradient
       inkscape:collect="always"
       xlink:href="#linearGradient9952"
       id="linearGradient2416"
       gradientUnits="userSpaceOnUse"
       gradientTransform="matrix(-0.503358,-0.519204,0.518754,-0.503795,-94.84156,-30.88808)"
       x1="-181.00027"
       y1="65.430992"
       x2="-149.55615"
       y2="65.430992" />
    <linearGradient
       inkscape:collect="always"
       xlink:href="#linearGradient9952"
       id="linearGradient2418"
       gradientUnits="userSpaceOnUse"
       gradientTransform="matrix(-0.700557,-0.178187,0.178032,-0.701165,-108.2407,43.75017)"
       x1="-181.00027"
       y1="65.430992"
       x2="-149.55615"
       y2="65.430992" />
    <linearGradient
       inkscape:collect="always"
       xlink:href="#linearGradient9952"
       id="linearGradient2420"
       gradientUnits="userSpaceOnUse"
       gradientTransform="matrix(-0.175051,-0.701916,-0.701308,0.175203,44.40317,-108.3863)"
       x1="-181.00027"
       y1="65.430992"
       x2="-149.55615"
       y2="65.430992" />
    <linearGradient
       inkscape:collect="always"
       xlink:href="#linearGradient9952"
       id="linearGradient2422"
       gradientUnits="userSpaceOnUse"
       gradientTransform="matrix(-0.722825,0,0,-5.491502,-101.3217,480.6296)"
       x1="-181.00027"
       y1="65.430992"
       x2="-149.55615"
       y2="65.430992" />
    <linearGradient
       inkscape:collect="always"
       xlink:href="#linearGradient9952"
       id="linearGradient2424"
       gradientUnits="userSpaceOnUse"
       gradientTransform="matrix(0,-0.723451,5.486744,0,-224.3241,-101.5205)"
       x1="-181.00027"
       y1="65.430992"
       x2="-149.55615"
       y2="65.430992" />
    <linearGradient
       inkscape:collect="always"
       xlink:href="#linearGradient9952"
       id="linearGradient2426"
       gradientUnits="userSpaceOnUse"
       gradientTransform="matrix(0,0.723451,-5.486744,0,480.324,357.5204)"
       x1="-181.00027"
       y1="65.430992"
       x2="-149.55615"
       y2="65.430992" />
    <linearGradient
       inkscape:collect="always"
       xlink:href="#linearGradient9952"
       id="linearGradient2428"
       gradientUnits="userSpaceOnUse"
       gradientTransform="matrix(0.722825,0,0,5.491502,161.2922,-224.6297)"
       x1="-181.00027"
       y1="65.430992"
       x2="-149.55615"
       y2="65.430992" />
    <linearGradient
       inkscape:collect="always"
       xlink:href="#linearGradient9952"
       id="linearGradient2430"
       gradientUnits="userSpaceOnUse"
       gradientTransform="matrix(-0.722825,0,0,-5.491502,97.31552,480.6296)"
       x1="-181.00027"
       y1="65.430992"
       x2="-149.55615"
       y2="65.430992" />
    <linearGradient
       inkscape:collect="always"
       xlink:href="#linearGradient9952"
       id="linearGradient2432"
       gradientUnits="userSpaceOnUse"
       gradientTransform="matrix(0,-0.723451,5.486744,0,-224.3241,95.04349)"
       x1="-181.00027"
       y1="65.430992"
       x2="-149.55615"
       y2="65.430992" />
    <linearGradient
       inkscape:collect="always"
       xlink:href="#linearGradient9952"
       id="linearGradient2434"
       gradientUnits="userSpaceOnUse"
       gradientTransform="matrix(0,0.723451,-5.486744,0,480.324,161.8969)"
       x1="-181.00027"
       y1="65.430992"
       x2="-149.55615"
       y2="65.430992" />
    <linearGradient
       inkscape:collect="always"
       id="linearGradient4128">
      <stop
         style="stop-color:#ff0000;stop-opacity:1;"
         offset="0"
         id="stop4130" />
      <stop
         style="stop-color:#ff0000;stop-opacity:0;"
         offset="1"
         id="stop4132" />
    </linearGradient>
    <linearGradient
       inkscape:collect="always"
       id="linearGradient4865">
      <stop
         style="stop-color:#000000;stop-opacity:1;"
         offset="0"
         id="stop4867" />
      <stop
         style="stop-color:#000000;stop-opacity:0;"
         offset="1"
         id="stop4869" />
    </linearGradient>
    <filter
       inkscape:collect="always"
       id="filter3293">
      <feGaussianBlur
         inkscape:collect="always"
         stdDeviation="1.2036548"
         id="feGaussianBlur3295" />
    </filter>
    <filter
       inkscape:collect="always"
       x="-0.10004336"
       width="1.2000867"
       y="-0.099956678"
       height="1.1999134"
       id="filter3224">
      <feGaussianBlur
         inkscape:collect="always"
         stdDeviation="9.0266808"
         id="feGaussianBlur3226" />
    </filter>
    <linearGradient
       inkscape:collect="always"
       xlink:href="#linearGradient4128"
       id="linearGradient2273"
       gradientUnits="userSpaceOnUse"
       gradientTransform="matrix(0,-0.65,0.65,0,143.56639,-185.52603)"
       x1="-479.04663"
       y1="-98.059479"
       x2="-479.04663"
       y2="-154.56619" />
    <linearGradient
       inkscape:collect="always"
       xlink:href="#linearGradient4865"
       id="linearGradient2275"
       gradientUnits="userSpaceOnUse"
       gradientTransform="matrix(-0.65,0,0,-0.65,143.56646,-185.52603)"
       x1="94.676048"
       y1="-479.04663"
       x2="160.55817"
       y2="-479.04663" />
  </defs>
  <g
     style="opacity:1;display:inline"
     id="layer1">
    <path
       d=""
       style="opacity:1"
       id="path3945" />
  </g>
  <path
     d=""
     id="path3081" />
  <g
     style="display:inline"
     id="layer2" />
  <g
     style="display:inline"
     id="layer3" />
  <g
     style="opacity:1;display:inline"
     id="layer4" />
  <g
     inkscape:groupmode="layer"
     id="layer5"
     inkscape:label="boton_pulsado"
     style="display:none"
     sodipodi:insensitive="true">
    <g
       id="g2458">
      <g
         transform="translate(-3.15982,0.14121)"
         style="display:inline"
         id="g3979">
        <path
           d="M 225.84614,30.083415 L 249.21903,30.14204 L 249.21903,225.91656 L 225.87247,225.87734 L 225.84614,30.083415 z "
           style="opacity:0.5;fill:url(#linearGradient2396);fill-opacity:1;fill-rule:evenodd;stroke:none;stroke-width:8.9802618;stroke-miterlimit:4;stroke-opacity:1;display:block"
           id="rect10002" />
        <path
           d="M 246.09172,236.81817 L 241.6188,242.20167 L 236.82989,246.55734 L 225.79115,225.87576 L 246.09172,236.81817 z "
           style="opacity:0.5;fill:url(#linearGradient2398);fill-opacity:1;fill-rule:evenodd;stroke:none;stroke-width:8.9802618;stroke-miterlimit:4;stroke-opacity:1"
           id="path2053" />
        <path
           d="M 249.21905,225.96681 L 247.81954,231.47868 L 246.42002,236.99055 L 225.79115,225.87576 L 249.21905,225.96681 z "
           style="opacity:0.5;fill:url(#linearGradient2400);fill-opacity:1;fill-rule:evenodd;stroke:none;stroke-width:8.9802618;stroke-miterlimit:4;stroke-opacity:1"
           id="path2060" />
        <path
           d="M 225.79115,249.32415 L 231.30415,247.94688 L 236.81715,246.56961 L 225.79985,225.87576 L 225.79115,249.32415 z "
           style="opacity:0.5;fill:url(#linearGradient2402);fill-opacity:1;fill-rule:evenodd;stroke:none;stroke-width:8.9802618;stroke-miterlimit:4;stroke-opacity:1"
           id="path2062" />
        <path
           d="M 19.276093,246.19414 L 13.897256,241.71734 L 9.5453636,236.92428 L 30.20902,225.87597 L 19.276093,246.19414 z "
           style="opacity:0.5;fill:url(#linearGradient2404);fill-opacity:1;fill-rule:evenodd;stroke:none;stroke-width:8.9802618;stroke-miterlimit:4;stroke-opacity:1"
           id="path3000" />
        <path
           d="M 30.118045,249.32418 L 24.610958,247.92346 L 19.103856,246.52272 L 30.20902,225.87597 L 30.118045,249.32418 z "
           style="opacity:0.5;fill:url(#linearGradient2406);fill-opacity:1;fill-rule:evenodd;stroke:none;stroke-width:8.9802618;stroke-miterlimit:4;stroke-opacity:1"
           id="path3001" />
        <path
           d="M 6.7809483,225.87597 L 8.1570192,231.39375 L 9.5331053,236.91153 L 30.20902,225.88467 L 6.7809483,225.87597 z "
           style="opacity:0.5;fill:url(#linearGradient2408);fill-opacity:1;fill-rule:evenodd;stroke:none;stroke-width:8.9802618;stroke-miterlimit:4;stroke-opacity:1"
           id="path3002" />
        <path
           d="M 236.72389,9.8058696 L 242.10272,14.28267 L 246.45462,19.075728 L 225.79096,30.12404 L 236.72389,9.8058696 z "
           style="opacity:0.5;fill:url(#linearGradient2410);fill-opacity:1;fill-rule:evenodd;stroke:none;stroke-width:8.9802618;stroke-miterlimit:4;stroke-opacity:1"
           id="path3007" />
        <path
           d="M 225.88193,6.6758271 L 231.38902,8.0765559 L 236.89612,9.4772889 L 225.79096,30.12404 L 225.88193,6.6758271 z "
           style="opacity:0.5;fill:url(#linearGradient2412);fill-opacity:1;fill-rule:evenodd;stroke:none;stroke-width:8.9802618;stroke-miterlimit:4;stroke-opacity:1"
           id="path3008" />
        <path
           d="M 249.21903,30.12404 L 247.84296,24.606264 L 246.46687,19.08848 L 225.79096,30.115338 L 249.21903,30.12404 z "
           style="opacity:0.5;fill:url(#linearGradient2414);fill-opacity:1;fill-rule:evenodd;stroke:none;stroke-width:8.9802618;stroke-miterlimit:4;stroke-opacity:1"
           id="path3009" />
        <path
           d="M 9.9082846,19.181822 L 14.381207,13.79832 L 19.170112,9.4426539 L 30.20885,30.12423 L 9.9082846,19.181822 z "
           style="opacity:0.5;fill:url(#linearGradient2416);fill-opacity:1;fill-rule:evenodd;stroke:none;stroke-width:8.9802618;stroke-miterlimit:4;stroke-opacity:1"
           id="path3011" />
        <path
           d="M 6.7809541,30.033176 L 8.1804693,24.521313 L 9.5799886,19.009435 L 30.20885,30.12423 L 6.7809541,30.033176 z "
           style="opacity:0.5;fill:url(#linearGradient2418);fill-opacity:1;fill-rule:evenodd;stroke:none;stroke-width:8.9802618;stroke-miterlimit:4;stroke-opacity:1"
           id="path3012" />
        <path
           d="M 30.20885,6.6758413 L 24.695855,8.0531055 L 19.182853,9.430385 L 30.200156,30.12423 L 30.20885,6.6758413 z "
           style="opacity:0.5;fill:url(#linearGradient2420);fill-opacity:1;fill-rule:evenodd;stroke:none;stroke-width:8.9802618;stroke-miterlimit:4;stroke-opacity:1"
           id="path3013" />
        <path
           d="M 30.153849,225.91656 L 6.780954,225.85793 L 6.780954,30.083413 L 30.127521,30.122631 L 30.153849,225.91656 z "
           style="opacity:0.5;fill:url(#linearGradient2422);fill-opacity:1;fill-rule:evenodd;stroke:none;stroke-width:8.9802618;stroke-miterlimit:4;stroke-opacity:1;display:block"
           id="path3021" />
        <path
           d="M 30.168259,30.06899 L 30.226838,6.675827 L 225.83173,6.675827 L 225.79255,30.04264 L 30.168259,30.06899 z "
           style="opacity:0.5;fill:url(#linearGradient2424);fill-opacity:1;fill-rule:evenodd;stroke:none;stroke-width:8.9802618;stroke-miterlimit:4;stroke-opacity:1;display:block"
           id="path3023" />
        <path
           d="M 225.83173,225.93098 L 225.77315,249.32415 L 30.168259,249.32415 L 30.207443,225.95733 L 225.83173,225.93098 z "
           style="opacity:0.5;fill:url(#linearGradient2426);fill-opacity:1;fill-rule:evenodd;stroke:none;stroke-width:8.9802618;stroke-miterlimit:4;stroke-opacity:1;display:block"
           id="path3054" />
        <path
           d="M 29.816627,30.083414 L 53.189522,30.14204 L 53.189522,225.91656 L 29.842954,225.87734 L 29.816627,30.083414 z "
           style="opacity:0.5;fill:url(#linearGradient2428);fill-opacity:1;fill-rule:evenodd;stroke:none;stroke-width:8.9802618;stroke-miterlimit:4;stroke-opacity:1;display:block"
           id="path1956" />
        <path
           d="M 228.79098,225.91656 L 205.41809,225.85793 L 205.41809,30.083413 L 228.76465,30.122631 L 228.79098,225.91656 z "
           style="opacity:0.5;fill:url(#linearGradient2430);fill-opacity:1;fill-rule:evenodd;stroke:none;stroke-width:8.9802618;stroke-miterlimit:4;stroke-opacity:1;display:block"
           id="path1990" />
        <path
           d="M 30.168258,226.63294 L 30.226837,203.23978 L 225.83173,203.23978 L 225.79255,226.60659 L 30.168258,226.63294 z "
           style="opacity:0.5;fill:url(#linearGradient2432);fill-opacity:1;fill-rule:evenodd;stroke:none;stroke-width:8.9802618;stroke-miterlimit:4;stroke-opacity:1;display:block"
           id="path1992" />
        <path
           d="M 225.83173,30.307532 L 225.77315,53.700695 L 30.168258,53.700695 L 30.207442,30.333882 L 225.83173,30.307532 z "
           style="opacity:0.5;fill:url(#linearGradient2434);fill-opacity:1;fill-rule:evenodd;stroke:none;stroke-width:8.9802618;stroke-miterlimit:4;stroke-opacity:1;display:block"
           id="path1994" />
      </g>
      <path
         d="M 46.00708,221.46053 L 46.00708,217.88241 L 214.76672,217.88241 L 214.76672,49.1021 L 218.34173,49.06054 L 218.34173,219.68332 L 218.34173,221.46053 L 216.56606,221.46053 L 46.00708,221.46053 z "
         style="fill:#000000;fill-opacity:1;fill-rule:evenodd;stroke:none;stroke-width:4.70592737;stroke-miterlimit:4;stroke-opacity:1;display:block"
         id="path2826" />
      <path
         d="M 34.61253,37.83522 L 36.3882,37.83522 L 213.29223,37.83522 L 215.0679,37.83522 L 215.0679,39.61242 L 215.0679,216.66987 L 215.0679,218.44708 L 213.29223,218.44708 L 36.3882,218.44708 L 34.61253,218.44708 L 34.61253,216.66987 L 34.61253,39.61242 L 34.61253,37.83522 z M 38.18754,41.41333 L 38.18754,214.86896 L 211.49289,214.86896 L 211.49289,41.41333 L 38.18754,41.41333 z "
         style="fill:#00007f;fill-opacity:1;fill-rule:evenodd;stroke:none;stroke-width:8.9802618;stroke-miterlimit:4;stroke-opacity:1;display:block"
         id="rect5542" />
    </g>
  </g>
  <g
     inkscape:groupmode="layer"
     id="layer7"
     inkscape:label="boton_visible"
     style="display:none"
     sodipodi:insensitive="true">
    <path
       id="path2483"
       style="fill:#00007f;fill-opacity:1;fill-rule:evenodd;stroke:none;stroke-width:8.9802618;stroke-miterlimit:4;stroke-opacity:1;display:block;filter:url(#filter3224)"
       d="M 34.61253,37.83522 L 36.3882,37.83522 L 213.29223,37.83522 L 215.0679,37.83522 L 215.0679,39.61242 L 215.0679,216.66987 L 215.0679,218.44708 L 213.29223,218.44708 L 36.3882,218.44708 L 34.61253,218.44708 L 34.61253,216.66987 L 34.61253,39.61242 L 34.61253,37.83522 z M 38.18754,41.41333 L 38.18754,214.86896 L 211.49289,214.86896 L 211.49289,41.41333 L 38.18754,41.41333 z " />
  </g>
  <g
     inkscape:groupmode="layer"
     id="layer8"
     inkscape:label="icono"
     style="display:inline">
    <path
       d=""
       id="path4126" />
    <path
       id="path1735"
       d="" />
    <g
       id="g2267"
       transform="translate(-21,-25)">
      <rect
         style="fill:#ffffff;fill-opacity:1;fill-rule:evenodd;stroke-width:4;stroke-linecap:round;stroke-miterlimit:4;stroke-dasharray:none;stroke-opacity:1"
         id="rect4130"
         width="115.74937"
         height="52.572979"
         x="27.332354"
         y="99.567863" />
      <path
         style="fill:url(#linearGradient2273);fill-opacity:1;stroke:url(#linearGradient2275);stroke-width:3.14996028;stroke-linecap:round;stroke-miterlimit:4;stroke-opacity:1"
         d="M 40.778632,105.26283 L 80.452051,105.26283 L 80.452051,146.44574 L 40.778632,146.44574"
         id="rect1425"
         sodipodi:nodetypes="cccc" />
      <rect
         transform="matrix(0,-1,1,0,0,0)"
         y="104.343"
         x="-145.69101"
         height="33.085819"
         width="39.67342"
         id="rect4133"
         style="fill:#ff0000;fill-opacity:1;stroke:#000000;stroke-width:2.82336807;stroke-linecap:round;stroke-miterlimit:4;stroke-dasharray:none;stroke-opacity:1" />
      <path
         transform="matrix(0.6078735,0,0,0.594648,-137.61996,60.19984)"
         d="M 392.02386 131.62985 A 13.373134 13.373134 0 1 1  365.27759,131.62985 A 13.373134 13.373134 0 1 1  392.02386 131.62985 z"
         sodipodi:ry="13.373134"
         sodipodi:rx="13.373134"
         sodipodi:cy="131.62985"
         sodipodi:cx="378.65073"
         id="path1431"
         style="fill:#000000;fill-opacity:0.41975307;stroke:none;stroke-width:4;stroke-miterlimit:4;stroke-dasharray:none;stroke-opacity:1;filter:url(#filter3293)"
         sodipodi:type="arc" />
    </g>
    <g
       style="fill:#0000a1;fill-opacity:1;stroke:#ffffff;stroke-width:2.96974778;stroke-miterlimit:4;stroke-dasharray:none;stroke-opacity:1"
       transform="matrix(0.7543685,0,0,0.7543685,97.574339,17.41996)"
       id="g1923">
      <path
         style="fill:#0000a1;fill-opacity:1;stroke:#ffffff;stroke-width:2.96974778;stroke-miterlimit:4;stroke-dasharray:none;stroke-opacity:1"
         d=""
         id="path1925" />
      <path
         sodipodi:nodetypes="cscccsscccssssssssssssssccscssssssssssssscccssssscccsssssssssssssssssssssssssssssssssssssscccsssssssssssssscccssssscccssssc"
         style="fill:#0000a1;fill-opacity:1;stroke:#ffffff;stroke-width:3.6648252;stroke-miterlimit:4;stroke-dasharray:none;stroke-opacity:1"
         d="M 142.70956,45.059422 C 137.52541,44.984903 128.60583,45.952909 126.70544,47.064757 C 124.44113,48.38951 119.60898,53.143217 117.60429,56.011639 L 115.86891,58.518309 L 115.90747,62.644673 C 115.94902,65.317677 116.18302,67.064796 116.56307,67.658003 C 117.48402,69.095494 118.22627,72.08402 117.91281,73.056984 C 117.70623,73.698214 117.91295,74.16096 118.60696,74.67668 L 119.57107,75.370839 L 118.68409,76.566323 C 117.90135,77.634958 117.81605,78.036081 118.18276,79.882838 C 118.41169,81.035765 118.5842,83.398173 118.52983,85.127563 C 118.46874,87.07099 118.6352,88.766014 118.9926,89.56244 C 119.82347,91.413949 119.29691,92.888799 117.25721,94.344396 C 115.17111,95.83315 114.34439,95.88941 110.46993,94.730042 C 108.07835,94.0144 107.27969,93.931375 106.18931,94.305829 C 104.29773,94.955448 99.455405,94.913397 98.630737,94.228706 C 98.261224,93.921895 97.054641,93.349972 95.969814,92.956089 C 94.113764,92.282182 93.923744,92.286781 92.499042,92.956089 C 91.063673,93.630396 90.810542,93.62907 88.064153,92.878955 C 86.328005,92.40477 83.545491,92.037721 81.122613,91.991985 C 78.89906,91.950015 73.449322,91.717123 69.01347,91.452082 C 61.617089,91.010163 60.843336,91.012897 59.333869,91.683472 C 57.890163,92.324832 57.411168,92.341082 55.477455,91.876295 C 51.964082,91.031822 49.399277,90.895224 48.343087,91.452082 L 46.323401,91.425623 C 46.323401,91.425623 47.500001,86.77786 46.574216,86.109455 L 42.003624,82.80953 C 42.096376,79.891368 38.088804,79.036664 33.927124,76.345105 C 31.878275,75.020017 27.964805,73.111214 26.053011,72.324269 C 24.438487,71.65969 24.40766,71.68508 23.199264,72.825605 C 22.52663,73.460465 22.003776,74.206238 22.003775,74.483857 C 22.003775,74.7615 23.760399,77.109393 25.937318,79.728582 C 31.242511,86.111579 31.61027,86.683865 33.264506,90.835057 C 35.737054,97.039709 38.136843,99.187622 43.329749,99.859066 C 48.144516,100.48163 48.282164,100.56326 49.692832,105.18092 C 50.410866,107.53138 51.512195,108.23692 54.397659,108.15036 C 56.398675,108.09033 57.404921,108.42448 62.611822,110.81128 C 70.472232,114.41444 77.775421,116.48644 84.63195,117.05868 C 87.883556,117.33006 90.092834,117.70773 90.493698,118.06135 C 91.148293,118.63879 98.822364,121.33197 101.56161,121.95633 C 102.38082,122.14304 104.01634,122.75043 105.18665,123.30608 L 107.30767,124.3473 L 107.42336,127.62525 C 107.51558,130.05712 107.31891,131.64828 106.69064,133.56414 C 106.22115,134.99579 105.78468,137.2532 105.68797,138.61604 C 105.59128,139.97886 105.17115,141.85863 104.76243,142.78097 C 104.35373,143.70332 103.8276,145.21372 103.6055,146.13605 C 102.3023,151.54841 101.92383,164.32357 102.79567,172.55249 C 103.08881,175.31951 103.4416,179.08488 103.6055,180.9209 L 103.91403,184.23742 L 106.45925,186.04994 C 107.86361,187.03066 109.40957,187.81595 109.89147,187.82389 C 110.37336,187.8318 111.09624,188.10346 111.51116,188.40235 C 112.35962,189.01356 112.19995,190.69851 110.46993,199.81734 C 109.98871,202.35377 109.53018,205.12257 109.4287,205.9876 C 109.3272,206.85264 108.89287,208.24696 108.46459,209.11131 C 107.83008,210.39189 107.70892,211.60785 107.77044,215.55151 C 107.81196,218.21336 107.96522,220.7477 108.11752,221.22044 C 108.53164,222.50583 109.35222,231.63464 109.39013,235.2578 C 109.42141,238.24665 109.36326,238.54926 107.88612,240.69533 C 107.02383,241.94814 106.08585,243.74005 105.84223,244.66744 C 104.81061,248.59425 101.04691,251.56852 95.198521,253.03587 C 93.677148,253.41758 91.788585,254.15316 91.033601,254.65555 C 88.141065,256.58037 86.507335,261.85391 88.295544,263.44818 C 91.451197,266.26164 96.922255,266.10013 110.31567,262.83116 C 111.55866,262.52777 113.26076,262.57588 116.5245,263.02398 C 120.97436,263.63493 124.53782,263.41722 125.58708,262.44551 C 125.80324,262.24533 126.2258,259.83916 126.51261,257.12367 C 127.06972,251.84917 128.73446,246.08804 130.09907,244.70601 C 130.82022,243.97566 130.97197,243.9701 131.87303,244.55175 C 132.41568,244.90203 133.30464,246.08548 133.8398,247.21267 C 134.37497,248.33986 135.1112,249.83745 135.49806,250.52919 C 135.88493,251.22096 136.90063,253.16863 137.77334,254.84838 C 138.64606,256.52812 140.68423,259.43285 142.28535,261.32715 C 147.15395,267.08729 147.5246,267.70122 147.45295,269.50276 C 147.4035,270.74585 147.76774,271.65806 148.95695,273.39773 C 149.81275,274.64967 150.49952,275.91667 150.49952,276.21291 C 150.49952,276.50917 151.01025,277.50655 151.61788,278.41108 C 152.60142,279.87527 152.66045,280.18737 152.2349,281.45764 C 151.97202,282.24236 151.89704,283.20634 152.04208,283.57867 C 152.20875,284.00658 151.86765,284.62491 151.15511,285.27549 C 150.53509,285.84157 149.53953,287.32545 148.91839,288.55345 C 148.29723,289.78142 146.31397,292.29886 144.52206,294.14524 C 141.27608,297.49 140.03337,299.26259 139.85581,300.85541 C 139.63977,302.79342 139.95646,303.66888 141.32125,305.13603 C 142.51733,306.42181 143.13047,306.73972 145.0234,306.9871 C 149.04699,307.51297 153.88911,307.03426 156.90116,305.83018 C 160.11223,304.54654 165.02509,301.79372 165.84804,300.81684 C 166.16395,300.44186 167.55171,299.58837 168.97174,298.9272 C 173.11416,296.99841 174.82547,295.58391 176.83883,292.33273 L 178.72847,289.32473 L 178.03431,284.38852 C 177.65947,281.67645 176.95779,278.52278 176.49175,277.36984 C 174.25614,271.83915 173.42163,269.0467 172.78959,264.99075 C 171.36947,255.87727 171.0749,254.27648 170.63,253.46007 C 170.3787,252.99891 170.02994,251.75964 169.85872,250.72201 C 169.36414,247.72499 168.26696,245.23244 165.73235,241.46661 C 163.67706,238.41294 163.28472,237.52294 162.80147,234.6022 C 162.28541,231.48301 160.03039,226.25491 158.3666,224.30558 C 156.90301,222.59079 156.26192,220.64223 156.24558,218.01961 C 156.23623,216.52082 155.95201,214.14588 155.62854,212.73633 C 155.07628,210.32976 155.10252,210.03663 155.97562,207.91581 C 157.36565,204.53944 157.74686,201.41322 157.74957,193.14574 C 157.75185,186.265 157.65689,185.37057 156.63121,182.03927 C 155.47559,178.28586 152.9261,173.46654 150.92372,171.27987 C 149.12067,169.31091 148.83039,168.50039 149.26547,166.65217 C 149.99089,163.5705 149.77368,162.0041 148.41705,160.48191 L 147.14443,159.05503 L 148.1471,158.05236 C 149.55125,156.64825 152.1083,148.95749 152.62054,144.51636 C 152.8508,142.51992 153.12204,140.72841 153.23757,140.54425 C 153.35311,140.36006 153.77329,136.73247 154.16311,132.48434 C 155.09447,122.33509 154.82097,115.80879 153.35326,111.77539 C 152.7659,110.16129 152.17716,107.52192 152.04208,105.95221 C 151.90702,104.3825 151.50321,101.87931 151.11654,100.3604 L 150.42238,97.583789 L 155.12722,88.097011 C 159.42194,79.508796 159.95346,78.24736 160.56475,74.638113 C 161.61507,68.436758 160.90701,62.913538 158.32803,57.168563 C 157.03988,54.299051 151.38159,48.07675 149.03408,46.949064 C 148.09784,46.499319 146.83793,45.850275 146.25746,45.522191 C 145.75891,45.240412 144.4376,45.084261 142.70956,45.059422 z "
         id="path1535" />
    </g>
  </g>
  <g
     inkscape:groupmode="layer"
     id="layer9"
     inkscape:label="propiedad_mas"
     style="display:none"
     sodipodi:insensitive="true">
    <g
       id="g2341"
       style="display:inline"
       transform="matrix(0.806338,0,0,0.806338,-151.2272,149.04745)">
      <path
         id="path2343"
         d="" />
      <g
         id="g2345"
         style="display:block">
        <g
           id="g6097"
           style="display:block"
           transform="matrix(0.925862,0,0,0.925862,493.5668,41.86428)">
          <path
             id="path3603"
             style="fill:#ffffff;fill-opacity:1;fill-rule:evenodd;stroke:#006900;stroke-width:8.1005621;stroke-miterlimit:4;stroke-opacity:1"
             d="M -191.51536,25.067211 C -191.51536,61.628081 -221.18795,91.300681 -257.74882,91.300681 C -294.3097,91.300681 -323.98229,61.628081 -323.98229,25.067211 C -323.98229,-11.493665 -294.3097,-41.166259 -257.74882,-41.166259 C -221.18795,-41.166259 -191.51536,-11.493665 -191.51536,25.067211 z " />
          <path
             id="polygon1906"
             style="fill:#326400;stroke:none"
             d="M -302.55576,11.965876 L -270.99594,11.965876 L -270.99594,-19.849048 L -244.50173,-19.849048 L -244.50173,11.965876 L -212.9419,11.965876 L -212.9419,38.423643 L -244.50173,38.423643 L -244.50173,69.98347 L -270.99594,69.98347 L -270.99594,38.423643 L -302.55576,38.423643 L -302.55576,11.965876 z " />
        </g>
      </g>
    </g>
  </g>
  <g
     inkscape:groupmode="layer"
     id="layer10"
     inkscape:label="propiedad_menos"
     sodipodi:insensitive="true"
     style="display:none">
    <g
       id="g2734"
       style="opacity:1;display:inline"
       transform="matrix(0.806338,0,0,0.806338,-150.02292,-5.0916723)">
      <path
         id="path2736"
         d="" />
      <g
         id="g2738"
         style="display:block">
        <g
           id="g6091"
           style="display:block"
           transform="matrix(0.925862,0,0,0.925862,565.8858,84.55078)">
          <path
             id="path4848"
             style="fill:#ffffff;fill-opacity:1;fill-rule:evenodd;stroke:#cd0000;stroke-width:8.1005621;stroke-miterlimit:4;stroke-opacity:1"
             d="M -269.62525,184.01896 C -269.62525,220.57983 -299.29784,250.25243 -335.85871,250.25243 C -372.41959,250.25243 -402.09218,220.57983 -402.09218,184.01896 C -402.09218,147.45809 -372.41959,117.78549 -335.85871,117.78549 C -299.29784,117.78549 -269.62525,147.45809 -269.62525,184.01896 z " />
          <path
             id="polygon2119"
             style="fill:#da251d;stroke:none"
             d="M -381.13765,170.52182 L -290.57977,170.52182 L -290.57977,197.51609 L -381.13765,197.51609 L -381.13765,170.52182 z " />
        </g>
      </g>
    </g>
  </g>
  <g
     inkscape:groupmode="layer"
     id="layer11"
     inkscape:label="propiedad_listado"
     style="display:none"
     sodipodi:insensitive="true">
    <g
       id="g2141"
       style="opacity:1;display:inline"
       transform="matrix(0.806338,0,0,0.806338,1.788317,115.46887)">
      <path
         id="path2143"
         d="" />
      <g
         id="layer6"
         style="display:block">
        <g
           id="g6094"
           style="display:block"
           transform="matrix(0.925862,0,0,0.925862,143.7747,118.5623)">
          <path
             id="path4847"
             style="fill:#ffffff;fill-opacity:1;fill-rule:evenodd;stroke:#0000cd;stroke-width:8.1005621;stroke-miterlimit:4;stroke-opacity:1"
             d="M -151.23716,-57.772351 C -151.23716,-21.211475 -151.23716,-49.333221 -151.23716,-12.772347 C -151.23716,23.788523 -121.56457,53.461123 -85.00369,53.461123 C -48.44282,53.461123 -18.77023,23.788523 -18.77023,-12.772347 C -18.77023,-49.333221 -18.77023,-21.211475 -18.77023,-57.772351 C -18.77023,-94.333227 -48.44282,-124.00582 -85.00369,-124.00582 C -121.56457,-124.00582 -151.23716,-94.333227 -151.23716,-57.772351 z " />
          <path
             id="polyline1684"
             style="fill:#0000cd;fill-opacity:1;stroke:none"
             d="M -129.21657,-89.000316 L -129.21657,-73.024359 L -40.79082,-73.024359 L -40.79082,-89.000316 L -129.21657,-89.000316 z M -129.21657,-58.51678 L -129.21657,-42.526137 L -40.79082,-42.526137 L -40.79082,-58.51678 L -129.21657,-58.51678 z M -129.21657,-28.018558 L -129.21657,-12.027911 L -40.79082,-12.027911 L -40.79082,-28.018558 L -129.21657,-28.018558 z M -129.21657,2.4796691 L -129.21657,18.455619 L -40.79082,18.455619 L -40.79082,2.4796691 L -129.21657,2.4796691 z " />
        </g>
      </g>
    </g>
  </g>
</svg>
