<?xml version="1.0" encoding="UTF-8" standalone="no"?>
<!-- Created with Inkscape (http://www.inkscape.org/) -->
<svg
   xmlns:dc="http://purl.org/dc/elements/1.1/"
   xmlns:cc="http://web.resource.org/cc/"
   xmlns:rdf="http://www.w3.org/1999/02/22-rdf-syntax-ns#"
   xmlns:svg="http://www.w3.org/2000/svg"
   xmlns="http://www.w3.org/2000/svg"
   xmlns:xlink="http://www.w3.org/1999/xlink"
   xmlns:sodipodi="http://sodipodi.sourceforge.net/DTD/sodipodi-0.dtd"
   xmlns:inkscape="http://www.inkscape.org/namespaces/inkscape"
   version="1.0"
   width="256"
   height="256"
   id="svg1"
   sodipodi:version="0.32"
   inkscape:version="0.45.1"
   sodipodi:docname="i_bulmages_mapa_america.svg"
   sodipodi:docbase="/home/elferrer/Desktop/i_bulmages_mapa_mundi/i_bulmages_mapa_america"
   inkscape:output_extension="org.inkscape.output.svg.inkscape"
   inkscape:export-filename="/home/elferrer/Desktop/i_bulmages_mapa_mundi/i_bulmages_mapa_america/i_bulmages_mapa_america_pulsado_L.png"
   inkscape:export-xdpi="96"
   inkscape:export-ydpi="96">
  <metadata
     id="metadata162">
    <rdf:RDF>
      <cc:Work
         rdf:about="">
        <dc:format>image/svg+xml</dc:format>
        <dc:type
           rdf:resource="http://purl.org/dc/dcmitype/StillImage" />
        <cc:license
           rdf:resource="http://creativecommons.org/licenses/GPL/2.0/" />
        <dc:title>ventas presupuesto a pedidos</dc:title>
        <dc:date>actualizacion 11/03/2007</dc:date>
        <dc:creator>
          <cc:Agent>
            <dc:title>Raül Martínez i Peris</dc:title>
          </cc:Agent>
        </dc:creator>
        <dc:rights>
          <cc:Agent>
            <dc:title>GPL</dc:title>
          </cc:Agent>
        </dc:rights>
        <dc:publisher>
          <cc:Agent>
            <dc:title>Raül Martinez i Peris</dc:title>
          </cc:Agent>
        </dc:publisher>
        <dc:identifier>elferrer</dc:identifier>
        <dc:source>propia</dc:source>
        <dc:language>castellano</dc:language>
        <dc:contributor>
          <cc:Agent>
            <dc:title>www.iglues.org</dc:title>
          </cc:Agent>
        </dc:contributor>
        <dc:description>iconos para las aplicaciones de iglues.org</dc:description>
        <dc:subject>
          <rdf:Bag>
            <rdf:li>bulmagés</rdf:li>
          </rdf:Bag>
        </dc:subject>
      </cc:Work>
      <cc:License
         rdf:about="http://creativecommons.org/licenses/GPL/2.0/">
        <cc:permits
           rdf:resource="http://web.resource.org/cc/Reproduction" />
        <cc:permits
           rdf:resource="http://web.resource.org/cc/Distribution" />
        <cc:requires
           rdf:resource="http://web.resource.org/cc/Notice" />
        <cc:permits
           rdf:resource="http://web.resource.org/cc/DerivativeWorks" />
        <cc:requires
           rdf:resource="http://web.resource.org/cc/ShareAlike" />
        <cc:requires
           rdf:resource="http://web.resource.org/cc/SourceCode" />
      </cc:License>
    </rdf:RDF>
  </metadata>
  <sodipodi:namedview
     inkscape:window-height="690"
     inkscape:window-width="1016"
     inkscape:pageshadow="2"
     inkscape:pageopacity="0.0"
     guidetolerance="10.0"
     gridtolerance="10.0"
     objecttolerance="10.0"
     borderopacity="1.0"
     bordercolor="#666666"
     pagecolor="#ffffff"
     id="base"
     inkscape:zoom="1.9375"
     inkscape:cx="128"
     inkscape:cy="128"
     inkscape:window-x="1"
     inkscape:window-y="2"
     inkscape:current-layer="layer8"
     gridempspacing="3" />
  <defs
     id="defs3">
    <linearGradient
       id="linearGradient9952">
      <stop
         style="stop-color:blue;stop-opacity:1"
         offset="0"
         id="stop9953" />
      <stop
         style="stop-color:blue;stop-opacity:0"
         offset="1"
         id="stop9954" />
    </linearGradient>
    <linearGradient
       inkscape:collect="always"
       xlink:href="#linearGradient9952"
       id="linearGradient2396"
       gradientUnits="userSpaceOnUse"
       gradientTransform="matrix(0.722825,0,0,5.491502,357.3217,-224.6297)"
       x1="-181.00027"
       y1="65.430992"
       x2="-149.55615"
       y2="65.430992" />
    <linearGradient
       inkscape:collect="always"
       xlink:href="#linearGradient9952"
       id="linearGradient2398"
       gradientUnits="userSpaceOnUse"
       gradientTransform="matrix(0.503358,0.519204,-0.518754,0.503795,350.8416,286.8881)"
       x1="-181.00027"
       y1="65.430992"
       x2="-149.55615"
       y2="65.430992" />
    <linearGradient
       inkscape:collect="always"
       xlink:href="#linearGradient9952"
       id="linearGradient2400"
       gradientUnits="userSpaceOnUse"
       gradientTransform="matrix(0.700557,0.178187,-0.178032,0.701165,364.2407,212.2498)"
       x1="-181.00027"
       y1="65.430992"
       x2="-149.55615"
       y2="65.430992" />
    <linearGradient
       inkscape:collect="always"
       xlink:href="#linearGradient9952"
       id="linearGradient2402"
       gradientUnits="userSpaceOnUse"
       gradientTransform="matrix(0.175051,0.701916,0.701308,-0.175203,211.5968,364.3863)"
       x1="-181.00027"
       y1="65.430992"
       x2="-149.55615"
       y2="65.430992" />
    <linearGradient
       inkscape:collect="always"
       xlink:href="#linearGradient9952"
       id="linearGradient2404"
       gradientUnits="userSpaceOnUse"
       gradientTransform="matrix(-0.518754,0.503795,-0.503358,-0.519204,-30.75042,351.0348)"
       x1="-181.00027"
       y1="65.430992"
       x2="-149.55615"
       y2="65.430992" />
    <linearGradient
       inkscape:collect="always"
       xlink:href="#linearGradient9952"
       id="linearGradient2406"
       gradientUnits="userSpaceOnUse"
       gradientTransform="matrix(-0.178032,0.701165,-0.700557,-0.178187,43.82315,364.4456)"
       x1="-181.00027"
       y1="65.430992"
       x2="-149.55615"
       y2="65.430992" />
    <linearGradient
       inkscape:collect="always"
       xlink:href="#linearGradient9952"
       id="linearGradient2408"
       gradientUnits="userSpaceOnUse"
       gradientTransform="matrix(-0.701308,0.175203,0.175051,0.701916,-108.1815,211.6693)"
       x1="-181.00027"
       y1="65.430992"
       x2="-149.55615"
       y2="65.430992" />
    <linearGradient
       inkscape:collect="always"
       xlink:href="#linearGradient9952"
       id="linearGradient2410"
       gradientUnits="userSpaceOnUse"
       gradientTransform="matrix(0.518754,-0.503795,0.503358,0.519204,286.7504,-95.03481)"
       x1="-181.00027"
       y1="65.430992"
       x2="-149.55615"
       y2="65.430992" />
    <linearGradient
       inkscape:collect="always"
       xlink:href="#linearGradient9952"
       id="linearGradient2412"
       gradientUnits="userSpaceOnUse"
       gradientTransform="matrix(0.178032,-0.701165,0.700557,0.178187,212.1768,-108.4456)"
       x1="-181.00027"
       y1="65.430992"
       x2="-149.55615"
       y2="65.430992" />
    <linearGradient
       inkscape:collect="always"
       xlink:href="#linearGradient9952"
       id="linearGradient2414"
       gradientUnits="userSpaceOnUse"
       gradientTransform="matrix(0.701308,-0.175203,-0.175051,-0.701916,364.1815,44.33066)"
       x1="-181.00027"
       y1="65.430992"
       x2="-149.55615"
       y2="65.430992" />
    <linearGradient
       inkscape:collect="always"
       xlink:href="#linearGradient9952"
       id="linearGradient2416"
       gradientUnits="userSpaceOnUse"
       gradientTransform="matrix(-0.503358,-0.519204,0.518754,-0.503795,-94.84156,-30.88808)"
       x1="-181.00027"
       y1="65.430992"
       x2="-149.55615"
       y2="65.430992" />
    <linearGradient
       inkscape:collect="always"
       xlink:href="#linearGradient9952"
       id="linearGradient2418"
       gradientUnits="userSpaceOnUse"
       gradientTransform="matrix(-0.700557,-0.178187,0.178032,-0.701165,-108.2407,43.75017)"
       x1="-181.00027"
       y1="65.430992"
       x2="-149.55615"
       y2="65.430992" />
    <linearGradient
       inkscape:collect="always"
       xlink:href="#linearGradient9952"
       id="linearGradient2420"
       gradientUnits="userSpaceOnUse"
       gradientTransform="matrix(-0.175051,-0.701916,-0.701308,0.175203,44.40317,-108.3863)"
       x1="-181.00027"
       y1="65.430992"
       x2="-149.55615"
       y2="65.430992" />
    <linearGradient
       inkscape:collect="always"
       xlink:href="#linearGradient9952"
       id="linearGradient2422"
       gradientUnits="userSpaceOnUse"
       gradientTransform="matrix(-0.722825,0,0,-5.491502,-101.3217,480.6296)"
       x1="-181.00027"
       y1="65.430992"
       x2="-149.55615"
       y2="65.430992" />
    <linearGradient
       inkscape:collect="always"
       xlink:href="#linearGradient9952"
       id="linearGradient2424"
       gradientUnits="userSpaceOnUse"
       gradientTransform="matrix(0,-0.723451,5.486744,0,-224.3241,-101.5205)"
       x1="-181.00027"
       y1="65.430992"
       x2="-149.55615"
       y2="65.430992" />
    <linearGradient
       inkscape:collect="always"
       xlink:href="#linearGradient9952"
       id="linearGradient2426"
       gradientUnits="userSpaceOnUse"
       gradientTransform="matrix(0,0.723451,-5.486744,0,480.324,357.5204)"
       x1="-181.00027"
       y1="65.430992"
       x2="-149.55615"
       y2="65.430992" />
    <linearGradient
       inkscape:collect="always"
       xlink:href="#linearGradient9952"
       id="linearGradient2428"
       gradientUnits="userSpaceOnUse"
       gradientTransform="matrix(0.722825,0,0,5.491502,161.2922,-224.6297)"
       x1="-181.00027"
       y1="65.430992"
       x2="-149.55615"
       y2="65.430992" />
    <linearGradient
       inkscape:collect="always"
       xlink:href="#linearGradient9952"
       id="linearGradient2430"
       gradientUnits="userSpaceOnUse"
       gradientTransform="matrix(-0.722825,0,0,-5.491502,97.31552,480.6296)"
       x1="-181.00027"
       y1="65.430992"
       x2="-149.55615"
       y2="65.430992" />
    <linearGradient
       inkscape:collect="always"
       xlink:href="#linearGradient9952"
       id="linearGradient2432"
       gradientUnits="userSpaceOnUse"
       gradientTransform="matrix(0,-0.723451,5.486744,0,-224.3241,95.04349)"
       x1="-181.00027"
       y1="65.430992"
       x2="-149.55615"
       y2="65.430992" />
    <linearGradient
       inkscape:collect="always"
       xlink:href="#linearGradient9952"
       id="linearGradient2434"
       gradientUnits="userSpaceOnUse"
       gradientTransform="matrix(0,0.723451,-5.486744,0,480.324,161.8969)"
       x1="-181.00027"
       y1="65.430992"
       x2="-149.55615"
       y2="65.430992" />
    <filter
       inkscape:collect="always"
       x="-0.10004336"
       width="1.2000867"
       y="-0.099956678"
       height="1.1999134"
       id="filter3271">
      <feGaussianBlur
         inkscape:collect="always"
         stdDeviation="9.0266808"
         id="feGaussianBlur3273" />
    </filter>
    <filter
       inkscape:collect="always"
       id="filter3230">
      <feGaussianBlur
         inkscape:collect="always"
         stdDeviation="1.205098"
         id="feGaussianBlur3232" />
    </filter>
  </defs>
  <g
     style="opacity:1;display:inline"
     id="layer1">
    <path
       d=""
       style="opacity:1"
       id="path3945" />
  </g>
  <path
     d=""
     id="path3081" />
  <g
     style="display:inline"
     id="layer2" />
  <g
     style="display:inline"
     id="layer3" />
  <g
     style="opacity:1;display:inline"
     id="layer4" />
  <g
     inkscape:groupmode="layer"
     id="layer5"
     inkscape:label="boton_pulsado"
     style="display:none"
     sodipodi:insensitive="true">
    <g
       id="g2458">
      <g
         transform="translate(-3.15982,0.14121)"
         style="display:inline"
         id="g3979">
        <path
           d="M 225.84614,30.083415 L 249.21903,30.14204 L 249.21903,225.91656 L 225.87247,225.87734 L 225.84614,30.083415 z "
           style="opacity:0.5;fill:url(#linearGradient2396);fill-opacity:1;fill-rule:evenodd;stroke:none;stroke-width:8.9802618;stroke-miterlimit:4;stroke-opacity:1;display:block"
           id="rect10002" />
        <path
           d="M 246.09172,236.81817 L 241.6188,242.20167 L 236.82989,246.55734 L 225.79115,225.87576 L 246.09172,236.81817 z "
           style="opacity:0.5;fill:url(#linearGradient2398);fill-opacity:1;fill-rule:evenodd;stroke:none;stroke-width:8.9802618;stroke-miterlimit:4;stroke-opacity:1"
           id="path2053" />
        <path
           d="M 249.21905,225.96681 L 247.81954,231.47868 L 246.42002,236.99055 L 225.79115,225.87576 L 249.21905,225.96681 z "
           style="opacity:0.5;fill:url(#linearGradient2400);fill-opacity:1;fill-rule:evenodd;stroke:none;stroke-width:8.9802618;stroke-miterlimit:4;stroke-opacity:1"
           id="path2060" />
        <path
           d="M 225.79115,249.32415 L 231.30415,247.94688 L 236.81715,246.56961 L 225.79985,225.87576 L 225.79115,249.32415 z "
           style="opacity:0.5;fill:url(#linearGradient2402);fill-opacity:1;fill-rule:evenodd;stroke:none;stroke-width:8.9802618;stroke-miterlimit:4;stroke-opacity:1"
           id="path2062" />
        <path
           d="M 19.276093,246.19414 L 13.897256,241.71734 L 9.5453636,236.92428 L 30.20902,225.87597 L 19.276093,246.19414 z "
           style="opacity:0.5;fill:url(#linearGradient2404);fill-opacity:1;fill-rule:evenodd;stroke:none;stroke-width:8.9802618;stroke-miterlimit:4;stroke-opacity:1"
           id="path3000" />
        <path
           d="M 30.118045,249.32418 L 24.610958,247.92346 L 19.103856,246.52272 L 30.20902,225.87597 L 30.118045,249.32418 z "
           style="opacity:0.5;fill:url(#linearGradient2406);fill-opacity:1;fill-rule:evenodd;stroke:none;stroke-width:8.9802618;stroke-miterlimit:4;stroke-opacity:1"
           id="path3001" />
        <path
           d="M 6.7809483,225.87597 L 8.1570192,231.39375 L 9.5331053,236.91153 L 30.20902,225.88467 L 6.7809483,225.87597 z "
           style="opacity:0.5;fill:url(#linearGradient2408);fill-opacity:1;fill-rule:evenodd;stroke:none;stroke-width:8.9802618;stroke-miterlimit:4;stroke-opacity:1"
           id="path3002" />
        <path
           d="M 236.72389,9.8058696 L 242.10272,14.28267 L 246.45462,19.075728 L 225.79096,30.12404 L 236.72389,9.8058696 z "
           style="opacity:0.5;fill:url(#linearGradient2410);fill-opacity:1;fill-rule:evenodd;stroke:none;stroke-width:8.9802618;stroke-miterlimit:4;stroke-opacity:1"
           id="path3007" />
        <path
           d="M 225.88193,6.6758271 L 231.38902,8.0765559 L 236.89612,9.4772889 L 225.79096,30.12404 L 225.88193,6.6758271 z "
           style="opacity:0.5;fill:url(#linearGradient2412);fill-opacity:1;fill-rule:evenodd;stroke:none;stroke-width:8.9802618;stroke-miterlimit:4;stroke-opacity:1"
           id="path3008" />
        <path
           d="M 249.21903,30.12404 L 247.84296,24.606264 L 246.46687,19.08848 L 225.79096,30.115338 L 249.21903,30.12404 z "
           style="opacity:0.5;fill:url(#linearGradient2414);fill-opacity:1;fill-rule:evenodd;stroke:none;stroke-width:8.9802618;stroke-miterlimit:4;stroke-opacity:1"
           id="path3009" />
        <path
           d="M 9.9082846,19.181822 L 14.381207,13.79832 L 19.170112,9.4426539 L 30.20885,30.12423 L 9.9082846,19.181822 z "
           style="opacity:0.5;fill:url(#linearGradient2416);fill-opacity:1;fill-rule:evenodd;stroke:none;stroke-width:8.9802618;stroke-miterlimit:4;stroke-opacity:1"
           id="path3011" />
        <path
           d="M 6.7809541,30.033176 L 8.1804693,24.521313 L 9.5799886,19.009435 L 30.20885,30.12423 L 6.7809541,30.033176 z "
           style="opacity:0.5;fill:url(#linearGradient2418);fill-opacity:1;fill-rule:evenodd;stroke:none;stroke-width:8.9802618;stroke-miterlimit:4;stroke-opacity:1"
           id="path3012" />
        <path
           d="M 30.20885,6.6758413 L 24.695855,8.0531055 L 19.182853,9.430385 L 30.200156,30.12423 L 30.20885,6.6758413 z "
           style="opacity:0.5;fill:url(#linearGradient2420);fill-opacity:1;fill-rule:evenodd;stroke:none;stroke-width:8.9802618;stroke-miterlimit:4;stroke-opacity:1"
           id="path3013" />
        <path
           d="M 30.153849,225.91656 L 6.780954,225.85793 L 6.780954,30.083413 L 30.127521,30.122631 L 30.153849,225.91656 z "
           style="opacity:0.5;fill:url(#linearGradient2422);fill-opacity:1;fill-rule:evenodd;stroke:none;stroke-width:8.9802618;stroke-miterlimit:4;stroke-opacity:1;display:block"
           id="path3021" />
        <path
           d="M 30.168259,30.06899 L 30.226838,6.675827 L 225.83173,6.675827 L 225.79255,30.04264 L 30.168259,30.06899 z "
           style="opacity:0.5;fill:url(#linearGradient2424);fill-opacity:1;fill-rule:evenodd;stroke:none;stroke-width:8.9802618;stroke-miterlimit:4;stroke-opacity:1;display:block"
           id="path3023" />
        <path
           d="M 225.83173,225.93098 L 225.77315,249.32415 L 30.168259,249.32415 L 30.207443,225.95733 L 225.83173,225.93098 z "
           style="opacity:0.5;fill:url(#linearGradient2426);fill-opacity:1;fill-rule:evenodd;stroke:none;stroke-width:8.9802618;stroke-miterlimit:4;stroke-opacity:1;display:block"
           id="path3054" />
        <path
           d="M 29.816627,30.083414 L 53.189522,30.14204 L 53.189522,225.91656 L 29.842954,225.87734 L 29.816627,30.083414 z "
           style="opacity:0.5;fill:url(#linearGradient2428);fill-opacity:1;fill-rule:evenodd;stroke:none;stroke-width:8.9802618;stroke-miterlimit:4;stroke-opacity:1;display:block"
           id="path1956" />
        <path
           d="M 228.79098,225.91656 L 205.41809,225.85793 L 205.41809,30.083413 L 228.76465,30.122631 L 228.79098,225.91656 z "
           style="opacity:0.5;fill:url(#linearGradient2430);fill-opacity:1;fill-rule:evenodd;stroke:none;stroke-width:8.9802618;stroke-miterlimit:4;stroke-opacity:1;display:block"
           id="path1990" />
        <path
           d="M 30.168258,226.63294 L 30.226837,203.23978 L 225.83173,203.23978 L 225.79255,226.60659 L 30.168258,226.63294 z "
           style="opacity:0.5;fill:url(#linearGradient2432);fill-opacity:1;fill-rule:evenodd;stroke:none;stroke-width:8.9802618;stroke-miterlimit:4;stroke-opacity:1;display:block"
           id="path1992" />
        <path
           d="M 225.83173,30.307532 L 225.77315,53.700695 L 30.168258,53.700695 L 30.207442,30.333882 L 225.83173,30.307532 z "
           style="opacity:0.5;fill:url(#linearGradient2434);fill-opacity:1;fill-rule:evenodd;stroke:none;stroke-width:8.9802618;stroke-miterlimit:4;stroke-opacity:1;display:block"
           id="path1994" />
      </g>
      <path
         d="M 46.00708,221.46053 L 46.00708,217.88241 L 214.76672,217.88241 L 214.76672,49.1021 L 218.34173,49.06054 L 218.34173,219.68332 L 218.34173,221.46053 L 216.56606,221.46053 L 46.00708,221.46053 z "
         style="fill:#000000;fill-opacity:1;fill-rule:evenodd;stroke:none;stroke-width:4.70592737;stroke-miterlimit:4;stroke-opacity:1;display:block"
         id="path2826" />
      <path
         d="M 34.61253,37.83522 L 36.3882,37.83522 L 213.29223,37.83522 L 215.0679,37.83522 L 215.0679,39.61242 L 215.0679,216.66987 L 215.0679,218.44708 L 213.29223,218.44708 L 36.3882,218.44708 L 34.61253,218.44708 L 34.61253,216.66987 L 34.61253,39.61242 L 34.61253,37.83522 z M 38.18754,41.41333 L 38.18754,214.86896 L 211.49289,214.86896 L 211.49289,41.41333 L 38.18754,41.41333 z "
         style="fill:#00007f;fill-opacity:1;fill-rule:evenodd;stroke:none;stroke-width:8.9802618;stroke-miterlimit:4;stroke-opacity:1;display:block"
         id="rect5542" />
    </g>
  </g>
  <g
     inkscape:groupmode="layer"
     id="layer7"
     inkscape:label="boton_visible"
     style="display:none"
     sodipodi:insensitive="true">
    <path
       id="path2483"
       style="fill:#00007f;fill-opacity:1;fill-rule:evenodd;stroke:none;stroke-width:8.9802618;stroke-miterlimit:4;stroke-opacity:1;display:block;filter:url(#filter3271)"
       d="M 34.61253,37.83522 L 36.3882,37.83522 L 213.29223,37.83522 L 215.0679,37.83522 L 215.0679,39.61242 L 215.0679,216.66987 L 215.0679,218.44708 L 213.29223,218.44708 L 36.3882,218.44708 L 34.61253,218.44708 L 34.61253,216.66987 L 34.61253,39.61242 L 34.61253,37.83522 z M 38.18754,41.41333 L 38.18754,214.86896 L 211.49289,214.86896 L 211.49289,41.41333 L 38.18754,41.41333 z " />
  </g>
  <g
     inkscape:groupmode="layer"
     id="layer8"
     inkscape:label="icono"
     style="display:inline">
    <path
       d=""
       id="path9419" />
    <path
       style="fill:#0000ff;fill-rule:evenodd;stroke:#000000;stroke-width:1.07381152;stroke-linecap:butt;stroke-linejoin:miter;stroke-opacity:1;filter:url(#filter3230);stroke-miterlimit:4;stroke-dasharray:none"
       d="M 140.45288,7.5294331 L 138.6664,10.005145 L 137.0902,9.9641643 L 135.01506,8.0070478 L 131.76436,10.461939 L 131.86669,11.948353 L 129.41965,11.993356 L 129.49664,12.978172 L 130.44231,13.761024 L 128.02859,13.684878 L 127.81496,14.871682 L 126.00366,14.788381 L 124.41376,16.814002 L 123.58144,17.392403 L 123.6213,19.225901 L 120.89433,21.532322 L 121.28508,22.70077 L 123.7966,22.297483 L 122.38724,23.384636 L 122.86597,25.412723 L 125.39052,24.295123 L 128.23414,24.679828 L 129.87751,27.044708 L 131.06699,29.940507 L 132.14029,28.665707 L 133.37074,29.985302 L 132.13782,30.734332 L 134.5054,31.773122 L 133.6522,33.815761 L 132.97751,35.509084 L 134.08482,36.806506 L 135.93603,38.723315 L 137.19627,38.464685 L 136.96249,39.763445 L 138.43524,41.727721 L 140.16707,42.894821 L 141.52317,42.167963 L 143.24986,42.721515 L 143.23081,39.423762 L 143.65404,37.072552 L 142.18334,35.097083 L 145.31469,31.892495 L 145.63179,28.782401 L 148.41852,23.446718 L 147.26378,21.770867 L 144.17379,21.341809 L 143.33679,19.24923 L 145.75249,19.314172 L 143.68118,16.629531 L 142.7172,15.242318 L 143.67853,13.947357 L 141.81771,13.496822 L 140.66673,11.093427 L 140.45288,7.5294331 z M 121.91073,14.537127 L 121.07841,15.115528 L 119.67868,14.73642 L 118.35391,15.353325 L 117.29029,15.16187 L 115.71542,16.461977 L 112.72847,16.167064 L 113.55834,17.657285 L 116.56159,18.567767 L 115.371,19.081678 L 116.33119,21.196429 L 114.63182,21.133277 L 115.10338,22.559008 L 113.90563,22.470555 L 112.88182,24.112592 L 118.29569,24.474472 L 117.4235,23.21937 L 119.15264,21.704297 L 118.89401,20.444048 L 121.06745,19.864313 L 123.77154,14.987669 L 121.91073,14.537127 z M 111.81147,17.215697 L 110.18715,18.148575 L 112.49222,19.534448 L 111.02416,20.241154 L 111.7694,22.20162 L 114.30869,20.231302 L 111.81147,17.215697 z M 106.65046,18.852803 L 106.87192,20.961735 L 108.57845,21.627244 L 108.83239,20.216512 L 106.65046,18.852803 z M 72.993164,13.765373 L 72.887254,17.757293 L 71.674492,18.39436 L 71.153405,16.601385 L 69.171462,16.117485 L 68.324111,17.421393 L 70.164121,19.336185 L 69.49859,21.042712 L 66.921214,20.463195 L 65.34502,20.422214 L 64.236569,22.534496 L 65.08862,23.901563 L 64.021168,24.437639 L 65.067318,27.42323 L 66.310571,27.901318 L 64.945503,28.742144 L 58.062287,27.745896 L 62.071872,29.808471 L 67.186116,30.486309 L 68.996084,29.22852 L 71.869716,28.162194 L 72.730705,29.415285 L 70.930554,29.333992 L 69.825966,30.71875 L 71.087525,31.801199 L 73.560552,30.905501 L 74.862033,33.821468 L 76.627215,34.867417 L 76.698217,36.463784 L 76.502931,38.254963 L 78.144972,39.278747 L 78.531927,41.174723 L 77.770582,43.349486 L 78.537951,45.186792 L 77.839075,47.014463 L 79.119043,48.7013 L 78.111602,50.958911 L 79.35436,53.494417 L 79.973955,57.501331 L 78.116513,58.38069 L 76.612607,61.277163 L 74.868449,63.51774 L 73.186315,67.468674 L 72.804763,70.937035 L 73.271173,71.749225 L 73.022392,73.77349 L 73.293554,76.376859 L 74.898424,78.24931 L 76.071583,80.529565 L 75.877653,83.661823 L 76.202106,85.904862 L 76.658699,88.056134 L 75.506605,89.062435 L 76.676384,90.012772 L 77.462549,90.397044 L 77.873001,93.51093 L 78.961508,96.261423 L 80.245275,97.220708 L 79.557401,94.299601 L 79.382053,91.228034 L 78.401711,89.225247 L 78.121572,86.735853 L 77.626476,84.092206 L 77.817938,83.028543 L 79.314667,84.153331 L 79.914555,86.214805 L 79.592344,88.711328 L 81.27803,90.841079 L 81.622623,92.972191 L 81.989424,94.980131 L 83.675148,97.109888 L 84.768771,100.47391 L 83.741178,102.84347 L 84.532528,103.84128 L 86.278914,106.3403 L 88.545477,107.23377 L 91.742902,109.76277 L 95.855512,111.95949 L 98.008792,111.49171 L 100.07674,112.84648 L 101.6816,114.71897 L 104.15929,116.49426 L 107.54305,117.34607 L 109.36086,119.38401 L 109.91463,122.40814 L 111.81259,122.01 L 113.00972,123.45074 L 115.58327,124.75778 L 118.14363,126.07401 L 119.59532,124.75176 L 120.92009,124.13485 L 122.514,126.13249 L 123.16202,127.22009 L 122.69446,129.81762 L 122.60356,133.08402 L 120.86451,135.93817 L 120.11437,138.11495 L 118.05426,140.05591 L 117.0963,142.68074 L 116.75191,145.30048 L 118.35678,147.17295 L 116.95075,149.58995 L 117.18854,152.31449 L 117.18989,153.6556 L 119.81471,154.61351 L 121.0452,155.93307 L 124.10266,159.88176 L 125.74602,162.24667 L 127.57639,165.62777 L 129.4587,167.30738 L 129.99611,169.71594 L 132.68166,171.04314 L 136.348,172.31571 L 138.7377,173.23138 L 142.593,175.50893 L 143.50617,191.37043 L 142.73515,195.01144 L 142.6754,198.04069 L 143.14449,201.53509 L 144.17299,202.56401 L 143.41565,208.76203 L 143.30255,212.15157 L 142.24027,213.30122 L 143.50138,216.44112 L 143.31643,219.45938 L 143.31397,221.52797 L 145.86916,222.2307 L 146.04831,224.57471 L 144.19936,227.39751 L 144.60262,229.90911 L 143.47205,232.14453 L 145.75361,232.3125 L 145.01445,234.36402 L 144.26295,235.19971 L 144.82431,236.7688 L 145.6105,237.15304 L 145.76232,239.00667 L 147.09962,239.73291 L 146.56823,241.33639 L 147.85713,242.90926 L 148.33992,244.33695 L 149.98575,244.6332 L 150.52185,245.70067 L 152.02843,245.48641 L 155.44459,247.44219 L 158.23358,246.84607 L 160.9619,245.88077 L 156.63118,242.90502 L 155.30892,241.45333 L 156.08259,240.49444 L 154.17812,238.93795 L 156.30652,235.91117 L 155.96706,234.39366 L 158.09546,231.36688 L 157.55936,230.29942 L 155.83273,229.74582 L 154.97553,227.76521 L 157.38271,225.88668 L 157.70698,223.37895 L 159.38663,221.49671 L 157.34399,220.64351 L 157.42595,217.49109 L 160.02349,217.95865 L 161.24008,216.59405 L 161.17291,214.27013 L 164.05169,213.81735 L 168.08325,211.00605 L 169.46532,209.42844 L 168.44064,207.67197 L 167.50799,205.01894 L 167.11904,204.86797 L 167.47732,204.93246 L 167.50799,205.01894 L 169.96803,205.99349 L 171.95582,205.73859 L 174.25622,204.45354 L 176.16966,201.27245 L 178.68748,198.07305 L 180.63942,195.3844 L 183.35007,192.46235 L 183.64229,186.79323 L 187.43154,183.33724 L 188.82213,183.70309 L 189.56646,182.26504 L 191.14469,182.29486 L 193.18775,181.09058 L 195.46933,181.25854 L 196.86981,180.28531 L 197.67857,178.48904 L 198.78703,176.37673 L 199.87533,174.37643 L 200.80598,171.26115 L 201.88954,166.58989 L 202.14079,162.49697 L 201.50505,162.62526 L 203.88832,161.58629 L 204.55381,159.87977 L 205.79056,158.40318 L 207.81217,155.9698 L 209.74396,153.3931 L 210.1495,149.08521 L 208.61295,146.12693 L 206.75724,146.28996 L 203.98778,144.08072 L 200.78316,140.94931 L 195.83578,141.39962 L 193.38738,140.10353 L 191.11095,140.54914 L 190.24864,137.95499 L 187.35148,137.80338 L 185.92439,136.93386 L 183.10812,137.03957 L 182.40141,135.57151 L 178.58976,134.39993 L 179.7405,132.0525 L 178.81836,132.48759 L 177.06818,130.71611 L 176.64273,128.32773 L 175.79068,126.96064 L 172.18438,127.40963 L 170.72011,127.3888 L 169.45609,128.37496 L 167.58875,130.5934 L 165.49618,131.43042 L 166.9667,128.65509 L 168.43855,127.22084 L 168.88732,126.07633 L 168.03148,125.43679 L 166.76989,124.35434 L 165.93798,122.87533 L 163.93387,122.51458 L 160.50268,121.28432 L 157.87536,122.395 L 156.28413,123.07952 L 153.48867,121.72097 L 150.37523,120.074 L 147.94654,120.72337 L 148.45573,119.243 L 145.5718,119.0822 L 144.97706,117.6343 L 143.74213,118.39455 L 142.50539,119.87109 L 139.83817,119.14826 L 137.58013,120.19825 L 136.72812,118.83116 L 134.95908,118.51273 L 132.74335,119.32761 L 132.55189,120.39128 L 133.01966,122.54455 L 131.51308,122.75885 L 131.44594,120.43496 L 131.75918,118.05234 L 129.35582,119.20333 L 127.49632,120.09391 L 126.0296,122.14171 L 124.00801,124.5751 L 121.8572,122.97423 L 119.5978,122.68312 L 117.67968,123.19322 L 115.5011,123.15942 L 113.92153,121.78855 L 113.17251,120.5556 L 113.68754,118.3365 L 113.55209,117.09843 L 114.19228,114.89026 L 112.80554,113.79685 L 109.79843,113.61387 L 106.30788,113.35546 L 106.91873,110.66813 L 108.32814,109.58098 L 108.79571,106.98345 L 109.32327,106.10746 L 108.47125,104.74041 L 105.12734,105.72207 L 102.67402,108.56322 L 101.84553,108.41409 L 99.885032,109.15932 L 96.362052,107.79694 L 96.156702,106.17641 L 94.443692,103.55627 L 95.061712,101.4713 L 96.508742,97.478048 L 96.500922,94.182306 L 100.16836,92.045166 L 103.51356,92.404594 L 104.81748,93.251908 L 106.88228,93.981929 L 107.22086,92.100959 L 110.03718,91.99525 L 112.30375,92.88872 L 113.68716,92.652254 L 114.91896,95.312956 L 115.67136,97.875781 L 117.63451,99.812724 L 118.12355,98.444314 L 117.50017,95.164929 L 116.52361,92.434625 L 117.46142,89.921742 L 119.95325,87.572987 L 122.12536,85.652174 L 122.86454,83.600552 L 122.07698,81.875225 L 122.35308,80.341316 L 123.31195,81.114988 L 123.30857,79.785109 L 124.26987,78.490127 L 124.71147,76.743315 L 126.9494,75.805298 L 128.10014,73.457904 L 127.8415,72.197639 L 130.63811,70.146506 L 132.35628,68.756595 L 131.89456,70.615392 L 133.06634,71.554552 L 133.58138,69.335445 L 135.42988,68.570068 L 135.9026,66.586097 L 133.38725,67.716914 L 131.69774,66.314687 L 132.51034,63.79083 L 130.14413,64.093119 L 127.30902,65.651863 L 129.36782,62.369796 L 131.54122,61.790055 L 135.4823,60.187659 L 138.42804,57.307989 L 137.70296,55.235558 L 135.99847,54.558856 L 134.37479,54.139433 L 131.8769,52.476114 L 132.15815,51.555782 L 128.78674,47.296274 L 128.31918,49.893802 L 126.76133,50.457197 L 125.37459,49.363768 L 124.96748,47.579755 L 123.06681,45.295714 L 121.42814,45.601817 L 119.03839,44.686182 L 119.82727,47.752611 L 119.1741,50.675064 L 120.87993,52.692851 L 120.57985,55.066233 L 117.83454,56.76828 L 119.17316,58.835565 L 118.6008,62.015295 L 116.27938,60.013848 L 115.97574,56.306545 L 113.586,55.390904 L 110.75583,52.812406 L 107.83855,52.772772 L 106.78722,49.173612 L 107.95296,46.10069 L 110.53326,42.554165 L 112.53225,42.30136 L 112.02731,40.996774 L 113.36192,39.040793 L 116.58262,38.03694 L 116.32266,35.435602 L 114.55362,35.11717 L 113.38072,37.587742 L 112.59698,35.134862 L 111.41757,35.650785 L 110.4847,34.026427 L 110.52051,31.836666 L 108.98665,31.560567 L 108.54504,33.307401 L 109.6284,35.444324 L 107.86587,37.080534 L 107.60728,35.820291 L 104.39234,36.085407 L 102.21425,33.994168 L 100.7424,35.42841 L 96.730772,33.377022 L 95.745282,30.760671 L 93.081902,29.310299 L 91.723132,27.354984 L 89.823817,26.412037 L 86.384996,26.636846 L 84.782594,22.695762 L 83.167872,22.162371 L 82.314497,19.454218 L 81.008571,18.618082 L 80.177365,15.786766 L 74.993523,14.853662 L 72.993164,13.765373 z M 100.17634,19.629362 L 97.190742,20.675534 L 98.617832,21.545043 L 99.942562,20.92813 L 100.77108,21.077266 L 101.43278,20.098269 L 100.17634,19.629362 z M 101.36961,21.797631 L 99.581812,22.932264 L 101.50131,23.763252 L 100.90406,24.383967 L 101.71758,25.258622 L 104.51175,25.276097 L 105.42357,23.613902 L 103.82384,22.35499 L 103.75553,23.440797 L 102.33363,23.184851 L 101.36961,21.797631 z M 109.8949,23.817685 L 111.28169,24.911113 L 111.35265,26.507473 L 112.90287,27.399146 L 117.60016,27.632039 L 117.44834,25.778387 L 113.3718,26.142704 L 112.73989,25.543484 L 111.85669,24.413549 L 109.8949,23.817685 z M 108.34085,23.653535 L 106.95744,23.890001 L 106.70732,24.573201 L 107.81464,25.870623 L 109.21819,25.5222 L 109.38949,24.570515 L 108.34085,23.653535 z M 96.104492,22.664668 L 95.655722,23.809138 L 93.803392,25.302046 L 94.510102,26.770096 L 96.023852,27.158166 L 97.128482,25.773415 L 99.671152,25.132997 L 98.519502,24.081887 L 97.323732,23.982237 L 97.381092,23.021604 L 96.104492,22.664668 z M 108.51039,27.463854 L 106.67886,27.492506 L 106.5519,28.197871 L 106.00598,28.469497 L 105.79437,29.645101 L 107.28213,30.883858 L 108.15297,30.797875 L 108.51887,29.407296 L 107.94049,28.574967 L 108.51039,27.463854 z M 109.92107,27.717781 L 109.24058,30.149835 L 110.88126,29.832532 L 111.99486,28.333805 L 109.92107,27.717781 z M 114.39958,28.523922 L 112.37666,29.616233 L 112.40148,32.175245 L 112.66014,33.4355 L 115.98318,33.918062 L 118.55719,33.167693 L 120.18043,35.644534 L 121.09875,35.936979 L 122.23538,37.713608 L 124.25586,38.689927 L 121.7443,39.093206 L 121.74565,40.434299 L 120.12711,40.628432 L 118.94773,41.144361 L 119.33848,42.3128 L 121.89233,41.674396 L 122.29428,42.844853 L 124.90413,44.528325 L 127.42081,44.738596 L 124.98741,42.716993 L 127.93201,43.247028 L 127.52292,41.47422 L 126.07367,40.727868 L 125.51231,39.158827 L 127.08849,39.199807 L 128.66608,40.581879 L 128.20345,39.042173 L 128.78048,38.53341 L 128.6027,37.530452 L 126.88182,36.23817 L 125.72259,36.642135 L 124.81186,34.894614 L 122.97321,34.320916 L 123.78541,33.854484 L 122.43579,31.912374 L 121.07253,32.036875 L 119.38685,29.907124 L 118.27707,30.67832 L 117.04795,30.699813 L 117.08895,29.123607 L 115.55504,28.8475 L 114.54624,29.764017 L 115.21444,30.739669 L 114.63562,31.964766 L 113.63311,30.085134 L 114.39958,28.523922 z M 103.68073,27.195573 L 102.60747,28.470386 L 102.32868,27.322093 L 101.25002,27.85615 L 101.07224,26.853192 L 100.0359,27.152123 L 98.689702,26.539921 L 96.942162,27.450618 L 97.708222,27.946838 L 96.668082,28.973306 L 98.152462,28.882169 L 99.351612,30.311714 L 96.518942,29.801827 L 97.135862,31.126569 L 98.737392,31.669148 L 98.456102,32.589472 L 100.97997,33.402104 L 102.57121,32.717573 L 103.79044,34.035148 L 105.4298,32.376759 L 103.78059,30.750611 L 104.20583,28.388203 L 103.68073,27.195573 z M 113.85565,40.343368 L 113.00381,43.727092 L 113.76989,44.223317 L 115.1571,43.259321 L 116.98858,43.230663 L 114.61968,40.850779 L 113.85565,40.343368 z M 138.89965,58.73372 L 137.74508,61.808659 L 136.6841,64.299371 L 139.82015,63.765764 L 140.81933,64.315509 L 141.96965,64.025524 L 143.70013,63.851539 L 141.2634,60.500049 L 139.87999,60.736507 L 138.89965,58.73372 z M 116.54577,102.71456 L 114.43036,102.71525 L 112.03076,104.29458 L 111.89572,105.04471 L 115.61223,103.59841 L 116.16081,104.27511 L 119.64353,104.70548 L 120.73583,105.57252 L 122.05564,106.20309 L 121.54198,107.45148 L 124.34102,107.37737 L 125.68325,107.43402 L 126.31159,106.57617 L 125.23542,105.61956 L 123.46144,104.81476 L 121.38948,104.06037 L 118.49391,103.06523 L 116.54577,102.71456 z M 130.03793,106.68054 L 128.23666,107.11921 L 128.91402,108.68599 L 126.99389,109.20731 L 128.74674,109.6153 L 131.35054,109.02056 L 132.85577,108.62108 L 134.56256,108.25789 L 133.29602,107.26701 L 130.03793,106.68054 z "
       id="path2284"
       transform="matrix(0.9262231,-9.6746689e-2,9.6746689e-2,0.9262231,-6.133717,19.290333)" />
  </g>
  <g
     inkscape:groupmode="layer"
     id="layer9"
     inkscape:label="propiedad_mas"
     sodipodi:insensitive="true"
     style="display:none">
    <g
       id="g2341"
       style="display:inline"
       transform="matrix(0.806338,0,0,0.806338,-5.091682,2.3862628)">
      <path
         id="path2343"
         d="" />
      <g
         id="g2345"
         style="display:block">
        <g
           id="g6097"
           style="display:block"
           transform="matrix(0.925862,0,0,0.925862,493.5668,41.86428)">
          <path
             id="path3603"
             style="fill:#ffffff;fill-opacity:1;fill-rule:evenodd;stroke:#006900;stroke-width:8.1005621;stroke-miterlimit:4;stroke-opacity:1"
             d="M -191.51536,25.067211 C -191.51536,61.628081 -221.18795,91.300681 -257.74882,91.300681 C -294.3097,91.300681 -323.98229,61.628081 -323.98229,25.067211 C -323.98229,-11.493665 -294.3097,-41.166259 -257.74882,-41.166259 C -221.18795,-41.166259 -191.51536,-11.493665 -191.51536,25.067211 z " />
          <path
             id="polygon1906"
             style="fill:#326400;stroke:none"
             d="M -302.55576,11.965876 L -270.99594,11.965876 L -270.99594,-19.849048 L -244.50173,-19.849048 L -244.50173,11.965876 L -212.9419,11.965876 L -212.9419,38.423643 L -244.50173,38.423643 L -244.50173,69.98347 L -270.99594,69.98347 L -270.99594,38.423643 L -302.55576,38.423643 L -302.55576,11.965876 z " />
        </g>
      </g>
    </g>
  </g>
  <g
     inkscape:groupmode="layer"
     id="layer10"
     inkscape:label="propiedad_menos"
     sodipodi:insensitive="true"
     style="display:none">
    <g
       id="g2734"
       style="opacity:1;display:inline"
       transform="matrix(0.806338,0,0,0.806338,-150.02292,-5.0916723)">
      <path
         id="path2736"
         d="" />
      <g
         id="g2738"
         style="display:block">
        <g
           id="g6091"
           style="display:block"
           transform="matrix(0.925862,0,0,0.925862,565.8858,84.55078)">
          <path
             id="path4848"
             style="fill:#ffffff;fill-opacity:1;fill-rule:evenodd;stroke:#cd0000;stroke-width:8.1005621;stroke-miterlimit:4;stroke-opacity:1"
             d="M -269.62525,184.01896 C -269.62525,220.57983 -299.29784,250.25243 -335.85871,250.25243 C -372.41959,250.25243 -402.09218,220.57983 -402.09218,184.01896 C -402.09218,147.45809 -372.41959,117.78549 -335.85871,117.78549 C -299.29784,117.78549 -269.62525,147.45809 -269.62525,184.01896 z " />
          <path
             id="polygon2119"
             style="fill:#da251d;stroke:none"
             d="M -381.13765,170.52182 L -290.57977,170.52182 L -290.57977,197.51609 L -381.13765,197.51609 L -381.13765,170.52182 z " />
        </g>
      </g>
    </g>
  </g>
  <g
     inkscape:groupmode="layer"
     id="layer11"
     inkscape:label="propiedad_listado"
     sodipodi:insensitive="true"
     style="display:none">
    <g
       id="g2141"
       style="opacity:1;display:inline"
       transform="matrix(0.806338,0,0,0.806338,150.02651,114.9432)">
      <path
         id="path2143"
         d="" />
      <g
         id="layer6"
         style="display:block">
        <g
           id="g6094"
           style="display:block"
           transform="matrix(0.925862,0,0,0.925862,143.7747,118.5623)">
          <path
             id="path4847"
             style="fill:#ffffff;fill-opacity:1;fill-rule:evenodd;stroke:#0000cd;stroke-width:8.1005621;stroke-miterlimit:4;stroke-opacity:1"
             d="M -151.23716,-57.772351 C -151.23716,-21.211475 -151.23716,-49.333221 -151.23716,-12.772347 C -151.23716,23.788523 -121.56457,53.461123 -85.00369,53.461123 C -48.44282,53.461123 -18.77023,23.788523 -18.77023,-12.772347 C -18.77023,-49.333221 -18.77023,-21.211475 -18.77023,-57.772351 C -18.77023,-94.333227 -48.44282,-124.00582 -85.00369,-124.00582 C -121.56457,-124.00582 -151.23716,-94.333227 -151.23716,-57.772351 z " />
          <path
             id="polyline1684"
             style="fill:#0000cd;fill-opacity:1;stroke:none"
             d="M -129.21657,-89.000316 L -129.21657,-73.024359 L -40.79082,-73.024359 L -40.79082,-89.000316 L -129.21657,-89.000316 z M -129.21657,-58.51678 L -129.21657,-42.526137 L -40.79082,-42.526137 L -40.79082,-58.51678 L -129.21657,-58.51678 z M -129.21657,-28.018558 L -129.21657,-12.027911 L -40.79082,-12.027911 L -40.79082,-28.018558 L -129.21657,-28.018558 z M -129.21657,2.4796691 L -129.21657,18.455619 L -40.79082,18.455619 L -40.79082,2.4796691 L -129.21657,2.4796691 z " />
        </g>
      </g>
    </g>
  </g>
</svg>
