<?xml version="1.0" encoding="UTF-8" standalone="no"?>
<!-- Created with Inkscape (http://www.inkscape.org/) -->
<svg
   xmlns:dc="http://purl.org/dc/elements/1.1/"
   xmlns:cc="http://web.resource.org/cc/"
   xmlns:rdf="http://www.w3.org/1999/02/22-rdf-syntax-ns#"
   xmlns:svg="http://www.w3.org/2000/svg"
   xmlns="http://www.w3.org/2000/svg"
   xmlns:xlink="http://www.w3.org/1999/xlink"
   xmlns:sodipodi="http://sodipodi.sourceforge.net/DTD/sodipodi-0.dtd"
   xmlns:inkscape="http://www.inkscape.org/namespaces/inkscape"
   version="1.0"
   width="256"
   height="256"
   id="svg1"
   sodipodi:version="0.32"
   inkscape:version="0.45.1"
   sodipodi:docname="i_bulmages_mapa_mundi.svg"
   sodipodi:docbase="/home/elferrer/Desktop/i_bulmages_mapa_mundi/i_bulmages_mapa_mundi"
   inkscape:output_extension="org.inkscape.output.svg.inkscape"
   inkscape:export-filename="/home/elferrer/Desktop/i_bulmages_mapa_mundi/i_bulmages_mapa_mundi/i_bulmages_mapa_mundi_pulsado_L.png"
   inkscape:export-xdpi="96"
   inkscape:export-ydpi="96">
  <metadata
     id="metadata162">
    <rdf:RDF>
      <cc:Work
         rdf:about="">
        <dc:format>image/svg+xml</dc:format>
        <dc:type
           rdf:resource="http://purl.org/dc/dcmitype/StillImage" />
        <cc:license
           rdf:resource="http://creativecommons.org/licenses/GPL/2.0/" />
        <dc:title>ventas presupuesto a pedidos</dc:title>
        <dc:date>actualizacion 11/03/2007</dc:date>
        <dc:creator>
          <cc:Agent>
            <dc:title>Raül Martínez i Peris</dc:title>
          </cc:Agent>
        </dc:creator>
        <dc:rights>
          <cc:Agent>
            <dc:title>GPL</dc:title>
          </cc:Agent>
        </dc:rights>
        <dc:publisher>
          <cc:Agent>
            <dc:title>Raül Martinez i Peris</dc:title>
          </cc:Agent>
        </dc:publisher>
        <dc:identifier>elferrer</dc:identifier>
        <dc:source>propia</dc:source>
        <dc:language>castellano</dc:language>
        <dc:contributor>
          <cc:Agent>
            <dc:title>www.iglues.org</dc:title>
          </cc:Agent>
        </dc:contributor>
        <dc:description>iconos para las aplicaciones de iglues.org</dc:description>
        <dc:subject>
          <rdf:Bag>
            <rdf:li>bulmagés</rdf:li>
          </rdf:Bag>
        </dc:subject>
      </cc:Work>
      <cc:License
         rdf:about="http://creativecommons.org/licenses/GPL/2.0/">
        <cc:permits
           rdf:resource="http://web.resource.org/cc/Reproduction" />
        <cc:permits
           rdf:resource="http://web.resource.org/cc/Distribution" />
        <cc:requires
           rdf:resource="http://web.resource.org/cc/Notice" />
        <cc:permits
           rdf:resource="http://web.resource.org/cc/DerivativeWorks" />
        <cc:requires
           rdf:resource="http://web.resource.org/cc/ShareAlike" />
        <cc:requires
           rdf:resource="http://web.resource.org/cc/SourceCode" />
      </cc:License>
    </rdf:RDF>
  </metadata>
  <sodipodi:namedview
     inkscape:window-height="690"
     inkscape:window-width="1016"
     inkscape:pageshadow="2"
     inkscape:pageopacity="0.0"
     guidetolerance="10.0"
     gridtolerance="10.0"
     objecttolerance="10.0"
     borderopacity="1.0"
     bordercolor="#666666"
     pagecolor="#ffffff"
     id="base"
     inkscape:zoom="1.364592"
     inkscape:cx="155.68444"
     inkscape:cy="121.44927"
     inkscape:window-x="1"
     inkscape:window-y="0"
     inkscape:current-layer="layer8"
     gridempspacing="3" />
  <defs
     id="defs3">
    <linearGradient
       id="linearGradient9952">
      <stop
         style="stop-color:blue;stop-opacity:1"
         offset="0"
         id="stop9953" />
      <stop
         style="stop-color:blue;stop-opacity:0"
         offset="1"
         id="stop9954" />
    </linearGradient>
    <linearGradient
       inkscape:collect="always"
       xlink:href="#linearGradient9952"
       id="linearGradient2396"
       gradientUnits="userSpaceOnUse"
       gradientTransform="matrix(0.722825,0,0,5.491502,357.3217,-224.6297)"
       x1="-181.00027"
       y1="65.430992"
       x2="-149.55615"
       y2="65.430992" />
    <linearGradient
       inkscape:collect="always"
       xlink:href="#linearGradient9952"
       id="linearGradient2398"
       gradientUnits="userSpaceOnUse"
       gradientTransform="matrix(0.503358,0.519204,-0.518754,0.503795,350.8416,286.8881)"
       x1="-181.00027"
       y1="65.430992"
       x2="-149.55615"
       y2="65.430992" />
    <linearGradient
       inkscape:collect="always"
       xlink:href="#linearGradient9952"
       id="linearGradient2400"
       gradientUnits="userSpaceOnUse"
       gradientTransform="matrix(0.700557,0.178187,-0.178032,0.701165,364.2407,212.2498)"
       x1="-181.00027"
       y1="65.430992"
       x2="-149.55615"
       y2="65.430992" />
    <linearGradient
       inkscape:collect="always"
       xlink:href="#linearGradient9952"
       id="linearGradient2402"
       gradientUnits="userSpaceOnUse"
       gradientTransform="matrix(0.175051,0.701916,0.701308,-0.175203,211.5968,364.3863)"
       x1="-181.00027"
       y1="65.430992"
       x2="-149.55615"
       y2="65.430992" />
    <linearGradient
       inkscape:collect="always"
       xlink:href="#linearGradient9952"
       id="linearGradient2404"
       gradientUnits="userSpaceOnUse"
       gradientTransform="matrix(-0.518754,0.503795,-0.503358,-0.519204,-30.75042,351.0348)"
       x1="-181.00027"
       y1="65.430992"
       x2="-149.55615"
       y2="65.430992" />
    <linearGradient
       inkscape:collect="always"
       xlink:href="#linearGradient9952"
       id="linearGradient2406"
       gradientUnits="userSpaceOnUse"
       gradientTransform="matrix(-0.178032,0.701165,-0.700557,-0.178187,43.82315,364.4456)"
       x1="-181.00027"
       y1="65.430992"
       x2="-149.55615"
       y2="65.430992" />
    <linearGradient
       inkscape:collect="always"
       xlink:href="#linearGradient9952"
       id="linearGradient2408"
       gradientUnits="userSpaceOnUse"
       gradientTransform="matrix(-0.701308,0.175203,0.175051,0.701916,-108.1815,211.6693)"
       x1="-181.00027"
       y1="65.430992"
       x2="-149.55615"
       y2="65.430992" />
    <linearGradient
       inkscape:collect="always"
       xlink:href="#linearGradient9952"
       id="linearGradient2410"
       gradientUnits="userSpaceOnUse"
       gradientTransform="matrix(0.518754,-0.503795,0.503358,0.519204,286.7504,-95.03481)"
       x1="-181.00027"
       y1="65.430992"
       x2="-149.55615"
       y2="65.430992" />
    <linearGradient
       inkscape:collect="always"
       xlink:href="#linearGradient9952"
       id="linearGradient2412"
       gradientUnits="userSpaceOnUse"
       gradientTransform="matrix(0.178032,-0.701165,0.700557,0.178187,212.1768,-108.4456)"
       x1="-181.00027"
       y1="65.430992"
       x2="-149.55615"
       y2="65.430992" />
    <linearGradient
       inkscape:collect="always"
       xlink:href="#linearGradient9952"
       id="linearGradient2414"
       gradientUnits="userSpaceOnUse"
       gradientTransform="matrix(0.701308,-0.175203,-0.175051,-0.701916,364.1815,44.33066)"
       x1="-181.00027"
       y1="65.430992"
       x2="-149.55615"
       y2="65.430992" />
    <linearGradient
       inkscape:collect="always"
       xlink:href="#linearGradient9952"
       id="linearGradient2416"
       gradientUnits="userSpaceOnUse"
       gradientTransform="matrix(-0.503358,-0.519204,0.518754,-0.503795,-94.84156,-30.88808)"
       x1="-181.00027"
       y1="65.430992"
       x2="-149.55615"
       y2="65.430992" />
    <linearGradient
       inkscape:collect="always"
       xlink:href="#linearGradient9952"
       id="linearGradient2418"
       gradientUnits="userSpaceOnUse"
       gradientTransform="matrix(-0.700557,-0.178187,0.178032,-0.701165,-108.2407,43.75017)"
       x1="-181.00027"
       y1="65.430992"
       x2="-149.55615"
       y2="65.430992" />
    <linearGradient
       inkscape:collect="always"
       xlink:href="#linearGradient9952"
       id="linearGradient2420"
       gradientUnits="userSpaceOnUse"
       gradientTransform="matrix(-0.175051,-0.701916,-0.701308,0.175203,44.40317,-108.3863)"
       x1="-181.00027"
       y1="65.430992"
       x2="-149.55615"
       y2="65.430992" />
    <linearGradient
       inkscape:collect="always"
       xlink:href="#linearGradient9952"
       id="linearGradient2422"
       gradientUnits="userSpaceOnUse"
       gradientTransform="matrix(-0.722825,0,0,-5.491502,-101.3217,480.6296)"
       x1="-181.00027"
       y1="65.430992"
       x2="-149.55615"
       y2="65.430992" />
    <linearGradient
       inkscape:collect="always"
       xlink:href="#linearGradient9952"
       id="linearGradient2424"
       gradientUnits="userSpaceOnUse"
       gradientTransform="matrix(0,-0.723451,5.486744,0,-224.3241,-101.5205)"
       x1="-181.00027"
       y1="65.430992"
       x2="-149.55615"
       y2="65.430992" />
    <linearGradient
       inkscape:collect="always"
       xlink:href="#linearGradient9952"
       id="linearGradient2426"
       gradientUnits="userSpaceOnUse"
       gradientTransform="matrix(0,0.723451,-5.486744,0,480.324,357.5204)"
       x1="-181.00027"
       y1="65.430992"
       x2="-149.55615"
       y2="65.430992" />
    <linearGradient
       inkscape:collect="always"
       xlink:href="#linearGradient9952"
       id="linearGradient2428"
       gradientUnits="userSpaceOnUse"
       gradientTransform="matrix(0.722825,0,0,5.491502,161.2922,-224.6297)"
       x1="-181.00027"
       y1="65.430992"
       x2="-149.55615"
       y2="65.430992" />
    <linearGradient
       inkscape:collect="always"
       xlink:href="#linearGradient9952"
       id="linearGradient2430"
       gradientUnits="userSpaceOnUse"
       gradientTransform="matrix(-0.722825,0,0,-5.491502,97.31552,480.6296)"
       x1="-181.00027"
       y1="65.430992"
       x2="-149.55615"
       y2="65.430992" />
    <linearGradient
       inkscape:collect="always"
       xlink:href="#linearGradient9952"
       id="linearGradient2432"
       gradientUnits="userSpaceOnUse"
       gradientTransform="matrix(0,-0.723451,5.486744,0,-224.3241,95.04349)"
       x1="-181.00027"
       y1="65.430992"
       x2="-149.55615"
       y2="65.430992" />
    <linearGradient
       inkscape:collect="always"
       xlink:href="#linearGradient9952"
       id="linearGradient2434"
       gradientUnits="userSpaceOnUse"
       gradientTransform="matrix(0,0.723451,-5.486744,0,480.324,161.8969)"
       x1="-181.00027"
       y1="65.430992"
       x2="-149.55615"
       y2="65.430992" />
    <filter
       inkscape:collect="always"
       x="-0.10004336"
       width="1.2000867"
       y="-0.099956678"
       height="1.1999134"
       id="filter3271">
      <feGaussianBlur
         inkscape:collect="always"
         stdDeviation="9.0266808"
         id="feGaussianBlur3273" />
    </filter>
    <filter
       inkscape:collect="always"
       id="filter3214">
      <feGaussianBlur
         inkscape:collect="always"
         stdDeviation="1.159719"
         id="feGaussianBlur3216" />
    </filter>
  </defs>
  <g
     style="opacity:1;display:inline"
     id="layer1">
    <path
       d=""
       style="opacity:1"
       id="path3945" />
  </g>
  <path
     d=""
     id="path3081" />
  <g
     style="display:inline"
     id="layer2" />
  <g
     style="display:inline"
     id="layer3" />
  <g
     style="opacity:1;display:inline"
     id="layer4" />
  <g
     inkscape:groupmode="layer"
     id="layer5"
     inkscape:label="boton_pulsado"
     style="display:inline"
     sodipodi:insensitive="true">
    <g
       id="g2458">
      <g
         transform="translate(-3.15982,0.14121)"
         style="display:inline"
         id="g3979">
        <path
           d="M 225.84614,30.083415 L 249.21903,30.14204 L 249.21903,225.91656 L 225.87247,225.87734 L 225.84614,30.083415 z "
           style="opacity:0.5;fill:url(#linearGradient2396);fill-opacity:1;fill-rule:evenodd;stroke:none;stroke-width:8.9802618;stroke-miterlimit:4;stroke-opacity:1;display:block"
           id="rect10002" />
        <path
           d="M 246.09172,236.81817 L 241.6188,242.20167 L 236.82989,246.55734 L 225.79115,225.87576 L 246.09172,236.81817 z "
           style="opacity:0.5;fill:url(#linearGradient2398);fill-opacity:1;fill-rule:evenodd;stroke:none;stroke-width:8.9802618;stroke-miterlimit:4;stroke-opacity:1"
           id="path2053" />
        <path
           d="M 249.21905,225.96681 L 247.81954,231.47868 L 246.42002,236.99055 L 225.79115,225.87576 L 249.21905,225.96681 z "
           style="opacity:0.5;fill:url(#linearGradient2400);fill-opacity:1;fill-rule:evenodd;stroke:none;stroke-width:8.9802618;stroke-miterlimit:4;stroke-opacity:1"
           id="path2060" />
        <path
           d="M 225.79115,249.32415 L 231.30415,247.94688 L 236.81715,246.56961 L 225.79985,225.87576 L 225.79115,249.32415 z "
           style="opacity:0.5;fill:url(#linearGradient2402);fill-opacity:1;fill-rule:evenodd;stroke:none;stroke-width:8.9802618;stroke-miterlimit:4;stroke-opacity:1"
           id="path2062" />
        <path
           d="M 19.276093,246.19414 L 13.897256,241.71734 L 9.5453636,236.92428 L 30.20902,225.87597 L 19.276093,246.19414 z "
           style="opacity:0.5;fill:url(#linearGradient2404);fill-opacity:1;fill-rule:evenodd;stroke:none;stroke-width:8.9802618;stroke-miterlimit:4;stroke-opacity:1"
           id="path3000" />
        <path
           d="M 30.118045,249.32418 L 24.610958,247.92346 L 19.103856,246.52272 L 30.20902,225.87597 L 30.118045,249.32418 z "
           style="opacity:0.5;fill:url(#linearGradient2406);fill-opacity:1;fill-rule:evenodd;stroke:none;stroke-width:8.9802618;stroke-miterlimit:4;stroke-opacity:1"
           id="path3001" />
        <path
           d="M 6.7809483,225.87597 L 8.1570192,231.39375 L 9.5331053,236.91153 L 30.20902,225.88467 L 6.7809483,225.87597 z "
           style="opacity:0.5;fill:url(#linearGradient2408);fill-opacity:1;fill-rule:evenodd;stroke:none;stroke-width:8.9802618;stroke-miterlimit:4;stroke-opacity:1"
           id="path3002" />
        <path
           d="M 236.72389,9.8058696 L 242.10272,14.28267 L 246.45462,19.075728 L 225.79096,30.12404 L 236.72389,9.8058696 z "
           style="opacity:0.5;fill:url(#linearGradient2410);fill-opacity:1;fill-rule:evenodd;stroke:none;stroke-width:8.9802618;stroke-miterlimit:4;stroke-opacity:1"
           id="path3007" />
        <path
           d="M 225.88193,6.6758271 L 231.38902,8.0765559 L 236.89612,9.4772889 L 225.79096,30.12404 L 225.88193,6.6758271 z "
           style="opacity:0.5;fill:url(#linearGradient2412);fill-opacity:1;fill-rule:evenodd;stroke:none;stroke-width:8.9802618;stroke-miterlimit:4;stroke-opacity:1"
           id="path3008" />
        <path
           d="M 249.21903,30.12404 L 247.84296,24.606264 L 246.46687,19.08848 L 225.79096,30.115338 L 249.21903,30.12404 z "
           style="opacity:0.5;fill:url(#linearGradient2414);fill-opacity:1;fill-rule:evenodd;stroke:none;stroke-width:8.9802618;stroke-miterlimit:4;stroke-opacity:1"
           id="path3009" />
        <path
           d="M 9.9082846,19.181822 L 14.381207,13.79832 L 19.170112,9.4426539 L 30.20885,30.12423 L 9.9082846,19.181822 z "
           style="opacity:0.5;fill:url(#linearGradient2416);fill-opacity:1;fill-rule:evenodd;stroke:none;stroke-width:8.9802618;stroke-miterlimit:4;stroke-opacity:1"
           id="path3011" />
        <path
           d="M 6.7809541,30.033176 L 8.1804693,24.521313 L 9.5799886,19.009435 L 30.20885,30.12423 L 6.7809541,30.033176 z "
           style="opacity:0.5;fill:url(#linearGradient2418);fill-opacity:1;fill-rule:evenodd;stroke:none;stroke-width:8.9802618;stroke-miterlimit:4;stroke-opacity:1"
           id="path3012" />
        <path
           d="M 30.20885,6.6758413 L 24.695855,8.0531055 L 19.182853,9.430385 L 30.200156,30.12423 L 30.20885,6.6758413 z "
           style="opacity:0.5;fill:url(#linearGradient2420);fill-opacity:1;fill-rule:evenodd;stroke:none;stroke-width:8.9802618;stroke-miterlimit:4;stroke-opacity:1"
           id="path3013" />
        <path
           d="M 30.153849,225.91656 L 6.780954,225.85793 L 6.780954,30.083413 L 30.127521,30.122631 L 30.153849,225.91656 z "
           style="opacity:0.5;fill:url(#linearGradient2422);fill-opacity:1;fill-rule:evenodd;stroke:none;stroke-width:8.9802618;stroke-miterlimit:4;stroke-opacity:1;display:block"
           id="path3021" />
        <path
           d="M 30.168259,30.06899 L 30.226838,6.675827 L 225.83173,6.675827 L 225.79255,30.04264 L 30.168259,30.06899 z "
           style="opacity:0.5;fill:url(#linearGradient2424);fill-opacity:1;fill-rule:evenodd;stroke:none;stroke-width:8.9802618;stroke-miterlimit:4;stroke-opacity:1;display:block"
           id="path3023" />
        <path
           d="M 225.83173,225.93098 L 225.77315,249.32415 L 30.168259,249.32415 L 30.207443,225.95733 L 225.83173,225.93098 z "
           style="opacity:0.5;fill:url(#linearGradient2426);fill-opacity:1;fill-rule:evenodd;stroke:none;stroke-width:8.9802618;stroke-miterlimit:4;stroke-opacity:1;display:block"
           id="path3054" />
        <path
           d="M 29.816627,30.083414 L 53.189522,30.14204 L 53.189522,225.91656 L 29.842954,225.87734 L 29.816627,30.083414 z "
           style="opacity:0.5;fill:url(#linearGradient2428);fill-opacity:1;fill-rule:evenodd;stroke:none;stroke-width:8.9802618;stroke-miterlimit:4;stroke-opacity:1;display:block"
           id="path1956" />
        <path
           d="M 228.79098,225.91656 L 205.41809,225.85793 L 205.41809,30.083413 L 228.76465,30.122631 L 228.79098,225.91656 z "
           style="opacity:0.5;fill:url(#linearGradient2430);fill-opacity:1;fill-rule:evenodd;stroke:none;stroke-width:8.9802618;stroke-miterlimit:4;stroke-opacity:1;display:block"
           id="path1990" />
        <path
           d="M 30.168258,226.63294 L 30.226837,203.23978 L 225.83173,203.23978 L 225.79255,226.60659 L 30.168258,226.63294 z "
           style="opacity:0.5;fill:url(#linearGradient2432);fill-opacity:1;fill-rule:evenodd;stroke:none;stroke-width:8.9802618;stroke-miterlimit:4;stroke-opacity:1;display:block"
           id="path1992" />
        <path
           d="M 225.83173,30.307532 L 225.77315,53.700695 L 30.168258,53.700695 L 30.207442,30.333882 L 225.83173,30.307532 z "
           style="opacity:0.5;fill:url(#linearGradient2434);fill-opacity:1;fill-rule:evenodd;stroke:none;stroke-width:8.9802618;stroke-miterlimit:4;stroke-opacity:1;display:block"
           id="path1994" />
      </g>
      <path
         d="M 46.00708,221.46053 L 46.00708,217.88241 L 214.76672,217.88241 L 214.76672,49.1021 L 218.34173,49.06054 L 218.34173,219.68332 L 218.34173,221.46053 L 216.56606,221.46053 L 46.00708,221.46053 z "
         style="fill:#000000;fill-opacity:1;fill-rule:evenodd;stroke:none;stroke-width:4.70592737;stroke-miterlimit:4;stroke-opacity:1;display:block"
         id="path2826" />
      <path
         d="M 34.61253,37.83522 L 36.3882,37.83522 L 213.29223,37.83522 L 215.0679,37.83522 L 215.0679,39.61242 L 215.0679,216.66987 L 215.0679,218.44708 L 213.29223,218.44708 L 36.3882,218.44708 L 34.61253,218.44708 L 34.61253,216.66987 L 34.61253,39.61242 L 34.61253,37.83522 z M 38.18754,41.41333 L 38.18754,214.86896 L 211.49289,214.86896 L 211.49289,41.41333 L 38.18754,41.41333 z "
         style="fill:#00007f;fill-opacity:1;fill-rule:evenodd;stroke:none;stroke-width:8.9802618;stroke-miterlimit:4;stroke-opacity:1;display:block"
         id="rect5542" />
    </g>
  </g>
  <g
     inkscape:groupmode="layer"
     id="layer7"
     inkscape:label="boton_visible"
     style="display:none"
     sodipodi:insensitive="true">
    <path
       id="path2483"
       style="fill:#00007f;fill-opacity:1;fill-rule:evenodd;stroke:none;stroke-width:8.9802618;stroke-miterlimit:4;stroke-opacity:1;display:block;filter:url(#filter3271)"
       d="M 34.61253,37.83522 L 36.3882,37.83522 L 213.29223,37.83522 L 215.0679,37.83522 L 215.0679,39.61242 L 215.0679,216.66987 L 215.0679,218.44708 L 213.29223,218.44708 L 36.3882,218.44708 L 34.61253,218.44708 L 34.61253,216.66987 L 34.61253,39.61242 L 34.61253,37.83522 z M 38.18754,41.41333 L 38.18754,214.86896 L 211.49289,214.86896 L 211.49289,41.41333 L 38.18754,41.41333 z " />
  </g>
  <g
     inkscape:groupmode="layer"
     id="layer8"
     inkscape:label="icono"
     style="display:inline">
    <path
       d=""
       id="path9419" />
    <path
       style="fill:#0000ff;fill-opacity:1;fill-rule:evenodd;stroke:#000000;stroke-width:1.01586426;stroke-linecap:butt;stroke-linejoin:miter;stroke-opacity:1;filter:url(#filter3214);stroke-miterlimit:4;stroke-dasharray:none"
       d="M 154.90968,48.133928 C 149.5397,47.689041 149.9748,48.99131 146.98757,53.108551 C 145.23704,46.883318 144.78093,53.354312 146.5216,54.806823 C 144.86588,52.486851 142.90383,58.66882 143.25922,57.338847 C 143.56859,63.015485 136.05677,51.566459 142.9741,55.41047 C 144.59688,48.113349 129.94727,45.679159 126.9981,53.801019 C 125.97917,59.135116 114.29378,60.065968 120.03284,66.063809 C 126.55958,62.328233 119.3767,77.829816 126.38283,69.261142 C 131.84765,66.080756 124.6327,61.237789 131.85039,58.589529 C 137.09014,50.686131 126.68795,69.975788 136.08566,64.344915 C 137.2146,55.740246 139.82668,70.30863 132.93158,66.640104 C 135.32005,71.473642 129.27204,67.19621 129.63813,73.608128 C 126.54461,73.340747 117.69914,74.454133 121.50242,68.312824 C 117.71798,66.948991 120.54084,76.198835 115.73624,72.830218 C 112.00549,79.431096 99.747249,72.610894 104.90503,82.186145 C 101.94969,89.093905 94.482806,75.495554 92.401265,86.377024 C 88.21273,93.700407 101.76417,96.764974 104.37165,89.491164 C 109.4633,87.351777 116.77362,85.169799 118.90064,93.58269 C 122.69492,94.791999 121.73829,102.88004 122.59093,95.455485 C 127.3514,97.520602 113.91353,83.404716 121.72227,87.897906 C 125.85769,90.047141 128.35406,101.83891 130.86286,99.051087 C 128.03414,92.823747 139.46215,99.630294 136.74793,91.454668 C 140.44876,85.965295 137.86665,88.771081 138.12706,92.214859 C 139.20833,97.034208 132.62125,104.02799 127.43047,103.83258 C 124.01424,101.73917 121.88014,100.45414 119.31382,102.73156 C 117.22764,101.18512 111.66953,99.10048 113.81832,95.70415 C 116.0356,90.783797 110.23102,96.071176 106.31498,94.194154 C 103.23572,95.761271 100.0213,92.752631 97.636537,97.038113 C 96.647661,101.65446 91.239792,99.71923 89.843497,104.23854 C 87.259686,106.97856 88.33859,111.36633 86.134894,114.55482 C 84.419193,118.30896 87.344555,120.81201 88.171741,124.20094 C 89.383316,128.21029 91.985639,129.56819 95.475399,128.74659 C 98.402658,128.87688 102.71573,126.29017 103.93032,131.08489 C 108.34598,129.56308 106.99604,135.0568 106.1682,138.39257 C 106.67261,141.84329 109.31833,144.58995 108.59681,148.48577 C 109.23118,152.19637 104.66434,155.10824 106.42046,159.12599 C 108.65651,163.13649 107.34534,168.44668 109.79183,172.47173 C 109.49296,177.60256 113.18779,176.58956 116.59559,175.96932 C 119.54911,174.68692 123.04253,171.49894 123.54301,167.78331 C 128.03841,167.15128 124.96193,160.89028 129.2478,159.72505 C 132.65989,158.8985 133.14615,154.52138 132.97825,151.38285 C 131.65599,147.81967 133.06424,143.61228 136.23982,141.94508 C 139.70487,138.08232 144.39983,135.16298 145.31394,129.33666 C 146.86261,124.4448 139.13138,129.89643 138.32302,126.65172 C 135.78915,122.95557 134.03662,118.81988 133.26545,114.13061 C 132.16837,112.29859 129.34036,102.28958 132.59118,109.00785 C 139.2402,113.17082 137.44935,130.40951 147.60807,120.7213 C 155.61436,121.43828 152.56365,112.53154 147.31108,113.3214 C 144.95482,108.03286 149.05488,105.18816 149.66988,111.38247 C 154.54544,114.87266 161.29771,116.80302 164.16558,122.6713 C 167.93845,118.05823 161.75053,141.75839 170.14893,133.47703 C 172.22509,126.95301 187.74399,116.67553 186.79461,129.86902 C 192.58577,122.87099 191.39777,147.6869 196.75947,140.3138 C 192.75504,138.75867 189.43507,127.98059 196.01895,131.81876 C 198.13362,139.90301 208.53977,127.38328 199.49499,126.29398 C 199.35169,119.11731 218.67922,120.53074 212.26118,108.37062 C 203.25891,106.6249 211.91299,94.92779 215.1145,103.92834 C 222.77689,107.0476 209.53232,95.183446 218.62191,95.565353 C 222.41336,91.599477 214.60771,78.774568 221.36596,88.5186 C 223.22858,87.339918 217.74056,79.649409 214.07998,84.55819 C 210.72877,77.50546 218.08607,80.567337 221.13926,80.000702 C 218.02016,73.377048 224.44088,76.662396 223.61465,82.290763 C 227.73105,86.155573 232.83605,83.287237 226.05849,79.737958 C 223.02605,74.703784 225.9019,70.452809 220.83348,66.665786 C 221.4809,58.914402 213.97321,71.80396 211.85535,71.982764 C 202.81139,63.565309 191.89231,69.816795 182.38327,63.33639 C 174.70218,59.090276 166.52434,59.556939 158.70605,60.066275 C 154.65342,57.40122 159.217,50.187877 154.90968,48.133928 z M 106.2137,44.429674 C 102.49017,43.75188 107.12548,47.461535 106.2137,44.429674 z M 107.44593,46.238785 C 98.428085,44.569956 109.59814,55.03981 109.61192,47.188505 L 108.68064,46.593843 L 107.44593,46.238785 L 107.44593,46.238785 z M 71.826841,50.956799 C 69.350725,53.080268 66.872137,49.640644 64.599554,52.448167 C 65.027366,54.583418 60.123769,52.492428 59.476752,56.223341 C 56.762304,57.617205 57.660728,60.059375 60.509647,59.875615 C 63.293129,61.959817 63.279858,64.497695 64.447363,65.353021 C 62.753535,68.234194 65.33719,70.220577 66.549816,72.944152 C 70.302659,75.957826 69.185844,69.406734 70.392586,68.106897 C 71.508831,66.335141 76.908418,61.834501 73.293496,60.555539 C 71.487535,59.285532 74.4883,56.961055 71.940149,54.94862 C 71.371076,53.638967 71.576609,52.350396 71.826841,50.956799 z M 27.56674,46.11255 C 27.16866,51.728061 23.590448,44.16175 24.381263,50.29753 C 20.497845,47.335481 20.308556,53.295614 20.888797,54.456696 C 15.372797,52.519498 16.307049,54.168555 21.191271,55.857013 C 27.121395,54.411469 22.461429,56.361215 25.163195,57.205281 C 26.808514,59.079304 28.055941,62.584893 26.958226,65.41419 C 26.887326,68.56798 26.091186,70.675508 26.465376,74.229275 C 25.022392,76.060115 21.626657,77.96847 20.582162,81.021674 C 18.603137,84.486177 21.368097,87.565077 20.457895,90.986687 C 19.819457,94.657053 20.220556,95.623963 20.789522,99.521567 C 22.368995,100.46708 21.073354,94.196945 21.491051,92.06208 C 23.084987,89.766477 22.358178,96.699896 22.917217,98.434417 C 25.06384,101.49969 21.845404,104.886 24.700978,107.24998 C 26.956084,109.75292 29.535837,111.62005 32.255103,112.88655 C 33.818722,115.93807 37.798024,117.16531 37.936841,120.27272 C 39.839485,122.68155 42.8775,123.16544 44.80271,123.92109 C 45.755299,127.01417 43.173106,130.53087 40.892421,132.26622 C 38.059139,134.89401 39.65779,137.85294 38.027747,141.17061 C 41.684308,143.17015 42.247376,148.70671 44.186441,152.13113 C 45.001085,155.59169 50.687861,155.53115 51.487638,159.08036 C 50.981658,164.01562 50.051886,168.81275 48.687874,173.47936 C 49.431138,176.66209 47.653274,180.48942 46.603699,183.14508 C 45.22871,186.89888 48.604628,188.48063 46.618564,191.07749 C 44.855588,194.53721 45.601887,195.15679 45.582749,198.17663 C 45.57753,201.11704 46.430561,204.12551 49.540065,205.11443 C 53.291911,207.55983 55.426132,205.22252 51.309256,202.24023 C 49.990912,200.19699 54.841959,197.23918 53.654684,195.08315 C 51.138623,192.78744 58.423027,190.78491 55.411753,188.5496 C 57.063717,187.12447 58.958951,185.79991 62.097521,185.00565 C 66.76858,185.0386 61.345061,178.05412 65.85791,181.52437 C 69.804024,181.27473 72.049081,176.29905 75.652898,174.59705 C 75.716375,170.02879 79.743867,169.14993 82.535005,168.93911 C 85.784568,169.77396 87.921134,166.47684 89.524899,163.53812 C 91.446512,159.47671 90.980259,157.57374 94.45962,155.82505 C 96.934527,154.67586 100.13027,150.30175 97.320244,148.26723 C 94.781279,146.00946 92.875784,143.28045 89.347879,142.89607 C 87.055174,141.74409 85.160199,139.68545 82.472107,138.57753 C 79.570029,136.51145 80.698111,135.74205 79.212262,131.80714 C 77.098742,129.65854 70.695111,135.40774 73.194459,131.87397 C 76.867633,130.12491 72.115138,127.02283 70.14512,126.21064 C 67.207729,127.97988 63.721599,123.94981 62.402173,123.63836 C 60.847667,121.58904 58.431145,122.62286 55.472059,122.49051 C 53.635359,117.55942 50.519664,126.90008 51.695947,121.23087 C 51.066666,117.9047 46.370891,125.64299 44.981808,122.20207 C 42.41576,122.00868 38.304871,121.2728 40.392799,117.36329 C 42.556343,113.61844 32.516106,115.11943 38.227584,111.29194 C 40.590449,106.43508 34.562199,110.77707 32.608324,110.50723 C 29.34088,109.41073 29.470632,104.97847 31.938392,102.61268 C 32.087136,97.353573 37.900216,101.25051 39.30823,101.14362 C 42.386573,99.526183 44.387986,103.2311 44.919937,106.38509 C 46.425431,105.51429 44.692436,98.957858 49.353811,98.768676 C 51.49114,96.185123 50.463062,94.344799 53.910959,92.847604 C 55.840332,89.174491 58.923421,89.70687 59.35678,89.69641 C 63.315356,88.483968 57.72782,87.580911 58.320139,85.740948 C 52.920544,86.734636 60.25312,83.515271 62.349534,83.588467 C 67.161814,81.205297 59.640506,79.88646 60.249861,76.867803 C 58.724315,74.686092 56.90417,77.079685 55.18849,72.777393 C 51.352024,70.2668 54.243774,77.608059 52.353361,78.897002 C 50.775329,81.605038 50.049221,84.099598 49.284432,78.570983 C 47.440426,76.126265 42.586904,75.228902 45.924813,71.318363 C 48.473355,68.853701 50.867487,68.390598 52.650212,66.022104 C 50.17142,66.065923 49.907165,65.137763 48.463201,62.180586 C 48.79495,67.315049 45.449214,64.137051 43.284029,63.166005 C 40.144263,63.573838 39.689826,58.657122 37.419597,56.875306 C 33.747403,56.516438 33.643854,52.482396 32.050368,49.618777 C 32.414462,47.026957 28.511054,47.990329 27.56674,46.11255 z M 58.980763,53.002725 C 57.41785,53.392433 50.662501,52.123357 54.223053,54.452964 C 56.759993,56.03784 49.850778,57.501966 53.597756,58.386443 C 55.941847,59.010121 56.892968,55.850191 59.771798,53.941606 C 60.842371,53.326684 59.176881,53.303252 58.980763,53.002725 z M 52.131393,53.389113 C 49.183171,54.610588 54.445036,58.698442 52.173876,53.467415 L 52.131393,53.389113 z M 48.593617,53.759306 C 47.581631,56.817555 51.832648,55.790083 48.593617,53.759306 z M 44.322405,53.411474 C 38.731543,53.408344 46.835609,55.492932 44.322405,53.411474 z M 44.817015,54.946869 C 41.154801,56.838824 49.16788,58.031312 46.154467,56.247368 C 45.43951,56.336809 45.021628,55.695808 44.817015,54.946869 z M 41.308885,54.815498 C 36.26585,57.961586 45.483522,57.972858 42.084786,55.208929 L 41.56648,54.946115 L 41.308885,54.815498 z M 49.069137,57.044591 C 45.280994,56.952606 51.348561,60.226771 49.069137,57.044591 z M 50.047484,57.357196 C 49.974217,61.774073 58.324696,60.288872 51.988341,59.294621 C 51.467431,58.338614 51.088065,57.6676 50.047484,57.357196 z M 42.47592,57.626946 C 40.720731,59.699162 41.363276,58.825283 41.549723,61.453027 C 45.027476,64.590699 46.819887,61.017267 45.132762,59.07454 C 44.536745,58.897102 43.801857,58.240147 42.47592,57.626946 z M 47.499458,59.281708 C 44.515362,64.269491 51.114824,59.66686 47.499458,59.281708 z M 49.559929,59.846631 C 46.837479,62.975393 53.185256,60.545627 49.559929,59.846631 z M 52.341878,60.945992 C 47.209085,63.906003 54.541874,63.770661 55.128179,66.194791 C 58.733219,69.252814 55.370967,68.547889 53.728274,70.233283 C 56.694336,71.322077 58.229828,73.678562 58.411301,71.817413 C 59.39981,71.080591 57.77504,68.512392 59.91867,69.874457 C 61.044203,67.158615 56.539306,66.90691 57.202248,64.432988 C 55.108761,63.720791 53.033592,59.656487 52.204941,62.966739 C 51.653352,63.415252 51.447459,61.077499 52.341878,60.945992 z M 111.30588,61.508364 C 103.74364,64.710397 111.51582,69.176128 105.02228,71.548064 C 110.60574,73.598826 99.352111,73.525312 107.35014,74.056166 C 114.71477,76.960955 107.50719,63.826663 111.66814,63.709002 C 108.63178,64.101812 112.86209,62.072484 111.30588,61.508364 z M 104.50918,64.516965 C 101.97427,66.755125 103.16376,66.705893 100.31473,69.756592 C 103.14908,72.569298 110.46793,66.403141 104.50918,64.516965 z M 50.470764,68.420408 C 47.043581,72.200251 55.171648,71.261832 50.470764,68.420408 z M 225.35977,89.306188 C 220.07855,90.429464 227.96629,100.6126 220.51734,102.71968 C 217.9126,111.57393 230.66929,97.771709 225.60749,94.033754 C 222.11587,92.267445 227.70958,90.874268 225.35977,89.306188 z M 64.232592,83.434785 C 59.392179,86.685907 66.533568,88.518002 66.1447,86.194575 C 65.850212,84.020947 64.257722,85.750774 64.232592,83.434785 z M 114.45929,90.015668 C 112.5261,92.14428 116.33749,91.137998 114.45929,90.015668 z M 106.01233,91.981652 C 103.87454,92.807404 108.31974,93.150572 106.01233,91.981652 z M 117.14777,97.97078 C 119.68243,103.92257 123.03553,97.703022 117.14777,97.97078 z M 128.14338,99.620794 C 128.98369,104.43853 134.37134,100.45759 128.14338,99.620794 z M 215.43779,121.74976 C 209.50425,126.46128 225.92592,137.87398 221.39419,128.96839 C 217.3977,133.63192 214.6894,123.80173 221.04326,126.83881 C 215.99433,126.05452 216.47954,125.27998 215.43779,121.74976 z M 42.807108,108.30333 C 38.23307,109.98116 45.954576,108.45072 46.974606,111.29924 C 47.619198,114.29818 52.018603,111.56844 47.120226,110.07219 C 45.777314,109.21923 44.380455,108.46695 42.807108,108.30333 z M 52.353475,112.87381 C 48.493388,113.988 51.807819,115.07678 55.063662,114.47583 C 54.460311,113.40139 53.314011,113.33942 52.353475,112.87381 z M 239.54036,134.20845 C 235.31391,135.29454 234.13481,138.63509 230.62363,135.77629 C 225.96177,142.71543 241.50301,134.68426 237.55293,141.93024 C 242.27829,141.94162 242.55562,136.7461 239.54036,134.20845 z M 211.64947,134.11771 C 208.45758,138.27432 196.63677,144.3751 207.83765,145.32696 C 212.18125,144.37862 214.97065,139.45458 213.3917,136.41204 C 217.50053,134.28017 211.78505,136.08957 211.64947,134.11771 z M 218.49685,139.97919 C 213.11738,141.52123 214.73532,147.24296 217.99354,143.29141 C 220.8931,146.63654 218.72668,142.19624 218.49685,139.97919 z M 170.42637,134.28922 C 167.67708,140.83624 174.74205,137.57792 170.42637,134.28922 z M 187.45055,138.66504 C 191.75408,148.25274 203.14588,152.36497 212.85708,149.33664 C 216.9912,148.53907 221.50138,146.87357 214.8353,148.3253 C 207.37954,149.77626 200.15584,149.94303 196.61454,144.08106 C 193.51118,142.39397 190.72556,139.94626 187.45055,138.66504 z M 224.05585,150.14412 C 218.47813,146.48007 217.10485,162.05104 222.50595,153.6692 C 226.39223,154.87756 228.69769,154.25361 225.83343,151.27794 C 226.7136,150.23014 223.97361,150.38281 224.05585,150.14412 z M 214.19347,158.0882 C 212.37341,163.08679 209.89555,167.30477 206.4944,161.58994 C 212.38359,156.398 201.17606,158.39458 200.47881,161.7037 C 197.42994,157.35471 191.48188,167.94539 186.38152,166.74323 C 182.42163,169.69954 180.1537,180.16251 181.45213,183.16697 C 186.69072,184.22465 197.59336,175.46116 198.47236,184.30368 C 203.91655,180.69661 196.48644,187.58638 200.93966,187.35717 C 203.41279,195.39793 212.9433,186.74405 215.92756,180.25899 C 220.03155,173.07953 214.98193,165.41387 214.19347,158.0882 z M 140.47566,155.39758 C 139.3992,159.55266 133.90398,158.2554 134.63875,163.22426 C 131.78976,164.98877 132.78749,173.35132 136.17107,168.87742 C 138.68493,165.79494 138.41168,160.57306 141.34719,158.1763 C 141.05668,157.25006 140.76618,156.32384 140.47566,155.39758 z M 221.56799,190.03039 C 220.29579,194.65901 224.14163,191.2884 221.56799,190.03039 z M 222.36257,193.58071 C 217.67368,198.08341 222.26137,201.6431 224.56827,194.50203 C 223.95674,194.48205 222.52868,194.64812 222.36257,193.58071 z M 206.38777,193.32842 C 200.16137,191.11644 203.23981,203.02183 206.38777,193.32842 z M 218.11764,197.98148 C 212.90213,203.40705 220.73611,202.5797 218.11764,197.98148 z M 215.51713,201.36159 C 207.15849,202.04112 211.67537,212.64828 215.51713,201.36159 z "
       id="path2599"
       sodipodi:nodetypes="cccccccccccccccccccccccccccccccccccccccccccccccccccccccccccccccccccccccccccccccccccccccccccccccccccccccccccccccccccccccccccccccccccccccccccccccccccccccccccccccccccccccccccccccccccccccccccccccccccccccccccccccccccccccccccccccccccccccccccccccccccccccccccccccccccccccccccccccccc"
       transform="matrix(0.9448651,0,0,1.0255547,6.0977347,-1.1410336)" />
  </g>
  <g
     inkscape:groupmode="layer"
     id="layer9"
     inkscape:label="propiedad_mas"
     sodipodi:insensitive="true"
     style="display:none">
    <g
       id="g2341"
       style="display:inline"
       transform="matrix(0.806338,0,0,0.806338,-5.091682,2.3862628)">
      <path
         id="path2343"
         d="" />
      <g
         id="g2345"
         style="display:block">
        <g
           id="g6097"
           style="display:block"
           transform="matrix(0.925862,0,0,0.925862,493.5668,41.86428)">
          <path
             id="path3603"
             style="fill:#ffffff;fill-opacity:1;fill-rule:evenodd;stroke:#006900;stroke-width:8.1005621;stroke-miterlimit:4;stroke-opacity:1"
             d="M -191.51536,25.067211 C -191.51536,61.628081 -221.18795,91.300681 -257.74882,91.300681 C -294.3097,91.300681 -323.98229,61.628081 -323.98229,25.067211 C -323.98229,-11.493665 -294.3097,-41.166259 -257.74882,-41.166259 C -221.18795,-41.166259 -191.51536,-11.493665 -191.51536,25.067211 z " />
          <path
             id="polygon1906"
             style="fill:#326400;stroke:none"
             d="M -302.55576,11.965876 L -270.99594,11.965876 L -270.99594,-19.849048 L -244.50173,-19.849048 L -244.50173,11.965876 L -212.9419,11.965876 L -212.9419,38.423643 L -244.50173,38.423643 L -244.50173,69.98347 L -270.99594,69.98347 L -270.99594,38.423643 L -302.55576,38.423643 L -302.55576,11.965876 z " />
        </g>
      </g>
    </g>
  </g>
  <g
     inkscape:groupmode="layer"
     id="layer10"
     inkscape:label="propiedad_menos"
     sodipodi:insensitive="true"
     style="display:none">
    <g
       id="g2734"
       style="opacity:1;display:inline"
       transform="matrix(0.806338,0,0,0.806338,-150.02292,-5.0916723)">
      <path
         id="path2736"
         d="" />
      <g
         id="g2738"
         style="display:block">
        <g
           id="g6091"
           style="display:block"
           transform="matrix(0.925862,0,0,0.925862,565.8858,84.55078)">
          <path
             id="path4848"
             style="fill:#ffffff;fill-opacity:1;fill-rule:evenodd;stroke:#cd0000;stroke-width:8.1005621;stroke-miterlimit:4;stroke-opacity:1"
             d="M -269.62525,184.01896 C -269.62525,220.57983 -299.29784,250.25243 -335.85871,250.25243 C -372.41959,250.25243 -402.09218,220.57983 -402.09218,184.01896 C -402.09218,147.45809 -372.41959,117.78549 -335.85871,117.78549 C -299.29784,117.78549 -269.62525,147.45809 -269.62525,184.01896 z " />
          <path
             id="polygon2119"
             style="fill:#da251d;stroke:none"
             d="M -381.13765,170.52182 L -290.57977,170.52182 L -290.57977,197.51609 L -381.13765,197.51609 L -381.13765,170.52182 z " />
        </g>
      </g>
    </g>
  </g>
  <g
     inkscape:groupmode="layer"
     id="layer11"
     inkscape:label="propiedad_listado"
     sodipodi:insensitive="true"
     style="display:inline">
    <g
       id="g2141"
       style="opacity:1;display:inline"
       transform="matrix(0.806338,0,0,0.806338,150.02651,114.9432)">
      <path
         id="path2143"
         d="" />
      <g
         id="layer6"
         style="display:block">
        <g
           id="g6094"
           style="display:block"
           transform="matrix(0.925862,0,0,0.925862,143.7747,118.5623)">
          <path
             id="path4847"
             style="fill:#ffffff;fill-opacity:1;fill-rule:evenodd;stroke:#0000cd;stroke-width:8.1005621;stroke-miterlimit:4;stroke-opacity:1"
             d="M -151.23716,-57.772351 C -151.23716,-21.211475 -151.23716,-49.333221 -151.23716,-12.772347 C -151.23716,23.788523 -121.56457,53.461123 -85.00369,53.461123 C -48.44282,53.461123 -18.77023,23.788523 -18.77023,-12.772347 C -18.77023,-49.333221 -18.77023,-21.211475 -18.77023,-57.772351 C -18.77023,-94.333227 -48.44282,-124.00582 -85.00369,-124.00582 C -121.56457,-124.00582 -151.23716,-94.333227 -151.23716,-57.772351 z " />
          <path
             id="polyline1684"
             style="fill:#0000cd;fill-opacity:1;stroke:none"
             d="M -129.21657,-89.000316 L -129.21657,-73.024359 L -40.79082,-73.024359 L -40.79082,-89.000316 L -129.21657,-89.000316 z M -129.21657,-58.51678 L -129.21657,-42.526137 L -40.79082,-42.526137 L -40.79082,-58.51678 L -129.21657,-58.51678 z M -129.21657,-28.018558 L -129.21657,-12.027911 L -40.79082,-12.027911 L -40.79082,-28.018558 L -129.21657,-28.018558 z M -129.21657,2.4796691 L -129.21657,18.455619 L -40.79082,18.455619 L -40.79082,2.4796691 L -129.21657,2.4796691 z " />
        </g>
      </g>
    </g>
  </g>
</svg>
