<?xml version="1.0" encoding="UTF-8" standalone="no"?>
<!-- Created with Inkscape (http://www.inkscape.org/) -->
<svg
   xmlns:dc="http://purl.org/dc/elements/1.1/"
   xmlns:cc="http://web.resource.org/cc/"
   xmlns:rdf="http://www.w3.org/1999/02/22-rdf-syntax-ns#"
   xmlns:svg="http://www.w3.org/2000/svg"
   xmlns="http://www.w3.org/2000/svg"
   xmlns:xlink="http://www.w3.org/1999/xlink"
   xmlns:sodipodi="http://sodipodi.sourceforge.net/DTD/sodipodi-0.dtd"
   xmlns:inkscape="http://www.inkscape.org/namespaces/inkscape"
   version="1.0"
   width="256"
   height="256"
   id="svg1"
   sodipodi:version="0.32"
   inkscape:version="0.45"
   sodipodi:docname="i_bulmages_trabajadores.svg"
   sodipodi:docbase="/home/anna/Desktop/elferrer/Documents/noves imatges bulmages/i_bulmages_trabajadores"
   inkscape:output_extension="org.inkscape.output.svg.inkscape"
   sodipodi:modified="TRUE"
   inkscape:export-filename="/home/anna/Desktop/elferrer/Documents/noves imatges bulmages/i_bulmages_trabajadores/i_bulmages_trabajadores_pulsado_L.png"
   inkscape:export-xdpi="96"
   inkscape:export-ydpi="96">
  <metadata
     id="metadata162">
    <rdf:RDF>
      <cc:Work
         rdf:about="">
        <dc:format>image/svg+xml</dc:format>
        <dc:type
           rdf:resource="http://purl.org/dc/dcmitype/StillImage" />
        <cc:license
           rdf:resource="http://creativecommons.org/licenses/GPL/2.0/" />
        <dc:title>trabajadores</dc:title>
        <dc:date>actualizacion 11/03/2007</dc:date>
        <dc:creator>
          <cc:Agent>
            <dc:title>Raül Martínez i Peris</dc:title>
          </cc:Agent>
        </dc:creator>
        <dc:rights>
          <cc:Agent>
            <dc:title>GPL</dc:title>
          </cc:Agent>
        </dc:rights>
        <dc:publisher>
          <cc:Agent>
            <dc:title>Raül Martinez i Peris</dc:title>
          </cc:Agent>
        </dc:publisher>
        <dc:identifier>elferrer</dc:identifier>
        <dc:source>propia</dc:source>
        <dc:language>castellano</dc:language>
        <dc:contributor>
          <cc:Agent>
            <dc:title>www.iglues.org</dc:title>
          </cc:Agent>
        </dc:contributor>
        <dc:description>iconos para las aplicaciones de iglues.org</dc:description>
        <dc:subject>
          <rdf:Bag>
            <rdf:li>bulmagés</rdf:li>
          </rdf:Bag>
        </dc:subject>
      </cc:Work>
      <cc:License
         rdf:about="http://creativecommons.org/licenses/GPL/2.0/">
        <cc:permits
           rdf:resource="http://web.resource.org/cc/Reproduction" />
        <cc:permits
           rdf:resource="http://web.resource.org/cc/Distribution" />
        <cc:requires
           rdf:resource="http://web.resource.org/cc/Notice" />
        <cc:permits
           rdf:resource="http://web.resource.org/cc/DerivativeWorks" />
        <cc:requires
           rdf:resource="http://web.resource.org/cc/ShareAlike" />
        <cc:requires
           rdf:resource="http://web.resource.org/cc/SourceCode" />
      </cc:License>
    </rdf:RDF>
  </metadata>
  <sodipodi:namedview
     inkscape:window-height="690"
     inkscape:window-width="1016"
     inkscape:pageshadow="2"
     inkscape:pageopacity="0.0"
     guidetolerance="10.0"
     gridtolerance="10.0"
     objecttolerance="10.0"
     borderopacity="1.0"
     bordercolor="#666666"
     pagecolor="#ffffff"
     id="base"
     inkscape:zoom="1.9023438"
     inkscape:cx="128"
     inkscape:cy="128"
     inkscape:window-x="0"
     inkscape:window-y="0"
     inkscape:current-layer="layer7"
     gridempspacing="3" />
  <defs
     id="defs3">
    <linearGradient
       id="linearGradient9952">
      <stop
         style="stop-color:blue;stop-opacity:1"
         offset="0"
         id="stop9953" />
      <stop
         style="stop-color:blue;stop-opacity:0"
         offset="1"
         id="stop9954" />
    </linearGradient>
    <linearGradient
       inkscape:collect="always"
       xlink:href="#linearGradient9952"
       id="linearGradient2396"
       gradientUnits="userSpaceOnUse"
       gradientTransform="matrix(0.722825,0,0,5.491502,357.3217,-224.6297)"
       x1="-181.00027"
       y1="65.430992"
       x2="-149.55615"
       y2="65.430992" />
    <linearGradient
       inkscape:collect="always"
       xlink:href="#linearGradient9952"
       id="linearGradient2398"
       gradientUnits="userSpaceOnUse"
       gradientTransform="matrix(0.503358,0.519204,-0.518754,0.503795,350.8416,286.8881)"
       x1="-181.00027"
       y1="65.430992"
       x2="-149.55615"
       y2="65.430992" />
    <linearGradient
       inkscape:collect="always"
       xlink:href="#linearGradient9952"
       id="linearGradient2400"
       gradientUnits="userSpaceOnUse"
       gradientTransform="matrix(0.700557,0.178187,-0.178032,0.701165,364.2407,212.2498)"
       x1="-181.00027"
       y1="65.430992"
       x2="-149.55615"
       y2="65.430992" />
    <linearGradient
       inkscape:collect="always"
       xlink:href="#linearGradient9952"
       id="linearGradient2402"
       gradientUnits="userSpaceOnUse"
       gradientTransform="matrix(0.175051,0.701916,0.701308,-0.175203,211.5968,364.3863)"
       x1="-181.00027"
       y1="65.430992"
       x2="-149.55615"
       y2="65.430992" />
    <linearGradient
       inkscape:collect="always"
       xlink:href="#linearGradient9952"
       id="linearGradient2404"
       gradientUnits="userSpaceOnUse"
       gradientTransform="matrix(-0.518754,0.503795,-0.503358,-0.519204,-30.75042,351.0348)"
       x1="-181.00027"
       y1="65.430992"
       x2="-149.55615"
       y2="65.430992" />
    <linearGradient
       inkscape:collect="always"
       xlink:href="#linearGradient9952"
       id="linearGradient2406"
       gradientUnits="userSpaceOnUse"
       gradientTransform="matrix(-0.178032,0.701165,-0.700557,-0.178187,43.82315,364.4456)"
       x1="-181.00027"
       y1="65.430992"
       x2="-149.55615"
       y2="65.430992" />
    <linearGradient
       inkscape:collect="always"
       xlink:href="#linearGradient9952"
       id="linearGradient2408"
       gradientUnits="userSpaceOnUse"
       gradientTransform="matrix(-0.701308,0.175203,0.175051,0.701916,-108.1815,211.6693)"
       x1="-181.00027"
       y1="65.430992"
       x2="-149.55615"
       y2="65.430992" />
    <linearGradient
       inkscape:collect="always"
       xlink:href="#linearGradient9952"
       id="linearGradient2410"
       gradientUnits="userSpaceOnUse"
       gradientTransform="matrix(0.518754,-0.503795,0.503358,0.519204,286.7504,-95.03481)"
       x1="-181.00027"
       y1="65.430992"
       x2="-149.55615"
       y2="65.430992" />
    <linearGradient
       inkscape:collect="always"
       xlink:href="#linearGradient9952"
       id="linearGradient2412"
       gradientUnits="userSpaceOnUse"
       gradientTransform="matrix(0.178032,-0.701165,0.700557,0.178187,212.1768,-108.4456)"
       x1="-181.00027"
       y1="65.430992"
       x2="-149.55615"
       y2="65.430992" />
    <linearGradient
       inkscape:collect="always"
       xlink:href="#linearGradient9952"
       id="linearGradient2414"
       gradientUnits="userSpaceOnUse"
       gradientTransform="matrix(0.701308,-0.175203,-0.175051,-0.701916,364.1815,44.33066)"
       x1="-181.00027"
       y1="65.430992"
       x2="-149.55615"
       y2="65.430992" />
    <linearGradient
       inkscape:collect="always"
       xlink:href="#linearGradient9952"
       id="linearGradient2416"
       gradientUnits="userSpaceOnUse"
       gradientTransform="matrix(-0.503358,-0.519204,0.518754,-0.503795,-94.84156,-30.88808)"
       x1="-181.00027"
       y1="65.430992"
       x2="-149.55615"
       y2="65.430992" />
    <linearGradient
       inkscape:collect="always"
       xlink:href="#linearGradient9952"
       id="linearGradient2418"
       gradientUnits="userSpaceOnUse"
       gradientTransform="matrix(-0.700557,-0.178187,0.178032,-0.701165,-108.2407,43.75017)"
       x1="-181.00027"
       y1="65.430992"
       x2="-149.55615"
       y2="65.430992" />
    <linearGradient
       inkscape:collect="always"
       xlink:href="#linearGradient9952"
       id="linearGradient2420"
       gradientUnits="userSpaceOnUse"
       gradientTransform="matrix(-0.175051,-0.701916,-0.701308,0.175203,44.40317,-108.3863)"
       x1="-181.00027"
       y1="65.430992"
       x2="-149.55615"
       y2="65.430992" />
    <linearGradient
       inkscape:collect="always"
       xlink:href="#linearGradient9952"
       id="linearGradient2422"
       gradientUnits="userSpaceOnUse"
       gradientTransform="matrix(-0.722825,0,0,-5.491502,-101.3217,480.6296)"
       x1="-181.00027"
       y1="65.430992"
       x2="-149.55615"
       y2="65.430992" />
    <linearGradient
       inkscape:collect="always"
       xlink:href="#linearGradient9952"
       id="linearGradient2424"
       gradientUnits="userSpaceOnUse"
       gradientTransform="matrix(0,-0.723451,5.486744,0,-224.3241,-101.5205)"
       x1="-181.00027"
       y1="65.430992"
       x2="-149.55615"
       y2="65.430992" />
    <linearGradient
       inkscape:collect="always"
       xlink:href="#linearGradient9952"
       id="linearGradient2426"
       gradientUnits="userSpaceOnUse"
       gradientTransform="matrix(0,0.723451,-5.486744,0,480.324,357.5204)"
       x1="-181.00027"
       y1="65.430992"
       x2="-149.55615"
       y2="65.430992" />
    <linearGradient
       inkscape:collect="always"
       xlink:href="#linearGradient9952"
       id="linearGradient2428"
       gradientUnits="userSpaceOnUse"
       gradientTransform="matrix(0.722825,0,0,5.491502,161.2922,-224.6297)"
       x1="-181.00027"
       y1="65.430992"
       x2="-149.55615"
       y2="65.430992" />
    <linearGradient
       inkscape:collect="always"
       xlink:href="#linearGradient9952"
       id="linearGradient2430"
       gradientUnits="userSpaceOnUse"
       gradientTransform="matrix(-0.722825,0,0,-5.491502,97.31552,480.6296)"
       x1="-181.00027"
       y1="65.430992"
       x2="-149.55615"
       y2="65.430992" />
    <linearGradient
       inkscape:collect="always"
       xlink:href="#linearGradient9952"
       id="linearGradient2432"
       gradientUnits="userSpaceOnUse"
       gradientTransform="matrix(0,-0.723451,5.486744,0,-224.3241,95.04349)"
       x1="-181.00027"
       y1="65.430992"
       x2="-149.55615"
       y2="65.430992" />
    <linearGradient
       inkscape:collect="always"
       xlink:href="#linearGradient9952"
       id="linearGradient2434"
       gradientUnits="userSpaceOnUse"
       gradientTransform="matrix(0,0.723451,-5.486744,0,480.324,161.8969)"
       x1="-181.00027"
       y1="65.430992"
       x2="-149.55615"
       y2="65.430992" />
    <filter
       inkscape:collect="always"
       x="-0.10004336"
       width="1.2000867"
       y="-0.099956678"
       height="1.1999134"
       id="filter3283">
      <feGaussianBlur
         inkscape:collect="always"
         stdDeviation="9.0266808"
         id="feGaussianBlur3285" />
    </filter>
  </defs>
  <g
     style="opacity:1;display:inline"
     id="layer1">
    <path
       d=""
       style="opacity:1"
       id="path3945" />
  </g>
  <path
     d=""
     id="path3081" />
  <g
     style="display:inline"
     id="layer2" />
  <g
     style="display:inline"
     id="layer3" />
  <g
     style="opacity:1;display:inline"
     id="layer4" />
  <g
     inkscape:groupmode="layer"
     id="layer5"
     inkscape:label="boton_pulsado"
     style="display:none"
     sodipodi:insensitive="true">
    <g
       id="g2458">
      <g
         transform="translate(-3.15982,0.14121)"
         style="display:inline"
         id="g3979">
        <path
           d="M 225.84614,30.083415 L 249.21903,30.14204 L 249.21903,225.91656 L 225.87247,225.87734 L 225.84614,30.083415 z "
           style="opacity:0.5;fill:url(#linearGradient2396);fill-opacity:1;fill-rule:evenodd;stroke:none;stroke-width:8.9802618;stroke-miterlimit:4;stroke-opacity:1;display:block"
           id="rect10002" />
        <path
           d="M 246.09172,236.81817 L 241.6188,242.20167 L 236.82989,246.55734 L 225.79115,225.87576 L 246.09172,236.81817 z "
           style="opacity:0.5;fill:url(#linearGradient2398);fill-opacity:1;fill-rule:evenodd;stroke:none;stroke-width:8.9802618;stroke-miterlimit:4;stroke-opacity:1"
           id="path2053" />
        <path
           d="M 249.21905,225.96681 L 247.81954,231.47868 L 246.42002,236.99055 L 225.79115,225.87576 L 249.21905,225.96681 z "
           style="opacity:0.5;fill:url(#linearGradient2400);fill-opacity:1;fill-rule:evenodd;stroke:none;stroke-width:8.9802618;stroke-miterlimit:4;stroke-opacity:1"
           id="path2060" />
        <path
           d="M 225.79115,249.32415 L 231.30415,247.94688 L 236.81715,246.56961 L 225.79985,225.87576 L 225.79115,249.32415 z "
           style="opacity:0.5;fill:url(#linearGradient2402);fill-opacity:1;fill-rule:evenodd;stroke:none;stroke-width:8.9802618;stroke-miterlimit:4;stroke-opacity:1"
           id="path2062" />
        <path
           d="M 19.276093,246.19414 L 13.897256,241.71734 L 9.5453636,236.92428 L 30.20902,225.87597 L 19.276093,246.19414 z "
           style="opacity:0.5;fill:url(#linearGradient2404);fill-opacity:1;fill-rule:evenodd;stroke:none;stroke-width:8.9802618;stroke-miterlimit:4;stroke-opacity:1"
           id="path3000" />
        <path
           d="M 30.118045,249.32418 L 24.610958,247.92346 L 19.103856,246.52272 L 30.20902,225.87597 L 30.118045,249.32418 z "
           style="opacity:0.5;fill:url(#linearGradient2406);fill-opacity:1;fill-rule:evenodd;stroke:none;stroke-width:8.9802618;stroke-miterlimit:4;stroke-opacity:1"
           id="path3001" />
        <path
           d="M 6.7809483,225.87597 L 8.1570192,231.39375 L 9.5331053,236.91153 L 30.20902,225.88467 L 6.7809483,225.87597 z "
           style="opacity:0.5;fill:url(#linearGradient2408);fill-opacity:1;fill-rule:evenodd;stroke:none;stroke-width:8.9802618;stroke-miterlimit:4;stroke-opacity:1"
           id="path3002" />
        <path
           d="M 236.72389,9.8058696 L 242.10272,14.28267 L 246.45462,19.075728 L 225.79096,30.12404 L 236.72389,9.8058696 z "
           style="opacity:0.5;fill:url(#linearGradient2410);fill-opacity:1;fill-rule:evenodd;stroke:none;stroke-width:8.9802618;stroke-miterlimit:4;stroke-opacity:1"
           id="path3007" />
        <path
           d="M 225.88193,6.6758271 L 231.38902,8.0765559 L 236.89612,9.4772889 L 225.79096,30.12404 L 225.88193,6.6758271 z "
           style="opacity:0.5;fill:url(#linearGradient2412);fill-opacity:1;fill-rule:evenodd;stroke:none;stroke-width:8.9802618;stroke-miterlimit:4;stroke-opacity:1"
           id="path3008" />
        <path
           d="M 249.21903,30.12404 L 247.84296,24.606264 L 246.46687,19.08848 L 225.79096,30.115338 L 249.21903,30.12404 z "
           style="opacity:0.5;fill:url(#linearGradient2414);fill-opacity:1;fill-rule:evenodd;stroke:none;stroke-width:8.9802618;stroke-miterlimit:4;stroke-opacity:1"
           id="path3009" />
        <path
           d="M 9.9082846,19.181822 L 14.381207,13.79832 L 19.170112,9.4426539 L 30.20885,30.12423 L 9.9082846,19.181822 z "
           style="opacity:0.5;fill:url(#linearGradient2416);fill-opacity:1;fill-rule:evenodd;stroke:none;stroke-width:8.9802618;stroke-miterlimit:4;stroke-opacity:1"
           id="path3011" />
        <path
           d="M 6.7809541,30.033176 L 8.1804693,24.521313 L 9.5799886,19.009435 L 30.20885,30.12423 L 6.7809541,30.033176 z "
           style="opacity:0.5;fill:url(#linearGradient2418);fill-opacity:1;fill-rule:evenodd;stroke:none;stroke-width:8.9802618;stroke-miterlimit:4;stroke-opacity:1"
           id="path3012" />
        <path
           d="M 30.20885,6.6758413 L 24.695855,8.0531055 L 19.182853,9.430385 L 30.200156,30.12423 L 30.20885,6.6758413 z "
           style="opacity:0.5;fill:url(#linearGradient2420);fill-opacity:1;fill-rule:evenodd;stroke:none;stroke-width:8.9802618;stroke-miterlimit:4;stroke-opacity:1"
           id="path3013" />
        <path
           d="M 30.153849,225.91656 L 6.780954,225.85793 L 6.780954,30.083413 L 30.127521,30.122631 L 30.153849,225.91656 z "
           style="opacity:0.5;fill:url(#linearGradient2422);fill-opacity:1;fill-rule:evenodd;stroke:none;stroke-width:8.9802618;stroke-miterlimit:4;stroke-opacity:1;display:block"
           id="path3021" />
        <path
           d="M 30.168259,30.06899 L 30.226838,6.675827 L 225.83173,6.675827 L 225.79255,30.04264 L 30.168259,30.06899 z "
           style="opacity:0.5;fill:url(#linearGradient2424);fill-opacity:1;fill-rule:evenodd;stroke:none;stroke-width:8.9802618;stroke-miterlimit:4;stroke-opacity:1;display:block"
           id="path3023" />
        <path
           d="M 225.83173,225.93098 L 225.77315,249.32415 L 30.168259,249.32415 L 30.207443,225.95733 L 225.83173,225.93098 z "
           style="opacity:0.5;fill:url(#linearGradient2426);fill-opacity:1;fill-rule:evenodd;stroke:none;stroke-width:8.9802618;stroke-miterlimit:4;stroke-opacity:1;display:block"
           id="path3054" />
        <path
           d="M 29.816627,30.083414 L 53.189522,30.14204 L 53.189522,225.91656 L 29.842954,225.87734 L 29.816627,30.083414 z "
           style="opacity:0.5;fill:url(#linearGradient2428);fill-opacity:1;fill-rule:evenodd;stroke:none;stroke-width:8.9802618;stroke-miterlimit:4;stroke-opacity:1;display:block"
           id="path1956" />
        <path
           d="M 228.79098,225.91656 L 205.41809,225.85793 L 205.41809,30.083413 L 228.76465,30.122631 L 228.79098,225.91656 z "
           style="opacity:0.5;fill:url(#linearGradient2430);fill-opacity:1;fill-rule:evenodd;stroke:none;stroke-width:8.9802618;stroke-miterlimit:4;stroke-opacity:1;display:block"
           id="path1990" />
        <path
           d="M 30.168258,226.63294 L 30.226837,203.23978 L 225.83173,203.23978 L 225.79255,226.60659 L 30.168258,226.63294 z "
           style="opacity:0.5;fill:url(#linearGradient2432);fill-opacity:1;fill-rule:evenodd;stroke:none;stroke-width:8.9802618;stroke-miterlimit:4;stroke-opacity:1;display:block"
           id="path1992" />
        <path
           d="M 225.83173,30.307532 L 225.77315,53.700695 L 30.168258,53.700695 L 30.207442,30.333882 L 225.83173,30.307532 z "
           style="opacity:0.5;fill:url(#linearGradient2434);fill-opacity:1;fill-rule:evenodd;stroke:none;stroke-width:8.9802618;stroke-miterlimit:4;stroke-opacity:1;display:block"
           id="path1994" />
      </g>
      <path
         d="M 46.00708,221.46053 L 46.00708,217.88241 L 214.76672,217.88241 L 214.76672,49.1021 L 218.34173,49.06054 L 218.34173,219.68332 L 218.34173,221.46053 L 216.56606,221.46053 L 46.00708,221.46053 z "
         style="fill:#000000;fill-opacity:1;fill-rule:evenodd;stroke:none;stroke-width:4.70592737;stroke-miterlimit:4;stroke-opacity:1;display:block"
         id="path2826" />
      <path
         d="M 34.61253,37.83522 L 36.3882,37.83522 L 213.29223,37.83522 L 215.0679,37.83522 L 215.0679,39.61242 L 215.0679,216.66987 L 215.0679,218.44708 L 213.29223,218.44708 L 36.3882,218.44708 L 34.61253,218.44708 L 34.61253,216.66987 L 34.61253,39.61242 L 34.61253,37.83522 z M 38.18754,41.41333 L 38.18754,214.86896 L 211.49289,214.86896 L 211.49289,41.41333 L 38.18754,41.41333 z "
         style="fill:#00007f;fill-opacity:1;fill-rule:evenodd;stroke:none;stroke-width:8.9802618;stroke-miterlimit:4;stroke-opacity:1;display:block"
         id="rect5542" />
    </g>
  </g>
  <g
     inkscape:groupmode="layer"
     id="layer7"
     inkscape:label="boton_visible"
     style="display:none"
     sodipodi:insensitive="true">
    <path
       id="path2483"
       style="fill:#00007f;fill-opacity:1;fill-rule:evenodd;stroke:none;stroke-width:8.9802618;stroke-miterlimit:4;stroke-opacity:1;display:block;filter:url(#filter3283)"
       d="M 34.61253,37.83522 L 36.3882,37.83522 L 213.29223,37.83522 L 215.0679,37.83522 L 215.0679,39.61242 L 215.0679,216.66987 L 215.0679,218.44708 L 213.29223,218.44708 L 36.3882,218.44708 L 34.61253,218.44708 L 34.61253,216.66987 L 34.61253,39.61242 L 34.61253,37.83522 z M 38.18754,41.41333 L 38.18754,214.86896 L 211.49289,214.86896 L 211.49289,41.41333 L 38.18754,41.41333 z " />
  </g>
  <g
     inkscape:groupmode="layer"
     id="layer8"
     inkscape:label="icono"
     style="display:inline">
    <g
       id="g8292"
       transform="matrix(0.6910964,0,0,0.6910964,12.265827,19.214753)">
      <path
         id="path8294"
         d="" />
      <g
         style="opacity:1;display:block"
         transform="translate(184.5158,-340.6444)"
         inkscape:label="Dibuix"
         id="g8296">
        <path
           id="path1910"
           d="M 43.561205,426.17614 C 25.427943,426.44508 7.5887351,437.1036 -0.98746355,454.28535 C -11.366979,473.37102 -8.8989622,499.13845 4.8702843,515.63179 C 16.625281,530.55904 36.152324,537.89217 54.091763,533.72924 C 73.993001,529.38076 90.671821,511.39893 93.91759,489.97868 C 98.55388,465.57888 84.682501,438.99322 62.748612,430.19071 C 56.665351,427.69457 50.083293,426.29194 43.561205,426.17614 z "
           style="fill:#2f8eb5;fill-opacity:1;stroke:none;display:block" />
        <path
           id="path8299"
           d="M 16.56468,535.83794 C 0.26562525,525.52272 -19.153096,533.7852 -45.082195,583.09234 C 4.4329578,569.91426 99.076217,748.43383 135.01226,585.17871 C 137.40406,557.65678 73.460953,532.80065 66.864144,538.41105 C 51.573015,548.44752 30.934825,547.20764 16.56468,535.83794 z "
           style="fill:#2f8eb5;fill-opacity:1;stroke:none;display:block" />
        <path
           id="path1906"
           d="M -81.459821,347.28417 C -58.419385,347.6259 -35.752605,361.16878 -24.855542,383.00019 C -11.667164,407.25076 -14.803071,439.99127 -32.298493,460.94798 C -47.234587,479.91478 -72.045969,489.23238 -94.840111,483.94289 C -120.12695,478.41764 -141.31933,455.56963 -145.44346,428.35271 C -151.3344,397.34994 -133.7092,363.56977 -105.83965,352.38515 C -98.11016,349.21351 -89.746885,347.43131 -81.459821,347.28417 z "
           style="fill:#4569b5;fill-opacity:1;stroke:none;display:block" />
        <path
           id="path1904"
           d="M -47.157586,486.62224 C -38.274153,496.60487 -6.6494185,495.53753 1.0329768,524.50379 C -24.208092,503.77059 -132.49641,756.75004 -178.15733,549.31542 C -181.19639,514.34561 -119.45092,482.76301 -111.06891,489.89167 C -91.639753,502.64418 -65.41654,501.06877 -47.157586,486.62224 z "
           style="fill:#4569b5;fill-opacity:1;stroke:none;display:block" />
        <path
           id="path1921"
           d="M 43.53125,424.1875 C 24.633974,424.46776 6.1422849,435.52864 -2.78125,453.40625 C -13.585293,473.27254 -11.006897,499.71649 3.34375,516.90625 C 15.567831,532.42919 35.776713,540.03958 54.53125,535.6875 C 75.328158,531.14331 92.533271,512.54101 95.90625,490.28125 C 100.72885,464.90098 86.455182,437.55613 63.5,428.34375 C 57.191438,425.75517 50.378568,424.30796 43.59375,424.1875 L 43.5625,424.1875 L 43.53125,424.1875 z M 43.53125,428.1875 L 43.5625,428.1875 L 43.59375,428.1875 C 49.833072,428.3064 56.16132,429.63547 62,432.03125 C 82.912596,440.42389 96.387489,466.17444 91.9375,489.59375 L 91.9375,489.65625 L 91.9375,489.6875 C 88.818941,510.26824 72.661819,527.62847 53.65625,531.78125 L 53.625,531.78125 C 36.500659,535.75503 17.723412,528.73784 6.4375,514.40625 L 6.4375,514.375 L 6.40625,514.34375 C -6.7815957,498.54683 -9.1737381,473.55507 0.78125,455.25 L 0.78125,455.21875 L 0.8125,455.1875 C 9.0315375,438.72129 26.183174,428.46864 43.53125,428.1875 z "
           style="opacity:1;fill:#000000;fill-opacity:1;stroke:none;stroke-width:4;stroke-miterlimit:4;stroke-dasharray:none;stroke-opacity:1;display:block" />
        <path
           id="path1923"
           d="M 3.65625,530.03125 C -1.2867279,530.13386 -6.4697228,531.83121 -11.78125,535.46875 C -22.404304,542.74383 -33.804891,557.36137 -46.84375,582.15625 L -48.96875,586.1875 L -44.5625,585.03125 C -38.991887,583.54867 -32.565746,584.71083 -25.40625,587.90625 C -18.246754,591.10167 -10.454227,596.283 -2.3125,602.40625 C 13.970954,614.65275 31.597798,630.67451 48.96875,642.09375 C 57.654226,647.80337 66.26827,652.37575 74.75,654.71875 C 83.23173,657.06175 91.633161,657.1448 99.46875,653.71875 C 115.13993,646.86666 127.92867,626.66227 136.96875,585.59375 L 137,585.46875 L 137,585.34375 C 137.66675,577.67164 133.73163,570.44029 127.75,564.09375 C 121.76837,557.74721 113.63601,552.17215 105.25,547.625 C 96.863987,543.07785 88.244004,539.58294 81.1875,537.5625 C 77.659248,536.55228 74.51687,535.90088 71.9375,535.6875 C 69.468305,535.48324 67.48047,535.50937 65.8125,536.78125 L 65.78125,536.75 C 65.710395,536.79651 65.6336,536.829 65.5625,536.875 C 51.045457,546.26656 31.440655,545.06389 17.8125,534.28125 L 17.71875,534.21875 L 17.625,534.15625 C 13.296645,531.41695 8.5992279,529.92864 3.65625,530.03125 z M 3.75,533.84375 C 7.8424258,533.75745 11.678827,535.11293 15.5,537.53125 C 30.536954,549.30494 51.98759,550.58311 67.96875,540.09375 L 68.0625,540 L 68.15625,539.9375 C 68.095927,539.9888 69.454154,539.50792 71.625,539.6875 C 73.795846,539.86708 76.737031,540.44514 80.09375,541.40625 C 86.807189,543.32847 95.218359,546.71917 103.34375,551.125 C 111.46914,555.53083 119.30259,560.96455 124.84375,566.84375 C 130.35655,572.69286 133.52014,578.84749 133.03125,584.90625 C 124.10568,625.35071 111.5851,644.03662 97.875,650.03125 C 91.010604,653.03265 83.671924,653.01484 75.8125,650.84375 C 67.953076,648.67266 59.641881,644.32825 51.15625,638.75 C 34.184988,627.5935 16.605045,611.63661 0.09375,599.21875 C -8.1618975,593.00982 -16.147058,587.68854 -23.78125,584.28125 C -29.860443,581.56799 -35.750442,580.11976 -41.34375,580.53125 C -29.298639,558.3466 -18.664453,545.00477 -9.53125,538.75 C -4.7095777,535.44793 -0.34242582,533.93005 3.75,533.84375 z "
           style="opacity:1;fill:#000000;fill-opacity:1;stroke:none;stroke-width:4;stroke-miterlimit:4;stroke-dasharray:none;stroke-opacity:1;display:block" />
        <path
           id="path8305"
           d="M -81.5,345.28125 C -90.04979,345.43305 -98.63895,347.26715 -106.59375,350.53125 C -135.48459,362.12574 -153.48349,396.73549 -147.40625,428.71875 C -143.15491,456.77518 -121.46376,480.18528 -95.28125,485.90625 C -71.672009,491.38489 -46.123929,481.74999 -30.71875,462.1875 C -12.641928,440.53437 -9.4808455,407.06244 -23.09375,382.03125 C -34.338149,359.50398 -57.633051,345.6343 -81.4375,345.28125 L -81.46875,345.28125 L -81.5,345.28125 z M -81.5,349.28125 L -81.46875,349.28125 L -81.4375,349.28125 C -59.182265,349.63512 -37.196172,362.79034 -26.65625,383.90625 L -26.625,383.9375 L -26.625,383.96875 C -13.86115,407.43871 -16.929728,439.39596 -33.84375,459.65625 L -33.84375,459.6875 L -33.875,459.71875 C -48.34201,478.08989 -72.395957,487.10034 -94.375,482 L -94.40625,482 C -118.79742,476.67045 -139.47183,454.43991 -143.46875,428.0625 L -143.46875,428.03125 L -143.46875,427.96875 C -149.17338,397.94644 -131.94201,365.02475 -105.09375,354.25 C -97.609017,351.17878 -89.504065,349.43156 -81.5,349.28125 z "
           style="opacity:1;fill:#000000;fill-opacity:1;stroke:none;stroke-width:4;stroke-miterlimit:4;stroke-dasharray:none;stroke-opacity:1;display:block" />
        <path
           id="path1927"
           d="M -46.90625,483.875 L -48.40625,485.0625 C -65.989962,498.97478 -91.292909,500.47682 -109.96875,488.21875 L -110,488.25 C -111.76318,486.88306 -114.05297,486.70403 -116.6875,486.96875 C -119.42334,487.24365 -122.62116,488.08408 -126.1875,489.375 C -133.32018,491.95683 -141.86893,496.39969 -150.0625,502.1875 C -166.44963,513.76313 -181.78142,530.79944 -180.15625,549.5 L -180.125,549.625 L -180.125,549.75 C -174.39037,575.80205 -167.65761,594.69432 -160.125,607.9375 C -152.59239,621.18068 -144.17285,628.84596 -135.09375,631.9375 C -126.01465,635.02904 -116.51254,633.44597 -107.1875,628.96875 C -97.862463,624.49153 -88.572721,617.14198 -79.5,608.375 C -61.354559,590.84103 -44.021967,567.56251 -29.65625,550.0625 C -22.473392,541.3125 -15.992633,533.99937 -10.75,529.65625 C -8.1286836,527.48469 -5.8251113,526.09618 -4.0625,525.5625 C -2.2998887,525.02882 -1.306688,525.19453 -0.25,526.0625 L 4.5625,530 L 2.96875,524 C -1.0483349,508.85369 -11.559955,501.33949 -21.78125,496.625 C -26.891897,494.26775 -31.965252,492.53618 -36.21875,490.8125 C -40.472248,489.08882 -43.838923,487.32344 -45.65625,485.28125 L -46.90625,483.875 z M -47.34375,489.15625 C -44.802075,491.40105 -41.471228,493.0106 -37.71875,494.53125 C -33.30407,496.32025 -28.303765,498.00547 -23.4375,500.25 C -14.594,504.329 -6.2977968,510.09405 -2.09375,521.46875 C -3.1275648,521.42244 -4.1875439,521.40653 -5.21875,521.71875 C -7.8377554,522.51172 -10.467977,524.23728 -13.3125,526.59375 C -19.001546,531.30669 -25.517851,538.7212 -32.75,547.53125 C -47.214297,565.15135 -64.491863,588.31009 -82.28125,605.5 C -91.175944,614.09496 -100.19479,621.16113 -108.90625,625.34375 C -117.61771,629.52637 -125.92411,630.84234 -133.8125,628.15625 C -141.70089,625.47016 -149.42846,618.67603 -156.65625,605.96875 C -163.85601,593.31075 -170.49019,574.80687 -176.15625,549.15625 C -176.15716,549.14583 -176.15536,549.13542 -176.15625,549.125 C -177.54948,532.86619 -163.56121,516.6063 -147.75,505.4375 C -139.83933,499.84952 -131.55081,495.55277 -124.84375,493.125 C -121.49022,491.91111 -118.51461,491.19316 -116.28125,490.96875 C -114.04789,490.74434 -112.6836,491.14379 -112.375,491.40625 L -112.28125,491.5 L -112.15625,491.5625 C -92.460341,504.4901 -66.198673,503.14722 -47.34375,489.15625 z "
           style="opacity:1;fill:#000000;fill-opacity:1;stroke:none;stroke-width:4;stroke-miterlimit:4;stroke-dasharray:none;stroke-opacity:1;display:block" />
        <g
           id="g3012">
          <path
             id="path3026"
             d="M -47.375,486.34375 C -65.301461,500.9986 -93.177271,502.07068 -112.03125,488.9375 C -122.55054,487.43266 -132.51866,493.92959 -141.53125,498.59375 C -158.14126,508.9333 -176.20006,523.71889 -178.5625,544.46875 C -178.61174,555.2189 -174.24428,565.43073 -171.6875,575.65625 C -165.25381,594.87729 -157.95524,616.24563 -140.125,627.84375 C -125.83353,636.67125 -107.9897,629.50305 -95.90625,620.21875 C -63.150396,595.65617 -42.467502,558.90057 -13.875,530.1875 C -9.9470815,526.86197 -3.3417027,520.59958 1.65625,525.5 C -1.3852345,509.81475 -15.523423,499.77172 -29.9375,494.96875 C -35.992245,492.8927 -42.752748,490.13178 -47.375,486.34375 z M -46.3125,487.875 C -34.651486,496.3439 -18.588977,497.3203 -8.46875,508.3125 C -4.3215965,512.47179 -1.5570229,517.62883 0.3125,523.1875 C -9.0845491,521.72201 -15.248988,531.08458 -21.25,536.65625 C -47.184669,565.35714 -68.216167,600.30914 -100.62294,622.53995 C -111.98023,630.40433 -128.10975,635.04529 -140.5625,626.71875 C -157.37539,615.22707 -164.41416,594.87565 -170.67238,576.51399 C -173.32269,566.19783 -177.58805,555.99636 -177.84375,545.1875 C -175.89162,525.29924 -159.08267,510.7771 -143.30825,500.5325 C -133.94126,495.31399 -123.88871,488.75884 -112.71875,489.5 C -97.515814,499.63485 -77.15446,501.86427 -60.25,494.5625 C -55.668162,492.72993 -51.282336,490.12594 -47.3125,487.09375 L -46.524476,487.70939 L -46.3125,487.875 z "
             style="opacity:0.08333297;fill:#000000;fill-opacity:1;stroke:none;stroke-width:4;stroke-miterlimit:4;stroke-opacity:1;display:block" />
          <path
             id="path3031"
             d="M -48.0625,485.5 C -65.2353,499.42313 -91.472075,500.92185 -109.9375,488.96875 C -114.68763,485.54767 -121.00274,488.44338 -126,489.875 C -143.75536,496.83646 -160.08121,508.19244 -171.4375,523.5 C -177.93445,532.55815 -182.06247,544.41814 -178.25575,555.50071 C -172.92815,576.96932 -166.75483,599.022 -153.53426,616.95718 C -146.35675,626.73596 -134.88724,634.39762 -122.15625,632.84375 C -105.91885,630.86992 -92.754324,619.95261 -81.197397,609.21902 C -57.590746,586.93715 -39.547196,559.2639 -17.53125,535.34375 C -13.047553,531.10964 -8.5444635,525.45732 -2.0625,524.71875 C 0.25547892,524.95249 1.6962412,527.2941 3.59375,528.5 C 1.5564296,517.74534 -4.2889725,507.66624 -13.5625,501.84375 C -22.837083,495.09198 -34.820958,493.37222 -44.34375,487.1875 C -45.757542,486.66153 -46.674679,483.40177 -48.0625,485.5 z M -47,488.71875 C -38.429236,495.45606 -26.674036,496.87949 -17.46875,502.75 C -9.9606016,507.0167 -4.0653678,513.833 -1.28125,522.03125 C -8.3978765,521.46261 -13.328754,527.50233 -18.125926,531.7917 C -35.099181,549.57691 -49.099742,569.90184 -65.40625,588.34375 C -78.617045,603.12655 -92.537215,618.41161 -110.81485,626.80628 C -120.66268,631.47879 -133.18825,631.40229 -141.90739,624.48829 C -154.58418,614.80093 -161.14265,599.62556 -166.62889,585.0395 C -170.83953,573.08007 -174.53876,560.47537 -176.7718,547.86123 C -177.00873,533.02074 -166.83764,520.79838 -156.30201,511.46058 C -145.18941,502.15111 -132.43448,494.02907 -118.1875,490.6875 C -114.86498,489.76881 -111.60997,490.61022 -109.0625,492.8125 C -90.113607,503.89645 -64.598775,501.74724 -47.34375,488.46875 L -47,488.71875 z "
             style="opacity:0.08333297;fill:#000000;fill-opacity:1;stroke:none;stroke-width:4;stroke-miterlimit:4;stroke-opacity:1;display:block" />
          <path
             id="path3036"
             d="M -47.25,483.4375 C -64.247114,498.23919 -91.327164,500.31716 -110.03125,487.53125 C -115.55917,484.65743 -122.26392,487.52915 -127.71875,489.375 C -145.0938,496.48164 -161.10775,507.68517 -172.3125,522.875 C -179.01225,532.08813 -183.16258,544.39898 -179.31825,555.75071 C -173.9923,577.35285 -167.72532,599.4907 -154.41609,617.6188 C -147.02005,627.72649 -135.04808,635.54518 -122.03125,633.90625 C -105.39606,631.96313 -91.917089,620.65647 -80.051044,609.65678 C -56.703197,587.41308 -38.787573,560.24665 -17.15542,536.52108 C -12.645628,532.27731 -8.4677554,526.82173 -2.125,525.78125 C 0.81357573,526.78622 2.8747165,529.77065 5.53125,531.5 C 3.4106619,521.80827 0.084301134,511.89391 -7.53125,505.1875 C -16.981,496.00641 -30.628785,493.36554 -42.034551,487.41421 C -43.987521,486.37396 -45.432405,484.79774 -46.84375,483.125 L -47.25,483.4375 z M -47.1875,490 C -37.939254,496.79574 -25.516918,498.23322 -16.006205,504.94534 C -10.049111,508.82419 -5.3874189,514.40282 -2.90625,520.90625 C -10.475389,521.51379 -15.645317,528.15261 -20.844432,532.9892 C -45.233336,559.6374 -64.790008,590.84454 -92.65625,614.03125 C -102.90015,622.15359 -115.44178,630.55327 -129.28125,628.71875 C -142.45024,626.55518 -151.1323,614.98832 -157.13883,603.99135 C -166.19863,586.75736 -171.58992,567.50343 -175.6875,548.34375 C -176.14329,533.82541 -166.21284,521.82356 -156,512.625 C -144.72848,503.14627 -131.72684,494.73128 -117.09375,491.59375 C -112.41673,490.30121 -109.26773,494.74881 -105.19963,496.02518 C -86.706215,504.57443 -63.64531,501.94616 -47.375,489.84375 L -47.1875,490 z "
             style="opacity:0.08333297;fill:#000000;fill-opacity:1;stroke:none;stroke-width:4;stroke-miterlimit:4;stroke-opacity:1;display:block" />
          <path
             id="path3041"
             d="M -47.9375,482.59375 C -64.952601,497.51889 -92.223953,498.99879 -110.8125,485.90625 C -121.09045,483.53782 -131.09103,489.68289 -140.03125,493.96875 C -158.10936,504.41201 -177.3766,519.73176 -181.5,541.46875 C -183.18607,553.20626 -177.71517,564.45834 -175.13492,575.57812 C -168.58752,595.61901 -160.81958,617.87953 -142.625,630.15625 C -128.31149,639.64309 -109.56916,634.20638 -96.735024,624.751 C -62.983457,600.89731 -41.911788,564.01355 -13.71875,534.59375 C -10.264613,531.77879 -6.3807919,526.59153 -1.5625,527.15625 C 1.2450924,528.40678 9.7993067,538.87987 6.4207475,530.60013 C 4.2101521,517.23107 -3.155919,504.64424 -15.25,498.15625 C -24.379529,492.25693 -36.012039,491.06691 -44.4375,484.1875 C -45.695459,483.42609 -46.419246,480.17395 -47.9375,482.59375 z M -47.375,491.25 C -34.257125,499.91829 -15.608616,501.0822 -6.78125,515.6875 C -5.5574443,517.67084 -3.1416816,520.42289 -6.78125,520.53125 C -20.341259,527.44344 -28.782645,541.03034 -38.670656,552.20527 C -58.915734,576.66983 -77.826408,604.13782 -104.8125,621.28125 C -115.34491,628.22033 -130.40271,631.09246 -140.90625,622.53125 C -157.40782,608.97068 -163.85573,587.3684 -169.82562,567.72274 C -172.48082,557.33655 -177.44567,545.80457 -172.15625,535.34375 C -162.84914,515.58526 -143.03009,501.88716 -123.09375,494.25 C -118.43835,492.51588 -113.02451,491.29868 -109.15625,495.25 C -90.038551,505.91785 -64.970806,503.83825 -47.375,491.25 z "
             style="opacity:0.08333297;fill:#000000;fill-opacity:1;stroke:none;stroke-width:4;stroke-miterlimit:4;stroke-opacity:1;display:block" />
          <path
             id="path3046"
             d="M -48.59375,481.75 C -65.328965,496.31721 -92.145816,498.00887 -110.34375,484.75 C -121.83814,482.4516 -133.1012,489.21422 -142.99751,494.39485 C -160.78838,505.23383 -179.2745,520.63812 -182.71875,542.28125 C -183.95329,553.85827 -178.76331,564.88955 -176.17048,575.89198 C -169.64718,595.99372 -161.92307,617.8354 -144.09375,630.5 C -130.10549,640.45646 -111.0296,636.10467 -97.908822,626.83424 C -63.988166,603.76145 -42.681087,567.33666 -15.1875,537.59375 C -11.301382,534.28138 -7.3209437,528.51037 -1.96875,528.1875 C 1.2992963,530.32607 7.5638332,537.02606 9.1150265,536.47188 C 6.2071784,523.50591 2.5338459,509.35862 -8.84375,501.21875 C -18.839663,492.58086 -32.975258,491.11723 -43.46875,483.65625 C -45.394675,482.08078 -46.168489,478.35448 -48.59375,481.75 z M -47.34375,492.625 C -34.1054,500.92528 -15.549468,502.35865 -7.15625,517.09375 C -4.266338,520.16047 -10.291216,519.89936 -11.75,521.96875 C -29.794858,536.17731 -42.249444,556.21835 -57.161138,573.46873 C -73.563454,592.66538 -89.714706,613.53919 -113.21875,624.28125 C -124.02414,629.32455 -137.26269,626.6188 -144.96875,617.46875 C -160.96499,599.39992 -166.86585,575.12045 -172.66185,552.27549 C -176.44347,537.21506 -164.86722,523.5875 -154.53125,514.25 C -143.00898,504.82522 -129.78798,495.62385 -114.78125,493.625 C -107.54852,497.35783 -99.908044,501.36419 -91.5625,502.4375 C -76.197785,505.06217 -60.009039,501.17648 -47.34375,492.625 z "
             style="opacity:0.08333297;fill:#000000;fill-opacity:1;stroke:none;stroke-width:4;stroke-miterlimit:4;stroke-opacity:1;display:block" />
          <path
             id="path3051"
             d="M -49.28125,480.875 C -66.015049,495.52636 -92.718688,496.70679 -110.5,483.34375 C -122.75687,481.84062 -134.70618,488.48953 -145.1966,494.4284 C -162.5644,505.38674 -180.51903,520.76099 -183.78125,542.15625 C -185.10729,553.8528 -179.8527,565.02531 -177.23298,576.20448 C -170.65753,596.44265 -162.77884,618.64523 -144.6875,631.40625 C -130.52781,641.41913 -111.59463,637.45539 -98.15625,628.3125 C -63.136731,604.92917 -41.722193,567.44851 -13.3125,537.25 C -10.074764,534.24971 -6.7982517,530.36717 -2.4375,529.1875 C 1.6881485,532.08812 8.6068843,539.26202 11.024411,539.47105 C 7.59024,525.72361 4.7662746,510.19825 -7.25,501.09375 C -17.249271,492.13177 -31.250172,490.32088 -42.3125,483.21875 C -45.016013,481.03745 -45.905218,476.43103 -49.28125,480.875 z M -47.40625,493.90625 C -34.328052,501.82409 -16.423286,503.31412 -8.09375,517.65625 C -7.3910146,519.6179 -12.305671,520.09911 -13.59375,521.9375 C -32.86491,538.13166 -46.443121,560.00608 -62.99084,578.79366 C -77.9879,595.93369 -93.322088,614.78575 -115.03125,623.78125 C -126.1306,628.6558 -139.09127,624.09651 -146.125,614.59375 C -161.07845,595.55167 -167.03068,571.29622 -172.40625,548.0625 C -172.48995,531.03254 -158.28623,517.9247 -145.5,508.53125 C -136.00304,502.31193 -125.57519,495.59749 -114.25,494.75 C -94.367124,508.04176 -66.989198,507.17409 -47.40625,493.90625 z "
             style="opacity:0.08333297;fill:#000000;fill-opacity:1;stroke:none;stroke-width:4;stroke-miterlimit:4;stroke-opacity:1;display:block" />
          <path
             id="path3056"
             d="M -49.96875,480.03125 C -66.524297,494.5815 -93.127482,495.51971 -110.65625,481.9375 C -115.50664,481.93093 -121.54731,482.20389 -126.53125,484.28125 C -148.09424,492.47782 -168.55791,506.74469 -180.0625,527.1875 C -185.63728,537.14334 -186.69901,549.55143 -182.6875,560.375 C -176.41933,584.10519 -169.30971,609.42206 -151.5,627.375 C -140.28656,638.91286 -122.2808,641.5088 -107.875,634.65625 C -82.400796,622.9407 -64.494498,600.1337 -46.82043,579.20882 C -33.076411,563.29111 -21.573068,544.87239 -5.15625,531.59375 C -0.67449024,528.4091 2.8560615,536.67487 6.8909459,538.23967 C 14.108544,545.98319 13.290263,541.27956 10.643406,533.74356 C 8.0145344,520.97023 3.5126037,507.4701 -7.5,499.5 C -17.41143,491.00589 -30.937651,489.19997 -41.71875,482.3125 C -44.994559,479.20522 -45.762058,474.87814 -49.96875,480.03125 z M -47.40625,495.21875 C -34.822576,502.63954 -16.812188,504.43758 -9.375,518.0625 C -24.744873,527.14875 -34.429879,542.72199 -45.906892,555.99573 C -64.723712,578.78378 -82.449348,603.8518 -108.09375,619.40625 C -117.67748,625.40323 -131.27791,627.20265 -140.1875,618.9375 C -156.08423,604.35846 -161.95975,582.73269 -167.85047,562.65851 C -170.36626,553.7841 -173.49987,543.94064 -168.5625,535.34375 C -159.11301,517.05604 -140.76965,504.56351 -121.96875,497.3125 C -118.1481,495.84195 -113.97373,494.89067 -110.75,498.125 C -91.272924,508.95356 -65.898511,507.42982 -47.40625,495.21875 z "
             style="opacity:0.08333297;fill:#000000;fill-opacity:1;stroke:none;stroke-width:4;stroke-miterlimit:4;stroke-opacity:1;display:block" />
          <path
             id="path3061"
             d="M -50.625,479.15625 C -67.194867,493.73523 -93.586114,494.21569 -110.78125,480.5625 C -115.03595,481.29426 -120.53911,480.70361 -125.02033,482.66235 C -147.39094,490.46408 -168.3402,505.13906 -180.5625,525.75 C -186.59688,536.26403 -187.98551,549.18767 -183.75,560.65625 C -177.66052,583.85542 -170.6391,608.28698 -154.0625,626.34375 C -143.43034,638.43544 -125.37898,642.98781 -110.40625,636.8125 C -85.315137,626.8746 -67.604219,605.26152 -50.467159,585.34062 C -35.347265,568.05691 -22.859545,548.16599 -5.4375,533.125 C -1.7717462,529.02705 1.2705152,536.59115 4.6212859,537.82061 C 8.1599421,539.79185 17.879705,551.35987 13.845074,541.57285 C 9.9290436,527.03376 7.6144033,510.33003 -4.875,500.25 C -14.886579,490.85759 -28.895757,488.49969 -40.4375,481.90625 C -43.508726,479.67938 -45.731622,472.88178 -49.328163,478.13339 L -50.113329,478.75268 L -50.625,479.15625 z M -47.28125,496.5625 C -35.128241,503.54676 -19.063946,505.05909 -10.78125,517.59375 C -26.590355,527.50946 -36.784798,543.92274 -48.78125,557.84375 C -67.088201,579.94561 -84.37286,604.1835 -109.54208,618.93276 C -118.83863,624.68318 -131.99936,625.65129 -140.21875,617.5 C -155.52003,602.71074 -161.37154,581.19806 -167.0625,561.3125 C -169.51886,553.01149 -172.18117,543.85774 -167.5625,535.8125 C -158.22105,517.75254 -140.14784,505.53487 -121.625,498.34375 C -118.07511,496.99148 -114.22608,496.04148 -111.25,499.0625 C -91.518764,510.14843 -66.098229,508.39763 -47.28125,496.5625 z "
             style="opacity:0.08333297;fill:#000000;fill-opacity:1;stroke:none;stroke-width:4;stroke-miterlimit:4;stroke-opacity:1;display:block" />
        </g>
        <g
           id="g3066">
          <path
             id="path3080"
             d="M -83.03125,346.96875 C -106.85582,347.49659 -129.30909,362.5707 -139.3125,384.03125 C -155.13478,414.35971 -145.55008,455.12641 -117.1875,474.40625 C -98.267756,488.39028 -70.5771,489.48396 -50.53125,477.1875 C -23.294864,461.7825 -10.38561,427.24478 -18.78125,397.3125 C -25.118298,372.147 -46.931628,351.27772 -72.84375,347.65625 C -76.204349,347.12349 -79.626682,346.79177 -83.03125,346.96875 z M -81.5,347.65625 C -53.857021,347.76461 -28.60245,367.80456 -20.625,393.8125 C -10.679421,423.3938 -22.156163,459.06184 -49.03125,475.46875 C -69.44024,488.768 -98.056601,488.14739 -117.53426,473.2025 C -143.62568,454.85482 -153.36212,417.88292 -140.59356,388.76055 C -132.03387,367.43401 -112.29536,350.87582 -89.1875,348.25 C -86.638263,347.92466 -84.072389,347.66882 -81.5,347.65625 z "
             style="opacity:0.08333297;fill:#000000;fill-opacity:1;stroke:none;stroke-width:4;stroke-miterlimit:4;stroke-opacity:1;display:block" />
          <path
             id="path3085"
             d="M -83.0625,345.875 C -102.40529,346.57576 -121.2979,355.96918 -132.80523,371.52305 C -146.74535,389.4489 -151.69839,414.31755 -145.21875,436.3125 C -137.98327,463.49884 -113.25773,485.58046 -84.673518,486.82808 C -61.560027,487.99964 -39.15961,475.26934 -26.913127,456.14196 C -12.087119,433.85069 -11.325872,402.71486 -24.923665,379.7121 C -36.400489,359.05709 -59.25462,345.444 -83.0625,345.875 z M -81.46875,348.75 C -57.252163,348.95808 -34.430443,364.58423 -24.735838,386.46198 C -12.40835,412.31966 -17.888697,445.87367 -38.5625,465.78125 C -54.707053,482.16858 -80.747532,488.73399 -102.4375,480.15625 C -125.87514,471.30553 -142.56986,448.17312 -144.71649,423.23913 C -147.69096,395.66024 -132.61201,366.21945 -107.3105,354.59915 C -99.19519,350.99256 -90.390572,348.90652 -81.46875,348.75 z "
             style="opacity:0.08333297;fill:#000000;fill-opacity:1;stroke:none;stroke-width:4;stroke-miterlimit:4;stroke-opacity:1;display:block" />
          <path
             id="path3090"
             d="M -83.125,344.8125 C -103.81973,345.49406 -123.83693,356.09633 -135.43548,373.26097 C -148.45987,391.43523 -152.47848,415.63308 -146.13991,437.15182 C -138.72358,464.05732 -114.21745,486.17131 -85.862679,487.82655 C -62.255032,489.49851 -39.07175,476.79654 -26.3125,457.21875 C -10.617964,433.99556 -10.115355,401.3419 -24.875,377.625 C -36.766371,357.48109 -59.582,344.30632 -83.125,344.8125 z M -81.46875,349.8125 C -57.625358,350.07825 -35.182294,365.49304 -25.730439,386.92814 C -13.515631,412.44472 -19.044317,445.46503 -39.34375,465 C -54.876423,480.75361 -79.793137,487.42812 -100.96875,479.53125 C -124.25739,471.30406 -141.2498,448.44111 -143.59375,423.65625 C -147.12975,393.23438 -128.21233,360.52321 -98.167319,352.42793 C -92.754918,350.8223 -87.116819,349.91716 -81.46875,349.8125 z "
             style="opacity:0.08333297;fill:#000000;fill-opacity:1;stroke:none;stroke-width:4;stroke-miterlimit:4;stroke-opacity:1;display:block" />
          <path
             id="path3095"
             d="M -83.15625,343.71875 C -108.20454,344.28128 -131.6923,360.01759 -142.25,382.59375 C -158.33791,413.54183 -149.26923,454.93251 -121.125,475.59375 C -100.97256,491.61931 -70.839459,493.43238 -48.90625,480.03125 C -22.154175,464.924 -8.2541628,431.77655 -14.40625,401.75 C -19.191742,375.0416 -40.048188,351.63739 -66.71875,345.53125 C -72.080853,344.25182 -77.623072,343.48084 -83.15625,343.71875 z M -81.46875,350.90625 C -55.273406,351.07831 -31.27519,370.14009 -23.75,394.84375 C -13.979215,423.61566 -25.728905,458.59606 -52.53125,473.75 C -72.757678,486.02827 -100.58956,483.93644 -118.5625,468.25 C -143.40928,448.66476 -150.14486,410.68593 -134.375,383.4375 C -124.21412,363.75896 -103.51217,351.0965 -81.46875,350.90625 z "
             style="opacity:0.08333297;fill:#000000;fill-opacity:1;stroke:none;stroke-width:4;stroke-miterlimit:4;stroke-opacity:1;display:block" />
          <path
             id="path3100"
             d="M -83.1875,342.625 C -108.65657,343.21882 -132.47638,359.12483 -143.21875,382.125 C -159.11929,412.53282 -150.83205,453.5163 -123.875,474.8125 C -104.18074,491.67935 -74.184102,494.98426 -51.40625,482.65625 C -23.83516,468.80419 -8.2303461,436.48341 -12.586963,406.03826 C -15.933399,378.39692 -35.979219,352.97909 -63.09375,345.40625 C -69.498828,343.48442 -76.401351,342.36202 -83.1875,342.625 z M -81.5,352 C -55.377401,352.14592 -31.559443,371.44971 -24.375,396.375 C -15.545412,424.52412 -27.040767,458.03755 -53.09375,472.8125 C -73.364199,485.16914 -101.08335,482.58913 -118.8125,466.65625 C -142.80738,446.80963 -148.7916,409.80856 -132.95381,383.09351 C -122.84917,364.30221 -102.86084,352.20571 -81.5,352 z "
             style="opacity:0.08333297;fill:#000000;fill-opacity:1;stroke:none;stroke-width:4;stroke-miterlimit:4;stroke-opacity:1;display:block" />
          <path
             id="path8323"
             d="M -83.25,341.53125 C -107.98699,342.15704 -131.3733,356.96066 -142.75,378.8125 C -159.47163,408.02377 -153.83614,448.09238 -129.5625,471.1875 C -111.30704,489.8112 -81.844625,496.64253 -57.5,486.59375 C -27.102268,475.06917 -8.0961667,442.14083 -11.100848,410.06492 C -12.958758,380.85647 -33.262276,353.18304 -61.625,344.6875 C -68.594886,342.5597 -75.917392,341.23928 -83.25,341.53125 z M -81.5,353.09375 C -55.04008,353.2522 -31.198847,373.38667 -24.85354,398.71245 C -17.018965,426.56998 -29.290455,459.21393 -55.375,472.8125 C -75.706627,484.39298 -102.98097,480.59879 -119.71875,464.375 C -142.51487,444.27771 -147.31078,407.82751 -131.125,382.125 C -120.86373,364.27629 -101.87724,353.4088 -81.5,353.09375 z "
             style="opacity:0.08333297;fill:#000000;fill-opacity:1;stroke:none;stroke-width:4;stroke-miterlimit:4;stroke-opacity:1;display:block" />
          <path
             id="path3110"
             d="M -83.28125,340.4375 C -108.38276,341.07594 -132.18579,356.11583 -143.71875,378.3125 C -161.08743,408.7521 -154.66603,450.50337 -128.34375,473.84375 C -109.12972,492.09584 -78.99971,497.67303 -54.75,486.65625 C -25.988241,474.50185 -7.9050552,443.19551 -9.84375,412.34375 C -10.872275,381.83652 -31.75808,352.4569 -61.3125,343.65625 C -68.392213,341.45158 -75.834591,340.14683 -83.28125,340.4375 z M -81.53125,354.1875 C -56.799714,354.3278 -33.952889,372.43587 -26.84375,395.90625 C -17.373598,423.80812 -29.225088,458.03984 -55.90625,471.84375 C -76.244267,483.42781 -103.3013,479.35619 -119.84375,462.78125 C -141.80662,442.71434 -145.91746,406.73506 -129.6692,381.8323 C -119.74836,364.94311 -100.99224,354.41485 -81.53125,354.1875 z "
             style="opacity:0.08333297;fill:#000000;fill-opacity:1;stroke:none;stroke-width:4;stroke-miterlimit:4;stroke-opacity:1;display:block" />
          <path
             id="path3115"
             d="M -83.3125,339.34375 C -109.12188,339.98173 -133.54069,355.6453 -145.13656,378.65835 C -162.41504,409.71945 -155.30271,452.03887 -128.35165,475.29529 C -108.58378,493.63956 -77.740443,498.79015 -53.28125,487.1875 C -23.886126,474.31 -5.863507,441.38312 -8.9375,409.59375 C -11.011621,379.15921 -32.48933,350.53667 -62.1875,342.25 C -69.019139,340.24323 -76.173675,339.07928 -83.3125,339.34375 z M -81.53125,355.28125 C -55.992421,355.39635 -33.029956,374.9357 -26.90625,399.4375 C -19.329481,426.53419 -31.575671,458.47292 -57.21875,471.34375 C -76.978957,482.18238 -103.3131,477.92391 -119.125,462 C -149.51893,435.01078 -142.8518,379.33604 -106.03125,361.21875 C -98.391753,357.58737 -89.98048,355.46738 -81.53125,355.28125 z "
             style="opacity:0.08333297;fill:#000000;fill-opacity:1;stroke:none;stroke-width:4;stroke-miterlimit:4;stroke-opacity:1;display:block" />
        </g>
        <g
           id="g3120">
          <path
             id="path3134"
             d="M 2.875,531.6875 C -13.394414,533.48458 -23.941646,548.63476 -32.5625,561 C -37.463631,568.34078 -41.669308,575.90471 -45.8125,583.65625 C -30.668645,579.90623 -16.815037,590.35861 -5.0669925,598.33917 C 20.46797,616.41577 42.416464,640.80294 72.0625,652.1875 C 85.797946,657.61943 102.07327,654.42075 111.4375,642.78125 C 125.23621,626.48355 130.843,604.96423 135.4375,584.46875 C 135.1456,569.08654 120.84401,559.17372 109.09375,551.6875 C 96.639618,544.89241 83.279169,537.70965 68.8125,537.3125 C 62.931565,539.89905 57.112362,543.78234 50.28125,544.34375 C 37.703832,546.43975 24.997668,542.26401 15.1875,534.59375 C 11.412707,532.56968 7.1905629,531.42033 2.875,531.6875 z M 3.71875,532.21875 C 14.80853,531.77561 21.915128,542.51247 32.375,544.09375 C 44.549453,547.58347 57.901948,544.81594 68.3125,538.25 C 80.485615,537.71922 91.888936,543.87995 102.59375,548.875 C 115.26159,556.01484 129.74373,564.64176 134.1875,579.4375 C 135.92182,588.78824 130.87455,597.89329 128.91146,606.85787 C 123.12566,623.8663 115.72277,643.23973 98.53125,651.53125 C 82.204775,658.4604 64.639189,649.39787 51.03543,640.613 C 24.46674,623.69702 3.071175,599.036 -25.5625,585.28125 C -31.356501,582.78582 -37.817158,581.46888 -44.1875,582.34375 C -34.479209,565.23684 -24.75855,546.44885 -7.6875,535.6875 C -4.2338642,533.67577 -0.32137898,532.27299 3.71875,532.21875 z "
             style="opacity:0.08333297;fill:#000000;fill-opacity:1;stroke:none;stroke-width:4;stroke-miterlimit:4;stroke-opacity:1;display:block" />
          <path
             id="path3139"
             d="M 2.78125,530.59375 C -11.247301,531.8986 -21.066393,543.56699 -29.0625,554.03125 C -36.224897,563.84564 -42.272767,574.53344 -47.9375,585.34375 C -37.025974,581.28333 -25.597078,586.45897 -16.346574,592.09611 C 11.658618,609.49686 34.191278,635.22042 63.78125,649.96875 C 75.258899,655.66458 89.679767,658.62194 101.40625,652.1875 C 115.51373,644.38731 122.83997,628.9143 128.33708,614.2544 C 131.66071,604.41559 134.90803,594.2293 136.53125,583.90625 C 136.34193,572.09975 127.15958,563.32531 118.46875,556.65625 C 105.28418,547.17218 90.366646,539.84899 74.4291,536.54564 C 70.746597,535.67176 66.863467,535.98613 63.999154,538.46499 C 49.586996,546.80867 30.177896,545.00661 17.3125,534.625 C 13.100203,531.87765 7.9096637,530.2731 2.78125,530.59375 z M 3.75,533.3125 C 11.090471,532.87259 16.58766,537.98831 22.4375,541.40625 C 36.355988,548.93571 54.896437,548.42948 68.09375,539.40625 C 75.638805,538.42197 82.987261,541.79862 89.9375,544.25 C 104.72802,550.46073 119.56268,558.41815 129.30256,571.4226 C 133.08196,576.63566 134.93967,583.56014 132.46278,589.81045 C 127.88651,608.06988 122.38356,627.03007 110.125,641.46875 C 103.26392,649.592 92.634091,654.36661 81.884514,652.62953 C 63.966899,649.81691 49.132339,638.32142 34.984535,627.72039 C 16.559869,613.81347 -0.29490556,597.25494 -20.659069,586.41013 C -27.292604,582.96042 -34.66936,580.3929 -42.28125,581.125 C -33.714474,565.79064 -24.717459,549.87205 -10.71875,538.90625 C -6.4829037,535.89213 -1.5964706,533.3797 3.75,533.3125 z "
             style="opacity:0.08333297;fill:#000000;fill-opacity:1;stroke:none;stroke-width:4;stroke-miterlimit:4;stroke-opacity:1;display:block" />
          <path
             id="path3144"
             d="M 2.6875,529.53125 C -11.025907,530.67073 -20.91507,541.7384 -28.84375,551.9375 C -37.133569,562.83569 -43.678914,574.91914 -50.03125,587.03125 C -43.668854,584.76854 -36.663062,584.0892 -30.261306,586.60236 C -13.300327,592.87835 0.33465317,605.30603 14.435143,616.38074 C 31.978948,630.31896 49.135873,645.7543 70.295609,653.86904 C 81.859987,658.4362 96.215095,658.24827 106.21875,650.4375 C 120.33356,639.74833 126.84294,622.54984 132.18986,606.16562 C 134.18607,598.82074 136.72707,591.47196 137.59375,583.90625 C 137.50039,571.77681 128.11479,562.65633 119.125,555.78125 C 105.83491,546.22832 90.696678,538.75678 74.585349,535.48314 C 70.605808,534.55314 66.39116,534.93957 63.21875,537.65625 C 49.096123,545.70666 30.299977,543.76818 17.90625,533.6875 C 13.409312,530.81309 8.0945598,529.18287 2.6875,529.53125 z M 3.78125,534.375 C 12.522707,533.95458 18.276595,541.55171 25.96875,544.25 C 39.540705,549.93976 56.270382,548.67219 68.5,540.4375 C 75.58578,539.62743 82.496854,542.82525 89.070786,545.07272 C 103.70358,551.15768 118.31199,558.95034 128.09375,571.59375 C 131.80393,576.56466 133.93603,583.3703 131.40028,589.56045 C 126.85321,607.63006 121.42527,626.44959 109.3125,640.75 C 102.51333,648.84103 91.85016,653.43614 81.148527,651.44741 C 63.680813,648.20281 49.289309,637.16121 35.46875,626.6875 C 16.486152,612.35098 -0.7892236,595.23182 -22.125,584.4375 C -27.830319,581.7345 -34.006336,579.74498 -40.40625,579.9375 C -32.097592,565.31412 -23.403743,550.19601 -10.0625,539.78125 C -6.0384588,536.93564 -1.3256496,534.47498 3.78125,534.375 z "
             style="opacity:0.08333297;fill:#000000;fill-opacity:1;stroke:none;stroke-width:4;stroke-miterlimit:4;stroke-opacity:1;display:block" />
          <path
             id="path3149"
             d="M 2.65625,528.4375 C -14.74347,530.07961 -26.102648,545.98846 -35.3125,559.1875 C -41.638779,568.65662 -46.84636,578.62285 -52.15625,588.71875 C -43.723942,585.28834 -34.105197,585.17722 -26.03125,589.40625 C 7.7730424,606.5014 32.0521,638.56638 67.052242,653.81196 C 81.050401,660.28595 99.173015,659.69278 110.46875,648.40625 C 127.36711,631.87961 133.39448,607.76098 138.625,585.34375 C 139.37295,570.01373 126.02592,558.89538 114.50371,551.23872 C 100.71787,542.8809 85.620316,534.89448 69.21875,533.96875 C 63.312308,534.87801 58.885617,539.92869 52.75,540.53125 C 40.130851,543.75892 26.749049,539.57938 16.75,531.75 C 12.479633,529.37895 7.5772222,528.11931 2.65625,528.4375 z M 3.8125,535.46875 C 13.830856,535.43151 20.368327,545.04659 29.8125,546.78125 C 43.171326,551.05788 58.029121,548.49682 69.65625,541.3125 C 85.37293,542.64265 99.664441,550.47794 112.78125,558.8125 C 121.19278,565.01638 131.51379,573.07298 131.40625,584.625 C 126.28023,605.47128 120.94835,628.09664 105,643.46875 C 94.620074,653.58572 78.371514,651.80777 66.53181,645.60731 C 33.141985,629.36117 9.2502544,598.2181 -24.28125,582.25 C -28.820146,580.43308 -33.573511,578.93739 -38.53125,578.875 C -29.607321,563.65489 -20.314632,546.5164 -4.40625,537.625 C -1.8099139,536.40851 0.90419802,535.48553 3.8125,535.46875 z "
             style="opacity:0.08333297;fill:#000000;fill-opacity:1;stroke:none;stroke-width:4;stroke-miterlimit:4;stroke-opacity:1;display:block" />
          <path
             id="path3154"
             d="M 2.625,527.34375 C -14.798403,528.90075 -26.418223,544.51956 -35.64845,557.7383 C -42.684016,568.16163 -48.447203,579.27116 -54.28125,590.40625 C -45.759472,587.37838 -36.095118,585.47491 -27.78125,589.875 C -3.0254743,601.50668 16.116507,622.33116 38.401141,638.02752 C 54.393374,649.48273 73.41493,662.26668 94.15625,658.3125 C 113.49405,653.88042 124.24973,634.56988 130.6583,617.3219 C 134.50786,606.18597 138.56416,594.8051 139.78125,583.0625 C 138.84707,567.1655 124.5219,556.21497 112.0534,548.3841 C 98.684507,540.93559 84.216463,533.22074 68.5625,532.9375 C 62.530432,534.31195 57.589875,539.26872 51.03125,539.78125 C 38.883968,542.38251 26.790292,538.0907 17.25,530.78125 C 12.828899,528.31563 7.7242434,527.03883 2.625,527.34375 z M 3.84375,536.5625 C 13.345915,536.56614 19.49783,545.65028 28.5625,547.53125 C 42.257661,552.19669 57.766875,549.88523 69.90625,542.40625 C 85.458575,543.91646 100.01679,551.76799 112.99453,560.30926 C 120.89476,566.34265 131.33916,574.42563 130.09278,585.50681 C 125.05975,605.73269 119.73439,627.74732 104.28125,642.65625 C 94.00166,652.67402 78.056472,650.49726 66.40625,644.34375 C 33.305074,627.93787 9.6598654,597.23972 -23.601312,581.37511 C -27.749252,579.58063 -32.327474,578.28785 -36.71875,577.8125 C -27.832233,563.09604 -18.954834,546.57594 -3.1875,538.28125 C -1.0239725,537.27142 1.3720484,536.61538 3.84375,536.5625 z "
             style="opacity:0.08333297;fill:#000000;fill-opacity:1;stroke:none;stroke-width:4;stroke-miterlimit:4;stroke-opacity:1;display:block" />
          <path
             id="path3159"
             d="M 2.59375,526.25 C -14.564166,527.68699 -26.27953,542.5865 -35.433376,555.48584 C -43.452379,567.06214 -49.834167,579.64629 -56.40625,592.09375 C -47.687284,589.64092 -38.186379,585.95307 -29.4375,590.375 C -6.1412236,600.69885 11.630518,619.62269 31.890387,634.51018 C 48.581408,646.93172 67.266252,661.03167 89.21875,660.125 C 108.18418,658.95827 121.19635,642.30463 128.21875,626.125 C 134.04264,612.40365 138.95476,597.92614 140.875,583.1875 C 140.00354,566.45639 124.94339,555.08771 111.84375,546.96875 C 98.460029,539.64261 84.000117,532.02367 68.375,531.84375 C 62.29384,533.25145 56.92164,538.44373 50.1875,538.8125 C 38.556233,541.1995 26.885026,536.78408 17.75,529.8125 C 13.154774,527.2612 7.8658314,525.9356 2.59375,526.25 z M 3.90625,537.65625 C 13.196501,537.84051 19.210322,546.77859 28.1875,548.53125 C 42.108228,553.38844 57.971994,550.92443 70.34375,543.46875 C 86.80933,545.61387 102.13012,553.8422 115.4375,563.46875 C 122.81071,569.43931 132.15593,578.23053 128.23023,588.75239 C 123.12507,608.07336 117.72755,629.56283 101.9375,643.1875 C 90.321687,652.72491 74.094414,647.79621 62.40625,641.09375 C 31.651725,624.07101 8.5809474,595.49055 -23.34375,580.28125 C -27.090252,578.76503 -30.965966,577.46128 -35,576.96875 C -26.251362,562.75505 -17.535079,546.52845 -1.875,538.90625 C -0.035528486,538.17088 1.9176836,537.67731 3.90625,537.65625 z "
             style="opacity:0.08333297;fill:#000000;fill-opacity:1;stroke:none;stroke-width:4;stroke-miterlimit:4;stroke-opacity:1;display:block" />
          <path
             id="path3164"
             d="M 2.5625,525.15625 C -15.304206,526.625 -27.390754,542.15055 -36.90625,555.6875 C -45.159165,567.77783 -51.664258,580.80304 -58.5,593.78125 C -49.219214,591.61913 -39.224814,586.62267 -29.90625,591.375 C -6.7753515,601.56989 11.033164,620.54674 31.202887,635.38518 C 48.370958,648.10314 67.679805,662.66522 90.25,661.125 C 109.27295,659.44043 122.1224,642.80171 129.25,626.53125 C 135.09303,612.60626 140.14149,597.96784 141.96875,582.96875 C 140.95584,565.90423 125.80333,554.30924 112.40625,546.03125 C 98.785773,538.55783 84.165159,530.95962 68.40625,530.75 C 62.684584,531.59653 57.539631,536.97426 51.1875,537.53125 C 39.490875,540.26455 27.543782,536.03269 18.34375,528.875 C 13.552794,526.24353 8.0574212,524.82116 2.5625,525.15625 z M 3.9375,538.75 C 12.815022,539.00316 18.501614,547.51129 27.0625,549.3125 C 41.383684,554.53031 57.764768,552.23713 70.65625,544.5625 C 87.962644,547.23712 104.4443,555.95346 117.86396,566.92375 C 124.13378,572.37337 130.98269,580.68563 126.9292,589.47352 C 121.97263,608.07286 116.62983,628.74754 101.625,642.0625 C 90.571944,651.44078 74.757867,646.88442 63.457918,640.41099 C 32.353247,623.39784 9.0812801,594.34551 -23.0625,579.21875 C -26.363978,577.86811 -29.74369,576.77329 -33.25,576.125 C -24.827741,562.59291 -16.368227,547.13378 -1.4375,539.90625 C 0.26938538,539.1974 2.0854677,538.75931 3.9375,538.75 z "
             style="opacity:0.08333297;fill:#000000;fill-opacity:1;stroke:none;stroke-width:4;stroke-miterlimit:4;stroke-opacity:1;display:block" />
          <path
             id="path3169"
             d="M 2.53125,524.0625 C -16.033909,525.54672 -28.602518,541.80048 -38.3672,555.89455 C -46.822402,568.46385 -53.524825,582.05243 -60.625,595.4375 C -50.704306,593.51964 -40.273891,587.43975 -30.25,592.40625 C -7.2170017,602.62088 10.435141,621.50442 30.546637,636.22893 C 47.66434,648.9948 66.900223,663.34664 89.40625,662.28125 C 108.66501,661.1228 122.22882,644.78429 129.59375,628.375 C 135.87874,614.22017 140.74651,599.20568 143.0625,583.90625 C 142.77013,566.33997 127.43758,554.11452 113.7409,545.5716 C 99.733135,537.74004 84.592464,529.84677 68.25,529.65625 C 62.876052,530.16789 57.850225,535.59822 51.71875,536.28125 C 40.587687,539.09061 28.679972,535.5719 19.8125,528.46875 C 14.631967,525.38879 8.591308,523.70472 2.53125,524.0625 z M 4,539.84375 C 12.378906,540.2069 17.826377,548.20057 25.875,550.0625 C 40.64509,555.67477 57.53929,553.53525 70.96875,545.65625 C 88.00756,548.60744 104.29082,557.00043 117.5625,568.125 C 123.33627,573.20402 129.71181,581.01717 125.88282,589.16491 C 120.95939,607.5923 115.80385,627.84496 101.09375,641.0625 C 90.815703,650.11717 75.507621,645.92578 64.84375,639.90625 C 33.253757,622.95119 9.894936,593.44214 -22.65625,578.21875 C -25.545878,577.04377 -28.496585,575.97393 -31.5625,575.375 C -23.300372,562.35276 -15.070544,547.36261 -0.46875,540.6875 C 0.99921499,540.20468 2.468129,539.8224 4,539.84375 z "
             style="opacity:0.08333297;fill:#000000;fill-opacity:1;stroke:none;stroke-width:4;stroke-miterlimit:4;stroke-opacity:1;display:block" />
        </g>
        <g
           id="g3174">
          <path
             id="path3188"
             d="M 42.71875,425.84375 C 17.764929,426.2473 -3.9428964,447.20096 -7.125,471.625 C -11.896623,498.58971 5.7335774,527.91764 32.84375,533.96875 C 58.730938,540.68924 85.947179,522.00101 92.75,496.9375 C 101.60174,469.80875 86.299355,436.24197 58.21875,428.1875 C 53.187911,426.6958 48.003541,425.76053 42.71875,425.84375 z M 43.5,426.5625 C 63.746006,426.38791 82.492089,439.89387 89.90625,458.5625 C 100.69923,482.62029 91.46574,513.7167 68.84375,527.28125 C 49.238221,540.2682 20.848993,534.88697 6.25,516.75 C -13.893442,494.30376 -10.562596,455.16796 13.6875,437.125 C 22.202401,430.6162 32.722172,426.71367 43.5,426.5625 z "
             style="opacity:0.08333297;fill:#000000;fill-opacity:1;stroke:none;stroke-width:4;stroke-miterlimit:4;stroke-opacity:1;display:block" />
          <path
             id="path3193"
             d="M 42.6875,424.75 C 22.333973,425.29555 3.468797,438.77579 -4.15625,457.4375 C -13.832247,479.00371 -8.3593091,506.49833 9.0512342,522.31368 C 22.127842,534.92694 42.711092,540.00063 60.09375,533.5625 C 80.594647,526.2569 94.898635,505.99727 96.15625,484.28125 C 98.020706,459.46475 82.448199,433.81749 58.011114,426.992 C 53.049868,425.56046 47.866092,424.64823 42.6875,424.75 z M 43.53125,427.65625 C 59.832874,427.73767 75.604803,436.36931 84.1875,450.15625 C 95.52449,467.04228 96.392016,490.46374 85.96875,507.96875 C 76.635386,524.57655 57.254183,535.89816 37.853781,532.99996 C 15.63245,530.22532 -2.2153679,511.10815 -5.180604,489.21151 C -8.8747794,467.58129 1.3597722,444.19088 20.824705,433.77571 C 27.717193,429.95882 35.594047,427.77568 43.53125,427.65625 z "
             style="opacity:0.08333297;fill:#000000;fill-opacity:1;stroke:none;stroke-width:4;stroke-miterlimit:4;stroke-opacity:1;display:block" />
          <path
             id="path3198"
             d="M 42.625,423.6875 C 21.691268,424.19277 2.3434564,438.1978 -5.3671919,457.50302 C -14.716041,478.93242 -9.5336614,506.0466 7.25,522.09375 C 21.376051,536.55023 44.56378,541.76056 63.28125,533.46875 C 83.701263,524.90028 97.205325,503.44814 97.358099,481.36098 C 97.958412,457.23102 82.377717,432.9007 58.84375,426.09375 C 53.601325,424.53971 48.107285,423.57929 42.625,423.6875 z M 43.5625,428.71875 C 59.069355,428.88578 74.224465,436.83443 82.65625,449.84375 C 92.459558,463.8566 94.929996,482.76526 89.0625,498.875 C 82.413527,517.59404 64.323514,532.44123 43.875,532.34375 C 23.276915,532.46267 4.4264847,517.52986 -1.7662379,498.48254 C -9.6335436,476.6996 -2.0154628,450.16165 17.20021,437.27217 C 24.94064,432.01293 34.172821,428.87208 43.5625,428.71875 z "
             style="opacity:0.08333297;fill:#000000;fill-opacity:1;stroke:none;stroke-width:4;stroke-miterlimit:4;stroke-opacity:1;display:block" />
          <path
             id="path3203"
             d="M 42.59375,422.59375 C 17.176771,422.99923 -5.0699078,443.3524 -9.78125,467.90625 C -15.828973,494.52841 -1.4533481,524.45122 24.1875,534.59375 C 45.255507,543.84453 71.060505,536.18958 85,518.375 C 102.64677,497.55788 102.79781,464.40919 85.6875,443.34375 C 75.554705,430.05711 59.266046,422.44939 42.59375,422.59375 z M 43.5625,429.8125 C 63.24596,429.72393 81.191096,443.35422 87.65625,461.8125 C 97.302378,485.39865 86.394444,515.58837 63.25,526.65625 C 43.0717,537.30079 16.679958,528.47512 4.84375,509.53125 C -11.48239,485.65801 -3.7261083,448.65269 22.40625,435.40625 C 28.875371,431.90575 36.203728,429.96777 43.5625,429.8125 z "
             style="opacity:0.08333297;fill:#000000;fill-opacity:1;stroke:none;stroke-width:4;stroke-miterlimit:4;stroke-opacity:1;display:block" />
          <path
             id="path3208"
             d="M 42.5625,421.5 C 17.455375,421.92876 -4.7870669,441.42561 -10.375,465.53125 C -17.290687,491.8501 -4.4631925,522.25832 20.34375,534.0625 C 40.847489,544.83997 67.657907,539.32269 83.03125,522.25 C 103.18335,501.68101 105.06319,466.39018 87.28125,443.65625 C 77.044502,429.54744 59.994208,421.32756 42.5625,421.5 z M 43.5625,430.90625 C 62.328471,430.82867 79.709949,443.59807 86.25,461.1875 C 96.727131,485.42014 84.939106,516.63888 60.375,526.78125 C 40.369589,535.7665 15.449784,525.97344 4.78125,507.40625 C -9.7617882,484.32275 -2.3089841,449.59544 22.434643,436.63575 C 28.895246,433.08191 36.210838,431.02571 43.5625,430.90625 z "
             style="opacity:0.08333297;fill:#000000;fill-opacity:1;stroke:none;stroke-width:4;stroke-miterlimit:4;stroke-opacity:1;display:block" />
          <path
             id="path3213"
             d="M 42.53125,420.40625 C 17.734742,420.85107 -4.4485105,439.53105 -10.875,463.125 C -18.648966,489.16765 -7.3898323,519.78408 16.53125,533.28125 C 36.532656,545.47212 63.88339,542.18189 80.75,526.03125 C 102.92442,506.40978 107.09013,470.37752 90.28125,446.03125 C 80.037536,429.91549 61.621512,420.16394 42.53125,420.40625 z M 43.53125,432 C 62.63589,431.82658 80.124244,445.54343 85.96875,463.5625 C 95.466555,488.01077 81.990891,518.74934 56.84375,526.9375 C 36.108685,534.34954 11.87465,521.94263 3.1875,502.125 C -7.9705259,479.09643 1.0909248,447.70684 24.8125,436.625 C 30.636005,433.73678 37.022401,432.12587 43.53125,432 z "
             style="opacity:0.08333297;fill:#000000;fill-opacity:1;stroke:none;stroke-width:4;stroke-miterlimit:4;stroke-opacity:1;display:block" />
          <path
             id="path3218"
             d="M 42.5,419.3125 C 17.723223,419.7747 -4.7140795,438.11008 -11.5625,461.6875 C -20.255307,488.6826 -8.4656257,521.01405 16.78125,534.65625 C 37.447435,546.89037 65.484404,542.86737 82.375,526 C 104.54097,505.59481 108.083,468.85515 90.5,444.375 C 79.911529,428.49487 61.480175,419.10638 42.5,419.3125 z M 43.53125,433.09375 C 61.789538,432.95725 78.71337,445.80668 84.625,463.03125 C 94.020917,486.05001 82.584131,515.27886 59.46875,524.78125 C 40.5158,533.31271 16.757487,523.93586 6.65625,506.28125 C -7.7081745,483.44573 0.35964096,449.25639 25.28125,437.59375 C 30.937961,434.80812 37.180631,433.23761 43.53125,433.09375 z "
             style="opacity:0.08333297;fill:#000000;fill-opacity:1;stroke:none;stroke-width:4;stroke-miterlimit:4;stroke-opacity:1;display:block" />
          <path
             id="path3223"
             d="M 42.4375,418.21875 C 16.731444,418.70364 -6.3096367,438.03583 -12.96875,462.53125 C -21.140834,489.8016 -9.0203061,521.9427 16.25,535.625 C 36.946823,547.84529 65.010703,544.11264 82.21875,527.65625 C 104.81392,507.6117 109.40651,471.12965 92.84375,445.9375 C 82.29904,428.61211 62.701915,417.90109 42.4375,418.21875 z M 43.53125,434.1875 C 61.826558,434.01393 78.359383,447.20583 83.9375,464.3125 C 92.805903,487.17008 80.617967,515.91073 57.53125,524.40625 C 38.238687,532.01583 15.283954,521.40518 6.28125,503.40625 C -6.168866,480.81049 2.5711147,448.80647 26.680758,438.1256 C 31.972915,435.73538 37.707401,434.27828 43.53125,434.1875 z "
             style="opacity:0.08333297;fill:#000000;fill-opacity:1;stroke:none;stroke-width:4;stroke-miterlimit:4;stroke-opacity:1;display:block" />
        </g>
        <path
           id="path1902"
           d="M 90.169624,536.07211 C 93.2739,541.62423 90.014571,546.37356 85.734977,551.7539 C 76.457088,561.25663 74.161994,554.96536 70.052952,547.31933 C 66.948665,541.76721 68.935385,534.74177 74.487579,531.63753 C 80.022212,528.54312 87.019617,530.50308 90.141543,536.02219 L 90.169624,536.07211 z "
           style="fill:#4569b5;fill-opacity:1;stroke:none;display:block" />
        <path
           id="path1900"
           d="M 126.52527,556.64619 C 120.31623,555.2637 117.83169,559.99947 112.77246,565.38976 C 105.73179,574.34622 106.42964,575.6348 121.51615,579.14237 C 127.72519,580.52486 133.88645,576.60775 135.26897,570.39881 C 136.64711,564.20951 132.76361,558.06765 126.58114,556.65879 L 126.52527,556.64619 z "
           style="fill:#4569b5;fill-opacity:1;stroke:none;display:block" />
        <path
           id="path10366"
           d="M 114.42611,552.19331 C 114.42611,558.55431 109.26348,563.71685 102.90238,563.71685 C 89.297541,564.44122 91.523544,560.58253 91.378672,552.19331 C 91.378672,545.83231 96.541299,540.66976 102.90238,540.66976 C 109.24335,540.66976 114.39445,545.79524 114.42596,552.13604 L 114.42611,552.19331 z "
           style="fill:#4569b5;fill-opacity:1;stroke:none;display:block" />
        <path
           id="path1929"
           d="M 81.21875,528.21875 C 78.628658,528.00272 75.928253,528.54862 73.5,529.90625 C 67.003294,533.53857 64.68011,541.7846 68.3125,548.28125 C 70.332245,552.03955 71.739988,555.77974 74.9375,557.6875 C 76.536256,558.64138 78.668258,558.7993 80.6875,558 C 82.706742,557.2007 84.730922,555.64035 87.15625,553.15625 L 87.25,553.09375 L 87.3125,553 C 89.476786,550.27904 91.481971,547.6398 92.59375,544.6875 C 93.705529,541.7352 93.722434,538.34208 91.90625,535.09375 L 91.875,535.03125 C 89.592145,530.9955 85.53557,528.57881 81.21875,528.21875 z M 79.0625,532.21875 C 82.739763,531.80305 86.462786,533.56424 88.40625,537 L 88.4375,537.0625 C 89.725591,539.36631 89.655465,541.12576 88.84375,543.28125 C 88.037904,545.42115 86.282279,547.80076 84.1875,550.4375 C 84.172243,550.4567 84.171545,550.48077 84.15625,550.5 C 82.030094,552.6476 80.335837,553.83906 79.21875,554.28125 C 78.069848,554.73604 77.617134,554.63685 76.96875,554.25 C 75.671982,553.4763 73.901797,550.26273 71.8125,546.375 L 71.8125,546.34375 C 69.236308,541.73615 70.861068,535.95116 75.46875,533.375 C 76.617231,532.73289 77.836746,532.35732 79.0625,532.21875 z "
           style="opacity:1;fill:#000000;fill-opacity:1;stroke:none;stroke-width:4;stroke-miterlimit:4;stroke-dasharray:none;stroke-opacity:1;display:block" />
        <path
           id="path1931"
           d="M 124.34375,554.4375 C 121.83956,554.50412 119.67653,555.49385 117.9375,556.9375 C 115.6188,558.86236 113.7539,561.43009 111.3125,564.03125 L 111.25,564.09375 L 111.1875,564.15625 C 109.40301,566.4263 108.08,568.23981 107.25,569.96875 C 106.42,571.69769 106.13431,573.74695 107.15625,575.375 C 108.17819,577.00305 109.88567,577.8433 112.125,578.65625 C 114.36433,579.4692 117.26788,580.21151 121.0625,581.09375 L 121.09375,581.09375 C 128.35902,582.71139 135.60103,578.10896 137.21875,570.84375 C 138.83114,563.60244 134.26453,556.36707 127.03125,554.71875 L 126.96875,554.6875 C 126.06059,554.48529 125.17848,554.41529 124.34375,554.4375 z M 122.96875,558.5625 C 123.82798,558.31675 124.80555,558.30692 126.09375,558.59375 L 126.15625,558.625 C 131.28791,559.7944 134.45639,564.83148 133.3125,569.96875 C 132.16518,575.12142 127.0903,578.33479 121.9375,577.1875 C 118.18887,576.31595 115.38333,575.60131 113.46875,574.90625 C 111.55417,574.21119 110.6895,573.5021 110.53125,573.25 C 110.373,572.9979 110.29586,572.82878 110.84375,571.6875 C 111.39164,570.54622 112.6079,568.83317 114.34375,566.625 C 116.88467,563.90034 118.7928,561.44847 120.5,560.03125 C 121.37032,559.30876 122.10952,558.80825 122.96875,558.5625 z "
           style="opacity:1;fill:#000000;fill-opacity:1;stroke:none;stroke-width:4;stroke-miterlimit:4;stroke-dasharray:none;stroke-opacity:1;display:block" />
        <path
           id="path1933"
           d="M 102.90625,538.65625 C 95.463055,538.65625 89.375003,544.74437 89.375,552.1875 L 89.375,552.21875 C 89.409646,554.225 89.286296,556.00351 89.3125,557.65625 C 89.338704,559.30899 89.482425,560.92956 90.375,562.40625 C 91.267575,563.88294 92.907243,564.87868 94.9375,565.34375 C 96.946903,565.80405 99.468785,565.89729 102.90625,565.71875 C 102.93799,565.71875 102.96831,565.71897 103,565.71875 C 110.3998,565.66719 116.4375,559.59891 116.4375,552.1875 L 116.4375,552.125 C 116.40063,544.70643 110.32496,538.65627 102.90625,538.65625 z M 102.90625,542.65625 C 108.16948,542.65627 112.41135,546.89322 112.4375,552.15625 L 112.4375,552.1875 C 112.4375,557.46637 108.18524,561.71875 102.90625,561.71875 L 102.84375,561.71875 L 102.78125,561.71875 C 99.47129,561.89498 97.227005,561.75436 95.84375,561.4375 C 94.460495,561.12064 94.082138,560.78984 93.8125,560.34375 C 93.542862,559.89766 93.334817,559.00134 93.3125,557.59375 C 93.290183,556.18616 93.41279,554.34461 93.375,552.15625 C 93.375002,546.8774 97.627283,542.65625 102.90625,542.65625 z "
           style="opacity:1;fill:#000000;fill-opacity:1;stroke:none;stroke-width:4;stroke-miterlimit:4;stroke-dasharray:none;stroke-opacity:1;display:block" />
        <g
           id="g2850">
          <path
             id="path2864"
             d="M 102.28125,540.3125 C 94.099602,540.50091 89.717191,549.01772 90.9375,556.4375 C 89.828061,561.15853 93.864598,564.81574 98.46875,564.15625 C 105.90211,565.44549 114.57623,561.05424 114.78125,552.8125 C 115.29803,545.99147 109.1726,539.80574 102.28125,540.3125 z M 102.3125,541.03125 C 111.47259,540.07907 117.63605,551.96286 111.84375,558.9375 C 107.58105,564.42242 99.10944,564.46158 93.1875,562.09375 C 90.374133,558.53048 91.80542,552.98371 92.25,548.875 C 93.484723,544.42111 97.810565,541.21697 102.3125,541.03125 z "
             style="opacity:0.08333297;fill:#000000;fill-opacity:1;stroke:none;stroke-width:4;stroke-miterlimit:4;stroke-opacity:1;display:block" />
          <path
             id="path2869"
             d="M 102.25,539.21875 C 94.619107,539.46245 88.997433,546.75948 89.893857,554.23281 C 89.502023,558.24811 89.72379,563.59305 94.375,564.65625 C 100.84988,566.01852 109.20052,565.80484 113.3125,559.9375 C 118.04649,554.18685 115.93496,544.08928 109.0625,540.78125 C 107.02408,539.62026 104.60148,539.07944 102.25,539.21875 z M 102.375,542.125 C 109.75052,541.43382 115.42262,549.98772 112,556.5625 C 109.82224,561.68036 103.70165,562.86809 98.5625,562.28125 C 95.889264,562.46139 92.278145,561.46868 92.8125,558.125 C 92.603109,553.18002 92.352513,547.12207 96.875,544.0625 C 98.475235,542.92333 100.38614,542.2229 102.375,542.125 z "
             style="opacity:0.08333297;fill:#000000;fill-opacity:1;stroke:none;stroke-width:4;stroke-miterlimit:4;stroke-opacity:1;display:block" />
          <path
             id="path8354"
             d="M 102.1875,538.15625 C 94.028219,538.33989 87.8401,546.24454 88.831357,554.23281 C 88.367899,558.52933 88.788151,564.24194 93.65625,565.53125 C 100.02609,566.99168 108.05433,567.11922 112.90625,562.09375 C 119.10885,556.28471 117.91275,544.91262 110.75,540.5 C 108.25636,538.84777 105.228,537.95086 102.1875,538.15625 z M 102.46875,543.1875 C 109.33351,542.56298 114.4729,550.99633 110.59375,556.84375 C 107.47208,562.14741 100.09949,561.83812 94.90625,560.5625 C 92.682516,558.63427 94.437101,554.76658 93.90625,552.15625 C 93.865386,547.43576 97.72774,543.43248 102.46875,543.1875 z "
             style="opacity:0.08333297;fill:#000000;fill-opacity:1;stroke:none;stroke-width:4;stroke-miterlimit:4;stroke-opacity:1;display:block" />
          <path
             id="path2879"
             d="M 102.15625,537.0625 C 92.401412,537.20455 86.167572,547.29903 87.6875,556.40625 C 86.574213,562.33833 91.360028,567.70819 97.34375,567.34375 C 105.54299,568.64902 115.09536,565.17037 117.4375,556.5625 C 120.58116,546.8701 112.3972,536.28652 102.15625,537.0625 z M 102.90625,544.28125 C 110.34158,543.81629 113.77493,554.89458 107.34375,558.71875 C 103.9087,560.66614 98.545933,560.82849 95.125,559.28125 C 94.109462,553.09846 94.851711,544.38713 102.90625,544.28125 z "
             style="opacity:0.08333297;fill:#000000;fill-opacity:1;stroke:none;stroke-width:4;stroke-miterlimit:4;stroke-opacity:1;display:block" />
          <path
             id="path2884"
             d="M 102.09375,535.96875 C 91.993096,536.1219 85.099719,546.45195 86.60175,555.99973 C 85.494421,562.11264 89.873094,568.33136 96.28125,568.34375 C 104.61263,569.68164 114.64663,567.05743 117.875,558.46875 C 122.70215,547.82547 113.75316,535.08496 102.09375,535.96875 z M 102.90625,545.375 C 109.54897,544.95553 112.27973,554.97183 106.40625,558.03125 C 103.42353,559.46048 98.647929,559.63284 96.09375,558.34375 C 95.517896,552.85229 95.759737,545.58353 102.90625,545.375 z "
             style="opacity:0.08333297;fill:#000000;fill-opacity:1;stroke:none;stroke-width:4;stroke-miterlimit:4;stroke-opacity:1;display:block" />
          <path
             id="path2889"
             d="M 102.03125,534.875 C 91.409252,535.06758 83.971994,545.86199 85.508,555.96848 C 84.329654,562.61762 89.215566,569.37464 96.15625,569.40625 C 104.97706,570.90239 115.45523,567.89288 118.90625,558.875 C 124.01022,547.51538 114.47031,533.94968 102.03125,534.875 z M 102.90625,546.46875 C 109.03399,546.10015 110.78533,555.76183 104.90625,557.5625 C 102.51601,557.97559 98.783181,558.645 97.125,557.34375 C 96.667028,552.83381 97.002555,546.51253 102.90625,546.46875 z "
             style="opacity:0.08333297;fill:#000000;fill-opacity:1;stroke:none;stroke-width:4;stroke-miterlimit:4;stroke-opacity:1;display:block" />
          <path
             id="path2894"
             d="M 102,533.78125 C 90.828271,533.97146 82.845217,545.26976 84.41425,555.93723 C 83.202934,563.12984 88.548914,570.4009 96.03125,570.5 C 105.30006,572.04663 116.28691,568.76867 119.90625,559.3125 C 125.35018,547.23752 115.21601,532.81588 102,533.78125 z M 102.90625,547.5625 C 108.39295,547.22767 109.08132,556.16324 103.71875,556.71875 C 100.97584,556.97323 96.722255,557.95496 98.28125,553.71875 C 97.754317,550.6359 99.64938,547.53766 102.90625,547.5625 z "
             style="opacity:0.08333297;fill:#000000;fill-opacity:1;stroke:none;stroke-width:4;stroke-miterlimit:4;stroke-opacity:1;display:block" />
          <path
             id="path2899"
             d="M 101.9375,532.6875 C 90.201798,532.90625 81.724828,544.68967 83.3205,555.93723 C 82.076111,563.69909 87.921804,571.44112 95.9375,571.59375 C 105.64877,573.20614 117.0684,569.64377 120.875,559.8125 C 126.68145,546.93614 116.03098,531.71649 101.9375,532.6875 z M 102.90625,548.65625 C 107.72674,548.49772 107.23694,556.48007 102.46875,555.71875 C 98.221174,557.59152 98.743501,551.94921 100.28125,549.78125 C 100.99055,549.07905 101.88179,548.67406 102.90625,548.65625 z "
             style="opacity:0.08333297;fill:#000000;fill-opacity:1;stroke:none;stroke-width:4;stroke-miterlimit:4;stroke-opacity:1;display:block" />
        </g>
        <g
           id="g2904">
          <path
             id="path8362"
             d="M 123.96875,556.09375 C 117.08108,557.14315 113.43369,564.59382 109.375,569.5 C 106.62408,572.52516 108.90555,576.74505 112.71875,577.125 C 119.42902,579.82128 128.94719,581.93866 133.71875,574.78125 C 139.35734,567.29382 133.49088,555.64644 123.96875,556.09375 z M 123.875,556.75 C 132.96005,556.14387 138.71102,568.00812 132.78125,574.84375 C 127.22239,581.93823 117.15442,578.37692 110.40625,575.25 C 106.28672,572.62809 111.57577,568.00036 113.15625,565.5 C 116.44205,562.49727 119.00319,557.23072 123.875,556.75 z "
             style="opacity:0.08333297;fill:#000000;fill-opacity:1;stroke:none;stroke-width:4;stroke-miterlimit:4;stroke-opacity:1;display:block" />
          <path
             id="path8364"
             d="M 123.90625,555 C 117.6317,555.62018 114.26663,561.90232 110.375,566.125 C 108.12977,568.74726 105.22788,573.47346 108.65625,576.25 C 113.12892,579.09246 118.63898,580.17166 123.84375,580.875 C 132.51426,581.25902 139.37433,571.86355 136.3125,563.75 C 134.60852,558.61818 129.43043,554.68858 123.90625,555 z M 123.96875,557.84375 C 131.25334,557.45961 136.56776,566.11096 132.96875,572.46875 C 130.65691,577.66463 123.79484,579.17269 118.65918,576.9581 C 115.76009,575.93018 111.58468,575.83964 109.875,573.0625 C 111.31244,568.03483 115.88881,564.43323 119.19819,560.52056 C 120.49028,559.20293 122.00334,557.9228 123.96875,557.84375 z "
             style="opacity:0.08333297;fill:#000000;fill-opacity:1;stroke:none;stroke-width:4;stroke-miterlimit:4;stroke-opacity:1;display:block" />
          <path
             id="path8366"
             d="M 123.84375,553.9375 C 117.1924,554.44252 113.59451,560.9722 109.5,565.46875 C 106.89881,568.39233 104.10746,573.75083 107.71875,576.875 C 112.05614,580.06328 117.83523,580.9722 123.09375,581.90625 C 132.18806,582.82031 140.04383,573.60028 137.71875,564.75 C 136.36021,558.52878 130.35573,553.49848 123.84375,553.9375 z M 124.09375,558.90625 C 130.87158,558.67364 135.54957,567.13225 131.5625,572.75 C 128.94131,577.25653 122.93721,577.66094 118.38086,575.75995 C 115.98154,574.91929 112.47483,574.70005 111,572.71875 C 113.51825,567.73664 117.74989,563.27012 122.03125,559.59375 C 122.62566,559.16043 123.35434,558.99892 124.09375,558.90625 z "
             style="opacity:0.08333297;fill:#000000;fill-opacity:1;stroke:none;stroke-width:4;stroke-miterlimit:4;stroke-opacity:1;display:block" />
          <path
             id="path8368"
             d="M 123.78125,552.84375 C 115.65924,553.68934 111.12608,561.99303 106.5625,567.84375 C 103.06403,572.04895 105.35053,578.69203 110.71875,579.875 C 118.55753,583.11217 129.32375,585.45446 135.46875,577.8125 C 143.3532,569.56886 137.76904,554.25436 126.5,552.9375 C 125.60521,552.78796 124.68518,552.78157 123.78125,552.84375 z M 124.28125,560 C 131.82379,559.83222 134.74361,570.9639 128.21875,574.5625 C 123.27149,577.48278 116.78398,574.28414 112.3125,572.40625 C 115.52209,568.01121 118.86376,562.29067 123.90625,560.0625 L 124.25,560 L 124.28125,560 z "
             style="opacity:0.08333297;fill:#000000;fill-opacity:1;stroke:none;stroke-width:4;stroke-miterlimit:4;stroke-opacity:1;display:block" />
          <path
             id="path2938"
             d="M 123.6875,551.75 C 115.14722,552.6279 110.3623,561.14366 105.59375,567.3125 C 101.79643,572.04498 104.34178,579.55809 110.34375,580.875 C 118.33003,584.15267 129.16041,586.5472 135.78125,579.125 C 144.41794,570.8737 139.72843,554.52343 128,552.15625 C 126.62934,551.74494 125.12549,551.65212 123.6875,551.75 z M 124.21875,561.09375 C 131.2483,560.9168 133.25779,571.61187 126.8125,574.09375 C 122.70598,575.6765 117.04603,573.30239 113.90625,571.78125 C 116.97863,568.21317 119.89629,563.00761 124.21875,561.09375 z "
             style="opacity:0.08333297;fill:#000000;fill-opacity:1;stroke:none;stroke-width:4;stroke-miterlimit:4;stroke-opacity:1;display:block" />
          <path
             id="path2943"
             d="M 123.625,550.65625 C 114.65911,551.48114 109.62154,560.31028 104.65625,566.75 C 100.48086,572.08327 103.37254,580.31444 109.9375,581.90625 C 118.38633,585.38745 129.71415,587.64345 136.5625,579.84375 C 145.61653,571.22299 140.99584,554.24928 128.90625,551.25 C 127.20619,550.73806 125.41061,550.51434 123.625,550.65625 z M 124.125,562.21875 C 130.46222,561.91128 131.69798,571.80907 125.78125,573.34375 C 122.45935,574.06607 117.53357,572.49992 115.71875,571.125 C 118.30294,568.0636 120.84163,564.41136 124.125,562.21875 z "
             style="opacity:0.08333297;fill:#000000;fill-opacity:1;stroke:none;stroke-width:4;stroke-miterlimit:4;stroke-opacity:1;display:block" />
          <path
             id="path2948"
             d="M 123.5625,549.5625 C 114.22916,550.38454 108.78326,559.42754 103.71875,566.21875 C 99.167918,572.08823 102.38967,581.13791 109.5625,582.9375 C 118.16475,586.41882 129.4892,588.73362 136.78125,581.1875 C 146.59826,572.57251 142.87581,554.77326 130.5625,550.65625 C 128.32557,549.8065 125.96714,549.36629 123.5625,549.5625 z M 124.34375,563.3125 C 129.87151,563.33917 129.91189,572.28291 124.5,572.46875 C 122.00628,572.5858 119.63529,571.39314 117.21875,570.96875 C 119.45305,568.33061 121.6324,565.42655 124.34375,563.3125 z "
             style="opacity:0.08333297;fill:#000000;fill-opacity:1;stroke:none;stroke-width:4;stroke-miterlimit:4;stroke-opacity:1;display:block" />
          <path
             id="path2953"
             d="M 123.46875,548.46875 C 113.46577,549.39505 107.52747,559.04903 102.28125,566.53125 C 97.74721,573.33231 102.33094,582.66917 110.09375,584.3125 C 119.10288,588.0036 131.00383,589.49043 138.15625,581.34375 C 148.07822,571.83056 143.42118,553.2027 130.25,549.40625 C 128.09811,548.60446 125.76258,548.32243 123.46875,548.46875 z M 124.625,564.4375 C 129.25848,564.99039 127.72905,572.70959 123.125,571.3125 C 117.74787,571.18632 120.16336,568.6744 122.96875,566 C 123.53144,565.49955 123.99166,564.83491 124.625,564.4375 z "
             style="opacity:0.08333297;fill:#000000;fill-opacity:1;stroke:none;stroke-width:4;stroke-miterlimit:4;stroke-opacity:1;display:block" />
        </g>
        <g
           id="g2958">
          <path
             id="path2972"
             d="M 79,529.875 C 69.97325,530.28474 65.101388,541.96317 70.46875,548.9375 C 72.029042,553.23681 76.41125,559.40756 81.4375,555.8125 C 87.768166,551.50038 95.33374,542.11203 89.625,534.5625 C 87.179761,531.32022 83.061208,529.42088 79,529.875 z M 79.6875,530.53125 C 87.34777,529.75514 94.268846,539.09807 89.46875,545.78125 C 86.592236,550.12664 82.722443,556.72859 76.78125,555.96875 C 72.685001,553.0776 70.210022,547.77567 69.03125,542.96875 C 68.151565,536.68796 73.360897,530.63861 79.6875,530.53125 z "
             style="opacity:0.08333297;fill:#000000;fill-opacity:1;stroke:none;stroke-width:4;stroke-miterlimit:4;stroke-opacity:1;display:block" />
          <path
             id="path2977"
             d="M 78.84375,528.78125 C 70.217387,529.21166 64.251228,539.75305 68.5,547.40625 C 70.728318,551.56394 73.044423,558.62056 79.03125,557.90625 C 85.186296,556.14975 89.531108,550.10471 92.0625,544.5 C 95.500733,536.25912 87.063634,527.67438 78.84375,528.78125 z M 79.71875,531.625 C 86.128347,531.03252 92.453822,538.33668 88.96875,544.34375 C 86.495642,548.63734 83.166457,554.09729 77.84375,555.125 C 74.005227,553.83865 73.026134,548.81226 70.875,545.71875 C 67.968174,539.45449 72.817241,531.68942 79.71875,531.625 z "
             style="opacity:0.08333297;fill:#000000;fill-opacity:1;stroke:none;stroke-width:4;stroke-miterlimit:4;stroke-opacity:1;display:block" />
          <path
             id="path2982"
             d="M 78.71875,527.71875 C 69.553676,528.23468 63.316095,538.9171 67.1875,547.28125 C 69.731112,551.76234 71.824199,558.85478 78.03125,559.03125 C 84.377257,558.55319 88.660458,552.63315 91.78125,547.625 C 95.58509,542.17221 93.969655,534.11256 88.542821,530.40926 C 85.71407,528.37913 82.250797,527.31821 78.71875,527.71875 z M 79.8125,532.6875 C 85.165254,532.23778 90.836225,538.18621 88.1875,543.5 C 85.788825,547.70719 82.762167,552.8048 77.84375,554.03125 C 74.671103,552.07253 73.510114,547.90461 71.6875,544.8125 C 69.477701,539.15818 73.821521,532.84143 79.8125,532.6875 z "
             style="opacity:0.08333297;fill:#000000;fill-opacity:1;stroke:none;stroke-width:4;stroke-miterlimit:4;stroke-opacity:1;display:block" />
          <path
             id="path2987"
             d="M 78.59375,526.625 C 67.705412,527.24237 61.169966,540.96027 67.298861,549.92168 C 69.428747,555.38188 74.575648,562.44872 81.3125,559.5 C 88.767179,555.59904 95.732614,547.3491 94.8125,538.46875 C 93.560415,531.05541 85.982115,525.74004 78.59375,526.625 z M 79.90625,533.78125 C 85.56331,533.27346 90.314742,540.3602 86.15625,544.9375 C 84.059349,547.79772 81.396598,552.66475 77.625,552.6875 C 73.952245,548.22774 69.345489,540.71104 74.84375,535.78125 C 76.280292,534.56595 78.031259,533.8447 79.90625,533.78125 z "
             style="opacity:0.08333297;fill:#000000;fill-opacity:1;stroke:none;stroke-width:4;stroke-miterlimit:4;stroke-opacity:1;display:block" />
          <path
             id="path2992"
             d="M 78.4375,525.53125 C 66.840661,526.25252 59.829371,540.83543 66.330111,550.42168 C 68.614799,556.47083 74.475042,563.69039 81.75,560.53125 C 89.774846,556.30598 97.320405,547.2454 95.78125,537.625 C 94.0495,529.97267 86.195542,524.6106 78.4375,525.53125 z M 80.1875,534.875 C 85.040714,534.63572 88.810267,540.63629 85.21875,544.40625 C 83.383446,546.84058 80.944273,551.34624 77.9375,551.4375 C 74.890191,547.26141 70.61876,540.52221 75.875,536.375 C 77.112666,535.36807 78.649959,534.89238 80.1875,534.875 z "
             style="opacity:0.08333297;fill:#000000;fill-opacity:1;stroke:none;stroke-width:4;stroke-miterlimit:4;stroke-opacity:1;display:block" />
          <path
             id="path2997"
             d="M 78.75,524.40625 C 66.673498,524.85919 58.646517,539.68016 64.90625,550.03125 C 67.442281,556.64539 73.530855,564.76183 81.53125,561.75 C 89.763303,558.06625 96.581272,549.59915 97.1875,540.40625 C 97.109134,531.01693 87.929407,523.50497 78.75,524.40625 z M 80.59375,536 C 84.474114,536.06982 87.223499,540.86972 84.28125,543.84375 C 82.69491,546.14484 80.859044,549.1614 78.40625,550.21875 C 75.781815,546.61718 71.954701,540.29238 76.90625,536.96875 C 77.978276,536.2139 79.295915,535.89979 80.59375,536 z "
             style="opacity:0.08333297;fill:#000000;fill-opacity:1;stroke:none;stroke-width:4;stroke-miterlimit:4;stroke-opacity:1;display:block" />
          <path
             id="path3519"
             d="M 78.59375,523.3125 C 65.821552,523.87989 57.318311,539.51666 63.9375,550.5 C 66.613912,557.48897 72.99768,565.77411 81.5,562.90625 C 90.42897,559.24578 97.674526,550.11755 98.28125,540.34375 C 98.163487,530.31217 88.400644,522.34163 78.59375,523.3125 z M 79.75,537.0625 C 83.744268,536.57603 86.142558,541.44591 82.84375,544.09375 C 81.38209,545.77748 78.839563,550.97442 77.5625,546.6875 C 74.519032,543.49991 74.763607,537.60312 79.75,537.0625 z "
             style="opacity:0.08333297;fill:#000000;fill-opacity:1;stroke:none;stroke-width:4;stroke-miterlimit:4;stroke-opacity:1;display:block" />
          <path
             id="path3521"
             d="M 78.46875,522.25 C 65.321739,522.79947 56.226204,538.71896 62.625,550.34375 C 65.573791,557.80014 72.085716,566.75749 81.28125,564.09375 C 90.698549,560.76358 98.010248,551.39372 99.34375,541.53125 C 100.08019,530.44761 89.266683,521.04871 78.46875,522.25 z M 79.84375,538.15625 C 82.91882,537.82316 84.660999,541.51401 81.90625,543.53125 C 80.283445,546.68402 78.216423,547.77361 77.1875,543.65625 C 75.662283,541.43166 77.214292,538.35457 79.84375,538.15625 z "
             style="opacity:0.08333297;fill:#000000;fill-opacity:1;stroke:none;stroke-width:4;stroke-miterlimit:4;stroke-opacity:1;display:block" />
        </g>
      </g>
    </g>
  </g>
  <g
     inkscape:groupmode="layer"
     id="layer9"
     inkscape:label="propiedad_mas"
     sodipodi:insensitive="true"
     style="display:none">
    <g
       id="g2341"
       style="display:inline"
       transform="matrix(0.806338,0,0,0.806338,-5.091682,2.3862628)">
      <path
         id="path2343"
         d="" />
      <g
         id="g2345"
         style="display:block">
        <g
           id="g6097"
           style="display:block"
           transform="matrix(0.925862,0,0,0.925862,493.5668,41.86428)">
          <path
             id="path3603"
             style="fill:#ffffff;fill-opacity:1;fill-rule:evenodd;stroke:#006900;stroke-width:8.1005621;stroke-miterlimit:4;stroke-opacity:1"
             d="M -191.51536,25.067211 C -191.51536,61.628081 -221.18795,91.300681 -257.74882,91.300681 C -294.3097,91.300681 -323.98229,61.628081 -323.98229,25.067211 C -323.98229,-11.493665 -294.3097,-41.166259 -257.74882,-41.166259 C -221.18795,-41.166259 -191.51536,-11.493665 -191.51536,25.067211 z " />
          <path
             id="polygon1906"
             style="fill:#326400;stroke:none"
             d="M -302.55576,11.965876 L -270.99594,11.965876 L -270.99594,-19.849048 L -244.50173,-19.849048 L -244.50173,11.965876 L -212.9419,11.965876 L -212.9419,38.423643 L -244.50173,38.423643 L -244.50173,69.98347 L -270.99594,69.98347 L -270.99594,38.423643 L -302.55576,38.423643 L -302.55576,11.965876 z " />
        </g>
      </g>
    </g>
  </g>
  <g
     inkscape:groupmode="layer"
     id="layer10"
     inkscape:label="propiedad_menos"
     sodipodi:insensitive="true"
     style="display:none">
    <g
       id="g2734"
       style="opacity:1;display:inline"
       transform="matrix(0.806338,0,0,0.806338,-150.02292,-5.0916723)">
      <path
         id="path2736"
         d="" />
      <g
         id="g2738"
         style="display:block">
        <g
           id="g6091"
           style="display:block"
           transform="matrix(0.925862,0,0,0.925862,565.8858,84.55078)">
          <path
             id="path4848"
             style="fill:#ffffff;fill-opacity:1;fill-rule:evenodd;stroke:#cd0000;stroke-width:8.1005621;stroke-miterlimit:4;stroke-opacity:1"
             d="M -269.62525,184.01896 C -269.62525,220.57983 -299.29784,250.25243 -335.85871,250.25243 C -372.41959,250.25243 -402.09218,220.57983 -402.09218,184.01896 C -402.09218,147.45809 -372.41959,117.78549 -335.85871,117.78549 C -299.29784,117.78549 -269.62525,147.45809 -269.62525,184.01896 z " />
          <path
             id="polygon2119"
             style="fill:#da251d;stroke:none"
             d="M -381.13765,170.52182 L -290.57977,170.52182 L -290.57977,197.51609 L -381.13765,197.51609 L -381.13765,170.52182 z " />
        </g>
      </g>
    </g>
  </g>
  <g
     inkscape:groupmode="layer"
     id="layer11"
     inkscape:label="propiedad_listado"
     sodipodi:insensitive="true"
     style="display:none">
    <g
       id="g2141"
       style="opacity:1;display:inline"
       transform="matrix(0.806338,0,0,0.806338,150.02651,114.9432)">
      <path
         id="path2143"
         d="" />
      <g
         id="layer6"
         style="display:block">
        <g
           id="g6094"
           style="display:block"
           transform="matrix(0.925862,0,0,0.925862,143.7747,118.5623)">
          <path
             id="path4847"
             style="fill:#ffffff;fill-opacity:1;fill-rule:evenodd;stroke:#0000cd;stroke-width:8.1005621;stroke-miterlimit:4;stroke-opacity:1"
             d="M -151.23716,-57.772351 C -151.23716,-21.211475 -151.23716,-49.333221 -151.23716,-12.772347 C -151.23716,23.788523 -121.56457,53.461123 -85.00369,53.461123 C -48.44282,53.461123 -18.77023,23.788523 -18.77023,-12.772347 C -18.77023,-49.333221 -18.77023,-21.211475 -18.77023,-57.772351 C -18.77023,-94.333227 -48.44282,-124.00582 -85.00369,-124.00582 C -121.56457,-124.00582 -151.23716,-94.333227 -151.23716,-57.772351 z " />
          <path
             id="polyline1684"
             style="fill:#0000cd;fill-opacity:1;stroke:none"
             d="M -129.21657,-89.000316 L -129.21657,-73.024359 L -40.79082,-73.024359 L -40.79082,-89.000316 L -129.21657,-89.000316 z M -129.21657,-58.51678 L -129.21657,-42.526137 L -40.79082,-42.526137 L -40.79082,-58.51678 L -129.21657,-58.51678 z M -129.21657,-28.018558 L -129.21657,-12.027911 L -40.79082,-12.027911 L -40.79082,-28.018558 L -129.21657,-28.018558 z M -129.21657,2.4796691 L -129.21657,18.455619 L -40.79082,18.455619 L -40.79082,2.4796691 L -129.21657,2.4796691 z " />
        </g>
      </g>
    </g>
  </g>
</svg>
