/* XPM */
static char * bulmasetup_cargarempresa_xpm[] = {
"32 32 325 2",
"  	c None",
". 	c #C8A876",
"+ 	c #D6BA8F",
"@ 	c #C3A06C",
"# 	c #C4A26E",
"$ 	c #E1C9A4",
"% 	c #E1C9A3",
"& 	c #E1CAA3",
"* 	c #C09D67",
"= 	c #C5A470",
"- 	c #DDC39B",
"; 	c #DEC69F",
"> 	c #DEC79F",
", 	c #DEC59E",
"' 	c #DBC198",
") 	c #BF9C65",
"! 	c #D7BC91",
"~ 	c #D8BE93",
"{ 	c #D2B688",
"] 	c #D9BF95",
"^ 	c #D7BD92",
"/ 	c #BC9860",
"( 	c #D1B384",
"_ 	c #D2B486",
": 	c #D0B284",
"< 	c #B58E51",
"[ 	c #D5C09F",
"} 	c #C29F68",
"| 	c #D3B688",
"1 	c #D1B485",
"2 	c #D0B182",
"3 	c #BB975E",
"4 	c #BA965C",
"5 	c #CBAC7A",
"6 	c #CCAC7A",
"7 	c #CBAB78",
"8 	c #BA965D",
"9 	c #EFE7DC",
"0 	c #FFFFFF",
"a 	c #D8C6A8",
"b 	c #C19F68",
"c 	c #B99459",
"d 	c #BB965C",
"e 	c #C6A56F",
"f 	c #C5A36E",
"g 	c #B38B4D",
"h 	c #EAE2D3",
"i 	c #FBFBFC",
"j 	c #FBFAFA",
"k 	c #FCFCFD",
"l 	c #DAC9AE",
"m 	c #C7A670",
"n 	c #C6A46E",
"o 	c #B79357",
"p 	c #B68F53",
"q 	c #C09C63",
"r 	c #C09C64",
"s 	c #B89359",
"t 	c #EBE3D7",
"u 	c #FBFCFD",
"v 	c #F9F9F9",
"w 	c #FDFFFF",
"x 	c #D6C2A3",
"y 	c #BC975D",
"z 	c #C19C64",
"A 	c #B58E52",
"B 	c #BA9254",
"C 	c #B99153",
"D 	c #B08746",
"E 	c #E7DECF",
"F 	c #F8F8F9",
"G 	c #F8F8F8",
"H 	c #F9F9FA",
"I 	c #D7C5A8",
"J 	c #B48B4C",
"K 	c #BA9354",
"L 	c #BA9153",
"M 	c #B69053",
"N 	c #BE995D",
"O 	c #BE985D",
"P 	c #B89257",
"Q 	c #E8DFD2",
"R 	c #F8F9FA",
"S 	c #F6F6F6",
"T 	c #FAFDFF",
"U 	c #D4BFA0",
"V 	c #BA9457",
"W 	c #BF995E",
"X 	c #B58F52",
"Y 	c #C4A169",
"Z 	c #C4A16A",
"` 	c #B28B4C",
" .	c #E3DACA",
"..	c #F5F5F6",
"+.	c #F5F5F5",
"@.	c #F5F6F6",
"#.	c #D4C1A2",
"$.	c #BA9459",
"%.	c #C5A26B",
"&.	c #B79155",
"*.	c #CAAA77",
"=.	c #CAAB77",
"-.	c #E4DBCC",
";.	c #F5F6F8",
">.	c #F3F3F3",
",.	c #F8FAFE",
"'.	c #D0BC9B",
").	c #C2A069",
"!.	c #CBAC79",
"~.	c #CAA976",
"{.	c #BF9B64",
"].	c #D2B385",
"^.	c #E0D6C5",
"/.	c #F2F2F3",
"(.	c #F2F2F2",
"_.	c #F2F3F3",
":.	c #D1BC9D",
"<.	c #C4A06B",
"[.	c #CFB07F",
"}.	c #D5B88B",
"|.	c #D6BB8E",
"1.	c #C09E67",
"2.	c #E0D5C6",
"3.	c #F2F3F5",
"4.	c #F0F0F0",
"5.	c #EBEBEC",
"6.	c #DCDEDE",
"7.	c #DADCDC",
"8.	c #E1E2E2",
"9.	c #F5F7FB",
"0.	c #CEB997",
"a.	c #CCAD7C",
"b.	c #D8BC90",
"c.	c #D4B78A",
"d.	c #BC985F",
"e.	c #BE9A62",
"f.	c #B99257",
"g.	c #DCD1BF",
"h.	c #EEEFEF",
"i.	c #EEEEEE",
"j.	c #D2D4D5",
"k.	c #666F76",
"l.	c #79838B",
"m.	c #7C858E",
"n.	c #717B82",
"o.	c #798085",
"p.	c #F0EFEF",
"q.	c #EEECEB",
"r.	c #F2E1D5",
"s.	c #C9A773",
"t.	c #D0C6B5",
"u.	c #EFF0F2",
"v.	c #ECECEC",
"w.	c #788186",
"x.	c #ADB5C0",
"y.	c #ADB4C0",
"z.	c #ACB4BF",
"A.	c #B0B8C3",
"B.	c #808993",
"C.	c #A6ABAD",
"D.	c #EDE6E1",
"E.	c #F9C298",
"F.	c #F8C9A6",
"G.	c #F1F4F8",
"H.	c #BDA888",
"I.	c #D4D4D5",
"J.	c #ECECEB",
"K.	c #EBEBEB",
"L.	c #F1F0F0",
"M.	c #5B676E",
"N.	c #9DA5B0",
"O.	c #9DA6B0",
"P.	c #9CA4AF",
"Q.	c #A0958C",
"R.	c #FEB178",
"S.	c #FFB580",
"T.	c #F7C7A5",
"U.	c #EBEAE9",
"V.	c #ECEBEA",
"W.	c #CCCCCD",
"X.	c #D3D3D3",
"Y.	c #EAEAEA",
"Z.	c #E9E9E9",
"`.	c #EFEFEF",
" +	c #56626A",
".+	c #9099A3",
"++	c #9098A2",
"@+	c #C4997B",
"#+	c #FEA462",
"$+	c #FFAA6B",
"%+	c #FEA96A",
"&+	c #FCAF75",
"*+	c #F8BF94",
"=+	c #F8BE94",
"-+	c #F9BE93",
";+	c #F0B285",
">+	c #F6A367",
",+	c #FFA25D",
"'+	c #FF9C55",
")+	c #FE984C",
"!+	c #D2D2D2",
"~+	c #E8E8E8",
"{+	c #EEEDED",
"]+	c #515C64",
"^+	c #828C95",
"/+	c #EF8E47",
"(+	c #FE9243",
"_+	c #FF9547",
":+	c #FE9142",
"<+	c #FF8F3C",
"[+	c #FF964A",
"}+	c #FE9F5B",
"|+	c #FF9F59",
"1+	c #FF9E56",
"2+	c #FF9A51",
"3+	c #FF974A",
"4+	c #FF9445",
"5+	c #FF903F",
"6+	c #FF8D3A",
"7+	c #D1D1D1",
"8+	c #E7E7E7",
"9+	c #E6E6E6",
"0+	c #4B575F",
"a+	c #747E87",
"b+	c #937E6E",
"c+	c #F4802A",
"d+	c #FE8226",
"e+	c #FE7F23",
"f+	c #FD7713",
"g+	c #FF730C",
"h+	c #FF7510",
"i+	c #FF7A18",
"j+	c #FF8024",
"k+	c #FF7F21",
"l+	c #FF7E20",
"m+	c #FF7D1E",
"n+	c #FF7C1B",
"o+	c #FF7A1A",
"p+	c #D0D0D0",
"q+	c #E5E5E5",
"r+	c #EBEAEA",
"s+	c #47535B",
"t+	c #69737C",
"u+	c #737375",
"v+	c #EB7C2B",
"w+	c #FD7A1B",
"x+	c #FE6C01",
"y+	c #FF6C00",
"z+	c #CECECE",
"A+	c #E4E4E4",
"B+	c #E3E3E3",
"C+	c #E9E9E8",
"D+	c #424D56",
"E+	c #5B656E",
"F+	c #BC682C",
"G+	c #FE6C00",
"H+	c #FD6B00",
"I+	c #CDCDCD",
"J+	c #E2E2E2",
"K+	c #3C4850",
"L+	c #4D5860",
"M+	c #905E39",
"N+	c #FD6F07",
"O+	c #FA7617",
"P+	c #FA7717",
"Q+	c #F77313",
"R+	c #FA6B02",
"S+	c #AEBDAC",
"T+	c #BFCEBD",
"U+	c #BECDBC",
"V+	c #C3D1C0",
"W+	c #394C49",
"X+	c #3F4A52",
"Y+	c #3E4951",
"Z+	c #3B454C",
"`+	c #374148",
" @	c #363F46",
".@	c #69675D",
"+@	c #F27010",
"@@	c #FF6B00",
"#@	c #D97F35",
"$@	c #A6B3A4",
"%@	c #A6B4A5",
"&@	c #A8B4A6",
"*@	c #93A091",
"=@	c #86B15E",
"-@	c #A3C36E",
";@	c #A2C36D",
">@	c #A3C46D",
",@	c #6CA050",
"'@	c #344644",
")@	c #323E45",
"!@	c #313C43",
"~@	c #2D383F",
"{@	c #2A343A",
"]@	c #283237",
"^@	c #4C723C",
"/@	c #7E9352",
"(@	c #D57819",
"_@	c #D97718",
":@	c #7F9855",
"<@	c #7F9956",
"[@	c #769351",
"}@	c #2C5F24",
"|@	c #3F8635",
"1@	c #9BBC55",
"2@	c #99BB53",
"3@	c #83AF4B",
"4@	c #506856",
"5@	c #4E565D",
"6@	c #4E575D",
"7@	c #4D565C",
"8@	c #4B5659",
"9@	c #6D9943",
"0@	c #86A247",
"a@	c #84A147",
"b@	c #9D9437",
"c@	c #91B14E",
"d@	c #92B24F",
"e@	c #98B551",
"f@	c #528C39",
"g@	c #4F8F39",
"h@	c #509039",
"i@	c #4C8D38",
"j@	c #4E8C37",
"                                                                ",
"                                                                ",
"                                                                ",
"                            . + @                               ",
"                          # $ % & *                             ",
"                        = - ; > , ' )                           ",
"                      ) ! ~ ! { ] ^ ! /                         ",
"                    ) ( _ : < [ } | 1 2 3                       ",
"                  4 5 6 7 8 9 0 a b 6 6 5 c                     ",
"                d e e f g h i j k l d m e n o                   ",
"              p q q r s t u v v v w x y r q z A                 ",
"            < B C B D E F G G G G G H I J K L K <               ",
"          M N N O P Q R S S S S S S S T U V W N O X             ",
"        c Y Z Y `  ...+.+.+.+.+.+.+.+.+.@.#.$.%.Z Y &.          ",
"      c *.7 =.3 -.;.>.>.>.>.>.>.>.>.>.>.>.,.'.).!.7 ~.P         ",
"    {.2 _ ].X ^./.(.(.(.(.(.(.(.(.(.(.(.(.(._.:.<.| 1 [.3       ",
"    {.}.|.1.2.3.4.4.4.(.5.6.7.7.7.8.>.4.4.4.4.9.0.a.b.c.d.      ",
"      e.f.g.h.i.i.i.i.j.k.l.m.m.m.n.o.p.i.q.r.i.h.0.s.d.        ",
"        t.u.v.v.v.v.p.w.x.y.z.z.z.A.B.C.D.E.F.v.v.G.H.          ",
"        I.J.K.K.K.K.L.M.N.O.O.O.O.N.P.Q.R.S.T.U.U.V.W.          ",
"        X.Y.Z.Z.Z.Z.`. +.+.+.+.+++.+@+#+$+%+&+*+=+-+;+>+,+'+)+  ",
"        !+~+~+~+~+~+{+]+^+^+^+^+^+/+(+_+:+<+[+}+|+1+2+3+4+5+6+  ",
"        7+8+9+9+9+9+J.0+a+a+a+b+c+d+e+f+g+h+i+j+j+k+l+m+n+o+i+  ",
"        p+q+q+q+q+q+r+s+t+t+t+u+v+w+x+y+y+y+y+y+y+y+y+y+y+y+y+  ",
"        z+A+B+B+B+B+C+D+E+E+E+E+E+F+G+H+y+H+y+y+y+y+y+y+y+y+y+  ",
"        I+J+J+J+J+J+8+K+L+L+L+L+L+L+M+y+H+y+N+O+P+P+Q+R+H+H+H+  ",
"        S+T+U+U+U+U+V+W+X+X+X+Y+Z+`+ @.@+@@@#@$@%@&@*@          ",
"      =@-@;@;@;@;@;@>@,@'@)@)@!@~@{@]@^@/@(@_@:@:@:@<@[@}@      ",
"    |@1@2@2@2@2@2@2@2@3@4@5@6@6@6@7@8@9@0@a@b@c@d@d@d@e@f@      ",
"      g@h@h@h@h@h@h@h@i@                h@j@j@h@h@h@h@h@        ",
"                                                                ",
"                                                                "};
