/* XPM */
static char * bulmasetup_nuevousuario_xpm[] = {
"32 32 245 2",
"  	c None",
". 	c #9B9D97",
"+ 	c #9A9C97",
"@ 	c #B8B9B6",
"# 	c #BDBDBB",
"$ 	c #999A97",
"% 	c #BFC0BC",
"& 	c #ECECEB",
"* 	c #F1F1F0",
"= 	c #F3F3F2",
"- 	c #F5F5F4",
"; 	c #F4F4F2",
"> 	c #EDEDEC",
", 	c #9B9B97",
"' 	c #D5D6D3",
") 	c #EBEBE9",
"! 	c #EEEEED",
"~ 	c #F3F3F1",
"{ 	c #F6F6F6",
"] 	c #F9F9F9",
"^ 	c #F6F6F5",
"/ 	c #F2F2F0",
"( 	c #D2D3D0",
"_ 	c #989A95",
": 	c #C6C6C3",
"< 	c #E7E7E4",
"[ 	c #EAEAE9",
"} 	c #EFEFEE",
"| 	c #F4F4F3",
"1 	c #F8F8F8",
"2 	c #FDFDFD",
"3 	c #FCFCFC",
"4 	c #F7F7F7",
"5 	c #EEEEEC",
"6 	c #EBEBE8",
"7 	c #C1C2BE",
"8 	c #9D9E9A",
"9 	c #E4E4E2",
"0 	c #E6E6E3",
"a 	c #EAEAE8",
"b 	c #F7F7F6",
"c 	c #FAFAFA",
"d 	c #FAFAF9",
"e 	c #F2F2F1",
"f 	c #E9E9E7",
"g 	c #E6E6E4",
"h 	c #9C9D99",
"i 	c #BCBDB8",
"j 	c #E1E1DE",
"k 	c #EDEDEB",
"l 	c #F1F1EF",
"m 	c #F0F0EE",
"n 	c #ECECEA",
"o 	c #E8E8E6",
"p 	c #949690",
"q 	c #D1D1CD",
"r 	c #DEDEDB",
"s 	c #E3E3E0",
"t 	c #F0F0EF",
"u 	c #E2E2DF",
"v 	c #CFCFCC",
"w 	c #939590",
"x 	c #D6D6D3",
"y 	c #DCDCD9",
"z 	c #E0E0DD",
"A 	c #E4E4E1",
"B 	c #E7E7E5",
"C 	c #DFDFDC",
"D 	c #D5D5D2",
"E 	c #959690",
"F 	c #D1D2CE",
"G 	c #DADAD6",
"H 	c #DDDDDA",
"I 	c #E3E3E1",
"J 	c #E5E5E3",
"K 	c #DDDDD9",
"L 	c #CFD0CD",
"M 	c #D7D7D4",
"N 	c #DADAD7",
"O 	c #A7A8A3",
"P 	c #D9D9D5",
"Q 	c #D7D7D3",
"R 	c #D9D9D6",
"S 	c #DCDCD8",
"T 	c #A6A7A2",
"U 	c #D2D2D0",
"V 	c #D6D6D2",
"W 	c #DBDBD7",
"X 	c #959792",
"Y 	c #A0A29C",
"Z 	c #979995",
"` 	c #C4C4C3",
" .	c #CCCCCB",
"..	c #A8A9A5",
"+.	c #D8D8D4",
"@.	c #C3C3C2",
"#.	c #DDDDDC",
"$.	c #E9E9E8",
"%.	c #DBDBD9",
"&.	c #CBCBC9",
"*.	c #A3A5A1",
"=.	c #B4B5B0",
"-.	c #D0D1CD",
";.	c #DBDBD8",
">.	c #DBDBDA",
",.	c #E3E3E2",
"'.	c #DADAD9",
").	c #C7C7C5",
"!.	c #ACADAA",
"~.	c #AEAFAB",
"{.	c #A0A19D",
"].	c #A2A39F",
"^.	c #F2F2F2",
"/.	c #F0F0F0",
"(.	c #EEEEEE",
"_.	c #C2C4BF",
":.	c #F9F9F8",
"<.	c #FBFBFB",
"[.	c #9FA09C",
"}.	c #C8C8C6",
"|.	c #F8F8F7",
"1.	c #F1F3EF",
"2.	c #A2C48D",
"3.	c #599A33",
"4.	c #338404",
"5.	c #448D19",
"6.	c #81AF66",
"7.	c #D6DED0",
"8.	c #DFE0DF",
"9.	c #E5E5E2",
"0.	c #E1E9DC",
"a.	c #5A9D34",
"b.	c #52A51B",
"c.	c #84CA37",
"d.	c #94D737",
"e.	c #92D535",
"f.	c #56A91F",
"g.	c #408E12",
"h.	c #B0C7A3",
"i.	c #D1D1CF",
"j.	c #F0F2EE",
"k.	c #5A9C33",
"l.	c #65B523",
"m.	c #98DB27",
"n.	c #8DD60E",
"o.	c #85D405",
"p.	c #7FD004",
"q.	c #7ECD0B",
"r.	c #83CD1F",
"s.	c #67B727",
"t.	c #3A8C0C",
"u.	c #839379",
"v.	c #CACAC8",
"w.	c #E2E2E0",
"x.	c #A5C692",
"y.	c #4BA110",
"z.	c #95D91A",
"A.	c #88D408",
"B.	c #8CD418",
"C.	c #EBF5E4",
"D.	c #D7EDBF",
"E.	c #73C609",
"F.	c #68C005",
"G.	c #6CC011",
"H.	c #4EA614",
"I.	c #508A2D",
"J.	c #BBBBB8",
"K.	c #5F9D3B",
"L.	c #6ABF10",
"M.	c #85D30B",
"N.	c #7FCF08",
"O.	c #73C80D",
"P.	c #E4F2D8",
"Q.	c #57B800",
"R.	c #5CB903",
"S.	c #56B306",
"T.	c #4CA90C",
"U.	c #DADBD9",
"V.	c #C4C4C1",
"W.	c #39870C",
"X.	c #6BC50A",
"Y.	c #6EC705",
"Z.	c #D1EAB7",
"`.	c #DEEECF",
" +	c #DDEECE",
".+	c #A8D587",
"++	c #409F02",
"@+	c #409D06",
"#+	c #ADAFAB",
"$+	c #C9C9C7",
"%+	c #E8E8E5",
"&+	c #E8E9E6",
"*+	c #358506",
"=+	c #68C10A",
"-+	c #66C103",
";+	c #E5F2DA",
">+	c #B8DBA1",
",+	c #389801",
"'+	c #3C9A06",
")+	c #CBCBCA",
"!+	c #E9E9E6",
"~+	c #4C9223",
"{+	c #59B40B",
"]+	c #66BD09",
"^+	c #378A05",
"/+	c #429012",
"(+	c #CBE2BD",
"_+	c #3A9705",
":+	c #3D9B08",
"<+	c #D2D2CE",
"[+	c #E5E5E4",
"}+	c #E6E6E5",
"|+	c #88B36E",
"1+	c #419B0A",
"2+	c #60B70E",
"3+	c #53AE06",
"4+	c #53AC11",
"5+	c #D5EAC7",
"6+	c #3A9903",
"7+	c #399703",
"8+	c #3E990B",
"9+	c #3E9B0B",
"0+	c #B7B8B4",
"a+	c #C7C8C6",
"b+	c #D2D3D1",
"c+	c #D3D4D1",
"d+	c #C6CDC1",
"e+	c #408C14",
"f+	c #4AA410",
"g+	c #56AC14",
"h+	c #48A309",
"i+	c #3B9807",
"j+	c #439C11",
"k+	c #459F12",
"l+	c #348804",
"m+	c #7A7E77",
"n+	c #6A7F5D",
"o+	c #3B870F",
"p+	c #40990C",
"q+	c #4DA619",
"r+	c #4DA41B",
"s+	c #4BA219",
"t+	c #4BA21A",
"u+	c #409A0E",
"v+	c #348704",
"                                                                ",
"                        . + @ # @ + +                           ",
"                    $ % & * = - - ; > # ,                       ",
"                  + ' ) ! ~ { ] ] ^ / ! ( _                     ",
"                + : < [ } | 1 2 3 4 ~ 5 6 7 +                   ",
"                8 9 0 a ! = b c d ^ e 5 f g h                   ",
"              + i j 9 f k l | ^ - = m n o 9 @ +                 ",
"              p q r s g a > t * * } k f 0 u v +                 ",
"              w x y z A B a n k k ) f g s C D +                 ",
"              E F G H j I 0 B o o B J s z K L p                 ",
"              + : M N H z u s A A s u z H N M +                 ",
"                O P Q R S H r C C r H S R Q P T                 ",
"                + U V V M P G N W N P M V V U X                 ",
"                + Y P V V V V V V V V V V P Y +                 ",
"              Z `  ...V +.V V V V V V +.V .. .@.Z               ",
"            + #.$.%.&.*.=.-.v ;.W ;.-.=.*.&.%.$.#.+             ",
"          + >.> k & ,.'.).!.~.{.].{.!.).'.,.& k > >.+           ",
"          + k ) > m e - ^.} /.! (.(.} ^.- e m > ) k _.          ",
"        + n o ) > m e - b d :.<.2 3 d b - e m > ) o n [.        ",
"      + }.o o a k } / | ^ 1 |.] c d 1 1.2.3.4.4.5.6.7.}.+       ",
"      + 8.9.B 9 n ! l ~ - { ^ b |.4 0.a.b.c.d.e.c.f.g.h.+       ",
"      + f A g i.) k } * = | | - - j.k.l.m.n.o.p.q.r.s.t.u.      ",
"      + a s v.w.a n 5 } l e / e ~ x.y.z.A.B.C.D.E.F.G.H.I.      ",
"      + B C J.g o a n > ! } } t t K.L.M.N.O.C.P.Q.R.S.T.4.      ",
"      + U.V.v 9.g o a ) n k k > 5 W.X.Y.Z.`.C.C. +.+++@+4.      ",
"      + #+$+j s 9.g %+f a ) [ ) &+*+=+-+;+C.C.C.C.>+,+'+4.      ",
"        + )+u j s 9 0 < %+o o !+f ~+{+]+^+/+C.(+^+^+_+:+4.      ",
"          + <+a < J [+}+B %+%+o o |+1+2+3+4+C.5+6+7+8+9+4.      ",
"            + + 0+a+L ( ( b+( c+c+d+e+f+g+h+^+^+i+j+k+l+        ",
"                + + + + + + m+m+m+m+n+o+p+q+r+s+t+u+v+          ",
"                                        4.4.4.4.4.4.            ",
"                                                                "};
