/* XPM */
static char * bulmasetup_cargarempresa_xpm[] = {
"32 32 154 2",
"  	c None",
". 	c #F1835A",
"+ 	c #CA8560",
"@ 	c #663727",
"# 	c #A24D33",
"$ 	c #BC6C68",
"% 	c #F9AA7A",
"& 	c #FFB584",
"* 	c #F37C53",
"= 	c #EF643E",
"- 	c #AB4944",
"; 	c #ADADAD",
"> 	c #FFA574",
", 	c #F66A41",
"' 	c #DF5132",
") 	c #A93B34",
"! 	c #848484",
"~ 	c #FFBE8C",
"{ 	c #AC342E",
"] 	c #FEC48E",
"^ 	c #FF9D6F",
"/ 	c #D7492E",
"( 	c #AA241D",
"_ 	c #7B7B7B",
": 	c #FF9B6B",
"< 	c #A51E18",
"[ 	c #868B8C",
"} 	c #5F605E",
"| 	c #ADB0B1",
"1 	c #EAAD9B",
"2 	c #FFBB85",
"3 	c #FF9966",
"4 	c #EF633C",
"5 	c #D6482C",
"6 	c #A6110A",
"7 	c #737373",
"8 	c #9BA0A1",
"9 	c #6B6B6B",
"0 	c #B5B5B5",
"a 	c #6C6E70",
"b 	c #515151",
"c 	c #EAA77D",
"d 	c #E8603C",
"e 	c #D44329",
"f 	c #A20B07",
"g 	c #7A7272",
"h 	c #90918F",
"i 	c #8C8C8C",
"j 	c #A5A5A5",
"k 	c #999999",
"l 	c #4C5051",
"m 	c #88483C",
"n 	c #A80802",
"o 	c #796A6A",
"p 	c #767876",
"q 	c #6E7374",
"r 	c #5E3938",
"s 	c #999795",
"t 	c #949494",
"u 	c #4A4A4A",
"v 	c #948D8C",
"w 	c #E56C49",
"x 	c #9E3C37",
"y 	c #797F81",
"z 	c #E97F5B",
"A 	c #E35230",
"B 	c #9A4340",
"C 	c #D9B38D",
"D 	c #727578",
"E 	c #83807C",
"F 	c #AC988A",
"G 	c #9B7D6A",
"H 	c #EE8A6B",
"I 	c #E46241",
"J 	c #657071",
"K 	c #E65935",
"L 	c #905755",
"M 	c #F99C6D",
"N 	c #FFCC99",
"O 	c #C7AA8A",
"P 	c #FF7444",
"Q 	c #A77362",
"R 	c #EE986F",
"S 	c #F15D39",
"T 	c #DF6241",
"U 	c #5E696C",
"V 	c #E4B58B",
"W 	c #E05837",
"X 	c #F78D62",
"Y 	c #FFC593",
"Z 	c #A4917E",
"` 	c #B69F89",
" .	c #FE7D4F",
"..	c #F87145",
"+.	c #A56A56",
"@.	c #F2B385",
"#.	c #F3663E",
"$.	c #D65C42",
"%.	c #D4B791",
"&.	c #88615F",
"*.	c #9B8370",
"=.	c #596164",
"-.	c #FF8352",
";.	c #FF6F43",
">.	c #9B6554",
",.	c #F1BB8D",
"'.	c #856463",
").	c #ED734B",
"!.	c #FFAC7B",
"~.	c #D5AF89",
"{.	c #716C6B",
"].	c #5B5E61",
"^.	c #FF8A5A",
"/.	c #F79162",
"(.	c #E65B39",
"_.	c #E05634",
":.	c #EF6B43",
"<.	c #535959",
"[.	c #11DB11",
"}.	c #FF9464",
"|.	c #774A48",
"1.	c #444A4B",
"2.	c #654D45",
"3.	c #3D484B",
"4.	c #BBB5B5",
"5.	c #DE4A31",
"6.	c #FF8E5F",
"7.	c #D56240",
"8.	c #3A4445",
"9.	c #B7887E",
"0.	c #D25138",
"a.	c #FAA273",
"b.	c #CE482F",
"c.	c #F79669",
"d.	c #455052",
"e.	c #5A5A5A",
"f.	c #B39D99",
"g.	c #D06041",
"h.	c #725D55",
"i.	c #B32B1E",
"j.	c #CE4029",
"k.	c #F8754A",
"l.	c #F68158",
"m.	c #BC291A",
"n.	c #B73F33",
"o.	c #736464",
"p.	c #B6766D",
"q.	c #C73823",
"r.	c #BE2F1D",
"s.	c #B43B2F",
"t.	c #666666",
"u.	c #AE6A61",
"v.	c #7B6B63",
"w.	c #BDBDBD",
"                                                                ",
"                                          . + @ # $             ",
"                                          % & * = - ;           ",
"                                          & > , ' ) !           ",
"                                          ~ > , ' { !           ",
"                                          ] ^ = / ( _           ",
"                                          ~ : = / < _           ",
"                                [ [ } | 1 2 3 4 5 6 7           ",
"                      8 9 0   ! 9 ; ; a b c 3 d e f g           ",
"            _ a h   i j ; 0 8 k k 8 8 j j ; [ l m n o           ",
"          p i | [ 7 7 j j j ; ; 8 k k 8 8 8 j k q r g           ",
"        p j j j j ; ; s s k k 8 8 j j t h t t k k 8 j 9 u       ",
"      p ! 8 8 8 8 j j j 8 t t t k k k 8 8 i i h t t k 8 8       ",
"    p i i i h t t t k k k 8 8 i i i h t t k k v ! ! ! s w x     ",
"  p p ! ! ! i i i h t t t k k k t [ [ i i h h w y y y z A B     ",
"  > C D _ _ _ E ! ! ! ! ! i i h h F G y y [ H I J 7 c K K L     ",
"  M N O p p p _ _ _ E ! ! ! ! i i P Q D _ R S T U V d W W L     ",
"  X N N Y ~ Z 9 9 7 7 7 p _ _ `  ...+.a @.#.#.$.%.K K K K &.    ",
"  . N Y Y ~ ~ *.=.9 9 9 7 7 7 -...;.>.,., = = = . K K K K '.    ",
"  ).Y ~ ~ 2 2 !.!.~.{.].].~.^......./.#.#.#.#.d d (.(._._.o     ",
"  :.Y ~ ~ 2 2 !.!.> ] } <.^........., , , = = = [.[.(._.K o     ",
"  (.~ & & !.!.!.> ^ ^ }.& ......, , , , = |.1.[.[.[.(._._.{.    ",
"  _.. 2 2 !.!.> > ^ ^ 3 & , , , , , T 2.3.l [.[.[.[.(._._.{.    ",
"    4.5.. > > > ^ 3 3 6.% #.#.:.:.7.8.b b [.[.[.[.[.[.[.[.[.[.[.",
"      9.0.^ > ^ ^ 3 3 6.a.#.#.#.#.7.3.l [.[.[.[.[.[.[.[.[.[.[.[.",
"          9.b.3 3 6.6.^.c.= = = = 7.d.e.} [.[.[.[.[.[.[.[.[.[.[.",
"            f.e * 6.6.^.X 4 4 4 4 g.d.=.h.i.[.[.[.[.            ",
"                f.j.k.-.l.d d d _.m.n.o.9 j   [.[.[.            ",
"                  p.q.-.* d _.r.s.o.t.j         [.[.            ",
"                      u.s.v.t.k w.                              ",
"                                                                ",
"                                                                "};
