/* XPM */
static char * bulmasetup_editarusuario_xpm[] = {
"32 32 271 2",
"  	c None",
". 	c #9B9D97",
"+ 	c #9A9C97",
"@ 	c #B8B9B6",
"# 	c #BDBDBB",
"$ 	c #999A97",
"% 	c #BFC0BC",
"& 	c #ECECEB",
"* 	c #F1F1F0",
"= 	c #F3F3F2",
"- 	c #F5F5F4",
"; 	c #F4F4F2",
"> 	c #EDEDEC",
", 	c #9B9B97",
"' 	c #D5D6D3",
") 	c #EBEBE9",
"! 	c #EEEEED",
"~ 	c #F3F3F1",
"{ 	c #F6F6F6",
"] 	c #F9F9F9",
"^ 	c #F6F6F5",
"/ 	c #F2F2F0",
"( 	c #D2D3D0",
"_ 	c #989A95",
": 	c #C6C6C3",
"< 	c #E7E7E4",
"[ 	c #EAEAE9",
"} 	c #EFEFEE",
"| 	c #F4F4F3",
"1 	c #F8F8F8",
"2 	c #FDFDFD",
"3 	c #FCFCFC",
"4 	c #F7F7F7",
"5 	c #EEEEEC",
"6 	c #EBEBE8",
"7 	c #C1C2BE",
"8 	c #9D9E9A",
"9 	c #E4E4E2",
"0 	c #E6E6E3",
"a 	c #EAEAE8",
"b 	c #F7F7F6",
"c 	c #FAFAFA",
"d 	c #FAFAF9",
"e 	c #F2F2F1",
"f 	c #E9E9E7",
"g 	c #E6E6E4",
"h 	c #9C9D99",
"i 	c #BCBDB8",
"j 	c #E1E1DE",
"k 	c #EDEDEB",
"l 	c #F1F1EF",
"m 	c #F0F0EE",
"n 	c #ECECEA",
"o 	c #E8E8E6",
"p 	c #949690",
"q 	c #D1D1CD",
"r 	c #DEDEDB",
"s 	c #E3E3E0",
"t 	c #F0F0EF",
"u 	c #E2E2DF",
"v 	c #CFCFCC",
"w 	c #939590",
"x 	c #D6D6D3",
"y 	c #DCDCD9",
"z 	c #E0E0DD",
"A 	c #E4E4E1",
"B 	c #E7E7E5",
"C 	c #DFDFDC",
"D 	c #D5D5D2",
"E 	c #959690",
"F 	c #D1D2CE",
"G 	c #DADAD6",
"H 	c #DDDDDA",
"I 	c #E3E3E1",
"J 	c #E5E5E3",
"K 	c #DDDDD9",
"L 	c #CFD0CD",
"M 	c #D7D7D4",
"N 	c #DADAD7",
"O 	c #A7A8A3",
"P 	c #D9D9D5",
"Q 	c #D7D7D3",
"R 	c #D9D9D6",
"S 	c #DCDCD8",
"T 	c #A5A6A1",
"U 	c #A7A8A9",
"V 	c #B3B2B4",
"W 	c #C0C0C0",
"X 	c #BEBFBF",
"Y 	c #D2D2D0",
"Z 	c #D6D6D2",
"` 	c #DBDBD7",
" .	c #D1D1CF",
"..	c #9D9E9D",
"+.	c #BCBCBD",
"@.	c #C9C9C9",
"#.	c #D4D4D4",
"$.	c #BFC0C0",
"%.	c #A0A29C",
"&.	c #9FA19C",
"*.	c #B1B1B3",
"=.	c #C8C8C8",
"-.	c #C4C4C4",
";.	c #B0B1B1",
">.	c #979995",
",.	c #C4C4C3",
"'.	c #CCCCCB",
").	c #A8A9A5",
"!.	c #D8D8D4",
"~.	c #BABABA",
"{.	c #B8B8B9",
"].	c #C6C7C7",
"^.	c #9E9D9F",
"/.	c #A9A9AB",
"(.	c #C2C3C3",
"_.	c #DDDDDC",
":.	c #E9E9E8",
"<.	c #DBDBD9",
"[.	c #CBCBC9",
"}.	c #A3A5A1",
"|.	c #B4B5B0",
"1.	c #D0D1CD",
"2.	c #DBDBD8",
"3.	c #BCBCBC",
"4.	c #BFBFC0",
"5.	c #CACACA",
"6.	c #C4C4C5",
"7.	c #B3B3B5",
"8.	c #AFAFB1",
"9.	c #C8C8C9",
"0.	c #CCCDCD",
"a.	c #9C9D9E",
"b.	c #DBDBDA",
"c.	c #E3E3E2",
"d.	c #DADAD9",
"e.	c #C7C7C5",
"f.	c #ACADAA",
"g.	c #AEAFAB",
"h.	c #A0A19D",
"i.	c #A2A39F",
"j.	c #D3D3D3",
"k.	c #B5B5B6",
"l.	c #B8B8B8",
"m.	c #C5C4C5",
"n.	c #CAC9CA",
"o.	c #C2C2C2",
"p.	c #C7C7C7",
"q.	c #BDBEBF",
"r.	c #F2F2F2",
"s.	c #F0F0F0",
"t.	c #EEEEEE",
"u.	c #E2E2E2",
"v.	c #B9BABA",
"w.	c #BEBEBE",
"x.	c #B0B0B0",
"y.	c #ADADAD",
"z.	c #CACACB",
"A.	c #AEAEB0",
"B.	c #F9F9F8",
"C.	c #FBFBFB",
"D.	c #E4E4E4",
"E.	c #BABABB",
"F.	c #C1C1C1",
"G.	c #B2B2B1",
"H.	c #AEAEAE",
"I.	c #B6B6B5",
"J.	c #D8D9D8",
"K.	c #B5B6B7",
"L.	c #AFB0B2",
"M.	c #C8C8C6",
"N.	c #F8F8F7",
"O.	c #E6E6E7",
"P.	c #B2B2B2",
"Q.	c #B7B8B7",
"R.	c #CDCDCD",
"S.	c #E3E4E4",
"T.	c #9FA0A2",
"U.	c #949597",
"V.	c #999B9B",
"W.	c #DFE0DF",
"X.	c #E5E5E2",
"Y.	c #E5E6E6",
"Z.	c #B6B6B8",
"`.	c #BBBBBB",
" +	c #AFAFAF",
".+	c #B1B1B1",
"++	c #BABAB9",
"@+	c #E7E7E7",
"#+	c #ADAEB0",
"$+	c #D4D4D2",
"%+	c #DEDFDE",
"&+	c #999B96",
"*+	c #B4B5B5",
"=+	c #B1B2B2",
"-+	c #ACACAC",
";+	c #E9E9EA",
">+	c #D5D5D4",
",+	c #939691",
"'+	c #CACAC8",
")+	c #E2E2E0",
"!+	c #D3D4D3",
"~+	c #B3B4B5",
"{+	c #A6A6A7",
"]+	c #A4A5A5",
"^+	c #B5B6B6",
"/+	c #ABABAB",
"(+	c #BAB9BA",
"_+	c #C3C3C3",
":+	c #E8E8E9",
"<+	c #AAADAE",
"[+	c #D1D2D0",
"}+	c #BBBBB8",
"|+	c #BCBCBB",
"1+	c #B5B5B5",
"2+	c #B7B7B8",
"3+	c #B8B8B7",
"4+	c #BBBBBA",
"5+	c #E1E2E2",
"6+	c #ACAEAF",
"7+	c #D6D6D5",
"8+	c #DADBD9",
"9+	c #C4C4C1",
"0+	c #CDCDCC",
"a+	c #B4B4B4",
"b+	c #B5B4B4",
"c+	c #B7B7B6",
"d+	c #B6B6B6",
"e+	c #D7D8D8",
"f+	c #ADAFAB",
"g+	c #C9C9C7",
"h+	c #E8E8E5",
"i+	c #ADADAF",
"j+	c #B1B1B2",
"k+	c #CBCBCC",
"l+	c #929293",
"m+	c #ACAEAE",
"n+	c #D5D5D3",
"o+	c #CBCBCA",
"p+	c #ADADAE",
"q+	c #BEBEC0",
"r+	c #B4B4B5",
"s+	c #A0A1A1",
"t+	c #929294",
"u+	c #B5B5B4",
"v+	c #C9C9C8",
"w+	c #D2D2CE",
"x+	c #E5E5E4",
"y+	c #C0C1C2",
"z+	c #ACADAE",
"A+	c #CECECD",
"B+	c #DEDEDC",
"C+	c #A4A4A5",
"D+	c #A5A5A5",
"E+	c #B3B2B3",
"F+	c #B9BABB",
"G+	c #D7D7D7",
"H+	c #B7B8B4",
"I+	c #C7C8C6",
"J+	c #CCCDCB",
"K+	c #C3C4C2",
"L+	c #D2D3D1",
"M+	c #B4B5B4",
"N+	c #A1A1A2",
"O+	c #B4B5B6",
"P+	c #CDCECC",
"Q+	c #7F837E",
"R+	c #AAAAAC",
"S+	c #CECECF",
"T+	c #A6A6A6",
"U+	c #949497",
"V+	c #9C9C9E",
"                                                                ",
"                        . + @ # @ + +                           ",
"                    $ % & * = - - ; > # ,                       ",
"                  + ' ) ! ~ { ] ] ^ / ! ( _                     ",
"                + : < [ } | 1 2 3 4 ~ 5 6 7 +                   ",
"                8 9 0 a ! = b c d ^ e 5 f g h                   ",
"              + i j 9 f k l | ^ - = m n o 9 @ +                 ",
"              p q r s g a > t * * } k f 0 u v +                 ",
"              w x y z A B a n k k ) f g s C D +                 ",
"              E F G H j I 0 B o o B J s z K L p                 ",
"              + : M N H z u s A A s u z H N M +                 ",
"                O P Q R S H r C C r H S R Q P T U V W X         ",
"                + Y Z Z M P G N ` N P M Z Z  ...+.@.#.$.        ",
"                + %.P Z Z Z Z Z Z Z Z Z Z P &.*.=.-.;.          ",
"              >.,.'.).Z !.Z Z Z Z Z Z !.Z ).~.{.].+.^.    /.(.  ",
"            + _.:.<.[.}.|.1.v 2.` 2.1.|.}.[.3.4.=.5.6.7.8.9.0.a.",
"          + b.> k & c.d.e.f.g.h.i.h.f.e.d.j.k.W l.m.n.o.-.p.q.  ",
"          + k ) > m e - r.} s.! t.t.} r.u.v.w.x.y.3.o.o.o.z.A.  ",
"        + n o ) > m e - b d B.C.2 3 d D.E.F.G.H.I.j.J.K.z.L.    ",
"      + M.o o a k } / | ^ 1 N.] c d O.~.F.P.x.Q.R.S.T.U.V.      ",
"      + W.X.B 9 n ! l ~ - { ^ b N.Y.Z.`. +.+++@.@+#+$+%+&+      ",
"      + f A g  .) k } * = = e | D.*+=+-+H.~.-.;+U >+A f ,+      ",
"      + a s '+)+a n 5 } n !+~+{+]+^+y./+(+_+:+<+[+'+s a +       ",
"      + B C }+g o a n :.|+/+1+2+3+4+++3._+5+6+7+g }+C B +       ",
"      + 8+9+v X.g o a 0+]+a+l.b+`.c+c+d+e+L.>+g X.v 9+8++       ",
"      + f+g+j s X.g h+i+j+k+k.l+;.`.1+a+m+n+g X.s j g+f++       ",
"        + o+u j s 9 0 p+q+9.r+s+t+y.u+p+v+0 9 s j u o++         ",
"          + w+a < J x+y+z+A+A B+C+D+E+F+G+x+J < a w++           ",
"            + + H+I+L J+K+L+L M+N+x.z.O+P+L I+H++ +             ",
"                + + + + + + Q+R+S+R.T+$ + + + +                 ",
"                              U+V+                              ",
"                                                                "};
