/* XPM */
static char * bulmasetup_empresa_xpm[] = {
"32 32 363 2",
"  	c None",
". 	c #FFF128",
"+ 	c #FEDD2B",
"@ 	c #FFC328",
"# 	c #FEC327",
"$ 	c #FFC42A",
"% 	c #FFC218",
"& 	c #CC9608",
"* 	c #C59008",
"= 	c #B79156",
"- 	c #CAAB79",
"; 	c #BA955B",
"> 	c #FEEC0B",
", 	c #FED601",
"' 	c #FEB502",
") 	c #FEBA03",
"! 	c #FFBB03",
"~ 	c #F5B300",
"{ 	c #B38000",
"] 	c #8D6802",
"^ 	c #B68F54",
"/ 	c #DBC097",
"( 	c #E1C9A3",
"_ 	c #DEC69F",
": 	c #BF9B64",
"< 	c #FFEE08",
"[ 	c #FFD400",
"} 	c #FFB700",
"| 	c #FEB800",
"1 	c #FFBC00",
"2 	c #F1B000",
"3 	c #A57600",
"4 	c #8E6603",
"5 	c #B69155",
"6 	c #D8BE93",
"7 	c #DFC8A1",
"8 	c #E0C8A1",
"9 	c #DFC7A0",
"0 	c #DBC39A",
"a 	c #D7BD5A",
"b 	c #FFEC02",
"c 	c #FED200",
"d 	c #FFB300",
"e 	c #FFBB00",
"f 	c #EFAE00",
"g 	c #A57500",
"h 	c #896307",
"i 	c #B58F54",
"j 	c #D4B78A",
"k 	c #DAC095",
"l 	c #DBC298",
"m 	c #DCC49A",
"n 	c #DAC198",
"o 	c #E0C498",
"p 	c #FEE341",
"q 	c #FCCC00",
"r 	c #FFB600",
"s 	c #EEAF00",
"t 	c #9A6D00",
"u 	c #8C6304",
"v 	c #B69054",
"w 	c #CFB080",
"x 	c #D3B689",
"y 	c #D3B78A",
"z 	c #C3A06C",
"A 	c #C2A373",
"B 	c #C9AD7F",
"C 	c #EEAF83",
"D 	c #FFE1BA",
"E 	c #FAD68A",
"F 	c #FFBB12",
"G 	c #FFBA00",
"H 	c #EEAE00",
"I 	c #A67600",
"J 	c #92690A",
"K 	c #B58E52",
"L 	c #C9AA77",
"M 	c #CDAE7D",
"N 	c #CEAF7E",
"O 	c #C09D66",
"P 	c #D7C3A4",
"Q 	c #FCFDFE",
"R 	c #E4B084",
"S 	c #FFD7B9",
"T 	c #FEF6F2",
"U 	c #FCC8A9",
"V 	c #FDBE4D",
"W 	c #EDAA00",
"X 	c #956A00",
"Y 	c #8E6606",
"Z 	c #B58F53",
"` 	c #C5A36E",
" .	c #C8A772",
"..	c #C7A672",
"+.	c #BB955B",
"@.	c #CFB792",
"#.	c #FCFCFD",
"$.	c #F4E7DC",
"%.	c #FDCDA9",
"&.	c #FEF9F3",
"*.	c #FFCEA4",
"=.	c #FFB578",
"-.	c #FCB25A",
";.	c #BA8533",
">.	c #8F6C25",
",.	c #B48E51",
"'.	c #C29F67",
").	c #C3A06A",
"!.	c #C3A16A",
"~.	c #BB955A",
"{.	c #D7C4A6",
"].	c #FBFBFC",
"^.	c #F7FAFC",
"/.	c #F3BC93",
"(.	c #FFFAF1",
"_.	c #FECCA3",
":.	c #FFB577",
"<.	c #F79C54",
"[.	c #825C3E",
"}.	c #9D845F",
"|.	c #C3A16B",
"1.	c #B89257",
"2.	c #B48D50",
"3.	c #B99152",
"4.	c #B89050",
"5.	c #B89051",
"6.	c #B28847",
"7.	c #D0BA97",
"8.	c #F9F9F9",
"9.	c #F8F8F7",
"0.	c #F6D2B8",
"a.	c #FFEDDE",
"b.	c #FFD2AA",
"c.	c #FCA860",
"d.	c #BE7A3F",
"e.	c #988067",
"f.	c #AA8852",
"g.	c #BC9352",
"h.	c #B58E50",
"i.	c #BD975A",
"j.	c #BE985B",
"k.	c #B89053",
"l.	c #D7C5A8",
"m.	c #F8F8F9",
"n.	c #F7F7F7",
"o.	c #F7ECE4",
"p.	c #FEEEE3",
"q.	c #FFD1AF",
"r.	c #F3974D",
"s.	c #9A6A41",
"t.	c #CDC9C6",
"u.	c #D5C1A3",
"v.	c #B78F50",
"w.	c #BE975B",
"x.	c #BE985C",
"y.	c #B69052",
"z.	c #C29E65",
"A.	c #C39F68",
"B.	c #C3A068",
"C.	c #B79052",
"D.	c #D0BC9B",
"E.	c #F6F6F6",
"F.	c #F5F5F5",
"G.	c #F3F1F1",
"H.	c #FDE0CA",
"I.	c #FECA9D",
"J.	c #C97B38",
"K.	c #AF9989",
"L.	c #E5E7E9",
"M.	c #F9FBFF",
"N.	c #D7C6AB",
"O.	c #BC975D",
"P.	c #C4A169",
"Q.	c #C39F67",
"R.	c #B89256",
"S.	c #C8A672",
"T.	c #C9A975",
"U.	c #CAAA76",
"V.	c #BE9A61",
"W.	c #D6C5A9",
"X.	c #F5F5F7",
"Y.	c #F4F4F4",
"Z.	c #F3F3F3",
"`.	c #FAE8DB",
" +	c #EEBB91",
".+	c #9E6C43",
"++	c #D6D2D2",
"@+	c #F4F5F6",
"#+	c #D3C1A3",
"$+	c #BD995F",
"%+	c #BA945B",
"&+	c #D1B384",
"*+	c #BD985E",
"=+	c #D0BC9D",
"-+	c #F2F2F2",
";+	c #D4D4D5",
">+	c #77695A",
",+	c #C3A58B",
"'+	c #EBECED",
")+	c #F4F5F5",
"!+	c #F6F8FB",
"~+	c #D7C7AD",
"{+	c #C4A16C",
"]+	c #D3B687",
"^+	c #D1B383",
"/+	c #CFB180",
"(+	c #BD9960",
"_+	c #C19E68",
":+	c #D6B98D",
"<+	c #D7BB8F",
"[+	c #C5A46F",
"}+	c #D5C4A9",
"|+	c #F2F3F4",
"1+	c #F0F0F0",
"2+	c #F1F1F1",
"3+	c #747272",
"4+	c #D2D2D2",
"5+	c #EFF0F0",
"6+	c #F1F2F3",
"7+	c #D3C0A4",
"8+	c #C4A36D",
"9+	c #D7BB8E",
"0+	c #D6BA8D",
"a+	c #C6A470",
"b+	c #B1894B",
"c+	c #C19E69",
"d+	c #C19D66",
"e+	c #CFBC9E",
"f+	c #EFEFF0",
"g+	c #EEEEEE",
"h+	c #EFEFEF",
"i+	c #E4E4E4",
"j+	c #DADBDB",
"k+	c #8D9498",
"l+	c #7B838A",
"m+	c #798289",
"n+	c #7A8389",
"o+	c #8F9599",
"p+	c #F2F3F7",
"q+	c #D6C7AF",
"r+	c #CAAA78",
"s+	c #CCAC79",
"t+	c #CBBBA2",
"u+	c #EEEFF1",
"v+	c #ECECEC",
"w+	c #F2F1F1",
"x+	c #8F9699",
"y+	c #9DA6B0",
"z+	c #ABB3BE",
"A+	c #ADB5C0",
"B+	c #868F99",
"C+	c #767E82",
"D+	c #F0EFEF",
"E+	c #EEEEEF",
"F+	c #CCB99C",
"G+	c #A6895E",
"H+	c #CFD0D1",
"I+	c #EBEBEB",
"J+	c #F6F6F5",
"K+	c #4B575F",
"L+	c #9EA7B1",
"M+	c #A6AEB9",
"N+	c #616B72",
"O+	c #E4E5E5",
"P+	c #DFE0E1",
"Q+	c #868789",
"R+	c #CECECE",
"S+	c #EAEAEA",
"T+	c #E9E9E9",
"U+	c #F5F4F4",
"V+	c #47545B",
"W+	c #929BA5",
"X+	c #969FA9",
"Y+	c #636C73",
"Z+	c #E1E2E2",
"`+	c #DCDCDC",
" @	c #878787",
".@	c #E8E8E8",
"+@	c #F3F3F2",
"@@	c #455158",
"#@	c #838E97",
"$@	c #838D96",
"%@	c #87919A",
"&@	c #5F6A70",
"*@	c #E0E0E1",
"=@	c #DBDBDB",
"-@	c #888888",
";@	c #CCCCCC",
">@	c #E7E7E7",
",@	c #E6E6E6",
"'@	c #F2F1F0",
")@	c #424E56",
"!@	c #768089",
"~@	c #757F88",
"{@	c #78828B",
"]@	c #5D676E",
"^@	c #DEDFDF",
"/@	c #DADADA",
"(@	c #CBCBCB",
"_@	c #E5E5E5",
":@	c #404C54",
"<@	c #6A747D",
"[@	c #69737C",
"}@	c #6C767F",
"|@	c #5A646B",
"1@	c #DDDEDE",
"2@	c #D8D8D8",
"3@	c #CACACA",
"4@	c #E3E3E3",
"5@	c #EFEEED",
"6@	c #3E4951",
"7@	c #5C666F",
"8@	c #5E6871",
"9@	c #576268",
"0@	c #DCDCDD",
"a@	c #D7D7D7",
"b@	c #C9C9C9",
"c@	c #E2E2E2",
"d@	c #EDECEC",
"e@	c #3B474E",
"f@	c #4D5860",
"g@	c #4E5961",
"h@	c #555F65",
"i@	c #D6D6D6",
"j@	c #B3BEB2",
"k@	c #C9D4C8",
"l@	c #C9D3C7",
"m@	c #D2DCD0",
"n@	c #394B4A",
"o@	c #404B53",
"p@	c #505C60",
"q@	c #C5CFC4",
"r@	c #BFC9BE",
"s@	c #788775",
"t@	c #81AE5B",
"u@	c #9DC06A",
"v@	c #9CBF69",
"w@	c #9DC069",
"x@	c #78A757",
"y@	c #354E42",
"z@	c #323E46",
"A@	c #333E46",
"B@	c #323B46",
"C@	c #4D7B45",
"D@	c #95BB66",
"E@	c #9BBF6A",
"F@	c #53923F",
"G@	c #3F8635",
"H@	c #9CBC55",
"I@	c #9BBC54",
"J@	c #9BBB54",
"K@	c #90B650",
"L@	c #4F6F50",
"M@	c #4B545B",
"N@	c #4B555B",
"O@	c #4B525D",
"P@	c #5A9541",
"Q@	c #9CBC54",
"R@	c #9DBD54",
"S@	c #6A9F44",
"T@	c #4F8F39",
"U@	c #509039",
"V@	c #4E8F39",
"                                                                ",
"                                                                ",
"                                            . + @ # $ % & *     ",
"                            = - ;         > , ' ) ! ~ { ]       ",
"                          ^ / ( _ :     < [ } | 1 2 3 4         ",
"                        5 6 7 8 9 0 a b c d | e f g h           ",
"                      i j k l m n o p q r | 1 s t u             ",
"                    v w x y z A B C D E F G H I J               ",
"                  K L M N O P Q R S T U V W X Y                 ",
"                Z `  ...+.@.#.$.%.&.*.=.-.;.>.                  ",
"              ,.'.).!.~.{.].^./.(._.:.<.[.}.|.1.                ",
"            2.3.4.5.6.7.8.9.0.a.b.c.d.e.f.g.4.3.h.              ",
"          2.i.i.j.k.l.m.n.o.p.q.r.s.t.m.u.v.w.i.x.y.            ",
"        v z.A.B.C.D.E.F.G.H.I.J.K.L.m.F.M.N.O.P.A.Q.R.          ",
"      Z S.T.U.V.W.X.Y.Z.`. +.+++Y.Y.Y.Y.Y.@+#+$+U.T.U.;         ",
"    %+M &+&+*+=+Z.-+Z.;+>+,+'+)+-+-+-+-+-+-+!+~+{+]+^+/+(+      ",
"    _+:+<+[+}+|+1+2+1+3+4+2+5+5+5+1+1+1+1+1+1+6+7+8+9+0+a+b+    ",
"      c+d+e+f+g+g+h+i+j+k+l+m+m+m+n+o+1+h+g+g+g+p+q+r+s+        ",
"        t+u+v+v+v+v+w+x+y+z+z+z+z+A+B+C+D+v+v+v+v+E+F+G+        ",
"        H+v+I+I+I+I+J+K+L+L+L+L+L+L+M+N+O+I+I+I+I+I+P+Q+        ",
"        R+S+T+T+T+T+U+V+W+W+W+W+W+W+X+Y+Z+T+T+T+T+S+`+ @        ",
"        R+T+.@.@.@.@+@@@#@$@$@$@$@$@%@&@*@.@.@.@.@.@=@-@        ",
"        ;@>@,@,@,@,@'@)@!@~@~@~@~@~@{@]@^@,@,@,@,@>@/@-@        ",
"        (@,@_@_@_@_@D+:@<@[@[@[@[@[@}@|@1@_@_@_@_@_@2@-@        ",
"        3@i+4@4@4@4@5@6@7@7@7@7@7@7@8@9@0@4@4@4@4@i+a@-@        ",
"        b@4@c@c@c@c@d@e@f@f@f@f@f@f@g@h@=@c@c@c@c@c@i@-@        ",
"        j@k@l@l@l@l@m@n@o@o@o@o@o@o@o@p@q@l@l@l@l@k@r@s@        ",
"      t@u@v@v@v@v@v@w@x@y@z@A@A@A@A@B@C@D@v@v@v@v@v@v@E@F@      ",
"    G@H@I@J@J@J@J@J@J@K@L@M@N@N@N@N@O@P@Q@J@J@J@J@J@J@R@S@      ",
"      T@U@U@U@U@U@U@U@V@                U@U@U@U@U@U@U@U@        ",
"                                                                ",
"                                                                "};
