/* XPM */
static char * bulmasetup_eliminarempresa_xpm[] = {
"48 48 514 2",
"  	c None",
". 	c #B38C4F",
"+ 	c #C5A470",
"@ 	c #D0B384",
"# 	c #E0C7A0",
"$ 	c #D6BA8F",
"% 	c #C8A775",
"& 	c #D0B284",
"* 	c #E1C8A2",
"= 	c #E1C9A3",
"- 	c #E0C8A1",
"; 	c #CFB181",
"> 	c #DFC79F",
", 	c #E0C9A2",
"' 	c #E1C9A2",
") 	c #DEC69E",
"! 	c #C7A773",
"~ 	c #CDAE7D",
"{ 	c #DCC299",
"] 	c #DDC49C",
"^ 	c #DEC59E",
"/ 	c #DEC59D",
"( 	c #DDC39B",
"_ 	c #DBC197",
": 	c #CAAB79",
"< 	c #D8BD92",
"[ 	c #D9BF94",
"} 	c #DAC096",
"| 	c #DAC197",
"1 	c #DAC196",
"2 	c #D9C095",
"3 	c #D8BE93",
"4 	c #D7BC91",
"5 	c #C3A26C",
"6 	c #C8A774",
"7 	c #D4B78A",
"8 	c #D5B88C",
"9 	c #D5B98D",
"0 	c #CBAB7B",
"a 	c #B48D50",
"b 	c #C8A876",
"c 	c #D5B98C",
"d 	c #D4B88B",
"e 	c #D3B689",
"f 	c #C29F69",
"g 	c #C5A46F",
"h 	c #D0B282",
"i 	c #D1B284",
"j 	c #D1B384",
"k 	c #C8A674",
"l 	c #B58F53",
"m 	c #E8DDCC",
"n 	c #CFB791",
"o 	c #BF9C64",
"p 	c #D0B283",
"q 	c #D0B182",
"r 	c #C09D66",
"s 	c #C3A16B",
"t 	c #CCAD7B",
"u 	c #CDAE7C",
"v 	c #C4A36E",
"w 	c #FDFDFD",
"x 	c #BD9A61",
"y 	c #BE9B63",
"z 	c #C19E67",
"A 	c #C9A875",
"B 	c #C9A975",
"C 	c #E7DCCB",
"D 	c #FCFCFC",
"E 	c #FBFBFA",
"F 	c #CEB690",
"G 	c #BC975E",
"H 	c #C9A874",
"I 	c #BD9960",
"J 	c #C09B63",
"K 	c #C6A46E",
"L 	c #C09C64",
"M 	c #E7DCCA",
"N 	c #FBFBFB",
"O 	c #BA955B",
"P 	c #C6A46D",
"Q 	c #BB975D",
"R 	c #BE995F",
"S 	c #C3A069",
"T 	c #BE9A60",
"U 	c #E6DBCA",
"V 	c #FAFAFA",
"W 	c #CEB58F",
"X 	c #BA9459",
"Y 	c #BB955B",
"Z 	c #B78F51",
"` 	c #B99151",
" .	c #B89051",
"..	c #E5DAC9",
"+.	c #F9F9F9",
"@.	c #CDB58F",
"#.	c #B58E51",
"$.	c #B99152",
"%.	c #B68F51",
"&.	c #B89154",
"*.	c #BB9456",
"=.	c #BB9355",
"-.	c #B99254",
";.	c #E5DAC8",
">.	c #F8F8F8",
",.	c #B68F52",
"'.	c #B79053",
").	c #BA9458",
"!.	c #BE985C",
"~.	c #BE985B",
"{.	c #BB9458",
"].	c #B59055",
"^.	c #E4D9C8",
"/.	c #F7F7F7",
"(.	c #CDB48E",
"_.	c #B89255",
":.	c #BC975C",
"<.	c #C19D64",
"[.	c #C29D64",
"}.	c #BD985D",
"|.	c #E3D8C7",
"1.	c #F6F6F6",
"2.	c #CCB48E",
"3.	c #B99357",
"4.	c #BF9B62",
"5.	c #C6A36C",
"6.	c #C6A36D",
"7.	c #C09C63",
"8.	c #E2D7C6",
"9.	c #F5F5F5",
"0.	c #CCB48D",
"a.	c #BB965C",
"b.	c #CAA975",
"c.	c #CAAA76",
"d.	c #E2D7C5",
"e.	c #F4F4F4",
"f.	c #CBB38D",
"g.	c #BC985E",
"h.	c #C4A26C",
"i.	c #CEAF7E",
"j.	c #CFB180",
"k.	c #C6A570",
"l.	c #E1D6C5",
"m.	c #F3F3F3",
"n.	c #BE9A62",
"o.	c #CFB07F",
"p.	c #CEAF7D",
"q.	c #BF9C63",
"r.	c #C7A571",
"s.	c #D3B587",
"t.	c #D4B688",
"u.	c #C9A876",
"v.	c #E0D5C4",
"w.	c #F2F2F2",
"x.	c #CBB28C",
"y.	c #C09C66",
"z.	c #D3B688",
"A.	c #D4B689",
"B.	c #D2B586",
"C.	c #D1B283",
"D.	c #C7A572",
"E.	c #D5B88B",
"F.	c #D6BA8D",
"G.	c #D7BB8E",
"H.	c #DFD4C3",
"I.	c #F1F1F1",
"J.	c #CAB28C",
"K.	c #C19F69",
"L.	c #D9BD92",
"M.	c #CDAE7E",
"N.	c #F0F0F0",
"O.	c #C8CACC",
"P.	c #999EA2",
"Q.	c #838B8F",
"R.	c #8C9396",
"S.	c #B2B6B9",
"T.	c #ECECEC",
"U.	c #C3A06B",
"V.	c #C4A16C",
"W.	c #CBAB7A",
"X.	c #B58F55",
"Y.	c #DDD2C1",
"Z.	c #EEEEEE",
"`.	c #858C90",
" +	c #556068",
".+	c #747E87",
"++	c #828B95",
"@+	c #7C868F",
"#+	c #636E76",
"$+	c #5B646A",
"%+	c #D7D8D9",
"&+	c #C9B18B",
"*+	c #C4A26D",
"=+	c #AF8C56",
"-+	c #D5CAB8",
";+	c #EDEDED",
">+	c #A6ABAD",
",+	c #68727B",
"'+	c #ABB3BE",
")+	c #78818B",
"!+	c #5F686E",
"~+	c #C1A882",
"{+	c #AA8D61",
"]+	c #91908E",
"^+	c #E1E1E1",
"/+	c #566066",
"(+	c #9099A3",
"_+	c #A4ACB7",
":+	c #4E5961",
"<+	c #CDCFD0",
"[+	c #E5D9D9",
"}+	c #E1C9C4",
"|+	c #DFBCB5",
"1+	c #DAACA2",
"2+	c #DCB2A8",
"3+	c #E0C1BB",
"4+	c #E2CCC9",
"5+	c #D3D0D0",
"6+	c #91908F",
"7+	c #909090",
"8+	c #E0E0E0",
"9+	c #EBEBEB",
"0+	c #455157",
"a+	c #959FA8",
"b+	c #9BA4AE",
"c+	c #57626A",
"d+	c #B7BBBD",
"e+	c #EAEAEA",
"f+	c #D5A299",
"g+	c #D58B77",
"h+	c #D16D4E",
"i+	c #D26442",
"j+	c #D56842",
"k+	c #D46641",
"l+	c #CF6341",
"m+	c #D0775D",
"n+	c #CB8879",
"o+	c #97746D",
"p+	c #DFDFDF",
"q+	c #8E97A1",
"r+	c #939CA6",
"s+	c #B2AFB0",
"t+	c #CE806F",
"u+	c #D87654",
"v+	c #D85E2F",
"w+	c #D75421",
"x+	c #D64E19",
"y+	c #D54A14",
"z+	c #D44A15",
"A+	c #D24D1A",
"B+	c #D15223",
"C+	c #D05E37",
"D+	c #C8725A",
"E+	c #E9E9E9",
"F+	c #848F97",
"G+	c #89939C",
"H+	c #54585F",
"I+	c #BF6D5B",
"J+	c #D9683D",
"K+	c #D44610",
"L+	c #D4440D",
"M+	c #D4430C",
"N+	c #D3430C",
"O+	c #D1420B",
"P+	c #CF400B",
"Q+	c #CC3E0B",
"R+	c #CA3C0A",
"S+	c #C83B0B",
"T+	c #C64114",
"U+	c #CC6B4E",
"V+	c #AC2711",
"W+	c #DEDEDE",
"X+	c #E8E8E8",
"Y+	c #455057",
"Z+	c #808A93",
"`+	c #89544A",
" @	c #D45A2E",
".@	c #D4440C",
"+@	c #D2420C",
"@@	c #D1410B",
"#@	c #CF3F0C",
"$@	c #C73909",
"%@	c #C4380A",
"&@	c #C13408",
"*@	c #BF350B",
"=@	c #C3583D",
"-@	c #DDDDDD",
";@	c #E7E7E7",
">@	c #737E86",
",@	c #77818A",
"'@	c #817377",
")@	c #BD4C28",
"!@	c #D54811",
"~@	c #CE410E",
"{@	c #C1441A",
"]@	c #CA3F0D",
"^@	c #C93A09",
"/@	c #BD3910",
"(@	c #BA3D19",
"_@	c #BF3207",
":@	c #BD3209",
"<@	c #BA3008",
"[@	c #B9340F",
"}@	c #B84128",
"|@	c #DCDCDC",
"1@	c #E6E6E6",
"2@	c #6C767F",
"3@	c #6F7982",
"4@	c #6F7881",
"5@	c #8D5E57",
"6@	c #CD4214",
"7@	c #D1430D",
"8@	c #C16850",
"9@	c #D5BAB9",
"0@	c #BB6049",
"a@	c #C73806",
"b@	c #B73109",
"c@	c #C89289",
"d@	c #CFA9A6",
"e@	c #B54021",
"f@	c #BA2F08",
"g@	c #B72D07",
"h@	c #B12B09",
"i@	c #AB2B10",
"j@	c #DBDBDB",
"k@	c #E5E5E5",
"l@	c #646F77",
"m@	c #67717A",
"n@	c #686E76",
"o@	c #9C4330",
"p@	c #CC3C0C",
"q@	c #CB3B0A",
"r@	c #CA3B0A",
"s@	c #C93D0E",
"t@	c #D99C8B",
"u@	c #FFFFFF",
"v@	c #F0E7E7",
"w@	c #AE5340",
"x@	c #CD9E96",
"y@	c #FDFFFF",
"z@	c #FBF8F8",
"A@	c #BF593F",
"B@	c #B02907",
"C@	c #A82607",
"D@	c #A32305",
"E@	c #A22409",
"F@	c #DADADA",
"G@	c #E4E4E4",
"H@	c #5C666F",
"I@	c #5E6871",
"J@	c #61656D",
"K@	c #A7381F",
"L@	c #CB3A0A",
"M@	c #C73809",
"N@	c #C53709",
"O@	c #C33509",
"P@	c #C5441D",
"Q@	c #EABFB3",
"R@	c #F9F4F4",
"S@	c #FDFCFC",
"T@	c #FCF8F7",
"U@	c #CD816E",
"V@	c #A82606",
"W@	c #A42407",
"X@	c #A22306",
"Y@	c #9F2005",
"Z@	c #9E2006",
"`@	c #D9D9D9",
" #	c #E3E3E3",
".#	c #535E66",
"+#	c #545F67",
"@#	c #575C62",
"##	c #A73318",
"$#	c #C8390A",
"%#	c #C5370A",
"&#	c #C23509",
"*#	c #BF3308",
"=#	c #BB2D04",
"-#	c #C25538",
";#	c #F4E4E0",
">#	c #FEFEFF",
",#	c #E2BBB3",
"'#	c #A11A00",
")#	c #A42406",
"!#	c #A12206",
"~#	c #9C1F05",
"{#	c #9B1E05",
"]#	c #A21D06",
"^#	c #D8D8D8",
"/#	c #E2E2E2",
"(#	c #4A555D",
"_#	c #4B565E",
":#	c #4E545B",
"<#	c #9B351F",
"[#	c #C13409",
"}#	c #BB3008",
"|#	c #AF2F0F",
"1#	c #C7928A",
"2#	c #FAFAFB",
"3#	c #ECDFDF",
"4#	c #A85245",
"5#	c #9E1F04",
"6#	c #9E2005",
"7#	c #9B1F06",
"8#	c #981E05",
"9#	c #9B1E06",
"0#	c #D7D7D7",
"a#	c #424D55",
"b#	c #434C53",
"c#	c #7F3A2C",
"d#	c #C0350B",
"e#	c #BD3208",
"f#	c #BB3108",
"g#	c #B13312",
"h#	c #CA9993",
"i#	c #FCFFFF",
"j#	c #FDFAF9",
"k#	c #CC7F6D",
"l#	c #E1B8AE",
"m#	c #ECE1E1",
"n#	c #AA594D",
"o#	c #9B1F07",
"p#	c #981D05",
"q#	c #971D04",
"r#	c #9D1F07",
"s#	c #478B38",
"t#	c #498B3B",
"u#	c #47813D",
"v#	c #3E5C46",
"w#	c #3A454D",
"x#	c #5B3F3D",
"y#	c #B9330F",
"z#	c #B62E08",
"A#	c #B23514",
"B#	c #EDD8D4",
"C#	c #C87764",
"D#	c #A42305",
"E#	c #A93419",
"F#	c #DDB1A8",
"G#	c #C07C71",
"H#	c #991F07",
"I#	c #961C04",
"J#	c #A2260F",
"K#	c #87B25D",
"L#	c #B9D07B",
"M#	c #BDD37D",
"N#	c #9EC06B",
"O#	c #478938",
"P#	c #344644",
"Q#	c #323E45",
"R#	c #3A3A3F",
"S#	c #954923",
"T#	c #B7310D",
"U#	c #B22C07",
"V#	c #AF2A08",
"W#	c #B84A2E",
"X#	c #C1654F",
"Y#	c #A52508",
"Z#	c #A6361E",
"`#	c #B76150",
" $	c #9E2A13",
".$	c #971C04",
"+$	c #9F2812",
"@$	c #A0BF59",
"#$	c #A7C35B",
"$$	c #619A41",
"%$	c #3E5948",
"&$	c #3B474E",
"*$	c #62692C",
"=$	c #B44624",
"-$	c #B02E0D",
";$	c #A92707",
">$	c #A62505",
",$	c #A32103",
"'$	c #A12205",
")$	c #991D04",
"!$	c #971B02",
"~$	c #9F2C17",
"{$	c #984521",
"]$	c #649B3F",
"^$	c #6DA141",
"/$	c #6B9F40",
"($	c #4E8B40",
"_$	c #8C908B",
":$	c #628D59",
"<$	c #806829",
"[$	c #AD4525",
"}$	c #AC3216",
"|$	c #A5290D",
"1$	c #9F2206",
"2$	c #9D1E04",
"3$	c #9B1D04",
"4$	c #981C04",
"5$	c #982008",
"6$	c #9B260E",
"7$	c #A3331E",
"8$	c #9C4421",
"9$	c #57752E",
"0$	c #636C29",
"a$	c #924F27",
"b$	c #AC371F",
"c$	c #A7361E",
"d$	c #A3331D",
"e$	c #A02F19",
"f$	c #A0301A",
"g$	c #A1331D",
"h$	c #A23921",
"i$	c #815224",
"j$	c #517D31",
"k$	c #AA2E18",
"l$	c #A82E18",
"m$	c #A72E1A",
"n$	c #A72E19",
"o$	c #A82D17",
"                                                                                                ",
"                                                                                                ",
"                                                                                                ",
"                                                                                                ",
"                                            . + . .                                             ",
"                                          . @ # $ % .                                           ",
"                                        . & * = = - % .                                         ",
"                                      . ; > , = ' - ) ! .                                       ",
"                                    . ~ { ] ^ ) ) / ( _ + .                                     ",
"                                  . : < [ } | 1 | | 2 3 4 5 .                                   ",
"                                . 6 7 8 9 9 0 a b 9 9 c d e f .                                 ",
"                              . g h i j j k l m n o j j j p q r .                               ",
"                            . s t u u u v l m w w n x t u u u t y .                             ",
"                          . z A B B A f l C D D E D F G H A B A H I .                           ",
"                        . J K K K K L l M N N N N N N F O P K K K K Q .                         ",
"                      . R S S S S T l U V V V V V V V V W X S S S S S Y .                       ",
"                    . Z `  . .` Z l ..+.+.+.+.+.+.+.+.+.+.@.#.$.`  .` $.%..                     ",
"                  . &.*.=.=.*.-.l ;.>.>.>.>.>.>.>.>.>.>.>.>.@.,.*.*.=.*.*.'..                   ",
"                . ).!.~.~.!.{.].^././././././././././././././.(.&.!.!.~.!.!._..                 ",
"              . :.<.[.[.<.}.].|.1.1.1.1.1.1.1.1.1.1.1.1.1.1.1.1.2.3.<.<.[.<.<.)..               ",
"            . 4.5.6.6.5.7.].8.9.9.9.9.9.9.9.9.9.9.9.9.9.9.9.9.9.9.0.O 5.6.6.6.5.a..             ",
"          . z b.c.c.c.S ].d.e.e.e.e.e.e.e.e.e.e.e.e.e.e.e.e.e.e.e.e.f.g.b.c.c.c.b.I .           ",
"        . h.i.j.j.j.k.].l.m.m.m.m.m.m.m.m.m.m.m.m.m.m.m.m.m.m.m.m.m.m.f.n.o.j.j.o.p.q..         ",
"      . r.j s.t.t.u.].v.w.w.w.w.w.w.w.w.w.w.w.w.w.w.w.w.w.w.w.w.w.w.w.w.x.y.z.A.z.B.C.z .       ",
"      . D.E.F.G.t ].H.I.I.I.I.I.I.I.I.I.I.I.I.I.I.I.I.I.I.I.I.I.I.I.I.I.I.J.K.G.G.F.E.f .       ",
"        . u.L.M.].H.N.N.N.N.N.N.N.N.N.O.P.Q.Q.Q.Q.Q.R.S.T.N.N.N.N.N.N.N.N.N.J.U.L.L.V..         ",
"          . W.X.Y.Z.Z.Z.Z.Z.Z.Z.Z.Z.`. +.+++++++++++@+#+$+%+Z.Z.Z.Z.Z.Z.Z.Z.Z.&+*+g .           ",
"            =+-+;+;+;+;+;+;+;+;+;+>+,+'+'+'+'+'+'+'+'+'+)+!+;+;+;+;+;+;+T.T.;+;+~+{+            ",
"            ]+^+T.T.T.T.T.T.T.T.T./+(+_+_+_+_+_+_+_+_+_+_+:+<+T.T.[+}+|+1+2+3+4+5+6+            ",
"            7+8+9+9+9+9+9+9+9+9+9+0+a+b+b+b+b+b+b+b+b+b+b+c+d+e+f+g+h+i+j+k+l+m+n+o+            ",
"            7+p+e+e+e+e+e+e+e+e+e+0+q+r+r+r+r+r+r+r+r+r+r+ +s+t+u+v+w+x+y+z+A+B+C+D+            ",
"            7+p+E+E+E+E+E+E+E+E+E+0+F+G+G+G+G+G+G+G+G+G+G+H+I+J+K+L+M+N+O+P+Q+R+S+T+U+V+        ",
"            7+W+X+X+X+X+X+X+X+X+X+Y+@+Z+Z+Z+Z+Z+Z+Z+Z+Z+Z+`+ @.@L+N++@@@#@Q+R+$@%@&@*@=@        ",
"            7+-@;@;@;@;@;@;@;@;@;@Y+>@,@,@,@,@,@,@,@,@,@'@)@!@M+N+~@{@]@Q+^@/@(@_@:@<@[@}@      ",
"            7+|@1@1@1@1@1@1@1@1@1@Y+2@3@3@3@3@3@3@3@3@4@5@6@@@N+7@8@9@0@a@b@c@d@e@f@g@h@i@      ",
"            7+j@k@k@k@k@k@k@k@k@k@Y+l@m@m@m@m@m@m@m@m@n@o@p@q@r@s@t@u@v@w@x@y@z@A@B@C@D@E@      ",
"            7+F@G@G@G@G@G@G@G@G@G@Y+H@I@I@I@I@I@I@I@I@J@K@L@M@N@O@P@Q@u@R@S@T@U@V@W@X@Y@Z@      ",
"            7+`@ # # # # # # # # #Y+.#+#+#+#+#+#+#+#+#@###$#%#&#*#=#-#;#u@>#,#'#)#!#Z@~#{#]#    ",
"            7+^#/#/#/#/#/#/#/#/#/#Y+(#_#_#_#_#_#_#_#_#:#<#N@[#*#}#|#1#2#T@u@3#4#5#6#7#8#9#      ",
"            7+0#^+^+^+^+^+^+^+^+^+Y+a#a#a#a#a#a#a#a#a#b#c#d#e#f#g#h#i#j#k#l#u@m#n#o#p#q#r#      ",
"          s#t#s#s#s#s#s#s#s#s#s#s#u#v#w#w#w#w#w#w#w#w#w#x#y#<@z#A#B#u@C#D#E#F#u@G#H#I#H#J#      ",
"        s#K#L#M#M#M#M#M#M#M#M#M#M#N#O#P#Q#Q#Q#Q#Q#Q#Q#Q#R#S#T#U#V#W#X#Y#!#6#Z#`# $.$p#+$        ",
"        s#@$#$#$#$#$#$#$#$#$#$#$#$#$$$%$&$&$&$&$&$&$&$&$&$*$=$-$;$>$,$'$6#7#)$!$.$p#~${$        ",
"        s#]$^$^$^$^$^$^$^$^$^$^$^$/$($_$7+7+7+7+7+7+7+7+7+:$<$[$}$|$1$2$3$4$.$5$6$7$8$9$        ",
"            s#s#s#s#s#s#s#s#s#s#s#s#                          0$a$b$c$d$e$f$g$7$h$i$j$          ",
"                                                                    k$l$m$n$o$                  ",
"                                                                                                ",
"                                                                                                "};
