/* XPM */
static char * bulmasetup_aceptar_xpm[] = {
"32 32 428 2",
"  	c None",
". 	c #4EB012",
"+ 	c #38A500",
"@ 	c #61BB22",
"# 	c #86CD45",
"$ 	c #97D658",
"% 	c #9CD85D",
"& 	c #A3DB65",
"* 	c #A1DA62",
"= 	c #9AD65B",
"- 	c #8ED14F",
"; 	c #73C333",
"> 	c #46AB0B",
", 	c #4AAE0F",
"' 	c #6EC02F",
") 	c #A8DF67",
"! 	c #B4E370",
"~ 	c #B1E269",
"{ 	c #ACDF5A",
"] 	c #A6DE4F",
"^ 	c #A0DB3F",
"/ 	c #A1DC44",
"( 	c #A5DE52",
"_ 	c #ADDF66",
": 	c #AFE06B",
"< 	c #AEDF71",
"[ 	c #86CB49",
"} 	c #4BAE12",
"| 	c #5BB81C",
"1 	c #B0E168",
"2 	c #99D92F",
"3 	c #8ED51A",
"4 	c #8AD40F",
"5 	c #88D30A",
"6 	c #87D30B",
"7 	c #86D20A",
"8 	c #84D20A",
"9 	c #82D009",
"0 	c #81CE0A",
"a 	c #84CE14",
"b 	c #87D021",
"c 	c #9FD74D",
"d 	c #ABDC75",
"e 	c #72C036",
"f 	c #35A300",
"g 	c #58B51C",
"h 	c #ADE069",
"i 	c #A0DC40",
"j 	c #87D308",
"k 	c #88D30C",
"l 	c #89D40D",
"m 	c #86D20C",
"n 	c #84D10B",
"o 	c #83D10C",
"p 	c #80CE0C",
"q 	c #7FCD0B",
"r 	c #7CCC0C",
"s 	c #7ACB0B",
"t 	c #75C805",
"u 	c #7CC916",
"v 	c #A6D865",
"w 	c #77C33F",
"x 	c #40A907",
"y 	c #62BA22",
"z 	c #AEE169",
"A 	c #91D61D",
"B 	c #87D30A",
"C 	c #88D30D",
"D 	c #89D40C",
"E 	c #85D30C",
"F 	c #83D20B",
"G 	c #82D00C",
"H 	c #80CF0C",
"I 	c #7ECD0C",
"J 	c #7BCC0C",
"K 	c #79CA0A",
"L 	c #76C809",
"M 	c #73C70A",
"N 	c #71C509",
"O 	c #6FC30B",
"P 	c #8ACC3D",
"Q 	c #7DC446",
"R 	c #35A400",
"S 	c #55B319",
"T 	c #A8DE5D",
"U 	c #8AD40C",
"V 	c #88D40D",
"W 	c #89D30D",
"X 	c #86D30B",
"Y 	c #7DCC0C",
"Z 	c #7BCC0B",
"` 	c #79CA0B",
" .	c #74C709",
"..	c #71C40A",
"+.	c #6DC309",
"@.	c #6AC109",
"#.	c #67BE06",
"$.	c #88CA3E",
"%.	c #74BF3E",
"&.	c #31A100",
"*.	c #90D345",
"=.	c #8DD514",
"-.	c #89D30C",
";.	c #86D30C",
">.	c #85D20C",
",.	c #81CF0C",
"'.	c #7FCD0C",
").	c #7CCD0B",
"!.	c #78C90A",
"~.	c #75C709",
"{.	c #72C60A",
"].	c #70C40A",
"^.	c #66BE08",
"/.	c #65BD08",
"(.	c #60BB06",
"_.	c #79C330",
":.	c #4EAE16",
"<.	c #71C230",
"[.	c #98DA26",
"}.	c #88D30B",
"|.	c #84D20B",
"1.	c #82D10C",
"2.	c #77C909",
"3.	c #74C80A",
"4.	c #6CC208",
"5.	c #69C008",
"6.	c #66BF08",
"7.	c #63BD09",
"8.	c #61BB08",
"9.	c #5DB908",
"0.	c #5CB809",
"a.	c #78C03C",
"b.	c #37A500",
"c.	c #89D127",
"d.	c #88D40C",
"e.	c #83D00C",
"f.	c #7ACB0A",
"g.	c #77C80A",
"h.	c #74C70A",
"i.	c #72C509",
"j.	c #6FC40A",
"k.	c #5EB101",
"l.	c #59A010",
"m.	c #65BD07",
"n.	c #64BC09",
"o.	c #60BA08",
"p.	c #5DB808",
"q.	c #5AB707",
"r.	c #58B507",
"s.	c #5DB414",
"t.	c #55B121",
"u.	c #4EB111",
"v.	c #76CB10",
"w.	c #7DCF0B",
"x.	c #84D20C",
"y.	c #84D10C",
"z.	c #76C80A",
"A.	c #72C50A",
"B.	c #6EC40A",
"C.	c #64B708",
"D.	c #A7C885",
"E.	c #F2F6ED",
"F.	c #66AD1F",
"G.	c #5FB907",
"H.	c #5DB907",
"I.	c #5AB708",
"J.	c #56B307",
"K.	c #4FAD07",
"L.	c #44A103",
"M.	c #54AC1D",
"N.	c #49AF07",
"O.	c #76CC0B",
"P.	c #75CB0B",
"Q.	c #74CB0A",
"R.	c #74CA0A",
"S.	c #74C90A",
"T.	c #75CA0A",
"U.	c #78CB0B",
"V.	c #70C509",
"W.	c #59AE00",
"X.	c #FFFFFF",
"Y.	c #EDF3E7",
"Z.	c #60A41C",
"`.	c #55B107",
" +	c #4EA907",
".+	c #49A507",
"++	c #45A106",
"@+	c #44A005",
"#+	c #43A108",
"$+	c #59B910",
"%+	c #76CC0A",
"&+	c #73CA09",
"*+	c #71C80A",
"=+	c #6FC60A",
"-+	c #6DC50A",
";+	c #6BC20A",
">+	c #64BA07",
",+	c #68BF09",
"'+	c #68BE09",
")+	c #67BE09",
"!+	c #5FB308",
"~+	c #FEFEFE",
"{+	c #FBFDFA",
"]+	c #8BC75E",
"^+	c #47A404",
"/+	c #47A407",
"(+	c #44A006",
"_+	c #419F06",
":+	c #419F07",
"<+	c #42A809",
"[+	c #5BBA0A",
"}+	c #72C909",
"|+	c #70C70A",
"1+	c #6FC50A",
"2+	c #6CC40A",
"3+	c #6BC30A",
"4+	c #66BE06",
"5+	c #75AC3C",
"6+	c #80B24E",
"7+	c #5CB503",
"8+	c #60B909",
"9+	c #5DB708",
"0+	c #4CA400",
"a+	c #A6C785",
"b+	c #76BC42",
"c+	c #46A302",
"d+	c #47A306",
"e+	c #45A206",
"f+	c #439F05",
"g+	c #419E06",
"h+	c #3F9C06",
"i+	c #3E9C06",
"j+	c #3FA606",
"k+	c #5BBB08",
"l+	c #72C90A",
"m+	c #6EC60A",
"n+	c #6AC20A",
"o+	c #65BC08",
"p+	c #7FB14D",
"q+	c #5AB106",
"r+	c #56AC07",
"s+	c #84C255",
"t+	c #45A105",
"u+	c #439F06",
"v+	c #3F9C05",
"w+	c #3D9A06",
"x+	c #3C9A05",
"y+	c #59B808",
"z+	c #71C70A",
"A+	c #6EC50A",
"B+	c #6CC309",
"C+	c #67C009",
"D+	c #78C12B",
"E+	c #F7F9F5",
"F+	c #FEFEFF",
"G+	c #FCFDFB",
"H+	c #7BAF47",
"I+	c #A5C782",
"J+	c #75BB42",
"K+	c #45A302",
"L+	c #46A206",
"M+	c #429F06",
"N+	c #409E06",
"O+	c #3E9B06",
"P+	c #3B9905",
"Q+	c #3FA607",
"R+	c #54B50D",
"S+	c #6EC509",
"T+	c #6CC30A",
"U+	c #69C109",
"V+	c #68C008",
"W+	c #65BD09",
"X+	c #60BA05",
"Y+	c #B0DC85",
"Z+	c #83C255",
"`+	c #44A201",
" @	c #46A205",
".@	c #3E9B05",
"+@	c #3D9906",
"@@	c #3B9805",
"#@	c #3A9804",
"$@	c #3B9A05",
"%@	c #40A708",
"&@	c #49AE08",
"*@	c #66BF09",
"=@	c #62BB09",
"-@	c #5FB908",
";@	c #5AB503",
">@	c #98D064",
",@	c #74BA42",
"'@	c #43A006",
")@	c #409D06",
"!@	c #399704",
"~@	c #3E9D09",
"{@	c #4AAE0D",
"]@	c #67BF0D",
"^@	c #67BF08",
"/@	c #5FB809",
"(@	c #5CB608",
"_@	c #5AB408",
":@	c #55B105",
"<@	c #C5E4AB",
"[@	c #82C155",
"}@	c #43A101",
"|@	c #3B9804",
"1@	c #3A9704",
"2@	c #46A313",
"3@	c #66BD19",
"4@	c #63BB07",
"5@	c #61BA09",
"6@	c #5FB808",
"7@	c #5CB508",
"8@	c #59B407",
"9@	c #57B108",
"0@	c #54AF07",
"a@	c #53AD07",
"b@	c #A3D27D",
"c@	c #74B942",
"d@	c #44A106",
"e@	c #3D9A05",
"f@	c #3C9905",
"g@	c #3A9805",
"h@	c #3A9705",
"i@	c #399805",
"j@	c #499E18",
"k@	c #3FA806",
"l@	c #54B218",
"m@	c #69BE15",
"n@	c #5EB708",
"o@	c #5BB507",
"p@	c #59B308",
"q@	c #56B108",
"r@	c #54AE08",
"s@	c #51AD07",
"t@	c #4FAA07",
"u@	c #4AA703",
"v@	c #B8DC9E",
"w@	c #85C258",
"x@	c #429E06",
"y@	c #3E9C05",
"z@	c #3C9805",
"A@	c #399705",
"B@	c #3E9A0A",
"C@	c #47A514",
"D@	c #64B922",
"E@	c #5FB60D",
"F@	c #58B307",
"G@	c #56B008",
"H@	c #53AE07",
"I@	c #51AC07",
"J@	c #4FAA06",
"K@	c #4CA707",
"L@	c #4AA606",
"M@	c #3F9D06",
"N@	c #3C9A06",
"O@	c #399703",
"P@	c #55A727",
"Q@	c #41A709",
"R@	c #43AA0A",
"S@	c #6ABB29",
"T@	c #5BB20E",
"U@	c #50AC06",
"V@	c #4CA706",
"W@	c #3E9A05",
"X@	c #3D9909",
"Y@	c #56A628",
"Z@	c #45A611",
"`@	c #43AA09",
" #	c #6BB92E",
".#	c #5AB015",
"+#	c #4CA804",
"@#	c #4BA606",
"##	c #419D06",
"$#	c #3D9B06",
"%#	c #3C9906",
"&#	c #399804",
"*#	c #389703",
"=#	c #409B0D",
"-#	c #5AA92D",
";#	c #44A20E",
">#	c #41A908",
",#	c #67B62E",
"'#	c #61B125",
")#	c #4DA70D",
"!#	c #429F05",
"~#	c #3D9908",
"{#	c #4BA01A",
"]#	c #5CAA31",
"^#	c #46A510",
"/#	c #42A909",
"(#	c #59AF22",
"_#	c #66B232",
":#	c #5FAE2A",
"<#	c #51A619",
"[#	c #419D08",
"}#	c #3C9A03",
"|#	c #3B9803",
"1#	c #399803",
"2#	c #389702",
"3#	c #379602",
"4#	c #469E14",
"5#	c #54A626",
"6#	c #5DAA31",
"7#	c #53A525",
"8#	c #43A70C",
"9#	c #49AA11",
"0#	c #5AAD26",
"a#	c #5FAE2F",
"b#	c #63AE36",
"c#	c #60AB32",
"d#	c #5AA82D",
"e#	c #54A526",
"f#	c #57A72A",
"g#	c #5CA930",
"h#	c #61AC36",
"i#	c #5CAA30",
"j#	c #56A828",
"k#	c #48A515",
"l#	c #3DA903",
"m#	c #43A80B",
"n#	c #44A80E",
"o#	c #48A614",
"p#	c #4BA617",
"q#	c #4FA61F",
"r#	c #4CA61B",
"s#	c #48A615",
"t#	c #44A60E",
"u#	c #42A80B",
"                                                                ",
"                                                                ",
"                              .                                 ",
"                    + @ # $ % & * = - ; >                       ",
"                , ' ) ! ~ { ] ^ / ( _ : < [ }                   ",
"              | & 1 2 3 4 5 6 7 8 9 0 a b c d e f               ",
"            g h i j k l l k m n o p q r s t u v w x             ",
"          y z A B k C D k E F G H I J K L M N O P Q R           ",
"        S T U k V W C k X o G p Y Z ` L  ...+.@.#.$.%.          ",
"      &.*.=.k l -.V ;.>.o ,.'.).s !.~.{.].+.@.^./.(._.:.        ",
"      <.[.}.W D k ;.|.1.,.q r s 2.3.{.].4.5.6.7.8.9.0.a.b.      ",
"      c.5 l d.C ;.|.e.p q J f.g.h.i.j.k.l.m.n.o.p.q.r.s.t.      ",
"    u.v.w.x.>.|.y.G p I Z K z.M A.B.C.D.E.F.G.H.I.J.K.L.M.      ",
"    N.O.P.Q.R.S.T.U.Z J K L M V.B.W.D.X.X.Y.Z.`. +.+++@+#+      ",
"    $+%+R.&+*+=+-+;+/.>+,+,+'+)+!+D.X.~+X.{+]+^+/+++(+_+:+<+    ",
"    [+Q.}+|+1+2+3+4+5+6+7+8+9+0+a+X.~+~+{+b+c+d+e+f+g+h+i+j+    ",
"    k+l+|+m+2+n+o+5+X.X.p+q+r+D.X.~+X.{+s+c+d+t+u+g+v+w+x+j+    ",
"    y+z+A+B+@.C+D+E+X.F+G+H+I+X.~+~+{+J+K+L+@+M+N+O+w+P+P+Q+    ",
"    R+S+T+U+V+W+X+Y+X.X.~+X.X.~+X.{+Z+`+ @@+M+h+.@+@@@#@$@%@    ",
"    &@;+U+*@W+=@-@;@>@~+~+X.~+~+{+,@`+++'@g+)@.@w+@@#@!@~@      ",
"    {@]@^@n.=@/@(@_@:@<@X.X.X.{+[@}@t+'@g+h+w+x+|@1@!@!@2@      ",
"      3@4@5@6@7@8@9@0@a@b@X.{+c@}@d@M+)@i+e@f@g@h@i@!@j@k@      ",
"      l@m@n@o@p@q@r@s@t@u@v@w@}@(+x@)@y@e@z@1@A@g@!@B@C@        ",
"        D@E@F@G@H@I@J@K@L@d+L.'@M+M@.@N@@@1@i@g@!@O@P@Q@        ",
"        R@S@T@a@U@ +V@.+d+t+'@g+h+W@f@g@A@i@g@!@X@Y@Z@          ",
"          `@ #.#+#@#.+L+t+M+##h+$#%#g@&#g@g@*#=#-#;#            ",
"            >#,#'#)#L+@+!#N+v+N@f@#@!@!@!@~#{#]#^#              ",
"              /#(#_#:#<#[#}#|#1#2#3#O@4#5#6#7#8#                ",
"                  9#0#a#b#c#d#e#f#g#h#i#j#k#l#                  ",
"                      m#n#o#p#q#r#s#t#u#                        ",
"                                                                ",
"                                                                "};
