/* XPM */
static char * user_icon_xpm[] = {
"32 32 447 2",
"  	c None",
". 	c #C7C8C9",
"+ 	c #7E7F79",
"@ 	c #72726F",
"# 	c #848482",
"$ 	c #A9A8A6",
"% 	c #ABADAC",
"& 	c #717372",
"* 	c #676B6E",
"= 	c #656866",
"- 	c #6C6F70",
"; 	c #7E8183",
"> 	c #8E908F",
", 	c #A6A7A9",
"' 	c #BEBEC0",
") 	c #DCDFE0",
"! 	c #CCCDD2",
"~ 	c #666867",
"{ 	c #707171",
"] 	c #646569",
"^ 	c #646664",
"/ 	c #6A6D6F",
"( 	c #6E7172",
"_ 	c #777976",
": 	c #7E7E7B",
"< 	c #8D8E8C",
"[ 	c #A6A7A5",
"} 	c #C2C4C2",
"| 	c #858689",
"1 	c #4C4B4A",
"2 	c #575353",
"3 	c #5F5B5C",
"4 	c #66625C",
"5 	c #625D5B",
"6 	c #69625E",
"7 	c #726C61",
"8 	c #726B62",
"9 	c #756F65",
"0 	c #756E67",
"a 	c #7F7972",
"b 	c #787677",
"c 	c #302F2C",
"d 	c #494340",
"e 	c #5D514F",
"f 	c #6F5E51",
"g 	c #978073",
"h 	c #A48E7D",
"i 	c #9F8C76",
"j 	c #A2927E",
"k 	c #9F8C79",
"l 	c #9F8D79",
"m 	c #BEAE9F",
"n 	c #69696B",
"o 	c #303030",
"p 	c #3C3634",
"q 	c #503F3A",
"r 	c #BFA48D",
"s 	c #DDB89F",
"t 	c #EBC6AA",
"u 	c #E7C8AA",
"v 	c #E7CDB4",
"w 	c #E7CAB0",
"x 	c #E9CCB2",
"y 	c #E1CAB5",
"z 	c #EFE2D4",
"A 	c #C1C0BF",
"B 	c #505257",
"C 	c #2D2E31",
"D 	c #342F2D",
"E 	c #78665D",
"F 	c #CBAA8F",
"G 	c #D4A886",
"H 	c #F2C6A2",
"I 	c #F3CEA9",
"J 	c #ECCDB1",
"K 	c #EDCEB1",
"L 	c #EDCFB2",
"M 	c #E5CDB5",
"N 	c #E4D6C7",
"O 	c #AEB1B3",
"P 	c #484B51",
"Q 	c #2B2D2C",
"R 	c #302821",
"S 	c #7E6A5C",
"T 	c #C8A786",
"U 	c #D2A783",
"V 	c #DDB18C",
"W 	c #EBC49F",
"X 	c #EFCEB1",
"Y 	c #EDCDAF",
"Z 	c #E8CCAD",
"` 	c #E7D0B8",
" .	c #E0D1C2",
"..	c #ACB0B2",
"+.	c #373638",
"@.	c #3C352A",
"#.	c #4F3E2B",
"$.	c #7F634B",
"%.	c #C6A37E",
"&.	c #CDA37F",
"*.	c #D6AB88",
"=.	c #D8B08A",
"-.	c #E4BD9D",
";.	c #EECAA7",
">.	c #ECCEAC",
",.	c #E9CFB5",
"'.	c #D8C7B7",
").	c #2A201A",
"!.	c #907A63",
"~.	c #9C7E5E",
"{.	c #AB8764",
"].	c #B79367",
"^.	c #C8A07B",
"/.	c #CBA27F",
"(.	c #D6AB84",
"_.	c #DAAB88",
":.	c #D9AD86",
"<.	c #E0B992",
"[.	c #DFC0A2",
"}.	c #D5BFAB",
"|.	c #625A56",
"1.	c #7A634A",
"2.	c #97734C",
"3.	c #A8825C",
"4.	c #B08C63",
"5.	c #BD9570",
"6.	c #C49B79",
"7.	c #CBA17F",
"8.	c #D1A27E",
"9.	c #D4A47D",
"0.	c #CEA47B",
"a.	c #C3A07C",
"b.	c #CBB49F",
"c.	c #483624",
"d.	c #91704F",
"e.	c #A68261",
"f.	c #A2805D",
"g.	c #B18661",
"h.	c #BD916D",
"i.	c #B89575",
"j.	c #C49C77",
"k.	c #C89D78",
"l.	c #C09670",
"m.	c #BC9774",
"n.	c #C9B8A3",
"o.	c #66472E",
"p.	c #9E7854",
"q.	c #9C754A",
"r.	c #A78053",
"s.	c #AA8256",
"t.	c #B58C64",
"u.	c #B58760",
"v.	c #B88C62",
"w.	c #B68D65",
"x.	c #A68567",
"y.	c #DACBBE",
"z.	c #725F4C",
"A.	c #866849",
"B.	c #9D7C54",
"C.	c #8D6D45",
"D.	c #9A7D54",
"E.	c #9D7B54",
"F.	c #A57F57",
"G.	c #AB8155",
"H.	c #A58056",
"I.	c #93775D",
"J.	c #6C5C44",
"K.	c #6F5634",
"L.	c #8B6F4D",
"M.	c #836948",
"N.	c #7F6545",
"O.	c #876B46",
"P.	c #937349",
"Q.	c #8F6B40",
"R.	c #94734F",
"S.	c #BAA290",
"T.	c #C8BEAE",
"U.	c #7A5E3D",
"V.	c #7C5A32",
"W.	c #755939",
"X.	c #876C4F",
"Y.	c #7E6443",
"Z.	c #7A5D39",
"`.	c #7E5D35",
" +	c #816340",
".+	c #A1B1C1",
"++	c #7D746E",
"@+	c #8D6A4C",
"#+	c #85582D",
"$+	c #7A5833",
"%+	c #745732",
"&+	c #7E603A",
"*+	c #7B5A36",
"=+	c #72583D",
"-+	c #746455",
";+	c #CDC4BC",
">+	c #9EB7D0",
",+	c #91B6D6",
"'+	c #7699BA",
")+	c #6A7888",
"!+	c #877569",
"~+	c #926945",
"{+	c #845D36",
"]+	c #7C572E",
"^+	c #835A32",
"/+	c #785431",
"(+	c #948B80",
"_+	c #B4B6BC",
":+	c #85A4C4",
"<+	c #A4CDF9",
"[+	c #A5D4FF",
"}+	c #AFDBFF",
"|+	c #A8C9E5",
"1+	c #90989D",
"2+	c #8C735C",
"3+	c #926944",
"4+	c #8E6037",
"5+	c #95643A",
"6+	c #916B48",
"7+	c #959795",
"8+	c #BCCEE0",
"9+	c #9DB0C6",
"0+	c #DCEBF1",
"a+	c #8CAED1",
"b+	c #A1D1FB",
"c+	c #99CCFD",
"d+	c #A2CFFE",
"e+	c #B2DAFD",
"f+	c #B5DEFC",
"g+	c #B7D5E8",
"h+	c #A7A8A3",
"i+	c #92755C",
"j+	c #946844",
"k+	c #A06F4A",
"l+	c #947154",
"m+	c #848987",
"n+	c #BFDBED",
"o+	c #BBDCF8",
"p+	c #94B2CB",
"q+	c #C7D7E1",
"r+	c #85A8CF",
"s+	c #A1D4FF",
"t+	c #90CBFC",
"u+	c #9DD5FF",
"v+	c #A8D7FF",
"w+	c #B5D8F9",
"x+	c #B4DAFD",
"y+	c #BBE4FF",
"z+	c #BCDAEE",
"A+	c #CACDC9",
"B+	c #AE9B84",
"C+	c #9B8267",
"D+	c #B9A897",
"E+	c #D1D1D2",
"F+	c #B4D0E4",
"G+	c #BFE4FC",
"H+	c #B6DCDD",
"I+	c #5C9D35",
"J+	c #358606",
"K+	c #307F16",
"L+	c #7E9DC2",
"M+	c #9DC7F4",
"N+	c #93C9FC",
"O+	c #92CDFF",
"P+	c #99D2FF",
"Q+	c #A7D5FF",
"R+	c #B3D9FC",
"S+	c #B6DDFF",
"T+	c #B9E3FF",
"U+	c #C0E5FF",
"V+	c #D0E3EE",
"W+	c #F6F6F3",
"X+	c #F1E9E0",
"Y+	c #FCF6EF",
"Z+	c #DDE0E4",
"`+	c #ABC7D7",
" @	c #6FAC60",
".@	c #54AA18",
"+@	c #8ED233",
"@@	c #4F9526",
"#@	c #7AA3CE",
"$@	c #9DCBFA",
"%@	c #90C5F8",
"&@	c #92CBFE",
"*@	c #9CD2FF",
"=@	c #AFD9FE",
"-@	c #B6DEFF",
";@	c #B9E2FE",
">@	c #C9E4F9",
",@	c #E4F1F9",
"'@	c #F9FBFC",
")@	c #FAFAFA",
"!@	c #E0E6E9",
"~@	c #65A148",
"{@	c #66B625",
"]@	c #8BD415",
"^@	c #81D108",
"/@	c #71C709",
"(@	c #4A931F",
"_@	c #99B7CD",
":@	c #8EBFE8",
"<@	c #94C7F8",
"[@	c #8EC6F8",
"}@	c #94CDFF",
"|@	c #9BD0FE",
"1@	c #A4D4FF",
"2@	c #AED8FF",
"3@	c #B4DBFF",
"4@	c #B9E1FF",
"5@	c #BEE3FE",
"6@	c #C5E5FD",
"7@	c #D0E3F1",
"8@	c #F0F8FF",
"9@	c #F4F6F8",
"0@	c #B8D6A4",
"a@	c #4BA316",
"b@	c #EAF4E2",
"c@	c #D4ECBB",
"d@	c #68C207",
"e@	c #6BC011",
"f@	c #38823A",
"g@	c #81A5C4",
"h@	c #96CEFF",
"i@	c #86C2F6",
"j@	c #89C6FA",
"k@	c #90CAF9",
"l@	c #9ACEFB",
"m@	c #A5D2FE",
"n@	c #AED5FB",
"o@	c #B5D9FA",
"p@	c #B9DCFD",
"q@	c #BBE1FF",
"r@	c #C0E1FC",
"s@	c #C9E0F3",
"t@	c #DCE8F3",
"u@	c #F0F3F5",
"v@	c #59B605",
"w@	c #4AA60B",
"x@	c #7EA4CB",
"y@	c #83C0FC",
"z@	c #86C2FE",
"A@	c #8FC8FE",
"B@	c #99CEFE",
"C@	c #9ED0FE",
"D@	c #A6D3FE",
"E@	c #AFD6FC",
"F@	c #B2DAFC",
"G@	c #B3DEFF",
"H@	c #B4DEFE",
"I@	c #BDE0FD",
"J@	c #C9E1F4",
"K@	c #E5EFF9",
"L@	c #368708",
"M@	c #DAECCD",
"N@	c #AED296",
"O@	c #3C9A06",
"P@	c #84ABD4",
"Q@	c #97D1FF",
"R@	c #7BBBFA",
"S@	c #82BFFD",
"T@	c #8EC6FE",
"U@	c #93C9FE",
"V@	c #98CEFF",
"W@	c #A0D3FE",
"X@	c #A8D5FD",
"Y@	c #ACD9FE",
"Z@	c #AEDBFF",
"`@	c #AEDEFF",
" #	c #B0DBFE",
".#	c #BBDCF7",
"+#	c #D7E9F8",
"@#	c #4C9325",
"##	c #8BB3D9",
"$#	c #93D0FF",
"%#	c #77B7F4",
"&#	c #80BFFB",
"*#	c #83BFF8",
"=#	c #8EC8FF",
"-#	c #92CCFF",
";#	c #9CD0FE",
">#	c #A2D1FB",
",#	c #A6D3FB",
"'#	c #A6D5FD",
")#	c #A7D8FE",
"!#	c #ADDBFF",
"~#	c #B1D6F6",
"{#	c #CBE0F3",
"]#	c #53AE06",
"^#	c #63BA0C",
"/#	c #419511",
"(#	c #CDE1C3",
"_#	c #769DC4",
":#	c #9DD9FF",
"<#	c #76B7F2",
"[#	c #78BEFC",
"}#	c #7CC3FE",
"|#	c #7FC4FE",
"1#	c #8BC8FD",
"2#	c #92CCFE",
"3#	c #9ACEFE",
"4#	c #9FD0FB",
"5#	c #A5D4FD",
"6#	c #A3D4FF",
"7#	c #A2D3FC",
"8#	c #A9D2F4",
"9#	c #BBD6EB",
"0#	c #97BF85",
"a#	c #3B8623",
"b#	c #5E8CBC",
"c#	c #82B7EF",
"d#	c #7BB6F7",
"e#	c #78BCFF",
"f#	c #7CC0FF",
"g#	c #84C5FD",
"h#	c #86C6FE",
"i#	c #8CC8FD",
"j#	c #97CDFE",
"k#	c #9DCFFB",
"l#	c #9ACBF5",
"m#	c #A4D6FF",
"n#	c #A5D1F4",
"o#	c #B4D3EC",
"p#	c #BFD1DF",
"q#	c #4D982B",
"r#	c #428E17",
"s#	c #7F9DBF",
"t#	c #759DCA",
"u#	c #77A9DC",
"v#	c #7BB0E4",
"w#	c #81B7E7",
"x#	c #87C0F1",
"y#	c #8DC1F1",
"z#	c #8FBEEA",
"A#	c #94BDE2",
"B#	c #97BEE1",
"C#	c #8FB4D6",
"D#	c #8CAEC9",
"E#	c #A3B9CA",
"F#	c #DAE4ED",
"G#	c #80B962",
"H#	c #378709",
"I#	c #B8D9EE",
"J#	c #9DC4E5",
"K#	c #98BFE4",
"L#	c #9BC1E4",
"M#	c #A8C7E5",
"N#	c #8AB86E",
"                              . + @ # $                         ",
"                          % & * = - ; > , ' )                   ",
"                        ! ~ { ] ^ / ( _ : < [ }                 ",
"                        | 1 2 3 4 5 6 7 8 9 0 a                 ",
"                        b c d e f g h i j k l m                 ",
"                        n o p q r s t u v w x y z               ",
"                      A B C D E F G H I J K L M N               ",
"                      O P Q R S T U V W X Y Z `  .              ",
"                      ..+.@.#.$.%.&.*.=.-.;.>.,.'.              ",
"                        ).!.~.{.].^./.(._.:.<.[.}.              ",
"                        |.1.2.3.4.5.6.7.8.9.0.a.b.              ",
"                          c.d.e.f.g.h.i.j.k.l.m.n.              ",
"                            o.p.q.r.s.t.u.v.w.x.y.              ",
"                            z.A.B.C.D.E.F.G.H.I.                ",
"                            J.K.L.M.N.O.P.Q.R.S.                ",
"                          T.U.V.W.X.Y.Z.`. +1.                  ",
"                        .+++@+#+$+%+&+*+=+-+;+                  ",
"                    >+,+'+)+!+~+{+]+^+/+(+_+                    ",
"                  :+<+[+}+|+1+2+3+4+5+6+7+8+9+0+                ",
"                a+b+c+d+e+f+g+h+i+j+k+l+m+n+o+p+q+              ",
"              r+s+t+u+v+w+x+y+z+A+B+C+D+E+F+G+H+I+J+J+K+        ",
"            L+M+N+O+P+Q+R+S+T+U+V+W+X+Y+Z+`+ @.@+@+@+@+@.@@@    ",
"            #@$@%@&@*@Q+=@-@;@U+>@,@'@)@!@~@{@+@]@^@^@/@]@{@(@  ",
"          _@:@<@[@}@|@1@2@3@4@5@6@7@8@9@0@a@]@]@]@b@c@/@d@e@a@f@",
"          g@h@i@j@k@l@m@n@o@p@q@r@s@t@u@I+e@^@^@/@b@b@v@v@v@w@J+",
"          x@P+y@z@A@B@C@D@E@F@G@H@I@J@K@L@/@/@c@M@b@b@M@N@O@O@J+",
"          P@Q@R@S@T@U@V@W@X@Y@Z@`@ #.#+#@#d@d@b@b@b@b@b@N@O@O@J+",
"          ##$#%#&#*#=#-#;#>#,#'#)#!#~#{#I+]#^#J+/#b@(#J+J+O@O@J+",
"          _#:#<#[#}#|#1#2#3#4#5#6#7#8#9#0#O@^#]#.@b@M@O@O@O@O@a#",
"            b#c#d#e#f#g#h#i#j#k#l#m#n#o#p#q#a@.@w@J+J+O@/#a@r#  ",
"              s#t#u#v#w#x#y#z#A#B#C#D#E#F#  G#O@a@a@a@a@/#H#    ",
"                    I#J#K#L#M#                N#J+J+J+J+I+      "};
