/* XPM */
static const char *ainteligente[]={
"32 32 9 1",
". c None",
"a c #000000",
"g c #303030",
"f c #585858",
"d c #800000",
"b c #c00000",
"c c #c0c000",
"e c #ff0000",
"# c #ffff00",
"............#......#............",
"......##......###......##.......",
"........##..#######..##.........",
"...........#########............",
"........aaa#########aaaa........",
".....##abb###########bbb##......",
"......a##b###accca###b##ba......",
"......abbb###a###a###bbbba......",
"......abbb###a###a###bbbba......",
".....####b####aaa####b####......",
"......aaaaa###aaa###aaaaaa......",
"....aaaaddd###aaa###ddddaaaa....",
"...aeeee##dd##aaa##dd##aeeeea...",
"..aeee##eaddd#####dddda##eeeea..",
"..aeeeeeead#dfffffd#ddaeeeeeea..",
"..aeeeeeeaa#agggffa#aaaeeeeeea..",
"...aeeeeaa#bbfffffbb#baaeeeea...",
"....aaaaeabbbfgggfbbbbaeaaaa....",
".....aaaaaaaaafffaaaaaaaaaa.....",
".....adddddddddddddddddddda.....",
".....adddddddddddddddddddda.....",
".....adddddddddddddddddddda.....",
".....aaaaaaaaaaaaaaaaaaaaaa.....",
"......aa...............aa.......",
"......aa...............aa.......",
"................................",
"................................",
"................................",
"................................",
"................................",
"................................",
"................................"};
