/* XPM */
static const char *ccoste[]={
"32 32 9 1",
". c None",
"# c #000000",
"a c #000080",
"f c #303030",
"g c #585858",
"e c #c0c000",
"c c #dcdcdc",
"d c #ff0000",
"b c #ffffc0",
"................................",
"................................",
"..##################............",
".#..................#...........",
".#.aaaaaaaaaaaaaaaa.#...........",
".#.abb##################........",
".#.ab#..................#.......",
".#.ab#.aaaaaaaaaaaaaaaa.#.......",
".#.ab#.aaa##################....",
".#.ab#.cc#..................#...",
".#.ab#.ca#.aaaaaaaaaaaaaaaa.#...",
".#.aa#.cb#.accccccccccccaaa.#...",
".#.aa#.cb#.acaaaaaaaaaacaaa.#...",
".#.aa#.cb#.acbbbbbbbbbbcaaa.#...",
".#.aa#.cb#.acbbbbbbbbdbcaaa.#...",
".#.aa#.cb#.acbdbbbbbdbbcaaa.#...",
".#.aa#.cb#.acdddbbbdbbbcaaa.#...",
".#...#.cb#.acbdbbbbbbbbcaaa.#...",
"..####.cc#.acbbbbbdddbbcaaa.#...",
".....#.aa#.acbbbbbbbbbbcaaa.#...",
"efefe#...#.accccccccccccaaa.#...",
"fefeff####.aaaaaaaaaaaaaaaa.#...",
".........#.aaaaaaaaaaaaaaaa.#...",
".....ffff#.aaaaaaaaaaaaaaaa.#...",
"....ffefe#..................#...",
"...gfffeff##################....",
"................................",
".........fffffffffffffffffffff..",
"........ffefefefefefefefefefeff.",
".......ffefefefefefefefefefefeff",
"......gggggggggggggggggggggggggg",
"................................"};
