/* XPM */
static char * i_down_xpm[] = {
"32 32 149 2",
"  	c None",
". 	c #0E2E46",
"+ 	c #0A8EB2",
"@ 	c #5296B6",
"# 	c #328AAE",
"$ 	c #1E82A6",
"% 	c #167EA6",
"& 	c #128EB2",
"* 	c #0E5272",
"= 	c #0A223A",
"- 	c #DAF6FE",
"; 	c #92D2E6",
"> 	c #5EB6D2",
", 	c #42A6CA",
"' 	c #1696BA",
") 	c #16BAD6",
"! 	c #0E5E82",
"~ 	c #0A2A3E",
"{ 	c #FAFAFE",
"] 	c #C2EEF6",
"^ 	c #8ED2E6",
"/ 	c #6ABAD6",
"( 	c #1A92B2",
"_ 	c #16B2CA",
": 	c #12668E",
"< 	c #FEFEFE",
"[ 	c #B2E2EE",
"} 	c #82CADE",
"| 	c #1A96B6",
"1 	c #22BACE",
"2 	c #126A92",
"3 	c #062636",
"4 	c #DEF6FE",
"5 	c #BAE6EE",
"6 	c #2EBAD2",
"7 	c #E6F6FA",
"8 	c #D6F2FA",
"9 	c #AADEEA",
"0 	c #72C2D6",
"a 	c #168EB2",
"b 	c #2EBECE",
"c 	c #AEDEEA",
"d 	c #B6E6F6",
"e 	c #7ACEE2",
"f 	c #3AB2CE",
"g 	c #1292B2",
"h 	c #32C2D2",
"i 	c #126686",
"j 	c #72BAD2",
"k 	c #76CAE2",
"l 	c #4EBED6",
"m 	c #1AA2C6",
"n 	c #2ABED6",
"o 	c #127A9E",
"p 	c #0A3652",
"q 	c #0E3A56",
"r 	c #0E3E5E",
"s 	c #12425E",
"t 	c #124262",
"u 	c #0A3E5E",
"v 	c #369EC2",
"w 	c #32AECA",
"x 	c #16A6C6",
"y 	c #0E9ABE",
"z 	c #0E96BE",
"A 	c #16B2CE",
"B 	c #1296B6",
"C 	c #0E567A",
"D 	c #061626",
"E 	c #0E3652",
"F 	c #1E4662",
"G 	c #365676",
"H 	c #3A5E7E",
"I 	c #26567A",
"J 	c #0E5A7A",
"K 	c #26AACA",
"L 	c #0E9AC2",
"M 	c #12AED2",
"N 	c #0E7296",
"O 	c #0E5E7E",
"P 	c #12567A",
"Q 	c #0E4E6E",
"R 	c #0E4A6E",
"S 	c #0A364E",
"T 	c #060E1A",
"U 	c #123A56",
"V 	c #769AB6",
"W 	c #9EBACE",
"X 	c #7EAEC6",
"Y 	c #56AAC6",
"Z 	c #3ABAD2",
"` 	c #0A9EC2",
" .	c #12A2CA",
"..	c #12AACA",
"+.	c #26B6CA",
"@.	c #229AB6",
"#.	c #6E96B2",
"$.	c #D2E2F2",
"%.	c #DEEAF6",
"&.	c #B2DEEA",
"*.	c #0EA2C6",
"=.	c #1AB6D6",
"-.	c #22CEE2",
";.	c #36DAE6",
">.	c #2AB6CE",
",.	c #0E769E",
"'.	c #1A425E",
").	c #7296B2",
"!.	c #D6DEEA",
"~.	c #DEEEF2",
"{.	c #8EDAE6",
"].	c #42C6D6",
"^.	c #12AECE",
"/.	c #4ADEEA",
"(.	c #061A2A",
"_.	c #1E4A66",
":.	c #6E8AA6",
"<.	c #D2DEEA",
"[.	c #DAF2F6",
"}.	c #4EC6DA",
"|.	c #22CADE",
"1.	c #36D6E2",
"2.	c #2AC6DA",
"3.	c #061E32",
"4.	c #2A526E",
"5.	c #FAF6FA",
"6.	c #82D2E6",
"7.	c #26CAE2",
"8.	c #2ABECE",
"9.	c #0E5672",
"0.	c #6E8EAA",
"a.	c #DEE2EA",
"b.	c #F2F6FA",
"c.	c #32CEDE",
"d.	c #12B6D2",
"e.	c #0E8AB2",
"f.	c #061E2E",
"g.	c #CEDEEE",
"h.	c #D2EEFA",
"i.	c #6E8EA6",
"j.	c #A6C6DA",
"k.	c #2692B6",
"l.	c #06526E",
"m.	c #0A2236",
"n.	c #2A5272",
"o.	c #527A9A",
"p.	c #125676",
"q.	c #0E364E",
"r.	c #06121E",
"                                                                ",
"                                                                ",
"                                                                ",
"                                                                ",
"                                                                ",
"                      . . . . . . . . . .                       ",
"                      . + @ @ # $ % & * =                       ",
"                      . + - ; > , ' ) ! ~                       ",
"                      . + { ] ^ / ( _ : ~                       ",
"                      . + < - [ } | 1 2 3                       ",
"                      . + { 4 5 } ( 6 2 3                       ",
"                      . + 7 8 9 0 a b 2 ~                       ",
"                      . + c d e f g h i =                       ",
"                      . + j k l m g n o p                       ",
"        q q r s t r u . + v w x y z A B C u r t r u q D         ",
"          E F G H I J % K K m L z g M g N O P Q R S T           ",
"            U H V W W X Y Z x ` z  .M ..+.@.N 2 u D             ",
"              I #.$.%.&.e Z ..` y *.=.-.;.>.,.J 3               ",
"                '.).!.< ~.{.].^. .M -./.+.a J (.                ",
"                  _.:.<.< [.; }.=.|.1.2.( * 3.                  ",
"                    4.:.!.5.%.6.7.-.8.y 9.3                     ",
"                      F 0.a.b.9 c.d.e.J f.                      ",
"                        '.).g.h.>.+ 9.D                         ",
"                          4.i.j.k.l.m.                          ",
"                            n.o.p.3                             ",
"                              q.r.                              ",
"                                                                ",
"                                                                ",
"                                                                ",
"                                                                ",
"                                                                ",
"                                                                "};
