/* XPM */
static char *guardaemp[]={
"32 32 6 1",
". c None",
"d c #303030",
"a c #585858",
"# c #808080",
"b c #ff0000",
"c c #ffff00",
"................................",
"................................",
"........####..###...............",
"......###...##..#####..####.....",
"......#.........................",
"..........######................",
"............##.###########......",
".......##.......................",
".......##.......................",
"..aa...aa...aa...aa.............",
"..aba..aba..aba..aba............",
"..abba.abba.abba.abba...........",
"..abbbaabbbaabbbaabbba..........",
"..abbbbbbbbbbbbbbbbbba..........",
"..abbbbbbbbbbbbbbbbbba..........",
"..aaaaaaaaaaaaaaaaaaaa..........",
"..acccccccccccccccccca..........",
"..acccccccccccccccccca..........",
"..acddcdddccdddcdddcca..........",
"..acddcdddccdddcdddcca..........",
"..acddcdddccdddcdddcca....bb....",
"..acddcdddccdddcdddcca....bbb...",
"..acccccccccccccccccca....bbbb..",
"..acccccccccccccccbbbbbbbbbbbbb.",
"..accccccddddddcccbbbbbbbbbbbbbb",
"..accccccddddddcccbbbbbbbbbbbbb.",
"..accccccddddddcccccca....bbbb..",
"..accccccddddddcccccca....bbb...",
"..accccccddddddcccccca....bb....",
"..accccccddddddcccccca..........",
"..aaaaaaaaaaaaaaaaaaaa..........",
"................................"};
