/* XPM */
static const char *help[]={
"32 32 230 2",
"Qt c None",
"a8 c #8b0000",
"aS c #8d0000",
"aG c #8e0000",
"ax c #900000",
"bJ c #910000",
"an c #920000",
"bI c #930000",
"af c #940000",
"ab c #950000",
"bH c #960000",
"#7 c #970000",
"bG c #980000",
"#1 c #990000",
"#S c #9a0000",
"aZ c #9b0202",
"bv c #9b0909",
"aK c #9c0000",
"bF c #9c0b0b",
"bw c #9e0000",
"#v c #9f0000",
"bq c #a30000",
"#d c #a40000",
"bj c #a60000",
".7 c #a70000",
"#G c #a80000",
"bd c #a90000",
"bx c #a90b0b",
".Z c #aa0000",
"#n c #ac0000",
"a9 c #ad0000",
"br c #ad0909",
".N c #ae0000",
"a0 c #b00000",
".A c #b10000",
"aL c #b50000",
".q c #b60000",
"ay c #ba0000",
".g c #bb0000",
"aT c #bb0202",
".f c #bc0000",
"ag c #bd0000",
".e c #be0000",
".d c #bf0000",
"#8 c #c00000",
"bE c #c02626",
".c c #c10000",
".b c #c20000",
".a c #c40000",
"#H c #c50000",
".# c #c60000",
"a7 c #c60f0f",
"bp c #c62020",
".h c #c70000",
"by c #c72626",
".r c #c90000",
".i c #cb0000",
"#e c #cc0000",
"#c c #cc0b0b",
".s c #cd0000",
"a# c #cf3e3e",
".p c #d20000",
".M c #d20e0e",
"aV c #d21818",
"bk c #d22020",
"bc c #d41a1a",
"bi c #d42121",
"#O c #d45252",
"az c #d50000",
"aR c #d50505",
"#u c #d51111",
"bu c #d53030",
"#0 c #d60000",
"aw c #d70000",
"a1 c #d70f0f",
"#I c #d80000",
".j c #d90000",
"ae c #d92222",
".6 c #d92323",
"ak c #d98181",
".Y c #da2626",
"#4 c #da4b4b",
"#X c #da5252",
"bs c #db3030",
".z c #dc1d1d",
".B c #dd0000",
"bD c #dd3c3c",
"be c #de2121",
"bz c #df3c3c",
"b. c #e01a1a",
".o c #e10000",
".t c #e20000",
".k c #e30000",
"aM c #e30505",
".O c #e30d0d",
"ao c #e40000",
"aX c #e48383",
"ba c #e52020",
"aW c #e58383",
"## c #e88b8b",
".3 c #e88c8c",
"aE c #e8bfbf",
".H c #e99292",
"at c #e9bfbf",
"ah c #ea0101",
"#2 c #ea0404",
"#B c #eabfbf",
".l c #eb2f2f",
".n c #eb3e3e",
"bC c #eb4848",
"#h c #eb6f6f",
".S c #eb9090",
"a3 c #ec1919",
"bA c #ec4848",
"a4 c #eccfcf",
".G c #ed9c9c",
"aI c #eda0a0",
".V c #edbaba",
"#q c #ee9393",
".T c #eeafaf",
".J c #efaeae",
"#Y c #efcfcf",
".I c #f0b2b2",
"#y c #f19e9e",
"#R c #f20000",
"bg c #f23030",
"#Q c #f30707",
".K c #f3b7b7",
"am c #f40000",
"#F c #f41010",
"#6 c #f42020",
"aa c #f43030",
"ac c #f50808",
"#9 c #f50d0d",
".m c #f53e3e",
"#A c #f56c6c",
"#r c #f58282",
".2 c #f59d9d",
"#f c #f63030",
".C c #f64545",
".W c #f6c1c1",
"av c #f70000",
"#w c #f72e2e",
"#P c #f73232",
".u c #f75858",
"as c #f80000",
"aY c #f82f2f",
"#E c #f83838",
"au c #f93030",
".L c #f96f6f",
".y c #f97676",
".R c #f9b7b7",
"ar c #fa0101",
"#m c #fa6262",
".8 c #fa6c6c",
".P c #fa8181",
"#s c #faefef",
"aD c #fb0000",
"#J c #fb4848",
"#D c #fb5656",
"#L c #fb9090",
".v c #fba3a3",
"aA c #fc0000",
"#. c #fca4a4",
"#Z c #fcbfbf",
".F c #fcd3d3",
"aC c #fd0000",
"aB c #fd0101",
"#o c #fd7a7a",
"#b c #fd8d8d",
".0 c #fd9b9b",
".X c #fda9a9",
".x c #fdc2c2",
".D c #fdc4c4",
"aH c #fe0000",
"aq c #fe0101",
"aj c #fe0e0e",
"#T c #fe5252",
".5 c #feb3b3",
"aF c #fecfcf",
"al c #fedfdf",
"#5 c #feefef",
"ap c #ff0202",
"aN c #ff0808",
"ai c #ff0f0f",
"aU c #ff1414",
"aO c #ff1818",
"a2 c #ff2020",
"ad c #ff2222",
"b# c #ff2b2b",
"a6 c #ff2d2d",
"a. c #ff3434",
"bf c #ff3737",
"bl c #ff4343",
"#3 c #ff4646",
"bt c #ff4e4e",
"bh c #ff5050",
"#U c #ff5858",
"bB c #ff5a5a",
"bb c #ff6060",
"aQ c #ff6666",
"bm c #ff6767",
"#K c #ff6969",
"#W c #ff6c6c",
"#N c #ff7272",
"aP c #ff7676",
"#x c #ff7b7b",
"bo c #ff7e7e",
"aJ c #ff8080",
"#V c #ff8b8b",
"#p c #ff8c8c",
"#t c #ff9494",
"#C c #ff9c9c",
"#g c #ff9e9e",
"#i c #ffa3a3",
"#j c #ffa9a9",
"#z c #ffacac",
".9 c #ffafaf",
".1 c #ffc0c0",
"bn c #ffc5c5",
"#a c #ffc9c9",
".Q c #ffd1d1",
".4 c #ffd9d9",
".E c #ffe1e1",
"#k c #ffecec",
".w c #fff0f0",
"a5 c #fff1f1",
"#l c #fff3f3",
"#M c #fff5f5",
".U c #ffffff",
"QtQtQtQtQtQtQtQtQtQtQtQtQtQtQtQtQtQtQtQtQtQtQtQtQtQtQtQtQtQtQtQt",
"QtQtQtQtQtQtQtQtQtQtQtQtQtQtQtQtQtQtQtQtQtQtQtQtQtQtQtQtQtQtQtQt",
"QtQtQtQtQtQtQtQtQtQtQtQt.#.a.b.c.d.e.f.gQtQtQtQtQtQtQtQtQtQtQtQt",
"QtQtQtQtQtQtQtQtQtQt.h.i.j.k.l.m.m.n.o.p.d.qQtQtQtQtQtQtQtQtQtQt",
"QtQtQtQtQtQtQtQt.r.s.t.u.v.w.w.w.w.w.w.x.y.z.g.AQtQtQtQtQtQtQtQt",
"QtQtQtQtQtQtQt.r.B.C.D.E.E.F.G.H.I.J.K.E.E.E.L.M.NQtQtQtQtQtQtQt",
"QtQtQtQtQtQt.r.O.P.Q.Q.R.S.T.U.U.U.U.U.V.W.Q.Q.X.Y.ZQtQtQtQtQtQt",
"QtQtQtQtQt.r.t.0.1.1.2.3.U.U.U.U.U.U.U.U.U.4.1.1.5.6.7QtQtQtQtQt",
"QtQtQtQt.r.B.8.9.9#.##.U.U.U.U.U.U.U.U.U.U.U#a.9.9#b#c#dQtQtQtQt",
"QtQtQtQt#e#f#g#g#g#h.U.U.U.U.4#i#g#j#k.U.U.U#l#g#g#g#m#nQtQtQtQt",
"QtQtQt.h.t#o#p#p#p#q.U.U.U.w#p#p#p#p#r#s.U.U.U#t#p#p#p#u#vQtQtQt",
"QtQtQt.i#w#x#x#x#x#y.U.U.U#z#x#x#x#x#A#B.U.U.U#C#x#D#E#F#GQtQtQt",
"QtQt#H#I#J#K#K#K#K#L.U.U#M#N#K#K#K#K#O.U.U.U.U#P#Q#R#R#R.c#SQtQt",
"QtQt.a.k#T#U#U#U#U#U#V#j#W#U#U#U#U#X#Y.U.U.U#Z#R#R#R#R#R#0#1QtQt",
"QtQt.b#2#3#3#3#3#3#3#3#3#3#3#3#3#4#s.U.U.U#5#6#R#R#R#R#R.o#7QtQt",
"QtQt#8#9a.a.a.a.a.a.a.a.a.a.a.a##s.U.U.U#5aa#R#R#R#R#R#R#RabQtQt",
"QtQt.dacadadadadadadadadadadae#s.U.U.U#5aa#R#R#R#R#R#R#R#RafQtQt",
"QtQtagahaiaiaiaiaiaiaiaiaiajak.U.U.Ual#famamamamamamamam.oanQtQt",
"QtQt.gaoapapapapapapapaqarasat.U.U.UauavavavavavavavavavawaxQtQt",
"QtQtayazaAaBaBaBaCaAaDaDaDaDaE.U.UaFaDaDaDaDaDaDaDaDaDaD.eaGQtQt",
"QtQtQt.daHaHaHaHaHaHaHaHaHaHaI.U.UaJaHaHaHaHaHaHaHaHaHaHaKQtQtQt",
"QtQtQtaLaMaNaNaNaNaNaNaNaNaNaOaPaQaNaNaNaNaNaNaNaNaNaNaRaSQtQtQt",
"QtQtQtQtaTaUaUaUaUaUaUaUaUaUaVaWaXaYaUaUaUaUaUaUaUaUaUaZQtQtQtQt",
"QtQtQtQta0a1a2a2a2a2a2a2a2a3a4.U.Ua5a6a2a2a2a2a2a2a2a7a8QtQtQtQt",
"QtQtQtQtQta9b.b#b#b#b#b#b#ba.U.U.U.Ubbb#b#b#b#b#b#bca8QtQtQtQtQt",
"QtQtQtQtQtQtbdbebfbfbfbfbfbg#l.U.U.Ubhbfbfbfbfbfbia8QtQtQtQtQtQt",
"QtQtQtQtQtQtQtbjbkblblblblblbmbn.Qboblblblblblbpa8QtQtQtQtQtQtQt",
"QtQtQtQtQtQtQtQtbqbrbsbtbtbtbtbtbtbtbtbtbtbubva8QtQtQtQtQtQtQtQt",
"QtQtQtQtQtQtQtQtQtQtbwbxbybzbAbBbBbCbDbEbFaSQtQtQtQtQtQtQtQtQtQt",
"QtQtQtQtQtQtQtQtQtQtQtQt#1bGbHabbIbJaxaGQtQtQtQtQtQtQtQtQtQtQtQt",
"QtQtQtQtQtQtQtQtQtQtQtQtQtQtQtQtQtQtQtQtQtQtQtQtQtQtQtQtQtQtQtQt",
"QtQtQtQtQtQtQtQtQtQtQtQtQtQtQtQtQtQtQtQtQtQtQtQtQtQtQtQtQtQtQtQt"};
