/* XPM */
const char *lapiz[]={
"32 32 5 1",
". c None",
"# c #000000",
"c c #c0c000",
"b c #ff0000",
"a c #ffff00",
"........................#aaa#bbb",
".......................#aaa#bbbb",
"......................#aaa#bbbb#",
".....................#aaa#bbbb#a",
"....................#aaa#bbbb#aa",
"...................#aaa#bbbb#aaa",
"..................#aaa#bbbb#aaaa",
".................#aaa#bbbb#aaaa#",
".................#aa#bbbb#aaaa#.",
"................#aa#bbbb#aaaa#..",
"...............#aa#bbbb#aaaa#...",
"..............#aaa#bbb#aaaa#....",
".............#aaa#bbb#aaaa#.....",
"............#aaa#bbb#aaaa#......",
"...........#aaa#bbb#aaaa#.......",
"...........#aa#bbb#aaaa#........",
"..........#aa#bbb#aaaa#.........",
".........#aa#bbb#aaaa#..........",
"........#aa#bbb#aaaaa#..........",
".......#aa#bbb#aaaaa#...........",
"......#aa#bbb#aaaaa#............",
".....#aa#bbb#aaaaa#.............",
".....##a#bb#aaaaa#..............",
".....#c#bb#aaaaa#...............",
"....#cc#bb#aaaa#................",
"....#ccc##aaaa#.................",
"....#ccccc#aa#..................",
"....####cc###...................",
"....####ccc##...................",
"....####cc#.....................",
"....#######.....................",
"................................"};
