/* XPM */
static char * i_up_xpm[] = {
"32 32 149 2",
"  	c None",
". 	c #06121E",
"+ 	c #0E364E",
"@ 	c #062636",
"# 	c #125676",
"$ 	c #527A9A",
"% 	c #2A5272",
"& 	c #0A2236",
"* 	c #06526E",
"= 	c #2692B6",
"- 	c #A6C6DA",
"; 	c #6E8EA6",
"> 	c #2A526E",
", 	c #061626",
"' 	c #0E5672",
") 	c #0A8EB2",
"! 	c #2AB6CE",
"~ 	c #D2EEFA",
"{ 	c #CEDEEE",
"] 	c #7296B2",
"^ 	c #1A425E",
"/ 	c #061E2E",
"( 	c #0E5A7A",
"_ 	c #0E8AB2",
": 	c #12B6D2",
"< 	c #32CEDE",
"[ 	c #AADEEA",
"} 	c #F2F6FA",
"| 	c #DEE2EA",
"1 	c #6E8EAA",
"2 	c #1E4662",
"3 	c #0E9ABE",
"4 	c #2ABECE",
"5 	c #22CEE2",
"6 	c #26CAE2",
"7 	c #82D2E6",
"8 	c #DEEAF6",
"9 	c #FAF6FA",
"0 	c #D6DEEA",
"a 	c #6E8AA6",
"b 	c #061E32",
"c 	c #0E5272",
"d 	c #1A92B2",
"e 	c #2AC6DA",
"f 	c #36D6E2",
"g 	c #22CADE",
"h 	c #1AB6D6",
"i 	c #4EC6DA",
"j 	c #92D2E6",
"k 	c #DAF2F6",
"l 	c #FEFEFE",
"m 	c #D2DEEA",
"n 	c #1E4A66",
"o 	c #061A2A",
"p 	c #168EB2",
"q 	c #26B6CA",
"r 	c #4ADEEA",
"s 	c #12AED2",
"t 	c #12A2CA",
"u 	c #12AECE",
"v 	c #42C6D6",
"w 	c #8EDAE6",
"x 	c #DEEEF2",
"y 	c #0E769E",
"z 	c #36DAE6",
"A 	c #0EA2C6",
"B 	c #0A9EC2",
"C 	c #12AACA",
"D 	c #3ABAD2",
"E 	c #7ACEE2",
"F 	c #B2DEEA",
"G 	c #D2E2F2",
"H 	c #6E96B2",
"I 	c #26567A",
"J 	c #0A3E5E",
"K 	c #126A92",
"L 	c #0E7296",
"M 	c #229AB6",
"N 	c #0E96BE",
"O 	c #16A6C6",
"P 	c #56AAC6",
"Q 	c #7EAEC6",
"R 	c #9EBACE",
"S 	c #769AB6",
"T 	c #3A5E7E",
"U 	c #123A56",
"V 	c #060E1A",
"W 	c #0A364E",
"X 	c #0E4A6E",
"Y 	c #0E4E6E",
"Z 	c #12567A",
"` 	c #0E5E7E",
" .	c #1292B2",
"..	c #0E9AC2",
"+.	c #1AA2C6",
"@.	c #26AACA",
"#.	c #167EA6",
"$.	c #365676",
"%.	c #0E3652",
"&.	c #0E3A56",
"*.	c #0E3E5E",
"=.	c #124262",
"-.	c #0E567A",
";.	c #1296B6",
">.	c #16B2CE",
",.	c #32AECA",
"'.	c #369EC2",
").	c #0E2E46",
"!.	c #12425E",
"~.	c #0A3652",
"{.	c #127A9E",
"].	c #2ABED6",
"^.	c #4EBED6",
"/.	c #76CAE2",
"(.	c #72BAD2",
"_.	c #0A223A",
":.	c #126686",
"<.	c #32C2D2",
"[.	c #3AB2CE",
"}.	c #B6E6F6",
"|.	c #AEDEEA",
"1.	c #0A2A3E",
"2.	c #2EBECE",
"3.	c #72C2D6",
"4.	c #D6F2FA",
"5.	c #E6F6FA",
"6.	c #2EBAD2",
"7.	c #82CADE",
"8.	c #BAE6EE",
"9.	c #DEF6FE",
"0.	c #FAFAFE",
"a.	c #22BACE",
"b.	c #1A96B6",
"c.	c #B2E2EE",
"d.	c #DAF6FE",
"e.	c #12668E",
"f.	c #16B2CA",
"g.	c #6ABAD6",
"h.	c #8ED2E6",
"i.	c #C2EEF6",
"j.	c #0E5E82",
"k.	c #16BAD6",
"l.	c #1696BA",
"m.	c #42A6CA",
"n.	c #5EB6D2",
"o.	c #128EB2",
"p.	c #1E82A6",
"q.	c #328AAE",
"r.	c #5296B6",
"                                                                ",
"                                                                ",
"                                                                ",
"                                                                ",
"                                                                ",
"                                                                ",
"                              . +                               ",
"                            @ # $ %                             ",
"                          & * = - ; >                           ",
"                        , ' ) ! ~ { ] ^                         ",
"                      / ( _ : < [ } | 1 2                       ",
"                    @ ' 3 4 5 6 7 8 9 0 a >                     ",
"                  b c d e f g h i j k l m a n                   ",
"                o ( p q r 5 s t u v w x l 0 ] ^                 ",
"              @ ( y ! z 5 h A 3 B C D E F 8 G H I               ",
"            , J K L M q C s t N B O D P Q R R S T U             ",
"          V W X Y Z ` L  .s  .N ..+.@.@.#.( I T $.2 %.          ",
"        , &.J *.=.*.J -.;.>.N 3 O ,.'.) ).J *.=.!.*.&.&.        ",
"                      ~.{.]. .+.^./.(.) ).                      ",
"                      _.:.<. .[.E }.|.) ).                      ",
"                      1.K 2.p 3.[ 4.5.) ).                      ",
"                      @ K 6.d 7.8.9.0.) ).                      ",
"                      @ K a.b.7.c.d.l ) ).                      ",
"                      1.e.f.d g.h.i.0.) ).                      ",
"                      1.j.k.l.m.n.j d.) ).                      ",
"                      _.c o.#.p.q.r.r.) ).                      ",
"                      ).).).).).).).).).).                      ",
"                                                                ",
"                                                                ",
"                                                                ",
"                                                                ",
"                                                                "};
