/* XPM */
static char *iconbulmafact[] = {
/* columns rows colors chars-per-pixel */
"32 32 231 2",
"   c #06050000",
".  c #0B0B0300",
"X  c #0F120700",
"o  c #0C120A00",
"O  c #130E0600",
"+  c #130E0B00",
"@  c #180E0600",
"#  c #14100400",
"$  c #14120C00",
"%  c #151A0E00",
"&  c #1B140C00",
"*  c #1B190D00",
"=  c #16151100",
"-  c #16191000",
";  c #1D171200",
":  c #1B1B1400",
">  c #1C1D1900",
",  c #1E221700",
"<  c #1F231A00",
"1  c #22160D00",
"2  c #26180E00",
"3  c #241B1300",
"4  c #221F1B00",
"5  c #23201500",
"6  c #23231B00",
"7  c #272C1C00",
"8  c #2F241600",
"9  c #2A241C00",
"0  c #29291F00",
"q  c #21311F00",
"w  c #25252300",
"e  c #262C2100",
"r  c #252D2A00",
"t  c #2A2D2400",
"y  c #2C2C2C00",
"u  c #27312300",
"i  c #2E322400",
"p  c #2B322B00",
"a  c #2B392500",
"s  c #312D2300",
"d  c #312C2900",
"f  c #32322B00",
"g  c #333D2C00",
"h  c #39352400",
"j  c #3C362A00",
"k  c #3A3A2B00",
"l  c #343C3400",
"z  c #3B3C3400",
"x  c #3E3E4000",
"c  c #34412D00",
"v  c #3C412C00",
"b  c #35413300",
"n  c #334B3600",
"m  c #3B463500",
"M  c #3E433C00",
"N  c #3C4C3300",
"B  c #3E483D00",
"V  c #3E503300",
"C  c #39573E00",
"Z  c #403F3900",
"A  c #44443300",
"S  c #424B3900",
"D  c #45533600",
"F  c #41543C00",
"G  c #475A3D00",
"H  c #4C553A00",
"J  c #535A3400",
"K  c #545E3D00",
"L  c #5D593D00",
"P  c #44454000",
"I  c #464D4200",
"U  c #494F4400",
"Y  c #4E4F4E00",
"T  c #43564300",
"R  c #41594500",
"E  c #4B504200",
"W  c #4D5D4200",
"Q  c #4D5D4900",
"!  c #475B5000",
"~  c #53544600",
"^  c #50504A00",
"/  c #525F4300",
"(  c #575F4800",
")  c #59514900",
"_  c #58584000",
"`  c #515D5100",
"'  c #5A5F5100",
"]  c #5C5D5B00",
"[  c #476D4C00",
"{  c #49604400",
"}  c #4E654900",
"|  c #4C655B00",
" . c #53604100",
".. c #52654B00",
"X. c #56694C00",
"o. c #5C654400",
"O. c #5D604900",
"+. c #596F4F00",
"@. c #57615000",
"#. c #50615D00",
"$. c #5B6E5100",
"%. c #56705B00",
"&. c #5B765000",
"*. c #5C765E00",
"=. c #50626200",
"-. c #5B6C6C00",
";. c #5C736300",
":. c #64625400",
">. c #65665C00",
",. c #6D675100",
"<. c #68685D00",
"1. c #63735200",
"2. c #60715E00",
"3. c #657C5500",
"4. c #6A735A00",
"5. c #68785500",
"6. c #746B5500",
"7. c #666C6500",
"8. c #62716300",
"9. c #65706900",
"0. c #627B6200",
"q. c #6A746300",
"w. c #6C7D6200",
"e. c #697B6C00",
"r. c #637C7300",
"t. c #76786400",
"y. c #737D6B00",
"u. c #787E6F00",
"i. c #0042F600",
"p. c #0043FA00",
"a. c #64825600",
"s. c #66825C00",
"d. c #6E815200",
"f. c #6B815900",
"g. c #6E885A00",
"h. c #75825B00",
"j. c #6A836500",
"k. c #6D866A00",
"l. c #68896400",
"z. c #6B817700",
"x. c #6C916200",
"c. c #71846700",
"v. c #718A6400",
"b. c #718B6800",
"n. c #7A8D6300",
"m. c #7A8F6A00",
"M. c #74877500",
"N. c #7C8A7F00",
"B. c #75946400",
"V. c #769A6B00",
"C. c #7B976400",
"Z. c #79926A00",
"A. c #789C6600",
"S. c #74907100",
"D. c #779E7000",
"F. c #7F957500",
"G. c #61828600",
"H. c #6A838300",
"J. c #77908F00",
"K. c #7D9A8200",
"L. c #828A7900",
"P. c #8A8E7D00",
"I. c #879F6900",
"U. c #8C9E6A00",
"Y. c #839E7600",
"T. c #839D7900",
"R. c #8A9D7500",
"E. c #9A887D00",
"W. c #82A96E00",
"Q. c #88A16E00",
"!. c #8BAB6F00",
"~. c #82A77100",
"^. c #84AC7600",
"/. c #8BAE7A00",
"(. c #95AD7A00",
"). c #96B27500",
"_. c #90B77C00",
"`. c #94BF7E00",
"'. c #A6BE7800",
"]. c #819B8B00",
"[. c #8B978600",
"{. c #8A9A9200",
"}. c #8CA98200",
"|. c #87B59200",
" X c #94A38200",
".X c #96A69A00",
"XX c #9DBF8700",
"oX c #97B89500",
"OX c #9AB19100",
"+X c #94A4A000",
"@X c #9AB4AF00",
"#X c #A4B19A00",
"$X c #A5BB9800",
"%X c #A0C48500",
"&X c #A6CD8B00",
"*X c #A9C09B00",
"=X c #AAD39B00",
"-X c #B2CA8C00",
";X c #B8CE9800",
":X c #B7D18800",
">X c #BBD79E00",
",X c #ACCEB200",
"<X c #ACD3B200",
"1X c #BEDAAC00",
"2X c #BDD8B600",
"3X c #C8D2A400",
"4X c #C3D4B000",
"5X c #C3E79E00",
"6X c #CDED9F00",
"7X c #D1E69400",
"8X c #DDEF9C00",
"9X c #D3F09E00",
"0X c #CAE2AB00",
"qX c #CCECAD00",
"wX c #CEEFBC00",
"eX c #D6E9A200",
"rX c #DBEAA700",
"tX c #DEEBBA00",
"yX c #D6F9BE00",
"uX c #E3FBBC00",
"iX c #F1FDBA00",
"pX c #D2CECA00",
"aX c #CFE2D100",
"sX c #DFE9C600",
"dX c #DAF4C200",
"fX c #DFFECE00",
"gX c #EEFBC500",
"hX c #FCFEC700",
"jX c #FEFED100",
"kX c gray100",
"lX c None",
/* pixels */
"lXlXlXlXlXlXlXlXlXlXlXlXlXlXlXlXlXlXlXlXlXlXlXlXlXlXlXlXlXlXlXlX",
"lXlXlXlXlXlXlXlXlXlXlXlXlXlXlXlXlXlXlXlXlXlXlXlXlXlXlXlXlXlXlXlX",
"lXlXlXlXlXlXlXlXlXlXlXlXlXlXlXlXlXlXlXlXlXlXlXlXlXlXlXlXlXlXlXlX",
"lXlXlXlXlXlXlXlXlXlXlXlXlXlXlXlXlXlXlXlXlXlXlXlXlXlXlXlXlXlXlXlX",
"lXlXlXlXlXlXlXlXlXlXlXlXlXlXlXlXlXlXlXlXlXlXlXlXlXlXlXlXlXlXlXlX",
"lXlXlXlXlXlXlXm.(.R.lXlXlXlXlXlXlXlXlXlXlXlXlXlXlXlXlXlXlXlXlXlX",
"lXlXlXlXlX_ j.Z.4.z & E.lXlXlXlXlXlXlXlXlXlXlXlXlXlXlXlXlXlXlXlX",
"lXlXlXlXb 3 3 1 1 & * O i 5.,.lXlXL $XI.lXlXlXlXlXlXlXlXlXlXlXlX",
"lXlXlX*.;.k 5 1 1 2 1 & c B.G & 9 9 k 1.4.lXlXlXlXlXlXlXlXlXlXlX",
"lXlXlXb }.qXf.N ; & 2 & f.!./ & 1 & G V.l...h :.u.lXlXlXlXlXlXlX",
"lXlXlXlX= t y.tX3X; & o.7X:X9 1 1 t ~.s.t & & s g.S lXlXlXlXlXlX",
"lXlXlXlX8 ; 6 r w.& & n.jX;X3 3 1 l XXF ; & $ # ( A 6 ^ lXlXlXlX",
"lXlXlXlX. * 5 M 6 & & / hX5.3 3 2 K 5X=XS.c.@.$ 5 / d.I.1.lXlXlX",
"lXlXlXlX. . , | M & O g 6Xg & 3 3 Z.iXyX<XwX&Xt @ D '.$.: 6 lXlX",
"lXlXlXlXlXlX% . ;.%.T s._.& & 3 & 4XkXS 4 p V.B.C C.G + - b ..lX",
"lXlXp.p.lXlXlX. . u *.Y.g $ @ & 7 gX$X; & $ C `.s.X.v R |.fXT.lX",
"lXlXp.p.p.lXlXlXX . . q. X@.# @ 3.uX{ $ $ O +.W.: # $ S q ! q.lX",
"lXp.p.p.p.p.lXlXlXlX:.~ 1XsXs $ /.%X- & $ < A.N . .   : N t.lXlX",
"lXp.p.p.p.p.p.lXlXlXlX: W t = a ^.N & + $ } x.# H m ; p h lXlXlX",
"lXp.p.p.p.p.lXlXlXlXlXlX0 $ : n x.% . $ : [ e / Q.).3.4 f L.lXlX",
"lXp.p.p.p.p.lXlXlXlXlXlX; 6 b b.C : $   X.T $ . # : S { +.oXlXlX",
"lXp.p.p.p.p.i.lXJ.=.lXlXlXe h.1Xo z t . C.9XN m = : 0XqX&.Q 6.lX",
"lXp.p.p.p.p.p.lXlXe..XlXlXA ( dX[.  m U.-XY.rX..: $ C.R.E 5 lXlX",
"lXp.p.p.p.p.lXlXlXG.r lXlXw.$ 0.g lX}.eXY 7.8XJ $ : u  X..lXlXlX",
"lXp.p.p.p.lXlXlXlXlXj.0.U l 0.l 5 lXk.+.: : v.F : + $ w lXlXlXlX",
"lXlXp.p.lXlXlX+Xz r.,XQ 2.w l <.lXlXl > Z 6 o . 9.r s lXlXlXlXlX",
"lXlXlXlXlXlXlX{.lXlXP.N.z.>.H.@Xy -.#.s I Z ; #XOX].lXlXlXlXlXlX",
"lXlXlXlXlXlXlXlXlXlXlXlXlXlXlXlXlXlXlX= M.2X8.y.lXlXlXlXlXlXlXlX",
"lXlXlXlXlXlXlXlXlXlXlXlXlXlXlXd 7.K.w z = aX` lXlXlXlXlXlXlXlXlX",
"lXlXlXlXlXlXlXlXlXlXlXlXlXlX) d pXlXlXlXw K.lXlXlXlXlXlXlXlXlXlX",
"lXlXlXlXlXlXlXlXlXlXlXlXlXlXlXlXlXlXlXlX] lXlXlXlXlXlXlXlXlXlXlX",
"lXlXlXlXlXlXlXlXlXlXlXlXlXlXlXlXlXlXlXlXlXlXlXlXlXlXlXlXlXlXlXlX"
};
