/* XPM */
static char * iconobulmatpv_xpm[] = {
"32 32 153 2",
"  	c None",
". 	c #2F2933",
"+ 	c #2A2B33",
"@ 	c #2F2A33",
"# 	c #2B2C33",
"$ 	c #2C2C34",
"% 	c #302B34",
"& 	c #2E2C30",
"* 	c #322B30",
"= 	c #2D2D35",
"- 	c #2F2D30",
"; 	c #312C35",
"> 	c #332C31",
", 	c #342C31",
"' 	c #362C2D",
") 	c #2D2E36",
"! 	c #302E31",
"~ 	c #352D32",
"{ 	c #392C32",
"] 	c #372D2E",
"^ 	c #3D2C2A",
"/ 	c #3C2C2F",
"( 	c #312F32",
"_ 	c #332F2E",
": 	c #362E33",
"< 	c #382E2E",
"[ 	c #3E2D2B",
"} 	c #3D2D2F",
"| 	c #3A2F2B",
"1 	c #392F2F",
"2 	c #3B2F2C",
"3 	c #3F2E2C",
"4 	c #3E2E30",
"5 	c #3A3030",
"6 	c #3C302C",
"7 	c #402F2C",
"8 	c #422F29",
"9 	c #462E29",
"0 	c #3D312D",
"a 	c #41302D",
"b 	c #433029",
"c 	c #42302E",
"d 	c #492F26",
"e 	c #482F2A",
"f 	c #453126",
"g 	c #44312A",
"h 	c #4A3026",
"i 	c #49302B",
"j 	c #463226",
"k 	c #45322B",
"l 	c #4B3127",
"m 	c #513023",
"n 	c #473327",
"o 	c #46332C",
"p 	c #4D3223",
"q 	c #4C3228",
"r 	c #533120",
"s 	c #523124",
"t 	c #4E3324",
"u 	c #4D3329",
"v 	c #523225",
"w 	c #4F3325",
"x 	c #543221",
"y 	c #533226",
"z 	c #513421",
"A 	c #503426",
"B 	c #553322",
"C 	c #543327",
"D 	c #5A3223",
"E 	c #57341E",
"F 	c #563423",
"G 	c #5C331F",
"H 	c #58351E",
"I 	c #573523",
"J 	c #5E341B",
"K 	c #5D341F",
"L 	c #59361F",
"M 	c #583624",
"N 	c #5F351C",
"O 	c #5E3520",
"P 	c #5F3521",
"Q 	c #64341D",
"R 	c #60361D",
"S 	c #65351E",
"T 	c #61371D",
"U 	c #673619",
"V 	c #66361F",
"W 	c #633819",
"X 	c #62381E",
"Y 	c #68371A",
"Z 	c #6E3616",
"` 	c #6D361C",
" .	c #6A3816",
"..	c #69381B",
"+.	c #6F3717",
"@.	c #6A381C",
"#.	c #6B3917",
"$.	c #703818",
"%.	c #763714",
"&.	c #6C3A18",
"*.	c #713919",
"=.	c #773815",
"-.	c #733A13",
";.	c #743A14",
">.	c #783916",
",.	c #7A3A10",
"'.	c #793A16",
").	c #7F3912",
"!.	c #7B3B11",
"~.	c #813A0B",
"{.	c #7A3B17",
"].	c #803A13",
"^.	c #7C3C12",
"/.	c #823B0C",
"(.	c #7D3D13",
"_.	c #833C0D",
":.	c #893B10",
"<.	c #843D0E",
"[.	c #8A3C08",
"}.	c #863E07",
"|.	c #8A3C11",
"1.	c #853E0F",
"2.	c #8B3D0A",
"3.	c #913C0D",
"4.	c #8D3E0B",
"5.	c #933D04",
"6.	c #943D05",
"7.	c #8F3F03",
"8.	c #923D0E",
"9.	c #8E3F0C",
"0.	c #8F3F0D",
"a.	c #953E06",
"b.	c #9B3D00",
"c.	c #904004",
"d.	c #9B3D09",
"e.	c #963F07",
"f.	c #9C3E01",
"g.	c #9C3E0B",
"h.	c #974008",
"i.	c #9D3F02",
"j.	c #994100",
"k.	c #98410A",
"l.	c #9F4003",
"m.	c #A53F00",
"n.	c #A04104",
"o.	c #A64000",
"p.	c #A14200",
"q.	c #A14205",
"r.	c #A74100",
"s.	c #A24300",
"t.	c #A84200",
"u.	c #A94300",
"v.	c #AB4401",
"                                                            $   ",
"                                                          $     ",
"                                                        x K     ",
"                                                        r.      ",
"                                                      c.7       ",
"          [.u.u.u.f.w                                 9.        ",
"          ^.v.v.v.v.u.u.!.                          e.          ",
"            u.v.v.v.v.v.v.u.j.                    B 9.          ",
"            +.u.v.v.v.v.v.v.v.u.l                 t.            ",
"              ].u.v.v.v.v.v.v.v.u.;.            /.N             ",
"                N u.v.v.v.v.v.v.v.u...        6 r.              ",
"                  7 t.v.v.v.v.v.v.v.u.<       s.0               ",
"                      q.u.v.v.v.v.v.v.e.    w [.                ",
"      w B T $.N b       _.u.v.v.v.v.v.t.    r.                  ",
"P t.u.v.v.v.v.v.u.u.4.    N u.v.v.v.v.u.  B b                   ",
"6.v.v.v.v.v.v.v.v.v.v.u.O   Y u.v.v.v.t.  !.                    ",
"  m.u.v.v.v.v.v.v.v.v.v.u.n.  +.u.v.u.S 6.  [.t.u.r.>.          ",
"    N r.u.u.v.v.v.v.v.v.v.v.u.h 6.u.u.m.u.B u.v.v.v.v.u.1       ",
"          7 N 9.t.u.u.v.v.v.v.u.h f.v.u.!.r.v.v.v.v.v.v.u.      ",
"                    Y u.u.v.v.v.u.u.v.u.i.u.v.v.v.v.v.v.v.r.    ",
"                        h a.u.u.u.v.v.u.t.u.v.v.v.v.v.v.v.v.4.  ",
"                                r.v.v._.B , N l.u.u.v.v.v.v.u.1 ",
"                          $   G n.u.s.t.u.u.U     X u.v.v.v.v.^.",
"                              u.v.].  h u.v.u.t.b     l.u.v.v.q.",
"                              n.u.f.    r.v.v.v.u.G     6 /.i.1 ",
"                              b 7 $     1 u.v.v.v.u.            ",
"                                #         *.u.v.v.v.w           ",
"                                            ^.u.v.v.|.          ",
"                                              t.v.v.r.          ",
"                                              L u.v.t.          ",
"                                                t.v.u.          ",
"                                                  6.n.          "};
