/* XPM */
static char *iconbulmacont[] = {
/* columns rows colors chars-per-pixel */
"26 30 132 2",
"   c #44261A00",
".  c #462C1C00",
"X  c #4A2E1D00",
"o  c #53341D00",
"O  c #5A391D00",
"+  c #4E352100",
"@  c #56372400",
"#  c #523B2400",
"$  c #553B2900",
"%  c #58362200",
"&  c #5B3F2600",
"*  c #5A3C2A00",
"=  c #5F453300",
"-  c #63412800",
";  c #61433100",
":  c #644D3700",
">  c #6C463100",
",  c #694B3400",
"<  c #6D503900",
"1  c #724E3A00",
"2  c #75513600",
"3  c #76523D00",
"4  c #76593C00",
"5  c #7A543C00",
"6  c #7C593E00",
"7  c #6F574700",
"8  c #62575300",
"9  c #71554600",
"0  c #74584500",
"q  c #71584B00",
"w  c #7A5B4300",
"e  c #7F5E4800",
"r  c #0043FA00",
"t  c #83543D00",
"y  c #845A3D00",
"u  c #835B4300",
"i  c #825F4900",
"p  c #885E4600",
"a  c #8A5E4900",
"s  c #90594100",
"d  c #965D4900",
"f  c #84604600",
"g  c #84624A00",
"h  c #8D604700",
"j  c #8A644C00",
"k  c #8F684B00",
"l  c #84655200",
"z  c #8D695100",
"x  c #92654E00",
"c  c #93694F00",
"v  c #946A5300",
"b  c #936F5A00",
"n  c #9A6B5300",
"m  c #9A6E5800",
"M  c #96705400",
"N  c #98715600",
"B  c #9D755B00",
"V  c #95726000",
"C  c #907E7500",
"Z  c #A46D4E00",
"A  c #A36E5500",
"S  c #A2725700",
"D  c #A1755D00",
"F  c #A3795C00",
"G  c #A9765700",
"H  c #B27D5E00",
"J  c #A77B6700",
"K  c #A37F6F00",
"L  c #AE7E6300",
"P  c #98857A00",
"I  c #A6816900",
"U  c #AE806500",
"Y  c #AB836A00",
"T  c #A6857300",
"R  c #AB897400",
"E  c #AB8B7900",
"W  c #AA907F00",
"Q  c #B3896C00",
"!  c #B38C7200",
"~  c #B08D7B00",
"^  c #B7947900",
"/  c #BC927500",
"(  c #BA937D00",
")  c #AC9C9300",
"_  c #B4948300",
"`  c #B9938200",
"'  c #BC9D8A00",
"]  c #B99D9000",
"[  c #BDA28D00",
"{  c #B4A69F00",
"}  c #BCA19200",
"|  c #BFA59800",
" . c #C2A48E00",
".. c #C5A69100",
"X. c #C3A99700",
"o. c #C6AF9F00",
"O. c #CFAE9600",
"+. c #C3AFA300",
"@. c #C8AFA300",
"#. c #CFB4A400",
"$. c #CBB5AB00",
"%. c #CFBBAF00",
"&. c #CFBDB000",
"*. c #D0B5A700",
"=. c #D0B6A900",
"-. c #D4BEAE00",
";. c #D8BEAC00",
":. c #D0BDB100",
">. c #D4C5BB00",
",. c #D9C7B700",
"<. c #DCCBBB00",
"1. c #E0CCBB00",
"2. c #D7C7C200",
"3. c #DBCBC400",
"4. c #D9CFCC00",
"5. c #E3D1C100",
"6. c #E4D5CB00",
"7. c #E5D9CE00",
"8. c #E3D7D200",
"9. c #E4DBD500",
"0. c #E2DEDB00",
"q. c #E9DED700",
"w. c #E8DEDC00",
"e. c #ECE4DD00",
"r. c #EEE6E200",
"t. c #EEE8E000",
"y. c #F1EAE500",
"u. c #F4EEE900",
"i. c #F9F3EC00",
"p. c #F7F4F200",
"a. c gray100",
"s. c None",
/* pixels */
"s.s.s.s.s.s.s.s.s.s.s.s.s.s.s.s.s.s.s.s.s.s.s.s.s.s.",
"s.s.s.s.s.s.s.s.s.s.s.s.s.s.s.s.s.s.s.s.s.s.s.s.s.s.",
"s.s.s.s.s.s.s.s.s.s.s.s.s.s.s.s.s.s.s.s.s.s.s.s.s.s.",
"s.s.s.s.s.s.s.s.s.s.s.s.s.s.s.s.s.s.s.s.s.s.s.s.s.s.",
"s.s.s.s.s.e.<.! / m D R 5.e.s.s.s.s.s.s.s.s.s.s.s.s.",
"s.s.s.y.]  .1.s.y.3.-._ h Y 8.s.s.s.s.s.s.s.s.s.s.s.",
"s.s.>._ 9.s.s.s.s.s.s.s.e.B ^ t.s.s.s.s.s.s.s.s.s.s.",
"s.<.e.s.s.s.s.s.s.s.s.s.s.r.! ,.s.s.s.s.s.s.s.s.s.s.",
"s.s.s.s.s.s.s.s.s.s.s.s.s.9.Y X.s.s.s.s.s.s.s.s.s.s.",
"s.s.s.s.s.s.s.s.6.s.s.i.-.M M c e.s.s.s.s.s.s.s.s.s.",
"s.s.s.s.s.8.[ / G O.e./ v 2 g j n e.s.6.s.s.e.s.s.s.",
"s.s.s.s.s.$.b F n S Z d f z g w c L  .G Q ' >.s.s.s.",
"s.s.s.s.s.2.r.w.&.' _ T g g g e 1 p ( S F Y $.u.s.s.",
"s.s.s.s.s.s.s.s.s.u.#.3.z u k j g E +.2.e.+.4.u.s.s.",
"s.s.s.s.s.s.s.s.s.s.s.s.h v B f v [ u.s.s.s.s.s.s.s.",
"s.s.s.s.s.s.s.s.s.s.e.s.c u h h N s.s.s.s.s.s.s.s.s.",
"s.s.s.s.s.s.s.s.s.*.H ` a t k N x y.6.! e.s.s.s.s.s.",
"s.s.s.s.s.s.i...' L *.A x c > h 3 J A ( L q.r.y.s.s.",
"s.s.s.s.s.;.^ ! n B [ _ t y 6 1 5 m m R Y D ~ p.7.s.",
"s.s.r r s.s.*.! _ +.>.2.J u f w z f [ $.V u x X.&.s.",
"s.r r r r s.6.s.%.s.s.s.j 6 0 0 9 e E s.s.@.] K r.s.",
"s.r r r r r s.s.s.s.s.s.u j , + = < i s.s.y.8.y.u.s.",
"s.r r r r r s.s.s.s.s.s.3 - : ; = 4 l s.s.s.s.s.s.s.",
"s.r r r r r s.s.s.s.s.s.7   . $ # + 8 s.s.s.s.s.s.s.",
"s.r r r r r s.s.s.s.s.s.R - o X * X P s.s.s.s.s.s.s.",
"s.r r r r r s.s.s.s.s.s.[ O . $ . @ e.s.s.s.s.s.s.s.",
"s.r r r r s.s.s.s.s.s.s.9.9 % o * 9 s.s.s.s.s.s.s.s.",
"s.s.r r s.s.s.s.s.s.s.s.s.{ ; o = 0.s.s.s.s.s.s.s.s.",
"s.s.r s.s.s.s.s.s.s.s.s.s.s.) C r.s.s.s.s.s.s.s.s.s.",
"s.s.s.s.s.s.s.s.s.s.s.s.s.s.s.s.s.s.s.s.s.s.s.s.s.s."
};
