/* XPM */
static char *igualant[]={
"32 32 5 1",
". c None",
"c c #00c000",
"# c #303030",
"b c #808080",
"a c #ffffff",
"................................",
".##############################.",
".aaaaa#aaaabaaaaaaaaaaaaaa#aaaa.",
".aaaaa#abbababbababababbaa#aaaa.",
".aaaaa#abaababaabbaababbaa#aaaa.",
".aaaaa#aaaaaaaaaaaaabaaaaa#aaaa.",
".#########c####################.",
"........#cc#....................",
".......#ccc#....................",
"......#cccc#....................",
".....#ccccc#....................",
".....##cccc#....................",
"......#ccccc#...................",
".......#cccc#...................",
".......#cccc#...................",
"........#cccc#..................",
"........#cccc#..................",
".........#ccc#..................",
".........#cccc#.................",
"..........#ccc#.##..............",
"..........#cccc#c#..............",
"...........#ccccc#..............",
"...........#ccccc#..............",
".##########cccccc##############.",
".aaaaa#aa#ccccccc#aaaaaaaa#aaaa.",
".aaaaa#aa####cccc#aaaaaaaa#aaaa.",
".aaaaa#aaaaaa###c#aaaaaaaa#aaaa.",
".aaaaa#aaaaaaaaa##aaaaaaaa#aaaa.",
".##############################.",
"................................",
"................................",
"................................"};
