<?xml version="1.0" standalone="no"?>
<!DOCTYPE svg PUBLIC "-//W3C//DTD SVG 20010904//EN" "http://www.w3.org/TR/2001/REC-SVG-20010904/DTD/svg10.dtd">
<!-- Created using Karbon14, part of koffice: http://www.koffice.org/karbon -->
<svg xmlns="http://www.w3.org/2000/svg" xmlns:xlink="http://www.w3.org/1999/xlink" width="128px" height="128px">
  <defs>
    <radialGradient id="defitem0" gradientUnits="userSpaceOnUse" cx="64.3426" cy="65.3937" fx="64.3426" fy="65.3937" r="63.8467" >
      <stop stop-color="#005b99" offset="0" stop-opacity="1" />
      <stop stop-color="#005b99" offset="1" stop-opacity="0" />
    </radialGradient>
    <radialGradient id="defitem1" gradientUnits="userSpaceOnUse" cx="71.7008" cy="29.8448" fx="71.7008" fy="29.8448" r="82.0992" >
      <stop stop-color="#2f540d" offset="0" stop-opacity="1" />
      <stop stop-color="#008000" offset="1" stop-opacity="0" />
    </radialGradient>
    <radialGradient id="defitem2" gradientUnits="userSpaceOnUse" cx="71.0203" cy="33.5209" fx="71.0203" fy="33.5209" r="29.2895" >
      <stop stop-color="#00c800" offset="0" stop-opacity="1" />
      <stop stop-color="#00ff00" offset="1" stop-opacity="0" />
    </radialGradient>
    <linearGradient id="defitem3" gradientUnits="userSpaceOnUse" x1="68.6239" y1="20.914" x2="68.6239" y2="60.1011" >
      <stop stop-color="#ffaaaa" offset="0" stop-opacity="1" />
      <stop stop-color="#ffaaaa" offset="1" stop-opacity="0" />
    </linearGradient>
    <linearGradient id="defitem4" gradientUnits="userSpaceOnUse" x1="68.6239" y1="20.914" x2="68.6239" y2="35.716" >
      <stop stop-color="#000000" offset="0" stop-opacity="1" />
      <stop stop-color="#000000" offset="1" stop-opacity="0" />
    </linearGradient>
    <radialGradient id="defitem5" gradientUnits="userSpaceOnUse" cx="70.7718" cy="101.166" fx="70.7718" fy="101.166" r="43.0082" >
      <stop stop-color="#ffaaaa" offset="0" stop-opacity="1" />
      <stop stop-color="#ffaaaa" offset="1" stop-opacity="0" />
    </radialGradient>
    <linearGradient id="defitem6" gradientUnits="userSpaceOnUse" x1="107.277" y1="9.381" x2="19.3042" y2="101.511" >
      <stop stop-color="#00aa00" offset="0" stop-opacity="1" />
      <stop stop-color="#00aa00" offset="1" stop-opacity="0" />
    </linearGradient>
    <linearGradient id="defitem7" gradientUnits="userSpaceOnUse" x1="38.5366" y1="64.3122" x2="61.2363" y2="60.5465" >
      <stop stop-color="#008000" offset="0" stop-opacity="1" />
      <stop stop-color="#008000" offset="1" stop-opacity="0" />
    </linearGradient>
    <linearGradient id="defitem8" gradientUnits="userSpaceOnUse" x1="45.6826" y1="64.7459" x2="56.6636" y2="62.5492" >
      <stop stop-color="#000080" offset="0" stop-opacity="0.824121" />
      <stop stop-color="#000080" offset="1" stop-opacity="0" />
    </linearGradient>
    <linearGradient id="defitem9" gradientUnits="userSpaceOnUse" x1="100.756" y1="60.5047" x2="78.0566" y2="56.7389" >
      <stop stop-color="#008000" offset="0" stop-opacity="1" />
      <stop stop-color="#008000" offset="1" stop-opacity="0" />
    </linearGradient>
    <linearGradient id="defitem10" gradientUnits="userSpaceOnUse" x1="93.6103" y1="60.9384" x2="82.6294" y2="58.7417" >
      <stop stop-color="#000080" offset="0" stop-opacity="0.824121" />
      <stop stop-color="#000080" offset="1" stop-opacity="0" />
    </linearGradient>
    <radialGradient id="defitem11" gradientUnits="userSpaceOnUse" cx="62.8717" cy="13.755" fx="62.8717" fy="13.755" r="2.084" >
      <stop stop-color="#000000" offset="0" stop-opacity="1" />
      <stop stop-color="#000000" offset="1" stop-opacity="0" />
    </radialGradient>
    <radialGradient id="defitem12" gradientUnits="userSpaceOnUse" cx="45.1221" cy="15.441" fx="45.1221" fy="15.441" r="6.698" >
      <stop stop-color="#ffaaaa" offset="0" stop-opacity="1" />
      <stop stop-color="#ffaaaa" offset="1" stop-opacity="0" />
    </radialGradient>
    <radialGradient id="defitem13" gradientUnits="userSpaceOnUse" cx="41.8119" cy="15.482" fx="41.8119" fy="15.482" r="5.192" >
      <stop stop-color="#000000" offset="0" stop-opacity="1" />
      <stop stop-color="#000000" offset="1" stop-opacity="0" />
    </radialGradient>
    <radialGradient id="defitem14" gradientUnits="userSpaceOnUse" cx="77.1951" cy="13.4" fx="77.1951" fy="13.4" r="2.084" >
      <stop stop-color="#000000" offset="0" stop-opacity="1" />
      <stop stop-color="#000000" offset="1" stop-opacity="0" />
    </radialGradient>
    <radialGradient id="defitem15" gradientUnits="userSpaceOnUse" cx="92.9396" cy="15.086" fx="92.9396" fy="15.086" r="6.698" >
      <stop stop-color="#ffaaaa" offset="0" stop-opacity="1" />
      <stop stop-color="#ffaaaa" offset="1" stop-opacity="0" />
    </radialGradient>
    <radialGradient id="defitem16" gradientUnits="userSpaceOnUse" cx="96.2497" cy="15.127" fx="96.2497" fy="15.127" r="5.192" >
      <stop stop-color="#000000" offset="0" stop-opacity="1" />
      <stop stop-color="#000000" offset="1" stop-opacity="0" />
    </radialGradient>
  </defs>
  <g id="Layer">
    <g id="layer1">
      <path id="path1691" fill="url(#defitem0)" stroke="#000000" stroke-width="0.625" d="M0.599892 100.123C16.9396 116.418 39.4908 126.5 64.3493 126.5C89.2382 126.5 111.777 116.394 128.085 100.064L109.244 81.3144C97.741 92.8139 81.8539 99.9304 64.3233 99.9304C46.8163 99.9303 30.9521 92.8311 19.4561 81.3571L0.599892 100.123Z"  />
      <path id="path4142" fill="#000000" d="M46.5224 5.22C41.0764 5.607 35.5425 10.622 36.778 16.422C37.7648 18.718 38.2999 21.263 39.751 23.295C40.1651 25.488 41.1374 27.601 40.5311 29.8972C40.4852 32.1199 39.226 34.4989 39.6606 36.6007C38.3002 34.9428 35.3112 35.4849 35.0145 37.7199C34.0906 41.1885 34.8316 44.8032 34.8223 48.3347C36.0789 49.0822 37.626 49.136 38.9371 49.6347C38.653 56.5831 38.4804 63.686 38.6545 70.5479C36.7551 69.3652 37.4577 66.7124 35.5458 65.5853C34.486 65.2269 33.5284 64.9684 32.9086 63.924C31.9242 62.8444 30.5906 61.7646 29.6449 60.8487C31.2024 60.7856 29.6705 58.8455 28.831 58.4296C27.9936 57.8135 27.011 58.6979 26.3666 58.7122C23.5622 57.4151 20.1124 55.6038 17.1196 57.4009C14.212 59.0595 11.8173 61.9241 11.7726 65.4157C11.4778 69.2402 14.8076 72.4223 16.2943 75.2958C13.7114 76.7008 11.7233 78.9904 9.71517 80.948C7.07853 80.9657 5.6664 85.2768 8.36994 86.3515C10.9102 87.452 15.1849 87.338 16.0343 84.1133C16.1144 83.0584 16.9725 84.9992 17.5265 85.1533C18.2869 85.5753 19.3999 86.5623 18.7926 87.3237C17.5091 86.7638 15.864 87.7315 16.4187 89.2229C16.8981 91.8771 20.9457 93.8314 22.6814 91.1898C23.5119 90.7772 22.9593 88.8232 23.9814 89.6863C24.6664 90.0863 24.2638 91.4944 25.0553 92.0264C26.4575 93.5163 28.7998 91.822 30.0405 93.6429C32.2376 95.277 34.8836 96.3283 36.6423 98.4473C38.8624 99.9235 41.5612 100.285 43.7867 101.771C48.3692 103.837 53.9034 106.366 58.8782 104.145C61.8622 104.823 64.9256 105.526 67.9782 105.773C67.8529 107.14 69.8008 107.791 70.2052 106.349C70.53 105.063 72.4493 105.847 73.4383 105.298C74.947 105.076 76.5657 104.716 77.9713 104.382C79.0041 104.977 79.6368 102.832 80.3114 104.032C84.5127 106.805 89.6885 104.362 93.5375 102.132C97.6648 99.6941 101.291 96.4319 104.989 93.4959C106.674 93.1879 107.124 91.2416 108.719 90.8846C111.3 89.4573 112.123 85.3669 115.547 85.4585C116.766 85.4356 118.192 83.7756 116.689 83.0054C116.895 81.6228 118.586 80.6948 119.515 79.8628C121.734 80.3859 125.298 80.5385 126.309 78.0202C126.725 76.1123 125.2 74.2108 123.325 74.0749C123.041 73.5379 124.058 71.9622 122.726 71.6332C121.862 71.4678 121.418 72.7269 120.838 71.4297C120.341 70.8763 119.392 70.3489 119.074 69.8471C120.876 68.8879 120.226 66.6658 121.233 65.2122C122.667 62.3582 122.972 58.8069 120.928 56.18C118.749 52.7682 113.953 50.1668 110.132 52.5626C107.094 54.8388 104.616 57.7541 102.231 60.6679C102.237 56.7669 102.153 52.8662 102.016 48.9678C104.33 48.3284 105.914 45.8576 105.102 43.5303C105.647 41.0213 104.814 37.1027 101.79 36.7477C100.816 37.2129 100.292 36.2218 99.5063 35.8885C99.3295 32.871 97.878 30.0597 98.195 27.003C98.5411 25.941 99.0312 25.637 99.3141 24.607C99.4693 23.605 99.5984 22.727 100.399 22.007C102.993 18.535 104.46 13.35 101.722 9.527C99.0401 6.138 94.0909 4.192 89.9653 5.92C87.2058 5.947 85.3323 7.96 83.4088 9.64C81.5828 11.133 78.875 11.347 76.7165 10.77C74.2447 9.603 71.5956 11.262 69.0748 10.465C67.2939 10.128 65.4949 10.531 63.8973 11.154C61.7117 11.202 59.513 11.012 57.4086 10.714C55.1531 9.48 53.2878 7.474 50.7729 6.712C49.7341 5.504 48.0885 5.048 46.5224 5.22ZM122.59 70.4123C122.98 71.6253 124.817 72.8468 126.015 72.1645C126.144 70.773 124.402 70.0749 123.313 69.6888C122.57 69.591 122.492 69.6685 122.59 70.4123Z"  fill-rule="evenodd" />
      <path id="path4292" fill="#ffff00" d="M43.2042 3.263C37.7582 3.651 32.2243 8.666 33.4598 14.466C34.4466 16.762 34.9817 19.307 36.4328 21.339C36.8469 23.531 37.8192 25.644 37.2128 27.941C37.167 30.1637 35.9077 32.5426 36.3424 34.6445C34.982 32.9865 31.9929 33.5286 31.6963 35.7636C30.7723 39.2322 31.5134 42.8469 31.5041 46.3785C32.7607 47.1259 34.3078 47.1797 35.6189 47.6785C35.3348 54.6268 35.1622 61.7297 35.3363 68.5917C33.4369 67.4089 34.1394 64.7562 32.2276 63.629C31.1677 63.2706 30.2102 63.0121 29.5904 61.9677C28.606 60.8881 27.2724 59.8083 26.3267 58.8925C27.8841 58.8293 26.3523 56.8892 25.5127 56.4733C24.6754 55.8572 23.6928 56.7416 23.0484 56.7559C20.244 55.4589 16.7942 53.6476 13.8013 55.4446C10.8937 57.1032 8.4991 59.9678 8.45435 63.4595C8.15956 67.2839 11.4894 70.466 12.9761 73.3395C10.3932 74.7445 8.40508 77.0342 6.39695 78.9918C3.76031 79.0095 2.34817 83.3205 5.05172 84.3953C7.59196 85.4957 11.8667 85.3817 12.7161 82.157C12.7962 81.1021 13.6543 83.043 14.2083 83.197C14.9687 83.619 16.0816 84.606 15.4744 85.3675C14.1909 84.8076 12.5457 85.7753 13.1005 87.2666C13.5798 89.9208 17.6275 91.8751 19.3631 89.2336C20.1937 88.8209 19.641 86.8669 20.6631 87.7301C21.3482 88.13 20.9456 89.5382 21.7371 90.0701C23.1393 91.56 25.4816 89.8658 26.7223 91.6866C28.9194 93.3207 31.5653 94.3721 33.3241 96.491C35.5442 97.9672 38.243 98.3291 40.4685 99.8145C45.051 101.881 50.5852 104.41 55.5599 102.189C58.5439 102.867 61.6073 103.57 64.66 103.816C64.5347 105.184 66.4826 105.835 66.887 104.393C67.2118 103.107 69.1311 103.891 70.12 103.341C71.6288 103.12 73.2475 102.76 74.6531 102.426C75.6859 103.021 76.3185 100.876 76.9931 102.075C81.1945 104.849 86.3702 102.406 90.2193 100.176C94.3466 97.7379 97.9724 94.4756 101.671 91.5397C103.356 91.2316 103.806 89.2853 105.401 88.9283C107.982 87.501 108.805 83.4106 112.229 83.5022C113.448 83.4794 114.873 81.8193 113.371 81.0492C113.577 79.6665 115.268 78.7385 116.197 77.9065C118.416 78.4297 121.979 78.5822 122.991 76.0639C123.407 74.156 121.882 72.2545 120.007 72.1187C119.723 71.5816 120.74 70.006 119.407 69.6769C118.544 69.5115 118.1 70.7707 117.52 69.4734C117.023 68.92 116.074 68.3927 115.756 67.8908C117.558 66.9317 116.908 64.7095 117.915 63.256C119.349 60.402 119.654 56.8507 117.61 54.2237C115.43 50.8119 110.634 48.2106 106.814 50.6063C103.775 52.8825 101.298 55.7979 98.9124 58.7116C98.9191 54.8106 98.8347 50.9099 98.6976 47.0115C101.012 46.3722 102.596 43.9013 101.784 41.5741C102.329 39.0651 101.496 35.1465 98.4716 34.7914C97.4981 35.2567 96.9738 34.2656 96.1881 33.9323C96.0113 30.9147 94.5598 28.1034 94.8768 25.047C95.2228 23.984 95.713 23.681 95.9959 22.65C96.151 21.649 96.2801 20.771 97.0811 20.05C99.6745 16.579 101.142 11.394 98.4037 7.57C95.7219 4.182 90.7727 2.236 86.6471 3.964C83.8876 3.991 82.0141 6.004 80.0905 7.683C78.2646 9.176 75.5568 9.39 73.3983 8.814C70.9265 7.647 68.2773 9.306 65.7565 8.509C63.9757 8.172 62.1767 8.575 60.5791 9.198C58.3935 9.246 56.1948 9.056 54.0904 8.757C51.8349 7.523 49.9696 5.517 47.4546 4.756C46.4158 3.547 44.7702 3.091 43.2042 3.263ZM119.272 68.456C119.662 69.669 121.498 70.8905 122.697 70.2082C122.826 68.8168 121.084 68.1186 119.995 67.7325C119.251 67.6347 119.174 67.7122 119.272 68.456Z"  fill-rule="evenodd" />
      <path id="path3808" fill="url(#defitem1)" d="M42.5621 8.099C43.6166 6.882 45.5544 5.644 49.7722 7.105C53.9901 8.565 54.8886 11.193 57.8626 11.412C61.8978 11.71 75.5415 11.522 79.5495 11.343C82.8033 11.198 85.1824 7.59 86.6874 6.963C88.6341 6.152 92.0971 5.815 93.5008 6.963C95.2853 8.423 98.6921 22.699 97.8809 23.997C97.0698 25.295 97.0698 25.619 96.7454 26.43C96.4209 27.241 97.0698 30.3237 97.0698 30.9726C97.0698 31.6215 98.6921 35.3526 97.7187 36.8127C96.7454 38.2727 99.9024 55.1839 96.7454 66.9866C95.9215 70.0665 89.4579 82.3156 88.7963 83.5335C81.1046 97.6937 55.946 99.5509 45.8819 82.972C45.8819 82.972 42.8222 72.3904 42.0131 68.5837C40.0591 59.3902 41.1021 42.6528 40.7776 41.1927C40.4532 39.7327 39.2517 36.6504 39.7384 34.2171C40.225 31.7837 40.9858 27.609 40.4741 25.899C39.9624 24.188 39.6902 23.42 39.6902 22.609C39.6902 21.798 41.5076 9.315 42.5621 8.099Z"  fill-rule="evenodd" />
      <path id="path3816" fill="url(#defitem2)" d="M40.7398 31.6927C41.8421 30.142 54.3203 22.292 57.9023 21.02C62.8206 19.486 61.4872 16.762 62.7779 12.787C64.107 9.657 68.8034 11.078 70.5076 11.097C72.2117 11.116 75.072 9.621 77.2522 12.403C79.5024 16.343 76.2422 18.718 80.6023 21.113C83.8547 22.73 94.7711 28.2984 96.3764 30.2777C97.9441 32.2106 98.9387 36.9232 94.795 36.7899C93.5773 36.7507 92.4479 34.345 85.4437 30.8897C78.3263 27.379 74.9967 26.09 69.6805 25.992C64.3643 25.895 58.8901 27.758 53.5817 30.8005C45.5534 35.445 44.1401 37.2098 42.2034 37.1621C38.1771 37.0629 39.5514 33.3645 40.7398 31.6927Z"  fill-rule="evenodd" />
      <path id="path3820" fill="url(#defitem3)" stroke="url(#defitem4)" stroke-width="0.723484" d="M40.3539 35.6581C39.72 33.4128 53.896 24.68 61.829 23.558C69.762 22.436 67.7492 22.584 69.0408 22.517C70.3258 22.449 69.8092 20.904 70.4031 20.914C70.9969 20.924 70.7268 22.377 71.7653 22.436C72.8115 22.497 73.8495 22.713 77.054 23.238C85.8684 24.68 97.9301 32.8157 96.8464 35.7383C95.5083 39.3469 93.6417 41.3256 92.5221 44.0729C91.8121 45.8152 92.3812 48.3703 90.3558 50.3222C88.3303 52.274 83.2002 57.9129 81.2637 58.31C72.6033 60.0864 65.099 60.829 56.5291 59.1907C54.4274 58.7889 47.3882 52.3228 45.8028 50.242C44.2174 48.1612 44.9563 46.2383 44.2876 44.3132C43.3445 41.598 41.2611 38.8719 40.3539 35.6581Z"  fill-rule="evenodd" />
      <path id="path3822" fill="#0000c1" d="M28.6547 71.7172C36.1253 79.49 48.8155 104.594 68.0793 104.731C87.3435 104.869 102.283 76.7939 105.581 70.5954C108.777 64.5879 117.28 66.7491 120.165 61.6207C122.981 56.6135 113.766 49.8338 109.587 52.9665C105.409 56.0992 99.0454 64.0004 95.1636 70.7556C91.2819 77.5108 80.6894 94.5135 68.2395 94.154C55.7896 93.7944 40.7834 74.7953 36.187 69.3133C31.5906 63.8313 28.0136 59.6975 22.4045 57.7744C16.7443 55.8337 9.4027 61.5352 12.7887 67.2299C16.3145 73.1596 21.3426 64.1094 28.6547 71.7172Z"  fill-rule="evenodd" />
      <path id="path3904" fill="url(#defitem5)" stroke-width="3" d="M33.5299 80.6252C32.8961 82.8705 51.8636 102.384 59.7966 103.506C67.7296 104.628 65.7168 104.48 67.0084 104.548C68.2934 104.615 67.7768 106.16 68.3707 106.15C68.9645 106.141 68.6943 104.688 69.7329 104.628C70.7791 104.567 71.8171 104.351 75.0215 103.826C83.836 102.384 104.283 79.0754 103.199 76.1529C96.3002 67.7057 93.6359 71.3059 89.1219 69.9541C84.608 68.6022 81.9663 57.1726 80.0299 56.7754C71.3695 54.9991 64.6637 55.0551 56.0939 56.6934C53.9922 57.0952 46.1068 61.1302 45.3675 70.0342C44.6282 78.9382 43.7387 75.7657 33.5299 80.6252Z"  fill-rule="evenodd" />
      <path id="path3824" fill="#000080" fill-opacity="0.899498" d="M80.9864 103.126C90.6819 106.679 109.34 84.3237 112.638 78.1251C115.835 72.1176 119.53 66.7465 120.812 61.4578C122.057 56.3204 114.413 49.6709 110.234 52.8036C106.056 55.9363 104.909 69.5603 99.3365 78.2854C93.6919 87.124 73.3216 100.317 80.9864 103.126Z"  fill-rule="evenodd" />
      <path id="path3826" fill="#000056" d="M81.3233 103.823C91.0187 107.375 109.737 86.3503 117.302 79.7833C124.959 73.1373 115.14 65.1647 102.238 80.2641C89.4028 95.2847 73.6585 101.014 81.3233 103.823Z"  fill-rule="evenodd" />
      <path id="path4004" fill="#000080" fill-opacity="0.899498" d="M58.2031 102.309C49.2195 107.4 27.1554 88.3983 22.8877 82.8227C18.7516 77.4191 14.2278 72.7248 12.0978 67.7171C10.0287 62.8526 16.4824 55.0422 21.1169 57.4491C25.7514 59.8561 29.1121 73.1088 36.0365 80.8048C43.051 88.6009 65.3053 98.2841 58.2031 102.309Z"  fill-rule="evenodd" />
      <path id="path4006" fill="#000056" d="M57.9848 103.051C49.0012 108.142 27.0957 90.4625 18.5579 85.2216C9.91733 79.9177 18.2997 70.4461 33.4983 83.2314C48.6174 95.95 65.0869 99.0265 57.9848 103.051Z"  fill-rule="evenodd" />
      <path id="path4030" fill="#0000ff" fill-opacity="0.748744" d="M37.7736 92.5164C32.9794 89.4592 27.8345 93.5053 23.881 88.8298C20.582 87.7771 17.3332 82.4104 23.0793 83.4716C25.4034 82.8755 22.2657 81.6714 25.7632 82.7873C29.4152 82.7093 23.5893 89.9801 28.8316 87.5724C32.2769 86.8871 29.0714 82.4485 33.3109 83.6362C40.3528 82.7847 54.0783 87.8248 49.7434 76.7103C54.2235 86.5085 62.6377 82.0809 70.4594 88.1281C73.8887 90.5838 79.2022 80.6395 80.1791 83.3797C82.1042 84.456 87.7084 84.5998 86.3013 81.1096C89.5073 81.2599 89.6104 71.8081 92.332 77.3209C90.8446 78.8717 91.9248 86.4463 94.5951 83.6953C92.9411 90.8472 104.421 86.5467 112.648 83.2831C112.368 82.4362 118.481 83.2304 114.546 84.4435C110.08 84.5759 110.26 89.5373 106.24 90.4463C104.777 93.726 101.311 91.9145 98.9754 94.9638C84.9449 85.5936 78.9716 96.1523 74.9347 93.7796C76.3947 93.5336 77.0906 94.2288 76.7896 91.9584C81.5658 93.2499 79.4812 85.5657 76.7312 87.0682C75.3325 89.2734 69.4617 89.4604 72.7902 92.273C47.6629 92.37 59.8593 80.3263 37.7736 92.5164ZM93.0625 90.2956C92.3748 88.9576 91.7279 91.5731 93.0625 90.2956ZM76.7319 100.829C77.4418 99.0178 77.7014 102.069 76.7319 100.829ZM70.3498 100.575C71.5824 97.3314 71.9334 99.9107 70.3498 100.575ZM74.4794 99.4933C75.9884 96.6202 76.2781 102.769 74.4794 99.4933L74.4794 99.4933ZM77.3667 98.6708C77.2229 96.1288 79.0447 98.742 77.3667 98.6708ZM48.2002 73.858C45.7408 70.9 44.6211 64.0269 49.6122 63.5676C52.7438 64.1366 48.5058 65.3195 48.6396 65.2073C51.1181 67.6791 55.6934 64.3908 58.1863 67.0814C64.8036 67.5671 55.1414 67.8425 53.1922 67.6384C51.6644 69.4823 48.6128 69.2433 50.4023 72.5673C50.8657 73.9157 48.9936 75.3004 48.2002 73.858ZM111.662 73.9113C111.037 70.9164 104.821 74.7062 106.341 70.7069C106.498 66.6507 102.448 70.6167 105.036 66.8636C106.271 64.8382 109.685 69.4838 111.358 65.5383C114.943 60.1563 123.488 67.6189 116.125 69.7244C114.73 71.6462 111.713 71.7849 111.662 73.9113ZM88.4692 71.9669C88.4011 69.4316 84.2865 65.8085 89.688 66.1818C91.7009 65.7055 93.5957 60.2012 93.4549 65.2291C96.3932 67.1495 94.9119 69.3256 93.2425 71.6374C92.726 73.3642 87.26 75.2513 88.4692 71.9669ZM17.2999 72.7302C14.1857 70.1159 21.8222 72.2592 17.2999 72.7302ZM103.643 72.5602C101.819 69.4128 106.053 73.0444 103.643 72.5602ZM121.117 72.5806C122.368 70.685 122.147 74.1838 121.117 72.5806ZM30.5548 72.1638C27.8007 70.693 27.8967 61.5699 32.2114 65.6924C35.7437 64.7014 36.3023 68.9388 35.4782 71.887C33.967 72.4598 32.1272 72.5145 30.5548 72.1638ZM123.231 70.7554C120.452 68.451 127.237 72.9879 123.231 70.7554ZM13.9979 70.2582C18.3097 69.1092 24.1405 67.3496 28.1545 69.8764C23.3373 68.4587 18.679 70.8051 13.8401 70.7245L13.7727 70.5791L13.9979 70.2582L13.9979 70.2582ZM77.0135 67.1465C78.9377 66.8146 77.3207 67.7626 77.0135 67.1465ZM107.773 66.0249C106.165 60.4472 110.086 65.238 107.773 66.0249ZM45.709 62.7048C49.0824 58.688 42.7146 54.7572 41.6886 50.7279C39.8638 48.2165 36.3997 48.3876 34.7598 47.5568C34.7549 44.0182 34.0014 40.3428 35.1351 36.9235C37.5697 33.9033 39.2722 39.1438 42.181 38.9115C39.2721 53.0188 53.6397 49.1993 56.8541 54.914C53.3905 54.0339 55.6963 60.9063 51.196 57.6905C47.6342 54.1134 47.3898 59.2494 48.4238 61.1564C47.783 62.0137 47.1014 64.3401 45.709 62.7048ZM93.4691 61.4389C93.0324 59.4479 94.7704 62.1084 93.4691 61.4389ZM49.7019 58.9483C50.9113 57.0214 50.4544 60.7442 49.7019 58.9483ZM109.393 58.6801C111.879 55.212 113.379 60.5311 109.393 58.6801ZM85.0647 54.234C83.7167 50.2703 95.9399 47.7819 88.8537 51.3545C87.6965 51.7442 86.4868 56.3512 85.0647 54.234ZM42.1936 26.301C43.6759 25.34 50.6128 20.821 45.2577 23.383C40.1986 26.648 38.1724 19.457 36.706 15.894C35.715 10.795 40.1281 6.601 44.858 5.766C52.0449 4.209 51.3183 13.126 50.4477 17.658C49.2817 22.277 55.2227 18.717 54.9641 18.032C52.6047 12.755 57.8967 8.682 61.5182 13.161C63.2718 17.606 53.8164 17.995 53.416 22.614C49.9966 24.327 45.1846 25.517 42.1936 26.301ZM47.284 14.05C46.3967 10.02 43.7138 15.97 47.284 14.05ZM47.6143 26.136C52.2333 23.12 48.9906 27.53 47.6143 26.136ZM94.4785 22.439C89.3342 20.627 88.4861 14.83 87.7535 10.17C87.7482 3.974 95.2273 5.109 98.5748 7.889C104.032 11.639 101.674 19.952 96.7581 22.972C95.9615 23.241 95.161 22.796 94.4785 22.439ZM95.5596 14.086C96.3238 8.664 91.0034 15.585 95.5596 14.086ZM57.9611 20.468C58.8951 19.007 58.8951 21.93 57.9611 20.468ZM62.4661 12.419C63.4131 10.949 63.5 13.208 62.4661 12.419Z"  />
      <path id="path4032" fill="url(#defitem6)" d="M78.2389 103.073C79.2072 101.706 76.175 104.273 78.2389 103.073ZM85.7472 102.435C100.367 98.5721 98.9518 90.5965 92.3261 85.1686C90.2984 90.2765 85.8079 87.2492 83.2491 85.1084C78.5778 84.7403 72.3464 84.6433 70.3581 89.8522C70.3242 94.6876 79.9072 88.35 75.2953 93.8345C71.0031 96.7259 79.4984 95.489 80.7637 93.782C82.2592 89.5498 89.9652 93.2592 86.008 95.3881C83.1252 91.3792 86.432 98.195 83.7014 97.7122C84.9711 101.113 78.9059 99.5517 80.0118 102.625C83.4952 101.423 85.8816 99.2724 87.8709 96.8129C88.8008 98.1186 82.2693 103.299 85.7472 102.435ZM88.7506 94.8515C89.5604 92.6112 92.849 92.316 90.1668 94.9884C89.8376 95.6028 88.6448 95.838 88.7506 94.8515ZM89.8768 91.9766C90.9203 91.2596 90.6124 93.3039 89.8768 91.9766ZM57.9664 101.572C56.8742 99.0309 56.147 104.261 57.9664 101.572ZM54.2122 101.572C56.6029 100.067 55.0166 98.2161 53.086 98.6145C54.9097 97.5124 52.6847 93.1725 52.8042 97.0201C49.1504 97.0106 52.7548 92.9012 54.5952 93.869C56.2725 92.8769 57.153 96.7252 59.5172 94.872C60.5888 98.1018 65.2709 93.6324 61.4831 95.0515C59.5977 92.1795 54.3662 90.0014 55.501 85.7031C52.3497 83.2307 50.0163 87.236 47.7722 87.8637C36.7349 88.8552 26.7954 98.7802 45.6767 99.8594C48.6042 99.3634 52.0226 101.513 54.2122 101.572ZM50.8335 98.3587C51.8769 97.6416 51.5691 99.6859 50.8335 98.3587ZM47.4415 94.6108C46.8322 91.212 50.0291 96.5796 47.4415 94.6108L47.4415 94.6108ZM49.9256 94.5865C47.2473 89.7532 55.2947 94.7022 49.9256 94.5865ZM52.7105 92.7496C53.9149 90.5611 53.8715 94.8983 52.7105 92.7496ZM45.0145 91.4356C45.7022 90.0976 46.3492 92.7131 45.0145 91.4356ZM107.146 73.0869C110.101 70.9412 110.132 62.4879 105.363 67.1077C101.926 65.4067 102.728 70.803 102.795 73.1125C104.161 73.3229 105.861 73.6263 107.146 73.0869ZM29.6125 70.163C32.4112 70.0499 34.7016 65.939 30.567 68.1817C26.9854 68.6602 22.5779 61.3354 19.3042 66.7102C22.9743 67.1346 25.7763 71.8872 29.6125 70.163ZM44.1902 68.4297C47.5586 67.5212 44.436 61.0498 44.6156 66.3793C43.7911 67.389 41.4601 70.0581 44.1902 68.4297ZM91.3785 66.7159C90.1611 63.2626 90.4618 69.725 91.3785 66.7159ZM30.3044 67.1649C31.6912 62.4024 28.1289 65.1149 30.3044 67.1649ZM92.3681 63.8449C89.0552 59.7201 95.4738 55.6898 96.5324 51.47C98.0666 47.086 105.152 49.0554 103.546 43.0332C104.619 39.5916 101.5 34.576 98.986 38.6761C97.2615 40.0203 93.014 39.7864 93.7216 42.9767C94.1441 44.9269 92.7842 51.6311 91.5586 47.2572C92.7156 44.8586 91.8896 42.0935 90.3868 45.5988C91.7465 47.9431 87.7049 50.888 91.7539 49.956C89.0539 52.5079 82.8797 52.6069 81.885 56.0292C84.2737 56.2333 82.8799 61.6815 86.881 58.8305C89.5458 55.5067 91.7077 59.7405 89.3124 61.8675C90.1769 62.6225 90.845 65.6719 92.3681 63.8449ZM44.6079 62.5789C45.0446 60.5879 43.3066 63.2484 44.6079 62.5789ZM88.3752 60.0883C87.1657 58.1615 87.6226 61.8842 88.3752 60.0883ZM28.6839 59.8201C27.1732 56.5497 23.8085 61.1655 28.6839 59.8201ZM53.0123 55.374C54.3603 51.4103 42.1372 48.922 49.2233 52.4946C50.3805 52.8842 51.5903 57.4912 53.0123 55.374ZM95.8835 27.409C94.6755 26.385 91.6833 26.57 95.0927 27.814C95.3782 27.964 95.9214 27.794 95.8835 27.409ZM90.4628 27.276C85.8438 24.26 89.0864 28.6701 90.4628 27.276ZM90.5914 25.576C89.4558 23.277 85.3218 20.88 83.6123 22.223C84.6493 24.345 88.617 26.017 90.5914 25.576ZM97.5528 24.893C97.2334 20.021 103.678 15.339 98.9058 10.993C94.8096 5.446 92.1232 13.71 94.538 17.182C96.0635 19.352 96.9593 22.854 93.0665 22.051C90.8535 21.27 87.6774 13.386 88.0198 19.435C88.357 22.497 94.9627 25.596 97.5528 24.893ZM43.8378 22.941C45.2421 22.768 50.1661 18.13 47.1397 19.236C46.4198 22.721 40.4999 21.27 40.7612 23.975C41.7959 24.559 43.0076 23.467 43.8378 22.941ZM80.116 21.608C79.1819 20.147 79.1819 23.07 80.116 21.608ZM41.4881 18.728C41.8635 16.052 45.6176 8.985 40.6839 9.225C35.5468 10.004 36.7725 23.01 41.4881 18.728ZM88.5063 14.819C89.1895 12.696 91.5717 4.187 87.9027 9.413C86.8674 10.522 86.8388 15.325 88.5063 14.819ZM49.6495 13.606C51.9023 11.123 46.8286 3.715 48.2721 9.895C48.6348 10.276 48.7686 15.629 49.6495 13.606ZM75.611 13.559C74.664 12.089 74.5771 14.348 75.611 13.559ZM91.9103 9.729C91.6904 6.639 89.3081 12.246 91.9103 9.729Z"  />
      <path id="path4057" fill="url(#defitem7)" d="M41.5502 40.0453C44.7442 40.1516 45.566 46.3064 47.0979 49.4148C48.6298 52.5231 47.2968 57.1419 47.5134 60.4598C47.73 63.7777 49.7063 66.9109 50.3577 69.8142C51.0091 72.7174 53.9874 73.8689 55.3995 77.3817C56.7909 80.8428 57.1199 83.6461 55.1009 87.2067C53.2181 90.5274 50.7276 87.0851 48.6926 84.7114C46.6635 82.3447 46.4855 83.5792 44.7035 81.35C42.9215 79.1207 39.7639 77.0351 39.0293 74.314C38.2551 71.4464 38.5551 56.3592 38.8419 51.0087C39.1285 45.6643 38.0427 39.9284 41.5502 40.0453Z"  fill-rule="evenodd" />
      <path id="path4059" fill="url(#defitem8)" d="M43.052 42.7743C42.1398 43.7934 42.659 47.2456 43.052 49.0505C43.445 50.8554 45.7194 55.013 45.7194 56.4251C45.7194 57.8373 45.101 64.4268 45.2487 66.9378C45.4056 69.6052 46.9072 71.3085 48.3868 73.5279C49.9559 75.8815 50.8094 78.4474 51.5249 80.2748C52.2404 82.1023 51.2348 84.8337 51.9956 86.0803C52.7565 87.327 55.1338 87.6494 56.0752 87.1787C57.0166 86.708 56.5459 82.3146 56.5459 79.6472C56.5459 76.666 52.7802 77.1367 52.7802 74.4693C52.7802 71.9588 53.6802 70.843 54.3492 68.35C55.0276 65.8219 54.6361 65.066 53.8785 63.1721C53.2509 61.603 55.2907 57.9942 52.7802 56.7389C50.1434 55.4205 51.7354 55.3993 51.0542 54.3853C50.373 53.3714 49.0144 51.7179 49.0144 51.0903C49.0144 50.4627 48.6856 48.3256 48.2299 47.0108C47.7741 45.6959 47.3813 48.4382 46.0332 44.971C44.6851 41.5037 43.9641 41.7552 43.052 42.7743Z"  fill-rule="evenodd" />
      <path id="path4095" fill="url(#defitem9)" d="M97.7428 36.2377C94.5487 36.3441 93.7269 42.4989 92.195 45.6072C90.6631 48.7156 91.9962 53.3344 91.7795 56.6523C91.5629 59.9702 89.5866 63.1034 88.9352 66.0066C88.2838 68.9099 85.3056 70.0614 83.8934 73.5741C82.502 77.0352 82.1731 79.8385 84.192 83.3992C86.0749 86.7198 88.5653 83.2776 90.6003 80.9039C92.6294 78.5371 92.8074 79.7717 94.5894 77.5424C96.3715 75.3131 99.529 73.2276 100.264 70.5065C101.038 67.6388 100.738 52.5516 100.451 47.2011C100.164 41.8567 101.25 36.1209 97.7428 36.2377Z"  fill-rule="evenodd" />
      <path id="path4097" fill="url(#defitem10)" d="M96.241 38.9668C97.1531 39.9859 96.6339 43.4381 96.241 45.243C95.848 47.0479 93.5736 51.2054 93.5736 52.6176C93.5736 54.0297 94.192 60.6192 94.0443 63.1303C93.8874 65.7977 92.3858 67.5009 90.9062 69.7203C89.3371 72.0739 88.4835 74.6398 87.768 76.4673C87.0526 78.2947 88.0581 81.0262 87.2973 82.2728C86.5365 83.5194 84.1592 83.8419 83.2178 83.3711C82.2763 82.9004 82.747 78.5071 82.747 75.8397C82.747 72.8584 86.5128 73.3292 86.5128 70.6618C86.5128 68.1513 85.6127 67.0355 84.9437 64.5424C84.2654 62.0144 84.6569 61.2584 85.4144 59.3645C86.0421 57.7955 84.0023 54.1866 86.5128 52.9314C89.1496 51.613 87.5576 51.5918 88.2388 50.5778C88.9199 49.5638 90.2785 47.9104 90.2785 47.2828C90.2785 46.6551 90.6073 44.5181 91.0631 43.2032C91.5188 41.8884 91.9116 44.6307 93.2597 41.1634C94.6079 37.6962 95.3288 37.9476 96.241 38.9668Z"  fill-rule="evenodd" />
      <path id="path3810" fill="#000000" stroke="#000000" stroke-width="0.476874" d="M51.6839 15.468C51.3594 20.118 48.8099 22.553 44.4413 24.333C41.3789 25.581 37.5232 21.335 37.5232 16.441C37.5232 11.548 41.0417 8.063 44.1169 7.252C48.5021 6.095 52.0083 10.818 51.6839 15.468Z"  />
      <path id="path3812" fill="#800000" stroke-width="1.24533" d="M50.8412 15.397C50.5347 19.789 48.1262 22.089 43.9994 23.771C41.1064 24.95 37.4641 20.939 37.4641 16.316C37.4641 11.693 40.7879 8.402 43.6929 7.635C47.8354 6.543 51.1477 11.004 50.8412 15.397Z"  />
      <path id="path3818" fill="url(#defitem11)" stroke-width="0.87556" d="M63.6655 14.48C63.4792 15.623 62.9723 16.448 62.5341 16.321C62.0959 16.194 61.8916 15.163 62.0779 14.02C62.2643 12.877 62.7712 12.053 63.2094 12.18C63.6475 12.307 63.8519 13.337 63.6655 14.48Z"  />
      <path id="path3936" fill="url(#defitem12)" stroke-width="1.24533" d="M51.8008 15.114C51.4943 19.507 49.0858 21.807 44.959 23.488C42.0661 24.667 38.4237 20.656 38.4237 16.034C38.4237 11.411 41.7475 8.119 44.6525 7.353C48.795 6.26 52.1073 10.721 51.8008 15.114Z"  />
      <path id="path3814" fill="url(#defitem13)" d="M42.8668 10.291C41.7612 10.237 39.2994 12.192 39.0216 15.299C38.7396 18.453 40.7265 20.674 41.569 20.674C42.4115 20.674 43.8774 18.851 44.4666 15.788C45.0471 12.77 43.9725 10.346 42.8668 10.291Z"  fill-rule="evenodd" />
      <path id="path3962" fill="#000000" stroke="#000000" stroke-width="0.476874" d="M86.3778 15.113C86.7022 19.763 89.2518 22.198 93.6203 23.978C96.6827 25.226 100.538 20.98 100.538 16.086C100.538 11.193 97.0199 7.708 93.9448 6.897C89.5596 5.74 86.0533 10.463 86.3778 15.113Z"  />
      <path id="path3964" fill="#800000" stroke-width="1.24533" d="M87.2205 15.042C87.527 19.434 89.9355 21.735 94.0623 23.416C96.9552 24.595 100.598 20.584 100.598 15.961C100.598 11.339 97.2738 8.047 94.3688 7.28C90.2262 6.188 86.914 10.649 87.2205 15.042Z"  />
      <path id="path3966" fill="url(#defitem14)" stroke-width="0.87556" d="M76.4013 14.125C76.5877 15.268 77.0946 16.093 77.5328 15.966C77.9709 15.839 78.1753 14.808 77.9889 13.665C77.8026 12.522 77.2957 11.698 76.8575 11.825C76.4193 11.952 76.215 12.982 76.4013 14.125Z"  />
      <path id="path3968" fill="url(#defitem15)" stroke-width="1.24533" d="M86.2609 14.759C86.5674 19.152 88.9758 21.452 93.1027 23.133C95.9956 24.312 99.638 20.301 99.638 15.679C99.638 11.056 96.3142 7.764 93.4092 6.998C89.2666 5.905 85.9544 10.366 86.2609 14.759Z"  />
      <path id="path3970" fill="url(#defitem16)" d="M95.1948 9.936C96.3005 9.882 98.7622 11.837 99.0401 14.945C99.322 18.098 97.3351 20.319 96.4926 20.319C95.6501 20.319 94.1842 18.496 93.5951 15.433C93.0146 12.415 94.0892 9.991 95.1948 9.936Z"  fill-rule="evenodd" />
      <path id="path6391" fill="#000000" stroke="#ffffff" stroke-width="2" d="M126.596 43.2888C124.265 43.201 121.187 40.1513 120.536 44.0889C104.51 70.7942 70.378 84.4203 40.5277 77.2554C40.111 79.892 35.6087 84.1101 40.7618 83.8988C74.4314 91.4097 112.437 74.5721 128.188 43.6818L127.218 43.4421L126.596 43.2888Z"  />
      <path id="path6405" fill="#000000" stroke="#ffffff" stroke-width="2" d="M127.206 79.669C125.844 77.7751 126.36 73.4731 122.853 75.3774C91.9347 79.13 60.2195 60.5613 47.542 32.6031C45.2053 33.8935 39.1114 32.9308 42.4428 36.8678C57.1928 68.0527 93.8214 87.7063 127.874 81.1666L127.467 80.2532L127.206 79.669Z"  />
      <path id="path6407" fill="#000000" stroke="#ffffff" stroke-width="2" d="M0.784844 83.3367C2.1938 85.1963 1.7837 89.5097 5.24296 87.5193C36.0589 83.0035 68.2234 100.782 81.5882 128.419C83.8923 127.071 90.0082 127.883 86.5804 124.029C71.064 93.2185 33.9607 74.4765 0.0805388 81.856L0.510082 82.759L0.784844 83.3367Z"  />
      <path id="path4016" fill="#ff7e2a" stroke="#d45400" stroke-width="0.723484" d="M12.922 85.5431C11.5861 86.1852 6.14956 86.1897 6.91091 83.3849C7.6277 80.7442 9.03538 81.8612 9.82703 80.8895C11.7683 78.5066 14.1274 76.6489 15.5826 75.7758C17.0378 74.9027 20.1199 74.1364 21.6323 75.2707C23.1447 76.405 30.0038 79.3656 29.6758 77.6321C29.3597 75.9616 32.5498 75.2114 33.5601 77.1476C34.5171 78.9819 33.7906 80.6811 32.2266 81.3583C30.7963 81.9776 29.3847 81.9037 29.5726 80.7223C29.7808 79.4133 25.1387 80.0462 26.1422 80.719C27.2809 81.4824 27.1439 87.9647 28.3214 87.6967C29.4831 87.4323 29.8569 87.8059 30.0233 89.089C30.1883 90.3622 29.6606 91.1875 28.0465 91.4746C26.4323 91.7617 24.9627 91.9969 24.4508 90.5877C23.918 89.121 24.6105 89.0288 25.2997 88.6521C25.989 88.2753 23.9983 82.6309 22.8182 81.1415C21.6867 79.7134 18.3227 80.0394 19.6112 81.2213C20.8996 82.4032 19.8195 87.2595 20.7318 87.4395C21.644 87.6195 22.1452 89.1197 21.6839 89.8662C21.2226 90.6126 20.7591 91.6104 19.1573 91.3681C17.5446 91.1242 16.1856 89.3301 16.3178 88.1401C16.4494 86.9555 18.2767 88.2706 18.8088 87.3989C19.3594 86.4968 17.2949 79.8836 16.0129 80.7158C15.0138 81.3643 13.9884 81.4069 14.2957 81.9258C15.144 83.3579 14.258 84.901 12.922 85.5431Z"  fill-rule="evenodd" />
      <path id="path4103" fill="#ff7e2a" stroke="#d45400" stroke-width="0.723484" d="M65.8623 85.9388C67.3198 86.2086 71.7118 89.4126 69.4422 91.228C67.3054 92.9372 66.828 91.2047 65.6154 91.5222C62.6421 92.3008 59.6414 92.4088 57.9513 92.2552C56.2612 92.1015 53.3207 90.9017 52.7688 89.0935C52.2169 87.2853 48.4258 80.848 47.6678 82.4412C46.9374 83.9764 43.919 82.6999 44.2458 80.5406C44.5553 78.4949 46.1445 77.5516 47.8068 77.9276C49.327 78.2715 50.4231 79.1641 49.5743 80.0071C48.6339 80.9411 52.7554 83.169 52.3421 82.0337C51.8732 80.7455 55.8084 75.5925 54.6996 75.1142C53.6056 74.6423 53.5242 74.1201 54.147 72.9859C54.7649 71.8606 55.6779 71.5056 57.1505 72.2262C58.6232 72.9468 59.9485 73.6239 59.5304 75.0637C59.0952 76.5623 58.4817 76.2281 57.7029 76.1257C56.9241 76.0232 55.201 81.755 55.2751 83.6538C55.3461 85.4744 58.2545 87.1961 57.9116 85.4816C57.5686 83.7671 61.3059 80.4834 60.6756 79.7998C60.0453 79.1162 60.5257 77.6093 61.3386 77.2788C62.1515 76.9483 63.1144 76.4162 64.2648 77.5569C65.423 78.7053 65.4616 80.9556 64.6528 81.8384C63.8476 82.7172 63.1482 80.5773 62.2042 80.9672C61.2275 81.3707 58.9924 87.9282 60.5185 88.0127C61.7078 88.0786 62.5609 88.6492 62.6189 88.0489C62.7789 86.3921 64.4048 85.669 65.8623 85.9388Z"  fill-rule="evenodd" />
      <path id="path4105" fill="#ff7e2a" stroke="#d45400" stroke-width="0.723484" d="M75.7641 83.1889C74.3067 83.4587 69.9146 86.6626 72.1842 88.478C74.321 90.1872 74.7985 88.4548 76.011 88.7723C78.9843 89.5509 81.985 89.6588 83.6751 89.5052C85.3652 89.3516 88.3058 88.1518 88.8576 86.3435C89.4095 84.5353 93.2006 78.0981 93.9586 79.6912C94.6891 81.2264 97.7074 79.95 97.3807 77.7907C97.0711 75.745 95.482 74.8016 93.8196 75.1777C92.2994 75.5215 91.2033 76.4142 92.0521 77.2571C92.9925 78.1911 88.871 80.419 89.2843 79.2837C89.7532 77.9955 85.818 72.8426 86.9268 72.3642C88.0208 71.8923 88.1022 71.3701 87.4794 70.236C86.8615 69.1106 85.9485 68.7557 84.4759 69.4762C83.0032 70.1968 81.6779 70.8739 82.096 72.3137C82.5312 73.8123 83.1447 73.4782 83.9235 73.3757C84.7023 73.2732 86.4254 79.005 86.3513 80.9038C86.2803 82.7244 83.3719 84.4461 83.7149 82.7316C84.0578 81.0171 80.3205 77.7335 80.9508 77.0499C81.5811 76.3663 81.1007 74.8593 80.2878 74.5288C79.4749 74.1983 78.512 73.6662 77.3616 74.8069C76.2034 75.9554 76.1648 78.2057 76.9736 79.0885C77.7788 79.9673 78.4782 77.8273 79.4222 78.2172C80.3989 78.6207 82.634 85.1783 81.1079 85.2628C79.9186 85.3286 79.0655 85.8992 79.0075 85.299C78.8475 83.6422 77.2216 82.9191 75.7641 83.1889Z"  fill-rule="evenodd" />
      <path id="path4014" fill="#ff7e2a" stroke="#d45400" stroke-width="0.723484" d="M118.813 78.7671C120.149 79.4092 125.585 79.4137 124.824 76.6088C124.107 73.9681 122.7 75.0852 121.908 74.1134C119.967 71.7305 117.608 69.8729 116.152 68.9997C114.697 68.1266 111.615 67.3604 110.103 68.4947C108.59 69.629 101.731 72.5896 102.059 70.8561C102.375 69.1856 99.1851 68.4353 98.1748 70.3715C97.2178 72.2058 97.9443 73.9051 99.5083 74.5823C100.939 75.2016 102.35 75.1276 102.162 73.9462C101.954 72.6373 106.596 73.2702 105.593 73.943C104.454 74.7064 104.591 81.1887 103.414 80.9207C102.252 80.6562 101.878 81.0299 101.712 82.313C101.547 83.5861 102.074 84.4114 103.688 84.6985C105.303 84.9856 106.772 85.2209 107.284 83.8117C107.817 82.345 107.124 82.2528 106.435 81.876C105.746 81.4993 107.737 75.8548 108.917 74.3655C110.048 72.9374 113.412 73.2633 112.124 74.4452C110.835 75.6271 111.915 80.4834 111.003 80.6635C110.091 80.8435 109.59 82.3437 110.051 83.0901C110.512 83.8366 110.976 84.8344 112.578 84.5921C114.19 84.3482 115.549 82.5541 115.417 81.3641C115.285 80.1795 113.458 81.4946 112.926 80.6228C112.376 79.7208 114.44 73.1076 115.722 73.9397C116.721 74.5883 117.747 74.6309 117.439 75.1497C116.591 76.5819 117.477 78.125 118.813 78.7671Z"  fill-rule="evenodd" />
    </g>
  </g>
</svg>
