<?xml version="1.0" encoding="UTF-8" standalone="no"?>
<!-- Created with Inkscape (http://www.inkscape.org/) -->
<svg
   xmlns:dc="http://purl.org/dc/elements/1.1/"
   xmlns:cc="http://web.resource.org/cc/"
   xmlns:rdf="http://www.w3.org/1999/02/22-rdf-syntax-ns#"
   xmlns:svg="http://www.w3.org/2000/svg"
   xmlns="http://www.w3.org/2000/svg"
   xmlns:xlink="http://www.w3.org/1999/xlink"
   xmlns:sodipodi="http://sodipodi.sourceforge.net/DTD/sodipodi-0.dtd"
   xmlns:inkscape="http://www.inkscape.org/namespaces/inkscape"
   version="1.0"
   width="256"
   height="256"
   id="svg1"
   sodipodi:version="0.32"
   inkscape:version="0.45"
   sodipodi:docname="i_bulmages_bancos.svg"
   sodipodi:docbase="/home/anna/Desktop/elferrer/Documents/noves imatges bulmages/i_bulmages_bancos"
   inkscape:output_extension="org.inkscape.output.svg.inkscape"
   sodipodi:modified="TRUE"
   inkscape:export-filename="/home/anna/Desktop/elferrer/Documents/noves imatges bulmages/i_bulmages_bancos/i_bulmages_bancos_pulsado_L.png"
   inkscape:export-xdpi="96"
   inkscape:export-ydpi="96">
  <metadata
     id="metadata162">
    <rdf:RDF>
      <cc:Work
         rdf:about="">
        <dc:format>image/svg+xml</dc:format>
        <dc:type
           rdf:resource="http://purl.org/dc/dcmitype/StillImage" />
        <cc:license
           rdf:resource="http://creativecommons.org/licenses/GPL/2.0/" />
        <dc:title>bancos</dc:title>
        <dc:date>actualizacion 11/03/2007</dc:date>
        <dc:creator>
          <cc:Agent>
            <dc:title>Raül Martínez i Peris</dc:title>
          </cc:Agent>
        </dc:creator>
        <dc:rights>
          <cc:Agent>
            <dc:title>GPL</dc:title>
          </cc:Agent>
        </dc:rights>
        <dc:publisher>
          <cc:Agent>
            <dc:title>Raül Martinez i Peris</dc:title>
          </cc:Agent>
        </dc:publisher>
        <dc:identifier>elferrer</dc:identifier>
        <dc:source>propia</dc:source>
        <dc:language>castellano</dc:language>
        <dc:contributor>
          <cc:Agent>
            <dc:title>www.iglues.org</dc:title>
          </cc:Agent>
        </dc:contributor>
        <dc:description>iconos para las aplicaciones de iglues.org</dc:description>
        <dc:subject>
          <rdf:Bag>
            <rdf:li>bulmagés</rdf:li>
          </rdf:Bag>
        </dc:subject>
      </cc:Work>
      <cc:License
         rdf:about="http://creativecommons.org/licenses/GPL/2.0/">
        <cc:permits
           rdf:resource="http://web.resource.org/cc/Reproduction" />
        <cc:permits
           rdf:resource="http://web.resource.org/cc/Distribution" />
        <cc:requires
           rdf:resource="http://web.resource.org/cc/Notice" />
        <cc:permits
           rdf:resource="http://web.resource.org/cc/DerivativeWorks" />
        <cc:requires
           rdf:resource="http://web.resource.org/cc/ShareAlike" />
        <cc:requires
           rdf:resource="http://web.resource.org/cc/SourceCode" />
      </cc:License>
    </rdf:RDF>
  </metadata>
  <sodipodi:namedview
     inkscape:window-height="690"
     inkscape:window-width="1016"
     inkscape:pageshadow="2"
     inkscape:pageopacity="0.0"
     guidetolerance="10.0"
     gridtolerance="10.0"
     objecttolerance="10.0"
     borderopacity="1.0"
     bordercolor="#666666"
     pagecolor="#ffffff"
     id="base"
     inkscape:zoom="1.9023438"
     inkscape:cx="128"
     inkscape:cy="128"
     inkscape:window-x="0"
     inkscape:window-y="0"
     inkscape:current-layer="layer7"
     gridempspacing="3" />
  <defs
     id="defs3">
    <linearGradient
       id="linearGradient9952">
      <stop
         style="stop-color:blue;stop-opacity:1"
         offset="0"
         id="stop9953" />
      <stop
         style="stop-color:blue;stop-opacity:0"
         offset="1"
         id="stop9954" />
    </linearGradient>
    <linearGradient
       inkscape:collect="always"
       xlink:href="#linearGradient9952"
       id="linearGradient2396"
       gradientUnits="userSpaceOnUse"
       gradientTransform="matrix(0.722825,0,0,5.491502,357.3217,-224.6297)"
       x1="-181.00027"
       y1="65.430992"
       x2="-149.55615"
       y2="65.430992" />
    <linearGradient
       inkscape:collect="always"
       xlink:href="#linearGradient9952"
       id="linearGradient2398"
       gradientUnits="userSpaceOnUse"
       gradientTransform="matrix(0.503358,0.519204,-0.518754,0.503795,350.8416,286.8881)"
       x1="-181.00027"
       y1="65.430992"
       x2="-149.55615"
       y2="65.430992" />
    <linearGradient
       inkscape:collect="always"
       xlink:href="#linearGradient9952"
       id="linearGradient2400"
       gradientUnits="userSpaceOnUse"
       gradientTransform="matrix(0.700557,0.178187,-0.178032,0.701165,364.2407,212.2498)"
       x1="-181.00027"
       y1="65.430992"
       x2="-149.55615"
       y2="65.430992" />
    <linearGradient
       inkscape:collect="always"
       xlink:href="#linearGradient9952"
       id="linearGradient2402"
       gradientUnits="userSpaceOnUse"
       gradientTransform="matrix(0.175051,0.701916,0.701308,-0.175203,211.5968,364.3863)"
       x1="-181.00027"
       y1="65.430992"
       x2="-149.55615"
       y2="65.430992" />
    <linearGradient
       inkscape:collect="always"
       xlink:href="#linearGradient9952"
       id="linearGradient2404"
       gradientUnits="userSpaceOnUse"
       gradientTransform="matrix(-0.518754,0.503795,-0.503358,-0.519204,-30.75042,351.0348)"
       x1="-181.00027"
       y1="65.430992"
       x2="-149.55615"
       y2="65.430992" />
    <linearGradient
       inkscape:collect="always"
       xlink:href="#linearGradient9952"
       id="linearGradient2406"
       gradientUnits="userSpaceOnUse"
       gradientTransform="matrix(-0.178032,0.701165,-0.700557,-0.178187,43.82315,364.4456)"
       x1="-181.00027"
       y1="65.430992"
       x2="-149.55615"
       y2="65.430992" />
    <linearGradient
       inkscape:collect="always"
       xlink:href="#linearGradient9952"
       id="linearGradient2408"
       gradientUnits="userSpaceOnUse"
       gradientTransform="matrix(-0.701308,0.175203,0.175051,0.701916,-108.1815,211.6693)"
       x1="-181.00027"
       y1="65.430992"
       x2="-149.55615"
       y2="65.430992" />
    <linearGradient
       inkscape:collect="always"
       xlink:href="#linearGradient9952"
       id="linearGradient2410"
       gradientUnits="userSpaceOnUse"
       gradientTransform="matrix(0.518754,-0.503795,0.503358,0.519204,286.7504,-95.03481)"
       x1="-181.00027"
       y1="65.430992"
       x2="-149.55615"
       y2="65.430992" />
    <linearGradient
       inkscape:collect="always"
       xlink:href="#linearGradient9952"
       id="linearGradient2412"
       gradientUnits="userSpaceOnUse"
       gradientTransform="matrix(0.178032,-0.701165,0.700557,0.178187,212.1768,-108.4456)"
       x1="-181.00027"
       y1="65.430992"
       x2="-149.55615"
       y2="65.430992" />
    <linearGradient
       inkscape:collect="always"
       xlink:href="#linearGradient9952"
       id="linearGradient2414"
       gradientUnits="userSpaceOnUse"
       gradientTransform="matrix(0.701308,-0.175203,-0.175051,-0.701916,364.1815,44.33066)"
       x1="-181.00027"
       y1="65.430992"
       x2="-149.55615"
       y2="65.430992" />
    <linearGradient
       inkscape:collect="always"
       xlink:href="#linearGradient9952"
       id="linearGradient2416"
       gradientUnits="userSpaceOnUse"
       gradientTransform="matrix(-0.503358,-0.519204,0.518754,-0.503795,-94.84156,-30.88808)"
       x1="-181.00027"
       y1="65.430992"
       x2="-149.55615"
       y2="65.430992" />
    <linearGradient
       inkscape:collect="always"
       xlink:href="#linearGradient9952"
       id="linearGradient2418"
       gradientUnits="userSpaceOnUse"
       gradientTransform="matrix(-0.700557,-0.178187,0.178032,-0.701165,-108.2407,43.75017)"
       x1="-181.00027"
       y1="65.430992"
       x2="-149.55615"
       y2="65.430992" />
    <linearGradient
       inkscape:collect="always"
       xlink:href="#linearGradient9952"
       id="linearGradient2420"
       gradientUnits="userSpaceOnUse"
       gradientTransform="matrix(-0.175051,-0.701916,-0.701308,0.175203,44.40317,-108.3863)"
       x1="-181.00027"
       y1="65.430992"
       x2="-149.55615"
       y2="65.430992" />
    <linearGradient
       inkscape:collect="always"
       xlink:href="#linearGradient9952"
       id="linearGradient2422"
       gradientUnits="userSpaceOnUse"
       gradientTransform="matrix(-0.722825,0,0,-5.491502,-101.3217,480.6296)"
       x1="-181.00027"
       y1="65.430992"
       x2="-149.55615"
       y2="65.430992" />
    <linearGradient
       inkscape:collect="always"
       xlink:href="#linearGradient9952"
       id="linearGradient2424"
       gradientUnits="userSpaceOnUse"
       gradientTransform="matrix(0,-0.723451,5.486744,0,-224.3241,-101.5205)"
       x1="-181.00027"
       y1="65.430992"
       x2="-149.55615"
       y2="65.430992" />
    <linearGradient
       inkscape:collect="always"
       xlink:href="#linearGradient9952"
       id="linearGradient2426"
       gradientUnits="userSpaceOnUse"
       gradientTransform="matrix(0,0.723451,-5.486744,0,480.324,357.5204)"
       x1="-181.00027"
       y1="65.430992"
       x2="-149.55615"
       y2="65.430992" />
    <linearGradient
       inkscape:collect="always"
       xlink:href="#linearGradient9952"
       id="linearGradient2428"
       gradientUnits="userSpaceOnUse"
       gradientTransform="matrix(0.722825,0,0,5.491502,161.2922,-224.6297)"
       x1="-181.00027"
       y1="65.430992"
       x2="-149.55615"
       y2="65.430992" />
    <linearGradient
       inkscape:collect="always"
       xlink:href="#linearGradient9952"
       id="linearGradient2430"
       gradientUnits="userSpaceOnUse"
       gradientTransform="matrix(-0.722825,0,0,-5.491502,97.31552,480.6296)"
       x1="-181.00027"
       y1="65.430992"
       x2="-149.55615"
       y2="65.430992" />
    <linearGradient
       inkscape:collect="always"
       xlink:href="#linearGradient9952"
       id="linearGradient2432"
       gradientUnits="userSpaceOnUse"
       gradientTransform="matrix(0,-0.723451,5.486744,0,-224.3241,95.04349)"
       x1="-181.00027"
       y1="65.430992"
       x2="-149.55615"
       y2="65.430992" />
    <linearGradient
       inkscape:collect="always"
       xlink:href="#linearGradient9952"
       id="linearGradient2434"
       gradientUnits="userSpaceOnUse"
       gradientTransform="matrix(0,0.723451,-5.486744,0,480.324,161.8969)"
       x1="-181.00027"
       y1="65.430992"
       x2="-149.55615"
       y2="65.430992" />
    <filter
       inkscape:collect="always"
       id="filter3435">
      <feGaussianBlur
         inkscape:collect="always"
         stdDeviation="0.85861533"
         id="feGaussianBlur3437" />
    </filter>
    <filter
       inkscape:collect="always"
       x="-0.016604443"
       width="1.0332089"
       y="-0.26488972"
       height="1.5297794"
       id="filter3519">
      <feGaussianBlur
         inkscape:collect="always"
         stdDeviation="0.85513951"
         id="feGaussianBlur3521" />
    </filter>
    <filter
       inkscape:collect="always"
       x="-0.059483595"
       width="1.1189672"
       y="-0.10480441"
       height="1.2096088"
       id="filter3591">
      <feGaussianBlur
         inkscape:collect="always"
         stdDeviation="0.83589533"
         id="feGaussianBlur3593" />
    </filter>
    <filter
       inkscape:collect="always"
       id="filter3683">
      <feGaussianBlur
         inkscape:collect="always"
         stdDeviation="0.67586479"
         id="feGaussianBlur3685" />
    </filter>
    <filter
       inkscape:collect="always"
       x="-0.10004336"
       width="1.2000867"
       y="-0.099956678"
       height="1.1999134"
       id="filter3248">
      <feGaussianBlur
         inkscape:collect="always"
         stdDeviation="9.0266808"
         id="feGaussianBlur3250" />
    </filter>
  </defs>
  <g
     style="opacity:1;display:inline"
     id="layer1">
    <path
       d=""
       style="opacity:1"
       id="path3945" />
  </g>
  <path
     d=""
     id="path3081" />
  <g
     style="display:inline"
     id="layer2" />
  <g
     style="display:inline"
     id="layer3" />
  <g
     style="opacity:1;display:inline"
     id="layer4" />
  <g
     inkscape:groupmode="layer"
     id="layer5"
     inkscape:label="boton_pulsado"
     style="display:none"
     sodipodi:insensitive="true">
    <g
       id="g2458">
      <g
         transform="translate(-3.15982,0.14121)"
         style="display:inline"
         id="g3979">
        <path
           d="M 225.84614,30.083415 L 249.21903,30.14204 L 249.21903,225.91656 L 225.87247,225.87734 L 225.84614,30.083415 z "
           style="opacity:0.5;fill:url(#linearGradient2396);fill-opacity:1;fill-rule:evenodd;stroke:none;stroke-width:8.9802618;stroke-miterlimit:4;stroke-opacity:1;display:block"
           id="rect10002" />
        <path
           d="M 246.09172,236.81817 L 241.6188,242.20167 L 236.82989,246.55734 L 225.79115,225.87576 L 246.09172,236.81817 z "
           style="opacity:0.5;fill:url(#linearGradient2398);fill-opacity:1;fill-rule:evenodd;stroke:none;stroke-width:8.9802618;stroke-miterlimit:4;stroke-opacity:1"
           id="path2053" />
        <path
           d="M 249.21905,225.96681 L 247.81954,231.47868 L 246.42002,236.99055 L 225.79115,225.87576 L 249.21905,225.96681 z "
           style="opacity:0.5;fill:url(#linearGradient2400);fill-opacity:1;fill-rule:evenodd;stroke:none;stroke-width:8.9802618;stroke-miterlimit:4;stroke-opacity:1"
           id="path2060" />
        <path
           d="M 225.79115,249.32415 L 231.30415,247.94688 L 236.81715,246.56961 L 225.79985,225.87576 L 225.79115,249.32415 z "
           style="opacity:0.5;fill:url(#linearGradient2402);fill-opacity:1;fill-rule:evenodd;stroke:none;stroke-width:8.9802618;stroke-miterlimit:4;stroke-opacity:1"
           id="path2062" />
        <path
           d="M 19.276093,246.19414 L 13.897256,241.71734 L 9.5453636,236.92428 L 30.20902,225.87597 L 19.276093,246.19414 z "
           style="opacity:0.5;fill:url(#linearGradient2404);fill-opacity:1;fill-rule:evenodd;stroke:none;stroke-width:8.9802618;stroke-miterlimit:4;stroke-opacity:1"
           id="path3000" />
        <path
           d="M 30.118045,249.32418 L 24.610958,247.92346 L 19.103856,246.52272 L 30.20902,225.87597 L 30.118045,249.32418 z "
           style="opacity:0.5;fill:url(#linearGradient2406);fill-opacity:1;fill-rule:evenodd;stroke:none;stroke-width:8.9802618;stroke-miterlimit:4;stroke-opacity:1"
           id="path3001" />
        <path
           d="M 6.7809483,225.87597 L 8.1570192,231.39375 L 9.5331053,236.91153 L 30.20902,225.88467 L 6.7809483,225.87597 z "
           style="opacity:0.5;fill:url(#linearGradient2408);fill-opacity:1;fill-rule:evenodd;stroke:none;stroke-width:8.9802618;stroke-miterlimit:4;stroke-opacity:1"
           id="path3002" />
        <path
           d="M 236.72389,9.8058696 L 242.10272,14.28267 L 246.45462,19.075728 L 225.79096,30.12404 L 236.72389,9.8058696 z "
           style="opacity:0.5;fill:url(#linearGradient2410);fill-opacity:1;fill-rule:evenodd;stroke:none;stroke-width:8.9802618;stroke-miterlimit:4;stroke-opacity:1"
           id="path3007" />
        <path
           d="M 225.88193,6.6758271 L 231.38902,8.0765559 L 236.89612,9.4772889 L 225.79096,30.12404 L 225.88193,6.6758271 z "
           style="opacity:0.5;fill:url(#linearGradient2412);fill-opacity:1;fill-rule:evenodd;stroke:none;stroke-width:8.9802618;stroke-miterlimit:4;stroke-opacity:1"
           id="path3008" />
        <path
           d="M 249.21903,30.12404 L 247.84296,24.606264 L 246.46687,19.08848 L 225.79096,30.115338 L 249.21903,30.12404 z "
           style="opacity:0.5;fill:url(#linearGradient2414);fill-opacity:1;fill-rule:evenodd;stroke:none;stroke-width:8.9802618;stroke-miterlimit:4;stroke-opacity:1"
           id="path3009" />
        <path
           d="M 9.9082846,19.181822 L 14.381207,13.79832 L 19.170112,9.4426539 L 30.20885,30.12423 L 9.9082846,19.181822 z "
           style="opacity:0.5;fill:url(#linearGradient2416);fill-opacity:1;fill-rule:evenodd;stroke:none;stroke-width:8.9802618;stroke-miterlimit:4;stroke-opacity:1"
           id="path3011" />
        <path
           d="M 6.7809541,30.033176 L 8.1804693,24.521313 L 9.5799886,19.009435 L 30.20885,30.12423 L 6.7809541,30.033176 z "
           style="opacity:0.5;fill:url(#linearGradient2418);fill-opacity:1;fill-rule:evenodd;stroke:none;stroke-width:8.9802618;stroke-miterlimit:4;stroke-opacity:1"
           id="path3012" />
        <path
           d="M 30.20885,6.6758413 L 24.695855,8.0531055 L 19.182853,9.430385 L 30.200156,30.12423 L 30.20885,6.6758413 z "
           style="opacity:0.5;fill:url(#linearGradient2420);fill-opacity:1;fill-rule:evenodd;stroke:none;stroke-width:8.9802618;stroke-miterlimit:4;stroke-opacity:1"
           id="path3013" />
        <path
           d="M 30.153849,225.91656 L 6.780954,225.85793 L 6.780954,30.083413 L 30.127521,30.122631 L 30.153849,225.91656 z "
           style="opacity:0.5;fill:url(#linearGradient2422);fill-opacity:1;fill-rule:evenodd;stroke:none;stroke-width:8.9802618;stroke-miterlimit:4;stroke-opacity:1;display:block"
           id="path3021" />
        <path
           d="M 30.168259,30.06899 L 30.226838,6.675827 L 225.83173,6.675827 L 225.79255,30.04264 L 30.168259,30.06899 z "
           style="opacity:0.5;fill:url(#linearGradient2424);fill-opacity:1;fill-rule:evenodd;stroke:none;stroke-width:8.9802618;stroke-miterlimit:4;stroke-opacity:1;display:block"
           id="path3023" />
        <path
           d="M 225.83173,225.93098 L 225.77315,249.32415 L 30.168259,249.32415 L 30.207443,225.95733 L 225.83173,225.93098 z "
           style="opacity:0.5;fill:url(#linearGradient2426);fill-opacity:1;fill-rule:evenodd;stroke:none;stroke-width:8.9802618;stroke-miterlimit:4;stroke-opacity:1;display:block"
           id="path3054" />
        <path
           d="M 29.816627,30.083414 L 53.189522,30.14204 L 53.189522,225.91656 L 29.842954,225.87734 L 29.816627,30.083414 z "
           style="opacity:0.5;fill:url(#linearGradient2428);fill-opacity:1;fill-rule:evenodd;stroke:none;stroke-width:8.9802618;stroke-miterlimit:4;stroke-opacity:1;display:block"
           id="path1956" />
        <path
           d="M 228.79098,225.91656 L 205.41809,225.85793 L 205.41809,30.083413 L 228.76465,30.122631 L 228.79098,225.91656 z "
           style="opacity:0.5;fill:url(#linearGradient2430);fill-opacity:1;fill-rule:evenodd;stroke:none;stroke-width:8.9802618;stroke-miterlimit:4;stroke-opacity:1;display:block"
           id="path1990" />
        <path
           d="M 30.168258,226.63294 L 30.226837,203.23978 L 225.83173,203.23978 L 225.79255,226.60659 L 30.168258,226.63294 z "
           style="opacity:0.5;fill:url(#linearGradient2432);fill-opacity:1;fill-rule:evenodd;stroke:none;stroke-width:8.9802618;stroke-miterlimit:4;stroke-opacity:1;display:block"
           id="path1992" />
        <path
           d="M 225.83173,30.307532 L 225.77315,53.700695 L 30.168258,53.700695 L 30.207442,30.333882 L 225.83173,30.307532 z "
           style="opacity:0.5;fill:url(#linearGradient2434);fill-opacity:1;fill-rule:evenodd;stroke:none;stroke-width:8.9802618;stroke-miterlimit:4;stroke-opacity:1;display:block"
           id="path1994" />
      </g>
      <path
         d="M 46.00708,221.46053 L 46.00708,217.88241 L 214.76672,217.88241 L 214.76672,49.1021 L 218.34173,49.06054 L 218.34173,219.68332 L 218.34173,221.46053 L 216.56606,221.46053 L 46.00708,221.46053 z "
         style="fill:#000000;fill-opacity:1;fill-rule:evenodd;stroke:none;stroke-width:4.70592737;stroke-miterlimit:4;stroke-opacity:1;display:block"
         id="path2826" />
      <path
         d="M 34.61253,37.83522 L 36.3882,37.83522 L 213.29223,37.83522 L 215.0679,37.83522 L 215.0679,39.61242 L 215.0679,216.66987 L 215.0679,218.44708 L 213.29223,218.44708 L 36.3882,218.44708 L 34.61253,218.44708 L 34.61253,216.66987 L 34.61253,39.61242 L 34.61253,37.83522 z M 38.18754,41.41333 L 38.18754,214.86896 L 211.49289,214.86896 L 211.49289,41.41333 L 38.18754,41.41333 z "
         style="fill:#00007f;fill-opacity:1;fill-rule:evenodd;stroke:none;stroke-width:8.9802618;stroke-miterlimit:4;stroke-opacity:1;display:block"
         id="rect5542" />
    </g>
  </g>
  <g
     inkscape:groupmode="layer"
     id="layer7"
     inkscape:label="boton_visible"
     style="display:none"
     sodipodi:insensitive="true">
    <path
       id="path2483"
       style="fill:#00007f;fill-opacity:1;fill-rule:evenodd;stroke:none;stroke-width:8.9802618;stroke-miterlimit:4;stroke-opacity:1;display:block;filter:url(#filter3248)"
       d="M 34.61253,37.83522 L 36.3882,37.83522 L 213.29223,37.83522 L 215.0679,37.83522 L 215.0679,39.61242 L 215.0679,216.66987 L 215.0679,218.44708 L 213.29223,218.44708 L 36.3882,218.44708 L 34.61253,218.44708 L 34.61253,216.66987 L 34.61253,39.61242 L 34.61253,37.83522 z M 38.18754,41.41333 L 38.18754,214.86896 L 211.49289,214.86896 L 211.49289,41.41333 L 38.18754,41.41333 z " />
  </g>
  <g
     inkscape:groupmode="layer"
     id="layer8"
     inkscape:label="icono"
     style="display:inline">
    <g
       transform="matrix(0.9095477,-0.9095477,0.9095477,0.9095477,-119.06942,52.068195)"
       id="g3724">
      <path
         id="path3726"
         d="M 173.11045,147.04309 L 42.080056,147.04309 L 42.080056,208.34253 L 173.11045,208.34253 L 173.11045,147.04309 z M 171.66722,148.63825 L 43.52329,148.63825 L 43.52329,206.8993 L 171.66722,206.8993 L 171.66722,148.63825 z "
         style="fill:#1f1a17;stroke:none;filter:url(#filter3435)" />
      <path
         id="path3728"
         d="M 78.388766,148.33441 L 171.81914,148.33441 L 171.81914,206.8993 L 78.388766,206.8993 L 78.388766,148.33441 z "
         style="opacity:1;fill:#ffa700;fill-opacity:1;stroke:none" />
      <path
         id="path3730"
         d="M 43.523287,148.63825 L 78.540686,148.63825 L 78.540686,206.67142 L 43.523287,206.67142 L 43.523287,148.63825 z "
         style="fill:#ffffff;stroke:none" />
      <path
         sodipodi:nodetypes="cccccccccccczzzzcczzzcccccccccccc"
         id="path3732"
         d="M 160.88093,186.76998 C 160.45204,187.08249 158.40035,188.04495 156.42754,188.91713 C 153.85972,189.65306 147.05773,189.77603 143.80893,188.47348 C 140.85851,187.08567 137.43776,184.31381 135.92831,181.83758 C 134.15598,179.228 134.03848,176.66253 133.91527,176.13564 C 132.72524,176.13611 131.53521,176.13564 130.34517,176.13564 C 130.77632,175.24979 131.20604,174.36325 131.63648,173.47705 C 132.2948,173.47752 132.95312,173.47705 133.61143,173.47705 C 133.61191,172.10978 133.61143,170.7425 133.61143,169.37523 C 132.26948,169.3757 130.92753,169.37523 129.58557,169.37523 C 130.01672,168.51471 130.44645,167.65348 130.87689,166.7926 C 131.88968,166.79307 132.90248,166.7926 133.91527,166.7926 C 134.09409,166.10607 134.49096,164.08578 136.07502,161.51604 C 137.62532,159.00109 138.79225,157.51624 140.62278,156.12421 C 142.41169,154.76382 146.07034,153.5911 147.54844,153.51127 C 149.36436,153.4132 152.4636,153.46813 154.93411,154.16172 C 157.48327,154.87739 160.47974,155.8008 160.6855,155.97116 C 160.742,156.04938 160.423,158.33412 160.34923,158.8928 C 159.63242,158.57307 159.49698,158.68386 158.1619,158.02131 C 156.96449,157.42707 150.8592,157.55469 148.48707,158.90112 C 146.1793,160.21102 144.46737,161.67286 143.72862,163.09689 C 143.12413,164.26213 143.37451,165.38424 142.92391,166.66333 C 142.86548,166.70793 151.88477,166.79282 155.86761,166.7926 C 155.43787,167.65383 155.00674,168.51436 154.5763,169.37523 C 150.57575,169.3757 146.57522,169.37523 142.57467,169.37523 C 142.60364,169.81239 142.42341,172.79279 142.42275,173.09725 C 142.46745,173.21899 150.45502,173.47705 152.82923,173.47705 C 152.39949,174.36359 151.96835,175.24944 151.53791,176.13564 C 148.6008,176.13611 145.6637,176.13564 142.72659,176.13564 C 142.9043,176.86981 143.37691,180.15196 148.32022,184.01347 C 150.37535,185.25984 154.23781,185.41149 156.24741,185.32676 C 158.03335,184.89567 160.21303,183.92435 160.57711,183.7316 C 160.67884,184.74434 160.77969,185.75719 160.88093,186.76998 z "
         style="fill:#1f1a17;stroke:none;filter:url(#filter3683)" />
      <polygon
         transform="matrix(7.595965e-2,0,0,7.595965e-2,-410.71542,-404.65184)"
         style="fill:#1f1a17;stroke:none"
         id="polygon3734"
         points="6098,7797 6176,7797 6176,7772 6158,7772 6124,7774 6096,7774 6079,7774 6065,7852 6084,7854 6098,7857 6113,7862 6124,7868 6134,7873 6138,7883 6143,7890 6146,7899 6143,7913 6136,7928 6127,7940 6115,7949 6101,7956 6087,7963 6072,7968 6060,7970 6065,7994 6084,7989 6103,7982 6122,7970 6138,7958 6153,7944 6164,7928 6172,7911 6174,7895 6174,7885 6169,7876 6164,7866 6158,7857 6148,7850 6134,7843 6115,7836 6091,7831 6098,7797 " />
      <polygon
         transform="matrix(7.595965e-2,0,0,7.595965e-2,-410.71542,-404.65184)"
         style="fill:#1f1a17;stroke:none"
         id="polygon3736"
         points="6307,7857 6288,7857 6276,7857 6276,7826 6288,7826 6299,7826 6299,7817 6285,7817 6276,7817 6276,7783 6290,7783 6304,7783 6304,7774 6283,7774 6264,7777 6264,7793 6264,7812 6264,7828 6264,7845 6264,7866 6285,7866 6307,7866 6307,7857 " />
      <polygon
         transform="matrix(7.595965e-2,0,0,7.595965e-2,-410.71542,-404.65184)"
         style="fill:#1f1a17;stroke:none"
         id="polygon3738"
         points="6344,7797 6344,7783 6344,7777 6333,7777 6333,7786 6333,7795 6333,7803 6333,7821 6333,7836 6335,7845 6339,7852 6347,7862 6356,7866 6364,7866 6370,7868 6380,7866 6387,7864 6394,7859 6401,7854 6406,7845 6409,7833 6411,7819 6411,7803 6411,7795 6411,7783 6411,7774 6398,7774 6398,7783 6398,7795 6398,7800 6398,7814 6398,7826 6396,7838 6394,7845 6389,7850 6384,7854 6380,7857 6370,7857 6366,7857 6359,7854 6354,7852 6349,7845 6347,7838 6344,7831 6344,7819 6344,7807 6344,7797 " />
      <polygon
         transform="matrix(7.595965e-2,0,0,7.595965e-2,-410.71542,-404.65184)"
         style="fill:#1f1a17;stroke:none"
         id="polygon3740"
         points="6455,7786 6470,7786 6477,7791 6482,7795 6484,7800 6482,7807 6477,7814 6470,7819 6463,7823 6482,7848 6498,7868 6508,7859 6494,7843 6477,7823 6484,7819 6491,7812 6494,7805 6496,7797 6494,7791 6489,7783 6479,7781 6470,7777 6453,7777 6441,7777 6444,7793 6444,7809 6444,7819 6444,7843 6444,7866 6455,7866 6455,7848 6455,7826 6455,7786 " />
      <path
         style="fill:#1f1a17;stroke:none"
         id="path3742"
         d="M 87.883725,192.31505 L 87.352008,192.16313 L 86.82029,191.93525 L 86.440492,191.78333 L 86.136653,191.47949 L 85.756855,191.09969 L 85.604936,190.71989 L 85.604936,190.18818 L 85.377057,189.5805 L 85.604936,189.12474 L 85.604936,188.36514 L 85.984734,188.0613 L 86.288573,187.45363 L 86.668371,187.14979 L 87.048169,186.76999 L 87.503927,186.54211 L 88.263524,186.54211 L 88.795241,186.54211 L 89.175039,186.76999 L 89.554838,186.92191 L 89.858676,187.30171 L 90.238474,187.60555 L 90.466353,188.0613 L 90.618273,188.51706 L 90.618273,189.27666 L 90.618273,189.80838 L 90.466353,190.56797 L 90.238474,191.09969 L 89.858676,191.47949 L 89.402918,191.78333 L 89.02312,191.93525 L 88.415443,192.16313 L 87.883725,192.31505 z M 87.883725,192.99868 L 88.795241,192.84676 L 89.554838,192.54292 L 90.238474,192.16313 L 90.770192,191.63141 L 91.14999,191.09969 L 91.30191,190.34009 L 91.529789,189.80838 L 91.681708,189.12474 L 91.529789,188.36514 L 91.30191,187.83343 L 91.14999,187.30171 L 90.618273,186.76999 L 90.238474,186.39019 L 89.706757,186.08635 L 89.02312,185.85848 L 88.415443,185.85848 L 87.503927,185.85848 L 86.82029,186.23827 L 86.136653,186.54211 L 85.604936,186.92191 L 85.225138,187.60555 L 84.845339,188.21322 L 84.69342,188.89686 L 84.465541,189.80838 L 84.69342,190.34009 L 84.69342,191.09969 L 85.073218,191.63141 L 85.377057,191.93525 L 85.984734,192.31505 L 86.440492,192.69484 L 87.048169,192.84676 L 87.883725,192.99868 z " />
      <path
         id="path3744"
         d="M 64.032393,195.0496 L 167.03368,195.0496 L 167.03368,201.50617 L 64.032393,201.50617 L 64.032393,195.0496 z "
         style="fill:#c2c1c1;stroke:none;filter:url(#filter3519)" />
      <path
         id="path3746"
         d="M 50.663494,152.43623 L 78.768565,152.43623 L 78.768565,168.38776 L 50.663494,168.38776 L 50.663494,152.43623 z "
         style="fill:#ff6600;fill-opacity:1;stroke:none;filter:url(#filter3591)" />
    </g>
    <path
       d=""
       id="path2632" />
    <g
       id="g3687"
       transform="matrix(1.2862948,0,0,1.2862948,-13.182493,-35.539336)">
      <path
         style="fill:#1f1a17;stroke:none;filter:url(#filter3435)"
         d="M 173.11045,147.04309 L 42.080056,147.04309 L 42.080056,208.34253 L 173.11045,208.34253 L 173.11045,147.04309 z M 171.66722,148.63825 L 43.52329,148.63825 L 43.52329,206.8993 L 171.66722,206.8993 L 171.66722,148.63825 z "
         id="path106" />
      <path
         style="fill:#9b9ac2;stroke:none"
         d="M 78.388766,148.33441 L 171.81914,148.33441 L 171.81914,206.8993 L 78.388766,206.8993 L 78.388766,148.33441 z "
         id="polygon102" />
      <path
         style="fill:#ffffff;stroke:none"
         d="M 43.523287,148.63825 L 78.540686,148.63825 L 78.540686,206.67142 L 43.523287,206.67142 L 43.523287,148.63825 z "
         id="polygon104" />
      <path
         style="fill:#1f1a17;stroke:none;filter:url(#filter3683)"
         d="M 160.88093,186.76998 C 160.45204,187.08249 158.40035,188.04495 156.42754,188.91713 C 153.85972,189.65306 147.05773,189.77603 143.80893,188.47348 C 140.85851,187.08567 137.43776,184.31381 135.92831,181.83758 C 134.15598,179.228 134.03848,176.66253 133.91527,176.13564 C 132.72524,176.13611 131.53521,176.13564 130.34517,176.13564 C 130.77632,175.24979 131.20604,174.36325 131.63648,173.47705 C 132.2948,173.47752 132.95312,173.47705 133.61143,173.47705 C 133.61191,172.10978 133.61143,170.7425 133.61143,169.37523 C 132.26948,169.3757 130.92753,169.37523 129.58557,169.37523 C 130.01672,168.51471 130.44645,167.65348 130.87689,166.7926 C 131.88968,166.79307 132.90248,166.7926 133.91527,166.7926 C 134.09409,166.10607 134.49096,164.08578 136.07502,161.51604 C 137.62532,159.00109 138.79225,157.51624 140.62278,156.12421 C 142.41169,154.76382 146.07034,153.5911 147.54844,153.51127 C 149.36436,153.4132 152.4636,153.46813 154.93411,154.16172 C 157.48327,154.87739 160.47974,155.8008 160.6855,155.97116 C 160.742,156.04938 160.423,158.33412 160.34923,158.8928 C 159.63242,158.57307 159.49698,158.68386 158.1619,158.02131 C 156.96449,157.42707 150.8592,157.55469 148.48707,158.90112 C 146.1793,160.21102 144.46737,161.67286 143.72862,163.09689 C 143.12413,164.26213 143.37451,165.38424 142.92391,166.66333 C 142.86548,166.70793 151.88477,166.79282 155.86761,166.7926 C 155.43787,167.65383 155.00674,168.51436 154.5763,169.37523 C 150.57575,169.3757 146.57522,169.37523 142.57467,169.37523 C 142.60364,169.81239 142.42341,172.79279 142.42275,173.09725 C 142.46745,173.21899 150.45502,173.47705 152.82923,173.47705 C 152.39949,174.36359 151.96835,175.24944 151.53791,176.13564 C 148.6008,176.13611 145.6637,176.13564 142.72659,176.13564 C 142.9043,176.86981 143.37691,180.15196 148.32022,184.01347 C 150.37535,185.25984 154.23781,185.41149 156.24741,185.32676 C 158.03335,184.89567 160.21303,183.92435 160.57711,183.7316 C 160.67884,184.74434 160.77969,185.75719 160.88093,186.76998 z "
         id="polygon107"
         sodipodi:nodetypes="cccccccccccczzzzcczzzcccccccccccc" />
      <polygon
         points="6098,7797 6176,7797 6176,7772 6158,7772 6124,7774 6096,7774 6079,7774 6065,7852 6084,7854 6098,7857 6113,7862 6124,7868 6134,7873 6138,7883 6143,7890 6146,7899 6143,7913 6136,7928 6127,7940 6115,7949 6101,7956 6087,7963 6072,7968 6060,7970 6065,7994 6084,7989 6103,7982 6122,7970 6138,7958 6153,7944 6164,7928 6172,7911 6174,7895 6174,7885 6169,7876 6164,7866 6158,7857 6148,7850 6134,7843 6115,7836 6091,7831 6098,7797 "
         id="polygon108"
         style="fill:#1f1a17;stroke:none"
         transform="matrix(7.595965e-2,0,0,7.595965e-2,-410.71542,-404.65184)" />
      <polygon
         points="6307,7857 6288,7857 6276,7857 6276,7826 6288,7826 6299,7826 6299,7817 6285,7817 6276,7817 6276,7783 6290,7783 6304,7783 6304,7774 6283,7774 6264,7777 6264,7793 6264,7812 6264,7828 6264,7845 6264,7866 6285,7866 6307,7866 6307,7857 "
         id="polygon109"
         style="fill:#1f1a17;stroke:none"
         transform="matrix(7.595965e-2,0,0,7.595965e-2,-410.71542,-404.65184)" />
      <polygon
         points="6344,7797 6344,7783 6344,7777 6333,7777 6333,7786 6333,7795 6333,7803 6333,7821 6333,7836 6335,7845 6339,7852 6347,7862 6356,7866 6364,7866 6370,7868 6380,7866 6387,7864 6394,7859 6401,7854 6406,7845 6409,7833 6411,7819 6411,7803 6411,7795 6411,7783 6411,7774 6398,7774 6398,7783 6398,7795 6398,7800 6398,7814 6398,7826 6396,7838 6394,7845 6389,7850 6384,7854 6380,7857 6370,7857 6366,7857 6359,7854 6354,7852 6349,7845 6347,7838 6344,7831 6344,7819 6344,7807 6344,7797 "
         id="polygon110"
         style="fill:#1f1a17;stroke:none"
         transform="matrix(7.595965e-2,0,0,7.595965e-2,-410.71542,-404.65184)" />
      <polygon
         points="6455,7786 6470,7786 6477,7791 6482,7795 6484,7800 6482,7807 6477,7814 6470,7819 6463,7823 6482,7848 6498,7868 6508,7859 6494,7843 6477,7823 6484,7819 6491,7812 6494,7805 6496,7797 6494,7791 6489,7783 6479,7781 6470,7777 6453,7777 6441,7777 6444,7793 6444,7809 6444,7819 6444,7843 6444,7866 6455,7866 6455,7848 6455,7826 6455,7786 "
         id="polygon111"
         style="fill:#1f1a17;stroke:none"
         transform="matrix(7.595965e-2,0,0,7.595965e-2,-410.71542,-404.65184)" />
      <path
         d="M 87.883725,192.31505 L 87.352008,192.16313 L 86.82029,191.93525 L 86.440492,191.78333 L 86.136653,191.47949 L 85.756855,191.09969 L 85.604936,190.71989 L 85.604936,190.18818 L 85.377057,189.5805 L 85.604936,189.12474 L 85.604936,188.36514 L 85.984734,188.0613 L 86.288573,187.45363 L 86.668371,187.14979 L 87.048169,186.76999 L 87.503927,186.54211 L 88.263524,186.54211 L 88.795241,186.54211 L 89.175039,186.76999 L 89.554838,186.92191 L 89.858676,187.30171 L 90.238474,187.60555 L 90.466353,188.0613 L 90.618273,188.51706 L 90.618273,189.27666 L 90.618273,189.80838 L 90.466353,190.56797 L 90.238474,191.09969 L 89.858676,191.47949 L 89.402918,191.78333 L 89.02312,191.93525 L 88.415443,192.16313 L 87.883725,192.31505 z M 87.883725,192.99868 L 88.795241,192.84676 L 89.554838,192.54292 L 90.238474,192.16313 L 90.770192,191.63141 L 91.14999,191.09969 L 91.30191,190.34009 L 91.529789,189.80838 L 91.681708,189.12474 L 91.529789,188.36514 L 91.30191,187.83343 L 91.14999,187.30171 L 90.618273,186.76999 L 90.238474,186.39019 L 89.706757,186.08635 L 89.02312,185.85848 L 88.415443,185.85848 L 87.503927,185.85848 L 86.82029,186.23827 L 86.136653,186.54211 L 85.604936,186.92191 L 85.225138,187.60555 L 84.845339,188.21322 L 84.69342,188.89686 L 84.465541,189.80838 L 84.69342,190.34009 L 84.69342,191.09969 L 85.073218,191.63141 L 85.377057,191.93525 L 85.984734,192.31505 L 86.440492,192.69484 L 87.048169,192.84676 L 87.883725,192.99868 z "
         id="path112"
         style="fill:#1f1a17;stroke:none" />
      <path
         style="fill:#c2c1c1;stroke:none;filter:url(#filter3519)"
         d="M 64.032393,195.0496 L 167.03368,195.0496 L 167.03368,201.50617 L 64.032393,201.50617 L 64.032393,195.0496 z "
         id="polygon114" />
      <path
         style="fill:#28166f;stroke:none;filter:url(#filter3591)"
         d="M 50.663494,152.43623 L 78.768565,152.43623 L 78.768565,168.38776 L 50.663494,168.38776 L 50.663494,152.43623 z "
         id="polygon116" />
    </g>
    <g
       id="g3700"
       transform="matrix(1.3299326,0.767837,-0.767837,1.3299326,118.58422,-210.4044)">
      <path
         id="path3702"
         d="M 173.11045,147.04309 L 42.080056,147.04309 L 42.080056,208.34253 L 173.11045,208.34253 L 173.11045,147.04309 z M 171.66722,148.63825 L 43.52329,148.63825 L 43.52329,206.8993 L 171.66722,206.8993 L 171.66722,148.63825 z "
         style="fill:#1f1a17;stroke:none;filter:url(#filter3435)" />
      <path
         id="path3704"
         d="M 78.388766,148.33441 L 171.81914,148.33441 L 171.81914,206.8993 L 78.388766,206.8993 L 78.388766,148.33441 z "
         style="fill:#9b9ac2;stroke:none" />
      <path
         id="path3706"
         d="M 43.523287,148.63825 L 78.540686,148.63825 L 78.540686,206.67142 L 43.523287,206.67142 L 43.523287,148.63825 z "
         style="fill:#ffffff;stroke:none" />
      <path
         sodipodi:nodetypes="cccccccccccczzzzcczzzcccccccccccc"
         id="path3708"
         d="M 160.88093,186.76998 C 160.45204,187.08249 158.40035,188.04495 156.42754,188.91713 C 153.85972,189.65306 147.05773,189.77603 143.80893,188.47348 C 140.85851,187.08567 137.43776,184.31381 135.92831,181.83758 C 134.15598,179.228 134.03848,176.66253 133.91527,176.13564 C 132.72524,176.13611 131.53521,176.13564 130.34517,176.13564 C 130.77632,175.24979 131.20604,174.36325 131.63648,173.47705 C 132.2948,173.47752 132.95312,173.47705 133.61143,173.47705 C 133.61191,172.10978 133.61143,170.7425 133.61143,169.37523 C 132.26948,169.3757 130.92753,169.37523 129.58557,169.37523 C 130.01672,168.51471 130.44645,167.65348 130.87689,166.7926 C 131.88968,166.79307 132.90248,166.7926 133.91527,166.7926 C 134.09409,166.10607 134.49096,164.08578 136.07502,161.51604 C 137.62532,159.00109 138.79225,157.51624 140.62278,156.12421 C 142.41169,154.76382 146.07034,153.5911 147.54844,153.51127 C 149.36436,153.4132 152.4636,153.46813 154.93411,154.16172 C 157.48327,154.87739 160.47974,155.8008 160.6855,155.97116 C 160.742,156.04938 160.423,158.33412 160.34923,158.8928 C 159.63242,158.57307 159.49698,158.68386 158.1619,158.02131 C 156.96449,157.42707 150.8592,157.55469 148.48707,158.90112 C 146.1793,160.21102 144.46737,161.67286 143.72862,163.09689 C 143.12413,164.26213 143.37451,165.38424 142.92391,166.66333 C 142.86548,166.70793 151.88477,166.79282 155.86761,166.7926 C 155.43787,167.65383 155.00674,168.51436 154.5763,169.37523 C 150.57575,169.3757 146.57522,169.37523 142.57467,169.37523 C 142.60364,169.81239 142.42341,172.79279 142.42275,173.09725 C 142.46745,173.21899 150.45502,173.47705 152.82923,173.47705 C 152.39949,174.36359 151.96835,175.24944 151.53791,176.13564 C 148.6008,176.13611 145.6637,176.13564 142.72659,176.13564 C 142.9043,176.86981 143.37691,180.15196 148.32022,184.01347 C 150.37535,185.25984 154.23781,185.41149 156.24741,185.32676 C 158.03335,184.89567 160.21303,183.92435 160.57711,183.7316 C 160.67884,184.74434 160.77969,185.75719 160.88093,186.76998 z "
         style="fill:#1f1a17;stroke:none;filter:url(#filter3683)" />
      <polygon
         transform="matrix(7.595965e-2,0,0,7.595965e-2,-410.71542,-404.65184)"
         style="fill:#1f1a17;stroke:none"
         id="polygon3710"
         points="6098,7797 6176,7797 6176,7772 6158,7772 6124,7774 6096,7774 6079,7774 6065,7852 6084,7854 6098,7857 6113,7862 6124,7868 6134,7873 6138,7883 6143,7890 6146,7899 6143,7913 6136,7928 6127,7940 6115,7949 6101,7956 6087,7963 6072,7968 6060,7970 6065,7994 6084,7989 6103,7982 6122,7970 6138,7958 6153,7944 6164,7928 6172,7911 6174,7895 6174,7885 6169,7876 6164,7866 6158,7857 6148,7850 6134,7843 6115,7836 6091,7831 6098,7797 " />
      <polygon
         transform="matrix(7.595965e-2,0,0,7.595965e-2,-410.71542,-404.65184)"
         style="fill:#1f1a17;stroke:none"
         id="polygon3712"
         points="6307,7857 6288,7857 6276,7857 6276,7826 6288,7826 6299,7826 6299,7817 6285,7817 6276,7817 6276,7783 6290,7783 6304,7783 6304,7774 6283,7774 6264,7777 6264,7793 6264,7812 6264,7828 6264,7845 6264,7866 6285,7866 6307,7866 6307,7857 " />
      <polygon
         transform="matrix(7.595965e-2,0,0,7.595965e-2,-410.71542,-404.65184)"
         style="fill:#1f1a17;stroke:none"
         id="polygon3714"
         points="6344,7797 6344,7783 6344,7777 6333,7777 6333,7786 6333,7795 6333,7803 6333,7821 6333,7836 6335,7845 6339,7852 6347,7862 6356,7866 6364,7866 6370,7868 6380,7866 6387,7864 6394,7859 6401,7854 6406,7845 6409,7833 6411,7819 6411,7803 6411,7795 6411,7783 6411,7774 6398,7774 6398,7783 6398,7795 6398,7800 6398,7814 6398,7826 6396,7838 6394,7845 6389,7850 6384,7854 6380,7857 6370,7857 6366,7857 6359,7854 6354,7852 6349,7845 6347,7838 6344,7831 6344,7819 6344,7807 6344,7797 " />
      <polygon
         transform="matrix(7.595965e-2,0,0,7.595965e-2,-410.71542,-404.65184)"
         style="fill:#1f1a17;stroke:none"
         id="polygon3716"
         points="6455,7786 6470,7786 6477,7791 6482,7795 6484,7800 6482,7807 6477,7814 6470,7819 6463,7823 6482,7848 6498,7868 6508,7859 6494,7843 6477,7823 6484,7819 6491,7812 6494,7805 6496,7797 6494,7791 6489,7783 6479,7781 6470,7777 6453,7777 6441,7777 6444,7793 6444,7809 6444,7819 6444,7843 6444,7866 6455,7866 6455,7848 6455,7826 6455,7786 " />
      <path
         style="fill:#1f1a17;stroke:none"
         id="path3718"
         d="M 87.883725,192.31505 L 87.352008,192.16313 L 86.82029,191.93525 L 86.440492,191.78333 L 86.136653,191.47949 L 85.756855,191.09969 L 85.604936,190.71989 L 85.604936,190.18818 L 85.377057,189.5805 L 85.604936,189.12474 L 85.604936,188.36514 L 85.984734,188.0613 L 86.288573,187.45363 L 86.668371,187.14979 L 87.048169,186.76999 L 87.503927,186.54211 L 88.263524,186.54211 L 88.795241,186.54211 L 89.175039,186.76999 L 89.554838,186.92191 L 89.858676,187.30171 L 90.238474,187.60555 L 90.466353,188.0613 L 90.618273,188.51706 L 90.618273,189.27666 L 90.618273,189.80838 L 90.466353,190.56797 L 90.238474,191.09969 L 89.858676,191.47949 L 89.402918,191.78333 L 89.02312,191.93525 L 88.415443,192.16313 L 87.883725,192.31505 z M 87.883725,192.99868 L 88.795241,192.84676 L 89.554838,192.54292 L 90.238474,192.16313 L 90.770192,191.63141 L 91.14999,191.09969 L 91.30191,190.34009 L 91.529789,189.80838 L 91.681708,189.12474 L 91.529789,188.36514 L 91.30191,187.83343 L 91.14999,187.30171 L 90.618273,186.76999 L 90.238474,186.39019 L 89.706757,186.08635 L 89.02312,185.85848 L 88.415443,185.85848 L 87.503927,185.85848 L 86.82029,186.23827 L 86.136653,186.54211 L 85.604936,186.92191 L 85.225138,187.60555 L 84.845339,188.21322 L 84.69342,188.89686 L 84.465541,189.80838 L 84.69342,190.34009 L 84.69342,191.09969 L 85.073218,191.63141 L 85.377057,191.93525 L 85.984734,192.31505 L 86.440492,192.69484 L 87.048169,192.84676 L 87.883725,192.99868 z " />
      <path
         id="path3720"
         d="M 64.032393,195.0496 L 167.03368,195.0496 L 167.03368,201.50617 L 64.032393,201.50617 L 64.032393,195.0496 z "
         style="fill:#c2c1c1;stroke:none;filter:url(#filter3519)" />
      <path
         id="path3722"
         d="M 50.663494,152.43623 L 78.768565,152.43623 L 78.768565,168.38776 L 50.663494,168.38776 L 50.663494,152.43623 z "
         style="fill:#28166f;stroke:none;filter:url(#filter3591)" />
    </g>
  </g>
  <g
     inkscape:groupmode="layer"
     id="layer9"
     inkscape:label="propiedad_mas"
     sodipodi:insensitive="true"
     style="display:none">
    <g
       id="g2341"
       style="display:inline"
       transform="matrix(0.806338,0,0,0.806338,-5.091682,2.3862628)">
      <path
         id="path2343"
         d="" />
      <g
         id="g2345"
         style="display:block">
        <g
           id="g6097"
           style="display:block"
           transform="matrix(0.925862,0,0,0.925862,493.5668,41.86428)">
          <path
             id="path3603"
             style="fill:#ffffff;fill-opacity:1;fill-rule:evenodd;stroke:#006900;stroke-width:8.1005621;stroke-miterlimit:4;stroke-opacity:1"
             d="M -191.51536,25.067211 C -191.51536,61.628081 -221.18795,91.300681 -257.74882,91.300681 C -294.3097,91.300681 -323.98229,61.628081 -323.98229,25.067211 C -323.98229,-11.493665 -294.3097,-41.166259 -257.74882,-41.166259 C -221.18795,-41.166259 -191.51536,-11.493665 -191.51536,25.067211 z " />
          <path
             id="polygon1906"
             style="fill:#326400;stroke:none"
             d="M -302.55576,11.965876 L -270.99594,11.965876 L -270.99594,-19.849048 L -244.50173,-19.849048 L -244.50173,11.965876 L -212.9419,11.965876 L -212.9419,38.423643 L -244.50173,38.423643 L -244.50173,69.98347 L -270.99594,69.98347 L -270.99594,38.423643 L -302.55576,38.423643 L -302.55576,11.965876 z " />
        </g>
      </g>
    </g>
  </g>
  <g
     inkscape:groupmode="layer"
     id="layer10"
     inkscape:label="propiedad_menos"
     sodipodi:insensitive="true"
     style="display:none">
    <g
       id="g2734"
       style="opacity:1;display:inline"
       transform="matrix(0.806338,0,0,0.806338,-150.02292,-5.0916723)">
      <path
         id="path2736"
         d="" />
      <g
         id="g2738"
         style="display:block">
        <g
           id="g6091"
           style="display:block"
           transform="matrix(0.925862,0,0,0.925862,565.8858,84.55078)">
          <path
             id="path4848"
             style="fill:#ffffff;fill-opacity:1;fill-rule:evenodd;stroke:#cd0000;stroke-width:8.1005621;stroke-miterlimit:4;stroke-opacity:1"
             d="M -269.62525,184.01896 C -269.62525,220.57983 -299.29784,250.25243 -335.85871,250.25243 C -372.41959,250.25243 -402.09218,220.57983 -402.09218,184.01896 C -402.09218,147.45809 -372.41959,117.78549 -335.85871,117.78549 C -299.29784,117.78549 -269.62525,147.45809 -269.62525,184.01896 z " />
          <path
             id="polygon2119"
             style="fill:#da251d;stroke:none"
             d="M -381.13765,170.52182 L -290.57977,170.52182 L -290.57977,197.51609 L -381.13765,197.51609 L -381.13765,170.52182 z " />
        </g>
      </g>
    </g>
  </g>
  <g
     inkscape:groupmode="layer"
     id="layer11"
     inkscape:label="propiedad_listado"
     sodipodi:insensitive="true"
     style="display:none">
    <g
       id="g2141"
       style="opacity:1;display:inline"
       transform="matrix(0.806338,0,0,0.806338,150.02651,114.9432)">
      <path
         id="path2143"
         d="" />
      <g
         id="layer6"
         style="display:block">
        <g
           id="g6094"
           style="display:block"
           transform="matrix(0.925862,0,0,0.925862,143.7747,118.5623)">
          <path
             id="path4847"
             style="fill:#ffffff;fill-opacity:1;fill-rule:evenodd;stroke:#0000cd;stroke-width:8.1005621;stroke-miterlimit:4;stroke-opacity:1"
             d="M -151.23716,-57.772351 C -151.23716,-21.211475 -151.23716,-49.333221 -151.23716,-12.772347 C -151.23716,23.788523 -121.56457,53.461123 -85.00369,53.461123 C -48.44282,53.461123 -18.77023,23.788523 -18.77023,-12.772347 C -18.77023,-49.333221 -18.77023,-21.211475 -18.77023,-57.772351 C -18.77023,-94.333227 -48.44282,-124.00582 -85.00369,-124.00582 C -121.56457,-124.00582 -151.23716,-94.333227 -151.23716,-57.772351 z " />
          <path
             id="polyline1684"
             style="fill:#0000cd;fill-opacity:1;stroke:none"
             d="M -129.21657,-89.000316 L -129.21657,-73.024359 L -40.79082,-73.024359 L -40.79082,-89.000316 L -129.21657,-89.000316 z M -129.21657,-58.51678 L -129.21657,-42.526137 L -40.79082,-42.526137 L -40.79082,-58.51678 L -129.21657,-58.51678 z M -129.21657,-28.018558 L -129.21657,-12.027911 L -40.79082,-12.027911 L -40.79082,-28.018558 L -129.21657,-28.018558 z M -129.21657,2.4796691 L -129.21657,18.455619 L -40.79082,18.455619 L -40.79082,2.4796691 L -129.21657,2.4796691 z " />
        </g>
      </g>
    </g>
  </g>
</svg>
