<?xml version="1.0" encoding="UTF-8" standalone="no"?>
<!-- Created with Inkscape (http://www.inkscape.org/) -->
<svg
   xmlns:dc="http://purl.org/dc/elements/1.1/"
   xmlns:cc="http://web.resource.org/cc/"
   xmlns:rdf="http://www.w3.org/1999/02/22-rdf-syntax-ns#"
   xmlns:svg="http://www.w3.org/2000/svg"
   xmlns="http://www.w3.org/2000/svg"
   xmlns:xlink="http://www.w3.org/1999/xlink"
   xmlns:sodipodi="http://inkscape.sourceforge.net/DTD/sodipodi-0.dtd"
   xmlns:inkscape="http://www.inkscape.org/namespaces/inkscape"
   width="320.00000"
   height="320.00000"
   id="svg1"
   sodipodi:version="0.32"
   inkscape:version="0.42"
   sodipodi:docbase="/home/raul/docs/iglues/v0.4/svg"
   sodipodi:docname="i_bulmages_pagos_listado.svg"
   version="1.0"
   x="0.0000000"
   y="0.0000000"
   inkscape:export-filename="/home/raul/arxius/iglues/nous dissenys/png/i_bulmages_pagos_listado.png"
   inkscape:export-xdpi="96.000000"
   inkscape:export-ydpi="96.000000">
  <defs
     id="defs3">
    <linearGradient
       inkscape:collect="always"
       id="linearGradient9952">
      <stop
         style="stop-color:#0000ff;stop-opacity:1;"
         offset="0"
         id="stop9953" />
      <stop
         style="stop-color:#0000ff;stop-opacity:0;"
         offset="1"
         id="stop9954" />
    </linearGradient>
    <linearGradient
       inkscape:collect="always"
       xlink:href="#linearGradient9952"
       id="linearGradient2369"
       gradientUnits="userSpaceOnUse"
       gradientTransform="matrix(0.664395,0.684716,-0.684716,0.664395,124.5953,290.1885)"
       x1="-181.00027"
       y1="65.430992"
       x2="-149.55615"
       y2="65.430992" />
    <linearGradient
       inkscape:collect="always"
       xlink:href="#linearGradient9952"
       id="linearGradient2370"
       gradientUnits="userSpaceOnUse"
       gradientTransform="matrix(0.924683,0.234989,-0.234989,0.924683,142.2812,191.7570)"
       x1="-181.00027"
       y1="65.430992"
       x2="-149.55615"
       y2="65.430992" />
    <linearGradient
       inkscape:collect="always"
       xlink:href="#linearGradient9952"
       id="linearGradient2371"
       gradientUnits="userSpaceOnUse"
       gradientTransform="matrix(0.231054,0.925674,0.925674,-0.231054,-59.19725,392.3917)"
       x1="-181.00027"
       y1="65.430992"
       x2="-149.55615"
       y2="65.430992" />
    <linearGradient
       inkscape:collect="always"
       xlink:href="#linearGradient9952"
       id="linearGradient2372"
       gradientUnits="userSpaceOnUse"
       gradientTransform="matrix(0.954074,-8.217683e-33,0.000000,7.242089,462.6874,-305.0642)"
       x1="-181.00027"
       y1="65.430992"
       x2="-149.55615"
       y2="65.430992" />
    <linearGradient
       inkscape:collect="always"
       xlink:href="#linearGradient9952"
       id="linearGradient3003"
       gradientUnits="userSpaceOnUse"
       gradientTransform="matrix(0.664395,0.684716,-0.684716,0.664395,124.5953,290.1885)"
       x1="-181.00027"
       y1="65.430992"
       x2="-149.55615"
       y2="65.430992" />
    <linearGradient
       inkscape:collect="always"
       xlink:href="#linearGradient9952"
       id="linearGradient3004"
       gradientUnits="userSpaceOnUse"
       gradientTransform="matrix(0.924683,0.234989,-0.234989,0.924683,142.2812,191.7570)"
       x1="-181.00027"
       y1="65.430992"
       x2="-149.55615"
       y2="65.430992" />
    <linearGradient
       inkscape:collect="always"
       xlink:href="#linearGradient9952"
       id="linearGradient3005"
       gradientUnits="userSpaceOnUse"
       gradientTransform="matrix(0.231054,0.925674,0.925674,-0.231054,-59.19725,392.3917)"
       x1="-181.00027"
       y1="65.430992"
       x2="-149.55615"
       y2="65.430992" />
    <linearGradient
       inkscape:collect="always"
       xlink:href="#linearGradient9952"
       id="linearGradient3022"
       gradientUnits="userSpaceOnUse"
       gradientTransform="matrix(-0.954074,8.217683e-33,0.000000,-7.242089,-142.6873,625.0184)"
       x1="-181.00027"
       y1="65.430992"
       x2="-149.55615"
       y2="65.430992" />
    <linearGradient
       inkscape:collect="always"
       xlink:href="#linearGradient9952"
       id="linearGradient3024"
       gradientUnits="userSpaceOnUse"
       gradientTransform="matrix(-8.217683e-33,-0.954074,7.242089,0.000000,-305.0412,-142.6872)"
       x1="-181.00027"
       y1="65.430992"
       x2="-149.55615"
       y2="65.430992" />
    <linearGradient
       inkscape:collect="always"
       xlink:href="#linearGradient9952"
       id="linearGradient3048"
       gradientUnits="userSpaceOnUse"
       gradientTransform="matrix(0.664395,0.684716,-0.684716,0.664395,124.5953,290.1885)"
       x1="-181.00027"
       y1="65.430992"
       x2="-149.55615"
       y2="65.430992" />
    <linearGradient
       inkscape:collect="always"
       xlink:href="#linearGradient9952"
       id="linearGradient3049"
       gradientUnits="userSpaceOnUse"
       gradientTransform="matrix(0.924683,0.234989,-0.234989,0.924683,142.2812,191.7570)"
       x1="-181.00027"
       y1="65.430992"
       x2="-149.55615"
       y2="65.430992" />
    <linearGradient
       inkscape:collect="always"
       xlink:href="#linearGradient9952"
       id="linearGradient3050"
       gradientUnits="userSpaceOnUse"
       gradientTransform="matrix(0.231054,0.925674,0.925674,-0.231054,-59.19725,392.3917)"
       x1="-181.00027"
       y1="65.430992"
       x2="-149.55615"
       y2="65.430992" />
    <linearGradient
       inkscape:collect="always"
       xlink:href="#linearGradient9952"
       id="linearGradient3051"
       gradientUnits="userSpaceOnUse"
       gradientTransform="matrix(0.664395,0.684716,-0.684716,0.664395,124.5953,290.1885)"
       x1="-181.00027"
       y1="65.430992"
       x2="-149.55615"
       y2="65.430992" />
    <linearGradient
       inkscape:collect="always"
       xlink:href="#linearGradient9952"
       id="linearGradient3052"
       gradientUnits="userSpaceOnUse"
       gradientTransform="matrix(0.924683,0.234989,-0.234989,0.924683,142.2812,191.7570)"
       x1="-181.00027"
       y1="65.430992"
       x2="-149.55615"
       y2="65.430992" />
    <linearGradient
       inkscape:collect="always"
       xlink:href="#linearGradient9952"
       id="linearGradient3053"
       gradientUnits="userSpaceOnUse"
       gradientTransform="matrix(0.231054,0.925674,0.925674,-0.231054,-59.19725,392.3917)"
       x1="-181.00027"
       y1="65.430992"
       x2="-149.55615"
       y2="65.430992" />
    <linearGradient
       inkscape:collect="always"
       xlink:href="#linearGradient9952"
       id="linearGradient3055"
       gradientUnits="userSpaceOnUse"
       gradientTransform="matrix(8.217683e-33,0.954074,-7.242089,0.000000,625.0412,462.6871)"
       x1="-181.00027"
       y1="65.430992"
       x2="-149.55615"
       y2="65.430992" />
  </defs>
  <sodipodi:namedview
     id="base"
     pagecolor="#ffffff"
     bordercolor="#666666"
     borderopacity="1.0"
     inkscape:pageopacity="0.0"
     inkscape:pageshadow="2"
     inkscape:zoom="2.1102718"
     inkscape:cx="126.13533"
     inkscape:cy="120.33255"
     inkscape:current-layer="g1271"
     gridspacingy="10.000000pt"
     gridspacingx="10.000000pt"
     gridoriginy="0.0000000pt"
     gridoriginx="0.0000000pt"
     inkscape:window-width="1273"
     inkscape:window-height="944"
     inkscape:window-x="0"
     inkscape:window-y="0"
     showguides="true"
     inkscape:guide-bbox="true" />
  <metadata
     id="metadata4">
    <rdf:RDF>
      <cc:Work
         rdf:about="">
        <dc:format>image/svg+xml</dc:format>
        <dc:type
           rdf:resource="http://purl.org/dc/dcmitype/StillImage" />
        <cc:license
           rdf:resource="http://creativecommons.org/licenses/GPL/2.0/" />
        <dc:title>pagos listado</dc:title>
        <dc:date>1 d'agost de 2005</dc:date>
        <dc:creator>
          <cc:Agent>
            <dc:title>Raül Martínez i Peris</dc:title>
          </cc:Agent>
        </dc:creator>
        <dc:language>es-ES</dc:language>
        <dc:rights>
          <cc:Agent>
            <dc:title>Raül Martínez i Peris</dc:title>
          </cc:Agent>
        </dc:rights>
        <dc:publisher>
          <cc:Agent>
            <dc:title>Raül Martínez i Peris</dc:title>
          </cc:Agent>
        </dc:publisher>
        <dc:subject>
          <rdf:Bag>
            <rdf:li>iconos</rdf:li>
          </rdf:Bag>
        </dc:subject>
      </cc:Work>
      <cc:License
         rdf:about="http://creativecommons.org/licenses/GPL/2.0/">
        <cc:permits
           rdf:resource="http://web.resource.org/cc/Reproduction" />
        <cc:permits
           rdf:resource="http://web.resource.org/cc/Distribution" />
        <cc:requires
           rdf:resource="http://web.resource.org/cc/Notice" />
        <cc:permits
           rdf:resource="http://web.resource.org/cc/DerivativeWorks" />
        <cc:requires
           rdf:resource="http://web.resource.org/cc/ShareAlike" />
        <cc:requires
           rdf:resource="http://web.resource.org/cc/SourceCode" />
      </cc:License>
    </rdf:RDF>
  </metadata>
  <g
     inkscape:label="Base"
     inkscape:groupmode="layer"
     id="layer1"
     style="display:block"
     sodipodi:insensitive="1">
    <rect
       style="fill:#ffffff;fill-opacity:1.0000000;fill-rule:evenodd;stroke:none;stroke-width:8.9802618;stroke-miterlimit:4.0000000;stroke-opacity:1.0000000"
       id="rect2373"
       width="320.00000"
       height="320.00000"
       x="0.0000000"
       y="0.0000000"
       rx="0.0000000"
       ry="0.0000000" />
  </g>
  <g
     inkscape:groupmode="layer"
     id="layer5"
     inkscape:label="Boto"
     style="display:block"
     sodipodi:insensitive="1">
    <path
       style="fill:url(#linearGradient2372);fill-opacity:1.0000000;fill-rule:evenodd;stroke:none;stroke-width:8.9802618;stroke-miterlimit:4.0000000;stroke-opacity:1.0000000;display:block"
       d="M 289.14954,30.846585 L 320.00000,30.923900 L 320.00000,289.10762 L 289.18429,289.05590 L 289.14954,30.846585 z "
       id="rect10002"
       sodipodi:nodetypes="ccccc" />
    <g
       id="g2064"
       transform="translate(329.5388,79.35008)"
       style="display:block">
      <path
         style="fill:url(#linearGradient2369);fill-opacity:1.0000000;fill-rule:evenodd;stroke:none;stroke-width:8.9802618;stroke-miterlimit:4.0000000;stroke-opacity:1.0000000"
         d="M -13.666605,224.15727 L -19.570525,231.25693 L -25.891519,237.00110 L -40.461822,209.72663 L -13.666605,224.15727 z "
         id="path2053"
         sodipodi:nodetypes="ccccc" />
      <path
         style="fill:url(#linearGradient2370);fill-opacity:1.0000000;fill-rule:evenodd;stroke:none;stroke-width:8.9802618;stroke-miterlimit:4.0000000;stroke-opacity:1.0000000"
         d="M -9.5387644,209.84671 L -11.386019,217.11565 L -13.233279,224.38461 L -40.461822,209.72663 L -9.5387644,209.84671 z "
         id="path2060"
         sodipodi:nodetypes="ccccc" />
      <path
         style="fill:url(#linearGradient2371);fill-opacity:1.0000000;fill-rule:evenodd;stroke:none;stroke-width:8.9802618;stroke-miterlimit:4.0000000;stroke-opacity:1.0000000"
         d="M -40.461822,240.64992 L -33.185084,238.83361 L -25.908336,237.01728 L -40.450347,209.72663 L -40.461822,240.64992 z "
         id="path2062"
         sodipodi:nodetypes="ccccc" />
    </g>
    <g
       id="g2999"
       transform="matrix(0.000000,1.000000,-1.000000,0.000000,240.6499,329.5388)"
       style="display:block">
      <path
         style="fill:url(#linearGradient3003);fill-opacity:1.0000000;fill-rule:evenodd;stroke:none;stroke-width:8.9802618;stroke-miterlimit:4.0000000;stroke-opacity:1.0000000"
         d="M -13.666605,224.15727 L -19.570525,231.25693 L -25.891519,237.00110 L -40.461822,209.72663 L -13.666605,224.15727 z "
         id="path3000"
         sodipodi:nodetypes="ccccc" />
      <path
         style="fill:url(#linearGradient3004);fill-opacity:1.0000000;fill-rule:evenodd;stroke:none;stroke-width:8.9802618;stroke-miterlimit:4.0000000;stroke-opacity:1.0000000"
         d="M -9.5387644,209.84671 L -11.386019,217.11565 L -13.233279,224.38461 L -40.461822,209.72663 L -9.5387644,209.84671 z "
         id="path3001"
         sodipodi:nodetypes="ccccc" />
      <path
         style="fill:url(#linearGradient3005);fill-opacity:1.0000000;fill-rule:evenodd;stroke:none;stroke-width:8.9802618;stroke-miterlimit:4.0000000;stroke-opacity:1.0000000"
         d="M -40.461822,240.64992 L -33.185084,238.83361 L -25.908336,237.01728 L -40.450347,209.72663 L -40.461822,240.64992 z "
         id="path3002"
         sodipodi:nodetypes="ccccc" />
    </g>
    <g
       id="g3006"
       transform="matrix(0.000000,-1.000000,1.000000,0.000000,79.35008,-9.538764)"
       style="display:block">
      <path
         style="fill:url(#linearGradient3051);fill-opacity:1.0000000;fill-rule:evenodd;stroke:none;stroke-width:8.9802618;stroke-miterlimit:4.0000000;stroke-opacity:1.0000000"
         d="M -13.666605,224.15727 L -19.570525,231.25693 L -25.891519,237.00110 L -40.461822,209.72663 L -13.666605,224.15727 z "
         id="path3007"
         sodipodi:nodetypes="ccccc" />
      <path
         style="fill:url(#linearGradient3052);fill-opacity:1.0000000;fill-rule:evenodd;stroke:none;stroke-width:8.9802618;stroke-miterlimit:4.0000000;stroke-opacity:1.0000000"
         d="M -9.5387644,209.84671 L -11.386019,217.11565 L -13.233279,224.38461 L -40.461822,209.72663 L -9.5387644,209.84671 z "
         id="path3008"
         sodipodi:nodetypes="ccccc" />
      <path
         style="fill:url(#linearGradient3053);fill-opacity:1.0000000;fill-rule:evenodd;stroke:none;stroke-width:8.9802618;stroke-miterlimit:4.0000000;stroke-opacity:1.0000000"
         d="M -40.461822,240.64992 L -33.185084,238.83361 L -25.908336,237.01728 L -40.450347,209.72663 L -40.461822,240.64992 z "
         id="path3009"
         sodipodi:nodetypes="ccccc" />
    </g>
    <g
       id="g3010"
       transform="matrix(-1.000000,0.000000,0.000000,-1.000000,-9.538764,240.6500)"
       style="display:block">
      <path
         style="fill:url(#linearGradient3048);fill-opacity:1.0000000;fill-rule:evenodd;stroke:none;stroke-width:8.9802618;stroke-miterlimit:4.0000000;stroke-opacity:1.0000000"
         d="M -13.666605,224.15727 L -19.570525,231.25693 L -25.891519,237.00110 L -40.461822,209.72663 L -13.666605,224.15727 z "
         id="path3011"
         sodipodi:nodetypes="ccccc" />
      <path
         style="fill:url(#linearGradient3049);fill-opacity:1.0000000;fill-rule:evenodd;stroke:none;stroke-width:8.9802618;stroke-miterlimit:4.0000000;stroke-opacity:1.0000000"
         d="M -9.5387644,209.84671 L -11.386019,217.11565 L -13.233279,224.38461 L -40.461822,209.72663 L -9.5387644,209.84671 z "
         id="path3012"
         sodipodi:nodetypes="ccccc" />
      <path
         style="fill:url(#linearGradient3050);fill-opacity:1.0000000;fill-rule:evenodd;stroke:none;stroke-width:8.9802618;stroke-miterlimit:4.0000000;stroke-opacity:1.0000000"
         d="M -40.461822,240.64992 L -33.185084,238.83361 L -25.908336,237.01728 L -40.450347,209.72663 L -40.461822,240.64992 z "
         id="path3013"
         sodipodi:nodetypes="ccccc" />
    </g>
    <path
       style="fill:url(#linearGradient3022);fill-opacity:1.0000000;fill-rule:evenodd;stroke:none;stroke-width:8.9802618;stroke-miterlimit:4.0000000;stroke-opacity:1.0000000;display:block"
       d="M 30.850460,289.10762 L 1.1102230e-16,289.03030 L 1.1102230e-16,30.846580 L 30.815710,30.898300 L 30.850460,289.10762 z "
       id="path3021"
       sodipodi:nodetypes="ccccc" />
    <path
       style="fill:url(#linearGradient3024);fill-opacity:1.0000000;fill-rule:evenodd;stroke:none;stroke-width:8.9802618;stroke-miterlimit:4.0000000;stroke-opacity:1.0000000;display:block"
       d="M 30.869480,30.850460 L 30.946800,-5.6843419e-14 L 289.13052,-5.6843419e-14 L 289.07880,30.815710 L 30.869480,30.850460 z "
       id="path3023"
       sodipodi:nodetypes="ccccc" />
    <path
       style="fill:url(#linearGradient3055);fill-opacity:1.0000000;fill-rule:evenodd;stroke:none;stroke-width:8.9802618;stroke-miterlimit:4.0000000;stroke-opacity:1.0000000;display:block"
       d="M 289.13052,289.14954 L 289.05320,320.00000 L 30.869480,320.00000 L 30.921200,289.18429 L 289.13052,289.14954 z "
       id="path3054"
       sodipodi:nodetypes="ccccc" />
    <rect
       style="fill:#0000ff;fill-opacity:0.78431374;fill-rule:evenodd;stroke:none;stroke-width:15.000000;stroke-miterlimit:4.0000000;stroke-opacity:1.0000000"
       id="rect3057"
       width="265.03928"
       height="265.03928"
       x="27.480362"
       y="27.480362" />
    <rect
       style="fill:#ffffff;fill-opacity:0.85537916;fill-rule:evenodd;stroke:none;stroke-width:8.9802618;stroke-miterlimit:4.0000000;stroke-opacity:1.0000000;display:block"
       id="rect5542"
       width="320.00000"
       height="320.00000"
       x="0.0000000"
       y="-1.4210855e-14"
       rx="0.0000000"
       ry="0.0000000" />
    <path
       id="rect6786"
       style="opacity:0.39999983;fill:#0000ff;fill-opacity:1.0000000;fill-rule:evenodd;stroke:none;stroke-width:15.000000;stroke-miterlimit:4.0000000;stroke-opacity:1.0000000"
       d="M 25.000001,25.000000 L 295.00000,25.000000 L 295.00000,295.00000 L 25.000001,295.00000 L 25.000001,25.000000 z M 40.576924,40.576923 L 279.42307,40.576923 L 279.42307,279.42307 L 40.576924,279.42307 L 40.576924,40.576923 z " />
    <g
       id="g1117"
       style="display:block"
       transform="translate(-0.468947,-0.530336)">
      <path
         style="fill:#ffffff;fill-opacity:1.0000000;fill-rule:evenodd;stroke:none;stroke-width:15.000000;stroke-miterlimit:4.0000000;stroke-opacity:1.0000000"
         d="M 55.447085,279.42244 L 39.870165,279.40523 L 39.870165,40.016405 L 279.48124,40.016405 L 279.48407,55.593328 L 55.447085,55.593328 L 55.447085,279.42244 z "
         id="path1115"
         sodipodi:nodetypes="ccccccc" />
      <path
         style="fill:#000000;fill-opacity:1.0000000;fill-rule:evenodd;stroke:none;stroke-width:15.000000;stroke-miterlimit:4.0000000;stroke-opacity:1.0000000"
         d="M 25.278887,304.26430 L 25.302367,295.21564 L 294.76719,295.21564 L 294.76719,25.329996 L 303.81585,25.225167 L 303.81585,304.26430 L 25.278887,304.26430 z "
         id="path1119"
         sodipodi:nodetypes="ccccccc" />
    </g>
  </g>
  <path
     d=""
     id="path3081" />
  <g
     id="g1271"
     inkscape:groupmode="layer"
     inkscape:label="Dibuix"
     transform="translate(184.5158,-340.6444)"
     style="display:block">
    <g
       id="g1252"
       transform="translate(-184.5158,340.6444)">
      <g
         id="g1146"
         transform="matrix(1.220180,0.000000,0.000000,1.220180,190.6178,-454.1289)"
         style="display:block">
        <g
           id="g10643"
           transform="translate(-278.4767,221.2485)">
          <path
             style="fill:#ffffff;fill-opacity:1.0000000;stroke:none"
             d="M 345.31813,334.05203 C 344.96735,341.07167 347.95737,349.43201 342.56519,355.23066 C 335.13499,364.81150 323.09631,368.78565 312.02356,372.45319 C 284.80827,380.61993 255.90096,381.48586 227.78881,378.67919 C 214.43921,376.91177 201.06285,374.20008 188.53170,369.17951 C 180.35640,365.60994 171.47716,361.18274 167.24849,352.88586 C 164.67300,346.29071 166.94804,339.16379 167.48344,332.41851 C 170.59148,323.08560 180.15534,318.22226 188.51708,314.37038 C 208.65897,306.22616 230.56433,303.21870 252.17228,302.63078 C 276.16339,302.50797 300.69490,304.45376 323.16799,313.47078 C 331.38853,316.89324 340.29072,321.53873 344.28305,329.96004 C 344.82646,331.26338 345.18010,332.64634 345.31813,334.05203 z "
             id="path10630" />
          <path
             style="fill:#000000;fill-opacity:1.0000000;stroke:none"
             d="M 9502.1602,1168.3706 C 9504.4209,1427.9286 9585.3704,1735.6037 9386.7114,1947.0412 C 8953.4849,2392.7652 8323.2091,2542.8571 7735.2236,2662.9163 C 6587.6238,2866.4690 5387.8905,2834.7696 4267.3758,2501.9672 C 3897.2862,2380.3135 3504.8170,2213.6055 3273.9157,1884.7252 C 3152.0512,1641.4471 3207.1137,1353.8691 3263.2973,1100.2848 C 3347.0979,808.98951 3634.1456,660.24038 3881.4611,526.12156 C 4379.6538,289.78709 4930.0831,190.30971 5472.8297,117.82105 C 6513.8747,-3.6726570 7588.0757,62.912230 8587.6196,389.82573 C 8920.6273,509.66552 9272.3848,679.39523 9457.7450,995.74029 C 9483.0348,1049.8472 9499.3815,1108.5512 9502.1602,1168.3706 z "
             id="path10632"
             transform="matrix(2.744246e-2,0.000000,0.000000,2.744246e-2,81.98045,299.7715)" />
          <path
             style="fill:#ffffff;fill-opacity:1.0000000;stroke:none"
             d="M 256.90307,302.50891 C 277.40077,302.34525 298.19612,304.88284 317.48852,312.04467 C 324.89389,315.11782 332.66227,319.11202 336.97058,326.16517 C 339.56257,331.14496 338.17786,337.25341 334.31737,341.15029 C 329.49075,346.65802 322.55382,349.68402 316.03288,352.67324 C 296.94651,359.73150 276.42960,362.07731 256.17957,362.27707 C 235.67471,362.23893 214.84895,359.93866 195.63732,352.42653 C 188.37392,349.39876 180.75972,345.46883 176.58597,338.50548 C 173.84605,333.89657 174.88507,327.94040 178.58594,324.17100 C 184.94559,316.91854 194.20529,313.24738 203.07761,310.08587 C 220.50211,304.74929 238.72806,302.69716 256.90307,302.50891 z "
             id="path10633" />
        </g>
        <g
           id="g10647"
           transform="translate(-260.5929,204.8975)">
          <path
             style="fill:#ffffff;fill-opacity:1.0000000;stroke:none"
             d="M 345.31813,334.05203 C 344.96735,341.07167 347.95737,349.43201 342.56519,355.23066 C 335.13499,364.81150 323.09631,368.78565 312.02356,372.45319 C 284.80827,380.61993 255.90096,381.48586 227.78881,378.67919 C 214.43921,376.91177 201.06285,374.20008 188.53170,369.17951 C 180.35640,365.60994 171.47716,361.18274 167.24849,352.88586 C 164.67300,346.29071 166.94804,339.16379 167.48344,332.41851 C 170.59148,323.08560 180.15534,318.22226 188.51708,314.37038 C 208.65897,306.22616 230.56433,303.21870 252.17228,302.63078 C 276.16339,302.50797 300.69490,304.45376 323.16799,313.47078 C 331.38853,316.89324 340.29072,321.53873 344.28305,329.96004 C 344.82646,331.26338 345.18010,332.64634 345.31813,334.05203 z "
             id="path10648" />
          <path
             style="fill:#000000;fill-opacity:1.0000000;stroke:none"
             d="M 9502.1602,1168.3706 C 9504.4209,1427.9286 9585.3704,1735.6037 9386.7114,1947.0412 C 8953.4849,2392.7652 8323.2091,2542.8571 7735.2236,2662.9163 C 6587.6238,2866.4690 5387.8905,2834.7696 4267.3758,2501.9672 C 3897.2862,2380.3135 3504.8170,2213.6055 3273.9157,1884.7252 C 3152.0512,1641.4471 3207.1137,1353.8691 3263.2973,1100.2848 C 3347.0979,808.98951 3634.1456,660.24038 3881.4611,526.12156 C 4379.6538,289.78709 4930.0831,190.30971 5472.8297,117.82105 C 6513.8747,-3.6726570 7588.0757,62.912230 8587.6196,389.82573 C 8920.6273,509.66552 9272.3848,679.39523 9457.7450,995.74029 C 9483.0348,1049.8472 9499.3815,1108.5512 9502.1602,1168.3706 z "
             id="path10649"
             transform="matrix(2.744246e-2,0.000000,0.000000,2.744246e-2,81.98045,299.7715)" />
          <path
             style="fill:#ffffff;fill-opacity:1.0000000;stroke:none"
             d="M 256.90307,302.50891 C 277.40077,302.34525 298.19612,304.88284 317.48852,312.04467 C 324.89389,315.11782 332.66227,319.11202 336.97058,326.16517 C 339.56257,331.14496 338.17786,337.25341 334.31737,341.15029 C 329.49075,346.65802 322.55382,349.68402 316.03288,352.67324 C 296.94651,359.73150 276.42960,362.07731 256.17957,362.27707 C 235.67471,362.23893 214.84895,359.93866 195.63732,352.42653 C 188.37392,349.39876 180.75972,345.46883 176.58597,338.50548 C 173.84605,333.89657 174.88507,327.94040 178.58594,324.17100 C 184.94559,316.91854 194.20529,313.24738 203.07761,310.08587 C 220.50211,304.74929 238.72806,302.69716 256.90307,302.50891 z "
             id="path10650" />
        </g>
        <g
           id="g10651"
           transform="translate(-282.0535,188.5466)">
          <path
             style="fill:#ffffff;fill-opacity:1.0000000;stroke:none"
             d="M 345.31813,334.05203 C 344.96735,341.07167 347.95737,349.43201 342.56519,355.23066 C 335.13499,364.81150 323.09631,368.78565 312.02356,372.45319 C 284.80827,380.61993 255.90096,381.48586 227.78881,378.67919 C 214.43921,376.91177 201.06285,374.20008 188.53170,369.17951 C 180.35640,365.60994 171.47716,361.18274 167.24849,352.88586 C 164.67300,346.29071 166.94804,339.16379 167.48344,332.41851 C 170.59148,323.08560 180.15534,318.22226 188.51708,314.37038 C 208.65897,306.22616 230.56433,303.21870 252.17228,302.63078 C 276.16339,302.50797 300.69490,304.45376 323.16799,313.47078 C 331.38853,316.89324 340.29072,321.53873 344.28305,329.96004 C 344.82646,331.26338 345.18010,332.64634 345.31813,334.05203 z "
             id="path10652" />
          <path
             style="fill:#000000;fill-opacity:1.0000000;stroke:none"
             d="M 9502.1602,1168.3706 C 9504.4209,1427.9286 9585.3704,1735.6037 9386.7114,1947.0412 C 8953.4849,2392.7652 8323.2091,2542.8571 7735.2236,2662.9163 C 6587.6238,2866.4690 5387.8905,2834.7696 4267.3758,2501.9672 C 3897.2862,2380.3135 3504.8170,2213.6055 3273.9157,1884.7252 C 3152.0512,1641.4471 3207.1137,1353.8691 3263.2973,1100.2848 C 3347.0979,808.98951 3634.1456,660.24038 3881.4611,526.12156 C 4379.6538,289.78709 4930.0831,190.30971 5472.8297,117.82105 C 6513.8747,-3.6726570 7588.0757,62.912230 8587.6196,389.82573 C 8920.6273,509.66552 9272.3848,679.39523 9457.7450,995.74029 C 9483.0348,1049.8472 9499.3815,1108.5512 9502.1602,1168.3706 z "
             id="path10653"
             transform="matrix(2.744246e-2,0.000000,0.000000,2.744246e-2,81.98045,299.7715)" />
          <path
             style="fill:#ffffff;fill-opacity:1.0000000;stroke:none"
             d="M 256.90307,302.50891 C 277.40077,302.34525 298.19612,304.88284 317.48852,312.04467 C 324.89389,315.11782 332.66227,319.11202 336.97058,326.16517 C 339.56257,331.14496 338.17786,337.25341 334.31737,341.15029 C 329.49075,346.65802 322.55382,349.68402 316.03288,352.67324 C 296.94651,359.73150 276.42960,362.07731 256.17957,362.27707 C 235.67471,362.23893 214.84895,359.93866 195.63732,352.42653 C 188.37392,349.39876 180.75972,345.46883 176.58597,338.50548 C 173.84605,333.89657 174.88507,327.94040 178.58594,324.17100 C 184.94559,316.91854 194.20529,313.24738 203.07761,310.08587 C 220.50211,304.74929 238.72806,302.69716 256.90307,302.50891 z "
             id="path10654" />
        </g>
        <g
           id="g10655"
           transform="translate(-265.1916,167.5970)">
          <path
             style="fill:#ffffff;fill-opacity:1.0000000;stroke:none"
             d="M 345.31813,334.05203 C 344.96735,341.07167 347.95737,349.43201 342.56519,355.23066 C 335.13499,364.81150 323.09631,368.78565 312.02356,372.45319 C 284.80827,380.61993 255.90096,381.48586 227.78881,378.67919 C 214.43921,376.91177 201.06285,374.20008 188.53170,369.17951 C 180.35640,365.60994 171.47716,361.18274 167.24849,352.88586 C 164.67300,346.29071 166.94804,339.16379 167.48344,332.41851 C 170.59148,323.08560 180.15534,318.22226 188.51708,314.37038 C 208.65897,306.22616 230.56433,303.21870 252.17228,302.63078 C 276.16339,302.50797 300.69490,304.45376 323.16799,313.47078 C 331.38853,316.89324 340.29072,321.53873 344.28305,329.96004 C 344.82646,331.26338 345.18010,332.64634 345.31813,334.05203 z "
             id="path10656" />
          <path
             style="fill:#000000;fill-opacity:1.0000000;stroke:none"
             d="M 9502.1602,1168.3706 C 9504.4209,1427.9286 9585.3704,1735.6037 9386.7114,1947.0412 C 8953.4849,2392.7652 8323.2091,2542.8571 7735.2236,2662.9163 C 6587.6238,2866.4690 5387.8905,2834.7696 4267.3758,2501.9672 C 3897.2862,2380.3135 3504.8170,2213.6055 3273.9157,1884.7252 C 3152.0512,1641.4471 3207.1137,1353.8691 3263.2973,1100.2848 C 3347.0979,808.98951 3634.1456,660.24038 3881.4611,526.12156 C 4379.6538,289.78709 4930.0831,190.30971 5472.8297,117.82105 C 6513.8747,-3.6726570 7588.0757,62.912230 8587.6196,389.82573 C 8920.6273,509.66552 9272.3848,679.39523 9457.7450,995.74029 C 9483.0348,1049.8472 9499.3815,1108.5512 9502.1602,1168.3706 z "
             id="path10657"
             transform="matrix(2.744246e-2,0.000000,0.000000,2.744246e-2,81.98045,299.7715)" />
          <path
             style="fill:#ffffff;fill-opacity:1.0000000;stroke:none"
             d="M 256.90307,302.50891 C 277.40077,302.34525 298.19612,304.88284 317.48852,312.04467 C 324.89389,315.11782 332.66227,319.11202 336.97058,326.16517 C 339.56257,331.14496 338.17786,337.25341 334.31737,341.15029 C 329.49075,346.65802 322.55382,349.68402 316.03288,352.67324 C 296.94651,359.73150 276.42960,362.07731 256.17957,362.27707 C 235.67471,362.23893 214.84895,359.93866 195.63732,352.42653 C 188.37392,349.39876 180.75972,345.46883 176.58597,338.50548 C 173.84605,333.89657 174.88507,327.94040 178.58594,324.17100 C 184.94559,316.91854 194.20529,313.24738 203.07761,310.08587 C 220.50211,304.74929 238.72806,302.69716 256.90307,302.50891 z "
             id="path10658" />
        </g>
        <g
           id="g10659"
           transform="translate(-286.6521,150.2242)">
          <path
             style="fill:#ffffff;fill-opacity:1.0000000;stroke:none"
             d="M 345.31813,334.05203 C 344.96735,341.07167 347.95737,349.43201 342.56519,355.23066 C 335.13499,364.81150 323.09631,368.78565 312.02356,372.45319 C 284.80827,380.61993 255.90096,381.48586 227.78881,378.67919 C 214.43921,376.91177 201.06285,374.20008 188.53170,369.17951 C 180.35640,365.60994 171.47716,361.18274 167.24849,352.88586 C 164.67300,346.29071 166.94804,339.16379 167.48344,332.41851 C 170.59148,323.08560 180.15534,318.22226 188.51708,314.37038 C 208.65897,306.22616 230.56433,303.21870 252.17228,302.63078 C 276.16339,302.50797 300.69490,304.45376 323.16799,313.47078 C 331.38853,316.89324 340.29072,321.53873 344.28305,329.96004 C 344.82646,331.26338 345.18010,332.64634 345.31813,334.05203 z "
             id="path10660" />
          <path
             style="fill:#000000;fill-opacity:1.0000000;stroke:none"
             d="M 9502.1602,1168.3706 C 9504.4209,1427.9286 9585.3704,1735.6037 9386.7114,1947.0412 C 8953.4849,2392.7652 8323.2091,2542.8571 7735.2236,2662.9163 C 6587.6238,2866.4690 5387.8905,2834.7696 4267.3758,2501.9672 C 3897.2862,2380.3135 3504.8170,2213.6055 3273.9157,1884.7252 C 3152.0512,1641.4471 3207.1137,1353.8691 3263.2973,1100.2848 C 3347.0979,808.98951 3634.1456,660.24038 3881.4611,526.12156 C 4379.6538,289.78709 4930.0831,190.30971 5472.8297,117.82105 C 6513.8747,-3.6726570 7588.0757,62.912230 8587.6196,389.82573 C 8920.6273,509.66552 9272.3848,679.39523 9457.7450,995.74029 C 9483.0348,1049.8472 9499.3815,1108.5512 9502.1602,1168.3706 z "
             id="path10661"
             transform="matrix(2.744246e-2,0.000000,0.000000,2.744246e-2,81.98045,299.7715)" />
          <path
             style="fill:#ffffff;fill-opacity:1.0000000;stroke:none"
             d="M 256.90307,302.50891 C 277.40077,302.34525 298.19612,304.88284 317.48852,312.04467 C 324.89389,315.11782 332.66227,319.11202 336.97058,326.16517 C 339.56257,331.14496 338.17786,337.25341 334.31737,341.15029 C 329.49075,346.65802 322.55382,349.68402 316.03288,352.67324 C 296.94651,359.73150 276.42960,362.07731 256.17957,362.27707 C 235.67471,362.23893 214.84895,359.93866 195.63732,352.42653 C 188.37392,349.39876 180.75972,345.46883 176.58597,338.50548 C 173.84605,333.89657 174.88507,327.94040 178.58594,324.17100 C 184.94559,316.91854 194.20529,313.24738 203.07761,310.08587 C 220.50211,304.74929 238.72806,302.69716 256.90307,302.50891 z "
             id="path10662" />
        </g>
        <g
           id="g10663"
           transform="translate(-301.4702,136.9390)">
          <path
             style="fill:#ffffff;fill-opacity:1.0000000;stroke:none"
             d="M 345.31813,334.05203 C 344.96735,341.07167 347.95737,349.43201 342.56519,355.23066 C 335.13499,364.81150 323.09631,368.78565 312.02356,372.45319 C 284.80827,380.61993 255.90096,381.48586 227.78881,378.67919 C 214.43921,376.91177 201.06285,374.20008 188.53170,369.17951 C 180.35640,365.60994 171.47716,361.18274 167.24849,352.88586 C 164.67300,346.29071 166.94804,339.16379 167.48344,332.41851 C 170.59148,323.08560 180.15534,318.22226 188.51708,314.37038 C 208.65897,306.22616 230.56433,303.21870 252.17228,302.63078 C 276.16339,302.50797 300.69490,304.45376 323.16799,313.47078 C 331.38853,316.89324 340.29072,321.53873 344.28305,329.96004 C 344.82646,331.26338 345.18010,332.64634 345.31813,334.05203 z "
             id="path10664" />
          <path
             style="fill:#000000;fill-opacity:1.0000000;stroke:none"
             d="M 9502.1602,1168.3706 C 9504.4209,1427.9286 9585.3704,1735.6037 9386.7114,1947.0412 C 8953.4849,2392.7652 8323.2091,2542.8571 7735.2236,2662.9163 C 6587.6238,2866.4690 5387.8905,2834.7696 4267.3758,2501.9672 C 3897.2862,2380.3135 3504.8170,2213.6055 3273.9157,1884.7252 C 3152.0512,1641.4471 3207.1137,1353.8691 3263.2973,1100.2848 C 3347.0979,808.98951 3634.1456,660.24038 3881.4611,526.12156 C 4379.6538,289.78709 4930.0831,190.30971 5472.8297,117.82105 C 6513.8747,-3.6726570 7588.0757,62.912230 8587.6196,389.82573 C 8920.6273,509.66552 9272.3848,679.39523 9457.7450,995.74029 C 9483.0348,1049.8472 9499.3815,1108.5512 9502.1602,1168.3706 z "
             id="path10665"
             transform="matrix(2.744246e-2,0.000000,0.000000,2.744246e-2,81.98045,299.7715)" />
          <path
             style="fill:#ffffff;fill-opacity:1.0000000;stroke:none"
             d="M 256.90307,302.50891 C 277.40077,302.34525 298.19612,304.88284 317.48852,312.04467 C 324.89389,315.11782 332.66227,319.11202 336.97058,326.16517 C 339.56257,331.14496 338.17786,337.25341 334.31737,341.15029 C 329.49075,346.65802 322.55382,349.68402 316.03288,352.67324 C 296.94651,359.73150 276.42960,362.07731 256.17957,362.27707 C 235.67471,362.23893 214.84895,359.93866 195.63732,352.42653 C 188.37392,349.39876 180.75972,345.46883 176.58597,338.50548 C 173.84605,333.89657 174.88507,327.94040 178.58594,324.17100 C 184.94559,316.91854 194.20529,313.24738 203.07761,310.08587 C 220.50211,304.74929 238.72806,302.69716 256.90307,302.50891 z "
             id="path10666" />
        </g>
        <g
           id="g10671"
           transform="translate(-332.7535,2.592663e-2)">
          <path
             style="fill:#ffffff;fill-opacity:1.0000000;stroke:none"
             d="M 9435.6436,1499.0150 C 9422.8613,1754.8100 9531.8170,2059.4598 9335.3266,2270.7617 C 9064.5713,2619.8864 8625.8830,2764.7042 8222.3934,2898.3488 C 7230.6714,3195.9440 6177.2924,3227.4981 5152.8891,3125.2236 C 4666.4312,3060.8190 4178.9983,2962.0053 3722.3646,2779.0562 C 3424.4575,2648.9815 3100.8991,2487.6551 2946.8068,2185.3178 C 2852.9562,1944.9910 2935.8585,1685.2869 2955.3686,1439.4899 C 3068.6249,1099.3998 3417.1311,922.18024 3721.8317,781.81824 C 4455.7998,485.04378 5254.0287,375.45211 6041.4199,354.02833 C 6915.6529,349.55317 7809.5783,420.45757 8628.4951,749.03667 C 8928.0505,873.75089 9252.4453,1043.0318 9397.9255,1349.9036 C 9417.7271,1397.3969 9430.6138,1447.7920 9435.6436,1499.0150 z "
             id="path10672"
             transform="matrix(2.744246e-2,0.000000,0.000000,2.744246e-2,143.2125,414.4994)" />
          <g
             id="g10673"
             transform="translate(-2.867511,4.301267)">
            <path
               style="fill:#000000;fill-opacity:1.0000000;stroke:none"
               d="M 9502.1602,1168.3706 C 9504.4209,1427.9286 9585.3704,1735.6037 9386.7114,1947.0412 C 8953.4849,2392.7652 8323.2091,2542.8571 7735.2236,2662.9163 C 6587.6238,2866.4690 5387.8905,2834.7696 4267.3758,2501.9672 C 3897.2862,2380.3135 3504.8170,2213.6055 3273.9157,1884.7252 C 3152.0512,1641.4471 3207.1137,1353.8691 3263.2973,1100.2848 C 3347.0979,808.98951 3634.1456,660.24038 3881.4611,526.12156 C 4379.6538,289.78709 4930.0831,190.30971 5472.8297,117.82105 C 6513.8747,-3.6726570 7588.0757,62.912230 8587.6196,389.82573 C 8920.6273,509.66552 9272.3848,679.39523 9457.7450,995.74029 C 9483.0348,1049.8472 9499.3815,1108.5512 9502.1602,1168.3706 z "
               id="path10674"
               transform="matrix(2.744246e-2,0.000000,0.000000,2.744246e-2,143.2125,414.4994)" />
            <path
               style="fill:#ffffff;fill-opacity:1.0000000;stroke:none"
               d="M 6374.1597,118.37060 C 7121.0934,112.40681 7878.8733,204.87620 8581.8863,465.85251 C 8851.7371,577.83747 9134.8159,723.38600 9291.8101,980.40186 C 9386.2619,1161.8648 9335.8035,1384.4560 9195.1276,1526.4577 C 9019.2460,1727.1588 8766.4653,1837.4258 8528.8429,1946.3528 C 7833.3378,2203.5549 7085.7042,2289.0358 6347.7955,2296.3150 C 5600.6007,2294.9252 4841.7126,2211.1038 4141.6430,1937.3625 C 3876.9654,1827.0311 3599.5048,1683.8250 3447.4140,1430.0811 C 3347.5716,1262.1330 3385.4332,1045.0910 3520.2928,907.73442 C 3752.0375,643.45562 4089.4599,509.67905 4412.7661,394.47403 C 5047.7131,200.00961 5711.8643,125.23013 6374.1597,118.37060 z "
               id="path10675"
               transform="matrix(2.744246e-2,0.000000,0.000000,2.744246e-2,143.2125,414.4994)" />
            <path
               style="fill:#ff0000;fill-opacity:1.0000000;stroke:none"
               d="M 7850.1597,1765.3706 C 7696.0110,1812.8404 7537.2412,1843.3390 7376.1779,1853.3327 C 7201.9816,1869.2407 7027.9488,1888.2479 6852.7772,1886.5577 C 6590.9180,1894.4901 6329.4331,1870.1001 6068.3452,1853.1277 C 5789.7576,1832.4074 5510.4287,1784.5919 5252.2118,1674.3532 C 5176.7038,1643.5208 5097.4775,1620.4310 5033.0624,1568.2813 C 4947.3605,1503.1197 4873.2936,1423.0269 4815.1597,1332.3706 C 4686.8263,1332.3706 4558.4930,1332.3706 4430.1597,1332.3706 C 4480.0936,1298.8058 4524.8771,1252.8991 4575.2332,1223.3706 C 4646.8753,1223.3706 4718.5175,1223.3706 4790.1597,1223.3706 C 4791.0879,1172.6331 4782.8853,1118.3170 4809.1597,1073.2971 C 4797.3218,1046.7428 4737.2801,1068.3924 4705.9098,1061.3706 C 4589.6598,1061.3706 4473.4097,1061.3706 4357.1597,1061.3706 C 4404.4411,1023.1528 4450.9209,983.99175 4496.1597,943.37061 C 4612.8263,943.37061 4729.4930,943.37061 4846.1597,943.37061 C 4894.4963,874.35362 4950.6957,810.70507 5022.8613,766.06113 C 5108.1976,694.85694 5206.8339,643.31954 5311.4441,606.76000 C 5455.0310,551.34431 5607.4603,522.90638 5756.1373,484.29550 C 5916.8310,452.38488 6080.5706,438.66513 6243.6347,425.53527 C 6418.0212,420.23010 6592.3049,406.41751 6766.6584,404.53319 C 6976.3092,410.92923 7186.6609,413.07834 7395.3668,434.40512 C 7512.1076,452.52174 7631.0948,459.40069 7746.3478,484.84433 C 7782.6242,494.88056 7836.6297,495.84721 7800.0998,543.12859 C 7780.0728,567.18057 7793.5775,637.50090 7750.2198,620.23710 C 7495.5105,571.91120 7235.2619,561.47389 6976.6695,573.07364 C 6750.8336,578.30842 6523.9867,600.23997 6305.8040,660.99155 C 6199.4661,687.82941 6101.6372,740.08043 6005.2035,790.88121 C 5949.5767,824.78125 5905.5667,871.94029 5866.7010,923.24000 C 5820.8413,959.77687 5956.4927,949.58048 5933.1890,943.37061 C 6216.7003,942.29764 6500.3136,947.07563 6783.6743,937.37061 C 6949.8361,937.37061 7115.9979,937.37061 7282.1597,937.37061 C 7237.1313,972.72075 7194.1814,1010.4447 7153.1597,1050.3706 C 6701.4930,1050.3706 6249.8263,1050.3706 5798.1597,1050.3706 C 5782.0296,1101.0451 5767.1632,1158.6189 5781.1597,1211.5176 C 5807.9068,1222.8293 5855.6504,1213.1445 5890.4831,1216.3706 C 6236.7086,1216.3706 6582.9341,1216.3706 6929.1597,1216.3706 C 6879.9774,1250.5904 6834.6557,1295.3743 6784.0861,1324.3706 C 6542.0205,1320.2517 6300.2875,1336.6818 6058.2188,1332.3706 C 5971.5324,1332.3706 5884.8460,1332.3706 5798.1597,1332.3706 C 5877.1823,1428.6707 5977.2381,1507.4298 6092.9648,1554.5462 C 6275.6789,1624.5553 6470.5187,1657.2066 6663.3409,1685.5667 C 6920.8480,1706.5923 7179.5297,1709.7203 7437.4300,1693.9673 C 7563.1721,1690.3547 7687.5020,1667.3091 7808.1597,1632.3706 C 7825.6948,1675.7461 7839.9465,1719.6759 7850.1597,1765.3706 z "
               id="path10676"
               transform="matrix(2.744246e-2,0.000000,0.000000,2.744246e-2,143.2125,414.4994)" />
          </g>
        </g>
      </g>
      <path
         id="rect1062"
         style="fill:#ff0000;fill-opacity:1.0000000;fill-rule:evenodd;stroke:#ffffff;stroke-width:7.5000000;stroke-linecap:round;stroke-linejoin:round;stroke-miterlimit:4.0000000;stroke-dashoffset:0.0000000;stroke-opacity:1.0000000"
         d="M 160.00000,316.25000 C 162.93008,316.25000 165.87982,315.15143 168.12500,312.90625 L 237.00000,244.00000 C 241.49036,239.50964 241.49037,232.27161 237.00000,227.78125 L 198.06250,227.78125 C 198.20066,227.06742 198.50000,226.41164 198.50000,225.65625 L 198.50000,201.62500 C 198.50000,195.27468 193.38158,190.15626 187.03125,190.15625 L 133.00000,190.15625 C 126.64967,190.15625 121.53125,195.27467 121.53125,201.62500 L 121.53125,225.65625 C 121.53125,226.41164 121.83059,227.06742 121.96875,227.78125 L 83.000001,227.78125 C 78.509641,232.27161 78.509631,239.50964 83.000001,244.00000 L 151.90625,312.90625 C 154.15143,315.15143 157.06992,316.25000 160.00000,316.25000 z M 187.02300,190.20895 L 132.97699,190.20895 C 126.62667,190.20895 121.51431,185.09660 121.51431,178.74628 L 121.51431,161.25758 C 121.51431,154.90726 126.62667,149.79491 132.97699,149.79491 L 187.02300,149.79491 C 193.37332,149.79491 198.48568,154.90726 198.48568,161.25758 L 198.48568,178.74628 C 198.48568,185.09660 193.37332,190.20895 187.02300,190.20895 z M 187.02300,149.83928 L 132.97699,149.83928 C 126.62667,149.83928 121.51431,145.49841 121.51431,140.10638 C 121.51431,134.71436 126.62667,130.37349 132.97699,130.37349 L 187.02300,130.37349 C 193.37332,130.37349 198.48568,134.71436 198.48568,140.10638 C 198.48568,145.49841 193.37332,149.83928 187.02300,149.83928 z "
         sodipodi:nodetypes="cccccccccccccccccccccccccccccccc" />
    </g>
  </g>
  <g
     inkscape:groupmode="layer"
     id="layer6"
     inkscape:label="Propietat"
     style="display:block"
     sodipodi:insensitive="1">
    <g
       id="g6094"
       transform="matrix(0.925862,0.000000,0.000000,0.925862,143.7747,118.5623)"
       inkscape:export-xdpi="96.000000"
       inkscape:export-ydpi="96.000000"
       style="display:block">
      <path
         style="fill:#ffffff;fill-opacity:1.0000000;fill-rule:evenodd;stroke:#0000cd;stroke-width:8.1005621;stroke-miterlimit:4.0000000;stroke-opacity:1.0000000"
         d="M -151.23716,-57.772351 C -151.23716,-21.211475 -151.23716,-49.333221 -151.23716,-12.772347 C -151.23716,23.788523 -121.56457,53.461123 -85.003690,53.461123 C -48.442820,53.461123 -18.770230,23.788523 -18.770230,-12.772347 C -18.770230,-49.333221 -18.770230,-21.211475 -18.770230,-57.772351 C -18.770230,-94.333227 -48.442820,-124.00582 -85.003690,-124.00582 C -121.56457,-124.00582 -151.23716,-94.333227 -151.23716,-57.772351 z "
         id="path4847"
         sodipodi:nodetypes="ccccccc" />
      <path
         style="fill:#0000cd;fill-opacity:1.0000000;stroke:none"
         d="M -129.21657,-89.000316 L -129.21657,-73.024359 L -40.790820,-73.024359 L -40.790820,-89.000316 L -129.21657,-89.000316 z M -129.21657,-58.516780 L -129.21657,-42.526137 L -40.790820,-42.526137 L -40.790820,-58.516780 L -129.21657,-58.516780 z M -129.21657,-28.018558 L -129.21657,-12.027911 L -40.790820,-12.027911 L -40.790820,-28.018558 L -129.21657,-28.018558 z M -129.21657,2.4796691 L -129.21657,18.455619 L -40.790820,18.455619 L -40.790820,2.4796691 L -129.21657,2.4796691 z "
         id="polyline1684"
         sodipodi:nodetypes="cccccccccccccccccccc" />
    </g>
  </g>
</svg>
