/* XPM */
static const char *napuntedoc[]={
"23 24 83 2",
"Qt c None",
".0 c #000000",
"#p c #101418",
"#j c #413c00",
".3 c #41505a",
"#f c #522800",
"#o c #525000",
".4 c #525500",
".S c #526152",
".M c #526973",
".H c #5a5d00",
".9 c #5a5d29",
".e c #5a654a",
".u c #5a6552",
".p c #5a694a",
"#n c #626100",
".B c #626541",
".a c #626941",
".k c #62694a",
".G c #626d20",
"#b c #627983",
".J c #6a6d20",
".D c #6a7118",
".8 c #6a7d7b",
".Z c #6a7d83",
".x c #6a818b",
".c c #732c00",
"#d c #736d00",
".U c #737100",
".W c #738583",
".P c #73858b",
"#c c #73899c",
"#i c #738d9c",
".m c #7b3000",
".h c #7b3400",
"#e c #7b5d00",
"## c #830000",
".5 c #836900",
"#q c #8399ac",
".F c #839dac",
".V c #8ba5b4",
".j c #940000",
".Q c #941800",
"#m c #948d00",
".C c #94aabd",
".# c #94aec5",
".s c #9c0800",
".K c #9c0c00",
".z c #9c1000",
".I c #9c1400",
".n c #9c1800",
".O c #9c1c00",
"#. c #9c9500",
"#k c #9c9900",
".T c #9c9d08",
".y c #a49d00",
".1 c #a49d08",
".7 c #a4a108",
".Y c #a4a508",
"#h c #aca508",
".2 c #acaa00",
"#l c #b4ae00",
".A c #b4b600",
".X c #bdb200",
".w c #bdb600",
".o c #bdba00",
".L c #bdbe00",
".N c #c5c200",
".q c #cdce00",
".6 c #d50000",
".f c #d5ce00",
".R c #d5d200",
"#g c #d5d600",
".E c #dede00",
"#a c #e60000",
".b c #e6de00",
".l c #e6e200",
".i c #ee0000",
".r c #eee600",
".v c #f60000",
".g c #f6ee00",
".d c #ff0000",
".t c #ffff00",
"QtQtQtQtQtQtQtQtQtQtQtQtQtQtQtQtQtQtQtQtQtQtQt",
"QtQtQtQtQtQtQtQtQtQtQtQtQtQt.#.a.b.b.c.d.dQtQt",
"QtQtQtQtQtQtQtQtQtQtQtQtQtQt.e.f.g.h.i.d.jQtQt",
"QtQtQtQtQtQtQtQtQtQtQtQt.#.k.b.l.m.d.d.n.oQtQt",
"QtQtQtQtQtQtQtQtQtQtQtQt.p.q.r.h.i.d.s.o.tQtQt",
"QtQtQtQtQtQtQtQtQtQt.#.u.b.r.m.v.d.n.w.t.bQtQt",
"QtQtQtQtQtQtQtQtQtQt.x.y.l.h.v.d.z.A.t.f.BQtQt",
"QtQtQtQtQtQtQtQtQt.C.D.E.m.v.d.z.w.t.b.e.#QtQt",
"QtQtQtQtQtQtQtQt.F.G.t.H.v.d.I.A.t.q.pQtQtQtQt",
"QtQtQtQtQtQtQt.C.J.g.o.n.d.K.w.t.b.p.#QtQtQtQt",
"QtQtQtQtQtQt.F.J.t.L.j.d.n.o.t.f.eQtQtQtQtQtQt",
"QtQtQtQtQtQt.M.N.L.O.d.j.o.t.b.a.#QtQtQtQtQtQt",
"QtQtQtQtQt.P.y.o.j.d.Q.L.t.R.SQtQtQtQtQtQtQtQt",
"QtQtQtQt.x.T.o.n.d.j.L.t.t.U.VQtQtQtQtQtQtQtQt",
"QtQtQt.W.y.X.s.d.n.o.t.t.Y.ZQtQt.0.0QtQtQtQtQt",
"QtQt.x.1.o.n.d.K.o.t.t.2.ZQtQtQt.0.0QtQtQtQtQt",
"QtQt.3.4.5.6.I.w.t.t.7.8QtQt.0.0.0.0.0.0QtQtQt",
"Qt.V.9#.###a.U.t.t.2#bQtQtQt.0.0.0.0.0.0QtQtQt",
"Qt#c#d.o#e#f#g.t#h.8QtQtQtQtQtQt.0.0QtQtQtQtQt",
"Qt#i#j.U#k#l#j#m#bQtQtQtQtQtQtQt.0.0QtQtQtQtQt",
"Qt#c.0.0#n.o#o#pQtQtQtQtQtQtQtQtQtQtQtQtQtQtQt",
"Qt#i.0.0#j#d.3QtQtQtQtQtQtQtQtQtQtQtQtQtQtQtQt",
"Qt.C.x.x.x.x#qQtQtQtQtQtQtQtQtQtQtQtQtQtQtQtQt",
"QtQtQtQtQtQtQtQtQtQtQtQtQtQtQtQtQtQtQtQtQtQtQt"};
