/* XPM */
static const char *cactivo[]={
"16 16 5 1",
". c None",
"# c #00c000",
"a c #00ff00",
"b c #808080",
"c c #ff0000",
"................",
"................",
".......######...",
".......#aaaa##..",
"...####aaaa#a#b.",
"..#aaaaaaaaa##b.",
"..#aaaacaaa#a#b.",
"..#aaacacaaa##b.",
"..#aacaaaca#a#b.",
"..#aacccccaa##b.",
"..#acaaaaac#a#b.",
"..#acaaaaaca##b.",
"..#acaaaaac#a#b.",
"..#aaaaaaaaa##b.",
"..############b.",
"...bbbbbbbbbbbb."};
