/* XPM */
static char *dummy[]={
"32 32 632 2",
"Qt c None",
"h1 c #01000d",
"hg c #020012",
"gz c #030017",
"hN c #030018",
"hu c #03001c",
"hE c #03001d",
"hx c #03011c",
"gX c #040521",
"hX c #050023",
"hF c #050024",
"g2 c #050128",
"hv c #05061f",
"fx c #050d31",
"gW c #06002a",
"hM c #06002b",
"g1 c #060127",
"hl c #06012c",
"gE c #06012e",
"g3 c #06012f",
"gG c #07012f",
"hy c #070131",
"hk c #070133",
"gD c #070134",
"gF c #070135",
"hw c #070533",
"gd c #070635",
"f# c #071346",
".m c #073c74",
"hj c #080135",
"hf c #080136",
"hc c #080137",
"gV c #080138",
"gC c #080239",
"g0 c #08033a",
"a3 c #08073e",
"eO c #08154e",
"gh c #090137",
"gT c #090238",
"gy c #09053e",
"gg c #090541",
"gu c #090843",
".n c #090b46",
"hr c #0a0339",
"gU c #0a043c",
"ge c #0a1456",
"g. c #0a145a",
"ek c #0a2067",
"aA c #0a216a",
"ac c #0a3c89",
"ax c #0a4291",
"ab c #0a4893",
"aI c #0a4a91",
"aa c #0a4e96",
"aw c #0a4f96",
"gS c #0b0439",
"gw c #0b1154",
"gY c #0b125c",
"eP c #0b195d",
"ad c #0b286d",
"c4 c #0b3b8a",
"ay c #0b3b8d",
".l c #0b5699",
"a# c #0b569a",
"hR c #0c053a",
"ht c #0c063a",
"hU c #0c072e",
"gZ c #0c1a60",
"dv c #0c287e",
"az c #0c358a",
"b9 c #0c3887",
"a7 c #0c569a",
"hG c #0d0735",
"dV c #0d166e",
"fT c #0d166f",
"el c #0d1d75",
"b4 c #0d1e75",
"b5 c #0d1e77",
"fw c #0d2b82",
"b# c #0d418c",
"g4 c #0e072e",
"he c #0e073c",
"fy c #0e1067",
"hh c #0e1950",
"bC c #0e1b73",
"cX c #0e1d6c",
"cw c #0e2a82",
"cx c #0e2b83",
"dS c #0e2d85",
"fU c #0f0f50",
"bB c #0f136c",
"gx c #0f1e68",
".D c #0f224f",
"fS c #0f236c",
"cB c #0f277e",
"cv c #0f2d82",
"hm c #100930",
"gt c #10093d",
"f9 c #100a3e",
"gB c #101562",
"eN c #101971",
"b6 c #102b83",
"fv c #10328a",
"cA c #103a87",
"hd c #110b3f",
"bA c #112275",
"gv c #112471",
"fu c #112c80",
"a8 c #11579a",
"fa c #121970",
"a2 c #121a53",
"gA c #121c67",
"fQ c #122a77",
"aH c #12589b",
"ba c #131a70",
"bD c #132e5e",
"b7 c #132f63",
"eh c #132f84",
"aB c #13336c",
"#L c #135b9b",
"gf c #142877",
"do c #142c77",
".U c #144687",
"#c c #14578e",
"b0 c #145a9c",
"bd c #152a65",
"dU c #153479",
"bY c #153f70",
"ae c #154682",
"#M c #155290",
".x c #15609f",
"gi c #160d37",
"ct c #16206e",
"hi c #162364",
"cZ c #16378c",
"ft c #16398d",
"gc c #172a6e",
"ga c #172f77",
"cY c #17337e",
"f. c #173487",
"fP c #173b8e",
"ak c #175799",
"bZ c #175b9d",
"a. c #1763a0",
"hB c #181144",
"h0 c #181531",
"ds c #183184",
"cy c #183588",
"c1 c #183689",
"ei c #183b8f",
"a9 c #185b9d",
"hJ c #191345",
"bb c #192779",
"aN c #19488a",
".k c #1963a1",
"hW c #1a1638",
"eg c #1a3a8c",
"c0 c #1a3b8e",
"fR c #1a3f90",
"aV c #1a4d82",
"hb c #1b1446",
"hQ c #1b1547",
"gb c #1b3075",
"cu c #1b4589",
"fO c #1c3377",
"c5 c #1c3383",
"g# c #1c347a",
"bF c #1c5295",
"#Y c #1c65a2",
"#3 c #1d1f4f",
"aJ c #1d2e7e",
"aK c #1d366e",
"fN c #1d3e8d",
"#Z c #1d3f6b",
"aF c #1d66a2",
"ej c #1e3383",
"#K c #1e68a3",
".w c #1e69a4",
"gH c #1f1632",
"dP c #1f397d",
".V c #1f408f",
".C c #1f486f",
"#N c #1f5a93",
".y c #1f66a3",
"hD c #20194a",
"hY c #201c3e",
"c2 c #203786",
"#d c #2064a2",
".E c #213684",
"dq c #214290",
"dn c #214695",
"e6 c #214996",
"b8 c #214e92",
"a6 c #2164a2",
"dt c #223886",
"eM c #22418f",
"cz c #224581",
"eK c #224693",
"hs c #231d4d",
"a1 c #232c5f",
"dp c #23438b",
"aD c #236ba5",
"fM c #241a42",
"hC c #241e4e",
"b3 c #24408a",
"dr c #244692",
"al c #244c93",
"#2 c #245093",
"fq c #251f3f",
"ao c #253361",
"eL c #254794",
"b1 c #25498e",
"du c #254e8a",
"bx c #255b9e",
"fz c #262466",
"ee c #264386",
".B c #265c92",
".A c #2666a3",
".z c #2669a5",
"aE c #266da6",
"#n c #266fa8",
"c3 c #274f8d",
"gR c #282251",
"dR c #284691",
"aC c #2870a8",
"#C c #295098",
".M c #2972a9",
"cW c #2a4c95",
"bw c #2a66a4",
"#o c #2a72a9",
"hK c #2b2553",
"cr c #2b64a3",
"af c #2b6ea4",
"fV c #2c2039",
"g5 c #2c2133",
"#f c #2c418c",
"eQ c #2c478d",
".4 c #2c74aa",
"fr c #2d549c",
"cq c #2e3a54",
"b. c #2e5ea0",
"#z c #2e6fa7",
"hz c #2f294f",
"hT c #2f2955",
"eH c #2f3459",
".F c #2f3d84",
"e9 c #2f529a",
"a4 c #2f5586",
"#W c #2f77ac",
"dm c #30589e",
"by c #3063a3",
".T c #31556a",
"e8 c #31559b",
"#e c #3162a2",
".v c #3179ad",
"hL c #322c59",
"a0 c #323b62",
".# c #32425d",
"dT c #32559b",
"bv c #32669d",
"bc c #3273aa",
".j c #3279ad",
"bu c #33364b",
"c6 c #334c86",
"aG c #336fa9",
"#X c #337aad",
"#Q c #337bae",
"bG c #343555",
"#7 c #343e7c",
"cs c #3463a2",
"av c #3472aa",
"#O c #3479ab",
".5 c #347bae",
".W c #35448b",
"bz c #35589a",
"gj c #36293b",
"hS c #36305c",
"dQ c #365d9e",
"#y c #377eaf",
"dO c #3861a3",
".3 c #387aae",
"#p c #387eb0",
"em c #39427d",
"b2 c #3964a0",
"ai c #397fb0",
"e5 c #3a3036",
"as c #3a5094",
"e7 c #3a63a4",
"aj c #3a7eb0",
".6 c #3a80b1",
"aS c #3b4d8e",
"eJ c #3b64a5",
"aW c #3c4354",
"eI c #3c65a2",
"#q c #3c82b2",
"hZ c #3d3956",
"#m c #3d7aaf",
"#6 c #3e62a1",
"#V c #3e83b3",
"cC c #3f4264",
"dN c #3f69a7",
".N c #3f84b4",
"hq c #403a61",
"aZ c #40445e",
"bk c #404a5f",
"#b c #4085b4",
".8 c #4086b4",
"#x c #4186b4",
"c. c #423f56",
"ed c #4269a3",
".O c #4287b5",
"bj c #4476ab",
"cV c #456fab",
"ah c #4589b6",
"#r c #458ab6",
"#H c #466faa",
"ef c #4670ab",
".P c #468ab6",
".i c #468ab7",
".Q c #468bb7",
"hn c #473938",
"hH c #474269",
"#P c #478bb7",
"dW c #484777",
"dw c #484f7a",
"fs c #486da2",
"bE c #4887b5",
"#1 c #488ab7",
".7 c #488cb7",
"hV c #49465e",
"#J c #497eb2",
".L c #498ab7",
".o c #4a6290",
"aM c #4a8cb8",
".u c #4a8eb8",
"at c #4b4056",
"aY c #4b454e",
"#B c #4b85b5",
"bi c #4c6e98",
".S c #4c8fba",
"an c #4d89b7",
"cU c #4e474a",
".e c #4e6a74",
".R c #4e91ba",
"g6 c #4f403d",
"#D c #4f5b92",
"#a c #4f91bb",
"#G c #517eb2",
"aX c #524846",
"hP c #524d73",
"#s c #5395bd",
"gs c #54445a",
"#k c #547fb3",
"#A c #548dad",
"ag c #5496bd",
"ec c #5582b4",
".9 c #5597be",
"gI c #56463b",
"hA c #565073",
"aL c #56869d",
"aU c #5780ad",
"#R c #589abf",
".a c #59769d",
"bt c #5b422a",
"#v c #5b9bc0",
"## c #5b9cc1",
"gk c #5c4a42",
"#8 c #5c6ea2",
"#. c #5c9cc1",
"#T c #5d9ec1",
"#w c #5d9ec2",
".h c #5e9ec2",
"aO c #5f473e",
".K c #5f9ec2",
"bX c #60461d",
"eG c #6083a6",
"fW c #614f3f",
"hI c #615c7f",
".2 c #618dbb",
"#j c #6195be",
".1 c #6198bf",
"e4 c #62553d",
"a5 c #62a0c3",
"#l c #6486b8",
"#9 c #648aba",
"#u c #64a3c5",
".t c #65a4c5",
"#0 c #67a6c6",
"bL c #686469",
"#I c #6884b8",
"hO c #696680",
"#t c #6aa9c7",
"ap c #6b4823",
"bs c #6e512e",
"dl c #6e6053",
"aR c #6ea2bd",
".b c #7196a5",
"#4 c #72798d",
"aT c #736476",
".J c #73b1cc",
"fp c #74551d",
".g c #74b0cb",
"#U c #74b1cc",
"fb c #756c7d",
".0 c #75b1cd",
"am c #77b3ce",
"#S c #79b5cf",
"ho c #7a6546",
".c c #7aa3c2",
"bl c #7b5736",
"dx c #7c8a97",
"ha c #7e6b71",
"gJ c #816b47",
"bK c #818386",
"bM c #826754",
".X c #839fc0",
".f c #86bdcf",
"au c #877f84",
".q c #89b7ce",
".Z c #89c3d6",
".G c #8ab8cf",
".s c #8ac4d7",
"aP c #8b5e2a",
"cp c #8b682b",
"#i c #8bbed5",
"fX c #8e754a",
"hp c #8e7c6e",
"bh c #8eb5ce",
"g7 c #8f774f",
".I c #8fc8d9",
"bf c #926a3a",
"eF c #93adb8",
"fL c #947146",
"f8 c #967566",
"aq c #96876c",
"aQ c #98845d",
".r c #98cedd",
"cc c #9a9590",
".p c #9acfdd",
".d c #9bcfdd",
".H c #9bd1df",
"e3 c #9ca3a0",
".Y c #9cd1df",
"gl c #9d8250",
"bm c #a36620",
"#F c #a3c5da",
"br c #a47e4f",
"be c #a58851",
"ar c #a6ccde",
"bn c #a7681d",
"dI c #a98765",
"#g c #aab5d1",
"fA c #ad9153",
"bW c #ae8440",
"dj c #ae8760",
"dk c #ae8d60",
"eb c #aeada5",
"dM c #afa594",
"cG c #b0946f",
"cb c #b2aa96",
"bO c #b37e3f",
"bg c #b39f82",
"bP c #b47e3e",
"gK c #b4965c",
"eR c #b4b0aa",
"bN c #b58042",
"d6 c #b59b7d",
"ev c #b79d84",
"eu c #b79e84",
"dH c #b89c7f",
"ew c #b99a7a",
"bo c #ba7d33",
"d5 c #baa48f",
"cT c #bb905a",
"fY c #bb9d5e",
"cg c #be905a",
"d. c #bea88b",
"cf c #bf935e",
"g8 c #c1a25f",
"d1 c #c1aa8e",
"di c #c29e79",
"bH c #c2a971",
"gQ c #c39b76",
"d7 c #c4a985",
"dy c #c4cbc0",
"bJ c #c5b8aa",
"gm c #c7a762",
"dX c #c8ba99",
"bQ c #ca995a",
"bq c #ca9c63",
"fB c #cbae6c",
"#h c #cbe6ee",
"ce c #cda878",
"cK c #cda97e",
"cJ c #cda97f",
"dY c #cdc19f",
"dJ c #ceb285",
"ch c #cfa672",
"bI c #d0bc8b",
"dB c #d1c09f",
"#5 c #d2e7ef",
"dC c #d3c3aa",
"gL c #d4b26e",
"bp c #d59c57",
"en c #d5d0bf",
"fK c #d6a865",
"da c #d8bd9c",
"fZ c #d9b978",
"#E c #d9e8f0",
"c9 c #dbcda7",
"dG c #dcceb4",
"g9 c #ddb771",
"db c #ddc5a4",
"gn c #debc7a",
"d8 c #dec298",
"cI c #dec7a3",
"c# c #e0d5ac",
"fC c #e1c78d",
"fo c #e3b574",
"ex c #e4cfa7",
"e2 c #e5ca9d",
"bV c #e6b572",
"dK c #e6ca98",
"h# c #e7bb80",
"fc c #e7d6ab",
"cd c #e7dabc",
"gM c #e8c07e",
"h. c #eac07d",
"d4 c #eae4cc",
"co c #ebbb7a",
"f0 c #ebce96",
"dD c #ebddc6",
"d# c #ece0c4",
"go c #edc88b",
"eE c #efcd9b",
"eW c #efdfbc",
"cH c #efe8cf",
"fD c #f0daaa",
"eX c #f0dfb9",
"dE c #f0e5cd",
"cF c #f0eaca",
"gN c #f1c483",
"d9 c #f1d6a7",
"cL c #f1dfba",
"dF c #f1ecd3",
"ci c #f2d3a3",
"c7 c #f3eed0",
"cS c #f4cd96",
"f1 c #f4d8a5",
"eo c #f4efd2",
"cD c #f4f0d2",
"d0 c #f4f0d4",
"bR c #f5c98d",
"dL c #f5d4a0",
"f7 c #f6c17e",
"gO c #f6c482",
"gp c #f6d197",
"d2 c #f6f3db",
"gP c #f7c380",
"fJ c #f7c686",
"ey c #f7e1b6",
"dh c #f7e1b8",
"et c #f7eece",
"gr c #f8c380",
"f6 c #f8c381",
"bU c #f8c482",
"bT c #f8c686",
"cn c #f8c889",
"bS c #f8ca8c",
"cm c #f8cd91",
"e. c #f8d9a8",
"fd c #f8efcc",
"dZ c #f8f5da",
"ca c #f8f6da",
"fI c #f9ca8d",
"gq c #f9cd91",
"fn c #f9cd92",
"f5 c #f9d097",
"cl c #f9d198",
"ck c #f9d5a0",
"f2 c #f9dca9",
"fH c #fad199",
"e1 c #fad299",
"fm c #fad49d",
"eD c #fad49e",
"ea c #fad59e",
"cR c #fad6a1",
"f4 c #fad7a3",
"fl c #fad8a3",
"eC c #fad8a4",
"e# c #fad9a5",
"cj c #fadaa7",
"f3 c #fadaa8",
"cQ c #fadbaa",
"eY c #fae7be",
"fE c #fae9c2",
"ep c #faf8de",
"eB c #fbdba9",
"fk c #fbdeaf",
"eA c #fbdfaf",
"e0 c #fbdfb0",
"cP c #fbdfb1",
"fj c #fbe2b4",
"ez c #fbe2b5",
"cO c #fbe4b9",
"eZ c #fbe6bb",
"fi c #fce5ba",
"fG c #fce6bb",
"cN c #fce8c0",
"fh c #fce9c0",
"dg c #fcebc4",
"fg c #fcecc6",
"dc c #fcf8dd",
"d3 c #fcfae2",
"fF c #fdecc7",
"cM c #fdedc8",
"df c #fdefcc",
"ff c #fdf2d1",
"de c #fdf4d3",
"fe c #fdf7d9",
"c8 c #fdfce2",
"eS c #fdfde4",
"eV c #fef3d2",
"eU c #fef6d7",
"dd c #fef8db",
"es c #fef9dd",
"eT c #fefade",
"dz c #fefde4",
"dA c #fefee5",
"er c #fffde3",
"eq c #fffee5",
"cE c #ffffe6",
"QtQtQtQtQtQtQtQtQtQtQtQt.#QtQtQtQtQtQtQtQtQtQtQtQtQtQtQtQtQtQtQt",
"QtQtQtQtQtQtQtQtQtQtQt.a.bQtQtQtQtQtQtQtQtQtQtQtQtQtQtQtQtQtQtQt",
"QtQtQtQtQtQtQtQtQtQt.c.d.e.f.g.h.i.j.k.l.mQtQtQtQtQtQtQtQtQtQtQt",
"QtQtQtQtQtQtQtQt.n.o.p.q.r.s.t.u.v.w.x.y.z.A.B.CQtQtQtQtQtQtQtQt",
"QtQtQtQtQtQt.D.E.F.G.H.I.J.K.L.j.M.v.N.O.P.Q.R.P.S.TQtQtQtQtQtQt",
"QtQtQtQtQt.U.V.W.X.Y.Z.0.1.2.3.4.5.6.7.O.8.9#.###a#b#cQtQtQtQtQt",
"QtQtQtQt#d#e#f#g#h#i#j#k#l#m#n#o#p.O#q#r#s#t#u#v#w#x#y#zQtQtQtQt",
"QtQtQt#A#B#C#D#E#F#G#H#I#J#K#L#M#N#O#P#Q#R#S#T#U#V#W#X#Y#ZQtQtQt",
"QtQt#0#1#2#3#4#5#6#7#8#9a.a#aaabacadaeafag#b.6ahaiaj.jakalQtQtQt",
"QtQtamanaoapaqarasatauav.lawabaxayazaAaB#XaCaDaEaFaGaHaIaJaKQtQt",
"QtaLaMaNaOaPaQaRaSaTaUaVaWaXaYaZa0a1a2a3a4a5a6a7a8a9b.b#babbQtQt",
"Qt#0bcbdbebfbgbhbibjbkblbmbnbobpbqbrbsbtbubvbwaHbxbybzbAbBbCbDQt",
"QtbEbFbGbHbIbJbKbLbMbNbObPbQbRbSbTbUbVbWbXbYbZb0b1b2b3b4b5b6b7Qt",
"Qtb8b9c.c#cacbcccdcecfcgchcicjckclcmcncocpcqcrcsctcucvcwcxcyczQt",
"QtcAcBcCcDcEcFcGcHcIcJcKcLcMcNcOcPcQcRcScTcUcVcWcXcYcZc0c1c2c3Qt",
"Qtc4c5c6c7cEc8c9d.d#dadbdcdddedfdgdhdidjdkdldmdndodpdqdrdsdtduQt",
"QtdvdwdxdydzcEdAdBdCdDdEcEcEdFdGdHdIdJdKdLdMdNdOdPdQdRdsdSdTdUQt",
"QtdVdWdXdYdZcEcEd0d1d2d3d4d5d6d7d8d9e.e#eaebecedeeefegeheiejekQt",
"QtelemeneoepeqereseteuevewexeyezeAeBeCeDeEeFeGeHeIeJeKeLeMeNeOQt",
"QtePeQeReScEereTeUeVeWeXeYeZeze0eBeCeDe1e2e3e4e5e6e7e8e9f.b5f#Qt",
"QtQtfafbfcfdfeeUffdffgfhfifjfkeBflfmclfnbSfofpfqfrfsftfufvfwfxQt",
"QtQtfyfzfAfBfCfDfEfFcNfGfjeAeBeCfmfHfnfIfJfKfLfMfNfOfPfQfRfSQtQt",
"QtQtQtfTfUfVfWfXfYfZf0f1f2f3f4fmf5fnbSbTf6f7f8f9g.g#gagbgcgdQtQt",
"QtQtQtgegfggghgigjgkglgmgngogpf5gqfIbTbUgrgrgsgtgugvgwgxgygzQtQt",
"QtQtQtQtgAgBgCgDgEgFgGgHgIgJgKgLgMgNgOgPgrgQgRgSgTgUgVgVgWQtQtQt",
"QtQtQtQtgXgYgZg0g1g2gEgEg3g4g5g6g7g8g9h.h#hahbhchdhehchfhgQtQtQt",
"QtQtQtQtQtQthhhigCgEg3gDhfhjhkg3hlhmhnhohphqhchrhshtgDhuQtQtQtQt",
"QtQtQtQtQtQtQthvhwhxhjhfhchchfhfgDhygEhzhAhBhchChDhchEQtQtQtQtQt",
"QtQtQtQtQtQtQtQtQtQtQtQtQthFhFhFhFhGhHhIhJhchKhLhMhNQtQtQtQtQtQt",
"QtQtQtQtQtQtQtQtQtQtQtQtQtQtQtQtQthOhPhQhRhShThUQtQtQtQtQtQtQtQt",
"QtQtQtQtQtQtQtQtQtQtQtQtQtQtQtQthVhWhXhYhZh0h1QtQtQtQtQtQtQtQtQt",
"QtQtQtQtQtQtQtQtQtQtQtQtQtQtQtQtQtQtQtQtQtQtQtQtQtQtQtQtQtQtQtQt"};
