/* XPM */
static char * icon_bulmages_16x16_xpm[] = {
"16 16 153 2",
"  	c None",
". 	c #3B3633",
"+ 	c #343436",
"@ 	c #514F4A",
"# 	c #4D4B46",
"$ 	c #2A2928",
"% 	c #19191B",
"& 	c #0D0D0D",
"* 	c #514E4C",
"= 	c #262626",
"- 	c #464240",
"; 	c #9A9890",
"> 	c #1F1E1E",
", 	c #7C796E",
"' 	c #6E6B64",
") 	c #544B46",
"! 	c #0B0D0D",
"~ 	c #151411",
"{ 	c #4C4640",
"] 	c #312E2E",
"^ 	c #2F2C2E",
"/ 	c #4C4E50",
"( 	c #8D8E8E",
"_ 	c #1E1A1B",
": 	c #251617",
"< 	c #251513",
"[ 	c #0C0B0E",
"} 	c #2B2B2B",
"| 	c #50504E",
"1 	c #332F30",
"2 	c #1A181B",
"3 	c #120F16",
"4 	c #949394",
"5 	c #2E2E2E",
"6 	c #222021",
"7 	c #261B1F",
"8 	c #161116",
"9 	c #241E21",
"0 	c #38352F",
"a 	c #4E4E4E",
"b 	c #6B6E6B",
"c 	c #2F2F30",
"d 	c #484144",
"e 	c #B6B5B5",
"f 	c #2C2B2B",
"g 	c #292123",
"h 	c #3C373D",
"i 	c #2F2B2B",
"j 	c #22201F",
"k 	c #726F66",
"l 	c #615C58",
"m 	c #31282A",
"n 	c #B0AEAE",
"o 	c #232323",
"p 	c #171616",
"q 	c #1B1919",
"r 	c #2B2729",
"s 	c #6A665C",
"t 	c #3F4243",
"u 	c #3E3F41",
"v 	c #332C2F",
"w 	c #C5C3C3",
"x 	c #151515",
"y 	c #1D1A1A",
"z 	c #1F1C1F",
"A 	c #343136",
"B 	c #0F0E0D",
"C 	c #747973",
"D 	c #373942",
"E 	c #9A9993",
"F 	c #6D615E",
"G 	c #D1D0D0",
"H 	c #131313",
"I 	c #2D2929",
"J 	c #201E29",
"K 	c #1E1F27",
"L 	c #0A0A0D",
"M 	c #626058",
"N 	c #757777",
"O 	c #202429",
"P 	c #5F5C5C",
"Q 	c #101010",
"R 	c #1D1B1A",
"S 	c #282226",
"T 	c #141420",
"U 	c #302C2F",
"V 	c #0E0E10",
"W 	c #404242",
"X 	c #2C2F31",
"Y 	c #080A0C",
"Z 	c #322F31",
"` 	c #676262",
" .	c #3F3E3C",
"..	c #73726E",
"+.	c #6A6C6C",
"@.	c #2B292D",
"#.	c #2F2A2C",
"$.	c #121115",
"%.	c #0E0E15",
"&.	c #0D0C14",
"*.	c #0C0B0F",
"=.	c #0E0F14",
"-.	c #1C181D",
";.	c #3B3A3A",
">.	c #4B4946",
",.	c #635D58",
"'.	c #544F4B",
").	c #2E2D2D",
"!.	c #202027",
"~.	c #1B1419",
"{.	c #151315",
"].	c #252022",
"^.	c #100D14",
"/.	c #29242B",
"(.	c #AFACAD",
"_.	c #5A5A5A",
":.	c #393939",
"<.	c #1C1A1A",
"[.	c #555048",
"}.	c #343435",
"|.	c #393B46",
"1.	c #363233",
"2.	c #252424",
"3.	c #4E4B4C",
"4.	c #22181E",
"5.	c #716B6D",
"6.	c #353535",
"7.	c #343030",
"8.	c #443F3C",
"9.	c #1D1C22",
"0.	c #444547",
"a.	c #79756F",
"b.	c #414141",
"c.	c #6D6A65",
"d.	c #7B7874",
"e.	c #ACA7A3",
"f.	c #3D3D3D",
"g.	c #4C4A49",
"h.	c #444144",
"i.	c #16131A",
"j.	c #4B4947",
"k.	c #908B88",
"l.	c #747474",
"m.	c #615F5E",
"n.	c #807C79",
"o.	c #C8C7C3",
"p.	c #868686",
"q.	c #949494",
"r.	c #A0A0A0",
"s.	c #B9B9B9",
"t.	c #D1D1D1",
"u.	c #9C9C9C",
"v.	c #BCBCBC",
"                . +             ",
"          @ # $ % & * = - ;     ",
"        > , ' ) ! ~ { ] ^ / (   ",
"        = _ : < [ } | 1 2 3 4   ",
"        5 6 7 8 9 0 a b c d e   ",
"          f g h i j k l m n     ",
"          o p q r s t u v w     ",
"        x y z A B C D E F G     ",
"        H I J K L M N O P       ",
"      Q R S T U V W X Y Z `     ",
"       ...+.@.#.$.%.&.*.=.-.    ",
"      ;.>.,.'.).!.~.{.].^./.(.  ",
"      _.:.<.[.}.|.1.2.3.4.5.    ",
"        6.7.8.9.0.a.b.c.d.e.    ",
"        f.g.h.i.j.k.l.m.n.o.    ",
"          p.q.r.s.t.  u.v.      "};
