/* XPM */
static char * icon_bulmasetup_16x16_xpm[] = {
"16 16 90 1",
" 	c #FFFFFF",
".	c #97BBD6",
"+	c #75A4CA",
"@	c #99BCD7",
"#	c #0259A0",
"$	c #0158A0",
"%	c #B0CCE0",
"&	c #FDFEFE",
"*	c #F4F8FB",
"=	c #A3C3DC",
"-	c #0058A0",
";	c #246FAC",
">	c #FAFCFD",
",	c #F0F5FA",
"'	c #CEDFED",
")	c #D8E5F0",
"!	c #DEE9F2",
"~	c #CADCEC",
"{	c #EAF1F7",
"]	c #508CBC",
"^	c #B4CEE2",
"/	c #FCFDFE",
"(	c #DDE9F2",
"_	c #B9D1E5",
":	c #9DBFDA",
"<	c #9CBED8",
"[	c #A6C4DE",
"}	c #B3CDE3",
"|	c #D7E4F0",
"1	c #B8D0E3",
"2	c #6B9EC6",
"3	c #F6F9FC",
"4	c #D1E1EE",
"5	c #AAC8E0",
"6	c #6E9FC6",
"7	c #357AB2",
"8	c #D7E5EF",
"9	c #A4C3DD",
"0	c #E8F1F7",
"a	c #065BA0",
"b	c #4082B6",
"c	c #F4F7FB",
"d	c #CDDEEC",
"e	c #A4C4DE",
"f	c #528DBC",
"g	c #7BA8CD",
"h	c #EAF1F6",
"i	c #9EC0DB",
"j	c #C6DAEA",
"k	c #EDF4F8",
"l	c #1364A6",
"m	c #3178B0",
"n	c #F6F8FC",
"o	c #D0E0EE",
"p	c #A8C6DF",
"q	c #699CC4",
"r	c #3D80B5",
"s	c #DAE6F0",
"t	c #A2C2DD",
"u	c #C9DCEB",
"v	c #E9F2F8",
"w	c #075CA1",
"x	c #3E80B6",
"y	c #FBFCFE",
"z	c #DAE7F2",
"A	c #B6CFE4",
"B	c #9ABDD8",
"C	c #80ABCC",
"D	c #A7C5DE",
"E	c #B0CBE2",
"F	c #D4E3EF",
"G	c #BCD3E5",
"H	c #669BC4",
"I	c #ECF2F8",
"J	c #CADCEB",
"K	c #FEFEFF",
"L	c #D4E3EE",
"M	c #C4D8E9",
"N	c #E6EEF6",
"O	c #5A92C0",
"P	c #ADC9DF",
"Q	c #EFF4F9",
"R	c #FEFFFF",
"S	c #AFCAE0",
"T	c #1E6BA9",
"U	c #F8FAFC",
"V	c #8DB4D2",
"W	c #A5C4DC",
"X	c #88B0D1",
"Y	c #6498C2",
"                ",
"            .+  ",
"           @#$% ",
" &*       *=$-;>",
" ,')     !~{]--^",
"/(_:<   &[}|1--2",
"34567&   89~0a-b",
"cdefg    hijkl-m",
"nopqr&   stuvw-x",
"yzABC&  &DEFG--H",
" IJdK    LMNO--P",
" /QR      QS#-TU",
"           V$-W ",
"            XYR ",
"             &  ",
"                "};
