/* XPM */
static char * libelula_xpm[] = {
"32 32 256 2",
"  	c None",
". 	c #170104",
"+ 	c #130405",
"@ 	c #1E0201",
"# 	c #0D0705",
"$ 	c #2D0001",
"% 	c #220304",
"& 	c #080B07",
"* 	c #1B0602",
"= 	c #310002",
"- 	c #140810",
"; 	c #260408",
"> 	c #290401",
", 	c #190A03",
"' 	c #0F0C11",
") 	c #0F0E03",
"! 	c #390200",
"~ 	c #080F11",
"{ 	c #150D04",
"] 	c #0D0F0C",
"^ 	c #0D0E17",
"/ 	c #1C0B0E",
"( 	c #06120C",
"_ 	c #180D0E",
": 	c #140F0D",
"< 	c #340700",
"[ 	c #0A1307",
"} 	c #160E19",
"| 	c #220C0C",
"1 	c #280C02",
"2 	c #250D02",
"3 	c #111402",
"4 	c #300B00",
"5 	c #201003",
"6 	c #0A1803",
"7 	c #1B1117",
"8 	c #15140B",
"9 	c #1A1505",
"0 	c #1E1314",
"a 	c #21130F",
"b 	c #141714",
"c 	c #2A1113",
"d 	c #16171A",
"e 	c #3D0E01",
"f 	c #271314",
"g 	c #1B1713",
"h 	c #391301",
"i 	c #381309",
"j 	c #361415",
"k 	c #4B1100",
"l 	c #33170F",
"m 	c #560E03",
"n 	c #2C1A11",
"o 	c #221C24",
"p 	c #471602",
"q 	c #341A1F",
"r 	c #381C03",
"s 	c #431A02",
"t 	c #2E1F1F",
"u 	c #461C13",
"v 	c #621800",
"w 	c #242934",
"x 	c #322A1E",
"y 	c #5D2101",
"z 	c #5C200E",
"A 	c #3E281D",
"B 	c #562500",
"C 	c #542509",
"D 	c #46271F",
"E 	c #4B2910",
"F 	c #532713",
"G 	c #442E14",
"H 	c #54291F",
"I 	c #4F3003",
"J 	c #702803",
"K 	c #6E2D13",
"L 	c #752E00",
"M 	c #613225",
"N 	c #673313",
"O 	c #6A3405",
"P 	c #593911",
"Q 	c #63370E",
"R 	c #653521",
"S 	c #623731",
"T 	c #723526",
"U 	c #5B3C2E",
"V 	c #523F2B",
"W 	c #883305",
"X 	c #504340",
"Y 	c #5E403D",
"Z 	c #823A14",
"` 	c #803A1D",
" .	c #5B4525",
"..	c #654228",
"+.	c #873C09",
"@.	c #7A4008",
"#.	c #72412B",
"$.	c #77411F",
"%.	c #973A0F",
"&.	c #734134",
"*.	c #6F423B",
"=.	c #724520",
"-.	c #7C4416",
";.	c #944327",
">.	c #9C4411",
",.	c #96451E",
"'.	c #954711",
").	c #8F491D",
"!.	c #8B4B2F",
"~.	c #7B5038",
"{.	c #864D38",
"].	c #904C28",
"^.	c #85512C",
"/.	c #925013",
"(.	c #865420",
"_.	c #7B562E",
":.	c #875147",
"<.	c #725B4E",
"[.	c #AB511E",
"}.	c #795D41",
"|.	c #A95413",
"1.	c #A5532B",
"2.	c #A55235",
"3.	c #A5551F",
"4.	c #A2552A",
"5.	c #9D592B",
"6.	c #A05A1B",
"7.	c #835D54",
"8.	c #975D1D",
"9.	c #9D5937",
"0.	c #965A45",
"a.	c #925D39",
"b.	c #95602A",
"c.	c #8D6047",
"d.	c #8C6338",
"e.	c #B96229",
"f.	c #B4632E",
"g.	c #BB6422",
"h.	c #B56438",
"i.	c #B06826",
"j.	c #A96848",
"k.	c #AF6838",
"l.	c #B36931",
"m.	c #A96D28",
"n.	c #AE6942",
"o.	c #A76D2F",
"p.	c #A96C38",
"q.	c #A36F38",
"r.	c #AB6B57",
"s.	c #97734B",
"t.	c #A2714B",
"u.	c #BB6B4B",
"v.	c #D06936",
"w.	c #BE733A",
"x.	c #977B71",
"y.	c #CC722F",
"z.	c #A47965",
"A.	c #CB7238",
"B.	c #C8733E",
"C.	c #C77345",
"D.	c #9A7E62",
"E.	c #C9781A",
"F.	c #BC7A2F",
"G.	c #C07745",
"H.	c #C37837",
"I.	c #BB7A3D",
"J.	c #C07754",
"K.	c #D17726",
"L.	c #B97B46",
"M.	c #B37D44",
"N.	c #B87D37",
"O.	c #BA7A53",
"P.	c #C67B41",
"Q.	c #B8803F",
"R.	c #B28056",
"S.	c #A38559",
"T.	c #DE7B44",
"U.	c #D17F5F",
"V.	c #D88041",
"W.	c #CF8341",
"X.	c #D08349",
"Y.	c #D68152",
"Z.	c #C38847",
"`.	c #CF8451",
" +	c #DC8335",
".+	c #DA824C",
"++	c #CE8A45",
"@+	c #CC8A4B",
"#+	c #CA8960",
"$+	c #D88937",
"%+	c #C98D44",
"&+	c #D38762",
"*+	c #C18E55",
"=+	c #CD8B54",
"-+	c #C88D54",
";+	c #C18E66",
">+	c #D98B48",
",+	c #D78B50",
"'+	c #C2905F",
")+	c #D88B57",
"!+	c #CC904F",
"~+	c #C09177",
"{+	c #B6996B",
"]+	c #B99876",
"^+	c #EB9042",
"/+	c #EA9050",
"(+	c #E2934F",
"_+	c #E9915E",
":+	c #D4985E",
"<+	c #E89542",
"[+	c #DD9845",
"}+	c #E29460",
"|+	c #D69957",
"1+	c #DE9851",
"2+	c #E3965A",
"3+	c #DD9859",
"4+	c #DA9862",
"5+	c #E59376",
"6+	c #D89B52",
"7+	c #DD976E",
"8+	c #D29E63",
"9+	c #D19E6F",
"0+	c #BCA291",
"a+	c #EA9B55",
"b+	c #DDA05E",
"c+	c #DDA067",
"d+	c #F59E4A",
"e+	c #F99F60",
"f+	c #F6A258",
"g+	c #F3A16E",
"h+	c #F1A661",
"i+	c #E6A966",
"j+	c #EEA66F",
"k+	c #F9A463",
"l+	c #F1A768",
"m+	c #EAAB59",
"n+	c #E7AA6E",
"o+	c #F2A958",
"p+	c #F1A77F",
"q+	c #E6AC74",
"r+	c #D7B07D",
"s+	c #E0AF71",
"t+	c #E6AC7E",
"u+	c #EEB066",
"v+	c #E6B49F",
"w+	c #F4B57B",
"x+	c #DCBB91",
"y+	c #F6B773",
"z+	c #FEB47D",
"A+	c #F0B97B",
"B+	c #FBBE92",
"C+	c #ECC38D",
"D+	c #FFC082",
"E+	c #FDCE8E",
"F+	c #F6D5A0",
"G+	c #F8D6B1",
"                          s.9+                                  ",
"                          b.M.-+                                ",
"                          d.-+:+:+                              ",
"                          q.w+=+c+O.                            ",
"                          s+-+:+:+4+                            ",
"                          s+|+%+b+@+Z.                          ",
"                          8+n+n+c+l+|+                          ",
"                          8+n.i+L.1+@+L.                        ",
"                          6+G.3+@+l+)+`.                        ",
"                        i+p.=+y+3+(+}+G.                        ",
"                          j+G.y+%+a+,+B.                        ",
"          # }.D.        F+B+i+++h+f+      ].r.O.                ",
"          ' { , l S.a } : % n+m+h+      6.P.2+2+X.i+            ",
"        D.' - , t # ( & ( ) _.      E+)+_+=+w.`.l.@+m.          ",
"        V ( _ : ) ) ] & ~ ' _ F $.k.5+p+u.'.l.f.Y.G.3+          ",
"        1 8 | - ) ] ] # ~ ~ 6 @ a.&+k.G.5.`.h.g+)+C.m.          ",
"          /   . ] ] ] ~ ] ~ # n :.#.h.k+g._+4.}+3._+W.Q.        ",
"            {+z.^ { b : 0 / 8 } U u J.>+$+W.g+h.}+i.1+          ",
"          S.1   D ) { ] b : { & ' c :.J ++ +^+f+/++.i.          ",
"  G+C 1 4 U     D 5   ;+> | + ~ ] ) r 2.,.,.a+K.<+              ",
"                # 9 <       F } ( d d *.5.%.h.'.                ",
"        R.R.      *   =.      a.: ^ w - #.2.e.v.$+              ",
"              t.> +             < z j / # 4 2.W T.V.            ",
"                        s               % ' c &.5.[.            ",
"              a.    = e                   > , d *               ",
"                  !+@                         1 { 2 #+          ",
"                s   t.                          $ ~ : ;         ",
"                                                  ^./ 8 /       ",
"                                                      * _ ]     ",
"                                                      p+@ : 2   ",
"                                                            |   ",
"                                                                "};
