/* XPM */
static char * icon_bulmages_32x32_xpm[] = {
"32 32 536 2",
"  	c None",
". 	c #000000",
"+ 	c #393634",
"@ 	c #5F5550",
"# 	c #424143",
"$ 	c #484749",
"% 	c #4F4C4C",
"& 	c #5C4D46",
"* 	c #010101",
"= 	c #080707",
"- 	c #0E0E0D",
"; 	c #0F0E0E",
"> 	c #060505",
", 	c #020202",
"' 	c #0A0909",
") 	c #363437",
"! 	c #0D0F14",
"~ 	c #0E0D0E",
"{ 	c #0E0E11",
"] 	c #443C39",
"^ 	c #171717",
"/ 	c #0E0E0E",
"( 	c #090909",
"_ 	c #0D0D0D",
": 	c #252321",
"< 	c #6A6864",
"[ 	c #A09F9B",
"} 	c #060606",
"| 	c #3D3A35",
"1 	c #6B6861",
"2 	c #716C65",
"3 	c #3C3934",
"4 	c #111110",
"5 	c #423F3D",
"6 	c #111114",
"7 	c #070A08",
"8 	c #070A07",
"9 	c #100E10",
"0 	c #383635",
"a 	c #111111",
"b 	c #0A0A0A",
"c 	c #252323",
"d 	c #7A726C",
"e 	c #AFA99D",
"f 	c #A5A79D",
"g 	c #AAACA7",
"h 	c #030303",
"i 	c #040404",
"j 	c #171615",
"k 	c #6E6A5F",
"l 	c #B0AD99",
"m 	c #9D9D90",
"n 	c #8E897D",
"o 	c #5B564F",
"p 	c #484545",
"q 	c #0F1010",
"r 	c #080908",
"s 	c #070805",
"t 	c #0D0C0B",
"u 	c #2B231F",
"v 	c #191818",
"w 	c #1A1918",
"x 	c #131212",
"y 	c #181414",
"z 	c #5C5B5A",
"A 	c #868B8C",
"B 	c #636969",
"C 	c #9B9D9D",
"D 	c #070707",
"E 	c #312F2B",
"F 	c #827E75",
"G 	c #5E5C58",
"H 	c #2D2A29",
"I 	c #52423A",
"J 	c #4E4541",
"K 	c #101113",
"L 	c #080909",
"M 	c #0A0B09",
"N 	c #35332A",
"O 	c #726A5C",
"P 	c #504B47",
"Q 	c #3F3838",
"R 	c #2E2C2C",
"S 	c #232023",
"T 	c #1E1D23",
"U 	c #24242A",
"V 	c #221F23",
"W 	c #919091",
"X 	c #0C0C0C",
"Y 	c #171616",
"Z 	c #2C2626",
"` 	c #2D1E1F",
" .	c #201112",
"..	c #27110E",
"+.	c #3A2926",
"@.	c #100F13",
"#.	c #060909",
"$.	c #0F0D10",
"%.	c #616156",
"&.	c #9D9B88",
"*.	c #474542",
"=.	c #120E15",
"-.	c #1E1B1D",
";.	c #262325",
">.	c #100D12",
",.	c #110D13",
"'.	c #161016",
").	c #999799",
"!.	c #F6F6F6",
"~.	c #0F0F0F",
"{.	c #100A0B",
"].	c #211314",
"^.	c #271517",
"/.	c #1C0E11",
"(.	c #180C0A",
"_.	c #0E0A0D",
":.	c #0E0B11",
"<.	c #2E3334",
"[.	c #3F4648",
"}.	c #1B1C26",
"|.	c #444141",
"1.	c #59554E",
"2.	c #272626",
"3.	c #0E0D12",
"4.	c #100F15",
"5.	c #131018",
"6.	c #9D9C9F",
"7.	c #F8F8F8",
"8.	c #101010",
"9.	c #1B1718",
"0.	c #241A1E",
"a.	c #24161A",
"b.	c #191217",
"c.	c #0C0A0C",
"d.	c #130F13",
"e.	c #241E21",
"f.	c #0A080A",
"g.	c #585249",
"h.	c #78766D",
"i.	c #1C1D27",
"j.	c #696A69",
"k.	c #B1B3A6",
"l.	c #525250",
"m.	c #141218",
"n.	c #1C161B",
"o.	c #372F32",
"p.	c #B5B2B2",
"q.	c #FBFBFB",
"r.	c #2B2728",
"s.	c #2D2328",
"t.	c #23191E",
"u.	c #1E1820",
"v.	c #161015",
"w.	c #2A2225",
"x.	c #322C2C",
"y.	c #070605",
"z.	c #797365",
"A.	c #898A82",
"B.	c #1B1D22",
"C.	c #36393C",
"D.	c #5C6161",
"E.	c #323334",
"F.	c #423F42",
"G.	c #8A8485",
"H.	c #ADA7A6",
"I.	c #E4E2E2",
"J.	c #FDFDFD",
"K.	c #292627",
"L.	c #2F2426",
"M.	c #271E24",
"N.	c #27222B",
"O.	c #342F36",
"P.	c #403838",
"Q.	c #151515",
"R.	c #322C2A",
"S.	c #2D2D28",
"T.	c #434342",
"U.	c #797465",
"V.	c #77726B",
"W.	c #242124",
"X.	c #181113",
"Y.	c #676060",
"Z.	c #D8D6D5",
"`.	c #F4F4F4",
" +	c #FAFAFA",
".+	c #121111",
"++	c #120E0F",
"@+	c #332A2C",
"#+	c #4E4549",
"$+	c #4A484C",
"%+	c #3B3737",
"&+	c #2C2929",
"*+	c #201E20",
"=+	c #0A0B0C",
"-+	c #353432",
";+	c #D5D2BD",
">+	c #B4B1A6",
",+	c #342B2D",
"'+	c #1B0E12",
")+	c #665C5D",
"!+	c #D7D4D4",
"~+	c #050505",
"{+	c #0E0C0C",
"]+	c #363231",
"^+	c #1B1A1A",
"/+	c #433D3D",
"(+	c #1C181C",
"_+	c #121212",
":+	c #3E3A36",
"<+	c #232426",
"[+	c #828B88",
"}+	c #737A7A",
"|+	c #201C21",
"1+	c #130B0F",
"2+	c #645C5D",
"3+	c #D9D6D6",
"4+	c #F9F9F9",
"5+	c #1F1E1D",
"6+	c #131211",
"7+	c #3E3739",
"8+	c #A49F8D",
"9+	c #B2AD9B",
"0+	c #222122",
"a+	c #35383D",
"b+	c #383A3F",
"c+	c #2E2B2B",
"d+	c #181215",
"e+	c #726B6E",
"f+	c #E7E5E5",
"g+	c #292524",
"h+	c #262120",
"i+	c #1A181E",
"j+	c #211E23",
"k+	c #383636",
"l+	c #1A1415",
"m+	c #090A07",
"n+	c #DEDAC7",
"o+	c #A8AB9F",
"p+	c #202327",
"q+	c #393A44",
"r+	c #595859",
"s+	c #C3BFB2",
"t+	c #746A62",
"u+	c #797072",
"v+	c #E6E6E6",
"w+	c #F3F3F3",
"x+	c #0E0707",
"y+	c #120E10",
"z+	c #26262C",
"A+	c #414248",
"B+	c #353034",
"C+	c #110F10",
"D+	c #0A0C09",
"E+	c #1E2727",
"F+	c #2E3740",
"G+	c #373A44",
"H+	c #4C4E57",
"I+	c #6C6D6B",
"J+	c #E2E1D5",
"K+	c #887C76",
"L+	c #6C5F60",
"M+	c #D5D5D5",
"N+	c #2B2725",
"O+	c #2A2626",
"P+	c #17151B",
"Q+	c #2B2935",
"R+	c #2F313E",
"S+	c #1C1D25",
"T+	c #110F15",
"U+	c #08090C",
"V+	c #100E0C",
"W+	c #767467",
"X+	c #92918B",
"Y+	c #494F57",
"Z+	c #282E35",
"`+	c #3E4649",
" @	c #4C4B4C",
".@	c #837C7E",
"+@	c #BBBBBB",
"@@	c #D2D2D2",
"#@	c #232121",
"$@	c #262225",
"%@	c #16141E",
"&@	c #2A2835",
"*@	c #212129",
"=@	c #0D0D11",
"-@	c #07070B",
";@	c #070909",
">@	c #151412",
",@	c #EDECDC",
"'@	c #CCCEC4",
")@	c #2C2F35",
"!@	c #0C0D13",
"~@	c #3A3838",
"{@	c #848282",
"]@	c #A3A3A3",
"^@	c #BFBFBF",
"/@	c #080706",
"(@	c #252121",
"_@	c #221E21",
":@	c #171521",
"<@	c #1A1B2B",
"[@	c #30272D",
"}@	c #1A1718",
"|@	c #0B0B0C",
"1@	c #070706",
"2@	c #111210",
"3@	c #C3C2B9",
"4@	c #969992",
"5@	c #070A0D",
"6@	c #070809",
"7@	c #08090B",
"8@	c #2B2A2A",
"9@	c #6C6969",
"0@	c #888585",
"a@	c #AFAEAE",
"b@	c #2D2624",
"c@	c #3A3131",
"d@	c #1C171E",
"e@	c #100F18",
"f@	c #11111A",
"g@	c #343235",
"h@	c #454243",
"i@	c #201E24",
"j@	c #090A0D",
"k@	c #0A0C0F",
"l@	c #222830",
"m@	c #0C0F18",
"n@	c #07090C",
"o@	c #090A0E",
"p@	c #090C0E",
"q@	c #141518",
"r@	c #352C30",
"s@	c #4D4345",
"t@	c #868181",
"u@	c #C6C4C4",
"v@	c #2A2927",
"w@	c #4B4947",
"x@	c #545250",
"y@	c #4F4E4F",
"z@	c #404245",
"A@	c #25252B",
"B@	c #1C171D",
"C@	c #2F2C2D",
"D@	c #3B3535",
"E@	c #27252B",
"F@	c #0A0B0E",
"G@	c #0C0C12",
"H@	c #12121A",
"I@	c #0F0F17",
"J@	c #0A0A12",
"K@	c #0A0A0F",
"L@	c #0E0F15",
"M@	c #12141C",
"N@	c #16161D",
"O@	c #14131A",
"P@	c #3B363A",
"Q@	c #A29FA0",
"R@	c #1F1E1E",
"S@	c #74716C",
"T@	c #A09E96",
"U@	c #838885",
"V@	c #959895",
"W@	c #848685",
"X@	c #49494C",
"Y@	c #262122",
"Z@	c #363334",
"`@	c #231D22",
" #	c #060708",
".#	c #0D0C12",
"+#	c #0E0D15",
"@#	c #0F0E15",
"##	c #0C0B10",
"$#	c #0C090D",
"%#	c #0B090C",
"&#	c #080A0C",
"*#	c #1A1318",
"=#	c #969193",
"-#	c #272727",
";#	c #4B4A47",
">#	c #65645F",
",#	c #65625F",
"'#	c #8E877F",
")#	c #8D8985",
"!#	c #4E4B4C",
"~#	c #3D3A37",
"{#	c #343434",
"]#	c #1A161B",
"^#	c #151319",
"/#	c #131319",
"(#	c #0E0C14",
"_#	c #140B0F",
":#	c #201D21",
"<#	c #0D0A0C",
"[#	c #191417",
"}#	c #221A1E",
"|#	c #0C0A10",
"1#	c #0F0D16",
"2#	c #352B32",
"3#	c #B1ACAD",
"4#	c #2F2F2F",
"5#	c #313030",
"6#	c #302A29",
"7#	c #382E2B",
"8#	c #373230",
"9#	c #4B433E",
"0#	c #7F796E",
"a#	c #56564F",
"b#	c #151518",
"c#	c #26252D",
"d#	c #34333E",
"e#	c #141019",
"f#	c #403534",
"g#	c #2F2E2E",
"h#	c #181818",
"i#	c #373433",
"j#	c #383133",
"k#	c #150F18",
"l#	c #130F17",
"m#	c #141119",
"n#	c #726C6F",
"o#	c #DBD9D9",
"p#	c #333333",
"q#	c #282828",
"r#	c #191919",
"s#	c #585349",
"t#	c #58554D",
"u#	c #4E4E48",
"v#	c #19181D",
"w#	c #3A3B45",
"x#	c #3D3E46",
"y#	c #100C10",
"z#	c #6D6765",
"A#	c #303030",
"B#	c #2D2B2B",
"C#	c #4D4949",
"D#	c #2D2A2F",
"E#	c #191119",
"F#	c #1D131C",
"G#	c #484248",
"H#	c #B7B5B6",
"I#	c #F3F2F2",
"J#	c #1D1D1D",
"K#	c #141414",
"L#	c #272121",
"M#	c #6B655D",
"N#	c #3A3733",
"O#	c #3F403D",
"P#	c #282931",
"Q#	c #474B5A",
"R#	c #272831",
"S#	c #100E0F",
"T#	c #7A7675",
"U#	c #4A4A4A",
"V#	c #42403F",
"W#	c #726D6B",
"X#	c #626163",
"Y#	c #282127",
"Z#	c #29191D",
"`#	c #7B6E70",
" $	c #DAD7D7",
".$	c #262626",
"+$	c #222222",
"@$	c #323131",
"#$	c #393130",
"$$	c #544C46",
"%$	c #58544B",
"&$	c #1F1F2A",
"*$	c #222330",
"=$	c #2C2D30",
"-$	c #8B8888",
";$	c #6B6B6B",
">$	c #555554",
",$	c #7B7672",
"'$	c #9C968E",
")$	c #605D5C",
"!$	c #726B68",
"~$	c #A69D9B",
"{$	c #DBD8D8",
"]$	c #2C2C2C",
"^$	c #4F4E4D",
"/$	c #4C4545",
"($	c #302B2E",
"_$	c #353030",
":$	c #171518",
"<$	c #0E0D14",
"[$	c #4B4A4A",
"}$	c #787973",
"|$	c #8D887B",
"1$	c #B8B5B2",
"2$	c #929292",
"3$	c #797979",
"4$	c #807F7E",
"5$	c #989591",
"6$	c #797774",
"7$	c #A0A098",
"8$	c #D0CFC6",
"9$	c #E9E7E5",
"0$	c #5C5B5B",
"a$	c #424042",
"b$	c #1B1921",
"c$	c #131118",
"d$	c #0D0B0F",
"e$	c #767369",
"f$	c #323132",
"g$	c #73655B",
"h$	c #D2D1D0",
"i$	c #B9B9B9",
"j$	c #A1A1A1",
"k$	c #9C9C9C",
"l$	c #9F9A97",
"m$	c #786F6B",
"n$	c #8E8B83",
"o$	c #D9D7CE",
"p$	c #F6F4F2",
"q$	c #A6A4A3",
"r$	c #999792",
"s$	c #4D4A4E",
"t$	c #211E26",
"u$	c #161219",
"v$	c #2A2929",
"w$	c #716E6E",
"x$	c #DBD9D7",
"y$	c #E8E8E8",
"z$	c #D8D8D8",
"A$	c #C5C5C5",
"B$	c #C8C7C6",
"C$	c #CECCCB",
"D$	c #DDDDDB",
"E$	c #F3F2F1",
"F$	c #F9F8F8",
"G$	c #F0EFF0",
"H$	c #EDEDED",
"I$	c #ECECED",
"J$	c #F5F5F5",
"K$	c #FFFFFF",
"                      . . . . . .                               ",
"              . . . . . . . . + @ # $ % & . . .                 ",
"            . * * = - ; > , ' ) ! ~ { ] ^ / ( _ : < [           ",
"            * * } | 1 2 3 4 5 6 7 8 9 0 a b ( c d e f g         ",
"            h i j k l m n o p q r s t u v w x y z A B C         ",
"              D } E F G H I J K L M N O P Q R S T U V W         ",
"              X b Y Z `  ...+.@.#.$.%.&.*.=.-.;.>.,.'.).!.      ",
"              ~._ b {.].^./.(._.{ :.<.[.}.|.1.2.3.4.5.6.7.      ",
"              ~.8._ 9.0.a.b.c.d.e.f.g.h.i.j.k.l.m.n.o.p.q.      ",
"                a 8.r.s.t.u.v.w.x.y.z.A.B.C.D.E.F.G.H.I.J.      ",
"                ~.~.K.L.M.N.O.P.Q.R.S.T.U.V.W.X.Y.Z.`. +J.      ",
"                b X .+++@+#+$+%+&+*+=+-+;+>+,+'+)+!+7.J.        ",
"              h ~+D } h {+]+^+/+(+_+:+<+[+}+|+1+2+3+4+J.        ",
"              * , h h , 5+6+* 7+$.8+9+0+a+b+c+d+e+f+7.          ",
"            . * * , g+h+i+j+k+l+m+n+o+p+q+r+s+t+u+v+w+          ",
"            . * * * x+y+z+A+B+C+D+E+F+G+H+I+J+K+L+M+v+          ",
"          . * * * N+O+P+Q+R+S+T+U+V+W+X+Y+Z+`+ @.@+@@@          ",
"          . * * * #@$@%@&@*@=@-@;@>@,@'@)@!@3.~@{@]@^@          ",
"        . * * * /@(@_@:@<@[@}@|@1@2@3@4@5@6@7@8@9@0@a@          ",
"        * * , D b@c@d@e@f@g@h@i@j@k@l@m@n@o@p@q@r@s@t@u@        ",
"        h ( v@w@x@y@z@A@B@C@D@E@F@G@H@I@J@K@L@M@N@O@P@Q@        ",
"          R@S@T@U@V@W@X@Y@Z@`@m. #.#+#@###$#%#&#7@##*#=#        ",
"          -#;#>#,#'#)#!#~#{#]#^#/#(#_#:#<#[#}###|#1#2#3#4+      ",
"            4#5#6#7#8#9#0#a#b#c#d#e#f#g#h#i#j#k#l#m#n#o#q.      ",
"            p#q#r#/ ^ s#t#u#v#w#x#y#z#A#B#C#D#E#F#G#H#I#q.      ",
"            A#-#J#K#L#M#N#O#P#Q#R#S#T#U#V#W#X#Y#Z#`# $7.J.      ",
"              .$+$@$#$$$%$A#&$*$=$%$-$;$>$,$'$)$!$~${$4+        ",
"                ]$^$/$($_$:$<$[$}$|$1$2$3$4$5$6$7$8$9$ +        ",
"                  0$W#a$b$c$d$e$f$g$h$i$j$k$l$m$n$o$p$J.        ",
"                    q$r$s$t$u$v$w$x$y$z$A$^@B$C$D$E$q.J.        ",
"                      F$G$H$I$H$J$K$K$        K$K$K$K$          ",
"                        K$K$K$K$K$K$                            "};
