/* XPM */
static char * icon_bulmatpv_16x16_xpm[] = {
"16 16 113 2",
"  	c None",
". 	c #654727",
"+ 	c #9F7347",
"@ 	c #674827",
"# 	c #D79960",
"$ 	c #CB9C74",
"% 	c #97774D",
"& 	c #CF9353",
"* 	c #D6965A",
"= 	c #CEBCA8",
"- 	c #8D6B44",
"; 	c #D89A61",
"> 	c #D9965A",
", 	c #D2A274",
"' 	c #AA7843",
") 	c #D89459",
"! 	c #DF9757",
"~ 	c #D28653",
"{ 	c #EBEBEB",
"] 	c #614D3A",
"^ 	c #C79B73",
"/ 	c #DA9859",
"( 	c #E69C54",
"_ 	c #E6BEA2",
": 	c #D2BFB5",
"< 	c #8F6552",
"[ 	c #322924",
"} 	c #170A06",
"| 	c #443023",
"1 	c #11100F",
"2 	c #130C08",
"3 	c #C49B6E",
"4 	c #F8E5D4",
"5 	c #EAC9AB",
"6 	c #C77C44",
"7 	c #D58950",
"8 	c #CD884B",
"9 	c #876D4F",
"0 	c #251C11",
"a 	c #180C0E",
"b 	c #0E0E05",
"c 	c #0C0C09",
"d 	c #0A0E11",
"e 	c #251409",
"f 	c #A3633C",
"g 	c #D1865C",
"h 	c #AF6436",
"i 	c #C47441",
"j 	c #CD7E4D",
"k 	c #D0AE8C",
"l 	c #322C2D",
"m 	c #8E7767",
"n 	c #0F0E0D",
"o 	c #0F1110",
"p 	c #140F10",
"q 	c #19110E",
"r 	c #663A2D",
"s 	c #D2824E",
"t 	c #D3803E",
"u 	c #CB7C4C",
"v 	c #C87841",
"w 	c #D7A572",
"x 	c #F1F1F1",
"y 	c #2F1305",
"z 	c #593D29",
"A 	c #766D6A",
"B 	c #2F1B11",
"C 	c #77695B",
"D 	c #1D0E0C",
"E 	c #0E0B08",
"F 	c #150E0D",
"G 	c #753A20",
"H 	c #B6662E",
"I 	c #E79145",
"J 	c #D59866",
"K 	c #E9D7C6",
"L 	c #FDFDFD",
"M 	c #A7886D",
"N 	c #CDCDCD",
"O 	c #322923",
"P 	c #9C8479",
"Q 	c #F9F9F9",
"R 	c #785D52",
"S 	c #0F1212",
"T 	c #2F2226",
"U 	c #934A26",
"V 	c #B55E2A",
"W 	c #F2DEC9",
"X 	c #AB9889",
"Y 	c #3B2A29",
"Z 	c #DDDDDD",
"` 	c #A5968E",
" .	c #82655E",
"..	c #8F8283",
"+.	c #1C0806",
"@.	c #723620",
"#.	c #C06934",
"$.	c #9B8369",
"%.	c #421F1C",
"&.	c #978B8A",
"*.	c #4D423F",
"=.	c #534640",
"-.	c #DBC9BD",
";.	c #584439",
">.	c #AE9A8B",
",.	c #5C453D",
"'.	c #1B0C0C",
").	c #686263",
"!.	c #A08579",
"~.	c #160B0A",
"{.	c #776E6A",
"].	c #D4D4D4",
"^.	c #AEA7A7",
"            . +                 ",
"            @ # $               ",
"            % & * =             ",
"            - ; > ,             ",
"            ' ) ! ~ {           ",
"      ]     ^ / ( _ : <         ",
"    [ } | 1 2 3 4 5 6 7 8 9     ",
"    0 a b c d e f g h i j k     ",
"    l m n o p q r s t u v w x   ",
"  y z A B C D E F G H I J K L   ",
"    M N O P Q R S T U V W Q     ",
"      X Y Z `    ...+.@.#.Z     ",
"        $.%.        &.*.=.-.    ",
"        ;.>.            ,.'.).  ",
"                          !.~.{.",
"                            ].^."};
