/* XPM */
static char * icon_bulmacont_16x16_xpm[] = {
"16 16 100 2",
"  	c None",
". 	c #7D6557",
"+ 	c #8F7362",
"@ 	c #866A59",
"# 	c #8F6B58",
"$ 	c #98765E",
"% 	c #6D6258",
"& 	c #887263",
"* 	c #635E5C",
"= 	c #808080",
"- 	c #858585",
"; 	c #6A6A6A",
"> 	c #5B514B",
", 	c #9C7D69",
"' 	c #787878",
") 	c #666666",
"! 	c #605D5B",
"~ 	c #3F3F3F",
"{ 	c #675244",
"] 	c #A27C62",
"^ 	c #5F5C5A",
"/ 	c #736059",
"( 	c #AB886F",
"_ 	c #A3755B",
": 	c #865F4B",
"< 	c #855F46",
"[ 	c #826148",
"} 	c #8C6850",
"| 	c #7D6756",
"1 	c #876D5A",
"2 	c #6D5F58",
"3 	c #756257",
"4 	c #795746",
"5 	c #825E45",
"6 	c #86644A",
"7 	c #805741",
"8 	c #7A5743",
"9 	c #9A7762",
"0 	c #8A7870",
"a 	c #626262",
"b 	c #90654C",
"c 	c #8D6650",
"d 	c #775946",
"e 	c #544F4C",
"f 	c #6E6E6E",
"g 	c #9B9B9B",
"h 	c #675A51",
"i 	c #604E43",
"j 	c #9E7159",
"k 	c #90624C",
"l 	c #805843",
"m 	c #6F5142",
"n 	c #785D4D",
"o 	c #7F6F65",
"p 	c #7C7C7C",
"q 	c #75655A",
"r 	c #91735E",
"s 	c #9C6D53",
"t 	c #886A58",
"u 	c #7F523B",
"v 	c #805A42",
"w 	c #8A644A",
"x 	c #865C48",
"y 	c #88604B",
"z 	c #8B7061",
"A 	c #877B75",
"B 	c #79675E",
"C 	c #766D68",
"D 	c #5E5E5E",
"E 	c #6A4B38",
"F 	c #755842",
"G 	c #735542",
"H 	c #67564B",
"I 	c #88766C",
"J 	c #9C8070",
"K 	c #978E8A",
"L 	c #737373",
"M 	c #735441",
"N 	c #5C422D",
"O 	c #634833",
"P 	c #685950",
"Q 	c #A4A4A4",
"R 	c #ADADAD",
"S 	c #C3C3C3",
"T 	c #654836",
"U 	c #4B2F1E",
"V 	c #513620",
"W 	c #5D524E",
"X 	c #C0C0C0",
"Y 	c #4F3B2C",
"Z 	c #563623",
"` 	c #4F3423",
" .	c #86817E",
"..	c #CCCCCC",
"+.	c #4A4644",
"@.	c #4F392D",
"#.	c #635650",
"$.	c #B5B5B5",
"%.	c #B9B9B9",
"&.	c #DADADA",
"                                ",
"                                ",
"      . + @ # $ %               ",
"    & * = - ; > , '             ",
"        ) ! ~ { ] ^             ",
"      / ( _ : < [ } | 1         ",
"        2 3 4 5 6 7 8 9 0       ",
"          a ~ b c d e f g       ",
"        h i j k l m n o p       ",
"      q r s t u v w x y z A     ",
"        B C D E F G H I J K     ",
"            L M N O P Q R S     ",
"              T U V W X         ",
"              Y Z `  ...        ",
"              +.@.#.$.          ",
"                  %.&.          "};
