/* XPM */
static char * icon_bulmasetup_32x32_xpm[] = {
"32 32 243 2",
"  	c #FFFFFF",
". 	c #AAC8DD",
"+ 	c #6196C0",
"@ 	c #FBFDFE",
"# 	c #085CA1",
"$ 	c #00589F",
"% 	c #78A6C9",
"& 	c #FEFFFF",
"* 	c #ABC8DD",
"= 	c #085CA0",
"- 	c #0058A0",
"; 	c #04599F",
"> 	c #B3CEE1",
", 	c #B2CCDF",
"' 	c #085BA0",
") 	c #206BA7",
"! 	c #F0F6FA",
"~ 	c #FBFCFE",
"{ 	c #FBFCFD",
"] 	c #D3E3EE",
"^ 	c #1564A5",
"/ 	c #7DA9CB",
"( 	c #F8FAFC",
"_ 	c #E9F1F7",
": 	c #EDF3F8",
"< 	c #F2F7FA",
"[ 	c #E5EEF5",
"} 	c #F3F7FB",
"| 	c #B2CDE0",
"1 	c #03599F",
"2 	c #1463A3",
"3 	c #ECF4F8",
"4 	c #FCFDFE",
"5 	c #EDF3F9",
"6 	c #DDE8F3",
"7 	c #CDDEEC",
"8 	c #DFEAF2",
"9 	c #EAF1F7",
"0 	c #CADCEB",
"a 	c #D7E5F1",
"b 	c #E7EFF6",
"c 	c #F6FAFC",
"d 	c #5E94BF",
"e 	c #97BAD5",
"f 	c #E2ECF4",
"g 	c #D0E1EE",
"h 	c #C0D6E8",
"i 	c #B1CCE2",
"j 	c #D0E0ED",
"k 	c #E1EBF4",
"l 	c #AECAE0",
"m 	c #BAD2E6",
"n 	c #CBDDEC",
"o 	c #DCE8F2",
"p 	c #D9E7F1",
"q 	c #095CA0",
"r 	c #3C7EB3",
"s 	c #EAF1F8",
"t 	c #D8E5F0",
"u 	c #C6D9EA",
"v 	c #B5CEE4",
"w 	c #A4C4DE",
"x 	c #96B9D7",
"y 	c #CDDFEB",
"z 	c #F7FAFC",
"A 	c #98BAD7",
"B 	c #9FC0DB",
"C 	c #AFCBE1",
"D 	c #D2E1EE",
"E 	c #E4EDF5",
"F 	c #F6F9FC",
"G 	c #528DBB",
"H 	c #095B9E",
"I 	c #EBF4F9",
"J 	c #E3EDF5",
"K 	c #BDD4E6",
"L 	c #ABC8E0",
"M 	c #99BDD9",
"N 	c #A1C2DA",
"O 	c #1D68A5",
"P 	c #88B1CF",
"Q 	c #CFE0EC",
"R 	c #94B8D8",
"S 	c #A5C4DE",
"T 	c #B7D0E5",
"U 	c #CADCEC",
"V 	c #DDE8F2",
"W 	c #F0F5F9",
"X 	c #A6C4DB",
"Y 	c #B8D0E0",
"Z 	c #F1F5FA",
"` 	c #DDE9F3",
" .	c #B6D0E4",
"..	c #A4C3DD",
"+.	c #6197C0",
"@.	c #2870AA",
"#.	c #F6F9FB",
"$.	c #FCFEFE",
"%.	c #9FBFDA",
"&.	c #9DBFDB",
"*.	c #B0CBE2",
"=.	c #C3D8E9",
"-.	c #D6E4F0",
";.	c #DDEAF2",
">.	c #05599E",
",.	c #8FB5D2",
"'.	c #FDFEFF",
").	c #D9E6F1",
"!.	c #C5D9EA",
"~.	c #9EC0DB",
"{.	c #A6C6DD",
"].	c #1967A6",
"^.	c #01589F",
"/.	c #C2D7E6",
"(.	c #97BBD8",
"_.	c #BED4E7",
":.	c #D2E2EF",
"<.	c #E6EFF6",
"[.	c #F5FAFD",
"}.	c #1363A4",
"|.	c #70A1C8",
"1.	c #EBF2F8",
"2.	c #D7E4F0",
"3.	c #C3D7E8",
"4.	c #AFCAE1",
"5.	c #9BBEDA",
"6.	c #A1C3DA",
"7.	c #04589D",
"8.	c #03589D",
"9.	c #F0F7FB",
"0.	c #D4E3EE",
"a.	c #94B9D7",
"b.	c #A8C6DF",
"c.	c #BCD3E6",
"d.	c #D0E0EE",
"e.	c #256FAB",
"f.	c #6298C0",
"g.	c #EBF1F8",
"h.	c #AECAE1",
"i.	c #9ABDDA",
"j.	c #A0C2DA",
"k.	c #03579D",
"l.	c #04589E",
"m.	c #D5E3EE",
"n.	c #A7C6DF",
"o.	c #BBD3E6",
"p.	c #2871AC",
"q.	c #FDFDFE",
"r.	c #ECF2F8",
"s.	c #D8E5F1",
"t.	c #C4D8E9",
"u.	c #A7C6DD",
"v.	c #1262A2",
"w.	c #BBD3E4",
"x.	c #C6D9E8",
"y.	c #96BAD8",
"z.	c #AAC7E0",
"A.	c #BDD4E7",
"B.	c #D1E1EE",
"C.	c #F6FAFD",
"D.	c #1766A5",
"E.	c #6D9FC7",
"F.	c #EFF4F9",
"G.	c #DBE8F2",
"H.	c #C8DBEB",
"I.	c #B4CEE3",
"J.	c #A1C2DC",
"K.	c #97BAD6",
"L.	c #5590BC",
"M.	c #397CB1",
"N.	c #A3C3DB",
"O.	c #C1D6E8",
"P.	c #D5E3EF",
"Q.	c #E8F0F7",
"R.	c #E2EEF5",
"S.	c #065A9E",
"T.	c #89B1D0",
"U.	c #F4F8FB",
"V.	c #E0EBF4",
"W.	c #CEDFED",
"X.	c #BBD2E6",
"Y.	c #9EC0D8",
"Z.	c #0E60A2",
"`.	c #4E89B8",
" +	c #DAE7F0",
".+	c #90B6D6",
"++	c #A2C2DD",
"@+	c #C7DAEA",
"#+	c #DAE7F1",
"$+	c #AFCBDF",
"%+	c #B0CBDD",
"&+	c #F9FBFD",
"*+	c #E7EFF7",
"=+	c #D5E3F0",
"-+	c #C3D7E9",
";+	c #A0C1DC",
">+	c #93B8D6",
",+	c #ADC9DC",
"'+	c #97B9D6",
")+	c #BDD3E7",
"!+	c #F4F7FB",
"~+	c #6197C1",
"{+	c #E4EFF5",
"]+	c #FEFEFF",
"^+	c #F0F5FA",
"/+	c #DEE9F3",
"(+	c #CCDEED",
"_+	c #ACC9E0",
":+	c #BCD2E4",
"<+	c #D0E0EC",
"[+	c #A7C5DE",
"}+	c #B6CFE4",
"|+	c #E3EEF5",
"1+	c #1060A2",
"2+	c #3176AE",
"3+	c #FDFFFF",
"4+	c #D7E5F0",
"5+	c #C8DBEA",
"6+	c #CFDFEC",
"7+	c #DCE8F1",
"8+	c #D2E2EE",
"9+	c #E2ECF5",
"0+	c #73A3C7",
"a+	c #E3ECF4",
"b+	c #FDFEFE",
"c+	c #E8F0F6",
"d+	c #DFEAF3",
"e+	c #C6DBE9",
"f+	c #0C5EA1",
"g+	c #E2EDF4",
"h+	c #256EA9",
"i+	c #6A9DC3",
"j+	c #A4C3D9",
"k+	c #02589F",
"l+	c #E5EFF5",
"m+	c #8FB6D3",
"n+	c #9BBDD7",
"o+	c #8FB5D3",
"p+	c #5A92BD",
"q+	c #8EB5D3",
"r+	c #4180B1",
"s+	c #F3F8FB",
"t+	c #F8FBFD",
"                                                                ",
"                                                                ",
"                                                  . + @         ",
"                                                . # $ % &       ",
"                                              * = - - ; >       ",
"                                            , ' - - - - ) !     ",
"      & ~                                 { ] ^ - - - - - /     ",
"      ( _ :                             < [ } | 1 - - - - 2 3   ",
"    4 5 6 7 8                         9 0 a b c d - - - - - e   ",
"    } f g h i j &                   k l m n o 5 p q - - - - r & ",
"  ~ s t u v w x y &               z A B C h D E F G - - - - H I ",
"  F J j K L M N O P &               Q R S T U V W X - - - - - Y ",
"& Z ` U  ...x +.- @.#.              $.%.&.*.=.-.9 ;.>.- - - - ,.",
"'.5 ).!.i ~.{.].^.*                   /.(.L _.:.<.[.}.- - - - |.",
"4 1.2.3.4.5.6.7.8.9.                  0.a.b.c.d.E z e.- - - - f.",
"4 g.2.3.h.i.j.k.l.[.                  m.a.n.o.j E c p.- - - - + ",
"q.r.s.t.*.&.u.v.^.w.                  x.y.z.A.B.[ C.D.- - - - E.",
"& F.G.H.I.J.K.L.- M.z               & N.i.h.O.P.Q.R.S.- - - - T.",
"  U.V.W.X.b.y.Y.Z.`.c                +.+++I.@+#+5 $+- - - - - %+",
"  &+*+=+-+i ;+>+,+c               z '+i.L )+W.k !+~+- - - - >.{+",
"  ]+^+/+(+c._+:+@                   <+[+}+@+t _ |+1+- - - - 2+3+",
"    &+Q.4+5+6+4                       7+3.8+9+} 0+- - - - - P   ",
"    & U.E a+b+                          c+d+F.e+= - - - - f+g+  ",
"      b+#.]+                              #.g+h+- - - - - i+    ",
"                                            j+k+- - - - 2 l+    ",
"                                              m+1 - - ^.n+      ",
"                                              & o+1 - p+3+      ",
"                                                & q+r+s+        ",
"                                                  & t+          ",
"                                                                ",
"                                                                ",
"                                                                "};
