/* XPM */
static char * icon_bulmatpv_32x32_xpm[] = {
"32 32 244 2",
"  	c None",
". 	c #000000",
"+ 	c #97734B",
"@ 	c #D19E6F",
"# 	c #0C0C0C",
"$ 	c #95602A",
"% 	c #B37D44",
"& 	c #C88D54",
"* 	c #ACACAC",
"= 	c #8C6338",
"- 	c #D4985E",
"; 	c #A36F38",
"> 	c #F4B57B",
", 	c #CD8B54",
"' 	c #DDA067",
") 	c #BA7A53",
"! 	c #E0AF71",
"~ 	c #DA9862",
"{ 	c #DDDDDD",
"] 	c #D69957",
"^ 	c #C98D44",
"/ 	c #DDA05E",
"( 	c #CC8A4B",
"_ 	c #C38847",
": 	c #D29E63",
"< 	c #E7AA6E",
"[ 	c #F1A768",
"} 	c #E0E0E0",
"| 	c #0B0B0B",
"1 	c #AE6942",
"2 	c #E6A966",
"3 	c #B97B46",
"4 	c #DE9851",
"5 	c #0E0E0E",
"6 	c #D89B52",
"7 	c #C07745",
"8 	c #DD9859",
"9 	c #D88B57",
"0 	c #CF8451",
"a 	c #F5F5F5",
"b 	c #030303",
"c 	c #A96C38",
"d 	c #F6B773",
"e 	c #E2934F",
"f 	c #E29460",
"g 	c #E7E7E7",
"h 	c #040404",
"i 	c #090909",
"j 	c #070707",
"k 	c #2A2A2A",
"l 	c #EEA66F",
"m 	c #EA9B55",
"n 	c #D78B50",
"o 	c #C8733E",
"p 	c #CACACA",
"q 	c #5B5B5B",
"r 	c #191919",
"s 	c #0D0705",
"t 	c #795D41",
"u 	c #9A7E62",
"v 	c #434343",
"w 	c #222222",
"x 	c #0F0F0F",
"y 	c #F6D5A0",
"z 	c #FBBE92",
"A 	c #CE8A45",
"B 	c #F1A661",
"C 	c #F6A258",
"D 	c #F4F4F4",
"E 	c #D3D3D3",
"F 	c #959595",
"G 	c #904C28",
"H 	c #AB6B57",
"I 	c #4E4E4E",
"J 	c #010101",
"K 	c #0F0C11",
"L 	c #150D04",
"M 	c #190A03",
"N 	c #33170F",
"O 	c #A38559",
"P 	c #21130F",
"Q 	c #160E19",
"R 	c #140F0D",
"S 	c #220304",
"T 	c #EAAB59",
"U 	c #ECECEC",
"V 	c #BABABA",
"W 	c #757575",
"X 	c #A05A1B",
"Y 	c #C67B41",
"Z 	c #E3965A",
"` 	c #D08349",
" .	c #140810",
"..	c #2E1F1F",
"+.	c #06120C",
"@.	c #080B07",
"#.	c #0F0E03",
"$.	c #7B562E",
"%.	c #F1F1F1",
"&.	c #D6D6D6",
"*.	c #ABABAB",
"=.	c #FDCE8E",
"-.	c #E9915E",
";.	c #BE733A",
">.	c #B36931",
",.	c #A96D28",
"'.	c #523F2B",
").	c #180D0E",
"!.	c #0D0F0C",
"~.	c #080F11",
"{.	c #532713",
"].	c #77411F",
"^.	c #AF6838",
"/.	c #E59376",
"(.	c #F1A77F",
"_.	c #BB6B4B",
":.	c #954711",
"<.	c #B4632E",
"[.	c #D68152",
"}.	c #EFEFEF",
"|.	c #280C02",
"1.	c #15140B",
"2.	c #220C0C",
"3.	c #0A1803",
"4.	c #1E0201",
"5.	c #925D39",
"6.	c #D38762",
"7.	c #9D592B",
"8.	c #B56438",
"9.	c #F3A16E",
"0.	c #C77345",
"a.	c #F0F0F0",
"b.	c #565656",
"c.	c #1C0B0E",
"d.	c #E4E4E4",
"e.	c #170104",
"f.	c #2C1A11",
"g.	c #875147",
"h.	c #72412B",
"i.	c #F9A463",
"j.	c #BB6422",
"k.	c #A2552A",
"l.	c #A5551F",
"m.	c #CF8341",
"n.	c #B8803F",
"o.	c #262626",
"p.	c #747474",
"q.	c #B6996B",
"r.	c #A47965",
"s.	c #0D0E17",
"t.	c #141714",
"u.	c #1E1314",
"v.	c #5B3C2E",
"w.	c #461C13",
"x.	c #C07754",
"y.	c #D98B48",
"z.	c #D88937",
"A.	c #B06826",
"B.	c #FCFCFC",
"C.	c #101010",
"D.	c #1E1E1E",
"E.	c #46271F",
"F.	c #2A1113",
"G.	c #702803",
"H.	c #DC8335",
"I.	c #EB9042",
"J.	c #EA9050",
"K.	c #873C09",
"L.	c #FDFDFD",
"M.	c #F8D6B1",
"N.	c #542509",
"O.	c #300B00",
"P.	c #D4D4D4",
"Q.	c #B7B7B7",
"R.	c #201003",
"S.	c #FAFAFA",
"T.	c #C18E66",
"U.	c #290401",
"V.	c #130405",
"W.	c #381C03",
"X.	c #A55235",
"Y.	c #96451E",
"Z.	c #D17726",
"`.	c #E89542",
" +	c #FFFFFF",
".+	c #B0B0B0",
"++	c #D5D5D5",
"@+	c #848484",
"#+	c #1A1505",
"$+	c #340700",
"%+	c #F6F6F6",
"&+	c #16171A",
"*+	c #6F423B",
"=+	c #973A0F",
"-+	c #F7F7F7",
";+	c #F3F3F3",
">+	c #B28056",
",+	c #9C9C9C",
"'+	c #535353",
")+	c #6D6D6D",
"!+	c #1B0602",
"~+	c #724520",
"{+	c #EBEBEB",
"]+	c #AEAEAE",
"^+	c #242934",
"/+	c #B96229",
"(+	c #D06936",
"_+	c #DADADA",
":+	c #A4A4A4",
"<+	c #A2714B",
"[+	c #C7C7C7",
"}+	c #5C200E",
"|+	c #361415",
"1+	c #883305",
"2+	c #DE7B44",
"3+	c #D88041",
"4+	c #9F9F9F",
"5+	c #ADADAD",
"6+	c #431A02",
"7+	c #F2F2F2",
"8+	c #E3E3E3",
"9+	c #734134",
"0+	c #AB511E",
"a+	c #EDEDED",
"b+	c #717171",
"c+	c #6E6E6E",
"d+	c #310002",
"e+	c #3D0E01",
"f+	c #C0C0C0",
"g+	c #EEEEEE",
"h+	c #D2D2D2",
"i+	c #737373",
"j+	c #CC904F",
"k+	c #CFCFCF",
"l+	c #250D02",
"m+	c #CA8960",
"n+	c #8E8E8E",
"o+	c #AAAAAA",
"p+	c #2D0001",
"q+	c #260408",
"r+	c #979797",
"s+	c #85512C",
"t+	c #9D9D9D",
"u+	c #BCBCBC",
"                        . + @                                   ",
"                        # $ % & *                               ",
"                        # = & - -                               ",
"                        # ; > , ' )                             ",
"                        # ! & - - ~ {                           ",
"                        # ! ] ^ / ( _                           ",
"                        # : < < ' [ ] }                         ",
"                        | : 1 2 3 4 ( 3                         ",
"                        5 6 7 8 ( [ 9 0 a                       ",
"                      b 2 c , d 8 e f 7 g                       ",
"        . h i         j k l 7 d ^ m n o p q r                   ",
"        b s t u v w x x y z 2 A B C D E F G H ) I               ",
"      J i K L M N O P Q R S < T B U V W X Y Z Z ` 2             ",
"      h u K  .M ..s +.@.+.#.$.%.&.*.=.9 -., ;.0 >.( ,.          ",
"      | '.+.).R #.#.!.@.~.K ).{.].^./.(._.:.>.<.[.7 8 }.        ",
"        |.1.2. .#.!.!.s ~.~.3.4.5.6.^.7 7.0 8.9.9 0.,.a.        ",
"        b.c.d.e.!.!.!.~.!.~.s f.g.h.8.i.j.-.k.f l.-.m.n.        ",
"        o.p.q.r.s.L t.R u.c.1.Q v.w.x.y.z.m.9.8.f A.4 B.        ",
"      C.D.O |.E E.#.L !.t.R L @.K F.g.G.A H.I.C J.K.A.L.        ",
"  M.N.|.O.v.P.Q.E.R.S.T.U.2.V.~.!.#.W.X.Y.Y.m Z.`.L.L. +        ",
"      .+Q.++p @+s #+$+S.%+d.{.Q +.&+&+*+7.=+8.:.-+;+            ",
"        >+>+,+'+)+!+;+~+{+  ]+5.R s.^+ .h.X./+(+z._+            ",
"            :+<+U.V._+[+        $+}+|+c.s O.X.1+2+3+            ",
"                4+*.5+  6+        %+7+8+S K F.9+7.0+a+          ",
"              5.b+c+d+e+                f+U.M &+!+g+h+          ",
"                i+j+4.-+                    k+|.L l+m+n+        ",
"                6+  <+L.                      o+p+~.R q+r+      ",
"                                                .+s+c.1.c.t+    ",
"                                                    u+!+).!.    ",
"                                                      (.4.R l+  ",
"                                                        {+}.2. +",
"                                                                "};
