/* XPM */
static char * icon_bulmafact_32x32_xpm[] = {
"32 32 503 2",
"  	c None",
". 	c #010101",
"+ 	c #040404",
"@ 	c #000000",
"# 	c #020202",
"$ 	c #070707",
"% 	c #0A0A0A",
"& 	c #0D0D0D",
"* 	c #030303",
"= 	c #24291F",
"- 	c #546145",
"; 	c #4F5C47",
"> 	c #0F0F0F",
", 	c #101010",
"' 	c #0B0B0B",
") 	c #050505",
"! 	c #0D0D0A",
"~ 	c #374233",
"{ 	c #79926A",
"] 	c #697559",
"^ 	c #3C3E33",
"/ 	c #19130D",
"( 	c #292624",
"_ 	c #090909",
": 	c #060606",
"< 	c #2A3428",
"[ 	c #211C16",
"} 	c #231A12",
"| 	c #22160D",
"1 	c #22160E",
"2 	c #1E140B",
"3 	c #1F1810",
"4 	c #130D06",
"5 	c #1C1F18",
"6 	c #394330",
"7 	c #1B1A15",
"8 	c #1E1D16",
"9 	c #6D7C65",
"0 	c #5B6848",
"a 	c #111111",
"b 	c #344236",
"c 	c #607E62",
"d 	c #3A3A2B",
"e 	c #241C14",
"f 	c #20140C",
"g 	c #21150C",
"h 	c #24170E",
"i 	c #23160D",
"j 	c #1C150D",
"k 	c #37412C",
"l 	c #769366",
"m 	c #475A3D",
"n 	c #1C130A",
"o 	c #2A2019",
"p 	c #29221A",
"q 	c #3E412B",
"r 	c #647152",
"s 	c #555949",
"t 	c #131313",
"u 	c #151515",
"v 	c #222820",
"w 	c #8AA982",
"x 	c #C9EDAC",
"y 	c #6B805A",
"z 	c #3F4932",
"A 	c #1E1B12",
"B 	c #1A140E",
"C 	c #26180E",
"D 	c #1D150D",
"E 	c #6B8258",
"F 	c #8BAB6F",
"G 	c #526040",
"H 	c #1E130C",
"I 	c #1F1811",
"J 	c #4A5E41",
"K 	c #769A6B",
"L 	c #688964",
"M 	c #51664F",
"N 	c #3C362A",
"O 	c #3F3C34",
"P 	c #3E403A",
"Q 	c #1E1E1E",
"R 	c #171717",
"S 	c #161310",
"T 	c #2B2B23",
"U 	c #727E6B",
"V 	c #DEEBBA",
"W 	c #C8D2A4",
"X 	c #1A150F",
"Y 	c #19110A",
"Z 	c #5C6544",
"` 	c #D1E694",
" .	c #B7D188",
"..	c #2B261B",
"+.	c #1F140A",
"@.	c #23150C",
"#.	c #2D3022",
"$.	c #82A771",
"%.	c #66835D",
"&.	c #2D2E24",
"*.	c #1A140B",
"=.	c #1C140B",
"-.	c #302C21",
";.	c #6E885A",
">.	c #3B4333",
",.	c #262626",
"'.	c #242424",
").	c #272727",
"!.	c #28241E",
"~.	c #1E1712",
"{.	c #24221E",
"].	c #242B2B",
"^.	c #6C7D61",
"/.	c #1A160E",
"(.	c #1F150D",
"_.	c #7A8B65",
":.	c #FEFED1",
"<.	c #B8CE98",
"[.	c #231911",
"}.	c #261B13",
"|.	c #1E150E",
"1.	c #333B32",
"2.	c #9DBF87",
"3.	c #41553A",
"4.	c #1C1711",
"5.	c #1A140D",
"6.	c #151009",
"7.	c #161007",
"8.	c #5D6049",
"9.	c #3E4735",
"0.	c #24251D",
"a.	c #41413E",
"b.	c #3E3E3E",
"c.	c #272823",
"d.	c #25231C",
"e.	c #221F19",
"f.	c #3E423E",
"g.	c #21211C",
"h.	c #19120A",
"i.	c #525F43",
"j.	c #FCFEC7",
"k.	c #687855",
"l.	c #241A13",
"m.	c #261D16",
"n.	c #231B11",
"o.	c #545E3D",
"p.	c #C3E79E",
"q.	c #AAD39B",
"r.	c #749071",
"s.	c #718467",
"t.	c #576150",
"u.	c #14100A",
"v.	c #262117",
"w.	c #526048",
"x.	c #6E8152",
"y.	c #879F69",
"z.	c #535B4C",
"A.	c #4F4F4D",
"B.	c #393936",
"C.	c #2E3029",
"D.	c #4C655B",
"E.	c #3E483D",
"F.	c #1A1109",
"G.	c #110C05",
"H.	c #323E2C",
"I.	c #CDED9F",
"J.	c #323D2B",
"K.	c #1B130D",
"L.	c #271D15",
"M.	c #241C11",
"N.	c #7A8F6B",
"O.	c #F1FDBA",
"P.	c #D6F9BE",
"Q.	c #ACD3B2",
"R.	c #CEEFBC",
"S.	c #A6CD8B",
"T.	c #292F21",
"U.	c #160F06",
"V.	c #455336",
"W.	c #A6BE78",
"X.	c #5D6D50",
"Y.	c #1B1B15",
"Z.	c #595955",
"`.	c #818181",
" +	c #7B7B7B",
".+	c #40423B",
"++	c #31322C",
"@+	c #576B5D",
"#+	c #56705B",
"$+	c #435643",
"%+	c #66815B",
"&+	c #90B77C",
"*+	c #1A140C",
"=+	c #1C150F",
"-+	c #221B15",
";+	c #1D140D",
">+	c #C3D4B0",
",+	c #FEFEFD",
"'+	c #444540",
")+	c #221F1C",
"!+	c #2E332D",
"~+	c #779E70",
"{+	c #749461",
"]+	c #41563C",
"^+	c #799766",
"/+	c #47593B",
"(+	c #12100C",
"_+	c #191814",
":+	c #334034",
"<+	c #B2B9AD",
"[+	c #9C9C9C",
"}+	c #8D8D8D",
"|+	c #4D4E4A",
"1+	c #34352F",
"2+	c #2F332E",
"3+	c #60715E",
"4+	c #839E76",
"5+	c #31412D",
"6+	c #17130B",
"7+	c #180E06",
"8+	c #1C120A",
"9+	c #272C1C",
"0+	c #EEFBC5",
"a+	c #A9C09B",
"b+	c #1C1914",
"c+	c #18140E",
"d+	c #141009",
"e+	c #40543A",
"f+	c #94BF7E",
"g+	c #648256",
"h+	c #56694E",
"i+	c #39412C",
"j+	c #415945",
"k+	c #87B592",
"l+	c #DFFECE",
"m+	c #809D7A",
"n+	c #9F9F9F",
"o+	c #8B8B8B",
"p+	c #686867",
"q+	c #383834",
"r+	c #20211C",
"s+	c #6B7664",
"t+	c #94A680",
"u+	c #5A5F51",
"v+	c #151006",
"w+	c #170F06",
"x+	c #667E55",
"y+	c #E3FBBC",
"z+	c #496044",
"A+	c #13100A",
"B+	c #120E07",
"C+	c #586F4E",
"D+	c #82A96E",
"E+	c #1C1F12",
"F+	c #151109",
"G+	c #15140E",
"H+	c #3F4C36",
"I+	c #21311F",
"J+	c #475B50",
"K+	c #697161",
"L+	c #898989",
"M+	c #777777",
"N+	c #5D5D5D",
"O+	c #464644",
"P+	c #45463C",
"Q+	c #BBD79E",
"R+	c #DFE9C6",
"S+	c #302F24",
"T+	c #17160D",
"U+	c #8BAE7A",
"V+	c #A0C485",
"W+	c #161910",
"X+	c #14110B",
"Y+	c #1F231A",
"Z+	c #789C66",
"`+	c #394C30",
" @	c #0D0A04",
".@	c #0A0802",
"+@	c #0A0803",
"@@	c #191A13",
"#@	c #677163",
"$@	c #999A8F",
"%@	c #FFFFFF",
"&@	c #646464",
"*@	c #585858",
"=@	c #434343",
"-@	c #272826",
";@	c #4E5B44",
">@	c #283028",
",@	c #11110E",
"'@	c #2B3925",
")@	c #84AC76",
"!@	c #3E5033",
"~@	c #17120B",
"{@	c #110D07",
"]@	c #150F09",
"^@	c #4E6549",
"/@	c #6E9262",
"(@	c #0F1207",
"_@	c #4C553A",
":@	c #3D4439",
"<@	c #171712",
"[@	c #31302A",
"}@	c #7D7C78",
"|@	c #C0C0C0",
"1@	c #3F3F3F",
"2@	c #404040",
"3@	c #3A3A3A",
"4@	c #2A2A2A",
"5@	c #21211B",
"6@	c #121410",
"7@	c #191A18",
"8@	c #334B36",
"9@	c #6A9061",
"0@	c #13180E",
"a@	c #0C0902",
"b@	c #17160E",
"c@	c #191E11",
"d@	c #476D4C",
"e@	c #252F21",
"f@	c #546042",
"g@	c #88A16E",
"h@	c #96B275",
"i@	c #637D55",
"j@	c #34322B",
"k@	c #646561",
"l@	c #AEB0AC",
"m@	c #202020",
"n@	c #292929",
"o@	c #212121",
"p@	c #161615",
"q@	c #1C1C17",
"r@	c #394335",
"s@	c #718B68",
"t@	c #39573E",
"u@	c #15140C",
"v@	c #070400",
"w@	c #566A4E",
"x@	c #465B3E",
"y@	c #15150E",
"z@	c #0E0B06",
"A@	c #101108",
"B@	c #191B11",
"C@	c #404838",
"D@	c #4E5F40",
"E@	c #596F4F",
"F@	c #97B895",
"G@	c #667B7A",
"H@	c #394444",
"I@	c #1B1B1B",
"J@	c #181818",
"K@	c #121212",
"L@	c #161713",
"M@	c #75825B",
"N@	c #BEDAAC",
"O@	c #080C07",
"P@	c #31332E",
"Q@	c #2B2B26",
"R@	c #090A04",
"S@	c #7A8F61",
"T@	c #D3F09E",
"U@	c #394E37",
"V@	c #394634",
"W@	c #161511",
"X@	c #1A1916",
"Y@	c #CAE2AB",
"Z@	c #CEEBAE",
"`@	c #5B7650",
" #	c #4D5C48",
".#	c #D1CFC7",
"+#	c #58675B",
"@#	c #3B403C",
"##	c #151513",
"$#	c #575F48",
"%#	c #DAF4C2",
"&#	c #6A7366",
"*#	c #050504",
"=#	c #31392B",
"-#	c #8F9F69",
";#	c #B2CA8C",
">#	c #7F9575",
",#	c #DBEAA7",
"'#	c #576949",
")#	c #1B1917",
"!#	c #18160F",
"~#	c #7D9762",
"{#	c #8A9D75",
"]#	c #4B5042",
"^#	c #4E4C44",
"/#	c #191919",
"(#	c #333D3E",
"_#	c #222B28",
":#	c #1D1D1D",
"<#	c #6C7C63",
"[#	c #15150F",
"}#	c #677860",
"|#	c #20241D",
"1#	c #8DA982",
"2#	c #D6E9A2",
"3#	c #4E4F4E",
"4#	c #676C65",
"5#	c #DDEF9C",
"6#	c #535A34",
"7#	c #15130C",
"8#	c #1A1B13",
"9#	c #273123",
"0#	c #93A084",
"a#	c #728470",
"b#	c #F3F3F3",
"c#	c #2F2F2F",
"d#	c #363636",
"e#	c #556453",
"f#	c #576A57",
"g#	c #444840",
"h#	c #353E2F",
"i#	c #607E64",
"j#	c #323C32",
"k#	c #282826",
"l#	c #657C62",
"m#	c #586F52",
"n#	c #1D1B16",
"o#	c #1B1C14",
"p#	c #718A64",
"q#	c #44523F",
"r#	c #272424",
"s#	c #13120F",
"t#	c #55534E",
"u#	c #F4F4F4",
"v#	c #F9F9F9",
"w#	c #8B9996",
"x#	c #454547",
"y#	c #637870",
"z#	c #ACCEB2",
"A#	c #4D5E49",
"B#	c #607060",
"C#	c #252420",
"D#	c #353B36",
"E#	c #575753",
"F#	c #454545",
"G#	c #393939",
"H#	c #333531",
"I#	c #21231F",
"J#	c #41413C",
"K#	c #33352F",
"L#	c #2B2F29",
"M#	c #25241D",
"N#	c #657069",
"O#	c #272D29",
"P#	c #646056",
"Q#	c #FAFAFA",
"R#	c #FDFDFD",
"S#	c #94958F",
"T#	c #808B82",
"U#	c #6B8177",
"V#	c #65665C",
"W#	c #6A8383",
"X#	c #9AB4AF",
"Y#	c #494949",
"Z#	c #5B6767",
"`#	c #50615D",
" $	c #35322A",
".$	c #51564E",
"+$	c #403E39",
"@$	c #19150F",
"#$	c #A4B19A",
"$$	c #9AB191",
"%$	c #CFD7D3",
"&$	c #F5F5F5",
"*$	c #BFBFBF",
"=$	c #B1B1B1",
"-$	c #A0A0A0",
";$	c #949494",
">$	c #8F8F8F",
",$	c #808080",
"'$	c #4C4C4A",
")$	c #748775",
"!$	c #BDD8B6",
"~$	c #637166",
"{$	c #8E9487",
"]$	c #F0F0F0",
"^$	c #F7F7F7",
"/$	c #C4C4C4",
"($	c #B5B5B5",
"_$	c #ACACAC",
":$	c #AAAAAA",
"<$	c #65615F",
"[$	c #727972",
"}$	c #809888",
"|$	c #2A261F",
"1$	c #5F5B59",
"2$	c #656563",
"3$	c #CFE2D1",
"4$	c #BEC2BE",
"5$	c #F8F8F8",
"6$	c #FBFBFB",
"7$	c #9A9794",
"8$	c #494542",
"9$	c #CCCAC9",
"0$	c #C6C6C6",
"a$	c #CBCBCB",
"b$	c #757676",
"c$	c #CAD3CC",
"d$	c #5C5D5B",
"                                                                ",
"                                                                ",
"                                                                ",
"            . +                                                 ",
"      @ . . # + $ % &                                           ",
"    @ . . # * = - ; > , > ' $ ) *                               ",
"    . # # ! ~ { ] ^ / ( > ' _ : ) $ _ &                         ",
"    # * < [ } | 1 2 3 4 5 6 7 : ) 8 9 0 a a a                   ",
"    $ b c d e f g h i j k l m n o p q r s a a t u               ",
"    & v w x y z A B C D E F G H I / J K L M N O P Q             ",
"    R R S T U V W X Y Z `  ...+.@.#.$.%.&.*.=.-.;.>.,.          ",
"    '.).!.~.{.].^./.(._.:.<.[.}.|.1.2.3.4.5.6.7.8.9.0.a.        ",
"      b.c.d.e.f.g.h.n i.j.k.l.m.n.o.p.q.r.s.t.u.v.w.x.y.z.      ",
"        A.B.C.D.E.F.G.H.I.J.K.L.M.N.O.P.Q.R.S.T.U.V.W.X.Y.Z.    ",
"        `. +.+++@+#+$+%+&+*+=+-+;+>+,+'+)+!+~+{+]+^+/+(+_+:+<+  ",
"          [+}+|+1+2+3+4+5+6+7+8+9+0+a+b+c+d+e+f+g+h+i+j+k+l+m+  ",
"            n+o+p+q+r+s+t+u+v+w+x+y+z+A+6.B+C+D+E+F+G+H+I+J+K+  ",
"              L+M+N+O+P+Q+R+S+T+U+V+W+5.X+Y+Z+`+ @.@+@@@#@$@%@  ",
"                &@*@=@-@;@>@,@'@)@!@~@{@]@^@/@(@_@:@<@[@}@|@%@  ",
"                1@2@3@4@5@6@7@8@9@0@a@b@c@d@e@f@g@h@i@j@k@l@%@  ",
"                m@).n@o@p@q@r@s@t@Y.u@v@w@x@y@z@A@B@C@D@E@F@%@  ",
"                G@H@I@J@K@L@M@N@O@P@Q@R@S@T@U@V@W@X@Y@Z@`@ #.#  ",
"              & t +#@#u K@##$#%#&#*#=#-#;#>#,#'#)#!#~#{#]#^#%@  ",
"              t /#(#_#:#I@<#[#}#|#, 1#2#3#4#5#6#7#8#9#0#a#b#%@  ",
"                c#d#e#f#g#h#i#j#k#m@l#m#n#o#p#q#O+r#s#t#u#v#%@  ",
"              w#x#y#z#A#B#C#D#E#F#G#H#I#J#K#L#M#N#O#P#u#Q#R#    ",
"                    S#T#U#V#W#X#Y#Z#`# $.$+$@$#$$$%$&$Q#R#      ",
"                    *$=$-$;$>$}+L+,$ +'$)$!$~${$]$^$Q#R#        ",
"                      /$($_$:$<$[$}$|$1$2$3$4$b#5$6$R#          ",
"                            7$8$9$0$/$a$b$c$b#v#R#              ",
"                                  %@%@%@d$%@%@%@                ",
"                                                                "};
