/* XPM */
static char * icon_bulmacont_32x32_xpm[] = {
"32 32 355 2",
"  	c None",
". 	c #746A61",
"+ 	c #6B6156",
"@ 	c #313131",
"# 	c #323232",
"$ 	c #383838",
"% 	c #68574D",
"& 	c #947665",
"* 	c #B48D75",
"= 	c #BA9175",
"- 	c #92654F",
"; 	c #996B53",
"> 	c #986C54",
", 	c #A28569",
"' 	c #8A786A",
") 	c #6C6C6C",
"! 	c #7D6F64",
"~ 	c #A98472",
"{ 	c #A9917E",
"] 	c #B0967E",
"^ 	c #7A7A7A",
"/ 	c #656565",
"( 	c #8C796F",
"_ 	c #6F5748",
": 	c #91654F",
"< 	c #A4795F",
"[ 	c #9F846B",
"} 	c #8E8E8E",
"| 	c #A98E79",
"1 	c #A28470",
"2 	c #81716A",
"3 	c #787878",
"4 	c #7E7E7E",
"5 	c #7C7C7C",
"6 	c #6E6E6E",
"7 	c #565656",
"8 	c #3C3C3C",
"9 	c #2B2B2B",
"0 	c #272727",
"a 	c #83624F",
"b 	c #AD846D",
"c 	c #7E726A",
"d 	c #969696",
"e 	c #B29C88",
"f 	c #585858",
"g 	c #575757",
"h 	c #545454",
"i 	c #505050",
"j 	c #434343",
"k 	c #212121",
"l 	c #161616",
"m 	c #151515",
"n 	c #1E1E1E",
"o 	c #B0896F",
"p 	c #AA907C",
"q 	c #747474",
"r 	c #7F7F7F",
"s 	c #3A3A3A",
"t 	c #333333",
"u 	c #2C2C2C",
"v 	c #282828",
"w 	c #222222",
"x 	c #181818",
"y 	c #101010",
"z 	c #0A0A0A",
"A 	c #090909",
"B 	c #342B22",
"C 	c #AF876C",
"D 	c #B38E72",
"E 	c #5A5A5A",
"F 	c #4C4C4C",
"G 	c #262626",
"H 	c #1B1B1B",
"I 	c #1A1A1A",
"J 	c #49413C",
"K 	c #111111",
"L 	c #0C0C0C",
"M 	c #070707",
"N 	c #584131",
"O 	c #A37A60",
"P 	c #997358",
"Q 	c #8E6851",
"R 	c #564B44",
"S 	c #3E3E3E",
"T 	c #414141",
"U 	c #3F3F3F",
"V 	c #404040",
"W 	c #1F1F1F",
"X 	c #73574F",
"Y 	c #A6856E",
"Z 	c #C5A384",
"` 	c #B6866A",
" .	c #95755E",
"..	c #0E0E0E",
"+.	c #916E55",
"@.	c #976A4F",
"#.	c #7C573E",
"$.	c #85634A",
"%.	c #805F48",
"&.	c #A17558",
"*.	c #746252",
"=.	c #877666",
"-.	c #5F5F5F",
";.	c #85695C",
">.	c #90725F",
",.	c #B1856A",
"'.	c #A17256",
").	c #9A6448",
"!.	c #AE795C",
"~.	c #9A614B",
"{.	c #89634A",
"].	c #795741",
"^.	c #88664C",
"/.	c #7A5B42",
"(.	c #7A533D",
"_.	c #A77A5F",
":.	c #7C6351",
"<.	c #AE8265",
"[.	c #B78869",
"}.	c #B38F73",
"|.	c #A58D80",
"1.	c #76584F",
"2.	c #958278",
"3.	c #806455",
"4.	c #AF907F",
"5.	c #71513F",
"6.	c #7E5847",
"7.	c #5F3B2D",
"8.	c #85624B",
"9.	c #7C5A40",
"0.	c #96735A",
"a.	c #7A5940",
"b.	c #7D5A44",
"c.	c #8D5742",
"d.	c #9D6950",
"e.	c #A67356",
"f.	c #A17459",
"g.	c #AC8569",
"h.	c #A99288",
"i.	c #D7CEC5",
"j.	c #4A4A4A",
"k.	c #453E39",
"l.	c #795A46",
"m.	c #684F3F",
"n.	c #866145",
"o.	c #7F5B45",
"p.	c #8A6645",
"q.	c #7F5E48",
"r.	c #88664D",
"s.	c #7A543E",
"t.	c #766359",
"u.	c #8A7565",
"v.	c #A68C7F",
"w.	c #A68877",
"x.	c #BBABA5",
"y.	c #B89F96",
"z.	c #131313",
"A.	c #0B0B0B",
"B.	c #885F46",
"C.	c #7B533A",
"D.	c #A17A64",
"E.	c #9D755E",
"F.	c #87604A",
"G.	c #84654D",
"H.	c #7A675B",
"I.	c #9B9999",
"J.	c #999999",
"K.	c #B3B3B3",
"L.	c #CACACA",
"M.	c #DEDEDE",
"N.	c #0F0F0F",
"O.	c #121212",
"P.	c #060606",
"Q.	c #A67C5F",
"R.	c #966751",
"S.	c #734F39",
"T.	c #825A43",
"U.	c #996D55",
"V.	c #615954",
"W.	c #616161",
"X.	c #797979",
"Y.	c #929292",
"Z.	c #AAAAAA",
"`.	c #C5C5C5",
" +	c #030303",
".+	c #0D0D0D",
"++	c #916D54",
"@+	c #84624F",
"#+	c #855743",
"$+	c #8D6147",
"%+	c #744A36",
"&+	c #875E47",
"*+	c #90644F",
"=+	c #4E4742",
"-+	c #7F6B5C",
";+	c #776F69",
">+	c #6D6D6D",
",+	c #878787",
"'+	c #A3A3A3",
")+	c #4D4339",
"!+	c #9D8677",
"~+	c #403531",
"{+	c #B98A6E",
"]+	c #B48369",
"^+	c #9D634B",
"/+	c #9E6F5A",
"(+	c #8E5F4A",
"_+	c #764D36",
":+	c #8F6958",
"<+	c #77513D",
"[+	c #836452",
"}+	c #8F6B57",
"|+	c #A67354",
"1+	c #B4886D",
"2+	c #7B716C",
"3+	c #777777",
"4+	c #AF9382",
"5+	c #765D4F",
"6+	c #9F7F69",
"7+	c #A6775A",
"8+	c #A47359",
"9+	c #8F7667",
"0+	c #BA9683",
"a+	c #844D3C",
"b+	c #896047",
"c+	c #724A33",
"d+	c #875F48",
"e+	c #7E563E",
"f+	c #956E51",
"g+	c #8F5741",
"h+	c #9B735B",
"i+	c #886553",
"j+	c #A47962",
"k+	c #A48B7C",
"l+	c #9E897C",
"m+	c #C1C1C1",
"n+	c #7B7064",
"o+	c #A08974",
"p+	c #AA7E63",
"q+	c #916449",
"r+	c #84624C",
"s+	c #50372B",
"t+	c #633922",
"u+	c #8C6245",
"v+	c #967158",
"w+	c #724E34",
"x+	c #7C5840",
"y+	c #9A7659",
"z+	c #815845",
"A+	c #977868",
"B+	c #835D4A",
"C+	c #8C5D48",
"D+	c #A37967",
"E+	c #A28D7D",
"F+	c #A68575",
"G+	c #AC8270",
"H+	c #9C8E83",
"I+	c #9A8279",
"J+	c #444444",
"K+	c #202020",
"L+	c #412D1E",
"M+	c #926B51",
"N+	c #7F6048",
"O+	c #7D614B",
"P+	c #785B4A",
"Q+	c #73533D",
"R+	c #9F7E66",
"S+	c #ABABAB",
"T+	c #B59383",
"U+	c #A07C67",
"V+	c #977360",
"W+	c #A58979",
"X+	c #E2DCD8",
"Y+	c #F2F2F2",
"Z+	c #96877D",
"`+	c #6B6B6B",
" @	c #1D1D1D",
".@	c #3C291E",
"+@	c #7A523B",
"@@	c #70513B",
"#@	c #674C39",
"$@	c #765C48",
"%@	c #6B4B39",
"&@	c #704E3A",
"*@	c #CBCBCB",
"=@	c #D0D0D0",
"-@	c #B3907E",
";@	c #CDBCB3",
">@	c #B49B8D",
",@	c #F7F7F7",
"'@	c #595959",
")@	c #71533F",
"!@	c #805C43",
"~@	c #71543E",
"{@	c #452E1B",
"]@	c #503526",
"^@	c #7A5E48",
"/@	c #7B5A43",
"(@	c #DCDCDC",
"_@	c #E6E6E6",
":@	c #E8E8E8",
"<@	c #EAEAEA",
"[@	c #846655",
"}@	c #4F3524",
"|@	c #604731",
"1@	c #5A3F2B",
"2@	c #60462F",
"3@	c #61462F",
"4@	c #52372E",
"5@	c #F1F1F1",
"6@	c #F5F5F5",
"7@	c #715746",
"8@	c #4B3121",
"9@	c #472C1B",
"0@	c #513626",
"a@	c #553B20",
"b@	c #51341E",
"c@	c #261615",
"d@	c #6E5341",
"e@	c #5D3B27",
"f@	c #4C2E1A",
"g@	c #492D1F",
"h@	c #4F3525",
"i@	c #50321E",
"j@	c #796153",
"k@	c #EDEDED",
"l@	c #F8F8F8",
"m@	c #4B3E31",
"n@	c #603C23",
"o@	c #4D2D1F",
"p@	c #503622",
"q@	c #442B20",
"r@	c #533526",
"s@	c #B0A297",
"t@	c #F3F3F3",
"u@	c #F9F9F9",
"v@	c #33302C",
"w@	c #53392A",
"x@	c #633D29",
"y@	c #593923",
"z@	c #593A25",
"A@	c #5F4534",
"B@	c #D3CECD",
"C@	c #FBFBFB",
"D@	c #63554E",
"E@	c #533528",
"F@	c #54311E",
"G@	c #543626",
"H@	c #ACA09C",
"I@	c #F4F4F4",
"J@	c #FAFAFA",
"K@	c #948A86",
"L@	c #776254",
"M@	c #AD9F9C",
"N@	c #FDFDFD",
"                                                                ",
"                                                                ",
"                                                                ",
"                    . + @ # $                                   ",
"              % & * = - ; > , ' )                               ",
"          ! ~ { ]   ^ / ( _ : < [ }                             ",
"        | 1 2 3 4 5 6 7 8 9 0 a b c d                           ",
"      e     f g h i j @ k l m n o p q r                         ",
"            s t u v w x y z A B C D i E g F                     ",
"            G n H I J K L M N O P Q R S T U V                   ",
"            W X Y Z `  ...+.@.#.$.%.&.*.s =.F -.                ",
"              ;.>.,.'.).!.~.{.].^./.(._.:.<.[.}.|.              ",
"              1.2.3.4.5.6.7.8.9.0.a.b.c.d.e.f.g.h.i.            ",
"                  j.T k.l.m.n.o.p.q.r.s.t.u.v.w.x.y.            ",
"                0 9 0 n z.A.B.C.D.E.F.G.H.I.J.K.L.M.            ",
"              z N.O.O.y z P.Q.R.S.T.U.V.F W.X.Y.Z.`.            ",
"             +P.A .+N...++@+#+$+%+&+*+=+s -+;+>+,+'+            ",
"             +M )+!+~+{+]+^+/+(+_+:+<+[+}+|+1+2+3+d             ",
"              4+5+6+7+8+9+0+a+b+c+d+e+f+g+h+i+j+k+l+m+          ",
"              n+o+p+R.q+r+s+t+u+v+w+x+y+z+A+B+C+D+E+F+          ",
"                G+H+I+>+J+K+L+M+N+O+P+Q+R+S+T+U+V+W+X+Y+        ",
"                    Z+`+U  @.@+@@@#@$@%@&@*@=@=@-@;@>@,@        ",
"                      '@@ l )@!@~@{@]@^@/@(@_@:@<@              ",
"                        k K [@}@|@1@2@3@4@_@5@6@                ",
"                        m .+7@8@9@0@a@b@c@<@6@                  ",
"                          .+d@e@f@g@h@i@j@k@l@                  ",
"                          O.m@n@o@p@q@r@s@t@u@                  ",
"                            v@w@x@y@z@A@B@l@C@                  ",
"                              D@E@F@G@H@I@J@                    ",
"                                K@L@M@t@J@N@                    ",
"                                                                ",
"                                                                "};
