/* XPM */
static char * icon_bulmafact_16x16_xpm[] = {
"16 16 138 2",
"  	c None",
". 	c #4C5643",
"+ 	c #21231C",
"@ 	c #3F4431",
"# 	c #393729",
"$ 	c #221D16",
"% 	c #3B3F36",
"& 	c #353432",
"* 	c #2A2926",
"= 	c #5A6350",
"- 	c #2C352C",
"; 	c #7B946F",
"> 	c #3C3E2B",
", 	c #1F170E",
"' 	c #20160D",
") 	c #698056",
"! 	c #353825",
"~ 	c #231B14",
"{ 	c #586A4A",
"] 	c #52624D",
"^ 	c #3E3C35",
"/ 	c #434441",
"( 	c #211E18",
"_ 	c #666E5C",
": 	c #5A5E48",
"< 	c #444630",
"[ 	c #D0E1A1",
"} 	c #251C12",
"| 	c #28251C",
"1 	c #729064",
"2 	c #1F1B13",
"3 	c #1E180F",
"4 	c #515D43",
"5 	c #3A3B38",
"6 	c #242420",
"7 	c #323A32",
"8 	c #24231B",
"9 	c #2C2F20",
"0 	c #99A87A",
"a 	c #231A13",
"b 	c #454932",
"c 	c #CDECAC",
"d 	c #98B692",
"e 	c #4E5B42",
"f 	c #353927",
"g 	c #7E9361",
"h 	c #3B3C37",
"i 	c #373834",
"j 	c #3D4A3F",
"k 	c #637A5C",
"l 	c #3C4830",
"m 	c #1C140D",
"n 	c #7D8468",
"o 	c #82877B",
"p 	c #1F1E18",
"q 	c #709162",
"r 	c #5D7652",
"s 	c #35412E",
"t 	c #6C836A",
"u 	c #778274",
"v 	c #575755",
"w 	c #464A41",
"x 	c #A2B18D",
"y 	c #1D190F",
"z 	c #9DBB84",
"A 	c #23271B",
"B 	c #16140D",
"C 	c #638054",
"D 	c #121008",
"E 	c #1E2016",
"F 	c #3F4B3D",
"G 	c #848782",
"H 	c #4E4E4D",
"I 	c #2C3128",
"J 	c #222C20",
"K 	c #506946",
"L 	c #131008",
"M 	c #31402C",
"N 	c #3E4D33",
"O 	c #6A7B56",
"P 	c #323829",
"Q 	c #4A4A47",
"R 	c #A0A0A0",
"S 	c #515F5E",
"T 	c #3D3D3D",
"U 	c #292926",
"V 	c #778A69",
"W 	c #232C22",
"X 	c #14130E",
"Y 	c #7A9163",
"Z 	c #252D20",
"` 	c #161610",
" .	c #8A9D74",
"..	c #667E5F",
"+.	c #9B9A98",
"@.	c #404A45",
"#.	c #343836",
"$.	c #3A3E36",
"%.	c #6B785E",
"&.	c #222520",
"*.	c #889A6E",
"=.	c #7A866D",
"-.	c #98A770",
";.	c #181711",
">.	c #708160",
",.	c #51574C",
"'.	c #B5B5B5",
").	c #3F4644",
"!.	c #697E69",
"~.	c #3E463A",
"{.	c #3E4A3E",
"].	c #151514",
"^.	c #3C4939",
"/.	c #20201A",
"(.	c #333D2C",
"_.	c #313431",
":.	c #3E3C38",
"<.	c #ADADAD",
"[.	c #DADADA",
"}.	c #6B6F6B",
"|.	c #626963",
"1.	c #697775",
"2.	c #434646",
"3.	c #343734",
"4.	c #6B7867",
"5.	c #61695C",
"6.	c #828A81",
"7.	c #B2B2B2",
"8.	c #969696",
"9.	c #5A5755",
"0.	c #78807A",
"a.	c #4D4C49",
"b.	c #6D746E",
"c.	c #878887",
"d.	c #C0C0C0",
"e.	c #DFDFDF",
"f.	c #898A89",
"g.	c #C5C5C5",
"                                ",
"                                ",
"        .                       ",
"    + @ # $ % & * =             ",
"  - ; > , ' ) ! ~ { ] ^ /       ",
"    ( _ : < [ } | 1 2 3 4 5     ",
"    6 7 8 9 0 a b c d e f g h   ",
"      i j k l m n o p q r s t u ",
"        v w x y z A B C D E F G ",
"          H I J K L M N O P Q R ",
"        S T U V W X Y Z `  ...+.",
"        @.#.$.%.&.*.=.-.;.>.,.'.",
"        ).!.~.{.].^./.(._.:.<.[.",
"          }.|.1.2.3.4.5.6.7.[.  ",
"            8.9.0.a.b.c.d.e.    ",
"                  R f.g.        "};
