<?xml version="1.0" encoding="UTF-8" standalone="no"?>
<!-- Created with Inkscape (http://www.inkscape.org/) -->
<svg
   xmlns:dc="http://purl.org/dc/elements/1.1/"
   xmlns:cc="http://web.resource.org/cc/"
   xmlns:rdf="http://www.w3.org/1999/02/22-rdf-syntax-ns#"
   xmlns:svg="http://www.w3.org/2000/svg"
   xmlns="http://www.w3.org/2000/svg"
   xmlns:xlink="http://www.w3.org/1999/xlink"
   xmlns:sodipodi="http://inkscape.sourceforge.net/DTD/sodipodi-0.dtd"
   xmlns:inkscape="http://www.inkscape.org/namespaces/inkscape"
   width="320.00000"
   height="320.00000"
   id="svg1"
   sodipodi:version="0.32"
   inkscape:version="0.42"
   sodipodi:docbase="/home/raul/docs/iglues/v0.4/svg"
   sodipodi:docname="i_bulmages_articulos.svg"
   version="1.0"
   x="0.0000000"
   y="0.0000000"
   inkscape:export-filename="/home/raul/iglues/nous dissenys/png/i_bulmages_articulos.png"
   inkscape:export-xdpi="96.000000"
   inkscape:export-ydpi="96.000000">
  <defs
     id="defs3">
    <linearGradient
       inkscape:collect="always"
       id="linearGradient9952">
      <stop
         style="stop-color:#0000ff;stop-opacity:1;"
         offset="0"
         id="stop9953" />
      <stop
         style="stop-color:#0000ff;stop-opacity:0;"
         offset="1"
         id="stop9954" />
    </linearGradient>
    <linearGradient
       inkscape:collect="always"
       xlink:href="#linearGradient9952"
       id="linearGradient2369"
       gradientUnits="userSpaceOnUse"
       gradientTransform="matrix(0.664395,0.684716,-0.684716,0.664395,124.5953,290.1885)"
       x1="-181.00027"
       y1="65.430992"
       x2="-149.55615"
       y2="65.430992" />
    <linearGradient
       inkscape:collect="always"
       xlink:href="#linearGradient9952"
       id="linearGradient2370"
       gradientUnits="userSpaceOnUse"
       gradientTransform="matrix(0.924683,0.234989,-0.234989,0.924683,142.2812,191.7570)"
       x1="-181.00027"
       y1="65.430992"
       x2="-149.55615"
       y2="65.430992" />
    <linearGradient
       inkscape:collect="always"
       xlink:href="#linearGradient9952"
       id="linearGradient2371"
       gradientUnits="userSpaceOnUse"
       gradientTransform="matrix(0.231054,0.925674,0.925674,-0.231054,-59.19725,392.3917)"
       x1="-181.00027"
       y1="65.430992"
       x2="-149.55615"
       y2="65.430992" />
    <linearGradient
       inkscape:collect="always"
       xlink:href="#linearGradient9952"
       id="linearGradient2372"
       gradientUnits="userSpaceOnUse"
       gradientTransform="matrix(0.954074,-8.217683e-33,0.000000,7.242089,462.6874,-305.0642)"
       x1="-181.00027"
       y1="65.430992"
       x2="-149.55615"
       y2="65.430992" />
    <linearGradient
       inkscape:collect="always"
       xlink:href="#linearGradient9952"
       id="linearGradient3003"
       gradientUnits="userSpaceOnUse"
       gradientTransform="matrix(0.664395,0.684716,-0.684716,0.664395,124.5953,290.1885)"
       x1="-181.00027"
       y1="65.430992"
       x2="-149.55615"
       y2="65.430992" />
    <linearGradient
       inkscape:collect="always"
       xlink:href="#linearGradient9952"
       id="linearGradient3004"
       gradientUnits="userSpaceOnUse"
       gradientTransform="matrix(0.924683,0.234989,-0.234989,0.924683,142.2812,191.7570)"
       x1="-181.00027"
       y1="65.430992"
       x2="-149.55615"
       y2="65.430992" />
    <linearGradient
       inkscape:collect="always"
       xlink:href="#linearGradient9952"
       id="linearGradient3005"
       gradientUnits="userSpaceOnUse"
       gradientTransform="matrix(0.231054,0.925674,0.925674,-0.231054,-59.19725,392.3917)"
       x1="-181.00027"
       y1="65.430992"
       x2="-149.55615"
       y2="65.430992" />
    <linearGradient
       inkscape:collect="always"
       xlink:href="#linearGradient9952"
       id="linearGradient3022"
       gradientUnits="userSpaceOnUse"
       gradientTransform="matrix(-0.954074,8.217683e-33,0.000000,-7.242089,-142.6873,625.0184)"
       x1="-181.00027"
       y1="65.430992"
       x2="-149.55615"
       y2="65.430992" />
    <linearGradient
       inkscape:collect="always"
       xlink:href="#linearGradient9952"
       id="linearGradient3024"
       gradientUnits="userSpaceOnUse"
       gradientTransform="matrix(-8.217683e-33,-0.954074,7.242089,0.000000,-305.0412,-142.6872)"
       x1="-181.00027"
       y1="65.430992"
       x2="-149.55615"
       y2="65.430992" />
    <linearGradient
       inkscape:collect="always"
       xlink:href="#linearGradient9952"
       id="linearGradient3048"
       gradientUnits="userSpaceOnUse"
       gradientTransform="matrix(0.664395,0.684716,-0.684716,0.664395,124.5953,290.1885)"
       x1="-181.00027"
       y1="65.430992"
       x2="-149.55615"
       y2="65.430992" />
    <linearGradient
       inkscape:collect="always"
       xlink:href="#linearGradient9952"
       id="linearGradient3049"
       gradientUnits="userSpaceOnUse"
       gradientTransform="matrix(0.924683,0.234989,-0.234989,0.924683,142.2812,191.7570)"
       x1="-181.00027"
       y1="65.430992"
       x2="-149.55615"
       y2="65.430992" />
    <linearGradient
       inkscape:collect="always"
       xlink:href="#linearGradient9952"
       id="linearGradient3050"
       gradientUnits="userSpaceOnUse"
       gradientTransform="matrix(0.231054,0.925674,0.925674,-0.231054,-59.19725,392.3917)"
       x1="-181.00027"
       y1="65.430992"
       x2="-149.55615"
       y2="65.430992" />
    <linearGradient
       inkscape:collect="always"
       xlink:href="#linearGradient9952"
       id="linearGradient3051"
       gradientUnits="userSpaceOnUse"
       gradientTransform="matrix(0.664395,0.684716,-0.684716,0.664395,124.5953,290.1885)"
       x1="-181.00027"
       y1="65.430992"
       x2="-149.55615"
       y2="65.430992" />
    <linearGradient
       inkscape:collect="always"
       xlink:href="#linearGradient9952"
       id="linearGradient3052"
       gradientUnits="userSpaceOnUse"
       gradientTransform="matrix(0.924683,0.234989,-0.234989,0.924683,142.2812,191.7570)"
       x1="-181.00027"
       y1="65.430992"
       x2="-149.55615"
       y2="65.430992" />
    <linearGradient
       inkscape:collect="always"
       xlink:href="#linearGradient9952"
       id="linearGradient3053"
       gradientUnits="userSpaceOnUse"
       gradientTransform="matrix(0.231054,0.925674,0.925674,-0.231054,-59.19725,392.3917)"
       x1="-181.00027"
       y1="65.430992"
       x2="-149.55615"
       y2="65.430992" />
    <linearGradient
       inkscape:collect="always"
       xlink:href="#linearGradient9952"
       id="linearGradient3055"
       gradientUnits="userSpaceOnUse"
       gradientTransform="matrix(8.217683e-33,0.954074,-7.242089,0.000000,625.0412,462.6871)"
       x1="-181.00027"
       y1="65.430992"
       x2="-149.55615"
       y2="65.430992" />
  </defs>
  <sodipodi:namedview
     id="base"
     pagecolor="#ffffff"
     bordercolor="#666666"
     borderopacity="1.0"
     inkscape:pageopacity="0.0"
     inkscape:pageshadow="2"
     inkscape:zoom="2.1102718"
     inkscape:cx="126.13533"
     inkscape:cy="127.99995"
     inkscape:current-layer="svg1"
     gridspacingy="10.000000pt"
     gridspacingx="10.000000pt"
     gridoriginy="0.0000000pt"
     gridoriginx="0.0000000pt"
     inkscape:window-width="1273"
     inkscape:window-height="944"
     inkscape:window-x="0"
     inkscape:window-y="46"
     showguides="true"
     inkscape:guide-bbox="true" />
  <metadata
     id="metadata4">
    <rdf:RDF>
      <cc:Work
         rdf:about="">
        <dc:format>image/svg+xml</dc:format>
        <dc:type
           rdf:resource="http://purl.org/dc/dcmitype/StillImage" />
        <cc:license
           rdf:resource="http://creativecommons.org/licenses/GPL/2.0/" />
        <dc:title>articulos</dc:title>
        <dc:date>1 d'agost de 2005</dc:date>
        <dc:creator>
          <cc:Agent>
            <dc:title>Raül Martínez i Peris</dc:title>
          </cc:Agent>
        </dc:creator>
        <dc:language>es-ES</dc:language>
        <dc:rights>
          <cc:Agent>
            <dc:title>Raül Martínez i Peris</dc:title>
          </cc:Agent>
        </dc:rights>
        <dc:publisher>
          <cc:Agent>
            <dc:title>Raül Martínez i Peris</dc:title>
          </cc:Agent>
        </dc:publisher>
        <dc:subject>
          <rdf:Bag>
            <rdf:li>iconos</rdf:li>
          </rdf:Bag>
        </dc:subject>
      </cc:Work>
      <cc:License
         rdf:about="http://creativecommons.org/licenses/GPL/2.0/">
        <cc:permits
           rdf:resource="http://web.resource.org/cc/Reproduction" />
        <cc:permits
           rdf:resource="http://web.resource.org/cc/Distribution" />
        <cc:requires
           rdf:resource="http://web.resource.org/cc/Notice" />
        <cc:permits
           rdf:resource="http://web.resource.org/cc/DerivativeWorks" />
        <cc:requires
           rdf:resource="http://web.resource.org/cc/ShareAlike" />
        <cc:requires
           rdf:resource="http://web.resource.org/cc/SourceCode" />
      </cc:License>
    </rdf:RDF>
  </metadata>
  <g
     inkscape:label="Base"
     inkscape:groupmode="layer"
     id="layer1"
     style="display:block"
     sodipodi:insensitive="1">
    <rect
       style="fill:#ffffff;fill-opacity:1.0000000;fill-rule:evenodd;stroke:none;stroke-width:8.9802618;stroke-miterlimit:4.0000000;stroke-opacity:1.0000000"
       id="rect2373"
       width="320.00000"
       height="320.00000"
       x="0.0000000"
       y="0.0000000"
       rx="0.0000000"
       ry="0.0000000" />
  </g>
  <g
     inkscape:groupmode="layer"
     id="layer5"
     inkscape:label="Boto"
     style="display:block"
     sodipodi:insensitive="1">
    <path
       style="fill:url(#linearGradient2372);fill-opacity:1.0000000;fill-rule:evenodd;stroke:none;stroke-width:8.9802618;stroke-miterlimit:4.0000000;stroke-opacity:1.0000000;display:block"
       d="M 289.14954,30.846585 L 320.00000,30.923900 L 320.00000,289.10762 L 289.18429,289.05590 L 289.14954,30.846585 z "
       id="rect10002"
       sodipodi:nodetypes="ccccc" />
    <g
       id="g2064"
       transform="translate(329.5388,79.35008)"
       style="display:block">
      <path
         style="fill:url(#linearGradient2369);fill-opacity:1.0000000;fill-rule:evenodd;stroke:none;stroke-width:8.9802618;stroke-miterlimit:4.0000000;stroke-opacity:1.0000000"
         d="M -13.666605,224.15727 L -19.570525,231.25693 L -25.891519,237.00110 L -40.461822,209.72663 L -13.666605,224.15727 z "
         id="path2053"
         sodipodi:nodetypes="ccccc" />
      <path
         style="fill:url(#linearGradient2370);fill-opacity:1.0000000;fill-rule:evenodd;stroke:none;stroke-width:8.9802618;stroke-miterlimit:4.0000000;stroke-opacity:1.0000000"
         d="M -9.5387644,209.84671 L -11.386019,217.11565 L -13.233279,224.38461 L -40.461822,209.72663 L -9.5387644,209.84671 z "
         id="path2060"
         sodipodi:nodetypes="ccccc" />
      <path
         style="fill:url(#linearGradient2371);fill-opacity:1.0000000;fill-rule:evenodd;stroke:none;stroke-width:8.9802618;stroke-miterlimit:4.0000000;stroke-opacity:1.0000000"
         d="M -40.461822,240.64992 L -33.185084,238.83361 L -25.908336,237.01728 L -40.450347,209.72663 L -40.461822,240.64992 z "
         id="path2062"
         sodipodi:nodetypes="ccccc" />
    </g>
    <g
       id="g2999"
       transform="matrix(0.000000,1.000000,-1.000000,0.000000,240.6499,329.5388)"
       style="display:block">
      <path
         style="fill:url(#linearGradient3003);fill-opacity:1.0000000;fill-rule:evenodd;stroke:none;stroke-width:8.9802618;stroke-miterlimit:4.0000000;stroke-opacity:1.0000000"
         d="M -13.666605,224.15727 L -19.570525,231.25693 L -25.891519,237.00110 L -40.461822,209.72663 L -13.666605,224.15727 z "
         id="path3000"
         sodipodi:nodetypes="ccccc" />
      <path
         style="fill:url(#linearGradient3004);fill-opacity:1.0000000;fill-rule:evenodd;stroke:none;stroke-width:8.9802618;stroke-miterlimit:4.0000000;stroke-opacity:1.0000000"
         d="M -9.5387644,209.84671 L -11.386019,217.11565 L -13.233279,224.38461 L -40.461822,209.72663 L -9.5387644,209.84671 z "
         id="path3001"
         sodipodi:nodetypes="ccccc" />
      <path
         style="fill:url(#linearGradient3005);fill-opacity:1.0000000;fill-rule:evenodd;stroke:none;stroke-width:8.9802618;stroke-miterlimit:4.0000000;stroke-opacity:1.0000000"
         d="M -40.461822,240.64992 L -33.185084,238.83361 L -25.908336,237.01728 L -40.450347,209.72663 L -40.461822,240.64992 z "
         id="path3002"
         sodipodi:nodetypes="ccccc" />
    </g>
    <g
       id="g3006"
       transform="matrix(0.000000,-1.000000,1.000000,0.000000,79.35008,-9.538764)"
       style="display:block">
      <path
         style="fill:url(#linearGradient3051);fill-opacity:1.0000000;fill-rule:evenodd;stroke:none;stroke-width:8.9802618;stroke-miterlimit:4.0000000;stroke-opacity:1.0000000"
         d="M -13.666605,224.15727 L -19.570525,231.25693 L -25.891519,237.00110 L -40.461822,209.72663 L -13.666605,224.15727 z "
         id="path3007"
         sodipodi:nodetypes="ccccc" />
      <path
         style="fill:url(#linearGradient3052);fill-opacity:1.0000000;fill-rule:evenodd;stroke:none;stroke-width:8.9802618;stroke-miterlimit:4.0000000;stroke-opacity:1.0000000"
         d="M -9.5387644,209.84671 L -11.386019,217.11565 L -13.233279,224.38461 L -40.461822,209.72663 L -9.5387644,209.84671 z "
         id="path3008"
         sodipodi:nodetypes="ccccc" />
      <path
         style="fill:url(#linearGradient3053);fill-opacity:1.0000000;fill-rule:evenodd;stroke:none;stroke-width:8.9802618;stroke-miterlimit:4.0000000;stroke-opacity:1.0000000"
         d="M -40.461822,240.64992 L -33.185084,238.83361 L -25.908336,237.01728 L -40.450347,209.72663 L -40.461822,240.64992 z "
         id="path3009"
         sodipodi:nodetypes="ccccc" />
    </g>
    <g
       id="g3010"
       transform="matrix(-1.000000,0.000000,0.000000,-1.000000,-9.538764,240.6500)"
       style="display:block">
      <path
         style="fill:url(#linearGradient3048);fill-opacity:1.0000000;fill-rule:evenodd;stroke:none;stroke-width:8.9802618;stroke-miterlimit:4.0000000;stroke-opacity:1.0000000"
         d="M -13.666605,224.15727 L -19.570525,231.25693 L -25.891519,237.00110 L -40.461822,209.72663 L -13.666605,224.15727 z "
         id="path3011"
         sodipodi:nodetypes="ccccc" />
      <path
         style="fill:url(#linearGradient3049);fill-opacity:1.0000000;fill-rule:evenodd;stroke:none;stroke-width:8.9802618;stroke-miterlimit:4.0000000;stroke-opacity:1.0000000"
         d="M -9.5387644,209.84671 L -11.386019,217.11565 L -13.233279,224.38461 L -40.461822,209.72663 L -9.5387644,209.84671 z "
         id="path3012"
         sodipodi:nodetypes="ccccc" />
      <path
         style="fill:url(#linearGradient3050);fill-opacity:1.0000000;fill-rule:evenodd;stroke:none;stroke-width:8.9802618;stroke-miterlimit:4.0000000;stroke-opacity:1.0000000"
         d="M -40.461822,240.64992 L -33.185084,238.83361 L -25.908336,237.01728 L -40.450347,209.72663 L -40.461822,240.64992 z "
         id="path3013"
         sodipodi:nodetypes="ccccc" />
    </g>
    <path
       style="fill:url(#linearGradient3022);fill-opacity:1.0000000;fill-rule:evenodd;stroke:none;stroke-width:8.9802618;stroke-miterlimit:4.0000000;stroke-opacity:1.0000000;display:block"
       d="M 30.850460,289.10762 L 1.1102230e-16,289.03030 L 1.1102230e-16,30.846580 L 30.815710,30.898300 L 30.850460,289.10762 z "
       id="path3021"
       sodipodi:nodetypes="ccccc" />
    <path
       style="fill:url(#linearGradient3024);fill-opacity:1.0000000;fill-rule:evenodd;stroke:none;stroke-width:8.9802618;stroke-miterlimit:4.0000000;stroke-opacity:1.0000000;display:block"
       d="M 30.869480,30.850460 L 30.946800,-5.6843419e-14 L 289.13052,-5.6843419e-14 L 289.07880,30.815710 L 30.869480,30.850460 z "
       id="path3023"
       sodipodi:nodetypes="ccccc" />
    <path
       style="fill:url(#linearGradient3055);fill-opacity:1.0000000;fill-rule:evenodd;stroke:none;stroke-width:8.9802618;stroke-miterlimit:4.0000000;stroke-opacity:1.0000000;display:block"
       d="M 289.13052,289.14954 L 289.05320,320.00000 L 30.869480,320.00000 L 30.921200,289.18429 L 289.13052,289.14954 z "
       id="path3054"
       sodipodi:nodetypes="ccccc" />
    <rect
       style="fill:#0000ff;fill-opacity:0.78431374;fill-rule:evenodd;stroke:none;stroke-width:15.000000;stroke-miterlimit:4.0000000;stroke-opacity:1.0000000"
       id="rect3057"
       width="265.03928"
       height="265.03928"
       x="27.480362"
       y="27.480362" />
    <rect
       style="fill:#ffffff;fill-opacity:0.85537916;fill-rule:evenodd;stroke:none;stroke-width:8.9802618;stroke-miterlimit:4.0000000;stroke-opacity:1.0000000;display:block"
       id="rect5542"
       width="320.00000"
       height="320.00000"
       x="0.0000000"
       y="-2.8421709e-14"
       rx="0.0000000"
       ry="0.0000000" />
    <path
       style="fill:#ffffff;fill-opacity:1.0000000;fill-rule:evenodd;stroke:none;stroke-width:15.000000;stroke-miterlimit:4.0000000;stroke-opacity:1.0000000;"
       d="M 55.447085,279.42244 L 39.870165,279.40523 L 39.870165,40.016405 L 279.48124,40.016405 L 279.48407,55.593328 L 55.447085,55.593328 L 55.447085,279.42244 z "
       id="path1115"
       sodipodi:nodetypes="ccccccc" />
    <path
       style="fill:#000000;fill-opacity:1.0000000;fill-rule:evenodd;stroke:none;stroke-width:15.000000;stroke-miterlimit:4.0000000;stroke-opacity:1.0000000;"
       d="M 25.278887,304.26430 L 25.302367,295.21564 L 294.76719,295.21564 L 294.76719,25.329996 L 303.81585,25.225167 L 303.81585,304.26430 L 25.278887,304.26430 z "
       id="path1119"
       sodipodi:nodetypes="ccccccc" />
    <path
       id="rect6786"
       style="opacity:0.39999983;fill:#0000ff;fill-opacity:1.0000000;fill-rule:evenodd;stroke:none;stroke-width:15.000000;stroke-miterlimit:4.0000000;stroke-opacity:1.0000000"
       d="M 25.000001,25.000000 L 295.00000,25.000000 L 295.00000,295.00000 L 25.000001,295.00000 L 25.000001,25.000000 z M 40.576924,40.576923 L 279.42307,40.576923 L 279.42307,279.42307 L 40.576924,279.42307 L 40.576924,40.576923 z " />
  </g>
  <path
     d=""
     id="path3081" />
  <g
     id="g1271"
     inkscape:groupmode="layer"
     inkscape:label="Dibuix"
     transform="translate(184.5158,-340.6444)"
     style="display:block" />
  <path
     style="fill:#96948a;stroke:none"
     d="M 183.78722,124.95699 C 188.35868,116.40164 205.72679,92.575668 207.10555,91.575967 C 207.69993,91.343253 227.77688,105.75996 233.37609,112.00308 C 236.27224,115.38253 238.78581,119.06944 241.13214,122.84568 C 241.17789,123.26924 219.82909,140.40221 210.33433,147.74572 C 209.99976,147.53171 205.43901,140.84151 202.81208,138.30007 C 198.71428,134.18902 185.50160,125.93619 183.78722,124.95699 z M 144.60453,137.42539 C 149.41318,134.29663 154.76940,131.91270 160.43565,130.89313 C 165.81263,129.95270 171.39999,130.60354 176.53166,132.40325 C 182.31327,134.44099 187.47511,138.06002 191.60372,142.56753 C 197.15666,148.54085 200.98891,156.16117 202.18779,164.24816 C 203.20471,171.15021 202.17148,178.39158 198.99431,184.62468 C 196.75241,188.99758 193.43429,192.75021 189.64617,195.84948 C 185.45350,199.30219 180.66929,202.10289 175.46485,203.71119 C 168.61385,205.77257 161.09061,205.53646 154.39288,203.01310 C 147.84763,200.61880 142.07028,196.28799 137.74586,190.84109 C 132.75695,184.63331 129.53512,176.96092 128.88047,169.00478 C 128.27540,161.34967 130.27741,153.46688 134.67691,147.15066 C 137.34582,143.32538 140.85807,140.16682 144.60453,137.42539 z M 78.425179,172.67432 C 91.298591,170.01819 104.17206,167.36207 117.04540,164.70582 C 117.85601,171.75270 120.25324,178.55337 123.59973,184.78434 C 125.44815,188.22930 127.57731,191.51273 129.73646,194.76852 C 130.04100,194.97388 111.40384,212.99381 107.35612,215.81483 C 103.87313,217.77892 96.789463,220.63771 95.912265,220.44216 C 95.252147,220.23356 86.024863,206.02904 83.805840,199.17933 C 81.798028,192.25491 78.679829,174.47438 78.425179,172.67432 z M 73.738286,150.26876 C 72.745208,157.73841 71.877683,165.26905 72.187118,172.81749 C 72.666706,183.61571 74.969515,194.36114 79.237534,204.30434 C 82.279743,211.51031 86.368520,218.29150 91.472419,224.22700 C 100.66349,235.10727 112.45854,243.69562 125.45130,249.47887 C 146.74564,258.98213 171.29641,261.07103 193.85407,255.10453 C 204.99042,252.16213 215.63933,247.17952 224.77541,240.13135 C 235.28497,232.01683 243.67812,221.27914 249.38123,209.31125 C 253.21645,201.30426 255.75998,192.71876 257.30039,183.98706 C 263.18248,157.05334 256.91272,140.73048 252.83353,130.96346 C 247.25096,115.80776 232.38392,100.85505 223.51730,94.908061 C 218.36024,91.449093 198.08542,80.987881 193.07548,79.611686 C 185.43063,77.511704 177.59525,76.060164 169.67930,75.554420 C 157.09348,74.730631 144.32081,76.133473 132.31714,80.059516 C 123.71522,82.867848 115.52387,86.979435 108.23118,92.347286 C 99.455136,98.774125 91.890906,106.92451 86.439805,116.35709 C 85.063560,118.76210 75.612618,144.55390 73.738286,150.26876 z M 66.239156,194.42380 C 59.055324,168.91325 62.319758,140.62617 75.197159,117.45487 C 82.708737,103.70067 93.354678,91.638936 106.20739,82.653287 C 121.07965,72.145440 138.76183,65.593847 156.92578,64.118631 C 177.65499,62.342931 198.91039,67.013699 216.91986,77.452093 C 227.34802,83.484455 236.70543,91.347817 244.50400,100.52685 C 252.93699,110.48761 259.45018,122.07263 263.53233,134.47159 C 268.34851,149.00443 269.87964,164.62067 267.92087,179.80798 C 266.05402,194.65978 260.91938,209.10575 252.88645,221.74311 C 245.28729,233.84776 235.13473,244.32448 223.33870,252.38503 C 216.51246,257.03962 209.10330,260.83808 201.33425,263.65045 C 182.94813,270.37164 162.63611,271.86596 143.50911,267.61127 C 122.01923,262.84350 102.10167,251.08200 87.715054,234.39805 C 77.747336,222.86358 70.244596,209.15114 66.239156,194.42380 z M 169.30567,174.64797 C 173.89692,173.13250 176.15732,170.25490 176.06522,165.04525 C 175.91253,156.40580 162.38952,156.53284 159.68227,158.04187 C 154.13855,161.13174 155.44609,168.82476 156.49337,170.21725 C 160.21297,175.16240 165.81792,175.79919 169.30567,174.64797 z "
     id="path212"
     sodipodi:nodetypes="ccccccccccccccccccccccccccccccccccccccssccccccccccccccccccccssss" />
</svg>
