<?xml version="1.0" encoding="UTF-8" standalone="no"?>
<!-- Created with Inkscape (http://www.inkscape.org/) -->
<svg
   xmlns:dc="http://purl.org/dc/elements/1.1/"
   xmlns:cc="http://web.resource.org/cc/"
   xmlns:rdf="http://www.w3.org/1999/02/22-rdf-syntax-ns#"
   xmlns:svg="http://www.w3.org/2000/svg"
   xmlns="http://www.w3.org/2000/svg"
   xmlns:xlink="http://www.w3.org/1999/xlink"
   xmlns:sodipodi="http://inkscape.sourceforge.net/DTD/sodipodi-0.dtd"
   xmlns:inkscape="http://www.inkscape.org/namespaces/inkscape"
   width="320.00000"
   height="320.00000"
   id="svg1"
   sodipodi:version="0.32"
   inkscape:version="0.42"
   sodipodi:docbase="/home/raul/docs/iglues/v0.4/svg"
   sodipodi:docname="i_bulmages_ventas_partes_mas.svg"
   version="1.0"
   x="0.0000000"
   y="0.0000000"
   inkscape:export-filename="/home/raul/arxius/iglues/nous dissenys/png/i_bulmages_ventas_partes_mas.png"
   inkscape:export-xdpi="96.000000"
   inkscape:export-ydpi="96.000000">
  <defs
     id="defs3">
    <linearGradient
       inkscape:collect="always"
       id="linearGradient9952">
      <stop
         style="stop-color:#0000ff;stop-opacity:1;"
         offset="0"
         id="stop9953" />
      <stop
         style="stop-color:#0000ff;stop-opacity:0;"
         offset="1"
         id="stop9954" />
    </linearGradient>
    <linearGradient
       inkscape:collect="always"
       xlink:href="#linearGradient9952"
       id="linearGradient2369"
       gradientUnits="userSpaceOnUse"
       gradientTransform="matrix(0.664395,0.684716,-0.684716,0.664395,124.5953,290.1885)"
       x1="-181.00027"
       y1="65.430992"
       x2="-149.55615"
       y2="65.430992" />
    <linearGradient
       inkscape:collect="always"
       xlink:href="#linearGradient9952"
       id="linearGradient2370"
       gradientUnits="userSpaceOnUse"
       gradientTransform="matrix(0.924683,0.234989,-0.234989,0.924683,142.2812,191.7570)"
       x1="-181.00027"
       y1="65.430992"
       x2="-149.55615"
       y2="65.430992" />
    <linearGradient
       inkscape:collect="always"
       xlink:href="#linearGradient9952"
       id="linearGradient2371"
       gradientUnits="userSpaceOnUse"
       gradientTransform="matrix(0.231054,0.925674,0.925674,-0.231054,-59.19725,392.3917)"
       x1="-181.00027"
       y1="65.430992"
       x2="-149.55615"
       y2="65.430992" />
    <linearGradient
       inkscape:collect="always"
       xlink:href="#linearGradient9952"
       id="linearGradient2372"
       gradientUnits="userSpaceOnUse"
       gradientTransform="matrix(0.954074,-8.217683e-33,0.000000,7.242089,462.6874,-305.0642)"
       x1="-181.00027"
       y1="65.430992"
       x2="-149.55615"
       y2="65.430992" />
    <linearGradient
       inkscape:collect="always"
       xlink:href="#linearGradient9952"
       id="linearGradient3003"
       gradientUnits="userSpaceOnUse"
       gradientTransform="matrix(0.664395,0.684716,-0.684716,0.664395,124.5953,290.1885)"
       x1="-181.00027"
       y1="65.430992"
       x2="-149.55615"
       y2="65.430992" />
    <linearGradient
       inkscape:collect="always"
       xlink:href="#linearGradient9952"
       id="linearGradient3004"
       gradientUnits="userSpaceOnUse"
       gradientTransform="matrix(0.924683,0.234989,-0.234989,0.924683,142.2812,191.7570)"
       x1="-181.00027"
       y1="65.430992"
       x2="-149.55615"
       y2="65.430992" />
    <linearGradient
       inkscape:collect="always"
       xlink:href="#linearGradient9952"
       id="linearGradient3005"
       gradientUnits="userSpaceOnUse"
       gradientTransform="matrix(0.231054,0.925674,0.925674,-0.231054,-59.19725,392.3917)"
       x1="-181.00027"
       y1="65.430992"
       x2="-149.55615"
       y2="65.430992" />
    <linearGradient
       inkscape:collect="always"
       xlink:href="#linearGradient9952"
       id="linearGradient3022"
       gradientUnits="userSpaceOnUse"
       gradientTransform="matrix(-0.954074,8.217683e-33,0.000000,-7.242089,-142.6873,625.0184)"
       x1="-181.00027"
       y1="65.430992"
       x2="-149.55615"
       y2="65.430992" />
    <linearGradient
       inkscape:collect="always"
       xlink:href="#linearGradient9952"
       id="linearGradient3024"
       gradientUnits="userSpaceOnUse"
       gradientTransform="matrix(-8.217683e-33,-0.954074,7.242089,0.000000,-305.0412,-142.6872)"
       x1="-181.00027"
       y1="65.430992"
       x2="-149.55615"
       y2="65.430992" />
    <linearGradient
       inkscape:collect="always"
       xlink:href="#linearGradient9952"
       id="linearGradient3048"
       gradientUnits="userSpaceOnUse"
       gradientTransform="matrix(0.664395,0.684716,-0.684716,0.664395,124.5953,290.1885)"
       x1="-181.00027"
       y1="65.430992"
       x2="-149.55615"
       y2="65.430992" />
    <linearGradient
       inkscape:collect="always"
       xlink:href="#linearGradient9952"
       id="linearGradient3049"
       gradientUnits="userSpaceOnUse"
       gradientTransform="matrix(0.924683,0.234989,-0.234989,0.924683,142.2812,191.7570)"
       x1="-181.00027"
       y1="65.430992"
       x2="-149.55615"
       y2="65.430992" />
    <linearGradient
       inkscape:collect="always"
       xlink:href="#linearGradient9952"
       id="linearGradient3050"
       gradientUnits="userSpaceOnUse"
       gradientTransform="matrix(0.231054,0.925674,0.925674,-0.231054,-59.19725,392.3917)"
       x1="-181.00027"
       y1="65.430992"
       x2="-149.55615"
       y2="65.430992" />
    <linearGradient
       inkscape:collect="always"
       xlink:href="#linearGradient9952"
       id="linearGradient3051"
       gradientUnits="userSpaceOnUse"
       gradientTransform="matrix(0.664395,0.684716,-0.684716,0.664395,124.5953,290.1885)"
       x1="-181.00027"
       y1="65.430992"
       x2="-149.55615"
       y2="65.430992" />
    <linearGradient
       inkscape:collect="always"
       xlink:href="#linearGradient9952"
       id="linearGradient3052"
       gradientUnits="userSpaceOnUse"
       gradientTransform="matrix(0.924683,0.234989,-0.234989,0.924683,142.2812,191.7570)"
       x1="-181.00027"
       y1="65.430992"
       x2="-149.55615"
       y2="65.430992" />
    <linearGradient
       inkscape:collect="always"
       xlink:href="#linearGradient9952"
       id="linearGradient3053"
       gradientUnits="userSpaceOnUse"
       gradientTransform="matrix(0.231054,0.925674,0.925674,-0.231054,-59.19725,392.3917)"
       x1="-181.00027"
       y1="65.430992"
       x2="-149.55615"
       y2="65.430992" />
    <linearGradient
       inkscape:collect="always"
       xlink:href="#linearGradient9952"
       id="linearGradient3055"
       gradientUnits="userSpaceOnUse"
       gradientTransform="matrix(8.217683e-33,0.954074,-7.242089,0.000000,625.0412,462.6871)"
       x1="-181.00027"
       y1="65.430992"
       x2="-149.55615"
       y2="65.430992" />
    <linearGradient
       inkscape:collect="always"
       xlink:href="#linearGradient9952"
       id="linearGradient1354"
       gradientUnits="userSpaceOnUse"
       gradientTransform="matrix(8.217683e-33,0.954074,-7.242089,0.000000,625.0412,462.6871)"
       x1="-181.00027"
       y1="65.430992"
       x2="-149.55615"
       y2="65.430992" />
    <linearGradient
       inkscape:collect="always"
       xlink:href="#linearGradient9952"
       id="linearGradient1353"
       gradientUnits="userSpaceOnUse"
       gradientTransform="matrix(0.231054,0.925674,0.925674,-0.231054,-59.19725,392.3917)"
       x1="-181.00027"
       y1="65.430992"
       x2="-149.55615"
       y2="65.430992" />
    <linearGradient
       inkscape:collect="always"
       xlink:href="#linearGradient9952"
       id="linearGradient1352"
       gradientUnits="userSpaceOnUse"
       gradientTransform="matrix(0.924683,0.234989,-0.234989,0.924683,142.2812,191.7570)"
       x1="-181.00027"
       y1="65.430992"
       x2="-149.55615"
       y2="65.430992" />
    <linearGradient
       inkscape:collect="always"
       xlink:href="#linearGradient9952"
       id="linearGradient1351"
       gradientUnits="userSpaceOnUse"
       gradientTransform="matrix(0.664395,0.684716,-0.684716,0.664395,124.5953,290.1885)"
       x1="-181.00027"
       y1="65.430992"
       x2="-149.55615"
       y2="65.430992" />
    <linearGradient
       inkscape:collect="always"
       xlink:href="#linearGradient9952"
       id="linearGradient1350"
       gradientUnits="userSpaceOnUse"
       gradientTransform="matrix(0.231054,0.925674,0.925674,-0.231054,-59.19725,392.3917)"
       x1="-181.00027"
       y1="65.430992"
       x2="-149.55615"
       y2="65.430992" />
    <linearGradient
       inkscape:collect="always"
       xlink:href="#linearGradient9952"
       id="linearGradient1349"
       gradientUnits="userSpaceOnUse"
       gradientTransform="matrix(0.924683,0.234989,-0.234989,0.924683,142.2812,191.7570)"
       x1="-181.00027"
       y1="65.430992"
       x2="-149.55615"
       y2="65.430992" />
    <linearGradient
       inkscape:collect="always"
       xlink:href="#linearGradient9952"
       id="linearGradient1348"
       gradientUnits="userSpaceOnUse"
       gradientTransform="matrix(0.664395,0.684716,-0.684716,0.664395,124.5953,290.1885)"
       x1="-181.00027"
       y1="65.430992"
       x2="-149.55615"
       y2="65.430992" />
    <linearGradient
       inkscape:collect="always"
       xlink:href="#linearGradient9952"
       id="linearGradient1347"
       gradientUnits="userSpaceOnUse"
       gradientTransform="matrix(-8.217683e-33,-0.954074,7.242089,0.000000,-305.0412,-142.6872)"
       x1="-181.00027"
       y1="65.430992"
       x2="-149.55615"
       y2="65.430992" />
    <linearGradient
       inkscape:collect="always"
       xlink:href="#linearGradient9952"
       id="linearGradient1346"
       gradientUnits="userSpaceOnUse"
       gradientTransform="matrix(-0.954074,8.217683e-33,0.000000,-7.242089,-142.6873,625.0184)"
       x1="-181.00027"
       y1="65.430992"
       x2="-149.55615"
       y2="65.430992" />
    <linearGradient
       inkscape:collect="always"
       xlink:href="#linearGradient9952"
       id="linearGradient1345"
       gradientUnits="userSpaceOnUse"
       gradientTransform="matrix(0.231054,0.925674,0.925674,-0.231054,-59.19725,392.3917)"
       x1="-181.00027"
       y1="65.430992"
       x2="-149.55615"
       y2="65.430992" />
    <linearGradient
       inkscape:collect="always"
       xlink:href="#linearGradient9952"
       id="linearGradient1344"
       gradientUnits="userSpaceOnUse"
       gradientTransform="matrix(0.924683,0.234989,-0.234989,0.924683,142.2812,191.7570)"
       x1="-181.00027"
       y1="65.430992"
       x2="-149.55615"
       y2="65.430992" />
    <linearGradient
       inkscape:collect="always"
       xlink:href="#linearGradient9952"
       id="linearGradient1343"
       gradientUnits="userSpaceOnUse"
       gradientTransform="matrix(0.664395,0.684716,-0.684716,0.664395,124.5953,290.1885)"
       x1="-181.00027"
       y1="65.430992"
       x2="-149.55615"
       y2="65.430992" />
    <linearGradient
       inkscape:collect="always"
       xlink:href="#linearGradient9952"
       id="linearGradient1342"
       gradientUnits="userSpaceOnUse"
       gradientTransform="matrix(0.954074,-8.217683e-33,0.000000,7.242089,462.6874,-305.0642)"
       x1="-181.00027"
       y1="65.430992"
       x2="-149.55615"
       y2="65.430992" />
    <linearGradient
       inkscape:collect="always"
       xlink:href="#linearGradient9952"
       id="linearGradient1341"
       gradientUnits="userSpaceOnUse"
       gradientTransform="matrix(0.231054,0.925674,0.925674,-0.231054,-59.19725,392.3917)"
       x1="-181.00027"
       y1="65.430992"
       x2="-149.55615"
       y2="65.430992" />
    <linearGradient
       inkscape:collect="always"
       xlink:href="#linearGradient9952"
       id="linearGradient1340"
       gradientUnits="userSpaceOnUse"
       gradientTransform="matrix(0.924683,0.234989,-0.234989,0.924683,142.2812,191.7570)"
       x1="-181.00027"
       y1="65.430992"
       x2="-149.55615"
       y2="65.430992" />
    <linearGradient
       inkscape:collect="always"
       xlink:href="#linearGradient9952"
       id="linearGradient1339"
       gradientUnits="userSpaceOnUse"
       gradientTransform="matrix(0.664395,0.684716,-0.684716,0.664395,124.5953,290.1885)"
       x1="-181.00027"
       y1="65.430992"
       x2="-149.55615"
       y2="65.430992" />
    <linearGradient
       inkscape:collect="always"
       xlink:href="#linearGradient9952"
       id="linearGradient1417"
       gradientUnits="userSpaceOnUse"
       gradientTransform="matrix(0.954074,-8.217683e-33,0.000000,7.242089,462.6874,-305.0642)"
       x1="-181.00027"
       y1="65.430992"
       x2="-149.55615"
       y2="65.430992" />
    <linearGradient
       inkscape:collect="always"
       xlink:href="#linearGradient9952"
       id="linearGradient1418"
       gradientUnits="userSpaceOnUse"
       gradientTransform="matrix(0.664395,0.684716,-0.684716,0.664395,124.5953,290.1885)"
       x1="-181.00027"
       y1="65.430992"
       x2="-149.55615"
       y2="65.430992" />
    <linearGradient
       inkscape:collect="always"
       xlink:href="#linearGradient9952"
       id="linearGradient1419"
       gradientUnits="userSpaceOnUse"
       gradientTransform="matrix(0.924683,0.234989,-0.234989,0.924683,142.2812,191.7570)"
       x1="-181.00027"
       y1="65.430992"
       x2="-149.55615"
       y2="65.430992" />
    <linearGradient
       inkscape:collect="always"
       xlink:href="#linearGradient9952"
       id="linearGradient1420"
       gradientUnits="userSpaceOnUse"
       gradientTransform="matrix(0.231054,0.925674,0.925674,-0.231054,-59.19725,392.3917)"
       x1="-181.00027"
       y1="65.430992"
       x2="-149.55615"
       y2="65.430992" />
    <linearGradient
       inkscape:collect="always"
       xlink:href="#linearGradient9952"
       id="linearGradient1421"
       gradientUnits="userSpaceOnUse"
       gradientTransform="matrix(0.664395,0.684716,-0.684716,0.664395,124.5953,290.1885)"
       x1="-181.00027"
       y1="65.430992"
       x2="-149.55615"
       y2="65.430992" />
    <linearGradient
       inkscape:collect="always"
       xlink:href="#linearGradient9952"
       id="linearGradient1422"
       gradientUnits="userSpaceOnUse"
       gradientTransform="matrix(0.924683,0.234989,-0.234989,0.924683,142.2812,191.7570)"
       x1="-181.00027"
       y1="65.430992"
       x2="-149.55615"
       y2="65.430992" />
    <linearGradient
       inkscape:collect="always"
       xlink:href="#linearGradient9952"
       id="linearGradient1423"
       gradientUnits="userSpaceOnUse"
       gradientTransform="matrix(0.231054,0.925674,0.925674,-0.231054,-59.19725,392.3917)"
       x1="-181.00027"
       y1="65.430992"
       x2="-149.55615"
       y2="65.430992" />
    <linearGradient
       inkscape:collect="always"
       xlink:href="#linearGradient9952"
       id="linearGradient1424"
       gradientUnits="userSpaceOnUse"
       gradientTransform="matrix(0.664395,0.684716,-0.684716,0.664395,124.5953,290.1885)"
       x1="-181.00027"
       y1="65.430992"
       x2="-149.55615"
       y2="65.430992" />
    <linearGradient
       inkscape:collect="always"
       xlink:href="#linearGradient9952"
       id="linearGradient1425"
       gradientUnits="userSpaceOnUse"
       gradientTransform="matrix(0.924683,0.234989,-0.234989,0.924683,142.2812,191.7570)"
       x1="-181.00027"
       y1="65.430992"
       x2="-149.55615"
       y2="65.430992" />
    <linearGradient
       inkscape:collect="always"
       xlink:href="#linearGradient9952"
       id="linearGradient1426"
       gradientUnits="userSpaceOnUse"
       gradientTransform="matrix(0.231054,0.925674,0.925674,-0.231054,-59.19725,392.3917)"
       x1="-181.00027"
       y1="65.430992"
       x2="-149.55615"
       y2="65.430992" />
    <linearGradient
       inkscape:collect="always"
       xlink:href="#linearGradient9952"
       id="linearGradient1427"
       gradientUnits="userSpaceOnUse"
       gradientTransform="matrix(0.664395,0.684716,-0.684716,0.664395,124.5953,290.1885)"
       x1="-181.00027"
       y1="65.430992"
       x2="-149.55615"
       y2="65.430992" />
    <linearGradient
       inkscape:collect="always"
       xlink:href="#linearGradient9952"
       id="linearGradient1428"
       gradientUnits="userSpaceOnUse"
       gradientTransform="matrix(0.924683,0.234989,-0.234989,0.924683,142.2812,191.7570)"
       x1="-181.00027"
       y1="65.430992"
       x2="-149.55615"
       y2="65.430992" />
    <linearGradient
       inkscape:collect="always"
       xlink:href="#linearGradient9952"
       id="linearGradient1429"
       gradientUnits="userSpaceOnUse"
       gradientTransform="matrix(0.231054,0.925674,0.925674,-0.231054,-59.19725,392.3917)"
       x1="-181.00027"
       y1="65.430992"
       x2="-149.55615"
       y2="65.430992" />
    <linearGradient
       inkscape:collect="always"
       xlink:href="#linearGradient9952"
       id="linearGradient1430"
       gradientUnits="userSpaceOnUse"
       gradientTransform="matrix(-0.954074,8.217683e-33,0.000000,-7.242089,-142.6873,625.0184)"
       x1="-181.00027"
       y1="65.430992"
       x2="-149.55615"
       y2="65.430992" />
    <linearGradient
       inkscape:collect="always"
       xlink:href="#linearGradient9952"
       id="linearGradient1431"
       gradientUnits="userSpaceOnUse"
       gradientTransform="matrix(-8.217683e-33,-0.954074,7.242089,0.000000,-305.0412,-142.6872)"
       x1="-181.00027"
       y1="65.430992"
       x2="-149.55615"
       y2="65.430992" />
    <linearGradient
       inkscape:collect="always"
       xlink:href="#linearGradient9952"
       id="linearGradient1432"
       gradientUnits="userSpaceOnUse"
       gradientTransform="matrix(8.217683e-33,0.954074,-7.242089,0.000000,625.0412,462.6871)"
       x1="-181.00027"
       y1="65.430992"
       x2="-149.55615"
       y2="65.430992" />
  </defs>
  <sodipodi:namedview
     id="base"
     pagecolor="#ffffff"
     bordercolor="#666666"
     borderopacity="1.0"
     inkscape:pageopacity="0.0"
     inkscape:pageshadow="2"
     inkscape:zoom="2.9843750"
     inkscape:cx="126.13533"
     inkscape:cy="127.99996"
     inkscape:current-layer="g1271"
     gridspacingy="10.000000pt"
     gridspacingx="10.000000pt"
     gridoriginy="0.0000000pt"
     gridoriginx="0.0000000pt"
     inkscape:window-width="1273"
     inkscape:window-height="944"
     inkscape:window-x="0"
     inkscape:window-y="46"
     showguides="true"
     inkscape:guide-bbox="true" />
  <metadata
     id="metadata4">
    <rdf:RDF>
      <cc:Work
         rdf:about="">
        <dc:format>image/svg+xml</dc:format>
        <dc:type
           rdf:resource="http://purl.org/dc/dcmitype/StillImage" />
        <cc:license
           rdf:resource="http://creativecommons.org/licenses/GPL/2.0/" />
        <dc:title>ventas partes mas</dc:title>
        <dc:date>1 d'agost de 2005</dc:date>
        <dc:creator>
          <cc:Agent>
            <dc:title>Raül Martínez i Peris</dc:title>
          </cc:Agent>
        </dc:creator>
        <dc:language>es-ES</dc:language>
        <dc:rights>
          <cc:Agent>
            <dc:title>Raül Martínez i Peris</dc:title>
          </cc:Agent>
        </dc:rights>
        <dc:publisher>
          <cc:Agent>
            <dc:title>Raül Martínez i Peris</dc:title>
          </cc:Agent>
        </dc:publisher>
        <dc:subject>
          <rdf:Bag>
            <rdf:li>iconos</rdf:li>
          </rdf:Bag>
        </dc:subject>
      </cc:Work>
      <cc:License
         rdf:about="http://creativecommons.org/licenses/GPL/2.0/">
        <cc:permits
           rdf:resource="http://web.resource.org/cc/Reproduction" />
        <cc:permits
           rdf:resource="http://web.resource.org/cc/Distribution" />
        <cc:requires
           rdf:resource="http://web.resource.org/cc/Notice" />
        <cc:permits
           rdf:resource="http://web.resource.org/cc/DerivativeWorks" />
        <cc:requires
           rdf:resource="http://web.resource.org/cc/ShareAlike" />
        <cc:requires
           rdf:resource="http://web.resource.org/cc/SourceCode" />
      </cc:License>
    </rdf:RDF>
  </metadata>
  <g
     inkscape:label="Base"
     inkscape:groupmode="layer"
     id="layer1"
     style="display:block"
     sodipodi:insensitive="1">
    <rect
       style="fill:#ffffff;fill-opacity:1.0000000;fill-rule:evenodd;stroke:none;stroke-width:8.9802618;stroke-miterlimit:4.0000000;stroke-opacity:1.0000000"
       id="rect2373"
       width="320.00000"
       height="320.00000"
       x="0.0000000"
       y="0.0000000"
       rx="0.0000000"
       ry="0.0000000" />
  </g>
  <g
     inkscape:groupmode="layer"
     id="layer5"
     inkscape:label="Boto"
     style="display:block"
     sodipodi:insensitive="1">
    <g
       id="g1355"
       transform="translate(-7.800000e-6,-1.780000e-5)">
      <g
         inkscape:label="Base"
         inkscape:groupmode="layer"
         id="g1356"
         style="display:block"
         sodipodi:insensitive="true">
        <rect
           style="fill:#ffffff;fill-opacity:1.0000000;fill-rule:evenodd;stroke:none;stroke-width:8.9802618;stroke-miterlimit:4.0000000;stroke-opacity:1.0000000"
           id="rect1357"
           width="320.00000"
           height="320.00000"
           x="0.0000000"
           y="0.0000000"
           rx="0.0000000"
           ry="0.0000000" />
      </g>
      <g
         inkscape:groupmode="layer"
         id="g1358"
         inkscape:label="Boto"
         style="display:block">
        <path
           style="fill:url(#linearGradient1417);fill-opacity:1.0000000;fill-rule:evenodd;stroke:none;stroke-width:8.9802618;stroke-miterlimit:4.0000000;stroke-opacity:1.0000000;display:block"
           d="M 289.14954,30.846585 L 320.00000,30.923900 L 320.00000,289.10762 L 289.18429,289.05590 L 289.14954,30.846585 z "
           id="rect10002"
           sodipodi:nodetypes="ccccc" />
        <g
           id="g2064"
           transform="translate(329.5388,79.35008)"
           style="display:block">
          <path
             style="fill:url(#linearGradient1418);fill-opacity:1.0000000;fill-rule:evenodd;stroke:none;stroke-width:8.9802618;stroke-miterlimit:4.0000000;stroke-opacity:1.0000000"
             d="M -13.666605,224.15727 L -19.570525,231.25693 L -25.891519,237.00110 L -40.461822,209.72663 L -13.666605,224.15727 z "
             id="path2053"
             sodipodi:nodetypes="ccccc" />
          <path
             style="fill:url(#linearGradient1419);fill-opacity:1.0000000;fill-rule:evenodd;stroke:none;stroke-width:8.9802618;stroke-miterlimit:4.0000000;stroke-opacity:1.0000000"
             d="M -9.5387644,209.84671 L -11.386019,217.11565 L -13.233279,224.38461 L -40.461822,209.72663 L -9.5387644,209.84671 z "
             id="path2060"
             sodipodi:nodetypes="ccccc" />
          <path
             style="fill:url(#linearGradient1420);fill-opacity:1.0000000;fill-rule:evenodd;stroke:none;stroke-width:8.9802618;stroke-miterlimit:4.0000000;stroke-opacity:1.0000000"
             d="M -40.461822,240.64992 L -33.185084,238.83361 L -25.908336,237.01728 L -40.450347,209.72663 L -40.461822,240.64992 z "
             id="path2062"
             sodipodi:nodetypes="ccccc" />
        </g>
        <g
           id="g2999"
           transform="matrix(0.000000,1.000000,-1.000000,0.000000,240.6499,329.5388)"
           style="display:block">
          <path
             style="fill:url(#linearGradient1421);fill-opacity:1.0000000;fill-rule:evenodd;stroke:none;stroke-width:8.9802618;stroke-miterlimit:4.0000000;stroke-opacity:1.0000000"
             d="M -13.666605,224.15727 L -19.570525,231.25693 L -25.891519,237.00110 L -40.461822,209.72663 L -13.666605,224.15727 z "
             id="path3000"
             sodipodi:nodetypes="ccccc" />
          <path
             style="fill:url(#linearGradient1422);fill-opacity:1.0000000;fill-rule:evenodd;stroke:none;stroke-width:8.9802618;stroke-miterlimit:4.0000000;stroke-opacity:1.0000000"
             d="M -9.5387644,209.84671 L -11.386019,217.11565 L -13.233279,224.38461 L -40.461822,209.72663 L -9.5387644,209.84671 z "
             id="path3001"
             sodipodi:nodetypes="ccccc" />
          <path
             style="fill:url(#linearGradient1423);fill-opacity:1.0000000;fill-rule:evenodd;stroke:none;stroke-width:8.9802618;stroke-miterlimit:4.0000000;stroke-opacity:1.0000000"
             d="M -40.461822,240.64992 L -33.185084,238.83361 L -25.908336,237.01728 L -40.450347,209.72663 L -40.461822,240.64992 z "
             id="path3002"
             sodipodi:nodetypes="ccccc" />
        </g>
        <g
           id="g3006"
           transform="matrix(0.000000,-1.000000,1.000000,0.000000,79.35008,-9.538764)"
           style="display:block">
          <path
             style="fill:url(#linearGradient1424);fill-opacity:1.0000000;fill-rule:evenodd;stroke:none;stroke-width:8.9802618;stroke-miterlimit:4.0000000;stroke-opacity:1.0000000"
             d="M -13.666605,224.15727 L -19.570525,231.25693 L -25.891519,237.00110 L -40.461822,209.72663 L -13.666605,224.15727 z "
             id="path3007"
             sodipodi:nodetypes="ccccc" />
          <path
             style="fill:url(#linearGradient1425);fill-opacity:1.0000000;fill-rule:evenodd;stroke:none;stroke-width:8.9802618;stroke-miterlimit:4.0000000;stroke-opacity:1.0000000"
             d="M -9.5387644,209.84671 L -11.386019,217.11565 L -13.233279,224.38461 L -40.461822,209.72663 L -9.5387644,209.84671 z "
             id="path3008"
             sodipodi:nodetypes="ccccc" />
          <path
             style="fill:url(#linearGradient1426);fill-opacity:1.0000000;fill-rule:evenodd;stroke:none;stroke-width:8.9802618;stroke-miterlimit:4.0000000;stroke-opacity:1.0000000"
             d="M -40.461822,240.64992 L -33.185084,238.83361 L -25.908336,237.01728 L -40.450347,209.72663 L -40.461822,240.64992 z "
             id="path3009"
             sodipodi:nodetypes="ccccc" />
        </g>
        <g
           id="g3010"
           transform="matrix(-1.000000,0.000000,0.000000,-1.000000,-9.538764,240.6500)"
           style="display:block">
          <path
             style="fill:url(#linearGradient1427);fill-opacity:1.0000000;fill-rule:evenodd;stroke:none;stroke-width:8.9802618;stroke-miterlimit:4.0000000;stroke-opacity:1.0000000"
             d="M -13.666605,224.15727 L -19.570525,231.25693 L -25.891519,237.00110 L -40.461822,209.72663 L -13.666605,224.15727 z "
             id="path3011"
             sodipodi:nodetypes="ccccc" />
          <path
             style="fill:url(#linearGradient1428);fill-opacity:1.0000000;fill-rule:evenodd;stroke:none;stroke-width:8.9802618;stroke-miterlimit:4.0000000;stroke-opacity:1.0000000"
             d="M -9.5387644,209.84671 L -11.386019,217.11565 L -13.233279,224.38461 L -40.461822,209.72663 L -9.5387644,209.84671 z "
             id="path3012"
             sodipodi:nodetypes="ccccc" />
          <path
             style="fill:url(#linearGradient1429);fill-opacity:1.0000000;fill-rule:evenodd;stroke:none;stroke-width:8.9802618;stroke-miterlimit:4.0000000;stroke-opacity:1.0000000"
             d="M -40.461822,240.64992 L -33.185084,238.83361 L -25.908336,237.01728 L -40.450347,209.72663 L -40.461822,240.64992 z "
             id="path3013"
             sodipodi:nodetypes="ccccc" />
        </g>
        <path
           style="fill:url(#linearGradient1430);fill-opacity:1.0000000;fill-rule:evenodd;stroke:none;stroke-width:8.9802618;stroke-miterlimit:4.0000000;stroke-opacity:1.0000000;display:block"
           d="M 30.850460,289.10762 L 1.1102230e-16,289.03030 L 1.1102230e-16,30.846580 L 30.815710,30.898300 L 30.850460,289.10762 z "
           id="path3021"
           sodipodi:nodetypes="ccccc" />
        <path
           style="fill:url(#linearGradient1431);fill-opacity:1.0000000;fill-rule:evenodd;stroke:none;stroke-width:8.9802618;stroke-miterlimit:4.0000000;stroke-opacity:1.0000000;display:block"
           d="M 30.869480,30.850460 L 30.946800,-5.6843419e-14 L 289.13052,-5.6843419e-14 L 289.07880,30.815710 L 30.869480,30.850460 z "
           id="path3023"
           sodipodi:nodetypes="ccccc" />
        <path
           style="fill:url(#linearGradient1432);fill-opacity:1.0000000;fill-rule:evenodd;stroke:none;stroke-width:8.9802618;stroke-miterlimit:4.0000000;stroke-opacity:1.0000000;display:block"
           d="M 289.13052,289.14954 L 289.05320,320.00000 L 30.869480,320.00000 L 30.921200,289.18429 L 289.13052,289.14954 z "
           id="path3054"
           sodipodi:nodetypes="ccccc" />
        <rect
           style="fill:#0000ff;fill-opacity:0.78431374;fill-rule:evenodd;stroke:none;stroke-width:15.000000;stroke-miterlimit:4.0000000;stroke-opacity:1.0000000"
           id="rect3057"
           width="265.03928"
           height="265.03928"
           x="27.480362"
           y="27.480362" />
        <rect
           style="fill:#ffffff;fill-opacity:0.85537916;fill-rule:evenodd;stroke:none;stroke-width:8.9802618;stroke-miterlimit:4.0000000;stroke-opacity:1.0000000;display:block"
           id="rect5542"
           width="320.00000"
           height="320.00000"
           x="0.0000000"
           y="-2.8421709e-14"
           rx="0.0000000"
           ry="0.0000000" />
        <path
           style="fill:#ffffff;fill-opacity:1.0000000;fill-rule:evenodd;stroke:none;stroke-width:15.000000;stroke-miterlimit:4.0000000;stroke-opacity:1.0000000"
           d="M 55.447085,279.42244 L 39.870165,279.40523 L 39.870165,40.016405 L 279.48124,40.016405 L 279.48407,55.593328 L 55.447085,55.593328 L 55.447085,279.42244 z "
           id="path1115"
           sodipodi:nodetypes="ccccccc" />
        <path
           style="fill:#000000;fill-opacity:1.0000000;fill-rule:evenodd;stroke:none;stroke-width:15.000000;stroke-miterlimit:4.0000000;stroke-opacity:1.0000000"
           d="M 25.278887,304.26430 L 25.302367,295.21564 L 294.76719,295.21564 L 294.76719,25.329996 L 303.81585,25.225167 L 303.81585,304.26430 L 25.278887,304.26430 z "
           id="path1119"
           sodipodi:nodetypes="ccccccc" />
        <path
           id="rect6786"
           style="opacity:0.39999983;fill:#0000ff;fill-opacity:1.0000000;fill-rule:evenodd;stroke:none;stroke-width:15.000000;stroke-miterlimit:4.0000000;stroke-opacity:1.0000000"
           d="M 25.000001,25.000000 L 295.00000,25.000000 L 295.00000,295.00000 L 25.000001,295.00000 L 25.000001,25.000000 z M 40.576924,40.576923 L 279.42307,40.576923 L 279.42307,279.42307 L 40.576924,279.42307 L 40.576924,40.576923 z " />
      </g>
      <path
         d=""
         id="path1384" />
      <g
         id="g1385"
         inkscape:groupmode="layer"
         inkscape:label="Dibuix"
         transform="translate(184.5158,-340.6444)"
         style="display:block" />
    </g>
  </g>
  <path
     d=""
     id="path3081" />
  <g
     id="g1271"
     inkscape:groupmode="layer"
     inkscape:label="Dibuix"
     transform="translate(184.5158,-340.6444)"
     style="display:block">
    <g
       id="g1115"
       transform="translate(-299.1246,105.5054)">
      <g
         id="g1155"
         transform="matrix(0.000000,1.000000,-1.000000,0.000000,775.2532,415.4578)"
         style="display:block">
        <path
           style="fill:#ffffff;fill-opacity:1.0000000;stroke:none"
           d="M 301.16828,163.54527 L 539.75369,163.54527 L 539.75369,485.88943 L 301.16828,485.88943 L 301.16828,163.54527 z "
           id="path2371"
           transform="matrix(0.805327,0.215787,-0.215787,0.805327,-290.9561,146.6227)" />
        <path
           style="fill:#1f1a17;stroke:none"
           d="M 304.28331,168.92468 L 522.77478,168.92468 L 522.77478,476.42468 L 304.28331,476.42468 L 304.28331,168.92468 z "
           id="path102"
           transform="matrix(0.805327,0.215787,-0.215787,0.805327,-285.8144,149.7635)" />
      </g>
      <path
         style="fill:#ffffff;fill-opacity:1.0000000;stroke:none;display:block"
         d="M 113.12751,451.63010 L 71.322395,607.64870 L -157.99447,546.20335 L -116.18936,390.18475 L 113.12751,451.63010 z "
         id="path1083"
         transform="translate(298.8141,-105.8159)" />
      <path
         style="fill:#326400;stroke:none;display:block"
         d="M -105.32701,416.92702 L 23.774133,451.51974 L 19.900816,465.97508 L -109.20032,431.38236 L -105.32701,416.92702 z "
         id="polygon113"
         transform="translate(298.8141,-105.8159)" />
      <polyline
         points="12921,4093 12916,4103 12909,4112 12899,4122 12887,4134 12861,4150 12836,4166 12828,4168 12819,4166 12809,4164 12800,4157 12781,4140 12760,4119 12738,4098 12720,4079 12712,4074 12706,4069 12700,4067 12695,4069 12677,4095 12658,4124 12644,4138 12632,4145 12627,4145 12622,4145 12618,4143 12613,4140 12599,4119 12580,4093 12568,4079 12559,4072 12551,4069 12545,4069 12533,4083 12514,4107 12502,4122 12492,4131 12483,4138 12473,4143 12466,4143 12459,4140 12455,4138 12447,4134 12433,4119 12416,4105 12404,4100 12393,4093 12379,4088 12362,4086 12315,4086 12256,4088 12198,4093 12152,4100 12135,4105 12121,4114 12109,4124 12099,4136 12083,4162 12068,4185"
         id="polyline2335"
         transform="matrix(7.348289e-2,1.968971e-2,-1.510460e-2,5.637106e-2,-521.4896,-17.19579)"
         style="fill:none;stroke:#326400;stroke-width:75.039963;stroke-miterlimit:4.0000000;display:block" />
      <polygon
         points="17299.000,5183.0000 17318.000,5186.0000 17334.000,5193.0000 17348.000,5200.0000 17360.000,5209.0000 17372.000,5223.0000 17382.000,5237.0000 17391.000,5254.0000 17401.000,5273.0000 17413.000,5316.0000 17424.000,5361.0000 17434.000,5413.0000 17444.000,5465.0000 17453.000,5517.0000 17464.000,5571.0000 17478.000,5621.0000 17495.000,5668.0000 17507.000,5692.0000 17519.000,5713.0000 17531.000,5732.0000 17548.000,5749.0000 17564.000,5765.0000 17580.000,5779.0000 17602.000,5791.0000 17625.000,5801.0000 17639.000,5808.0000 17651.000,5815.0000 17666.000,5827.0000 17678.000,5838.0000 17687.000,5850.0000 17696.000,5865.0000 17704.000,5879.0000 17711.000,5893.0000 17715.000,5907.0000 17718.000,5922.0000 17718.000,5936.0000 17715.000,5950.0000 17711.000,5962.0000 17706.000,5971.0000 17694.000,5981.0000 17682.000,5988.0000 17675.000,5988.0000 17670.000,5988.0000 17666.000,5983.0000 17664.000,5979.0000 17659.000,5959.0000 17654.000,5938.0000 17651.000,5917.0000 17647.000,5895.0000 17642.000,5886.0000 17637.000,5879.0000 17633.000,5872.0000 17625.000,5867.0000 17609.000,5863.0000 17592.000,5858.0000 17580.000,5855.0000 17569.000,5855.0000 17557.000,5855.0000 17550.000,5858.0000 17540.000,5863.0000 17535.000,5865.0000 17531.000,5872.0000 17526.000,5877.0000 17524.000,5883.0000 17521.000,5893.0000 17521.000,5909.0000 17524.000,5928.0000 17533.000,5969.0000 17548.000,6007.0000 17559.000,6033.0000 17566.000,6042.0000 17554.000,6047.0000 17545.000,6047.0000 17535.000,6042.0000 17526.000,6038.0000 17517.000,6026.0000 17507.000,6013.0000 17498.000,5997.0000 17491.000,5981.0000 17472.000,5938.0000 17455.000,5888.0000 17438.000,5836.0000 17419.000,5777.0000 17401.000,5720.0000 17382.000,5661.0000 17363.000,5604.0000 17342.000,5555.0000 17330.000,5531.0000 17320.000,5507.0000 17308.000,5488.0000 17294.000,5470.0000 17283.000,5455.0000 17268.000,5441.0000 17254.000,5432.0000 17240.000,5425.0000 17226.000,5420.0000 17214.000,5410.0000 17199.000,5401.0000 17188.000,5389.0000 17178.000,5375.0000 17169.000,5363.0000 17159.000,5349.0000 17155.000,5332.0000 17150.000,5318.0000 17148.000,5304.0000 17148.000,5290.0000 17148.000,5278.0000 17153.000,5266.0000 17159.000,5254.0000 17169.000,5245.0000 17183.000,5240.0000 17190.000,5237.0000 17195.000,5237.0000 17199.000,5242.0000 17202.000,5250.0000 17207.000,5266.0000 17212.000,5287.0000 17214.000,5309.0000 17218.000,5330.0000 17221.000,5339.0000 17226.000,5349.0000 17233.000,5353.0000 17240.000,5358.0000 17271.000,5368.0000 17297.000,5372.0000 17306.000,5372.0000 17315.000,5370.0000 17323.000,5368.0000 17330.000,5366.0000 17334.000,5361.0000 17339.000,5356.0000 17342.000,5351.0000 17344.000,5344.0000 17346.000,5330.0000 17346.000,5313.0000 17344.000,5294.0000 17339.000,5278.0000 17332.000,5259.0000 17325.000,5240.0000 17311.000,5207.0000 17299.000,5183.0000 "
         id="polygon462"
         transform="matrix(3.503611e-2,-0.131365,0.131365,3.503611e-2,-1107.582,2491.701)"
         style="fill:#a9a9a9;fill-opacity:1.0000000;stroke:none" />
    </g>
  </g>
  <g
     inkscape:groupmode="layer"
     id="layer6"
     inkscape:label="Propietat"
     style="display:block"
     sodipodi:insensitive="1">
    <g
       id="g6097"
       transform="matrix(0.925862,0.000000,0.000000,0.925862,493.5668,41.86428)"
       style="display:block">
      <path
         style="fill:#ffffff;fill-opacity:1.0000000;fill-rule:evenodd;stroke:#006900;stroke-width:8.1005621;stroke-miterlimit:4.0000000;stroke-opacity:1.0000000"
         d="M -191.51536,25.067211 C -191.51536,61.628081 -221.18795,91.300681 -257.74882,91.300681 C -294.30970,91.300681 -323.98229,61.628081 -323.98229,25.067211 C -323.98229,-11.493665 -294.30970,-41.166259 -257.74882,-41.166259 C -221.18795,-41.166259 -191.51536,-11.493665 -191.51536,25.067211 z "
         id="path3603" />
      <path
         style="fill:#326400;stroke:none"
         d="M -302.55576,11.965876 L -270.99594,11.965876 L -270.99594,-19.849048 L -244.50173,-19.849048 L -244.50173,11.965876 L -212.94190,11.965876 L -212.94190,38.423643 L -244.50173,38.423643 L -244.50173,69.983470 L -270.99594,69.983470 L -270.99594,38.423643 L -302.55576,38.423643 L -302.55576,11.965876 z "
         id="polygon1906" />
    </g>
  </g>
</svg>
