<?xml version="1.0" encoding="UTF-8" standalone="no"?>
<!-- Created with Inkscape (http://www.inkscape.org/) -->
<svg
   xmlns:dc="http://purl.org/dc/elements/1.1/"
   xmlns:cc="http://web.resource.org/cc/"
   xmlns:rdf="http://www.w3.org/1999/02/22-rdf-syntax-ns#"
   xmlns:svg="http://www.w3.org/2000/svg"
   xmlns="http://www.w3.org/2000/svg"
   xmlns:xlink="http://www.w3.org/1999/xlink"
   xmlns:sodipodi="http://sodipodi.sourceforge.net/DTD/sodipodi-0.dtd"
   xmlns:inkscape="http://www.inkscape.org/namespaces/inkscape"
   version="1.0"
   width="256"
   height="256"
   id="svg1"
   sodipodi:version="0.32"
   inkscape:version="0.45"
   sodipodi:docname="i_bulmages_compras_facturas.svg"
   sodipodi:docbase="/home/anna/Desktop/elferrer/Documents/noves imatges bulmages/i_bulmages_compras_facturas"
   inkscape:output_extension="org.inkscape.output.svg.inkscape"
   sodipodi:modified="TRUE"
   inkscape:export-filename="/home/anna/Desktop/elferrer/Documents/noves imatges bulmages/i_bulmages_compras_facturas/i_bulmages_compras_facturas_pulsado_L.png"
   inkscape:export-xdpi="96"
   inkscape:export-ydpi="96">
  <metadata
     id="metadata162">
    <rdf:RDF>
      <cc:Work
         rdf:about="">
        <dc:format>image/svg+xml</dc:format>
        <dc:type
           rdf:resource="http://purl.org/dc/dcmitype/StillImage" />
        <cc:license
           rdf:resource="http://creativecommons.org/licenses/GPL/2.0/" />
        <dc:title>compras facturas</dc:title>
        <dc:date>actualizacion 11/03/2007</dc:date>
        <dc:creator>
          <cc:Agent>
            <dc:title>Raül Martínez i Peris</dc:title>
          </cc:Agent>
        </dc:creator>
        <dc:rights>
          <cc:Agent>
            <dc:title>GPL</dc:title>
          </cc:Agent>
        </dc:rights>
        <dc:publisher>
          <cc:Agent>
            <dc:title>Raül Martinez i Peris</dc:title>
          </cc:Agent>
        </dc:publisher>
        <dc:identifier>elferrer</dc:identifier>
        <dc:source>propia</dc:source>
        <dc:language>castellano</dc:language>
        <dc:contributor>
          <cc:Agent>
            <dc:title>www.iglues.org</dc:title>
          </cc:Agent>
        </dc:contributor>
        <dc:description>iconos para las aplicaciones de iglues.org</dc:description>
        <dc:subject>
          <rdf:Bag>
            <rdf:li>bulmagés</rdf:li>
          </rdf:Bag>
        </dc:subject>
      </cc:Work>
      <cc:License
         rdf:about="http://creativecommons.org/licenses/GPL/2.0/">
        <cc:permits
           rdf:resource="http://web.resource.org/cc/Reproduction" />
        <cc:permits
           rdf:resource="http://web.resource.org/cc/Distribution" />
        <cc:requires
           rdf:resource="http://web.resource.org/cc/Notice" />
        <cc:permits
           rdf:resource="http://web.resource.org/cc/DerivativeWorks" />
        <cc:requires
           rdf:resource="http://web.resource.org/cc/ShareAlike" />
        <cc:requires
           rdf:resource="http://web.resource.org/cc/SourceCode" />
      </cc:License>
    </rdf:RDF>
  </metadata>
  <sodipodi:namedview
     inkscape:window-height="690"
     inkscape:window-width="1016"
     inkscape:pageshadow="2"
     inkscape:pageopacity="0.0"
     guidetolerance="10.0"
     gridtolerance="10.0"
     objecttolerance="10.0"
     borderopacity="1.0"
     bordercolor="#666666"
     pagecolor="#ffffff"
     id="base"
     inkscape:zoom="1.9023438"
     inkscape:cx="128"
     inkscape:cy="128"
     inkscape:window-x="0"
     inkscape:window-y="0"
     inkscape:current-layer="layer10"
     gridempspacing="3" />
  <defs
     id="defs3">
    <linearGradient
       id="linearGradient9952">
      <stop
         style="stop-color:blue;stop-opacity:1"
         offset="0"
         id="stop9953" />
      <stop
         style="stop-color:blue;stop-opacity:0"
         offset="1"
         id="stop9954" />
    </linearGradient>
    <linearGradient
       inkscape:collect="always"
       xlink:href="#linearGradient9952"
       id="linearGradient2396"
       gradientUnits="userSpaceOnUse"
       gradientTransform="matrix(0.722825,0,0,5.491502,357.3217,-224.6297)"
       x1="-181.00027"
       y1="65.430992"
       x2="-149.55615"
       y2="65.430992" />
    <linearGradient
       inkscape:collect="always"
       xlink:href="#linearGradient9952"
       id="linearGradient2398"
       gradientUnits="userSpaceOnUse"
       gradientTransform="matrix(0.503358,0.519204,-0.518754,0.503795,350.8416,286.8881)"
       x1="-181.00027"
       y1="65.430992"
       x2="-149.55615"
       y2="65.430992" />
    <linearGradient
       inkscape:collect="always"
       xlink:href="#linearGradient9952"
       id="linearGradient2400"
       gradientUnits="userSpaceOnUse"
       gradientTransform="matrix(0.700557,0.178187,-0.178032,0.701165,364.2407,212.2498)"
       x1="-181.00027"
       y1="65.430992"
       x2="-149.55615"
       y2="65.430992" />
    <linearGradient
       inkscape:collect="always"
       xlink:href="#linearGradient9952"
       id="linearGradient2402"
       gradientUnits="userSpaceOnUse"
       gradientTransform="matrix(0.175051,0.701916,0.701308,-0.175203,211.5968,364.3863)"
       x1="-181.00027"
       y1="65.430992"
       x2="-149.55615"
       y2="65.430992" />
    <linearGradient
       inkscape:collect="always"
       xlink:href="#linearGradient9952"
       id="linearGradient2404"
       gradientUnits="userSpaceOnUse"
       gradientTransform="matrix(-0.518754,0.503795,-0.503358,-0.519204,-30.75042,351.0348)"
       x1="-181.00027"
       y1="65.430992"
       x2="-149.55615"
       y2="65.430992" />
    <linearGradient
       inkscape:collect="always"
       xlink:href="#linearGradient9952"
       id="linearGradient2406"
       gradientUnits="userSpaceOnUse"
       gradientTransform="matrix(-0.178032,0.701165,-0.700557,-0.178187,43.82315,364.4456)"
       x1="-181.00027"
       y1="65.430992"
       x2="-149.55615"
       y2="65.430992" />
    <linearGradient
       inkscape:collect="always"
       xlink:href="#linearGradient9952"
       id="linearGradient2408"
       gradientUnits="userSpaceOnUse"
       gradientTransform="matrix(-0.701308,0.175203,0.175051,0.701916,-108.1815,211.6693)"
       x1="-181.00027"
       y1="65.430992"
       x2="-149.55615"
       y2="65.430992" />
    <linearGradient
       inkscape:collect="always"
       xlink:href="#linearGradient9952"
       id="linearGradient2410"
       gradientUnits="userSpaceOnUse"
       gradientTransform="matrix(0.518754,-0.503795,0.503358,0.519204,286.7504,-95.03481)"
       x1="-181.00027"
       y1="65.430992"
       x2="-149.55615"
       y2="65.430992" />
    <linearGradient
       inkscape:collect="always"
       xlink:href="#linearGradient9952"
       id="linearGradient2412"
       gradientUnits="userSpaceOnUse"
       gradientTransform="matrix(0.178032,-0.701165,0.700557,0.178187,212.1768,-108.4456)"
       x1="-181.00027"
       y1="65.430992"
       x2="-149.55615"
       y2="65.430992" />
    <linearGradient
       inkscape:collect="always"
       xlink:href="#linearGradient9952"
       id="linearGradient2414"
       gradientUnits="userSpaceOnUse"
       gradientTransform="matrix(0.701308,-0.175203,-0.175051,-0.701916,364.1815,44.33066)"
       x1="-181.00027"
       y1="65.430992"
       x2="-149.55615"
       y2="65.430992" />
    <linearGradient
       inkscape:collect="always"
       xlink:href="#linearGradient9952"
       id="linearGradient2416"
       gradientUnits="userSpaceOnUse"
       gradientTransform="matrix(-0.503358,-0.519204,0.518754,-0.503795,-94.84156,-30.88808)"
       x1="-181.00027"
       y1="65.430992"
       x2="-149.55615"
       y2="65.430992" />
    <linearGradient
       inkscape:collect="always"
       xlink:href="#linearGradient9952"
       id="linearGradient2418"
       gradientUnits="userSpaceOnUse"
       gradientTransform="matrix(-0.700557,-0.178187,0.178032,-0.701165,-108.2407,43.75017)"
       x1="-181.00027"
       y1="65.430992"
       x2="-149.55615"
       y2="65.430992" />
    <linearGradient
       inkscape:collect="always"
       xlink:href="#linearGradient9952"
       id="linearGradient2420"
       gradientUnits="userSpaceOnUse"
       gradientTransform="matrix(-0.175051,-0.701916,-0.701308,0.175203,44.40317,-108.3863)"
       x1="-181.00027"
       y1="65.430992"
       x2="-149.55615"
       y2="65.430992" />
    <linearGradient
       inkscape:collect="always"
       xlink:href="#linearGradient9952"
       id="linearGradient2422"
       gradientUnits="userSpaceOnUse"
       gradientTransform="matrix(-0.722825,0,0,-5.491502,-101.3217,480.6296)"
       x1="-181.00027"
       y1="65.430992"
       x2="-149.55615"
       y2="65.430992" />
    <linearGradient
       inkscape:collect="always"
       xlink:href="#linearGradient9952"
       id="linearGradient2424"
       gradientUnits="userSpaceOnUse"
       gradientTransform="matrix(0,-0.723451,5.486744,0,-224.3241,-101.5205)"
       x1="-181.00027"
       y1="65.430992"
       x2="-149.55615"
       y2="65.430992" />
    <linearGradient
       inkscape:collect="always"
       xlink:href="#linearGradient9952"
       id="linearGradient2426"
       gradientUnits="userSpaceOnUse"
       gradientTransform="matrix(0,0.723451,-5.486744,0,480.324,357.5204)"
       x1="-181.00027"
       y1="65.430992"
       x2="-149.55615"
       y2="65.430992" />
    <linearGradient
       inkscape:collect="always"
       xlink:href="#linearGradient9952"
       id="linearGradient2428"
       gradientUnits="userSpaceOnUse"
       gradientTransform="matrix(0.722825,0,0,5.491502,161.2922,-224.6297)"
       x1="-181.00027"
       y1="65.430992"
       x2="-149.55615"
       y2="65.430992" />
    <linearGradient
       inkscape:collect="always"
       xlink:href="#linearGradient9952"
       id="linearGradient2430"
       gradientUnits="userSpaceOnUse"
       gradientTransform="matrix(-0.722825,0,0,-5.491502,97.31552,480.6296)"
       x1="-181.00027"
       y1="65.430992"
       x2="-149.55615"
       y2="65.430992" />
    <linearGradient
       inkscape:collect="always"
       xlink:href="#linearGradient9952"
       id="linearGradient2432"
       gradientUnits="userSpaceOnUse"
       gradientTransform="matrix(0,-0.723451,5.486744,0,-224.3241,95.04349)"
       x1="-181.00027"
       y1="65.430992"
       x2="-149.55615"
       y2="65.430992" />
    <linearGradient
       inkscape:collect="always"
       xlink:href="#linearGradient9952"
       id="linearGradient2434"
       gradientUnits="userSpaceOnUse"
       gradientTransform="matrix(0,0.723451,-5.486744,0,480.324,161.8969)"
       x1="-181.00027"
       y1="65.430992"
       x2="-149.55615"
       y2="65.430992" />
    <linearGradient
       id="linearGradient4634">
      <stop
         style="stop-color:black;stop-opacity:1;"
         offset="0"
         id="stop4636" />
      <stop
         style="stop-color:black;stop-opacity:0;"
         offset="1"
         id="stop4638" />
    </linearGradient>
    <linearGradient
       id="linearGradient7299">
      <stop
         style="stop-color:yellow;stop-opacity:1;"
         offset="0"
         id="stop7301" />
      <stop
         style="stop-color:black;stop-opacity:0;"
         offset="1"
         id="stop7303" />
    </linearGradient>
    <linearGradient
       id="linearGradient2832">
      <stop
         style="stop-color:black;stop-opacity:1;"
         offset="0"
         id="stop2834" />
      <stop
         style="stop-color:#d98d68;stop-opacity:0;"
         offset="1"
         id="stop2836" />
    </linearGradient>
    <linearGradient
       id="linearGradient5088">
      <stop
         style="stop-color:white;stop-opacity:1;"
         offset="0"
         id="stop5090" />
      <stop
         style="stop-color:black;stop-opacity:0;"
         offset="1"
         id="stop5092" />
    </linearGradient>
    <filter
       inkscape:collect="always"
       x="-0.030454686"
       width="1.0609094"
       y="-0.18228025"
       height="1.3645605"
       id="filter3709">
      <feGaussianBlur
         inkscape:collect="always"
         stdDeviation="18.592586"
         id="feGaussianBlur3711" />
    </filter>
    <filter
       inkscape:collect="always"
       x="-0.030454686"
       width="1.0609094"
       y="-0.18228025"
       height="1.3645605"
       id="filter3713">
      <feGaussianBlur
         inkscape:collect="always"
         stdDeviation="18.592586"
         id="feGaussianBlur3715" />
    </filter>
    <filter
       inkscape:collect="always"
       x="-0.10004336"
       width="1.2000867"
       y="-0.099956678"
       height="1.1999134"
       id="filter3230">
      <feGaussianBlur
         inkscape:collect="always"
         stdDeviation="9.0266808"
         id="feGaussianBlur3232" />
    </filter>
  </defs>
  <g
     style="opacity:1;display:inline"
     id="layer1">
    <path
       d=""
       style="opacity:1"
       id="path3945" />
  </g>
  <path
     d=""
     id="path3081" />
  <g
     style="display:inline"
     id="layer2" />
  <g
     style="display:inline"
     id="layer3" />
  <g
     style="opacity:1;display:inline"
     id="layer4" />
  <g
     inkscape:groupmode="layer"
     id="layer5"
     inkscape:label="boton_pulsado"
     style="display:none"
     sodipodi:insensitive="true">
    <g
       id="g2458">
      <g
         transform="translate(-3.15982,0.14121)"
         style="display:inline"
         id="g3979">
        <path
           d="M 225.84614,30.083415 L 249.21903,30.14204 L 249.21903,225.91656 L 225.87247,225.87734 L 225.84614,30.083415 z "
           style="opacity:0.5;fill:url(#linearGradient2396);fill-opacity:1;fill-rule:evenodd;stroke:none;stroke-width:8.9802618;stroke-miterlimit:4;stroke-opacity:1;display:block"
           id="rect10002" />
        <path
           d="M 246.09172,236.81817 L 241.6188,242.20167 L 236.82989,246.55734 L 225.79115,225.87576 L 246.09172,236.81817 z "
           style="opacity:0.5;fill:url(#linearGradient2398);fill-opacity:1;fill-rule:evenodd;stroke:none;stroke-width:8.9802618;stroke-miterlimit:4;stroke-opacity:1"
           id="path2053" />
        <path
           d="M 249.21905,225.96681 L 247.81954,231.47868 L 246.42002,236.99055 L 225.79115,225.87576 L 249.21905,225.96681 z "
           style="opacity:0.5;fill:url(#linearGradient2400);fill-opacity:1;fill-rule:evenodd;stroke:none;stroke-width:8.9802618;stroke-miterlimit:4;stroke-opacity:1"
           id="path2060" />
        <path
           d="M 225.79115,249.32415 L 231.30415,247.94688 L 236.81715,246.56961 L 225.79985,225.87576 L 225.79115,249.32415 z "
           style="opacity:0.5;fill:url(#linearGradient2402);fill-opacity:1;fill-rule:evenodd;stroke:none;stroke-width:8.9802618;stroke-miterlimit:4;stroke-opacity:1"
           id="path2062" />
        <path
           d="M 19.276093,246.19414 L 13.897256,241.71734 L 9.5453636,236.92428 L 30.20902,225.87597 L 19.276093,246.19414 z "
           style="opacity:0.5;fill:url(#linearGradient2404);fill-opacity:1;fill-rule:evenodd;stroke:none;stroke-width:8.9802618;stroke-miterlimit:4;stroke-opacity:1"
           id="path3000" />
        <path
           d="M 30.118045,249.32418 L 24.610958,247.92346 L 19.103856,246.52272 L 30.20902,225.87597 L 30.118045,249.32418 z "
           style="opacity:0.5;fill:url(#linearGradient2406);fill-opacity:1;fill-rule:evenodd;stroke:none;stroke-width:8.9802618;stroke-miterlimit:4;stroke-opacity:1"
           id="path3001" />
        <path
           d="M 6.7809483,225.87597 L 8.1570192,231.39375 L 9.5331053,236.91153 L 30.20902,225.88467 L 6.7809483,225.87597 z "
           style="opacity:0.5;fill:url(#linearGradient2408);fill-opacity:1;fill-rule:evenodd;stroke:none;stroke-width:8.9802618;stroke-miterlimit:4;stroke-opacity:1"
           id="path3002" />
        <path
           d="M 236.72389,9.8058696 L 242.10272,14.28267 L 246.45462,19.075728 L 225.79096,30.12404 L 236.72389,9.8058696 z "
           style="opacity:0.5;fill:url(#linearGradient2410);fill-opacity:1;fill-rule:evenodd;stroke:none;stroke-width:8.9802618;stroke-miterlimit:4;stroke-opacity:1"
           id="path3007" />
        <path
           d="M 225.88193,6.6758271 L 231.38902,8.0765559 L 236.89612,9.4772889 L 225.79096,30.12404 L 225.88193,6.6758271 z "
           style="opacity:0.5;fill:url(#linearGradient2412);fill-opacity:1;fill-rule:evenodd;stroke:none;stroke-width:8.9802618;stroke-miterlimit:4;stroke-opacity:1"
           id="path3008" />
        <path
           d="M 249.21903,30.12404 L 247.84296,24.606264 L 246.46687,19.08848 L 225.79096,30.115338 L 249.21903,30.12404 z "
           style="opacity:0.5;fill:url(#linearGradient2414);fill-opacity:1;fill-rule:evenodd;stroke:none;stroke-width:8.9802618;stroke-miterlimit:4;stroke-opacity:1"
           id="path3009" />
        <path
           d="M 9.9082846,19.181822 L 14.381207,13.79832 L 19.170112,9.4426539 L 30.20885,30.12423 L 9.9082846,19.181822 z "
           style="opacity:0.5;fill:url(#linearGradient2416);fill-opacity:1;fill-rule:evenodd;stroke:none;stroke-width:8.9802618;stroke-miterlimit:4;stroke-opacity:1"
           id="path3011" />
        <path
           d="M 6.7809541,30.033176 L 8.1804693,24.521313 L 9.5799886,19.009435 L 30.20885,30.12423 L 6.7809541,30.033176 z "
           style="opacity:0.5;fill:url(#linearGradient2418);fill-opacity:1;fill-rule:evenodd;stroke:none;stroke-width:8.9802618;stroke-miterlimit:4;stroke-opacity:1"
           id="path3012" />
        <path
           d="M 30.20885,6.6758413 L 24.695855,8.0531055 L 19.182853,9.430385 L 30.200156,30.12423 L 30.20885,6.6758413 z "
           style="opacity:0.5;fill:url(#linearGradient2420);fill-opacity:1;fill-rule:evenodd;stroke:none;stroke-width:8.9802618;stroke-miterlimit:4;stroke-opacity:1"
           id="path3013" />
        <path
           d="M 30.153849,225.91656 L 6.780954,225.85793 L 6.780954,30.083413 L 30.127521,30.122631 L 30.153849,225.91656 z "
           style="opacity:0.5;fill:url(#linearGradient2422);fill-opacity:1;fill-rule:evenodd;stroke:none;stroke-width:8.9802618;stroke-miterlimit:4;stroke-opacity:1;display:block"
           id="path3021" />
        <path
           d="M 30.168259,30.06899 L 30.226838,6.675827 L 225.83173,6.675827 L 225.79255,30.04264 L 30.168259,30.06899 z "
           style="opacity:0.5;fill:url(#linearGradient2424);fill-opacity:1;fill-rule:evenodd;stroke:none;stroke-width:8.9802618;stroke-miterlimit:4;stroke-opacity:1;display:block"
           id="path3023" />
        <path
           d="M 225.83173,225.93098 L 225.77315,249.32415 L 30.168259,249.32415 L 30.207443,225.95733 L 225.83173,225.93098 z "
           style="opacity:0.5;fill:url(#linearGradient2426);fill-opacity:1;fill-rule:evenodd;stroke:none;stroke-width:8.9802618;stroke-miterlimit:4;stroke-opacity:1;display:block"
           id="path3054" />
        <path
           d="M 29.816627,30.083414 L 53.189522,30.14204 L 53.189522,225.91656 L 29.842954,225.87734 L 29.816627,30.083414 z "
           style="opacity:0.5;fill:url(#linearGradient2428);fill-opacity:1;fill-rule:evenodd;stroke:none;stroke-width:8.9802618;stroke-miterlimit:4;stroke-opacity:1;display:block"
           id="path1956" />
        <path
           d="M 228.79098,225.91656 L 205.41809,225.85793 L 205.41809,30.083413 L 228.76465,30.122631 L 228.79098,225.91656 z "
           style="opacity:0.5;fill:url(#linearGradient2430);fill-opacity:1;fill-rule:evenodd;stroke:none;stroke-width:8.9802618;stroke-miterlimit:4;stroke-opacity:1;display:block"
           id="path1990" />
        <path
           d="M 30.168258,226.63294 L 30.226837,203.23978 L 225.83173,203.23978 L 225.79255,226.60659 L 30.168258,226.63294 z "
           style="opacity:0.5;fill:url(#linearGradient2432);fill-opacity:1;fill-rule:evenodd;stroke:none;stroke-width:8.9802618;stroke-miterlimit:4;stroke-opacity:1;display:block"
           id="path1992" />
        <path
           d="M 225.83173,30.307532 L 225.77315,53.700695 L 30.168258,53.700695 L 30.207442,30.333882 L 225.83173,30.307532 z "
           style="opacity:0.5;fill:url(#linearGradient2434);fill-opacity:1;fill-rule:evenodd;stroke:none;stroke-width:8.9802618;stroke-miterlimit:4;stroke-opacity:1;display:block"
           id="path1994" />
      </g>
      <path
         d="M 46.00708,221.46053 L 46.00708,217.88241 L 214.76672,217.88241 L 214.76672,49.1021 L 218.34173,49.06054 L 218.34173,219.68332 L 218.34173,221.46053 L 216.56606,221.46053 L 46.00708,221.46053 z "
         style="fill:#000000;fill-opacity:1;fill-rule:evenodd;stroke:none;stroke-width:4.70592737;stroke-miterlimit:4;stroke-opacity:1;display:block"
         id="path2826" />
      <path
         d="M 34.61253,37.83522 L 36.3882,37.83522 L 213.29223,37.83522 L 215.0679,37.83522 L 215.0679,39.61242 L 215.0679,216.66987 L 215.0679,218.44708 L 213.29223,218.44708 L 36.3882,218.44708 L 34.61253,218.44708 L 34.61253,216.66987 L 34.61253,39.61242 L 34.61253,37.83522 z M 38.18754,41.41333 L 38.18754,214.86896 L 211.49289,214.86896 L 211.49289,41.41333 L 38.18754,41.41333 z "
         style="fill:#00007f;fill-opacity:1;fill-rule:evenodd;stroke:none;stroke-width:8.9802618;stroke-miterlimit:4;stroke-opacity:1;display:block"
         id="rect5542" />
    </g>
  </g>
  <g
     inkscape:groupmode="layer"
     id="layer7"
     inkscape:label="boton_visible"
     style="display:none"
     sodipodi:insensitive="true">
    <path
       id="path2483"
       style="fill:#00007f;fill-opacity:1;fill-rule:evenodd;stroke:none;stroke-width:8.9802618;stroke-miterlimit:4;stroke-opacity:1;display:block;filter:url(#filter3230)"
       d="M 34.61253,37.83522 L 36.3882,37.83522 L 213.29223,37.83522 L 215.0679,37.83522 L 215.0679,39.61242 L 215.0679,216.66987 L 215.0679,218.44708 L 213.29223,218.44708 L 36.3882,218.44708 L 34.61253,218.44708 L 34.61253,216.66987 L 34.61253,39.61242 L 34.61253,37.83522 z M 38.18754,41.41333 L 38.18754,214.86896 L 211.49289,214.86896 L 211.49289,41.41333 L 38.18754,41.41333 z " />
  </g>
  <g
     inkscape:groupmode="layer"
     id="layer8"
     inkscape:label="icono"
     style="display:inline">
    <path
       d=""
       id="path3593" />
    <g
       id="g3717"
       transform="matrix(1.2052906,0,0,1.2052906,-25.856235,-25.953568)">
      <path
         style="fill:#ffffff;fill-opacity:1;stroke:none;display:block"
         d="M 59.373811,35.017325 L 192.52507,35.017329 L 192.52507,217.8298 L 59.373806,217.82979 L 59.373811,35.017325 z "
         id="path1246" />
      <path
         style="fill:#1f1a17;stroke:none;display:block"
         d="M 61.91481,37.891619 L 190.0674,37.891623 L 190.06739,214.95551 L 61.914804,214.9555 L 61.91481,37.891619 z "
         id="path1247" />
      <path
         style="fill:#ffffff;fill-opacity:1;stroke:none;display:block"
         d="M 65.997693,41.641207 L 185.90119,41.641211 L 185.90118,211.20592 L 65.997688,211.20592 L 65.997693,41.641207 z "
         id="path1248" />
      <path
         style="fill:#1f1a17;stroke:none;display:block"
         d="M 182.15164,203.20681 C 179.07581,206.2231 174.67952,207.16225 170.51817,207.36388 C 166.57827,207.68569 162.61632,207.3868 158.76545,206.5016 C 155.08269,205.82981 151.68476,204.05377 148.92456,201.53829 C 145.55346,198.82827 143.17434,195.02738 142.03466,190.86908 C 141.37758,189.37032 141.71331,186.40766 139.22651,187.17274 C 137.7088,187.39411 134.72919,187.55974 136.6416,185.31403 C 136.93071,183.31649 138.65448,182.56407 140.39473,182.95386 C 140.77949,181.25777 140.23623,179.36351 140.77493,177.61892 C 139.60902,176.01264 136.9166,177.46737 135.10319,176.93423 C 134.07211,176.48071 135.77947,174.57036 135.9891,173.53248 C 137.24581,171.67792 140.14887,173.90961 141.44734,172.10378 C 141.83977,169.80439 142.74344,167.56806 143.64096,165.39699 C 144.9088,162.75394 146.61975,160.27701 149.00985,158.52654 C 151.75925,155.97726 155.20558,154.21973 158.89136,153.51209 C 164.20956,152.03908 169.87047,152.11193 175.20436,153.46079 C 177.00722,154.02417 178.9076,154.4591 180.57492,155.38583 C 182.3826,156.4765 181.81584,159.22476 181.16714,160.77879 C 178.98795,159.87806 176.59487,158.91582 174.1329,158.81231 C 170.7765,158.73163 167.23838,158.7248 164.20663,160.36931 C 160.05885,162.09222 157.08462,166.00212 155.74271,170.20935 C 154.90858,171.31266 154.76903,173.64401 156.8075,172.79347 C 162.75582,172.79347 168.70415,172.79347 174.65246,172.79347 C 173.60926,174.28078 173.62649,177.47657 171.05009,176.95969 C 165.47385,176.95969 159.89761,176.95969 154.32136,176.95969 C 154.36844,178.80944 153.37018,182.02202 154.8775,183.04235 C 159.83044,183.04236 164.78339,183.04235 169.73634,183.04235 C 168.84777,184.91445 168.50522,188.1236 165.58908,187.20855 C 161.9165,187.20855 158.24392,187.20855 154.57133,187.20855 C 155.54174,190.79305 156.90708,194.55302 159.96505,196.88395 C 161.97651,199.04524 164.90989,200.00333 167.65117,200.83441 C 171.31423,201.25069 175.13407,201.30252 178.6944,200.26438 C 180.29333,199.06281 182.26233,198.24327 181.87823,201.0586 C 181.96937,201.77466 182.06052,202.49074 182.15164,203.20681 z "
         id="path1249" />
      <path
         style="fill:#aaa9a9;stroke:none;display:block"
         d="M 151.40497,112.63341 C 149.30033,110.81367 146.79172,108.75314 143.86339,108.88382 C 141.67038,109.18773 140.37576,111.33386 139.63275,113.26923 C 139.18861,114.43824 137.45632,118.77197 139.5975,116.41882 C 142.14557,113.80325 145.86484,113.08952 149.36763,112.83715 C 150.04675,112.76923 150.72586,112.70132 151.40497,112.63341 z M 115.07564,87.636159 C 113.32274,86.429233 110.13881,82.13476 108.42615,84.903734 C 107.71161,87.077373 107.0153,90.84062 107.05374,92.150429 C 108.70837,90.814607 109.76404,88.475719 111.8942,87.946105 C 112.94705,87.768382 114.01344,87.725086 115.07564,87.636159 z M 165.40343,129.04827 C 162.01231,127.79979 160.71097,131.07241 158.60623,132.83958 C 155.8841,134.38448 153.08002,136.04228 149.98379,136.61199 C 146.89769,136.70884 144.32584,134.4725 142.10212,132.56024 C 138.71545,129.49487 135.01162,126.21809 133.92724,121.5764 C 132.50641,116.73288 134.3569,111.67463 136.40662,107.30066 C 140.08619,107.15552 138.49105,102.38962 135.95548,101.71324 C 133.93138,100.48938 131.18335,100.81003 129.53219,102.55731 C 127.36157,104.51029 124.92408,106.29327 122.26644,107.49172 C 119.50171,108.72783 116.27218,108.7747 113.37994,108.00056 C 108.60056,106.41909 104.76686,102.99722 100.69509,100.16932 C 98.942785,98.428824 96.842141,96.785455 96.338638,94.217032 C 95.492527,91.271622 97.711633,88.431694 99.302872,86.097122 C 100.64237,84.06619 102.80243,82.053771 101.2928,79.78815 C 102.07802,76.930347 104.87831,74.835117 107.87006,75.235394 C 110.39794,75.803793 112.62494,77.199804 114.83421,78.509931 C 120.74,83.117216 125.57472,88.897569 130.6438,94.371056 C 132.04474,96.397607 134.25619,97.420511 136.65659,97.635057 C 139.62625,99.163038 140.53491,103.12166 143.71458,104.35518 C 149.09645,107.04853 154.36706,109.9859 159.63065,112.8797 C 163.33954,115.66835 166.56632,119.20035 168.31486,123.54872 C 170.3462,126.09425 166.60275,127.27848 165.40343,129.04827 z "
         id="path1250" />
      <polygon
         points="9208,3423 10429,3423 10429,3627 9208,3627 9208,3423 "
         id="polygon1251"
         transform="matrix(8.332415e-2,0,0,8.332415e-2,-689.45229,-236.36145)"
         style="fill:#ff0000;fill-opacity:0.46857144;stroke:none;display:block;filter:url(#filter3713)" />
      <path
         style="fill:#ff0000;fill-opacity:1;stroke:none;display:block"
         d="M 68.414158,156.87843 L 146.82218,156.87843 L 146.82218,180.12587 L 68.414156,180.12586 L 68.414158,156.87843 z "
         id="polygon1252"
         sodipodi:nodetypes="ccccc" />
      <polygon
         points="9208,3423 10429,3423 10429,3627 9208,3627 9208,3423 "
         id="polygon1916"
         transform="matrix(8.332415e-2,0,0,8.332415e-2,-692.05229,-238.96145)"
         style="fill:#ff0000;fill-opacity:1;stroke:none;display:block;filter:url(#filter3709)" />
      <path
         id="path2805"
         d="M 69.714398,159.47971 C 69.714398,165.92555 69.714398,172.37137 69.714398,178.81721 C 94.989919,178.81721 120.26544,178.81721 145.54096,178.81721 C 145.54096,171.93805 145.54096,165.05887 145.54096,158.17971 C 120.26544,158.17971 94.989919,158.17971 69.714398,158.17971 L 69.714398,158.82971 L 69.714398,159.47971 z "
         style="fill:none;fill-opacity:1;stroke:#5c0000;stroke-width:5.19999981;stroke-miterlimit:4;stroke-dasharray:none;stroke-opacity:1;display:block" />
    </g>
  </g>
  <g
     inkscape:groupmode="layer"
     id="layer9"
     inkscape:label="propiedad_mas"
     sodipodi:insensitive="true"
     style="display:none">
    <g
       id="g2341"
       style="display:inline"
       transform="matrix(0.806338,0,0,0.806338,-5.091682,2.3862628)">
      <path
         id="path2343"
         d="" />
      <g
         id="g2345"
         style="display:block">
        <g
           id="g6097"
           style="display:block"
           transform="matrix(0.925862,0,0,0.925862,493.5668,41.86428)">
          <path
             id="path3603"
             style="fill:#ffffff;fill-opacity:1;fill-rule:evenodd;stroke:#006900;stroke-width:8.1005621;stroke-miterlimit:4;stroke-opacity:1"
             d="M -191.51536,25.067211 C -191.51536,61.628081 -221.18795,91.300681 -257.74882,91.300681 C -294.3097,91.300681 -323.98229,61.628081 -323.98229,25.067211 C -323.98229,-11.493665 -294.3097,-41.166259 -257.74882,-41.166259 C -221.18795,-41.166259 -191.51536,-11.493665 -191.51536,25.067211 z " />
          <path
             id="polygon1906"
             style="fill:#326400;stroke:none"
             d="M -302.55576,11.965876 L -270.99594,11.965876 L -270.99594,-19.849048 L -244.50173,-19.849048 L -244.50173,11.965876 L -212.9419,11.965876 L -212.9419,38.423643 L -244.50173,38.423643 L -244.50173,69.98347 L -270.99594,69.98347 L -270.99594,38.423643 L -302.55576,38.423643 L -302.55576,11.965876 z " />
        </g>
      </g>
    </g>
  </g>
  <g
     inkscape:groupmode="layer"
     id="layer10"
     inkscape:label="propiedad_menos"
     sodipodi:insensitive="true"
     style="display:none">
    <g
       id="g2734"
       style="opacity:1;display:inline"
       transform="matrix(0.806338,0,0,0.806338,-150.02292,-5.0916723)">
      <path
         id="path2736"
         d="" />
      <g
         id="g2738"
         style="display:block">
        <g
           id="g6091"
           style="display:block"
           transform="matrix(0.925862,0,0,0.925862,565.8858,84.55078)">
          <path
             id="path4848"
             style="fill:#ffffff;fill-opacity:1;fill-rule:evenodd;stroke:#cd0000;stroke-width:8.1005621;stroke-miterlimit:4;stroke-opacity:1"
             d="M -269.62525,184.01896 C -269.62525,220.57983 -299.29784,250.25243 -335.85871,250.25243 C -372.41959,250.25243 -402.09218,220.57983 -402.09218,184.01896 C -402.09218,147.45809 -372.41959,117.78549 -335.85871,117.78549 C -299.29784,117.78549 -269.62525,147.45809 -269.62525,184.01896 z " />
          <path
             id="polygon2119"
             style="fill:#da251d;stroke:none"
             d="M -381.13765,170.52182 L -290.57977,170.52182 L -290.57977,197.51609 L -381.13765,197.51609 L -381.13765,170.52182 z " />
        </g>
      </g>
    </g>
  </g>
  <g
     inkscape:groupmode="layer"
     id="layer11"
     inkscape:label="propiedad_listado"
     sodipodi:insensitive="true"
     style="display:none">
    <g
       id="g2141"
       style="opacity:1;display:inline"
       transform="matrix(0.806338,0,0,0.806338,150.02651,114.9432)">
      <path
         id="path2143"
         d="" />
      <g
         id="layer6"
         style="display:block">
        <g
           id="g6094"
           style="display:block"
           transform="matrix(0.925862,0,0,0.925862,143.7747,118.5623)">
          <path
             id="path4847"
             style="fill:#ffffff;fill-opacity:1;fill-rule:evenodd;stroke:#0000cd;stroke-width:8.1005621;stroke-miterlimit:4;stroke-opacity:1"
             d="M -151.23716,-57.772351 C -151.23716,-21.211475 -151.23716,-49.333221 -151.23716,-12.772347 C -151.23716,23.788523 -121.56457,53.461123 -85.00369,53.461123 C -48.44282,53.461123 -18.77023,23.788523 -18.77023,-12.772347 C -18.77023,-49.333221 -18.77023,-21.211475 -18.77023,-57.772351 C -18.77023,-94.333227 -48.44282,-124.00582 -85.00369,-124.00582 C -121.56457,-124.00582 -151.23716,-94.333227 -151.23716,-57.772351 z " />
          <path
             id="polyline1684"
             style="fill:#0000cd;fill-opacity:1;stroke:none"
             d="M -129.21657,-89.000316 L -129.21657,-73.024359 L -40.79082,-73.024359 L -40.79082,-89.000316 L -129.21657,-89.000316 z M -129.21657,-58.51678 L -129.21657,-42.526137 L -40.79082,-42.526137 L -40.79082,-58.51678 L -129.21657,-58.51678 z M -129.21657,-28.018558 L -129.21657,-12.027911 L -40.79082,-12.027911 L -40.79082,-28.018558 L -129.21657,-28.018558 z M -129.21657,2.4796691 L -129.21657,18.455619 L -40.79082,18.455619 L -40.79082,2.4796691 L -129.21657,2.4796691 z " />
        </g>
      </g>
    </g>
  </g>
</svg>
