/* XPM */
static const char *balance[]={
"32 32 8 1",
". c None",
"# c #000000",
"c c #404000",
"f c #800000",
"d c #808000",
"a c #c00000",
"e c #c0c000",
"b c #ffffff",
"................................",
"................................",
"..............#a................",
"..............aba.........##....",
".............abbba.....###......",
"............accbbba.###..d......",
"............abcbbba#.....d......",
"............abccbba.....d.d.....",
".........###abccbba.....d.d.....",
".....####....aaaaa.....d.e.d....",
"...##d........##.......d.e.d....",
".....d........##......d..e..d...",
"....d.d.......##.....d...e...d..",
"....d.d.......##....ccccccccccc.",
"...d.e.d......##.....ccccccccc..",
"...d.e.d......##.......ccccc....",
"..d..e..d.....##................",
".d...e...d....##................",
"ccccccccccc...##................",
".ccccccccc....##................",
"...ccccc......##................",
"..............##................",
"..............##................",
"..............##................",
"..ffffffffffffffffffffffffffff..",
".ffeeefefffeeefeeefeeeffeffefff.",
".ffeeffeffffefffeffeefffeefeeff.",
".ffefffeffffefffeffeffffeefeeff.",
".ffeeefeeefeeeffeffeeeffeefeeff.",
".ffffffffffffffffffffffffffffff.",
"................................",
"................................"};
