/* XPM */
static char *casacion[]={
"32 32 7 1",
". c None",
"d c #303030",
"a c #404000",
"c c #808080",
"e c #a0a0a0",
"# c #c0c000",
"b c #ffff00",
"................................",
"................................",
"................................",
"........#####...................",
"......##aaaaa##.................",
".....#aabbbbbaa#................",
"....#abb.....bba#...............",
"...#ab.........ba#..............",
"...#ab.........ba#..............",
"..#ab...........ba#.............",
"..#ab...........ba#.............",
"..#ab...........ccccc...........",
"..#ab.........ccdddddcc.........",
"..#ab........cddeeeeeddc........",
"...#ab......cdeea#...eedc.......",
"...#ab.....cde.ba#.....edc......",
"....#abb...cdbba#......edc......",
".....#aabbbbbaa#........edc.....",
"......##aaaaa##.........edc.....",
"........#####...........edc.....",
"..........cde...........edc.....",
"..........cde...........edc.....",
"...........cde.........edc......",
"...........cde.........edc......",
"............cdee.....eedc.......",
".............cddeeeeeddc........",
"..............ccdddddcc.........",
"................ccccc...........",
"................................",
"................................",
"................................",
"................................"};
