/* XPM */
static const char *canales[]={
"32 32 8 1",
". c None",
"b c #000000",
"f c #000080",
"a c #800080",
"c c #808080",
"e c #dcdcdc",
"# c #ff0000",
"d c #ffffff",
"................................",
"................#a..............",
"................#a..............",
"........aaaaaaaa#aaaaaaaaa......",
"........#################a......",
"........#a..............#a......",
"......aa#aa...........aa#aa.....",
"......#####a..........#####a....",
"......#####a..........#####a....",
".......###a............###a.....",
"........#a..............#a......",
"..bbbbbbbbbbbbb...bbbbbbbbbbbb..",
".bcccccccccccccb.bccccccccccccb.",
".bcdddddddddddcb.bceeeeeeeeeecb.",
".bcdddddddddddcb.bceeeeeeeeeecb.",
".bcdddddddddddcb.bceeeeeeeeeecb.",
".bcddddffdddddcb.bceaaaaaaeeecb.",
".bcdddfdffddddcb.bceaaaaaaaeecb.",
".bcddfdddffdddcb.bceaeeeeaaeecb.",
".bcddfdddffdddcb.bceaeeeeaaeecb.",
".bcddfdddffdddcb.bceaeeeeaaeecb.",
".bcddfdddffdddcb.bceaaaaaaeeecb.",
".bcdffffffffddcb.bceaeeeeaaeecb.",
".bcdfdddddffddcb.bceaeeeeaaeecb.",
".bcdfdddddffddcb.bceaeeeeaaeecb.",
".bcdfddddddffdcb.bceaeeeeaaeecb.",
".bcdfddddddffdcb.bceaaaaaaeeecb.",
".bcdddddddddddcb.bceeeeeeeeeecb.",
".bcccccccccccccb.bccccccccccccb.",
"..bbbbbbbbbbbbb...bbbbbbbbbbbb..",
"................................",
"................................"};
