/* XPM */
static const char *cingresos[]={
"16 16 5 1",
". c None",
"# c #008080",
"a c #00ffff",
"b c #808080",
"c c #ff0000",
"................",
"........######..",
".......#aaaa##b.",
".......#aaa#a#b.",
"..#####aaaaa##b.",
"..#aaaaaaaa#a#b.",
"..#aacccccca##b.",
"..#aaaaccaa#a#b.",
"..#aaaaccaaa##b.",
"..#aaaaccaa#a#b.",
"..#aaaaccaaa##b.",
"..#aaaaccaa#a#b.",
"..#aacccccca##b.",
"..#aaaaaaaa#a#b.",
"..############b.",
"...bbbbbbbbbbbb."};
