/* XPM */
static const char *diario[]={
"32 32 5 1",
". c None",
"# c #000000",
"a c #0058c0",
"c c #ff0000",
"b c #ffffff",
"................................",
".##############################.",
".#aaaaaaaaaaaaaaaaaaaaaaaaaaaa#.",
".#aaaaaaaaaaaaaaaaaaaaaaaaaaaa#.",
".##############################.",
".#bbbbbbbbbbbbbbbbbbbbbbbbbbbb#.",
".#bbbbbbbbbbbbbbbbbbbbbbbbbbbb#.",
".#bbbbccccccbbbbccccccccccbbbb#.",
".#bbbbccccccbbbbccccccccccbbbb#.",
".#bbbbccccccbbbbccccccccccbbbb#.",
".#bbbbbbbcccbbbbbbbbbbbcccbbbb#.",
".#bbbbbbbcccbbbbbbbbbbbcccbbbb#.",
".#bbbbbbbcccbbbbbbbbbbbccbbbbb#.",
".#bbbbbbbcccbbbbbbbbbbcccbbbbb#.",
".#bbbbbbbcccbbbbbbbbbbcccbbbbb#.",
".#bbbbbbbcccbbbbbbbbbcccbbbbbb#.",
".#bbbbbbbcccbbbbbbbbbcccbbbbbb#.",
".#bbbbbbbcccbbbbbbbbbccbbbbbbb#.",
".#bbbbbbbcccbbbbbbbbcccbbbbbbb#.",
".#bbbbbbbcccbbbbbbbbcccbbbbbbb#.",
".#bbbbbbbcccbbbbbbbcccbbbbbbbb#.",
".#bbbbbbbcccbbbbbbbcccbbbbbbbb#.",
".#bbbbbbbcccbbbbbbbccbbbbbbbbb#.",
".#bbbbbbbcccbbbbbbcccbbbbbbbbb#.",
".#bbbbbbbcccbbbbbbcccbbbbbbbbb#.",
".#bbbbbbbcccbbbbbcccbbbbbbbbbb#.",
".#bbbbbbbcccbbbbbcccbbbbbbbbbb#.",
".#bbbbbbbcccbbbbcccbbbbbbbbbbb#.",
".#bbbbbbbbbbbbbbbbbbbbbbbbbbbb#.",
".#bbbbbbbbbbbbbbbbbbbbbbbbbbbb#.",
".##############################.",
"................................"};
