/* XPM */
static const char *find1[]={
"32 32 310 2",
"Qt c None",
"ai c #2d4a69",
"#1 c #304d6c",
"ay c #32506f",
".o c #335170",
".V c #365574",
"#L c #395877",
"#0 c #3f5e7d",
"ah c #405f7e",
"#K c #41607f",
"#Z c #456482",
"ag c #466583",
"#t c #476684",
"#s c #4b6a88",
"af c #4d6c8a",
".n c #4f6e8c",
".e c #506f8d",
"cO c #51708d",
".D c #53728f",
"bX c #555578",
"#r c #587794",
"b1 c #5b5b7d",
"bs c #5c6388",
"#J c #5d7c98",
"bR c #5e6080",
"bE c #5e6588",
"#q c #5e7d99",
"bw c #616c90",
"bc c #636383",
"bd c #64749b",
"#a c #64839e",
"#Y c #66849f",
"## c #6785a0",
"br c #696b89",
"bY c #696c8b",
".p c #6987a2",
"aS c #6a6a88",
"bL c #6b7999",
".U c #6c8aa4",
"#p c #6e8ca6",
"bC c #6f6f8c",
".C c #6f8da6",
"bv c #71718e",
"b0 c #717793",
"cY c #72452b",
"bI c #72728f",
"bZ c #727f9a",
"#. c #7390aa",
"#I c #7491aa",
"cN c #76492e",
".X c #79b5f0",
".F c #7ab6f1",
"#M c #7da6d6",
"#b c #7daee3",
"aK c #7e7e98",
"a4 c #7ea5d0",
"bj c #7eacd7",
"#H c #7f9cb3",
"cS c #805333",
".T c #809cb3",
"cW c #83583b",
"cZ c #847b8a",
"bH c #848aa2",
".r c #85b2e3",
"#u c #8798bb",
"aT c #87c1ef",
".i c #87c5f6",
"cT c #887f8d",
"a3 c #888fa6",
".s c #88c6f6",
"ak c #88c6f7",
".S c #89a4b9",
"#2 c #89c0f0",
"#v c #89c6f7",
"#o c #8aa4ba",
"aj c #8b8ba2",
"#X c #8b8ba3",
".j c #8bc8f7",
".g c #8cb5e2",
".h c #8cc3f3",
".d c #8da7bc",
".k c #8ecbf7",
"bu c #9095ab",
"bQ c #909bb0",
"bF c #90bbda",
"aA c #90ccf7",
"az c #9191a8",
".9 c #93acc0",
"#c c #95d1f8",
"ae c #96a2b6",
"bM c #96bbd3",
"bt c #97cef1",
".G c #97d2f8",
".Y c #98d3f8",
".A c #99cdf1",
"bK c #9a9aaf",
"#n c #9a9eb3",
".E c #9aa6c3",
".t c #9ad5f9",
".W c #9ba0b7",
".l c #9bc5ea",
"#3 c #9bd6f9",
"#w c #9cd7f9",
"bx c #9dd3f2",
"aU c #9dd7f9",
"be c #9dd8f9",
".u c #9ed8f9",
".H c #9fd9f9",
".5 c #a0daf9",
".f c #a1b2cf",
".v c #a1dbfa",
".8 c #a2b4ca",
".M c #a2dcfa",
".6 c #a3dcfa",
"#d c #a3ddfa",
".R c #a4bad1",
".m c #a4bbd7",
".w c #a4ddfa",
".Z c #a4defa",
".I c #a5defa",
"#4 c #a5dffa",
"cG c #a6661b",
"aR c #a6b3c3",
".Q c #a6dffa",
"bD c #a7a7b9",
"aJ c #a7bbc9",
".x c #a7e0fa",
"cU c #a87a3a",
".q c #a8adc1",
".B c #a8b7cc",
"al c #a8e1fb",
".y c #a9e2fb",
"ax c #aabbc9",
".J c #aae2fb",
"cA c #ab6b1b",
".z c #abe3fb",
"bk c #abe4fb",
".K c #ace4fb",
"#j c #ade5fb",
".L c #aee5fb",
"aB c #aee6fb",
"#G c #afcddc",
".N c #afe6fb",
"aC c #b0e6fb",
"#k c #b0e8fc",
"bl c #b1e8fc",
"#e c #b1e9fc",
"ct c #b26f1b",
"cX c #b2a9ae",
"#m c #b2e5f7",
".P c #b2e9fc",
"am c #b2eafc",
".O c #b3eafc",
"aV c #b4ebfc",
"bT c #b5b5c4",
"#B c #b5e9fc",
".4 c #b5ecfc",
"b2 c #b69065",
"bi c #b6c2ce",
"aL c #b6ecfc",
".0 c #b6edfc",
"bJ c #b7b7c6",
"aE c #b7edfc",
"#E c #b7eefc",
"cm c #b8741b",
".2 c #b8eefd",
"a5 c #b9effd",
".c c #babac8",
"aD c #baecfc",
".3 c #baf0fd",
"#C c #bbeffd",
".1 c #bbf0fd",
".7 c #bbf1fd",
"aM c #bcf2fd",
"#x c #bdf2fd",
"cg c #be791b",
"bS c #bebecb",
"#f c #bef3fd",
"#R c #bfeffd",
"bN c #bff1fa",
"by c #bff4fd",
"a. c #c0f5fe",
"bU c #c19868",
"bP c #c1dbe2",
"#W c #c1f2f8",
"#l c #c1f5fe",
"as c #c1f6fe",
"cP c #c2923d",
".# c #c2c2cf",
"#T c #c2f6fe",
"#F c #c3f7fe",
"a6 c #c3f8fe",
"ca c #c47e1c",
"#N c #c4f8fe",
"ar c #c5f3fd",
"#i c #c5f9fe",
".b c #c6c6d2",
"an c #c6f9fe",
"aN c #c6fafe",
"bO c #c7fafe",
"#g c #c7fbfe",
"#5 c #c7fbff",
"aW c #c8fbfe",
"#U c #c8fcff",
"b6 c #ca821b",
".a c #cacad5",
"cH c #cb9a3e",
"aX c #cbfafe",
"at c #cbfcff",
"#y c #cbfdff",
"aa c #cbfeff",
"b7 c #cc9f57",
"#h c #ccfdff",
"bz c #ccfeff",
"cB c #cd9c3f",
"#D c #cdfcff",
"a7 c #cdfeff",
"#V c #cdffff",
"ab c #ceffff",
"b3 c #cf9c4e",
"bm c #cfffff",
"bW c #d0871c",
"ac c #d0ffff",
"bV c #d18c26",
"cu c #d19f40",
"ad c #d1ffff",
"av c #d2ffff",
"a8 c #d3ffff",
"cn c #d4a241",
"#O c #d4ffff",
"cM c #d59125",
"aY c #d5fcff",
"ao c #d5ffff",
"bG c #d6eaee",
"#z c #d6ffff",
"aw c #d7ffff",
"ch c #d8a543",
"#S c #d8feff",
"#6 c #d8ffff",
"bA c #d9ffff",
"a0 c #daffff",
"a# c #dbfdff",
"aH c #dbffff",
"cb c #dca843",
"aZ c #dcfeff",
"#A c #dcffff",
"aI c #ddffff",
"aG c #deffff",
"cR c #dfbd7d",
"bb c #e0f5f7",
"aP c #e0ffff",
"#P c #e1ffff",
"aF c #e2ffff",
"aQ c #e3ffff",
"ap c #e4ffff",
"cV c #e5c983",
"au c #e5ffff",
"a1 c #e6ffff",
"#7 c #e7ffff",
"aq c #e8fdff",
"a2 c #e8ffff",
"aO c #e9ffff",
"bq c #eaf4f7",
"bB c #eaffff",
"b5 c #eba020",
"c# c #eba121",
"cf c #eba122",
"#Q c #ebffff",
"cl c #eca122",
"cs c #eca223",
"cz c #eca224",
"#9 c #eefdff",
"ba c #eeffff",
"a9 c #efffff",
"bn c #f0ffff",
"b4 c #f1bb56",
"c. c #f1bc56",
"ce c #f1bc57",
"ck c #f1bc58",
"cr c #f1bd58",
"cy c #f1bd59",
"cF c #f1bd5a",
"cL c #f1be5a",
"b# c #f1ffff",
"b. c #f2ffff",
"bf c #f4ffff",
"#8 c #f6ffff",
"b9 c #f7d78c",
"cd c #f7d78d",
"cj c #f7d78e",
"cq c #f7d88e",
"cx c #f7d88f",
"cE c #f7d890",
"cK c #f7d990",
"bh c #f7ffff",
"bg c #f8ffff",
"bp c #faffff",
"b8 c #fcf1bf",
"cp c #fcf1c0",
"bo c #fcffff",
"cw c #fdf1c0",
"cD c #fdf2c0",
"cJ c #fdf2c1",
"cQ c #ffe89a",
"cI c #ffe99b",
"cC c #ffe99d",
"cv c #ffe99e",
"co c #ffea9f",
"ci c #ffeaa0",
"cc c #ffeba1",
"QtQtQtQtQtQtQtQtQt.#.a.b.cQtQtQtQtQtQtQtQtQtQtQtQtQtQt.d.eQtQtQt",
"QtQtQtQtQtQt.f.g.h.i.j.k.j.l.mQtQtQtQtQtQtQtQtQtQtQtQt.n.oQtQt.p",
"QtQtQtQt.q.r.s.t.u.v.w.x.y.z.v.A.BQtQtQtQtQtQtQtQtQtQtQtQtQt.C.D",
"QtQtQt.E.F.G.H.I.J.K.L.M.J.N.O.P.Q.RQtQtQtQtQtQtQtQt.S.T.UQtQt.V",
"QtQt.W.X.Y.Z.N.0.1.2.3.4.5.6.z.0.7.N.8QtQtQtQtQtQt.9.S#.###aQtQt",
"QtQt#b#c#d#e#f#g#h#h.K#i.2#j#k.P.7#l#m#nQtQtQtQt#o.S#p#q#r#s#tQt",
"Qt#u#v#w#j#x#y#z#A#A#B#C#D#E.1#x#f#i#F#GQtQtQtQt#H#I#J#s#t#K#LQt",
"Qt#M.Y.v.O#N#O#P#Q#Q#R#E#S#T#i#g#U#U#V#W#XQtQtQt.U#Y#s#Z#0#L#1Qt",
"Qt#2#3#4.4#5#6#7#8#9.3a.a#aaabacacacadabaeQtQtQtQtafagah.VaiQtQt",
"ajak.ualamanaoapaqarasatauav#O#zawaw#zaoaxQtQtQtQtQt#0.VayQtQtQt",
"azaA.5.yaB.MaCaDaEa.#UaFaGawaHaIaGaG#AaHaJQtQtQtQtQtQtQtQtQtQtQt",
"aK.j.M.J.OaL.zamaMaNaIaO#6aIaPaQapapaFaPaRQtQtQtQtQtQtQtQtQtQtQt",
"aSaT.w.zaUaVaWaXaYaZa0awaIaFa1aO#Q#Qa2apa3QtQtQtQtQtQtQtQtQtQtQt",
"Qta4.I.K.w.waBa5a6a7a8a0aPa1#Qa9b.b#babbbcQtQtQtQtQtQtQtQtQtQtQt",
"Qtbdbe#jaB.Q#k.1#iabaoaHaFa2babfbgbhb.biQtQtQtQtQtQtQtQtQtQtQtQt",
"QtQtbj.zaVbkbl.7aNbmao#AaQaObn#8bobpbqbrQtQtQtQtQtQtQtQtQtQtQtQt",
"QtQtbsbt.Oa5.O.1#iabaoaHaFa2babfbh#8bubvQtQtQtQtQtQtQtQtQtQtQtQt",
"QtQtQtbwbx#EbyaM#Fbza8bAaPaubBa9b#bubCbDQtQtQtQtQtQtQtQtQtQtQtQt",
"QtQtQtQtbEbFaL#N#5bzadaw#A#Pa1bGbHbIbJbKQtQtQtQtQtQtQtQtQtQtQtQt",
"QtQtQtQtQtQtbLbMbNbOac#O#6bPbQbRQtbDQtbSbTbUbVbWQtQtQtQtQtQtQtQt",
"QtQtQtQtQtQtQtQtbXbYbZb0b1QtQtQtQtQtQtQtb2b3b4b5b6QtQtQtQtQtQtQt",
"QtQtQtQtQtQtQtQtQtQtQtQtQtQtQtQtQtQtQtQtb7b8b9c.c#caQtQtQtQtQtQt",
"QtQtQt.d.eQtQtQtQtQtQtQtQtQtQtQtQtQtQtQtcbccb8cdcecfcgQtQtQtQtQt",
"QtQtQt.n.oQtQt.pQtQtQtQtQtQtQtQtQtQtQtQtQtchcib8cjckclcmQtQtQtQt",
"QtQtQtQtQtQt.C.D.VQtQtQtQtQtQtQtQtQtQtQtQtQtcncocpcqcrcsctQtQtQt",
"QtQt.S.T.UQtQt.VQtQtQtQtQtQtQtQtQtQtQtQtQtQtQtcucvcwcxcyczcAQtQt",
"Qt.9.S#.###aQtQtQtQtQtQtQtQtQtQtQtQtQtQtQtQtQtQtcBcCcDcEcFczcGQt",
"#o.S#p#q#r#s#tQt.d.eQtQtQtQtQtQtQtQtQtQtQtQtQtQtQtcHcIcJcKcLcMcN",
"#H#I#J#s#t#K#LQtcO.oQtQtQtQtQtQtQtQtQtQtQtQtQtQtQtQtcPcQcJcRcScT",
".U#Y#s#Z#0#L#1QtQtQtQtQtQtQtQtQtQtQtQtQtQtQtQtQtQtQtQtcUcVcWcXQt",
"Qtafagah.VaiQtQtQtQtQtQtQtQtQtQtQtQtQtQtQtQtQtQtQtQtQtQtcYcZQtQt",
"QtQt#0.VayQtQtQtQtQtQtQtQtQtQtQtQtQtQtQtQtQtQtQtQtQtQtQtQtQtQtQt"};
