/* XPM */
static const char *print[]={
"32 32 290 2",
"Qt c None",
".# c #000000",
"cy c #008000",
"cz c #00ff00",
".6 c #010100",
".R c #010101",
"bh c #020101",
"#i c #020201",
"aW c #040302",
"ah c #040404",
".V c #050403",
"#m c #060503",
".r c #060504",
"a4 c #070605",
"aA c #080808",
".A c #090807",
"ab c #0a0806",
"a5 c #0a0808",
"a7 c #0b0906",
"ai c #0b0a0a",
"au c #0d0a0a",
"#S c #0d0c07",
"av c #0e0e0e",
"aP c #0f0c09",
"aV c #100d08",
"#X c #121212",
"aJ c #14100c",
"aU c #201a12",
".e c #4a462e",
"b4 c #515151",
"bB c #545454",
"ag c #565656",
"bP c #575757",
"bg c #5a5a5a",
"a9 c #5e5e5e",
"#W c #5f5f5f",
"bj c #626262",
"a8 c #636262",
"bi c #636363",
"a3 c #656464",
"b# c #666666",
"b. c #676767",
"aY c #6a6a6a",
"cF c #6c6c6c",
"cE c #6e6e6e",
"bk c #6f6f6f",
"cC c #717171",
"bl c #727272",
"aX c #737373",
"bz c #747474",
"bO c #757575",
"aZ c #767676",
"by c #787878",
"b3 c #797979",
"bN c #7a7a7a",
"ch c #7b7b7b",
"cg c #7c7c7c",
"b2 c #7d7d7d",
"#j c #7e721e",
"bM c #7e7e7e",
"bA c #7f7f7f",
"b1 c #808080",
"bL c #818181",
"bx c #828282",
"bK c #838383",
"bw c #848484",
"cD c #858585",
"bv c #868686",
"bu c #878787",
"bt c #888888",
"bf c #898989",
"a2 c #8a8a8a",
"bs c #8b8b8b",
"ba c #8c8c8c",
"a1 c #8d8d8d",
"aN c #8e8e8e",
"aw c #8f8f8f",
"ax c #909090",
"aM c #919191",
"ad c #929292",
"ae c #939393",
"#T c #949494",
"#U c #959595",
"#z c #969696",
"#V c #979797",
"#A c #989898",
"#k c #999999",
".U c #9a9999",
"#l c #9a9a9a",
".T c #9b9b9b",
".5 c #9d9d9d",
"cB c #9e9e9e",
"aO c #9f9f9f",
"cA c #a0a0a0",
"ay c #a1a1a1",
"af c #a2a2a2",
"cw c #a3a3a3",
"cj c #a4a4a4",
"cv c #a6a6a6",
"ci c #a7a7a7",
"az c #a9a9a9",
"aK c #aaa45a",
"ac c #aaa55a",
".3 c #aaa65a",
"b7 c #aaaaaa",
"b6 c #acacac",
"cx c #aeaeae",
"b5 c #afafaf",
".S c #b0b0b0",
"bR c #b1b1b1",
"bQ c #b3b3b3",
"cm c #b4b4b4",
"cl c #b6b6b6",
"#Y c #b7996e",
"cr c #b7b7b7",
"ck c #b8b8b8",
"cq c #bababa",
"c. c #bbbbbb",
"cp c #bcbcbc",
"b9 c #bebebe",
"co c #bfbfbf",
"ct c #c0c0c0",
"b8 c #c1c1c1",
"cn c #c2c2c2",
"cs c #c3c3c3",
"bU c #c4c4c4",
"cb c #c5c5c5",
"bT c #c6c6c6",
"ca c #c7c7c7",
"bS c #c9c9c9",
".4 c #cac686",
"c# c #cacaca",
"bD c #cbcbcb",
"bC c #cdcdcd",
"ce c #cecece",
"cd c #cfcfcf",
"bW c #d0d0d0",
"cu c #d1d1d1",
"cc c #d2d2d2",
"bV c #d3d3d3",
"bZ c #d4d4d4",
"al c #d5b288",
"aE c #d5b592",
"am c #d5bd9a",
"bG c #d5d5d5",
"aR c #d6b489",
"bY c #d6d6d6",
"aD c #d7b588",
"aF c #d7b690",
"an c #d7be9f",
"aS c #d8b689",
"aC c #d8b78d",
"bF c #d8d8d8",
"bX c #d9d9d9",
"ao c #dac2a1",
"cf c #dadada",
"aT c #dbba90",
"aG c #dbbb96",
"bE c #dbdbdb",
"ak c #dcb98f",
"#1 c #dcbb91",
"bI c #dcdcdc",
"ap c #ddc4a6",
"b0 c #dddddd",
"aI c #debd93",
"aH c #dec19f",
"bH c #dedede",
"bm c #dfdfdf",
"aQ c #e0b57d",
"#0 c #e0c199",
"#Z c #e1ba88",
"aq c #e1caa6",
"#2 c #e1ceb2",
"bp c #e1e1e1",
"aB c #e2b57b",
"aj c #e2b67d",
".7 c #e2caa8",
"#5 c #e2d0b3",
"bJ c #e2e2e2",
"ar c #e3c5a4",
"a# c #e3c7a6",
"a. c #e3c7aa",
"#R c #e3ceb2",
"bo c #e3e3e3",
"aa c #e4c299",
"#C c #e4c59d",
".z c #e4cba9",
".b c #e4ccaa",
"#Q c #e4ccad",
"#3 c #e4cdb5",
"#4 c #e4cfb3",
"bn c #e4e4e4",
"#6 c #e5d1ba",
"#I c #e5d7c0",
"br c #e5e5e5",
"as c #e6c8a7",
"#9 c #e6d2b5",
"#E c #e6d5c1",
"#H c #e6d7c3",
"#G c #e6d8c3",
"bb c #e6e6e6",
"at c #e7caaa",
"#P c #e7d4b8",
"#7 c #e7d4bc",
"#D c #e7d4be",
"#F c #e7d8c2",
"#B c #e8caa3",
"#y c #e8d5b9",
"#r c #e8dccb",
"bq c #e8e8e8",
".2 c #e9caa2",
"#x c #e9d6ba",
"#8 c #e9d7be",
"#f c #e9d7c0",
"#J c #e9dbc8",
"#q c #eadcc9",
"be c #eaeaea",
"#g c #ebd8c0",
".1 c #ebd9c2",
"#w c #ebdac2",
".P c #ebdac4",
"#O c #ebdbc4",
"#n c #ebddca",
"#p c #ebddce",
"bd c #ebebeb",
"a6 c #ecba7f",
".0 c #ecd8bf",
".Q c #ecdbc5",
".O c #ecdbc7",
".Z c #ecdcc7",
".9 c #ece2d3",
"#h c #eddac2",
"#M c #eddecc",
".K c #eddfca",
"#K c #eddfcc",
"#L c #eddfce",
".a c #ede0cc",
"#o c #ede1d0",
"bc c #ededed",
".q c #eedec7",
".G c #eedec9",
".L c #eee0cb",
"#N c #eee0cd",
"#v c #eee2cf",
"#s c #eee3d3",
"a0 c #eeeeee",
".d c #efdfc8",
".F c #efe1d0",
"#e c #efe2d2",
".N c #efe4d4",
".8 c #efe4d6",
".p c #f0e2cf",
".J c #f0e2d0",
".E c #f0e2d1",
".Y c #f0e4d1",
"#u c #f0e4d5",
"#d c #f0e5d7",
"#. c #f0e7db",
".y c #f1e4d4",
".o c #f1e5d6",
"#t c #f1e6d8",
"#c c #f1e6da",
".X c #f1e7d8",
".D c #f1e8da",
".x c #f2e7db",
".n c #f2e8db",
"#b c #f2e8dd",
".M c #f2e9dd",
"#a c #f2eae1",
"## c #f2ebe1",
".W c #f2ece3",
".I c #f3eade",
".w c #f3eae0",
".m c #f3ece2",
".v c #f3ede6",
".i c #f4ede3",
".l c #f4eee7",
".h c #f4efe9",
".H c #f4f0e9",
".u c #f5f0ea",
".k c #f5f1ee",
".C c #f5f2ec",
".t c #f5f3f0",
".B c #f6f3f1",
".g c #f6f4ef",
".j c #f6f4f3",
".f c #f6f6f5",
".s c #f7f5f4",
".c c #f7f7f7",
"aL c #ffffff",
"QtQtQtQtQtQtQtQtQtQtQtQtQtQtQt.#.#.#QtQtQtQtQtQtQtQtQtQtQtQtQtQt",
"QtQtQtQtQtQtQtQtQtQtQtQtQtQtQt.#.a.a.#.#.#QtQtQtQtQtQtQtQtQtQtQt",
"QtQtQtQtQtQtQtQtQtQtQtQtQtQt.#.b.c.c.c.c.a.#.#.#QtQtQtQtQtQtQtQt",
"QtQtQtQtQtQtQtQtQtQtQtQtQtQt.#.c.c.c.c.c.c.c.c.d.#.#.#QtQtQtQtQt",
"QtQtQtQtQtQtQtQtQtQtQtQt.e.#.c.c.c.c.c.c.c.c.f.g.h.i.d.#.#.#QtQt",
"QtQtQtQtQtQtQtQtQtQtQtQt.#.b.c.c.c.c.c.c.c.c.j.k.l.m.n.o.p.q.rQt",
"QtQtQtQtQtQtQtQtQtQtQt.e.#.c.c.c.c.c.c.c.c.s.t.u.v.w.x.y.p.z.AQt",
"QtQtQtQtQtQtQtQtQtQtQt.#.b.c.c.c.c.c.c.c.s.B.C.l.m.D.E.F.G.AQtQt",
"QtQtQtQtQtQtQtQtQtQt.e.#.t.j.f.c.c.c.f.j.t.C.H.i.I.J.K.L.z.#QtQt",
"QtQtQtQtQtQtQt.#.#.#.#.b.u.k.g.B.B.B.g.k.u.l.i.M.N.O.P.Q.R.#.#.#",
"QtQtQtQtQtQt.#.S.T.U.V.w.v.l.h.u.u.u.h.l.W.I.X.Y.Z.0.1.2.#.3.4.#",
"QtQtQtQtQt.#.S.T.5.6.7.8.9#..m###a.M#b#c#d.N#e.L#f#g#h#i#j.3.#Qt",
"QtQtQtQt.#.S#k#l.T#m#n#o#p#q#r#s#c#t#d#u.y.y#v#w#x#y.2.#.3.4.#Qt",
"QtQtQt.#.S#z#A#k.##B#C#D#E#F#G#H#I#J#K#L#M#N#O#P#Q#R#S#j.3.#QtQt",
"QtQt.#.S#T#U#z#V#W#X#Y#Z#0#1#2#3#4#5#6#7#8#P#9a.a#aaabac.4.#QtQt",
"Qt.#.Sadae#T#U#U#Aafagahai#Yajakalamanaoapaqarasatau#j.3avQtQtQt",
".#.Sawaxadaeae#Taw#TaeayazagaA#i#YaBaCaDaEaFaGaHaIaJaK.4.#.#.#Qt",
".#aLaLaLaxaMadadadadadadaeaNawaOag.#aP#YaQaRaSaTaUaVaW.#aXaYaZ.#",
".#a0a0a0aLaLaLaxaMaxaxaxawa1a2ada2adaOa3a4a5#Ya6a7a8a9b.b#aZbaah",
".#bbbbbbbcbdbeaLaLaLaNaNa1babaa2bfbfaNbf#U.Tbg.#bhbibjbkblbaag.#",
".#bmbmbmbnbobpbqbbbraLaLaLbsa2bfbtbubvbwbfbxbybzaXblbzbAawbBag.#",
".#bCbCbDbEbFbGbHbIbEbobJbpaLaLaLbubvbwbKbxbLbMbNaXbzbOaNbPagag.#",
".#bQbQbRbSbTbUbVbWbCbXbYbZbHb0bIaLaLaLbxbLb1bMb2b3b3aNb4agagag.#",
".#.#adaxb5b6b7b8b9c.c#cacbcccdcecfbXbFaLaLaLb2cgchadbBagagagag.#",
"QtQt.#.#.#babfcicjafckclcmcncocpbDbSbTbYbGbVaLaLaLagagagagagag.#",
"QtQtQtQtQt.#.#.#bvbwaO.5.TbRb5b6cqcrcmbUcsctcubWbWagagagagag.#Qt",
"QtQtQtQtQtQtQtQt.#.#.#bLbM#A#z#TazcvcwbRcxcyczcpctagagagag.#QtQt",
"QtQtQtQtQtQtQtQtQtQtQt.#.#.#bNbyaxaNbacAcB.5azciciagagag.#QtQtQt",
"QtQtQtQtQtQtQtQtQtQtQtQtQtQt.#.#.#bzcCbtbucD#k#k#kagag.#QtQtQtQt",
"QtQtQtQtQtQtQtQtQtQtQtQtQtQtQtQtQt.#.#.#cEcFbxbxbxag.#QtQtQtQtQt",
"QtQtQtQtQtQtQtQtQtQtQtQtQtQtQtQtQtQtQtQt.#.#.#aYaY.#QtQtQtQtQtQt",
"QtQtQtQtQtQtQtQtQtQtQtQtQtQtQtQtQtQtQtQtQtQtQt.#.#QtQtQtQtQtQtQt"};
