/* XPM */
const char *asiento[]={
"32 32 5 1",
". c None",
"# c #000000",
"b c #800000",
"a c #c00000",
"c c #ff0000",
"................................",
"................................",
"................................",
"................................",
"........################........",
".......#aaaaaaaaaaaaaaaa#.......",
"......#aaaaaaaaaaaaaaaaaa#......",
"......#aaaaaaaaaaaaaaaaaa#......",
"......#aaaaaaaaaaaaaaaaaa#......",
"......#aaaaaaaaaaaaaaaaaa#......",
"......####################......",
"....####bbbbbbbbbbbbbbbb####....",
"...#cccc#bbbbbbbbbbbbbb#cccc#...",
"..#cccccc#bbbbbbbbbbbb#cccccc#..",
"..#cccccc#bbbbbbbbbbbb#cccccc#..",
"..#cccccc##############cccccc#..",
"...#cccc##aaaaaaaaaaaa##cccc#...",
"....####c#aaaaaaaaaaaa#c####....",
".....######################.....",
".....#bbbbbbbbbbbbbbbbbbbb#.....",
".....#bbbbbbbbbbbbbbbbbbbb#.....",
".....#bbbbbbbbbbbbbbbbbbbb#.....",
".....######################.....",
"......##...............##.......",
"......##...............##.......",
"................................",
"................................",
"................................",
"................................",
"................................",
"................................",
"................................"};
