<?xml version="1.0" encoding="UTF-8" standalone="no"?>
<!-- Created with Inkscape (http://www.inkscape.org/) -->
<svg
   xmlns:dc="http://purl.org/dc/elements/1.1/"
   xmlns:cc="http://web.resource.org/cc/"
   xmlns:rdf="http://www.w3.org/1999/02/22-rdf-syntax-ns#"
   xmlns:svg="http://www.w3.org/2000/svg"
   xmlns="http://www.w3.org/2000/svg"
   xmlns:xlink="http://www.w3.org/1999/xlink"
   xmlns:sodipodi="http://sodipodi.sourceforge.net/DTD/sodipodi-0.dtd"
   xmlns:inkscape="http://www.inkscape.org/namespaces/inkscape"
   version="1.0"
   width="256"
   height="256"
   id="svg1"
   sodipodi:version="0.32"
   inkscape:version="0.45"
   sodipodi:docname="i_bulmages_clientes.svg"
   sodipodi:docbase="/home/anna/Desktop/elferrer/Documents/noves imatges bulmages/i_bulmages_clientes"
   inkscape:output_extension="org.inkscape.output.svg.inkscape"
   inkscape:export-filename="/home/anna/Desktop/elferrer/Documents/noves imatges bulmages/i_bulmages_clientes/i_bulmages_clientes_pulsado_L.png"
   inkscape:export-xdpi="96"
   inkscape:export-ydpi="96"
   sodipodi:modified="TRUE">
  <metadata
     id="metadata162">
    <rdf:RDF>
      <cc:Work
         rdf:about="">
        <dc:format>image/svg+xml</dc:format>
        <dc:type
           rdf:resource="http://purl.org/dc/dcmitype/StillImage" />
        <cc:license
           rdf:resource="http://creativecommons.org/licenses/GPL/2.0/" />
        <dc:title>clientes</dc:title>
        <dc:date>actualizacion 11/03/2007</dc:date>
        <dc:creator>
          <cc:Agent>
            <dc:title>Raül Martínez i Peris</dc:title>
          </cc:Agent>
        </dc:creator>
        <dc:rights>
          <cc:Agent>
            <dc:title>GPL</dc:title>
          </cc:Agent>
        </dc:rights>
        <dc:publisher>
          <cc:Agent>
            <dc:title>Raül Martinez i Peris</dc:title>
          </cc:Agent>
        </dc:publisher>
        <dc:identifier>elferrer</dc:identifier>
        <dc:source>propia</dc:source>
        <dc:language>castellano</dc:language>
        <dc:contributor>
          <cc:Agent>
            <dc:title>www.iglues.org</dc:title>
          </cc:Agent>
        </dc:contributor>
        <dc:description>iconos para las aplicaciones de iglues.org</dc:description>
        <dc:subject>
          <rdf:Bag>
            <rdf:li>bulmagés</rdf:li>
          </rdf:Bag>
        </dc:subject>
      </cc:Work>
      <cc:License
         rdf:about="http://creativecommons.org/licenses/GPL/2.0/">
        <cc:permits
           rdf:resource="http://web.resource.org/cc/Reproduction" />
        <cc:permits
           rdf:resource="http://web.resource.org/cc/Distribution" />
        <cc:requires
           rdf:resource="http://web.resource.org/cc/Notice" />
        <cc:permits
           rdf:resource="http://web.resource.org/cc/DerivativeWorks" />
        <cc:requires
           rdf:resource="http://web.resource.org/cc/ShareAlike" />
        <cc:requires
           rdf:resource="http://web.resource.org/cc/SourceCode" />
      </cc:License>
    </rdf:RDF>
  </metadata>
  <sodipodi:namedview
     inkscape:window-height="690"
     inkscape:window-width="1016"
     inkscape:pageshadow="2"
     inkscape:pageopacity="0.0"
     guidetolerance="10.0"
     gridtolerance="10.0"
     objecttolerance="10.0"
     borderopacity="1.0"
     bordercolor="#666666"
     pagecolor="#ffffff"
     id="base"
     inkscape:zoom="1.9023438"
     inkscape:cx="158.4526"
     inkscape:cy="126.17701"
     inkscape:window-x="0"
     inkscape:window-y="0"
     inkscape:current-layer="layer11"
     gridempspacing="3" />
  <defs
     id="defs3">
    <linearGradient
       id="linearGradient9952">
      <stop
         style="stop-color:blue;stop-opacity:1"
         offset="0"
         id="stop9953" />
      <stop
         style="stop-color:blue;stop-opacity:0"
         offset="1"
         id="stop9954" />
    </linearGradient>
    <linearGradient
       inkscape:collect="always"
       xlink:href="#linearGradient9952"
       id="linearGradient2396"
       gradientUnits="userSpaceOnUse"
       gradientTransform="matrix(0.722825,0,0,5.491502,357.3217,-224.6297)"
       x1="-181.00027"
       y1="65.430992"
       x2="-149.55615"
       y2="65.430992" />
    <linearGradient
       inkscape:collect="always"
       xlink:href="#linearGradient9952"
       id="linearGradient2398"
       gradientUnits="userSpaceOnUse"
       gradientTransform="matrix(0.503358,0.519204,-0.518754,0.503795,350.8416,286.8881)"
       x1="-181.00027"
       y1="65.430992"
       x2="-149.55615"
       y2="65.430992" />
    <linearGradient
       inkscape:collect="always"
       xlink:href="#linearGradient9952"
       id="linearGradient2400"
       gradientUnits="userSpaceOnUse"
       gradientTransform="matrix(0.700557,0.178187,-0.178032,0.701165,364.2407,212.2498)"
       x1="-181.00027"
       y1="65.430992"
       x2="-149.55615"
       y2="65.430992" />
    <linearGradient
       inkscape:collect="always"
       xlink:href="#linearGradient9952"
       id="linearGradient2402"
       gradientUnits="userSpaceOnUse"
       gradientTransform="matrix(0.175051,0.701916,0.701308,-0.175203,211.5968,364.3863)"
       x1="-181.00027"
       y1="65.430992"
       x2="-149.55615"
       y2="65.430992" />
    <linearGradient
       inkscape:collect="always"
       xlink:href="#linearGradient9952"
       id="linearGradient2404"
       gradientUnits="userSpaceOnUse"
       gradientTransform="matrix(-0.518754,0.503795,-0.503358,-0.519204,-30.75042,351.0348)"
       x1="-181.00027"
       y1="65.430992"
       x2="-149.55615"
       y2="65.430992" />
    <linearGradient
       inkscape:collect="always"
       xlink:href="#linearGradient9952"
       id="linearGradient2406"
       gradientUnits="userSpaceOnUse"
       gradientTransform="matrix(-0.178032,0.701165,-0.700557,-0.178187,43.82315,364.4456)"
       x1="-181.00027"
       y1="65.430992"
       x2="-149.55615"
       y2="65.430992" />
    <linearGradient
       inkscape:collect="always"
       xlink:href="#linearGradient9952"
       id="linearGradient2408"
       gradientUnits="userSpaceOnUse"
       gradientTransform="matrix(-0.701308,0.175203,0.175051,0.701916,-108.1815,211.6693)"
       x1="-181.00027"
       y1="65.430992"
       x2="-149.55615"
       y2="65.430992" />
    <linearGradient
       inkscape:collect="always"
       xlink:href="#linearGradient9952"
       id="linearGradient2410"
       gradientUnits="userSpaceOnUse"
       gradientTransform="matrix(0.518754,-0.503795,0.503358,0.519204,286.7504,-95.03481)"
       x1="-181.00027"
       y1="65.430992"
       x2="-149.55615"
       y2="65.430992" />
    <linearGradient
       inkscape:collect="always"
       xlink:href="#linearGradient9952"
       id="linearGradient2412"
       gradientUnits="userSpaceOnUse"
       gradientTransform="matrix(0.178032,-0.701165,0.700557,0.178187,212.1768,-108.4456)"
       x1="-181.00027"
       y1="65.430992"
       x2="-149.55615"
       y2="65.430992" />
    <linearGradient
       inkscape:collect="always"
       xlink:href="#linearGradient9952"
       id="linearGradient2414"
       gradientUnits="userSpaceOnUse"
       gradientTransform="matrix(0.701308,-0.175203,-0.175051,-0.701916,364.1815,44.33066)"
       x1="-181.00027"
       y1="65.430992"
       x2="-149.55615"
       y2="65.430992" />
    <linearGradient
       inkscape:collect="always"
       xlink:href="#linearGradient9952"
       id="linearGradient2416"
       gradientUnits="userSpaceOnUse"
       gradientTransform="matrix(-0.503358,-0.519204,0.518754,-0.503795,-94.84156,-30.88808)"
       x1="-181.00027"
       y1="65.430992"
       x2="-149.55615"
       y2="65.430992" />
    <linearGradient
       inkscape:collect="always"
       xlink:href="#linearGradient9952"
       id="linearGradient2418"
       gradientUnits="userSpaceOnUse"
       gradientTransform="matrix(-0.700557,-0.178187,0.178032,-0.701165,-108.2407,43.75017)"
       x1="-181.00027"
       y1="65.430992"
       x2="-149.55615"
       y2="65.430992" />
    <linearGradient
       inkscape:collect="always"
       xlink:href="#linearGradient9952"
       id="linearGradient2420"
       gradientUnits="userSpaceOnUse"
       gradientTransform="matrix(-0.175051,-0.701916,-0.701308,0.175203,44.40317,-108.3863)"
       x1="-181.00027"
       y1="65.430992"
       x2="-149.55615"
       y2="65.430992" />
    <linearGradient
       inkscape:collect="always"
       xlink:href="#linearGradient9952"
       id="linearGradient2422"
       gradientUnits="userSpaceOnUse"
       gradientTransform="matrix(-0.722825,0,0,-5.491502,-101.3217,480.6296)"
       x1="-181.00027"
       y1="65.430992"
       x2="-149.55615"
       y2="65.430992" />
    <linearGradient
       inkscape:collect="always"
       xlink:href="#linearGradient9952"
       id="linearGradient2424"
       gradientUnits="userSpaceOnUse"
       gradientTransform="matrix(0,-0.723451,5.486744,0,-224.3241,-101.5205)"
       x1="-181.00027"
       y1="65.430992"
       x2="-149.55615"
       y2="65.430992" />
    <linearGradient
       inkscape:collect="always"
       xlink:href="#linearGradient9952"
       id="linearGradient2426"
       gradientUnits="userSpaceOnUse"
       gradientTransform="matrix(0,0.723451,-5.486744,0,480.324,357.5204)"
       x1="-181.00027"
       y1="65.430992"
       x2="-149.55615"
       y2="65.430992" />
    <linearGradient
       inkscape:collect="always"
       xlink:href="#linearGradient9952"
       id="linearGradient2428"
       gradientUnits="userSpaceOnUse"
       gradientTransform="matrix(0.722825,0,0,5.491502,161.2922,-224.6297)"
       x1="-181.00027"
       y1="65.430992"
       x2="-149.55615"
       y2="65.430992" />
    <linearGradient
       inkscape:collect="always"
       xlink:href="#linearGradient9952"
       id="linearGradient2430"
       gradientUnits="userSpaceOnUse"
       gradientTransform="matrix(-0.722825,0,0,-5.491502,97.31552,480.6296)"
       x1="-181.00027"
       y1="65.430992"
       x2="-149.55615"
       y2="65.430992" />
    <linearGradient
       inkscape:collect="always"
       xlink:href="#linearGradient9952"
       id="linearGradient2432"
       gradientUnits="userSpaceOnUse"
       gradientTransform="matrix(0,-0.723451,5.486744,0,-224.3241,95.04349)"
       x1="-181.00027"
       y1="65.430992"
       x2="-149.55615"
       y2="65.430992" />
    <linearGradient
       inkscape:collect="always"
       xlink:href="#linearGradient9952"
       id="linearGradient2434"
       gradientUnits="userSpaceOnUse"
       gradientTransform="matrix(0,0.723451,-5.486744,0,480.324,161.8969)"
       x1="-181.00027"
       y1="65.430992"
       x2="-149.55615"
       y2="65.430992" />
    <filter
       inkscape:collect="always"
       x="-0.10004336"
       width="1.2000867"
       y="-0.099956678"
       height="1.1999134"
       id="filter3222">
      <feGaussianBlur
         inkscape:collect="always"
         stdDeviation="9.0266808"
         id="feGaussianBlur3224" />
    </filter>
  </defs>
  <g
     style="opacity:1;display:inline"
     id="layer1">
    <path
       d=""
       style="opacity:1"
       id="path3945" />
  </g>
  <path
     d=""
     id="path3081" />
  <g
     style="display:inline"
     id="layer2" />
  <g
     style="display:inline"
     id="layer3" />
  <g
     style="opacity:1;display:inline"
     id="layer4" />
  <g
     inkscape:groupmode="layer"
     id="layer5"
     inkscape:label="boton_pulsado"
     style="display:none"
     sodipodi:insensitive="true">
    <g
       id="g2458">
      <g
         transform="translate(-3.15982,0.14121)"
         style="display:inline"
         id="g3979">
        <path
           d="M 225.84614,30.083415 L 249.21903,30.14204 L 249.21903,225.91656 L 225.87247,225.87734 L 225.84614,30.083415 z "
           style="opacity:0.5;fill:url(#linearGradient2396);fill-opacity:1;fill-rule:evenodd;stroke:none;stroke-width:8.9802618;stroke-miterlimit:4;stroke-opacity:1;display:block"
           id="rect10002" />
        <path
           d="M 246.09172,236.81817 L 241.6188,242.20167 L 236.82989,246.55734 L 225.79115,225.87576 L 246.09172,236.81817 z "
           style="opacity:0.5;fill:url(#linearGradient2398);fill-opacity:1;fill-rule:evenodd;stroke:none;stroke-width:8.9802618;stroke-miterlimit:4;stroke-opacity:1"
           id="path2053" />
        <path
           d="M 249.21905,225.96681 L 247.81954,231.47868 L 246.42002,236.99055 L 225.79115,225.87576 L 249.21905,225.96681 z "
           style="opacity:0.5;fill:url(#linearGradient2400);fill-opacity:1;fill-rule:evenodd;stroke:none;stroke-width:8.9802618;stroke-miterlimit:4;stroke-opacity:1"
           id="path2060" />
        <path
           d="M 225.79115,249.32415 L 231.30415,247.94688 L 236.81715,246.56961 L 225.79985,225.87576 L 225.79115,249.32415 z "
           style="opacity:0.5;fill:url(#linearGradient2402);fill-opacity:1;fill-rule:evenodd;stroke:none;stroke-width:8.9802618;stroke-miterlimit:4;stroke-opacity:1"
           id="path2062" />
        <path
           d="M 19.276093,246.19414 L 13.897256,241.71734 L 9.5453636,236.92428 L 30.20902,225.87597 L 19.276093,246.19414 z "
           style="opacity:0.5;fill:url(#linearGradient2404);fill-opacity:1;fill-rule:evenodd;stroke:none;stroke-width:8.9802618;stroke-miterlimit:4;stroke-opacity:1"
           id="path3000" />
        <path
           d="M 30.118045,249.32418 L 24.610958,247.92346 L 19.103856,246.52272 L 30.20902,225.87597 L 30.118045,249.32418 z "
           style="opacity:0.5;fill:url(#linearGradient2406);fill-opacity:1;fill-rule:evenodd;stroke:none;stroke-width:8.9802618;stroke-miterlimit:4;stroke-opacity:1"
           id="path3001" />
        <path
           d="M 6.7809483,225.87597 L 8.1570192,231.39375 L 9.5331053,236.91153 L 30.20902,225.88467 L 6.7809483,225.87597 z "
           style="opacity:0.5;fill:url(#linearGradient2408);fill-opacity:1;fill-rule:evenodd;stroke:none;stroke-width:8.9802618;stroke-miterlimit:4;stroke-opacity:1"
           id="path3002" />
        <path
           d="M 236.72389,9.8058696 L 242.10272,14.28267 L 246.45462,19.075728 L 225.79096,30.12404 L 236.72389,9.8058696 z "
           style="opacity:0.5;fill:url(#linearGradient2410);fill-opacity:1;fill-rule:evenodd;stroke:none;stroke-width:8.9802618;stroke-miterlimit:4;stroke-opacity:1"
           id="path3007" />
        <path
           d="M 225.88193,6.6758271 L 231.38902,8.0765559 L 236.89612,9.4772889 L 225.79096,30.12404 L 225.88193,6.6758271 z "
           style="opacity:0.5;fill:url(#linearGradient2412);fill-opacity:1;fill-rule:evenodd;stroke:none;stroke-width:8.9802618;stroke-miterlimit:4;stroke-opacity:1"
           id="path3008" />
        <path
           d="M 249.21903,30.12404 L 247.84296,24.606264 L 246.46687,19.08848 L 225.79096,30.115338 L 249.21903,30.12404 z "
           style="opacity:0.5;fill:url(#linearGradient2414);fill-opacity:1;fill-rule:evenodd;stroke:none;stroke-width:8.9802618;stroke-miterlimit:4;stroke-opacity:1"
           id="path3009" />
        <path
           d="M 9.9082846,19.181822 L 14.381207,13.79832 L 19.170112,9.4426539 L 30.20885,30.12423 L 9.9082846,19.181822 z "
           style="opacity:0.5;fill:url(#linearGradient2416);fill-opacity:1;fill-rule:evenodd;stroke:none;stroke-width:8.9802618;stroke-miterlimit:4;stroke-opacity:1"
           id="path3011" />
        <path
           d="M 6.7809541,30.033176 L 8.1804693,24.521313 L 9.5799886,19.009435 L 30.20885,30.12423 L 6.7809541,30.033176 z "
           style="opacity:0.5;fill:url(#linearGradient2418);fill-opacity:1;fill-rule:evenodd;stroke:none;stroke-width:8.9802618;stroke-miterlimit:4;stroke-opacity:1"
           id="path3012" />
        <path
           d="M 30.20885,6.6758413 L 24.695855,8.0531055 L 19.182853,9.430385 L 30.200156,30.12423 L 30.20885,6.6758413 z "
           style="opacity:0.5;fill:url(#linearGradient2420);fill-opacity:1;fill-rule:evenodd;stroke:none;stroke-width:8.9802618;stroke-miterlimit:4;stroke-opacity:1"
           id="path3013" />
        <path
           d="M 30.153849,225.91656 L 6.780954,225.85793 L 6.780954,30.083413 L 30.127521,30.122631 L 30.153849,225.91656 z "
           style="opacity:0.5;fill:url(#linearGradient2422);fill-opacity:1;fill-rule:evenodd;stroke:none;stroke-width:8.9802618;stroke-miterlimit:4;stroke-opacity:1;display:block"
           id="path3021" />
        <path
           d="M 30.168259,30.06899 L 30.226838,6.675827 L 225.83173,6.675827 L 225.79255,30.04264 L 30.168259,30.06899 z "
           style="opacity:0.5;fill:url(#linearGradient2424);fill-opacity:1;fill-rule:evenodd;stroke:none;stroke-width:8.9802618;stroke-miterlimit:4;stroke-opacity:1;display:block"
           id="path3023" />
        <path
           d="M 225.83173,225.93098 L 225.77315,249.32415 L 30.168259,249.32415 L 30.207443,225.95733 L 225.83173,225.93098 z "
           style="opacity:0.5;fill:url(#linearGradient2426);fill-opacity:1;fill-rule:evenodd;stroke:none;stroke-width:8.9802618;stroke-miterlimit:4;stroke-opacity:1;display:block"
           id="path3054" />
        <path
           d="M 29.816627,30.083414 L 53.189522,30.14204 L 53.189522,225.91656 L 29.842954,225.87734 L 29.816627,30.083414 z "
           style="opacity:0.5;fill:url(#linearGradient2428);fill-opacity:1;fill-rule:evenodd;stroke:none;stroke-width:8.9802618;stroke-miterlimit:4;stroke-opacity:1;display:block"
           id="path1956" />
        <path
           d="M 228.79098,225.91656 L 205.41809,225.85793 L 205.41809,30.083413 L 228.76465,30.122631 L 228.79098,225.91656 z "
           style="opacity:0.5;fill:url(#linearGradient2430);fill-opacity:1;fill-rule:evenodd;stroke:none;stroke-width:8.9802618;stroke-miterlimit:4;stroke-opacity:1;display:block"
           id="path1990" />
        <path
           d="M 30.168258,226.63294 L 30.226837,203.23978 L 225.83173,203.23978 L 225.79255,226.60659 L 30.168258,226.63294 z "
           style="opacity:0.5;fill:url(#linearGradient2432);fill-opacity:1;fill-rule:evenodd;stroke:none;stroke-width:8.9802618;stroke-miterlimit:4;stroke-opacity:1;display:block"
           id="path1992" />
        <path
           d="M 225.83173,30.307532 L 225.77315,53.700695 L 30.168258,53.700695 L 30.207442,30.333882 L 225.83173,30.307532 z "
           style="opacity:0.5;fill:url(#linearGradient2434);fill-opacity:1;fill-rule:evenodd;stroke:none;stroke-width:8.9802618;stroke-miterlimit:4;stroke-opacity:1;display:block"
           id="path1994" />
      </g>
      <path
         d="M 46.00708,221.46053 L 46.00708,217.88241 L 214.76672,217.88241 L 214.76672,49.1021 L 218.34173,49.06054 L 218.34173,219.68332 L 218.34173,221.46053 L 216.56606,221.46053 L 46.00708,221.46053 z "
         style="fill:#000000;fill-opacity:1;fill-rule:evenodd;stroke:none;stroke-width:4.70592737;stroke-miterlimit:4;stroke-opacity:1;display:block"
         id="path2826" />
      <path
         d="M 34.61253,37.83522 L 36.3882,37.83522 L 213.29223,37.83522 L 215.0679,37.83522 L 215.0679,39.61242 L 215.0679,216.66987 L 215.0679,218.44708 L 213.29223,218.44708 L 36.3882,218.44708 L 34.61253,218.44708 L 34.61253,216.66987 L 34.61253,39.61242 L 34.61253,37.83522 z M 38.18754,41.41333 L 38.18754,214.86896 L 211.49289,214.86896 L 211.49289,41.41333 L 38.18754,41.41333 z "
         style="fill:#00007f;fill-opacity:1;fill-rule:evenodd;stroke:none;stroke-width:8.9802618;stroke-miterlimit:4;stroke-opacity:1;display:block"
         id="rect5542" />
    </g>
  </g>
  <g
     inkscape:groupmode="layer"
     id="layer7"
     inkscape:label="boton_visible"
     style="display:none"
     sodipodi:insensitive="true">
    <path
       id="path2483"
       style="fill:#00007f;fill-opacity:1;fill-rule:evenodd;stroke:none;stroke-width:8.9802618;stroke-miterlimit:4;stroke-opacity:1;display:block;filter:url(#filter3222)"
       d="M 34.61253,37.83522 L 36.3882,37.83522 L 213.29223,37.83522 L 215.0679,37.83522 L 215.0679,39.61242 L 215.0679,216.66987 L 215.0679,218.44708 L 213.29223,218.44708 L 36.3882,218.44708 L 34.61253,218.44708 L 34.61253,216.66987 L 34.61253,39.61242 L 34.61253,37.83522 z M 38.18754,41.41333 L 38.18754,214.86896 L 211.49289,214.86896 L 211.49289,41.41333 L 38.18754,41.41333 z " />
  </g>
  <g
     inkscape:groupmode="layer"
     id="layer8"
     inkscape:label="icono"
     style="display:inline">
    <path
       transform="translate(243.38398,128.7885)"
       style="fill:#ffffff;fill-opacity:1"
       d="M 8.4106766,87.260783 C 9.0402621,110.99825 -9.2654408,125.18245 -39.42505,125.10883 C -60.026946,125.05853 -71.490757,109.43974 -71.490757,88.837784 C -71.490757,68.23583 -54.770331,51.515404 -34.168377,51.515404 C -13.566423,51.515404 8.4106766,66.658829 8.4106766,87.260783 z "
       id="path3224"
       sodipodi:nodetypes="csssc" />
    <g
       id="g2506"
       transform="matrix(1.3171928,0,0,1.3171928,-47.657978,-43.744374)">
      <path
         id="path2976"
         d="" />
      <path
         style="fill:#1f1a17;stroke:none;display:block"
         d="M 214.14235,179.47883 C 201.25215,192.36903 188.36195,205.25924 175.47174,218.14945 C 173.27698,215.49536 170.95487,212.85992 169.7562,209.57338 C 167.14514,203.25067 166.80572,195.88267 169.43947,189.509 C 170.60621,186.02945 172.55067,182.87206 175.03526,180.17968 C 178.77812,175.98533 184.03939,173.3878 189.44657,172.07057 C 194.77036,171.05499 200.3625,171.54256 205.37437,173.63592 C 208.74532,174.84976 211.59863,176.99796 214.14235,179.47883 z M 175.47175,218.14945 C 188.36195,205.25924 201.25215,192.36903 214.14235,179.47883 C 214.22112,176.64351 214.29987,173.80819 214.37863,170.97287 C 210.70507,168.58663 206.66072,166.7353 202.42011,165.6487 C 199.0624,165.2404 195.70458,164.56916 192.30663,164.94937 C 187.48361,165.28587 182.84628,166.98319 178.51229,169.03259 C 175.06694,171.36003 171.61591,173.76747 168.98985,177.0406 C 166.44945,179.77592 164.60657,183.08359 163.21228,186.52554 C 161.32838,191.49687 160.54819,196.88033 161.09741,202.17566 C 161.11074,204.64009 161.99774,206.98032 162.52634,209.36163 C 163.57898,212.35142 164.92368,215.25126 166.65075,217.91317 C 169.59108,217.99193 172.53142,218.07068 175.47175,218.14945 z "
         id="path72" />
      <path
         style="fill:#1f1a17;stroke:none;display:block"
         d="M 195.55526,175.46213 C 197.22942,175.40586 198.85018,176.9129 198.7385,178.62235 C 198.80181,180.64023 196.52528,182.31603 194.61344,181.72191 C 192.98968,181.28016 191.73088,179.46319 192.25255,177.78942 C 192.62898,176.37445 194.08072,175.29492 195.55526,175.46213 z "
         id="polygon73" />
      <path
         style="fill:#1f1a17;stroke:none;display:block"
         d="M 174.13283,197.98717 C 176.42054,197.88969 178.10698,200.7945 176.90414,202.7457 C 176.23341,204.03658 174.71202,204.85914 173.26725,204.4651 C 171.24328,204.01988 169.98565,201.34851 171.21297,199.58347 C 171.78927,198.58138 172.95759,197.86131 174.13283,197.98717 z "
         id="polygon74" />
      <path
         style="fill:#1f1a17;stroke:none;display:block"
         d="M 181.22256,201.69055 L 184.53045,200.4304 L 188.07461,199.09149 L 193.9028,199.64281 L 199.4947,200.19412 L 199.4947,201.69055 L 199.4947,203.34449 L 193.9028,203.97456 L 188.07461,204.52588 L 184.53045,203.18697 L 181.22256,201.69055 z "
         id="polygon75" />
      <path
         style="fill:#1f1a17;stroke:none;display:block"
         d="M 195.00542,182.8671 L 196.34433,187.35637 L 197.762,191.68813 L 197.21068,198.85521 L 196.65937,205.94354 L 195.00542,205.94354 L 193.27272,205.94354 L 192.95769,198.85521 L 192.40637,191.68813 L 193.66652,187.35637 L 195.00542,182.8671 z "
         id="polygon76" />
      <path
         id="path77"
         style="fill:#1f1a17;stroke:none;display:block"
         d="M 131.4455,139.8631 C 139.21638,153.33087 146.98725,166.79864 154.75813,180.26641 C 153.91475,183.49407 153.96707,188.74776 149.91447,184.71628 C 144.1277,182.36743 143.64701,174.99339 140.43878,170.2025 C 138.38106,166.56356 134.5805,156.86435 133.62614,157.06207 C 134.9995,169.57489 136.37286,182.08771 137.74622,194.60052 C 131.60302,200.61245 125.45983,206.62438 119.31664,212.63631 C 112.62214,207.75325 105.92763,202.8702 99.23312,197.98716 C 99.889437,179.08502 100.54578,160.18289 101.20209,141.28076 C 111.28322,140.8082 121.36439,140.33566 131.4455,139.8631 z M 135.14717,120.64594 C 133.53258,125.46212 133.92473,132.65295 131.03448,135.95961 C 121.09036,136.31567 111.14622,136.67172 101.20209,137.02778 C 100.09947,131.56716 98.996845,126.10655 97.894224,120.64594 C 109.03442,127.35519 124.0226,127.41588 135.14717,120.64594 z M 117.6627,43.462233 C 130.69608,43.412202 143.447,50.729869 149.96291,62.036444 C 157.54313,74.554066 156.59276,91.570461 147.59289,103.14318 C 138.81476,115.71901 121.53591,121.236 106.98335,116.67435 C 97.847741,114.09058 89.940594,107.77755 85.248408,99.524726 C 77.775709,87.061099 78.651402,70.185065 87.576363,58.678434 C 94.468501,49.228259 105.98509,43.440575 117.6627,43.462233 z M 84.672781,125.08402 C 78.272783,141.61735 62.806118,133.08402 56.139451,138.41736 C 40.672786,152.81736 54.272781,199.48402 63.07278,210.15069 L 86.006119,209.88402 L 92.139449,140.81735 L 84.672781,125.08402 z M 147.50643,122.95069 C 153.90643,139.48402 169.37309,130.95069 176.03976,136.28403 C 191.50643,150.68403 180.72032,156.0159 174.43976,162.95069 L 161.63976,177.08402 L 140.03976,138.68402 L 147.50643,122.95069 z " />
      <g
         id="g10013"
         transform="matrix(0.65,0,0,0.65,152.87472,-199.22455)">
        <path
           style="opacity:0.125;fill:#a8ffff;fill-opacity:1;stroke:none;stroke-width:4;stroke-miterlimit:4;stroke-opacity:1;display:block"
           d="M -27.59375,551.34375 C -24.905201,554.54129 -28.790184,547.4553 -27.59375,551.34375 z "
           id="path10015" />
        <path
           style="opacity:0.125;fill:#a8ffff;fill-opacity:1;stroke:none;stroke-width:4;stroke-miterlimit:4;stroke-opacity:1;display:block"
           d="M -17.75,552.84375 C -15.407236,559.58194 -16.680584,550.21093 -17.75,552.84375 z M -24.21875,556.53125 C -15.641984,565.55016 -19.626093,554.05628 -24.21875,556.53125 z "
           id="path10020" />
        <path
           style="opacity:0.125;fill:#a8ffff;fill-opacity:1;stroke:none;stroke-width:4;stroke-miterlimit:4;stroke-opacity:1;display:block"
           d="M -17.34375,558.875 C -16.99802,558.91109 -18.131731,557.88945 -17.34375,558.875 z M -15.75,562.21875 C -21.515094,563.86931 -7.2092416,572.54194 -13.54542,563.76019 C -13.059452,562.31683 -20.197453,556.03441 -15.75,562.21875 z "
           id="path10025" />
        <path
           style="opacity:0.125;fill:#a8ffff;fill-opacity:1;stroke:none;stroke-width:4;stroke-miterlimit:4;stroke-opacity:1;display:block"
           d="M -56.25,374.875 C -88.16749,374.77368 -115.1874,407.42136 -108.46875,438.8125 C -103.87411,466.41886 -75.542234,487.79294 -47.625,483.25 C -21.360599,480.15547 0.59692505,455.74479 -0.21875,429.03125 C -0.13384971,404.89839 -17.570377,381.98354 -41.338196,376.5437 C -46.156545,375.29827 -51.240193,374.66331 -56.25,374.875 z M -54.8125,376.53125 C -32.525619,376.33213 -11.435048,391.3099 -4.78125,412.6875 C 2.7566198,433.49598 -5.0535131,458.04069 -22.84375,471.03125 C -41.176296,485.73523 -69.732828,485.68474 -87.59375,470.21875 C -107.14447,455.30958 -113.97489,425.55114 -100.98311,404.12584 C -91.742292,387.80751 -73.910674,376.12987 -54.8125,376.53125 z M -80.375,497.84375 C -78.296782,501.97565 -80.143248,511.33028 -75.688748,512.29381 C -62.317472,511.20202 -48.041672,512.72262 -35.28125,509.84375 C -33.350212,505.63741 -33.049337,500.93522 -32.4375,496.40625 C -47.652144,503.06261 -65.569024,502.97816 -80.6875,496.25 L -80.495086,497.23131 L -80.375,497.84375 z M -76.5625,499.625 C -63.099679,504.35792 -47.923962,504.03902 -34.5625,499.0625 C -35.479315,503.05081 -34.78691,510.21152 -40.714057,509.12802 C -52.43853,510.30425 -64.299549,509.94667 -76.09375,510.625 C -75.695233,508.00108 -80.605548,497.90311 -76.5625,499.625 z M -9.40625,502.625 C -11.551992,507.8896 -15.087793,513.19252 -16.5,518.4375 C -6.4904846,536.25051 3.526094,554.05955 13.53125,571.875 C 22.982355,560.19401 35.117101,550.50569 43.53125,538.1875 C 45.783718,529.14842 38.283852,520.23912 30.96875,516 C 20.564988,512.04431 7.8019195,516.53715 -1.5,509 C -4.4300635,506.89739 -6.8127679,504.27213 -8.78125,501.28125 L -9.2029807,502.18797 L -9.40625,502.625 z M -7.28125,505.75 C -0.29660267,514.82013 11.433637,516.24433 22,515.9375 C 31.578958,515.46503 39.154513,523.41412 41.96875,531.90625 C 44.113323,539.88737 35.205938,544.67146 31.224831,550.32564 C 25.430985,556.55207 19.413434,562.58391 13.84375,569 C 4.3101197,551.97933 -5.2894301,534.99503 -14.8125,517.96875 C -12.366608,515.17698 -10.32783,503.69669 -7.28125,505.75 z M -106.375,505.96875 C -113.76062,516.92438 -128.55452,518.17116 -140.6875,517.71875 C -149.96855,518.69855 -153.63556,528.35763 -155.25,536.1875 C -160.40833,559.27245 -153.82024,583.01292 -146.86669,605.00964 C -144.18284,611.8473 -141.35635,619.5931 -136.625,624.96875 C -126.5104,624.85738 -116.39594,624.72116 -106.28125,624.625 C -103.57514,590.13899 -99.525086,555.62272 -97.625,521.15625 C -100.387,515.7766 -102.35849,509.97313 -105.65625,504.875 L -106.20543,505.71071 L -106.375,505.96875 z M -105.0625,509.59375 C -102.13633,515.89544 -97.611986,521.92952 -99.757678,529.21628 C -101.96309,560.49762 -105.31927,591.68296 -107.84375,622.9375 C -117.267,622.68787 -127.57621,623.97296 -136.46875,622.71875 C -148.18566,603.06051 -153.09752,580.04875 -155.3125,557.46875 C -155.68683,546.03037 -154.68857,533.63182 -148.5625,523.875 C -142.67542,516.47298 -132.37613,520.83913 -124.46875,518.5 C -117.2975,517.24829 -110.44517,513.81607 -105.78125,508.125 L -105.3417,509.02322 L -105.0625,509.59375 z M -35.71875,523.28125 C -49.458408,523.91494 -63.197484,524.56211 -76.9375,525.1875 C -77.919215,552.73901 -78.843844,580.29338 -79.84375,607.84375 C -70.681335,614.44629 -61.578819,621.17658 -52.40625,627.78125 C -44.134929,619.33574 -34.799293,611.18951 -27.125,602.59375 C -29.318734,582.7935 -31.498003,562.99165 -33.65625,543.1875 C -26.985334,541.78184 -24.082889,549.25591 -22.1875,554.1875 C -16.893199,563.88607 -13.324615,574.71721 -7.1875,583.84375 C -6.020991,585.81007 -0.97027903,588.41 -1.09375,584.375 C -2.1274809,576.58875 -8.805862,571.11262 -11.748675,563.94138 C -19.571422,550.37724 -27.398974,536.81585 -35.21875,523.25 L -35.71875,523.28125 z M -35.8125,525.625 C -32.417609,531.53179 -29.012179,537.43253 -25.625,543.34375 C -28.383068,542.09807 -33.690071,539.97299 -35.4375,542.75 C -33.588359,562.70488 -30.455374,583.05789 -29.25,602.75 C -37.033892,610.35143 -44.797092,617.97426 -52.59375,625.5625 C -60.924447,619.09091 -70.598747,613.32965 -78.09375,606.40625 C -77.147745,579.8754 -76.269372,553.34138 -75.28125,526.8125 C -62.241184,526.17839 -49.197793,525.6059 -36.15625,525 L -35.8125,525.625 z M -8.25,573.65625 C -5.5889338,577.42821 -3.3892916,581.34288 -1.96875,585.75 C -6.9466015,582.91468 -9.8879365,577.50101 -10.53125,571.96875 C -9.7708333,572.53125 -9.0104167,573.09375 -8.25,573.65625 z "
           id="path10030" />
        <path
           style="opacity:0.125;fill:#a8ffff;fill-opacity:1;stroke:none;stroke-width:4;stroke-miterlimit:4;stroke-opacity:1;display:block"
           d="M -56.28125,372.5625 C -88.893531,372.50377 -116.85159,405.28123 -110.98358,437.48995 C -107.11331,467.04813 -77.059387,490.34029 -47.34375,485.5 C -20.236414,482.28641 2.2033767,457.65739 2.09375,430.1875 C 2.6592946,404.6293 -15.585108,380.10795 -40.717617,374.37258 C -45.728155,373.00099 -51.064411,372.41908 -56.28125,372.5625 z M -54.8125,378.84375 C -33.554219,378.53085 -13.182038,393.11073 -6.9375,413.4375 C 0.79755648,434.54664 -8.4273184,460.01102 -27.6875,471.625 C -46.243538,484.19078 -72.966234,481.80666 -88.90625,466.0625 C -106.88957,450.24563 -110.97547,421.35688 -96.8125,401.75 C -87.623494,388.08542 -71.660338,378.3921 -54.8125,378.84375 z M -83.375,494.59375 C -82.011317,501.34179 -80.637873,508.08815 -79.3125,514.84375 C -64.260836,513.68326 -48.947029,514.66019 -33.9375,512.375 C -30.741057,506.3674 -30.678362,499.38522 -29.6875,492.78125 C -46.596404,501.28985 -66.998815,500.97774 -83.8125,492.5 C -83.666667,493.19792 -83.520833,493.89583 -83.375,494.59375 z M -10,498.5 C -12.717583,505.21999 -17.224018,511.96484 -19,518.65625 C -8.2940847,537.7363 2.4312161,556.80564 13.15625,575.875 C 23.088201,563.10823 36.381445,552.652 45.5,539.375 C 48.768051,529.34936 40.708514,519.6026 32.90625,514.3125 C 21.763392,509.1363 7.5581178,515.04381 -1.9375,505.75 C -4.8882753,503.23471 -6.9438796,499.87037 -9.15625,496.71875 L -9.5843363,497.62249 L -10,498.5 z M -106.53125,502.15625 C -112.87188,514.04116 -127.51862,516.09147 -139.625,515.34375 C -148.56661,515.54337 -154.64132,523.43837 -156.34375,531.46875 C -163.61195,555.70216 -156.60133,581.40237 -149.375,604.8125 C -146.35469,612.56679 -143.1784,621.44897 -137.6875,627.3125 C -126.51116,627.15877 -115.33357,627.00376 -104.15625,626.9375 C -101.53424,591.47998 -97.204159,555.96311 -95.34375,520.5625 C -98.724751,513.92424 -101.26077,506.81595 -105.5625,500.65625 L -106.10503,501.49629 L -106.53125,502.15625 z M -37.53125,503.1875 C -37.450261,509.10077 -45.185106,506.4317 -49.09375,507.4375 C -57.464696,507.82285 -65.848704,507.80499 -74.21875,508.21875 C -76.727132,502.47054 -74.576536,501.88391 -69.625,503.9375 C -58.957784,506.11581 -47.773115,505.64181 -37.375,502.40625 L -37.53125,503.1875 z M -7.5,508.90625 C 0.0552672,517.44567 12.078252,518.49946 22.8125,518.25 C 31.308542,518.21556 38.518901,526.10096 39.96875,534.0625 C 39.716343,540.30926 32.884061,543.88953 29.537331,548.76314 C 24.479687,554.22871 19.174662,559.49605 14.28125,565.09375 C 5.4375,549.36458 -3.40625,533.63542 -12.25,517.90625 C -10.675138,515.28696 -9.2424701,510.20605 -7.5,508.90625 z M -105.71875,513.40625 C -102.74599,518.62835 -100.57782,523.9903 -102.07856,530.05752 C -104.2506,560.29475 -107.42522,590.44735 -109.9375,620.65625 C -118.25,620.76042 -126.5625,620.86458 -134.875,620.96875 C -145.96929,602.03244 -150.65815,579.98888 -152.93642,558.37689 C -153.42021,547.08013 -152.74287,534.67911 -146.53125,525.0625 C -141.01448,518.99786 -132.14788,523.10107 -125.125,520.96875 C -118.228,519.77541 -111.30039,517.11562 -106.40625,512.03125 L -105.95904,512.92568 L -105.71875,513.40625 z M -34.625,520.90625 C -49.467764,521.62387 -64.314975,522.25417 -79.15625,523 C -80.236278,551.65342 -81.119743,580.3162 -82.21875,608.96875 C -72.188861,616.20329 -62.231177,623.58066 -52.1875,630.8125 C -43.288033,621.53994 -32.838093,612.74404 -24.75,603.28125 C -26.771431,584.11633 -29.373359,564.15911 -30.90625,545.46875 C -25.025758,548.1149 -25.256294,556.01173 -21.547221,560.6519 C -16.952293,568.90548 -14.335176,578.68251 -8.3125,585.9375 C -5.2423391,591.07617 3.230624,588.72333 1.03125,582.46875 C -1.5885185,574.01948 -8.1294945,567.50619 -11.71553,559.41369 C -19.103134,546.5622 -26.563678,533.75196 -33.90625,520.875 L -34.625,520.90625 z M -30.625,539.28125 C -33.866724,538.86335 -39.662478,539.49024 -37.580299,543.99424 C -35.531221,563.1695 -33.374891,582.33305 -31.25,601.5 C -38.427083,608.52083 -45.604167,615.54167 -52.78125,622.5625 C -60.44113,616.99457 -68.097197,611.4214 -75.75,605.84375 C -74.854167,580.22917 -73.958333,554.61458 -73.0625,529 C -61.1875,528.45833 -49.3125,527.91667 -37.4375,527.375 C -35.166667,531.34375 -32.895833,535.3125 -30.625,539.28125 z "
           id="path10035" />
        <path
           style="opacity:0.125;fill:#a8ffff;fill-opacity:1;stroke:none;stroke-width:4;stroke-miterlimit:4;stroke-opacity:1;display:block"
           d="M -56.28125,370.28125 C -89.831391,370.16613 -118.81218,403.5653 -113.40625,436.84375 C -109.90112,467.49725 -79.159839,492.331 -48.28125,487.90625 C -20.166554,485.21554 3.7440494,460.16714 4.3338088,431.75138 C 5.6280455,405.23716 -12.678736,379.2345 -38.577926,372.5718 C -44.314364,370.90431 -50.288762,370.0885 -56.28125,370.28125 z M -54.8125,381.125 C -33.912794,380.78967 -13.824769,395.71861 -8.46875,416.125 C -1.4851138,438.05188 -13.332039,463.21781 -34.1875,472.65625 C -53.187877,482.3985 -77.913993,476.76476 -91.375,460.1875 C -106.24294,443.83254 -107.05774,417.12897 -92.75,400.03125 C -83.71448,388.5276 -69.56854,380.72093 -54.8125,381.125 z M -85.625,495.0625 C -84.119239,502.45506 -82.651408,509.85529 -81.15625,517.25 C -64.977334,515.88757 -48.524113,517.05949 -32.40625,514.46875 C -28.077634,506.76397 -28.288069,497.68456 -26.90625,489.1875 C -42.742823,497.33423 -61.959603,499.703 -78.425547,492.24637 C -84.052743,490.61482 -89.269216,485.081 -85.625,495.0625 z M -12.0625,497.53125 C -15.307718,504.43437 -18.598077,511.32095 -21.84375,518.21875 C -10.368968,538.79931 1.2289053,559.33027 12.78125,579.875 C 23.442236,565.97898 37.492701,554.79524 47.53125,540.5625 C 51.567776,529.39465 42.840769,517.96991 33.8125,512.21875 C 22.78815,506.73279 8.2389082,513.02743 -1,503.5 C -4.4540474,500.24077 -6.6934088,495.93705 -9.5625,492.1875 C -10.395833,493.96875 -11.229167,495.75 -12.0625,497.53125 z M -108.4375,500.875 C -114.51794,512.52297 -128.95894,513.62288 -140.53125,513.125 C -150.5239,513.72465 -157.03308,522.83081 -158.875,531.90625 C -165.72434,556.36107 -158.83132,582.00735 -151.53125,605.5625 C -148.59064,614.07163 -144.61549,622.1749 -139.5625,629.625 C -127.04262,629.44887 -114.52132,629.2517 -102,629.21875 C -99.287639,592.9215 -95.237652,556.72649 -92.8125,520.40625 C -96.875961,512.38618 -100.13645,503.88894 -105.46875,496.4375 C -106.45833,497.91667 -107.44792,499.39583 -108.4375,500.875 z M -71.59375,505.8125 C -72.56202,506.89801 -72.789697,504.44813 -71.59375,505.8125 z M -6.875,512.625 C 1.3589596,520.46722 13.511008,520.38384 24.1875,520.71875 C 30.741534,521.18985 35.620111,527.40882 37.5625,533.25 C 38.068519,538.91776 31.334902,542.08749 28.53125,546.5 C 23.972654,551.43835 19.234451,556.21033 14.71875,561.1875 C 6.59375,546.71875 -1.53125,532.25 -9.65625,517.78125 C -8.7271008,516.307 -7.9693718,513.21061 -6.875,512.625 z M -106.40625,517.3125 C -101.5328,524.783 -105.59106,533.96398 -105.31574,542.27488 C -107.31993,567.67304 -109.90996,593.02079 -112.0625,618.40625 C -119.25,618.48958 -126.4375,618.57292 -133.625,618.65625 C -144.06312,599.94303 -148.713,578.3724 -150.71875,557.1875 C -151.05263,546.87637 -150.32899,535.5323 -144.84375,526.59375 C -140.21431,521.70897 -132.82505,525.11393 -127,523.5625 C -119.898,522.65089 -112.72891,520.32567 -107.125,515.78125 L -106.70009,516.68649 L -106.40625,517.3125 z M -34.75,518.625 C -50.290121,519.39314 -65.838698,520.00346 -81.375,520.84375 C -82.484008,550.59183 -83.387028,580.34898 -84.5625,610.09375 C -73.671678,617.94555 -62.85185,625.93345 -51.96875,633.8125 C -42.100401,624.09722 -32.204104,614.36662 -22.25,604.71875 C -24.287268,587.17218 -26.230464,569.24718 -28.09375,551.90625 C -22.782815,563.41689 -17.614682,575.34906 -11.21875,586.3125 C -7.8438417,592.15596 3.1885118,593.3414 3.5,584.875 C 3.1252772,575.53808 -4.7913974,569.08392 -8.2470049,560.85565 C -16.347953,546.73968 -24.558067,532.68102 -32.59375,518.53125 C -33.3125,518.5625 -34.03125,518.59375 -34.75,518.625 z M -34.53125,537.03125 C -38.101311,537.8363 -42.093732,538.72146 -39.96875,543.28125 C -37.919291,562.41224 -35.775401,581.5329 -33.65625,600.65625 C -40.104167,606.95833 -46.552083,613.26042 -53,619.5625 C -59.818195,614.62243 -66.629763,609.67322 -73.4375,604.71875 C -72.583333,580.20833 -71.729167,555.69792 -70.875,531.1875 C -60.166667,530.69792 -49.458333,530.20833 -38.75,529.71875 C -37.34375,532.15625 -35.9375,534.59375 -34.53125,537.03125 z "
           id="path10040" />
        <path
           style="opacity:0.125;fill:#a8ffff;fill-opacity:1;stroke:none;stroke-width:4;stroke-miterlimit:4;stroke-opacity:1;display:block"
           d="M -56.28125,368 C -90.581465,367.84312 -120.50154,401.50955 -115.84375,435.625 C -113.03747,467.72152 -81.487011,494.20166 -49.25,490.3125 C -19.931657,488.06846 5.4469953,462.48172 6.5625,432.875 C 8.4079493,405.46131 -10.20061,377.97224 -36.96875,370.6875 C -43.191102,368.71848 -49.743431,367.81337 -56.28125,368 z M -54.8125,383.40625 C -33.960575,383.09923 -14.58058,398.45875 -10.15625,418.71875 C -4.1847857,440.30716 -17.44676,463.97767 -37.84375,471.8125 C -57.044095,480.12664 -80.73634,472.42769 -92.40625,455.21875 C -105.06704,438.22106 -103.07174,412.94429 -88.006081,398.08061 C -79.594592,388.96677 -67.267564,383.07495 -54.8125,383.40625 z M -87.84375,495.5 C -85.88737,506.49028 -82.301557,516.85354 -83.913707,527.74878 C -84.935532,555.57094 -85.765846,583.40231 -86.90625,611.21875 C -75.142915,619.7003 -63.470168,628.31195 -51.71875,636.8125 C -41.174406,626.31593 -30.518228,615.91909 -19.84375,605.5625 C -21.443366,592.2608 -22.840654,578.81042 -24.3125,565.4375 C -19.295809,574.00915 -17.275037,585.18917 -9,591.25 C -3.3889569,596.44691 6.7478862,591.82981 5.78125,584.03125 C 4.8435763,573.99874 -3.4509209,566.96531 -7.278932,557.99898 C -14.961598,544.26407 -23.922916,529.96318 -30.84375,516.5625 C -25.478826,507.13693 -25.905688,495.96383 -24.15625,485.5625 C -37.709694,492.131 -52.932406,496.9845 -67.9375,493.25 C -75.59201,491.62541 -82.670641,487.7573 -90,484.96875 C -89.28125,488.47917 -88.5625,491.98958 -87.84375,495.5 z M -14.125,496.5625 C -17.524609,503.82623 -21.016212,511.04837 -24.40625,518.3125 C -12.185297,540.1718 0.12999484,562.00473 12.40625,583.84375 C 23.777071,568.90502 38.608517,556.92398 49.5,541.78125 C 54.425948,529.34896 44.876224,516.31215 34.71875,510.125 C 23.654841,504.27518 8.6896111,511.13747 -0.28125,501 C -3.9068706,496.8819 -6.6328589,492.03685 -9.9375,487.65625 C -11.333333,490.625 -12.729167,493.59375 -14.125,496.5625 z M -110.34375,499.59375 C -116.30381,511.19247 -130.68088,510.98604 -141.96875,510.96875 C -152.28838,512.2998 -159.01918,521.59726 -161.03125,531.1875 C -168.05456,555.7573 -161.25869,581.6166 -154.04532,605.28784 C -150.92287,614.75999 -146.35543,623.70872 -140.8125,631.96875 C -127.16967,631.67511 -113.52123,631.53307 -99.875,631.5 C -97.110856,594.29327 -93.020783,557.1081 -90.4375,519.9375 C -95.114362,510.50429 -99.251926,500.85929 -105.375,492.1875 C -107.03125,494.65625 -108.6875,497.125 -110.34375,499.59375 z M -6.28125,516.03125 C 1.5467823,522.41595 13.162922,522.75106 23.1875,522.90625 C 29.226168,523.02831 33.990994,528.86689 35.40625,534.28125 C 30.339159,542.83076 21.718121,549.61522 15.15625,557.3125 C 7.7291667,544.11458 0.30208333,530.91667 -7.125,517.71875 C -6.6603511,518.21259 -6.7523657,515.50016 -6.28125,516.03125 z M -107.03125,521.3125 C -105.16339,528.10342 -107.76426,535.92197 -107.67674,543.0842 C -109.60468,567.46165 -112.1002,591.78984 -114.15625,616.15625 C -120.17862,615.90413 -126.93855,616.94003 -132.53125,615.9375 C -142.25627,597.53068 -146.76411,576.58674 -148.49099,556.06393 C -148.67179,546.66486 -147.92662,536.36138 -143.15625,528.15625 C -139.19653,524.23938 -132.83926,527.34485 -127.9375,525.96875 C -120.92006,525.19128 -113.92083,523.23467 -108,519.28125 C -107.67708,519.95833 -107.35417,520.63542 -107.03125,521.3125 z M -37.9375,535.65625 C -45.880296,535.65691 -41.51776,543.50759 -41.712872,548.50232 C -39.874543,565.60023 -37.95412,582.68918 -36.0625,599.78125 C -41.78125,605.38542 -47.5,610.98958 -53.21875,616.59375 C -58.889625,611.78657 -66.81294,608.07987 -71.089864,602.59437 C -70.278659,579.52124 -69.467455,556.44812 -68.65625,533.375 C -59.104167,532.9375 -49.552083,532.5 -40,532.0625 C -39.3125,533.26042 -38.625,534.45833 -37.9375,535.65625 z "
           id="path10045" />
        <path
           style="opacity:0.125;fill:#a8ffff;fill-opacity:1;stroke:none;stroke-width:4;stroke-miterlimit:4;stroke-opacity:1;display:block"
           d="M -56.28125,365.71875 C -91.894925,365.51639 -122.97585,400.46198 -118.09375,435.875 C -116.28396,455.16482 -104.58506,472.96731 -88.3125,483.1875 C -96.840469,477.3376 -90.442784,489.55653 -90.502731,493.95793 C -87.920664,506.41786 -84.59057,518.8316 -86.334952,531.65258 C -87.35724,558.54768 -88.057473,585.45857 -89.28125,612.34375 C -76.625556,621.41181 -64.104477,630.67102 -51.5,639.8125 C -40.247678,628.58478 -28.85931,617.49236 -17.4375,606.4375 C -18.649846,597.17976 -19.56346,587.84386 -20.625,578.53125 C -17.349867,586.67321 -11.052461,596.80724 -0.9375,595.59375 C 6.4817118,594.59428 9.8373632,585.86648 7.28125,579.40625 C 10.096364,587.3745 13.506649,589.03799 17.835979,580.96588 C 28.322609,567.38146 42.292404,556.6873 51.75,542.375 C 56.512031,530.16376 48.448714,517.56378 39.0625,510.15625 C 30.073499,502.96371 17.743633,506.38943 7.5625,503.625 C -1.1326883,500.04394 -4.5459404,489.94491 -10.34375,483.09375 C -15.844779,494.88649 -21.463461,506.62406 -26.96875,518.40625 C -21.32894,528.58586 -15.540365,538.7265 -9.84375,548.90625 C -16.017909,538.17472 -22.295565,527.45289 -28.40625,516.71875 C -22.806366,506.5219 -23.678855,494.37657 -21.4375,483.34375 C 1.2744053,469.94132 13.540343,441.48636 7.4375,415.84375 C 2.5810319,391.98233 -17.268245,371.90825 -41.25,367.1875 C -46.162531,366.04659 -51.22716,365.57352 -56.28125,365.71875 z M -54.8125,385.6875 C -35.080456,385.36864 -16.674088,399.91003 -12.40625,419.09375 C -6.6594504,439.55423 -19.185299,462.25432 -38.71875,469.6875 C -58.432087,478.32755 -82.756749,468.85435 -92.90625,450.1875 C -102.89114,433.60536 -99.049557,410.77362 -84.625,397.90625 C -76.722075,390.23014 -65.867565,385.39053 -54.8125,385.6875 z M -112.25,498.3125 C -117.61132,508.88922 -130.74745,508.7739 -140.9375,508.5625 C -152.18695,509.33664 -160.65946,518.92784 -162.90625,529.5 C -170.60304,554.77503 -163.67848,581.66027 -156.20157,606.03784 C -152.8871,616.09398 -147.9823,625.53513 -142.03125,634.28125 C -127.27422,633.95153 -112.51106,633.79173 -97.75,633.78125 C -94.958567,595.64475 -90.76569,557.61048 -88.09375,519.46875 C -93.289491,508.6666 -98.420879,497.8884 -105.28125,487.96875 C -107.60417,491.41667 -109.92708,494.86458 -112.25,498.3125 z M -2.28125,521 C 6.6390686,526.42598 17.70253,523.37297 27.09375,526.21875 C 29.347257,528.90085 35.643853,533.01569 31.375,536.46875 C 26.322555,542.36777 20.972326,547.83955 15.625,553.5 C 9.8054466,542.73724 2.7595554,531.44711 -2.28125,521 z M -108.53125,523.5625 C -110.49907,553.72556 -113.7119,583.78881 -116.25,613.90625 C -121.22082,612.70042 -129.31074,616.69759 -132.125,611.875 C -140.67992,593.55814 -145.28225,573.3003 -146.28125,553.28125 C -146.04295,545.2766 -145.41529,536.18566 -141.125,529.3125 C -136.65504,527.34772 -131.16635,529.36221 -126.375,528.0625 C -120.29529,527.32314 -114.32389,525.56535 -108.96875,522.59375 L -108.55716,523.50512 L -108.53125,523.5625 z M -45.46875,535.71875 C -43.050156,556.73578 -40.810766,577.85571 -38.4375,598.9375 C -43.4375,603.83333 -48.4375,608.72917 -53.4375,613.625 C -58.239103,609.42363 -65.34628,606.35046 -68.746241,601.46936 C -67.976661,579.50041 -67.20708,557.53145 -66.4375,535.5625 C -58.114583,535.17708 -49.791667,534.79167 -41.46875,534.40625 C -42.802083,534.84375 -44.135417,535.28125 -45.46875,535.71875 z "
           id="path10050" />
      </g>
      <path
         style="fill:#ffffff;fill-opacity:0.5;stroke:none;stroke-width:4;stroke-miterlimit:4;stroke-dasharray:none;stroke-opacity:1;display:block"
         d="M 118.055,46.558059 C 98.151926,46.662761 80.882566,65.575863 83.01595,85.497122 C 84.274214,104.36066 101.75575,120.06973 120.75657,118.72837 C 137.09105,118.13888 151.85414,105.56007 154.63782,89.376809 C 157.85633,73.203398 148.77966,55.574956 133.20813,49.483059 C 128.47127,47.427148 123.29921,46.381298 118.09563,46.558059 L 118.07532,46.558059 L 118.055,46.558059 z M 118.11594,49.158059 L 118.13625,49.158059 L 118.15657,49.158059 C 122.96314,48.988955 127.80629,49.967394 132.21282,51.879934 L 132.23313,51.879934 L 132.25344,51.900247 C 146.54378,57.490916 155.04178,74.018505 152.07845,88.909622 L 152.07845,88.929934 L 152.05814,88.929934 C 149.4991,103.80715 135.6632,115.58528 120.61438,116.12837 L 120.59407,116.12837 L 120.57375,116.12837 C 103.12567,117.36012 86.752982,102.62435 85.595638,85.273684 L 85.595638,85.253372 L 85.595638,85.212747 C 83.6396,66.947513 99.852956,49.230495 118.11594,49.158059 z M 101.21594,124.98462 L 101.70344,127.3815 C 102.30605,130.38097 102.90865,133.38046 103.51125,136.37993 L 103.73469,137.49712 L 104.87219,137.41587 C 113.52497,136.87236 122.797,137.28626 131.40032,136.11587 L 132.11125,136.01431 L 132.41594,135.36431 C 133.62042,132.707 133.87015,129.91421 134.20344,127.34087 L 134.48782,125.12681 L 132.41594,125.97993 C 123.32247,129.73014 112.55396,129.70254 103.47063,125.919 L 101.21594,124.98462 z M 148.84876,127.99087 L 147.89407,130.02212 C 146.35032,133.27889 144.80657,136.53566 143.26282,139.79243 L 142.97844,140.40181 L 143.30344,140.99087 C 149.68157,152.33877 156.05969,163.68671 162.43782,175.03462 L 163.35189,176.65962 L 164.55032,175.23775 C 170.41604,168.29312 177.56583,161.96438 183.25814,154.62056 L 183.38001,154.47837 L 183.46126,154.29556 C 184.63692,151.12885 183.82456,148.02936 182.30345,145.47993 C 180.78233,142.93051 178.55314,140.79347 176.61595,139.12212 L 176.51439,139.02056 L 176.39251,138.95962 C 173.0267,137.10076 169.34646,137.09013 165.89095,137.00962 C 162.43543,136.92911 159.21146,136.79707 156.48625,135.24243 L 156.44563,135.20181 L 156.38469,135.1815 C 153.89741,134.04 151.73553,132.11008 150.12845,129.819 L 148.84876,127.99087 z M 104.68938,129.10806 C 113.22924,132.06941 122.7804,132.06837 131.31907,129.10806 C 131.09357,130.70375 130.77308,132.22567 130.2425,133.61743 C 122.52431,134.57239 114.04846,134.32974 105.82688,134.77525 C 105.44738,132.88625 105.06889,130.99706 104.68938,129.10806 z M 86.042513,130.44868 L 84.925325,132.11431 C 80.707157,138.30701 72.347962,139.7399 64.917513,139.34556 L 64.8972,139.34556 C 60.003143,139.15503 55.747852,142.50434 54.517513,147.18618 C 54.507438,147.21256 54.507217,147.24104 54.4972,147.26743 C 54.489563,147.29745 54.463959,147.31856 54.456575,147.34868 C 49.189658,161.32561 52.758275,176.53096 56.244075,190.06587 L 56.264388,190.08618 C 58.205476,196.97295 60.749596,203.85771 64.775325,210.03306 L 65.161263,210.64243 L 65.8722,210.62212 C 72.277405,210.54763 78.682615,210.47316 85.087825,210.39868 L 86.286263,210.39868 L 86.367513,209.20025 C 88.166138,187.08569 90.619186,164.82444 92.014379,142.71743 L 92.055004,142.37212 L 91.872191,142.04712 C 90.284885,138.97479 88.961459,135.22398 87.098763,132.17525 L 86.042513,130.44868 z M 149.3972,132.88618 C 151.02956,134.76216 152.92847,136.41099 155.20657,137.47681 L 155.20657,137.49712 C 155.23951,137.51251 155.27508,137.52258 155.30814,137.53775 C 158.7016,139.43483 162.39649,139.52963 165.83001,139.60962 C 169.24458,139.68918 172.40231,139.77081 175.03157,141.17368 C 176.85129,142.75198 178.81913,144.70532 180.06907,146.80025 C 181.30646,148.87414 181.82744,150.95843 181.06439,153.19868 C 175.95596,159.74702 169.5308,165.68708 163.81907,172.21118 C 157.8405,161.57416 151.8617,150.93725 145.88314,140.30025 C 147.05457,137.82893 148.22576,135.3575 149.3972,132.88618 z M 85.717513,135.20181 C 86.937439,137.56594 88.097654,140.27111 89.414385,142.87993 C 88.045635,164.40959 85.673306,186.15245 83.889388,207.819 C 78.127398,207.88599 72.36544,207.95511 66.60345,208.02212 C 62.995652,202.31074 60.603235,195.92512 58.762825,189.39556 C 55.275081,175.8531 51.94376,161.18408 56.9347,148.12056 L 56.975325,148.03931 L 56.995638,147.95806 C 57.884591,144.33239 61.089572,141.80128 64.795638,141.94556 C 72.017476,142.32883 80.503037,141.0843 85.717513,135.20181 z M 132.21282,142.9815 L 131.42063,143.02212 C 122.65917,143.42835 113.89771,143.83462 105.13625,144.24087 L 103.93782,144.30181 L 103.89719,145.50025 C 103.28105,163.13825 102.6649,180.77629 102.04875,198.41431 L 102.00813,199.10493 L 102.57688,199.51118 C 108.31178,203.68877 114.04667,207.86639 119.78157,212.044 L 120.67532,212.694 L 121.44719,211.92212 C 126.76229,206.7221 132.0774,201.52212 137.3925,196.32212 L 137.85969,195.87525 L 137.77844,195.24556 C 136.38393,182.62451 134.97341,170.00373 133.61438,157.38306 C 134.73883,157.27044 135.642,157.69915 136.49875,158.47993 C 137.59605,159.47993 138.46192,161.12328 138.83469,162.66431 L 138.87532,162.82681 L 138.95657,162.969 C 142.32376,169.41082 145.19995,176.31788 148.72689,182.85493 L 148.82845,183.01743 L 148.97064,183.15962 C 149.55222,183.73379 150.53137,184.76 151.69251,185.35337 C 151.98279,185.50171 152.27902,185.64279 152.70814,185.67837 C 153.13725,185.71395 153.77608,185.56614 154.17064,185.15025 C 154.56519,184.73436 154.68452,184.24333 154.71907,183.80962 C 154.75362,183.37592 154.69191,182.94341 154.5972,182.42837 L 154.5972,182.38775 L 154.5972,182.34712 C 153.59419,178.16646 150.32797,175.38812 149.09251,172.29243 L 149.05189,172.21118 L 149.01126,172.12993 C 143.53989,162.64804 138.07012,153.154 132.59875,143.67212 L 132.21282,142.9815 z M 130.75032,145.66275 C 132.61592,148.89584 134.47066,152.13903 136.33625,155.37212 C 134.98664,154.78726 133.42357,154.58773 131.78625,155.14868 L 130.79094,155.47368 L 130.91282,156.50962 C 132.28849,169.31358 133.7236,182.10485 135.13782,194.90025 C 130.23682,199.69511 125.33257,204.48662 120.43157,209.2815 C 115.18153,205.45708 109.91912,201.64965 104.66907,197.82525 C 105.26346,180.81009 105.86218,163.79508 106.45657,146.77993 C 114.55434,146.40445 122.65254,146.03821 130.75032,145.66275 z M 148.68626,176.92368 C 149.87618,178.73212 151.02261,180.37355 151.6722,182.04243 C 151.38482,181.79088 151.14527,181.63006 150.92063,181.41275 C 150.13828,179.95546 149.42454,178.42306 148.68626,176.92368 z "
         id="path5515" />
    </g>
  </g>
  <g
     inkscape:groupmode="layer"
     id="layer9"
     inkscape:label="propiedad_mas"
     sodipodi:insensitive="true"
     style="display:none">
    <g
       id="g2341"
       style="display:inline"
       transform="matrix(0.806338,0,0,0.806338,-5.091682,2.3862628)">
      <path
         id="path2343"
         d="" />
      <g
         id="g2345"
         style="display:block">
        <g
           id="g6097"
           style="display:block"
           transform="matrix(0.925862,0,0,0.925862,493.5668,41.86428)">
          <path
             id="path3603"
             style="fill:#ffffff;fill-opacity:1;fill-rule:evenodd;stroke:#006900;stroke-width:8.1005621;stroke-miterlimit:4;stroke-opacity:1"
             d="M -191.51536,25.067211 C -191.51536,61.628081 -221.18795,91.300681 -257.74882,91.300681 C -294.3097,91.300681 -323.98229,61.628081 -323.98229,25.067211 C -323.98229,-11.493665 -294.3097,-41.166259 -257.74882,-41.166259 C -221.18795,-41.166259 -191.51536,-11.493665 -191.51536,25.067211 z " />
          <path
             id="polygon1906"
             style="fill:#326400;stroke:none"
             d="M -302.55576,11.965876 L -270.99594,11.965876 L -270.99594,-19.849048 L -244.50173,-19.849048 L -244.50173,11.965876 L -212.9419,11.965876 L -212.9419,38.423643 L -244.50173,38.423643 L -244.50173,69.98347 L -270.99594,69.98347 L -270.99594,38.423643 L -302.55576,38.423643 L -302.55576,11.965876 z " />
        </g>
      </g>
    </g>
  </g>
  <g
     inkscape:groupmode="layer"
     id="layer10"
     inkscape:label="propiedad_menos"
     sodipodi:insensitive="true"
     style="display:none">
    <g
       id="g2734"
       style="opacity:1;display:inline"
       transform="matrix(0.806338,0,0,0.806338,-150.02292,-5.0916723)">
      <path
         id="path2736"
         d="" />
      <g
         id="g2738"
         style="display:block">
        <g
           id="g6091"
           style="display:block"
           transform="matrix(0.925862,0,0,0.925862,565.8858,84.55078)">
          <path
             id="path4848"
             style="fill:#ffffff;fill-opacity:1;fill-rule:evenodd;stroke:#cd0000;stroke-width:8.1005621;stroke-miterlimit:4;stroke-opacity:1"
             d="M -269.62525,184.01896 C -269.62525,220.57983 -299.29784,250.25243 -335.85871,250.25243 C -372.41959,250.25243 -402.09218,220.57983 -402.09218,184.01896 C -402.09218,147.45809 -372.41959,117.78549 -335.85871,117.78549 C -299.29784,117.78549 -269.62525,147.45809 -269.62525,184.01896 z " />
          <path
             id="polygon2119"
             style="fill:#da251d;stroke:none"
             d="M -381.13765,170.52182 L -290.57977,170.52182 L -290.57977,197.51609 L -381.13765,197.51609 L -381.13765,170.52182 z " />
        </g>
      </g>
    </g>
  </g>
  <g
     inkscape:groupmode="layer"
     id="layer11"
     inkscape:label="propiedad_listado"
     style="display:none"
     sodipodi:insensitive="true">
    <g
       id="g2141"
       style="opacity:1;display:inline"
       transform="matrix(0.806338,0,0,0.806338,2.3139843,1.3990522)">
      <path
         id="path2143"
         d="" />
      <g
         id="layer6"
         style="display:block">
        <g
           id="g6094"
           style="display:block"
           transform="matrix(0.925862,0,0,0.925862,143.7747,118.5623)">
          <path
             id="path4847"
             style="fill:#ffffff;fill-opacity:1;fill-rule:evenodd;stroke:#0000cd;stroke-width:8.1005621;stroke-miterlimit:4;stroke-opacity:1"
             d="M -151.23716,-57.772351 C -151.23716,-21.211475 -151.23716,-49.333221 -151.23716,-12.772347 C -151.23716,23.788523 -121.56457,53.461123 -85.00369,53.461123 C -48.44282,53.461123 -18.77023,23.788523 -18.77023,-12.772347 C -18.77023,-49.333221 -18.77023,-21.211475 -18.77023,-57.772351 C -18.77023,-94.333227 -48.44282,-124.00582 -85.00369,-124.00582 C -121.56457,-124.00582 -151.23716,-94.333227 -151.23716,-57.772351 z " />
          <path
             id="polyline1684"
             style="fill:#0000cd;fill-opacity:1;stroke:none"
             d="M -129.21657,-89.000316 L -129.21657,-73.024359 L -40.79082,-73.024359 L -40.79082,-89.000316 L -129.21657,-89.000316 z M -129.21657,-58.51678 L -129.21657,-42.526137 L -40.79082,-42.526137 L -40.79082,-58.51678 L -129.21657,-58.51678 z M -129.21657,-28.018558 L -129.21657,-12.027911 L -40.79082,-12.027911 L -40.79082,-28.018558 L -129.21657,-28.018558 z M -129.21657,2.4796691 L -129.21657,18.455619 L -40.79082,18.455619 L -40.79082,2.4796691 L -129.21657,2.4796691 z " />
        </g>
      </g>
    </g>
  </g>
</svg>
