<?xml version="1.0" encoding="UTF-8" standalone="no"?>
<!-- Created with Inkscape (http://www.inkscape.org/) -->
<svg
   xmlns:dc="http://purl.org/dc/elements/1.1/"
   xmlns:cc="http://creativecommons.org/ns#"
   xmlns:rdf="http://www.w3.org/1999/02/22-rdf-syntax-ns#"
   xmlns:svg="http://www.w3.org/2000/svg"
   xmlns="http://www.w3.org/2000/svg"
   xmlns:xlink="http://www.w3.org/1999/xlink"
   xmlns:sodipodi="http://sodipodi.sourceforge.net/DTD/sodipodi-0.dtd"
   xmlns:inkscape="http://www.inkscape.org/namespaces/inkscape"
   version="1.0"
   width="128"
   height="128"
   id="svg1"
   sodipodi:version="0.32"
   inkscape:version="0.46"
   sodipodi:docname="account_expense.svg"
   inkscape:output_extension="org.inkscape.output.svg.inkscape">
  <metadata
     id="metadata99">
    <rdf:RDF>
      <cc:Work
         rdf:about="">
        <dc:format>image/svg+xml</dc:format>
        <dc:type
           rdf:resource="http://purl.org/dc/dcmitype/StillImage" />
      </cc:Work>
    </rdf:RDF>
  </metadata>
  <sodipodi:namedview
     inkscape:window-height="480"
     inkscape:window-width="640"
     inkscape:pageshadow="2"
     inkscape:pageopacity="0.0"
     guidetolerance="10.0"
     gridtolerance="10.0"
     objecttolerance="10.0"
     borderopacity="1.0"
     bordercolor="#666666"
     pagecolor="#ffffff"
     id="base"
     showgrid="false" />
  <defs
     id="defs3">
    <inkscape:perspective
       sodipodi:type="inkscape:persp3d"
       inkscape:vp_x="0 : 64 : 1"
       inkscape:vp_y="0 : 1000 : 0"
       inkscape:vp_z="128 : 64 : 1"
       inkscape:persp3d-origin="64 : 42.666667 : 1"
       id="perspective101" />
    <linearGradient
       id="linearGradient4128">
      <stop
         id="stop4130"
         style="stop-color:#ff0000;stop-opacity:1"
         offset="0" />
      <stop
         id="stop4132"
         style="stop-color:#ff0000;stop-opacity:0"
         offset="1" />
    </linearGradient>
    <linearGradient
       id="linearGradient4865">
      <stop
         id="stop4867"
         style="stop-color:#000000;stop-opacity:1"
         offset="0" />
      <stop
         id="stop4869"
         style="stop-color:#000000;stop-opacity:0"
         offset="1" />
    </linearGradient>
    <filter
       id="filter3293">
      <feGaussianBlur
         id="feGaussianBlur3295"
         stdDeviation="1.2036548"
         inkscape:collect="always" />
    </filter>
    <linearGradient
       x1="-479.04663"
       y1="-98.059479"
       x2="-479.04663"
       y2="-154.56619"
       id="linearGradient2443"
       xlink:href="#linearGradient4128"
       gradientUnits="userSpaceOnUse"
       gradientTransform="matrix(0,-0.65,0.65,0,143.56639,-185.52603)" />
    <linearGradient
       x1="94.676048"
       y1="-479.04663"
       x2="160.55817"
       y2="-479.04663"
       id="linearGradient2445"
       xlink:href="#linearGradient4865"
       gradientUnits="userSpaceOnUse"
       gradientTransform="matrix(-0.65,0,0,-0.65,143.56646,-185.52603)" />
    <radialGradient
       cx="63.912209"
       cy="115.70919"
       r="63.912209"
       fx="63.912209"
       fy="115.7093"
       id="radialGradient3336"
       xlink:href="#linearGradient3291"
       gradientUnits="userSpaceOnUse"
       gradientTransform="matrix(1,0,0,0.197802,0,92.82166)" />
    <linearGradient
       id="linearGradient3291">
      <stop
         id="stop3293"
         style="stop-color:#000000;stop-opacity:1"
         offset="0" />
      <stop
         id="stop3295"
         style="stop-color:#000000;stop-opacity:0"
         offset="1" />
    </linearGradient>
    <linearGradient
       y2="122.232"
       x2="64.7554"
       y1="116.609"
       x1="64.7554"
       gradientUnits="userSpaceOnUse"
       id="defitem2">
      <stop
         id="stop17"
         stop-opacity="1"
         offset="0"
         stop-color="#ffffff" />
      <stop
         id="stop19"
         stop-opacity="0"
         offset="1"
         stop-color="#ffffff" />
    </linearGradient>
    <linearGradient
       y2="122.232"
       x2="64.7554"
       y1="127.43"
       x1="64.7554"
       gradientUnits="userSpaceOnUse"
       id="defitem1">
      <stop
         id="stop12"
         stop-opacity="1"
         offset="0"
         stop-color="#ffffff" />
      <stop
         id="stop14"
         stop-opacity="0"
         offset="1"
         stop-color="#ffffff" />
    </linearGradient>
    <radialGradient
       r="61.5363"
       fy="122.232"
       fx="64.7554"
       cy="122.232"
       cx="64.7554"
       gradientUnits="userSpaceOnUse"
       id="defitem0">
      <stop
         id="stop7"
         stop-opacity="1"
         offset="0"
         stop-color="#000000" />
      <stop
         id="stop9"
         stop-opacity="0"
         offset="1"
         stop-color="#000000" />
    </radialGradient>
    <inkscape:perspective
       id="perspective2719"
       inkscape:persp3d-origin="64 : 42.666667 : 1"
       inkscape:vp_z="128 : 64 : 1"
       inkscape:vp_y="0 : 1000 : 0"
       inkscape:vp_x="0 : 64 : 1"
       sodipodi:type="inkscape:persp3d" />
    <linearGradient
       y2="122.232"
       x2="64.7554"
       y1="116.609"
       x1="64.7554"
       gradientTransform="translate(-0.755169,0)"
       gradientUnits="userSpaceOnUse"
       id="linearGradient3247"
       xlink:href="#defitem2"
       inkscape:collect="always" />
    <linearGradient
       y2="122.232"
       x2="64.7554"
       y1="127.43"
       x1="64.7554"
       gradientTransform="translate(-0.755169,0)"
       gradientUnits="userSpaceOnUse"
       id="linearGradient3245"
       xlink:href="#defitem1"
       inkscape:collect="always" />
    <radialGradient
       r="61.5363"
       fy="122.232"
       fx="64.7554"
       cy="122.232"
       cx="64.7554"
       gradientTransform="translate(-0.75517,0)"
       gradientUnits="userSpaceOnUse"
       id="radialGradient3243"
       xlink:href="#defitem0"
       inkscape:collect="always" />
    <linearGradient
       y2="122.232"
       x2="64.7554"
       y1="116.609"
       x1="64.7554"
       gradientTransform="translate(-0.755169,0)"
       gradientUnits="userSpaceOnUse"
       id="linearGradient3234"
       xlink:href="#defitem2"
       inkscape:collect="always" />
    <linearGradient
       y2="122.232"
       x2="64.7554"
       y1="127.43"
       x1="64.7554"
       gradientTransform="translate(-0.755169,0)"
       gradientUnits="userSpaceOnUse"
       id="linearGradient3232"
       xlink:href="#defitem1"
       inkscape:collect="always" />
    <radialGradient
       r="61.5363"
       fy="122.232"
       fx="64.7554"
       cy="122.232"
       cx="64.7554"
       gradientTransform="translate(-0.75517,0)"
       gradientUnits="userSpaceOnUse"
       id="radialGradient3230"
       xlink:href="#defitem0"
       inkscape:collect="always" />
    <radialGradient
       gradientTransform="translate(-0.75517,0)"
       r="61.5363"
       fy="122.232"
       fx="64.7554"
       cy="122.232"
       cx="64.7554"
       gradientUnits="userSpaceOnUse"
       id="radialGradient2687"
       xlink:href="#defitem0"
       inkscape:collect="always" />
    <linearGradient
       gradientTransform="translate(-0.755169,0)"
       y2="122.232"
       x2="64.7554"
       y1="127.43"
       x1="64.7554"
       gradientUnits="userSpaceOnUse"
       id="linearGradient2685"
       xlink:href="#defitem1"
       inkscape:collect="always" />
    <linearGradient
       gradientTransform="translate(-0.755169,0)"
       y2="122.232"
       x2="64.7554"
       y1="116.609"
       x1="64.7554"
       gradientUnits="userSpaceOnUse"
       id="linearGradient2683"
       xlink:href="#defitem2"
       inkscape:collect="always" />
    <linearGradient
       y2="122.232"
       x2="64.7554"
       y1="116.609"
       x1="64.7554"
       gradientUnits="userSpaceOnUse"
       id="linearGradient2677">
      <stop
         id="stop2679"
         stop-opacity="1"
         offset="0"
         stop-color="#ffffff" />
      <stop
         id="stop2681"
         stop-opacity="0"
         offset="1"
         stop-color="#ffffff" />
    </linearGradient>
    <linearGradient
       y2="122.232"
       x2="64.7554"
       y1="127.43"
       x1="64.7554"
       gradientUnits="userSpaceOnUse"
       id="linearGradient2671">
      <stop
         id="stop2673"
         stop-opacity="1"
         offset="0"
         stop-color="#ffffff" />
      <stop
         id="stop2675"
         stop-opacity="0"
         offset="1"
         stop-color="#ffffff" />
    </linearGradient>
    <radialGradient
       r="61.5363"
       fy="122.232"
       fx="64.7554"
       cy="122.232"
       cx="64.7554"
       gradientUnits="userSpaceOnUse"
       id="radialGradient2665">
      <stop
         id="stop2667"
         stop-opacity="1"
         offset="0"
         stop-color="#000000" />
      <stop
         id="stop2669"
         stop-opacity="0"
         offset="1"
         stop-color="#000000" />
    </radialGradient>
    <inkscape:perspective
       id="perspective2662"
       inkscape:persp3d-origin="64 : 42.666667 : 1"
       inkscape:vp_z="128 : 64 : 1"
       inkscape:vp_y="0 : 1000 : 0"
       inkscape:vp_x="0 : 64 : 1"
       sodipodi:type="inkscape:persp3d" />
  </defs>
  <g
     id="g2695">
    <g
       id="g2697">
      <path
         id="path2699"
         d=""
         style="fill:#000000" />
    </g>
    <path
       id="path2701"
       d=""
       style="fill:#000000" />
    <g
       id="g2703" />
    <g
       id="g2705" />
    <g
       id="g2707" />
    <g
       id="g11264">
      <path
         id="path11266"
         d=""
         style="fill:#000000" />
    </g>
    <path
       id="path11268"
       d=""
       style="fill:#000000" />
    <g
       id="g11270" />
    <g
       id="g11272" />
    <g
       id="g11274" />
    <path
       id="path2167"
       d=""
       style="fill:#000000" />
    <g
       id="g3036">
      <path
         id="path4922"
         d=""
         style="fill:#000000" />
    </g>
    <path
       id="path4924"
       d=""
       style="fill:#000000" />
    <g
       id="g4926" />
    <g
       id="g4928" />
    <g
       id="g4930" />
    <path
       id="path10095"
       d=""
       style="fill:#000000" />
    <g
       id="g2878" />
    <g
       id="g4938" />
    <g
       id="g4640" />
    <g
       id="g4646" />
    <g
       id="g4730" />
    <g
       id="g4748" />
    <g
       id="g12948">
      <path
         id="path12950"
         d=""
         style="fill:#000000" />
    </g>
    <path
       id="path12952"
       d=""
       style="fill:#000000" />
    <g
       id="g12954" />
    <g
       id="g12956" />
    <g
       id="g12958" />
    <path
       id="path12983"
       d=""
       style="fill:#000000" />
    <g
       id="g12985">
      <path
         id="path12987"
         d=""
         style="fill:#000000" />
    </g>
    <path
       id="path12989"
       d=""
       style="fill:#000000" />
    <g
       id="g12991" />
    <g
       id="g12993" />
    <g
       id="g12995" />
    <path
       id="path12997"
       d=""
       style="fill:#000000" />
    <g
       id="g13007" />
    <g
       id="g13009" />
    <g
       id="g13021" />
    <g
       id="g13023" />
    <g
       id="g13025" />
    <g
       id="g13027" />
    <g
       transform="translate(0,58.59)"
       id="g3236">
      <g
         id="g3225"
         transform="translate(5e-7,-58.02)">
        <path
           id="path1563"
           d="M 127.99983,122.232 C 127.99983,125.097 99.34683,127.42 64.00023,127.42 C 28.65393,127.42 0.00017,125.097 0.00017,122.232 C 0.00017,119.367 28.65393,117.044 64.00023,117.044 C 99.34683,117.044 127.99983,119.367 127.99983,122.232 L 127.99983,122.232 z"
           style="fill:url(#radialGradient3243);stroke-width:0;stroke-linecap:round;stroke-linejoin:round" />
        <path
           id="path3251"
           d="M 127.99983,122.232 L 0.000169,122.232 C 0.000169,125.103 28.653931,127.43 64.000231,127.43 C 99.346831,127.43 127.99983,125.103 127.99983,122.232 L 127.99983,122.232 z"
           style="fill:url(#linearGradient3245);stroke-width:0;stroke-linecap:round;stroke-linejoin:round" />
        <path
           id="path2455"
           d="M 127.99983,122.232 L 0.000169,122.232 C 0.000169,119.127 28.653931,116.61 64.000231,116.61 C 99.346831,116.61 127.99983,119.127 127.99983,122.232 L 127.99983,122.232 z"
           style="fill:url(#linearGradient3247);stroke-width:0;stroke-linecap:round;stroke-linejoin:round" />
      </g>
      <path
         style="opacity:0.65;fill:#ffffff;fill-opacity:1;stroke-width:0;stroke-linecap:round;stroke-linejoin:round"
         d="M 64.000001,58.59375 C 29.758272,58.59375 1.7766162,60.93571 0.06249925,63.90625 C 0.00012425,64.00011 -7.5e-07,64.12362 -7.5e-07,64.21875 C -7.5e-07,64.39781 0.09400325,64.54435 0.31249925,64.71875 C 0.42501225,64.81163 0.54684125,64.90862 0.71874925,65 C 1.8517782,65.60106 4.2703852,66.17293 7.7187492,66.6875 C 9.6892442,66.98211 11.985185,67.24328 14.593751,67.5 C 18.506599,67.88435 23.111513,68.22029 28.21875,68.5 C 33.325987,68.78022 38.956652,69.00438 44.968751,69.15625 C 50.980848,69.30784 57.372569,69.40625 64.000001,69.40625 C 70.627488,69.40625 77.019159,69.30784 83.031251,69.15625 C 89.043342,69.00438 94.674059,68.78022 99.781253,68.5 C 104.88844,68.22029 109.46221,67.88435 113.375,67.5 C 115.98353,67.24328 118.31079,66.98211 120.28125,66.6875 C 123.72955,66.17293 126.117,65.60106 127.25,65 C 127.4219,64.90862 127.54374,64.81163 127.65625,64.71875 C 127.7655,64.63155 127.85096,64.55717 127.90625,64.46875 C 127.96154,64.38015 128,64.30847 128,64.21875 C 128,64.12362 127.96862,64.00011 127.90625,63.90625 C 126.19218,60.93571 98.242019,58.59375 64.000001,58.59375 z"
         id="path2440" />
    </g>
  </g>
  <g
     id="layer1"
     style="opacity:1;display:inline">
    <path
       d=""
       id="path3945"
       style="opacity:1" />
  </g>
  <path
     d=""
     id="path3081" />
  <g
     id="layer2"
     style="display:inline" />
  <g
     id="layer3"
     style="display:inline" />
  <g
     id="layer4"
     style="opacity:1;display:inline" />
  <g
     id="g2431"
     transform="matrix(0.5,0,0,0.5,7.9709663,2.857643)">
    <path
       id="path4126"
       d="" />
    <path
       id="path1735"
       d="" />
    <g
       id="g2267"
       transform="translate(-21,-25)">
      <rect
         style="fill:#ffffff;fill-opacity:1;fill-rule:evenodd;stroke-width:4;stroke-linecap:round;stroke-miterlimit:4;stroke-dasharray:none;stroke-opacity:1"
         id="rect4130"
         y="99.567863"
         x="27.332354"
         height="52.572979"
         width="115.74937" />
      <path
         style="fill:url(#linearGradient2443);fill-opacity:1;stroke:url(#linearGradient2445);stroke-width:3.14996028;stroke-linecap:round;stroke-miterlimit:4;stroke-opacity:1"
         id="rect1425"
         d="M 40.778632,105.26283 L 80.452051,105.26283 L 80.452051,146.44574 L 40.778632,146.44574" />
      <rect
         style="fill:#ff0000;fill-opacity:1;stroke:#000000;stroke-width:2.82336807;stroke-linecap:round;stroke-miterlimit:4;stroke-dasharray:none;stroke-opacity:1"
         id="rect4133"
         transform="matrix(0,-1,1,0,0,0)"
         y="104.343"
         x="-145.69101"
         height="33.085819"
         width="39.67342" />
      <path
         style="fill:#000000;fill-opacity:0.41975307;stroke:none;stroke-width:4;stroke-miterlimit:4;stroke-dasharray:none;stroke-opacity:1;filter:url(#filter3293)"
         id="path1431"
         transform="matrix(0.6078735,0,0,0.594648,-137.61996,60.19984)"
         d="M 392.02386,131.62985 C 392.02386,139.01563 386.0365,145.00299 378.65072,145.00299 C 371.26495,145.00299 365.27759,139.01563 365.27759,131.62985 C 365.27759,124.24407 371.26495,118.25671 378.65072,118.25671 C 386.0365,118.25671 392.02386,124.24407 392.02386,131.62985 z" />
    </g>
    <g
       style="fill:#0000a1;fill-opacity:1;stroke:#ffffff;stroke-width:2.96974778;stroke-miterlimit:4;stroke-dasharray:none;stroke-opacity:1"
       id="g1923"
       transform="matrix(0.7543685,0,0,0.7543685,97.574339,17.41996)">
      <path
         style="fill:#0000a1;fill-opacity:1;stroke:#ffffff;stroke-width:2.96974778;stroke-miterlimit:4;stroke-dasharray:none;stroke-opacity:1"
         id="path1925"
         d="" />
      <path
         style="fill:#0000a1;fill-opacity:1;stroke:#ffffff;stroke-width:3.6648252;stroke-miterlimit:4;stroke-dasharray:none;stroke-opacity:1"
         id="path1535"
         d="M 142.70956,45.059422 C 137.52541,44.984903 128.60583,45.952909 126.70544,47.064757 C 124.44113,48.38951 119.60898,53.143217 117.60429,56.011639 L 115.86891,58.518309 L 115.90747,62.644673 C 115.94902,65.317677 116.18302,67.064796 116.56307,67.658003 C 117.48402,69.095494 118.22627,72.08402 117.91281,73.056984 C 117.70623,73.698214 117.91295,74.16096 118.60696,74.67668 L 119.57107,75.370839 L 118.68409,76.566323 C 117.90135,77.634958 117.81605,78.036081 118.18276,79.882838 C 118.41169,81.035765 118.5842,83.398173 118.52983,85.127563 C 118.46874,87.07099 118.6352,88.766014 118.9926,89.56244 C 119.82347,91.413949 119.29691,92.888799 117.25721,94.344396 C 115.17111,95.83315 114.34439,95.88941 110.46993,94.730042 C 108.07835,94.0144 107.27969,93.931375 106.18931,94.305829 C 104.29773,94.955448 99.455405,94.913397 98.630737,94.228706 C 98.261224,93.921895 97.054641,93.349972 95.969814,92.956089 C 94.113764,92.282182 93.923744,92.286781 92.499042,92.956089 C 91.063673,93.630396 90.810542,93.62907 88.064153,92.878955 C 86.328005,92.40477 83.545491,92.037721 81.122613,91.991985 C 78.89906,91.950015 73.449322,91.717123 69.01347,91.452082 C 61.617089,91.010163 60.843336,91.012897 59.333869,91.683472 C 57.890163,92.324832 57.411168,92.341082 55.477455,91.876295 C 51.964082,91.031822 49.399277,90.895224 48.343087,91.452082 L 46.323401,91.425623 C 46.323401,91.425623 47.500001,86.77786 46.574216,86.109455 L 42.003624,82.80953 C 42.096376,79.891368 38.088804,79.036664 33.927124,76.345105 C 31.878275,75.020017 27.964805,73.111214 26.053011,72.324269 C 24.438487,71.65969 24.40766,71.68508 23.199264,72.825605 C 22.52663,73.460465 22.003776,74.206238 22.003775,74.483857 C 22.003775,74.7615 23.760399,77.109393 25.937318,79.728582 C 31.242511,86.111579 31.61027,86.683865 33.264506,90.835057 C 35.737054,97.039709 38.136843,99.187622 43.329749,99.859066 C 48.144516,100.48163 48.282164,100.56326 49.692832,105.18092 C 50.410866,107.53138 51.512195,108.23692 54.397659,108.15036 C 56.398675,108.09033 57.404921,108.42448 62.611822,110.81128 C 70.472232,114.41444 77.775421,116.48644 84.63195,117.05868 C 87.883556,117.33006 90.092834,117.70773 90.493698,118.06135 C 91.148293,118.63879 98.822364,121.33197 101.56161,121.95633 C 102.38082,122.14304 104.01634,122.75043 105.18665,123.30608 L 107.30767,124.3473 L 107.42336,127.62525 C 107.51558,130.05712 107.31891,131.64828 106.69064,133.56414 C 106.22115,134.99579 105.78468,137.2532 105.68797,138.61604 C 105.59128,139.97886 105.17115,141.85863 104.76243,142.78097 C 104.35373,143.70332 103.8276,145.21372 103.6055,146.13605 C 102.3023,151.54841 101.92383,164.32357 102.79567,172.55249 C 103.08881,175.31951 103.4416,179.08488 103.6055,180.9209 L 103.91403,184.23742 L 106.45925,186.04994 C 107.86361,187.03066 109.40957,187.81595 109.89147,187.82389 C 110.37336,187.8318 111.09624,188.10346 111.51116,188.40235 C 112.35962,189.01356 112.19995,190.69851 110.46993,199.81734 C 109.98871,202.35377 109.53018,205.12257 109.4287,205.9876 C 109.3272,206.85264 108.89287,208.24696 108.46459,209.11131 C 107.83008,210.39189 107.70892,211.60785 107.77044,215.55151 C 107.81196,218.21336 107.96522,220.7477 108.11752,221.22044 C 108.53164,222.50583 109.35222,231.63464 109.39013,235.2578 C 109.42141,238.24665 109.36326,238.54926 107.88612,240.69533 C 107.02383,241.94814 106.08585,243.74005 105.84223,244.66744 C 104.81061,248.59425 101.04691,251.56852 95.198521,253.03587 C 93.677148,253.41758 91.788585,254.15316 91.033601,254.65555 C 88.141065,256.58037 86.507335,261.85391 88.295544,263.44818 C 91.451197,266.26164 96.922255,266.10013 110.31567,262.83116 C 111.55866,262.52777 113.26076,262.57588 116.5245,263.02398 C 120.97436,263.63493 124.53782,263.41722 125.58708,262.44551 C 125.80324,262.24533 126.2258,259.83916 126.51261,257.12367 C 127.06972,251.84917 128.73446,246.08804 130.09907,244.70601 C 130.82022,243.97566 130.97197,243.9701 131.87303,244.55175 C 132.41568,244.90203 133.30464,246.08548 133.8398,247.21267 C 134.37497,248.33986 135.1112,249.83745 135.49806,250.52919 C 135.88493,251.22096 136.90063,253.16863 137.77334,254.84838 C 138.64606,256.52812 140.68423,259.43285 142.28535,261.32715 C 147.15395,267.08729 147.5246,267.70122 147.45295,269.50276 C 147.4035,270.74585 147.76774,271.65806 148.95695,273.39773 C 149.81275,274.64967 150.49952,275.91667 150.49952,276.21291 C 150.49952,276.50917 151.01025,277.50655 151.61788,278.41108 C 152.60142,279.87527 152.66045,280.18737 152.2349,281.45764 C 151.97202,282.24236 151.89704,283.20634 152.04208,283.57867 C 152.20875,284.00658 151.86765,284.62491 151.15511,285.27549 C 150.53509,285.84157 149.53953,287.32545 148.91839,288.55345 C 148.29723,289.78142 146.31397,292.29886 144.52206,294.14524 C 141.27608,297.49 140.03337,299.26259 139.85581,300.85541 C 139.63977,302.79342 139.95646,303.66888 141.32125,305.13603 C 142.51733,306.42181 143.13047,306.73972 145.0234,306.9871 C 149.04699,307.51297 153.88911,307.03426 156.90116,305.83018 C 160.11223,304.54654 165.02509,301.79372 165.84804,300.81684 C 166.16395,300.44186 167.55171,299.58837 168.97174,298.9272 C 173.11416,296.99841 174.82547,295.58391 176.83883,292.33273 L 178.72847,289.32473 L 178.03431,284.38852 C 177.65947,281.67645 176.95779,278.52278 176.49175,277.36984 C 174.25614,271.83915 173.42163,269.0467 172.78959,264.99075 C 171.36947,255.87727 171.0749,254.27648 170.63,253.46007 C 170.3787,252.99891 170.02994,251.75964 169.85872,250.72201 C 169.36414,247.72499 168.26696,245.23244 165.73235,241.46661 C 163.67706,238.41294 163.28472,237.52294 162.80147,234.6022 C 162.28541,231.48301 160.03039,226.25491 158.3666,224.30558 C 156.90301,222.59079 156.26192,220.64223 156.24558,218.01961 C 156.23623,216.52082 155.95201,214.14588 155.62854,212.73633 C 155.07628,210.32976 155.10252,210.03663 155.97562,207.91581 C 157.36565,204.53944 157.74686,201.41322 157.74957,193.14574 C 157.75185,186.265 157.65689,185.37057 156.63121,182.03927 C 155.47559,178.28586 152.9261,173.46654 150.92372,171.27987 C 149.12067,169.31091 148.83039,168.50039 149.26547,166.65217 C 149.99089,163.5705 149.77368,162.0041 148.41705,160.48191 L 147.14443,159.05503 L 148.1471,158.05236 C 149.55125,156.64825 152.1083,148.95749 152.62054,144.51636 C 152.8508,142.51992 153.12204,140.72841 153.23757,140.54425 C 153.35311,140.36006 153.77329,136.73247 154.16311,132.48434 C 155.09447,122.33509 154.82097,115.80879 153.35326,111.77539 C 152.7659,110.16129 152.17716,107.52192 152.04208,105.95221 C 151.90702,104.3825 151.50321,101.87931 151.11654,100.3604 L 150.42238,97.583789 L 155.12722,88.097011 C 159.42194,79.508796 159.95346,78.24736 160.56475,74.638113 C 161.61507,68.436758 160.90701,62.913538 158.32803,57.168563 C 157.03988,54.299051 151.38159,48.07675 149.03408,46.949064 C 148.09784,46.499319 146.83793,45.850275 146.25746,45.522191 C 145.75891,45.240412 144.4376,45.084261 142.70956,45.059422 z" />
    </g>
  </g>
</svg>
