<?xml version="1.0" standalone="no"?>
<!DOCTYPE svg PUBLIC "-//W3C//DTD SVG 20010904//EN" "http://www.w3.org/TR/2001/REC-SVG-20010904/DTD/svg10.dtd">
<!-- Created using Karbon14, part of koffice: http://www.koffice.org/karbon -->
<svg xmlns="http://www.w3.org/2000/svg" xmlns:xlink="http://www.w3.org/1999/xlink" width="128px" height="128px">
  <defs>
    <radialGradient id="defitem0" gradientUnits="userSpaceOnUse" cx="64.0002" cy="122.802" fx="64.0002" fy="122.802" r="61.5368" >
      <stop stop-color="#000000" offset="0" stop-opacity="1" />
      <stop stop-color="#000000" offset="1" stop-opacity="0" />
    </radialGradient>
    <linearGradient id="defitem1" gradientUnits="userSpaceOnUse" x1="64.0002" y1="128" x2="64.0002" y2="122.802" >
      <stop stop-color="#ffffff" offset="0" stop-opacity="1" />
      <stop stop-color="#ffffff" offset="1" stop-opacity="0" />
    </linearGradient>
    <linearGradient id="defitem2" gradientUnits="userSpaceOnUse" x1="64.0002" y1="117.179" x2="64.0002" y2="122.802" >
      <stop stop-color="#ffffff" offset="0" stop-opacity="1" />
      <stop stop-color="#ffffff" offset="1" stop-opacity="0" />
    </linearGradient>
  </defs>
  <g id="Layer">
    <g id="g2425">
      <path id="path3863" fill="#000000" stroke-width="0.5" d=""  />
      <g id="g3393">
        <path fill="#ffffff" stroke-width="2" stroke-linecap="round" d="M16.0991 77.1432L16.0991 50.8568L111.901 50.8568L111.901 77.1432L16.0991 77.1432Z"  fill-rule="evenodd" />
        <path fill="#7c4693" fill-opacity="0.436214" stroke="#000000" stroke-width="1.41168" stroke-linecap="round" d="M35.4685 73.9184L18.9256 73.9184L18.9256 54.0817L35.4685 54.0817L35.4685 73.9184Z"  />
        <path fill="#7c4693" fill-opacity="0.436214" stroke="#000000" stroke-width="1.99716" stroke-linecap="round" d="M80.8597 73.9184L47.7495 73.9184L47.7495 54.0817L80.8597 54.0817L80.8597 73.9184Z"  />
        <path fill="#7c4693" fill-opacity="0.436214" stroke="#000000" stroke-width="1.41168" stroke-linecap="round" d="M109.074 73.9184L92.5315 73.9184L92.5315 54.0817L109.074 54.0817L109.074 73.9184Z"  />
        <path id="path1445" fill="#000000" fill-opacity="0.419753" stroke-width="1.20259" d="M45.1974 70.3095C45.1974 72.5055 43.3776 74.2857 41.1328 74.2857C38.888 74.2857 37.0682 72.5055 37.0682 70.3095C37.0682 68.1135 38.888 66.3334 41.1328 66.3334C43.3776 66.3334 45.1974 68.1135 45.1974 70.3095Z"  />
        <path id="path1447" fill="#000000" fill-opacity="0.419753" stroke-width="1.20259" d="M90.7004 70.3095C90.7004 72.5055 88.8806 74.2857 86.6358 74.2857C84.391 74.2857 82.5712 72.5055 82.5712 70.3095C82.5712 68.1135 84.391 66.3334 86.6358 66.3334C88.8806 66.3334 90.7004 68.1135 90.7004 70.3095Z"  />
      </g>
    </g>
    <g id="sombra">
      <g id="g3225">
        <path id="path1563" fill="url(#defitem0)" stroke-width="0" stroke-linecap="round" stroke-linejoin="round" d="M128 122.802C128 125.667 99.3468 127.99 64.0002 127.99C28.6539 127.99 0.0001705 125.667 0.0001705 122.802C0.0001705 119.937 28.6539 117.614 64.0002 117.614C99.3468 117.614 128 119.937 128 122.802L128 122.802Z"  />
        <path id="path3251" fill="url(#defitem1)" stroke-width="0" stroke-linecap="round" stroke-linejoin="round" d="M128 122.802L0.0001695 122.802C0.0001695 125.673 28.6539 128 64.0002 128C99.3468 128 128 125.673 128 122.802L128 122.802Z"  />
        <path id="path2455" fill="url(#defitem2)" stroke-width="0" stroke-linecap="round" stroke-linejoin="round" d="M128 122.802L0.0001695 122.802C0.0001695 119.697 28.6539 117.18 64.0002 117.18C99.3468 117.18 128 119.697 128 122.802L128 122.802Z"  />
      </g>
      <path id="path2440" fill="#ffffff" fill-opacity="0.5" stroke-width="0" stroke-linecap="round" stroke-linejoin="round" d="M64 117.184C29.7583 117.184 1.77662 119.526 0.0624993 122.496C0.00012425 122.59 -7.5e-07 122.714 -7.5e-07 122.809C-7.5e-07 122.988 0.0940033 123.134 0.312499 123.309C0.425012 123.402 0.546841 123.499 0.718749 123.59C1.85178 124.191 4.27039 124.763 7.71875 125.278C9.68924 125.572 11.9852 125.833 14.5938 126.09C18.5066 126.474 23.1115 126.81 28.2188 127.09C33.326 127.37 38.9567 127.594 44.9688 127.746C50.9808 127.898 57.3726 127.996 64 127.996C70.6275 127.996 77.0192 127.898 83.0313 127.746C89.0433 127.594 94.6741 127.37 99.7813 127.09C104.888 126.81 109.462 126.474 113.375 126.09C115.984 125.833 118.311 125.572 120.281 125.278C123.73 124.763 126.117 124.191 127.25 123.59C127.422 123.499 127.544 123.402 127.656 123.309C127.766 123.222 127.851 123.147 127.906 123.059C127.962 122.97 128 122.898 128 122.809C128 122.714 127.969 122.59 127.906 122.496C126.192 119.526 98.242 117.184 64 117.184Z"  />
    </g>
  </g>
</svg>
