<?xml version="1.0" standalone="no"?>
<!DOCTYPE svg PUBLIC "-//W3C//DTD SVG 20010904//EN" "http://www.w3.org/TR/2001/REC-SVG-20010904/DTD/svg10.dtd">
<!-- Created using Karbon14, part of koffice: http://www.koffice.org/karbon -->
<svg xmlns="http://www.w3.org/2000/svg" xmlns:xlink="http://www.w3.org/1999/xlink" width="128px" height="128px">
  <defs>
    <linearGradient id="defitem0" gradientUnits="userSpaceOnUse" x1="81.5422" y1="43.2541" x2="112.954" y2="33.6669" >
      <stop stop-color="#ffffff" offset="0" stop-opacity="1" />
      <stop stop-color="#ffffff" offset="1" stop-opacity="0" />
    </linearGradient>
    <linearGradient id="defitem1" gradientUnits="userSpaceOnUse" x1="47.8156" y1="27.079" x2="112.954" y2="21.817" >
      <stop stop-color="#ffffff" offset="0" stop-opacity="1" />
      <stop stop-color="#ffffff" offset="1" stop-opacity="0" />
    </linearGradient>
    <linearGradient id="defitem2" gradientUnits="userSpaceOnUse" x1="82.0206" y1="85.4374" x2="112.954" y2="75.8502" >
      <stop stop-color="#ffffff" offset="0" stop-opacity="1" />
      <stop stop-color="#ffffff" offset="1" stop-opacity="0" />
    </linearGradient>
    <radialGradient id="defitem3" gradientUnits="userSpaceOnUse" cx="64.0002" cy="122.802" fx="64.0002" fy="122.802" r="61.5368" >
      <stop stop-color="#000000" offset="0" stop-opacity="1" />
      <stop stop-color="#000000" offset="1" stop-opacity="0" />
    </radialGradient>
    <linearGradient id="defitem4" gradientUnits="userSpaceOnUse" x1="64.0002" y1="128" x2="64.0002" y2="122.802" >
      <stop stop-color="#ffffff" offset="0" stop-opacity="1" />
      <stop stop-color="#ffffff" offset="1" stop-opacity="0" />
    </linearGradient>
    <linearGradient id="defitem5" gradientUnits="userSpaceOnUse" x1="64.0002" y1="117.179" x2="64.0002" y2="122.802" >
      <stop stop-color="#ffffff" offset="0" stop-opacity="1" />
      <stop stop-color="#ffffff" offset="1" stop-opacity="0" />
    </linearGradient>
  </defs>
  <g id="Layer">
    <g id="Layer">
      <g id="g3386">
        <path fill="#ffffff" stroke-width="2.37356" stroke-linecap="round" d="M15.0457 74.2788L15.0457 55.1043L112.954 55.1043L112.954 74.2788L15.0457 74.2788Z"  fill-rule="evenodd" />
        <path fill="#7c4693" fill-opacity="0.436214" stroke="#000000" stroke-width="1.21887" stroke-linecap="round" d="M34.8411 71.9264L17.9343 71.9264L17.9343 57.4567L34.8411 57.4567L34.8411 71.9264Z"  />
        <path fill="#7c4693" fill-opacity="0.436214" stroke="#000000" stroke-width="1.72437" stroke-linecap="round" d="M81.2305 71.9264L47.3921 71.9264L47.3921 57.4567L81.2305 57.4567L81.2305 71.9264Z"  />
        <path fill="#7c4693" fill-opacity="0.436214" stroke="#000000" stroke-width="1.21887" stroke-linecap="round" d="M110.066 71.9264L93.159 71.9264L93.159 57.4567L110.066 57.4567L110.066 71.9264Z"  />
        <path id="path7656" fill="#000000" fill-opacity="0.419753" stroke-width="1.07153" d="M44.7838 69.294C44.7838 70.8958 42.924 72.1943 40.6299 72.1943C38.3357 72.1943 36.4759 70.8958 36.4759 69.294C36.4759 67.6921 38.3357 66.3936 40.6299 66.3936C42.924 66.3936 44.7838 67.6921 44.7838 69.294Z"  />
        <path id="path7658" fill="#000000" fill-opacity="0.419753" stroke-width="1.07153" d="M91.2876 69.294C91.2876 70.8958 89.4278 72.1943 87.1336 72.1943C84.8394 72.1943 82.9796 70.8958 82.9796 69.294C82.9796 67.6921 84.8394 66.3936 87.1336 66.3936C89.4278 66.3936 91.2876 67.6921 91.2876 69.294Z"  />
        <path fill="url(#defitem0)" stroke-width="2.37356" stroke-linecap="round" d="M15.0457 52.8413L15.0457 33.6669L112.954 33.6669L112.954 52.8413L15.0457 52.8413Z"  fill-rule="evenodd" />
        <path fill="#7c4693" fill-opacity="0.436214" stroke="#000000" stroke-width="1.21887" stroke-linecap="round" d="M34.8411 50.489L17.9343 50.489L17.9343 36.0192L34.8411 36.0192L34.8411 50.489Z"  />
        <path fill="#7c4693" fill-opacity="0.436214" stroke="#000000" stroke-width="1.72437" stroke-linecap="round" d="M81.2305 50.489L47.3921 50.489L47.3921 36.0192L81.2305 36.0192L81.2305 50.489Z"  />
        <path id="path1629" fill="#000000" fill-opacity="0.419753" stroke-width="1.07153" d="M44.7838 47.8565C44.7838 49.4584 42.924 50.7569 40.6299 50.7569C38.3357 50.7569 36.4759 49.4584 36.4759 47.8565C36.4759 46.2547 38.3357 44.9561 40.6299 44.9561C42.924 44.9561 44.7838 46.2547 44.7838 47.8565Z"  />
        <path fill="url(#defitem1)" stroke-width="2.37356" stroke-linecap="round" d="M15.0457 31.4039L15.0457 12.229L112.954 12.229L112.954 31.4039L15.0457 31.4039Z"  fill-rule="evenodd" />
        <path fill="#7c4693" fill-opacity="0.436214" stroke="#000000" stroke-width="1.21887" stroke-linecap="round" d="M34.8411 29.0516L17.9343 29.0516L17.9343 14.582L34.8411 14.582L34.8411 29.0516Z"  />
        <path fill="url(#defitem2)" stroke-width="2.37356" stroke-linecap="round" d="M15.0457 95.0246L15.0457 75.8502L112.954 75.8502L112.954 95.0246L15.0457 95.0246Z"  fill-rule="evenodd" />
        <path fill="#7c4693" fill-opacity="0.436214" stroke="#000000" stroke-width="1.21887" stroke-linecap="round" d="M34.8411 92.6723L17.9343 92.6723L17.9343 78.2026L34.8411 78.2026L34.8411 92.6723Z"  />
        <path fill="#7c4693" fill-opacity="0.436214" stroke="#000000" stroke-width="1.72437" stroke-linecap="round" d="M81.2305 92.6723L47.3921 92.6723L47.3921 78.2026L81.2305 78.2026L81.2305 92.6723Z"  />
        <path id="path1661" fill="#000000" fill-opacity="0.419753" stroke-width="1.07153" d="M44.7838 90.0399C44.7838 91.6417 42.924 92.9403 40.6299 92.9403C38.3357 92.9403 36.4759 91.6417 36.4759 90.0399C36.4759 88.438 38.3357 87.1395 40.6299 87.1395C42.924 87.1395 44.7838 88.438 44.7838 90.0399Z"  />
        <path fill="#ffffff" stroke-width="2.37356" stroke-linecap="round" d="M15.0457 115.771L15.0457 96.5961L112.954 96.5961L112.954 115.771L15.0457 115.771Z"  fill-rule="evenodd" />
        <path fill="#7c4693" fill-opacity="0.436214" stroke="#000000" stroke-width="1.21887" stroke-linecap="round" d="M34.8411 113.418L17.9343 113.418L17.9343 98.9485L34.8411 98.9485L34.8411 113.418Z"  />
        <path fill="#7c4693" fill-opacity="0.436214" stroke="#000000" stroke-width="1.72437" stroke-linecap="round" d="M81.2305 113.418L47.3921 113.418L47.3921 98.9485L81.2305 98.9485L81.2305 113.418Z"  />
        <path fill="#7c4693" fill-opacity="0.436214" stroke="#000000" stroke-width="1.21887" stroke-linecap="round" d="M110.066 113.418L93.159 113.418L93.159 98.9485L110.066 98.9485L110.066 113.418Z"  />
        <path id="path1677" fill="#000000" fill-opacity="0.419753" stroke-width="1.07153" d="M44.7838 110.786C44.7838 112.388 42.924 113.686 40.6299 113.686C38.3357 113.686 36.4759 112.388 36.4759 110.786C36.4759 109.184 38.3357 107.885 40.6299 107.885C42.924 107.885 44.7838 109.184 44.7838 110.786Z"  />
        <path id="path1679" fill="#000000" fill-opacity="0.419753" stroke-width="1.07153" d="M91.2876 110.786C91.2876 112.388 89.4278 113.686 87.1336 113.686C84.8394 113.686 82.9796 112.388 82.9796 110.786C82.9796 109.184 84.8394 107.885 87.1336 107.885C89.4278 107.885 91.2876 109.184 91.2876 110.786Z"  />
      </g>
      <g id="sombra">
        <g id="g3225">
          <path id="path1563" fill="url(#defitem3)" stroke-width="0" stroke-linecap="round" stroke-linejoin="round" d="M128 122.802C128 125.667 99.3468 127.99 64.0002 127.99C28.6539 127.99 0.0001705 125.667 0.0001705 122.802C0.0001705 119.937 28.6539 117.614 64.0002 117.614C99.3468 117.614 128 119.937 128 122.802L128 122.802Z"  />
          <path id="path3251" fill="url(#defitem4)" stroke-width="0" stroke-linecap="round" stroke-linejoin="round" d="M128 122.802L0.0001695 122.802C0.0001695 125.673 28.6539 128 64.0002 128C99.3468 128 128 125.673 128 122.802L128 122.802Z"  />
          <path id="path2455" fill="url(#defitem5)" stroke-width="0" stroke-linecap="round" stroke-linejoin="round" d="M128 122.802L0.0001695 122.802C0.0001695 119.697 28.6539 117.18 64.0002 117.18C99.3468 117.18 128 119.697 128 122.802L128 122.802Z"  />
        </g>
        <path id="path2440" fill="#ffffff" fill-opacity="0.5" stroke-width="0" stroke-linecap="round" stroke-linejoin="round" d="M64 117.184C29.7583 117.184 1.77662 119.526 0.0624993 122.496C0.00012425 122.59 -7.5e-07 122.714 -7.5e-07 122.809C-7.5e-07 122.988 0.0940033 123.134 0.312499 123.309C0.425012 123.402 0.546841 123.499 0.718749 123.59C1.85178 124.191 4.27039 124.763 7.71875 125.278C9.68924 125.572 11.9852 125.833 14.5938 126.09C18.5066 126.474 23.1115 126.81 28.2188 127.09C33.326 127.37 38.9567 127.594 44.9688 127.746C50.9808 127.898 57.3726 127.996 64 127.996C70.6275 127.996 77.0192 127.898 83.0313 127.746C89.0433 127.594 94.6741 127.37 99.7813 127.09C104.888 126.81 109.462 126.474 113.375 126.09C115.984 125.833 118.311 125.572 120.281 125.278C123.73 124.763 126.117 124.191 127.25 123.59C127.422 123.499 127.544 123.402 127.656 123.309C127.766 123.222 127.851 123.147 127.906 123.059C127.962 122.97 128 122.898 128 122.809C128 122.714 127.969 122.59 127.906 122.496C126.192 119.526 98.242 117.184 64 117.184Z"  />
      </g>
    </g>
  </g>
</svg>
