<?xml version="1.0" standalone="no"?>
<!DOCTYPE svg PUBLIC "-//W3C//DTD SVG 20010904//EN" "http://www.w3.org/TR/2001/REC-SVG-20010904/DTD/svg10.dtd">
<!-- Created using Karbon14, part of koffice: http://www.koffice.org/karbon -->
<svg xmlns="http://www.w3.org/2000/svg" xmlns:xlink="http://www.w3.org/1999/xlink" width="128px" height="128px">
  <defs>
    <radialGradient id="defitem0" gradientUnits="userSpaceOnUse" cx="64" cy="122.812" fx="64" fy="122.812" r="64" >
      <stop stop-color="#000000" offset="0" stop-opacity="1" />
      <stop stop-color="#000000" offset="1" stop-opacity="0" />
    </radialGradient>
  </defs>
  <g id="Layer">
    <g id="layer1">
      <path id="path3945" fill="#000000" d=""  />
    </g>
    <path id="path3081" fill="#000000" d=""  />
    <g id="layer2">
    </g>
    <g id="layer3">
    </g>
    <g id="layer4">
    </g>
    <g id="layer8">
      <g id="g2421">
        <path id="path4205" fill="#000000" stroke-width="0.5" d=""  />
        <g id="g2252">
          <path fill="#ffffff" stroke-width="2" stroke-linecap="round" d="M85.3943 83.5551L85.3943 57.2686L117.506 57.2686L117.506 83.5551L85.3943 83.5551Z"  fill-rule="evenodd" />
          <path fill="#00ff00" stroke="#000000" stroke-width="1.41168" stroke-linecap="round" d="M104.764 80.3302L88.2208 80.3302L88.2208 60.4935L104.764 60.4935L104.764 80.3302Z"  />
          <path id="path4213" fill="#000000" fill-opacity="0.419753" stroke-width="1.20259" d="M114.493 76.7213C114.493 78.9173 112.673 80.6975 110.428 80.6975C108.183 80.6975 106.363 78.9173 106.363 76.7213C106.363 74.5254 108.183 72.7452 110.428 72.7452C112.673 72.7452 114.493 74.5254 114.493 76.7213Z"  />
        </g>
        <g id="g1886">
          <path id="path1888" fill="#0000a1" stroke="#ffffff" stroke-width="1.43254" d=""  />
          <path id="path1625" fill="#0000a1" stroke="#ffffff" stroke-width="1.43254" d="M52.0803 20.947C49.5871 20.944 49.384 20.984 48.1405 21.611C46.9082 22.233 46.7533 22.386 45.665 24.313C45.1976 25.141 44.9296 25.748 44.714 26.472C44.642 26.712 44.5429 26.963 44.4876 27.257C44.4281 27.579 44.3864 28.5897 44.3366 29.0227C44.2182 30.0861 44.1026 30.9166 43.9593 33.0983C43.917 33.7417 43.8695 34.4338 43.8234 35.0757C43.6747 37.1728 43.5313 37.9356 43.0989 38.789C42.7925 39.3936 42.5554 40.0807 42.5554 40.3287C42.5554 40.6063 42.3442 40.8666 42.012 40.9929C41.7152 41.1057 41.2266 41.5872 40.9252 42.0646C39.7205 43.9729 34.5361 49.6411 33.6797 49.9894C33.5592 50.0384 32.6664 51.6689 31.7023 53.597C29.6224 57.7567 29.1417 58.5154 28.3512 58.9708C28.0234 59.1597 27.5658 59.6633 27.3248 60.0878C27.0838 60.5123 26.627 61.2468 26.3134 61.7181C25.9999 62.1893 25.2704 63.3447 24.6983 64.2842C23.5896 66.1047 21.8254 68.2371 19.5812 70.4881C17.2887 72.7874 17.4141 72.1689 16.9094 84.8282C16.7723 88.2649 16.5848 90.2917 16.366 91.2586C16.3531 91.3153 16.3489 91.4664 16.3358 91.5152C16.3308 91.535 16.3257 91.5561 16.3207 91.5756C16.1298 92.2853 15.8864 93.2163 15.7773 93.6737C15.665 94.1443 14.9519 95.5214 14.1923 96.738C13.77 97.4174 13.3121 98.1706 13.196 98.3984C12.7083 99.2028 12.1643 100.073 11.8677 100.587C10.066 103.713 8.04179 106.225 6.55434 107.168C5.80496 107.644 5.00841 108.043 4.78824 108.044C4.74219 108.044 4.67411 108.135 4.6222 108.15C4.33575 108.249 4.03478 108.415 3.77689 108.663C3.76595 108.673 3.75744 108.682 3.7467 108.693C3.74075 108.699 3.73751 108.702 3.73161 108.708C3.39784 109.044 3.16247 109.432 3.21839 109.704C3.67323 111.92 3.90799 112.566 4.54673 113.403C5.44022 114.573 5.94965 115.569 5.95054 116.09C5.95144 116.612 7.24465 119.146 8.03363 120.18C8.94271 121.372 10.7745 122.229 12.8187 122.414C14.3533 122.553 14.5849 122.515 15.7169 121.961C17.3661 121.155 17.5171 120.756 17.0301 118.61C16.8177 117.674 16.6034 116.708 16.5471 116.452C16.4391 115.961 16.7783 115.54 22.7209 109.01C25.1692 106.32 25.7675 105.507 27.0229 103.183C28.3105 100.801 28.936 99.3668 30.0871 96.1191C30.4899 94.9829 31.2102 94.7062 31.9136 95.4096C32.2743 95.7703 32.3822 96.0831 32.3061 96.4814C32.2467 96.792 32.3532 97.3332 32.5325 97.6739C33.1582 98.863 33.7918 101.374 33.9967 103.44C34.6085 109.608 34.7692 110.558 35.4307 112.421C35.702 113.186 35.7429 113.89 35.642 115.531C35.56 116.865 35.593 117.694 35.7326 117.78C35.8545 117.856 35.9042 118.19 35.8383 118.52C35.7552 118.935 35.8471 119.22 36.1251 119.471C36.778 120.06 39.8702 120.998 41.212 121.01C42.6251 121.023 44.2667 121.435 46.0272 122.218C46.7075 122.521 47.946 122.845 48.7896 122.943C49.6332 123.04 50.8155 123.081 51.4161 123.033C52.3571 122.958 52.6028 122.839 53.2124 122.127C54.0419 121.159 54.0932 120.784 53.4992 120.029C53.2581 119.723 53.0614 119.373 53.0614 119.244C53.0614 119.116 52.7323 118.697 52.3218 118.324C51.6028 117.669 51.07 117.334 49.2726 116.361C48.2574 115.812 47.2596 114.727 46.9329 113.84C46.7997 113.479 46.4994 112.798 46.2688 112.316C45.9375 111.624 45.8889 111.256 46.0423 110.595C46.2698 109.615 46.085 108.881 45.3027 107.546C44.6156 106.374 44.6141 106.059 45.197 103.908C45.4472 102.984 45.7476 101.885 45.8612 101.463C46.131 100.461 45.9788 97.5369 45.5291 94.7908C44.7089 89.7811 44.5159 88.3345 44.4121 86.5641C44.352 85.5397 44.1987 84.0085 44.0649 83.1527L43.8234 81.5979L45.514 78.5488C47.2389 75.4611 47.9336 74.3753 48.3971 73.975C48.5383 73.8531 48.8406 73.4006 49.0764 72.9788C49.3122 72.557 49.8428 71.6188 50.2538 70.8957C51.8573 68.0748 53.4177 63.6298 53.8464 60.6463C53.9282 60.0769 54.1306 59.6304 54.4049 59.3482C54.4166 59.3361 54.423 59.3144 54.435 59.3029C54.47 59.2695 54.5188 59.2705 54.5558 59.2425C54.8763 59.0517 55.2888 59.0182 55.8841 59.1519C56.9965 59.4019 57.6867 59.8558 58.0729 60.5558C58.092 60.5903 58.1309 60.6105 58.1484 60.6463C58.1525 60.6549 58.1592 60.653 58.1635 60.6614C58.3213 60.8769 58.4962 61.0188 58.6767 61.0992C58.7179 61.111 58.7608 61.2109 58.7974 61.2048C59.1697 61.1427 59.4089 61.4775 59.5522 62.0049C59.5928 62.1955 59.6441 62.2746 59.688 62.5785C59.696 62.6333 59.8402 62.7325 59.8994 62.8049C60.0917 63.0988 60.4586 63.3824 61.4843 63.9219C61.4935 63.9267 61.4901 63.9321 61.4994 63.937C62.4557 64.4415 63.5799 64.9044 64.2467 64.9936C64.789 65.0662 65.9088 65.2812 66.7524 65.4767C68.5358 65.8899 75.3126 65.943 78.0433 65.5672C79.5425 65.3609 79.7351 65.2694 80.3075 64.5559C80.9276 63.783 80.9513 63.786 82.617 63.786C84.6658 63.786 85.048 63.5567 85.9228 61.8237C86.2621 61.1516 86.7091 60.5516 87.2361 60.0576C87.7648 59.5634 88.3886 59.1678 89.0776 58.8802C89.5339 58.6898 90.3557 58.728 90.4163 58.5365C90.4569 58.4597 90.6505 57.1159 90.5707 57.1042C90.2382 56.6766 88.6427 56.5344 86.9596 57.3501C83.692 58.9337 82.538 60.5678 82.4661 61.1897C82.4405 61.411 82.3062 61.5601 82.1793 61.703C82.0048 61.7712 81.843 61.8549 81.651 61.9143C81.616 61.8962 81.5752 61.9024 81.5453 61.869C81.461 61.7747 81.2355 61.2304 81.0472 60.6614L80.7 59.635L81.5755 58.9406C81.7745 58.783 81.7947 58.726 81.9076 58.6236C81.9478 58.5931 82.0271 58.598 82.0585 58.5632C82.1363 58.4773 82.1386 58.4305 82.1793 58.367C82.2032 58.331 82.2448 58.2649 82.2548 58.2312C82.2906 58.1014 82.2476 57.9591 82.1038 57.7481C82.0924 57.7306 82.0992 57.7197 82.0887 57.7028C81.9833 57.5523 83.8336 55.9864 84.6738 55.9384C84.8856 55.9263 88.6959 55.2458 88.956 55.1354C88.9936 55.1151 87.9305 53.6278 87.6134 53.4914C87.1958 53.3117 84.9994 53.2167 84.7303 53.1744C84.6384 53.1485 84.4758 53.0385 84.4284 53.0385C84.3996 53.0385 84.3698 53.123 84.3378 53.1442C83.8193 53.2044 83.0522 53.4988 81.2283 54.1556C80.1437 54.5461 79.1268 55.0343 78.9792 55.2424C78.606 55.7685 76.8902 56.5799 76.6546 56.3443C76.5451 56.2348 76.5774 55.9502 76.7301 55.665C76.9563 55.2424 76.9465 55.1116 76.6093 54.865C76.3903 54.7048 76.1279 54.5782 76.0357 54.5782C75.9435 54.5782 75.3454 54.2616 74.7074 53.8838C72.1723 52.3828 71.1575 51.9228 69.7563 51.6196C67.151 51.0559 63.3099 49.601 60.6239 48.1629C60.4491 48.0693 59.9112 47.801 59.4314 47.5591C59.3367 47.4845 59.2824 47.4471 59.1597 47.4233C59.0858 47.3862 59.0514 47.369 58.9786 47.3327C57.8069 46.7483 55.784 44.7228 55.6879 44.042C55.6514 43.7832 55.6812 43.5544 55.7483 43.3477C55.9066 43.097 56.0565 42.8314 56.337 42.6684C56.7309 42.4395 57.2174 42.3061 57.7559 42.3061C58.4589 42.3061 58.5876 42.2098 59.0692 41.2646C59.31 40.792 59.6825 40.257 60.156 39.7098C60.6295 39.1627 61.1975 38.6028 61.8315 38.0645C62.2503 37.7089 62.3026 37.5169 62.1787 36.5248C62.0462 35.4643 62.0683 35.3562 62.6919 34.7587C63.0582 34.4078 63.7641 33.4592 64.2467 32.6606C65.0879 31.2682 65.1222 31.1431 65.1222 29.3548C65.1222 26.738 64.7072 25.617 63.4617 24.887C62.9287 24.574 62.4806 24.22 62.4806 24.102C62.4806 23.984 62.2233 23.781 61.8919 23.649C61.5605 23.517 60.4407 23.027 59.4163 22.562C56.5674 21.269 55.1069 20.951 52.0803 20.947Z"  />
        </g>
      </g>
      <g id="g11252">
        <g id="g11254">
          <path id="path11256" fill="#000000" d=""  />
        </g>
        <path id="path11258" fill="#000000" d=""  />
        <g id="g11260">
        </g>
        <g id="g11262">
        </g>
        <g id="g11264">
        </g>
        <g id="g11266">
          <path id="path2167" fill="#000000" d=""  />
          <g id="g3036">
            <path id="path4922" fill="#000000" d=""  />
          </g>
          <path id="path4924" fill="#000000" d=""  />
          <g id="g4926">
          </g>
          <g id="g4928">
          </g>
          <g id="g4930">
          </g>
          <path id="path10095" fill="#000000" d=""  />
          <path id="path2276" fill="#ffffff" fill-opacity="0.756881" stroke-width="0.5" stroke-linecap="round" stroke-linejoin="round" d="M72.7412 -13.855L72.7412 -16.649L72.7412 -13.855Z"  />
          <path id="path2191" fill="#ffffff" fill-opacity="0.756881" stroke-width="0.5" stroke-linecap="round" stroke-linejoin="round" d="M367.351 -76.046L367.351 -78.84L367.351 -76.046Z"  />
          <path id="path2985" fill="#ffffff" fill-opacity="0.756881" stroke-width="0.5" stroke-linecap="round" stroke-linejoin="round" d="M210.342 -145.681L210.342 -148.475L210.342 -145.681Z"  />
          <path id="path3206" fill="#ffffff" fill-opacity="0.756881" stroke-width="0.5" stroke-linecap="round" stroke-linejoin="round" d="M90.8401 -232.311L90.8401 -235.106L90.8401 -232.311Z"  />
          <g id="g2878">
          </g>
          <g id="g4938">
          </g>
          <path id="path3946" fill="#ffffff" fill-opacity="0.756881" stroke-width="0.5" stroke-linecap="round" stroke-linejoin="round" d="M337.432 -166.556L337.432 -169.35L337.432 -166.556Z"  />
          <path id="path1561" fill="#ffffff" fill-opacity="0.756881" stroke-width="0.5" stroke-linecap="round" stroke-linejoin="round" d="M244.807 -92.662L244.807 -94.189L244.807 -92.662Z"  />
          <path fill="#ffffff" stroke-width="3.632" stroke-linecap="round" stroke-linejoin="round" d="M187.322 -149.262L187.322 -149.262L188.322 -149.262L188.322 -149.262L187.322 -149.262Z"  />
          <path fill="#ffffff" stroke-width="3.632" stroke-linecap="round" stroke-linejoin="round" d="M152.196 -176.79L152.196 -176.79L153.196 -176.79L153.196 -176.79L152.196 -176.79Z"  />
          <path id="path2494" fill="#ffffff" fill-opacity="0.756881" stroke-width="0.5" stroke-linecap="round" stroke-linejoin="round" d="M-6.74187 -250.006L-6.74187 -252.8L-6.74187 -250.006Z"  />
          <g id="g4640">
          </g>
          <g id="g4646">
          </g>
          <g id="g4730">
          </g>
          <g id="g4748">
          </g>
          <g id="g12948">
            <path id="path12950" fill="#000000" d=""  />
          </g>
          <path id="path12952" fill="#000000" d=""  />
          <g id="g12954">
          </g>
          <g id="g12956">
          </g>
          <g id="g12958">
          </g>
          <path id="path12983" fill="#000000" d=""  />
          <g id="g12985">
            <path id="path12987" fill="#000000" d=""  />
          </g>
          <path id="path12989" fill="#000000" d=""  />
          <g id="g12991">
          </g>
          <g id="g12993">
          </g>
          <g id="g12995">
          </g>
          <path id="path12997" fill="#000000" d=""  />
          <path id="path12999" fill="#ffffff" fill-opacity="0.756881" stroke-width="0.5" stroke-linecap="round" stroke-linejoin="round" d="M215.711 -25.95L215.711 -28.745L215.711 -25.95Z"  />
          <path id="path13001" fill="#ffffff" fill-opacity="0.756881" stroke-width="0.5" stroke-linecap="round" stroke-linejoin="round" d="M510.32 -88.141L510.32 -90.936L510.32 -88.141Z"  />
          <path id="path13003" fill="#ffffff" fill-opacity="0.756881" stroke-width="0.5" stroke-linecap="round" stroke-linejoin="round" d="M353.312 -157.776L353.312 -160.571L353.312 -157.776Z"  />
          <path id="path13005" fill="#ffffff" fill-opacity="0.756881" stroke-width="0.5" stroke-linecap="round" stroke-linejoin="round" d="M233.81 -244.407L233.81 -247.201L233.81 -244.407Z"  />
          <g id="g13007">
          </g>
          <g id="g13009">
          </g>
          <path id="path13011" fill="#ffffff" fill-opacity="0.756881" stroke-width="0.5" stroke-linecap="round" stroke-linejoin="round" d="M480.401 -178.651L480.401 -181.446L480.401 -178.651Z"  />
          <path id="path13013" fill="#ffffff" fill-opacity="0.756881" stroke-width="0.5" stroke-linecap="round" stroke-linejoin="round" d="M387.777 -104.758L387.777 -106.285L387.777 -104.758Z"  />
          <path fill="#ffffff" stroke-width="3.632" stroke-linecap="round" stroke-linejoin="round" d="M330.292 -161.358L330.292 -161.358L331.292 -161.358L331.292 -161.358L330.292 -161.358Z"  />
          <path fill="#ffffff" stroke-width="3.632" stroke-linecap="round" stroke-linejoin="round" d="M295.165 -188.885L295.165 -188.885L296.165 -188.885L296.165 -188.885L295.165 -188.885Z"  />
          <path id="path13019" fill="#ffffff" fill-opacity="0.756881" stroke-width="0.5" stroke-linecap="round" stroke-linejoin="round" d="M136.228 -262.101L136.228 -264.896L136.228 -262.101Z"  />
          <g id="g13021">
          </g>
          <g id="g13023">
          </g>
          <g id="g13025">
          </g>
          <g id="g13027">
          </g>
          <path id="path4226" fill="#ffffff" fill-opacity="0.756881" stroke-width="0.5" stroke-linecap="round" stroke-linejoin="round" d="M405.442 25.175L405.442 22.38L405.442 25.175Z"  />
          <path id="path1563" fill="url(#defitem0)" stroke-width="0" stroke-linecap="round" stroke-linejoin="round" d="M128 122.812C128 125.677 99.3462 128 64 128C28.6538 128 -2.53882e-05 125.677 -2.53765e-05 122.812C-2.53882e-05 119.947 28.6538 117.624 64 117.624C99.3462 117.624 128 119.947 128 122.812L128 122.812Z"  />
        </g>
      </g>
    </g>
  </g>
</svg>
