<?xml version="1.0" standalone="no"?>
<!DOCTYPE svg PUBLIC "-//W3C//DTD SVG 20010904//EN" "http://www.w3.org/TR/2001/REC-SVG-20010904/DTD/svg10.dtd">
<!-- Created using Karbon14, part of koffice: http://www.koffice.org/karbon -->
<svg xmlns="http://www.w3.org/2000/svg" xmlns:xlink="http://www.w3.org/1999/xlink" width="128px" height="128px">
  <defs>
    <radialGradient id="defitem3" gradientUnits="userSpaceOnUse" cx="64.0002" cy="122.802" fx="64.0002" fy="122.802" r="61.5368" >
      <stop stop-color="#000000" offset="0" stop-opacity="1" />
      <stop stop-color="#000000" offset="1" stop-opacity="0" />
    </radialGradient>
    <linearGradient id="defitem4" gradientUnits="userSpaceOnUse" x1="64.0002" y1="128" x2="64.0002" y2="122.802" >
      <stop stop-color="#ffffff" offset="0" stop-opacity="1" />
      <stop stop-color="#ffffff" offset="1" stop-opacity="0" />
    </linearGradient>
    <linearGradient id="defitem5" gradientUnits="userSpaceOnUse" x1="64.0002" y1="117.179" x2="64.0002" y2="122.802" >
      <stop stop-color="#ffffff" offset="0" stop-opacity="1" />
      <stop stop-color="#ffffff" offset="1" stop-opacity="0" />
    </linearGradient>
  </defs>
  <g id="Layer">
    <g id="g3510">
      <path fill="#ffffff" stroke-width="2" stroke-linecap="round" d="M16.789 73.2737L16.789 54.1119L58.5752 54.1119L58.5752 73.2737L16.789 73.2737Z"  fill-rule="evenodd" />
      <path fill="#7c4693" fill-opacity="0.436214" stroke="#000000" stroke-width="1.81133" stroke-linecap="round" d="M56.2334 70.9229L18.8717 70.9229L18.8717 56.4627L56.2334 56.4627L56.2334 70.9229Z"  />
      <path id="path5483" fill="#ffffff" stroke="#ffffff" stroke-width="3.40964" d="M35.4991 21.822L35.4991 40.0617L37.9458 40.0617C40.7353 40.0617 42.8629 39.2808 44.3286 37.7191C45.806 36.1574 46.5448 33.8882 46.5448 30.9116C46.5448 27.948 45.812 25.693 44.3463 24.144C42.8806 22.596 40.7471 21.822 37.9458 21.822L35.4991 21.822M28.673 15.995L35.8714 15.995C39.8902 15.995 42.8806 16.322 44.8427 16.976C46.8167 17.617 48.5069 18.712 49.9135 20.26C51.1546 21.608 52.0765 23.163 52.6794 24.925C53.2822 26.687 53.5836 28.6825 53.5836 30.9116C53.5836 33.1674 53.2822 35.183 52.6794 36.9582C52.0765 38.7202 51.1546 40.2752 49.9135 41.6234C48.4951 43.1717 46.793 44.2729 44.8073 44.927C42.8215 45.5677 39.8429 45.8881 35.8714 45.8881L28.673 45.8881L28.673 15.995"  />
      <path id="path5485" fill="#000000" stroke-width="0.5" d="M35.4991 21.822L35.4991 40.0617L37.9458 40.0617C40.7353 40.0617 42.8629 39.2808 44.3286 37.7191C45.806 36.1574 46.5448 33.8882 46.5448 30.9116C46.5448 27.948 45.812 25.693 44.3463 24.144C42.8806 22.596 40.7471 21.822 37.9458 21.822L35.4991 21.822M28.6731 15.995L35.8714 15.995C39.8902 15.995 42.8806 16.322 44.8427 16.976C46.8167 17.617 48.5069 18.712 49.9135 20.26C51.1546 21.608 52.0765 23.163 52.6794 24.925C53.2822 26.687 53.5836 28.6825 53.5836 30.9116C53.5836 33.1674 53.2822 35.183 52.6794 36.9583C52.0765 38.7202 51.1546 40.2752 49.9135 41.6234C48.4951 43.1718 46.793 44.2729 44.8073 44.927C42.8215 45.5677 39.8429 45.8881 35.8714 45.8881L28.6731 45.8881L28.6731 15.995"  />
      <path id="path5489" fill="#ffffff" stroke="#ffffff" stroke-width="3.40964" d="M77.5673 15.995L84.3933 15.995L84.3933 27.388L94.4639 27.388L94.4639 15.995L101.29 15.995L101.29 45.8881L94.4639 45.8881L94.4639 33.2141L84.3933 33.2141L84.3933 45.8881L77.5673 45.8881L77.5673 15.995"  />
      <path id="path5491" fill="#000000" stroke-width="0.5" d="M77.5673 15.995L84.3933 15.995L84.3933 27.388L94.4639 27.388L94.4639 15.995L101.29 15.995L101.29 45.8881L94.4639 45.8881L94.4639 33.2142L84.3933 33.2142L84.3933 45.8881L77.5673 45.8881L77.5673 15.995"  />
      <path id="path5499" fill="none" stroke="#ffffff" stroke-width="3.59231" stroke-linecap="round" d="M63.8405 92.3686L63.8405 23.651"  fill-rule="evenodd" />
      <path id="path5501" fill="none" stroke="#000000" stroke-width="1.09012" stroke-linecap="round" d="M63.8405 92.4412L63.8405 26.207"  fill-rule="evenodd" />
      <path id="path5503" fill="none" stroke="#000000" stroke-width="1.3" stroke-linecap="round" d="M15.7872 51.2196L111.894 51.2196"  fill-rule="evenodd" />
      <path fill="#ffffff" stroke-width="2" stroke-linecap="round" d="M71.0766 93.5449L71.0766 74.3831L112.863 74.3831L112.863 93.5449L71.0766 93.5449Z"  fill-rule="evenodd" />
      <path fill="#7c4693" fill-opacity="0.436214" stroke="#000000" stroke-width="1.81133" stroke-linecap="round" d="M110.521 91.1941L73.1593 91.1941L73.1593 76.7339L110.521 76.7339L110.521 91.1941Z"  />
      <path fill="#ffffff" stroke-width="2" stroke-linecap="round" d="M71.0766 113.71L71.0766 94.5478L112.863 94.5478L112.863 113.71L71.0766 113.71Z"  fill-rule="evenodd" />
      <path fill="#7c4693" fill-opacity="0.436214" stroke="#000000" stroke-width="1.81133" stroke-linecap="round" d="M110.521 111.359L73.1593 111.359L73.1593 96.8986L110.521 96.8986L110.521 111.359Z"  />
    </g>
    <g id="sombra">
      <g id="g3225">
        <path id="path1563" fill="url(#defitem3)" stroke-width="0" stroke-linecap="round" stroke-linejoin="round" d="M128 122.802C128 125.667 99.3468 127.99 64.0002 127.99C28.6539 127.99 0.0001705 125.667 0.0001705 122.802C0.0001705 119.937 28.6539 117.614 64.0002 117.614C99.3468 117.614 128 119.937 128 122.802L128 122.802Z"  />
        <path id="path3251" fill="url(#defitem4)" stroke-width="0" stroke-linecap="round" stroke-linejoin="round" d="M128 122.802L0.0001695 122.802C0.0001695 125.673 28.6539 128 64.0002 128C99.3468 128 128 125.673 128 122.802L128 122.802Z"  />
        <path id="path2455" fill="url(#defitem5)" stroke-width="0" stroke-linecap="round" stroke-linejoin="round" d="M128 122.802L0.0001695 122.802C0.0001695 119.697 28.6539 117.18 64.0002 117.18C99.3468 117.18 128 119.697 128 122.802L128 122.802Z"  />
      </g>
      <path id="path2440" fill="#ffffff" fill-opacity="0.5" stroke-width="0" stroke-linecap="round" stroke-linejoin="round" d="M64 117.184C29.7583 117.184 1.77662 119.526 0.0624993 122.496C0.00012425 122.59 -7.5e-07 122.714 -7.5e-07 122.809C-7.5e-07 122.988 0.0940033 123.134 0.312499 123.309C0.425012 123.402 0.546841 123.499 0.718749 123.59C1.85178 124.191 4.27039 124.763 7.71875 125.278C9.68924 125.572 11.9852 125.833 14.5938 126.09C18.5066 126.474 23.1115 126.81 28.2188 127.09C33.326 127.37 38.9567 127.594 44.9688 127.746C50.9808 127.898 57.3726 127.996 64 127.996C70.6275 127.996 77.0192 127.898 83.0313 127.746C89.0433 127.594 94.6741 127.37 99.7813 127.09C104.888 126.81 109.462 126.474 113.375 126.09C115.984 125.833 118.311 125.572 120.281 125.278C123.73 124.763 126.117 124.191 127.25 123.59C127.422 123.499 127.544 123.402 127.656 123.309C127.766 123.222 127.851 123.147 127.906 123.059C127.962 122.97 128 122.898 128 122.809C128 122.714 127.969 122.59 127.906 122.496C126.192 119.526 98.242 117.184 64 117.184Z"  />
    </g>
  </g>
</svg>
