<?xml version="1.0" standalone="no"?>
<!DOCTYPE svg PUBLIC "-//W3C//DTD SVG 20010904//EN" "http://www.w3.org/TR/2001/REC-SVG-20010904/DTD/svg10.dtd">
<!-- Created using Karbon14, part of koffice: http://www.koffice.org/karbon -->
<svg xmlns="http://www.w3.org/2000/svg" xmlns:xlink="http://www.w3.org/1999/xlink" width="128px" height="128px">
  <defs>
    <radialGradient id="defitem0" gradientUnits="userSpaceOnUse" cx="79.7665" cy="63.1738" fx="79.7665" fy="63.1738" r="24.6815" spreadMethod="reflect" >
      <stop stop-color="#000000" offset="0" stop-opacity="1" />
      <stop stop-color="#000000" offset="1" stop-opacity="0" />
    </radialGradient>
    <radialGradient id="defitem1" gradientUnits="userSpaceOnUse" cx="41.1366" cy="74.9645" fx="41.1366" fy="74.9645" r="19.7735" spreadMethod="reflect" >
      <stop stop-color="#000000" offset="0" stop-opacity="1" />
      <stop stop-color="#000000" offset="1" stop-opacity="0" />
    </radialGradient>
    <radialGradient id="defitem2" gradientUnits="userSpaceOnUse" cx="64" cy="122.812" fx="64" fy="122.812" r="64" >
      <stop stop-color="#000000" offset="0" stop-opacity="1" />
      <stop stop-color="#000000" offset="1" stop-opacity="0" />
    </radialGradient>
  </defs>
  <g id="Layer">
    <g id="layer1">
      <path id="path3945" fill="#000000" d=""  />
    </g>
    <path id="path3081" fill="#000000" d=""  />
    <g id="layer2">
    </g>
    <g id="layer3">
    </g>
    <g id="layer4">
    </g>
    <g id="layer8">
      <g id="g2450">
        <path id="path2855" fill="#000000" stroke-width="0.5" d=""  />
        <g id="g1429">
          <path fill="#ffffff" stroke-width="1.4464" stroke-linecap="round" d="M16.9485 73.2737L16.9485 54.1119L58.7347 54.1119L58.7347 73.2737L16.9485 73.2737Z"  fill-rule="evenodd" />
          <path fill="#7c4693" fill-opacity="0.436214" stroke="#000000" stroke-width="1.94414" stroke-linecap="round" d="M56.3929 70.9229L19.0312 70.9229L19.0312 56.4627L56.3929 56.4627L56.3929 70.9229Z"  />
        </g>
        <g id="g2864">
          <path id="path2866" fill="#ffffff" stroke="#ffffff" stroke-width="3.43894" d="M35.6586 21.822L35.6586 40.0617L38.1053 40.0617C40.8948 40.0617 43.0224 39.2808 44.4881 37.7191C45.9655 36.1574 46.7043 33.8882 46.7043 30.9116C46.7043 27.948 45.9715 25.693 44.5058 24.144C43.0401 22.596 40.9066 21.822 38.1053 21.822L35.6586 21.822M28.8325 15.995L36.0309 15.995C40.0497 15.995 43.0401 16.322 45.0022 16.976C46.9761 17.617 48.6664 18.712 50.073 20.26C51.3141 21.608 52.236 23.163 52.8389 24.925C53.4416 26.687 53.7431 28.6825 53.7431 30.9116C53.7431 33.1674 53.4416 35.183 52.8389 36.9582C52.236 38.7202 51.3141 40.2752 50.073 41.6234C48.6546 43.1717 46.9525 44.2729 44.9668 44.927C42.981 45.5677 40.0024 45.8881 36.0309 45.8881L28.8325 45.8881L28.8325 15.995"  />
          <path id="path2868" fill="#000000" stroke-width="0.359652" d="M35.6586 21.822L35.6586 40.0617L38.1053 40.0617C40.8948 40.0617 43.0224 39.2808 44.4881 37.7191C45.9655 36.1574 46.7043 33.8882 46.7043 30.9116C46.7043 27.948 45.9715 25.693 44.5058 24.144C43.0401 22.596 40.9066 21.822 38.1053 21.822L35.6586 21.822M28.8325 15.995L36.0309 15.995C40.0497 15.995 43.0401 16.322 45.0022 16.976C46.9761 17.617 48.6664 18.712 50.073 20.26C51.3141 21.608 52.236 23.163 52.8389 24.925C53.4417 26.687 53.7431 28.6825 53.7431 30.9116C53.7431 33.1674 53.4417 35.183 52.8389 36.9582C52.236 38.7202 51.3141 40.2752 50.073 41.6234C48.6546 43.1718 46.9525 44.2729 44.9668 44.927C42.981 45.5677 40.0024 45.8881 36.0309 45.8881L28.8325 45.8881L28.8325 15.995"  />
        </g>
        <g id="g2870">
          <path id="path2872" fill="#ffffff" stroke="#ffffff" stroke-width="3.43894" d="M77.7268 15.995L84.5529 15.995L84.5529 27.388L94.6234 27.388L94.6234 15.995L101.449 15.995L101.449 45.8881L94.6234 45.8881L94.6234 33.2142L84.5529 33.2142L84.5529 45.8881L77.7268 45.8881L77.7268 15.995"  />
          <path id="path2874" fill="#000000" stroke-width="0.359652" d="M77.7268 15.995L84.5529 15.995L84.5529 27.388L94.6234 27.388L94.6234 15.995L101.449 15.995L101.449 45.8881L94.6234 45.8881L94.6234 33.2142L84.5529 33.2142L84.5529 45.8881L77.7268 45.8881L77.7268 15.995"  />
        </g>
        <g id="g5050">
          <path id="path2134" fill="none" stroke="#ffffff" stroke-width="3.9" stroke-linecap="round" d="M15.9467 50.2196L112.053 50.2196"  fill-rule="evenodd" />
          <g id="g5046">
            <path id="path2136" fill="none" stroke="#ffffff" stroke-width="3.9" stroke-linecap="round" d="M64 98.3751L64 17.382"  fill-rule="evenodd" />
            <path id="path2124" fill="none" stroke="#000000" stroke-width="1.19341" stroke-linecap="round" d="M64 98.3751L64 17.382"  fill-rule="evenodd" />
          </g>
          <path id="path1401" fill="none" stroke="#000000" stroke-width="1.3" stroke-linecap="round" d="M15.9467 50.2196L112.053 50.2196"  fill-rule="evenodd" />
        </g>
        <g id="g5057">
          <path fill="#ffffff" stroke-width="1.4464" stroke-linecap="round" d="M71.2361 93.5449L71.2361 74.3831L113.022 74.3831L113.022 93.5449L71.2361 93.5449Z"  fill-rule="evenodd" />
          <path fill="#7c4693" fill-opacity="0.436214" stroke="#000000" stroke-width="1.94414" stroke-linecap="round" d="M110.681 91.1941L73.3188 91.1941L73.3188 76.7339L110.681 76.7339L110.681 91.1941Z"  />
        </g>
        <g id="g5063">
          <path fill="#ffffff" stroke-width="1.4464" stroke-linecap="round" d="M71.2361 113.71L71.2361 94.5478L113.022 94.5478L113.022 113.71L71.2361 113.71Z"  fill-rule="evenodd" />
          <path fill="#7c4693" fill-opacity="0.436214" stroke="#000000" stroke-width="1.94414" stroke-linecap="round" d="M110.681 111.359L73.3188 111.359L73.3188 96.8986L110.681 96.8986L110.681 111.359Z"  />
        </g>
        <path id="text2137" fill="#ff0000" fill-opacity="0.784314" stroke="url(#defitem0)" stroke-width="1.95" d="M85.5247 76.4538L66.7978 76.4538L66.7978 73.912C66.7977 71.0762 67.3684 68.5689 68.5096 66.3901C69.6509 64.1768 72.0544 61.3755 75.7203 57.9863L79.0403 54.9776C81.0115 53.1793 82.4467 51.4847 83.3459 49.8938C84.2796 48.303 84.7465 46.7122 84.7465 45.1213C84.7465 42.7005 83.9165 40.8157 82.2565 39.4669C80.5965 38.0837 78.2794 37.392 75.3053 37.3919C72.504 37.392 69.478 37.9799 66.2271 39.1557C62.9763 40.297 59.5871 42.0089 56.0596 44.2913L56.0596 28.0025C60.2442 26.55 64.0657 25.478 67.524 24.786C70.9823 24.095 74.3196 23.749 77.5359 23.749C85.9742 23.749 92.4067 25.478 96.8334 28.9363C101.26 32.3601 103.473 37.3747 103.473 43.9801C103.473 47.3693 102.799 50.4126 101.45 53.1101C100.101 55.773 97.8017 58.6434 94.5509 61.7213L91.2309 64.6782C88.8792 66.8224 87.3402 68.5516 86.614 69.8657C85.8877 71.1453 85.5246 72.5632 85.5247 74.1195L85.5247 76.4538M66.7978 84.1314L85.5247 84.1314L85.5247 102.599L66.7978 102.599L66.7978 84.1314"  />
        <path id="path2142" fill="#ff0000" fill-opacity="0.784314" stroke="url(#defitem1)" stroke-width="1.95" d="M36.5707 64.4341L51.4202 64.4341L51.4202 66.4497C51.4203 68.6983 50.9678 70.6865 50.0628 72.4142C49.1579 74.1692 47.252 76.3905 44.3451 79.078L41.7125 81.4638C40.1494 82.8897 39.0114 84.2335 38.2983 85.495C37.5579 86.7564 37.1877 88.0178 37.1877 89.2793C37.1877 91.1989 37.8459 92.6935 39.1622 93.763C40.4785 94.8599 42.3158 95.4083 44.6742 95.4084C46.8955 95.4083 49.295 94.9422 51.8727 94.0098C54.4505 93.1048 57.138 91.7474 59.9351 89.9375L59.9351 102.854C56.6169 104.005 53.5867 104.856 50.8444 105.404C48.1021 105.953 45.4558 106.227 42.9054 106.227C36.2142 106.227 31.1135 104.856 27.6033 102.113C24.0932 99.3984 22.3382 95.4221 22.3381 90.1843C22.3382 87.4968 22.8729 85.0836 23.9424 82.9446C25.0119 80.833 26.8355 78.5569 29.4133 76.1163L32.0459 73.7716C33.9107 72.0714 35.131 70.7002 35.7069 69.6582C36.2828 68.6435 36.5707 67.5191 36.5707 66.2851L36.5707 64.4341M51.4202 58.3462L36.5707 58.3462L36.5707 43.7023L51.4202 43.7023L51.4202 58.3462"  />
      </g>
      <g id="g11301">
        <g id="g11303">
          <path id="path11305" fill="#000000" d=""  />
        </g>
        <path id="path11307" fill="#000000" d=""  />
        <g id="g11309">
        </g>
        <g id="g11311">
        </g>
        <g id="g11313">
        </g>
        <g id="g11315">
          <path id="path2167" fill="#000000" d=""  />
          <g id="g3036">
            <path id="path4922" fill="#000000" d=""  />
          </g>
          <path id="path4924" fill="#000000" d=""  />
          <g id="g4926">
          </g>
          <g id="g4928">
          </g>
          <g id="g4930">
          </g>
          <path id="path10095" fill="#000000" d=""  />
          <path id="path2276" fill="#ffffff" fill-opacity="0.756881" stroke-width="0.5" stroke-linecap="round" stroke-linejoin="round" d="M72.7412 -13.855L72.7412 -16.649L72.7412 -13.855Z"  />
          <path id="path2191" fill="#ffffff" fill-opacity="0.756881" stroke-width="0.5" stroke-linecap="round" stroke-linejoin="round" d="M367.351 -76.046L367.351 -78.84L367.351 -76.046Z"  />
          <path id="path2985" fill="#ffffff" fill-opacity="0.756881" stroke-width="0.5" stroke-linecap="round" stroke-linejoin="round" d="M210.342 -145.681L210.342 -148.475L210.342 -145.681Z"  />
          <path id="path3206" fill="#ffffff" fill-opacity="0.756881" stroke-width="0.5" stroke-linecap="round" stroke-linejoin="round" d="M90.8401 -232.311L90.8401 -235.106L90.8401 -232.311Z"  />
          <g id="g2878">
          </g>
          <g id="g4938">
          </g>
          <path id="path3946" fill="#ffffff" fill-opacity="0.756881" stroke-width="0.5" stroke-linecap="round" stroke-linejoin="round" d="M337.432 -166.556L337.432 -169.35L337.432 -166.556Z"  />
          <path id="path1561" fill="#ffffff" fill-opacity="0.756881" stroke-width="0.5" stroke-linecap="round" stroke-linejoin="round" d="M244.807 -92.662L244.807 -94.189L244.807 -92.662Z"  />
          <path fill="#ffffff" stroke-width="3.632" stroke-linecap="round" stroke-linejoin="round" d="M187.322 -149.262L187.322 -149.262L188.322 -149.262L188.322 -149.262L187.322 -149.262Z"  />
          <path fill="#ffffff" stroke-width="3.632" stroke-linecap="round" stroke-linejoin="round" d="M152.196 -176.79L152.196 -176.79L153.196 -176.79L153.196 -176.79L152.196 -176.79Z"  />
          <path id="path2494" fill="#ffffff" fill-opacity="0.756881" stroke-width="0.5" stroke-linecap="round" stroke-linejoin="round" d="M-6.74187 -250.006L-6.74187 -252.8L-6.74187 -250.006Z"  />
          <g id="g4640">
          </g>
          <g id="g4646">
          </g>
          <g id="g4730">
          </g>
          <g id="g4748">
          </g>
          <g id="g12948">
            <path id="path12950" fill="#000000" d=""  />
          </g>
          <path id="path12952" fill="#000000" d=""  />
          <g id="g12954">
          </g>
          <g id="g12956">
          </g>
          <g id="g12958">
          </g>
          <path id="path12983" fill="#000000" d=""  />
          <g id="g12985">
            <path id="path12987" fill="#000000" d=""  />
          </g>
          <path id="path12989" fill="#000000" d=""  />
          <g id="g12991">
          </g>
          <g id="g12993">
          </g>
          <g id="g12995">
          </g>
          <path id="path12997" fill="#000000" d=""  />
          <path id="path12999" fill="#ffffff" fill-opacity="0.756881" stroke-width="0.5" stroke-linecap="round" stroke-linejoin="round" d="M215.711 -25.95L215.711 -28.745L215.711 -25.95Z"  />
          <path id="path13001" fill="#ffffff" fill-opacity="0.756881" stroke-width="0.5" stroke-linecap="round" stroke-linejoin="round" d="M510.32 -88.141L510.32 -90.936L510.32 -88.141Z"  />
          <path id="path13003" fill="#ffffff" fill-opacity="0.756881" stroke-width="0.5" stroke-linecap="round" stroke-linejoin="round" d="M353.312 -157.776L353.312 -160.571L353.312 -157.776Z"  />
          <path id="path13005" fill="#ffffff" fill-opacity="0.756881" stroke-width="0.5" stroke-linecap="round" stroke-linejoin="round" d="M233.81 -244.407L233.81 -247.201L233.81 -244.407Z"  />
          <g id="g13007">
          </g>
          <g id="g13009">
          </g>
          <path id="path13011" fill="#ffffff" fill-opacity="0.756881" stroke-width="0.5" stroke-linecap="round" stroke-linejoin="round" d="M480.401 -178.651L480.401 -181.446L480.401 -178.651Z"  />
          <path id="path13013" fill="#ffffff" fill-opacity="0.756881" stroke-width="0.5" stroke-linecap="round" stroke-linejoin="round" d="M387.777 -104.758L387.777 -106.285L387.777 -104.758Z"  />
          <path fill="#ffffff" stroke-width="3.632" stroke-linecap="round" stroke-linejoin="round" d="M330.292 -161.358L330.292 -161.358L331.292 -161.358L331.292 -161.358L330.292 -161.358Z"  />
          <path fill="#ffffff" stroke-width="3.632" stroke-linecap="round" stroke-linejoin="round" d="M295.165 -188.885L295.165 -188.885L296.165 -188.885L296.165 -188.885L295.165 -188.885Z"  />
          <path id="path13019" fill="#ffffff" fill-opacity="0.756881" stroke-width="0.5" stroke-linecap="round" stroke-linejoin="round" d="M136.228 -262.101L136.228 -264.896L136.228 -262.101Z"  />
          <g id="g13021">
          </g>
          <g id="g13023">
          </g>
          <g id="g13025">
          </g>
          <g id="g13027">
          </g>
          <path id="path4226" fill="#ffffff" fill-opacity="0.756881" stroke-width="0.5" stroke-linecap="round" stroke-linejoin="round" d="M405.442 25.175L405.442 22.38L405.442 25.175Z"  />
          <path id="path1563" fill="url(#defitem2)" stroke-width="0" stroke-linecap="round" stroke-linejoin="round" d="M128 122.812C128 125.677 99.3462 128 64 128C28.6538 128 -2.53882e-05 125.677 -2.53765e-05 122.812C-2.53882e-05 119.947 28.6538 117.624 64 117.624C99.3462 117.624 128 119.947 128 122.812L128 122.812Z"  />
        </g>
      </g>
    </g>
  </g>
</svg>
