<?xml version="1.0" standalone="no"?>
<!DOCTYPE svg PUBLIC "-//W3C//DTD SVG 20010904//EN" "http://www.w3.org/TR/2001/REC-SVG-20010904/DTD/svg10.dtd">
<!-- Created using Karbon14, part of koffice: http://www.koffice.org/karbon -->
<svg xmlns="http://www.w3.org/2000/svg" xmlns:xlink="http://www.w3.org/1999/xlink" width="128px" height="128px">
  <defs>
    <linearGradient id="defitem29" gradientUnits="userSpaceOnUse" x1="104.855" y1="97.685" x2="111.515" y2="94.1571" >
      <stop stop-color="#ffffff" offset="0" stop-opacity="1" />
      <stop stop-color="#ffffff" offset="1" stop-opacity="0" />
    </linearGradient>
    <linearGradient id="defitem30" gradientUnits="userSpaceOnUse" x1="19.3156" y1="79.2621" x2="53.6773" y2="69.051" >
      <stop stop-color="#ffffff" offset="0" stop-opacity="0" />
      <stop stop-color="#ffffff" offset="0.185318" stop-opacity="0" />
      <stop stop-color="#ffffff" offset="0.281065" stop-opacity="0.33574" />
      <stop stop-color="#ffffff" offset="0.451269" stop-opacity="0.169675" />
      <stop stop-color="#ffffff" offset="0.479405" stop-opacity="0" />
      <stop stop-color="#ffffff" offset="0.6561" stop-opacity="0.306859" />
      <stop stop-color="#ffffff" offset="1" stop-opacity="0" />
    </linearGradient>
    <linearGradient id="defitem31" gradientUnits="userSpaceOnUse" x1="95.0767" y1="93.0085" x2="97.1268" y2="99.9992" >
      <stop stop-color="#626262" offset="0" stop-opacity="1" />
      <stop stop-color="#efefef" offset="1" stop-opacity="1" />
    </linearGradient>
    <linearGradient id="defitem32" gradientUnits="userSpaceOnUse" x1="25.7583" y1="117.362" x2="163.02" y2="88.0163" >
      <stop stop-color="#ffffff" offset="0" stop-opacity="1" />
      <stop stop-color="#ffffff" offset="1" stop-opacity="0" />
    </linearGradient>
    <linearGradient id="defitem33" gradientUnits="userSpaceOnUse" x1="25.7583" y1="117.362" x2="163.02" y2="88.0163" >
      <stop stop-color="#ffffff" offset="0" stop-opacity="1" />
      <stop stop-color="#ffffff" offset="1" stop-opacity="0" />
    </linearGradient>
    <linearGradient id="defitem34" gradientUnits="userSpaceOnUse" x1="70.6232" y1="80.5114" x2="106.424" y2="112.641" >
      <stop stop-color="#000000" offset="0" stop-opacity="1" />
      <stop stop-color="#ffffff" offset="1" stop-opacity="1" />
    </linearGradient>
    <linearGradient id="defitem35" gradientUnits="userSpaceOnUse" x1="39.071" y1="78.7648" x2="51.8636" y2="131.474" >
      <stop stop-color="#000000" offset="0" stop-opacity="1" />
      <stop stop-color="#ffffff" offset="1" stop-opacity="1" />
    </linearGradient>
    <linearGradient id="defitem36" gradientUnits="userSpaceOnUse" x1="36.9127" y1="96.6719" x2="48.8019" y2="118.448" >
      <stop stop-color="#000000" offset="0" stop-opacity="1" />
      <stop stop-color="#ffffff" offset="1" stop-opacity="1" />
    </linearGradient>
    <linearGradient id="defitem37" gradientUnits="userSpaceOnUse" x1="75.0295" y1="59.2578" x2="42.647" y2="124.735" >
      <stop stop-color="#000000" offset="0" stop-opacity="1" />
      <stop stop-color="#ffffff" offset="1" stop-opacity="1" />
    </linearGradient>
    <linearGradient id="defitem38" gradientUnits="userSpaceOnUse" x1="74.5024" y1="55.6806" x2="74.9865" y2="120.883" >
      <stop stop-color="#000000" offset="0" stop-opacity="1" />
      <stop stop-color="#ffffff" offset="1" stop-opacity="1" />
    </linearGradient>
    <linearGradient id="defitem39" gradientUnits="userSpaceOnUse" x1="75.1613" y1="60.1521" x2="75.6454" y2="125.354" >
      <stop stop-color="#000000" offset="0" stop-opacity="1" />
      <stop stop-color="#ffffff" offset="1" stop-opacity="1" />
    </linearGradient>
    <linearGradient id="defitem40" gradientUnits="userSpaceOnUse" x1="38.9747" y1="100.147" x2="48.4204" y2="117.477" >
      <stop stop-color="#000000" offset="0" stop-opacity="1" />
      <stop stop-color="#000000" offset="1" stop-opacity="0" />
    </linearGradient>
    <linearGradient id="defitem41" gradientUnits="userSpaceOnUse" x1="47.8127" y1="96.0874" x2="50.1876" y2="110.855" >
      <stop stop-color="#ffffff" offset="0" stop-opacity="1" />
      <stop stop-color="#ffffff" offset="1" stop-opacity="0" />
    </linearGradient>
    <linearGradient id="defitem42" gradientUnits="userSpaceOnUse" x1="47.8127" y1="96.0874" x2="51.49" y2="111.877" >
      <stop stop-color="#ffffff" offset="0" stop-opacity="1" />
      <stop stop-color="#ffffff" offset="1" stop-opacity="0" />
    </linearGradient>
    <linearGradient id="defitem43" gradientUnits="userSpaceOnUse" x1="23.6501" y1="114.228" x2="50.1876" y2="110.855" >
      <stop stop-color="#ffffff" offset="0" stop-opacity="1" />
      <stop stop-color="#ffffff" offset="1" stop-opacity="0" />
    </linearGradient>
    <linearGradient id="defitem44" gradientUnits="userSpaceOnUse" x1="22.7139" y1="65.625" x2="42.2986" y2="64.3028" >
      <stop stop-color="#ffffff" offset="0" stop-opacity="1" />
      <stop stop-color="#ffffff" offset="1" stop-opacity="0" />
    </linearGradient>
    <linearGradient id="defitem45" gradientUnits="userSpaceOnUse" x1="60.6855" y1="108.257" x2="38.4615" y2="17.219" >
      <stop stop-color="#000000" offset="0" stop-opacity="1" />
      <stop stop-color="#000000" offset="0.25" stop-opacity="0.599278" />
      <stop stop-color="#000000" offset="0.5" stop-opacity="0.277978" />
      <stop stop-color="#000000" offset="1" stop-opacity="0" />
    </linearGradient>
    <linearGradient id="defitem46" gradientUnits="userSpaceOnUse" x1="65.6528" y1="83.2336" x2="61.2482" y2="6.381" >
      <stop stop-color="#8e6b31" offset="0" stop-opacity="1" />
      <stop stop-color="#ddbc85" offset="1" stop-opacity="1" />
    </linearGradient>
    <linearGradient id="defitem47" gradientUnits="userSpaceOnUse" x1="25.1884" y1="109.721" x2="162.45" y2="80.3752" >
      <stop stop-color="#ffffff" offset="0" stop-opacity="1" />
      <stop stop-color="#ffffff" offset="1" stop-opacity="0" />
    </linearGradient>
    <radialGradient id="defitem48" gradientUnits="userSpaceOnUse" cx="51.9215" cy="109.122" fx="51.9215" fy="109.122" r="0.8275" >
      <stop stop-color="#000000" offset="0" stop-opacity="1" />
      <stop stop-color="#000000" offset="1" stop-opacity="0" />
    </radialGradient>
    <linearGradient id="defitem49" gradientUnits="userSpaceOnUse" x1="25.1884" y1="109.721" x2="162.45" y2="80.3752" >
      <stop stop-color="#ffffff" offset="0" stop-opacity="1" />
      <stop stop-color="#ffffff" offset="1" stop-opacity="0" />
    </linearGradient>
    <linearGradient id="defitem50" gradientUnits="userSpaceOnUse" x1="25.1884" y1="109.721" x2="162.45" y2="80.3752" >
      <stop stop-color="#ffffff" offset="0" stop-opacity="1" />
      <stop stop-color="#ffffff" offset="1" stop-opacity="0" />
    </linearGradient>
    <linearGradient id="defitem51" gradientUnits="userSpaceOnUse" x1="118.206" y1="-91.005" x2="86.3138" y2="145.387" >
      <stop stop-color="#000000" offset="0" stop-opacity="1" />
      <stop stop-color="#000000" offset="1" stop-opacity="0" />
    </linearGradient>
    <linearGradient id="defitem52" gradientUnits="userSpaceOnUse" x1="118.206" y1="-91.005" x2="86.3138" y2="145.387" >
      <stop stop-color="#000000" offset="0" stop-opacity="1" />
      <stop stop-color="#000000" offset="1" stop-opacity="0" />
    </linearGradient>
    <linearGradient id="defitem53" gradientUnits="userSpaceOnUse" x1="70.9117" y1="-12.003" x2="75.1561" y2="14.581" >
      <stop stop-color="#f6f9fd" offset="0" stop-opacity="1" />
      <stop stop-color="#f6f9fd" offset="1" stop-opacity="0" />
    </linearGradient>
    <linearGradient id="defitem54" gradientUnits="userSpaceOnUse" x1="70.9117" y1="-12.003" x2="75.1561" y2="14.581" >
      <stop stop-color="#f6f9fd" offset="0" stop-opacity="1" />
      <stop stop-color="#f6f9fd" offset="1" stop-opacity="0" />
    </linearGradient>
    <linearGradient id="defitem55" gradientUnits="userSpaceOnUse" x1="70.8187" y1="-12.35" x2="75.063" y2="14.234" >
      <stop stop-color="#f6f9fd" offset="0" stop-opacity="1" />
      <stop stop-color="#f6f9fd" offset="1" stop-opacity="0" />
    </linearGradient>
    <linearGradient id="defitem56" gradientUnits="userSpaceOnUse" x1="57.9958" y1="108.404" x2="93.4841" y2="26.734" >
      <stop stop-color="#ddbc85" offset="0" stop-opacity="1" />
      <stop stop-color="#ddbc85" offset="1" stop-opacity="0" />
    </linearGradient>
    <radialGradient id="defitem57" gradientUnits="userSpaceOnUse" cx="63.3933" cy="122.239" fx="37.5839" fy="123.3" r="53.4117" >
      <stop stop-color="#000000" offset="0" stop-opacity="1" />
      <stop stop-color="#000000" offset="1" stop-opacity="0" />
    </radialGradient>
  </defs>
  <g id="Layer">
    <g id="Layer">
      <g id="layer1">
        <g id="g3144">
          <path id="path5301" fill="#000000" stroke-linecap="round" stroke-linejoin="round" d="M84.1299 2.029L21.5081 18.595C21.4717 18.605 21.4368 18.62 21.4042 18.638L20.5348 19.097L19.7867 19.07C19.75 19.061 19.7124 19.057 19.6748 19.058L13.1658 20.707C11.718 21.089 10.813 22.585 11.1485 24.035C11.1549 24.063 11.1532 24.089 11.1604 24.116L11.676 31.7291C11.6774 31.7563 11.6814 31.7834 11.6879 31.81L34.4631 117.358C34.473 117.366 34.4834 117.373 34.494 117.38C34.8787 118.507 35.5517 119.468 36.4068 120.075C37.2542 120.677 38.293 120.923 39.3201 120.583L39.3471 120.579L111.324 100.713C113.3 100.191 114.429 98.1642 113.91 96.1978C113.909 96.1888 113.908 96.1798 113.906 96.1708L112.503 91.8856C113.243 90.9904 113.606 89.8122 113.287 88.6009C113.286 88.5918 113.284 88.5828 113.283 88.5739L88.5949 4.651C88.5926 4.642 88.5933 4.632 88.5909 4.624C88.061 2.672 86.0866 1.513 84.1299 2.029Z"  />
          <path id="path5441" fill="none" stroke="#000000" stroke-width="6.10715" stroke-linecap="round" stroke-linejoin="round" d="M84.8729 3.13L27.9551 18.312L22.2743 19.783L21.328 20.281L20.441 20.246L13.9321 21.894C12.6876 22.223 11.9315 23.514 12.2597 24.759L12.7872 32.4525L35.5623 118C36.2788 120.097 38.0893 121.53 39.8782 120.919L111.882 101.049C113.628 100.589 114.619 98.7943 114.158 97.0484L112.704 92.6053C113.489 91.8052 113.844 90.6221 113.535 89.4515L88.8197 5.414C88.3592 3.669 86.6187 2.669 84.8729 3.13Z"  />
          <path id="path5469" fill="none" stroke="#000000" stroke-width="0.87245" stroke-linecap="round" stroke-linejoin="round" d="M85.3565 3.201L28.4154 18.297L22.7346 19.768L21.7883 20.265L20.9013 20.231L14.9897 21.818C13.7453 22.147 12.9891 23.438 13.3174 24.683L13.7599 32.3615L36.3029 117.242C37.0193 119.339 38.8298 120.772 40.6188 120.161L53.8968 116.385L53.9238 116.381L112.153 100.282C113.899 99.8215 114.89 98.0271 114.43 96.2813L112.696 92.581C113.48 91.7809 113.835 90.5978 113.526 89.4272L89.3033 5.486C88.8428 3.74 87.1023 2.741 85.3565 3.201Z"  />
          <path id="path5439" fill="none" stroke="#000000" stroke-width="4.36225" stroke-linecap="round" stroke-linejoin="round" d="M84.4622 3.333L27.5211 18.428L21.8403 19.899L20.894 20.397L20.007 20.362L13.4981 22.011C12.2536 22.339 11.4974 23.631 11.8257 24.875L12.3532 32.5688L35.1283 118.116C35.8447 120.213 37.6552 121.647 39.4442 121.035L111.448 101.166C113.194 100.705 114.185 98.9106 113.724 97.1647L112.27 92.7216C113.055 91.9215 113.41 90.7384 113.101 89.5678L88.409 5.618C87.9485 3.872 86.208 2.872 84.4622 3.333Z"  />
          <path id="path5437" fill="none" stroke="#000000" stroke-width="2.61735" stroke-linecap="round" stroke-linejoin="round" d="M84.4389 3.246L26.6268 18.56L20.946 20.031L19.9997 20.529L19.1127 20.494L12.6038 22.142C11.3593 22.471 10.6031 23.762 10.9314 25.007L11.4589 32.7006L34.234 118.248C34.9504 120.345 36.7609 121.778 38.5499 121.167L51.8279 117.392L51.8549 117.388L110.553 101.297C112.299 100.837 113.291 99.0423 112.83 97.2965L111.376 92.8534C112.161 92.0533 112.515 90.8702 112.207 89.6996L88.3857 5.531C87.9252 3.785 86.1847 2.786 84.4389 3.246Z"  />
          <path id="path2792" fill="#382308" stroke-width="0.1" stroke-linecap="round" stroke-linejoin="round" d="M28.1874 25.008L52.2947 116.394L111.042 100.292C112.787 99.8311 113.772 98.028 113.311 96.2822L87.3711 8.941C86.9106 7.195 85.1853 6.19 83.4394 6.65L28.1874 25.008Z"  />
          <path id="path3740" fill="url(#defitem29)" d="M109.61 98.5796C112.645 97.5559 111.054 93.0486 111.237 90.0429L103.883 90.8814L109.61 98.5796Z"  fill-rule="evenodd" />
          <path id="rect2790" fill="#000000" stroke-width="0.1" stroke-linecap="round" stroke-linejoin="round" d="M27.2992 17.507L21.4219 19.012L20.4855 19.526L19.5832 19.483L13.0703 21.15C11.8259 21.479 11.0804 22.759 11.4087 24.004L11.9288 31.708L34.7132 117.231C35.4296 119.328 37.2417 120.783 39.0307 120.172L52.3386 116.376L52.1486 108.542C52.9047 107.996 53.2822 107.022 53.0294 106.064L30.0721 19.174C29.7439 17.93 28.5436 17.179 27.2992 17.507Z"  />
          <path id="path3812" fill="url(#defitem30)" stroke-width="0.1" stroke-linecap="round" stroke-linejoin="round" d="M27.8385 17.936L21.9716 19.48L21.0118 20.005L20.0871 19.914L13.6158 21.576C12.3713 21.904 11.5676 23.203 11.8958 24.448L12.4154 32.1444L34.3677 115.329C34.1892 114.007 36.0774 110.382 37.5995 109.906L52.4061 105.844C42.938 77.6054 35.7215 47.8798 27.8385 17.936Z"  />
          <path id="path2797" fill="url(#defitem31)" d="M109.325 93.0157L109.717 98.545L39.1086 118.039C36.3415 118.984 35.3247 113.085 38.5182 112.261L109.325 93.0157Z"  fill-rule="evenodd" />
          <path id="path3724" fill="#000000" fill-opacity="0.47561" stroke-width="0.1" stroke-linecap="round" stroke-linejoin="round" d="M52.3288 116.315L110.999 100.332C112.664 99.8928 113.636 98.2147 113.323 96.5473C113.243 97.9095 112.334 99.1629 110.944 99.5295L52.1375 115.572L52.3288 116.315Z"  />
          <path id="path3726" fill="url(#defitem32)" stroke-width="0.1" stroke-linecap="round" stroke-linejoin="round" d="M52.2172 115.718L110.892 99.5924C112.557 99.1531 113.529 97.4751 113.216 95.8076C113.136 97.1698 112.227 98.4232 110.837 98.7899L51.916 114.962L52.2172 115.718Z"  />
          <path id="path3728" fill="url(#defitem33)" stroke-width="0.1" stroke-linecap="round" stroke-linejoin="round" d="M52.1528 115.609L110.892 99.5924C112.557 99.1531 113.529 97.4751 113.216 95.8076C113.136 97.1698 112.261 98.9248 110.871 99.2914L51.992 115.106L52.1528 115.609Z"  />
          <path id="path5475" fill="none" stroke="url(#defitem34)" stroke-width="0.0903956" d="M36.2083 116.306C37.9969 116.043 109.536 96.2162 109.536 96.2162"  fill-rule="evenodd" />
          <path id="path5485" fill="none" stroke="url(#defitem35)" stroke-width="0.0903956" d="M36.4542 115.235C38.2428 114.972 109.511 95.2254 109.511 95.2254"  fill-rule="evenodd" />
          <path id="path5489" fill="none" stroke="url(#defitem36)" stroke-width="0.0903956" d="M36.7015 114.447C38.4901 114.183 109.38 94.3311 109.38 94.3311"  fill-rule="evenodd" />
          <path id="path5493" fill="none" stroke="url(#defitem37)" stroke-width="0.0903956" d="M36.9813 117.168C38.7699 116.904 109.604 97.222 109.604 97.222"  fill-rule="evenodd" />
          <path id="path5497" fill="none" stroke="url(#defitem38)" stroke-width="0.0903956" d="M36.968 113.515C38.7566 113.251 109.077 93.6448 109.077 93.6448"  fill-rule="evenodd" />
          <path id="path5501" fill="none" stroke="url(#defitem39)" stroke-width="0.0903956" d="M37.7571 118.048C39.5457 117.784 109.736 98.1163 109.736 98.1163"  fill-rule="evenodd" />
          <path id="path3732" fill="#000000" fill-opacity="0.47561" stroke-width="0.1" stroke-linecap="round" stroke-linejoin="round" d="M52.3288 116.315L110.999 100.332C112.664 99.8928 113.636 98.2147 113.323 96.5473C113.34 98.4472 112.324 99.607 110.934 99.9736L52.292 115.961L52.3288 116.315Z"  />
          <path id="path3754" fill="url(#defitem40)" d="M109.325 93.0157L109.717 98.545L39.1086 118.039C36.3415 118.984 35.3247 113.085 38.5182 112.261L109.325 93.0157Z"  fill-rule="evenodd" />
          <path id="path3781" fill="url(#defitem41)" d="M35.6523 114.401C35.6328 113.746 36.579 112.16 36.9407 111.941C41.8052 110.668 46.6696 109.395 51.5341 108.123C51.461 107.796 51.3879 107.469 51.3148 107.142C46.3759 108.445 41.4369 109.749 36.4979 111.052C35.9044 111.161 35.593 113.443 35.6523 114.401Z"  fill-rule="evenodd" />
          <path id="path3791" fill="url(#defitem42)" d="M35.6523 114.401C35.6328 113.746 36.9704 111.945 37.3321 111.725C42.1966 110.452 46.3678 109.335 51.2323 108.062C51.1592 107.735 51.0578 107.625 50.9847 107.298C46.0457 108.601 42.7125 109.618 37.3642 110.998C35.8863 111.379 35.593 113.443 35.6523 114.401Z"  fill-rule="evenodd" />
          <path id="path3793" fill="url(#defitem43)" d="M35.6523 114.401C35.7732 114.396 35.7949 114.008 35.8917 113.73C36.1715 112.928 36.7412 111.85 37.5746 111.708C42.4391 110.436 46.3678 109.335 51.2323 108.062C51.1592 107.735 51.0326 107.818 50.9595 107.491C46.0205 108.794 42.346 109.985 37.407 111.288C36.3961 111.598 35.8169 112.754 35.6555 113.689C35.6087 113.961 35.5775 114.409 35.6523 114.401Z"  fill-rule="evenodd" />
          <path id="path3799" fill="url(#defitem44)" stroke-width="0.1" stroke-linecap="round" stroke-linejoin="round" d="M19.7456 19.958L44.3471 110.522L45.3985 110.221L20.6474 19.993L19.7456 19.958Z"  />
          <path id="path3835" fill="url(#defitem45)" stroke-width="0.1" stroke-linecap="round" stroke-linejoin="round" d="M28.7116 21.397L22.8448 22.941L21.885 23.465L20.9602 23.375L14.4889 25.036C13.2445 25.365 12.4407 26.664 12.769 27.908L13.2886 35.6051L34.3677 115.329C34.1892 114.007 35.4075 110.481 37.5995 109.906L52.4061 105.844C42.938 77.6054 36.5947 51.3405 28.7116 21.397Z"  />
          <path id="rect1887" fill="url(#defitem46)" stroke-width="0.1" stroke-linecap="round" stroke-linejoin="round" d="M27.0939 17.553L51.7746 108.689L110.416 92.7085C112.161 92.248 113.146 90.4448 112.685 88.699L87.9803 4.748C87.5198 3.002 85.7944 1.997 84.0486 2.458L27.0939 17.553Z"  />
          <path id="path5281" fill="#ffffff" fill-opacity="0.4" d="M34.279 44.0422C34.5813 45.2895 35.8037 49.7458 36.1058 50.9922L36.1039 50.9986C36.402 50.5099 39.9176 44.7437 41.4032 42.3063C37.8845 43.1592 35.7985 43.6739 34.279 44.0422Z"  />
          <path id="path3703" fill="#000000" fill-opacity="0.47561" stroke-width="0.1" stroke-linecap="round" stroke-linejoin="round" d="M51.7588 108.674L110.429 92.691C112.094 92.2517 113.066 90.5737 112.753 88.9063C112.673 90.2685 111.764 91.5218 110.374 91.8885L51.5676 107.931L51.7588 108.674Z"  />
          <path id="path3718" fill="url(#defitem47)" stroke-width="0.1" stroke-linecap="round" stroke-linejoin="round" d="M51.6473 108.077L110.322 91.9514C111.987 91.5121 112.959 89.834 112.646 88.1666C112.566 89.5288 111.657 90.7822 110.267 91.1488L51.2987 106.903L51.6473 108.077Z"  />
          <path id="path3851" fill="url(#defitem48)" stroke-width="0.1" stroke-linecap="round" stroke-linejoin="round" d="M26.9932 16.505C26.0739 16.765 36.3624 58.1225 50.0472 108.937L53.4347 107.98C39.7365 57.1689 27.9125 16.246 26.9932 16.505Z"  />
          <path id="path3708" fill="url(#defitem49)" stroke-width="0.1" stroke-linecap="round" stroke-linejoin="round" d="M51.3809 107.919L110.322 91.9514C111.987 91.5121 112.959 89.834 112.646 88.1666C112.566 89.5288 111.691 91.2837 110.301 91.6504L51.2201 107.417L51.3809 107.919Z"  />
          <path id="path3720" fill="url(#defitem50)" stroke-width="0.1" stroke-linecap="round" stroke-linejoin="round" d="M51.7354 107.945L110.322 91.9514C111.987 91.5121 112.959 89.834 112.646 88.1666C112.566 89.5288 111.69 90.9614 110.3 91.328L51.5271 107.161L51.7354 107.945Z"  />
          <path id="path3722" fill="#000000" fill-opacity="0.47561" stroke-width="0.1" stroke-linecap="round" stroke-linejoin="round" d="M51.7588 108.674L110.429 92.691C112.094 92.2517 113.066 90.5737 112.753 88.9063C112.77 90.8061 111.754 91.9659 110.364 92.3326L51.7221 108.32L51.7588 108.674Z"  />
          <path id="path3866" fill="url(#defitem51)" stroke-width="0.1" stroke-linecap="round" stroke-linejoin="round" d="M85.6157 2.151C85.495 2.159 85.3618 2.232 85.2398 2.253C86.6004 2.321 87.7823 3.178 88.153 4.583L112.832 88.552C113.293 90.2978 112.326 92.1477 110.58 92.6082L52.6994 108.382L52.7097 108.534L111.342 92.5568C113.088 92.0962 114.055 90.2464 113.594 88.5006L88.915 4.531C88.5121 3.004 87.1218 2.059 85.6157 2.151Z"  />
          <path id="path3870" fill="url(#defitem52)" stroke-width="0.1" stroke-linecap="round" stroke-linejoin="round" d="M85.6208 2.161C85.4293 2.172 85.2105 2.231 85.0163 2.278C86.2597 2.448 87.3555 3.314 87.7009 4.623L112.38 88.5921C112.841 90.338 111.874 92.1878 110.128 92.6484L52.6232 108.32L52.7148 108.543L111.347 92.566C113.093 92.1055 114.06 90.2556 113.6 88.5098L88.9202 4.541C88.5172 3.013 87.1269 2.068 85.6208 2.161Z"  />
          <path id="path3769" fill="#000000" stroke-width="0.1" stroke-linecap="round" stroke-linejoin="round" d="M84.6458 2.319C84.4307 2.332 84.1833 2.384 83.9651 2.442L27.0792 17.547L27.1698 18.038L83.996 2.899C85.7418 2.438 87.5206 3.487 87.9812 5.233L87.9451 4.699C87.5422 3.172 86.1519 2.227 84.6458 2.319Z"  />
          <path id="path3779" fill="url(#defitem53)" stroke-width="0.1" stroke-linecap="round" stroke-linejoin="round" d="M84.5466 2.108C84.3314 2.121 84.0841 2.173 83.8659 2.23L27.0313 17.246L27.3563 18.723L84.1281 3.152C85.8739 2.691 87.5554 3.456 88.0159 5.202L87.8459 4.488C87.4429 2.96 86.0527 2.016 84.5466 2.108Z"  />
          <path id="path3764" fill="url(#defitem54)" stroke-width="0.1" stroke-linecap="round" stroke-linejoin="round" d="M84.5466 2.108C84.3314 2.121 84.0841 2.173 83.8659 2.23L27.0244 17.285L27.1449 17.793L84.0935 2.796C85.8393 2.336 87.5446 3.497 88.0052 5.243L87.8459 4.488C87.4429 2.96 86.0527 2.016 84.5466 2.108Z"  />
          <path id="path3888" fill="url(#defitem55)" stroke-width="0.1" stroke-linecap="round" stroke-linejoin="round" d="M84.4535 1.761C84.2384 1.774 83.9911 1.826 83.7728 1.883L26.9314 16.938L27.1637 17.919L84.0112 2.608C85.757 2.148 87.4516 3.15 87.9121 4.896L87.7529 4.141C87.3499 2.613 85.9596 1.668 84.4535 1.761Z"  />
          <path id="path4123" fill="#ffffff" fill-opacity="0.4" d="M27.3425 17.977C27.6448 19.224 28.7363 23.727 29.0384 24.974C30.607 24.594 49.7984 19.942 50.464 19.781C50.762 19.292 54.2776 13.526 55.7633 11.089C52.2445 11.941 28.862 17.609 27.3425 17.977Z"  />
          <path id="path5279" fill="#ffffff" fill-opacity="0.4" d="M30.9286 30.7498C31.2309 31.997 32.4532 36.4534 32.7553 37.6998C34.3239 37.3196 43.0181 35.2717 43.6837 35.1104C43.9818 34.6216 47.4974 28.8554 48.983 26.418C45.4642 27.271 32.448 30.3815 30.9286 30.7498Z"  />
          <path id="path2012" fill="url(#defitem56)" d="M90.1933 23.515C88.065 26.936 85.9536 30.3684 84.0069 33.8977C78.7947 43.8657 74.3153 54.186 71.1914 65.0168C69.4921 70.9159 68.0408 76.8734 66.599 82.8321C63.2638 89.8267 59.8716 96.793 56.4128 103.729C55.9927 104.587 55.5823 105.454 55.1673 106.32L56.9944 105.818C57.4965 104.683 58.0006 103.55 58.507 102.419C60.845 97.3175 63.2006 92.2228 65.5562 87.1289C64.5241 91.3681 63.4672 95.6037 62.3035 99.8127C61.9481 100.911 60.737 103.368 60.2173 104.942L62.8596 104.222C63.7451 102.631 63.951 100.761 64.5868 98.3364C65.7771 92.6604 66.953 86.9892 68.2318 81.343C70.6198 76.1842 73.0076 71.0266 75.3882 65.8644C80.5656 54.4573 86.0175 43.1622 93.306 32.9848L93.0152 32.1053C85.275 42.7339 79.6916 54.6522 74.2279 66.5903C72.5343 70.2459 70.8308 73.8962 69.111 77.539C70.1755 73.0357 71.3218 68.5503 72.6153 64.0945C75.8528 53.144 80.5064 42.735 85.9243 32.7115C87.3963 30.0473 88.995 27.459 90.6496 24.906L90.1933 23.515ZM97.1339 44.6364C96.7028 49.5781 96.0463 54.4977 95.0512 59.3824C92.946 70.8153 90.8021 82.2732 87.5828 93.4555C87.1489 94.8427 85.9183 97.0581 85.7095 97.9946L87.1043 97.6129C87.4491 97.3169 87.8633 96.937 88.3656 96.4522L87.2091 97.5862L87.9013 97.3979C89.28 96.021 89.3371 94.6481 90.0157 91.8747C92.5247 80.8879 94.354 69.7586 96.1679 58.6404C96.9404 54.5987 97.4268 50.5303 97.7268 46.4463L97.1339 44.6364Z"  />
        </g>
        <path id="path2276" fill="#ffffff" fill-opacity="0.756881" stroke-width="0.5" stroke-linecap="round" stroke-linejoin="round" d="M-81.1261 -74.917L-81.1261 -77.712L-81.1261 -74.917Z"  />
        <path id="path3289" fill="url(#defitem57)" stroke-width="0" stroke-linecap="round" stroke-linejoin="round" d="M116.805 122.239C116.805 125.148 92.892 127.507 63.3933 127.507C33.8946 127.507 9.9811 125.148 9.9811 122.239"  />
      </g>
    </g>
  </g>
</svg>
