<?xml version="1.0" encoding="UTF-8" standalone="no"?>
<!-- Created with Inkscape (http://www.inkscape.org/) -->
<svg
   xmlns:dc="http://purl.org/dc/elements/1.1/"
   xmlns:cc="http://creativecommons.org/ns#"
   xmlns:rdf="http://www.w3.org/1999/02/22-rdf-syntax-ns#"
   xmlns:svg="http://www.w3.org/2000/svg"
   xmlns="http://www.w3.org/2000/svg"
   xmlns:xlink="http://www.w3.org/1999/xlink"
   xmlns:sodipodi="http://sodipodi.sourceforge.net/DTD/sodipodi-0.dtd"
   xmlns:inkscape="http://www.inkscape.org/namespaces/inkscape"
   version="1.0"
   width="128"
   height="128"
   id="svg1"
   sodipodi:version="0.32"
   inkscape:version="0.46"
   sodipodi:docname="book_keeping_entry.svg"
   inkscape:output_extension="org.inkscape.output.svg.inkscape">
  <metadata
     id="metadata118">
    <rdf:RDF>
      <cc:Work
         rdf:about="">
        <dc:format>image/svg+xml</dc:format>
        <dc:type
           rdf:resource="http://purl.org/dc/dcmitype/StillImage" />
      </cc:Work>
    </rdf:RDF>
  </metadata>
  <sodipodi:namedview
     inkscape:window-height="480"
     inkscape:window-width="640"
     inkscape:pageshadow="2"
     inkscape:pageopacity="0.0"
     guidetolerance="10.0"
     gridtolerance="10.0"
     objecttolerance="10.0"
     borderopacity="1.0"
     bordercolor="#666666"
     pagecolor="#ffffff"
     id="base"
     showgrid="false" />
  <defs
     id="defs3">
    <inkscape:perspective
       sodipodi:type="inkscape:persp3d"
       inkscape:vp_x="0 : 64 : 1"
       inkscape:vp_y="0 : 1000 : 0"
       inkscape:vp_z="128 : 64 : 1"
       inkscape:persp3d-origin="64 : 42.666667 : 1"
       id="perspective120" />
    <linearGradient
       id="linearGradient4322">
      <stop
         id="stop4324"
         style="stop-color:#000000;stop-opacity:1"
         offset="0" />
      <stop
         id="stop4326"
         style="stop-color:#000000;stop-opacity:0"
         offset="1" />
    </linearGradient>
    <filter
       id="filter3399">
      <feGaussianBlur
         id="feGaussianBlur3401"
         stdDeviation="1.5329888"
         inkscape:collect="always" />
    </filter>
    <filter
       id="filter3403">
      <feGaussianBlur
         id="feGaussianBlur3405"
         stdDeviation="1.5329888"
         inkscape:collect="always" />
    </filter>
    <filter
       id="filter3419">
      <feGaussianBlur
         id="feGaussianBlur3421"
         stdDeviation="2.3103656"
         inkscape:collect="always" />
    </filter>
    <filter
       id="filter3423">
      <feGaussianBlur
         id="feGaussianBlur3425"
         stdDeviation="2.3103656"
         inkscape:collect="always" />
    </filter>
    <filter
       id="filter3427">
      <feGaussianBlur
         id="feGaussianBlur3429"
         stdDeviation="2.3103656"
         inkscape:collect="always" />
    </filter>
    <radialGradient
       cx="56.244659"
       cy="468.56564"
       r="75.944313"
       fx="56.244659"
       fy="468.56564"
       id="radialGradient2476"
       xlink:href="#linearGradient4322"
       gradientUnits="userSpaceOnUse"
       gradientTransform="matrix(0.65,0,0,1.0639388,120.53895,-373.84658)"
       spreadMethod="reflect" />
    <radialGradient
       cx="-112.84918"
       cy="561.89899"
       r="60.841499"
       fx="-112.84918"
       fy="561.89899"
       id="radialGradient2478"
       xlink:href="#linearGradient4322"
       gradientUnits="userSpaceOnUse"
       gradientTransform="matrix(0.65,0,0,1.0597126,153.19012,-447.19161)"
       spreadMethod="reflect" />
    <radialGradient
       cx="63.912209"
       cy="115.70919"
       r="63.912209"
       fx="63.912209"
       fy="115.7093"
       id="radialGradient3336"
       xlink:href="#linearGradient3291"
       gradientUnits="userSpaceOnUse"
       gradientTransform="matrix(1,0,0,0.197802,0,92.82166)" />
    <linearGradient
       id="linearGradient3291">
      <stop
         id="stop3293"
         style="stop-color:#000000;stop-opacity:1"
         offset="0" />
      <stop
         id="stop3295"
         style="stop-color:#000000;stop-opacity:0"
         offset="1" />
    </linearGradient>
    <linearGradient
       y2="122.232"
       x2="64.7554"
       y1="116.609"
       x1="64.7554"
       gradientTransform="translate(-0.755169,0)"
       gradientUnits="userSpaceOnUse"
       id="linearGradient3247"
       xlink:href="#defitem2"
       inkscape:collect="always" />
    <linearGradient
       y2="122.232"
       x2="64.7554"
       y1="127.43"
       x1="64.7554"
       gradientTransform="translate(-0.755169,0)"
       gradientUnits="userSpaceOnUse"
       id="linearGradient3245"
       xlink:href="#defitem1"
       inkscape:collect="always" />
    <radialGradient
       r="61.5363"
       fy="122.232"
       fx="64.7554"
       cy="122.232"
       cx="64.7554"
       gradientTransform="translate(-0.75517,0)"
       gradientUnits="userSpaceOnUse"
       id="radialGradient3243"
       xlink:href="#defitem0"
       inkscape:collect="always" />
    <linearGradient
       y2="122.232"
       x2="64.7554"
       y1="116.609"
       x1="64.7554"
       gradientTransform="translate(-0.755169,0)"
       gradientUnits="userSpaceOnUse"
       id="linearGradient3234"
       xlink:href="#defitem2"
       inkscape:collect="always" />
    <linearGradient
       y2="122.232"
       x2="64.7554"
       y1="127.43"
       x1="64.7554"
       gradientTransform="translate(-0.755169,0)"
       gradientUnits="userSpaceOnUse"
       id="linearGradient3232"
       xlink:href="#defitem1"
       inkscape:collect="always" />
    <radialGradient
       r="61.5363"
       fy="122.232"
       fx="64.7554"
       cy="122.232"
       cx="64.7554"
       gradientTransform="translate(-0.75517,0)"
       gradientUnits="userSpaceOnUse"
       id="radialGradient3230"
       xlink:href="#defitem0"
       inkscape:collect="always" />
    <radialGradient
       gradientTransform="translate(-0.75517,0)"
       r="61.5363"
       fy="122.232"
       fx="64.7554"
       cy="122.232"
       cx="64.7554"
       gradientUnits="userSpaceOnUse"
       id="radialGradient2497"
       xlink:href="#defitem0"
       inkscape:collect="always" />
    <linearGradient
       gradientTransform="translate(-0.755169,0)"
       y2="122.232"
       x2="64.7554"
       y1="127.43"
       x1="64.7554"
       gradientUnits="userSpaceOnUse"
       id="linearGradient2494"
       xlink:href="#defitem1"
       inkscape:collect="always" />
    <linearGradient
       gradientTransform="translate(-0.755169,0)"
       y2="122.232"
       x2="64.7554"
       y1="116.609"
       x1="64.7554"
       gradientUnits="userSpaceOnUse"
       id="linearGradient2491"
       xlink:href="#defitem2"
       inkscape:collect="always" />
    <linearGradient
       y2="122.232"
       x2="64.7554"
       y1="116.609"
       x1="64.7554"
       gradientUnits="userSpaceOnUse"
       id="defitem2">
      <stop
         id="stop17"
         stop-opacity="1"
         offset="0"
         stop-color="#ffffff" />
      <stop
         id="stop19"
         stop-opacity="0"
         offset="1"
         stop-color="#ffffff" />
    </linearGradient>
    <linearGradient
       y2="122.232"
       x2="64.7554"
       y1="127.43"
       x1="64.7554"
       gradientUnits="userSpaceOnUse"
       id="defitem1">
      <stop
         id="stop12"
         stop-opacity="1"
         offset="0"
         stop-color="#ffffff" />
      <stop
         id="stop14"
         stop-opacity="0"
         offset="1"
         stop-color="#ffffff" />
    </linearGradient>
    <radialGradient
       r="61.5363"
       fy="122.232"
       fx="64.7554"
       cy="122.232"
       cx="64.7554"
       gradientUnits="userSpaceOnUse"
       id="defitem0">
      <stop
         id="stop7"
         stop-opacity="1"
         offset="0"
         stop-color="#000000" />
      <stop
         id="stop9"
         stop-opacity="0"
         offset="1"
         stop-color="#000000" />
    </radialGradient>
    <inkscape:perspective
       id="perspective2770"
       inkscape:persp3d-origin="64 : 42.666667 : 1"
       inkscape:vp_z="128 : 64 : 1"
       inkscape:vp_y="0 : 1000 : 0"
       inkscape:vp_x="0 : 64 : 1"
       sodipodi:type="inkscape:persp3d" />
  </defs>
  <g
     id="g2791">
    <g
       id="g2793">
      <path
         id="path2795"
         d=""
         style="fill:#000000" />
    </g>
    <path
       id="path2797"
       d=""
       style="fill:#000000" />
    <g
       id="g2799" />
    <g
       id="g2801" />
    <g
       id="g2803" />
    <g
       id="g11264">
      <path
         id="path11266"
         d=""
         style="fill:#000000" />
    </g>
    <path
       id="path11268"
       d=""
       style="fill:#000000" />
    <g
       id="g11270" />
    <g
       id="g11272" />
    <g
       id="g11274" />
    <path
       id="path2167"
       d=""
       style="fill:#000000" />
    <g
       id="g3036">
      <path
         id="path4922"
         d=""
         style="fill:#000000" />
    </g>
    <path
       id="path4924"
       d=""
       style="fill:#000000" />
    <g
       id="g4926" />
    <g
       id="g4928" />
    <g
       id="g4930" />
    <path
       id="path10095"
       d=""
       style="fill:#000000" />
    <g
       id="g2878" />
    <g
       id="g4938" />
    <g
       id="g4640" />
    <g
       id="g4646" />
    <g
       id="g4730" />
    <g
       id="g4748" />
    <g
       id="g12948">
      <path
         id="path12950"
         d=""
         style="fill:#000000" />
    </g>
    <path
       id="path12952"
       d=""
       style="fill:#000000" />
    <g
       id="g12954" />
    <g
       id="g12956" />
    <g
       id="g12958" />
    <path
       id="path12983"
       d=""
       style="fill:#000000" />
    <g
       id="g12985">
      <path
         id="path12987"
         d=""
         style="fill:#000000" />
    </g>
    <path
       id="path12989"
       d=""
       style="fill:#000000" />
    <g
       id="g12991" />
    <g
       id="g12993" />
    <g
       id="g12995" />
    <path
       id="path12997"
       d=""
       style="fill:#000000" />
    <g
       id="g13007" />
    <g
       id="g13009" />
    <g
       id="g13021" />
    <g
       id="g13023" />
    <g
       id="g13025" />
    <g
       id="g13027" />
    <g
       transform="translate(0,58.59)"
       id="g3236">
      <g
         id="g3225"
         transform="translate(5e-7,-58.02)">
        <path
           id="path1563"
           d="M 127.99983,122.232 C 127.99983,125.097 99.34683,127.42 64.00023,127.42 C 28.65393,127.42 0.00017,125.097 0.00017,122.232 C 0.00017,119.367 28.65393,117.044 64.00023,117.044 C 99.34683,117.044 127.99983,119.367 127.99983,122.232 L 127.99983,122.232 z"
           style="fill:url(#radialGradient3243);stroke-width:0;stroke-linecap:round;stroke-linejoin:round" />
        <path
           id="path3251"
           d="M 127.99983,122.232 L 0.000169,122.232 C 0.000169,125.103 28.653931,127.43 64.000231,127.43 C 99.346831,127.43 127.99983,125.103 127.99983,122.232 L 127.99983,122.232 z"
           style="fill:url(#linearGradient3245);stroke-width:0;stroke-linecap:round;stroke-linejoin:round" />
        <path
           id="path2455"
           d="M 127.99983,122.232 L 0.000169,122.232 C 0.000169,119.127 28.653931,116.61 64.000231,116.61 C 99.346831,116.61 127.99983,119.127 127.99983,122.232 L 127.99983,122.232 z"
           style="fill:url(#linearGradient3247);stroke-width:0;stroke-linecap:round;stroke-linejoin:round" />
      </g>
      <path
         style="opacity:0.65;fill:#ffffff;fill-opacity:1;stroke-width:0;stroke-linecap:round;stroke-linejoin:round"
         d="M 64.000001,58.59375 C 29.758272,58.59375 1.7766162,60.93571 0.06249925,63.90625 C 0.00012425,64.00011 -7.5e-07,64.12362 -7.5e-07,64.21875 C -7.5e-07,64.39781 0.09400325,64.54435 0.31249925,64.71875 C 0.42501225,64.81163 0.54684125,64.90862 0.71874925,65 C 1.8517782,65.60106 4.2703852,66.17293 7.7187492,66.6875 C 9.6892442,66.98211 11.985185,67.24328 14.593751,67.5 C 18.506599,67.88435 23.111513,68.22029 28.21875,68.5 C 33.325987,68.78022 38.956652,69.00438 44.968751,69.15625 C 50.980848,69.30784 57.372569,69.40625 64.000001,69.40625 C 70.627488,69.40625 77.019159,69.30784 83.031251,69.15625 C 89.043342,69.00438 94.674059,68.78022 99.781253,68.5 C 104.88844,68.22029 109.46221,67.88435 113.375,67.5 C 115.98353,67.24328 118.31079,66.98211 120.28125,66.6875 C 123.72955,66.17293 126.117,65.60106 127.25,65 C 127.4219,64.90862 127.54374,64.81163 127.65625,64.71875 C 127.7655,64.63155 127.85096,64.55717 127.90625,64.46875 C 127.96154,64.38015 128,64.30847 128,64.21875 C 128,64.12362 127.96862,64.00011 127.90625,63.90625 C 126.19218,60.93571 98.242019,58.59375 64.000001,58.59375 z"
         id="path2440" />
    </g>
  </g>
  <g
     id="layer1"
     style="opacity:1;display:inline">
    <path
       d=""
       id="path3945"
       style="opacity:1" />
  </g>
  <path
     d=""
     id="path3081" />
  <g
     id="layer2"
     style="display:inline" />
  <g
     id="layer3"
     style="display:inline" />
  <g
     id="layer4"
     style="opacity:1;display:inline" />
  <g
     id="g2450"
     transform="matrix(0.5,0,0,0.5,1.2175385,0.8345494)">
    <path
       id="path2855"
       d="" />
    <g
       style="opacity:0.51807233;display:block;filter:url(#filter3427)"
       id="g1429"
       transform="matrix(0.8846968,0,0,0.5131718,63.820955,-155.55299)">
      <rect
         style="opacity:1;fill:#ffffff;fill-opacity:1;fill-rule:evenodd;stroke-width:4;stroke-linecap:round;stroke-miterlimit:4;stroke-dasharray:none;stroke-opacity:1"
         id="rect2860"
         y="510.75998"
         x="-36.576363"
         height="74.679955"
         width="94.464447" />
      <rect
         style="fill:#7d4694;fill-opacity:0.43621401;stroke:#000000;stroke-width:5.37648726;stroke-linecap:round;stroke-miterlimit:4;stroke-dasharray:none;stroke-opacity:1"
         id="rect2862"
         transform="matrix(0,-1,1,0,0,0)"
         y="-31.868153"
         x="-576.27802"
         height="84.46225"
         width="56.356121" />
    </g>
    <g
       style="opacity:0.51807233;display:block;filter:url(#filter3403)"
       id="g2864"
       transform="matrix(0.7824928,0,0,0.65,93.782315,-200.61424)">
      <path
         style="font-size:18px;font-style:normal;font-variant:normal;font-weight:bold;font-stretch:normal;text-align:start;line-height:125%;writing-mode:lr-tb;text-anchor:start;fill:#ffffff;fill-opacity:1;stroke:#ffffff;stroke-width:9.56185436;stroke-linecap:butt;stroke-linejoin:miter;stroke-miterlimit:4;stroke-dasharray:none;stroke-opacity:1;font-family:Bitstream Vera Sans"
         id="path2866"
         d="M -31.821712,373.21275 L -31.821712,429.33607 L -25.568028,429.33607 C -18.438289,429.33607 -13.000306,426.93342 -9.2541011,422.12813 C -5.4777686,417.32289 -3.5896023,410.34081 -3.5895298,401.18202 C -3.5896023,392.0643 -5.4626563,385.12334 -9.2087642,380.35913 C -12.954969,375.595 -18.408089,373.21285 -25.568028,373.21275 L -31.821712,373.21275 M -49.268578,355.28541 L -30.870073,355.28541 C -20.598356,355.28549 -12.954969,356.29165 -7.939936,358.30407 C -2.894727,360.27551 1.4254547,363.64334 5.0206331,368.40751 C 8.1927156,372.55569 10.54917,377.34045 12.089995,382.76177 C 13.630675,388.18312 14.401088,394.32321 14.401136,401.18202 C 14.401088,408.123 13.630675,414.32468 12.089995,419.7871 C 10.54917,425.20847 8.1927156,429.99318 5.0206331,434.14136 C 1.3952543,438.90558 -2.955152,442.29385 -8.0305131,444.30632 C -13.106043,446.27776 -20.719206,447.26348 -30.870073,447.26348 L -49.268578,447.26348 L -49.268578,355.28541" />
      <path
         style="font-size:18px;font-style:normal;font-variant:normal;font-weight:bold;font-stretch:normal;text-align:start;line-height:125%;writing-mode:lr-tb;text-anchor:start;fill:#000000;fill-opacity:1;stroke:none;stroke-width:1px;stroke-linecap:butt;stroke-linejoin:miter;stroke-opacity:1;font-family:Bitstream Vera Sans"
         id="path2868"
         d="M -31.821704,373.21279 L -31.821704,429.33611 L -25.568019,429.33611 C -18.438281,429.33611 -13.000297,426.93346 -9.2540926,422.12817 C -5.4777601,417.32293 -3.5895938,410.34085 -3.5895213,401.18206 C -3.5895938,392.06434 -5.4626478,385.12338 -9.2087557,380.35917 C -12.95496,375.59504 -18.40808,373.21289 -25.568019,373.21279 L -31.821704,373.21279 M -49.268569,355.28545 L -30.870065,355.28545 C -20.598347,355.28552 -12.95496,356.29169 -7.9399275,358.30411 C -2.8947185,360.27555 1.4254632,363.64338 5.0206416,368.40755 C 8.1927241,372.55573 10.549178,377.34049 12.090003,382.76181 C 13.630684,388.18316 14.401096,394.32325 14.401145,401.18206 C 14.401096,408.12304 13.630684,414.32472 12.090003,419.78714 C 10.549178,425.20851 8.1927241,429.99322 5.0206416,434.1414 C 1.3952627,438.90562 -2.9551435,442.29389 -8.0305046,444.30636 C -13.106035,446.2778 -20.719197,447.26352 -30.870065,447.26352 L -49.268569,447.26352 L -49.268569,355.28545" />
    </g>
    <g
       style="opacity:0.51807233;display:block;filter:url(#filter3399)"
       id="g2870"
       transform="matrix(0.7824928,0,0,0.65,103.9892,-200.61418)">
      <path
         style="font-size:18px;font-style:normal;font-variant:normal;font-weight:bold;font-stretch:normal;text-align:start;line-height:125%;writing-mode:lr-tb;text-anchor:start;fill:#ffffff;fill-opacity:1;stroke:#ffffff;stroke-width:9.56185436;stroke-linecap:butt;stroke-linejoin:miter;stroke-miterlimit:4;stroke-dasharray:none;stroke-opacity:1;font-family:Bitstream Vera Sans"
         id="path2872"
         d="M 62.65793,355.28539 L 80.104795,355.28539 L 80.104795,390.33935 L 105.84454,390.33935 L 105.84454,355.28539 L 123.29143,355.28539 L 123.29143,447.26348 L 105.84454,447.26348 L 105.84454,408.26678 L 80.104795,408.26678 L 80.104795,447.26348 L 62.65793,447.26348 L 62.65793,355.28539" />
      <path
         style="font-size:18px;font-style:normal;font-variant:normal;font-weight:bold;font-stretch:normal;text-align:start;line-height:125%;writing-mode:lr-tb;text-anchor:start;fill:#000000;fill-opacity:1;stroke:none;stroke-width:1px;stroke-linecap:butt;stroke-linejoin:miter;stroke-opacity:1;font-family:Bitstream Vera Sans"
         id="path2874"
         d="M 62.657929,355.28543 L 80.104794,355.28543 L 80.104794,390.33939 L 105.84454,390.33939 L 105.84454,355.28543 L 123.29143,355.28543 L 123.29143,447.26352 L 105.84454,447.26352 L 105.84454,408.26682 L 80.104794,408.26682 L 80.104794,447.26352 L 62.657929,447.26352 L 62.657929,355.28543" />
    </g>
    <g
       style="display:block"
       id="g5050"
       transform="matrix(0.65,0,0,0.65,139.88779,-199.23793)">
      <path
         style="fill:none;fill-opacity:0.75;fill-rule:evenodd;stroke:#ffffff;stroke-width:12;stroke-linecap:round;stroke-linejoin:miter;stroke-miterlimit:4;stroke-dasharray:none;stroke-opacity:1"
         id="path2134"
         d="M -169.89153,458.47386 L 125.82117,458.47386" />
      <g
         id="g5046">
        <path
           style="fill:none;fill-opacity:0.75;fill-rule:evenodd;stroke:#ffffff;stroke-width:12;stroke-linecap:round;stroke-linejoin:miter;stroke-miterlimit:4;stroke-dasharray:none;stroke-opacity:1"
           id="path2136"
           d="M -22.03518,606.64472 L -22.03518,357.43478" />
        <path
           style="fill:none;fill-opacity:0.75;fill-rule:evenodd;stroke:#000000;stroke-width:3.67204237;stroke-linecap:round;stroke-linejoin:miter;stroke-miterlimit:4;stroke-dasharray:none;stroke-opacity:1"
           id="path2124"
           d="M -22.03518,606.64472 L -22.03518,357.43478" />
      </g>
      <path
         style="fill:none;fill-opacity:0.75;fill-rule:evenodd;stroke:#000000;stroke-width:4;stroke-linecap:round;stroke-linejoin:miter;stroke-miterlimit:4;stroke-dasharray:none;stroke-opacity:1"
         id="path1401"
         d="M -169.89153,458.47386 L 125.82117,458.47386" />
    </g>
    <g
       style="opacity:0.51807233;display:block;filter:url(#filter3423)"
       id="g5057"
       transform="matrix(0.8846968,0,0,0.5131718,172.39617,-115.01048)">
      <rect
         style="opacity:1;fill:#ffffff;fill-opacity:1;fill-rule:evenodd;stroke-width:4;stroke-linecap:round;stroke-miterlimit:4;stroke-dasharray:none;stroke-opacity:1"
         id="rect5059"
         y="510.75998"
         x="-36.576363"
         height="74.679955"
         width="94.464447" />
      <rect
         style="fill:#7d4694;fill-opacity:0.43621401;stroke:#000000;stroke-width:5.37648726;stroke-linecap:round;stroke-miterlimit:4;stroke-dasharray:none;stroke-opacity:1"
         id="rect5061"
         transform="matrix(0,-1,1,0,0,0)"
         y="-31.868153"
         x="-576.27802"
         height="84.46225"
         width="56.356121" />
    </g>
    <g
       style="opacity:0.51807233;display:block;filter:url(#filter3419)"
       id="g5063"
       transform="matrix(0.8846968,0,0,0.5131718,172.39617,-74.681095)">
      <rect
         style="opacity:1;fill:#ffffff;fill-opacity:1;fill-rule:evenodd;stroke-width:4;stroke-linecap:round;stroke-miterlimit:4;stroke-dasharray:none;stroke-opacity:1"
         id="rect5065"
         y="510.75998"
         x="-36.576363"
         height="74.679955"
         width="94.464447" />
      <rect
         style="fill:#7d4694;fill-opacity:0.43621401;stroke:#000000;stroke-width:5.37648726;stroke-linecap:round;stroke-miterlimit:4;stroke-dasharray:none;stroke-opacity:1"
         id="rect2887"
         transform="matrix(0,-1,1,0,0,0)"
         y="-31.868153"
         x="-576.27802"
         height="84.46225"
         width="56.356121" />
    </g>
    <path
       style="font-size:144px;font-style:normal;font-variant:normal;font-weight:bold;font-stretch:normal;text-align:start;line-height:125%;writing-mode:lr-tb;text-anchor:start;fill:#ff0000;fill-opacity:0.78431373;stroke:url(#radialGradient2476);stroke-width:3.9000001;stroke-linecap:butt;stroke-linejoin:miter;stroke-miterlimit:4;stroke-dasharray:none;stroke-opacity:1;display:block;font-family:Bitstream Vera Sans"
       id="text2137"
       d="M 168.61424,151.23859 L 131.16045,151.23859 L 131.16045,146.15483 C 131.16041,140.48323 132.30166,135.46863 134.5842,131.11107 C 136.86666,126.68447 141.67375,121.08195 149.00547,114.30355 L 155.64548,108.28603 C 159.58792,104.68947 162.45833,101.3003 164.25674,98.118532 C 166.12417,94.936964 167.05792,91.755305 167.05799,88.573523 C 167.05792,83.731965 165.39792,79.962381 162.07799,77.264758 C 158.75792,74.498227 154.12375,73.114884 148.17547,73.114754 C 142.57291,73.114884 136.52083,74.290715 130.0192,76.642253 C 123.5175,78.92487 116.73916,82.348635 109.68418,86.913513 L 109.68418,54.335975 C 118.05333,51.431131 125.69625,49.286957 132.61295,47.903478 C 139.52958,46.520297 146.20417,45.828638 152.63672,45.82847 C 169.51334,45.828638 182.37834,49.286957 191.23178,56.203483 C 200.085,63.05113 204.51167,73.080304 204.51178,86.291015 C 204.51167,93.069468 203.16293,99.156127 200.46553,104.55104 C 197.76792,109.87697 193.16834,115.6178 186.66676,121.77356 L 180.02676,127.68731 C 175.32334,131.97572 172.24542,135.43406 170.793,138.06232 C 169.34042,140.62156 168.61417,143.45739 168.61424,146.56982 L 168.61424,151.23859 M 131.16045,166.59361 L 168.61424,166.59361 L 168.61424,203.52865 L 131.16045,203.52865 L 131.16045,166.59361" />
    <path
       style="font-size:144px;font-style:normal;font-variant:normal;font-weight:bold;font-stretch:normal;text-align:start;line-height:125%;writing-mode:lr-tb;text-anchor:start;fill:#ff0000;fill-opacity:0.78431373;stroke:url(#radialGradient2478);stroke-width:3.9000001;stroke-linecap:butt;stroke-linejoin:miter;stroke-miterlimit:4;stroke-dasharray:none;stroke-opacity:1;display:block;font-family:Bitstream Vera Sans"
       id="path2142"
       d="M 70.706288,127.19906 L 100.40542,127.19906 L 100.40542,131.23026 C 100.40545,135.72758 99.500494,139.70392 97.690542,143.15927 C 95.880656,146.66936 92.06886,151.11189 86.255138,156.48686 L 80.989917,161.25848 C 77.863744,164.11039 75.587639,166.79784 74.161584,169.32084 C 72.680799,171.84368 71.940378,174.36659 71.940319,176.88959 C 71.940378,180.72874 73.256687,183.71784 75.889239,185.85693 C 78.521902,188.05067 82.196577,189.14759 86.913295,189.14769 C 91.355862,189.14759 96.154885,188.21521 101.31039,186.35055 C 106.46593,184.54054 111.84085,181.82565 117.43512,178.2059 L 117.43512,204.0384 C 110.79877,206.34182 104.73828,208.04205 99.253655,209.13908 C 93.769087,210.23588 88.476446,210.78433 83.375722,210.78447 C 69.993342,210.78433 59.791982,208.04205 52.771618,202.55755 C 45.75141,197.12769 42.241267,189.17501 42.241176,178.69952 C 42.241267,173.32452 43.310757,168.49808 45.449667,164.22016 C 47.588746,159.99694 51.236006,155.44473 56.391461,150.5635 L 61.656682,145.87416 C 65.386278,142.47364 67.826931,139.73134 68.978627,137.64725 C 70.130453,135.61788 70.70634,133.3692 70.706288,130.90118 L 70.706288,127.19906 M 100.40542,115.02324 L 70.706288,115.02324 L 70.706288,85.73544 L 100.40542,85.73544 L 100.40542,115.02324" />
  </g>
</svg>
