<?xml version="1.0" standalone="no"?>
<!DOCTYPE svg PUBLIC "-//W3C//DTD SVG 20010904//EN" "http://www.w3.org/TR/2001/REC-SVG-20010904/DTD/svg10.dtd">
<!-- Created using Karbon14, part of koffice: http://www.koffice.org/karbon -->
<svg xmlns="http://www.w3.org/2000/svg" xmlns:xlink="http://www.w3.org/1999/xlink" width="128px" height="128px">
  <defs>
    <linearGradient id="defitem15" gradientUnits="userSpaceOnUse" x1="39.7373" y1="104.128" x2="11.255" y2="57.2155" >
      <stop stop-color="#f9f9f9" offset="0" stop-opacity="1" />
      <stop stop-color="#dbdbdb" offset="1" stop-opacity="1" />
    </linearGradient>
    <linearGradient id="defitem16" gradientUnits="userSpaceOnUse" x1="35.6698" y1="59.9842" x2="0.353306" y2="94.1185" >
      <stop stop-color="#dbd6d4" offset="0" stop-opacity="1" />
      <stop stop-color="#f9f9f8" offset="1" stop-opacity="1" />
    </linearGradient>
    <linearGradient id="defitem17" gradientUnits="userSpaceOnUse" x1="91.1127" y1="115.613" x2="80.6373" y2="85.0222" >
      <stop stop-color="#000000" offset="0" stop-opacity="1" />
      <stop stop-color="#000000" offset="1" stop-opacity="0" />
    </linearGradient>
    <linearGradient id="defitem18" gradientUnits="userSpaceOnUse" x1="69.9462" y1="79.1218" x2="-16.2136" y2="58.9852" >
      <stop stop-color="#dbd6d4" offset="0" stop-opacity="1" />
      <stop stop-color="#f9f9f8" offset="1" stop-opacity="1" />
    </linearGradient>
    <linearGradient id="defitem19" gradientUnits="userSpaceOnUse" x1="69.9462" y1="79.1218" x2="43.0265" y2="84.0386" >
      <stop stop-color="#dbd6d4" offset="0" stop-opacity="1" />
      <stop stop-color="#f9f9f8" offset="1" stop-opacity="1" />
    </linearGradient>
    <linearGradient id="defitem20" gradientUnits="userSpaceOnUse" x1="69.9462" y1="79.1218" x2="157.894" y2="94.3068" >
      <stop stop-color="#dbd6d4" offset="0" stop-opacity="1" />
      <stop stop-color="#f9f9f8" offset="1" stop-opacity="1" />
    </linearGradient>
    <linearGradient id="defitem21" gradientUnits="userSpaceOnUse" x1="69.9462" y1="79.1218" x2="99.7248" y2="59.3282" >
      <stop stop-color="#dbd6d4" offset="0" stop-opacity="1" />
      <stop stop-color="#f9f9f8" offset="1" stop-opacity="1" />
    </linearGradient>
    <linearGradient id="defitem22" gradientUnits="userSpaceOnUse" x1="-18.74" y1="33" x2="101.729" y2="59.8345" >
      <stop stop-color="#acacac" offset="0" stop-opacity="1" />
      <stop stop-color="#acacac" offset="1" stop-opacity="0" />
    </linearGradient>
    <linearGradient id="defitem23" gradientUnits="userSpaceOnUse" x1="60.1259" y1="67.4763" x2="69.5339" y2="63.1957" >
      <stop stop-color="#000000" offset="0" stop-opacity="1" />
      <stop stop-color="#000000" offset="0.5" stop-opacity="0.274368" />
      <stop stop-color="#000000" offset="0.75" stop-opacity="0.0938628" />
      <stop stop-color="#000000" offset="1" stop-opacity="0" />
    </linearGradient>
    <linearGradient id="defitem24" gradientUnits="userSpaceOnUse" x1="21.4911" y1="71.1568" x2="30.616" y2="67.7292" >
      <stop stop-color="#000000" offset="0" stop-opacity="1" />
      <stop stop-color="#000000" offset="1" stop-opacity="0" />
    </linearGradient>
    <linearGradient id="defitem25" gradientUnits="userSpaceOnUse" x1="39.383" y1="59.6986" x2="4.06658" y2="93.8328" >
      <stop stop-color="#dbd6d4" offset="0" stop-opacity="1" />
      <stop stop-color="#f9f9f8" offset="1" stop-opacity="1" />
    </linearGradient>
    <linearGradient id="defitem26" gradientUnits="userSpaceOnUse" x1="35.9018" y1="62.3685" x2="0.24409" y2="97.9372" >
      <stop stop-color="#dbd6d4" offset="0" stop-opacity="1" />
      <stop stop-color="#f9f9f8" offset="1" stop-opacity="1" />
    </linearGradient>
    <linearGradient id="defitem27" gradientUnits="userSpaceOnUse" x1="5.61349" y1="57.6785" x2="9.56003" y2="56.7287" >
      <stop stop-color="#ffffff" offset="0" stop-opacity="1" />
      <stop stop-color="#ffffff" offset="1" stop-opacity="0" />
    </linearGradient>
    <linearGradient id="defitem28" gradientUnits="userSpaceOnUse" x1="75" y1="77" x2="67" y2="81" >
      <stop stop-color="#000000" offset="0" stop-opacity="1" />
      <stop stop-color="#000000" offset="0.5" stop-opacity="0.274368" />
      <stop stop-color="#000000" offset="0.75" stop-opacity="0.0938628" />
      <stop stop-color="#000000" offset="1" stop-opacity="0" />
    </linearGradient>
    <linearGradient id="defitem29" gradientUnits="userSpaceOnUse" x1="34.8907" y1="81.4265" x2="24.3887" y2="95.4522" >
      <stop stop-color="#acacac" offset="0" stop-opacity="1" />
      <stop stop-color="#acacac" offset="1" stop-opacity="0" />
    </linearGradient>
  </defs>
  <g id="Layer">
    <g id="g3878">
      <path id="path3752" fill="none" stroke="#000000" stroke-opacity="0.22" stroke-width="0.938716" stroke-linejoin="round" d="M81.0928 13.167C69.1744 16.432 52.6643 26.701 50.9971 34.3807L49.6753 34.8062C44.3522 29.7281 26.8588 30.8088 17.5243 32.4884C17.1593 32.5541 16.6792 32.6385 16.483 32.5155L16.7178 33.3466L14.0974 33.5834C11.3425 38.0821 8.71761 42.6587 7.45354 48.0518L4.28265 49.2236L22.2867 115.632L123.529 79.6962L87.0231 22.665L86.9418 22.692L81.0928 13.167Z"  fill-rule="evenodd" />
      <path id="path3870" fill="none" stroke="#000000" stroke-opacity="0.17" stroke-width="2.81615" stroke-linejoin="round" d="M81.0928 14.106C69.1744 17.371 52.6643 27.64 50.9971 35.3194L49.6753 35.7449C44.3522 30.6668 26.8588 31.7475 17.5243 33.4271C17.1593 33.4928 16.6792 33.5772 16.483 33.4543L16.7178 34.2853L14.0974 34.5221C11.3425 39.0208 8.71761 43.5974 7.45354 48.9905L4.28265 50.1623L22.2867 116.57L123.529 80.6349L87.0231 23.603L86.9418 23.631L81.0928 14.106Z"  fill-rule="evenodd" />
      <path id="path3872" fill="none" stroke="#000000" stroke-opacity="0.13" stroke-width="4.69358" stroke-linejoin="round" d="M81.0928 14.669C69.1744 17.934 52.6643 28.2034 50.9971 35.8826L49.6753 36.3082C44.3522 31.2301 26.8588 32.3107 17.5243 33.9903C17.1593 34.056 16.6792 34.1404 16.483 34.0175L16.7178 34.8485L14.0974 35.0853C11.3425 39.584 8.71761 44.1606 7.45354 49.5538L4.28265 50.7255L22.2867 117.134L123.529 81.1982L87.0231 24.167L86.9418 24.194L81.0928 14.669Z"  fill-rule="evenodd" />
      <path id="path3874" fill="none" stroke="#000000" stroke-opacity="0.08" stroke-width="6.57101" stroke-linejoin="round" d="M81.0928 15.138C69.1744 18.404 52.6643 28.6728 50.9971 36.352L49.6753 36.7775C44.3522 31.6994 26.8588 32.7801 17.5243 34.4597C17.1593 34.5254 16.6792 34.6098 16.483 34.4868L16.7178 35.3179L14.0974 35.5547C11.3425 40.0534 8.71761 44.63 7.45354 50.0231L4.28265 51.1949L22.2867 117.603L123.529 81.6675L87.0231 24.636L86.9418 24.663L81.0928 15.138Z"  fill-rule="evenodd" />
      <path id="path3876" fill="none" stroke="#000000" stroke-opacity="0.05" stroke-width="8.44844" stroke-linejoin="round" d="M81.0928 15.42C69.1744 18.685 52.6643 28.9544 50.9971 36.6336L49.6753 37.0591C44.3522 31.981 26.8588 33.0617 17.5243 34.7413C17.1593 34.807 16.6792 34.8914 16.483 34.7685L16.7178 35.5995L14.0974 35.8363C11.3425 40.335 8.71761 44.9116 7.45354 50.3048L4.28265 51.4765L22.2867 117.885L123.529 81.9491L87.0231 24.918L86.9418 24.945L81.0928 15.42Z"  fill-rule="evenodd" />
    </g>
    <path id="path1881" fill="#000000" stroke="#000000" stroke-width="0.406269" stroke-linejoin="round" d="M21.8948 115.939L123.296 79.9483L86.7343 22.821L4.18532 49.6708L21.8948 115.939Z"  fill-rule="evenodd" />
    <path id="path2768" fill="url(#defitem15)" d="M25.3526 111.939C40.6264 106.426 57.405 96.7749 70.7688 96.5144L82.4799 92.2298C95.0473 84.4325 107.301 81.9631 119.613 78.5193L83.4838 20.849L51.8177 38.0598L16.263 32.8111L16.08 32.6901L16.3821 33.7422L14.0744 34.0723L12.9957 36.0693L12.4914 36.4887L11.3457 38.2263L10.7423 39.7312L9.88935 40.8846L9.63457 42.9678L8.65699 43.7794L7.93657 45.9688L7.35747 48.2418L25.3526 111.939Z"  fill-rule="evenodd" />
    <path id="path2834" fill="url(#defitem16)" d="M35.4024 101.488C43.4929 97.1328 71.0625 89.3668 75.612 94.1553L50.7016 37.1477C48.3437 29.3814 24.0496 33.3199 14.0665 34.0566L35.4024 101.488Z"  fill-rule="evenodd" />
    <path id="path2875" fill="url(#defitem17)" d="M25.3526 111.939C40.6264 106.426 57.405 96.7749 70.7688 96.5144L82.4799 92.2298C95.0473 84.4325 107.301 81.9631 119.613 78.5193L118.256 76.3675C112.814 66.9419 47.5845 81.8356 25.3526 111.939Z"  fill-rule="evenodd" />
    <path id="path2810" fill="url(#defitem18)" d="M36.8305 100.06C44.9211 95.7046 70.2882 88.8618 74.8377 93.6504L50.7016 37.1477C48.3437 29.3814 24.3352 33.1771 14.3521 33.9138L36.8305 100.06Z"  fill-rule="evenodd" />
    <path id="path2770" fill="url(#defitem19)" d="M39.8746 96.8752C40.0725 96.9084 40.4944 96.9862 40.9276 96.821C49.9565 93.3762 71.4054 89.7375 75.7466 94.3068L50.7016 37.1477C48.4106 29.6015 27.3902 30.7909 16.9498 32.6982C16.6453 32.7539 16.2201 32.7864 16.0773 32.6896L39.8746 96.8752Z"  fill-rule="evenodd" />
    <path id="path2824" fill="url(#defitem20)" d="M118.363 76.331C107.113 79.6302 83.3325 80.6482 76.5713 92.9098L50.7016 37.1477C48.3437 29.3814 67.4509 16.971 80.796 13.315L118.363 76.331Z"  fill-rule="evenodd" />
    <path id="path2788" fill="url(#defitem21)" d="M116.748 71.8875C105.498 75.1867 82.5077 82.0452 75.7466 94.3068L50.7016 37.1477C48.3437 29.3814 67.4509 16.971 80.796 13.315L116.748 71.8875Z"  fill-rule="evenodd" />
    <path id="path1945" fill="url(#defitem22)" d="M60.4253 58.0149C65.5004 39.4008 84.9014 35.4317 92.9326 33L101.729 47.0228C85.7981 43.8588 67.6959 53.22 61.8839 61.9379C53.8904 54.6619 40.8911 72.6166 36.3543 87.4489L35.8262 86.0382C38.699 68.7993 53.6597 50.9665 60.4253 58.0149Z"  fill-rule="evenodd" />
    <path id="path2792" fill="url(#defitem23)" d="M100.186 60.9809C97.8225 70.3393 82.5077 82.0452 75.7466 94.3068L50.7016 37.1477C48.3437 29.3814 67.4509 16.971 80.796 13.315L100.186 60.9809Z"  fill-rule="evenodd" />
    <path id="path2838" fill="url(#defitem24)" d="M39.8737 96.8723C40.1335 96.9841 40.5982 96.9573 41.1085 96.7664C50.252 93.3444 71.4376 89.7714 75.7466 94.3068L50.7016 37.1477C48.4231 29.6428 27.6194 30.7782 17.1219 32.667C16.7563 32.7328 16.2724 32.8114 16.0759 32.6882L39.8737 96.8723Z"  fill-rule="evenodd" />
    <path id="path2852" fill="url(#defitem25)" d="M71.9429 94.4042C61.9821 93.3336 37.9913 101.413 30.6089 105.848L29.6946 106.791C36.9825 102.149 64.4221 92.5955 73.327 94.5731C72.7022 94.4735 72.7275 94.4048 71.9429 94.4042Z"  fill-rule="evenodd" />
    <path id="path2865" fill="url(#defitem26)" d="M70.911 95.4146C60.4319 94.7569 35.4969 103.971 27.9365 108.708L27.0187 109.814C34.4718 104.874 63.327 94.0545 72.7356 95.6622C72.0769 95.5885 71.7332 95.3827 70.911 95.4146Z"  fill-rule="evenodd" />
    <path id="path2871" fill="#e1dddb" d="M79.5861 93.2949C78.6309 90.787 98.3631 80.584 119.277 78.1992L119.277 78.0646C97.3191 81.2293 80.1957 88.9934 79.5861 93.2949Z"  fill-rule="evenodd" />
    <path id="path2873" fill="#e1dddb" d="M77.8357 93.2949C78.4179 87.0403 97.8682 79.4359 118.943 77.5803L118.943 77.4457C98.0538 80.0803 79.0721 86.8195 77.8357 93.2949Z"  fill-rule="evenodd" />
    <path id="path2887" fill="url(#defitem27)" d="M4.38453 49.8702L14.7508 88.1905L22.0689 115.243C17.3127 93.091 10.7386 73.2345 5.07352 49.9989C5.01732 49.6086 6.5017 49.1895 7.2158 48.7849L4.47794 49.6447C4.40488 49.6833 4.33479 49.7292 4.38453 49.8702Z"  fill-rule="evenodd" />
    <path id="path2897" fill="#e6e2df" d="M8.27944 45.5767L27.8932 107.084L8.66029 44.0533L8.27944 45.5767Z"  fill-rule="evenodd" />
    <path id="path2899" fill="#e6e2df" d="M10.4455 40.0544L31.1585 105.306L31.4048 105.067L10.9454 39.2689L10.4455 40.0544Z"  fill-rule="evenodd" />
    <path id="path2920" fill="#9c0e0e" d="M47.2851 33.5583L58.8995 63.6976C60.9562 69.4977 68.1156 76.9837 69.3436 79.7707C68.9846 79.4117 68.6255 79.0526 68.2664 78.6935C67.1544 76.1797 61.2178 70.7337 58.1701 63.4398L46.5024 33.331L47.2851 33.5583Z"  fill-rule="evenodd" />
    <path id="path1939" fill="url(#defitem28)" d="M50.1944 79.2173C47.8312 88.5758 70.5109 90.3548 75.7466 94.3068L50.7016 37.1477C49.2361 32.3453 40.6212 31.9069 40.5153 31.8838L50.1944 79.2173Z"  fill-rule="evenodd" />
    <path id="path3781" fill="url(#defitem29)" d="M34.8907 83.2536C34.7773 84.4388 32.2314 88.4543 31.5608 89.3628C27.9275 90.9087 24.0622 93.2419 20.7171 95.4522L20.5364 94.798C23.8394 92.2765 27.5433 90.1854 31.2509 88.5875C31.7665 87.5669 34.0717 83.6382 34.5233 82.2387L34.8907 83.2536Z"  fill-rule="evenodd" />
  </g>
</svg>
