<?xml version="1.0" standalone="no"?>
<!DOCTYPE svg PUBLIC "-//W3C//DTD SVG 20010904//EN" "http://www.w3.org/TR/2001/REC-SVG-20010904/DTD/svg10.dtd">
<!-- Created using Karbon14, part of koffice: http://www.koffice.org/karbon -->
<svg xmlns="http://www.w3.org/2000/svg" xmlns:xlink="http://www.w3.org/1999/xlink" width="128px" height="128px">
  <defs>
    <radialGradient id="defitem60" gradientUnits="userSpaceOnUse" cx="64.0001" cy="85.7363" fx="4.00012" fy="4" r="69.5689" >
      <stop stop-color="#ededed" offset="0" stop-opacity="1" />
      <stop stop-color="#e4e4e4" offset="0.213" stop-opacity="1" />
      <stop stop-color="#cacaca" offset="0.5672" stop-opacity="1" />
      <stop stop-color="#bababa" offset="0.7515" stop-opacity="1" />
      <stop stop-color="#878787" offset="0.9704" stop-opacity="1" />
    </radialGradient>
    <radialGradient id="defitem61" gradientUnits="userSpaceOnUse" cx="64" cy="122.812" fx="64" fy="122.812" r="64" >
      <stop stop-color="#000000" offset="0" stop-opacity="1" />
      <stop stop-color="#000000" offset="1" stop-opacity="0" />
    </radialGradient>
    <linearGradient id="defitem62" gradientUnits="userSpaceOnUse" x1="64.0001" y1="28.6226" x2="64.0001" y2="71.3409" >
      <stop stop-color="#878787" offset="0" stop-opacity="1" />
      <stop stop-color="#bababa" offset="1" stop-opacity="1" />
    </linearGradient>
    <linearGradient id="defitem63" gradientUnits="userSpaceOnUse" x1="64.0011" y1="83.2705" x2="64.0011" y2="77.3035" >
      <stop stop-color="#000000" offset="0.3669" stop-opacity="1" />
      <stop stop-color="#ffffff" offset="1" stop-opacity="1" />
    </linearGradient>
    <linearGradient id="defitem64" gradientUnits="userSpaceOnUse" x1="63.9996" y1="59.8672" x2="63.9996" y2="103.868" >
      <stop stop-color="#bfc1bc" offset="0" stop-opacity="1" />
      <stop stop-color="#cfd1cc" offset="0.1635" stop-opacity="1" />
      <stop stop-color="#dbdbdd" offset="0.5601" stop-opacity="1" />
      <stop stop-color="#afafb6" offset="0.7343" stop-opacity="1" />
      <stop stop-color="#878791" offset="0.8757" stop-opacity="1" />
    </linearGradient>
    <linearGradient id="defitem65" gradientUnits="userSpaceOnUse" x1="64.0006" y1="103.867" x2="64.0006" y2="59.8677" >
      <stop stop-color="#878787" offset="0" stop-opacity="1" />
      <stop stop-color="#bababa" offset="0.071" stop-opacity="1" />
      <stop stop-color="#dddddd" offset="0.284" stop-opacity="1" />
      <stop stop-color="#ffffff" offset="0.5917" stop-opacity="1" />
      <stop stop-color="#ededed" offset="0.9467" stop-opacity="1" />
      <stop stop-color="#ffffff" offset="1" stop-opacity="1" />
    </linearGradient>
    <linearGradient id="defitem66" gradientUnits="userSpaceOnUse" x1="63.9669" y1="75.9824" x2="63.9669" y2="61.9829" >
      <stop stop-color="#313131" offset="0" stop-opacity="1" />
      <stop stop-color="#545454" offset="0.4438" stop-opacity="1" />
      <stop stop-color="#545454" offset="0.5917" stop-opacity="1" />
      <stop stop-color="#545454" offset="0.7811" stop-opacity="1" />
      <stop stop-color="#575757" offset="0.8168" stop-opacity="1" />
      <stop stop-color="#606060" offset="0.8429" stop-opacity="1" />
      <stop stop-color="#707070" offset="0.8659" stop-opacity="1" />
      <stop stop-color="#878787" offset="0.8872" stop-opacity="1" />
      <stop stop-color="#878787" offset="0.8876" stop-opacity="1" />
      <stop stop-color="#ededed" offset="0.9586" stop-opacity="1" />
    </linearGradient>
    <linearGradient id="defitem67" gradientUnits="userSpaceOnUse" x1="63.9669" y1="38.2354" x2="63.9669" y2="57.8077" >
      <stop stop-color="#313131" offset="0" stop-opacity="1" />
      <stop stop-color="#545454" offset="0.4438" stop-opacity="1" />
      <stop stop-color="#545454" offset="0.5917" stop-opacity="1" />
      <stop stop-color="#545454" offset="0.7811" stop-opacity="1" />
      <stop stop-color="#575757" offset="0.8168" stop-opacity="1" />
      <stop stop-color="#606060" offset="0.8429" stop-opacity="1" />
      <stop stop-color="#707070" offset="0.8659" stop-opacity="1" />
      <stop stop-color="#878787" offset="0.8872" stop-opacity="1" />
      <stop stop-color="#878787" offset="0.8876" stop-opacity="1" />
      <stop stop-color="#bababa" offset="1" stop-opacity="1" />
    </linearGradient>
    <linearGradient id="defitem68" gradientUnits="userSpaceOnUse" x1="27.5846" y1="75.9824" x2="27.5846" y2="44.1196" >
      <stop stop-color="#545454" offset="0.0059" stop-opacity="1" />
      <stop stop-color="#878787" offset="0.1183" stop-opacity="1" />
      <stop stop-color="#8c8c8c" offset="0.2215" stop-opacity="1" />
      <stop stop-color="#999999" offset="0.3335" stop-opacity="1" />
      <stop stop-color="#afafaf" offset="0.4491" stop-opacity="1" />
      <stop stop-color="#bababa" offset="0.5" stop-opacity="1" />
      <stop stop-color="#a7a7a7" offset="0.5612" stop-opacity="1" />
      <stop stop-color="#838383" offset="0.688" stop-opacity="1" />
      <stop stop-color="#696969" offset="0.8071" stop-opacity="1" />
      <stop stop-color="#595959" offset="0.9146" stop-opacity="1" />
      <stop stop-color="#545454" offset="1" stop-opacity="1" />
    </linearGradient>
    <linearGradient id="defitem69" gradientUnits="userSpaceOnUse" x1="100.416" y1="75.9824" x2="100.416" y2="44.1196" >
      <stop stop-color="#545454" offset="0.0059" stop-opacity="1" />
      <stop stop-color="#878787" offset="0.1183" stop-opacity="1" />
      <stop stop-color="#8c8c8c" offset="0.2215" stop-opacity="1" />
      <stop stop-color="#999999" offset="0.3335" stop-opacity="1" />
      <stop stop-color="#afafaf" offset="0.4491" stop-opacity="1" />
      <stop stop-color="#bababa" offset="0.5" stop-opacity="1" />
      <stop stop-color="#a7a7a7" offset="0.5612" stop-opacity="1" />
      <stop stop-color="#838383" offset="0.688" stop-opacity="1" />
      <stop stop-color="#696969" offset="0.8071" stop-opacity="1" />
      <stop stop-color="#595959" offset="0.9146" stop-opacity="1" />
      <stop stop-color="#545454" offset="1" stop-opacity="1" />
    </linearGradient>
    <linearGradient id="defitem70" gradientUnits="userSpaceOnUse" x1="63.9996" y1="69.9824" x2="63.9996" y2="75.9824" >
      <stop stop-color="#dddddd" offset="0" stop-opacity="1" />
      <stop stop-color="#000000" offset="1" stop-opacity="1" />
    </linearGradient>
    <linearGradient id="defitem71" gradientUnits="userSpaceOnUse" x1="64.0006" y1="77.3867" x2="64.0006" y2="70.9388" >
      <stop stop-color="#bababa" offset="0" stop-opacity="1" />
      <stop stop-color="#313131" offset="1" stop-opacity="1" />
    </linearGradient>
    <linearGradient id="defitem72" gradientUnits="userSpaceOnUse" x1="63.9995" y1="75.9824" x2="63.9995" y2="77.9824" >
      <stop stop-color="#313131" offset="0" stop-opacity="1" />
      <stop stop-color="#545454" offset="1" stop-opacity="1" />
    </linearGradient>
    <linearGradient id="defitem73" gradientUnits="userSpaceOnUse" x1="64.0001" y1="85.9668" x2="64.0001" y2="91.2188" >
      <stop stop-color="#878787" offset="0" stop-opacity="1" />
      <stop stop-color="#909090" offset="0.0225" stop-opacity="1" />
      <stop stop-color="#acacac" offset="0.1025" stop-opacity="1" />
      <stop stop-color="#c1c1c1" offset="0.1893" stop-opacity="1" />
      <stop stop-color="#d1d1d1" offset="0.285" stop-opacity="1" />
      <stop stop-color="#dadada" offset="0.3966" stop-opacity="1" />
      <stop stop-color="#dddddd" offset="0.5621" stop-opacity="1" />
    </linearGradient>
    <linearGradient id="defitem74" gradientUnits="userSpaceOnUse" x1="23.3307" y1="104" x2="23.3307" y2="89.4707" >
      <stop stop-color="#545454" offset="0" stop-opacity="1" />
      <stop stop-color="#bababa" offset="1" stop-opacity="1" />
    </linearGradient>
    <linearGradient id="defitem75" gradientUnits="userSpaceOnUse" x1="104.67" y1="104" x2="104.67" y2="89.4707" >
      <stop stop-color="#545454" offset="0" stop-opacity="1" />
      <stop stop-color="#bababa" offset="1" stop-opacity="1" />
    </linearGradient>
    <linearGradient id="defitem76" gradientUnits="userSpaceOnUse" x1="64.0006" y1="104" x2="64.0006" y2="88.0684" >
      <stop stop-color="#313131" offset="0" stop-opacity="1" />
      <stop stop-color="#282828" offset="0.245184" stop-opacity="1" />
      <stop stop-color="#0e0e0e" offset="0.532014" stop-opacity="1" />
      <stop stop-color="#000000" offset="1" stop-opacity="1" />
    </linearGradient>
    <linearGradient id="defitem77" gradientUnits="userSpaceOnUse" x1="23.0328" y1="89.6436" x2="104.968" y2="89.6436" >
      <stop stop-color="#ffffff" offset="0" stop-opacity="1" />
      <stop stop-color="#f6f6f6" offset="0.192" stop-opacity="1" />
      <stop stop-color="#dddddd" offset="0.5" stop-opacity="1" />
      <stop stop-color="#ffffff" offset="1" stop-opacity="1" />
    </linearGradient>
    <linearGradient id="defitem78" gradientUnits="userSpaceOnUse" x1="64.0006" y1="51.7319" x2="64.0006" y2="9.014" >
      <stop stop-color="#ffffff" offset="0" stop-opacity="1" />
      <stop stop-color="#f9f9f9" offset="0.1091" stop-opacity="1" />
      <stop stop-color="#e8e8e8" offset="0.2515" stop-opacity="1" />
      <stop stop-color="#cdcdcd" offset="0.4123" stop-opacity="1" />
      <stop stop-color="#a8a8a8" offset="0.5866" stop-opacity="1" />
      <stop stop-color="#777777" offset="0.7718" stop-opacity="1" />
      <stop stop-color="#3d3d3d" offset="0.9634" stop-opacity="1" />
      <stop stop-color="#313131" offset="1" stop-opacity="1" />
    </linearGradient>
    <linearGradient id="defitem79" gradientUnits="userSpaceOnUse" x1="63.9669" y1="59.9824" x2="63.9669" y2="45.9829" >
      <stop stop-color="#313131" offset="0" stop-opacity="1" />
      <stop stop-color="#545454" offset="0.4438" stop-opacity="1" />
      <stop stop-color="#545454" offset="0.5917" stop-opacity="1" />
      <stop stop-color="#545454" offset="0.7811" stop-opacity="1" />
      <stop stop-color="#575757" offset="0.8168" stop-opacity="1" />
      <stop stop-color="#606060" offset="0.8429" stop-opacity="1" />
      <stop stop-color="#707070" offset="0.8659" stop-opacity="1" />
      <stop stop-color="#878787" offset="0.8872" stop-opacity="1" />
      <stop stop-color="#878787" offset="0.8876" stop-opacity="1" />
      <stop stop-color="#ededed" offset="0.9586" stop-opacity="1" />
    </linearGradient>
    <linearGradient id="defitem80" gradientUnits="userSpaceOnUse" x1="63.9996" y1="28.4888" x2="63.9996" y2="76.6369" >
      <stop stop-color="#878787" offset="0.0355" stop-opacity="1" />
      <stop stop-color="#313131" offset="0.5" stop-opacity="1" />
    </linearGradient>
    <radialGradient id="defitem81" gradientUnits="userSpaceOnUse" cx="63.9978" cy="-12.825" fx="7.76023" fy="2.567" r="84.0162" >
      <stop stop-color="#ffffff" offset="0" stop-opacity="1" />
      <stop stop-color="#ffffff" offset="0.4556" stop-opacity="1" />
      <stop stop-color="#f4f4f6" offset="0.5192" stop-opacity="1" />
      <stop stop-color="#dbdbdd" offset="0.6267" stop-opacity="1" />
      <stop stop-color="#afafb6" offset="0.7641" stop-opacity="1" />
      <stop stop-color="#878791" offset="0.8757" stop-opacity="1" />
    </radialGradient>
    <linearGradient id="defitem82" gradientUnits="userSpaceOnUse" x1="114.772" y1="93.9395" x2="114.772" y2="88.3965" >
      <stop stop-color="#ededeb" offset="0" stop-opacity="1" />
      <stop stop-color="#ebebe9" offset="0.2406" stop-opacity="1" />
      <stop stop-color="#e2e2e2" offset="0.3786" stop-opacity="1" />
      <stop stop-color="#dddddd" offset="0.4379" stop-opacity="1" />
      <stop stop-color="#878787" offset="1" stop-opacity="1" />
    </linearGradient>
    <radialGradient id="defitem83" gradientUnits="userSpaceOnUse" cx="115.077" cy="94.6484" fx="4.00012" fy="4" r="5.781" >
      <stop stop-color="#878787" offset="0" stop-opacity="1" />
      <stop stop-color="#828282" offset="0.105" stop-opacity="1" />
      <stop stop-color="#545454" offset="1" stop-opacity="1" />
    </radialGradient>
    <radialGradient id="defitem84" gradientUnits="userSpaceOnUse" cx="113.943" cy="89.9258" fx="114.421" fy="90.4674" r="4.042" >
      <stop stop-color="#ffffff" offset="0" stop-opacity="1" />
      <stop stop-color="#fdfdfd" offset="0.1037" stop-opacity="1" />
      <stop stop-color="#f6f6f4" offset="0.1631" stop-opacity="1" />
      <stop stop-color="#ededeb" offset="0.1953" stop-opacity="1" />
      <stop stop-color="#ebebe9" offset="0.3286" stop-opacity="1" />
      <stop stop-color="#e2e2e2" offset="0.405" stop-opacity="1" />
      <stop stop-color="#dddddd" offset="0.4379" stop-opacity="1" />
      <stop stop-color="#878787" offset="0.8639" stop-opacity="1" />
    </radialGradient>
    <linearGradient id="defitem85" gradientUnits="userSpaceOnUse" x1="114.946" y1="86.9355" x2="114.946" y2="81.3945" >
      <stop stop-color="#ededeb" offset="0" stop-opacity="1" />
      <stop stop-color="#ebebe9" offset="0.2406" stop-opacity="1" />
      <stop stop-color="#e2e2e2" offset="0.3786" stop-opacity="1" />
      <stop stop-color="#dddddd" offset="0.4379" stop-opacity="1" />
      <stop stop-color="#878787" offset="1" stop-opacity="1" />
    </linearGradient>
    <radialGradient id="defitem86" gradientUnits="userSpaceOnUse" cx="115.339" cy="88.9336" fx="4.00012" fy="4" r="8.468" >
      <stop stop-color="#878787" offset="0" stop-opacity="1" />
      <stop stop-color="#828282" offset="0.105" stop-opacity="1" />
      <stop stop-color="#545454" offset="1" stop-opacity="1" />
    </radialGradient>
    <radialGradient id="defitem87" gradientUnits="userSpaceOnUse" cx="114.117" cy="82.9209" fx="114.596" fy="83.4627" r="4.044" >
      <stop stop-color="#ffffff" offset="0" stop-opacity="1" />
      <stop stop-color="#fdfdfd" offset="0.1037" stop-opacity="1" />
      <stop stop-color="#f6f6f4" offset="0.1631" stop-opacity="1" />
      <stop stop-color="#ededeb" offset="0.1953" stop-opacity="1" />
      <stop stop-color="#ebebe9" offset="0.3286" stop-opacity="1" />
      <stop stop-color="#e2e2e2" offset="0.405" stop-opacity="1" />
      <stop stop-color="#dddddd" offset="0.4379" stop-opacity="1" />
      <stop stop-color="#878787" offset="0.8639" stop-opacity="1" />
    </radialGradient>
    <linearGradient id="defitem88" gradientUnits="userSpaceOnUse" x1="68.3823" y1="116.005" x2="68.3823" y2="98" >
      <stop stop-color="#646464" offset="0.27704" stop-opacity="1" />
      <stop stop-color="#212121" offset="0.5" stop-opacity="1" />
    </linearGradient>
    <linearGradient id="defitem89" gradientUnits="userSpaceOnUse" x1="67.944" y1="116.005" x2="67.944" y2="91.7178" >
      <stop stop-color="#ffffff" offset="0.0355" stop-opacity="1" />
      <stop stop-color="#898989" offset="0.27704" stop-opacity="1" />
      <stop stop-color="#212121" offset="0.5" stop-opacity="1" />
    </linearGradient>
    <linearGradient id="defitem90" gradientUnits="userSpaceOnUse" x1="64.0006" y1="116" x2="64.0006" y2="95.9999" >
      <stop stop-color="#797979" offset="0" stop-opacity="1" />
      <stop stop-color="#909090" offset="0.2874" stop-opacity="1" />
      <stop stop-color="#acacac" offset="0.31" stop-opacity="1" />
      <stop stop-color="#cccccc" offset="0.3305" stop-opacity="1" />
      <stop stop-color="#efefef" offset="0.3486" stop-opacity="1" />
      <stop stop-color="#ffffff" offset="0.355" stop-opacity="1" />
      <stop stop-color="#f0f0f0" offset="0.3723" stop-opacity="1" />
      <stop stop-color="#e6e6e6" offset="0.3977" stop-opacity="1" />
      <stop stop-color="#dfdfdf" offset="0.4334" stop-opacity="1" />
      <stop stop-color="#dddddd" offset="0.5325" stop-opacity="1" />
      <stop stop-color="#ffffff" offset="1" stop-opacity="1" />
    </linearGradient>
    <radialGradient id="defitem91" gradientUnits="userSpaceOnUse" cx="63.9978" cy="136.956" fx="7.76023" fy="127.256" r="84.0162" >
      <stop stop-color="#ffffff" offset="0" stop-opacity="1" />
      <stop stop-color="#ffffff" offset="0.4556" stop-opacity="1" />
      <stop stop-color="#f4f4f6" offset="0.5192" stop-opacity="1" />
      <stop stop-color="#dbdbdd" offset="0.6267" stop-opacity="1" />
      <stop stop-color="#afafb6" offset="0.7641" stop-opacity="1" />
      <stop stop-color="#878791" offset="0.8757" stop-opacity="1" />
    </radialGradient>
    <linearGradient id="defitem92" gradientUnits="userSpaceOnUse" x1="79.6639" y1="130.371" x2="40.4086" y2="80.3262" >
      <stop stop-color="#545454" offset="0.0533" stop-opacity="1" />
      <stop stop-color="#bababa" offset="0.211134" stop-opacity="1" />
      <stop stop-color="#ffffff" offset="0.362655" stop-opacity="1" />
      <stop stop-color="#ffffff" offset="0.603228" stop-opacity="1" />
      <stop stop-color="#e8e8e8" offset="0.849766" stop-opacity="1" />
      <stop stop-color="#545454" offset="1" stop-opacity="1" />
    </linearGradient>
    <linearGradient id="defitem93" gradientUnits="userSpaceOnUse" x1="57.2592" y1="121.25" x2="39.6591" y2="109.418" >
      <stop stop-color="#666666" offset="0.0947" stop-opacity="1" />
      <stop stop-color="#b6b6b6" offset="0.409632" stop-opacity="1" />
      <stop stop-color="#ffffff" offset="0.505307" stop-opacity="1" />
      <stop stop-color="#a3a3a3" offset="0.630431" stop-opacity="1" />
      <stop stop-color="#646464" offset="0.9349" stop-opacity="1" />
    </linearGradient>
    <radialGradient id="defitem94" gradientUnits="userSpaceOnUse" cx="38.6937" cy="117.748" fx="184.896" fy="200.751" r="5.87656" >
      <stop stop-color="#2b72c6" offset="0" stop-opacity="1" />
      <stop stop-color="#6093cf" offset="1" stop-opacity="1" />
    </radialGradient>
    <linearGradient id="defitem95" gradientUnits="userSpaceOnUse" x1="54.547" y1="129.518" x2="54.547" y2="100.031" >
      <stop stop-color="#ffed26" offset="0" stop-opacity="1" />
      <stop stop-color="#fbbf00" offset="1" stop-opacity="1" />
    </linearGradient>
    <linearGradient id="defitem96" gradientUnits="userSpaceOnUse" x1="92.1763" y1="110.406" x2="32.9797" y2="110.406" >
      <stop stop-color="#ffffff" offset="0" stop-opacity="0" />
      <stop stop-color="#ffffff" offset="1" stop-opacity="1" />
    </linearGradient>
    <linearGradient id="defitem97" gradientUnits="userSpaceOnUse" x1="78.5774" y1="104.616" x2="81.1946" y2="120.906" >
      <stop stop-color="#a3bfe4" offset="0" stop-opacity="1" />
      <stop stop-color="#6093cf" offset="1" stop-opacity="1" />
    </linearGradient>
    <radialGradient id="defitem98" gradientUnits="userSpaceOnUse" cx="81.4688" cy="109.615" fx="81.5005" fy="109.284" r="1.9089" >
      <stop stop-color="#f9eddf" offset="0" stop-opacity="1" />
      <stop stop-color="#f9eddf" offset="0.5" stop-opacity="0.805755" />
      <stop stop-color="#f9eddf" offset="1" stop-opacity="0" />
    </radialGradient>
    <radialGradient id="defitem99" gradientUnits="userSpaceOnUse" cx="77.0573" cy="109.615" fx="76.9193" fy="109.284" r="1.9088" >
      <stop stop-color="#f9eddf" offset="0" stop-opacity="1" />
      <stop stop-color="#f9eddf" offset="0.5" stop-opacity="0.805755" />
      <stop stop-color="#f9eddf" offset="1" stop-opacity="0" />
    </radialGradient>
    <radialGradient id="defitem100" gradientUnits="userSpaceOnUse" cx="80.0195" cy="113.918" fx="79.1543" fy="114.496" r="3.8083" >
      <stop stop-color="#f9efe4" offset="0" stop-opacity="1" />
      <stop stop-color="#f8e6d4" offset="0.591133" stop-opacity="1" />
      <stop stop-color="#f0cfa8" offset="1" stop-opacity="1" />
    </radialGradient>
    <linearGradient id="defitem101" gradientUnits="userSpaceOnUse" x1="79.9021" y1="113.217" x2="79.481" y2="110.596" >
      <stop stop-color="#fff4e4" offset="0" stop-opacity="1" />
      <stop stop-color="#ffebcf" offset="0.25" stop-opacity="1" />
      <stop stop-color="#ffd390" offset="0.5" stop-opacity="1" />
      <stop stop-color="#ffc369" offset="1" stop-opacity="1" />
    </linearGradient>
    <linearGradient id="defitem102" gradientUnits="userSpaceOnUse" x1="80.6322" y1="109.702" x2="78.4284" y2="111.201" >
      <stop stop-color="#f9ede2" offset="0" stop-opacity="1" />
      <stop stop-color="#f9ede2" offset="1" stop-opacity="0" />
    </linearGradient>
    <radialGradient id="defitem103" gradientUnits="userSpaceOnUse" cx="76.5449" cy="113.954" fx="76.5449" fy="113.954" r="0.1351" >
      <stop stop-color="#f0e4d4" offset="0" stop-opacity="1" />
      <stop stop-color="#f0e4d4" offset="1" stop-opacity="0" />
    </radialGradient>
    <radialGradient id="defitem104" gradientUnits="userSpaceOnUse" cx="83.5436" cy="113.784" fx="83.5436" fy="113.784" r="0.1351" >
      <stop stop-color="#f0e4d4" offset="0" stop-opacity="1" />
      <stop stop-color="#f0e4d4" offset="1" stop-opacity="0" />
    </radialGradient>
    <linearGradient id="defitem105" gradientUnits="userSpaceOnUse" x1="79.9892" y1="113.582" x2="80.3459" y2="116.984" >
      <stop stop-color="#ffffff" offset="0" stop-opacity="1" />
      <stop stop-color="#ffffff" offset="1" stop-opacity="0" />
    </linearGradient>
    <radialGradient id="defitem106" gradientUnits="userSpaceOnUse" cx="79.1402" cy="116.764" fx="79.1402" fy="116.764" r="2.76241" >
      <stop stop-color="#e4d3c3" offset="0" stop-opacity="1" />
      <stop stop-color="#e4d3c3" offset="1" stop-opacity="0" />
    </radialGradient>
    <linearGradient id="defitem107" gradientUnits="userSpaceOnUse" x1="83.6503" y1="115.145" x2="76.7629" y2="115.294" >
      <stop stop-color="#755b44" offset="0" stop-opacity="1" />
      <stop stop-color="#755b44" offset="1" stop-opacity="0" />
    </linearGradient>
    <linearGradient id="defitem108" gradientUnits="userSpaceOnUse" x1="78.8713" y1="112.556" x2="81.2949" y2="117.366" >
      <stop stop-color="#ffffff" offset="0" stop-opacity="1" />
      <stop stop-color="#ffffff" offset="1" stop-opacity="0" />
    </linearGradient>
    <linearGradient id="defitem109" gradientUnits="userSpaceOnUse" x1="75.3714" y1="114.544" x2="78.0254" y2="116.618" >
      <stop stop-color="#dfcaba" offset="0" stop-opacity="1" />
      <stop stop-color="#dfcaba" offset="1" stop-opacity="0" />
    </linearGradient>
    <linearGradient id="defitem110" gradientUnits="userSpaceOnUse" x1="83.6886" y1="113.376" x2="83.2022" y2="113.376" >
      <stop stop-color="#e2e2e2" offset="0" stop-opacity="1" />
      <stop stop-color="#ffffff" offset="1" stop-opacity="1" />
    </linearGradient>
    <linearGradient id="defitem111" gradientUnits="userSpaceOnUse" x1="78.7147" y1="103.252" x2="78.1269" y2="108.097" >
      <stop stop-color="#bf0202" offset="0" stop-opacity="1" />
      <stop stop-color="#ef8582" offset="1" stop-opacity="1" />
    </linearGradient>
    <linearGradient id="defitem112" gradientUnits="userSpaceOnUse" x1="85.7006" y1="105.864" x2="81.1195" y2="108.269" >
      <stop stop-color="#f9ccca" offset="0" stop-opacity="1" />
      <stop stop-color="#c8cddb" offset="1" stop-opacity="0" />
    </linearGradient>
    <linearGradient id="defitem113" gradientUnits="userSpaceOnUse" x1="77.9725" y1="106.394" x2="69.9147" y2="106.394" >
      <stop stop-color="#9c0e0e" offset="0" stop-opacity="1" />
      <stop stop-color="#8c97b6" offset="1" stop-opacity="0" />
    </linearGradient>
    <linearGradient id="defitem114" gradientUnits="userSpaceOnUse" x1="78.2323" y1="104.256" x2="81.7585" y2="109.868" >
      <stop stop-color="#ffffff" offset="0" stop-opacity="1" />
      <stop stop-color="#ffffff" offset="1" stop-opacity="0" />
    </linearGradient>
    <linearGradient id="defitem115" gradientUnits="userSpaceOnUse" x1="80.4266" y1="107.06" x2="85.0478" y2="109.314" >
      <stop stop-color="#f9ccca" offset="0" stop-opacity="1" />
      <stop stop-color="#bac1d4" offset="1" stop-opacity="0" />
    </linearGradient>
    <linearGradient id="defitem116" gradientUnits="userSpaceOnUse" x1="80.8231" y1="104.205" x2="85.5935" y2="106.279" >
      <stop stop-color="#f9ccca" offset="0" stop-opacity="1" />
      <stop stop-color="#bac1d4" offset="1" stop-opacity="0" />
    </linearGradient>
    <linearGradient id="defitem117" gradientUnits="userSpaceOnUse" x1="71.7315" y1="106.154" x2="74.5783" y2="108.449" >
      <stop stop-color="#f9ccca" offset="0" stop-opacity="1" />
      <stop stop-color="#c8cddb" offset="1" stop-opacity="0" />
    </linearGradient>
    <linearGradient id="defitem118" gradientUnits="userSpaceOnUse" x1="80.9284" y1="108.098" x2="81.937" y2="105.852" >
      <stop stop-color="#c8cddb" offset="0" stop-opacity="1" />
      <stop stop-color="#c8cddb" offset="1" stop-opacity="0" />
    </linearGradient>
    <linearGradient id="defitem119" gradientUnits="userSpaceOnUse" x1="80.9284" y1="108.098" x2="81.937" y2="105.852" >
      <stop stop-color="#000000" offset="0" stop-opacity="1" />
      <stop stop-color="#000000" offset="1" stop-opacity="0" />
    </linearGradient>
  </defs>
  <g id="Layer">
    <g id="layer1">
      <path id="path3945" fill="#000000" d=""  />
    </g>
    <path id="path3081" fill="#000000" d=""  />
    <g id="layer2">
    </g>
    <g id="layer3">
    </g>
    <g id="layer4">
    </g>
    <g id="layer8">
      <path id="path2167" fill="#000000" d=""  />
      <g id="g3036">
        <path id="path4922" fill="#000000" d=""  />
      </g>
      <path id="path4924" fill="#000000" d=""  />
      <g id="g4926">
      </g>
      <g id="g4928">
      </g>
      <g id="g4930">
      </g>
      <path id="path10095" fill="#000000" d=""  />
      <path id="path2191" fill="#ffffff" fill-opacity="0.756881" stroke-width="0.5" stroke-linecap="round" stroke-linejoin="round" d="M367.351 -76.373L367.351 -79.168L367.351 -76.373Z"  />
      <path id="path2985" fill="#ffffff" fill-opacity="0.756881" stroke-width="0.5" stroke-linecap="round" stroke-linejoin="round" d="M210.342 -146.008L210.342 -148.803L210.342 -146.008Z"  />
      <path id="path3206" fill="#ffffff" fill-opacity="0.756881" stroke-width="0.5" stroke-linecap="round" stroke-linejoin="round" d="M90.8401 -232.638L90.8401 -235.433L90.8401 -232.638Z"  />
      <g id="g2878">
      </g>
      <g id="g4938">
      </g>
      <path id="path3946" fill="#ffffff" fill-opacity="0.756881" stroke-width="0.5" stroke-linecap="round" stroke-linejoin="round" d="M337.432 -166.883L337.432 -169.678L337.432 -166.883Z"  />
      <path id="path1561" fill="#ffffff" fill-opacity="0.756881" stroke-width="0.5" stroke-linecap="round" stroke-linejoin="round" d="M244.807 -92.989L244.807 -94.516L244.807 -92.989Z"  />
      <path fill="#ffffff" stroke-width="3.632" stroke-linecap="round" stroke-linejoin="round" d="M187.322 -149.589L187.322 -149.589L188.322 -149.589L188.322 -149.589L187.322 -149.589Z"  />
      <path fill="#ffffff" stroke-width="3.632" stroke-linecap="round" stroke-linejoin="round" d="M152.196 -177.117L152.196 -177.117L153.196 -177.117L153.196 -177.117L152.196 -177.117Z"  />
      <path id="path2494" fill="#ffffff" fill-opacity="0.756881" stroke-width="0.5" stroke-linecap="round" stroke-linejoin="round" d="M-6.74187 -250.333L-6.74187 -253.128L-6.74187 -250.333Z"  />
      <g id="g4640">
      </g>
      <g id="g4646">
      </g>
      <g id="g4730">
      </g>
      <g id="g4748">
      </g>
      <g id="g11400">
        <path id="polygon76" fill="url(#defitem60)" d="M8.00013 43.982L120 43.982L122.932 59.867L5.06813 59.867L8.00013 43.982Z"  />
        <path id="path1563" fill="url(#defitem61)" stroke-width="0" stroke-linecap="round" stroke-linejoin="round" d="M128 122.812C128 125.677 99.3462 128 64 128C28.6538 128 -2.39433e-05 125.677 -2.39317e-05 122.812"  />
        <path id="path16" fill="url(#defitem62)" d="M29.1601 28.097C28.2911 28.097 27.5841 28.804 27.5841 29.673L27.5841 50.682C27.5841 51.551 28.2911 52.258 29.1601 52.258L98.8401 52.258C99.7091 52.258 100.416 51.551 100.416 50.682L100.416 29.673C100.416 28.804 99.7091 28.097 98.8401 28.097L29.1601 28.097Z"  />
        <path id="path23" fill="url(#defitem63)" d="M4.66713 81.139C17.0631 86.359 38.9951 89.834 64.0001 89.834C89.0051 89.834 110.935 86.359 123.333 81.139L123.333 77.403L4.66713 77.403L4.66713 81.139Z"  />
        <path id="path46" fill="url(#defitem64)" d="M5.06813 59.867C44.3561 59.867 83.6431 59.867 122.931 59.867C124.356 78.025 124.356 85.71 122.931 103.867C83.6431 103.867 44.3561 103.867 5.06813 103.867C3.64412 85.71 3.64412 78.025 5.06813 59.867Z"  />
        <g id="g48">
          <path id="path63" fill="url(#defitem65)" d="M7.03313 59.867C45.0111 59.867 82.9881 59.867 120.967 59.867C122.345 78.025 122.345 85.71 120.967 103.867C82.9881 103.867 45.0111 103.867 7.03313 103.867C5.65612 85.71 5.65612 78.025 7.03313 59.867Z"  />
        </g>
        <path fill="url(#defitem66)" d="M27.9661 75.982L27.9661 61.982L99.9661 61.982L99.9661 75.982L27.9661 75.982Z"  />
        <path id="polygon122" fill="url(#defitem67)" d="M28.5001 38.236L99.4331 38.236L100.433 57.808L27.5001 57.808L28.5001 38.236Z"  />
        <g id="g124">
          <path fill="url(#defitem68)" d="M27.0671 75.982L27.0671 44.119L28.1021 44.119L28.1021 75.982L27.0671 75.982Z"  />
        </g>
        <g id="g151">
          <path fill="url(#defitem69)" d="M99.8981 75.982L99.8981 44.119L100.932 44.119L100.932 75.982L99.8981 75.982Z"  />
        </g>
        <path id="path183" fill="url(#defitem70)" d="M77.0001 74.697C77.0001 72.092 75.2701 69.982 73.1351 69.982L54.8651 69.982C52.7301 69.982 51.0001 72.091 51.0001 74.697L51.0001 74.697C51.0001 75.982 51.0001 75.982 51.0001 75.982L77.0001 75.982C77.0001 75.982 77.0001 75.982 77.0001 74.697L77.0001 74.697Z"  />
        <path id="path190" fill="url(#defitem71)" d="M77.0001 74.9C77.0001 72.707 75.2701 70.928 73.1351 70.928L54.8651 70.928C52.7301 70.929 51.0001 72.707 51.0001 74.9L51.0001 74.9C51.0001 75.982 51.0001 75.982 51.0001 75.982L77.0001 75.982C77.0001 75.982 77.0001 75.982 77.0001 74.9L77.0001 74.9Z"  />
        <path id="path197" fill="url(#defitem72)" d="M6 77.982L122 77.982C121.996 77.317 121.992 76.651 121.988 75.982L6.01257 75.982C6.00774 76.651 6.00387 77.317 6 77.982Z"  />
        <g id="g8211">
          <path id="path216" fill="url(#defitem73)" d="M100.671 85.967L27.3301 85.967C24.9571 85.967 23.0331 87.848 23.0331 90.168L23.0331 91.219C23.0331 88.899 24.9571 87.018 27.3301 87.018L100.671 87.018C103.044 87.018 104.968 88.899 104.968 91.219L104.968 90.168C104.968 87.848 103.044 85.967 100.671 85.967Z"  />
          <path id="path225" fill="url(#defitem74)" d="M23.8911 89.471C23.2021 90.342 22.7701 91.481 22.7701 92.742L22.7701 104C23.1201 104 23.4701 104 23.8201 104L23.8201 90.287C23.8211 90.008 23.8531 89.738 23.8911 89.471Z"  />
          <path id="path232" fill="url(#defitem75)" d="M104.109 89.471C104.147 89.739 104.179 90.008 104.179 90.287L104.179 104C104.529 104 104.879 104 105.23 104L105.23 92.742C105.23 91.48 104.798 90.342 104.109 89.471Z"  />
          <path id="path243" fill="url(#defitem76)" d="M99.9781 88.068L28.0221 88.068C25.7021 88.068 23.8201 89.949 23.8201 92.269L23.8201 103.999C47.1051 103.999 80.8941 103.999 104.179 103.999L104.179 92.269C104.18 89.949 102.298 88.068 99.9781 88.068Z"  />
          <path id="path254" fill="url(#defitem77)" d="M100.671 87.018L27.3301 87.018C24.9571 87.018 23.0331 88.899 23.0331 91.219L23.0331 92.27C23.0331 89.95 24.9571 88.069 27.3301 88.069L100.671 88.069C103.044 88.069 104.968 89.95 104.968 92.27L104.968 91.219C104.968 88.898 103.044 87.018 100.671 87.018Z"  />
        </g>
        <path id="path331" fill="url(#defitem78)" d="M29.1601 28.623C28.5801 28.623 28.1101 29.094 28.1101 29.673L28.1101 50.682C28.1101 51.263 28.5801 51.732 29.1601 51.732L98.8401 51.732C99.4211 51.732 99.8911 51.262 99.8911 50.682L99.8911 29.673C99.8911 29.093 99.4211 28.623 98.8401 28.623L29.1601 28.623Z"  />
        <path fill="url(#defitem79)" d="M27.9661 59.982L27.9661 45.982L99.9661 45.982L99.9661 59.982L27.9661 59.982Z"  />
        <path id="polygon338" fill="url(#defitem80)" d="M29.1601 29.673L29.1601 52.346L64.0001 53.352L98.8401 52.346L98.8401 29.673L29.1601 29.673Z"  />
        <path fill="none" stroke="#000000" stroke-opacity="0.1" stroke-width="8" stroke-linejoin="round" d="M32.0001 52L32.0001 8L96.0001 8L96.0001 52L32.0001 52Z"  />
        <path fill="none" stroke="#000000" stroke-opacity="0.15" stroke-width="6" stroke-linejoin="round" d="M32.0001 51.732L32.0001 7.732L96.0001 7.732L96.0001 51.732L32.0001 51.732Z"  />
        <path fill="none" stroke="#000000" stroke-opacity="0.2" stroke-width="4" stroke-linejoin="round" d="M32.0001 51.732L32.0001 7.732L96.0001 7.732L96.0001 51.732L32.0001 51.732Z"  />
        <path id="path346" fill="#313131" fill-opacity="0" d="M32.0001 6.732C31.4481 6.732 31.0001 7.18 31.0001 7.732L31.0001 51.732C31.0001 52.284 31.4481 52.732 32.0001 52.732L96.0001 52.732C96.5531 52.732 97.0001 52.284 97.0001 51.732L97.0001 7.732C97.0001 7.18 96.5531 6.732 96.0001 6.732L32.0001 6.732L32.0001 6.732Z"  />
        <path fill="none" stroke="#000000" stroke-opacity="0.25" stroke-width="2" stroke-linejoin="round" d="M32.0001 51.732L32.0001 7.732L96.0001 7.732L96.0001 51.732L32.0001 51.732Z"  />
        <path fill="url(#defitem81)" d="M32.0001 51.732L32.0001 7.732L96.0001 7.732L96.0001 51.732L32.0001 51.732Z"  />
        <path id="path3535" fill="url(#defitem82)" d="M112.001 91.168C112.001 92.697 113.244 93.939 114.772 93.939C116.3 93.939 117.543 92.697 117.543 91.168C117.543 89.641 116.3 88.397 114.772 88.397C113.244 88.396 112.001 89.641 112.001 91.168ZM112.641 91.168C112.641 89.994 113.597 89.037 114.772 89.037C115.948 89.037 116.904 89.994 116.904 91.168C116.904 92.344 115.948 93.299 114.772 93.299C113.597 93.299 112.641 92.344 112.641 91.168Z"  />
        <path fill="url(#defitem83)" d="M117.092 91.168C117.092 92.4493 116.053 93.488 114.772 93.488C113.491 93.488 112.452 92.4493 112.452 91.168C112.452 89.8867 113.491 88.848 114.772 88.848C116.053 88.848 117.092 89.8867 117.092 91.168Z"  />
        <path fill="url(#defitem84)" d="M116.882 91.168C116.882 92.3333 115.937 93.278 114.772 93.278C113.607 93.278 112.662 92.3333 112.662 91.168C112.662 90.0027 113.607 89.058 114.772 89.058C115.937 89.058 116.882 90.0027 116.882 91.168Z"  />
        <path id="path3576" fill="url(#defitem85)" d="M112.175 84.164C112.175 85.693 113.418 86.935 114.946 86.935C116.475 86.935 117.718 85.693 117.718 84.164C117.718 82.637 116.475 81.394 114.946 81.394C113.418 81.395 112.175 82.637 112.175 84.164ZM112.815 84.164C112.815 82.99 113.771 82.033 114.945 82.033C116.121 82.033 117.077 82.99 117.077 84.164C117.077 85.34 116.121 86.297 114.945 86.297C113.771 86.297 112.815 85.34 112.815 84.164Z"  />
        <path fill="url(#defitem86)" d="M117.266 84.164C117.266 85.4453 116.227 86.484 114.946 86.484C113.665 86.484 112.626 85.4453 112.626 84.164C112.626 82.8827 113.665 81.844 114.946 81.844C116.227 81.844 117.266 82.8827 117.266 84.164Z"  />
        <path id="path3604" fill="url(#defitem87)" d="M112.837 84.164C112.837 85.328 113.782 86.275 114.945 86.275C116.109 86.275 117.055 85.328 117.055 84.164C117.055 83.002 116.109 82.055 114.945 82.055C113.782 82.055 112.837 83.002 112.837 84.164Z"  />
        <g id="g9392">
          <path id="path256" fill="url(#defitem88)" d="M24 98C24 98.8018 24 115.198 24 116C25.0221 116 102.979 116 104 116C104 115.198 104 98.8018 104 98C102.979 98 25.0231 98 24 98Z"  />
          <path id="path10007" fill="url(#defitem89)" d="M31.8499 100C31.8499 100.735 28 115.265 28 116C28.9199 116 99.081 116 100 116C100 115.265 96.1508 100.735 96.1508 100C95.2318 100 32.7707 100 31.8499 100Z"  />
          <path id="path289" fill="url(#defitem90)" d="M100 92C100 99.553 100 114.541 100 116C97.979 116 30.02 116 28 116C28 114.541 28 99.5522 28 92C27.377 92 24.064 92 24 92C24 92.808 24 119.19 24 120C25.03 120 102.971 120 104 120C104 119.19 104 92.808 104 92C103.936 92 100.622 92 100 92Z"  />
        </g>
        <path id="path12391" fill="none" stroke="#000000" stroke-width="8" stroke-linejoin="round" d="M32.0001 124L96.0001 124L92 96.268L36 96.268L32.0001 124Z"  />
        <path id="path12389" fill="none" stroke="#000000" stroke-width="6" stroke-linejoin="round" d="M32.0001 124L96.0001 124L92 96.268L36 96.268L32.0001 124Z"  />
        <path id="path12387" fill="none" stroke="#000000" stroke-width="4" stroke-linejoin="round" d="M32.0001 124L96.0001 124L92 96.268L36 96.268L32.0001 124Z"  />
        <path id="path11500" fill="none" stroke="#000000" stroke-width="2" stroke-linejoin="round" d="M32.0001 124L96.0001 124L92 96.268L36 96.268L32.0001 124Z"  />
        <path id="rect4186" fill="url(#defitem91)" d="M32.0001 124L96.0001 124L92 96.268L36 96.268L32.0001 124Z"  />
      </g>
      <g id="g11598">
        <path id="path8099" fill="#000000" stroke-width="0.414601" d="M96.0893 124.704C97.1559 124.704 98.0286 124.111 98.0286 123.385L92.9278 97.0055C92.9278 96.2801 92.0551 95.6866 90.9885 95.6866L81.292 95.6866C80.2253 95.6866 79.3527 95.9833 79.3527 96.3461C79.3527 96.7088 80.2253 97.0055 81.292 97.0055L81.292 97.0055C82.3586 97.0055 83.2313 97.5991 83.2313 98.3245L83.2313 98.3245C83.2313 99.05 82.3586 99.6435 81.292 99.6435L73.5347 99.6435C72.4681 99.6435 72.0646 99.05 72.0646 98.3245L72.0646 98.3245C72.0646 97.5991 72.4681 97.0055 73.5347 97.0055L73.5347 97.0055C74.6014 97.0055 75.474 96.7088 75.474 96.3461C75.474 95.9833 74.6014 95.6866 73.5347 95.6866L54.1417 95.6866C53.075 95.6866 52.2023 95.9833 52.2023 96.3461C52.2023 96.7088 53.075 97.0055 54.1417 97.0055L54.1417 97.0055C55.2083 97.0055 56.081 97.5991 56.081 98.3245L56.081 98.3245C56.081 99.05 55.2083 99.6435 54.1417 99.6435L46.3844 99.6435C45.3178 99.6435 44.9143 99.05 44.9143 98.3245L44.9143 98.3245C44.9143 97.5991 45.3178 97.0055 46.3844 97.0055L46.3844 97.0055C47.451 97.0055 48.3237 96.7088 48.3237 96.3461C48.3237 95.9833 47.451 95.6866 46.3844 95.6866L36.6879 95.6866C35.6213 95.6866 34.7486 96.2801 34.7486 97.0055L29.7497 123.385C29.7497 124.111 30.6224 124.704 31.689 124.704L96.0893 124.704Z"  />
        <path id="path8101" fill="#ffffff" d="M94.2125 124.073C95.2447 124.073 96.0893 123.506 96.0893 122.812L91.9894 97.579C91.9894 96.8851 91.1449 96.3174 90.1127 96.3174L80.7289 96.3174C79.6967 96.3174 78.8522 96.6013 78.8522 96.9482C78.8522 97.2952 79.6967 97.579 80.7289 97.579L80.7289 97.579C81.7612 97.579 82.6057 98.1468 82.6057 98.8406L82.6057 98.8406C82.6057 99.5345 81.7612 100.102 80.7289 100.102L73.2219 100.102C72.1897 100.102 71.3452 99.5345 71.3452 98.8406L71.3452 98.8406C71.3452 98.1468 72.1897 97.579 73.2219 97.579L73.2219 97.579C74.2542 97.579 75.0987 97.2952 75.0987 96.9482C75.0987 96.6013 74.2542 96.3174 73.2219 96.3174L54.4544 96.3174C53.4222 96.3174 52.5777 96.6013 52.5777 96.9482C52.5777 97.2952 53.4222 97.579 54.4544 97.579L54.4544 97.579C55.4867 97.579 56.3312 98.1468 56.3312 98.8406L56.3312 98.8406C56.3312 99.5345 55.4867 100.102 54.4544 100.102L46.9474 100.102C45.9152 100.102 45.0707 99.5345 45.0707 98.8406L45.0707 98.8406C45.0707 98.1468 45.9152 97.579 46.9474 97.579L46.9474 97.579C47.9797 97.579 48.8242 97.2952 48.8242 96.9482C48.8242 96.6013 47.9797 96.3174 46.9474 96.3174L37.5637 96.3174C36.5315 96.3174 35.6869 96.8851 35.6869 97.579L31.689 122.812C31.689 123.506 32.5335 124.073 33.5658 124.073L94.2125 124.073Z"  />
        <path id="path8110" fill="url(#defitem92)" d="M93.9906 123.758C94.7666 123.758 95.3981 123.333 95.3981 122.812L91.5203 97.579C91.5203 97.0573 90.8887 96.6328 90.1127 96.6328L80.7289 96.6328C79.7741 96.6328 79.3214 96.8858 79.3214 96.9482C79.3214 97.0107 79.7741 97.2636 80.7289 97.2636C82.0225 97.2636 83.0749 97.9711 83.0749 98.8406C83.0749 99.7102 82.0225 100.418 80.7289 100.418L73.2219 100.418C71.9284 100.418 70.876 99.7102 70.876 98.8406C70.876 97.9711 71.9284 97.2636 73.2219 97.2636C74.1767 97.2636 74.6295 97.0107 74.6295 96.9482C74.6295 96.8858 74.1767 96.6328 73.2219 96.6328L54.4544 96.6328C53.4996 96.6328 53.0469 96.8858 53.0469 96.9482C53.0469 97.0107 53.4996 97.2636 54.4544 97.2636C55.748 97.2636 56.8004 97.9711 56.8004 98.8406C56.8004 99.7102 55.748 100.418 54.4544 100.418L46.9474 100.418C45.6539 100.418 44.6015 99.7102 44.6015 98.8406C44.6015 97.9711 45.6539 97.2636 46.9474 97.2636C47.9022 97.2636 48.355 97.0107 48.355 96.9482C48.355 96.8858 47.9022 96.6328 46.9474 96.6328L37.5637 96.6328C36.7877 96.6328 36.1561 97.0573 36.1561 97.579L32.9759 122.812C32.9759 123.333 33.6074 123.758 34.3834 123.758L93.9906 123.758Z"  />
        <g id="g8128">
          <path id="path8135" fill="url(#defitem93)" stroke-width="0.399762" d="M36.6253 101.679C36.6253 101.506 36.8365 101.364 37.0945 101.364L90.5819 101.364C90.8399 101.364 91.0511 101.506 91.0511 101.679L91.0511 101.679C91.0511 101.853 90.8399 101.995 90.5819 101.995L37.0945 101.995C36.8365 101.995 36.6253 101.853 36.6253 101.679L36.6253 101.679Z"  />
        </g>
      </g>
      <path id="path5692_1_" fill="url(#defitem94)" fill-opacity="0.9" d="M37.5226 120.98L39.2848 120.861L39.8338 115.749L38.0828 115.935L37.8486 118.114L35.78 115.696L33.9119 116.107L36.0469 118.432L33.407 120.625L35.2368 120.928L37.782 118.735L37.5226 120.98ZM41.6227 119.734C41.6424 119.733 41.6644 119.729 41.6803 119.719L42.4208 119.231C42.4513 119.21 42.458 119.179 42.4396 119.153L41.7364 118.212C41.8977 118.042 42.0331 117.86 42.1357 117.666L43.6356 117.449C43.6775 117.443 43.7101 117.415 43.7133 117.385L43.7873 116.696C43.7905 116.667 43.7621 116.642 43.7231 116.635L42.3179 116.388C42.2654 116.164 42.1703 115.95 42.0353 115.755L42.9602 114.859C42.9864 114.834 42.9852 114.8 42.9578 114.779L42.3221 114.291C42.2956 114.271 42.2518 114.269 42.2153 114.284L40.8537 114.843C40.6099 114.738 40.3423 114.655 40.0574 114.599L39.866 113.565C39.8601 113.536 39.8269 113.515 39.7848 113.515L38.813 113.515C38.7723 113.515 38.7348 113.534 38.7217 113.563L38.2517 114.602C37.9446 114.659 37.6531 114.745 37.3792 114.854L36.1614 114.257C36.1277 114.241 36.0805 114.244 36.0486 114.265L35.3114 114.753C35.2795 114.774 35.27 114.805 35.2888 114.83L35.6972 115.376L35.854 115.342C35.8765 115.337 35.9007 115.344 35.9121 115.358C35.9121 115.358 36.1738 115.665 36.516 116.065C37.046 115.426 38.0327 114.989 39.1145 114.989C40.6514 114.989 41.8038 115.874 41.6867 116.964C41.6005 117.766 40.8499 118.455 39.8483 118.765L39.7936 119.274C39.9749 119.23 40.1514 119.177 40.3193 119.114L40.3191 119.116L41.5657 119.726C41.5844 119.734 41.6029 119.736 41.6227 119.734Z"  />
      <path fill="#ffffff" stroke-width="1.07546" d="M88.5712 104.277L91.2974 121.245L71.2008 121.245L68.4746 104.277L88.5712 104.277Z"  />
      <path id="path8158" fill="url(#defitem95)" stroke="url(#defitem96)" stroke-width="0.415974" d="M34.0003 122.935L93.4646 122.935C94.0274 122.935 94.4852 122.631 94.4852 122.257L92.1763 108.048C76.8454 110.504 53.2958 108.696 32.9797 121.532L32.9797 122.257C32.9797 122.631 33.4374 122.935 34.0003 122.935Z"  />
      <path id="rect8167" fill="url(#defitem97)" fill-opacity="0.5" stroke-width="1.07546" d="M90.4437 120.906L70.0211 120.906C69.8435 120.906 69.6544 120.62 69.5974 120.264L69.1107 105.257C69.0536 104.902 69.1507 104.616 69.3284 104.616L87.8265 104.616C88.0042 104.616 88.1932 104.902 88.2503 105.257L90.6613 120.264C90.7184 120.62 90.6214 120.906 90.4437 120.906Z"  />
      <g id="g8920">
        <path id="path8719" fill="#00316e" stroke-width="0.402245" d="M80.1707 117.851C82.3023 117.851 83.8307 116.627 83.5879 115.116C83.53 114.755 83.5284 114.394 83.3382 114.075C83.4931 114.15 83.7375 114.088 83.6807 113.899C83.1688 112.79 82.8428 112.563 82.539 112.517C82.2064 112.006 81.7909 111.52 81.3958 111.125C81.0864 110.377 80.8536 109.569 81.1501 109.168C81.2853 109.121 81.3518 109.029 81.3353 108.954C82.4828 108.613 83.873 108.264 85.0897 107.806C85.5414 107.636 86.0185 107.126 86.1168 106.852C86.4164 106.015 86.6989 104.837 86.6989 104.837L86.4037 104.623C83.576 103.55 79.9859 103.6 77.7165 103.6C75.447 103.6 71.8408 103.55 69.3576 104.623L69.1313 104.837C69.1313 104.837 69.7924 106.015 70.3608 106.852C70.5472 107.126 71.1744 107.636 71.6807 107.806C73.0446 108.264 74.5609 108.613 75.8179 108.954C75.8272 109.047 75.9792 109.172 76.2002 109.198C76.6423 109.654 76.6282 110.577 76.5352 111.368C76.2861 111.773 76.0624 112.245 75.9307 112.731C75.7055 112.842 75.5172 113.157 75.3901 114.065C75.3938 114.243 75.6261 114.307 75.7629 114.25C75.7284 114.522 75.7846 114.812 75.8335 115.116C76.0317 116.35 77.3598 117.394 78.9991 117.735C79.1156 117.759 79.2337 117.785 79.3532 117.803C79.3622 117.804 79.3716 117.802 79.3806 117.803C79.5002 117.82 79.6218 117.832 79.7437 117.842C79.7528 117.842 79.7621 117.841 79.7712 117.842C79.9024 117.851 80.0375 117.851 80.1707 117.851Z"  fill-rule="evenodd" />
        <g id="g6403">
          <path id="path3259" fill="#c8cddb" stroke-width="0.155358" d="M87.2194 104.797L87.0013 104.65C84.1746 103.579 80.6547 103.628 78.386 103.628C76.1174 103.628 72.5065 103.579 70.0242 104.65L69.8035 104.861C75.8891 107.962 85.7781 110.54 87.2194 104.797Z"  fill-rule="evenodd" />
          <path id="path3845" fill="#ddc1a3" stroke-width="0.154478" d="M76.6961 112.672C76.3748 112.692 76.0845 112.855 75.915 114.065C75.9202 114.317 76.3981 114.341 76.3884 114.118C76.6635 113.636 76.7405 113.154 76.6961 112.672Z"  fill-rule="evenodd" />
          <path id="path3715" fill="#ddc1a3" stroke-width="0.154478" d="M82.9806 112.502C83.3082 112.522 83.6507 112.684 84.2091 113.895C84.2849 114.147 83.8146 114.171 83.7528 113.948C83.3229 113.466 83.091 112.984 82.9806 112.502Z"  fill-rule="evenodd" />
          <path id="path3629" fill="#cab6a1" stroke-width="0.154478" d="M82.4495 112.287C82.0536 111.421 81.0233 109.473 81.8382 109.01C81.5932 108.168 80.4508 107.85 79.0769 107.665L78.8224 107.665C77.5082 107.85 76.4679 108.168 76.4935 109.01C77.4572 109.473 77.0527 111.421 76.9352 112.287L79.5492 111.396L82.4495 112.287Z"  fill-rule="evenodd" />
          <path id="path3634" fill="url(#defitem98)" stroke-width="0.154478" d="M82.4495 112.287C82.0536 111.421 81.0233 109.473 81.8382 109.01C81.5932 108.168 80.4508 107.85 79.0769 107.665L78.8224 107.665C77.5082 107.85 76.4679 108.168 76.4935 109.01C77.4572 109.473 77.0527 111.421 76.9352 112.287L79.5492 111.396L82.4495 112.287Z"  fill-rule="evenodd" />
          <path id="path3672" fill="url(#defitem99)" stroke-width="0.154478" d="M76.9352 112.287C77.0527 111.421 77.4572 109.473 76.4935 109.01C76.4679 108.168 77.5082 107.85 78.8224 107.665L79.0769 107.665C80.4508 107.85 81.5932 108.168 81.8382 109.01C81.0233 109.473 82.0536 111.421 82.4495 112.287L79.5492 111.396L76.9352 112.287Z"  fill-rule="evenodd" />
          <path id="path3676" fill="#382408" stroke-width="0.155358" d="M80.6835 117.8C81.999 117.776 82.9249 117.096 83.3214 116.26C83.7253 115.408 83.4832 114.391 82.9702 113.215C82.4572 112.04 81.6875 110.817 81.0758 110.374C80.4959 109.955 79.8517 110.031 79.4366 110.04C79.4153 110.04 79.3854 110.04 79.3624 110.04C78.9445 110.031 78.2759 109.955 77.8308 110.374C77.3612 110.817 76.8148 112.04 76.6796 113.215C76.5444 114.391 76.629 115.408 77.3065 116.26C77.9717 117.096 79.2858 117.776 80.6093 117.8L80.6835 117.8Z"  fill-rule="evenodd" />
          <path id="path2169" fill="url(#defitem100)" stroke-width="0.154478" d="M80.6809 117.804C81.9964 117.779 83.4144 117.099 83.8109 116.263C84.2148 115.412 83.9727 114.395 83.4597 113.219C82.9467 112.043 81.685 110.82 81.0732 110.378C80.4934 109.959 79.8491 110.035 79.4341 110.043C79.4127 110.043 79.3829 110.044 79.3598 110.043C78.9419 110.035 78.2733 109.959 77.8282 110.378C77.3586 110.82 76.4899 112.043 76.3547 113.219C76.2194 114.395 76.3041 115.412 76.9816 116.263C77.6467 117.099 79.2833 117.779 80.6067 117.804L80.6809 117.804Z"  fill-rule="evenodd" />
          <path id="path3157" fill="url(#defitem101)" stroke-width="0.155358" d="M83.4546 113.217C82.6348 111.998 81.6799 110.818 81.0681 110.376C80.4882 109.956 79.844 110.032 79.429 110.041C79.4076 110.041 79.3777 110.041 79.3547 110.041C78.9368 110.032 78.2682 109.956 77.8231 110.376C77.3535 110.818 76.7247 112.041 76.3495 113.217L83.4546 113.217Z"  fill-rule="evenodd" />
          <path id="path3161" fill="url(#defitem102)" stroke-width="0.155358" d="M77.3255 111.201C77.5998 110.764 77.7781 110.804 78.08 110.502C78.5023 110.104 79.1894 110.23 79.586 110.239C79.6078 110.239 79.6346 110.239 79.6549 110.239C80.0487 110.23 80.7121 110.157 81.2623 110.555C81.3243 110.599 81.3995 110.656 81.4739 110.716C81.3277 110.588 81.1826 110.473 81.072 110.393C80.5218 109.995 79.8637 110.069 79.4699 110.077C79.4496 110.077 79.4175 110.078 79.3956 110.077C78.9991 110.069 78.3682 109.995 77.9458 110.393C77.7393 110.588 77.5956 110.766 77.3255 111.201Z"  fill-rule="evenodd" />
          <path id="path3849" fill="url(#defitem103)" stroke-width="0.155358" d="M76.6544 114.163C76.653 114.252 76.4596 114.17 76.4274 114.057C76.3952 113.944 76.4933 113.671 76.5256 113.712C76.7841 114.041 76.6564 114.037 76.6544 114.163Z"  fill-rule="evenodd" />
          <path id="path3779" fill="url(#defitem104)" stroke-width="0.155358" d="M83.5013 113.993C83.5313 114.082 83.6983 114 83.6942 113.887C83.6901 113.774 83.5041 113.5 83.485 113.541C83.3322 113.87 83.4588 113.867 83.5013 113.993Z"  fill-rule="evenodd" />
          <path id="path3380" fill="url(#defitem105)" stroke-width="0" stroke-linecap="round" stroke-linejoin="round" d="M80.7003 117.849C82.831 117.849 84.3634 116.624 84.1207 115.113C84.0532 114.693 84.0442 114.276 83.7474 113.919L83.5305 113.816C83.1818 114.362 83.5305 114.79 83.4238 115.264C83.3024 115.564 83.0747 115.824 82.6817 115.925C81.9812 116.105 80.7656 115.422 80.309 115.414C79.8155 115.405 78.8753 116.057 78.102 115.901C77.6748 115.815 77.2905 115.539 77.1474 115.239C76.8794 114.678 76.7558 114.487 76.5896 113.883L76.4006 113.956C76.224 114.308 76.3341 114.699 76.4007 115.113C76.6433 116.624 78.5695 117.849 80.7003 117.849Z"  />
          <path id="path3347" fill="#af9177" stroke-width="0" stroke-linecap="round" stroke-linejoin="round" d="M80.6708 117.849C82.8015 117.849 84.3339 116.624 84.0913 115.113C84.0237 114.693 84.0147 114.276 83.718 113.919L83.501 113.816C83.1523 114.362 83.5106 114.85 83.404 115.324C83.2826 115.624 83.0548 115.885 82.6619 115.985C81.9614 116.165 80.7457 115.483 80.2892 115.474C79.7956 115.465 78.7933 115.73 78.0199 115.574C77.5927 115.487 77.2084 115.212 77.0653 114.912C76.7973 114.351 76.7263 114.487 76.5602 113.883L76.3711 113.956C76.1945 114.308 76.3046 114.699 76.3712 115.113C76.6138 116.624 78.54 117.849 80.6708 117.849Z"  />
          <path id="path3358" fill="url(#defitem106)" stroke-width="0" stroke-linecap="round" stroke-linejoin="round" d="M80.6708 117.849C81.9481 117.325 82.184 117.013 82.6619 115.985C81.9614 116.165 80.7457 115.483 80.2892 115.474C79.7956 115.465 78.7007 115.775 77.9273 115.619C77.5001 115.532 77.1159 115.257 76.9727 114.957C76.7047 114.396 76.7263 114.487 76.5602 113.883L76.3711 113.956C76.1945 114.308 76.3046 114.699 76.3712 115.113C76.6138 116.624 78.54 117.849 80.6708 117.849Z"  />
          <path id="path3441" fill="url(#defitem107)" stroke-width="0" stroke-linecap="round" stroke-linejoin="round" d="M82.52 116.194C82.6215 116.198 82.7196 116.189 82.8074 116.168C83.2015 116.074 83.4914 115.734 83.6133 115.436C83.6897 114.934 83.4316 114.722 83.4817 114.095C83.3965 114.46 83.5471 115.239 83.5242 115.349C83.4028 115.649 83.175 115.909 82.7821 116.01C82.0816 116.19 80.8659 115.508 80.4094 115.499C79.9158 115.49 78.9134 115.755 78.1401 115.599C77.7129 115.513 77.3286 115.237 77.1855 114.937L77.1963 115.005C77.3397 115.306 77.7251 115.588 78.1534 115.681C78.9287 115.85 79.8845 115.761 80.3793 115.779C80.7799 115.793 81.81 116.172 82.52 116.194Z"  />
          <path id="path3497" fill="url(#defitem108)" stroke-width="0.155358" d="M78.9252 115.763C77.9975 115.787 79.87 115.97 80.5001 116.04C81.5178 116.153 82.9112 116.528 83.1528 116.877C83.311 117.106 82.4149 117.451 82.4553 117.34C82.5306 117.116 82.6368 116.91 81.7778 116.423C81.3528 116.209 80.8756 115.961 80.2771 115.927C79.8477 115.894 79.3403 115.706 78.9252 115.763Z"  fill-rule="evenodd" />
          <path id="path6346" fill="url(#defitem109)" stroke-width="0.155358" d="M77.4904 116.438L77.0217 115.897C76.6436 115.158 76.7616 115.252 76.736 114.894C77.1228 115.425 76.9519 115.756 77.9935 116.137L79.1313 116.618L77.4904 116.438Z"  fill-rule="evenodd" />
          <path id="path3717" fill="url(#defitem110)" stroke-width="0.155358" d="M83.3393 112.777L83.1543 113.078C83.1543 113.078 83.4268 113.454 83.4437 113.559C83.4606 113.664 83.6612 113.974 83.6612 113.974L83.7757 113.918L83.3393 112.777Z"  fill-rule="evenodd" />
          <path id="path3875" fill="url(#defitem111)" stroke-width="0.154478" d="M78.9959 108.266C80.7283 108.231 81.3404 108.741 81.5623 109.191C81.7751 109.166 81.8837 109.043 81.863 108.95C83.0101 108.609 84.4081 108.266 85.6244 107.808C86.0758 107.638 86.5381 107.12 86.6363 106.846C86.9358 106.01 87.2246 104.831 87.2246 104.831L86.9363 104.621C84.1096 103.549 80.5147 103.599 78.2461 103.599C75.9774 103.599 72.3665 103.549 69.8843 104.621L69.6636 104.831C69.6636 104.831 70.331 106.01 70.8992 106.846C71.0855 107.12 71.7142 107.638 72.2203 107.808C73.5837 108.266 75.0921 108.609 76.3487 108.95C76.3579 109.043 76.5058 109.166 76.7267 109.191C77.0639 108.741 77.2635 108.3 78.9959 108.266Z"  fill-rule="evenodd" />
          <path id="path3451" fill="url(#defitem112)" stroke-width="0.155358" d="M83.6145 104.126C84.5307 105.692 84.9302 106.511 83.5338 107.358L80.4037 108.038L81.9664 108.803L85.1754 107.868L86.7292 106.337C86.7292 106.337 87.2577 105.147 86.7505 104.977C86.2433 104.807 84.9615 104.296 84.9615 104.296L83.6145 104.126Z"  fill-rule="evenodd" />
          <path id="path3885" fill="url(#defitem113)" stroke-width="0.155358" d="M81.5623 109.19C81.7751 109.165 81.8837 109.043 81.863 108.95C83.0101 108.609 84.4081 108.265 85.6244 107.807C86.0758 107.637 86.5381 107.119 86.6363 106.845C86.9358 106.009 87.2246 104.831 87.2246 104.831L86.9363 104.62C84.1096 103.549 80.5147 103.598 78.2461 103.598C75.9774 103.598 72.3665 103.549 69.8843 104.62L69.6636 104.831C69.6636 104.831 70.331 106.009 70.8992 106.845C71.0855 107.119 71.7142 107.637 72.2203 107.807C73.5837 108.265 75.0921 108.609 76.3487 108.95C76.3579 109.043 76.5058 109.165 76.7267 109.19C77.0639 108.74 77.2636 108.3 78.996 108.266C79.1043 108.264 79.2091 108.264 79.3088 108.266C79.1718 108.26 79.0281 108.255 78.8728 108.258C77.2168 108.291 77.026 108.716 76.7041 109.149C76.493 109.125 76.3522 109.006 76.3433 108.916C75.1417 108.588 73.7008 108.259 72.397 107.819C71.9131 107.655 71.3075 107.154 71.1291 106.89C70.5852 106.086 69.9486 104.955 69.9486 104.955L70.1599 104.752C72.5317 103.721 75.9826 103.767 78.1513 103.767C80.3199 103.767 83.987 103.572 86.6901 104.603L87.0072 104.966C87.0072 104.966 86.6617 106.766 86.1709 107.039C85.8757 107.203 85.6387 107.655 85.2073 107.819C84.045 108.259 82.7099 108.588 81.6137 108.916C81.6264 108.973 81.5913 109.044 81.5095 109.093C81.5294 109.125 81.5466 109.159 81.5623 109.19Z"  fill-rule="evenodd" />
          <path id="path3880" fill="url(#defitem114)" stroke-width="0.155358" d="M85.1385 107.507L85.2744 107.296C84.4326 106.32 84.0404 105.114 83.4817 103.993C84.6902 104.139 85.8739 104.384 86.9732 104.801L86.9647 104.748C84.138 103.676 80.5431 103.726 78.2745 103.726C76.0058 103.726 72.395 103.676 69.9127 104.748L69.692 104.959L69.9744 104.78C72.4567 103.708 76.0117 103.763 78.2803 103.763C79.5446 103.763 81.2331 103.832 82.9586 104.004C83.7758 105.735 84.465 106.67 85.1385 107.507Z"  fill-rule="evenodd" />
          <path id="path3261" fill="#f9ccca" stroke="#9c0e0e" stroke-width="0.0225715" d="M81.5622 109.19C81.7749 109.165 81.8836 109.043 81.8629 108.949C81.8757 108.946 81.8906 108.942 81.9035 108.938C81.6137 108.457 80.8686 107.943 78.9075 107.98C76.962 108.016 76.6378 108.456 76.2654 108.927C76.2922 108.934 76.3219 108.942 76.3485 108.949C76.3577 109.043 76.5056 109.165 76.7265 109.19C77.0637 108.74 77.2634 108.3 78.9958 108.265C80.7282 108.231 81.3402 108.74 81.5622 109.19ZM75.7782 108.799C75.766 108.779 75.7551 108.762 75.7533 108.743C75.0088 108.553 74.1928 108.363 73.3579 108.156C74.1819 108.392 75.0077 108.598 75.7782 108.799Z"  fill-rule="evenodd" />
          <path id="path3293" fill="url(#defitem115)" stroke-width="0.155358" d="M81.0377 108.251L83.9635 108.166L81.425 108.421L81.0377 108.251Z"  fill-rule="evenodd" />
          <path id="path3357" fill="url(#defitem116)" stroke-width="0.155358" d="M82.5255 104.081L83.7307 106.069L82.9027 104.263L82.5255 104.081Z"  fill-rule="evenodd" />
          <path id="path3498" fill="url(#defitem117)" stroke-width="0.155358" d="M73.0138 104.126C72.6007 105.692 72.4645 106.511 74.1329 107.358L77.4815 108.038L76.1648 108.803L72.6551 107.868L70.6096 106.337C70.6096 106.337 69.6984 105.147 70.151 104.977C70.6036 104.806 71.7214 104.296 71.7214 104.296L73.0138 104.126Z"  fill-rule="evenodd" />
          <path id="path3524" fill="url(#defitem118)" stroke="url(#defitem119)" stroke-width="0.045143" d="M81.0036 108.038L81.8618 105.912L81.0036 108.038Z"  fill-rule="evenodd" />
        </g>
      </g>
    </g>
  </g>
</svg>
