<?xml version="1.0" encoding="UTF-8" standalone="no"?>
<!-- Created with Inkscape (http://www.inkscape.org/) -->
<svg
   xmlns:svg="http://www.w3.org/2000/svg"
   xmlns="http://www.w3.org/2000/svg"
   version="1.0"
   width="128"
   height="128"
   id="svg2">
  <defs
     id="defs4">
    <radialGradient
       cx="4"
       cy="2.25"
       r="128.035"
       fx="4"
       fy="2.25"
       id="defitem28"
       gradientUnits="userSpaceOnUse">
      <stop
         id="stop7"
         style="stop-color:#f2f2f2;stop-opacity:1"
         offset="0" />
      <stop
         id="stop9"
         style="stop-color:#c3c3c3;stop-opacity:1"
         offset="1" />
    </radialGradient>
    <radialGradient
       cx="99"
       cy="102.75"
       r="103.251"
       fx="99"
       fy="102.75"
       id="defitem29"
       gradientUnits="userSpaceOnUse">
      <stop
         id="stop12"
         style="stop-color:#525456;stop-opacity:1"
         offset="0" />
      <stop
         id="stop14"
         style="stop-color:#89898c;stop-opacity:1"
         offset="0.113661" />
      <stop
         id="stop16"
         style="stop-color:#ebebeb;stop-opacity:1"
         offset="0.202967" />
      <stop
         id="stop18"
         style="stop-color:#f9f9f9;stop-opacity:1"
         offset="0.23630001" />
      <stop
         id="stop20"
         style="stop-color:#ffffff;stop-opacity:1"
         offset="0.27219999" />
      <stop
         id="stop22"
         style="stop-color:#f9f9f9;stop-opacity:1"
         offset="0.53130001" />
      <stop
         id="stop24"
         style="stop-color:#ebebeb;stop-opacity:1"
         offset="0.84490001" />
      <stop
         id="stop26"
         style="stop-color:#e1e2e2;stop-opacity:1"
         offset="1" />
    </radialGradient>
    <linearGradient
       x1="93.943703"
       y1="98.821602"
       x2="86.458"
       y2="91.335899"
       id="defitem30"
       gradientUnits="userSpaceOnUse">
      <stop
         id="stop29"
         style="stop-color:#878985;stop-opacity:1"
         offset="0" />
      <stop
         id="stop31"
         style="stop-color:#8c8e89;stop-opacity:1"
         offset="0.0072" />
      <stop
         id="stop33"
         style="stop-color:#aaaca8;stop-opacity:1"
         offset="0.0673" />
      <stop
         id="stop35"
         style="stop-color:#c3c6c3;stop-opacity:1"
         offset="0.1347" />
      <stop
         id="stop37"
         style="stop-color:#dbdbda;stop-opacity:1"
         offset="0.26525801" />
      <stop
         id="stop39"
         style="stop-color:#ebebeb;stop-opacity:1"
         offset="0.376461" />
      <stop
         id="stop41"
         style="stop-color:#f6f6f6;stop-opacity:1"
         offset="0.48740301" />
      <stop
         id="stop43"
         style="stop-color:#fdfdfd;stop-opacity:1"
         offset="0.63240898" />
      <stop
         id="stop45"
         style="stop-color:#ffffff;stop-opacity:1"
         offset="1" />
    </linearGradient>
    <linearGradient
       x1="64.000198"
       y1="117.18"
       x2="64.000198"
       y2="122.802"
       id="defitem912"
       gradientUnits="userSpaceOnUse">
      <stop
         id="stop2523"
         style="stop-color:#ffffff;stop-opacity:1"
         offset="0" />
      <stop
         id="stop2525"
         style="stop-color:#ffffff;stop-opacity:0"
         offset="1" />
    </linearGradient>
    <linearGradient
       x1="64.000198"
       y1="128"
       x2="64.000198"
       y2="122.802"
       id="defitem911"
       gradientUnits="userSpaceOnUse">
      <stop
         id="stop2518"
         style="stop-color:#ffffff;stop-opacity:1"
         offset="0" />
      <stop
         id="stop2520"
         style="stop-color:#ffffff;stop-opacity:0"
         offset="1" />
    </linearGradient>
    <radialGradient
       cx="64.000198"
       cy="122.802"
       r="61.5368"
       fx="64.000198"
       fy="122.802"
       id="defitem910"
       gradientUnits="userSpaceOnUse">
      <stop
         id="stop2513"
         style="stop-color:#000000;stop-opacity:1"
         offset="0" />
      <stop
         id="stop2515"
         style="stop-color:#000000;stop-opacity:0"
         offset="1" />
    </radialGradient>
  </defs>
  <g
     id="g2548">
    <g
       id="sombra">
      <path
         d="M 128,122.802 C 128,125.667 99.3468,127.99 64.0002,127.99 C 28.6539,127.99 0.000171,125.667 0.000171,122.802 C 0.000171,119.937 28.6539,117.614 64.0002,117.614 C 99.3468,117.614 128,119.937 128,122.802 L 128,122.802 z"
         id="path1563"
         style="fill:url(#defitem910);stroke-width:0;stroke-linecap:round;stroke-linejoin:round" />
      <path
         d="M 128,122.802 L 0.00017,122.802 C 0.00017,125.673 28.6539,128 64.0002,128 C 99.3468,128 128,125.673 128,122.802 L 128,122.802 z"
         id="path3251"
         style="fill:url(#defitem911);stroke-width:0;stroke-linecap:round;stroke-linejoin:round" />
      <path
         d="M 128,122.802 L 0.00017,122.802 C 0.00017,119.697 28.6539,117.18 64.0002,117.18 C 99.3468,117.18 128,119.697 128,122.802 L 128,122.802 z"
         id="path2455"
         style="fill:url(#defitem912);stroke-width:0;stroke-linecap:round;stroke-linejoin:round" />
      <path
         d="M 64,117.184 C 29.7583,117.184 1.77662,119.526 0.0625,122.496 C 0.000125,122.59 0,122.714 0,122.809 C 0,122.988 0.094004,123.134 0.3125,123.309 C 0.425013,123.402 0.546842,123.499 0.71875,123.59 C 1.85178,124.191 4.27039,124.763 7.71875,125.278 C 9.68924,125.572 11.9852,125.833 14.5938,126.09 C 18.5066,126.474 23.1115,126.81 28.2188,127.09 C 33.326,127.37 38.9567,127.594 44.9688,127.746 C 50.9808,127.898 57.3726,127.996 64,127.996 C 70.6275,127.996 77.0192,127.898 83.0313,127.746 C 89.0433,127.594 94.6741,127.37 99.7813,127.09 C 104.888,126.81 109.462,126.474 113.375,126.09 C 115.984,125.833 118.311,125.572 120.281,125.278 C 123.73,124.763 126.117,124.191 127.25,123.59 C 127.422,123.499 127.544,123.402 127.656,123.309 C 127.766,123.222 127.851,123.147 127.906,123.059 C 127.962,122.97 128,122.898 128,122.809 C 128,122.714 127.969,122.59 127.906,122.496 C 126.192,119.526 98.242,117.184 64,117.184 z"
         id="path2440"
         style="fill:#ffffff;fill-opacity:0.5;stroke-width:0;stroke-linecap:round;stroke-linejoin:round" />
    </g>
  </g>
  <g
     id="Layer">
    <g
       id="foli">
      <path
         d="M 19.0845,8.991 L 19.0845,111.922 C 19.0845,112.955 19.9229,113.793 20.956,113.793 L 76.3256,113.793 C 76.8215,113.793 77.2978,113.596 77.6487,113.245 L 108.367,82.5266 C 108.718,82.1757 108.915,81.6994 108.915,81.2035 L 108.915,8.991 L 19.0845,8.991 z"
         id="path6210"
         style="fill:#f6f6f6;fill-opacity:0.75;stroke:#000000;stroke-width:9.98122025;stroke-linejoin:round;stroke-opacity:0.05" />
      <path
         d="M 19.0845,8.991 L 19.0845,111.922 C 19.0845,112.955 19.9229,113.793 20.956,113.793 L 76.3256,113.793 C 76.8215,113.793 77.2978,113.596 77.6487,113.245 L 108.367,82.5266 C 108.718,82.1757 108.915,81.6994 108.915,81.2035 L 108.915,8.991 L 19.0845,8.991 z"
         id="path6212"
         style="fill:none;stroke:#000000;stroke-width:7.48590994;stroke-linejoin:round;stroke-opacity:0.1" />
      <path
         d="M 19.0845,8.991 L 19.0845,111.922 C 19.0845,112.955 19.9229,113.793 20.956,113.793 L 76.3256,113.793 C 76.8215,113.793 77.2978,113.596 77.6487,113.245 L 108.367,82.5266 C 108.718,82.1757 108.915,81.6994 108.915,81.2035 L 108.915,8.991 L 19.0845,8.991 z"
         id="path6214"
         style="fill:none;stroke:#000000;stroke-width:4.99061012;stroke-linejoin:round;stroke-opacity:0.15" />
      <path
         d="M 19.0845,8.991 L 19.0845,111.922 C 19.0845,112.955 19.9229,113.793 20.956,113.793 L 76.3256,113.793 C 76.8215,113.793 77.2978,113.596 77.6487,113.245 L 108.367,82.5266 C 108.718,82.1757 108.915,81.6994 108.915,81.2035 L 108.915,8.991 L 19.0845,8.991 z"
         id="path6216"
         style="fill:none;stroke:#000000;stroke-width:2.49530005;stroke-linejoin:round;stroke-opacity:0.2" />
      <path
         d="M 19.0845,8.991 L 19.0845,111.922 C 19.0845,112.955 19.9229,113.793 20.956,113.793 L 76.3256,113.793 C 76.8215,113.793 77.2978,113.596 77.6487,113.245 L 108.367,82.5266 C 108.718,82.1757 108.915,81.6994 108.915,81.2035 L 108.915,8.991 L 19.0845,8.991 z"
         id="path6218"
         style="fill:url(#defitem28)" />
      <path
         d="M 22.4824,11.69 C 21.9851,11.69 21.5798,12.096 21.5798,12.594 L 21.5798,110.19 C 21.5798,110.689 21.9851,111.094 22.4824,111.094 L 75.8885,111.094 C 76.1259,111.094 76.3587,110.998 76.5266,110.829 L 106.156,81.1633 C 106.325,80.9943 106.42,80.7621 106.42,80.5244 L 106.42,12.594 C 106.42,12.096 106.016,11.69 105.518,11.69 L 22.4824,11.69 z"
         id="path6220"
         style="fill:url(#defitem29)" />
      <path
         d="M 77.6487,113.245 C 77.6487,113.245 88.7971,103.968 93.9437,98.8216 C 99.0903,93.675 108.367,82.5266 108.367,82.5266 C 108.367,82.5266 96.0491,91.3357 86.4578,91.3357 C 86.4578,100.927 77.6487,113.245 77.6487,113.245 z"
         id="path6222"
         style="fill:url(#defitem30)" />
      <path
         d="M 36.1727,108.591 C 36.1728,109.958 35.2159,111.068 34.0369,111.068 L 24.1209,111.069 C 22.9419,111.069 21.9848,109.959 21.9847,108.592 L 21.9792,14.874 C 21.9791,13.507 22.936,12.397 24.115,12.397 L 34.031,12.396 C 35.21,12.396 36.1671,13.505 36.1672,14.873 L 36.1727,108.591 z"
         id="path439"
         style="fill:#008200;stroke-width:2.70000005;stroke-linecap:round;stroke-linejoin:round" />
    </g>
    <g
       id="g57">
      <path
         d="M 42.9048,77.7181 L 42.9048,78.1027 C 42.805,78.058 42.7076,78.0243 42.6126,78.0016 C 42.5177,77.9789 42.428,77.9675 42.3436,77.9675 C 42.2316,77.9675 42.1489,77.983 42.0953,78.0138 C 42.0418,78.0447 42.015,78.0925 42.015,78.1575 C 42.015,78.2061 42.0329,78.2443 42.0686,78.2718 C 42.105,78.2986 42.1708,78.3218 42.2657,78.3412 L 42.4653,78.3814 C 42.6674,78.422 42.811,78.4837 42.8962,78.5664 C 42.9814,78.6492 43.024,78.7669 43.024,78.9194 C 43.024,79.1198 42.9644,79.2692 42.8451,79.3673 C 42.7266,79.4647 42.5453,79.5134 42.3011,79.5134 C 42.1858,79.5134 42.0702,79.5024 41.9541,79.4805 C 41.8381,79.4586 41.722,79.4262 41.606,79.3831 L 41.606,78.9876 C 41.722,79.0492 41.834,79.0959 41.942,79.1276 C 42.0507,79.1583 42.1554,79.1738 42.256,79.1738 C 42.3582,79.1738 42.4366,79.1567 42.4909,79.1226 C 42.5453,79.0886 42.5725,79.0399 42.5725,78.9766 C 42.5725,78.9198 42.5538,78.876 42.5164,78.8451 C 42.48,78.8143 42.4066,78.7867 42.2962,78.7624 L 42.1148,78.7223 C 41.933,78.6833 41.8,78.6212 41.7156,78.536 C 41.632,78.4508 41.5902,78.3359 41.5902,78.1915 C 41.5902,78.0106 41.6486,77.8714 41.7654,77.774 C 41.8823,77.6767 42.0503,77.6279 42.2694,77.6279 C 42.3692,77.6279 42.4718,77.6357 42.5773,77.6511 C 42.6828,77.6657 42.7919,77.688 42.9048,77.7181 M 43.4172,78.1148 L 43.8529,78.1148 L 43.8529,79.4781 L 43.4172,79.4781 L 43.4172,78.1148 M 43.4172,77.5841 L 43.8529,77.5841 L 43.8529,77.9395 L 43.4172,77.9395 L 43.4172,77.5841 M 45.2016,79.2469 C 45.1416,79.3263 45.0754,79.3848 45.0032,79.4221 C 44.931,79.4594 44.8474,79.4781 44.7525,79.4781 C 44.5861,79.4781 44.4486,79.4128 44.3398,79.2821 C 44.2311,79.1507 44.1767,78.9835 44.1767,78.7807 C 44.1767,78.577 44.2311,78.4102 44.3398,78.2804 C 44.4486,78.1497 44.5861,78.0844 44.7525,78.0844 C 44.8474,78.0844 44.931,78.1031 45.0032,78.1404 C 45.0754,78.1777 45.1416,78.2366 45.2016,78.3169 L 45.2016,78.1148 L 45.6398,78.1148 L 45.6398,79.3406 C 45.6398,79.5597 45.5704,79.7268 45.4317,79.842 C 45.2937,79.9581 45.0933,80.0161 44.8303,80.0161 C 44.7452,80.0161 44.6628,80.0096 44.5832,79.9966 C 44.5038,79.9836 44.4238,79.9638 44.3434,79.937 L 44.3434,79.5974 C 44.4198,79.6412 44.4944,79.6736 44.5675,79.6947 C 44.6405,79.7167 44.7139,79.7276 44.7878,79.7276 C 44.9305,79.7276 45.0353,79.6963 45.1018,79.6339 C 45.1683,79.5714 45.2016,79.4736 45.2016,79.3406 L 45.2016,79.2469 M 44.9143,78.3984 C 44.8243,78.3984 44.7541,78.4317 44.7038,78.4982 C 44.6534,78.5648 44.6283,78.6589 44.6283,78.7807 C 44.6283,78.9056 44.6527,79.0005 44.7013,79.0655 C 44.75,79.1296 44.821,79.1616 44.9143,79.1616 C 45.0052,79.1616 45.0758,79.1283 45.1262,79.0618 C 45.1764,78.9953 45.2016,78.9016 45.2016,78.7807 C 45.2016,78.6589 45.1764,78.5648 45.1262,78.4982 C 45.0758,78.4317 45.0052,78.3984 44.9143,78.3984 M 47.4315,78.648 L 47.4315,79.4781 L 46.9933,79.4781 L 46.9933,79.343 L 46.9933,78.8427 C 46.9933,78.7251 46.9905,78.6439 46.9848,78.5993 C 46.9799,78.5546 46.971,78.5218 46.958,78.5007 C 46.9409,78.4723 46.9179,78.4504 46.8886,78.435 C 46.8594,78.4187 46.8261,78.4106 46.7888,78.4106 C 46.6979,78.4106 46.6265,78.4459 46.5746,78.5166 C 46.5227,78.5863 46.4967,78.6833 46.4967,78.8074 L 46.4967,79.4781 L 46.061,79.4781 L 46.061,78.1148 L 46.4967,78.1148 L 46.4967,78.3145 C 46.5624,78.235 46.6322,78.1765 46.7061,78.1391 C 46.7799,78.1011 46.8614,78.082 46.9507,78.082 C 47.1082,78.082 47.2275,78.1302 47.3086,78.2268 C 47.3905,78.3234 47.4315,78.4637 47.4315,78.648 M 48.6012,78.2718 L 49.0991,78.8196 C 49.142,78.7628 49.1745,78.6991 49.1964,78.6285 C 49.2191,78.5579 49.2325,78.478 49.2366,78.3887 L 49.6152,78.3887 C 49.603,78.5364 49.5741,78.6678 49.5287,78.7831 C 49.4841,78.8983 49.4216,78.9994 49.3413,79.0862 L 49.6979,79.4781 L 49.1818,79.4781 L 49.0625,79.3454 C 48.9773,79.4022 48.8877,79.4444 48.7936,79.472 C 48.6994,79.4996 48.5996,79.5134 48.4941,79.5134 C 48.2807,79.5134 48.1078,79.4574 47.9756,79.3454 C 47.8441,79.2326 47.7784,79.0874 47.7784,78.9096 C 47.7784,78.7912 47.8072,78.6865 47.8648,78.5957 C 47.9233,78.5039 48.0182,78.4151 48.1496,78.3291 C 48.1156,78.2861 48.0904,78.243 48.0742,78.2 C 48.058,78.157 48.0498,78.112 48.0498,78.065 C 48.0498,77.9327 48.1014,77.8268 48.2044,77.7472 C 48.3074,77.6677 48.4446,77.6279 48.6158,77.6279 C 48.6897,77.6279 48.7663,77.634 48.8459,77.6463 C 48.9263,77.6576 49.0098,77.675 49.0966,77.6986 L 49.0966,78.037 C 49.0204,77.998 48.9481,77.9692 48.88,77.9505 C 48.8118,77.9318 48.7452,77.9225 48.6804,77.9225 C 48.6179,77.9225 48.5692,77.9347 48.5343,77.959 C 48.5002,77.9825 48.4831,78.0163 48.4831,78.06 C 48.4831,78.0877 48.4929,78.1193 48.5124,78.155 C 48.5326,78.1899 48.5622,78.2289 48.6012,78.2718 M 48.359,78.5737 C 48.3063,78.6119 48.2665,78.6553 48.2397,78.7039 C 48.2129,78.7518 48.1996,78.8046 48.1996,78.8622 C 48.1996,78.9555 48.234,79.0351 48.303,79.1008 C 48.372,79.1665 48.4547,79.1994 48.5513,79.1994 C 48.6057,79.1994 48.6564,79.1912 48.7035,79.175 C 48.7506,79.158 48.7943,79.1328 48.8349,79.0996 L 48.359,78.5737 M 50.6254,78.8646 C 50.5345,78.8646 50.466,78.8801 50.4197,78.9109 C 50.3742,78.9417 50.3515,78.9871 50.3515,79.0472 C 50.3515,79.1024 50.3698,79.1458 50.4063,79.1774 C 50.4437,79.2083 50.4951,79.2237 50.5609,79.2237 C 50.6429,79.2237 50.7119,79.1945 50.7678,79.136 C 50.8238,79.0769 50.8518,79.003 50.8518,78.9146 L 50.8518,78.8646 L 50.6254,78.8646 M 51.2913,78.7003 L 51.2913,79.4781 L 50.8518,79.4781 L 50.8518,79.276 C 50.7934,79.3588 50.7276,79.4192 50.6546,79.4574 C 50.5816,79.4947 50.4928,79.5134 50.3881,79.5134 C 50.2469,79.5134 50.1321,79.4724 50.0436,79.3905 C 49.956,79.3077 49.9121,79.2006 49.9121,79.0691 C 49.9121,78.9092 49.9669,78.792 50.0764,78.7173 C 50.1868,78.6427 50.3596,78.6053 50.5949,78.6053 L 50.8518,78.6053 L 50.8518,78.5713 C 50.8518,78.5023 50.8246,78.452 50.7703,78.4203 C 50.7159,78.3879 50.6311,78.3716 50.5158,78.3716 C 50.4226,78.3716 50.3357,78.381 50.2554,78.3996 C 50.1751,78.4184 50.1004,78.4463 50.0314,78.4837 L 50.0314,78.1514 C 50.1248,78.1286 50.2185,78.1116 50.3126,78.1002 C 50.4067,78.0881 50.5008,78.082 50.5949,78.082 C 50.8408,78.082 51.0181,78.1307 51.1269,78.228 C 51.2365,78.3246 51.2913,78.482 51.2913,78.7003 M 52.8005,78.1575 L 52.8005,78.5128 C 52.7413,78.4723 52.6817,78.4423 52.6216,78.4228 C 52.5624,78.4034 52.5007,78.3936 52.4366,78.3936 C 52.3149,78.3936 52.22,78.4293 52.1518,78.5007 C 52.0844,78.5713 52.0507,78.6703 52.0507,78.7977 C 52.0507,78.9251 52.0844,79.0245 52.1518,79.0959 C 52.22,79.1665 52.3149,79.2018 52.4366,79.2018 C 52.5048,79.2018 52.5692,79.1917 52.6301,79.1714 C 52.6918,79.151 52.7486,79.121 52.8005,79.0813 L 52.8005,79.4379 C 52.7324,79.4631 52.663,79.4817 52.5924,79.4939 C 52.5226,79.5069 52.4524,79.5134 52.3818,79.5134 C 52.1359,79.5134 51.9436,79.4505 51.8048,79.3247 C 51.6661,79.1981 51.5968,79.0224 51.5968,78.7977 C 51.5968,78.5729 51.6661,78.3977 51.8048,78.2718 C 51.9436,78.1453 52.1359,78.082 52.3818,78.082 C 52.4532,78.082 52.5234,78.0884 52.5924,78.1014 C 52.6622,78.1136 52.7315,78.1323 52.8005,78.1575 M 54.2807,78.1575 L 54.2807,78.5128 C 54.2214,78.4723 54.1618,78.4423 54.1017,78.4228 C 54.0425,78.4034 53.9808,78.3936 53.9167,78.3936 C 53.795,78.3936 53.7,78.4293 53.6318,78.5007 C 53.5645,78.5713 53.5308,78.6703 53.5308,78.7977 C 53.5308,78.9251 53.5645,79.0245 53.6318,79.0959 C 53.7,79.1665 53.795,79.2018 53.9167,79.2018 C 53.9848,79.2018 54.0493,79.1917 54.1102,79.1714 C 54.1719,79.151 54.2287,79.121 54.2807,79.0813 L 54.2807,79.4379 C 54.2125,79.4631 54.1431,79.4817 54.0725,79.4939 C 54.0027,79.5069 53.9325,79.5134 53.862,79.5134 C 53.6161,79.5134 53.4238,79.4505 53.285,79.3247 C 53.1462,79.1981 53.0769,79.0224 53.0769,78.7977 C 53.0769,78.5729 53.1462,78.3977 53.285,78.2718 C 53.4238,78.1453 53.6161,78.082 53.862,78.082 C 53.9334,78.082 54.0036,78.0884 54.0725,78.1014 C 54.1423,78.1136 54.2116,78.1323 54.2807,78.1575 M 56.02,78.7928 L 56.02,78.9169 L 55.0012,78.9169 C 55.0117,79.0192 55.0487,79.0959 55.112,79.147 C 55.1753,79.1981 55.2637,79.2237 55.3773,79.2237 C 55.469,79.2237 55.5628,79.2103 55.6585,79.1835 C 55.7551,79.156 55.854,79.1146 55.9555,79.0594 L 55.9555,79.3953 C 55.8524,79.4343 55.7494,79.4635 55.6463,79.483 C 55.5433,79.5033 55.4402,79.5134 55.3372,79.5134 C 55.0905,79.5134 54.8985,79.4509 54.7614,79.326 C 54.6251,79.2001 54.5569,79.0241 54.5569,78.7977 C 54.5569,78.5753 54.6239,78.4005 54.7578,78.273 C 54.8925,78.1457 55.0775,78.082 55.3128,78.082 C 55.527,78.082 55.6983,78.1465 55.8265,78.2755 C 55.9555,78.4045 56.02,78.577 56.02,78.7928 M 55.5721,78.648 C 55.5721,78.5652 55.5477,78.4987 55.499,78.4484 C 55.4512,78.3973 55.3883,78.3716 55.3104,78.3716 C 55.226,78.3716 55.1574,78.3956 55.1047,78.4435 C 55.0519,78.4905 55.0191,78.5587 55.006,78.648 L 55.5721,78.648 M 56.7844,79.2809 L 56.7844,79.9966 L 56.3486,79.9966 L 56.3486,78.1148 L 56.7844,78.1148 L 56.7844,78.3145 C 56.8444,78.235 56.911,78.1765 56.9841,78.1391 C 57.0571,78.1011 57.141,78.082 57.236,78.082 C 57.4039,78.082 57.5419,78.1489 57.6498,78.2828 C 57.7578,78.4159 57.8117,78.5875 57.8117,78.7977 C 57.8117,79.0078 57.7578,79.1799 57.6498,79.3138 C 57.5419,79.4469 57.4039,79.5134 57.236,79.5134 C 57.141,79.5134 57.0571,79.4947 56.9841,79.4574 C 56.911,79.4192 56.8444,79.3604 56.7844,79.2809 M 57.0741,78.3984 C 56.9808,78.3984 56.9089,78.4329 56.8587,78.5019 C 56.8091,78.5701 56.7844,78.6687 56.7844,78.7977 C 56.7844,78.9267 56.8091,79.0257 56.8587,79.0947 C 56.9089,79.1628 56.9808,79.1969 57.0741,79.1969 C 57.1674,79.1969 57.2384,79.1628 57.2871,79.0947 C 57.3366,79.0265 57.3614,78.9275 57.3614,78.7977 C 57.3614,78.6678 57.3366,78.5689 57.2871,78.5007 C 57.2384,78.4325 57.1674,78.3984 57.0741,78.3984 M 58.6114,77.7277 L 58.6114,78.1148 L 59.0605,78.1148 L 59.0605,78.4264 L 58.6114,78.4264 L 58.6114,79.0046 C 58.6114,79.0679 58.624,79.1109 58.6491,79.1337 C 58.6743,79.1555 58.7242,79.1665 58.7989,79.1665 L 59.0228,79.1665 L 59.0228,79.4781 L 58.6491,79.4781 C 58.4772,79.4781 58.355,79.4424 58.2827,79.371 C 58.2113,79.2988 58.1756,79.1767 58.1756,79.0046 L 58.1756,78.4264 L 57.959,78.4264 L 57.959,78.1148 L 58.1756,78.1148 L 58.1756,77.7277 L 58.6114,77.7277"
         id="text9764"
         style="fill:#000000;stroke-width:0.84791398" />
      <path
         d="M 41.5894,99.564 L 41.5894,80.8313 L 73.0922,80.8313 L 73.0922,99.564 L 41.5894,99.564 z"
         id="path2954"
         style="fill:#ffffff;stroke:#000000;stroke-width:0.95799899;stroke-linecap:round;stroke-linejoin:round" />
      <path
         d="M 40.725,24.15 L 41.3511,24.15 L 41.3511,28.2102 L 43.6042,28.2102 L 43.6042,28.7317 L 40.725,28.7317 L 40.725,24.15 M 45.4669,25.69 C 45.1612,25.69 44.9193,25.809 44.7417,26.046 C 44.564,26.282 44.4751,26.605 44.4751,27.016 C 44.4751,27.428 44.563,27.751 44.7386,27.989 C 44.9163,28.2238 45.1591,28.3417 45.4669,28.3417 C 45.7707,28.3417 46.0114,28.223 46.1891,27.986 C 46.3667,27.749 46.4556,27.425 46.4556,27.016 C 46.4556,26.609 46.3667,26.287 46.1891,26.05 C 46.0114,25.811 45.7707,25.69 45.4669,25.69 M 45.4669,25.212 C 45.9628,25.212 46.3523,25.371 46.6354,25.69 C 46.9185,26.01 47.06,26.452 47.06,27.016 C 47.06,27.579 46.9185,28.0203 46.6354,28.3417 C 46.3523,28.6613 45.9628,28.8207 45.4669,28.8207 C 44.969,28.8207 44.5785,28.6613 44.2954,28.3417 C 44.0144,28.0203 43.8739,27.579 43.8739,27.016 C 43.8739,26.452 44.0144,26.01 44.2954,25.69 C 44.5785,25.371 44.969,25.212 45.4669,25.212 M 50.0136,25.823 C 49.9496,25.786 49.8793,25.759 49.8029,25.743 C 49.7285,25.724 49.6459,25.715 49.555,25.715 C 49.2326,25.715 48.9847,25.819 48.8111,26.029 C 48.6396,26.235 48.5538,26.532 48.5538,26.921 L 48.5538,28.7317 L 47.9805,28.7317 L 47.9805,25.295 L 48.5538,25.295 L 48.5538,25.828 C 48.6737,25.62 48.8297,25.466 49.0219,25.365 C 49.214,25.263 49.4475,25.212 49.7223,25.212 C 49.7615,25.212 49.8049,25.215 49.8525,25.221 C 49.9,25.226 49.9527,25.232 50.0106,25.243 L 50.0136,25.823 M 53.5871,26.872 L 53.5871,27.148 L 50.9651,27.148 C 50.9899,27.537 51.1077,27.834 51.3185,28.0381 C 51.5313,28.2408 51.8267,28.3417 52.2049,28.3417 C 52.4239,28.3417 52.6357,28.3154 52.8402,28.262 C 53.0469,28.2085 53.2514,28.1288 53.4539,28.0229 L 53.4539,28.5562 C 53.2493,28.6427 53.0396,28.708 52.8247,28.7529 C 52.6098,28.7978 52.3918,28.8207 52.1708,28.8207 C 51.617,28.8207 51.178,28.6613 50.8536,28.3417 C 50.5313,28.0229 50.3701,27.591 50.3701,27.047 C 50.3701,26.485 50.523,26.039 50.8288,25.709 C 51.1366,25.377 51.5509,25.212 52.0716,25.212 C 52.5385,25.212 52.9074,25.361 53.178,25.66 C 53.4508,25.957 53.5871,26.361 53.5871,26.872 M 53.0168,26.706 C 53.0128,26.397 52.9249,26.151 52.7535,25.967 C 52.584,25.783 52.3588,25.69 52.0778,25.69 C 51.7596,25.69 51.5044,25.779 51.3123,25.957 C 51.1222,26.135 51.0126,26.386 50.9837,26.709 L 53.0168,26.706 M 57.2258,25.955 C 57.3683,25.701 57.5388,25.514 57.7372,25.393 C 57.9355,25.272 58.169,25.212 58.4376,25.212 C 58.7992,25.212 59.0782,25.338 59.2744,25.589 C 59.4707,25.839 59.5688,26.195 59.5688,26.657 L 59.5688,28.7317 L 58.9955,28.7317 L 58.9955,26.675 C 58.9955,26.347 58.9366,26.102 58.8188,25.942 C 58.701,25.783 58.5212,25.703 58.2795,25.703 C 57.9841,25.703 57.7506,25.8 57.579,25.995 C 57.4076,26.189 57.3219,26.453 57.3219,26.789 L 57.3219,28.7317 L 56.7484,28.7317 L 56.7484,26.675 C 56.7484,26.344 56.6896,26.1 56.5718,25.942 C 56.454,25.783 56.2722,25.703 56.0263,25.703 C 55.735,25.703 55.5036,25.801 55.3321,25.997 C 55.1605,26.192 55.0748,26.456 55.0748,26.789 L 55.0748,28.7317 L 54.5015,28.7317 L 54.5015,25.295 L 55.0748,25.295 L 55.0748,25.828 C 55.205,25.618 55.361,25.462 55.5429,25.362 C 55.7247,25.262 55.9405,25.212 56.1906,25.212 C 56.4427,25.212 56.6565,25.276 56.8321,25.402 C 57.0098,25.529 57.141,25.713 57.2258,25.955 M 62.7301,25.295 L 63.3004,25.295 L 63.3004,28.7317 L 62.7301,28.7317 L 62.7301,25.295 M 62.7301,23.957 L 63.3004,23.957 L 63.3004,24.672 L 62.7301,24.672 L 62.7301,23.957 M 65.0422,28.2162 L 65.0422,30.0383 L 64.4689,30.0383 L 64.4689,25.295 L 65.0422,25.295 L 65.0422,25.817 C 65.1621,25.612 65.313,25.46 65.4947,25.362 C 65.6787,25.262 65.8977,25.212 66.1518,25.212 C 66.5733,25.212 66.9153,25.377 67.1777,25.709 C 67.4421,26.04 67.5744,26.476 67.5744,27.016 C 67.5744,27.556 67.4421,27.992 67.1777,28.323 C 66.9153,28.6545 66.5733,28.8207 66.1518,28.8207 C 65.8977,28.8207 65.6787,28.7716 65.4947,28.6732 C 65.313,28.5731 65.1621,28.4205 65.0422,28.2162 M 66.9824,27.016 C 66.9824,26.601 66.8957,26.275 66.7221,26.04 C 66.5506,25.803 66.314,25.684 66.0123,25.684 C 65.7107,25.684 65.473,25.803 65.2995,26.04 C 65.128,26.275 65.0422,26.601 65.0422,27.016 C 65.0422,27.432 65.128,27.757 65.2995,27.995 C 65.473,28.2306 65.7107,28.3476 66.0123,28.3476 C 66.314,28.3476 66.5506,28.2306 66.7221,27.995 C 66.8957,27.757 66.9824,27.432 66.9824,27.016 M 70.7326,25.396 L 70.7326,25.93 C 70.5715,25.848 70.4041,25.787 70.2305,25.746 C 70.0569,25.705 69.8772,25.684 69.6912,25.684 C 69.4081,25.684 69.1954,25.728 69.0528,25.813 C 68.9123,25.9 68.8421,26.029 68.8421,26.2 C 68.8421,26.331 68.8927,26.434 68.9939,26.51 C 69.0952,26.584 69.2987,26.654 69.6044,26.721 L 69.7997,26.764 C 70.2047,26.85 70.4919,26.972 70.6613,27.13 C 70.8328,27.285 70.9186,27.503 70.9186,27.784 C 70.9186,28.1026 70.7905,28.3552 70.5342,28.5409 C 70.2801,28.7275 69.9298,28.8207 69.4836,28.8207 C 69.2976,28.8207 69.1034,28.8021 68.9009,28.7656 C 68.7005,28.7309 68.4887,28.6774 68.2656,28.6054 L 68.2656,28.0229 C 68.4763,28.1314 68.6839,28.2128 68.8885,28.2679 C 69.093,28.3213 69.2955,28.3476 69.496,28.3476 C 69.7646,28.3476 69.9712,28.3027 70.1159,28.2128 C 70.2604,28.1212 70.3328,27.992 70.3328,27.826 C 70.3328,27.673 70.2801,27.556 70.1747,27.473 C 70.0714,27.392 69.8431,27.313 69.4898,27.237 L 69.2914,27.191 C 68.9381,27.117 68.6829,27.005 68.5259,26.854 C 68.3688,26.7 68.2903,26.491 68.2903,26.224 C 68.2903,25.901 68.4061,25.652 68.6375,25.476 C 68.8688,25.3 69.1974,25.212 69.6231,25.212 C 69.8338,25.212 70.0322,25.227 70.2181,25.258 C 70.4041,25.288 70.5755,25.335 70.7326,25.396 M 71.7709,27.375 L 71.7709,25.295 L 72.3411,25.295 L 72.3411,27.354 C 72.3411,27.679 72.4052,27.924 72.5333,28.0873 C 72.6614,28.2484 72.8535,28.3298 73.1098,28.3298 C 73.4177,28.3298 73.6604,28.2323 73.8381,28.0381 C 74.0179,27.844 74.1078,27.579 74.1078,27.244 L 74.1078,25.295 L 74.6781,25.295 L 74.6781,28.7317 L 74.1078,28.7317 L 74.1078,28.2035 C 73.9693,28.412 73.8082,28.5681 73.6243,28.6698 C 73.4424,28.7707 73.2307,28.8207 72.9889,28.8207 C 72.5901,28.8207 72.2875,28.6978 72.0808,28.4519 C 71.8742,28.2068 71.7709,27.848 71.7709,27.375 M 78.5615,25.955 C 78.7041,25.701 78.8745,25.514 79.0729,25.393 C 79.2712,25.272 79.5047,25.212 79.7734,25.212 C 80.1349,25.212 80.4139,25.338 80.6102,25.589 C 80.8065,25.839 80.9046,26.195 80.9046,26.657 L 80.9046,28.7317 L 80.3312,28.7317 L 80.3312,26.675 C 80.3312,26.347 80.2723,26.102 80.1546,25.942 C 80.0367,25.783 79.857,25.703 79.6152,25.703 C 79.3198,25.703 79.0863,25.8 78.9148,25.995 C 78.7433,26.189 78.6576,26.453 78.6576,26.789 L 78.6576,28.7317 L 78.0842,28.7317 L 78.0842,26.675 C 78.0842,26.344 78.0253,26.1 77.9075,25.942 C 77.7898,25.783 77.608,25.703 77.3621,25.703 C 77.0707,25.703 76.8393,25.801 76.6678,25.997 C 76.4963,26.192 76.4105,26.456 76.4105,26.789 L 76.4105,28.7317 L 75.8372,28.7317 L 75.8372,25.295 L 76.4105,25.295 L 76.4105,25.828 C 76.5408,25.618 76.6967,25.462 76.8786,25.362 C 77.0604,25.262 77.2763,25.212 77.5263,25.212 C 77.7784,25.212 77.9922,25.276 78.1679,25.402 C 78.3456,25.529 78.4768,25.713 78.5615,25.955 M 86.3501,25.817 L 86.3501,23.957 L 86.9203,23.957 L 86.9203,28.7317 L 86.3501,28.7317 L 86.3501,28.2162 C 86.2302,28.4205 86.0784,28.5731 85.8945,28.6732 C 85.7127,28.7716 85.4936,28.8207 85.2374,28.8207 C 84.818,28.8207 84.4761,28.6545 84.2115,28.323 C 83.9492,27.992 83.8179,27.556 83.8179,27.016 C 83.8179,26.476 83.9492,26.04 84.2115,25.709 C 84.4761,25.377 84.818,25.212 85.2374,25.212 C 85.4936,25.212 85.7127,25.262 85.8945,25.362 C 86.0784,25.46 86.2302,25.612 86.3501,25.817 M 84.4068,27.016 C 84.4068,27.432 84.4926,27.757 84.664,27.995 C 84.8376,28.2306 85.0752,28.3476 85.3769,28.3476 C 85.6786,28.3476 85.9162,28.2306 86.0897,27.995 C 86.2633,27.757 86.35,27.432 86.3501,27.016 C 86.35,26.601 86.2633,26.275 86.0897,26.04 C 85.9162,25.803 85.6786,25.684 85.3769,25.684 C 85.0752,25.684 84.8376,25.803 84.664,26.04 C 84.4926,26.275 84.4068,26.601 84.4068,27.016 M 89.4401,25.69 C 89.1343,25.69 88.8926,25.809 88.7149,26.046 C 88.5371,26.282 88.4484,26.605 88.4484,27.016 C 88.4484,27.428 88.5361,27.751 88.7117,27.989 C 88.8895,28.2238 89.1322,28.3417 89.4401,28.3417 C 89.7438,28.3417 89.9845,28.223 90.1623,27.986 C 90.34,27.749 90.4288,27.425 90.4288,27.016 C 90.4288,26.609 90.34,26.287 90.1623,26.05 C 89.9845,25.811 89.7438,25.69 89.4401,25.69 M 89.4401,25.212 C 89.936,25.212 90.3255,25.371 90.6085,25.69 C 90.8916,26.01 91.0332,26.452 91.0332,27.016 C 91.0332,27.579 90.8916,28.0203 90.6085,28.3417 C 90.3255,28.6613 89.936,28.8207 89.4401,28.8207 C 88.9421,28.8207 88.5516,28.6613 88.2685,28.3417 C 87.9875,28.0203 87.847,27.579 87.847,27.016 C 87.847,26.452 87.9875,26.01 88.2685,25.69 C 88.5516,25.371 88.9421,25.212 89.4401,25.212 M 91.9754,23.957 L 92.5457,23.957 L 92.5457,28.7317 L 91.9754,28.7317 L 91.9754,23.957 M 95.0808,25.69 C 94.7751,25.69 94.5333,25.809 94.3556,26.046 C 94.178,26.282 94.0891,26.605 94.0891,27.016 C 94.0891,27.428 94.1769,27.751 94.3526,27.989 C 94.5302,28.2238 94.773,28.3417 95.0808,28.3417 C 95.3846,28.3417 95.6253,28.223 95.803,27.986 C 95.9807,27.749 96.0696,27.425 96.0696,27.016 C 96.0696,26.609 95.9807,26.287 95.803,26.05 C 95.6253,25.811 95.3846,25.69 95.0808,25.69 M 95.0808,25.212 C 95.5768,25.212 95.9662,25.371 96.2493,25.69 C 96.5321,26.01 96.6737,26.452 96.6737,27.016 C 96.6737,27.579 96.5321,28.0203 96.2493,28.3417 C 95.9662,28.6613 95.5768,28.8207 95.0808,28.8207 C 94.5829,28.8207 94.1924,28.6613 93.9094,28.3417 C 93.6284,28.0203 93.4879,27.579 93.4879,27.016 C 93.4879,26.452 93.6284,26.01 93.9094,25.69 C 94.1924,25.371 94.5829,25.212 95.0808,25.212 M 99.6279,25.823 C 99.5634,25.786 99.493,25.759 99.4167,25.743 C 99.3421,25.724 99.2599,25.715 99.1691,25.715 C 98.8469,25.715 98.5985,25.819 98.4247,26.029 C 98.2534,26.235 98.1678,26.532 98.1678,26.921 L 98.1678,28.7317 L 97.5946,28.7317 L 97.5946,25.295 L 98.1678,25.295 L 98.1678,25.828 C 98.2873,25.62 98.4433,25.466 98.6358,25.365 C 98.8283,25.263 99.0615,25.212 99.3362,25.212 C 99.3752,25.212 99.4193,25.215 99.4668,25.221 C 99.5142,25.226 99.5668,25.232 99.6245,25.243 L 99.6279,25.823 M 42.9131,41.1066 L 42.9131,41.6405 C 42.7519,41.5587 42.5845,41.4973 42.411,41.4564 C 42.2375,41.4155 42.0576,41.395 41.8717,41.395 C 41.5887,41.395 41.3758,41.438 41.2333,41.5239 C 41.0928,41.6098 41.0225,41.7387 41.0225,41.9106 C 41.0225,42.0415 41.0731,42.1448 41.1744,42.2205 C 41.2756,42.2941 41.4791,42.3647 41.7849,42.4322 L 41.9802,42.4751 C 42.3852,42.5611 42.6724,42.6828 42.8418,42.8403 C 43.0133,42.9957 43.099,43.2137 43.099,43.4939 C 43.099,43.813 42.9709,44.0656 42.7148,44.2518 C 42.4606,44.438 42.1104,44.5311 41.664,44.5311 C 41.4781,44.5311 41.2839,44.5126 41.0814,44.4758 C 40.881,44.441 40.6692,44.3878 40.446,44.3162 L 40.446,43.7333 C 40.6568,43.8416 40.8645,43.9234 41.069,43.9787 C 41.2736,44.0319 41.4761,44.0585 41.6765,44.0585 C 41.945,44.0585 42.1517,44.0135 42.2963,43.9234 C 42.441,43.8314 42.5133,43.7026 42.5133,43.5369 C 42.5133,43.3834 42.4606,43.2658 42.3553,43.184 C 42.2519,43.1022 42.0236,43.0234 41.6702,42.9477 L 41.4719,42.9017 C 41.1186,42.828 40.8634,42.7155 40.7064,42.5642 C 40.5494,42.4107 40.4709,42.2011 40.4709,41.9351 C 40.4709,41.6119 40.5865,41.3623 40.818,41.1864 C 41.0494,41.0104 41.3779,40.9225 41.8035,40.9225 C 42.0143,40.9225 42.2126,40.9379 42.3986,40.9685 C 42.5845,40.9992 42.7561,41.0453 42.9131,41.1066 M 44.0102,41.0053 L 44.5805,41.0053 L 44.5805,44.442 L 44.0102,44.442 L 44.0102,41.0053 M 44.0102,39.6675 L 44.5805,39.6675 L 44.5805,40.3825 L 44.0102,40.3825 L 44.0102,39.6675 M 46.3348,40.0296 L 46.3348,41.0053 L 47.5094,41.0053 L 47.5094,41.4441 L 46.3348,41.4441 L 46.3348,43.3098 C 46.3348,43.59 46.373,43.7701 46.4494,43.8498 C 46.5279,43.9296 46.686,43.9695 46.9236,43.9695 L 47.5094,43.9695 L 47.5094,44.442 L 46.9236,44.442 C 46.4835,44.442 46.1798,44.3612 46.0124,44.1996 C 45.845,44.036 45.7614,43.7394 45.7614,43.3098 L 45.7614,41.4441 L 45.343,41.4441 L 45.343,41.0053 L 45.7614,41.0053 L 45.7614,40.0296 L 46.3348,40.0296 M 51.8608,42.7145 C 51.4,42.7145 51.0808,42.7666 50.9032,42.871 C 50.7254,42.9753 50.6366,43.1533 50.6366,43.4049 C 50.6366,43.6054 50.7027,43.765 50.835,43.8836 C 50.9693,44.0002 51.1511,44.0585 51.3805,44.0585 C 51.6966,44.0585 51.9497,43.948 52.1398,43.7271 C 52.3319,43.5041 52.4281,43.2085 52.4281,42.8403 L 52.4281,42.7145 L 51.8608,42.7145 M 52.9983,42.4813 L 52.9983,44.442 L 52.4281,44.442 L 52.4281,43.9204 C 52.2978,44.1291 52.1356,44.2835 51.9414,44.3838 C 51.7472,44.482 51.5096,44.5311 51.2286,44.5311 C 50.8731,44.5311 50.5901,44.4329 50.3793,44.2364 C 50.1706,44.038 50.0664,43.7731 50.0664,43.4417 C 50.0664,43.0551 50.1965,42.7636 50.4568,42.5672 C 50.7192,42.3708 51.1098,42.2726 51.6284,42.2726 L 52.4281,42.2726 L 52.4281,42.2174 C 52.4281,41.9576 52.3412,41.7571 52.1677,41.616 C 51.9962,41.4728 51.7544,41.4012 51.4424,41.4012 C 51.2441,41.4012 51.0509,41.4247 50.8629,41.4718 C 50.6748,41.5188 50.494,41.5894 50.3205,41.6835 L 50.3205,41.1619 C 50.5291,41.0821 50.7316,41.0227 50.9279,40.9839 C 51.1242,40.9429 51.3153,40.9225 51.5013,40.9225 C 52.0034,40.9225 52.3784,41.0514 52.6264,41.3092 C 52.8743,41.5669 52.9983,41.9576 52.9983,42.4813 M 56.8787,41.6651 C 57.0212,41.4114 57.1916,41.2243 57.39,41.1035 C 57.5884,40.9829 57.8219,40.9225 58.0905,40.9225 C 58.4521,40.9225 58.731,41.0483 58.9273,41.2999 C 59.1236,41.5495 59.2217,41.9054 59.2217,42.3678 L 59.2217,44.442 L 58.6483,44.442 L 58.6483,42.3862 C 58.6483,42.0568 58.5894,41.8124 58.4717,41.6528 C 58.354,41.4932 58.1741,41.4134 57.9324,41.4134 C 57.637,41.4134 57.4034,41.5106 57.232,41.705 C 57.0605,41.8993 56.9747,42.1642 56.9747,42.4997 L 56.9747,44.442 L 56.4014,44.442 L 56.4014,42.3862 C 56.4014,42.0548 56.3424,41.8104 56.2247,41.6528 C 56.1069,41.4932 55.9251,41.4134 55.6792,41.4134 C 55.3879,41.4134 55.1565,41.5116 54.9849,41.708 C 54.8135,41.9024 54.7277,42.1662 54.7277,42.4997 L 54.7277,44.442 L 54.1543,44.442 L 54.1543,41.0053 L 54.7277,41.0053 L 54.7277,41.5393 C 54.8579,41.3286 55.0138,41.1731 55.1957,41.0728 C 55.3775,40.9726 55.5935,40.9225 55.8434,40.9225 C 56.0955,40.9225 56.3094,40.9859 56.4851,41.1128 C 56.6627,41.2396 56.794,41.4237 56.8787,41.6651 M 63.3315,42.5826 L 63.3315,42.8587 L 60.7094,42.8587 C 60.7342,43.2474 60.852,43.544 61.0627,43.7486 C 61.2755,43.9511 61.571,44.0523 61.9491,44.0523 C 62.1681,44.0523 62.3799,44.0258 62.5844,43.9725 C 62.7911,43.9194 62.9957,43.8396 63.1982,43.7333 L 63.1982,44.2671 C 62.9936,44.3531 62.7839,44.4185 62.569,44.4635 C 62.3541,44.5085 62.1362,44.5311 61.915,44.5311 C 61.3612,44.5311 60.9222,44.3715 60.5978,44.0523 C 60.2755,43.7333 60.1143,43.3016 60.1143,42.7575 C 60.1143,42.1949 60.2673,41.749 60.573,41.4196 C 60.8809,41.0882 61.2952,40.9225 61.8158,40.9225 C 62.2828,40.9225 62.6516,41.0718 62.9223,41.3705 C 63.195,41.6671 63.3315,42.0712 63.3315,42.5826 M 62.7612,42.4169 C 62.757,42.108 62.6692,41.8615 62.4977,41.6773 C 62.3283,41.4932 62.1031,41.4012 61.8221,41.4012 C 61.5039,41.4012 61.2486,41.4902 61.0565,41.6682 C 60.8664,41.8461 60.7569,42.0967 60.728,42.4199 L 62.7612,42.4169 M 64.8315,40.0296 L 64.8315,41.0053 L 66.0061,41.0053 L 66.0061,41.4441 L 64.8315,41.4441 L 64.8315,43.3098 C 64.8315,43.59 64.8697,43.7701 64.9461,43.8498 C 65.0247,43.9296 65.1827,43.9695 65.4204,43.9695 L 66.0061,43.9695 L 66.0061,44.442 L 65.4204,44.442 C 64.9802,44.442 64.6765,44.3612 64.5091,44.1996 C 64.3418,44.036 64.2581,43.7394 64.2581,43.3098 L 64.2581,41.4441 L 63.8397,41.4441 L 63.8397,41.0053 L 64.2581,41.0053 L 64.2581,40.0296 L 64.8315,40.0296 M 71.2781,41.1373 L 71.2781,41.6651 C 71.1169,41.5771 70.9547,41.5116 70.7915,41.4687 C 70.6303,41.4237 70.4671,41.4012 70.3018,41.4012 C 69.932,41.4012 69.6448,41.5178 69.4402,41.751 C 69.2357,41.9821 69.1334,42.3074 69.1334,42.7268 C 69.1334,43.1462 69.2357,43.4724 69.4402,43.7056 C 69.6448,43.9368 69.932,44.0523 70.3018,44.0523 C 70.4671,44.0523 70.6303,44.0309 70.7915,43.9879 C 70.9547,43.9429 71.1169,43.8764 71.2781,43.7885 L 71.2781,44.3101 C 71.119,44.3838 70.9537,44.439 70.7822,44.4758 C 70.6128,44.5126 70.432,44.5311 70.2398,44.5311 C 69.7171,44.5311 69.3017,44.3684 68.9939,44.0432 C 68.686,43.7179 68.5321,43.2791 68.5321,42.7268 C 68.5321,42.1662 68.6871,41.7254 68.997,41.4043 C 69.309,41.0831 69.7357,40.9225 70.277,40.9225 C 70.4527,40.9225 70.6241,40.9409 70.7915,40.9777 C 70.9589,41.0126 71.1211,41.0657 71.2781,41.1373 M 73.6212,41.4012 C 73.3154,41.4012 73.0737,41.5199 72.8959,41.7571 C 72.7182,41.9924 72.6294,42.3156 72.6294,42.7268 C 72.6294,43.1379 72.7172,43.4622 72.8928,43.6995 C 73.0705,43.9347 73.3133,44.0523 73.6212,44.0523 C 73.9249,44.0523 74.1656,43.9337 74.3433,43.6964 C 74.521,43.4591 74.6098,43.1359 74.6098,42.7268 C 74.6098,42.3197 74.521,41.9975 74.3433,41.7602 C 74.1656,41.5209 73.9249,41.4012 73.6212,41.4012 M 73.6212,40.9225 C 74.1171,40.9225 74.5065,41.0821 74.7896,41.4012 C 75.0727,41.7203 75.2142,42.1622 75.2142,42.7268 C 75.2142,43.2893 75.0727,43.7311 74.7896,44.0523 C 74.5065,44.3715 74.1171,44.5311 73.6212,44.5311 C 73.1233,44.5311 72.7327,44.3715 72.4496,44.0523 C 72.1686,43.7311 72.0281,43.2893 72.0281,42.7268 C 72.0281,42.1622 72.1686,41.7203 72.4496,41.4012 C 72.7327,41.0821 73.1233,40.9225 73.6212,40.9225 M 79.0419,42.3678 L 79.0419,44.442 L 78.4716,44.442 L 78.4716,42.3862 C 78.4716,42.0609 78.4075,41.8175 78.2794,41.6559 C 78.1514,41.4943 77.9592,41.4134 77.703,41.4134 C 77.3951,41.4134 77.1524,41.5106 76.9747,41.705 C 76.7969,41.8993 76.7081,42.1642 76.7081,42.4997 L 76.7081,44.442 L 76.1347,44.442 L 76.1347,41.0053 L 76.7081,41.0053 L 76.7081,41.5393 C 76.8445,41.3326 77.0046,41.1782 77.1885,41.0759 C 77.3744,40.9736 77.5883,40.9225 77.83,40.9225 C 78.2288,40.9225 78.5305,41.0453 78.7351,41.2908 C 78.9396,41.5342 79.0419,41.8932 79.0419,42.3678 M 82.3984,41.1066 L 82.3984,41.6405 C 82.2373,41.5587 82.0699,41.4973 81.8964,41.4564 C 81.7228,41.4155 81.543,41.395 81.3571,41.395 C 81.074,41.395 80.8612,41.438 80.7186,41.5239 C 80.5781,41.6098 80.5078,41.7387 80.5078,41.9106 C 80.5078,42.0415 80.5584,42.1448 80.6598,42.2205 C 80.761,42.2941 80.9645,42.3647 81.2703,42.4322 L 81.4655,42.4751 C 81.8705,42.5611 82.1577,42.6828 82.3272,42.8403 C 82.4986,42.9957 82.5844,43.2137 82.5844,43.4939 C 82.5844,43.813 82.4563,44.0656 82.2001,44.2518 C 81.946,44.438 81.5957,44.5311 81.1494,44.5311 C 80.9635,44.5311 80.7692,44.5126 80.5668,44.4758 C 80.3663,44.441 80.1546,44.3878 79.9314,44.3162 L 79.9314,43.7333 C 80.1421,43.8416 80.3498,43.9234 80.5544,43.9787 C 80.7589,44.0319 80.9614,44.0585 81.1618,44.0585 C 81.4304,44.0585 81.6371,44.0135 81.7816,43.9234 C 81.9263,43.8314 81.9986,43.7026 81.9986,43.5369 C 81.9986,43.3834 81.946,43.2658 81.8406,43.184 C 81.7373,43.1022 81.509,43.0234 81.1556,42.9477 L 80.9573,42.9017 C 80.604,42.828 80.3488,42.7155 80.1917,42.5642 C 80.0347,42.4107 79.9562,42.2011 79.9562,41.9351 C 79.9562,41.6119 80.0719,41.3623 80.3033,41.1864 C 80.5347,41.0104 80.8633,40.9225 81.2889,40.9225 C 81.4996,40.9225 81.698,40.9379 81.884,40.9685 C 82.0699,40.9992 82.2414,41.0453 82.3984,41.1066 M 86.4648,42.5826 L 86.4648,42.8587 L 83.8428,42.8587 C 83.8675,43.2474 83.9853,43.544 84.1961,43.7486 C 84.4089,43.9511 84.7043,44.0523 85.0825,44.0523 C 85.3015,44.0523 85.5132,44.0258 85.7178,43.9725 C 85.9245,43.9194 86.129,43.8396 86.3315,43.7333 L 86.3315,44.2671 C 86.127,44.3531 85.9172,44.4185 85.7023,44.4635 C 85.4875,44.5085 85.2695,44.5311 85.0484,44.5311 C 84.4946,44.5311 84.0556,44.3715 83.7312,44.0523 C 83.4088,43.7333 83.2477,43.3016 83.2477,42.7575 C 83.2477,42.1949 83.4006,41.749 83.7063,41.4196 C 84.0142,41.0882 84.4285,40.9225 84.9492,40.9225 C 85.4161,40.9225 85.785,41.0718 86.0556,41.3705 C 86.3284,41.6671 86.4648,42.0712 86.4648,42.5826 M 85.8945,42.4169 C 85.8904,42.108 85.8025,41.8615 85.631,41.6773 C 85.4616,41.4932 85.2364,41.4012 84.9554,41.4012 C 84.6372,41.4012 84.382,41.4902 84.1899,41.6682 C 83.9998,41.8461 83.8902,42.0967 83.8613,42.4199 L 85.8945,42.4169 M 89.8988,41.1373 L 89.8988,41.6651 C 89.7376,41.5771 89.5754,41.5116 89.4122,41.4687 C 89.2511,41.4237 89.0878,41.4012 88.9225,41.4012 C 88.5527,41.4012 88.2655,41.5178 88.061,41.751 C 87.8564,41.9821 87.7541,42.3074 87.7541,42.7268 C 87.7541,43.1462 87.8564,43.4724 88.061,43.7056 C 88.2655,43.9368 88.5527,44.0523 88.9225,44.0523 C 89.0878,44.0523 89.2511,44.0309 89.4122,43.9879 C 89.5754,43.9429 89.7376,43.8764 89.8988,43.7885 L 89.8988,44.3101 C 89.7397,44.3838 89.5744,44.439 89.403,44.4758 C 89.2335,44.5126 89.0527,44.5311 88.8605,44.5311 C 88.3378,44.5311 87.9225,44.3684 87.6146,44.0432 C 87.3067,43.7179 87.1528,43.2791 87.1528,42.7268 C 87.1528,42.1662 87.3078,41.7254 87.6177,41.4043 C 87.9297,41.0831 88.3564,40.9225 88.8978,40.9225 C 89.0734,40.9225 89.2448,40.9409 89.4122,40.9777 C 89.5796,41.0126 89.7418,41.0657 89.8988,41.1373 M 91.4608,40.0296 L 91.4608,41.0053 L 92.6355,41.0053 L 92.6355,41.4441 L 91.4608,41.4441 L 91.4608,43.3098 C 91.4608,43.59 91.4991,43.7701 91.5756,43.8498 C 91.6541,43.9296 91.8121,43.9695 92.0497,43.9695 L 92.6355,43.9695 L 92.6355,44.442 L 92.0497,44.442 C 91.6096,44.442 91.3059,44.3612 91.1385,44.1996 C 90.9712,44.036 90.8875,43.7394 90.8875,43.3098 L 90.8875,41.4441 L 90.4691,41.4441 L 90.4691,41.0053 L 90.8875,41.0053 L 90.8875,40.0296 L 91.4608,40.0296 M 93.1004,42.469 L 94.7709,42.469 L 94.7709,42.9723 L 93.1004,42.9723 L 93.1004,42.469 M 43.6694,58.2931 L 43.6694,58.5693 L 41.0473,58.5693 C 41.0721,58.9579 41.1899,59.2546 41.4006,59.4591 C 41.6134,59.6617 41.9089,59.7629 42.287,59.7629 C 42.506,59.7629 42.7178,59.7363 42.9224,59.6831 C 43.129,59.6299 43.3336,59.5502 43.5361,59.4437 L 43.5361,59.9777 C 43.3315,60.0636 43.1218,60.129 42.9069,60.1741 C 42.692,60.2191 42.474,60.2415 42.2529,60.2415 C 41.6992,60.2415 41.2601,60.082 40.9358,59.7629 C 40.6134,59.4437 40.4522,59.0122 40.4522,58.468 C 40.4522,57.9055 40.6052,57.4595 40.9109,57.1301 C 41.2188,56.7988 41.6331,56.6331 42.1538,56.6331 C 42.6207,56.6331 42.9896,56.7824 43.2602,57.081 C 43.5329,57.3776 43.6694,57.7817 43.6694,58.2931 M 43.099,58.1274 C 43.0949,57.8185 43.0071,57.572 42.8356,57.3879 C 42.6662,57.2038 42.441,57.1117 42.16,57.1117 C 41.8418,57.1117 41.5866,57.2008 41.3944,57.3787 C 41.2043,57.5566 41.0948,57.8073 41.0659,58.1305 L 43.099,58.1274 M 45.1694,55.7401 L 45.1694,56.7159 L 46.344,56.7159 L 46.344,57.1547 L 45.1694,57.1547 L 45.1694,59.0203 C 45.1694,59.3005 45.2076,59.4806 45.284,59.5603 C 45.3626,59.6401 45.5207,59.6801 45.7583,59.6801 L 46.344,59.6801 L 46.344,60.1526 L 45.7583,60.1526 C 45.3182,60.1526 45.0144,60.0718 44.8471,59.9102 C 44.6797,59.7465 44.596,59.4499 44.596,59.0203 L 44.596,57.1547 L 44.1776,57.1547 L 44.1776,56.7159 L 44.596,56.7159 L 44.596,55.7401 L 45.1694,55.7401 M 47.0383,58.7964 L 47.0383,56.7159 L 47.6086,56.7159 L 47.6086,58.7748 C 47.6086,59.1001 47.6726,59.3445 47.8007,59.5082 C 47.9288,59.6698 48.121,59.7506 48.3772,59.7506 C 48.6851,59.7506 48.9279,59.6534 49.1055,59.4591 C 49.2853,59.2648 49.3751,58.9999 49.3752,58.6643 L 49.3752,56.7159 L 49.9454,56.7159 L 49.9454,60.1526 L 49.3752,60.1526 L 49.3752,59.6248 C 49.2368,59.8334 49.0756,59.989 48.8917,60.0912 C 48.7099,60.1914 48.4981,60.2415 48.2563,60.2415 C 47.8575,60.2415 47.5548,60.1189 47.3482,59.8734 C 47.1416,59.6279 47.0383,59.2689 47.0383,58.7964 M 54.0955,58.2931 L 54.0955,58.5693 L 51.4734,58.5693 C 51.4982,58.9579 51.616,59.2546 51.8267,59.4591 C 52.0395,59.6617 52.335,59.7629 52.7131,59.7629 C 52.9321,59.7629 53.1439,59.7363 53.3485,59.6831 C 53.5551,59.6299 53.7597,59.5502 53.9622,59.4437 L 53.9622,59.9777 C 53.7576,60.0636 53.5479,60.129 53.333,60.1741 C 53.1182,60.2191 52.9002,60.2415 52.679,60.2415 C 52.1253,60.2415 51.6862,60.082 51.3619,59.7629 C 51.0395,59.4437 50.8783,59.0122 50.8783,58.468 C 50.8783,57.9055 51.0313,57.4595 51.337,57.1301 C 51.6449,56.7988 52.0592,56.6331 52.5799,56.6331 C 53.0469,56.6331 53.4157,56.7824 53.6864,57.081 C 53.959,57.3776 54.0955,57.7817 54.0955,58.2931 M 53.5252,58.1274 C 53.521,57.8185 53.4333,57.572 53.2617,57.3879 C 53.0923,57.2038 52.8671,57.1117 52.5861,57.1117 C 52.2679,57.1117 52.0127,57.2008 51.8205,57.3787 C 51.6304,57.5566 51.521,57.8073 51.492,58.1305 L 53.5252,58.1274 M 57.0429,57.2437 C 56.9788,57.2069 56.9086,57.1802 56.8321,57.1639 C 56.7578,57.1455 56.6751,57.1363 56.5842,57.1363 C 56.2619,57.1363 56.014,57.2406 55.8404,57.4493 C 55.6689,57.6559 55.5831,57.9535 55.5831,58.3422 L 55.5831,60.1526 L 55.0098,60.1526 L 55.0098,56.7159 L 55.5831,56.7159 L 55.5831,57.2499 C 55.7029,57.0412 55.859,56.8867 56.0511,56.7865 C 56.2432,56.6842 56.4768,56.6331 56.7516,56.6331 C 56.7908,56.6331 56.8342,56.6361 56.8817,56.6422 C 56.9293,56.6464 56.9819,56.6535 57.0398,56.6638 L 57.0429,57.2437 M 61.2456,58.4251 C 60.7848,58.4251 60.4656,58.4772 60.2879,58.5815 C 60.1102,58.6859 60.0214,58.8639 60.0214,59.1154 C 60.0214,59.3159 60.0874,59.4755 60.2197,59.5942 C 60.354,59.7108 60.5358,59.769 60.7652,59.769 C 61.0814,59.769 61.3345,59.6585 61.5246,59.4376 C 61.7167,59.2146 61.8128,58.9191 61.8128,58.5508 L 61.8128,58.4251 L 61.2456,58.4251 M 62.3831,58.1918 L 62.3831,60.1526 L 61.8128,60.1526 L 61.8128,59.631 C 61.6826,59.8396 61.5204,59.994 61.3261,60.0943 C 61.132,60.1925 60.8943,60.2415 60.6133,60.2415 C 60.2579,60.2415 59.9748,60.1434 59.7641,59.947 C 59.5554,59.7486 59.4511,59.4837 59.4511,59.1522 C 59.4511,58.7657 59.5812,58.4742 59.8416,58.2778 C 60.104,58.0814 60.4945,57.9832 61.0131,57.9832 L 61.8128,57.9832 L 61.8128,57.9279 C 61.8128,57.6681 61.7259,57.4677 61.5525,57.3265 C 61.3809,57.1834 61.1392,57.1117 60.8271,57.1117 C 60.6288,57.1117 60.4357,57.1353 60.2476,57.1823 C 60.0596,57.2293 59.8788,57.3 59.7052,57.394 L 59.7052,56.8724 C 59.9139,56.7927 60.1164,56.7333 60.3127,56.6944 C 60.509,56.6535 60.7001,56.6331 60.8861,56.6331 C 61.3881,56.6331 61.7632,56.762 62.0111,57.0196 C 62.259,57.2774 62.3831,57.6681 62.3831,58.1918 M 65.845,57.2376 L 65.845,55.3781 L 66.4152,55.3781 L 66.4152,60.1526 L 65.845,60.1526 L 65.845,59.6371 C 65.7251,59.8417 65.5733,59.994 65.3893,60.0943 C 65.2076,60.1925 64.9885,60.2415 64.7323,60.2415 C 64.3128,60.2415 63.971,60.0759 63.7064,59.7445 C 63.4441,59.4131 63.3128,58.9774 63.3128,58.4373 C 63.3128,57.8972 63.4441,57.4616 63.7064,57.1301 C 63.971,56.7988 64.3128,56.6331 64.7323,56.6331 C 64.9885,56.6331 65.2076,56.6832 65.3893,56.7834 C 65.5733,56.8816 65.7251,57.033 65.845,57.2376 M 63.9017,58.4373 C 63.9017,58.8526 63.9874,59.1789 64.1589,59.4162 C 64.3325,59.6514 64.5701,59.769 64.8718,59.769 C 65.1735,59.769 65.4111,59.6514 65.5846,59.4162 C 65.7582,59.1789 65.8449,58.8526 65.845,58.4373 C 65.8449,58.022 65.7582,57.6968 65.5846,57.4616 C 65.4111,57.2242 65.1735,57.1056 64.8718,57.1056 C 64.5701,57.1056 64.3325,57.2242 64.1589,57.4616 C 63.9874,57.6968 63.9017,58.022 63.9017,58.4373 M 67.5899,56.7159 L 68.1602,56.7159 L 68.1602,60.1526 L 67.5899,60.1526 L 67.5899,56.7159 M 67.5899,55.3781 L 68.1602,55.3781 L 68.1602,56.093 L 67.5899,56.093 L 67.5899,55.3781 M 69.9019,59.6371 L 69.9019,61.4597 L 69.3286,61.4597 L 69.3286,56.7159 L 69.9019,56.7159 L 69.9019,57.2376 C 70.0218,57.033 70.1727,56.8816 70.3545,56.7834 C 70.5384,56.6832 70.7574,56.6331 71.0115,56.6331 C 71.433,56.6331 71.775,56.7988 72.0374,57.1301 C 72.3019,57.4616 72.4342,57.8972 72.4342,58.4373 C 72.4342,58.9774 72.3019,59.4131 72.0374,59.7445 C 71.775,60.0759 71.433,60.2415 71.0115,60.2415 C 70.7574,60.2415 70.5384,60.1925 70.3545,60.0943 C 70.1727,59.994 70.0218,59.8417 69.9019,59.6371 M 71.8421,58.4373 C 71.8421,58.022 71.7554,57.6968 71.5818,57.4616 C 71.4103,57.2242 71.1737,57.1056 70.872,57.1056 C 70.5704,57.1056 70.3328,57.2242 70.1592,57.4616 C 69.9878,57.6968 69.9019,58.022 69.9019,58.4373 C 69.9019,58.8526 69.9878,59.1789 70.1592,59.4162 C 70.3328,59.6514 70.5704,59.769 70.872,59.769 C 71.1737,59.769 71.4103,59.6514 71.5818,59.4162 C 71.7554,59.1789 71.8421,58.8526 71.8421,58.4373 M 73.3794,56.7159 L 73.9497,56.7159 L 73.9497,60.1526 L 73.3794,60.1526 L 73.3794,56.7159 M 73.3794,55.3781 L 73.9497,55.3781 L 73.9497,56.093 L 73.3794,56.093 L 73.3794,55.3781 M 77.3527,56.8172 L 77.3527,57.3511 C 77.1916,57.2693 77.0243,57.2079 76.8507,57.1669 C 76.6771,57.1261 76.4974,57.1056 76.3114,57.1056 C 76.0283,57.1056 75.8155,57.1485 75.6729,57.2345 C 75.5324,57.3204 75.4621,57.4493 75.4621,57.6211 C 75.4621,57.752 75.5128,57.8553 75.614,57.931 C 75.7152,58.0047 75.9188,58.0752 76.2246,58.1427 L 76.4199,58.1857 C 76.8248,58.2716 77.112,58.3933 77.2815,58.5508 C 77.453,58.7063 77.5387,58.9241 77.5387,59.2045 C 77.5387,59.5235 77.4106,59.7762 77.1544,59.9623 C 76.9003,60.1485 76.55,60.2415 76.1038,60.2415 C 75.9178,60.2415 75.7236,60.2231 75.5211,60.1863 C 75.3206,60.1516 75.1088,60.0983 74.8857,60.0268 L 74.8857,59.4437 C 75.0964,59.5522 75.3041,59.634 75.5087,59.6892 C 75.7132,59.7425 75.9157,59.769 76.1161,59.769 C 76.3848,59.769 76.5914,59.724 76.736,59.634 C 76.8806,59.5419 76.9529,59.4131 76.9529,59.2474 C 76.9529,59.094 76.9003,58.9764 76.7949,58.8946 C 76.6915,58.8127 76.4633,58.734 76.1099,58.6582 L 75.9115,58.6122 C 75.5582,58.5386 75.3031,58.4261 75.146,58.2746 C 74.989,58.1213 74.9105,57.9116 74.9105,57.6457 C 74.9105,57.3224 75.0262,57.0729 75.2576,56.897 C 75.489,56.721 75.8176,56.6331 76.2432,56.6331 C 76.4539,56.6331 76.6523,56.6484 76.8383,56.6791 C 77.0243,56.7097 77.1957,56.7558 77.3527,56.8172 M 80.948,56.8479 L 80.948,57.3756 C 80.7868,57.2877 80.6246,57.2222 80.4614,57.1792 C 80.3002,57.1343 80.1369,57.1117 79.9717,57.1117 C 79.6018,57.1117 79.3146,57.2283 79.11,57.4616 C 78.9055,57.6927 78.8033,58.018 78.8033,58.4373 C 78.8033,58.8566 78.9055,59.1829 79.11,59.4162 C 79.3146,59.6473 79.6018,59.7629 79.9717,59.7629 C 80.1369,59.7629 80.3002,59.7414 80.4614,59.6985 C 80.6246,59.6534 80.7868,59.587 80.948,59.499 L 80.948,60.0207 C 80.7889,60.0943 80.6236,60.1495 80.4521,60.1863 C 80.2826,60.2231 80.1018,60.2415 79.9097,60.2415 C 79.387,60.2415 78.9717,60.0789 78.6638,59.7537 C 78.3559,59.4284 78.202,58.9896 78.202,58.4373 C 78.202,57.8768 78.3569,57.436 78.6668,57.1148 C 78.9789,56.7937 79.4055,56.6331 79.9469,56.6331 C 80.1225,56.6331 80.294,56.6515 80.4614,56.6883 C 80.6287,56.723 80.7909,56.7763 80.948,56.8479 M 81.946,56.7159 L 82.5162,56.7159 L 82.5162,60.1526 L 81.946,60.1526 L 81.946,56.7159 M 81.946,55.3781 L 82.5162,55.3781 L 82.5162,56.093 L 81.946,56.093 L 81.946,55.3781 M 86.5919,58.0783 L 86.5919,60.1526 L 86.0216,60.1526 L 86.0216,58.0967 C 86.0216,57.7715 85.9575,57.5281 85.8294,57.3664 C 85.7013,57.2048 85.5092,57.124 85.2529,57.124 C 84.945,57.124 84.7023,57.2212 84.5246,57.4155 C 84.3469,57.6099 84.2581,57.8748 84.2581,58.2103 L 84.2581,60.1526 L 83.6847,60.1526 L 83.6847,56.7159 L 84.2581,56.7159 L 84.2581,57.2499 C 84.3944,57.0432 84.5546,56.8887 84.7384,56.7865 C 84.9244,56.6842 85.1383,56.6331 85.38,56.6331 C 85.7788,56.6331 86.0804,56.7558 86.285,57.0012 C 86.4895,57.2447 86.5919,57.6037 86.5919,58.0783 M 90.0197,58.3944 C 90.0197,57.9852 89.9339,57.6681 89.7625,57.4431 C 89.593,57.2181 89.3544,57.1056 89.0465,57.1056 C 88.7407,57.1056 88.502,57.2181 88.3306,57.4431 C 88.1611,57.6681 88.0764,57.9852 88.0764,58.3944 C 88.0764,58.8014 88.1611,59.1175 88.3306,59.3425 C 88.502,59.5675 88.7407,59.6801 89.0465,59.6801 C 89.3544,59.6801 89.593,59.5675 89.7625,59.3425 C 89.9339,59.1175 90.0197,58.8014 90.0197,58.3944 M 90.5899,59.7261 C 90.5899,60.3112 90.4588,60.7458 90.1963,61.0302 C 89.9339,61.3165 89.5321,61.4597 88.9907,61.4597 C 88.7902,61.4597 88.6012,61.4444 88.4235,61.4137 C 88.2458,61.385 88.0733,61.3401 87.906,61.2787 L 87.906,60.7294 C 88.0733,60.8195 88.2386,60.886 88.4018,60.9289 C 88.565,60.9719 88.7314,60.9933 88.9008,60.9933 C 89.2748,60.9933 89.5548,60.8961 89.7408,60.7019 C 89.9267,60.5096 90.0197,60.2181 90.0197,59.8273 L 90.0197,59.5481 C 89.9019,59.7506 89.7511,59.902 89.5672,60.0023 C 89.3833,60.1025 89.1632,60.1526 88.907,60.1526 C 88.4814,60.1526 88.1384,59.992 87.8781,59.6708 C 87.6177,59.3497 87.4875,58.9241 87.4875,58.3944 C 87.4875,57.8625 87.6177,57.436 87.8781,57.1148 C 88.1384,56.7937 88.4814,56.6331 88.907,56.6331 C 89.1632,56.6331 89.3833,56.6832 89.5672,56.7834 C 89.7511,56.8836 89.9019,57.035 90.0197,57.2376 L 90.0197,56.7159 L 90.5899,56.7159 L 90.5899,59.7261"
         id="text3688"
         style="fill:#008200;stroke-width:0.84791398" />
    </g>
  </g>
</svg>
