<?xml version="1.0" standalone="no"?>
<!DOCTYPE svg PUBLIC "-//W3C//DTD SVG 20010904//EN" "http://www.w3.org/TR/2001/REC-SVG-20010904/DTD/svg10.dtd">
<!-- Created using Karbon14, part of koffice: http://www.koffice.org/karbon -->
<svg xmlns="http://www.w3.org/2000/svg" xmlns:xlink="http://www.w3.org/1999/xlink" width="128px" height="128px">
  <defs>
    <radialGradient id="defitem402" gradientUnits="userSpaceOnUse" cx="64" cy="122.812" fx="64" fy="122.812" r="64" >
      <stop stop-color="#000000" offset="0" stop-opacity="1" />
      <stop stop-color="#000000" offset="1" stop-opacity="0" />
    </radialGradient>
    <radialGradient id="defitem403" gradientUnits="userSpaceOnUse" cx="89.6521" cy="106.593" fx="-5.7934" fy="1.505" r="130.591" >
      <stop stop-color="#f2f2f2" offset="0" stop-opacity="1" />
      <stop stop-color="#c3c3c3" offset="1" stop-opacity="1" />
    </radialGradient>
    <radialGradient id="defitem404" gradientUnits="userSpaceOnUse" cx="88.3912" cy="105.043" fx="-3.66973" fy="3.557" r="125.96" >
      <stop stop-color="#525456" offset="0" stop-opacity="1" />
      <stop stop-color="#89898c" offset="0.113661" stop-opacity="1" />
      <stop stop-color="#ebebeb" offset="0.202967" stop-opacity="1" />
      <stop stop-color="#f9f9f9" offset="0.2363" stop-opacity="1" />
      <stop stop-color="#ffffff" offset="0.2722" stop-opacity="1" />
      <stop stop-color="#f9f9f9" offset="0.5313" stop-opacity="1" />
      <stop stop-color="#ebebeb" offset="0.8449" stop-opacity="1" />
      <stop stop-color="#e1e2e2" offset="1" stop-opacity="1" />
    </radialGradient>
    <linearGradient id="defitem405" gradientUnits="userSpaceOnUse" x1="84.0376" y1="98.8216" x2="76.5519" y2="91.3359" >
      <stop stop-color="#878985" offset="0" stop-opacity="1" />
      <stop stop-color="#8c8e89" offset="0.0072" stop-opacity="1" />
      <stop stop-color="#aaaca8" offset="0.0673" stop-opacity="1" />
      <stop stop-color="#c4c6c3" offset="0.1347" stop-opacity="1" />
      <stop stop-color="#dbdbda" offset="0.265258" stop-opacity="1" />
      <stop stop-color="#ebebeb" offset="0.376461" stop-opacity="1" />
      <stop stop-color="#f6f6f6" offset="0.487403" stop-opacity="1" />
      <stop stop-color="#fdfdfd" offset="0.632409" stop-opacity="1" />
      <stop stop-color="#ffffff" offset="1" stop-opacity="1" />
    </linearGradient>
    <linearGradient id="defitem406" gradientUnits="userSpaceOnUse" x1="87.5646" y1="14.345" x2="119.393" y2="39.5739" >
      <stop stop-color="#000000" offset="0" stop-opacity="1" />
      <stop stop-color="#000000" offset="1" stop-opacity="0" />
    </linearGradient>
    <radialGradient id="defitem407" gradientUnits="userSpaceOnUse" cx="73.6339" cy="67.794" fx="73.6339" fy="67.794" r="8.76363" >
      <stop stop-color="#b3932a" offset="0" stop-opacity="1" />
      <stop stop-color="#e4dbc8" offset="1" stop-opacity="1" />
    </radialGradient>
    <linearGradient id="defitem408" gradientUnits="userSpaceOnUse" x1="97.7756" y1="30.6479" x2="103.207" y2="34.7648" >
      <stop stop-color="#242424" offset="0" stop-opacity="1" />
      <stop stop-color="#242424" offset="0.5" stop-opacity="1" />
      <stop stop-color="#242424" offset="0.75" stop-opacity="1" />
      <stop stop-color="#000000" offset="1" stop-opacity="1" />
    </linearGradient>
    <linearGradient id="defitem409" gradientUnits="userSpaceOnUse" x1="98.6095" y1="40.8565" x2="102.361" y2="44.5715" >
      <stop stop-color="#d4a100" offset="0" stop-opacity="0.976471" />
      <stop stop-color="#ffc611" offset="1" stop-opacity="1" />
    </linearGradient>
    <linearGradient id="defitem410" gradientUnits="userSpaceOnUse" x1="87.1199" y1="34.5684" x2="91.077" y2="38.1756" >
      <stop stop-color="#9a7500" offset="0" stop-opacity="1" />
      <stop stop-color="#e2ac00" offset="0.0929204" stop-opacity="1" />
      <stop stop-color="#ffcd2b" offset="0.504317" stop-opacity="1" />
      <stop stop-color="#e2ac00" offset="0.915714" stop-opacity="1" />
      <stop stop-color="#b88c00" offset="1" stop-opacity="1" />
    </linearGradient>
    <linearGradient id="defitem411" gradientUnits="userSpaceOnUse" x1="121.4" y1="18.518" x2="110.82" y2="9.592" >
      <stop stop-color="#545454" offset="0.0533" stop-opacity="1" />
      <stop stop-color="#bababa" offset="0.211134" stop-opacity="1" />
      <stop stop-color="#ffffff" offset="0.362655" stop-opacity="1" />
      <stop stop-color="#ffffff" offset="0.603228" stop-opacity="1" />
      <stop stop-color="#e8e8e8" offset="0.849766" stop-opacity="1" />
      <stop stop-color="#545454" offset="1" stop-opacity="1" />
    </linearGradient>
    <linearGradient id="defitem412" gradientUnits="userSpaceOnUse" x1="67.7948" y1="61.2559" x2="103.328" y2="20.665" >
      <stop stop-color="#ffffff" offset="0" stop-opacity="0.683453" />
      <stop stop-color="#ffffff" offset="1" stop-opacity="0" />
    </linearGradient>
    <radialGradient id="defitem413" gradientUnits="userSpaceOnUse" cx="90.6913" cy="37.849" fx="90.6913" fy="37.849" r="33.8653" >
      <stop stop-color="#ffffff" offset="0" stop-opacity="1" />
      <stop stop-color="#ffffff" offset="1" stop-opacity="0" />
    </radialGradient>
    <linearGradient id="defitem414" gradientUnits="userSpaceOnUse" x1="67.5343" y1="77.844" x2="62.2004" y2="71.5035" >
      <stop stop-color="#0000ff" offset="0" stop-opacity="1" />
      <stop stop-color="#0000ff" offset="1" stop-opacity="0" />
    </linearGradient>
    <linearGradient id="defitem415" gradientUnits="userSpaceOnUse" x1="119.822" y1="9.08" x2="117.939" y2="11.978" >
      <stop stop-color="#e2e2e6" offset="0" stop-opacity="1" />
      <stop stop-color="#ffffff" offset="1" stop-opacity="1" />
    </linearGradient>
    <linearGradient id="defitem416" gradientUnits="userSpaceOnUse" x1="113.662" y1="12.518" x2="117.876" y2="15.46" >
      <stop stop-color="#e93838" offset="0" stop-opacity="1" />
      <stop stop-color="#c30000" offset="1" stop-opacity="1" />
    </linearGradient>
    <radialGradient id="defitem417" gradientUnits="userSpaceOnUse" cx="117.987" cy="12.858" fx="117.987" fy="12.858" r="3.78177" >
      <stop stop-color="#ffffff" offset="0" stop-opacity="1" />
      <stop stop-color="#242424" offset="1" stop-opacity="0" />
    </radialGradient>
    <radialGradient id="defitem418" gradientUnits="userSpaceOnUse" cx="113.315" cy="8.744" fx="113.315" fy="8.744" r="2.59478" >
      <stop stop-color="#ffffff" offset="0" stop-opacity="1" />
      <stop stop-color="#242424" offset="1" stop-opacity="0" />
    </radialGradient>
    <radialGradient id="defitem419" gradientUnits="userSpaceOnUse" cx="122.838" cy="17.04" fx="122.838" fy="17.04" r="2.59348" >
      <stop stop-color="#ffffff" offset="0" stop-opacity="1" />
      <stop stop-color="#242424" offset="1" stop-opacity="0" />
    </radialGradient>
  </defs>
  <g id="Layer">
    <g id="layer1">
      <path id="path3945" fill="#000000" d=""  />
    </g>
    <path id="path3081" fill="#000000" d=""  />
    <g id="layer2">
    </g>
    <g id="layer3">
    </g>
    <g id="layer4">
    </g>
    <g id="g6011">
      <path id="path6013" fill="#000000" d=""  />
    </g>
    <path id="path6015" fill="#000000" d=""  />
    <g id="g6017">
    </g>
    <g id="g6019">
    </g>
    <g id="g6021">
    </g>
    <path id="path6025" fill="#000000" d=""  />
    <path id="path6028" fill="url(#defitem402)" stroke-width="0" stroke-linecap="round" stroke-linejoin="round" d="M-2.07531e-05 122.812C-2.07531e-05 125.677 28.6538 128 64 128C99.3462 128 128 125.677 128 122.812C128 119.947 99.3462 117.624 64 117.624C28.6538 117.624 -2.07531e-05 119.947 -2.07531e-05 122.812L-2.07531e-05 122.812Z"  />
    <g id="g25196">
      <path id="path6210" fill="none" stroke="#000000" stroke-width="9.98122" stroke-linejoin="round" d="M9.17844 8.991L9.17844 111.922C9.17844 112.955 10.0169 113.793 11.0499 113.793L66.4195 113.793C66.9154 113.793 67.3917 113.596 67.7426 113.245L98.4611 82.5266C98.812 82.1757 99.0094 81.6994 99.0094 81.2035L99.0094 8.991L9.17844 8.991Z"  />
      <path id="path6212" fill="none" stroke="#000000" stroke-width="7.48591" stroke-linejoin="round" d="M9.17844 8.991L9.17844 111.922C9.17844 112.955 10.0169 113.793 11.0499 113.793L66.4195 113.793C66.9154 113.793 67.3917 113.596 67.7426 113.245L98.4611 82.5266C98.812 82.1757 99.0094 81.6994 99.0094 81.2035L99.0094 8.991L9.17844 8.991Z"  />
      <path id="path6214" fill="none" stroke="#000000" stroke-width="4.99061" stroke-linejoin="round" d="M9.17844 8.991L9.17844 111.922C9.17844 112.955 10.0169 113.793 11.0499 113.793L66.4195 113.793C66.9154 113.793 67.3917 113.596 67.7426 113.245L98.4611 82.5266C98.812 82.1757 99.0094 81.6994 99.0094 81.2035L99.0094 8.991L9.17844 8.991Z"  />
      <path id="path6216" fill="none" stroke="#000000" stroke-width="2.4953" stroke-linejoin="round" d="M9.17844 8.991L9.17844 111.922C9.17844 112.955 10.0169 113.793 11.0499 113.793L66.4195 113.793C66.9154 113.793 67.3917 113.596 67.7426 113.245L98.4611 82.5266C98.812 82.1757 99.0094 81.6994 99.0094 81.2035L99.0094 8.991L9.17844 8.991Z"  />
      <path id="path6218" fill="url(#defitem403)" d="M9.17844 8.991L9.17844 111.922C9.17844 112.955 10.0169 113.793 11.0499 113.793L66.4195 113.793C66.9154 113.793 67.3917 113.596 67.7426 113.245L98.4611 82.5266C98.812 82.1757 99.0094 81.6994 99.0094 81.2035L99.0094 8.991L9.17844 8.991Z"  />
      <path id="path6220" fill="url(#defitem404)" d="M12.5763 11.69C12.079 11.69 11.6737 12.096 11.6737 12.594L11.6737 110.19C11.6737 110.689 12.079 111.094 12.5763 111.094L65.9824 111.094C66.2198 111.094 66.4526 110.998 66.6205 110.829L96.2497 81.1633C96.4184 80.9943 96.5141 80.7621 96.5141 80.5244L96.5141 12.594C96.5141 12.096 96.1098 11.69 95.6115 11.69L12.5763 11.69Z"  />
      <path id="text3688" fill="#008200" d="M24.4719 19.2L25.2103 19.2L25.2103 23.988L27.8676 23.988L27.8676 24.603L24.4719 24.603L24.4719 19.2M30.0644 21.016C29.7038 21.016 29.4187 21.156 29.2091 21.436C28.9995 21.714 28.8948 22.095 28.8948 22.58C28.8948 23.065 28.9983 23.447 29.2054 23.727C29.415 24.004 29.7013 24.143 30.0644 24.143C30.4226 24.143 30.7065 24.003 30.9161 23.723C31.1257 23.444 31.2304 23.062 31.2304 22.58C31.2304 22.1 31.1257 21.72 30.9161 21.44C30.7065 21.158 30.4226 21.016 30.0644 21.016M30.0644 20.452C30.6493 20.452 31.1086 20.64 31.4424 21.016C31.7763 21.393 31.9432 21.914 31.9432 22.58C31.9432 23.243 31.7763 23.764 31.4424 24.143C31.1086 24.52 30.6493 24.708 30.0644 24.708C29.4772 24.708 29.0166 24.52 28.6827 24.143C28.3513 23.764 28.1856 23.243 28.1856 22.58C28.1856 21.914 28.3513 21.393 28.6827 21.016C29.0166 20.64 29.4772 20.452 30.0644 20.452M35.4267 21.172C35.3511 21.129 35.2683 21.097 35.1781 21.078C35.0904 21.056 34.9929 21.045 34.8857 21.045C34.5055 21.045 34.2131 21.168 34.0084 21.415C33.8062 21.658 33.705 22.009 33.705 22.468L33.705 24.603L33.0288 24.603L33.0288 20.55L33.705 20.55L33.705 21.179C33.8464 20.933 34.0304 20.751 34.257 20.633C34.4836 20.512 34.759 20.452 35.0831 20.452C35.1294 20.452 35.1805 20.456 35.2366 20.463C35.2926 20.468 35.3548 20.476 35.423 20.488L35.4267 21.172M39.6411 22.41L39.6411 22.735L36.5488 22.735C36.578 23.194 36.7169 23.544 36.9655 23.785C37.2165 24.024 37.565 24.143 38.0109 24.143C38.2692 24.143 38.519 24.112 38.7602 24.049C39.0039 23.986 39.2451 23.892 39.484 23.767L39.484 24.396C39.2427 24.498 38.9954 24.575 38.7419 24.628C38.4885 24.681 38.2314 24.708 37.9707 24.708C37.3176 24.708 36.7998 24.52 36.4172 24.143C36.0371 23.767 35.847 23.258 35.847 22.616C35.847 21.953 36.0273 21.427 36.388 21.038C36.7511 20.647 37.2396 20.452 37.8537 20.452C38.4044 20.452 38.8394 20.628 39.1586 20.98C39.4803 21.33 39.6411 21.807 39.6411 22.41M38.9686 22.214C38.9637 21.85 38.8601 21.559 38.6579 21.342C38.4581 21.125 38.1924 21.016 37.861 21.016C37.4858 21.016 37.1848 21.121 36.9582 21.331C36.734 21.541 36.6049 21.837 36.5707 22.218L38.9686 22.214M43.9324 21.328C44.1005 21.029 44.3015 20.808 44.5355 20.665C44.7694 20.523 45.0448 20.452 45.3616 20.452C45.788 20.452 46.117 20.6 46.3485 20.897C46.58 21.191 46.6957 21.611 46.6957 22.156L46.6957 24.603L46.0195 24.603L46.0195 22.178C46.0195 21.79 45.9501 21.501 45.8112 21.313C45.6723 21.125 45.4603 21.031 45.1752 21.031C44.8267 21.031 44.5513 21.146 44.3491 21.375C44.1468 21.604 44.0457 21.916 44.0457 22.312L44.0457 24.603L43.3695 24.603L43.3695 22.178C43.3695 21.787 43.3 21.499 43.1611 21.313C43.0222 21.125 42.8078 21.031 42.5178 21.031C42.1742 21.031 41.9013 21.147 41.699 21.378C41.4968 21.608 41.3956 21.919 41.3956 22.312L41.3956 24.603L40.7194 24.603L40.7194 20.55L41.3956 20.55L41.3956 21.179C41.5492 20.931 41.7331 20.747 41.9476 20.629C42.162 20.511 42.4167 20.452 42.7115 20.452C43.0088 20.452 43.261 20.527 43.4682 20.676C43.6777 20.826 43.8325 21.043 43.9324 21.328M50.4241 20.55L51.0966 20.55L51.0966 24.603L50.4241 24.603L50.4241 20.55M50.4241 18.972L51.0966 18.972L51.0966 19.815L50.4241 19.815L50.4241 18.972M53.1509 23.995L53.1509 26.144L52.4746 26.144L52.4746 20.55L53.1509 20.55L53.1509 21.165C53.2922 20.924 53.4701 20.745 53.6845 20.629C53.9014 20.511 54.1597 20.452 54.4594 20.452C54.9565 20.452 55.3598 20.647 55.6693 21.038C55.9812 21.429 56.1372 21.943 56.1372 22.58C56.1372 23.217 55.9812 23.731 55.6693 24.121C55.3598 24.512 54.9565 24.708 54.4594 24.708C54.1597 24.708 53.9014 24.65 53.6845 24.534C53.4701 24.416 53.2922 24.236 53.1509 23.995M55.439 22.58C55.439 22.09 55.3367 21.706 55.132 21.429C54.9297 21.149 54.6507 21.009 54.295 21.009C53.9392 21.009 53.6589 21.149 53.4543 21.429C53.252 21.706 53.1509 22.09 53.1509 22.58C53.1509 23.07 53.252 23.454 53.4543 23.734C53.6589 24.012 53.9392 24.15 54.295 24.15C54.6507 24.15 54.9297 24.012 55.132 23.734C55.3367 23.454 55.439 23.07 55.439 22.58M59.8619 20.669L59.8619 21.299C59.6718 21.202 59.4744 21.13 59.2697 21.082C59.065 21.033 58.853 21.009 58.6337 21.009C58.2999 21.009 58.0489 21.06 57.8807 21.161C57.715 21.263 57.6322 21.415 57.6322 21.617C57.6322 21.772 57.6919 21.893 57.8113 21.983C57.9307 22.07 58.1707 22.153 58.5314 22.232L58.7616 22.283C59.2393 22.384 59.578 22.528 59.7778 22.714C59.9801 22.897 60.0812 23.154 60.0812 23.485C60.0812 23.861 59.9301 24.159 59.6279 24.378C59.3282 24.598 58.9152 24.708 58.3888 24.708C58.1695 24.708 57.9404 24.686 57.7016 24.643C57.4653 24.602 57.2155 24.539 56.9523 24.454L56.9523 23.767C57.2009 23.895 57.4458 23.991 57.687 24.056C57.9283 24.119 58.1671 24.15 58.4034 24.15C58.7202 24.15 58.9639 24.097 59.1345 23.991C59.3051 23.883 59.3903 23.731 59.3903 23.535C59.3903 23.354 59.3282 23.216 59.2039 23.119C59.0821 23.023 58.8128 22.93 58.3961 22.84L58.1622 22.786C57.7455 22.699 57.4445 22.567 57.2593 22.388C57.0741 22.207 56.9815 21.96 56.9815 21.646C56.9815 21.265 57.118 20.971 57.3909 20.763C57.6639 20.556 58.0513 20.452 58.5533 20.452C58.8019 20.452 59.0358 20.47 59.2551 20.506C59.4744 20.542 59.6767 20.597 59.8619 20.669M61.0864 23.003L61.0864 20.55L61.7589 20.55L61.7589 22.978C61.7589 23.361 61.8345 23.65 61.9856 23.843C62.1366 24.033 62.3633 24.129 62.6654 24.129C63.0285 24.129 63.3148 24.014 63.5244 23.785C63.7364 23.556 63.8424 23.243 63.8424 22.848L63.8424 20.55L64.515 20.55L64.515 24.603L63.8424 24.603L63.8424 23.98C63.6791 24.226 63.4891 24.41 63.2722 24.53C63.0578 24.649 62.808 24.708 62.5229 24.708C62.0526 24.708 61.6956 24.563 61.4519 24.273C61.2082 23.984 61.0864 23.561 61.0864 23.003M69.095 21.328C69.2631 21.029 69.4642 20.808 69.6981 20.665C69.932 20.523 70.2074 20.452 70.5242 20.452C70.9506 20.452 71.2796 20.6 71.5111 20.897C71.7426 21.191 71.8583 21.611 71.8583 22.156L71.8583 24.603L71.1821 24.603L71.1821 22.178C71.1821 21.79 71.1127 21.501 70.9738 21.313C70.8349 21.125 70.6229 21.031 70.3378 21.031C69.9893 21.031 69.7139 21.146 69.5117 21.375C69.3094 21.604 69.2083 21.916 69.2083 22.312L69.2083 24.603L68.5321 24.603L68.5321 22.178C68.5321 21.787 68.4626 21.499 68.3237 21.313C68.1848 21.125 67.9704 21.031 67.6804 21.031C67.3368 21.031 67.0639 21.147 66.8616 21.378C66.6594 21.608 66.5583 21.919 66.5583 22.312L66.5583 24.603L65.882 24.603L65.882 20.55L66.5583 20.55L66.5583 21.179C66.7118 20.931 66.8958 20.747 67.1102 20.629C67.3246 20.511 67.5793 20.452 67.8741 20.452C68.1714 20.452 68.4236 20.527 68.6308 20.676C68.8403 20.826 68.9951 21.043 69.095 21.328M78.2806 21.165L78.2806 18.972L78.9531 18.972L78.9531 24.603L78.2806 24.603L78.2806 23.995C78.1392 24.236 77.9601 24.416 77.7433 24.534C77.5288 24.65 77.2705 24.708 76.9684 24.708C76.4737 24.708 76.0704 24.512 75.7585 24.121C75.449 23.731 75.2943 23.217 75.2943 22.58C75.2943 21.943 75.449 21.429 75.7585 21.038C76.0704 20.647 76.4737 20.452 76.9684 20.452C77.2705 20.452 77.5288 20.511 77.7433 20.629C77.9601 20.745 78.1392 20.924 78.2806 21.165M75.9887 22.58C75.9887 23.07 76.0899 23.454 76.2921 23.734C76.4968 24.012 76.7771 24.15 77.1328 24.15C77.4886 24.15 77.7688 24.012 77.9735 23.734C78.1782 23.454 78.2806 23.07 78.2806 22.58C78.2806 22.09 78.1782 21.706 77.9735 21.429C77.7688 21.149 77.4886 21.009 77.1328 21.009C76.7771 21.009 76.4968 21.149 76.2921 21.429C76.0899 21.706 75.9887 22.09 75.9887 22.58M81.9248 21.016C81.5642 21.016 81.2791 21.156 81.0695 21.436C80.8599 21.714 80.7552 22.095 80.7552 22.58C80.7552 23.065 80.8587 23.447 81.0659 23.727C81.2754 24.004 81.5617 24.143 81.9248 24.143C82.283 24.143 82.5669 24.003 82.7765 23.723C82.9861 23.444 83.0909 23.062 83.0909 22.58C83.0909 22.1 82.9861 21.72 82.7765 21.44C82.5669 21.158 82.283 21.016 81.9248 21.016M81.9248 20.452C82.5097 20.452 82.969 20.64 83.3029 21.016C83.6367 21.393 83.8036 21.914 83.8036 22.58C83.8036 23.243 83.6367 23.764 83.3029 24.143C82.969 24.52 82.5097 24.708 81.9248 24.708C81.3376 24.708 80.877 24.52 80.5432 24.143C80.2118 23.764 80.046 23.243 80.0461 22.58C80.046 21.914 80.2118 21.393 80.5432 21.016C80.877 20.64 81.3376 20.452 81.9248 20.452M84.9148 18.972L85.5874 18.972L85.5874 24.603L84.9148 24.603L84.9148 18.972M88.5774 21.016C88.2167 21.016 87.9316 21.156 87.722 21.436C87.5125 21.714 87.4077 22.095 87.4077 22.58C87.4077 23.065 87.5112 23.447 87.7184 23.727C87.9279 24.004 88.2143 24.143 88.5774 24.143C88.9356 24.143 89.2195 24.003 89.429 23.723C89.6386 23.444 89.7434 23.062 89.7434 22.58C89.7434 22.1 89.6386 21.72 89.429 21.44C89.2195 21.158 88.9356 21.016 88.5774 21.016M88.5774 20.452C89.1622 20.452 89.6215 20.64 89.9554 21.016C90.2892 21.393 90.4561 21.914 90.4561 22.58C90.4561 23.243 90.2892 23.764 89.9554 24.143C89.6215 24.52 89.1622 24.708 88.5774 24.708C87.9901 24.708 87.5295 24.52 87.1957 24.143C86.8643 23.764 86.6986 23.243 86.6986 22.58C86.6986 21.914 86.8643 21.393 87.1957 21.016C87.5295 20.64 87.9901 20.452 88.5774 20.452M93.9396 21.172C93.864 21.129 93.7812 21.097 93.691 21.078C93.6033 21.056 93.5058 21.045 93.3986 21.045C93.0185 21.045 92.7261 21.168 92.5214 21.415C92.3191 21.658 92.218 22.009 92.218 22.468L92.218 24.603L91.5417 24.603L91.5417 20.55L92.218 20.55L92.218 21.179C92.3593 20.933 92.5433 20.751 92.7699 20.633C92.9965 20.512 93.2719 20.452 93.596 20.452C93.6423 20.452 93.6935 20.456 93.7495 20.463C93.8056 20.468 93.8677 20.476 93.9359 20.488L93.9396 21.172M27.0525 39.1975L27.0525 39.8272C26.8624 39.7307 26.6651 39.6583 26.4604 39.6101C26.2557 39.5618 26.0437 39.5377 25.8244 39.5377C25.4905 39.5377 25.2395 39.5884 25.0714 39.6897C24.9057 39.791 24.8228 39.943 24.8228 40.1457C24.8228 40.3001 24.8825 40.4219 25.0019 40.5112C25.1213 40.598 25.3614 40.6813 25.722 40.7609L25.9523 40.8115C26.4299 40.9129 26.7686 41.0564 26.9684 41.2422C27.1707 41.4255 27.2718 41.6825 27.2718 42.013C27.2718 42.3894 27.1207 42.6873 26.8186 42.9068C26.5189 43.1264 26.1058 43.2362 25.5795 43.2362C25.3601 43.2362 25.1311 43.2144 24.8923 43.171C24.6559 43.13 24.4061 43.0673 24.143 42.9828L24.143 42.2953C24.3915 42.4231 24.6364 42.5196 24.8777 42.5848C25.1189 42.6475 25.3577 42.6789 25.5941 42.6789C25.9109 42.6789 26.1545 42.6258 26.3251 42.5196C26.4957 42.4111 26.581 42.2591 26.581 42.0637C26.581 41.8827 26.5189 41.744 26.3946 41.6475C26.2727 41.551 26.0035 41.4581 25.5868 41.3688L25.3528 41.3146C24.9361 41.2277 24.6352 41.095 24.45 40.9165C24.2648 40.7355 24.1722 40.4883 24.1722 40.1746C24.1722 39.7934 24.3087 39.4991 24.5816 39.2916C24.8545 39.0841 25.242 38.9804 25.7439 38.9804C25.9925 38.9804 26.2264 38.9985 26.4457 39.0347C26.6651 39.0709 26.8673 39.1252 27.0525 39.1975M28.3465 39.0781L29.019 39.0781L29.019 43.1312L28.3465 43.1312L28.3465 39.0781M28.3465 37.5003L29.019 37.5003L29.019 38.3435L28.3465 38.3435L28.3465 37.5003M31.0879 37.9273L31.0879 39.0781L32.4732 39.0781L32.4732 39.5956L31.0879 39.5956L31.0879 41.7959C31.0879 42.1264 31.133 42.3387 31.2231 42.4328C31.3157 42.5269 31.5022 42.5739 31.7824 42.5739L32.4732 42.5739L32.4732 43.1312L31.7824 43.1312C31.2633 43.1312 30.9051 43.0359 30.7077 42.8453C30.5104 42.6523 30.4117 42.3025 30.4117 41.7959L30.4117 39.5956L29.9182 39.5956L29.9182 39.0781L30.4117 39.0781L30.4117 37.9273L31.0879 37.9273M37.6052 41.0938C37.0618 41.0938 36.6853 41.1553 36.4757 41.2784C36.2661 41.4014 36.1614 41.6113 36.1614 41.908C36.1614 42.1445 36.2393 42.3327 36.3953 42.4726C36.5537 42.6101 36.7681 42.6789 37.0386 42.6789C37.4114 42.6789 37.7099 42.5486 37.9341 42.288C38.1608 42.0251 38.2741 41.6764 38.2741 41.2422L38.2741 41.0938L37.6052 41.0938M38.9466 40.8188L38.9466 43.1312L38.2741 43.1312L38.2741 42.516C38.1206 42.7621 37.9293 42.9442 37.7002 43.0625C37.4711 43.1783 37.1909 43.2362 36.8595 43.2362C36.4404 43.2362 36.1065 43.1204 35.858 42.8887C35.6118 42.6547 35.4888 42.3423 35.4888 41.9515C35.4888 41.4955 35.6423 41.1517 35.9493 40.9201C36.2588 40.6885 36.7194 40.5727 37.331 40.5727L38.2741 40.5727L38.2741 40.5076C38.2741 40.2012 38.1717 39.9647 37.967 39.7983C37.7648 39.6294 37.4797 39.5449 37.1117 39.5449C36.8778 39.5449 36.6499 39.5727 36.4282 39.6282C36.2064 39.6837 35.9932 39.7669 35.7885 39.8779L35.7885 39.2627C36.0346 39.1686 36.2734 39.0986 36.5049 39.0528C36.7364 39.0045 36.9618 38.9804 37.1812 38.9804C37.7733 38.9804 38.2156 39.1324 38.508 39.4364C38.8004 39.7404 38.9466 40.2012 38.9466 40.8188M43.523 39.8562C43.6911 39.557 43.8922 39.3363 44.1261 39.1939C44.36 39.0516 44.6354 38.9804 44.9522 38.9804C45.3786 38.9804 45.7076 39.1288 45.9391 39.4255C46.1706 39.7199 46.2863 40.1396 46.2863 40.6849L46.2863 43.1312L45.6101 43.1312L45.6101 40.7066C45.6101 40.3182 45.5407 40.0299 45.4018 39.8417C45.2629 39.6535 45.0509 39.5594 44.7658 39.5594C44.4173 39.5594 44.1419 39.674 43.9397 39.9032C43.7374 40.1324 43.6363 40.4448 43.6363 40.8405L43.6363 43.1312L42.9601 43.1312L42.9601 40.7066C42.9601 40.3158 42.8906 40.0275 42.7517 39.8417C42.6128 39.6535 42.3984 39.5594 42.1084 39.5594C41.7648 39.5594 41.4919 39.6752 41.2896 39.9068C41.0874 40.136 40.9863 40.4472 40.9863 40.8405L40.9863 43.1312L40.31 43.1312L40.31 39.0781L40.9863 39.0781L40.9863 39.7078C41.1398 39.4593 41.3238 39.2759 41.5382 39.1577C41.7526 39.0395 42.0073 38.9804 42.3021 38.9804C42.5994 38.9804 42.8516 39.0552 43.0588 39.2048C43.2683 39.3544 43.4231 39.5715 43.523 39.8562M51.1332 40.9382L51.1332 41.2639L48.0409 41.2639C48.0701 41.7223 48.209 42.0721 48.4575 42.3134C48.7085 42.5522 49.057 42.6716 49.5029 42.6716C49.7612 42.6716 50.011 42.6403 50.2523 42.5775C50.4959 42.5148 50.7372 42.4207 50.976 42.2953L50.976 42.9249C50.7348 43.0263 50.4874 43.1035 50.234 43.1565C49.9806 43.2096 49.7235 43.2362 49.4627 43.2362C48.8097 43.2362 48.2918 43.048 47.9093 42.6716C47.5291 42.2953 47.339 41.7862 47.3391 41.1445C47.339 40.481 47.5194 39.9551 47.88 39.5667C48.2431 39.1758 48.7317 38.9804 49.3458 38.9804C49.8965 38.9804 50.3315 39.1565 50.6507 39.5088C50.9723 39.8586 51.1332 40.3351 51.1332 40.9382M50.4606 40.7428C50.4557 40.3785 50.3522 40.0878 50.1499 39.8706C49.9501 39.6535 49.6845 39.5449 49.3531 39.5449C48.9778 39.5449 48.6769 39.6499 48.4502 39.8598C48.2261 40.0697 48.0969 40.3652 48.0628 40.7464L50.4606 40.7428M52.9023 37.9273L52.9023 39.0781L54.2876 39.0781L54.2876 39.5956L52.9023 39.5956L52.9023 41.7959C52.9023 42.1264 52.9474 42.3387 53.0376 42.4328C53.1302 42.5269 53.3166 42.5739 53.5968 42.5739L54.2876 42.5739L54.2876 43.1312L53.5968 43.1312C53.0778 43.1312 52.7195 43.0359 52.5222 42.8453C52.3248 42.6523 52.2261 42.3025 52.2261 41.7959L52.2261 39.5956L51.7326 39.5956L51.7326 39.0781L52.2261 39.0781L52.2261 37.9273L52.9023 37.9273M60.5052 39.2337L60.5052 39.8562C60.3151 39.7524 60.1238 39.6752 59.9313 39.6246C59.7412 39.5715 59.5487 39.5449 59.3538 39.5449C58.9176 39.5449 58.5789 39.6825 58.3376 39.9575C58.0964 40.2301 57.9758 40.6137 57.9758 41.1083C57.9758 41.6029 58.0964 41.9877 58.3376 42.2627C58.5789 42.5353 58.9176 42.6716 59.3538 42.6716C59.5487 42.6716 59.7412 42.6463 59.9313 42.5956C60.1238 42.5425 60.3151 42.4641 60.5052 42.3604L60.5052 42.9756C60.3176 43.0625 60.1226 43.1276 59.9204 43.171C59.7205 43.2144 59.5073 43.2362 59.2807 43.2362C58.6642 43.2362 58.1744 43.0444 57.8113 42.6608C57.4482 42.2772 57.2667 41.7597 57.2667 41.1083C57.2667 40.4472 57.4494 39.9273 57.8149 39.5486C58.1829 39.1698 58.6861 38.9804 59.3246 38.9804C59.5317 38.9804 59.7339 39.0021 59.9313 39.0455C60.1287 39.0866 60.32 39.1493 60.5052 39.2337M63.2685 39.5449C62.9079 39.5449 62.6228 39.6849 62.4132 39.9647C62.2037 40.2422 62.0989 40.6234 62.0989 41.1083C62.0989 41.5932 62.2024 41.9756 62.4096 42.2555C62.6191 42.5329 62.9055 42.6716 63.2685 42.6716C63.6268 42.6716 63.9106 42.5317 64.1202 42.2518C64.3298 41.972 64.4346 41.5908 64.4346 41.1083C64.4346 40.6282 64.3298 40.2482 64.1202 39.9683C63.9106 39.6861 63.6268 39.5449 63.2685 39.5449M63.2685 38.9804C63.8534 38.9804 64.3127 39.1686 64.6466 39.5449C64.9804 39.9213 65.1473 40.4424 65.1473 41.1083C65.1473 41.7717 64.9804 42.2928 64.6466 42.6716C64.3127 43.048 63.8534 43.2362 63.2685 43.2362C62.6813 43.2362 62.2207 43.048 61.8869 42.6716C61.5555 42.2928 61.3898 41.7717 61.3898 41.1083C61.3898 40.4424 61.5555 39.9213 61.8869 39.5449C62.2207 39.1686 62.6813 38.9804 63.2685 38.9804M69.6615 40.6849L69.6615 43.1312L68.989 43.1312L68.989 40.7066C68.989 40.323 68.9134 40.0359 68.7624 39.8453C68.6113 39.6547 68.3846 39.5594 68.0825 39.5594C67.7194 39.5594 67.4331 39.674 67.2235 39.9032C67.0139 40.1324 66.9092 40.4448 66.9092 40.8405L66.9092 43.1312L66.2329 43.1312L66.2329 39.0781L66.9092 39.0781L66.9092 39.7078C67.07 39.4641 67.2588 39.282 67.4757 39.1613C67.695 39.0407 67.9472 38.9804 68.2323 38.9804C68.7027 38.9804 69.0584 39.1252 69.2997 39.4147C69.5409 39.7018 69.6615 40.1252 69.6615 40.6849M73.6202 39.1975L73.6202 39.8272C73.4301 39.7307 73.2327 39.6583 73.028 39.6101C72.8233 39.5618 72.6113 39.5377 72.392 39.5377C72.0582 39.5377 71.8072 39.5884 71.639 39.6897C71.4733 39.791 71.3905 39.943 71.3905 40.1457C71.3905 40.3001 71.4502 40.4219 71.5696 40.5112C71.689 40.598 71.929 40.6813 72.2897 40.7609L72.5199 40.8115C72.9975 40.9129 73.3363 41.0564 73.5361 41.2422C73.7383 41.4255 73.8395 41.6825 73.8395 42.013C73.8395 42.3894 73.6884 42.6873 73.3862 42.9068C73.0865 43.1264 72.6735 43.2362 72.1471 43.2362C71.9278 43.2362 71.6987 43.2144 71.4599 43.171C71.2235 43.13 70.9738 43.0673 70.7106 42.9828L70.7106 42.2953C70.9591 42.4231 71.204 42.5196 71.4453 42.5848C71.6865 42.6475 71.9253 42.6789 72.1617 42.6789C72.4785 42.6789 72.7222 42.6258 72.8928 42.5196C73.0633 42.4111 73.1486 42.2591 73.1486 42.0637C73.1486 41.8827 73.0865 41.744 72.9622 41.6475C72.8404 41.551 72.5711 41.4581 72.1544 41.3688L71.9205 41.3146C71.5038 41.2277 71.2028 41.095 71.0176 40.9165C70.8324 40.7355 70.7398 40.4883 70.7398 40.1746C70.7398 39.7934 70.8763 39.4991 71.1492 39.2916C71.4221 39.0841 71.8096 38.9804 72.3116 38.9804C72.5601 38.9804 72.7941 38.9985 73.0134 39.0347C73.2327 39.0709 73.435 39.1252 73.6202 39.1975M78.4158 40.9382L78.4158 41.2639L75.3235 41.2639C75.3527 41.7223 75.4916 42.0721 75.7402 42.3134C75.9912 42.5522 76.3396 42.6716 76.7856 42.6716C77.0439 42.6716 77.2937 42.6403 77.5349 42.5775C77.7786 42.5148 78.0198 42.4207 78.2587 42.2953L78.2587 42.9249C78.0174 43.0263 77.7701 43.1035 77.5166 43.1565C77.2632 43.2096 77.0061 43.2362 76.7454 43.2362C76.0923 43.2362 75.5745 43.048 75.1919 42.6716C74.8118 42.2953 74.6217 41.7862 74.6217 41.1445C74.6217 40.481 74.802 39.9551 75.1627 39.5667C75.5258 39.1758 76.0143 38.9804 76.6284 38.9804C77.1791 38.9804 77.6141 39.1565 77.9333 39.5088C78.255 39.8586 78.4158 40.3351 78.4158 40.9382M77.7433 40.7428C77.7384 40.3785 77.6348 40.0878 77.4326 39.8706C77.2327 39.6535 76.9671 39.5449 76.6357 39.5449C76.2604 39.5449 75.9595 39.6499 75.7329 39.8598C75.5087 40.0697 75.3795 40.3652 75.3454 40.7464L77.7433 40.7428M82.4658 39.2337L82.4658 39.8562C82.2758 39.7524 82.0845 39.6752 81.892 39.6246C81.7019 39.5715 81.5094 39.5449 81.3144 39.5449C80.8782 39.5449 80.5395 39.6825 80.2983 39.9575C80.057 40.2301 79.9364 40.6137 79.9364 41.1083C79.9364 41.6029 80.057 41.9877 80.2983 42.2627C80.5395 42.5353 80.8782 42.6716 81.3144 42.6716C81.5094 42.6716 81.7019 42.6463 81.892 42.5956C82.0845 42.5425 82.2758 42.4641 82.4658 42.3604L82.4658 42.9756C82.2782 43.0625 82.0832 43.1276 81.881 43.171C81.6812 43.2144 81.4679 43.2362 81.2413 43.2362C80.6248 43.2362 80.135 43.0444 79.7719 42.6608C79.4088 42.2772 79.2273 41.7597 79.2273 41.1083C79.2273 40.4472 79.41 39.9273 79.7756 39.5486C80.1435 39.1698 80.6467 38.9804 81.2852 38.9804C81.4923 38.9804 81.6946 39.0021 81.892 39.0455C82.0893 39.0866 82.2806 39.1493 82.4658 39.2337M84.3081 37.9273L84.3081 39.0781L85.6934 39.0781L85.6934 39.5956L84.3081 39.5956L84.3081 41.7959C84.3081 42.1264 84.3531 42.3387 84.4433 42.4328C84.5359 42.5269 84.7223 42.5739 85.0026 42.5739L85.6934 42.5739L85.6934 43.1312L85.0026 43.1312C84.4835 43.1312 84.1253 43.0359 83.9279 42.8453C83.7305 42.6523 83.6318 42.3025 83.6318 41.7959L83.6318 39.5956L83.1384 39.5956L83.1384 39.0781L83.6318 39.0781L83.6318 37.9273L84.3081 37.9273M86.2417 40.8043L88.2118 40.8043L88.2118 41.3978L86.2417 41.3978L86.2417 40.8043M27.9444 59.4667L27.9444 59.7924L24.8521 59.7924C24.8813 60.2507 25.0202 60.6006 25.2688 60.8418C25.5198 61.0807 25.8682 61.2001 26.3142 61.2001C26.5725 61.2001 26.8222 61.1687 27.0635 61.106C27.3072 61.0433 27.5484 60.9492 27.7872 60.8237L27.7872 61.4534C27.546 61.5547 27.2986 61.6319 27.0452 61.685C26.7918 61.7381 26.5347 61.7646 26.274 61.7646C25.6209 61.7646 25.1031 61.5764 24.7205 61.2001C24.3403 60.8237 24.1503 60.3147 24.1503 59.6729C24.1503 59.0095 24.3306 58.4835 24.6912 58.0951C25.0543 57.7043 25.5429 57.5089 26.157 57.5089C26.7077 57.5089 27.1427 57.685 27.4619 58.0372C27.7836 58.387 27.9444 58.8635 27.9444 59.4667M27.2718 59.2712C27.267 58.907 27.1634 58.6162 26.9611 58.3991C26.7613 58.182 26.4957 58.0734 26.1643 58.0734C25.789 58.0734 25.4881 58.1784 25.2615 58.3882C25.0373 58.5981 24.9081 58.8937 24.874 59.2749L27.2718 59.2712M29.7135 56.4558L29.7135 57.6066L31.0989 57.6066L31.0989 58.1241L29.7135 58.1241L29.7135 60.3243C29.7135 60.6548 29.7586 60.8672 29.8488 60.9612C29.9414 61.0553 30.1278 61.1024 30.408 61.1024L31.0989 61.1024L31.0989 61.6597L30.408 61.6597C29.889 61.6597 29.5308 61.5644 29.3334 61.3738C29.136 61.1808 29.0373 60.831 29.0373 60.3243L29.0373 58.1241L28.5439 58.1241L28.5439 57.6066L29.0373 57.6066L29.0373 56.4558L29.7135 56.4558M31.9176 60.0602L31.9176 57.6066L32.5902 57.6066L32.5902 60.0348C32.5902 60.4184 32.6657 60.7067 32.8168 60.8997C32.9679 61.0903 33.1945 61.1856 33.4967 61.1856C33.8598 61.1856 34.1461 61.071 34.3557 60.8418C34.5677 60.6126 34.6737 60.3002 34.6737 59.9045L34.6737 57.6066L35.3462 57.6066L35.3462 61.6597L34.6737 61.6597L34.6737 61.0372C34.5104 61.2833 34.3203 61.4667 34.1035 61.5873C33.889 61.7055 33.6392 61.7646 33.3541 61.7646C32.8838 61.7646 32.5268 61.6199 32.2832 61.3304C32.0395 61.0409 31.9176 60.6175 31.9176 60.0602M40.2406 59.4667L40.2406 59.7924L37.1483 59.7924C37.1775 60.2507 37.3164 60.6006 37.565 60.8418C37.816 61.0807 38.1644 61.2001 38.6104 61.2001C38.8687 61.2001 39.1184 61.1687 39.3597 61.106C39.6034 61.0433 39.8446 60.9492 40.0834 60.8237L40.0834 61.4534C39.8422 61.5547 39.5948 61.6319 39.3414 61.685C39.088 61.7381 38.8309 61.7646 38.5701 61.7646C37.9171 61.7646 37.3993 61.5764 37.0167 61.2001C36.6365 60.8237 36.4465 60.3147 36.4465 59.6729C36.4465 59.0095 36.6268 58.4835 36.9874 58.0951C37.3505 57.7043 37.8391 57.5089 38.4532 57.5089C39.0039 57.5089 39.4389 57.685 39.7581 58.0372C40.0798 58.387 40.2406 58.8635 40.2406 59.4667M39.568 59.2712C39.5632 58.907 39.4596 58.6162 39.2573 58.3991C39.0575 58.182 38.7919 58.0734 38.4605 58.0734C38.0852 58.0734 37.7843 58.1784 37.5577 58.3882C37.3335 58.5981 37.2043 58.8937 37.1702 59.2749L39.568 59.2712M43.7167 58.229C43.6412 58.1856 43.5583 58.1542 43.4682 58.1349C43.3804 58.1132 43.283 58.1024 43.1757 58.1024C42.7956 58.1024 42.5032 58.2254 42.2985 58.4715C42.0962 58.7152 41.9951 59.0662 41.9951 59.5246L41.9951 61.6597L41.3189 61.6597L41.3189 57.6066L41.9951 57.6066L41.9951 58.2363C42.1364 57.9902 42.3204 57.808 42.547 57.6898C42.7737 57.5692 43.049 57.5089 43.3731 57.5089C43.4194 57.5089 43.4706 57.5125 43.5266 57.5197C43.5827 57.5246 43.6448 57.533 43.7131 57.5451L43.7167 58.229M48.6732 59.6223C48.1298 59.6223 47.7533 59.6838 47.5437 59.8068C47.3342 59.9299 47.2294 60.1398 47.2294 60.4365C47.2294 60.6729 47.3074 60.8611 47.4633 61.0011C47.6217 61.1386 47.8362 61.2073 48.1066 61.2073C48.4795 61.2073 48.778 61.077 49.0022 60.8165C49.2288 60.5535 49.3421 60.2049 49.3421 59.7706L49.3421 59.6223L48.6732 59.6223M50.0147 59.3472L50.0147 61.6597L49.3421 61.6597L49.3421 61.0445C49.1886 61.2906 48.9973 61.4727 48.7682 61.5909C48.5392 61.7067 48.2589 61.7646 47.9275 61.7646C47.5084 61.7646 47.1746 61.6488 46.926 61.4172C46.6799 61.1832 46.5568 60.8708 46.5568 60.4799C46.5568 60.024 46.7103 59.6802 47.0174 59.4486C47.3269 59.217 47.7874 59.1012 48.3991 59.1012L49.3421 59.1012L49.3421 59.036C49.3421 58.7296 49.2398 58.4932 49.0351 58.3267C48.8328 58.1579 48.5477 58.0734 48.1798 58.0734C47.9458 58.0734 47.718 58.1012 47.4962 58.1566C47.2745 58.2121 47.0613 58.2954 46.8566 58.4063L46.8566 57.7911C47.1027 57.6971 47.3415 57.6271 47.573 57.5812C47.8045 57.533 48.0299 57.5089 48.2492 57.5089C48.8413 57.5089 49.2836 57.6609 49.5761 57.9648C49.8685 58.2688 50.0147 58.7296 50.0147 59.3472M54.0976 58.2218L54.0976 56.0288L54.7701 56.0288L54.7701 61.6597L54.0976 61.6597L54.0976 61.0517C53.9562 61.293 53.7771 61.4727 53.5603 61.5909C53.3458 61.7067 53.0875 61.7646 52.7853 61.7646C52.2907 61.7646 51.8874 61.5692 51.5755 61.1784C51.266 60.7875 51.1112 60.2737 51.1112 59.6367C51.1112 58.9998 51.266 58.486 51.5755 58.0951C51.8874 57.7043 52.2907 57.5089 52.7853 57.5089C53.0875 57.5089 53.3458 57.568 53.5603 57.6862C53.7771 57.802 53.9562 57.9805 54.0976 58.2218M51.8057 59.6367C51.8057 60.1265 51.9069 60.5113 52.1091 60.7912C52.3138 61.0686 52.5941 61.2073 52.9498 61.2073C53.3056 61.2073 53.5858 61.0686 53.7905 60.7912C53.9952 60.5113 54.0976 60.1265 54.0976 59.6367C54.0976 59.147 53.9952 58.7634 53.7905 58.486C53.5858 58.2061 53.3056 58.0662 52.9498 58.0662C52.5941 58.0662 52.3138 58.2061 52.1091 58.486C51.9069 58.7634 51.8057 59.147 51.8057 59.6367M56.1555 57.6066L56.828 57.6066L56.828 61.6597L56.1555 61.6597L56.1555 57.6066M56.1555 56.0288L56.828 56.0288L56.828 56.872L56.1555 56.872L56.1555 56.0288M58.8823 61.0517L58.8823 63.2013L58.2061 63.2013L58.2061 57.6066L58.8823 57.6066L58.8823 58.2218C59.0236 57.9805 59.2015 57.802 59.4159 57.6862C59.6328 57.568 59.8911 57.5089 60.1908 57.5089C60.688 57.5089 61.0912 57.7043 61.4007 58.0951C61.7126 58.486 61.8686 58.9998 61.8686 59.6367C61.8686 60.2737 61.7126 60.7875 61.4007 61.1784C61.0912 61.5692 60.688 61.7646 60.1908 61.7646C59.8911 61.7646 59.6328 61.7067 59.4159 61.5909C59.2015 61.4727 59.0236 61.293 58.8823 61.0517M61.1704 59.6367C61.1704 59.147 61.0681 58.7634 60.8634 58.486C60.6611 58.2061 60.3821 58.0662 60.0264 58.0662C59.6706 58.0662 59.3903 58.2061 59.1857 58.486C58.9834 58.7634 58.8823 59.147 58.8823 59.6367C58.8823 60.1265 58.9834 60.5113 59.1857 60.7912C59.3903 61.0686 59.6706 61.2073 60.0264 61.2073C60.3821 61.2073 60.6611 61.0686 60.8634 60.7912C61.0681 60.5113 61.1704 60.1265 61.1704 59.6367M62.9834 57.6066L63.656 57.6066L63.656 61.6597L62.9834 61.6597L62.9834 57.6066M62.9834 56.0288L63.656 56.0288L63.656 56.872L62.9834 56.872L62.9834 56.0288M67.6694 57.726L67.6694 58.3557C67.4794 58.2592 67.282 58.1868 67.0773 58.1385C66.8726 58.0903 66.6606 58.0662 66.4413 58.0662C66.1074 58.0662 65.8564 58.1168 65.6883 58.2182C65.5226 58.3195 65.4398 58.4715 65.4398 58.6741C65.4398 58.8285 65.4995 58.9504 65.6189 59.0396C65.7383 59.1265 65.9783 59.2097 66.3389 59.2893L66.5692 59.34C67.0468 59.4413 67.3856 59.5849 67.5854 59.7706C67.7876 59.954 67.8888 60.2109 67.8888 60.5415C67.8888 60.9178 67.7377 61.2158 67.4355 61.4353C67.1358 61.6549 66.7227 61.7646 66.1964 61.7646C65.9771 61.7646 65.748 61.7429 65.5092 61.6995C65.2728 61.6585 65.0231 61.5957 64.7599 61.5113L64.7599 60.8237C65.0084 60.9516 65.2533 61.0481 65.4946 61.1132C65.7358 61.176 65.9746 61.2073 66.211 61.2073C66.5278 61.2073 66.7715 61.1542 66.9421 61.0481C67.1126 60.9395 67.1979 60.7875 67.1979 60.5921C67.1979 60.4112 67.1358 60.2725 67.0115 60.176C66.8897 60.0795 66.6204 59.9866 66.2037 59.8973L65.9698 59.843C65.5531 59.7562 65.2521 59.6235 65.0669 59.4449C64.8817 59.264 64.7891 59.0167 64.7891 58.7031C64.7891 58.3219 64.9256 58.0276 65.1985 57.8201C65.4714 57.6126 65.8589 57.5089 66.3609 57.5089C66.6094 57.5089 66.8434 57.527 67.0627 57.5632C67.282 57.5993 67.4842 57.6536 67.6694 57.726M71.9095 57.7622L71.9095 58.3846C71.7194 58.2809 71.5281 58.2037 71.3356 58.153C71.1456 58.1 70.9531 58.0734 70.7581 58.0734C70.3219 58.0734 69.9832 58.2109 69.742 58.486C69.5007 58.7586 69.3801 59.1422 69.3801 59.6367C69.3801 60.1313 69.5007 60.5161 69.742 60.7912C69.9832 61.0638 70.3219 61.2001 70.7581 61.2001C70.9531 61.2001 71.1456 61.1748 71.3356 61.1241C71.5281 61.071 71.7194 60.9926 71.9095 60.8889L71.9095 61.5041C71.7219 61.5909 71.5269 61.6561 71.3247 61.6995C71.1249 61.7429 70.9116 61.7646 70.685 61.7646C70.0685 61.7646 69.5787 61.5728 69.2156 61.1892C68.8525 60.8056 68.671 60.2881 68.671 59.6367C68.671 58.9757 68.8537 58.4558 69.2193 58.077C69.5872 57.6983 70.0904 57.5089 70.7289 57.5089C70.936 57.5089 71.1383 57.5306 71.3356 57.574C71.533 57.615 71.7243 57.6778 71.9095 57.7622M73.0865 57.6066L73.7591 57.6066L73.7591 61.6597L73.0865 61.6597L73.0865 57.6066M73.0865 56.0288L73.7591 56.0288L73.7591 56.872L73.0865 56.872L73.0865 56.0288M78.5657 59.2133L78.5657 61.6597L77.8931 61.6597L77.8931 59.2351C77.8931 58.8515 77.8176 58.5644 77.6665 58.3738C77.5154 58.1832 77.2888 58.0879 76.9866 58.0879C76.6235 58.0879 76.3372 58.2025 76.1276 58.4317C75.9181 58.6609 75.8133 58.9733 75.8133 59.369L75.8133 61.6597L75.1371 61.6597L75.1371 57.6066L75.8133 57.6066L75.8133 58.2363C75.9741 57.9926 76.163 57.8104 76.3799 57.6898C76.5992 57.5692 76.8514 57.5089 77.1365 57.5089C77.6068 57.5089 77.9626 57.6536 78.2038 57.9431C78.4451 58.2302 78.5657 58.6536 78.5657 59.2133M82.6084 59.5861C82.6084 59.1036 82.5072 58.7296 82.305 58.4642C82.1052 58.1989 81.8237 58.0662 81.4606 58.0662C81.1 58.0662 80.8185 58.1989 80.6163 58.4642C80.4165 58.7296 80.3165 59.1036 80.3165 59.5861C80.3165 60.0662 80.4165 60.4389 80.6163 60.7043C80.8185 60.9697 81.1 61.1024 81.4606 61.1024C81.8237 61.1024 82.1052 60.9697 82.305 60.7043C82.5072 60.4389 82.6084 60.0662 82.6084 59.5861M83.2809 61.1567C83.2809 61.8467 83.1262 62.3593 82.8167 62.6947C82.5072 63.0324 82.0333 63.2013 81.3948 63.2013C81.1585 63.2013 80.9355 63.1832 80.7259 63.147C80.5164 63.1132 80.3129 63.0602 80.1155 62.9878L80.1155 62.34C80.3129 62.4462 80.5078 62.5246 80.7003 62.5752C80.8929 62.6259 81.089 62.6512 81.2888 62.6512C81.7299 62.6512 82.0601 62.5366 82.2794 62.3075C82.4987 62.0807 82.6084 61.7369 82.6084 61.2761L82.6084 60.9468C82.4695 61.1856 82.2916 61.3641 82.0747 61.4824C81.8578 61.6006 81.5983 61.6597 81.2961 61.6597C80.7942 61.6597 80.3896 61.4703 80.0826 61.0915C79.7756 60.7128 79.6221 60.2109 79.6221 59.5861C79.6221 58.9588 79.7756 58.4558 80.0826 58.077C80.3896 57.6983 80.7942 57.5089 81.2961 57.5089C81.5983 57.5089 81.8578 57.568 82.0747 57.6862C82.2916 57.8044 82.4695 57.9829 82.6084 58.2218L82.6084 57.6066L83.2809 57.6066L83.2809 61.1567M27.9444 77.9951L27.9444 78.3208L24.8521 78.3208C24.8813 78.7792 25.0202 79.129 25.2688 79.3703C25.5198 79.6091 25.8682 79.7286 26.3142 79.7286C26.5725 79.7286 26.8222 79.6972 27.0635 79.6345C27.3072 79.5717 27.5484 79.4776 27.7872 79.3522L27.7872 79.9819C27.546 80.0832 27.2986 80.1604 27.0452 80.2135C26.7918 80.2666 26.5347 80.2931 26.274 80.2931C25.6209 80.2931 25.1031 80.1049 24.7205 79.7286C24.3403 79.3522 24.1503 78.8431 24.1503 78.2014C24.1503 77.538 24.3306 77.012 24.6912 76.6236C25.0543 76.2328 25.5429 76.0373 26.157 76.0373C26.7077 76.0373 27.1427 76.2135 27.4619 76.5657C27.7836 76.9155 27.9444 77.392 27.9444 77.9951M27.2718 77.7997C27.267 77.4354 27.1634 77.1447 26.9611 76.9276C26.7613 76.7104 26.4957 76.6019 26.1643 76.6019C25.789 76.6019 25.4881 76.7068 25.2615 76.9167C25.0373 77.1266 24.9081 77.4222 24.874 77.8033L27.2718 77.7997M29.0483 74.5572L29.7208 74.5572L29.7208 80.1881L29.0483 80.1881L29.0483 74.5572M31.1244 76.135L31.797 76.135L31.797 80.1881L31.1244 80.1881L31.1244 76.135M31.1244 74.5572L31.797 74.5572L31.797 75.4004L31.1244 75.4004L31.1244 74.5572M33.8659 74.9843L33.8659 76.135L35.2512 76.135L35.2512 76.6525L33.8659 76.6525L33.8659 78.8528C33.8659 79.1833 33.9109 79.3956 34.0011 79.4897C34.0937 79.5838 34.2801 79.6308 34.5604 79.6308L35.2512 79.6308L35.2512 80.1881L34.5604 80.1881C34.0413 80.1881 33.6831 80.0929 33.4857 79.9023C33.2883 79.7093 33.1896 79.3594 33.1897 78.8528L33.1897 76.6525L32.6962 76.6525L32.6962 76.135L33.1897 76.135L33.1897 74.9843L33.8659 74.9843M36.2345 79.269L37.0057 79.269L37.0057 80.1881L36.2345 80.1881L36.2345 79.269M41.6734 75.3859L41.6734 77.4161L42.6019 77.4161C42.9455 77.4161 43.2111 77.3281 43.3987 77.1519C43.5863 76.9758 43.6802 76.7249 43.6802 76.3992C43.6802 76.0759 43.5863 75.8262 43.3987 75.6501C43.2111 75.474 42.9455 75.386 42.6019 75.3859L41.6734 75.3859M40.9351 74.7852L42.6019 74.7852C43.2135 74.7852 43.6753 74.9227 43.9872 75.1978C44.3015 75.4704 44.4587 75.8709 44.4587 76.3992C44.4587 76.9324 44.3015 77.3353 43.9872 77.6079C43.6753 77.8805 43.2135 78.0168 42.6019 78.0168L41.6734 78.0168L41.6734 80.1881L40.9351 80.1881L40.9351 74.7852M48.8267 77.7418L48.8267 80.1881L48.1542 80.1881L48.1542 77.7635C48.1542 77.3799 48.0786 77.0928 47.9275 76.9022C47.7765 76.7117 47.5498 76.6164 47.2477 76.6164C46.8846 76.6164 46.5983 76.731 46.3887 76.9601C46.1791 77.1893 46.0743 77.5018 46.0743 77.8974L46.0743 80.1881L45.3981 80.1881L45.3981 74.5572L46.0743 74.5572L46.0743 76.7647C46.2352 76.5211 46.424 76.3389 46.6409 76.2183C46.8602 76.0977 47.1124 76.0373 47.3975 76.0373C47.8678 76.0373 48.2236 76.1821 48.4649 76.4716C48.7061 76.7587 48.8267 77.1821 48.8267 77.7418M52.036 78.1507C51.4926 78.1507 51.1161 78.2123 50.9066 78.3353C50.697 78.4583 50.5922 78.6682 50.5922 78.965C50.5922 79.2014 50.6702 79.3896 50.8261 79.5295C50.9845 79.667 51.199 79.7358 51.4695 79.7358C51.8423 79.7358 52.1408 79.6055 52.365 79.345C52.5916 79.082 52.7049 78.7334 52.7049 78.2991L52.7049 78.1507L52.036 78.1507M53.3775 77.8757L53.3775 80.1881L52.7049 80.1881L52.7049 79.5729C52.5514 79.819 52.3601 80.0012 52.1311 80.1194C51.902 80.2352 51.6218 80.2931 51.2904 80.2931C50.8712 80.2931 50.5374 80.1773 50.2888 79.9457C50.0427 79.7117 49.9196 79.3992 49.9196 79.0084C49.9196 78.5524 50.0732 78.2086 50.3802 77.977C50.6897 77.7454 51.1502 77.6296 51.7619 77.6296L52.7049 77.6296L52.7049 77.5645C52.7049 77.2581 52.6026 77.0217 52.3979 76.8552C52.1956 76.6863 51.9105 76.6019 51.5426 76.6019C51.3086 76.6019 51.0808 76.6296 50.859 76.6851C50.6373 76.7406 50.4241 76.8238 50.2194 76.9348L50.2194 76.3196C50.4655 76.2255 50.7043 76.1556 50.9358 76.1097C51.1673 76.0615 51.3927 76.0373 51.612 76.0373C52.2042 76.0373 52.6464 76.1893 52.9389 76.4933C53.2313 76.7973 53.3775 77.2581 53.3775 77.8757M57.3763 76.2545L57.3763 76.8841C57.1862 76.7876 56.9889 76.7153 56.7842 76.667C56.5795 76.6188 56.3675 76.5946 56.1482 76.5946C55.8143 76.5946 55.5633 76.6453 55.3952 76.7466C55.2295 76.848 55.1466 77 55.1466 77.2026C55.1466 77.357 55.2063 77.4788 55.3257 77.5681C55.4451 77.655 55.6852 77.7382 56.0458 77.8178L56.2761 77.8685C56.7537 77.9698 57.0924 78.1133 57.2922 78.2991C57.4945 78.4825 57.5956 78.7394 57.5956 79.0699C57.5956 79.4463 57.4445 79.7442 57.1424 79.9638C56.8426 80.1833 56.4296 80.2931 55.9033 80.2931C55.6839 80.2931 55.4549 80.2714 55.2161 80.228C54.9797 80.1869 54.7299 80.1242 54.4668 80.0398L54.4668 79.3522C54.7153 79.4801 54.9602 79.5766 55.2014 79.6417C55.4427 79.7044 55.6815 79.7358 55.9179 79.7358C56.2347 79.7358 56.4783 79.6827 56.6489 79.5766C56.8195 79.468 56.9048 79.316 56.9048 79.1206C56.9048 78.9396 56.8426 78.8009 56.7184 78.7044C56.5965 78.6079 56.3273 78.515 55.9106 78.4258L55.6766 78.3715C55.2599 78.2846 54.959 78.1519 54.7738 77.9734C54.5886 77.7925 54.496 77.5452 54.496 77.2316C54.496 76.8504 54.6325 76.556 54.9054 76.3486C55.1783 76.1411 55.5658 76.0373 56.0677 76.0373C56.3163 76.0373 56.5502 76.0554 56.7695 76.0916C56.9889 76.1278 57.1911 76.1821 57.3763 76.2545M62.172 77.9951L62.172 78.3208L59.0797 78.3208C59.1089 78.7792 59.2478 79.129 59.4963 79.3703C59.7473 79.6091 60.0958 79.7286 60.5417 79.7286C60.8 79.7286 61.0498 79.6972 61.2911 79.6345C61.5347 79.5717 61.776 79.4776 62.0148 79.3522L62.0148 79.9819C61.7736 80.0832 61.5262 80.1604 61.2728 80.2135C61.0194 80.2666 60.7623 80.2931 60.5015 80.2931C59.8485 80.2931 59.3306 80.1049 58.9481 79.7286C58.5679 79.3522 58.3778 78.8431 58.3778 78.2014C58.3778 77.538 58.5582 77.012 58.9188 76.6236C59.2819 76.2328 59.7705 76.0373 60.3846 76.0373C60.9353 76.0373 61.3703 76.2135 61.6895 76.5657C62.0111 76.9155 62.172 77.392 62.172 77.9951M61.4994 77.7997C61.4945 77.4354 61.391 77.1447 61.1887 76.9276C60.9889 76.7104 60.7233 76.6019 60.3919 76.6019C60.0166 76.6019 59.7157 76.7068 59.489 76.9167C59.2648 77.1266 59.1357 77.4222 59.1016 77.8033L61.4994 77.7997M63.2759 74.5572L63.9484 74.5572L63.9484 80.1881L63.2759 80.1881L63.2759 74.5572M65.352 74.5572L66.0246 74.5572L66.0246 80.1881L65.352 80.1881L65.352 74.5572M67.3587 78.5886L67.3587 76.135L68.0313 76.135L68.0313 78.5633C68.0313 78.9469 68.1068 79.2352 68.2579 79.4282C68.409 79.6188 68.6356 79.7141 68.9378 79.7141C69.3009 79.7141 69.5872 79.5995 69.7968 79.3703C70.0088 79.1411 70.1148 78.8287 70.1148 78.433L70.1148 76.135L70.7874 76.135L70.7874 80.1881L70.1148 80.1881L70.1148 79.5657C69.9515 79.8118 69.7614 79.9951 69.5446 80.1158C69.3301 80.234 69.0804 80.2931 68.7953 80.2931C68.3249 80.2931 67.968 80.1483 67.7243 79.8588C67.4806 79.5693 67.3587 79.1459 67.3587 78.5886M74.7898 76.2545L74.7898 76.8841C74.5998 76.7876 74.4024 76.7153 74.1977 76.667C73.993 76.6188 73.781 76.5946 73.5617 76.5946C73.2278 76.5946 72.9768 76.6453 72.8087 76.7466C72.643 76.848 72.5601 77 72.5601 77.2026C72.5601 77.357 72.6198 77.4788 72.7392 77.5681C72.8587 77.655 73.0987 77.7382 73.4593 77.8178L73.6896 77.8685C74.1672 77.9698 74.5059 78.1133 74.7058 78.2991C74.908 78.4825 75.0091 78.7394 75.0091 79.0699C75.0091 79.4463 74.8581 79.7442 74.5559 79.9638C74.2562 80.1833 73.8431 80.2931 73.3168 80.2931C73.0975 80.2931 72.8684 80.2714 72.6296 80.228C72.3932 80.1869 72.1434 80.1242 71.8803 80.0398L71.8803 79.3522C72.1288 79.4801 72.3737 79.5766 72.615 79.6417C72.8562 79.7044 73.095 79.7358 73.3314 79.7358C73.6482 79.7358 73.8919 79.6827 74.0624 79.5766C74.233 79.468 74.3183 79.316 74.3183 79.1206C74.3183 78.9396 74.2562 78.8009 74.1319 78.7044C74.01 78.6079 73.7408 78.515 73.3241 78.4258L73.0901 78.3715C72.6735 78.2846 72.3725 78.1519 72.1873 77.9734C72.0021 77.7925 71.9095 77.5452 71.9095 77.2316C71.9095 76.8504 72.046 76.556 72.3189 76.3486C72.5918 76.1411 72.9793 76.0373 73.4813 76.0373C73.7298 76.0373 73.9637 76.0554 74.1831 76.0916C74.4024 76.1278 74.6046 76.1821 74.7898 76.2545M81.87 77.7418L81.87 80.1881L81.1975 80.1881L81.1975 77.7635C81.1975 77.3799 81.1219 77.0928 80.9708 76.9022C80.8197 76.7117 80.5931 76.6164 80.2909 76.6164C79.9279 76.6164 79.6415 76.731 79.432 76.9601C79.2224 77.1893 79.1176 77.5018 79.1176 77.8974L79.1176 80.1881L78.4414 80.1881L78.4414 74.5572L79.1176 74.5572L79.1176 76.7647C79.2785 76.5211 79.4673 76.3389 79.6842 76.2183C79.9035 76.0977 80.1557 76.0373 80.4408 76.0373C80.9111 76.0373 81.2669 76.1821 81.5081 76.4716C81.7494 76.7587 81.87 77.1821 81.87 77.7418M86.7205 77.9951L86.7205 78.3208L83.6282 78.3208C83.6574 78.7792 83.7963 79.129 84.0449 79.3703C84.2959 79.6091 84.6443 79.7286 85.0903 79.7286C85.3486 79.7286 85.5983 79.6972 85.8396 79.6345C86.0833 79.5717 86.3245 79.4776 86.5633 79.3522L86.5633 79.9819C86.3221 80.0832 86.0747 80.1604 85.8213 80.2135C85.5679 80.2666 85.3108 80.2931 85.0501 80.2931C84.397 80.2931 83.8792 80.1049 83.4966 79.7286C83.1164 79.3522 82.9264 78.8431 82.9264 78.2014C82.9264 77.538 83.1067 77.012 83.4674 76.6236C83.8304 76.2328 84.319 76.0373 84.9331 76.0373C85.4838 76.0373 85.9188 76.2135 86.238 76.5657C86.5597 76.9155 86.7205 77.392 86.7205 77.9951M86.0479 77.7997C86.0431 77.4354 85.9395 77.1447 85.7373 76.9276C85.5374 76.7104 85.2718 76.6019 84.9404 76.6019C84.5651 76.6019 84.2642 76.7068 84.0376 76.9167C83.8134 77.1266 83.6842 77.4222 83.6501 77.8033L86.0479 77.7997M87.4845 77.8612L89.4546 77.8612L89.4546 78.4547L87.4845 78.4547L87.4845 77.8612M27.8457 96.2703L27.8457 98.7166L27.1731 98.7166L27.1731 96.292C27.1731 95.9084 27.0976 95.6213 26.9465 95.4307C26.7954 95.2401 26.5688 95.1448 26.2666 95.1448C25.9036 95.1448 25.6172 95.2594 25.4077 95.4886C25.1981 95.7178 25.0933 96.0302 25.0933 96.4259L25.0933 98.7166L24.4171 98.7166L24.4171 94.6635L25.0933 94.6635L25.0933 95.2932C25.2541 95.0495 25.443 94.8674 25.6599 94.7467C25.8792 94.6261 26.1314 94.5658 26.4165 94.5658C26.8868 94.5658 27.2426 94.7106 27.4838 95.0001C27.7251 95.2872 27.8457 95.7106 27.8457 96.2703M31.8884 95.2787L31.8884 93.0857L32.5609 93.0857L32.5609 98.7166L31.8884 98.7166L31.8884 98.1087C31.747 98.3499 31.5679 98.5296 31.3511 98.6479C31.1366 98.7637 30.8783 98.8216 30.5762 98.8216C30.0815 98.8216 29.6782 98.6261 29.3663 98.2353C29.0568 97.8445 28.9021 97.3306 28.9021 96.6937C28.9021 96.0568 29.0568 95.5429 29.3663 95.1521C29.6782 94.7612 30.0815 94.5658 30.5762 94.5658C30.8783 94.5658 31.1366 94.6249 31.3511 94.7431C31.5679 94.8589 31.747 95.0375 31.8884 95.2787M29.5966 96.6937C29.5966 97.1834 29.6977 97.5682 29.8999 97.8481C30.1046 98.1255 30.3849 98.2643 30.7406 98.2643C31.0964 98.2643 31.3767 98.1255 31.5813 97.8481C31.786 97.5682 31.8884 97.1834 31.8884 96.6937C31.8884 96.2039 31.786 95.8203 31.5813 95.5429C31.3767 95.263 31.0964 95.1231 30.7406 95.1231C30.3849 95.1231 30.1046 95.263 29.8999 95.5429C29.6977 95.8203 29.5966 96.2039 29.5966 96.6937M36.3185 95.286C36.243 95.2425 36.1601 95.2112 36.07 95.1919C35.9822 95.1702 35.8848 95.1593 35.7776 95.1593C35.3974 95.1593 35.105 95.2823 34.9003 95.5284C34.698 95.7721 34.5969 96.1231 34.5969 96.5815L34.5969 98.7166L33.9207 98.7166L33.9207 94.6635L34.5969 94.6635L34.5969 95.2932C34.7382 95.0471 34.9222 94.865 35.1489 94.7467C35.3755 94.6261 35.6508 94.5658 35.9749 94.5658C36.0212 94.5658 36.0724 94.5694 36.1285 94.5767C36.1845 94.5815 36.2466 94.5899 36.3149 94.602L36.3185 95.286M40.3685 96.5236L40.3685 96.8493L37.2762 96.8493C37.3054 97.3077 37.4443 97.6575 37.6929 97.8988C37.9439 98.1376 38.2923 98.257 38.7383 98.257C38.9966 98.257 39.2464 98.2257 39.4876 98.1629C39.7313 98.1002 39.9725 98.0061 40.2113 97.8807L40.2113 98.5103C39.9701 98.6117 39.7228 98.6889 39.4693 98.742C39.2159 98.795 38.9588 98.8216 38.6981 98.8216C38.045 98.8216 37.5272 98.6334 37.1446 98.257C36.7645 97.8807 36.5744 97.3716 36.5744 96.7299C36.5744 96.0664 36.7547 95.5405 37.1154 95.1521C37.4785 94.7612 37.967 94.5658 38.5811 94.5658C39.1318 94.5658 39.5668 94.7419 39.886 95.0942C40.2077 95.444 40.3685 95.9205 40.3685 96.5236M39.696 96.3282C39.6911 95.9639 39.5875 95.6732 39.3853 95.456C39.1854 95.2389 38.9198 95.1304 38.5884 95.1303C38.2132 95.1304 37.9122 95.2353 37.6856 95.4452C37.4614 95.6551 37.3322 95.9506 37.2981 96.3318L39.696 96.3282M43.8446 95.286C43.7691 95.2425 43.6863 95.2112 43.5961 95.1919C43.5084 95.1702 43.4109 95.1593 43.3037 95.1593C42.9235 95.1593 42.6311 95.2823 42.4264 95.5284C42.2242 95.7721 42.123 96.1231 42.123 96.5815L42.123 98.7166L41.4468 98.7166L41.4468 94.6635L42.123 94.6635L42.123 95.2932C42.2644 95.0471 42.4483 94.865 42.675 94.7467C42.9016 94.6261 43.177 94.5658 43.5011 94.5658C43.5474 94.5658 43.5985 94.5694 43.6546 94.5767C43.7106 94.5815 43.7728 94.5899 43.841 94.602L43.8446 95.286M44.5574 94.6635L45.23 94.6635L45.23 98.7166L44.5574 98.7166L44.5574 94.6635M44.5574 93.0857L45.23 93.0857L45.23 93.9289L44.5574 93.9289L44.5574 93.0857M47.2988 93.5127L47.2988 94.6635L48.6842 94.6635L48.6842 95.181L47.2988 95.181L47.2988 97.3813C47.2988 97.7118 47.3439 97.9241 47.4341 98.0182C47.5267 98.1123 47.7131 98.1593 47.9933 98.1593L48.6842 98.1593L48.6842 98.7166L47.9933 98.7166C47.4743 98.7166 47.1161 98.6213 46.9187 98.4307C46.7213 98.2377 46.6226 97.8879 46.6226 97.3813L46.6226 95.181L46.1292 95.181L46.1292 94.6635L46.6226 94.6635L46.6226 93.5127L47.2988 93.5127M49.6674 97.7974L50.4387 97.7974L50.4387 98.7166L49.6674 98.7166L49.6674 97.7974M54.3681 93.3137L55.3623 93.3137L57.782 97.8336L57.782 93.3137L58.4985 93.3137L58.4985 98.7166L57.5042 98.7166L55.0845 94.1967L55.0845 98.7166L54.3681 98.7166L54.3681 93.3137M61.7991 96.6792C61.2557 96.6792 60.8792 96.7407 60.6697 96.8638C60.4601 96.9868 60.3553 97.1967 60.3553 97.4934C60.3553 97.7299 60.4333 97.9181 60.5893 98.058C60.7477 98.1955 60.9621 98.2643 61.2326 98.2643C61.6054 98.2643 61.9039 98.134 62.1281 97.8734C62.3547 97.6105 62.468 97.2618 62.468 96.8276L62.468 96.6792L61.7991 96.6792M63.1406 96.4042L63.1406 98.7166L62.468 98.7166L62.468 98.1014C62.3145 98.3475 62.1232 98.5296 61.8942 98.6479C61.6651 98.7637 61.3849 98.8216 61.0535 98.8216C60.6343 98.8216 60.3005 98.7058 60.0519 98.4742C59.8058 98.2401 59.6828 97.9277 59.6828 97.5369C59.6828 97.0809 59.8363 96.7371 60.1433 96.5055C60.4528 96.2739 60.9134 96.1581 61.525 96.1581L62.468 96.1581L62.468 96.093C62.468 95.7866 62.3657 95.5501 62.161 95.3837C61.9588 95.2148 61.6736 95.1304 61.3057 95.1303C61.0717 95.1304 60.8439 95.1581 60.6222 95.2136C60.4004 95.2691 60.1872 95.3523 59.9825 95.4633L59.9825 94.8481C60.2286 94.754 60.4674 94.684 60.6989 94.6382C60.9304 94.5899 61.1558 94.5658 61.3751 94.5658C61.9673 94.5658 62.4096 94.7178 62.702 95.0218C62.9944 95.3258 63.1406 95.7866 63.1406 96.4042M67.717 95.4416C67.8851 95.1424 68.0861 94.9217 68.3201 94.7793C68.554 94.637 68.8294 94.5658 69.1462 94.5658C69.5726 94.5658 69.9016 94.7142 70.1331 95.0109C70.3646 95.3053 70.4803 95.725 70.4803 96.2703L70.4803 98.7166L69.8041 98.7166L69.8041 96.292C69.8041 95.9036 69.7346 95.6153 69.5958 95.4271C69.4568 95.2389 69.2448 95.1448 68.9597 95.1448C68.6113 95.1448 68.3359 95.2594 68.1337 95.4886C67.9314 95.7178 67.8303 96.0302 67.8303 96.4259L67.8303 98.7166L67.1541 98.7166L67.1541 96.292C67.1541 95.9012 67.0846 95.6129 66.9457 95.4271C66.8068 95.2389 66.5924 95.1448 66.3024 95.1448C65.9588 95.1448 65.6859 95.2606 65.4836 95.4922C65.2814 95.7214 65.1802 96.0326 65.1802 96.4259L65.1802 98.7166L64.504 98.7166L64.504 94.6635L65.1802 94.6635L65.1802 95.2932C65.3337 95.0447 65.5177 94.8613 65.7322 94.7431C65.9466 94.6249 66.2013 94.5658 66.4961 94.5658C66.7934 94.5658 67.0456 94.6406 67.2527 94.7902C67.4623 94.9398 67.617 95.1569 67.717 95.4416M77.1548 94.8191L77.1548 95.4416C76.9647 95.3378 76.7734 95.2606 76.5809 95.21C76.3908 95.1569 76.1983 95.1304 76.0034 95.1303C75.5672 95.1304 75.2285 95.2679 74.9872 95.5429C74.746 95.8155 74.6253 96.1991 74.6253 96.6937C74.6253 97.1883 74.746 97.5731 74.9872 97.8481C75.2285 98.1207 75.5672 98.257 76.0034 98.257C76.1983 98.257 76.3908 98.2317 76.5809 98.181C76.7734 98.128 76.9647 98.0495 77.1548 97.9458L77.1548 98.561C76.9671 98.6479 76.7722 98.713 76.5699 98.7564C76.3701 98.7999 76.1569 98.8216 75.9303 98.8216C75.3137 98.8216 74.8239 98.6298 74.4609 98.2462C74.0978 97.8626 73.9162 97.3451 73.9162 96.6937C73.9162 96.0326 74.099 95.5127 74.4645 95.134C74.8325 94.7552 75.3357 94.5658 75.9741 94.5658C76.1812 94.5658 76.3835 94.5875 76.5809 94.6309C76.7783 94.672 76.9696 94.7347 77.1548 94.8191"  />
      <path id="path6222" fill="url(#defitem405)" d="M67.7427 113.245C67.7427 113.245 78.8911 103.968 84.0376 98.8216C89.1842 93.675 98.4611 82.5266 98.4611 82.5266C98.4611 82.5266 86.143 91.3357 76.5517 91.3357C76.5517 100.927 67.7427 113.245 67.7427 113.245Z"  />
    </g>
    <path id="path7753" fill="url(#defitem406)" stroke-width="0.97036" d="M118.992 14.347C117.996 14.303 117.166 14.943 116.405 15.304C112.354 18.893 95.4752 36.3156 95.0568 36.8156L78.2955 56.8631L78.192 56.9757L68.7967 74.0864L91.6958 68.9807L120.751 33.9999L124.234 29.8328C124.862 28.6685 125.436 22.251 122.544 17.444C121.134 15.1 119.987 14.39 118.992 14.347ZM124.234 29.8328C124.208 29.8805 124.191 29.9723 124.165 30.0017C124.152 30.016 125.613 28.9834 124.82 29.157L124.234 29.8328Z"  fill-rule="evenodd" />
    <g id="g25115">
      <path id="path3180" fill="#bf0000" stroke-width="0.668655" d="M111.537 6.861C112.132 6.19 116.048 6.509 120.216 10.293C124.425 14.114 125.272 17.811 124.526 18.652C124.04 19.2 123.555 19.748 123.069 20.295C118.74 16.365 114.41 12.434 110.08 8.504C110.566 7.956 111.051 7.409 111.537 6.861C111.537 6.861 111.537 6.861 111.537 6.861"  fill-rule="evenodd" />
      <path id="path3299" fill="#b3915d" stroke="#000000" stroke-width="0" d="M59.0725 80.329L78.7194 71.1819L78.8108 71.0773L65.9351 59.157L65.8112 59.2986L59.0725 80.329Z"  fill-rule="evenodd" />
      <path id="path2247" fill="url(#defitem407)" stroke="#000000" stroke-width="0" d="M60.0461 79.3739L78.3715 70.8539L78.4628 70.7494L66.283 59.4849L66.1591 59.6265L60.0461 79.3739Z"  fill-rule="evenodd" />
      <path id="rect2192" fill="url(#defitem408)" stroke-width="0.334328" stroke-linecap="round" stroke-linejoin="round" d="M71.8459 65.7202C73.446 67.1768 74.5197 67.186 75.0916 67.7066C75.184 67.7908 75.2617 67.8895 75.3282 67.9897L118.645 18.243L112.357 12.518L68.9574 62.3593C69.1658 62.4141 69.3609 62.4899 69.5418 62.6546C70.0646 63.1305 70.2384 64.2569 71.8459 65.7202Z"  />
      <path id="path2233" fill="#000000" stroke-width="0.334328" stroke-linecap="round" stroke-linejoin="round" d="M76.7513 65.8905L75.053 67.8328C75.5758 68.348 75.4719 69.2549 76.4328 70.1297C77.4685 71.0724 78.0147 70.5746 78.6857 71.182L80.4046 69.2161L76.7513 65.8905Z"  />
      <path id="rect2190" fill="url(#defitem409)" stroke-width="0.334328" stroke-linecap="round" stroke-linejoin="round" d="M118.415 18.034L75.1315 67.743C75.6571 68.2607 75.6336 69.0796 76.5995 69.9588C77.6404 70.9064 78.1085 70.4986 78.7829 71.1092L122.087 21.376L118.415 18.034Z"  />
      <path id="path2231" fill="#242424" stroke-width="0.334328" stroke-linecap="round" stroke-linejoin="round" d="M70.3679 61.7115L69.4967 62.7079L69.4633 62.7444C69.8975 63.1521 69.8473 64.0933 71.2859 65.5205L71.3657 65.5932L71.9347 66.1111L72.0146 66.1838C73.5829 67.4939 74.4858 67.3164 75.0577 67.8371L75.9773 66.7737L70.3679 61.7115Z"  />
      <path id="path2229" fill="#121212" stroke-width="0.334328" stroke-linecap="round" stroke-linejoin="round" d="M66.723 58.3746L65.8101 59.3016C65.8301 59.3197 65.7585 59.4032 65.7786 59.4215C66.1891 59.7951 66.1792 60.7492 66.9332 61.5581L67.003 61.6217L67.3125 61.9034L67.3524 61.9397C68.2507 62.6399 69.0043 62.3896 69.4633 62.7444L70.3763 61.7002L66.723 58.3746Z"  />
      <path id="rect1315" fill="url(#defitem410)" stroke-width="0.334328" stroke-linecap="round" stroke-linejoin="round" d="M67.3218 61.5767C68.3234 62.4784 69.0085 62.1691 69.5418 62.6546L112.826 12.945L109.115 9.567L65.8101 59.2999C65.8305 59.3183 65.8505 59.3366 65.871 59.3552C66.2879 59.7348 66.3126 60.6681 67.3218 61.5767Z"  />
      <path fill="url(#defitem411)" stroke-width="0.668942" stroke-linecap="round" stroke-linejoin="round" d="M108.761 9.999L111.508 6.92L124.502 18.698L121.755 21.777L108.761 9.999Z"  />
      <path id="path5963" fill="url(#defitem412)" stroke-width="0.45443" stroke-linecap="round" stroke-linejoin="round" d="M103.328 20.665C102.425 19.844 93.7384 28.2655 83.9263 39.4744C74.1141 50.6833 66.8918 60.4352 67.7948 61.2559"  />
      <path id="path3321" fill="url(#defitem413)" stroke-width="0.329816" stroke-linecap="round" stroke-linejoin="round" d="M112.907 12.283C112.623 12.025 102.552 23.139 90.3495 37.178C78.1465 51.217 68.3787 62.9259 68.4705 63.4047C68.5624 63.8834 78.4795 52.9529 90.6839 38.9214C102.888 24.89 112.812 13.009 112.912 12.31"  />
      <path id="path2265" fill="url(#defitem414)" stroke-width="0" d="M67.5343 76.4314C65.6956 75.6763 63.1974 72.612 61.918 71.5035L59.0718 80.3238L67.5343 76.4314Z"  fill-rule="evenodd" />
      <path id="path3233" fill="url(#defitem415)" stroke-width="0.668655" d="M118.92 9.452C121.611 11.546 123.534 14.436 123.64 14.714C123.746 14.991 121.13 11.758 118.906 10.277C116.7 8.808 113.617 8.771 113.389 8.592C113.161 8.413 111.62 6.77 113.018 6.831C114.48 6.894 116.841 7.836 118.92 9.452Z"  fill-rule="evenodd" />
      <path id="path5045" fill="url(#defitem416)" stroke-width="0.334328" stroke-linecap="round" stroke-linejoin="round" d="M115.016 10.068L112.324 13.191L118.615 18.89L121.306 15.798L115.016 10.068Z"  />
      <path fill="url(#defitem417)" stroke-width="0" stroke-linecap="round" stroke-linejoin="round" d="M114.527 11.057L115.626 9.817L121.227 14.901L120.127 16.141L114.527 11.057Z"  />
      <path fill="url(#defitem418)" stroke-width="0" stroke-linecap="round" stroke-linejoin="round" d="M110.994 7.307L111.861 6.586L115.464 10.322L114.597 11.043L110.994 7.307Z"  />
      <path fill="url(#defitem419)" stroke-width="0" stroke-linecap="round" stroke-linejoin="round" d="M124.39 19.3L125.056 18.386L121.159 14.965L120.493 15.878L124.39 19.3Z"  />
    </g>
  </g>
</svg>
