<?xml version="1.0" standalone="no"?>
<!DOCTYPE svg PUBLIC "-//W3C//DTD SVG 20010904//EN" "http://www.w3.org/TR/2001/REC-SVG-20010904/DTD/svg10.dtd">
<!-- Created using Karbon14, part of koffice: http://www.koffice.org/karbon -->
<svg xmlns="http://www.w3.org/2000/svg" xmlns:xlink="http://www.w3.org/1999/xlink" width="128px" height="128px">
  <defs>
    <radialGradient id="defitem108" gradientUnits="userSpaceOnUse" cx="59.2287" cy="116.013" fx="-6.72324" fy="43.3977" r="90.2373" >
      <stop stop-color="#f2f2f2" offset="0" stop-opacity="1" />
      <stop stop-color="#c3c3c3" offset="1" stop-opacity="1" />
    </radialGradient>
    <radialGradient id="defitem109" gradientUnits="userSpaceOnUse" cx="58.3575" cy="114.942" fx="-5.25581" fy="44.816" r="87.0375" >
      <stop stop-color="#525456" offset="0" stop-opacity="1" />
      <stop stop-color="#89898c" offset="0.113661" stop-opacity="1" />
      <stop stop-color="#ebebeb" offset="0.202967" stop-opacity="1" />
      <stop stop-color="#f9f9f9" offset="0.2363" stop-opacity="1" />
      <stop stop-color="#ffffff" offset="0.2722" stop-opacity="1" />
      <stop stop-color="#f9f9f9" offset="0.5313" stop-opacity="1" />
      <stop stop-color="#ebebeb" offset="0.8449" stop-opacity="1" />
      <stop stop-color="#e1e2e2" offset="1" stop-opacity="1" />
    </radialGradient>
    <linearGradient id="defitem110" gradientUnits="userSpaceOnUse" x1="55.3492" y1="110.643" x2="50.1766" y2="105.47" >
      <stop stop-color="#878985" offset="0" stop-opacity="1" />
      <stop stop-color="#8c8e89" offset="0.0072" stop-opacity="1" />
      <stop stop-color="#aaaca8" offset="0.0673" stop-opacity="1" />
      <stop stop-color="#c4c6c3" offset="0.1347" stop-opacity="1" />
      <stop stop-color="#dbdbda" offset="0.265258" stop-opacity="1" />
      <stop stop-color="#ebebeb" offset="0.376461" stop-opacity="1" />
      <stop stop-color="#f6f6f6" offset="0.487403" stop-opacity="1" />
      <stop stop-color="#fdfdfd" offset="0.632409" stop-opacity="1" />
      <stop stop-color="#ffffff" offset="1" stop-opacity="1" />
    </linearGradient>
    <radialGradient id="defitem111" gradientUnits="userSpaceOnUse" cx="21.7697" cy="91.4692" fx="23.2116" fy="89.1472" r="2.85919" >
      <stop stop-color="#505050" offset="0" stop-opacity="1" />
      <stop stop-color="#000000" offset="1" stop-opacity="1" />
    </radialGradient>
    <linearGradient id="defitem112" gradientUnits="userSpaceOnUse" x1="18.9815" y1="65.8109" x2="23.4593" y2="66.4022" >
      <stop stop-color="#544412" offset="0" stop-opacity="1" />
      <stop stop-color="#b59e69" offset="1" stop-opacity="1" />
    </linearGradient>
    <radialGradient id="defitem113" gradientUnits="userSpaceOnUse" cx="20.7938" cy="66.7373" fx="19.6298" fy="65.9179" r="2.3532" >
      <stop stop-color="#b3932a" offset="0" stop-opacity="1" />
      <stop stop-color="#e4dbc8" offset="1" stop-opacity="1" />
    </radialGradient>
    <radialGradient id="defitem114" gradientUnits="userSpaceOnUse" cx="19.6459" cy="76.1921" fx="19.6459" fy="76.1921" r="1.70802" >
      <stop stop-color="#ffffff" offset="0" stop-opacity="1" />
      <stop stop-color="#ffffff" offset="1" stop-opacity="0" />
    </radialGradient>
    <linearGradient id="defitem115" gradientUnits="userSpaceOnUse" x1="24.1426" y1="104.339" x2="20.6782" y2="103.934" >
      <stop stop-color="#ffffff" offset="0" stop-opacity="1" />
      <stop stop-color="#ffffff" offset="1" stop-opacity="0" />
    </linearGradient>
    <radialGradient id="defitem116" gradientUnits="userSpaceOnUse" cx="22.1124" cy="103.581" fx="22.7987" fy="103.832" r="1.64181" >
      <stop stop-color="#ffffff" offset="0" stop-opacity="1" />
      <stop stop-color="#aeaeae" offset="1" stop-opacity="1" />
    </radialGradient>
    <linearGradient id="defitem117" gradientUnits="userSpaceOnUse" x1="21.0174" y1="75.0709" x2="21.0936" y2="78.4943" >
      <stop stop-color="#ffffff" offset="0" stop-opacity="1" />
      <stop stop-color="#ffffff" offset="1" stop-opacity="0" />
    </linearGradient>
    <linearGradient id="defitem118" gradientUnits="userSpaceOnUse" x1="20.2093" y1="72.2063" x2="21.0054" y2="69.4543" >
      <stop stop-color="#000000" offset="0" stop-opacity="1" />
      <stop stop-color="#000000" offset="1" stop-opacity="0" />
    </linearGradient>
    <radialGradient id="defitem119" gradientUnits="userSpaceOnUse" cx="21.2081" cy="71.9748" fx="21.8497" fy="72.2086" r="1.53474" >
      <stop stop-color="#ffffff" offset="0" stop-opacity="1" />
      <stop stop-color="#aeaeae" offset="1" stop-opacity="1" />
    </radialGradient>
    <radialGradient id="defitem120" gradientUnits="userSpaceOnUse" cx="21.2438" cy="73.4584" fx="21.8696" fy="73.6586" r="1.56145" >
      <stop stop-color="#ffffff" offset="0" stop-opacity="1" />
      <stop stop-color="#aeaeae" offset="1" stop-opacity="1" />
    </radialGradient>
    <radialGradient id="defitem121" gradientUnits="userSpaceOnUse" cx="21.2804" cy="74.9607" fx="21.684" fy="75.2003" r="1.61505" >
      <stop stop-color="#ffffff" offset="0" stop-opacity="1" />
      <stop stop-color="#aeaeae" offset="1" stop-opacity="1" />
    </radialGradient>
    <radialGradient id="defitem122" gradientUnits="userSpaceOnUse" cx="21.3164" cy="76.4576" fx="21.5868" fy="76.6323" r="1.64195" >
      <stop stop-color="#ffffff" offset="0" stop-opacity="1" />
      <stop stop-color="#aeaeae" offset="1" stop-opacity="1" />
    </radialGradient>
    <linearGradient id="defitem123" gradientUnits="userSpaceOnUse" x1="16.3194" y1="73.5097" x2="20.473" y2="74.7102" >
      <stop stop-color="#c3c3c3" offset="0" stop-opacity="1" />
      <stop stop-color="#757575" offset="1" stop-opacity="1" />
    </linearGradient>
    <linearGradient id="defitem124" gradientUnits="userSpaceOnUse" x1="35.6549" y1="62.8351" x2="35.6584" y2="60.6075" >
      <stop stop-color="#878787" offset="0" stop-opacity="1" />
      <stop stop-color="#878787" offset="1" stop-opacity="0" />
    </linearGradient>
    <linearGradient id="defitem125" gradientUnits="userSpaceOnUse" x1="39.1652" y1="91.4068" x2="30.4429" y2="87.9989" >
      <stop stop-color="#dddddd" offset="0" stop-opacity="1" />
      <stop stop-color="#ededed" offset="1" stop-opacity="1" />
    </linearGradient>
    <linearGradient id="defitem126" gradientUnits="userSpaceOnUse" x1="33.4479" y1="66.4309" x2="37.0233" y2="83.7418" >
      <stop stop-color="#ededed" offset="0" stop-opacity="1" />
      <stop stop-color="#dfdfdf" offset="1" stop-opacity="1" />
    </linearGradient>
    <linearGradient id="defitem127" gradientUnits="userSpaceOnUse" x1="30.5912" y1="60.7016" x2="30.9454" y2="61.0678" >
      <stop stop-color="#000000" offset="0" stop-opacity="1" />
      <stop stop-color="#000000" offset="1" stop-opacity="0" />
    </linearGradient>
    <linearGradient id="defitem128" gradientUnits="userSpaceOnUse" x1="32.1417" y1="76.3986" x2="23.5891" y2="67.846" >
      <stop stop-color="#bf0202" offset="0" stop-opacity="1" />
      <stop stop-color="#e20800" offset="1" stop-opacity="1" />
    </linearGradient>
    <linearGradient id="defitem129" gradientUnits="userSpaceOnUse" x1="39.052" y1="60.6935" x2="38.61" y2="61.1475" >
      <stop stop-color="#000000" offset="0" stop-opacity="1" />
      <stop stop-color="#000000" offset="1" stop-opacity="0" />
    </linearGradient>
    <linearGradient id="defitem130" gradientUnits="userSpaceOnUse" x1="39.4057" y1="80.7063" x2="30.4979" y2="71.7985" >
      <stop stop-color="#bf0202" offset="0" stop-opacity="1" />
      <stop stop-color="#e20800" offset="1" stop-opacity="1" />
    </linearGradient>
    <radialGradient id="defitem131" gradientUnits="userSpaceOnUse" cx="29.17" cy="55.6124" fx="29.17" fy="55.6124" r="47.3332" >
      <stop stop-color="#ffffff" offset="0" stop-opacity="1" />
      <stop stop-color="#ffffff" offset="1" stop-opacity="0" />
    </radialGradient>
    <linearGradient id="defitem132" gradientUnits="userSpaceOnUse" x1="40.5383" y1="90.6609" x2="40.1536" y2="90.6652" >
      <stop stop-color="#000000" offset="0" stop-opacity="1" />
      <stop stop-color="#000000" offset="1" stop-opacity="0" />
    </linearGradient>
    <linearGradient id="defitem133" gradientUnits="userSpaceOnUse" x1="32.7727" y1="92.475" x2="32.7984" y2="91.9655" >
      <stop stop-color="#000000" offset="0" stop-opacity="1" />
      <stop stop-color="#000000" offset="1" stop-opacity="0" />
    </linearGradient>
    <linearGradient id="defitem134" gradientUnits="userSpaceOnUse" x1="38.5078" y1="60.5392" x2="38.4821" y2="61.1929" >
      <stop stop-color="#000000" offset="0" stop-opacity="1" />
      <stop stop-color="#000000" offset="1" stop-opacity="0" />
    </linearGradient>
    <linearGradient id="defitem135" gradientUnits="userSpaceOnUse" x1="29.9048" y1="63.0298" x2="29.9958" y2="62.3009" >
      <stop stop-color="#ffffff" offset="0" stop-opacity="1" />
      <stop stop-color="#ffffff" offset="1" stop-opacity="0" />
    </linearGradient>
    <linearGradient id="defitem136" gradientUnits="userSpaceOnUse" x1="35.308" y1="86.4185" x2="35.308" y2="87.0709" >
      <stop stop-color="#000000" offset="0" stop-opacity="1" />
      <stop stop-color="#000000" offset="1" stop-opacity="0" />
    </linearGradient>
    <radialGradient id="defitem137" gradientUnits="userSpaceOnUse" cx="11.3632" cy="72.7044" fx="11.3632" fy="72.7044" r="2.64469" >
      <stop stop-color="#b3932a" offset="0" stop-opacity="1" />
      <stop stop-color="#e4dbc8" offset="1" stop-opacity="1" />
    </radialGradient>
    <radialGradient id="defitem138" gradientUnits="userSpaceOnUse" cx="9.90232" cy="88.3912" fx="9.90232" fy="88.3912" r="2.42749" >
      <stop stop-color="#242424" offset="0" stop-opacity="1" />
      <stop stop-color="#242424" offset="0.5" stop-opacity="1" />
      <stop stop-color="#242424" offset="0.75" stop-opacity="1" />
      <stop stop-color="#000000" offset="1" stop-opacity="1" />
    </radialGradient>
    <radialGradient id="defitem139" gradientUnits="userSpaceOnUse" cx="10.8809" cy="93.6855" fx="10.2789" fy="114.848" r="1.51575" >
      <stop stop-color="#9a7500" offset="0" stop-opacity="1" />
      <stop stop-color="#e2ac00" offset="0.0929204" stop-opacity="1" />
      <stop stop-color="#ffcd2b" offset="0.504317" stop-opacity="1" />
      <stop stop-color="#e2ac00" offset="0.915714" stop-opacity="1" />
      <stop stop-color="#b88c00" offset="1" stop-opacity="1" />
    </radialGradient>
    <linearGradient id="defitem140" gradientUnits="userSpaceOnUse" x1="7.60885" y1="94.0461" x2="9.22303" y2="94.0546" >
      <stop stop-color="#9a7500" offset="0" stop-opacity="1" />
      <stop stop-color="#e2ac00" offset="0.0929204" stop-opacity="1" />
      <stop stop-color="#ffcd2b" offset="0.504317" stop-opacity="1" />
      <stop stop-color="#e2ac00" offset="0.915714" stop-opacity="1" />
      <stop stop-color="#b88c00" offset="1" stop-opacity="1" />
    </linearGradient>
    <radialGradient id="defitem141" gradientUnits="userSpaceOnUse" cx="8.31633" cy="98.2579" fx="8.31633" fy="98.2579" r="17.1602" >
      <stop stop-color="#ffffff" offset="0" stop-opacity="0.683453" />
      <stop stop-color="#ffffff" offset="1" stop-opacity="0" />
    </radialGradient>
    <radialGradient id="defitem142" gradientUnits="userSpaceOnUse" cx="9.07075" cy="94.042" fx="9.07075" fy="94.042" r="21.5006" >
      <stop stop-color="#ffffff" offset="0" stop-opacity="1" />
      <stop stop-color="#ffffff" offset="1" stop-opacity="0" />
    </radialGradient>
    <radialGradient id="defitem143" gradientUnits="userSpaceOnUse" cx="10.1089" cy="111.571" fx="9.02099" fy="111.993" r="2.62776" >
      <stop stop-color="#ffffff" offset="0" stop-opacity="1" />
      <stop stop-color="#aeaeae" offset="1" stop-opacity="1" />
    </radialGradient>
    <radialGradient id="defitem144" gradientUnits="userSpaceOnUse" cx="10.0703" cy="115.437" fx="10.0703" fy="115.437" r="1.14013" >
      <stop stop-color="#ffffff" offset="0" stop-opacity="1" />
      <stop stop-color="#242424" offset="1" stop-opacity="0" />
    </radialGradient>
    <linearGradient id="defitem145" gradientUnits="userSpaceOnUse" x1="8.4452" y1="114.757" x2="10.8836" y2="117.058" >
      <stop stop-color="#ffff00" offset="0" stop-opacity="1" />
      <stop stop-color="#ffb66d" offset="1" stop-opacity="1" />
    </linearGradient>
    <linearGradient id="defitem146" gradientUnits="userSpaceOnUse" x1="8.20274" y1="88.6857" x2="16.6487" y2="80.9668" >
      <stop stop-color="#b3932a" offset="0" stop-opacity="1" />
      <stop stop-color="#e4dbc8" offset="1" stop-opacity="1" />
    </linearGradient>
    <radialGradient id="defitem147" gradientUnits="userSpaceOnUse" cx="-1.20377" cy="69.4877" fx="-1.20377" fy="69.4877" r="23.1539" >
      <stop stop-color="#ffffff" offset="0" stop-opacity="1" />
      <stop stop-color="#ffffff" offset="1" stop-opacity="0" />
    </radialGradient>
    <radialGradient id="defitem148" gradientUnits="userSpaceOnUse" cx="12.0037" cy="115.5" fx="12.0037" fy="115.5" r="0.781912" >
      <stop stop-color="#ffffff" offset="0" stop-opacity="1" />
      <stop stop-color="#242424" offset="1" stop-opacity="0" />
    </radialGradient>
    <radialGradient id="defitem149" gradientUnits="userSpaceOnUse" cx="64" cy="122.812" fx="64" fy="122.812" r="64" >
      <stop stop-color="#000000" offset="0" stop-opacity="1" />
      <stop stop-color="#000000" offset="1" stop-opacity="0" />
    </radialGradient>
    <radialGradient id="defitem150" gradientUnits="userSpaceOnUse" cx="113.097" cy="99.1721" fx="22.5655" fy="-0.506" r="123.868" >
      <stop stop-color="#f2f2f2" offset="0" stop-opacity="1" />
      <stop stop-color="#c3c3c3" offset="1" stop-opacity="1" />
    </radialGradient>
    <radialGradient id="defitem151" gradientUnits="userSpaceOnUse" cx="111.901" cy="97.7026" fx="24.5798" fy="1.441" r="119.476" >
      <stop stop-color="#525456" offset="0" stop-opacity="1" />
      <stop stop-color="#89898c" offset="0.113661" stop-opacity="1" />
      <stop stop-color="#ebebeb" offset="0.202967" stop-opacity="1" />
      <stop stop-color="#f9f9f9" offset="0.2363" stop-opacity="1" />
      <stop stop-color="#ffffff" offset="0.2722" stop-opacity="1" />
      <stop stop-color="#f9f9f9" offset="0.5313" stop-opacity="1" />
      <stop stop-color="#ebebeb" offset="0.8449" stop-opacity="1" />
      <stop stop-color="#e1e2e2" offset="1" stop-opacity="1" />
    </radialGradient>
    <linearGradient id="defitem152" gradientUnits="userSpaceOnUse" x1="33.9695" y1="62.0271" x2="67.4877" y2="24.244" >
      <stop stop-color="#1f670d" offset="0" stop-opacity="1" />
      <stop stop-color="#26b511" offset="0.508346" stop-opacity="1" />
      <stop stop-color="#0e6908" offset="1" stop-opacity="1" />
    </linearGradient>
    <linearGradient id="defitem153" gradientUnits="userSpaceOnUse" x1="107.772" y1="91.8011" x2="100.672" y2="84.7008" >
      <stop stop-color="#878985" offset="0" stop-opacity="1" />
      <stop stop-color="#8c8e89" offset="0.0072" stop-opacity="1" />
      <stop stop-color="#aaaca8" offset="0.0673" stop-opacity="1" />
      <stop stop-color="#c4c6c3" offset="0.1347" stop-opacity="1" />
      <stop stop-color="#dbdbda" offset="0.265258" stop-opacity="1" />
      <stop stop-color="#ebebeb" offset="0.376461" stop-opacity="1" />
      <stop stop-color="#f6f6f6" offset="0.487403" stop-opacity="1" />
      <stop stop-color="#fdfdfd" offset="0.632409" stop-opacity="1" />
      <stop stop-color="#ffffff" offset="1" stop-opacity="1" />
    </linearGradient>
    <linearGradient id="defitem154" gradientUnits="userSpaceOnUse" x1="40.5538" y1="87.27" x2="80.0838" y2="81.0074" >
      <stop stop-color="#000000" offset="0" stop-opacity="1" />
      <stop stop-color="#000000" offset="1" stop-opacity="0" />
    </linearGradient>
    <linearGradient id="defitem155" gradientUnits="userSpaceOnUse" x1="32.6083" y1="88.5364" x2="14.9837" y2="109.539" >
      <stop stop-color="#ffdd00" offset="0" stop-opacity="1" />
      <stop stop-color="#ffeb69" offset="1" stop-opacity="1" />
    </linearGradient>
  </defs>
  <g id="Layer">
    <g id="g61986">
      <path id="path6210" fill="none" stroke="#000000" stroke-width="6.89693" stroke-linejoin="round" d="M3.62217 48.5704L3.62217 119.695C3.62217 120.409 4.20151 120.988 4.91534 120.988L43.1752 120.988C43.5179 120.988 43.847 120.852 44.0895 120.609L65.3157 99.3831C65.5582 99.1406 65.6946 98.8115 65.6946 98.4688L65.6946 48.5704L3.62217 48.5704Z"  />
      <path id="path6212" fill="none" stroke="#000000" stroke-width="5.1727" stroke-linejoin="round" d="M3.62217 48.5704L3.62217 119.695C3.62217 120.409 4.20151 120.988 4.91534 120.988L43.1752 120.988C43.5179 120.988 43.847 120.852 44.0895 120.609L65.3157 99.3831C65.5582 99.1406 65.6946 98.8115 65.6946 98.4688L65.6946 48.5704L3.62217 48.5704Z"  />
      <path id="path6214" fill="none" stroke="#000000" stroke-width="3.44847" stroke-linejoin="round" d="M3.62217 48.5704L3.62217 119.695C3.62217 120.409 4.20151 120.988 4.91534 120.988L43.1752 120.988C43.5179 120.988 43.847 120.852 44.0895 120.609L65.3157 99.3831C65.5582 99.1406 65.6946 98.8115 65.6946 98.4688L65.6946 48.5704L3.62217 48.5704Z"  />
      <path id="path6216" fill="none" stroke="#000000" stroke-width="1.72423" stroke-linejoin="round" d="M3.62217 48.5704L3.62217 119.695C3.62217 120.409 4.20151 120.988 4.91534 120.988L43.1752 120.988C43.5179 120.988 43.847 120.852 44.0895 120.609L65.3157 99.3831C65.5582 99.1406 65.6946 98.8115 65.6946 98.4688L65.6946 48.5704L3.62217 48.5704Z"  />
      <path id="path6218" fill="url(#defitem108)" stroke-width="0.690991" d="M3.62217 48.5704L3.62217 119.695C3.62217 120.409 4.20151 120.988 4.91534 120.988L43.1752 120.988C43.5179 120.988 43.847 120.852 44.0895 120.609L65.3157 99.3831C65.5582 99.1406 65.6946 98.8115 65.6946 98.4688L65.6946 48.5704L3.62217 48.5704Z"  />
      <path id="path6220" fill="url(#defitem109)" stroke-width="0.690991" d="M5.97006 50.4358C5.62643 50.4358 5.3464 50.7162 5.3464 51.0603L5.3464 118.498C5.3464 118.843 5.62643 119.123 5.97006 119.123L42.8732 119.123C43.0372 119.123 43.1981 119.057 43.3141 118.94L63.7876 98.4411C63.9042 98.3243 63.9703 98.1639 63.9703 97.9996L63.9703 51.0603C63.9703 50.7162 63.691 50.4358 63.3467 50.4358L5.97006 50.4358Z"  />
      <path id="path6222" fill="url(#defitem110)" stroke-width="0.690991" d="M44.0895 120.609C44.0895 120.609 51.793 114.199 55.3492 110.643C58.9055 107.087 65.3157 99.3831 65.3157 99.3831C65.3157 99.3831 56.804 105.47 50.1765 105.47C50.1765 112.098 44.0895 120.609 44.0895 120.609Z"  />
      <path fill="#008200" stroke-width="1.86568" stroke-linecap="round" stroke-linejoin="round" d="M6.78653 60.2014C5.97177 60.2014 5.31051 59.5402 5.31051 58.7254L5.31051 51.8736C5.31051 51.0588 5.97177 50.3976 6.78653 50.3976L62.6349 50.3976C63.4497 50.3976 64.111 51.0588 64.111 51.8736L64.111 58.7254C64.111 59.5402 63.4497 60.2014 62.6349 60.2014L6.78653 60.2014Z"  />
    </g>
    <g id="g4863">
      <path id="path4865" fill="url(#defitem111)" stroke="#000000" stroke-width="0.369313" d="M22.3677 74.9049C22.8787 78.5304 23.7225 80.3239 23.9007 85.7812C24.0788 91.2386 23.5676 100.36 23.4364 107.649C23.428 108.113 22.9287 108.599 22.29 108.62C21.627 108.642 21.1176 108.141 21.0828 107.726C20.4742 100.461 19.3717 91.3922 19.1936 85.9349C19.0154 80.4775 19.7406 78.6328 20.0141 74.9818C20.7986 74.9562 21.5831 74.9305 22.3677 74.9049Z"  fill-rule="evenodd" />
      <path id="path4867" fill="url(#defitem112)" stroke="#000000" stroke-width="0" stroke-linecap="round" stroke-linejoin="round" d="M20.3315 71.4559C19.8233 69.9204 18.7763 68.7157 18.8069 66.8496C18.8501 64.2142 22.0066 60.6166 24.784 60.5899C22.9606 62.5681 23.2612 64.9171 22.9009 67.4397C22.668 69.0708 22.06 70.4353 22.0905 71.4106C21.5042 71.4257 20.9178 71.4408 20.3315 71.4559Z"  fill-rule="evenodd" />
      <path id="path4869" fill="url(#defitem113)" stroke="#000000" stroke-width="0" stroke-linecap="round" stroke-linejoin="round" d="M20.6347 71.1648C20.2027 70.0741 19.4384 68.1505 19.3719 66.8578C19.278 65.0322 21.7313 61.8582 23.5049 61.5924C22.2472 63.1448 22.5309 65.5684 22.4528 67.3108C22.4252 67.9267 21.7342 70.4943 21.8018 71.1723C21.3878 71.1529 21.0488 71.1842 20.6347 71.1648Z"  fill-rule="evenodd" />
      <path id="path4871" fill="url(#defitem114)" stroke-width="0.112412" d="M22.3677 74.9049C22.8787 78.5304 23.7225 80.3239 23.9007 85.7812C24.0788 91.2386 23.5676 100.36 23.4364 107.649C23.428 108.113 22.9287 108.599 22.29 108.62C21.627 108.642 21.1176 108.141 21.0828 107.726C20.4742 100.461 19.3717 91.3922 19.1936 85.9349C19.0154 80.4775 19.7406 78.6328 20.0141 74.9818C20.7986 74.9562 21.5831 74.9305 22.3677 74.9049Z"  fill-rule="evenodd" />
      <path id="path4873" fill="url(#defitem115)" stroke-width="0.112412" d="M23.2712 108.13C23.3758 107.985 23.4248 107.814 23.4277 107.654C23.5075 103.221 23.8727 93.9473 23.7879 89.3096C23.3276 89.8971 22.7201 90.7352 22.5052 91.8979C22.0976 94.1028 22.6637 105.488 22.5803 107.057C22.5279 108.042 21.7258 107.856 21.3123 108.197C21.5283 108.443 21.8751 108.642 22.2895 108.629C22.7087 108.615 23.0715 108.407 23.2712 108.13Z"  fill-rule="evenodd" />
      <path id="path4875" fill="url(#defitem116)" stroke-width="0.149883" stroke-linecap="round" stroke-linejoin="round" d="M23.7064 104.159C23.7981 103.767 23.8467 103.26 23.7445 102.909L21.1005 102.987L21.1441 104.224L23.7064 104.159ZM21.4232 104.217L21.3796 102.98L20.4493 103.003C20.3639 103.339 20.4633 103.828 20.5841 104.235L21.4232 104.217Z"  />
      <path id="path4877" fill="url(#defitem117)" stroke-width="0.112412" d="M22.3677 74.9049C22.8787 78.5304 23.7225 80.3239 23.9007 85.7812C24.0788 91.2386 23.5676 100.36 23.4364 107.649C23.428 108.113 22.9287 108.599 22.29 108.62C21.627 108.642 21.1176 108.141 21.0828 107.726C20.4742 100.461 19.3717 91.3922 19.1936 85.9349C19.0154 80.4775 19.7406 78.6328 20.0141 74.9818C20.7986 74.9562 21.5831 74.9305 22.3677 74.9049Z"  fill-rule="evenodd" />
      <path id="path4879" fill="#999999" stroke-width="0.299766" d="M20.6476 96.0265C20.6455 95.9723 20.6333 95.9306 20.6109 95.9013C20.5885 95.8721 20.5581 95.858 20.5196 95.8591C20.4813 95.8601 20.4521 95.8759 20.4321 95.9064C20.412 95.9368 20.403 95.9792 20.4051 96.0334C20.4072 96.0879 20.4195 96.1297 20.4418 96.159C20.4642 96.1883 20.4945 96.2024 20.5328 96.2013C20.5713 96.2002 20.6006 96.1844 20.6207 96.154C20.6407 96.1235 20.6497 96.081 20.6476 96.0265M20.7158 96.0246C20.7201 96.1355 20.7067 96.2228 20.6755 96.2865C20.6443 96.3503 20.5991 96.383 20.5399 96.3847C20.4809 96.3863 20.4333 96.3562 20.3973 96.2944C20.3613 96.2325 20.3412 96.1461 20.3369 96.0353C20.3326 95.9247 20.3461 95.8374 20.3772 95.7734C20.4084 95.7096 20.4535 95.6769 20.5125 95.6752C20.5717 95.6736 20.6194 95.7037 20.6554 95.7655C20.6914 95.8277 20.7116 95.9141 20.7158 96.0246M20.5628 96.8695L20.3856 97.114L20.3785 96.9288L20.497 96.7641L20.3661 96.6078L20.3589 96.4217L20.5545 96.6557L20.7245 96.4206L20.7317 96.6063L20.6198 96.7606L20.7433 96.9079L20.7505 97.0945L20.5628 96.8695M20.7513 97.1139L20.7588 97.3083L20.6347 97.469L20.7709 97.6224L20.7784 97.8173L20.5569 97.5604L20.403 97.5648L20.3961 97.387L20.55 97.3826L20.7513 97.1139M20.4671 98.5228C20.454 98.4788 20.4437 98.433 20.4361 98.3855C20.4286 98.3379 20.4238 98.2887 20.4219 98.2379C20.4174 98.1231 20.4309 98.0316 20.4622 97.9635C20.4937 97.8954 20.5386 97.8606 20.5968 97.8589C20.6557 97.8573 20.7033 97.8901 20.7397 97.9576C20.7761 98.025 20.7966 98.1181 20.8012 98.2369C20.803 98.2828 20.8024 98.3268 20.7994 98.3688C20.7965 98.4111 20.7913 98.451 20.7837 98.4885L20.7081 98.4906C20.7182 98.4518 20.7254 98.4132 20.7296 98.3749C20.7339 98.3369 20.7353 98.2988 20.7338 98.2606C20.7311 98.1898 20.7184 98.1354 20.6959 98.0975C20.6735 98.0599 20.6429 98.0417 20.6039 98.0428C20.5652 98.0438 20.5361 98.0632 20.5165 98.1007C20.4969 98.1382 20.4884 98.191 20.491 98.2591C20.4917 98.2776 20.493 98.2946 20.4947 98.3103C20.4966 98.3263 20.4991 98.3405 20.5022 98.3531L20.5732 98.3511L20.569 98.2426L20.6321 98.2408L20.6428 98.5179L20.4671 98.5228M20.8113 98.6694L20.8298 99.1493L20.7586 99.1513L20.747 98.8493L20.6789 98.8512L20.6899 99.1352L20.6187 99.1372L20.6077 98.8532L20.5241 98.8555L20.5361 99.1678L20.4649 99.1698L20.446 98.6797L20.8113 98.6694M20.8362 99.316L20.8439 99.5146L20.6031 99.7725L20.8536 99.7654L20.8601 99.934L20.4948 99.9443L20.4872 99.7457L20.728 99.4879L20.4775 99.4949L20.471 99.3263L20.8362 99.316M20.8794 100.436L20.8871 100.634L20.6463 100.892L20.8968 100.885L20.9033 101.054L20.538 101.064L20.5304 100.865L20.7712 100.607L20.5207 100.614L20.5142 100.446L20.8794 100.436M20.9235 101.406C20.926 101.472 20.919 101.524 20.9023 101.562C20.8857 101.601 20.8619 101.621 20.8309 101.622C20.7999 101.622 20.7747 101.604 20.7553 101.567C20.7359 101.529 20.7249 101.478 20.7224 101.412C20.7199 101.346 20.7268 101.294 20.7433 101.255C20.7598 101.217 20.7835 101.197 20.8145 101.196C20.8455 101.195 20.8708 101.213 20.8903 101.251C20.9099 101.289 20.921 101.34 20.9235 101.406M20.6845 101.222L20.6991 101.603L20.6502 101.604L20.6355 101.224L20.6845 101.222M20.8819 101.407C20.8809 101.382 20.875 101.362 20.8642 101.348C20.8534 101.334 20.8385 101.328 20.8196 101.328C20.8007 101.329 20.7864 101.336 20.7768 101.35C20.7673 101.365 20.763 101.385 20.764 101.411C20.765 101.436 20.7708 101.456 20.7814 101.469C20.7921 101.483 20.8069 101.49 20.8258 101.489C20.8447 101.489 20.859 101.481 20.8688 101.467C20.8785 101.453 20.8829 101.433 20.8819 101.407M20.7885 102.446C20.7839 102.492 20.7742 102.528 20.7593 102.552C20.7446 102.577 20.7251 102.59 20.7008 102.591C20.6646 102.592 20.636 102.566 20.6151 102.514C20.5943 102.463 20.582 102.386 20.5781 102.286C20.5767 102.251 20.5769 102.215 20.5786 102.179C20.5802 102.144 20.5833 102.109 20.588 102.074L20.6607 102.072C20.6531 102.105 20.6477 102.138 20.6444 102.171C20.6413 102.204 20.6403 102.237 20.6416 102.268C20.6434 102.315 20.6491 102.351 20.6587 102.376C20.6683 102.401 20.6812 102.413 20.6973 102.413C20.714 102.412 20.726 102.399 20.7335 102.373C20.7412 102.347 20.744 102.309 20.7421 102.259L20.7394 102.188L20.8 102.186L20.8029 102.261C20.8046 102.305 20.8096 102.339 20.8178 102.36C20.8261 102.382 20.8379 102.393 20.853 102.392C20.8671 102.392 20.8775 102.381 20.8844 102.359C20.8912 102.338 20.8939 102.308 20.8924 102.269C20.8913 102.24 20.8884 102.212 20.8839 102.182C20.8793 102.153 20.8732 102.124 20.8654 102.095L20.9343 102.094C20.9409 102.128 20.9462 102.163 20.9501 102.198C20.9541 102.232 20.9567 102.266 20.958 102.299C20.9614 102.389 20.9562 102.456 20.9422 102.501C20.9284 102.546 20.9059 102.569 20.8746 102.57C20.8532 102.57 20.8353 102.56 20.8208 102.539C20.8064 102.518 20.7957 102.487 20.7885 102.446"  />
      <path id="path4881" fill="url(#defitem118)" stroke="#000000" stroke-width="0" stroke-linecap="round" stroke-linejoin="round" d="M20.3315 71.4559C19.8233 69.9204 18.7763 68.7157 18.8069 66.8496C18.8501 64.2142 22.9091 65.2246 22.6372 67.7583C22.4553 69.4524 22.06 70.4353 22.0905 71.4106C21.5042 71.4257 20.9178 71.4408 20.3315 71.4559Z"  fill-rule="evenodd" />
      <g id="g4883">
        <path id="path4885" fill="url(#defitem119)" stroke-width="0.149883" stroke-linecap="round" stroke-linejoin="round" d="M22.6665 71.1833C22.7722 71.6612 22.8433 72.2821 22.7659 72.7188L20.2937 72.7563L20.2713 71.2325L22.6665 71.1833ZM20.5322 71.227L20.5546 72.7508L19.685 72.7692C19.5881 72.36 19.6559 71.7535 19.7479 71.2464L20.5322 71.227Z"  />
        <path id="path4887" fill="url(#defitem120)" stroke-width="0.149883" stroke-linecap="round" stroke-linejoin="round" d="M22.728 72.6664C22.8354 73.1444 22.9076 73.7652 22.8287 74.2019L20.3133 74.2401L20.291 72.7164L22.728 72.6664ZM20.5565 72.7108L20.5787 74.2345L19.6939 74.2532C19.5955 73.844 19.6647 73.2375 19.7585 72.7304L20.5565 72.7108Z"  />
        <path id="path4889" fill="url(#defitem121)" stroke-width="0.149883" stroke-linecap="round" stroke-linejoin="round" d="M22.8161 74.168C22.9268 74.6459 23.0011 75.2667 22.9191 75.7034L20.3174 75.7429L20.2954 74.2192L22.8161 74.168ZM20.5699 74.2134L20.592 75.7372L19.6767 75.7563C19.5752 75.3472 19.6472 74.7406 19.7445 74.2335L20.5699 74.2134Z"  />
        <path id="path4891" fill="url(#defitem122)" stroke-width="0.149883" stroke-linecap="round" stroke-linejoin="round" d="M22.8777 75.6644C22.9901 76.1423 23.0655 76.7631 22.982 77.1999L20.3371 77.24L20.3152 75.7163L22.8777 75.6644ZM20.5943 75.7105L20.6162 77.2342L19.6858 77.2536C19.5827 76.8445 19.6561 76.2379 19.7552 75.7307L20.5943 75.7105Z"  />
        <path id="path4893" fill="url(#defitem123)" stroke-width="0.149883" stroke-linecap="round" stroke-linejoin="round" d="M22.9814 77.2063C23.0622 76.7831 22.9931 76.1806 22.8866 75.7093L22.9202 75.7058C22.9996 75.2827 22.9303 74.6801 22.8253 74.2088L22.8326 74.2016C22.9083 73.7827 22.8365 73.19 22.7364 72.7209L22.77 72.7174C22.8475 72.2807 22.7704 71.6642 22.6647 71.1862L20.2669 71.2348L19.7461 71.2437C19.6541 71.7508 19.5877 72.3669 19.6846 72.7761L19.7446 72.7763C19.6554 73.2733 19.5991 73.8565 19.6944 74.2529L19.7413 74.2513C19.6455 74.7552 19.5747 75.3536 19.6752 75.7585L19.7484 75.7606C19.6525 76.2611 19.5828 76.8509 19.6837 77.2515L20.3377 77.245L22.9814 77.2063Z"  />
      </g>
    </g>
    <g id="g5304">
      <path id="path5306" fill="#878787" stroke-width="0.047057" stroke-linecap="round" stroke-linejoin="round" d="M29.1937 86.5433L29.1937 92.3163L40.5757 92.3163L40.5757 86.5433L29.1937 86.5433Z"  />
      <path id="path5308" fill="#bababa" stroke-width="0.47057" stroke-linecap="round" stroke-linejoin="round" d="M30.7755 60.6921L28.8462 62.6214L40.8555 62.6759L38.7695 60.5899L30.7755 60.6921Z"  />
      <path id="path5310" fill="#4b4b4b" stroke-width="0.47057" stroke-linecap="round" stroke-linejoin="round" d="M28.887 62.5588L30.7858 60.6601L30.6908 62.9956L28.906 63.0335L28.887 62.5588Z"  />
      <path id="path5312" fill="url(#defitem124)" stroke-width="0.47057" stroke-linecap="round" stroke-linejoin="round" d="M30.7577 60.6878L28.8468 62.5987L40.7612 62.6721L38.6884 60.5993L30.7577 60.6878Z"  />
      <path id="path5314" fill="url(#defitem125)" stroke-width="0.047057" stroke-linecap="round" stroke-linejoin="round" d="M29.1973 86.355L29.1934 92.0619L40.2833 92.0773L40.2872 86.3704L29.1973 86.355Z"  />
      <path id="path5316" fill="url(#defitem126)" stroke-width="0.047057" stroke-linecap="round" stroke-linejoin="round" d="M32.9843 62.6173L32.9844 86.6689L36.7099 86.6689L36.707 62.6433L40.8514 62.6462L40.8514 62.6173L32.9843 62.6173Z"  />
      <path id="path5318" fill="url(#defitem127)" stroke-width="0.047057" stroke-linecap="round" stroke-linejoin="round" d="M29.25 62.9557L30.7739 61.2785L30.7597 60.6936L28.8924 62.6204L29.25 62.9557Z"  />
      <path id="path5320" fill="url(#defitem128)" stroke-width="0.047057" stroke-linecap="round" stroke-linejoin="round" d="M28.8256 62.6173L28.8256 86.6689L32.9844 86.6689L32.9843 62.6173L28.8256 62.6173Z"  />
      <path id="path5322" fill="#ffffff" stroke-width="0.47057" stroke-linecap="round" stroke-linejoin="round" d="M38.9126 62.9575L40.6784 63.0145L40.6974 62.5398L38.7986 60.641L38.9126 62.9575Z"  />
      <path id="path5324" fill="url(#defitem129)" stroke-width="0.047057" stroke-linecap="round" stroke-linejoin="round" d="M40.282 63.0588L38.8325 61.3198L38.7859 60.6428L40.724 62.639L40.282 63.0588Z"  />
      <path id="path5326" fill="url(#defitem130)" stroke-width="0.047057" stroke-linecap="round" stroke-linejoin="round" d="M36.7083 62.6445L36.7083 86.6961L40.8671 86.6961L40.867 62.6445L36.7083 62.6445Z"  />
      <path id="path5328" fill="url(#defitem131)" stroke-width="0.047057" stroke-linecap="round" stroke-linejoin="round" d="M28.8357 62.6274L28.8357 86.679L40.9159 86.7282L40.9159 62.6766L28.8357 62.6274Z"  />
      <path id="path5330" fill="#ffffff" stroke-width="0.047057" stroke-linecap="round" stroke-linejoin="round" d="M28.9722 62.6504L29.0863 86.6134L29.254 86.6173L29.2498 62.8683L40.8477 62.6792L40.8395 62.6689L32.9622 62.6443L28.9722 62.6504Z"  />
      <path id="path5332" fill="#eff8ff" stroke-width="0.47057" d="M40.218 66.854C40.218 66.9466 40.1987 67.0212 40.1601 67.0778C40.1213 67.1341 40.07 67.1624 40.0062 67.1625C39.9421 67.1627 39.8909 67.1346 39.8526 67.0781C39.8141 67.0214 39.7948 66.9456 39.7947 66.8509C39.7947 66.7565 39.8138 66.6808 39.8521 66.6239C39.8904 66.567 39.9415 66.5384 40.0054 66.5383C40.0706 66.5381 40.1224 66.5664 40.1607 66.6232C40.1989 66.6799 40.218 66.7568 40.218 66.854M40.1753 66.8527C40.1752 66.7845 40.1604 66.7317 40.1308 66.6945C40.101 66.6573 40.059 66.6388 40.0049 66.6389C39.9525 66.639 39.9114 66.6579 39.8818 66.6956C39.8523 66.7329 39.8375 66.7847 39.8375 66.8508C39.8375 66.9173 39.8525 66.9691 39.8822 67.0063C39.9118 67.0435 39.9531 67.0621 40.0059 67.062C40.0586 67.0618 40.1 67.0432 40.1301 67.0062C40.1602 66.9691 40.1753 66.918 40.1753 66.8527M40.2078 66.4837L40.0053 66.2627L39.8047 66.4738L39.8046 66.362L39.9565 66.201L39.8045 66.0327L39.8044 65.9434L39.9993 66.1563L40.2076 65.937L40.2076 66.0489L40.0478 66.2188L40.2077 66.3939L40.2078 66.4837M40.2075 65.6813L40.0391 65.6817L39.8044 65.905L39.8044 65.7968L39.9863 65.6232L39.8043 65.4369L39.8042 65.3489L40.038 65.587L40.2074 65.5865L40.2075 65.6813M40.1962 64.7485C40.2102 64.8294 40.2172 64.8999 40.2173 64.96C40.2173 65.0662 40.1991 65.1477 40.1626 65.2046C40.1261 65.2612 40.0739 65.2896 40.0057 65.2898C39.9389 65.2899 39.887 65.2614 39.8499 65.204C39.8127 65.1467 39.794 65.0661 39.794 64.9624C39.794 64.8944 39.8 64.8237 39.8122 64.7503L39.865 64.7502C39.8461 64.8423 39.8367 64.9128 39.8368 64.9618C39.8368 65.034 39.8516 65.09 39.8812 65.13C39.9108 65.1696 39.9525 65.1893 40.0063 65.1892C40.0594 65.1891 40.1009 65.1676 40.1304 65.1249C40.1598 65.0821 40.1745 65.0222 40.1745 64.9452C40.1745 64.9137 40.1711 64.8795 40.1644 64.8429L40.0331 64.8432L40.033 64.7489L40.1962 64.7485M40.207 64.5825L39.8039 64.5835L39.8037 64.2105L39.8465 64.2104L39.8467 64.4886L39.976 64.4883L39.9759 64.2552L40.0181 64.2551L40.0182 64.4882L40.1642 64.4879L40.1641 64.1902L40.2069 64.1901L40.207 64.5825M40.2068 64.0809L39.8037 64.0819L39.8037 63.989L40.1148 63.6522L39.8035 63.653L39.8035 63.5718L40.2066 63.5708L40.2067 63.6633L39.8955 64.0005L40.2068 63.9998L40.2068 64.0809"  />
      <path id="path5334" fill="#00142d" stroke-width="0.047057" stroke-linecap="round" stroke-linejoin="round" d="M40.8586 86.7871L40.8476 63.2378L40.8214 63.2541L40.7034 86.6238L29.8506 86.6639L29.8588 86.6742L40.8586 86.7871Z"  />
      <path id="path5336" fill="#9c0e0e" stroke-width="0.47057" d="M35.6869 82.212L33.8616 82.212L33.8616 80.3365L34.0552 80.3365L34.0552 81.7357L34.6411 81.7357L34.6411 80.5633L34.8322 80.5633L34.8322 81.7357L35.4933 81.7357L35.4933 80.239L35.6869 80.239L35.6869 82.212M35.6869 79.6902L33.8616 79.6902L33.8616 78.6743C33.8616 78.3523 33.9002 78.1058 33.9775 77.935C34.0548 77.7627 34.1671 77.6765 34.3142 77.6765C34.5576 77.6765 34.7303 77.9025 34.8322 78.3545L35.6869 77.2343L35.6869 77.8194L34.9149 78.7741L34.9149 79.2185L35.6869 79.2185L35.6869 79.6902M34.7212 79.2185L34.7212 79.0643C34.7212 78.4657 34.5934 78.1663 34.3377 78.1663C34.1494 78.1663 34.0552 78.4173 34.0552 78.9192L34.0552 79.2185L34.7212 79.2185M34.9889 75.0504L34.202 75.6219L34.9889 76.1956L34.9889 75.0504M35.6869 74.547L35.1813 74.9121L35.1813 76.334L35.6869 76.7036L35.6869 77.1458L33.8616 75.8147L33.8616 75.343L35.6869 74.0322L35.6869 74.547M35.7326 72.8916C35.7326 73.1168 35.7059 73.4048 35.6524 73.7556L35.3959 73.7556C35.4913 73.3776 35.539 73.0669 35.539 72.8235C35.539 72.6361 35.5122 72.4856 35.4588 72.3722C35.4053 72.2573 35.335 72.1999 35.2479 72.1999C35.1763 72.1999 35.1155 72.2377 35.0653 72.3133C35.0152 72.3874 34.9593 72.5249 34.8976 72.726L34.8248 72.9573C34.736 73.2431 34.6526 73.4449 34.5745 73.5628C34.4955 73.6792 34.4039 73.7374 34.2994 73.7374C34.1588 73.7374 34.0433 73.6437 33.9529 73.4562C33.8616 73.2688 33.816 73.0299 33.816 72.7396C33.816 72.4811 33.8394 72.2082 33.8863 71.921L34.1231 71.921C34.0474 72.2747 34.0096 72.5385 34.0096 72.7124C34.0096 72.8772 34.0334 73.0133 34.0811 73.1206C34.1288 73.2279 34.1888 73.2816 34.2612 73.2816C34.3221 73.2816 34.3759 73.2423 34.4228 73.1637C34.4696 73.0851 34.5255 72.9414 34.5905 72.7328L34.6645 72.4924C34.7541 72.2022 34.8388 71.9996 34.9186 71.8847C34.9983 71.7698 35.0941 71.7123 35.2059 71.7123C35.3646 71.7123 35.4921 71.8204 35.5883 72.0366C35.6845 72.2513 35.7326 72.5363 35.7326 72.8916M35.6869 71.0456L33.8616 71.0456L33.8616 69.1702L34.0552 69.1702L34.0552 70.5694L34.6411 70.5694L34.6411 69.397L34.8322 69.397L34.8322 70.5694L35.4933 70.5694L35.4933 69.0727L35.6869 69.0727L35.6869 71.0456M35.6869 68.5239L33.8616 68.5239L33.8616 67.5079C33.8616 67.1859 33.9002 66.9395 33.9775 66.7687C34.0548 66.5963 34.1671 66.5101 34.3142 66.5101C34.5576 66.5101 34.7303 66.7362 34.8322 67.1882L35.6869 66.0679L35.6869 66.653L34.9149 67.6077L34.9149 68.0522L35.6869 68.0522L35.6869 68.5239M34.7212 68.0522L34.7212 67.898C34.7212 67.2993 34.5934 67 34.3377 67C34.1494 67 34.0552 67.2509 34.0552 67.7529L34.0552 68.0522L34.7212 68.0522"  />
      <path id="path5338" fill="url(#defitem132)" stroke-width="0.047057" stroke-linecap="round" stroke-linejoin="round" d="M39.9548 86.7765L39.9517 92.3435L40.5696 92.3437L40.5564 86.7383L39.9548 86.7765Z"  />
      <path id="path5340" fill="url(#defitem133)" stroke-width="0.047057" stroke-linecap="round" stroke-linejoin="round" d="M40.4996 91.8295L29.1675 91.8799L29.1834 92.3558L40.5474 92.3194L40.4996 91.8295Z"  />
      <path id="path5342" fill="url(#defitem134)" stroke-width="0.047057" stroke-linecap="round" stroke-linejoin="round" d="M30.7809 61.347L38.7946 61.2473L38.7786 60.6092L30.7331 60.6948L30.7809 61.347Z"  />
      <path id="path5344" fill="url(#defitem135)" stroke-width="1.88228" stroke-linecap="round" stroke-linejoin="round" d="M29.1931 62.2527L40.5344 62.374L40.8756 62.6711C40.8756 62.6711 40.873 62.9932 40.8831 63.0135L28.8494 63.0185L28.8029 62.597L29.1931 62.2527Z"  />
      <path id="path5346" fill="url(#defitem136)" stroke-width="0.047057" stroke-linecap="round" stroke-linejoin="round" d="M29.2189 86.6564L29.2189 87.0623L40.5908 87.028L40.5908 86.6344L29.2189 86.6564Z"  />
    </g>
    <g id="g4598">
      <path id="path4600" fill="#000000" stroke-width="0.47057" d="M7.41776 115.451C7.41496 115.721 8.3546 116.449 10.0517 116.46C11.7655 116.472 12.7027 115.825 12.7062 115.486C12.7085 115.266 12.7108 115.046 12.7131 114.825C10.9503 114.813 9.18743 114.802 7.42461 114.79C7.42233 115.01 7.42004 115.231 7.41776 115.451C7.41776 115.451 7.41776 115.451 7.41776 115.451"  fill-rule="evenodd" />
      <path id="path4602" fill="#000000" stroke="#000000" stroke-width="0" d="M10.6711 60.5899L13.1839 73.3001L13.183 73.3883L7.89354 73.4464L7.89476 73.3269L10.6711 60.5899Z"  fill-rule="evenodd" />
      <path id="path4604" fill="url(#defitem137)" stroke="#000000" stroke-width="0" d="M10.6936 61.4547L13.0398 73.3044L13.0389 73.3925L8.03765 73.4421L8.03887 73.3227L10.6936 61.4547Z"  fill-rule="evenodd" />
      <path id="path4606" fill="url(#defitem138)" stroke-width="0.235285" stroke-linecap="round" stroke-linejoin="round" d="M10.5436 72.9089C11.1959 72.9133 11.4367 73.3695 11.6699 73.3711C11.7075 73.3714 11.7449 73.3584 11.7801 73.3401L11.3056 115.213L8.74211 115.195L9.21734 73.2434C9.27485 73.3072 9.33369 73.3554 9.40744 73.3559C9.62056 73.3573 9.88826 72.9045 10.5436 72.9089Z"  />
      <path id="path4608" fill="#000000" stroke-width="0.235285" stroke-linecap="round" stroke-linejoin="round" d="M11.67 74.9334L11.6869 73.2955C11.908 73.2785 12.0693 72.8093 12.461 72.8119C12.8832 72.8148 12.9036 73.2822 13.1764 73.2856L13.1592 74.9434L11.67 74.9334Z"  />
      <path id="path4610" fill="url(#defitem139)" stroke-width="0.235285" stroke-linecap="round" stroke-linejoin="round" d="M11.2121 115.212L11.6861 73.3712C11.9084 73.3542 12.0697 72.9608 12.4634 72.9634C12.8878 72.9663 12.909 73.358 13.1833 73.3614L12.709 115.222L11.2121 115.212Z"  />
      <path id="path4612" fill="#242424" stroke-width="0.235285" stroke-linecap="round" stroke-linejoin="round" d="M9.39956 74.1518L9.40826 73.3116L9.40822 73.2802C9.58778 73.2755 9.76795 72.8133 10.3783 72.7622L10.4109 72.7624L10.6428 72.764L10.6754 72.7642C11.2908 72.8236 11.4557 73.2939 11.6888 73.2955L11.6773 74.1878L9.39956 74.1518Z"  />
      <path id="path4614" fill="#121212" stroke-width="0.235285" stroke-linecap="round" stroke-linejoin="round" d="M7.90981 74.1507L7.89512 73.3251C7.90327 73.3251 7.9043 73.2554 7.91251 73.2554C8.07984 73.2566 8.27163 72.8056 8.60391 72.7503L8.63239 72.7505L8.75853 72.7513L8.77481 72.7514C9.11711 72.809 9.23392 73.2494 9.40822 73.2802L9.3991 74.1607L7.90981 74.1507Z"  />
      <path id="path4616" fill="url(#defitem140)" stroke-width="0.235285" stroke-linecap="round" stroke-linejoin="round" d="M8.69418 72.9083C9.10044 72.9158 9.19003 73.3544 9.40744 73.3559L8.93336 115.197L7.4205 115.186L7.89479 73.3259C7.90307 73.326 7.91125 73.326 7.91959 73.326C8.08957 73.3272 8.28483 72.9008 8.69418 72.9083Z"  />
      <path fill="#000000" stroke-width="0.47057" stroke-linecap="round" stroke-linejoin="round" d="M7.4334 114.189L7.42409 115.432L12.7112 115.471L12.7205 114.228L7.4334 114.189Z"  />
      <path id="path4620" fill="url(#defitem141)" stroke-width="0.110034" stroke-linecap="round" stroke-linejoin="round" d="M8.14376 115.381C7.77591 115.378 7.55497 107.709 7.65028 98.2523C7.74558 88.7954 8.12105 81.1315 8.4889 81.1346C8.85675 81.1376 9.07769 88.8065 8.98238 98.2635C8.88707 107.72 8.51161 115.384 8.14376 115.381Z"  />
      <path id="path4622" fill="url(#defitem142)" stroke-width="0.0822287" stroke-linecap="round" stroke-linejoin="round" d="M8.81664 115.541C8.70103 115.541 8.71961 106.017 8.85827 94.2096C8.99692 82.402 9.20374 72.73 9.32153 72.5452C9.43932 72.3605 9.42398 81.7321 9.28718 93.5367C9.15038 105.341 8.94332 115.161 8.82338 115.531"  />
      <path id="path4624" fill="url(#defitem143)" stroke-width="0.235285" stroke-linecap="round" stroke-linejoin="round" d="M7.4504 112.524C7.28802 111.899 7.32148 111.108 7.47091 110.543L11.7043 110.591L11.6838 112.572L7.4504 112.524ZM11.237 112.569L11.2575 110.588L12.7469 110.598C12.8969 111.133 12.9035 111.923 12.7264 112.579L11.237 112.569Z"  />
      <path id="path4626" fill="#000000" stroke-width="0" d="M11.7619 66.0445C11.1991 65.6093 10.0201 65.9724 9.50993 65.9426L10.6699 60.592L11.7619 66.0445Z"  fill-rule="evenodd" />
      <path fill="url(#defitem144)" stroke-width="0" stroke-linecap="round" stroke-linejoin="round" d="M8.93333 115.13L8.92815 115.63L11.2083 115.645L11.2135 115.146L8.93333 115.13Z"  />
      <path id="path4630" fill="url(#defitem145)" stroke-width="0.47057" d="M9.59195 116.382C10.617 116.467 11.6315 116.219 11.7114 116.179C11.7912 116.139 10.5523 116.322 9.75579 116.197C8.96538 116.073 8.26896 115.452 8.18185 115.445C8.09474 115.438 7.41804 115.488 7.74268 115.76C8.08224 116.044 8.8005 116.317 9.59195 116.382Z"  fill-rule="evenodd" />
      <path id="path4632" fill="url(#defitem146)" stroke-width="0.47057" d="M12.0891 92.2415C12.0883 92.3702 12.1129 92.4702 12.1628 92.5416C12.2127 92.613 12.2833 92.6491 12.3747 92.65C12.4657 92.6509 12.5365 92.6161 12.5873 92.5457C12.638 92.4753 12.6638 92.3757 12.6646 92.2471C12.6653 92.1177 12.6408 92.0173 12.5909 91.9459C12.541 91.8745 12.4705 91.8384 12.3795 91.8375C12.2882 91.8366 12.2171 91.8714 12.1664 91.9418C12.1156 92.0122 12.0898 92.1121 12.0891 92.2415M11.927 92.24C11.9286 91.9768 11.9697 91.7711 12.0504 91.6227C12.131 91.4743 12.2416 91.4008 12.3821 91.4022C12.5223 91.4035 12.6318 91.4792 12.7107 91.6291C12.7895 91.7789 12.8282 91.9855 12.8266 92.2486C12.825 92.5111 12.7839 92.7168 12.7033 92.8659C12.6226 93.0143 12.5122 93.0878 12.3721 93.0864C12.2315 93.0851 12.1218 93.0095 12.043 92.8596C11.9641 92.7089 11.9255 92.5024 11.927 92.24M12.3792 90.2508L12.8251 89.687L12.8224 90.1267L12.524 90.5065L12.8179 90.8888L12.8152 91.3307L12.3761 90.7584L11.9483 91.3004L11.951 90.8596L12.2325 90.5037L11.9553 90.1436L11.9579 89.7006L12.3792 90.2508M11.9582 89.6545L11.961 89.1929L12.2721 88.8231L11.9654 88.4473L11.9682 87.9846L12.4662 88.6133L12.8315 88.6168L12.829 89.039L12.4637 89.0355L11.9582 89.6545M12.7807 86.3398C12.8071 86.4454 12.8268 86.5548 12.8397 86.6683C12.8525 86.7817 12.8586 86.8987 12.8579 87.0194C12.8563 87.292 12.8147 87.5076 12.7332 87.6662C12.6514 87.8248 12.5413 87.9034 12.4031 87.9021C12.2633 87.9008 12.1539 87.8186 12.0747 87.6555C11.9955 87.4924 11.9568 87.2698 11.9585 86.9877C11.9591 86.8787 11.9652 86.7746 11.9766 86.6753C11.988 86.5753 12.0047 86.4811 12.0265 86.3929L12.2059 86.3946C12.1779 86.4857 12.1568 86.5765 12.1428 86.667C12.1287 86.7568 12.1213 86.847 12.1208 86.9377C12.1198 87.1058 12.144 87.2358 12.1934 87.3277C12.2424 87.4188 12.3132 87.4648 12.4057 87.4657C12.4975 87.4666 12.5686 87.4234 12.619 87.3362C12.6695 87.2489 12.6952 87.1245 12.6962 86.963C12.6965 86.9191 12.6953 86.8785 12.6929 86.8412C12.69 86.8032 12.6855 86.7691 12.6795 86.7391L12.5111 86.7375L12.5096 86.9952L12.3597 86.9937L12.3637 86.3358L12.7807 86.3398M11.9803 85.9615L11.9871 84.8222L12.1561 84.8238L12.1518 85.5409L12.3133 85.5425L12.3173 84.8681L12.4863 84.8698L12.4823 85.5441L12.6809 85.546L12.6853 84.8048L12.8543 84.8064L12.8473 85.9698L11.9803 85.9615M11.9895 84.4264L11.9923 83.9548L12.5905 83.3652L11.9959 83.3594L11.9983 82.9592L12.8653 82.9676L12.8625 83.4391L12.2642 84.0287L12.8589 84.0345L12.8565 84.4347L11.9895 84.4264M12.0054 81.7684L12.0082 81.2969L12.6064 80.7072L12.0118 80.7015L12.0142 80.3013L12.8812 80.3096L12.8784 80.7811L12.2802 81.3708L12.8748 81.3765L12.8724 81.7767L12.0054 81.7684M12.0035 79.4634C12.0044 79.3077 12.0267 79.1851 12.0702 79.0956C12.1137 79.0053 12.1722 78.9606 12.2458 78.9613C12.3193 78.962 12.3772 79.0075 12.4192 79.0978C12.4613 79.1881 12.4818 79.3115 12.4809 79.468C12.4799 79.6244 12.4579 79.7477 12.4148 79.838C12.3716 79.9275 12.3133 79.9719 12.2397 79.9712C12.1662 79.9705 12.1082 79.9249 12.0658 79.8346C12.0233 79.7435 12.0026 79.6198 12.0035 79.4634M12.5508 79.9204L12.5562 79.018L12.6723 79.0191L12.6669 79.9215L12.5508 79.9204M12.1022 79.4643C12.1019 79.5257 12.1138 79.5734 12.138 79.6072C12.1622 79.6403 12.1967 79.6571 12.2416 79.6576C12.2865 79.658 12.3211 79.6419 12.3453 79.6092C12.3695 79.5758 12.3818 79.5284 12.3821 79.467C12.3825 79.4063 12.3708 79.3594 12.347 79.3263C12.3232 79.2925 12.2888 79.2753 12.2439 79.2749C12.199 79.2744 12.1643 79.2909 12.1397 79.3243C12.1151 79.357 12.1026 79.4036 12.1022 79.4643M12.4334 77.0112C12.4492 76.9009 12.476 76.8175 12.5139 76.7608C12.5514 76.7034 12.599 76.675 12.6567 76.6756C12.7427 76.6764 12.8077 76.7392 12.8519 76.8639C12.8957 76.9886 12.9168 77.1701 12.9154 77.4084C12.9149 77.4924 12.9107 77.5768 12.9029 77.6616C12.8954 77.7456 12.8842 77.8288 12.8694 77.9113L12.697 77.9096C12.7183 77.8309 12.7347 77.7528 12.746 77.6754C12.7569 77.5973 12.7626 77.5206 12.763 77.4453C12.7637 77.3335 12.754 77.2478 12.7338 77.1884C12.7136 77.1283 12.6844 77.098 12.6461 77.0976C12.6066 77.0973 12.5766 77.1277 12.5561 77.1889C12.5352 77.2494 12.5244 77.3392 12.5237 77.4583L12.5227 77.6272L12.3786 77.6258L12.3797 77.4482C12.3803 77.3422 12.3721 77.2632 12.355 77.2111C12.3375 77.159 12.3107 77.1328 12.2747 77.1325C12.2414 77.1321 12.2156 77.1571 12.1971 77.2074C12.1786 77.2576 12.169 77.3288 12.1685 77.4209C12.1681 77.4889 12.1717 77.5577 12.1794 77.6272C12.1872 77.6967 12.1987 77.7659 12.2142 77.8348L12.0504 77.8332C12.0385 77.7498 12.0297 77.6671 12.024 77.5851C12.0183 77.5032 12.0157 77.4227 12.0162 77.3438C12.0175 77.1311 12.037 76.9723 12.0748 76.8674C12.1122 76.7617 12.1681 76.7092 12.2424 76.71C12.2931 76.7105 12.3346 76.7361 12.3668 76.7868C12.3987 76.8376 12.4209 76.9124 12.4334 77.0112"  />
      <path fill="url(#defitem147)" stroke-width="0" stroke-linecap="round" stroke-linejoin="round" d="M7.38668 115.241L7.43483 115.578L8.99582 115.485L8.94767 115.148L7.38668 115.241Z"  />
      <path fill="url(#defitem148)" stroke-width="0" stroke-linecap="round" stroke-linejoin="round" d="M12.8069 115.315L12.771 115.653L11.2077 115.617L11.2436 115.279L12.8069 115.315Z"  />
    </g>
    <g id="layer1">
      <path id="path3945" fill="#000000" d=""  />
    </g>
    <path id="path3081" fill="#000000" d=""  />
    <g id="layer2">
    </g>
    <g id="layer3">
    </g>
    <g id="layer4">
    </g>
    <path id="path2167" fill="#000000" d=""  />
    <g id="g3036">
      <path id="path4922" fill="#000000" d=""  />
    </g>
    <path id="path4924" fill="#000000" d=""  />
    <g id="g4926">
    </g>
    <g id="g4928">
    </g>
    <g id="g4930">
    </g>
    <path id="path10095" fill="#000000" d=""  />
    <path id="path2191" fill="#ffffff" fill-opacity="0.756881" stroke-width="0.5" stroke-linecap="round" stroke-linejoin="round" d="M517.12 -78.822L517.12 -81.617L517.12 -78.822Z"  />
    <path id="path2985" fill="#ffffff" fill-opacity="0.756881" stroke-width="0.5" stroke-linecap="round" stroke-linejoin="round" d="M360.112 -148.458L360.112 -151.252L360.112 -148.458Z"  />
    <path id="path3206" fill="#ffffff" fill-opacity="0.756881" stroke-width="0.5" stroke-linecap="round" stroke-linejoin="round" d="M240.61 -235.088L240.61 -237.883L240.61 -235.088Z"  />
    <g id="g2878">
    </g>
    <g id="g4938">
    </g>
    <path id="path3946" fill="#ffffff" fill-opacity="0.756881" stroke-width="0.5" stroke-linecap="round" stroke-linejoin="round" d="M487.201 -169.333L487.201 -172.127L487.201 -169.333Z"  />
    <path id="path1561" fill="#ffffff" fill-opacity="0.756881" stroke-width="0.5" stroke-linecap="round" stroke-linejoin="round" d="M394.577 -95.439L394.577 -96.966L394.577 -95.439Z"  />
    <path fill="#ffffff" stroke-width="3.632" stroke-linecap="round" stroke-linejoin="round" d="M337.092 -152.039L337.092 -152.039L338.092 -152.039L338.092 -152.039L337.092 -152.039Z"  />
    <path fill="#ffffff" stroke-width="3.632" stroke-linecap="round" stroke-linejoin="round" d="M301.965 -179.567L301.965 -179.567L302.965 -179.567L302.965 -179.567L301.965 -179.567Z"  />
    <path id="path2494" fill="#ffffff" fill-opacity="0.756881" stroke-width="0.5" stroke-linecap="round" stroke-linejoin="round" d="M143.028 -252.783L143.028 -255.577L143.028 -252.783Z"  />
    <g id="g4640">
    </g>
    <g id="g4646">
    </g>
    <g id="g4730">
    </g>
    <g id="g4748">
    </g>
    <g id="g31196">
      <path id="path31198" fill="#000000" d=""  />
    </g>
    <path id="path31200" fill="#000000" d=""  />
    <g id="g31202">
    </g>
    <g id="g31204">
    </g>
    <g id="g31206">
    </g>
    <g id="g8876">
      <path id="path8878" fill="#000000" d=""  />
    </g>
    <path id="path8880" fill="#000000" d=""  />
    <g id="g8882">
    </g>
    <g id="g8884">
    </g>
    <g id="g8886">
    </g>
    <g id="g6011">
      <path id="path6013" fill="#000000" d=""  />
    </g>
    <path id="path6015" fill="#000000" d=""  />
    <g id="g31217">
    </g>
    <g id="g6019">
    </g>
    <g id="g31220">
    </g>
    <path id="path6025" fill="#000000" d=""  />
    <path id="path6028" fill="url(#defitem149)" stroke-width="0" stroke-linecap="round" stroke-linejoin="round" d="M-2.76883e-05 122.812C-2.76883e-05 125.677 28.6538 128 64 128C99.3462 128 128 125.677 128 122.812C128 119.947 99.3462 117.624 64 117.624C28.6538 117.624 -2.76883e-05 119.947 -2.76883e-05 122.812L-2.76883e-05 122.812Z"  />
    <g id="g21865">
      <path id="path21867" fill="#000000" d=""  />
    </g>
    <path id="path21869" fill="#000000" d=""  />
    <g id="g21871">
    </g>
    <g id="g21873">
    </g>
    <g id="g21875">
    </g>
    <g id="g21877">
      <path id="path21879" fill="#000000" d=""  />
    </g>
    <path id="path21881" fill="#000000" d=""  />
    <g id="g21883">
    </g>
    <g id="g21885">
    </g>
    <g id="g21887">
    </g>
    <g id="g21889">
      <path id="path21891" fill="#000000" d=""  />
    </g>
    <path id="path21893" fill="#000000" d=""  />
    <g id="g21895">
    </g>
    <g id="g21897">
    </g>
    <g id="g21899">
    </g>
    <path id="path21901" fill="#000000" d=""  />
    <path id="path1987" fill="#ffffff" fill-opacity="0.756881" stroke-width="0.5" stroke-linecap="round" stroke-linejoin="round" d="M251.078 -223.892L251.078 -226.686L251.078 -223.892Z"  />
    <path id="path1747" fill="#ffffff" fill-opacity="0.756881" stroke-width="0.5" stroke-linecap="round" stroke-linejoin="round" d="M298.874 -339.216L298.874 -342.01L298.874 -339.216Z"  />
    <path fill="#ffffff" stroke-width="3.632" stroke-linecap="round" stroke-linejoin="round" d="M287.727 -311.473L287.727 -311.473L288.727 -311.473L288.727 -311.473L287.727 -311.473Z"  />
    <g id="g15719">
      <path id="path15721" fill="#000000" d=""  />
    </g>
    <path id="path15723" fill="#000000" d=""  />
    <g id="g15725">
    </g>
    <g id="g15727">
    </g>
    <g id="g15729">
    </g>
    <path id="path31261" fill="#000000" d=""  />
    <g id="g31263">
      <path id="path31265" fill="#000000" d=""  />
    </g>
    <path id="path31267" fill="#000000" d=""  />
    <g id="g31269">
    </g>
    <g id="g31271">
    </g>
    <g id="g31273">
    </g>
    <path id="path31275" fill="#000000" d=""  />
    <path id="path31277" fill="#ffffff" fill-opacity="0.756881" stroke-width="0.5" stroke-linecap="round" stroke-linejoin="round" d="M202.287 -34.226L202.287 -37.021L202.287 -34.226Z"  />
    <path id="path31279" fill="#ffffff" fill-opacity="0.756881" stroke-width="0.5" stroke-linecap="round" stroke-linejoin="round" d="M496.897 -96.417L496.897 -99.212L496.897 -96.417Z"  />
    <path id="path31281" fill="#ffffff" fill-opacity="0.756881" stroke-width="0.5" stroke-linecap="round" stroke-linejoin="round" d="M339.888 -166.052L339.888 -168.847L339.888 -166.052Z"  />
    <path id="path31283" fill="#ffffff" fill-opacity="0.756881" stroke-width="0.5" stroke-linecap="round" stroke-linejoin="round" d="M220.386 -252.682L220.386 -255.477L220.386 -252.682Z"  />
    <g id="g31285">
    </g>
    <g id="g31287">
    </g>
    <path id="path31289" fill="#ffffff" fill-opacity="0.756881" stroke-width="0.5" stroke-linecap="round" stroke-linejoin="round" d="M466.977 -186.927L466.977 -189.722L466.977 -186.927Z"  />
    <path id="path31291" fill="#ffffff" fill-opacity="0.756881" stroke-width="0.5" stroke-linecap="round" stroke-linejoin="round" d="M374.353 -113.033L374.353 -114.56L374.353 -113.033Z"  />
    <path fill="#ffffff" stroke-width="3.632" stroke-linecap="round" stroke-linejoin="round" d="M316.868 -169.633L316.868 -169.633L317.868 -169.633L317.868 -169.633L316.868 -169.633Z"  />
    <path fill="#ffffff" stroke-width="3.632" stroke-linecap="round" stroke-linejoin="round" d="M281.741 -197.161L281.741 -197.161L282.741 -197.161L282.741 -197.161L281.741 -197.161Z"  />
    <path id="path31296" fill="#ffffff" fill-opacity="0.756881" stroke-width="0.5" stroke-linecap="round" stroke-linejoin="round" d="M122.804 -270.377L122.804 -273.172L122.804 -270.377Z"  />
    <g id="g31298">
    </g>
    <g id="g31300">
    </g>
    <g id="g31302">
    </g>
    <g id="g31304">
    </g>
    <path id="path31306" fill="#ffffff" fill-opacity="0.756881" stroke-width="0.5" stroke-linecap="round" stroke-linejoin="round" d="M392.019 16.899L392.019 14.105L392.019 16.899Z"  />
    <g id="g44207">
      <path id="path44209" fill="#000000" d=""  />
    </g>
    <path id="path44211" fill="#000000" d=""  />
    <g id="g44213">
    </g>
    <g id="g44215">
    </g>
    <g id="g44217">
    </g>
    <g id="g44219">
      <path id="path44221" fill="#000000" d=""  />
    </g>
    <path id="path44223" fill="#000000" d=""  />
    <g id="g44225">
    </g>
    <g id="g44227">
    </g>
    <g id="g44229">
    </g>
    <g id="g44231">
      <path id="path44233" fill="#000000" d=""  />
    </g>
    <path id="path44235" fill="#000000" d=""  />
    <g id="g6017">
    </g>
    <g id="g44238">
    </g>
    <g id="g6021">
    </g>
    <path id="path44241" fill="#000000" d=""  />
    <g id="g44264">
      <path id="path44266" fill="#000000" d=""  />
    </g>
    <path id="path44268" fill="#000000" d=""  />
    <g id="g44270">
    </g>
    <g id="g44272">
    </g>
    <g id="g44274">
    </g>
    <g id="g44276">
      <path id="path44278" fill="#000000" d=""  />
    </g>
    <path id="path44280" fill="#000000" d=""  />
    <g id="g44282">
    </g>
    <g id="g44284">
    </g>
    <g id="g44286">
    </g>
    <g id="g44288">
      <path id="path44290" fill="#000000" d=""  />
    </g>
    <path id="path44292" fill="#000000" d=""  />
    <g id="g44294">
    </g>
    <g id="g44296">
    </g>
    <g id="g44298">
    </g>
    <path id="path44300" fill="#000000" d=""  />
    <path id="path44302" fill="#ffffff" fill-opacity="0.756881" stroke-width="0.5" stroke-linecap="round" stroke-linejoin="round" d="M115.057 -219.508L115.057 -222.303L115.057 -219.508Z"  />
    <path id="path44304" fill="#ffffff" fill-opacity="0.756881" stroke-width="0.5" stroke-linecap="round" stroke-linejoin="round" d="M162.853 -334.832L162.853 -337.627L162.853 -334.832Z"  />
    <path fill="#ffffff" stroke-width="3.632" stroke-linecap="round" stroke-linejoin="round" d="M151.706 -307.089L151.706 -307.089L152.706 -307.089L152.706 -307.089L151.706 -307.089Z"  />
    <g id="g61149">
      <path id="path61151" fill="#000000" d=""  />
    </g>
    <path id="path61153" fill="#000000" d=""  />
    <g id="g61155">
    </g>
    <g id="g61157">
    </g>
    <g id="g61159">
    </g>
    <g id="g61161">
      <path id="path61163" fill="#000000" d=""  />
    </g>
    <path id="path61165" fill="#000000" d=""  />
    <g id="g61167">
    </g>
    <g id="g61169">
    </g>
    <g id="g61171">
    </g>
    <g id="g61173">
      <path id="path61175" fill="#000000" d=""  />
    </g>
    <path id="path61177" fill="#000000" d=""  />
    <g id="g61179">
    </g>
    <g id="g61181">
    </g>
    <g id="g61183">
    </g>
    <path id="path61185" fill="#000000" d=""  />
    <path id="path61227" fill="#ffffff" fill-opacity="0.756881" stroke-width="0.5" stroke-linecap="round" stroke-linejoin="round" d="M279.395 -242.224L279.395 -245.019L279.395 -242.224Z"  />
    <path id="path61229" fill="#ffffff" fill-opacity="0.756881" stroke-width="0.5" stroke-linecap="round" stroke-linejoin="round" d="M327.191 -357.548L327.191 -360.343L327.191 -357.548Z"  />
    <path fill="#ffffff" stroke-width="3.632" stroke-linecap="round" stroke-linejoin="round" d="M316.044 -329.805L316.044 -329.805L317.044 -329.805L317.044 -329.805L316.044 -329.805Z"  />
    <g id="g72497">
      <path id="path72499" fill="#000000" d=""  />
    </g>
    <path id="path72501" fill="#000000" d=""  />
    <g id="g72503">
    </g>
    <g id="g72505">
    </g>
    <g id="g72507">
    </g>
    <path id="path72509" fill="#000000" d=""  />
    <g id="g72511">
      <path id="path72513" fill="#000000" d=""  />
    </g>
    <path id="path72515" fill="#000000" d=""  />
    <g id="g72517">
    </g>
    <g id="g72519">
    </g>
    <g id="g72521">
    </g>
    <path id="path72523" fill="#000000" d=""  />
    <path id="path72525" fill="#ffffff" fill-opacity="0.756881" stroke-width="0.5" stroke-linecap="round" stroke-linejoin="round" d="M492.404 -86.557L492.404 -89.352L492.404 -86.557Z"  />
    <path id="path72527" fill="#ffffff" fill-opacity="0.756881" stroke-width="0.5" stroke-linecap="round" stroke-linejoin="round" d="M335.396 -156.192L335.396 -158.987L335.396 -156.192Z"  />
    <path id="path72529" fill="#ffffff" fill-opacity="0.756881" stroke-width="0.5" stroke-linecap="round" stroke-linejoin="round" d="M215.894 -242.822L215.894 -245.617L215.894 -242.822Z"  />
    <g id="g72531">
    </g>
    <g id="g72533">
    </g>
    <path id="path72535" fill="#ffffff" fill-opacity="0.756881" stroke-width="0.5" stroke-linecap="round" stroke-linejoin="round" d="M462.485 -177.067L462.485 -179.862L462.485 -177.067Z"  />
    <path id="path72537" fill="#ffffff" fill-opacity="0.756881" stroke-width="0.5" stroke-linecap="round" stroke-linejoin="round" d="M369.861 -103.174L369.861 -104.7L369.861 -103.174Z"  />
    <path fill="#ffffff" stroke-width="3.632" stroke-linecap="round" stroke-linejoin="round" d="M312.376 -159.774L312.376 -159.774L313.376 -159.774L313.376 -159.774L312.376 -159.774Z"  />
    <path fill="#ffffff" stroke-width="3.632" stroke-linecap="round" stroke-linejoin="round" d="M277.249 -187.301L277.249 -187.301L278.249 -187.301L278.249 -187.301L277.249 -187.301Z"  />
    <path id="path72543" fill="#ffffff" fill-opacity="0.756881" stroke-width="0.5" stroke-linecap="round" stroke-linejoin="round" d="M118.312 -260.517L118.312 -263.312L118.312 -260.517Z"  />
    <g id="g72545">
    </g>
    <g id="g72547">
    </g>
    <g id="g72549">
    </g>
    <g id="g72551">
    </g>
    <g id="g12948">
      <path id="path12950" fill="#000000" d=""  />
    </g>
    <path id="path12952" fill="#000000" d=""  />
    <g id="g12954">
    </g>
    <g id="g12956">
    </g>
    <g id="g12958">
    </g>
    <path id="path12983" fill="#000000" d=""  />
    <g id="g12985">
      <path id="path12987" fill="#000000" d=""  />
    </g>
    <path id="path12989" fill="#000000" d=""  />
    <g id="g12991">
    </g>
    <g id="g12993">
    </g>
    <g id="g12995">
    </g>
    <path id="path12997" fill="#000000" d=""  />
    <path id="path13001" fill="#ffffff" fill-opacity="0.756881" stroke-width="0.5" stroke-linecap="round" stroke-linejoin="round" d="M635.374 -98.653L635.374 -101.448L635.374 -98.653Z"  />
    <path id="path13003" fill="#ffffff" fill-opacity="0.756881" stroke-width="0.5" stroke-linecap="round" stroke-linejoin="round" d="M478.366 -168.288L478.366 -171.083L478.366 -168.288Z"  />
    <path id="path13005" fill="#ffffff" fill-opacity="0.756881" stroke-width="0.5" stroke-linecap="round" stroke-linejoin="round" d="M358.863 -254.918L358.863 -257.713L358.863 -254.918Z"  />
    <g id="g13007">
    </g>
    <g id="g13009">
    </g>
    <path id="path13011" fill="#ffffff" fill-opacity="0.756881" stroke-width="0.5" stroke-linecap="round" stroke-linejoin="round" d="M605.455 -189.163L605.455 -191.958L605.455 -189.163Z"  />
    <path id="path13013" fill="#ffffff" fill-opacity="0.756881" stroke-width="0.5" stroke-linecap="round" stroke-linejoin="round" d="M512.83 -115.269L512.83 -116.796L512.83 -115.269Z"  />
    <path fill="#ffffff" stroke-width="3.632" stroke-linecap="round" stroke-linejoin="round" d="M455.346 -171.869L455.346 -171.869L456.346 -171.869L456.346 -171.869L455.346 -171.869Z"  />
    <path fill="#ffffff" stroke-width="3.632" stroke-linecap="round" stroke-linejoin="round" d="M420.219 -199.397L420.219 -199.397L421.219 -199.397L421.219 -199.397L420.219 -199.397Z"  />
    <path id="path13019" fill="#ffffff" fill-opacity="0.756881" stroke-width="0.5" stroke-linecap="round" stroke-linejoin="round" d="M261.281 -272.613L261.281 -275.408L261.281 -272.613Z"  />
    <g id="g13021">
    </g>
    <g id="g13023">
    </g>
    <g id="g13025">
    </g>
    <g id="g13027">
    </g>
    <path id="path4226" fill="#ffffff" fill-opacity="0.756881" stroke-width="0.5" stroke-linecap="round" stroke-linejoin="round" d="M530.496 14.664L530.496 11.869L530.496 14.664Z"  />
    <g id="g5678">
    </g>
    <g id="layer5">
    </g>
    <path id="path13199" fill="#ffffff" fill-opacity="0.756881" stroke-width="0.5" stroke-linecap="round" stroke-linejoin="round" d="M461.431 -88.107L461.431 -90.708L461.431 -88.107Z"  />
    <path id="path5682" fill="#000000" d=""  />
    <path id="path5684" fill="#000000" d=""  />
    <path id="path3143" fill="#000000" d=""  />
    <g id="g36974">
      <path id="path36976" fill="#000000" d=""  />
    </g>
    <path id="path36978" fill="#000000" d=""  />
    <g id="g36980">
    </g>
    <g id="g36982">
    </g>
    <g id="g36984">
    </g>
    <path id="path36986" fill="#000000" d=""  />
    <g id="g36988">
      <path id="path36990" fill="#000000" d=""  />
    </g>
    <path id="path36992" fill="#000000" d=""  />
    <g id="g36994">
    </g>
    <g id="g36996">
    </g>
    <g id="g36998">
    </g>
    <path id="path37000" fill="#000000" d=""  />
    <path id="path37002" fill="#ffffff" fill-opacity="0.756881" stroke-width="0.5" stroke-linecap="round" stroke-linejoin="round" d="M642.174 -89.007L642.174 -91.801L642.174 -89.007Z"  />
    <path id="path37004" fill="#ffffff" fill-opacity="0.756881" stroke-width="0.5" stroke-linecap="round" stroke-linejoin="round" d="M485.166 -158.642L485.166 -161.436L485.166 -158.642Z"  />
    <path id="path37006" fill="#ffffff" fill-opacity="0.756881" stroke-width="0.5" stroke-linecap="round" stroke-linejoin="round" d="M365.663 -245.272L365.663 -248.067L365.663 -245.272Z"  />
    <g id="g37008">
    </g>
    <g id="g37010">
    </g>
    <path id="path37012" fill="#ffffff" fill-opacity="0.756881" stroke-width="0.5" stroke-linecap="round" stroke-linejoin="round" d="M612.255 -179.517L612.255 -182.311L612.255 -179.517Z"  />
    <path id="path37014" fill="#ffffff" fill-opacity="0.756881" stroke-width="0.5" stroke-linecap="round" stroke-linejoin="round" d="M519.63 -105.623L519.63 -107.15L519.63 -105.623Z"  />
    <path fill="#ffffff" stroke-width="3.632" stroke-linecap="round" stroke-linejoin="round" d="M462.146 -162.223L462.146 -162.223L463.146 -162.223L463.146 -162.223L462.146 -162.223Z"  />
    <path fill="#ffffff" stroke-width="3.632" stroke-linecap="round" stroke-linejoin="round" d="M427.019 -189.751L427.019 -189.751L428.019 -189.751L428.019 -189.751L427.019 -189.751Z"  />
    <path id="path37020" fill="#ffffff" fill-opacity="0.756881" stroke-width="0.5" stroke-linecap="round" stroke-linejoin="round" d="M268.081 -262.967L268.081 -265.761L268.081 -262.967Z"  />
    <g id="g37022">
    </g>
    <g id="g37024">
    </g>
    <g id="g37026">
    </g>
    <g id="g37028">
    </g>
    <path id="path37030" fill="#ffffff" fill-opacity="0.756881" stroke-width="0.5" stroke-linecap="round" stroke-linejoin="round" d="M537.296 24.31L537.296 21.515L537.296 24.31Z"  />
    <g id="g72617">
      <path id="path72619" fill="#000000" d=""  />
    </g>
    <path id="path72621" fill="#000000" d=""  />
    <g id="g72623">
    </g>
    <g id="g72625">
    </g>
    <g id="g72627">
    </g>
    <g id="g72629">
      <path id="path72631" fill="#000000" d=""  />
    </g>
    <path id="path72633" fill="#000000" d=""  />
    <g id="g72635">
    </g>
    <g id="g72637">
    </g>
    <g id="g72639">
    </g>
    <g id="g72641">
      <path id="path72643" fill="#000000" d=""  />
    </g>
    <path id="path72645" fill="#000000" d=""  />
    <g id="g72647">
    </g>
    <g id="g72649">
    </g>
    <g id="g72651">
    </g>
    <path id="path72653" fill="#000000" d=""  />
    <g id="g72671">
      <path id="path72673" fill="#000000" d=""  />
    </g>
    <path id="path72675" fill="#000000" d=""  />
    <g id="g72677">
    </g>
    <g id="g72679">
    </g>
    <g id="g72681">
    </g>
    <g id="g72683">
      <path id="path72685" fill="#000000" d=""  />
    </g>
    <path id="path72687" fill="#000000" d=""  />
    <g id="g72689">
    </g>
    <g id="g72691">
    </g>
    <g id="g72693">
    </g>
    <g id="g72695">
      <path id="path72697" fill="#000000" d=""  />
    </g>
    <path id="path72699" fill="#000000" d=""  />
    <g id="g72701">
    </g>
    <g id="g72703">
    </g>
    <g id="g72705">
    </g>
    <path id="path72707" fill="#000000" d=""  />
    <path id="path72709" fill="#ffffff" fill-opacity="0.756881" stroke-width="0.5" stroke-linecap="round" stroke-linejoin="round" d="M376.131 -234.076L376.131 -236.87L376.131 -234.076Z"  />
    <path id="path72711" fill="#ffffff" fill-opacity="0.756881" stroke-width="0.5" stroke-linecap="round" stroke-linejoin="round" d="M423.928 -349.4L423.928 -352.194L423.928 -349.4Z"  />
    <path fill="#ffffff" stroke-width="3.632" stroke-linecap="round" stroke-linejoin="round" d="M412.78 -321.657L412.78 -321.657L413.78 -321.657L413.78 -321.657L412.78 -321.657Z"  />
    <g id="g72715">
      <path id="path72717" fill="#000000" d=""  />
    </g>
    <path id="path72719" fill="#000000" d=""  />
    <g id="g72721">
    </g>
    <g id="g72723">
    </g>
    <g id="g72725">
    </g>
    <path id="path72727" fill="#000000" d=""  />
    <g id="g72729">
      <path id="path72731" fill="#000000" d=""  />
    </g>
    <path id="path72733" fill="#000000" d=""  />
    <g id="g72735">
    </g>
    <g id="g72737">
    </g>
    <g id="g72739">
    </g>
    <path id="path72741" fill="#000000" d=""  />
    <path id="path72743" fill="#ffffff" fill-opacity="0.756881" stroke-width="0.5" stroke-linecap="round" stroke-linejoin="round" d="M621.95 -106.601L621.95 -109.396L621.95 -106.601Z"  />
    <path id="path72745" fill="#ffffff" fill-opacity="0.756881" stroke-width="0.5" stroke-linecap="round" stroke-linejoin="round" d="M464.942 -176.236L464.942 -179.031L464.942 -176.236Z"  />
    <path id="path72747" fill="#ffffff" fill-opacity="0.756881" stroke-width="0.5" stroke-linecap="round" stroke-linejoin="round" d="M345.44 -262.867L345.44 -265.661L345.44 -262.867Z"  />
    <g id="g72749">
    </g>
    <g id="g72751">
    </g>
    <path id="path72753" fill="#ffffff" fill-opacity="0.756881" stroke-width="0.5" stroke-linecap="round" stroke-linejoin="round" d="M592.031 -197.111L592.031 -199.906L592.031 -197.111Z"  />
    <path id="path72755" fill="#ffffff" fill-opacity="0.756881" stroke-width="0.5" stroke-linecap="round" stroke-linejoin="round" d="M499.407 -123.218L499.407 -124.744L499.407 -123.218Z"  />
    <path fill="#ffffff" stroke-width="3.632" stroke-linecap="round" stroke-linejoin="round" d="M441.922 -179.818L441.922 -179.818L442.922 -179.818L442.922 -179.818L441.922 -179.818Z"  />
    <path fill="#ffffff" stroke-width="3.632" stroke-linecap="round" stroke-linejoin="round" d="M406.795 -207.345L406.795 -207.345L407.795 -207.345L407.795 -207.345L406.795 -207.345Z"  />
    <path id="path72761" fill="#ffffff" fill-opacity="0.756881" stroke-width="0.5" stroke-linecap="round" stroke-linejoin="round" d="M247.858 -280.561L247.858 -283.356L247.858 -280.561Z"  />
    <g id="g72763">
    </g>
    <g id="g72765">
    </g>
    <g id="g72767">
    </g>
    <g id="g72769">
    </g>
    <path id="path72771" fill="#ffffff" fill-opacity="0.756881" stroke-width="0.5" stroke-linecap="round" stroke-linejoin="round" d="M517.073 6.715L517.073 3.921L517.073 6.715Z"  />
    <g id="g73442">
      <path id="path72657" fill="none" stroke="#000000" stroke-width="9.46738" stroke-linejoin="round" d="M36.7666 6.595L36.7666 104.227C36.7666 105.207 37.5618 106.002 38.5417 106.002L91.0608 106.002C91.5312 106.002 91.983 105.815 92.3159 105.482L121.453 76.345C121.786 76.0122 121.973 75.5604 121.973 75.09L121.973 6.595L36.7666 6.595Z"  />
      <path id="path72659" fill="none" stroke="#000000" stroke-width="7.10054" stroke-linejoin="round" d="M36.7666 6.595L36.7666 104.227C36.7666 105.207 37.5618 106.002 38.5417 106.002L91.0608 106.002C91.5312 106.002 91.983 105.815 92.3159 105.482L121.453 76.345C121.786 76.0122 121.973 75.5604 121.973 75.09L121.973 6.595L36.7666 6.595Z"  />
      <path id="path72661" fill="none" stroke="#000000" stroke-width="4.73369" stroke-linejoin="round" d="M36.7666 6.595L36.7666 104.227C36.7666 105.207 37.5618 106.002 38.5417 106.002L91.0608 106.002C91.5312 106.002 91.983 105.815 92.3159 105.482L121.453 76.345C121.786 76.0122 121.973 75.5604 121.973 75.09L121.973 6.595L36.7666 6.595Z"  />
      <path id="path72663" fill="none" stroke="#000000" stroke-width="2.36685" stroke-linejoin="round" d="M36.7666 6.595L36.7666 104.227C36.7666 105.207 37.5618 106.002 38.5417 106.002L91.0608 106.002C91.5312 106.002 91.983 105.815 92.3159 105.482L121.453 76.345C121.786 76.0122 121.973 75.5604 121.973 75.09L121.973 6.595L36.7666 6.595Z"  />
      <path id="path72665" fill="url(#defitem150)" stroke-width="0.94852" d="M36.7666 6.595L36.7666 104.227C36.7666 105.207 37.5618 106.002 38.5417 106.002L91.0608 106.002C91.5312 106.002 91.983 105.815 92.3159 105.482L121.453 76.345C121.786 76.0122 121.973 75.5604 121.973 75.09L121.973 6.595L36.7666 6.595Z"  />
      <path id="path72667" fill="url(#defitem151)" stroke-width="0.94852" d="M39.9895 9.155C39.5178 9.155 39.1334 9.54 39.1334 10.013L39.1334 102.584C39.1334 103.058 39.5178 103.442 39.9895 103.442L90.6463 103.442C90.8714 103.442 91.0923 103.351 91.2515 103.19L119.355 75.0519C119.515 74.8916 119.606 74.6713 119.606 74.4459L119.606 10.013C119.606 9.54 119.223 9.155 118.75 9.155L39.9895 9.155Z"  />
      <path fill="#008200" stroke-width="2.561" stroke-linecap="round" stroke-linejoin="round" d="M41.1103 22.561C39.9919 22.561 39.0842 21.653 39.0842 20.534L39.0842 11.129C39.0842 10.011 39.9919 9.103 41.1103 9.103L117.773 9.103C118.892 9.103 119.799 10.011 119.799 11.129L119.799 20.534C119.799 21.653 118.892 22.561 117.773 22.561L41.1103 22.561Z"  />
      <g id="g5538">
        <g id="g11760">
          <g id="g10643">
            <path id="path10630" fill="#ffffff" stroke-width="0.254444" d="M102.762 64.76C102.673 66.5461 103.433 68.6733 102.061 70.1488C100.171 72.5866 97.1077 73.5978 94.2903 74.5309C87.3656 76.6089 80.0103 76.8292 72.8573 76.1151C69.4606 75.6654 66.0571 74.9754 62.8686 73.698C60.7884 72.7897 58.5292 71.6632 57.4532 69.5522C56.7979 67.8741 57.3768 66.0607 57.513 64.3444C58.3038 61.9697 60.7373 60.7322 62.8649 59.7521C67.9899 57.6799 73.5635 56.9147 79.0615 56.7651C85.1659 56.7338 91.4078 57.2289 97.1259 59.5232C99.2176 60.3941 101.483 61.5761 102.499 63.7188C102.637 64.0505 102.727 64.4023 102.762 64.76Z"  />
            <path id="path10632" fill="#000000" stroke-width="0.00698256" d="M102.107 64.1958C102.122 66.0081 102.688 68.1565 101.301 69.6329C98.2756 72.7452 93.8746 73.7932 89.769 74.6315C81.7558 76.0528 73.3786 75.8315 65.5545 73.5077C62.9703 72.6582 60.2299 71.4942 58.6176 69.1978C57.7667 67.4991 58.1512 65.491 58.5435 63.7204C59.1286 61.6864 61.1329 60.6477 62.8598 59.7112C66.3385 58.061 70.1819 57.3664 73.9717 56.8602C81.2408 56.0119 88.7415 56.4768 95.7209 58.7595C98.0461 59.5963 100.502 60.7815 101.797 62.9904C101.973 63.3682 102.087 63.7781 102.107 64.1958Z"  />
            <path id="path10633" fill="#ffffff" stroke-width="0.254444" d="M80.2653 56.7341C85.4808 56.6924 90.772 57.3381 95.6808 59.1604C97.5651 59.9423 99.5417 60.9586 100.638 62.7532C101.297 64.0203 100.945 65.5746 99.9628 66.5661C98.7347 67.9675 96.9697 68.7375 95.3105 69.4981C90.4541 71.294 85.2337 71.8909 80.0812 71.9417C74.8638 71.932 69.5649 71.3467 64.6766 69.4353C62.8284 68.6649 60.8911 67.6649 59.8291 65.8932C59.1319 64.7205 59.3963 63.2049 60.338 62.2458C61.9561 60.4005 64.3122 59.4664 66.5697 58.662C71.0033 57.3041 75.6407 56.782 80.2653 56.7341Z"  />
          </g>
          <g id="g10647">
            <path id="path10648" fill="#ffffff" stroke-width="0.254444" d="M107.312 60.5996C107.223 62.3857 107.984 64.5129 106.612 65.9884C104.721 68.4261 101.658 69.4373 98.8407 70.3705C91.916 72.4485 84.5607 72.6688 77.4077 71.9547C74.011 71.505 70.6075 70.815 67.419 69.5376C65.3388 68.6293 63.0796 67.5028 62.0036 65.3917C61.3483 63.7136 61.9272 61.9002 62.0634 60.184C62.8542 57.8093 65.2877 56.5718 67.4153 55.5917C72.5403 53.5195 78.1139 52.7542 83.6119 52.6047C89.7163 52.5734 95.9582 53.0685 101.676 55.3628C103.768 56.2336 106.033 57.4157 107.049 59.5584C107.187 59.89 107.277 60.2419 107.312 60.5996Z"  />
            <path id="path10649" fill="#000000" stroke-width="0.00698256" d="M106.657 60.0353C106.673 61.8477 107.238 63.9961 105.851 65.4725C102.826 68.5848 98.425 69.6328 94.3194 70.4711C86.3062 71.8924 77.929 71.6711 70.1049 69.3473C67.5207 68.4978 64.7803 67.3338 63.168 65.0373C62.3171 63.3386 62.7016 61.3306 63.0939 59.5599C63.679 57.5259 65.6834 56.4873 67.4102 55.5508C70.8889 53.9006 74.7323 53.206 78.5221 52.6998C85.7912 51.8515 93.2919 52.3164 100.271 54.5991C102.597 55.4359 105.053 56.621 106.347 58.8299C106.524 59.2077 106.638 59.6177 106.657 60.0353Z"  />
            <path id="path10650" fill="#ffffff" stroke-width="0.254444" d="M84.8157 52.5736C90.0312 52.532 95.3224 53.1777 100.231 55C102.116 55.7819 104.092 56.7982 105.188 58.5928C105.848 59.8599 105.496 61.4142 104.513 62.4057C103.285 63.8071 101.52 64.5771 99.8609 65.3376C95.0045 67.1336 89.7841 67.7304 84.6316 67.7813C79.4142 67.7716 74.1153 67.1863 69.227 65.2749C67.3789 64.5045 65.4415 63.5045 64.3795 61.7327C63.6823 60.56 63.9467 59.0445 64.8884 58.0854C66.5065 56.2401 68.8626 55.306 71.1201 54.5016C75.5537 53.1437 80.1912 52.6215 84.8157 52.5736Z"  />
          </g>
          <g id="g10651">
            <path id="path10652" fill="#ffffff" stroke-width="0.254444" d="M101.852 56.4392C101.763 58.2253 102.523 60.3526 101.151 61.828C99.2608 64.2658 96.1976 65.277 93.3802 66.2101C86.4555 68.2881 79.1002 68.5085 71.9472 67.7943C68.5505 67.3446 65.147 66.6546 61.9585 65.3772C59.8783 64.4689 57.6191 63.3425 56.5431 61.2314C55.8878 59.5533 56.4667 57.7399 56.6029 56.0236C57.3937 53.6489 59.8272 52.4114 61.9548 51.4313C67.0797 49.3591 72.6534 48.5939 78.1514 48.4443C84.2558 48.413 90.4977 48.9081 96.2158 51.2024C98.3075 52.0733 100.573 53.2553 101.588 55.398C101.727 55.7297 101.817 56.0815 101.852 56.4392Z"  />
            <path id="path10653" fill="#000000" stroke-width="0.00698256" d="M101.197 55.875C101.212 57.6874 101.778 59.8357 100.39 61.3121C97.3654 64.4244 92.9645 65.4724 88.8589 66.3107C80.8457 67.732 72.4685 67.5107 64.6444 65.1869C62.0602 64.3374 59.3198 63.1734 57.7075 60.877C56.8566 59.1783 57.2411 57.1702 57.6334 55.3996C58.2185 53.3656 60.2228 52.3269 61.9497 51.3904C65.4284 49.7402 69.2718 49.0456 73.0616 48.5394C80.3307 47.6911 87.8314 48.156 94.8108 50.4387C97.136 51.2755 99.5922 52.4607 100.886 54.6696C101.063 55.0474 101.177 55.4573 101.197 55.875Z"  />
            <path id="path10654" fill="#ffffff" stroke-width="0.254444" d="M79.3552 48.4133C84.5707 48.3716 89.8619 49.0173 94.7707 50.8396C96.655 51.6215 98.6316 52.6378 99.7278 54.4325C100.387 55.6995 100.035 57.2538 99.0527 58.2453C97.8246 59.6467 96.0596 60.4167 94.4004 61.1773C89.544 62.9732 84.3236 63.5701 79.1711 63.6209C73.9537 63.6112 68.6547 63.0259 63.7665 61.1145C61.9183 60.3441 59.981 59.3441 58.919 57.5724C58.2218 56.3997 58.4862 54.8842 59.4279 53.9251C61.046 52.0797 63.4021 51.1456 65.6596 50.3412C70.0932 48.9833 74.7306 48.4612 79.3552 48.4133Z"  />
          </g>
          <g id="g10655">
            <path id="path10656" fill="#ffffff" stroke-width="0.254444" d="M106.142 51.1087C106.053 52.8948 106.814 55.0221 105.442 56.4975C103.551 58.9353 100.488 59.9465 97.6706 60.8797C90.7459 62.9576 83.3906 63.178 76.2376 62.4638C72.8409 62.0141 69.4374 61.3241 66.2489 60.0467C64.1687 59.1384 61.9095 58.012 60.8335 55.9009C60.1782 54.2228 60.7571 52.4094 60.8933 50.6931C61.6841 48.3184 64.1176 47.0809 66.2452 46.1009C71.3702 44.0286 76.9438 43.2634 82.4418 43.1138C88.5462 43.0825 94.7881 43.5776 100.506 45.872C102.598 46.7428 104.863 47.9248 105.879 50.0675C106.017 50.3992 106.107 50.7511 106.142 51.1087Z"  />
            <path id="path10657" fill="#000000" stroke-width="0.00698256" d="M105.487 50.5445C105.503 52.3569 106.068 54.5052 104.681 55.9816C101.656 59.0939 97.2549 60.1419 93.1493 60.9802C85.1361 62.4016 76.7589 62.1802 68.9348 59.8564C66.3506 59.0069 63.6102 57.8429 61.9979 55.5465C61.147 53.8478 61.5315 51.8397 61.9238 50.0691C62.5089 48.0351 64.5133 46.9964 66.2401 46.0599C69.7188 44.4097 73.5622 43.7151 77.352 43.209C84.6211 42.3606 92.1218 42.8255 99.1012 45.1082C101.426 45.945 103.883 47.1302 105.177 49.3391C105.353 49.7169 105.468 50.1268 105.487 50.5445Z"  />
            <path id="path10658" fill="#ffffff" stroke-width="0.254444" d="M83.6456 43.0828C88.8611 43.0411 94.1523 43.6868 99.0612 45.5091C100.945 46.291 102.922 47.3073 104.018 49.102C104.678 50.369 104.325 51.9233 103.343 52.9148C102.115 54.3162 100.35 55.0862 98.6908 55.8468C93.8344 57.6427 88.614 58.2396 83.4615 58.2904C78.2441 58.2807 72.9452 57.6954 68.0569 55.784C66.2088 55.0136 64.2714 54.0137 63.2094 52.2419C62.5122 51.0692 62.7766 49.5537 63.7183 48.5946C65.3364 46.7492 67.6925 45.8151 69.95 45.0107C74.3836 43.6528 79.021 43.1307 83.6456 43.0828Z"  />
          </g>
          <g id="g10659">
            <path id="path10660" fill="#ffffff" stroke-width="0.254444" d="M100.682 46.6883C100.592 48.4744 101.353 50.6017 99.9813 52.0771C98.0907 54.5149 95.0275 55.5261 92.2101 56.4593C85.2854 58.5372 77.9301 58.7576 70.7771 58.0434C67.3804 57.5937 63.9769 56.9037 60.7884 55.6263C58.7083 54.718 56.449 53.5916 55.373 51.4805C54.7177 49.8024 55.2966 47.989 55.4328 46.2727C56.2236 43.898 58.6571 42.6605 60.7847 41.6805C65.9097 39.6082 71.4833 38.843 76.9814 38.6934C83.0857 38.6621 89.3276 39.1572 95.0458 41.4516C97.1374 42.3224 99.4025 43.5044 100.418 45.6471C100.557 45.9788 100.647 46.3307 100.682 46.6883Z"  />
            <path id="path10661" fill="#000000" stroke-width="0.00698256" d="M100.027 46.1241C100.042 47.9365 100.608 50.0848 99.2204 51.5612C96.1954 54.6735 91.7944 55.7215 87.6888 56.5598C79.6756 57.9812 71.2984 57.7598 63.4743 55.436C60.8902 54.5865 58.1497 53.4225 56.5374 51.1261C55.6865 49.4274 56.071 47.4193 56.4633 45.6487C57.0484 43.6147 59.0528 42.576 60.7797 41.6395C64.2583 39.9893 68.1017 39.2947 71.8915 38.7886C79.1606 37.9402 86.6613 38.4051 93.6407 40.6878C95.9659 41.5246 98.4221 42.7098 99.7164 44.9187C99.893 45.2965 100.007 45.7064 100.027 46.1241Z"  />
            <path id="path10662" fill="#ffffff" stroke-width="0.254444" d="M78.1851 38.6624C83.4006 38.6207 88.6918 39.2664 93.6007 41.0887C95.4849 41.8706 97.4615 42.8869 98.5577 44.6816C99.2173 45.9486 98.8649 47.5029 97.8827 48.4944C96.6545 49.8958 94.8895 50.6658 93.2303 51.4264C88.3739 53.2223 83.1535 53.8192 78.001 53.87C72.7836 53.8603 67.4847 53.275 62.5964 51.3636C60.7483 50.5932 58.8109 49.5933 57.7489 47.8215C57.0517 46.6488 57.3161 45.1333 58.2578 44.1742C59.8759 42.3288 62.232 41.3947 64.4895 40.5903C68.9231 39.2324 73.5606 38.7103 78.1851 38.6624Z"  />
          </g>
          <g id="g10663">
            <path id="path10664" fill="#ffffff" stroke-width="0.254444" d="M96.9113 43.308C96.8221 45.0941 97.5829 47.2213 96.2109 48.6968C94.3203 51.1345 91.2571 52.1457 88.4397 53.0789C81.515 55.1569 74.1597 55.3772 67.0067 54.6631C63.61 54.2134 60.2065 53.5234 57.018 52.246C54.9379 51.3377 52.6786 50.2112 51.6026 48.1001C50.9473 46.422 51.5262 44.6086 51.6624 42.8923C52.4532 40.5176 54.8867 39.2802 57.0143 38.3001C62.1393 36.2279 67.713 35.4626 73.211 35.313C79.3154 35.2818 85.5572 35.7769 91.2754 38.0712C93.367 38.942 95.6322 40.1241 96.648 42.2668C96.7862 42.5984 96.8762 42.9503 96.9113 43.308Z"  />
            <path id="path10665" fill="#000000" stroke-width="0.00698256" d="M96.2561 42.7437C96.2719 44.5561 96.8372 46.7045 95.45 48.1809C92.425 51.2932 88.024 52.3412 83.9184 53.1795C75.9052 54.6008 67.528 54.3795 59.7039 52.0557C57.1198 51.2062 54.3793 50.0422 52.767 47.7457C51.9161 46.047 52.3006 44.039 52.6929 42.2683C53.278 40.2343 55.2824 39.1957 57.0093 38.2592C60.4879 36.609 64.3313 35.9144 68.1211 35.4082C75.3903 34.5599 82.8909 35.0248 89.8703 37.3075C92.1956 38.1443 94.6517 39.3294 95.946 41.5383C96.1226 41.9161 96.2367 42.326 96.2561 42.7437Z"  />
            <path id="path10666" fill="#ffffff" stroke-width="0.254444" d="M74.4147 35.282C79.6302 35.2404 84.9214 35.8861 89.8303 37.7084C91.7145 38.4903 93.6911 39.5066 94.7874 41.3012C95.4469 42.5683 95.0945 44.1226 94.1123 45.1141C92.8842 46.5155 91.1191 47.2854 89.4599 48.046C84.6035 49.842 79.3831 50.4388 74.2306 50.4897C69.0133 50.48 63.7143 49.8947 58.826 47.9833C56.9779 47.2129 55.0405 46.2129 53.9785 44.4411C53.2814 43.2684 53.5457 41.7529 54.4874 40.7938C56.1056 38.9485 58.4616 38.0144 60.7191 37.2099C65.1527 35.8521 69.7902 35.3299 74.4147 35.282Z"  />
          </g>
          <path id="path10672" fill="#ffffff" stroke-width="0.320815" d="M103.412 39.4076C103.323 41.1937 104.083 43.3209 102.711 44.7964C100.821 47.2342 97.7578 48.2454 94.9404 49.1785C88.0156 51.2565 80.6603 51.4768 73.5074 50.7627C70.1106 50.313 66.7071 49.623 63.5186 48.3456C61.4385 47.4373 59.1792 46.3108 58.1033 44.1998C57.4479 42.5217 58.0268 40.7083 58.163 38.992C58.9539 36.6173 61.3873 35.3798 63.5149 34.3997C68.6399 32.3275 74.2136 31.5623 79.7116 31.4127C85.816 31.3814 92.0579 31.8765 97.776 34.1708C99.8677 35.0417 102.133 36.2237 103.149 38.3664C103.287 38.6981 103.377 39.0499 103.412 39.4076Z"  />
          <path id="path10674" fill="#000000" stroke-width="0.320815" d="M103.147 38.1933C103.163 40.0057 103.728 42.154 102.341 43.6304C99.3156 46.7427 94.9147 47.7907 90.8091 48.629C82.7959 50.0504 74.4187 49.829 66.5946 47.5052C64.0104 46.6558 61.27 45.4917 59.6577 43.1953C58.8068 41.4966 59.1912 39.4885 59.5836 37.7179C60.1687 35.6839 62.173 34.6452 63.8999 33.7087C67.3786 32.0585 71.222 31.3639 75.0118 30.8578C82.2809 30.0094 89.7816 30.4744 96.761 32.7571C99.0862 33.5938 101.542 34.779 102.837 36.9879C103.013 37.3657 103.127 37.7756 103.147 38.1933Z"  />
          <path id="path10675" fill="#ffffff" stroke-width="0.320815" d="M81.3053 30.8616C86.5209 30.82 91.8121 31.4656 96.7209 33.2879C98.6052 34.0699 100.582 35.0862 101.678 36.8808C102.338 38.1479 101.985 39.7021 101.003 40.6937C99.7748 42.0951 98.0098 42.865 96.3505 43.6256C91.4941 45.4215 86.2737 46.0184 81.1213 46.0692C75.9039 46.0595 70.6049 45.4742 65.7167 43.5628C63.8685 42.7924 61.9311 41.7925 60.8692 40.0207C60.172 38.848 60.4364 37.3325 61.378 36.3734C62.9962 34.528 65.3523 33.5939 67.6098 32.7895C72.0433 31.4316 76.6808 30.9095 81.3053 30.8616Z"  />
        </g>
        <g id="g11823">
          <path id="path10676" fill="url(#defitem152)" stroke="#000000" stroke-width="0.320815" stroke-linecap="round" stroke-linejoin="round" d="M91.6549 42.4119C90.5785 42.7433 89.4699 42.9563 88.3453 43.0261C87.129 43.1372 85.9138 43.2699 84.6906 43.2581C82.8622 43.3135 81.0363 43.1432 79.2133 43.0247C77.268 42.88 75.3176 42.5461 73.5146 41.7764C72.9873 41.5611 72.4341 41.3998 71.9843 41.0357C71.3859 40.5807 70.8687 40.0215 70.4628 39.3884C69.5667 39.3884 68.6706 39.3884 67.7745 39.3884C68.1232 39.1541 68.4359 38.8335 68.7875 38.6273C69.2878 38.6273 69.788 38.6273 70.2883 38.6273C70.2947 38.2731 70.2375 37.8938 70.4209 37.5794C70.3383 37.394 69.919 37.5452 69.7 37.4962C68.8883 37.4962 68.0765 37.4962 67.2648 37.4962C67.595 37.2293 67.9195 36.9559 68.2354 36.6722C69.05 36.6722 69.8647 36.6722 70.6793 36.6722C71.0168 36.1903 71.4092 35.7459 71.9131 35.4341C72.509 34.937 73.1977 34.5771 73.9282 34.3218C74.9308 33.9349 75.9951 33.7363 77.0333 33.4667C78.1553 33.2439 79.2986 33.1481 80.4372 33.0564C81.6549 33.0194 82.8719 32.9229 84.0893 32.9098C85.5532 32.9544 87.022 32.9694 88.4793 33.1183C89.2944 33.2448 90.1253 33.2929 90.93 33.4705C91.1833 33.5406 91.5604 33.5474 91.3054 33.8775C91.1655 34.0455 91.2598 34.5365 90.9571 34.4159C89.1785 34.0785 87.3613 34.0056 85.5557 34.0866C83.9788 34.1232 82.3948 34.2763 80.8713 34.7005C80.1288 34.8879 79.4457 35.2527 78.7724 35.6075C78.384 35.8442 78.0767 36.1735 77.8053 36.5317C77.4851 36.7868 78.4323 36.7156 78.2695 36.6722C80.2492 36.6647 82.2295 36.6981 84.2081 36.6303C85.3683 36.6303 86.5286 36.6303 87.6888 36.6303C87.3744 36.8772 87.0745 37.1406 86.7881 37.4194C83.6343 37.4194 80.4805 37.4194 77.3267 37.4194C77.2141 37.7732 77.1102 38.1752 77.208 38.5446C77.3947 38.6236 77.7281 38.5559 77.9713 38.5785C80.3889 38.5785 82.8064 38.5785 85.224 38.5785C84.8805 38.8174 84.5641 39.1301 84.211 39.3326C82.5207 39.3038 80.8328 39.4185 79.1426 39.3884C78.5373 39.3884 77.932 39.3884 77.3267 39.3884C77.8785 40.0609 78.5771 40.6108 79.3852 40.9398C80.661 41.4286 82.0215 41.6566 83.3679 41.8547C85.1659 42.0015 86.9722 42.0233 88.773 41.9133C89.651 41.8881 90.5191 41.7272 91.3616 41.4832C91.4841 41.7861 91.5836 42.0928 91.6549 42.4119Z"  />
          <path id="path11815" fill="none" stroke="#ffffff" stroke-width="0.320815" stroke-linecap="round" stroke-linejoin="round" d="M91.4748 42.5819C90.3984 42.9133 89.2898 43.1263 88.1652 43.1961C86.9488 43.3072 85.7336 43.4399 84.5105 43.4281C82.6821 43.4835 80.8562 43.3132 79.0332 43.1947C77.0879 43.05 75.1375 42.7161 73.3345 41.9464C72.8072 41.7311 72.254 41.5698 71.8042 41.2057C71.2058 40.7507 70.6886 40.1915 70.2827 39.5584C69.3866 39.5584 68.4905 39.5584 67.5944 39.5584C67.9431 39.3241 68.2558 39.0035 68.6074 38.7973C69.1077 38.7973 69.6079 38.7973 70.1081 38.7973C70.1146 38.4431 70.0574 38.0638 70.2408 37.7494C70.1582 37.564 69.7389 37.7152 69.5199 37.6662C68.7081 37.6662 67.8964 37.6662 67.0847 37.6662C67.4148 37.3993 67.7394 37.1259 68.0553 36.8422C68.8699 36.8422 69.6845 36.8422 70.4992 36.8422C70.8367 36.3603 71.2291 35.9159 71.733 35.6042C72.3289 35.107 73.0176 34.7471 73.7481 34.4918C74.7507 34.1049 75.815 33.9063 76.8531 33.6367C77.9752 33.4139 79.1185 33.3181 80.2571 33.2264C81.4748 33.1894 82.6917 33.0929 83.9092 33.0798C85.3731 33.1244 86.8419 33.1394 88.2992 33.2883C89.1143 33.4148 89.9452 33.4629 90.7499 33.6405C91.0032 33.7106 91.3803 33.7174 91.1252 34.0475C90.9854 34.2155 91.0797 34.7065 90.777 34.5859C88.9984 34.2485 87.1812 34.1756 85.3756 34.2566C83.7987 34.2932 82.2147 34.4463 80.6912 34.8705C79.9487 35.0579 79.2656 35.4227 78.5923 35.7775C78.2038 36.0142 77.8965 36.3435 77.6252 36.7017C77.3049 36.9568 78.2521 36.8856 78.0894 36.8422C80.0691 36.8347 82.0494 36.8681 84.028 36.8003C85.1882 36.8003 86.3485 36.8003 87.5087 36.8003C87.1943 37.0472 86.8944 37.3106 86.6079 37.5894C83.4542 37.5894 80.3004 37.5894 77.1466 37.5894C77.0339 37.9432 76.9301 38.3452 77.0279 38.7146C77.2146 38.7936 77.548 38.7259 77.7912 38.7485C80.2088 38.7485 82.6263 38.7485 85.0438 38.7485C84.7004 38.9874 84.384 39.3001 84.0309 39.5026C82.3406 39.4738 80.6527 39.5885 78.9625 39.5584C78.3572 39.5584 77.7519 39.5584 77.1466 39.5584C77.6984 40.2309 78.397 40.7808 79.2051 41.1098C80.4809 41.5986 81.8414 41.8266 83.1878 42.0247C84.9858 42.1715 86.7921 42.1933 88.5929 42.0833C89.4709 42.0581 90.339 41.8972 91.1815 41.6532C91.304 41.9561 91.4035 42.2628 91.4748 42.5819Z"  />
        </g>
      </g>
      <path id="path72805" fill="url(#defitem153)" stroke-width="0.94852" d="M92.3159 105.482C92.3159 105.482 102.89 96.6828 107.772 91.8011C112.654 86.9195 121.453 76.345 121.453 76.345C121.453 76.345 109.769 84.7006 100.671 84.7006C100.671 93.7981 92.3159 105.482 92.3159 105.482Z"  />
    </g>
    <g id="g5959">
      <path id="path2275" fill="url(#defitem154)" stroke-width="0.642027" d="M73.2656 84.6264L48.0909 101.419L46.8309 90.4204C46.9405 91.3821 47.0502 92.343 47.1604 93.3044C28.3733 95.5672 15.8227 112.49 14.5141 114.623C13.4462 111.923 19.4005 88.622 45.9174 82.4458L44.9813 74.2721L73.2656 84.6264Z"  />
      <g id="g3579">
        <path id="path3269" fill="none" stroke="#000000" stroke-width="2.56811" stroke-linejoin="round" d="M66.2511 79.9576L44.0351 98.8444L42.3579 85.2639C42.504 86.4514 42.6502 87.6379 42.7969 88.825C25.7274 90.3202 15.0602 110.228 13.9655 112.756C12.8602 109.371 17.1916 81.1866 41.1418 75.417L39.8956 65.3243L66.2511 79.9576Z"  />
        <path id="path8" fill="url(#defitem155)" stroke-width="0.642027" d="M66.2976 81.2866L44.0816 100.173L42.4044 86.5929C42.5506 87.7803 42.6968 88.9669 42.8434 90.154C25.7739 91.6492 15.1067 111.557 14.0121 114.085C12.9068 110.7 17.2381 82.5156 41.1883 76.746L39.9421 66.6532L66.2976 81.2866Z"  />
      </g>
    </g>
  </g>
</svg>
