<?xml version="1.0" standalone="no"?>
<!DOCTYPE svg PUBLIC "-//W3C//DTD SVG 20010904//EN" "http://www.w3.org/TR/2001/REC-SVG-20010904/DTD/svg10.dtd">
<!-- Created using Karbon14, part of koffice: http://www.koffice.org/karbon -->
<svg xmlns="http://www.w3.org/2000/svg" xmlns:xlink="http://www.w3.org/1999/xlink" width="128px" height="128px">
  <defs>
    <radialGradient id="defitem33" gradientUnits="userSpaceOnUse" cx="64" cy="122.812" fx="64" fy="122.812" r="64" >
      <stop stop-color="#000000" offset="0" stop-opacity="1" />
      <stop stop-color="#000000" offset="1" stop-opacity="0" />
    </radialGradient>
    <radialGradient id="defitem34" gradientUnits="userSpaceOnUse" cx="99.5582" cy="106.593" fx="4.11268" fy="1.505" r="130.591" >
      <stop stop-color="#f2f2f2" offset="0" stop-opacity="1" />
      <stop stop-color="#c3c3c3" offset="1" stop-opacity="1" />
    </radialGradient>
    <radialGradient id="defitem35" gradientUnits="userSpaceOnUse" cx="98.2972" cy="105.043" fx="6.23635" fy="3.557" r="125.96" >
      <stop stop-color="#525456" offset="0" stop-opacity="1" />
      <stop stop-color="#89898c" offset="0.113661" stop-opacity="1" />
      <stop stop-color="#ebebeb" offset="0.202967" stop-opacity="1" />
      <stop stop-color="#f9f9f9" offset="0.2363" stop-opacity="1" />
      <stop stop-color="#ffffff" offset="0.2722" stop-opacity="1" />
      <stop stop-color="#f9f9f9" offset="0.5313" stop-opacity="1" />
      <stop stop-color="#ebebeb" offset="0.8449" stop-opacity="1" />
      <stop stop-color="#e1e2e2" offset="1" stop-opacity="1" />
    </radialGradient>
    <linearGradient id="defitem36" gradientUnits="userSpaceOnUse" x1="93.9437" y1="98.8216" x2="86.458" y2="91.3359" >
      <stop stop-color="#878985" offset="0" stop-opacity="1" />
      <stop stop-color="#8c8e89" offset="0.0072" stop-opacity="1" />
      <stop stop-color="#aaaca8" offset="0.0673" stop-opacity="1" />
      <stop stop-color="#c4c6c3" offset="0.1347" stop-opacity="1" />
      <stop stop-color="#dbdbda" offset="0.265258" stop-opacity="1" />
      <stop stop-color="#ebebeb" offset="0.376461" stop-opacity="1" />
      <stop stop-color="#f6f6f6" offset="0.487403" stop-opacity="1" />
      <stop stop-color="#fdfdfd" offset="0.632409" stop-opacity="1" />
      <stop stop-color="#ffffff" offset="1" stop-opacity="1" />
    </linearGradient>
  </defs>
  <g id="Layer">
    <g id="layer1">
      <path id="path3945" fill="#000000" d=""  />
    </g>
    <path id="path3081" fill="#000000" d=""  />
    <g id="layer2">
    </g>
    <g id="layer3">
    </g>
    <g id="layer4">
    </g>
    <g id="g8876">
      <path id="path8878" fill="#000000" d=""  />
    </g>
    <path id="path8880" fill="#000000" d=""  />
    <g id="g8882">
    </g>
    <g id="g8884">
    </g>
    <g id="g8886">
    </g>
    <g id="g6011">
      <path id="path6013" fill="#000000" d=""  />
    </g>
    <path id="path6015" fill="#000000" d=""  />
    <g id="g6017">
    </g>
    <g id="g6019">
    </g>
    <g id="g6021">
    </g>
    <path id="path6025" fill="#000000" d=""  />
    <path id="path6028" fill="url(#defitem33)" stroke-width="0" stroke-linecap="round" stroke-linejoin="round" d="M-2.53765e-05 122.812C-2.53765e-05 125.677 28.6538 128 64 128C99.3462 128 128 125.677 128 122.812C128 119.947 99.3462 117.624 64 117.624C28.6538 117.624 -2.53765e-05 119.947 -2.53765e-05 122.812L-2.53765e-05 122.812Z"  />
    <path id="path6210" fill="none" stroke="#000000" stroke-width="9.98122" stroke-linejoin="round" d="M19.0845 8.991L19.0845 111.922C19.0845 112.955 19.9229 113.793 20.956 113.793L76.3256 113.793C76.8215 113.793 77.2978 113.596 77.6487 113.245L108.367 82.5266C108.718 82.1757 108.915 81.6994 108.915 81.2035L108.915 8.991L19.0845 8.991Z"  />
    <path id="path6212" fill="none" stroke="#000000" stroke-width="7.48591" stroke-linejoin="round" d="M19.0845 8.991L19.0845 111.922C19.0845 112.955 19.9229 113.793 20.956 113.793L76.3256 113.793C76.8215 113.793 77.2978 113.596 77.6487 113.245L108.367 82.5266C108.718 82.1757 108.915 81.6994 108.915 81.2035L108.915 8.991L19.0845 8.991Z"  />
    <path id="path6214" fill="none" stroke="#000000" stroke-width="4.99061" stroke-linejoin="round" d="M19.0845 8.991L19.0845 111.922C19.0845 112.955 19.9229 113.793 20.956 113.793L76.3256 113.793C76.8215 113.793 77.2978 113.596 77.6487 113.245L108.367 82.5266C108.718 82.1757 108.915 81.6994 108.915 81.2035L108.915 8.991L19.0845 8.991Z"  />
    <path id="path6216" fill="none" stroke="#000000" stroke-width="2.4953" stroke-linejoin="round" d="M19.0845 8.991L19.0845 111.922C19.0845 112.955 19.9229 113.793 20.956 113.793L76.3256 113.793C76.8215 113.793 77.2978 113.596 77.6487 113.245L108.367 82.5266C108.718 82.1757 108.915 81.6994 108.915 81.2035L108.915 8.991L19.0845 8.991Z"  />
    <path id="path6218" fill="url(#defitem34)" d="M19.0845 8.991L19.0845 111.922C19.0845 112.955 19.9229 113.793 20.956 113.793L76.3256 113.793C76.8215 113.793 77.2978 113.596 77.6487 113.245L108.367 82.5266C108.718 82.1757 108.915 81.6994 108.915 81.2035L108.915 8.991L19.0845 8.991Z"  />
    <path id="path6220" fill="url(#defitem35)" d="M22.4824 11.69C21.9851 11.69 21.5798 12.096 21.5798 12.594L21.5798 110.19C21.5798 110.689 21.9851 111.094 22.4824 111.094L75.8885 111.094C76.1259 111.094 76.3587 110.998 76.5266 110.829L106.156 81.1633C106.325 80.9943 106.42 80.7621 106.42 80.5244L106.42 12.594C106.42 12.096 106.016 11.69 105.518 11.69L22.4824 11.69Z"  />
    <path id="path6222" fill="url(#defitem36)" d="M77.6487 113.245C77.6487 113.245 88.7972 103.968 93.9437 98.8216C99.0903 93.675 108.367 82.5266 108.367 82.5266C108.367 82.5266 96.0491 91.3357 86.4578 91.3357C86.4578 100.927 77.6487 113.245 77.6487 113.245Z"  />
    <path fill="#008200" stroke-width="2.7" stroke-linecap="round" stroke-linejoin="round" d="M22.7171 111.102C22.0607 111.102 21.5279 110.57 21.5279 109.914L21.5279 12.877C21.5279 12.222 22.0607 11.689 22.7171 11.689L31.4498 11.689C32.1062 11.689 32.639 12.222 32.639 12.877L32.639 109.914C32.639 110.57 32.1062 111.102 31.4498 111.102L22.7171 111.102Z"  />
    <path id="text3688" fill="#008200" d="M34.378 19.2L35.1164 19.2L35.1164 23.988L37.7737 23.988L37.7737 24.603L34.378 24.603L34.378 19.2M39.9705 21.016C39.6099 21.016 39.3247 21.156 39.1152 21.436C38.9056 21.714 38.8008 22.095 38.8008 22.58C38.8008 23.065 38.9044 23.447 39.1115 23.727C39.3211 24.004 39.6074 24.143 39.9705 24.143C40.3287 24.143 40.6126 24.003 40.8222 23.723C41.0317 23.444 41.1365 23.062 41.1365 22.58C41.1365 22.1 41.0317 21.72 40.8222 21.44C40.6126 21.158 40.3287 21.016 39.9705 21.016M39.9705 20.452C40.5553 20.452 41.0147 20.64 41.3485 21.016C41.6824 21.393 41.8493 21.914 41.8493 22.58C41.8493 23.243 41.6824 23.764 41.3485 24.143C41.0147 24.52 40.5553 24.708 39.9705 24.708C39.3832 24.708 38.9227 24.52 38.5888 24.143C38.2574 23.764 38.0917 23.243 38.0917 22.58C38.0917 21.914 38.2574 21.393 38.5888 21.016C38.9227 20.64 39.3832 20.452 39.9705 20.452M45.3327 21.172C45.2572 21.129 45.1743 21.097 45.0842 21.078C44.9964 21.056 44.899 21.045 44.7918 21.045C44.4116 21.045 44.1192 21.168 43.9145 21.415C43.7122 21.658 43.6111 22.009 43.6111 22.468L43.6111 24.603L42.9349 24.603L42.9349 20.55L43.6111 20.55L43.6111 21.179C43.7525 20.933 43.9364 20.751 44.1631 20.633C44.3897 20.512 44.665 20.452 44.9891 20.452C45.0354 20.452 45.0866 20.456 45.1427 20.463C45.1987 20.468 45.2608 20.476 45.3291 20.488L45.3327 21.172M49.5472 22.41L49.5472 22.735L46.4549 22.735C46.4841 23.194 46.623 23.544 46.8716 23.785C47.1226 24.024 47.471 24.143 47.917 24.143C48.1753 24.143 48.4251 24.112 48.6663 24.049C48.91 23.986 49.1512 23.892 49.39 23.767L49.39 24.396C49.1488 24.498 48.9014 24.575 48.648 24.628C48.3946 24.681 48.1375 24.708 47.8768 24.708C47.2237 24.708 46.7059 24.52 46.3233 24.143C45.9432 23.767 45.7531 23.258 45.7531 22.616C45.7531 21.953 45.9334 21.427 46.2941 21.038C46.6571 20.647 47.1457 20.452 47.7598 20.452C48.3105 20.452 48.7455 20.628 49.0647 20.98C49.3864 21.33 49.5472 21.807 49.5472 22.41M48.8746 22.214C48.8698 21.85 48.7662 21.559 48.564 21.342C48.3641 21.125 48.0985 21.016 47.7671 21.016C47.3918 21.016 47.0909 21.121 46.8643 21.331C46.6401 21.541 46.5109 21.837 46.4768 22.218L48.8746 22.214M53.8385 21.328C54.0066 21.029 54.2076 20.808 54.4416 20.665C54.6755 20.523 54.9509 20.452 55.2676 20.452C55.6941 20.452 56.0231 20.6 56.2546 20.897C56.4861 21.191 56.6018 21.611 56.6018 22.156L56.6018 24.603L55.9256 24.603L55.9256 22.178C55.9256 21.79 55.8561 21.501 55.7172 21.313C55.5783 21.125 55.3663 21.031 55.0812 21.031C54.7328 21.031 54.4574 21.146 54.2551 21.375C54.0529 21.604 53.9518 21.916 53.9518 22.312L53.9518 24.603L53.2755 24.603L53.2755 22.178C53.2755 21.787 53.2061 21.499 53.0672 21.313C52.9283 21.125 52.7139 21.031 52.4239 21.031C52.0803 21.031 51.8074 21.147 51.6051 21.378C51.4028 21.608 51.3017 21.919 51.3017 22.312L51.3017 24.603L50.6255 24.603L50.6255 20.55L51.3017 20.55L51.3017 21.179C51.4552 20.931 51.6392 20.747 51.8537 20.629C52.0681 20.511 52.3227 20.452 52.6176 20.452C52.9149 20.452 53.1671 20.527 53.3742 20.676C53.5838 20.826 53.7385 21.043 53.8385 21.328M60.3301 20.55L61.0027 20.55L61.0027 24.603L60.3301 24.603L60.3301 20.55M60.3301 18.972L61.0027 18.972L61.0027 19.815L60.3301 19.815L60.3301 18.972M63.0569 23.995L63.0569 26.144L62.3807 26.144L62.3807 20.55L63.0569 20.55L63.0569 21.165C63.1983 20.924 63.3762 20.745 63.5906 20.629C63.8075 20.511 64.0658 20.452 64.3655 20.452C64.8626 20.452 65.2659 20.647 65.5754 21.038C65.8873 21.429 66.0433 21.943 66.0433 22.58C66.0433 23.217 65.8873 23.731 65.5754 24.121C65.2659 24.512 64.8626 24.708 64.3655 24.708C64.0658 24.708 63.8075 24.65 63.5906 24.534C63.3762 24.416 63.1983 24.236 63.0569 23.995M65.3451 22.58C65.3451 22.09 65.2428 21.706 65.0381 21.429C64.8358 21.149 64.5568 21.009 64.201 21.009C63.8453 21.009 63.565 21.149 63.3603 21.429C63.1581 21.706 63.0569 22.09 63.0569 22.58C63.0569 23.07 63.1581 23.454 63.3603 23.734C63.565 24.012 63.8453 24.15 64.201 24.15C64.5568 24.15 64.8358 24.012 65.0381 23.734C65.2428 23.454 65.3451 23.07 65.3451 22.58M69.7679 20.669L69.7679 21.299C69.5779 21.202 69.3805 21.13 69.1758 21.082C68.9711 21.033 68.7591 21.009 68.5398 21.009C68.2059 21.009 67.955 21.06 67.7868 21.161C67.6211 21.263 67.5383 21.415 67.5383 21.617C67.5383 21.772 67.598 21.893 67.7174 21.983C67.8368 22.07 68.0768 22.153 68.4374 22.232L68.6677 22.283C69.1453 22.384 69.4841 22.528 69.6839 22.714C69.8861 22.897 69.9873 23.154 69.9873 23.485C69.9873 23.861 69.8362 24.159 69.534 24.378C69.2343 24.598 68.8212 24.708 68.2949 24.708C68.0756 24.708 67.8465 24.686 67.6077 24.643C67.3713 24.602 67.1216 24.539 66.8584 24.454L66.8584 23.767C67.1069 23.895 67.3518 23.991 67.5931 24.056C67.8343 24.119 68.0731 24.15 68.3095 24.15C68.6263 24.15 68.87 24.097 69.0406 23.991C69.2111 23.883 69.2964 23.731 69.2964 23.535C69.2964 23.354 69.2343 23.216 69.11 23.119C68.9882 23.023 68.7189 22.93 68.3022 22.84L68.0683 22.786C67.6516 22.699 67.3506 22.567 67.1654 22.388C66.9802 22.207 66.8876 21.96 66.8876 21.646C66.8876 21.265 67.0241 20.971 67.297 20.763C67.5699 20.556 67.9574 20.452 68.4594 20.452C68.7079 20.452 68.9419 20.47 69.1612 20.506C69.3805 20.542 69.5827 20.597 69.7679 20.669M70.9925 23.003L70.9925 20.55L71.665 20.55L71.665 22.978C71.665 23.361 71.7406 23.65 71.8916 23.843C72.0427 24.033 72.2693 24.129 72.5715 24.129C72.9346 24.129 73.2209 24.014 73.4305 23.785C73.6425 23.556 73.7485 23.243 73.7485 22.848L73.7485 20.55L74.4211 20.55L74.4211 24.603L73.7485 24.603L73.7485 23.98C73.5852 24.226 73.3952 24.41 73.1783 24.53C72.9638 24.649 72.7141 24.708 72.429 24.708C71.9586 24.708 71.6017 24.563 71.358 24.273C71.1143 23.984 70.9925 23.561 70.9925 23.003M79.0011 21.328C79.1692 21.029 79.3702 20.808 79.6042 20.665C79.8381 20.523 80.1135 20.452 80.4303 20.452C80.8567 20.452 81.1857 20.6 81.4172 20.897C81.6487 21.191 81.7644 21.611 81.7644 22.156L81.7644 24.603L81.0882 24.603L81.0882 22.178C81.0882 21.79 81.0187 21.501 80.8799 21.313C80.7409 21.125 80.5289 21.031 80.2438 21.031C79.8954 21.031 79.62 21.146 79.4178 21.375C79.2155 21.604 79.1144 21.916 79.1144 22.312L79.1144 24.603L78.4382 24.603L78.4382 22.178C78.4382 21.787 78.3687 21.499 78.2298 21.313C78.0909 21.125 77.8765 21.031 77.5865 21.031C77.2429 21.031 76.97 21.147 76.7677 21.378C76.5655 21.608 76.4643 21.919 76.4643 22.312L76.4643 24.603L75.7881 24.603L75.7881 20.55L76.4643 20.55L76.4643 21.179C76.6179 20.931 76.8018 20.747 77.0163 20.629C77.2307 20.511 77.4854 20.452 77.7802 20.452C78.0775 20.452 78.3297 20.527 78.5369 20.676C78.7464 20.826 78.9012 21.043 79.0011 21.328M88.1867 21.165L88.1867 18.972L88.8592 18.972L88.8592 24.603L88.1867 24.603L88.1867 23.995C88.0453 24.236 87.8662 24.416 87.6493 24.534C87.4349 24.65 87.1766 24.708 86.8744 24.708C86.3798 24.708 85.9765 24.512 85.6645 24.121C85.3551 23.731 85.2003 23.217 85.2003 22.58C85.2003 21.943 85.3551 21.429 85.6645 21.038C85.9765 20.647 86.3798 20.452 86.8744 20.452C87.1766 20.452 87.4349 20.511 87.6493 20.629C87.8662 20.745 88.0453 20.924 88.1867 21.165M85.8948 22.58C85.8948 23.07 85.996 23.454 86.1982 23.734C86.4029 24.012 86.6831 24.15 87.0389 24.15C87.3947 24.15 87.6749 24.012 87.8796 23.734C88.0843 23.454 88.1866 23.07 88.1867 22.58C88.1866 22.09 88.0843 21.706 87.8796 21.429C87.6749 21.149 87.3947 21.009 87.0389 21.009C86.6831 21.009 86.4029 21.149 86.1982 21.429C85.996 21.706 85.8948 22.09 85.8948 22.58M91.8309 21.016C91.4703 21.016 91.1852 21.156 90.9756 21.436C90.766 21.714 90.6613 22.095 90.6613 22.58C90.6613 23.065 90.7648 23.447 90.9719 23.727C91.1815 24.004 91.4678 24.143 91.8309 24.143C92.1891 24.143 92.473 24.003 92.6826 23.723C92.8922 23.444 92.9969 23.062 92.9969 22.58C92.9969 22.1 92.8922 21.72 92.6826 21.44C92.473 21.158 92.1891 21.016 91.8309 21.016M91.8309 20.452C92.4158 20.452 92.8751 20.64 93.2089 21.016C93.5428 21.393 93.7097 21.914 93.7097 22.58C93.7097 23.243 93.5428 23.764 93.2089 24.143C92.8751 24.52 92.4158 24.708 91.8309 24.708C91.2436 24.708 90.7831 24.52 90.4492 24.143C90.1178 23.764 89.9521 23.243 89.9521 22.58C89.9521 21.914 90.1178 21.393 90.4492 21.016C90.7831 20.64 91.2436 20.452 91.8309 20.452M94.8209 18.972L95.4935 18.972L95.4935 24.603L94.8209 24.603L94.8209 18.972M98.4834 21.016C98.1228 21.016 97.8377 21.156 97.6281 21.436C97.4186 21.714 97.3138 22.095 97.3138 22.58C97.3138 23.065 97.4173 23.447 97.6245 23.727C97.834 24.004 98.1204 24.143 98.4834 24.143C98.8417 24.143 99.1255 24.003 99.3351 23.723C99.5447 23.444 99.6495 23.062 99.6495 22.58C99.6495 22.1 99.5447 21.72 99.3351 21.44C99.1255 21.158 98.8417 21.016 98.4834 21.016M98.4834 20.452C99.0683 20.452 99.5276 20.64 99.8615 21.016C100.195 21.393 100.362 21.914 100.362 22.58C100.362 23.243 100.195 23.764 99.8615 24.143C99.5276 24.52 99.0683 24.708 98.4834 24.708C97.8962 24.708 97.4356 24.52 97.1018 24.143C96.7704 23.764 96.6047 23.243 96.6047 22.58C96.6047 21.914 96.7704 21.393 97.1018 21.016C97.4356 20.64 97.8962 20.452 98.4834 20.452M103.846 21.172C103.77 21.129 103.687 21.097 103.597 21.078C103.509 21.056 103.412 21.045 103.305 21.045C102.925 21.045 102.632 21.168 102.427 21.415C102.225 21.658 102.124 22.009 102.124 22.468L102.124 24.603L101.448 24.603L101.448 20.55L102.124 20.55L102.124 21.179C102.265 20.933 102.449 20.751 102.676 20.633C102.903 20.512 103.178 20.452 103.502 20.452C103.548 20.452 103.6 20.456 103.656 20.463C103.712 20.468 103.774 20.476 103.842 20.488L103.846 21.172M36.9586 39.1975L36.9586 39.8272C36.7685 39.7307 36.5711 39.6583 36.3664 39.6101C36.1618 39.5618 35.9497 39.5377 35.7304 39.5377C35.3966 39.5377 35.1456 39.5884 34.9775 39.6897C34.8118 39.791 34.7289 39.943 34.7289 40.1457C34.7289 40.3001 34.7886 40.4219 34.908 40.5112C35.0274 40.598 35.2674 40.6813 35.6281 40.7609L35.8584 40.8115C36.336 40.9129 36.6747 41.0564 36.8745 41.2422C37.0768 41.4255 37.1779 41.6825 37.1779 42.013C37.1779 42.3894 37.0268 42.6873 36.7247 42.9068C36.4249 43.1264 36.0119 43.2362 35.4855 43.2362C35.2662 43.2362 35.0372 43.2144 34.7984 43.171C34.562 43.13 34.3122 43.0673 34.049 42.9828L34.049 42.2953C34.2976 42.4231 34.5425 42.5196 34.7837 42.5848C35.025 42.6475 35.2638 42.6789 35.5002 42.6789C35.8169 42.6789 36.0606 42.6258 36.2312 42.5196C36.4018 42.4111 36.4871 42.2591 36.4871 42.0637C36.4871 41.8827 36.4249 41.744 36.3007 41.6475C36.1788 41.551 35.9095 41.4581 35.4928 41.3688L35.2589 41.3146C34.8422 41.2277 34.5413 41.095 34.3561 40.9165C34.1709 40.7355 34.0783 40.4883 34.0783 40.1746C34.0783 39.7934 34.2147 39.4991 34.4877 39.2916C34.7606 39.0841 35.148 38.9804 35.65 38.9804C35.8986 38.9804 36.1325 38.9985 36.3518 39.0347C36.5711 39.0709 36.7734 39.1252 36.9586 39.1975M38.2525 39.0781L38.9251 39.0781L38.9251 43.1312L38.2525 43.1312L38.2525 39.0781M38.2525 37.5003L38.9251 37.5003L38.9251 38.3435L38.2525 38.3435L38.2525 37.5003M40.994 37.9273L40.994 39.0781L42.3793 39.0781L42.3793 39.5956L40.994 39.5956L40.994 41.7959C40.994 42.1264 41.0391 42.3387 41.1292 42.4328C41.2218 42.5269 41.4082 42.5739 41.6885 42.5739L42.3793 42.5739L42.3793 43.1312L41.6885 43.1312C41.1694 43.1312 40.8112 43.0359 40.6138 42.8453C40.4164 42.6523 40.3178 42.3025 40.3178 41.7959L40.3178 39.5956L39.8243 39.5956L39.8243 39.0781L40.3178 39.0781L40.3178 37.9273L40.994 37.9273M47.5112 41.0938C46.9678 41.0938 46.5913 41.1553 46.3818 41.2784C46.1722 41.4014 46.0674 41.6113 46.0674 41.908C46.0674 42.1445 46.1454 42.3327 46.3014 42.4726C46.4598 42.6101 46.6742 42.6789 46.9447 42.6789C47.3175 42.6789 47.616 42.5486 47.8402 42.288C48.0668 42.0251 48.1802 41.6764 48.1802 41.2422L48.1802 41.0938L47.5112 41.0938M48.8527 40.8188L48.8527 43.1312L48.1802 43.1312L48.1802 42.516C48.0266 42.7621 47.8353 42.9442 47.6063 43.0625C47.3772 43.1783 47.097 43.2362 46.7656 43.2362C46.3464 43.2362 46.0126 43.1204 45.764 42.8887C45.5179 42.6547 45.3949 42.3423 45.3949 41.9515C45.3949 41.4955 45.5484 41.1517 45.8554 40.9201C46.1649 40.6885 46.6255 40.5727 47.2371 40.5727L48.1802 40.5727L48.1802 40.5076C48.1802 40.2012 48.0778 39.9647 47.8731 39.7983C47.6709 39.6294 47.3857 39.5449 47.0178 39.5449C46.7839 39.5449 46.556 39.5727 46.3343 39.6282C46.1125 39.6837 45.8993 39.7669 45.6946 39.8779L45.6946 39.2627C45.9407 39.1686 46.1795 39.0986 46.411 39.0528C46.6425 39.0045 46.8679 38.9804 47.0872 38.9804C47.6794 38.9804 48.1217 39.1324 48.4141 39.4364C48.7065 39.7404 48.8527 40.2012 48.8527 40.8188M53.4291 39.8562C53.5972 39.557 53.7982 39.3363 54.0322 39.1939C54.2661 39.0516 54.5415 38.9804 54.8583 38.9804C55.2847 38.9804 55.6137 39.1288 55.8452 39.4255C56.0767 39.7199 56.1924 40.1396 56.1924 40.6849L56.1924 43.1312L55.5162 43.1312L55.5162 40.7066C55.5162 40.3182 55.4467 40.0299 55.3079 39.8417C55.169 39.6535 54.9569 39.5594 54.6718 39.5594C54.3234 39.5594 54.048 39.674 53.8458 39.9032C53.6435 40.1324 53.5424 40.4448 53.5424 40.8405L53.5424 43.1312L52.8662 43.1312L52.8662 40.7066C52.8662 40.3158 52.7967 40.0275 52.6578 39.8417C52.5189 39.6535 52.3045 39.5594 52.0145 39.5594C51.6709 39.5594 51.398 39.6752 51.1957 39.9068C50.9935 40.136 50.8923 40.4472 50.8923 40.8405L50.8923 43.1312L50.2161 43.1312L50.2161 39.0781L50.8923 39.0781L50.8923 39.7078C51.0459 39.4593 51.2298 39.2759 51.4443 39.1577C51.6587 39.0395 51.9134 38.9804 52.2082 38.9804C52.5055 38.9804 52.7577 39.0552 52.9649 39.2048C53.1744 39.3544 53.3292 39.5715 53.4291 39.8562M61.0393 40.9382L61.0393 41.2639L57.9469 41.2639C57.9762 41.7223 58.1151 42.0721 58.3636 42.3134C58.6146 42.5522 58.9631 42.6716 59.409 42.6716C59.6673 42.6716 59.9171 42.6403 60.1583 42.5775C60.402 42.5148 60.6433 42.4207 60.8821 42.2953L60.8821 42.9249C60.6408 43.0263 60.3935 43.1035 60.1401 43.1565C59.8866 43.2096 59.6296 43.2362 59.3688 43.2362C58.7157 43.2362 58.1979 43.048 57.8153 42.6716C57.4352 42.2953 57.2451 41.7862 57.2451 41.1445C57.2451 40.481 57.4255 39.9551 57.7861 39.5667C58.1492 39.1758 58.6378 38.9804 59.2518 38.9804C59.8026 38.9804 60.2375 39.1565 60.5568 39.5088C60.8784 39.8586 61.0393 40.3351 61.0393 40.9382M60.3667 40.7428C60.3618 40.3785 60.2583 40.0878 60.056 39.8706C59.8562 39.6535 59.5906 39.5449 59.2592 39.5449C58.8839 39.5449 58.5829 39.6499 58.3563 39.8598C58.1321 40.0697 58.003 40.3652 57.9689 40.7464L60.3667 40.7428M62.8084 37.9273L62.8084 39.0781L64.1937 39.0781L64.1937 39.5956L62.8084 39.5956L62.8084 41.7959C62.8084 42.1264 62.8535 42.3387 62.9436 42.4328C63.0362 42.5269 63.2226 42.5739 63.5029 42.5739L64.1937 42.5739L64.1937 43.1312L63.5029 43.1312C62.9838 43.1312 62.6256 43.0359 62.4282 42.8453C62.2309 42.6523 62.1322 42.3025 62.1322 41.7959L62.1322 39.5956L61.6387 39.5956L61.6387 39.0781L62.1322 39.0781L62.1322 37.9273L62.8084 37.9273M70.4113 39.2337L70.4113 39.8562C70.2212 39.7524 70.0299 39.6752 69.8374 39.6246C69.6473 39.5715 69.4548 39.5449 69.2599 39.5449C68.8237 39.5449 68.485 39.6825 68.2437 39.9575C68.0025 40.2301 67.8819 40.6137 67.8819 41.1083C67.8819 41.6029 68.0025 41.9877 68.2437 42.2627C68.485 42.5353 68.8237 42.6716 69.2599 42.6716C69.4548 42.6716 69.6473 42.6463 69.8374 42.5956C70.0299 42.5425 70.2212 42.4641 70.4113 42.3604L70.4113 42.9756C70.2236 43.0625 70.0287 43.1276 69.8264 43.171C69.6266 43.2144 69.4134 43.2362 69.1868 43.2362C68.5703 43.2362 68.0804 43.0444 67.7174 42.6608C67.3543 42.2772 67.1727 41.7597 67.1727 41.1083C67.1727 40.4472 67.3555 39.9273 67.721 39.5486C68.089 39.1698 68.5922 38.9804 69.2306 38.9804C69.4378 38.9804 69.64 39.0021 69.8374 39.0455C70.0348 39.0866 70.2261 39.1493 70.4113 39.2337M73.1746 39.5449C72.814 39.5449 72.5289 39.6849 72.3193 39.9647C72.1097 40.2422 72.005 40.6234 72.005 41.1083C72.005 41.5932 72.1085 41.9756 72.3156 42.2555C72.5252 42.5329 72.8115 42.6716 73.1746 42.6716C73.5328 42.6716 73.8167 42.5317 74.0263 42.2518C74.2359 41.972 74.3406 41.5908 74.3406 41.1083C74.3406 40.6282 74.2359 40.2482 74.0263 39.9683C73.8167 39.6861 73.5328 39.5449 73.1746 39.5449M73.1746 38.9804C73.7595 38.9804 74.2188 39.1686 74.5526 39.5449C74.8865 39.9213 75.0534 40.4424 75.0534 41.1083C75.0534 41.7717 74.8865 42.2928 74.5526 42.6716C74.2188 43.048 73.7595 43.2362 73.1746 43.2362C72.5874 43.2362 72.1268 43.048 71.7929 42.6716C71.4615 42.2928 71.2958 41.7717 71.2958 41.1083C71.2958 40.4424 71.4615 39.9213 71.7929 39.5449C72.1268 39.1686 72.5874 38.9804 73.1746 38.9804M79.5676 40.6849L79.5676 43.1312L78.8951 43.1312L78.8951 40.7066C78.8951 40.323 78.8195 40.0359 78.6684 39.8453C78.5174 39.6547 78.2907 39.5594 77.9886 39.5594C77.6255 39.5594 77.3392 39.674 77.1296 39.9032C76.92 40.1324 76.8152 40.4448 76.8152 40.8405L76.8152 43.1312L76.139 43.1312L76.139 39.0781L76.8152 39.0781L76.8152 39.7078C76.9761 39.4641 77.1649 39.282 77.3818 39.1613C77.6011 39.0407 77.8533 38.9804 78.1384 38.9804C78.6087 38.9804 78.9645 39.1252 79.2058 39.4147C79.447 39.7018 79.5676 40.1252 79.5676 40.6849M83.5262 39.1975L83.5262 39.8272C83.3362 39.7307 83.1388 39.6583 82.9341 39.6101C82.7294 39.5618 82.5174 39.5377 82.2981 39.5377C81.9642 39.5377 81.7132 39.5884 81.5451 39.6897C81.3794 39.791 81.2965 39.943 81.2965 40.1457C81.2965 40.3001 81.3562 40.4219 81.4757 40.5112C81.5951 40.598 81.8351 40.6813 82.1957 40.7609L82.426 40.8115C82.9036 40.9129 83.2423 41.0564 83.4422 41.2422C83.6444 41.4255 83.7455 41.6825 83.7455 42.013C83.7455 42.3894 83.5945 42.6873 83.2923 42.9068C82.9926 43.1264 82.5795 43.2362 82.0532 43.2362C81.8339 43.2362 81.6048 43.2144 81.366 43.171C81.1296 43.13 80.8799 43.0673 80.6167 42.9828L80.6167 42.2953C80.8652 42.4231 81.1101 42.5196 81.3514 42.5848C81.5926 42.6475 81.8314 42.6789 82.0678 42.6789C82.3846 42.6789 82.6283 42.6258 82.7988 42.5196C82.9694 42.4111 83.0547 42.2591 83.0547 42.0637C83.0547 41.8827 82.9926 41.744 82.8683 41.6475C82.7465 41.551 82.4772 41.4581 82.0605 41.3688L81.8266 41.3146C81.4099 41.2277 81.1089 41.095 80.9237 40.9165C80.7385 40.7355 80.6459 40.4883 80.6459 40.1746C80.6459 39.7934 80.7824 39.4991 81.0553 39.2916C81.3282 39.0841 81.7157 38.9804 82.2177 38.9804C82.4662 38.9804 82.7002 38.9985 82.9195 39.0347C83.1388 39.0709 83.341 39.1252 83.5262 39.1975M88.3219 40.9382L88.3219 41.2639L85.2296 41.2639C85.2588 41.7223 85.3977 42.0721 85.6463 42.3134C85.8973 42.5522 86.2457 42.6716 86.6917 42.6716C86.95 42.6716 87.1997 42.6403 87.441 42.5775C87.6847 42.5148 87.9259 42.4207 88.1647 42.2953L88.1647 42.9249C87.9235 43.0263 87.6761 43.1035 87.4227 43.1565C87.1693 43.2096 86.9122 43.2362 86.6515 43.2362C85.9984 43.2362 85.4806 43.048 85.098 42.6716C84.7178 42.2953 84.5278 41.7862 84.5278 41.1445C84.5278 40.481 84.7081 39.9551 85.0687 39.5667C85.4318 39.1758 85.9204 38.9804 86.5345 38.9804C87.0852 38.9804 87.5202 39.1565 87.8394 39.5088C88.1611 39.8586 88.3219 40.3351 88.3219 40.9382M87.6493 40.7428C87.6445 40.3785 87.5409 40.0878 87.3386 39.8706C87.1388 39.6535 86.8732 39.5449 86.5418 39.5449C86.1665 39.5449 85.8656 39.6499 85.639 39.8598C85.4148 40.0697 85.2856 40.3652 85.2515 40.7464L87.6493 40.7428M92.3719 39.2337L92.3719 39.8562C92.1818 39.7524 91.9905 39.6752 91.798 39.6246C91.608 39.5715 91.4154 39.5449 91.2205 39.5449C90.7843 39.5449 90.4456 39.6825 90.2044 39.9575C89.9631 40.2301 89.8425 40.6137 89.8425 41.1083C89.8425 41.6029 89.9631 41.9877 90.2044 42.2627C90.4456 42.5353 90.7843 42.6716 91.2205 42.6716C91.4154 42.6716 91.608 42.6463 91.798 42.5956C91.9905 42.5425 92.1818 42.4641 92.3719 42.3604L92.3719 42.9756C92.1843 43.0625 91.9893 43.1276 91.7871 43.171C91.5872 43.2144 91.374 43.2362 91.1474 43.2362C90.5309 43.2362 90.0411 43.0444 89.678 42.6608C89.3149 42.2772 89.1334 41.7597 89.1334 41.1083C89.1334 40.4472 89.3161 39.9273 89.6816 39.5486C90.0496 39.1698 90.5528 38.9804 91.1913 38.9804C91.3984 38.9804 91.6006 39.0021 91.798 39.0455C91.9954 39.0866 92.1867 39.1493 92.3719 39.2337M94.2141 37.9273L94.2141 39.0781L95.5995 39.0781L95.5995 39.5956L94.2141 39.5956L94.2141 41.7959C94.2141 42.1264 94.2592 42.3387 94.3494 42.4328C94.442 42.5269 94.6284 42.5739 94.9086 42.5739L95.5995 42.5739L95.5995 43.1312L94.9086 43.1312C94.3896 43.1312 94.0314 43.0359 93.834 42.8453C93.6366 42.6523 93.5379 42.3025 93.5379 41.7959L93.5379 39.5956L93.0445 39.5956L93.0445 39.0781L93.5379 39.0781L93.5379 37.9273L94.2141 37.9273M96.1477 40.8043L98.1179 40.8043L98.1179 41.3978L96.1477 41.3978L96.1477 40.8043M37.8505 59.4667L37.8505 59.7924L34.7581 59.7924C34.7874 60.2507 34.9263 60.6006 35.1748 60.8418C35.4258 61.0807 35.7743 61.2001 36.2202 61.2001C36.4785 61.2001 36.7283 61.1687 36.9696 61.106C37.2132 61.0433 37.4545 60.9492 37.6933 60.8237L37.6933 61.4534C37.452 61.5547 37.2047 61.6319 36.9513 61.685C36.6979 61.7381 36.4408 61.7646 36.18 61.7646C35.527 61.7646 35.0091 61.5764 34.6266 61.2001C34.2464 60.8237 34.0563 60.3147 34.0563 59.6729C34.0563 59.0095 34.2367 58.4835 34.5973 58.0951C34.9604 57.7043 35.449 57.5089 36.0631 57.5089C36.6138 57.5089 37.0488 57.685 37.368 58.0372C37.6896 58.387 37.8505 58.8635 37.8505 59.4667M37.1779 59.2712C37.173 58.907 37.0695 58.6162 36.8672 58.3991C36.6674 58.182 36.4018 58.0734 36.0704 58.0734C35.6951 58.0734 35.3942 58.1784 35.1675 58.3882C34.9433 58.5981 34.8142 58.8937 34.7801 59.2749L37.1779 59.2712M39.6196 56.4558L39.6196 57.6066L41.0049 57.6066L41.0049 58.1241L39.6196 58.1241L39.6196 60.3243C39.6196 60.6548 39.6647 60.8672 39.7548 60.9612C39.8474 61.0553 40.0339 61.1024 40.3141 61.1024L41.0049 61.1024L41.0049 61.6597L40.3141 61.6597C39.7951 61.6597 39.4368 61.5644 39.2395 61.3738C39.0421 61.1808 38.9434 60.831 38.9434 60.3243L38.9434 58.1241L38.4499 58.1241L38.4499 57.6066L38.9434 57.6066L38.9434 56.4558L39.6196 56.4558M41.8237 60.0602L41.8237 57.6066L42.4963 57.6066L42.4963 60.0348C42.4963 60.4184 42.5718 60.7067 42.7229 60.8997C42.874 61.0903 43.1006 61.1856 43.4028 61.1856C43.7659 61.1856 44.0522 61.071 44.2617 60.8418C44.4737 60.6126 44.5797 60.3002 44.5798 59.9045L44.5798 57.6066L45.2523 57.6066L45.2523 61.6597L44.5798 61.6597L44.5798 61.0372C44.4165 61.2833 44.2264 61.4667 44.0095 61.5873C43.7951 61.7055 43.5453 61.7646 43.2602 61.7646C42.7899 61.7646 42.4329 61.6199 42.1892 61.3304C41.9455 61.0409 41.8237 60.6175 41.8237 60.0602M50.1467 59.4667L50.1467 59.7924L47.0543 59.7924C47.0836 60.2507 47.2225 60.6006 47.471 60.8418C47.722 61.0807 48.0705 61.2001 48.5164 61.2001C48.7747 61.2001 49.0245 61.1687 49.2658 61.106C49.5094 61.0433 49.7507 60.9492 49.9895 60.8237L49.9895 61.4534C49.7482 61.5547 49.5009 61.6319 49.2475 61.685C48.9941 61.7381 48.737 61.7646 48.4762 61.7646C47.8232 61.7646 47.3053 61.5764 46.9228 61.2001C46.5426 60.8237 46.3525 60.3147 46.3525 59.6729C46.3525 59.0095 46.5329 58.4835 46.8935 58.0951C47.2566 57.7043 47.7452 57.5089 48.3593 57.5089C48.91 57.5089 49.345 57.685 49.6642 58.0372C49.9858 58.387 50.1467 58.8635 50.1467 59.4667M49.4741 59.2712C49.4692 58.907 49.3657 58.6162 49.1634 58.3991C48.9636 58.182 48.698 58.0734 48.3666 58.0734C47.9913 58.0734 47.6904 58.1784 47.4637 58.3882C47.2395 58.5981 47.1104 58.8937 47.0763 59.2749L49.4741 59.2712M53.6228 58.229C53.5472 58.1856 53.4644 58.1542 53.3742 58.1349C53.2865 58.1132 53.189 58.1024 53.0818 58.1024C52.7017 58.1024 52.4093 58.2254 52.2046 58.4715C52.0023 58.7152 51.9012 59.0662 51.9012 59.5246L51.9012 61.6597L51.225 61.6597L51.225 57.6066L51.9012 57.6066L51.9012 58.2363C52.0425 57.9902 52.2265 57.808 52.4531 57.6898C52.6797 57.5692 52.9551 57.5089 53.2792 57.5089C53.3255 57.5089 53.3767 57.5125 53.4327 57.5197C53.4888 57.5246 53.5509 57.533 53.6191 57.5451L53.6228 58.229M58.5793 59.6223C58.0359 59.6223 57.6594 59.6838 57.4498 59.8068C57.2403 59.9299 57.1355 60.1398 57.1355 60.4365C57.1355 60.6729 57.2134 60.8611 57.3694 61.0011C57.5278 61.1386 57.7422 61.2073 58.0127 61.2073C58.3856 61.2073 58.6841 61.077 58.9083 60.8165C59.1349 60.5535 59.2482 60.2049 59.2482 59.7706L59.2482 59.6223L58.5793 59.6223M59.9208 59.3472L59.9208 61.6597L59.2482 61.6597L59.2482 61.0445C59.0947 61.2906 58.9034 61.4727 58.6743 61.5909C58.4453 61.7067 58.165 61.7646 57.8336 61.7646C57.4145 61.7646 57.0806 61.6488 56.8321 61.4172C56.586 61.1832 56.4629 60.8708 56.4629 60.4799C56.4629 60.024 56.6164 59.6802 56.9235 59.4486C57.2329 59.217 57.6935 59.1012 58.3051 59.1012L59.2482 59.1012L59.2482 59.036C59.2482 58.7296 59.1458 58.4932 58.9412 58.3267C58.7389 58.1579 58.4538 58.0734 58.0858 58.0734C57.8519 58.0734 57.6241 58.1012 57.4023 58.1566C57.1806 58.2121 56.9673 58.2954 56.7626 58.4063L56.7626 57.7911C57.0088 57.6971 57.2476 57.6271 57.4791 57.5812C57.7106 57.533 57.936 57.5089 58.1553 57.5089C58.7474 57.5089 59.1897 57.6609 59.4821 57.9648C59.7745 58.2688 59.9208 58.7296 59.9208 59.3472M64.0037 58.2218L64.0037 56.0288L64.6762 56.0288L64.6762 61.6597L64.0037 61.6597L64.0037 61.0517C63.8623 61.293 63.6832 61.4727 63.4663 61.5909C63.2519 61.7067 62.9936 61.7646 62.6914 61.7646C62.1967 61.7646 61.7935 61.5692 61.4815 61.1784C61.1721 60.7875 61.0173 60.2737 61.0173 59.6367C61.0173 58.9998 61.1721 58.486 61.4815 58.0951C61.7935 57.7043 62.1967 57.5089 62.6914 57.5089C62.9936 57.5089 63.2519 57.568 63.4663 57.6862C63.6832 57.802 63.8623 57.9805 64.0037 58.2218M61.7118 59.6367C61.7118 60.1265 61.8129 60.5113 62.0152 60.7912C62.2199 61.0686 62.5001 61.2073 62.8559 61.2073C63.2117 61.2073 63.4919 61.0686 63.6966 60.7912C63.9013 60.5113 64.0036 60.1265 64.0037 59.6367C64.0036 59.147 63.9013 58.7634 63.6966 58.486C63.4919 58.2061 63.2117 58.0662 62.8559 58.0662C62.5001 58.0662 62.2199 58.2061 62.0152 58.486C61.8129 58.7634 61.7118 59.147 61.7118 59.6367M66.0615 57.6066L66.7341 57.6066L66.7341 61.6597L66.0615 61.6597L66.0615 57.6066M66.0615 56.0288L66.7341 56.0288L66.7341 56.872L66.0615 56.872L66.0615 56.0288M68.7883 61.0517L68.7883 63.2013L68.1121 63.2013L68.1121 57.6066L68.7883 57.6066L68.7883 58.2218C68.9297 57.9805 69.1076 57.802 69.322 57.6862C69.5389 57.568 69.7972 57.5089 70.0969 57.5089C70.594 57.5089 70.9973 57.7043 71.3068 58.0951C71.6187 58.486 71.7747 58.9998 71.7747 59.6367C71.7747 60.2737 71.6187 60.7875 71.3068 61.1784C70.9973 61.5692 70.594 61.7646 70.0969 61.7646C69.7972 61.7646 69.5389 61.7067 69.322 61.5909C69.1076 61.4727 68.9297 61.293 68.7883 61.0517M71.0765 59.6367C71.0765 59.147 70.9742 58.7634 70.7695 58.486C70.5672 58.2061 70.2882 58.0662 69.9324 58.0662C69.5767 58.0662 69.2964 58.2061 69.0917 58.486C68.8895 58.7634 68.7883 59.147 68.7883 59.6367C68.7883 60.1265 68.8895 60.5113 69.0917 60.7912C69.2964 61.0686 69.5767 61.2073 69.9324 61.2073C70.2882 61.2073 70.5672 61.0686 70.7695 60.7912C70.9742 60.5113 71.0765 60.1265 71.0765 59.6367M72.8895 57.6066L73.5621 57.6066L73.5621 61.6597L72.8895 61.6597L72.8895 57.6066M72.8895 56.0288L73.5621 56.0288L73.5621 56.872L72.8895 56.872L72.8895 56.0288M77.5755 57.726L77.5755 58.3557C77.3855 58.2592 77.1881 58.1868 76.9834 58.1385C76.7787 58.0903 76.5667 58.0662 76.3474 58.0662C76.0135 58.0662 75.7625 58.1168 75.5944 58.2182C75.4287 58.3195 75.3458 58.4715 75.3458 58.6741C75.3458 58.8285 75.4055 58.9504 75.5249 59.0396C75.6443 59.1265 75.8844 59.2097 76.245 59.2893L76.4753 59.34C76.9529 59.4413 77.2916 59.5849 77.4915 59.7706C77.6937 59.954 77.7948 60.2109 77.7948 60.5415C77.7948 60.9178 77.6438 61.2158 77.3416 61.4353C77.0419 61.6549 76.6288 61.7646 76.1025 61.7646C75.8832 61.7646 75.6541 61.7429 75.4153 61.6995C75.1789 61.6585 74.9291 61.5957 74.666 61.5113L74.666 60.8237C74.9145 60.9516 75.1594 61.0481 75.4007 61.1132C75.6419 61.176 75.8807 61.2073 76.1171 61.2073C76.4339 61.2073 76.6776 61.1542 76.8481 61.0481C77.0187 60.9395 77.104 60.7875 77.104 60.5921C77.104 60.4112 77.0419 60.2725 76.9176 60.176C76.7957 60.0795 76.5265 59.9866 76.1098 59.8973L75.8758 59.843C75.4591 59.7562 75.1582 59.6235 74.973 59.4449C74.7878 59.264 74.6952 59.0167 74.6952 58.7031C74.6952 58.3219 74.8317 58.0276 75.1046 57.8201C75.3775 57.6126 75.765 57.5089 76.267 57.5089C76.5155 57.5089 76.7494 57.527 76.9688 57.5632C77.1881 57.5993 77.3903 57.6536 77.5755 57.726M81.8156 57.7622L81.8156 58.3846C81.6255 58.2809 81.4342 58.2037 81.2417 58.153C81.0516 58.1 80.8591 58.0734 80.6642 58.0734C80.228 58.0734 79.8893 58.2109 79.648 58.486C79.4068 58.7586 79.2862 59.1422 79.2862 59.6367C79.2862 60.1313 79.4068 60.5161 79.648 60.7912C79.8893 61.0638 80.228 61.2001 80.6642 61.2001C80.8591 61.2001 81.0516 61.1748 81.2417 61.1241C81.4342 61.071 81.6255 60.9926 81.8156 60.8889L81.8156 61.5041C81.628 61.5909 81.433 61.6561 81.2308 61.6995C81.0309 61.7429 80.8177 61.7646 80.5911 61.7646C79.9746 61.7646 79.4848 61.5728 79.1217 61.1892C78.7586 60.8056 78.5771 60.2881 78.5771 59.6367C78.5771 58.9757 78.7598 58.4558 79.1253 58.077C79.4933 57.6983 79.9965 57.5089 80.635 57.5089C80.8421 57.5089 81.0443 57.5306 81.2417 57.574C81.4391 57.615 81.6304 57.6778 81.8156 57.7622M82.9926 57.6066L83.6651 57.6066L83.6651 61.6597L82.9926 61.6597L82.9926 57.6066M82.9926 56.0288L83.6651 56.0288L83.6651 56.872L82.9926 56.872L82.9926 56.0288M88.4718 59.2133L88.4718 61.6597L87.7992 61.6597L87.7992 59.2351C87.7992 58.8515 87.7237 58.5644 87.5726 58.3738C87.4215 58.1832 87.1949 58.0879 86.8927 58.0879C86.5296 58.0879 86.2433 58.2025 86.0337 58.4317C85.8242 58.6609 85.7194 58.9733 85.7194 59.369L85.7194 61.6597L85.0432 61.6597L85.0432 57.6066L85.7194 57.6066L85.7194 58.2363C85.8802 57.9926 86.0691 57.8104 86.2859 57.6898C86.5053 57.5692 86.7575 57.5089 87.0426 57.5089C87.5129 57.5089 87.8686 57.6536 88.1099 57.9431C88.3511 58.2302 88.4718 58.6536 88.4718 59.2133M92.5145 59.5861C92.5145 59.1036 92.4133 58.7296 92.2111 58.4642C92.0112 58.1989 91.7298 58.0662 91.3667 58.0662C91.0061 58.0662 90.7246 58.1989 90.5224 58.4642C90.3225 58.7296 90.2226 59.1036 90.2226 59.5861C90.2226 60.0662 90.3225 60.4389 90.5224 60.7043C90.7246 60.9697 91.0061 61.1024 91.3667 61.1024C91.7298 61.1024 92.0112 60.9697 92.2111 60.7043C92.4133 60.4389 92.5145 60.0662 92.5145 59.5861M93.187 61.1567C93.187 61.8467 93.0323 62.3593 92.7228 62.6947C92.4133 63.0324 91.9394 63.2013 91.3009 63.2013C91.0645 63.2013 90.8416 63.1832 90.632 63.147C90.4224 63.1132 90.219 63.0602 90.0216 62.9878L90.0216 62.34C90.219 62.4462 90.4139 62.5246 90.6064 62.5752C90.7989 62.6259 90.9951 62.6512 91.1949 62.6512C91.636 62.6512 91.9662 62.5366 92.1855 62.3075C92.4048 62.0807 92.5145 61.7369 92.5145 61.2761L92.5145 60.9468C92.3755 61.1856 92.1977 61.3641 91.9808 61.4824C91.7639 61.6006 91.5044 61.6597 91.2022 61.6597C90.7002 61.6597 90.2957 61.4703 89.9887 61.0915C89.6816 60.7128 89.5281 60.2109 89.5281 59.5861C89.5281 58.9588 89.6816 58.4558 89.9887 58.077C90.2957 57.6983 90.7002 57.5089 91.2022 57.5089C91.5044 57.5089 91.7639 57.568 91.9808 57.6862C92.1977 57.8044 92.3755 57.9829 92.5145 58.2218L92.5145 57.6066L93.187 57.6066L93.187 61.1567"  />
    <path fill="#ffffff" stroke="#000000" stroke-width="1.12983" stroke-linecap="round" stroke-linejoin="round" d="M35.3975 108.14L35.3975 86.0474L72.5508 86.0474L72.5508 108.14L35.3975 108.14Z"  />
    <path id="text9764" fill="#000000" d="M36.9488 82.3758L36.9488 82.8294C36.8311 82.7767 36.7162 82.737 36.6042 82.7102C36.4923 82.6834 36.3865 82.67 36.287 82.67C36.1549 82.67 36.0573 82.6882 35.9941 82.7246C35.931 82.761 35.8994 82.8174 35.8994 82.894C35.8994 82.9514 35.9205 82.9964 35.9626 83.0289C36.0056 83.0605 36.0832 83.0878 36.1951 83.1107L36.4305 83.1581C36.6688 83.206 36.8382 83.2787 36.9387 83.3763C37.0392 83.4739 37.0894 83.6127 37.0894 83.7926C37.0894 84.029 37.0191 84.2051 36.8784 84.3209C36.7387 84.4357 36.5248 84.4931 36.2368 84.4931C36.1009 84.4931 35.9645 84.4802 35.8276 84.4544C35.6908 84.4285 35.5539 84.3903 35.4171 84.3395L35.4171 83.873C35.5539 83.9457 35.686 84.0008 35.8133 84.0381C35.9415 84.0744 36.065 84.0926 36.1836 84.0926C36.3042 84.0926 36.3966 84.0725 36.4607 84.0323C36.5248 83.9921 36.5569 83.9347 36.5569 83.8601C36.5569 83.7931 36.5349 83.7414 36.4908 83.705C36.4478 83.6687 36.3612 83.6361 36.231 83.6074L36.0171 83.5601C35.8027 83.5141 35.6458 83.4409 35.5463 83.3404C35.4477 83.2399 35.3984 83.1045 35.3984 82.9342C35.3984 82.7208 35.4673 82.5566 35.6051 82.4418C35.7429 82.327 35.941 82.2695 36.1994 82.2695C36.3171 82.2695 36.4382 82.2786 36.5626 82.2968C36.687 82.314 36.8157 82.3403 36.9488 82.3758M37.5531 82.8437L38.067 82.8437L38.067 84.4515L37.5531 84.4515L37.5531 82.8437M37.5531 82.2178L38.067 82.2178L38.067 82.637L37.5531 82.637L37.5531 82.2178M39.6576 84.1788C39.5868 84.2725 39.5088 84.3415 39.4236 84.3855C39.3384 84.4295 39.2398 84.4515 39.1279 84.4515C38.9317 84.4515 38.7695 84.3745 38.6412 84.2204C38.513 84.0654 38.4489 83.8682 38.4489 83.629C38.4489 83.3888 38.513 83.1921 38.6412 83.039C38.7695 82.8849 38.9317 82.8078 39.1279 82.8078C39.2398 82.8078 39.3384 82.8299 39.4236 82.8739C39.5088 82.9179 39.5868 82.9873 39.6576 83.082L39.6576 82.8437L40.1744 82.8437L40.1744 84.2893C40.1744 84.5477 40.0925 84.7448 39.9289 84.8807C39.7662 85.0176 39.5298 85.086 39.2197 85.086C39.1193 85.086 39.0221 85.0783 38.9283 85.063C38.8346 85.0477 38.7403 85.0243 38.6455 84.9927L38.6455 84.5922C38.7355 84.6439 38.8235 84.6821 38.9097 84.707C38.9958 84.7329 39.0824 84.7458 39.1695 84.7458C39.3379 84.7458 39.4614 84.7089 39.5399 84.6353C39.6183 84.5616 39.6576 84.4462 39.6576 84.2893L39.6576 84.1788M39.3188 83.1782C39.2126 83.1782 39.1298 83.2174 39.0705 83.2959C39.0111 83.3744 38.9815 83.4854 38.9815 83.629C38.9815 83.7763 39.0102 83.8883 39.0676 83.9649C39.125 84.0405 39.2087 84.0783 39.3188 84.0783C39.426 84.0783 39.5092 84.039 39.5686 83.9606C39.6279 83.8821 39.6576 83.7716 39.6576 83.629C39.6576 83.4854 39.6279 83.3744 39.5686 83.2959C39.5092 83.2174 39.426 83.1782 39.3188 83.1782M42.2874 83.4725L42.2874 84.4515L41.7707 84.4515L41.7707 84.2922L41.7707 83.7022C41.7707 83.5634 41.7673 83.4677 41.7606 83.4151C41.7549 83.3624 41.7443 83.3237 41.729 83.2988C41.7089 83.2653 41.6817 83.2395 41.6472 83.2213C41.6127 83.2021 41.5735 83.1926 41.5295 83.1926C41.4223 83.1926 41.3381 83.2342 41.2768 83.3175C41.2156 83.3998 41.185 83.5141 41.185 83.6605L41.185 84.4515L40.6711 84.4515L40.6711 82.8437L41.185 82.8437L41.185 83.0792C41.2625 82.9854 41.3448 82.9165 41.4319 82.8724C41.519 82.8275 41.6151 82.805 41.7204 82.805C41.9061 82.805 42.0468 82.8619 42.1425 82.9758C42.2391 83.0897 42.2874 83.2552 42.2874 83.4725M43.667 83.0289L44.2541 83.6749C44.3048 83.6079 44.3431 83.5328 44.3689 83.4495C44.3957 83.3663 44.4115 83.272 44.4163 83.1667L44.8628 83.1667C44.8484 83.3409 44.8144 83.4959 44.7608 83.6318C44.7082 83.7677 44.6345 83.8869 44.5398 83.9893L44.9604 84.4515L44.3517 84.4515L44.211 84.295C44.1105 84.362 44.0048 84.4118 43.8938 84.4443C43.7828 84.4769 43.6651 84.4931 43.5406 84.4931C43.289 84.4931 43.0851 84.4271 42.9291 84.295C42.7741 84.162 42.6966 83.9907 42.6966 83.7811C42.6966 83.6414 42.7305 83.5179 42.7985 83.4108C42.8674 83.3026 42.9794 83.1978 43.1344 83.0964C43.0942 83.0457 43.0645 82.9949 43.0454 82.9442C43.0263 82.8935 43.0167 82.8404 43.0167 82.7849C43.0167 82.6289 43.0775 82.504 43.199 82.4102C43.3205 82.3164 43.4823 82.2695 43.6842 82.2695C43.7713 82.2695 43.8617 82.2767 43.9555 82.2911C44.0503 82.3045 44.1488 82.325 44.2512 82.3528L44.2512 82.7519C44.1613 82.7059 44.0761 82.672 43.9957 82.6499C43.9153 82.6279 43.8368 82.6169 43.7603 82.6169C43.6866 82.6169 43.6292 82.6313 43.588 82.66C43.5478 82.6877 43.5277 82.7275 43.5277 82.7791C43.5277 82.8117 43.5392 82.849 43.5622 82.8911C43.5861 82.9323 43.621 82.9782 43.667 83.0289M43.3813 83.3849C43.3191 83.4299 43.2722 83.4811 43.2406 83.5385C43.209 83.595 43.1933 83.6572 43.1933 83.7251C43.1933 83.8352 43.2339 83.929 43.3153 84.0065C43.3966 84.084 43.4942 84.1228 43.6081 84.1228C43.6722 84.1228 43.732 84.1132 43.7876 84.0941C43.8431 84.074 43.8947 84.0443 43.9426 84.0051L43.3813 83.3849M46.0542 83.728C45.947 83.728 45.8662 83.7462 45.8116 83.7826C45.758 83.8189 45.7312 83.8725 45.7312 83.9433C45.7312 84.0084 45.7528 84.0596 45.7958 84.0969C45.8399 84.1333 45.9006 84.1515 45.9781 84.1515C46.0748 84.1515 46.1562 84.117 46.2222 84.0481C46.2882 83.9783 46.3212 83.8912 46.3212 83.7869L46.3212 83.728L46.0542 83.728M46.8395 83.5342L46.8395 84.4515L46.3212 84.4515L46.3212 84.2132C46.2523 84.3108 46.1748 84.3821 46.0887 84.4271C46.0026 84.4711 45.8978 84.4931 45.7743 84.4931C45.6078 84.4931 45.4724 84.4448 45.3681 84.3482C45.2647 84.2505 45.213 84.1242 45.213 83.9692C45.213 83.7806 45.2776 83.6424 45.4068 83.5543C45.537 83.4663 45.7408 83.4222 46.0183 83.4222L46.3212 83.4222L46.3212 83.3821C46.3212 83.3007 46.2892 83.2414 46.2251 83.204C46.1609 83.1658 46.0609 83.1466 45.925 83.1466C45.815 83.1466 45.7126 83.1576 45.6178 83.1796C45.5231 83.2017 45.435 83.2347 45.3537 83.2787L45.3537 82.8868C45.4638 82.86 45.5743 82.8399 45.6853 82.8265C45.7963 82.8122 45.9073 82.805 46.0183 82.805C46.3083 82.805 46.5174 82.8624 46.6457 82.9772C46.7749 83.0911 46.8395 83.2768 46.8395 83.5342M48.6195 82.894L48.6195 83.3131C48.5496 83.2653 48.4793 83.2299 48.4085 83.2069C48.3386 83.184 48.2659 83.1725 48.1903 83.1725C48.0467 83.1725 47.9348 83.2146 47.8544 83.2988C47.7749 83.3821 47.7352 83.4988 47.7352 83.6491C47.7352 83.7993 47.7749 83.9165 47.8544 84.0008C47.9348 84.084 48.0467 84.1256 48.1903 84.1256C48.2707 84.1256 48.3467 84.1137 48.4185 84.0898C48.4913 84.0658 48.5582 84.0304 48.6195 83.9835L48.6195 84.4041C48.5391 84.4338 48.4573 84.4558 48.374 84.4702C48.2917 84.4855 48.2089 84.4931 48.1257 84.4931C47.8357 84.4931 47.6089 84.419 47.4452 84.2706C47.2816 84.1213 47.1998 83.9141 47.1998 83.6491C47.1998 83.384 47.2816 83.1773 47.4452 83.0289C47.6089 82.8796 47.8357 82.805 48.1257 82.805C48.2099 82.805 48.2927 82.8126 48.374 82.8279C48.4563 82.8423 48.5381 82.8643 48.6195 82.894M50.3651 82.894L50.3651 83.3131C50.2952 83.2653 50.2249 83.2299 50.1541 83.2069C50.0842 83.184 50.0115 83.1725 49.9359 83.1725C49.7923 83.1725 49.6803 83.2146 49.5999 83.2988C49.5205 83.3821 49.4808 83.4988 49.4808 83.6491C49.4808 83.7993 49.5205 83.9165 49.5999 84.0008C49.6803 84.084 49.7923 84.1256 49.9359 84.1256C50.0162 84.1256 50.0923 84.1137 50.1641 84.0898C50.2368 84.0658 50.3038 84.0304 50.3651 83.9835L50.3651 84.4041C50.2847 84.4338 50.2029 84.4558 50.1196 84.4702C50.0373 84.4855 49.9545 84.4931 49.8713 84.4931C49.5813 84.4931 49.3545 84.419 49.1908 84.2706C49.0272 84.1213 48.9454 83.9141 48.9454 83.6491C48.9454 83.384 49.0272 83.1773 49.1908 83.0289C49.3545 82.8796 49.5813 82.805 49.8713 82.805C49.9555 82.805 50.0383 82.8126 50.1196 82.8279C50.2019 82.8423 50.2837 82.8643 50.3651 82.894M52.4164 83.6433L52.4164 83.7897L51.2149 83.7897C51.2273 83.9103 51.2709 84.0008 51.3455 84.061C51.4202 84.1213 51.5245 84.1515 51.6585 84.1515C51.7666 84.1515 51.8772 84.1357 51.9901 84.1041C52.104 84.0716 52.2207 84.0228 52.3403 83.9577L52.3403 84.3539C52.2188 84.3998 52.0973 84.4343 51.9757 84.4573C51.8542 84.4812 51.7326 84.4931 51.6111 84.4931C51.3202 84.4931 51.0938 84.4194 50.9321 84.2721C50.7713 84.1237 50.6909 83.9161 50.6909 83.6491C50.6909 83.3868 50.7699 83.1806 50.9278 83.0303C51.0867 82.8801 51.3049 82.805 51.5824 82.805C51.835 82.805 52.037 82.8811 52.1882 83.0332C52.3403 83.1854 52.4164 83.3888 52.4164 83.6433M51.8882 83.4725C51.8882 83.3749 51.8594 83.2964 51.802 83.2371C51.7456 83.1768 51.6714 83.1466 51.5795 83.1466C51.48 83.1466 51.3991 83.1749 51.3369 83.2313C51.2747 83.2868 51.236 83.3672 51.2206 83.4725L51.8882 83.4725M53.3179 84.219L53.3179 85.063L52.804 85.063L52.804 82.8437L53.3179 82.8437L53.3179 83.0792C53.3887 82.9854 53.4672 82.9165 53.5534 82.8724C53.6395 82.8275 53.7385 82.805 53.8505 82.805C54.0486 82.805 54.2113 82.8839 54.3386 83.0418C54.4659 83.1988 54.5295 83.4012 54.5295 83.6491C54.5295 83.8969 54.4659 84.0998 54.3386 84.2577C54.2113 84.4147 54.0486 84.4931 53.8505 84.4931C53.7385 84.4931 53.6395 84.4711 53.5534 84.4271C53.4672 84.3821 53.3887 84.3127 53.3179 84.219M53.6596 83.1782C53.5495 83.1782 53.4648 83.2189 53.4055 83.3002C53.3471 83.3806 53.3179 83.4969 53.3179 83.6491C53.3179 83.8012 53.3471 83.918 53.4055 83.9993C53.4648 84.0797 53.5495 84.1199 53.6596 84.1199C53.7696 84.1199 53.8534 84.0797 53.9108 83.9993C53.9692 83.9189 53.9984 83.8022 53.9984 83.6491C53.9984 83.4959 53.9692 83.3792 53.9108 83.2988C53.8534 83.2184 53.7696 83.1782 53.6596 83.1782M55.4726 82.3872L55.4726 82.8437L56.0023 82.8437L56.0023 83.2112L55.4726 83.2112L55.4726 83.8931C55.4726 83.9677 55.4875 84.0185 55.5171 84.0453C55.5468 84.0711 55.6057 84.084 55.6937 84.084L55.9578 84.084L55.9578 84.4515L55.5171 84.4515C55.3143 84.4515 55.1702 84.4094 55.085 84.3252C55.0008 84.24 54.9587 84.096 54.9587 83.8931L54.9587 83.2112L54.7032 83.2112L54.7032 82.8437L54.9587 82.8437L54.9587 82.3872L55.4726 82.3872"  />
  </g>
</svg>
