<?xml version="1.0" standalone="no"?>
<!DOCTYPE svg PUBLIC "-//W3C//DTD SVG 20010904//EN" "http://www.w3.org/TR/2001/REC-SVG-20010904/DTD/svg10.dtd">
<!-- Created using Karbon14, part of koffice: http://www.koffice.org/karbon -->
<svg xmlns="http://www.w3.org/2000/svg" xmlns:xlink="http://www.w3.org/1999/xlink" width="128px" height="128px">
  <defs>
    <radialGradient id="defitem0" gradientUnits="userSpaceOnUse" cx="64.0002" cy="122.802" fx="64.0002" fy="122.802" r="61.5368" >
      <stop stop-color="#000000" offset="0" stop-opacity="1" />
      <stop stop-color="#000000" offset="1" stop-opacity="0" />
    </radialGradient>
    <linearGradient id="defitem1" gradientUnits="userSpaceOnUse" x1="64.0002" y1="128" x2="64.0002" y2="122.802" >
      <stop stop-color="#ffffff" offset="0" stop-opacity="1" />
      <stop stop-color="#ffffff" offset="1" stop-opacity="0" />
    </linearGradient>
    <linearGradient id="defitem2" gradientUnits="userSpaceOnUse" x1="64.0002" y1="117.18" x2="64.0002" y2="122.802" >
      <stop stop-color="#ffffff" offset="0" stop-opacity="1" />
      <stop stop-color="#ffffff" offset="1" stop-opacity="0" />
    </linearGradient>
    <radialGradient id="defitem3" gradientUnits="userSpaceOnUse" cx="4" cy="0.25" fx="4" fy="0.25" r="128.035" >
      <stop stop-color="#f2f2f2" offset="0" stop-opacity="1" />
      <stop stop-color="#c3c3c3" offset="1" stop-opacity="1" />
    </radialGradient>
    <radialGradient id="defitem4" gradientUnits="userSpaceOnUse" cx="99" cy="100.75" fx="99" fy="100.75" r="103.251" >
      <stop stop-color="#525456" offset="0" stop-opacity="1" />
      <stop stop-color="#89898c" offset="0.113661" stop-opacity="1" />
      <stop stop-color="#ebebeb" offset="0.202967" stop-opacity="1" />
      <stop stop-color="#f9f9f9" offset="0.2363" stop-opacity="1" />
      <stop stop-color="#ffffff" offset="0.2722" stop-opacity="1" />
      <stop stop-color="#f9f9f9" offset="0.5313" stop-opacity="1" />
      <stop stop-color="#ebebeb" offset="0.8449" stop-opacity="1" />
      <stop stop-color="#e1e2e2" offset="1" stop-opacity="1" />
    </radialGradient>
    <linearGradient id="defitem5" gradientUnits="userSpaceOnUse" x1="93.9437" y1="96.8216" x2="86.458" y2="89.3359" >
      <stop stop-color="#878985" offset="0" stop-opacity="1" />
      <stop stop-color="#8c8e89" offset="0.0072" stop-opacity="1" />
      <stop stop-color="#aaaca8" offset="0.0673" stop-opacity="1" />
      <stop stop-color="#c3c6c3" offset="0.1347" stop-opacity="1" />
      <stop stop-color="#dbdbda" offset="0.265258" stop-opacity="1" />
      <stop stop-color="#ebebeb" offset="0.376461" stop-opacity="1" />
      <stop stop-color="#f6f6f6" offset="0.487403" stop-opacity="1" />
      <stop stop-color="#fdfdfd" offset="0.632409" stop-opacity="1" />
      <stop stop-color="#ffffff" offset="1" stop-opacity="1" />
    </linearGradient>
    <linearGradient id="defitem6" gradientUnits="userSpaceOnUse" x1="61.3351" y1="103.356" x2="53.9319" y2="64.9071" >
      <stop stop-color="#000000" offset="0" stop-opacity="1" />
      <stop stop-color="#000000" offset="1" stop-opacity="0" />
    </linearGradient>
    <linearGradient id="defitem7" gradientUnits="userSpaceOnUse" x1="50.0306" y1="86.2304" x2="54.1298" y2="84.6602" >
      <stop stop-color="#313131" offset="0" stop-opacity="1" />
      <stop stop-color="#dfe1e1" offset="0.0769231" stop-opacity="1" />
      <stop stop-color="#b6b1b1" offset="0.262891" stop-opacity="1" />
      <stop stop-color="#8c8282" offset="0.5" stop-opacity="1" />
      <stop stop-color="#ffffff" offset="0.782016" stop-opacity="1" />
      <stop stop-color="#dfd8df" offset="0.90059" stop-opacity="1" />
      <stop stop-color="#3a3a3a" offset="1" stop-opacity="1" />
    </linearGradient>
    <linearGradient id="defitem8" gradientUnits="userSpaceOnUse" x1="42.2908" y1="65.4056" x2="46.0374" y2="63.9704" >
      <stop stop-color="#313131" offset="0" stop-opacity="1" />
      <stop stop-color="#dfe1e1" offset="0.0769231" stop-opacity="1" />
      <stop stop-color="#b6b1b1" offset="0.262891" stop-opacity="1" />
      <stop stop-color="#8c8282" offset="0.5" stop-opacity="1" />
      <stop stop-color="#ffffff" offset="0.782016" stop-opacity="1" />
      <stop stop-color="#dfd8df" offset="0.90059" stop-opacity="1" />
      <stop stop-color="#3a3a3a" offset="1" stop-opacity="1" />
    </linearGradient>
    <linearGradient id="defitem9" gradientUnits="userSpaceOnUse" x1="77.6378" y1="93.0277" x2="54.1297" y2="84.6601" >
      <stop stop-color="#000000" offset="0" stop-opacity="1" />
      <stop stop-color="#000000" offset="1" stop-opacity="0" />
    </linearGradient>
    <linearGradient id="defitem10" gradientUnits="userSpaceOnUse" x1="46.7116" y1="78.0615" x2="51.3952" y2="76.2674" >
      <stop stop-color="#313131" offset="0" stop-opacity="1" />
      <stop stop-color="#dfe1e1" offset="0.0769231" stop-opacity="1" />
      <stop stop-color="#b6b1b1" offset="0.262891" stop-opacity="1" />
      <stop stop-color="#8c8282" offset="0.5" stop-opacity="1" />
      <stop stop-color="#ffffff" offset="0.782016" stop-opacity="1" />
      <stop stop-color="#dfd8df" offset="0.90059" stop-opacity="1" />
      <stop stop-color="#3a3a3a" offset="1" stop-opacity="1" />
    </linearGradient>
    <linearGradient id="defitem11" gradientUnits="userSpaceOnUse" x1="44.1879" y1="61.8595" x2="42.3595" y2="59.5483" >
      <stop stop-color="#232323" offset="0" stop-opacity="1" />
      <stop stop-color="#232323" offset="1" stop-opacity="0" />
    </linearGradient>
    <linearGradient id="defitem12" gradientUnits="userSpaceOnUse" x1="41.365" y1="57.5429" x2="41.6949" y2="58.4344" >
      <stop stop-color="#000000" offset="0" stop-opacity="1" />
      <stop stop-color="#000000" offset="1" stop-opacity="0" />
    </linearGradient>
    <linearGradient id="defitem13" gradientUnits="userSpaceOnUse" x1="40.2157" y1="61.1025" x2="40.2545" y2="61.2036" >
      <stop stop-color="#000000" offset="0" stop-opacity="1" />
      <stop stop-color="#000000" offset="1" stop-opacity="0" />
    </linearGradient>
    <linearGradient id="defitem14" gradientUnits="userSpaceOnUse" x1="32.6569" y1="92.3895" x2="47.2127" y2="79.4115" >
      <stop stop-color="#000000" offset="0" stop-opacity="1" />
      <stop stop-color="#000000" offset="1" stop-opacity="0" />
    </linearGradient>
    <linearGradient id="defitem15" gradientUnits="userSpaceOnUse" x1="50.1375" y1="51.1841" x2="54.177" y2="77.6442" >
      <stop stop-color="#000000" offset="0" stop-opacity="1" />
      <stop stop-color="#000000" offset="1" stop-opacity="0" />
    </linearGradient>
    <linearGradient id="defitem16" gradientUnits="userSpaceOnUse" x1="44.7018" y1="61.4646" x2="45.2458" y2="62.8847" >
      <stop stop-color="#0000ff" offset="0" stop-opacity="1" />
      <stop stop-color="#0000ff" offset="1" stop-opacity="0" />
    </linearGradient>
    <linearGradient id="defitem17" gradientUnits="userSpaceOnUse" x1="48.6121" y1="67.6385" x2="47.2695" y2="68.3512" >
      <stop stop-color="#313131" offset="0" stop-opacity="1" />
      <stop stop-color="#dfe1e1" offset="0.0769231" stop-opacity="1" />
      <stop stop-color="#e2dbdb" offset="0.5" stop-opacity="1" />
      <stop stop-color="#ffffff" offset="0.782016" stop-opacity="1" />
      <stop stop-color="#dfd8df" offset="0.90059" stop-opacity="1" />
      <stop stop-color="#3a3a3a" offset="1" stop-opacity="1" />
    </linearGradient>
    <linearGradient id="defitem18" gradientUnits="userSpaceOnUse" x1="51.1338" y1="75.7708" x2="50.8352" y2="75.2763" >
      <stop stop-color="#000000" offset="0" stop-opacity="1" />
      <stop stop-color="#000000" offset="1" stop-opacity="0" />
    </linearGradient>
    <radialGradient id="defitem19" gradientUnits="userSpaceOnUse" cx="57.4478" cy="99.5912" fx="57.5664" fy="99.5742" r="0.163" >
      <stop stop-color="#ffffff" offset="0" stop-opacity="1" />
      <stop stop-color="#b8aab8" offset="0.35989" stop-opacity="1" />
      <stop stop-color="#dfd8df" offset="0.71978" stop-opacity="1" />
      <stop stop-color="#3a3a3a" offset="1" stop-opacity="1" />
    </radialGradient>
    <linearGradient id="defitem20" gradientUnits="userSpaceOnUse" x1="57.4487" y1="99.5372" x2="57.4784" y2="99.6152" >
      <stop stop-color="#000000" offset="0" stop-opacity="1" />
      <stop stop-color="#000000" offset="1" stop-opacity="0" />
    </linearGradient>
    <linearGradient id="defitem21" gradientUnits="userSpaceOnUse" x1="55.5303" y1="96.3342" x2="56.7777" y2="95.8562" >
      <stop stop-color="#313131" offset="0" stop-opacity="1" />
      <stop stop-color="#dfe1e1" offset="0.0769231" stop-opacity="1" />
      <stop stop-color="#b6b1b1" offset="0.262891" stop-opacity="1" />
      <stop stop-color="#8c8282" offset="0.5" stop-opacity="1" />
      <stop stop-color="#ffffff" offset="0.782016" stop-opacity="1" />
      <stop stop-color="#dfd8df" offset="0.90059" stop-opacity="1" />
      <stop stop-color="#3a3a3a" offset="1" stop-opacity="1" />
    </linearGradient>
    <linearGradient id="defitem22" gradientUnits="userSpaceOnUse" x1="56.4518" y1="99.0342" x2="57.7583" y2="98.6312" >
      <stop stop-color="#313131" offset="0" stop-opacity="1" />
      <stop stop-color="#dfe1e1" offset="0.0769231" stop-opacity="1" />
      <stop stop-color="#b6b1b1" offset="0.262891" stop-opacity="1" />
      <stop stop-color="#8c8282" offset="0.5" stop-opacity="1" />
      <stop stop-color="#ffffff" offset="0.782016" stop-opacity="1" />
      <stop stop-color="#dfd8df" offset="0.90059" stop-opacity="1" />
      <stop stop-color="#3a3a3a" offset="1" stop-opacity="1" />
    </linearGradient>
    <linearGradient id="defitem23" gradientUnits="userSpaceOnUse" x1="56.6502" y1="98.9212" x2="56.7736" y2="98.8452" >
      <stop stop-color="#000000" offset="0" stop-opacity="1" />
      <stop stop-color="#000000" offset="0.258242" stop-opacity="0.494585" />
      <stop stop-color="#000000" offset="1" stop-opacity="0" />
    </linearGradient>
    <linearGradient id="defitem24" gradientUnits="userSpaceOnUse" x1="56.3605" y1="99.1912" x2="56.8491" y2="98.7282" >
      <stop stop-color="#000000" offset="0" stop-opacity="1" />
      <stop stop-color="#000000" offset="0.258242" stop-opacity="0.494585" />
      <stop stop-color="#000000" offset="1" stop-opacity="0" />
    </linearGradient>
    <linearGradient id="defitem25" gradientUnits="userSpaceOnUse" x1="53.0482" y1="95.2882" x2="57.3646" y2="94.1177" >
      <stop stop-color="#313131" offset="0" stop-opacity="1" />
      <stop stop-color="#dfe1e1" offset="0.0769231" stop-opacity="1" />
      <stop stop-color="#b6b1b1" offset="0.262891" stop-opacity="1" />
      <stop stop-color="#8c8282" offset="0.5" stop-opacity="1" />
      <stop stop-color="#ffffff" offset="0.782016" stop-opacity="1" />
      <stop stop-color="#dfd8df" offset="0.90059" stop-opacity="1" />
      <stop stop-color="#3a3a3a" offset="1" stop-opacity="1" />
    </linearGradient>
    <linearGradient id="defitem26" gradientUnits="userSpaceOnUse" x1="61.9674" y1="112.444" x2="54.0564" y2="91.7915" >
      <stop stop-color="#000000" offset="0" stop-opacity="1" />
      <stop stop-color="#000000" offset="0.258242" stop-opacity="0.494585" />
      <stop stop-color="#000000" offset="1" stop-opacity="0" />
    </linearGradient>
    <linearGradient id="defitem27" gradientUnits="userSpaceOnUse" x1="53.8752" y1="95.1191" x2="54.2993" y2="94.8546" >
      <stop stop-color="#000000" offset="0" stop-opacity="1" />
      <stop stop-color="#000000" offset="0.258242" stop-opacity="0.494585" />
      <stop stop-color="#000000" offset="1" stop-opacity="0" />
    </linearGradient>
    <linearGradient id="defitem28" gradientUnits="userSpaceOnUse" x1="53.8007" y1="91.9216" x2="54.1776" y2="92.9056" >
      <stop stop-color="#000000" offset="0" stop-opacity="1" />
      <stop stop-color="#000000" offset="0.258242" stop-opacity="0.494585" />
      <stop stop-color="#000000" offset="1" stop-opacity="0" />
    </linearGradient>
    <linearGradient id="defitem29" gradientUnits="userSpaceOnUse" x1="50.9796" y1="94.9563" x2="55.8726" y2="94.2653" >
      <stop stop-color="#000000" offset="0" stop-opacity="1" />
      <stop stop-color="#000000" offset="0.258242" stop-opacity="0.494585" />
      <stop stop-color="#000000" offset="1" stop-opacity="0" />
    </linearGradient>
    <linearGradient id="defitem30" gradientUnits="userSpaceOnUse" x1="56.1729" y1="88.1371" x2="53.4321" y2="89.9769" >
      <stop stop-color="#f9f9f9" offset="0" stop-opacity="1" />
      <stop stop-color="#f9f9f9" offset="1" stop-opacity="0" />
    </linearGradient>
  </defs>
  <g id="Layer">
    <g id="Layer">
      <g id="sombra">
        <path id="path1563" fill="url(#defitem0)" stroke-width="0" stroke-linecap="round" stroke-linejoin="round" d="M128 122.802C128 125.667 99.3468 127.99 64.0002 127.99C28.6539 127.99 0.000171 125.667 0.000171 122.802C0.000171 119.937 28.6539 117.614 64.0002 117.614C99.3468 117.614 128 119.937 128 122.802L128 122.802Z"  />
        <path id="path3251" fill="url(#defitem1)" stroke-width="0" stroke-linecap="round" stroke-linejoin="round" d="M128 122.802L0.00017 122.802C0.00017 125.673 28.6539 128 64.0002 128C99.3468 128 128 125.673 128 122.802L128 122.802Z"  />
        <path id="path2455" fill="url(#defitem2)" stroke-width="0" stroke-linecap="round" stroke-linejoin="round" d="M128 122.802L0.00017 122.802C0.00017 119.697 28.6539 117.18 64.0002 117.18C99.3468 117.18 128 119.697 128 122.802L128 122.802Z"  />
        <path id="path2440" fill="#ffffff" fill-opacity="0.5" stroke-width="0" stroke-linecap="round" stroke-linejoin="round" d="M64 117.184C29.7583 117.184 1.77662 119.526 0.0625 122.496C0.000125 122.59 0 122.714 0 122.809C0 122.988 0.094004 123.134 0.3125 123.309C0.425013 123.402 0.546842 123.499 0.71875 123.59C1.85178 124.191 4.27039 124.763 7.71875 125.278C9.68924 125.572 11.9852 125.833 14.5938 126.09C18.5066 126.474 23.1115 126.81 28.2188 127.09C33.326 127.37 38.9567 127.594 44.9688 127.746C50.9808 127.898 57.3726 127.996 64 127.996C70.6275 127.996 77.0192 127.898 83.0313 127.746C89.0433 127.594 94.6741 127.37 99.7813 127.09C104.888 126.81 109.462 126.474 113.375 126.09C115.984 125.833 118.311 125.572 120.281 125.278C123.73 124.763 126.117 124.191 127.25 123.59C127.422 123.499 127.544 123.402 127.656 123.309C127.766 123.222 127.851 123.147 127.906 123.059C127.962 122.97 128 122.898 128 122.809C128 122.714 127.969 122.59 127.906 122.496C126.192 119.526 98.242 117.184 64 117.184Z"  />
      </g>
    </g>
    <g id="g3172">
      <path id="path6210" fill="#f6f6f6" fill-opacity="0.75" stroke="#000000" stroke-opacity="0.05" stroke-width="9.98122" stroke-linejoin="round" d="M19.0845 6.991L19.0845 109.922C19.0845 110.955 19.9229 111.793 20.956 111.793L76.3256 111.793C76.8215 111.793 77.2978 111.596 77.6487 111.245L108.367 80.5266C108.718 80.1757 108.915 79.6994 108.915 79.2035L108.915 6.991L19.0845 6.991Z"  />
      <path id="path6212" fill="none" stroke="#000000" stroke-opacity="0.1" stroke-width="7.48591" stroke-linejoin="round" d="M19.0845 6.991L19.0845 109.922C19.0845 110.955 19.9229 111.793 20.956 111.793L76.3256 111.793C76.8215 111.793 77.2978 111.596 77.6487 111.245L108.367 80.5266C108.718 80.1757 108.915 79.6994 108.915 79.2035L108.915 6.991L19.0845 6.991Z"  />
      <path id="path6214" fill="none" stroke="#000000" stroke-opacity="0.15" stroke-width="4.99061" stroke-linejoin="round" d="M19.0845 6.991L19.0845 109.922C19.0845 110.955 19.9229 111.793 20.956 111.793L76.3256 111.793C76.8215 111.793 77.2978 111.596 77.6487 111.245L108.367 80.5266C108.718 80.1757 108.915 79.6994 108.915 79.2035L108.915 6.991L19.0845 6.991Z"  />
      <path id="path6216" fill="none" stroke="#000000" stroke-opacity="0.2" stroke-width="2.4953" stroke-linejoin="round" d="M19.0845 6.991L19.0845 109.922C19.0845 110.955 19.9229 111.793 20.956 111.793L76.3256 111.793C76.8215 111.793 77.2978 111.596 77.6487 111.245L108.367 80.5266C108.718 80.1757 108.915 79.6994 108.915 79.2035L108.915 6.991L19.0845 6.991Z"  />
      <path id="path6218" fill="url(#defitem3)" d="M19.0845 6.991L19.0845 109.922C19.0845 110.955 19.9229 111.793 20.956 111.793L76.3256 111.793C76.8215 111.793 77.2978 111.596 77.6487 111.245L108.367 80.5266C108.718 80.1757 108.915 79.6994 108.915 79.2035L108.915 6.991L19.0845 6.991Z"  />
      <path id="path6220" fill="url(#defitem4)" d="M22.4824 9.69C21.9851 9.69 21.5798 10.096 21.5798 10.594L21.5798 108.19C21.5798 108.689 21.9851 109.094 22.4824 109.094L75.8885 109.094C76.1259 109.094 76.3587 108.998 76.5266 108.829L106.156 79.1633C106.325 78.9943 106.42 78.7621 106.42 78.5244L106.42 10.594C106.42 10.096 106.016 9.69 105.518 9.69L22.4824 9.69Z"  />
      <path id="path6222" fill="url(#defitem5)" d="M77.6487 111.245C77.6487 111.245 88.7971 101.968 93.9437 96.8216C99.0903 91.675 108.367 80.5266 108.367 80.5266C108.367 80.5266 96.0491 89.3357 86.4578 89.3357C86.4578 98.927 77.6487 111.245 77.6487 111.245Z"  />
      <path id="path439" fill="#008200" stroke-width="2.93535" stroke-linecap="round" stroke-linejoin="round" d="M36.0112 106.499C36.0112 107.876 35.0542 108.994 33.8752 108.994L23.9592 108.994C22.7802 108.994 21.8232 107.876 21.8232 106.499L21.8232 12.109C21.8232 10.732 22.7802 9.614 23.9592 9.614L33.8752 9.614C35.0542 9.614 36.0112 10.732 36.0112 12.109L36.0112 106.499Z"  />
    </g>
    <g id="g3136">
      <path id="text3688" fill="#008200" stroke-width="0.847914" d="M42.24 19.404L42.8661 19.404L42.8661 23.463L45.1192 23.463L45.1192 23.985L42.24 23.985L42.24 19.404M46.9819 20.943C46.6762 20.943 46.4343 21.062 46.2567 21.3C46.079 21.535 45.9901 21.858 45.9901 22.27C45.9901 22.681 46.078 23.005 46.2536 23.242C46.4313 23.477 46.6741 23.595 46.9819 23.595C47.2857 23.595 47.5264 23.476 47.7041 23.239C47.8817 23.002 47.9706 22.678 47.9706 22.27C47.9706 21.863 47.8817 21.54 47.7041 21.303C47.5264 21.064 47.2857 20.943 46.9819 20.943M46.9819 20.465C47.4778 20.465 47.8673 20.625 48.1504 20.943C48.4335 21.263 48.575 21.705 48.575 22.27C48.575 22.832 48.4335 23.274 48.1504 23.595C47.8673 23.915 47.4778 24.074 46.9819 24.074C46.484 24.074 46.0935 23.915 45.8104 23.595C45.5294 23.274 45.3889 22.832 45.3889 22.27C45.3889 21.705 45.5294 21.263 45.8104 20.943C46.0935 20.625 46.484 20.465 46.9819 20.465M51.5286 21.076C51.4646 21.039 51.3943 21.012 51.3179 20.996C51.2435 20.977 51.1609 20.968 51.07 20.968C50.7476 20.968 50.4997 21.072 50.3261 21.282C50.1546 21.488 50.0688 21.785 50.0688 22.175L50.0688 23.985L49.4955 23.985L49.4955 20.548L50.0688 20.548L50.0688 21.082C50.1887 20.873 50.3447 20.719 50.5369 20.619C50.729 20.516 50.9625 20.465 51.2373 20.465C51.2765 20.465 51.3199 20.469 51.3675 20.475C51.415 20.479 51.4677 20.486 51.5256 20.496L51.5286 21.076M55.1021 22.125L55.1021 22.401L52.4801 22.401C52.5049 22.79 52.6227 23.087 52.8335 23.291C53.0463 23.494 53.3417 23.595 53.7199 23.595C53.9389 23.595 54.1507 23.569 54.3552 23.515C54.5619 23.462 54.7664 23.382 54.9689 23.276L54.9689 23.809C54.7643 23.896 54.5546 23.961 54.3397 24.006C54.1248 24.051 53.9068 24.074 53.6858 24.074C53.132 24.074 52.693 23.915 52.3686 23.595C52.0463 23.276 51.8851 22.845 51.8851 22.3C51.8851 21.738 52.038 21.292 52.3438 20.962C52.6516 20.631 53.0659 20.465 53.5866 20.465C54.0535 20.465 54.4224 20.614 54.693 20.913C54.9658 21.21 55.1021 21.614 55.1021 22.125M54.5318 21.959C54.5278 21.651 54.4399 21.404 54.2685 21.22C54.099 21.036 53.8738 20.943 53.5928 20.943C53.2746 20.943 53.0194 21.033 52.8273 21.211C52.6372 21.389 52.5276 21.64 52.4987 21.963L54.5318 21.959M58.7408 21.208C58.8833 20.955 59.0538 20.767 59.2522 20.646C59.4505 20.525 59.684 20.465 59.9526 20.465C60.3142 20.465 60.5932 20.591 60.7894 20.843C60.9857 21.092 61.0838 21.448 61.0838 21.91L61.0838 23.985L60.5105 23.985L60.5105 21.929C60.5105 21.6 60.4516 21.355 60.3338 21.195C60.216 21.036 60.0362 20.956 59.7945 20.956C59.4991 20.956 59.2656 21.054 59.094 21.248C58.9226 21.442 58.8369 21.707 58.8369 22.042L58.8369 23.985L58.2634 23.985L58.2634 21.929C58.2634 21.597 58.2046 21.353 58.0868 21.195C57.969 21.036 57.7872 20.956 57.5413 20.956C57.25 20.956 57.0186 21.055 56.8471 21.25C56.6755 21.445 56.5898 21.709 56.5898 22.042L56.5898 23.985L56.0165 23.985L56.0165 20.548L56.5898 20.548L56.5898 21.082C56.72 20.871 56.876 20.715 57.0579 20.615C57.2397 20.515 57.4555 20.465 57.7056 20.465C57.9577 20.465 58.1715 20.529 58.3471 20.655C58.5248 20.782 58.656 20.966 58.7408 21.208M64.2451 20.548L64.8154 20.548L64.8154 23.985L64.2451 23.985L64.2451 20.548M64.2451 19.21L64.8154 19.21L64.8154 19.925L64.2451 19.925L64.2451 19.21M66.5572 23.469L66.5572 25.292L65.9839 25.292L65.9839 20.548L66.5572 20.548L66.5572 21.07C66.6771 20.865 66.828 20.714 67.0097 20.615C67.1937 20.515 67.4127 20.465 67.6668 20.465C68.0883 20.465 68.4303 20.631 68.6927 20.962C68.9571 21.294 69.0894 21.73 69.0894 22.27C69.0894 22.81 68.9571 23.246 68.6927 23.576C68.4303 23.908 68.0883 24.074 67.6668 24.074C67.4127 24.074 67.1937 24.025 67.0097 23.926C66.828 23.826 66.6771 23.674 66.5572 23.469M68.4974 22.27C68.4974 21.854 68.4107 21.529 68.2371 21.294C68.0656 21.056 67.829 20.938 67.5273 20.938C67.2257 20.938 66.988 21.056 66.8145 21.294C66.643 21.529 66.5572 21.854 66.5572 22.27C66.5572 22.685 66.643 23.011 66.8145 23.248C66.988 23.484 67.2257 23.601 67.5273 23.601C67.829 23.601 68.0656 23.484 68.2371 23.248C68.4107 23.011 68.4974 22.685 68.4974 22.27M72.2476 20.649L72.2476 21.183C72.0865 21.101 71.9191 21.04 71.7455 20.999C71.5719 20.958 71.3922 20.938 71.2062 20.938C70.9231 20.938 70.7104 20.981 70.5678 21.066C70.4273 21.153 70.3571 21.282 70.3571 21.453C70.3571 21.585 70.4077 21.687 70.5089 21.763C70.6102 21.837 70.8137 21.908 71.1194 21.975L71.3147 22.018C71.7197 22.103 72.0069 22.226 72.1763 22.383C72.3478 22.538 72.4336 22.756 72.4336 23.037C72.4336 23.356 72.3055 23.608 72.0492 23.794C71.7951 23.981 71.4448 24.074 70.9986 24.074C70.8126 24.074 70.6184 24.055 70.4159 24.019C70.2155 23.984 70.0037 23.931 69.7806 23.859L69.7806 23.276C69.9913 23.385 70.1989 23.466 70.4035 23.521C70.608 23.575 70.8105 23.601 71.011 23.601C71.2796 23.601 71.4862 23.556 71.6309 23.466C71.7754 23.374 71.8478 23.246 71.8478 23.079C71.8478 22.926 71.7951 22.809 71.6897 22.727C71.5864 22.645 71.3581 22.566 71.0048 22.49L70.8064 22.444C70.4531 22.371 70.1979 22.259 70.0409 22.107C69.8838 21.953 69.8053 21.744 69.8053 21.478C69.8053 21.155 69.9211 20.905 70.1525 20.729C70.3838 20.553 70.7124 20.465 71.1381 20.465C71.3488 20.465 71.5472 20.481 71.7331 20.511C71.9191 20.542 72.0905 20.588 72.2476 20.649M73.2859 22.628L73.2859 20.548L73.8561 20.548L73.8561 22.607C73.8561 22.932 73.9202 23.177 74.0483 23.341C74.1764 23.502 74.3685 23.583 74.6248 23.583C74.9327 23.583 75.1754 23.486 75.3531 23.291C75.5329 23.097 75.6228 22.832 75.6228 22.497L75.6228 20.548L76.1931 20.548L76.1931 23.985L75.6228 23.985L75.6228 23.457C75.4843 23.665 75.3232 23.821 75.1393 23.923C74.9574 24.024 74.7457 24.074 74.5039 24.074C74.1051 24.074 73.8025 23.951 73.5958 23.705C73.3892 23.46 73.2859 23.101 73.2859 22.628M80.0765 21.208C80.2191 20.955 80.3895 20.767 80.5879 20.646C80.7862 20.525 81.0197 20.465 81.2884 20.465C81.6499 20.465 81.9289 20.591 82.1252 20.843C82.3215 21.092 82.4196 21.448 82.4196 21.91L82.4196 23.985L81.8462 23.985L81.8462 21.929C81.8462 21.6 81.7873 21.355 81.6696 21.195C81.5517 21.036 81.372 20.956 81.1302 20.956C80.8348 20.956 80.6013 21.054 80.4298 21.248C80.2583 21.442 80.1726 21.707 80.1726 22.042L80.1726 23.985L79.5992 23.985L79.5992 21.929C79.5992 21.597 79.5403 21.353 79.4225 21.195C79.3048 21.036 79.123 20.956 78.8771 20.956C78.5857 20.956 78.3543 21.055 78.1828 21.25C78.0113 21.445 77.9255 21.709 77.9255 22.042L77.9255 23.985L77.3522 23.985L77.3522 20.548L77.9255 20.548L77.9255 21.082C78.0558 20.871 78.2117 20.715 78.3936 20.615C78.5754 20.515 78.7913 20.465 79.0413 20.465C79.2934 20.465 79.5072 20.529 79.6829 20.655C79.8606 20.782 79.9918 20.966 80.0765 21.208M87.8651 21.07L87.8651 19.21L88.4353 19.21L88.4353 23.985L87.8651 23.985L87.8651 23.469C87.7452 23.674 87.5934 23.826 87.4095 23.926C87.2277 24.025 87.0086 24.074 86.7524 24.074C86.333 24.074 85.9911 23.908 85.7265 23.576C85.4642 23.246 85.3329 22.81 85.3329 22.27C85.3329 21.73 85.4642 21.294 85.7265 20.962C85.9911 20.631 86.333 20.465 86.7524 20.465C87.0086 20.465 87.2277 20.515 87.4095 20.615C87.5934 20.714 87.7452 20.865 87.8651 21.07M85.9218 22.27C85.9218 22.685 86.0076 23.011 86.179 23.248C86.3526 23.484 86.5902 23.601 86.8919 23.601C87.1936 23.601 87.4312 23.484 87.6047 23.248C87.7783 23.011 87.865 22.685 87.8651 22.27C87.865 21.854 87.7783 21.529 87.6047 21.294C87.4312 21.056 87.1936 20.938 86.8919 20.938C86.5902 20.938 86.3526 21.056 86.179 21.294C86.0076 21.529 85.9218 21.854 85.9218 22.27M90.9551 20.943C90.6493 20.943 90.4076 21.062 90.2299 21.3C90.0521 21.535 89.9634 21.858 89.9634 22.27C89.9634 22.681 90.0511 23.005 90.2267 23.242C90.4045 23.477 90.6472 23.595 90.9551 23.595C91.2588 23.595 91.4995 23.476 91.6773 23.239C91.855 23.002 91.9438 22.678 91.9438 22.27C91.9438 21.863 91.855 21.54 91.6773 21.303C91.4995 21.064 91.2588 20.943 90.9551 20.943M90.9551 20.465C91.451 20.465 91.8405 20.625 92.1235 20.943C92.4066 21.263 92.5482 21.705 92.5482 22.27C92.5482 22.832 92.4066 23.274 92.1235 23.595C91.8405 23.915 91.451 24.074 90.9551 24.074C90.4571 24.074 90.0666 23.915 89.7835 23.595C89.5025 23.274 89.362 22.832 89.362 22.27C89.362 21.705 89.5025 21.263 89.7835 20.943C90.0666 20.625 90.4571 20.465 90.9551 20.465M93.4904 19.21L94.0607 19.21L94.0607 23.985L93.4904 23.985L93.4904 19.21M96.5958 20.943C96.2901 20.943 96.0483 21.062 95.8706 21.3C95.693 21.535 95.6041 21.858 95.6041 22.27C95.6041 22.681 95.6919 23.005 95.8676 23.242C96.0452 23.477 96.288 23.595 96.5958 23.595C96.8996 23.595 97.1403 23.476 97.318 23.239C97.4957 23.002 97.5846 22.678 97.5846 22.27C97.5846 21.863 97.4957 21.54 97.318 21.303C97.1403 21.064 96.8996 20.943 96.5958 20.943M96.5958 20.465C97.0918 20.465 97.4812 20.625 97.7643 20.943C98.0471 21.263 98.1887 21.705 98.1887 22.27C98.1887 22.832 98.0471 23.274 97.7643 23.595C97.4812 23.915 97.0918 24.074 96.5958 24.074C96.0979 24.074 95.7074 23.915 95.4244 23.595C95.1434 23.274 95.0029 22.832 95.0029 22.27C95.0029 21.705 95.1434 21.263 95.4244 20.943C95.7074 20.625 96.0979 20.465 96.5958 20.465M101.143 21.076C101.078 21.039 101.008 21.012 100.932 20.996C100.857 20.977 100.775 20.968 100.684 20.968C100.362 20.968 100.114 21.072 99.9397 21.282C99.7684 21.488 99.6828 21.785 99.6828 22.175L99.6828 23.985L99.1096 23.985L99.1096 20.548L99.6828 20.548L99.6828 21.082C99.8023 20.873 99.9583 20.719 100.151 20.619C100.343 20.516 100.577 20.465 100.851 20.465C100.89 20.465 100.934 20.469 100.982 20.475C101.029 20.479 101.082 20.486 101.14 20.496L101.143 21.076M44.4281 36.3598L44.4281 36.8937C44.2669 36.8119 44.0995 36.7505 43.926 36.7096C43.7525 36.6687 43.5726 36.6482 43.3867 36.6482C43.1037 36.6482 42.8908 36.6912 42.7483 36.7771C42.6078 36.863 42.5375 36.9919 42.5375 37.1638C42.5375 37.2947 42.5881 37.398 42.6894 37.4737C42.7906 37.5473 42.9941 37.6179 43.2999 37.6854L43.4952 37.7283C43.9002 37.8143 44.1874 37.936 44.3568 38.0935C44.5283 38.2489 44.614 38.4669 44.614 38.7471C44.614 39.0662 44.4859 39.3188 44.2298 39.505C43.9756 39.6912 43.6254 39.7843 43.179 39.7843C42.9931 39.7843 42.7989 39.7658 42.5964 39.729C42.396 39.6942 42.1842 39.641 41.961 39.5694L41.961 38.9865C42.1718 39.0948 42.3795 39.1766 42.584 39.2319C42.7886 39.2851 42.9911 39.3117 43.1915 39.3117C43.46 39.3117 43.6667 39.2667 43.8113 39.1766C43.956 39.0846 44.0283 38.9558 44.0283 38.7901C44.0283 38.6366 43.9756 38.519 43.8703 38.4372C43.7669 38.3554 43.5386 38.2766 43.1852 38.2009L42.9869 38.1549C42.6336 38.0812 42.3784 37.9687 42.2214 37.8174C42.0644 37.6639 41.9859 37.4543 41.9859 37.1883C41.9859 36.8651 42.1015 36.6155 42.333 36.4396C42.5644 36.2636 42.8929 36.1757 43.3185 36.1757C43.5293 36.1757 43.7276 36.1911 43.9136 36.2217C44.0995 36.2524 44.2711 36.2985 44.4281 36.3598M45.5252 36.2585L46.0955 36.2585L46.0955 39.6952L45.5252 39.6952L45.5252 36.2585M45.5252 34.9207L46.0955 34.9207L46.0955 35.6357L45.5252 35.6357L45.5252 34.9207M47.8498 35.2828L47.8498 36.2585L49.0244 36.2585L49.0244 36.6973L47.8498 36.6973L47.8498 38.563C47.8498 38.8432 47.888 39.0233 47.9644 39.103C48.0429 39.1828 48.201 39.2227 48.4386 39.2227L49.0244 39.2227L49.0244 39.6952L48.4386 39.6952C47.9985 39.6952 47.6948 39.6144 47.5274 39.4528C47.36 39.2892 47.2764 38.9926 47.2764 38.563L47.2764 36.6973L46.858 36.6973L46.858 36.2585L47.2764 36.2585L47.2764 35.2828L47.8498 35.2828M53.3758 37.9677C52.915 37.9677 52.5958 38.0198 52.4182 38.1242C52.2404 38.2285 52.1516 38.4065 52.1516 38.6581C52.1516 38.8586 52.2177 39.0182 52.35 39.1368C52.4843 39.2534 52.6661 39.3117 52.8955 39.3117C53.2116 39.3117 53.4647 39.2012 53.6548 38.9803C53.8469 38.7573 53.9431 38.4617 53.9431 38.0935L53.9431 37.9677L53.3758 37.9677M54.5133 37.7345L54.5133 39.6952L53.9431 39.6952L53.9431 39.1736C53.8128 39.3823 53.6506 39.5367 53.4564 39.637C53.2622 39.7352 53.0246 39.7843 52.7436 39.7843C52.3881 39.7843 52.1051 39.6861 51.8943 39.4896C51.6856 39.2912 51.5814 39.0263 51.5814 38.6949C51.5814 38.3083 51.7115 38.0168 51.9718 37.8204C52.2342 37.624 52.6248 37.5258 53.1434 37.5258L53.9431 37.5258L53.9431 37.4706C53.9431 37.2108 53.8562 37.0103 53.6827 36.8692C53.5112 36.726 53.2694 36.6544 52.9574 36.6544C52.7591 36.6544 52.5659 36.6779 52.3779 36.725C52.1898 36.772 52.009 36.8426 51.8355 36.9367L51.8355 36.4151C52.0441 36.3353 52.2466 36.2759 52.4429 36.2371C52.6392 36.1961 52.8303 36.1757 53.0163 36.1757C53.5184 36.1757 53.8934 36.3046 54.1414 36.5624C54.3893 36.8201 54.5133 37.2108 54.5133 37.7345M58.3937 36.9183C58.5362 36.6646 58.7066 36.4775 58.905 36.3567C59.1034 36.2361 59.3369 36.1757 59.6055 36.1757C59.9671 36.1757 60.246 36.3015 60.4423 36.5531C60.6386 36.8027 60.7367 37.1586 60.7367 37.621L60.7367 39.6952L60.1633 39.6952L60.1633 37.6394C60.1633 37.31 60.1044 37.0656 59.9867 36.906C59.869 36.7464 59.6891 36.6666 59.4474 36.6666C59.152 36.6666 58.9184 36.7638 58.747 36.9582C58.5755 37.1525 58.4897 37.4174 58.4897 37.7529L58.4897 39.6952L57.9164 39.6952L57.9164 37.6394C57.9164 37.308 57.8574 37.0636 57.7397 36.906C57.6219 36.7464 57.4401 36.6666 57.1942 36.6666C56.9029 36.6666 56.6715 36.7648 56.4999 36.9612C56.3285 37.1556 56.2427 37.4194 56.2427 37.7529L56.2427 39.6952L55.6693 39.6952L55.6693 36.2585L56.2427 36.2585L56.2427 36.7925C56.3729 36.5818 56.5288 36.4263 56.7107 36.326C56.8925 36.2258 57.1085 36.1757 57.3584 36.1757C57.6105 36.1757 57.8244 36.2391 58.0001 36.366C58.1777 36.4928 58.309 36.6769 58.3937 36.9183M64.8465 37.8358L64.8465 38.1119L62.2244 38.1119C62.2492 38.5006 62.367 38.7972 62.5777 39.0018C62.7905 39.2043 63.086 39.3055 63.4641 39.3055C63.6831 39.3055 63.8949 39.279 64.0994 39.2257C64.3061 39.1726 64.5107 39.0928 64.7132 38.9865L64.7132 39.5203C64.5086 39.6063 64.2989 39.6717 64.084 39.7167C63.8691 39.7617 63.6512 39.7843 63.43 39.7843C62.8762 39.7843 62.4372 39.6247 62.1128 39.3055C61.7905 38.9865 61.6293 38.5548 61.6293 38.0107C61.6293 37.4481 61.7823 37.0022 62.088 36.6728C62.3959 36.3414 62.8102 36.1757 63.3308 36.1757C63.7978 36.1757 64.1666 36.325 64.4373 36.6237C64.71 36.9203 64.8465 37.3244 64.8465 37.8358M64.2762 37.6701C64.272 37.3612 64.1842 37.1147 64.0127 36.9305C63.8433 36.7464 63.6181 36.6544 63.3371 36.6544C63.0189 36.6544 62.7636 36.7434 62.5715 36.9214C62.3814 37.0993 62.2719 37.3499 62.243 37.6731L64.2762 37.6701M66.3465 35.2828L66.3465 36.2585L67.5211 36.2585L67.5211 36.6973L66.3465 36.6973L66.3465 38.563C66.3465 38.8432 66.3847 39.0233 66.4611 39.103C66.5397 39.1828 66.6977 39.2227 66.9354 39.2227L67.5211 39.2227L67.5211 39.6952L66.9354 39.6952C66.4952 39.6952 66.1915 39.6144 66.0241 39.4528C65.8568 39.2892 65.7731 38.9926 65.7731 38.563L65.7731 36.6973L65.3547 36.6973L65.3547 36.2585L65.7731 36.2585L65.7731 35.2828L66.3465 35.2828M72.7931 36.3905L72.7931 36.9183C72.6319 36.8303 72.4697 36.7648 72.3065 36.7219C72.1453 36.6769 71.9821 36.6544 71.8168 36.6544C71.447 36.6544 71.1598 36.771 70.9552 37.0042C70.7507 37.2353 70.6484 37.5606 70.6484 37.98C70.6484 38.3994 70.7507 38.7256 70.9552 38.9588C71.1598 39.19 71.447 39.3055 71.8168 39.3055C71.9821 39.3055 72.1453 39.2841 72.3065 39.2411C72.4697 39.1961 72.6319 39.1296 72.7931 39.0417L72.7931 39.5633C72.634 39.637 72.4687 39.6922 72.2972 39.729C72.1278 39.7658 71.947 39.7843 71.7548 39.7843C71.2321 39.7843 70.8167 39.6216 70.5089 39.2964C70.201 38.9711 70.0471 38.5323 70.0471 37.98C70.0471 37.4194 70.2021 36.9786 70.512 36.6575C70.824 36.3363 71.2507 36.1757 71.792 36.1757C71.9677 36.1757 72.1391 36.1941 72.3065 36.2309C72.4739 36.2658 72.6361 36.3189 72.7931 36.3905M75.1362 36.6544C74.8304 36.6544 74.5887 36.7731 74.4109 37.0103C74.2332 37.2456 74.1444 37.5688 74.1444 37.98C74.1444 38.3911 74.2322 38.7154 74.4078 38.9527C74.5855 39.1879 74.8283 39.3055 75.1362 39.3055C75.4399 39.3055 75.6806 39.1869 75.8583 38.9496C76.036 38.7123 76.1248 38.3891 76.1248 37.98C76.1248 37.5729 76.036 37.2507 75.8583 37.0134C75.6806 36.7741 75.4399 36.6544 75.1362 36.6544M75.1362 36.1757C75.6321 36.1757 76.0215 36.3353 76.3046 36.6544C76.5877 36.9735 76.7292 37.4154 76.7292 37.98C76.7292 38.5425 76.5877 38.9843 76.3046 39.3055C76.0215 39.6247 75.6321 39.7843 75.1362 39.7843C74.6383 39.7843 74.2477 39.6247 73.9646 39.3055C73.6836 38.9843 73.5431 38.5425 73.5431 37.98C73.5431 37.4154 73.6836 36.9735 73.9646 36.6544C74.2477 36.3353 74.6383 36.1757 75.1362 36.1757M80.5569 37.621L80.5569 39.6952L79.9866 39.6952L79.9866 37.6394C79.9866 37.3141 79.9225 37.0707 79.7944 36.9091C79.6664 36.7475 79.4742 36.6666 79.218 36.6666C78.9101 36.6666 78.6674 36.7638 78.4897 36.9582C78.3119 37.1525 78.2231 37.4174 78.2231 37.7529L78.2231 39.6952L77.6497 39.6952L77.6497 36.2585L78.2231 36.2585L78.2231 36.7925C78.3595 36.5858 78.5196 36.4314 78.7035 36.3291C78.8894 36.2268 79.1033 36.1757 79.345 36.1757C79.7438 36.1757 80.0455 36.2985 80.2501 36.544C80.4546 36.7874 80.5569 37.1464 80.5569 37.621M83.9134 36.3598L83.9134 36.8937C83.7523 36.8119 83.5849 36.7505 83.4114 36.7096C83.2378 36.6687 83.058 36.6482 82.8721 36.6482C82.589 36.6482 82.3762 36.6912 82.2336 36.7771C82.0931 36.863 82.0228 36.9919 82.0228 37.1638C82.0228 37.2947 82.0734 37.398 82.1748 37.4737C82.276 37.5473 82.4795 37.6179 82.7853 37.6854L82.9805 37.7283C83.3855 37.8143 83.6727 37.936 83.8422 38.0935C84.0136 38.2489 84.0994 38.4669 84.0994 38.7471C84.0994 39.0662 83.9713 39.3188 83.7151 39.505C83.461 39.6912 83.1107 39.7843 82.6644 39.7843C82.4785 39.7843 82.2842 39.7658 82.0818 39.729C81.8813 39.6942 81.6696 39.641 81.4464 39.5694L81.4464 38.9865C81.6571 39.0948 81.8648 39.1766 82.0694 39.2319C82.2739 39.2851 82.4764 39.3117 82.6768 39.3117C82.9454 39.3117 83.1521 39.2667 83.2966 39.1766C83.4413 39.0846 83.5136 38.9558 83.5136 38.7901C83.5136 38.6366 83.461 38.519 83.3556 38.4372C83.2523 38.3554 83.024 38.2766 82.6706 38.2009L82.4723 38.1549C82.119 38.0812 81.8638 37.9687 81.7067 37.8174C81.5497 37.6639 81.4712 37.4543 81.4712 37.1883C81.4712 36.8651 81.5869 36.6155 81.8183 36.4396C82.0497 36.2636 82.3783 36.1757 82.8039 36.1757C83.0146 36.1757 83.213 36.1911 83.399 36.2217C83.5849 36.2524 83.7564 36.2985 83.9134 36.3598M87.9798 37.8358L87.9798 38.1119L85.3578 38.1119C85.3825 38.5006 85.5003 38.7972 85.7111 39.0018C85.9239 39.2043 86.2193 39.3055 86.5975 39.3055C86.8165 39.3055 87.0282 39.279 87.2328 39.2257C87.4395 39.1726 87.644 39.0928 87.8465 38.9865L87.8465 39.5203C87.642 39.6063 87.4322 39.6717 87.2173 39.7167C87.0025 39.7617 86.7845 39.7843 86.5634 39.7843C86.0096 39.7843 85.5706 39.6247 85.2462 39.3055C84.9238 38.9865 84.7627 38.5548 84.7627 38.0107C84.7627 37.4481 84.9156 37.0022 85.2213 36.6728C85.5292 36.3414 85.9435 36.1757 86.4642 36.1757C86.9311 36.1757 87.3 36.325 87.5706 36.6237C87.8434 36.9203 87.9798 37.3244 87.9798 37.8358M87.4095 37.6701C87.4054 37.3612 87.3175 37.1147 87.146 36.9305C86.9766 36.7464 86.7514 36.6544 86.4704 36.6544C86.1522 36.6544 85.897 36.7434 85.7049 36.9214C85.5148 37.0993 85.4052 37.3499 85.3763 37.6731L87.4095 37.6701M91.4138 36.3905L91.4138 36.9183C91.2526 36.8303 91.0904 36.7648 90.9272 36.7219C90.7661 36.6769 90.6028 36.6544 90.4375 36.6544C90.0677 36.6544 89.7805 36.771 89.576 37.0042C89.3714 37.2353 89.2691 37.5606 89.2691 37.98C89.2691 38.3994 89.3714 38.7256 89.576 38.9588C89.7805 39.19 90.0677 39.3055 90.4375 39.3055C90.6028 39.3055 90.7661 39.2841 90.9272 39.2411C91.0904 39.1961 91.2526 39.1296 91.4138 39.0417L91.4138 39.5633C91.2547 39.637 91.0894 39.6922 90.918 39.729C90.7485 39.7658 90.5677 39.7843 90.3755 39.7843C89.8528 39.7843 89.4375 39.6216 89.1296 39.2964C88.8217 38.9711 88.6678 38.5323 88.6678 37.98C88.6678 37.4194 88.8228 36.9786 89.1327 36.6575C89.4447 36.3363 89.8714 36.1757 90.4128 36.1757C90.5884 36.1757 90.7598 36.1941 90.9272 36.2309C91.0946 36.2658 91.2568 36.3189 91.4138 36.3905M92.9758 35.2828L92.9758 36.2585L94.1505 36.2585L94.1505 36.6973L92.9758 36.6973L92.9758 38.563C92.9758 38.8432 93.0141 39.0233 93.0906 39.103C93.1691 39.1828 93.3271 39.2227 93.5647 39.2227L94.1505 39.2227L94.1505 39.6952L93.5647 39.6952C93.1246 39.6952 92.8209 39.6144 92.6535 39.4528C92.4862 39.2892 92.4025 38.9926 92.4025 38.563L92.4025 36.6973L91.9841 36.6973L91.9841 36.2585L92.4025 36.2585L92.4025 35.2828L92.9758 35.2828M94.6154 37.7222L96.2859 37.7222L96.2859 38.2255L94.6154 38.2255L94.6154 37.7222M45.1844 53.5463L45.1844 53.8225L42.5623 53.8225C42.5871 54.2111 42.7049 54.5078 42.9156 54.7123C43.1284 54.9149 43.4239 55.0161 43.802 55.0161C44.021 55.0161 44.2328 54.9895 44.4374 54.9363C44.644 54.8831 44.8486 54.8034 45.0511 54.6969L45.0511 55.2309C44.8465 55.3168 44.6368 55.3822 44.4219 55.4273C44.207 55.4723 43.989 55.4947 43.7679 55.4947C43.2142 55.4947 42.7751 55.3352 42.4508 55.0161C42.1284 54.6969 41.9672 54.2654 41.9672 53.7212C41.9672 53.1587 42.1202 52.7127 42.4259 52.3833C42.7338 52.052 43.1481 51.8863 43.6688 51.8863C44.1357 51.8863 44.5046 52.0356 44.7752 52.3342C45.0479 52.6308 45.1844 53.0349 45.1844 53.5463M44.614 53.3806C44.6099 53.0717 44.5221 52.8252 44.3506 52.6411C44.1812 52.457 43.956 52.3649 43.675 52.3649C43.3568 52.3649 43.1016 52.454 42.9094 52.6319C42.7193 52.8098 42.6098 53.0605 42.5809 53.3837L44.614 53.3806M46.6844 50.9933L46.6844 51.9691L47.859 51.9691L47.859 52.4079L46.6844 52.4079L46.6844 54.2735C46.6844 54.5537 46.7226 54.7338 46.799 54.8135C46.8776 54.8933 47.0357 54.9333 47.2733 54.9333L47.859 54.9333L47.859 55.4058L47.2733 55.4058C46.8332 55.4058 46.5294 55.325 46.3621 55.1634C46.1947 54.9997 46.111 54.7031 46.111 54.2735L46.111 52.4079L45.6926 52.4079L45.6926 51.9691L46.111 51.9691L46.111 50.9933L46.6844 50.9933M48.5533 54.0496L48.5533 51.9691L49.1236 51.9691L49.1236 54.028C49.1236 54.3533 49.1876 54.5977 49.3157 54.7614C49.4438 54.923 49.636 55.0038 49.8922 55.0038C50.2001 55.0038 50.4429 54.9066 50.6205 54.7123C50.8003 54.518 50.8901 54.2531 50.8902 53.9175L50.8902 51.9691L51.4604 51.9691L51.4604 55.4058L50.8902 55.4058L50.8902 54.878C50.7518 55.0866 50.5906 55.2422 50.4067 55.3444C50.2249 55.4446 50.0131 55.4947 49.7713 55.4947C49.3725 55.4947 49.0698 55.3721 48.8632 55.1266C48.6566 54.8811 48.5533 54.5221 48.5533 54.0496M55.6105 53.5463L55.6105 53.8225L52.9884 53.8225C53.0132 54.2111 53.131 54.5078 53.3417 54.7123C53.5545 54.9149 53.85 55.0161 54.2281 55.0161C54.4471 55.0161 54.6589 54.9895 54.8635 54.9363C55.0701 54.8831 55.2747 54.8034 55.4772 54.6969L55.4772 55.2309C55.2726 55.3168 55.0629 55.3822 54.848 55.4273C54.6332 55.4723 54.4152 55.4947 54.194 55.4947C53.6403 55.4947 53.2012 55.3352 52.8769 55.0161C52.5545 54.6969 52.3933 54.2654 52.3933 53.7212C52.3933 53.1587 52.5463 52.7127 52.852 52.3833C53.1599 52.052 53.5742 51.8863 54.0949 51.8863C54.5619 51.8863 54.9307 52.0356 55.2014 52.3342C55.474 52.6308 55.6105 53.0349 55.6105 53.5463M55.0402 53.3806C55.036 53.0717 54.9483 52.8252 54.7767 52.6411C54.6073 52.457 54.3821 52.3649 54.1011 52.3649C53.7829 52.3649 53.5277 52.454 53.3355 52.6319C53.1454 52.8098 53.036 53.0605 53.007 53.3837L55.0402 53.3806M58.5579 52.4969C58.4938 52.4601 58.4236 52.4334 58.3471 52.4171C58.2728 52.3987 58.1901 52.3895 58.0992 52.3895C57.7769 52.3895 57.529 52.4938 57.3554 52.7025C57.1839 52.9091 57.0981 53.2067 57.0981 53.5954L57.0981 55.4058L56.5248 55.4058L56.5248 51.9691L57.0981 51.9691L57.0981 52.5031C57.2179 52.2944 57.374 52.1399 57.5661 52.0397C57.7582 51.9374 57.9918 51.8863 58.2666 51.8863C58.3058 51.8863 58.3492 51.8893 58.3967 51.8954C58.4443 51.8996 58.4969 51.9067 58.5548 51.917L58.5579 52.4969M62.7606 53.6783C62.2998 53.6783 61.9806 53.7304 61.8029 53.8347C61.6252 53.9391 61.5364 54.1171 61.5364 54.3686C61.5364 54.5691 61.6024 54.7287 61.7347 54.8474C61.869 54.964 62.0508 55.0222 62.2802 55.0222C62.5964 55.0222 62.8495 54.9117 63.0396 54.6908C63.2317 54.4678 63.3278 54.1723 63.3278 53.804L63.3278 53.6783L62.7606 53.6783M63.8981 53.445L63.8981 55.4058L63.3278 55.4058L63.3278 54.8842C63.1976 55.0928 63.0354 55.2472 62.8411 55.3475C62.647 55.4457 62.4093 55.4947 62.1283 55.4947C61.7729 55.4947 61.4898 55.3966 61.2791 55.2002C61.0704 55.0018 60.9661 54.7369 60.9661 54.4054C60.9661 54.0189 61.0962 53.7274 61.3566 53.531C61.619 53.3346 62.0095 53.2364 62.5281 53.2364L63.3278 53.2364L63.3278 53.1811C63.3278 52.9213 63.2409 52.7209 63.0675 52.5797C62.8959 52.4366 62.6542 52.3649 62.3421 52.3649C62.1438 52.3649 61.9507 52.3885 61.7626 52.4355C61.5746 52.4825 61.3938 52.5532 61.2202 52.6472L61.2202 52.1256C61.4289 52.0459 61.6314 51.9865 61.8277 51.9476C62.024 51.9067 62.2151 51.8863 62.4011 51.8863C62.9031 51.8863 63.2782 52.0152 63.5261 52.2728C63.774 52.5306 63.8981 52.9213 63.8981 53.445M67.36 52.4908L67.36 50.6313L67.9302 50.6313L67.9302 55.4058L67.36 55.4058L67.36 54.8903C67.2401 55.0949 67.0883 55.2472 66.9043 55.3475C66.7226 55.4457 66.5035 55.4947 66.2473 55.4947C65.8278 55.4947 65.486 55.3291 65.2214 54.9977C64.9591 54.6663 64.8278 54.2306 64.8278 53.6905C64.8278 53.1504 64.9591 52.7148 65.2214 52.3833C65.486 52.052 65.8278 51.8863 66.2473 51.8863C66.5035 51.8863 66.7226 51.9364 66.9043 52.0366C67.0883 52.1348 67.2401 52.2862 67.36 52.4908M65.4167 53.6905C65.4167 54.1058 65.5024 54.4321 65.6739 54.6694C65.8475 54.9046 66.0851 55.0222 66.3868 55.0222C66.6885 55.0222 66.9261 54.9046 67.0996 54.6694C67.2732 54.4321 67.3599 54.1058 67.36 53.6905C67.3599 53.2752 67.2732 52.95 67.0996 52.7148C66.9261 52.4774 66.6885 52.3588 66.3868 52.3588C66.0851 52.3588 65.8475 52.4774 65.6739 52.7148C65.5024 52.95 65.4167 53.2752 65.4167 53.6905M69.1049 51.9691L69.6752 51.9691L69.6752 55.4058L69.1049 55.4058L69.1049 51.9691M69.1049 50.6313L69.6752 50.6313L69.6752 51.3462L69.1049 51.3462L69.1049 50.6313M71.4169 54.8903L71.4169 56.7129L70.8436 56.7129L70.8436 51.9691L71.4169 51.9691L71.4169 52.4908C71.5368 52.2862 71.6877 52.1348 71.8695 52.0366C72.0534 51.9364 72.2724 51.8863 72.5265 51.8863C72.948 51.8863 73.29 52.052 73.5524 52.3833C73.8169 52.7148 73.9492 53.1504 73.9492 53.6905C73.9492 54.2306 73.8169 54.6663 73.5524 54.9977C73.29 55.3291 72.948 55.4947 72.5265 55.4947C72.2724 55.4947 72.0534 55.4457 71.8695 55.3475C71.6877 55.2472 71.5368 55.0949 71.4169 54.8903M73.3571 53.6905C73.3571 53.2752 73.2704 52.95 73.0968 52.7148C72.9253 52.4774 72.6887 52.3588 72.387 52.3588C72.0854 52.3588 71.8478 52.4774 71.6742 52.7148C71.5028 52.95 71.4169 53.2752 71.4169 53.6905C71.4169 54.1058 71.5028 54.4321 71.6742 54.6694C71.8478 54.9046 72.0854 55.0222 72.387 55.0222C72.6887 55.0222 72.9253 54.9046 73.0968 54.6694C73.2704 54.4321 73.3571 54.1058 73.3571 53.6905M74.8944 51.9691L75.4647 51.9691L75.4647 55.4058L74.8944 55.4058L74.8944 51.9691M74.8944 50.6313L75.4647 50.6313L75.4647 51.3462L74.8944 51.3462L74.8944 50.6313M78.8677 52.0704L78.8677 52.6043C78.7066 52.5225 78.5393 52.4611 78.3657 52.4201C78.1921 52.3793 78.0124 52.3588 77.8264 52.3588C77.5433 52.3588 77.3305 52.4017 77.1879 52.4877C77.0474 52.5736 76.9771 52.7025 76.9771 52.8743C76.9771 53.0052 77.0278 53.1085 77.129 53.1842C77.2302 53.2579 77.4338 53.3284 77.7396 53.3959L77.9349 53.4389C78.3398 53.5248 78.627 53.6465 78.7965 53.804C78.968 53.9595 79.0537 54.1773 79.0537 54.4577C79.0537 54.7767 78.9256 55.0294 78.6694 55.2155C78.4153 55.4017 78.065 55.4947 77.6188 55.4947C77.4328 55.4947 77.2386 55.4763 77.0361 55.4395C76.8356 55.4048 76.6238 55.3515 76.4007 55.28L76.4007 54.6969C76.6114 54.8054 76.8191 54.8872 77.0237 54.9424C77.2282 54.9957 77.4307 55.0222 77.6311 55.0222C77.8998 55.0222 78.1064 54.9772 78.251 54.8872C78.3956 54.7951 78.4679 54.6663 78.4679 54.5006C78.4679 54.3472 78.4153 54.2296 78.3099 54.1478C78.2065 54.0659 77.9783 53.9872 77.6249 53.9114L77.4265 53.8654C77.0732 53.7918 76.8181 53.6793 76.661 53.5278C76.504 53.3745 76.4255 53.1648 76.4255 52.8989C76.4255 52.5756 76.5412 52.3261 76.7726 52.1502C77.004 51.9742 77.3326 51.8863 77.7582 51.8863C77.9689 51.8863 78.1673 51.9016 78.3533 51.9323C78.5393 51.9629 78.7107 52.009 78.8677 52.0704M82.463 52.1011L82.463 52.6288C82.3018 52.5409 82.1396 52.4754 81.9764 52.4324C81.8152 52.3875 81.6519 52.3649 81.4867 52.3649C81.1168 52.3649 80.8296 52.4815 80.625 52.7148C80.4205 52.9459 80.3183 53.2712 80.3183 53.6905C80.3183 54.1098 80.4205 54.4361 80.625 54.6694C80.8296 54.9005 81.1168 55.0161 81.4867 55.0161C81.6519 55.0161 81.8152 54.9946 81.9764 54.9517C82.1396 54.9066 82.3018 54.8402 82.463 54.7522L82.463 55.2739C82.3039 55.3475 82.1386 55.4027 81.9671 55.4395C81.7976 55.4763 81.6168 55.4947 81.4247 55.4947C80.902 55.4947 80.4867 55.3321 80.1788 55.0069C79.8709 54.6816 79.717 54.2428 79.717 53.6905C79.717 53.13 79.8719 52.6892 80.1818 52.368C80.4939 52.0469 80.9205 51.8863 81.4619 51.8863C81.6375 51.8863 81.809 51.9047 81.9764 51.9415C82.1437 51.9762 82.3059 52.0295 82.463 52.1011M83.461 51.9691L84.0312 51.9691L84.0312 55.4058L83.461 55.4058L83.461 51.9691M83.461 50.6313L84.0312 50.6313L84.0312 51.3462L83.461 51.3462L83.461 50.6313M88.1069 53.3315L88.1069 55.4058L87.5366 55.4058L87.5366 53.3499C87.5366 53.0247 87.4725 52.7813 87.3444 52.6196C87.2163 52.458 87.0242 52.3772 86.7679 52.3772C86.46 52.3772 86.2173 52.4744 86.0396 52.6687C85.8619 52.8631 85.7731 53.128 85.7731 53.4635L85.7731 55.4058L85.1997 55.4058L85.1997 51.9691L85.7731 51.9691L85.7731 52.5031C85.9094 52.2964 86.0696 52.1419 86.2534 52.0397C86.4394 51.9374 86.6533 51.8863 86.895 51.8863C87.2938 51.8863 87.5954 52.009 87.8 52.2544C88.0045 52.4979 88.1069 52.8569 88.1069 53.3315M91.5347 53.6476C91.5347 53.2384 91.4489 52.9213 91.2775 52.6963C91.108 52.4713 90.8694 52.3588 90.5615 52.3588C90.2557 52.3588 90.017 52.4713 89.8456 52.6963C89.6761 52.9213 89.5914 53.2384 89.5914 53.6476C89.5914 54.0546 89.6761 54.3707 89.8456 54.5957C90.017 54.8207 90.2557 54.9333 90.5615 54.9333C90.8694 54.9333 91.108 54.8207 91.2775 54.5957C91.4489 54.3707 91.5347 54.0546 91.5347 53.6476M92.1049 54.9793C92.1049 55.5644 91.9738 55.999 91.7113 56.2834C91.4489 56.5697 91.0471 56.7129 90.5057 56.7129C90.3052 56.7129 90.1162 56.6976 89.9385 56.6669C89.7608 56.6382 89.5883 56.5933 89.421 56.5319L89.421 55.9826C89.5883 56.0727 89.7536 56.1392 89.9168 56.1821C90.08 56.2251 90.2464 56.2465 90.4158 56.2465C90.7898 56.2465 91.0698 56.1493 91.2558 55.9551C91.4417 55.7628 91.5347 55.4713 91.5347 55.0805L91.5347 54.8013C91.4169 55.0038 91.2661 55.1552 91.0822 55.2555C90.8983 55.3557 90.6782 55.4058 90.422 55.4058C89.9964 55.4058 89.6534 55.2452 89.3931 54.924C89.1327 54.6029 89.0025 54.1773 89.0025 53.6476C89.0025 53.1157 89.1327 52.6892 89.3931 52.368C89.6534 52.0469 89.9964 51.8863 90.422 51.8863C90.6782 51.8863 90.8983 51.9364 91.0822 52.0366C91.2661 52.1368 91.4169 52.2882 91.5347 52.4908L91.5347 51.9691L92.1049 51.9691L92.1049 54.9793"  />
      <path id="path2954" fill="#ffffff" stroke="#000000" stroke-width="0.957999" stroke-linecap="round" stroke-linejoin="round" d="M43.1044 100.817L43.1044 82.0845L74.6072 82.0845L74.6072 100.817L43.1044 100.817Z"  />
      <path id="text9764" fill="#000000" stroke-width="0.847914" d="M44.4198 78.9713L44.4198 79.3559C44.32 79.3112 44.2226 79.2775 44.1276 79.2548C44.0327 79.2321 43.943 79.2207 43.8586 79.2207C43.7466 79.2207 43.6639 79.2362 43.6103 79.267C43.5568 79.2979 43.53 79.3457 43.53 79.4107C43.53 79.4593 43.5479 79.4975 43.5836 79.525C43.62 79.5518 43.6858 79.575 43.7807 79.5944L43.9803 79.6346C44.1824 79.6752 44.326 79.7369 44.4112 79.8196C44.4964 79.9024 44.539 80.0201 44.539 80.1726C44.539 80.373 44.4794 80.5224 44.3601 80.6205C44.2416 80.7179 44.0603 80.7666 43.8161 80.7666C43.7008 80.7666 43.5852 80.7556 43.4691 80.7337C43.3531 80.7118 43.237 80.6794 43.121 80.6363L43.121 80.2408C43.237 80.3024 43.349 80.3491 43.457 80.3808C43.5657 80.4115 43.6704 80.427 43.771 80.427C43.8732 80.427 43.9516 80.4099 44.0059 80.3758C44.0603 80.3418 44.0875 80.2931 44.0875 80.2298C44.0875 80.173 44.0688 80.1292 44.0314 80.0983C43.995 80.0675 43.9216 80.0399 43.8112 80.0156L43.6298 79.9755C43.448 79.9365 43.315 79.8744 43.2306 79.7892C43.147 79.704 43.1052 79.5891 43.1052 79.4447C43.1052 79.2638 43.1636 79.1246 43.2804 79.0272C43.3973 78.9299 43.5653 78.8811 43.7844 78.8811C43.8842 78.8811 43.9868 78.8889 44.0923 78.9043C44.1978 78.9189 44.3069 78.9412 44.4198 78.9713M44.9322 79.368L45.3679 79.368L45.3679 80.7313L44.9322 80.7313L44.9322 79.368M44.9322 78.8373L45.3679 78.8373L45.3679 79.1927L44.9322 79.1927L44.9322 78.8373M46.7166 80.5001C46.6566 80.5795 46.5904 80.638 46.5182 80.6753C46.446 80.7126 46.3624 80.7313 46.2675 80.7313C46.1011 80.7313 45.9636 80.666 45.8548 80.5353C45.7461 80.4039 45.6917 80.2367 45.6917 80.0339C45.6917 79.8302 45.7461 79.6634 45.8548 79.5336C45.9636 79.4029 46.1011 79.3376 46.2675 79.3376C46.3624 79.3376 46.446 79.3563 46.5182 79.3936C46.5904 79.4309 46.6566 79.4898 46.7166 79.5701L46.7166 79.368L47.1548 79.368L47.1548 80.5938C47.1548 80.8129 47.0854 80.98 46.9467 81.0952C46.8087 81.2113 46.6083 81.2693 46.3453 81.2693C46.2602 81.2693 46.1778 81.2628 46.0982 81.2498C46.0188 81.2368 45.9388 81.217 45.8584 81.1902L45.8584 80.8506C45.9348 80.8944 46.0094 80.9268 46.0825 80.9479C46.1555 80.9699 46.2289 80.9808 46.3028 80.9808C46.4455 80.9808 46.5503 80.9495 46.6168 80.8871C46.6833 80.8246 46.7166 80.7268 46.7166 80.5938L46.7166 80.5001M46.4293 79.6516C46.3393 79.6516 46.2691 79.6849 46.2188 79.7514C46.1684 79.818 46.1433 79.9121 46.1433 80.0339C46.1433 80.1588 46.1677 80.2537 46.2163 80.3187C46.265 80.3828 46.336 80.4148 46.4293 80.4148C46.5202 80.4148 46.5908 80.3815 46.6412 80.315C46.6914 80.2485 46.7166 80.1548 46.7166 80.0339C46.7166 79.9121 46.6914 79.818 46.6412 79.7514C46.5908 79.6849 46.5202 79.6516 46.4293 79.6516M48.9465 79.9012L48.9465 80.7313L48.5083 80.7313L48.5083 80.5962L48.5083 80.0959C48.5083 79.9783 48.5055 79.8971 48.4998 79.8525C48.4949 79.8078 48.486 79.775 48.473 79.7539C48.4559 79.7255 48.4329 79.7036 48.4036 79.6882C48.3744 79.6719 48.3411 79.6638 48.3038 79.6638C48.2129 79.6638 48.1415 79.6991 48.0896 79.7698C48.0377 79.8395 48.0117 79.9365 48.0117 80.0606L48.0117 80.7313L47.576 80.7313L47.576 79.368L48.0117 79.368L48.0117 79.5677C48.0774 79.4882 48.1472 79.4297 48.2211 79.3923C48.2949 79.3543 48.3764 79.3352 48.4657 79.3352C48.6232 79.3352 48.7425 79.3834 48.8236 79.48C48.9055 79.5766 48.9465 79.7169 48.9465 79.9012M50.1162 79.525L50.6141 80.0728C50.657 80.016 50.6895 79.9523 50.7114 79.8817C50.7341 79.8111 50.7475 79.7312 50.7516 79.6419L51.1302 79.6419C51.118 79.7896 51.0891 79.921 51.0437 80.0363C50.9991 80.1515 50.9366 80.2526 50.8563 80.3394L51.2129 80.7313L50.6968 80.7313L50.5775 80.5986C50.4923 80.6554 50.4027 80.6976 50.3086 80.7252C50.2144 80.7528 50.1146 80.7666 50.0091 80.7666C49.7957 80.7666 49.6228 80.7106 49.4906 80.5986C49.3591 80.4858 49.2934 80.3406 49.2934 80.1628C49.2934 80.0444 49.3222 79.9397 49.3798 79.8489C49.4383 79.7571 49.5332 79.6683 49.6646 79.5823C49.6306 79.5393 49.6054 79.4962 49.5892 79.4532C49.573 79.4102 49.5648 79.3652 49.5648 79.3182C49.5648 79.1859 49.6164 79.08 49.7194 79.0004C49.8224 78.9209 49.9596 78.8811 50.1308 78.8811C50.2047 78.8811 50.2813 78.8872 50.3609 78.8995C50.4413 78.9108 50.5248 78.9282 50.6116 78.9518L50.6116 79.2902C50.5354 79.2512 50.4631 79.2224 50.395 79.2037C50.3268 79.185 50.2602 79.1757 50.1954 79.1757C50.1329 79.1757 50.0842 79.1879 50.0493 79.2122C50.0152 79.2357 49.9981 79.2695 49.9981 79.3132C49.9981 79.3409 50.0079 79.3725 50.0274 79.4082C50.0476 79.4431 50.0772 79.4821 50.1162 79.525M49.874 79.8269C49.8213 79.8651 49.7815 79.9085 49.7547 79.9571C49.7279 80.005 49.7146 80.0578 49.7146 80.1154C49.7146 80.2087 49.749 80.2883 49.818 80.354C49.887 80.4197 49.9697 80.4526 50.0663 80.4526C50.1207 80.4526 50.1714 80.4444 50.2185 80.4282C50.2656 80.4112 50.3093 80.386 50.3499 80.3528L49.874 79.8269M52.1404 80.1178C52.0495 80.1178 51.981 80.1333 51.9347 80.1641C51.8892 80.1949 51.8665 80.2403 51.8665 80.3004C51.8665 80.3556 51.8848 80.399 51.9213 80.4306C51.9587 80.4615 52.0101 80.4769 52.0759 80.4769C52.1579 80.4769 52.2269 80.4477 52.2828 80.3892C52.3388 80.3301 52.3668 80.2562 52.3668 80.1678L52.3668 80.1178L52.1404 80.1178M52.8063 79.9535L52.8063 80.7313L52.3668 80.7313L52.3668 80.5292C52.3084 80.612 52.2426 80.6724 52.1696 80.7106C52.0966 80.7479 52.0078 80.7666 51.9031 80.7666C51.7619 80.7666 51.6471 80.7256 51.5586 80.6437C51.471 80.5609 51.4271 80.4538 51.4271 80.3223C51.4271 80.1624 51.4819 80.0452 51.5914 79.9705C51.7018 79.8959 51.8746 79.8585 52.1099 79.8585L52.3668 79.8585L52.3668 79.8245C52.3668 79.7555 52.3396 79.7052 52.2853 79.6735C52.2309 79.6411 52.1461 79.6248 52.0308 79.6248C51.9376 79.6248 51.8507 79.6342 51.7704 79.6528C51.6901 79.6716 51.6154 79.6995 51.5464 79.7369L51.5464 79.4046C51.6398 79.3818 51.7335 79.3648 51.8276 79.3534C51.9217 79.3413 52.0158 79.3352 52.1099 79.3352C52.3558 79.3352 52.5331 79.3839 52.6419 79.4812C52.7515 79.5778 52.8063 79.7352 52.8063 79.9535M54.3155 79.4107L54.3155 79.766C54.2563 79.7255 54.1967 79.6955 54.1366 79.676C54.0774 79.6566 54.0157 79.6468 53.9516 79.6468C53.8299 79.6468 53.735 79.6825 53.6668 79.7539C53.5994 79.8245 53.5657 79.9235 53.5657 80.0509C53.5657 80.1783 53.5994 80.2777 53.6668 80.3491C53.735 80.4197 53.8299 80.455 53.9516 80.455C54.0198 80.455 54.0842 80.4449 54.1451 80.4246C54.2068 80.4042 54.2636 80.3742 54.3155 80.3345L54.3155 80.6911C54.2474 80.7163 54.178 80.7349 54.1074 80.7471C54.0376 80.7601 53.9674 80.7666 53.8968 80.7666C53.6509 80.7666 53.4586 80.7037 53.3198 80.5779C53.1811 80.4513 53.1118 80.2756 53.1118 80.0509C53.1118 79.8261 53.1811 79.6509 53.3198 79.525C53.4586 79.3985 53.6509 79.3352 53.8968 79.3352C53.9682 79.3352 54.0384 79.3416 54.1074 79.3546C54.1772 79.3668 54.2465 79.3855 54.3155 79.4107M55.7957 79.4107L55.7957 79.766C55.7364 79.7255 55.6768 79.6955 55.6167 79.676C55.5575 79.6566 55.4958 79.6468 55.4317 79.6468C55.31 79.6468 55.215 79.6825 55.1468 79.7539C55.0795 79.8245 55.0458 79.9235 55.0458 80.0509C55.0458 80.1783 55.0795 80.2777 55.1468 80.3491C55.215 80.4197 55.31 80.455 55.4317 80.455C55.4998 80.455 55.5643 80.4449 55.6252 80.4246C55.6869 80.4042 55.7437 80.3742 55.7957 80.3345L55.7957 80.6911C55.7275 80.7163 55.6581 80.7349 55.5875 80.7471C55.5177 80.7601 55.4475 80.7666 55.377 80.7666C55.1311 80.7666 54.9388 80.7037 54.8 80.5779C54.6612 80.4513 54.5919 80.2756 54.5919 80.0509C54.5919 79.8261 54.6612 79.6509 54.8 79.525C54.9388 79.3985 55.1311 79.3352 55.377 79.3352C55.4484 79.3352 55.5186 79.3416 55.5875 79.3546C55.6573 79.3668 55.7266 79.3855 55.7957 79.4107M57.535 80.046L57.535 80.1701L56.5162 80.1701C56.5267 80.2724 56.5637 80.3491 56.627 80.4002C56.6903 80.4513 56.7787 80.4769 56.8923 80.4769C56.984 80.4769 57.0778 80.4635 57.1735 80.4367C57.2701 80.4092 57.369 80.3678 57.4705 80.3126L57.4705 80.6485C57.3674 80.6875 57.2644 80.7167 57.1613 80.7362C57.0583 80.7565 56.9552 80.7666 56.8522 80.7666C56.6055 80.7666 56.4135 80.7041 56.2764 80.5792C56.1401 80.4533 56.0719 80.2773 56.0719 80.0509C56.0719 79.8285 56.1389 79.6537 56.2728 79.5262C56.4075 79.3989 56.5925 79.3352 56.8278 79.3352C57.042 79.3352 57.2133 79.3997 57.3415 79.5287C57.4705 79.6577 57.535 79.8302 57.535 80.046M57.0871 79.9012C57.0871 79.8184 57.0627 79.7519 57.014 79.7016C56.9662 79.6505 56.9033 79.6248 56.8254 79.6248C56.741 79.6248 56.6724 79.6488 56.6197 79.6967C56.5669 79.7437 56.5341 79.8119 56.521 79.9012L57.0871 79.9012M58.2994 80.5341L58.2994 81.2498L57.8636 81.2498L57.8636 79.368L58.2994 79.368L58.2994 79.5677C58.3594 79.4882 58.426 79.4297 58.4991 79.3923C58.5721 79.3543 58.656 79.3352 58.751 79.3352C58.9189 79.3352 59.0569 79.4021 59.1648 79.536C59.2728 79.6691 59.3267 79.8407 59.3267 80.0509C59.3267 80.261 59.2728 80.4331 59.1648 80.567C59.0569 80.7001 58.9189 80.7666 58.751 80.7666C58.656 80.7666 58.5721 80.7479 58.4991 80.7106C58.426 80.6724 58.3594 80.6136 58.2994 80.5341M58.5891 79.6516C58.4958 79.6516 58.4239 79.6861 58.3737 79.7551C58.3241 79.8233 58.2994 79.9219 58.2994 80.0509C58.2994 80.1799 58.3241 80.2789 58.3737 80.3479C58.4239 80.416 58.4958 80.4501 58.5891 80.4501C58.6824 80.4501 58.7534 80.416 58.8021 80.3479C58.8516 80.2797 58.8764 80.1807 58.8764 80.0509C58.8764 79.921 58.8516 79.8221 58.8021 79.7539C58.7534 79.6857 58.6824 79.6516 58.5891 79.6516M60.1264 78.9809L60.1264 79.368L60.5755 79.368L60.5755 79.6796L60.1264 79.6796L60.1264 80.2578C60.1264 80.3211 60.139 80.3641 60.1641 80.3869C60.1893 80.4087 60.2392 80.4197 60.3139 80.4197L60.5378 80.4197L60.5378 80.7313L60.1641 80.7313C59.9922 80.7313 59.87 80.6956 59.7977 80.6242C59.7263 80.552 59.6906 80.4299 59.6906 80.2578L59.6906 79.6796L59.474 79.6796L59.474 79.368L59.6906 79.368L59.6906 78.9809L60.1264 78.9809"  />
      <path id="path10038" fill="#000000" fill-opacity="0.5" stroke="#000000" stroke-opacity="0.15" stroke-width="0.684827" d="M64.1154 77.6107C63.2133 77.6128 62.2117 77.6839 61.1108 77.8239C59.8691 77.9818 58.4895 78.2228 56.972 78.5473C55.6153 78.8543 54.3277 79.1919 53.1091 79.5602C51.9134 79.9197 50.7752 80.3233 49.6946 80.7705C47.5332 81.6475 46.4181 82.3666 46.349 82.9278C46.2801 83.5067 46.7974 83.8355 47.9011 83.9144C48.4759 83.9583 49.1656 83.932 49.9705 83.8355C50.2464 83.8092 50.3844 83.7741 50.3844 83.7303C50.3844 83.6776 50.2464 83.6602 49.9705 83.6777C49.6485 83.704 49.3037 83.7171 48.9358 83.7171C48.5909 83.7083 48.246 83.6908 47.9011 83.6646C47.3033 83.6206 47.0043 83.4804 47.0043 83.2436C47.0043 82.5858 48.1541 81.8053 50.4534 80.902C51.5111 80.4811 52.6492 80.0952 53.8678 79.7444C55.0865 79.3936 56.4201 79.056 57.8687 78.7315C60.7428 78.1176 62.9732 77.8282 64.5598 77.8633C66.2382 77.916 67.0775 78.3062 67.0776 79.0341C67.0775 79.1569 67.0431 79.284 66.974 79.4156C66.9281 79.5471 66.8476 79.683 66.7327 79.8233C65.744 81.016 62.4559 83.3663 56.8684 86.8743C56.8225 86.9181 56.7765 86.9575 56.7306 86.9926C56.7076 87.0189 56.6961 87.0452 56.6961 87.0716C56.6961 87.168 56.8455 87.2162 57.1444 87.2162C57.4664 87.2162 57.7537 87.1461 58.0067 87.0058C58.3515 86.7866 58.8344 86.5147 59.4553 86.1902C60.099 85.8657 60.8924 85.4755 61.8351 85.0194C62.9617 84.4758 64.0884 83.9671 65.2151 83.4935C66.3418 83.02 67.4914 82.5683 68.6641 82.1386C71.5612 81.1125 74.033 80.4328 76.0795 80.0996C76.5623 80.0207 76.9762 79.9812 77.3211 79.9812C77.85 79.9812 78.1144 80.0733 78.1145 80.2574C78.1144 80.4065 77.9879 80.5732 77.7349 80.7573L72.734 84.6248C72.366 84.9142 71.9176 85.3045 71.3888 85.7955C70.86 86.2867 70.2966 86.8216 69.6988 87.4005C69.1239 87.988 68.5491 88.5887 67.9743 89.2026C67.3994 89.8252 66.8821 90.404 66.4223 90.939C65.9624 91.4828 65.583 91.952 65.2841 92.3466C65.0234 92.7277 64.8756 92.9914 64.8407 93.1377C61.7205 94.3925 59.6359 96.2552 58.638 98.6852C59.6696 97.1232 62.6006 94.8207 65.2435 93.7502C65.2455 93.7515 65.2475 93.7529 65.2496 93.7541C65.3875 93.8418 65.5485 93.9159 65.7324 93.9778C65.9164 94.0389 66.1348 94.0702 66.3878 94.0702C67.0086 94.0702 67.9283 93.8857 69.1469 93.5174C70.2323 93.1794 70.9764 92.8903 71.3789 92.65C77.3695 89.6654 72.2268 90.2635 65.5088 92.8734C65.5216 92.7385 65.5847 92.5716 65.6979 92.3729C65.9509 91.9783 66.3188 91.509 66.8017 90.9654C67.3074 90.4216 67.8938 89.834 68.5606 89.2026C69.2504 88.5799 69.9402 87.9704 70.6301 87.3741C71.3199 86.7778 71.9751 86.2297 72.596 85.7297C73.2398 85.2299 73.7686 84.8353 74.1825 84.5459C74.9873 83.9583 75.8035 83.3838 76.6313 82.8226C77.459 82.2525 78.2868 81.6737 79.1146 81.0861C79.1606 81.051 79.1836 81.0073 79.1836 80.9546C79.2066 80.9021 79.2181 80.8494 79.2181 80.7967C79.2181 80.6741 79.195 80.5556 79.1491 80.4416C79.103 80.3189 78.9191 80.1873 78.5973 80.0469C78.3443 79.933 78.1028 79.8453 77.873 79.7839C77.643 79.7137 77.367 79.6917 77.0451 79.718C75.0217 79.8409 72.1476 80.5994 68.4227 81.9938C67.0431 82.5025 65.7784 82.9936 64.6288 83.4672C63.5021 83.9408 62.4674 84.4056 61.5247 84.8616C61.3177 85.0019 61.1337 85.072 60.9728 85.072C60.8808 85.072 60.8349 85.0545 60.8349 85.0194C60.8349 84.9581 60.9153 84.8791 61.0763 84.7826C62.9158 83.6075 64.3528 82.6165 65.3875 81.8097C66.4452 80.9941 67.135 80.3495 67.4569 79.8759C67.5719 79.6743 67.6294 79.4726 67.6294 79.2708C67.6294 78.806 67.365 78.4333 66.8362 78.1527C66.2613 77.8106 65.468 77.6309 64.4563 77.6133C64.3442 77.6113 64.2307 77.6105 64.1154 77.6107ZM73.3086 90.9148C73.8416 90.9208 73.317 91.3983 71.2023 92.4837C71.1845 92.4903 71.1661 92.4972 71.1474 92.5044C68.756 93.4077 67.0776 93.8594 66.1119 93.8594C65.8145 93.8594 65.6373 93.7735 65.5803 93.6016C69.335 91.9554 72.5096 90.9057 73.3086 90.9148Z"  fill-rule="evenodd" />
      <g id="ploma">
        <path id="path4759" fill="url(#defitem6)" stroke-width="0.684827" d="M62.67 78.7543C61.7678 78.7563 60.7663 78.8274 59.6653 78.9674C58.4237 79.1253 57.044 79.3664 55.5264 79.6908C54.1699 79.9978 52.8822 80.3354 51.6636 80.7037C50.468 81.0633 49.3297 81.4668 48.2491 81.914C46.0877 82.791 44.9725 83.5102 44.9036 84.0714C44.8346 84.6502 45.3519 84.9791 46.4556 85.0579C47.0304 85.1019 47.7202 85.0756 48.525 84.9791C48.8009 84.9528 48.9388 84.9177 48.9388 84.8738C48.9388 84.8212 48.8009 84.8036 48.525 84.8212C48.2031 84.8475 47.8582 84.8606 47.4903 84.8606C47.1454 84.8519 46.8005 84.8343 46.4556 84.8081C45.8578 84.7642 45.5589 84.6239 45.5589 84.3872C45.5589 83.7294 46.7086 82.9488 49.0079 82.0455C50.0656 81.6246 51.2037 81.2387 52.4223 80.8879C53.641 80.5371 54.9746 80.1995 56.4232 79.875C59.2974 79.2611 61.5277 78.9718 63.1143 79.0068C64.7928 79.0595 65.6321 79.4497 65.6321 80.1776C65.6321 80.3004 65.5975 80.4276 65.5286 80.5591C65.4826 80.6907 65.4022 80.8266 65.2872 80.9668C64.2985 82.1596 61.0103 84.5098 55.423 88.0178C55.377 88.0616 55.3311 88.1011 55.285 88.1362C55.2621 88.1625 55.2505 88.1888 55.2505 88.2151C55.2505 88.3116 55.4 88.3598 55.699 88.3598C56.0209 88.3598 56.3082 88.2897 56.5612 88.1493C56.9061 87.9301 57.3889 87.6582 58.0097 87.3337C58.6536 87.0092 59.4469 86.619 60.3897 86.163C61.5163 85.6193 62.6429 85.1106 63.7696 84.637C64.8963 84.1635 66.0459 83.7118 67.2186 83.2821C70.1157 82.256 72.5876 81.5763 74.634 81.2431C75.1168 81.1641 75.5307 81.1247 75.8756 81.1247C76.4045 81.1247 76.6689 81.2168 76.6689 81.401C76.6689 81.55 76.5423 81.7167 76.2895 81.9009L71.2885 85.7683C70.9206 86.0577 70.4721 86.448 69.9434 86.9391C69.4144 87.4302 68.8512 87.9652 68.2533 88.544C67.6785 89.1316 67.1036 89.7322 66.5288 90.3461C65.9539 90.9687 65.4366 91.5476 64.9768 92.0826C64.5169 92.6262 64.1375 93.0955 63.8385 93.4902C63.5779 93.8712 63.4301 94.1347 63.3952 94.2814C60.2751 95.5362 58.1903 97.3992 57.1924 99.8292C58.2242 98.2662 61.1552 95.9642 63.7979 94.8936C63.8 94.8953 63.802 94.8961 63.804 94.8978C63.942 94.9851 64.103 95.0598 64.287 95.1217C64.4709 95.1827 64.6893 95.2132 64.9423 95.2132C65.563 95.2132 66.4828 95.0292 67.7015 94.6612C68.7869 94.3229 69.5308 94.0338 69.9334 93.7936C75.9239 90.809 70.7813 91.407 64.0633 94.0168C64.0761 93.882 64.1392 93.7152 64.2525 93.5165C64.5053 93.1218 64.8733 92.6525 65.3561 92.1089C65.862 91.5651 66.4483 90.9776 67.1151 90.3461C67.8049 89.7235 68.4948 89.114 69.1846 88.5177C69.8743 87.9213 70.5297 87.3732 71.1505 86.8733C71.7943 86.3734 72.3231 85.9788 72.7371 85.6894C73.5417 85.1018 74.358 84.5274 75.1858 83.9661C76.0135 83.396 76.8413 82.8172 77.6691 82.2297C77.7151 82.1946 77.7381 82.1508 77.7381 82.0982C77.761 82.0456 77.7726 81.993 77.7726 81.9403C77.7726 81.8175 77.7495 81.6992 77.7036 81.5851C77.6576 81.4624 77.4737 81.3308 77.1518 81.1905C76.8988 81.0765 76.6574 80.9888 76.4274 80.9274C76.1975 80.8573 75.9216 80.8353 75.5997 80.8616C73.5762 80.9844 70.7022 81.743 66.9772 83.1374C65.5976 83.646 64.333 84.1372 63.1833 84.6107C62.0567 85.0843 61.0219 85.549 60.0792 86.0051C59.8723 86.1455 59.6883 86.2156 59.5273 86.2156C59.4353 86.2156 59.3894 86.198 59.3894 86.163C59.3894 86.1016 59.4698 86.0226 59.6308 85.9261C61.4702 84.751 62.9074 83.76 63.9421 82.9532C64.9998 82.1376 65.6895 81.4931 66.0114 81.0195C66.1264 80.8178 66.184 80.6161 66.184 80.4143C66.184 79.9496 65.9195 79.5769 65.3907 79.2962C64.8159 78.9541 64.0225 78.7744 63.0108 78.7568C62.8988 78.7549 62.7852 78.754 62.67 78.7543ZM71.863 92.0584C72.3961 92.0644 71.8714 92.5418 69.7569 93.6272C69.739 93.6339 69.7207 93.6408 69.7019 93.648C67.3105 94.551 65.6321 95.003 64.6664 95.003C64.369 95.003 64.1919 94.9173 64.1348 94.7452C67.8895 93.0989 71.064 92.0493 71.863 92.0584Z"  fill-rule="evenodd" />
        <path id="path2276" fill="#ffffff" fill-opacity="0.756881" stroke-width="0.342414" stroke-linecap="round" stroke-linejoin="round" d="M58.5617 55.7902L58.5617 54.7597L58.5617 55.7902Z"  />
        <path id="path2961" fill="url(#defitem7)" stroke-width="0.547862" stroke-linecap="round" stroke-linejoin="round" d="M53.2548 93.2534C52.9977 93.3518 52.7207 93.2532 52.6365 93.0332L47.4248 79.4275C47.3405 79.2076 47.4808 78.9491 47.7378 78.8506L50.9057 77.6372C51.1627 77.5387 51.4398 77.6373 51.524 77.8573L56.7357 91.4631C56.8199 91.683 56.6797 91.9415 56.4226 92.0399L53.2548 93.2534Z"  />
        <path id="path2963" fill="url(#defitem8)" stroke-width="0.547862" stroke-linecap="round" stroke-linejoin="round" d="M45.2778 71.8091C45.0207 71.9076 44.7437 71.8089 44.6594 71.589L39.9222 59.222C39.838 59.002 39.9782 58.7435 40.2353 58.6451L43.0505 57.5667C43.3076 57.4683 43.5846 57.5669 43.6689 57.7868L48.4061 70.1538C48.4903 70.3738 48.35 70.6323 48.093 70.7307L45.2778 71.8091Z"  />
        <path id="path2965" fill="url(#defitem9)" stroke-width="0.547862" stroke-linecap="round" stroke-linejoin="round" d="M53.2548 93.2534C52.9977 93.3518 52.7207 93.2532 52.6365 93.0332L47.4248 79.4275C47.3405 79.2076 47.4808 78.9491 47.7378 78.8506L50.9057 77.6372C51.1627 77.5387 51.4398 77.6373 51.524 77.8573L56.7357 91.4631C56.8199 91.683 56.6797 91.9415 56.4226 92.0399L53.2548 93.2534Z"  />
        <path id="path2967" fill="url(#defitem10)" stroke-width="0.547862" stroke-linecap="round" stroke-linejoin="round" d="M51.279 89.9846L40.2157 61.1027L44.7069 59.3823L55.7701 88.2642L51.279 89.9846Z"  />
        <path id="path2969" fill="url(#defitem11)" stroke-width="0.547862" stroke-linecap="round" stroke-linejoin="round" d="M40.6884 60.9225L40.0092 59.1493L43.6212 57.7657L44.3004 59.5389L40.6884 60.9225Z"  />
        <path id="path2971" fill="url(#defitem12)" stroke-width="0.547862" stroke-linecap="round" stroke-linejoin="round" d="M40.5103 59.3631C40.2532 59.4615 39.983 59.3806 39.9071 59.1825C39.8312 58.9843 39.9782 58.7435 40.2353 58.6451L43.0505 57.5667C43.3076 57.4683 43.5778 57.5491 43.6538 57.7473C43.7297 57.9455 43.5826 58.1863 43.3256 58.2847L40.5103 59.3631Z"  />
        <path id="path2973" fill="url(#defitem13)" stroke-width="0.547862" stroke-linecap="round" stroke-linejoin="round" d="M40.3686 61.5017L40.2157 61.1027L44.7069 59.3823L44.8598 59.7814L40.3686 61.5017Z"  />
        <path id="path2975" fill="url(#defitem14)" stroke-width="0.547862" stroke-linecap="round" stroke-linejoin="round" d="M51.3942 89.9402L42.3857 66.4223L46.7354 64.7562L55.7439 88.2741L51.3942 89.9402Z"  />
        <path id="path2977" fill="url(#defitem15)" stroke-width="0.529415" stroke-linecap="round" stroke-linejoin="round" d="M51.142 74.9968L45.4932 60.8334L44.3209 61.4455L49.9698 75.6089L51.142 74.9968Z"  />
        <path id="path2979" fill="url(#defitem16)" stroke-width="0.547862" stroke-linecap="round" stroke-linejoin="round" d="M44.4892 61.546L44.9145 61.3832L45.4584 62.8032L45.0332 62.9661L44.4892 61.546Z"  />
        <g id="g3828">
          <path id="rect2826" fill="url(#defitem17)" stroke-width="0.189281" stroke-linecap="round" stroke-linejoin="round" d="M45.6471 60.1749L51.2818 74.8851L51.2724 74.8887L51.2941 74.9454C51.2953 74.9485 51.2985 74.9571 51.3003 74.9616C51.301 74.9637 51.3029 74.9681 51.3033 74.9696C51.3043 74.9725 51.3081 74.9825 51.3095 74.9858C51.3099 74.9869 51.3123 74.993 51.3127 74.994C51.313 75.0013 51.3121 75.016 51.3125 75.0219C51.3126 75.0241 51.3155 75.0277 51.3156 75.0299C51.3152 75.0819 51.2977 75.1467 51.2706 75.1956C51.2633 75.2082 51.251 75.2229 51.2421 75.2343C51.2393 75.2371 51.229 75.2471 51.2262 75.2497C51.2222 75.2537 51.213 75.2624 51.2105 75.265C51.2069 75.2684 51.1984 75.2771 51.1946 75.2804C51.1919 75.2831 51.1816 75.293 51.1789 75.2957C51.1728 75.3002 51.1599 75.3106 51.1536 75.3146C51.1503 75.3159 51.1379 75.3207 51.1347 75.3219L50.4059 75.7124C50.4016 75.7152 50.3944 75.7245 50.39 75.7277C50.3886 75.7288 50.3821 75.7304 50.3806 75.7314C50.3792 75.7323 50.3726 75.7342 50.3711 75.735C50.3694 75.7356 50.3637 75.7381 50.3617 75.7386C50.3531 75.7406 50.3388 75.74 50.3303 75.7414C50.3282 75.7417 50.3225 75.7446 50.3208 75.745C50.3175 75.7464 50.3051 75.751 50.3019 75.7523C50.298 75.7521 50.2837 75.7517 50.2798 75.7514C50.279 75.7517 50.2713 75.7546 50.2704 75.755C50.266 75.755 50.2527 75.7544 50.2484 75.7542C50.2461 75.7534 50.238 75.7506 50.2358 75.7497C50.2305 75.7491 50.2199 75.7497 50.2138 75.7489C50.2123 75.7486 50.2026 75.7447 50.2012 75.7445C50.1993 75.7439 50.1907 75.7406 50.1887 75.74C50.1867 75.7393 50.1781 75.7362 50.1761 75.7355C50.1742 75.7347 50.1654 75.7318 50.1636 75.731C50.1614 75.7302 50.1533 75.7273 50.151 75.7266C50.1484 75.7244 50.138 75.7162 50.1353 75.714C50.1321 75.7116 50.1229 75.7039 50.1197 75.7014C50.1174 75.6994 50.1081 75.6921 50.104 75.6888C50.0975 75.6814 50.0876 75.6675 50.0822 75.6601C50.0808 75.6591 50.0713 75.6568 50.0696 75.6557L50.0572 75.6233C50.0564 75.6212 50.0549 75.6173 50.0542 75.6152L49.9674 75.3887L44.3106 60.7813L45.6471 60.1749ZM50.0482 73.3349C50.0469 73.3355 50.0433 73.3459 50.0419 73.3466C50.0371 73.3493 50.0273 73.3513 50.023 73.3538C50.0141 73.3586 49.9963 73.3705 49.9882 73.3765C49.9734 73.3885 49.9532 73.4062 49.9407 73.4224C49.827 73.584 49.8212 73.9314 49.9486 74.2638C50.076 74.5964 50.299 74.8161 50.4769 74.8223C50.4955 74.8221 50.5224 74.8218 50.5399 74.8167C50.5494 74.8125 50.5669 74.7983 50.5746 74.7941C50.5934 74.7816 50.6173 74.761 50.6315 74.7445C50.7549 74.5898 50.7642 74.2418 50.6331 73.8996C50.5103 73.5787 50.297 73.3544 50.1237 73.3338C50.1151 73.3332 50.1006 73.3363 50.0922 73.3366C50.0872 73.3367 50.0755 73.3358 50.0702 73.3358C50.0685 73.3358 50.0625 73.3393 50.0608 73.3393C50.0599 73.3396 50.049 73.3347 50.0482 73.3349Z"  />
          <path id="path3792" fill="url(#defitem18)" stroke-width="0.189281" stroke-linecap="round" stroke-linejoin="round" d="M51.3004 74.9337L51.2818 74.8851L51.2724 74.8887L51.2941 74.9454C51.2953 74.9485 51.2985 74.9571 51.3003 74.9616C51.301 74.9637 51.3029 74.9681 51.3033 74.9696C51.3043 74.9725 51.3081 74.9825 51.3095 74.9858C51.3099 74.9869 51.3123 74.993 51.3127 74.994C51.313 75.0013 51.3121 75.016 51.3125 75.0219C51.3126 75.0241 51.3155 75.0277 51.3156 75.0299C51.3152 75.0819 51.2977 75.1467 51.2706 75.1956C51.2633 75.2082 51.251 75.2229 51.2421 75.2343C51.2393 75.2371 51.229 75.2471 51.2262 75.2497C51.2222 75.2537 51.213 75.2624 51.2105 75.265C51.2069 75.2684 51.1984 75.2771 51.1946 75.2804C51.1919 75.2831 51.1816 75.293 51.1789 75.2957C51.1728 75.3002 51.1599 75.3106 51.1536 75.3146C51.1503 75.3159 51.1379 75.3207 51.1347 75.3219L50.4059 75.7124C50.4016 75.7152 50.3944 75.7245 50.39 75.7277C50.3886 75.7288 50.3821 75.7304 50.3806 75.7314C50.3792 75.7323 50.3726 75.7342 50.3711 75.735C50.3694 75.7356 50.3637 75.7381 50.3617 75.7386C50.3531 75.7406 50.3388 75.74 50.3303 75.7414C50.3282 75.7417 50.3225 75.7446 50.3208 75.745C50.3175 75.7464 50.3051 75.751 50.3019 75.7523C50.298 75.7521 50.2837 75.7517 50.2798 75.7514C50.279 75.7517 50.2713 75.7546 50.2704 75.755C50.266 75.755 50.2527 75.7544 50.2484 75.7542C50.2461 75.7534 50.238 75.7506 50.2358 75.7497C50.2305 75.7491 50.2199 75.7497 50.2138 75.7489C50.2123 75.7486 50.2026 75.7447 50.2012 75.7445C50.1993 75.7439 50.1907 75.7406 50.1887 75.74C50.1867 75.7393 50.1781 75.7362 50.1761 75.7355C50.1742 75.7347 50.1654 75.7318 50.1636 75.731C50.1614 75.7302 50.1533 75.7273 50.151 75.7266C50.1484 75.7244 50.138 75.7162 50.1353 75.714C50.1321 75.7116 50.1229 75.7039 50.1197 75.7014C50.1174 75.6994 50.1081 75.6921 50.104 75.6888C50.0975 75.6814 50.0876 75.6675 50.0822 75.6601C50.0808 75.6591 50.0713 75.6568 50.0696 75.6557L50.0572 75.6233C50.0564 75.6212 50.0549 75.6173 50.0542 75.6152L49.9674 75.3887L50.048 75.599L51.3004 74.9337Z"  />
        </g>
        <path id="path3897" fill="url(#defitem19)" stroke-width="0.203124" stroke-linecap="round" stroke-linejoin="round" d="M57.4846 99.4312C57.5814 99.4412 57.6435 99.5192 57.6232 99.6072C57.6028 99.6942 57.5079 99.7592 57.411 99.7492C57.3142 99.7402 57.2521 99.6622 57.2725 99.5742C57.2927 99.4862 57.3878 99.4232 57.4846 99.4312Z"  />
        <path id="path2902" fill="url(#defitem20)" stroke-width="0.203124" stroke-linecap="round" stroke-linejoin="round" d="M57.4846 99.4312C57.5814 99.4412 57.6435 99.5192 57.6232 99.6072C57.6028 99.6942 57.5079 99.7592 57.411 99.7492C57.3142 99.7402 57.2521 99.6622 57.2725 99.5742C57.2927 99.4862 57.3878 99.4232 57.4846 99.4312Z"  />
        <g id="g3953">
          <path id="path2987" fill="url(#defitem21)" stroke-width="0.0550633" stroke-linecap="round" stroke-linejoin="round" d="M56.4683 98.3772C56.3935 98.4052 56.3129 98.3772 56.2884 98.3132L54.7723 94.3551C54.7478 94.2907 54.7886 94.2161 54.8634 94.1873L55.7849 93.8342C55.8597 93.8056 55.9402 93.8343 55.9648 93.8982L57.4809 97.8562C57.5054 97.9202 57.4646 97.9952 57.3898 98.0242L56.4683 98.3772Z"  />
          <path id="path3947" fill="url(#defitem22)" stroke-width="0.0550634" stroke-linecap="round" stroke-linejoin="round" d="M57.2676 99.6652C56.8752 99.1292 56.3485 98.4032 56.2983 98.3342C56.2983 98.3342 57.4878 97.8862 57.4879 97.8862C57.4953 97.9712 57.5736 98.8572 57.6318 99.5232L57.2676 99.6652Z"  />
          <path id="path3949" fill="url(#defitem23)" stroke-width="0.0550634" stroke-linecap="round" stroke-linejoin="round" d="M57.2676 99.6652C56.8752 99.1292 56.3485 98.4032 56.2983 98.3342C56.2983 98.3342 57.2113 98.1332 57.2113 98.1332C57.2186 98.2182 57.5736 98.8572 57.6318 99.5232L57.2676 99.6652Z"  />
          <path id="path3951" fill="url(#defitem24)" stroke-width="0.0550634" stroke-linecap="round" stroke-linejoin="round" d="M57.6329 99.5222C57.5667 98.8622 57.3562 98.0672 57.2609 98.0932L56.285 98.3452L57.268 99.6652L57.6329 99.5222Z"  />
        </g>
        <path id="path3836" fill="url(#defitem25)" stroke-width="0.547862" stroke-linecap="round" stroke-linejoin="round" d="M56.0023 97.6812C54.6538 95.8392 52.8431 93.343 52.6705 93.1066C52.6706 93.1065 56.7597 91.5654 56.7597 91.5663C56.7851 91.857 57.0545 94.9037 57.2544 97.1932L56.0023 97.6812Z"  />
        <path id="path1701" fill="url(#defitem26)" stroke-width="0.547862" stroke-linecap="round" stroke-linejoin="round" d="M57.2496 97.2062L56.7363 91.5938L52.6319 93.1112L55.9912 97.6792L57.2496 97.2062Z"  />
        <path id="path3875" fill="url(#defitem27)" stroke-width="0.547862" stroke-linecap="round" stroke-linejoin="round" d="M55.9973 97.6752C54.6488 95.8332 52.8382 93.3368 52.6655 93.1004C52.6656 93.1003 56.7547 91.5592 56.7547 91.5601C56.7801 91.8509 57.0496 94.8978 57.2494 97.1862L55.9973 97.6752Z"  />
        <path id="path1705" fill="url(#defitem28)" stroke-width="0.547862" stroke-linecap="round" stroke-linejoin="round" d="M57.3002 97.1912L56.787 91.5783L52.6825 93.0957L56.0419 97.6632L57.3002 97.1912Z"  />
        <path id="path3937" fill="url(#defitem29)" stroke-width="0.547862" stroke-linecap="round" stroke-linejoin="round" d="M57.3044 97.1252L56.7402 91.5878L52.6849 93.1013L56.0162 97.6712L57.3044 97.1252Z"  />
        <path id="rect2592" fill="url(#defitem30)" stroke-width="0.547862" stroke-linecap="round" stroke-linejoin="round" d="M55.4963 88.421L52.3683 90.6079L52.6466 93.0758L56.6866 91.5283L55.4963 88.421Z"  />
        <path id="path2998" fill="#dfdfdf" stroke-width="3.972" d="M47.9045 81.1416L52.4059 79.4174L54.9689 86.1084L50.4675 87.8327L47.9045 81.1416Z"  />
      </g>
    </g>
  </g>
</svg>
