<?xml version="1.0" encoding="UTF-8" standalone="no"?>
<!-- Created with Inkscape (http://www.inkscape.org/) -->
<svg
   xmlns:a="http://ns.adobe.com/AdobeSVGViewerExtensions/3.0/"
   xmlns:dc="http://purl.org/dc/elements/1.1/"
   xmlns:cc="http://creativecommons.org/ns#"
   xmlns:rdf="http://www.w3.org/1999/02/22-rdf-syntax-ns#"
   xmlns:svg="http://www.w3.org/2000/svg"
   xmlns="http://www.w3.org/2000/svg"
   xmlns:xlink="http://www.w3.org/1999/xlink"
   xmlns:sodipodi="http://sodipodi.sourceforge.net/DTD/sodipodi-0.dtd"
   xmlns:inkscape="http://www.inkscape.org/namespaces/inkscape"
   version="1.0"
   width="128"
   height="128"
   id="svg1"
   sodipodi:version="0.32"
   inkscape:version="0.46"
   sodipodi:docname="client_self_invoice.svg"
   inkscape:output_extension="org.inkscape.output.svg.inkscape">
  <metadata
     id="metadata275">
    <rdf:RDF>
      <cc:Work
         rdf:about="">
        <dc:format>image/svg+xml</dc:format>
        <dc:type
           rdf:resource="http://purl.org/dc/dcmitype/StillImage" />
      </cc:Work>
    </rdf:RDF>
  </metadata>
  <sodipodi:namedview
     inkscape:window-height="480"
     inkscape:window-width="640"
     inkscape:pageshadow="2"
     inkscape:pageopacity="0.0"
     guidetolerance="10.0"
     gridtolerance="10.0"
     objecttolerance="10.0"
     borderopacity="1.0"
     bordercolor="#666666"
     pagecolor="#ffffff"
     id="base"
     showgrid="false" />
  <defs
     id="defs3">
    <inkscape:perspective
       sodipodi:type="inkscape:persp3d"
       inkscape:vp_x="0 : 64 : 1"
       inkscape:vp_y="0 : 1000 : 0"
       inkscape:vp_z="128 : 64 : 1"
       inkscape:persp3d-origin="64 : 42.666667 : 1"
       id="perspective277" />
    <radialGradient
       cx="102"
       cy="112.3047"
       r="139.55859"
       id="radialGradient9121"
       gradientUnits="userSpaceOnUse">
      <stop
         id="stop9123"
         style="stop-color:#535557;stop-opacity:1"
         offset="0" />
      <stop
         id="stop9125"
         style="stop-color:#898a8c;stop-opacity:1"
         offset="0.11366145" />
      <stop
         id="stop9127"
         style="stop-color:#ececec;stop-opacity:1"
         offset="0.20296688" />
      <stop
         id="stop9129"
         style="stop-color:#fafafa;stop-opacity:1"
         offset="0.23630001" />
      <stop
         id="stop9131"
         style="stop-color:#ffffff;stop-opacity:1"
         offset="0.27219999" />
      <stop
         id="stop9133"
         style="stop-color:#fafafa;stop-opacity:1"
         offset="0.53130001" />
      <stop
         id="stop9135"
         style="stop-color:#ebecec;stop-opacity:1"
         offset="0.84490001" />
      <stop
         id="stop9137"
         style="stop-color:#e1e2e3;stop-opacity:1"
         offset="1" />
    </radialGradient>
    <linearGradient
       id="linearGradient3291">
      <stop
         id="stop3293"
         style="stop-color:#000000;stop-opacity:1"
         offset="0" />
      <stop
         id="stop3295"
         style="stop-color:#000000;stop-opacity:0"
         offset="1" />
    </linearGradient>
    <linearGradient
       x1="96"
       y1="104"
       x2="88.000198"
       y2="96.000198"
       id="XMLID_12_"
       gradientUnits="userSpaceOnUse">
      <stop
         id="stop83"
         style="stop-color:#888a85;stop-opacity:1"
         offset="0" />
      <stop
         id="stop85"
         style="stop-color:#8c8e89;stop-opacity:1"
         offset="0.0072" />
      <stop
         id="stop87"
         style="stop-color:#abaca9;stop-opacity:1"
         offset="0.0673" />
      <stop
         id="stop89"
         style="stop-color:#c5c6c4;stop-opacity:1"
         offset="0.1347" />
      <stop
         id="stop91"
         style="stop-color:#dbdbda;stop-opacity:1"
         offset="0.2652576" />
      <stop
         id="stop93"
         style="stop-color:#ebebeb;stop-opacity:1"
         offset="0.37646064" />
      <stop
         id="stop95"
         style="stop-color:#f7f7f6;stop-opacity:1"
         offset="0.48740286" />
      <stop
         id="stop97"
         style="stop-color:#fdfdfd;stop-opacity:1"
         offset="0.6324091" />
      <stop
         id="stop99"
         style="stop-color:#ffffff;stop-opacity:1"
         offset="1" />
    </linearGradient>
    <radialGradient
       cx="-185"
       cy="11"
       r="118.3596"
       fx="-185"
       fy="11"
       id="XMLID_7_"
       gradientUnits="userSpaceOnUse"
       gradientTransform="matrix(-1,0,0,-1,-146,109)">
      <stop
         id="stop3308"
         style="stop-color:#f2f2f2;stop-opacity:1"
         offset="0" />
      <stop
         id="stop3310"
         style="stop-color:#c4c4c4;stop-opacity:1"
         offset="1" />
      <a:midPointStop
         style="stop-color:#F2F2F2"
         offset="0" />
      <a:midPointStop
         style="stop-color:#F2F2F2"
         offset="0.5" />
      <a:midPointStop
         style="stop-color:#C4C4C4"
         offset="1" />
    </radialGradient>
    <filter
       id="filter11819">
      <feGaussianBlur
         id="feGaussianBlur11821"
         stdDeviation="0.28428849"
         inkscape:collect="always" />
    </filter>
    <filter
       id="filter11799">
      <feGaussianBlur
         id="feGaussianBlur11801"
         stdDeviation="2.866223"
         inkscape:collect="always" />
    </filter>
    <linearGradient
       id="linearGradient11752">
      <stop
         id="stop5640"
         style="stop-color:#20680d;stop-opacity:1"
         offset="0" />
      <stop
         id="stop11756"
         style="stop-color:#27b512;stop-opacity:1"
         offset="0.50834566" />
      <stop
         id="stop11758"
         style="stop-color:#0e6908;stop-opacity:1"
         offset="1" />
    </linearGradient>
    <linearGradient
       x1="72.008102"
       y1="200.00728"
       x2="176.48621"
       y2="82.233841"
       id="linearGradient5501"
       xlink:href="#linearGradient11752"
       gradientUnits="userSpaceOnUse"
       gradientTransform="translate(-39.073736,25.772039)" />
    <linearGradient
       x1="96"
       y1="104"
       x2="88.000198"
       y2="96.000198"
       id="linearGradient37488"
       xlink:href="#XMLID_12_"
       gradientUnits="userSpaceOnUse"
       gradientTransform="matrix(0.9357399,0,0,0.9357393,4.1126789,1.5046938)" />
    <radialGradient
       cx="102"
       cy="112.3047"
       r="139.55859"
       id="radialGradient37491"
       xlink:href="#radialGradient9121"
       gradientUnits="userSpaceOnUse"
       gradientTransform="matrix(0.9025577,0,0,0.9036669,6.2363452,3.5572937)" />
    <radialGradient
       cx="102"
       cy="112.3047"
       r="139.5585"
       id="radialGradient37494"
       xlink:href="#XMLID_7_"
       gradientUnits="userSpaceOnUse"
       gradientTransform="matrix(0.9357399,0,0,0.9357393,4.1126789,1.5046938)" />
    <radialGradient
       cx="63.912209"
       cy="115.70919"
       r="63.912209"
       fx="63.912209"
       fy="115.7093"
       id="radialGradient37501"
       xlink:href="#linearGradient3291"
       gradientUnits="userSpaceOnUse"
       gradientTransform="matrix(-1.001374,0,0,8.1173787e-2,128.00003,113.41944)" />
    <radialGradient
       cx="102"
       cy="112.3047"
       r="139.5585"
       id="radialGradient19216"
       xlink:href="#XMLID_7_"
       gradientUnits="userSpaceOnUse"
       gradientTransform="matrix(0.9357399,0,0,0.9357393,112.96179,2.6395496)" />
    <radialGradient
       cx="102"
       cy="112.3047"
       r="139.5585"
       id="radialGradient19218"
       xlink:href="#XMLID_7_"
       gradientUnits="userSpaceOnUse"
       gradientTransform="matrix(0.9357399,0,0,0.9357393,112.96179,2.6395496)" />
    <radialGradient
       cx="102"
       cy="112.3047"
       r="139.5585"
       id="radialGradient19220"
       xlink:href="#XMLID_7_"
       gradientUnits="userSpaceOnUse"
       gradientTransform="matrix(0.9357399,0,0,0.9357393,112.96179,2.6395496)" />
    <linearGradient
       y2="122.232"
       x2="64.7554"
       y1="116.609"
       x1="64.7554"
       gradientTransform="translate(-0.755169,0)"
       gradientUnits="userSpaceOnUse"
       id="linearGradient3247"
       xlink:href="#defitem2"
       inkscape:collect="always" />
    <linearGradient
       y2="122.232"
       x2="64.7554"
       y1="127.43"
       x1="64.7554"
       gradientTransform="translate(-0.755169,0)"
       gradientUnits="userSpaceOnUse"
       id="linearGradient3245"
       xlink:href="#defitem1"
       inkscape:collect="always" />
    <radialGradient
       r="61.5363"
       fy="122.232"
       fx="64.7554"
       cy="122.232"
       cx="64.7554"
       gradientTransform="translate(-0.75517,0)"
       gradientUnits="userSpaceOnUse"
       id="radialGradient3243"
       xlink:href="#defitem0"
       inkscape:collect="always" />
    <linearGradient
       y2="122.232"
       x2="64.7554"
       y1="116.609"
       x1="64.7554"
       gradientTransform="translate(-0.755169,0)"
       gradientUnits="userSpaceOnUse"
       id="linearGradient3234"
       xlink:href="#defitem2"
       inkscape:collect="always" />
    <linearGradient
       y2="122.232"
       x2="64.7554"
       y1="127.43"
       x1="64.7554"
       gradientTransform="translate(-0.755169,0)"
       gradientUnits="userSpaceOnUse"
       id="linearGradient3232"
       xlink:href="#defitem1"
       inkscape:collect="always" />
    <radialGradient
       r="61.5363"
       fy="122.232"
       fx="64.7554"
       cy="122.232"
       cx="64.7554"
       gradientTransform="translate(-0.75517,0)"
       gradientUnits="userSpaceOnUse"
       id="radialGradient3230"
       xlink:href="#defitem0"
       inkscape:collect="always" />
    <radialGradient
       gradientTransform="translate(-0.75517,0)"
       r="61.5363"
       fy="122.232"
       fx="64.7554"
       cy="122.232"
       cx="64.7554"
       gradientUnits="userSpaceOnUse"
       id="radialGradient2497"
       xlink:href="#defitem0"
       inkscape:collect="always" />
    <linearGradient
       gradientTransform="translate(-0.755169,0)"
       y2="122.232"
       x2="64.7554"
       y1="127.43"
       x1="64.7554"
       gradientUnits="userSpaceOnUse"
       id="linearGradient2494"
       xlink:href="#defitem1"
       inkscape:collect="always" />
    <linearGradient
       gradientTransform="translate(-0.755169,0)"
       y2="122.232"
       x2="64.7554"
       y1="116.609"
       x1="64.7554"
       gradientUnits="userSpaceOnUse"
       id="linearGradient2491"
       xlink:href="#defitem2"
       inkscape:collect="always" />
    <linearGradient
       y2="122.232"
       x2="64.7554"
       y1="116.609"
       x1="64.7554"
       gradientUnits="userSpaceOnUse"
       id="defitem2">
      <stop
         id="stop17"
         stop-opacity="1"
         offset="0"
         stop-color="#ffffff" />
      <stop
         id="stop19"
         stop-opacity="0"
         offset="1"
         stop-color="#ffffff" />
    </linearGradient>
    <linearGradient
       y2="122.232"
       x2="64.7554"
       y1="127.43"
       x1="64.7554"
       gradientUnits="userSpaceOnUse"
       id="defitem1">
      <stop
         id="stop12"
         stop-opacity="1"
         offset="0"
         stop-color="#ffffff" />
      <stop
         id="stop14"
         stop-opacity="0"
         offset="1"
         stop-color="#ffffff" />
    </linearGradient>
    <radialGradient
       r="61.5363"
       fy="122.232"
       fx="64.7554"
       cy="122.232"
       cx="64.7554"
       gradientUnits="userSpaceOnUse"
       id="defitem0">
      <stop
         id="stop7"
         stop-opacity="1"
         offset="0"
         stop-color="#000000" />
      <stop
         id="stop9"
         stop-opacity="0"
         offset="1"
         stop-color="#000000" />
    </radialGradient>
    <inkscape:perspective
       id="perspective2840"
       inkscape:persp3d-origin="64 : 42.666667 : 1"
       inkscape:vp_z="128 : 64 : 1"
       inkscape:vp_y="0 : 1000 : 0"
       inkscape:vp_x="0 : 64 : 1"
       sodipodi:type="inkscape:persp3d" />
  </defs>
  <g
     id="g2861">
    <g
       id="g2863">
      <path
         id="path2865"
         d=""
         style="fill:#000000" />
    </g>
    <path
       id="path2867"
       d=""
       style="fill:#000000" />
    <g
       id="g2869" />
    <g
       id="g2871" />
    <g
       id="g2873" />
    <g
       id="g11264">
      <path
         id="path11266"
         d=""
         style="fill:#000000" />
    </g>
    <path
       id="path11268"
       d=""
       style="fill:#000000" />
    <g
       id="g11270" />
    <g
       id="g11272" />
    <g
       id="g11274" />
    <path
       id="path2881"
       d=""
       style="fill:#000000" />
    <g
       id="g2883">
      <path
         id="path2885"
         d=""
         style="fill:#000000" />
    </g>
    <path
       id="path2887"
       d=""
       style="fill:#000000" />
    <g
       id="g2889" />
    <g
       id="g2891" />
    <g
       id="g2893" />
    <path
       id="path2895"
       d=""
       style="fill:#000000" />
    <g
       id="g2897" />
    <g
       id="g2899" />
    <g
       id="g2901" />
    <g
       id="g2903" />
    <g
       id="g2905" />
    <g
       id="g2907" />
    <g
       id="g2909">
      <path
         id="path2911"
         d=""
         style="fill:#000000" />
    </g>
    <path
       id="path2913"
       d=""
       style="fill:#000000" />
    <g
       id="g2915" />
    <g
       id="g2917" />
    <g
       id="g2919" />
    <path
       id="path2921"
       d=""
       style="fill:#000000" />
    <g
       id="g2923">
      <path
         id="path2925"
         d=""
         style="fill:#000000" />
    </g>
    <path
       id="path2927"
       d=""
       style="fill:#000000" />
    <g
       id="g2929" />
    <g
       id="g2931" />
    <g
       id="g2933" />
    <path
       id="path2935"
       d=""
       style="fill:#000000" />
    <g
       id="g2937" />
    <g
       id="g2939" />
    <g
       id="g2941" />
    <g
       id="g2943" />
    <g
       id="g2945" />
    <g
       id="g2947" />
    <g
       transform="translate(0,58.59)"
       id="g3236">
      <g
         id="g3225"
         transform="translate(5e-7,-58.02)">
        <path
           id="path1563"
           d="M 127.99983,122.232 C 127.99983,125.097 99.34683,127.42 64.00023,127.42 C 28.65393,127.42 0.00017,125.097 0.00017,122.232 C 0.00017,119.367 28.65393,117.044 64.00023,117.044 C 99.34683,117.044 127.99983,119.367 127.99983,122.232 L 127.99983,122.232 z"
           style="fill:url(#radialGradient3243);stroke-width:0;stroke-linecap:round;stroke-linejoin:round" />
        <path
           id="path3251"
           d="M 127.99983,122.232 L 0.000169,122.232 C 0.000169,125.103 28.653931,127.43 64.000231,127.43 C 99.346831,127.43 127.99983,125.103 127.99983,122.232 L 127.99983,122.232 z"
           style="fill:url(#linearGradient3245);stroke-width:0;stroke-linecap:round;stroke-linejoin:round" />
        <path
           id="path2455"
           d="M 127.99983,122.232 L 0.000169,122.232 C 0.000169,119.127 28.653931,116.61 64.000231,116.61 C 99.346831,116.61 127.99983,119.127 127.99983,122.232 L 127.99983,122.232 z"
           style="fill:url(#linearGradient3247);stroke-width:0;stroke-linecap:round;stroke-linejoin:round" />
      </g>
      <path
         style="opacity:0.65;fill:#ffffff;fill-opacity:1;stroke-width:0;stroke-linecap:round;stroke-linejoin:round"
         d="M 64.000001,58.59375 C 29.758272,58.59375 1.7766162,60.93571 0.06249925,63.90625 C 0.00012425,64.00011 -7.5e-07,64.12362 -7.5e-07,64.21875 C -7.5e-07,64.39781 0.09400325,64.54435 0.31249925,64.71875 C 0.42501225,64.81163 0.54684125,64.90862 0.71874925,65 C 1.8517782,65.60106 4.2703852,66.17293 7.7187492,66.6875 C 9.6892442,66.98211 11.985185,67.24328 14.593751,67.5 C 18.506599,67.88435 23.111513,68.22029 28.21875,68.5 C 33.325987,68.78022 38.956652,69.00438 44.968751,69.15625 C 50.980848,69.30784 57.372569,69.40625 64.000001,69.40625 C 70.627488,69.40625 77.019159,69.30784 83.031251,69.15625 C 89.043342,69.00438 94.674059,68.78022 99.781253,68.5 C 104.88844,68.22029 109.46221,67.88435 113.375,67.5 C 115.98353,67.24328 118.31079,66.98211 120.28125,66.6875 C 123.72955,66.17293 126.117,65.60106 127.25,65 C 127.4219,64.90862 127.54374,64.81163 127.65625,64.71875 C 127.7655,64.63155 127.85096,64.55717 127.90625,64.46875 C 127.96154,64.38015 128,64.30847 128,64.21875 C 128,64.12362 127.96862,64.00011 127.90625,63.90625 C 126.19218,60.93571 98.242019,58.59375 64.000001,58.59375 z"
         id="path2440" />
    </g>
  </g>
  <g
     id="layer1"
     style="opacity:1;display:inline">
    <path
       d=""
       id="path3945"
       style="opacity:1" />
  </g>
  <path
     d=""
     id="path3081" />
  <g
     id="layer2"
     style="display:inline" />
  <g
     id="layer3"
     style="display:inline" />
  <g
     id="layer4"
     style="opacity:1;display:inline" />
  <path
     d=""
     id="path2167" />
  <g
     transform="translate(78.07065,-42.984927)"
     id="g3036"
     style="display:inline">
    <path
       d=""
       id="path4922"
       style="opacity:1" />
  </g>
  <path
     d=""
     id="path4924" />
  <g
     transform="translate(78.07065,-42.984927)"
     id="g4926"
     style="display:inline" />
  <g
     transform="translate(78.07065,-42.984927)"
     id="g4928"
     style="display:inline" />
  <g
     transform="translate(78.07065,-42.984927)"
     id="g4930"
     style="display:inline" />
  <path
     d=""
     id="path10095" />
  <path
     d="M 367.35065,-76.372985 L 367.35065,-79.167694 L 367.35065,-76.372985 z"
     id="path2191"
     style="fill:#ffffff;fill-opacity:0.75688076;fill-rule:nonzero;stroke:none;stroke-width:0.5;stroke-linecap:round;stroke-linejoin:round;stroke-miterlimit:4;stroke-dasharray:none;stroke-dashoffset:4;stroke-opacity:1" />
  <path
     d="M 210.34235,-146.00809 L 210.34235,-148.8028 L 210.34235,-146.00809 z"
     id="path2985"
     style="fill:#ffffff;fill-opacity:0.75688076;fill-rule:nonzero;stroke:none;stroke-width:0.5;stroke-linecap:round;stroke-linejoin:round;stroke-miterlimit:4;stroke-dasharray:none;stroke-dashoffset:4;stroke-opacity:1" />
  <path
     d="M 90.84015,-232.63833 L 90.84015,-235.43304 L 90.84015,-232.63833 z"
     id="path3206"
     style="fill:#ffffff;fill-opacity:0.75688076;fill-rule:nonzero;stroke:none;stroke-width:0.5;stroke-linecap:round;stroke-linejoin:round;stroke-miterlimit:4;stroke-dasharray:none;stroke-dashoffset:4;stroke-opacity:1" />
  <g
     transform="translate(273.79175,-88.056701)"
     id="g2878"
     style="display:inline" />
  <g
     transform="translate(273.79175,-88.056701)"
     id="g4938"
     style="display:inline" />
  <path
     d="M 337.43155,-166.88306 L 337.43155,-169.67777 L 337.43155,-166.88306 z"
     id="path3946"
     style="fill:#ffffff;fill-opacity:0.75688076;fill-rule:nonzero;stroke:none;stroke-width:0.5;stroke-linecap:round;stroke-linejoin:round;stroke-miterlimit:4;stroke-dasharray:none;stroke-dashoffset:4;stroke-opacity:1" />
  <path
     d="M 244.8071,-92.989385 L 244.8071,-94.516121 L 244.8071,-92.989385 z"
     id="path1561"
     style="fill:#ffffff;fill-opacity:0.75688076;fill-rule:nonzero;stroke:none;stroke-width:0.5;stroke-linecap:round;stroke-linejoin:round;stroke-miterlimit:4;stroke-dasharray:none;stroke-dashoffset:4;stroke-opacity:1" />
  <rect
     width="1"
     height="0"
     x="187.32236"
     y="-149.58939"
     id="rect1327"
     style="opacity:0.57786889;fill:#ffffff;fill-opacity:1;fill-rule:nonzero;stroke:none;stroke-width:3.63199997;stroke-linecap:round;stroke-linejoin:round;stroke-miterlimit:4;stroke-dasharray:none;stroke-dashoffset:4;stroke-opacity:1" />
  <rect
     width="1"
     height="0"
     x="152.19556"
     y="-177.11699"
     id="rect2482"
     style="opacity:0.57786889;fill:#ffffff;fill-opacity:1;fill-rule:nonzero;stroke:none;stroke-width:3.63199997;stroke-linecap:round;stroke-linejoin:round;stroke-miterlimit:4;stroke-dasharray:none;stroke-dashoffset:4;stroke-opacity:1" />
  <path
     d="M -6.74187,-250.33305 L -6.74187,-253.12776 L -6.74187,-250.33305 z"
     id="path2494"
     style="fill:#ffffff;fill-opacity:0.75688076;fill-rule:nonzero;stroke:none;stroke-width:0.5;stroke-linecap:round;stroke-linejoin:round;stroke-miterlimit:4;stroke-dasharray:none;stroke-dashoffset:4;stroke-opacity:1" />
  <g
     transform="matrix(-0.782995,0,0,0.650879,-2329.6006,436.18458)"
     id="g4640"
     style="opacity:0.40163933" />
  <g
     transform="matrix(-0.782995,0,0,0.650879,-2329.6006,436.18458)"
     id="g4646"
     style="opacity:0.40163933" />
  <g
     transform="matrix(1,0,0,0.650879,871.36255,443.51238)"
     id="g4730"
     style="opacity:0.40163933" />
  <g
     transform="matrix(1,0,0,0.650879,871.36255,443.51238)"
     id="g4748"
     style="opacity:0.40163933" />
  <g
     transform="translate(142.96945,-12.095749)"
     id="g12948"
     style="display:inline">
    <path
       d=""
       id="path12950"
       style="opacity:1" />
  </g>
  <path
     d=""
     id="path12952" />
  <g
     transform="translate(142.96945,-12.095749)"
     id="g12954"
     style="display:inline" />
  <g
     transform="translate(142.96945,-12.095749)"
     id="g12956"
     style="display:inline" />
  <g
     transform="translate(142.96945,-12.095749)"
     id="g12958"
     style="display:inline" />
  <path
     d=""
     id="path12983" />
  <g
     transform="translate(221.0401,-55.080676)"
     id="g12985"
     style="display:inline">
    <path
       d=""
       id="path12987"
       style="opacity:1" />
  </g>
  <path
     d=""
     id="path12989" />
  <g
     transform="translate(221.0401,-55.080676)"
     id="g12991"
     style="display:inline" />
  <g
     transform="translate(221.0401,-55.080676)"
     id="g12993"
     style="display:inline" />
  <g
     transform="translate(221.0401,-55.080676)"
     id="g12995"
     style="display:inline" />
  <path
     d=""
     id="path12997" />
  <path
     d="M 510.3201,-88.468734 L 510.3201,-91.263443 L 510.3201,-88.468734 z"
     id="path13001"
     style="fill:#ffffff;fill-opacity:0.75688076;fill-rule:nonzero;stroke:none;stroke-width:0.5;stroke-linecap:round;stroke-linejoin:round;stroke-miterlimit:4;stroke-dasharray:none;stroke-dashoffset:4;stroke-opacity:1" />
  <path
     d="M 353.3118,-158.10384 L 353.3118,-160.89855 L 353.3118,-158.10384 z"
     id="path13003"
     style="fill:#ffffff;fill-opacity:0.75688076;fill-rule:nonzero;stroke:none;stroke-width:0.5;stroke-linecap:round;stroke-linejoin:round;stroke-miterlimit:4;stroke-dasharray:none;stroke-dashoffset:4;stroke-opacity:1" />
  <path
     d="M 233.8096,-244.73408 L 233.8096,-247.52879 L 233.8096,-244.73408 z"
     id="path13005"
     style="fill:#ffffff;fill-opacity:0.75688076;fill-rule:nonzero;stroke:none;stroke-width:0.5;stroke-linecap:round;stroke-linejoin:round;stroke-miterlimit:4;stroke-dasharray:none;stroke-dashoffset:4;stroke-opacity:1" />
  <g
     transform="translate(416.7612,-100.15245)"
     id="g13007"
     style="display:inline" />
  <g
     transform="translate(416.7612,-100.15245)"
     id="g13009"
     style="display:inline" />
  <path
     d="M 480.401,-178.97881 L 480.401,-181.77352 L 480.401,-178.97881 z"
     id="path13011"
     style="fill:#ffffff;fill-opacity:0.75688076;fill-rule:nonzero;stroke:none;stroke-width:0.5;stroke-linecap:round;stroke-linejoin:round;stroke-miterlimit:4;stroke-dasharray:none;stroke-dashoffset:4;stroke-opacity:1" />
  <path
     d="M 387.77655,-105.08513 L 387.77655,-106.61187 L 387.77655,-105.08513 z"
     id="path13013"
     style="fill:#ffffff;fill-opacity:0.75688076;fill-rule:nonzero;stroke:none;stroke-width:0.5;stroke-linecap:round;stroke-linejoin:round;stroke-miterlimit:4;stroke-dasharray:none;stroke-dashoffset:4;stroke-opacity:1" />
  <rect
     width="1"
     height="0"
     x="330.29181"
     y="-161.68513"
     id="rect13015"
     style="opacity:0.57786889;fill:#ffffff;fill-opacity:1;fill-rule:nonzero;stroke:none;stroke-width:3.63199997;stroke-linecap:round;stroke-linejoin:round;stroke-miterlimit:4;stroke-dasharray:none;stroke-dashoffset:4;stroke-opacity:1" />
  <rect
     width="1"
     height="0"
     x="295.16501"
     y="-189.21274"
     id="rect13017"
     style="opacity:0.57786889;fill:#ffffff;fill-opacity:1;fill-rule:nonzero;stroke:none;stroke-width:3.63199997;stroke-linecap:round;stroke-linejoin:round;stroke-miterlimit:4;stroke-dasharray:none;stroke-dashoffset:4;stroke-opacity:1" />
  <path
     d="M 136.22758,-262.4288 L 136.22758,-265.22351 L 136.22758,-262.4288 z"
     id="path13019"
     style="fill:#ffffff;fill-opacity:0.75688076;fill-rule:nonzero;stroke:none;stroke-width:0.5;stroke-linecap:round;stroke-linejoin:round;stroke-miterlimit:4;stroke-dasharray:none;stroke-dashoffset:4;stroke-opacity:1" />
  <g
     transform="matrix(-0.782995,0,0,0.650879,-2186.6312,424.08883)"
     id="g13021"
     style="opacity:0.40163933" />
  <g
     transform="matrix(-0.782995,0,0,0.650879,-2186.6312,424.08883)"
     id="g13023"
     style="opacity:0.40163933" />
  <g
     transform="matrix(1,0,0,0.650879,1014.332,431.41663)"
     id="g13025"
     style="opacity:0.40163933" />
  <g
     transform="matrix(1,0,0,0.650879,1014.332,431.41663)"
     id="g13027"
     style="opacity:0.40163933" />
  <path
     d="M 405.44246,24.847725 L 405.44246,22.053016 L 405.44246,24.847725 z"
     id="path4226"
     style="fill:#ffffff;fill-opacity:0.75688076;fill-rule:nonzero;stroke:none;stroke-width:0.5;stroke-linecap:round;stroke-linejoin:round;stroke-miterlimit:4;stroke-dasharray:none;stroke-dashoffset:4;stroke-opacity:1" />
  <g
     transform="matrix(0.5619067,0,0,0.6028511,66.22107,83.316673)"
     id="g5678"
     style="display:inline" />
  <g
     transform="matrix(0.5619067,0,0,0.6028511,66.22107,83.316673)"
     id="layer5"
     style="display:inline" />
  <path
     d="M 336.37743,-77.922758 L 336.37743,-80.523441 L 336.37743,-77.922758 z"
     id="path13199"
     style="fill:#ffffff;fill-opacity:0.75688076;fill-rule:nonzero;stroke:none;stroke-width:0.5;stroke-linecap:round;stroke-linejoin:round;stroke-miterlimit:4;stroke-dasharray:none;stroke-dashoffset:4;stroke-opacity:1" />
  <path
     d=""
     id="path5682" />
  <path
     d=""
     id="path5684" />
  <path
     d=""
     id="path3143" />
  <g
     id="g36974"
     style="display:inline">
    <path
       d=""
       id="path36976"
       style="opacity:1" />
  </g>
  <path
     d=""
     id="path36978" />
  <g
     id="g36980"
     style="display:inline" />
  <g
     id="g36982"
     style="display:inline" />
  <g
     id="g36984"
     style="display:inline" />
  <path
     d=""
     id="path36986" />
  <g
     transform="translate(227.84024,-45.434429)"
     id="g36988"
     style="display:inline">
    <path
       d=""
       id="path36990"
       style="opacity:1" />
  </g>
  <path
     d=""
     id="path36992" />
  <g
     transform="translate(227.84024,-45.434429)"
     id="g36994"
     style="display:inline" />
  <g
     transform="translate(227.84024,-45.434429)"
     id="g36996"
     style="display:inline" />
  <g
     transform="translate(227.84024,-45.434429)"
     id="g36998"
     style="display:inline" />
  <path
     d=""
     id="path37000" />
  <path
     d="M 517.12024,-78.822487 L 517.12024,-81.617196 L 517.12024,-78.822487 z"
     id="path37002"
     style="fill:#ffffff;fill-opacity:0.75688076;fill-rule:nonzero;stroke:none;stroke-width:0.5;stroke-linecap:round;stroke-linejoin:round;stroke-miterlimit:4;stroke-dasharray:none;stroke-dashoffset:4;stroke-opacity:1" />
  <path
     d="M 360.11194,-148.45759 L 360.11194,-151.2523 L 360.11194,-148.45759 z"
     id="path37004"
     style="fill:#ffffff;fill-opacity:0.75688076;fill-rule:nonzero;stroke:none;stroke-width:0.5;stroke-linecap:round;stroke-linejoin:round;stroke-miterlimit:4;stroke-dasharray:none;stroke-dashoffset:4;stroke-opacity:1" />
  <path
     d="M 240.60974,-235.08783 L 240.60974,-237.88254 L 240.60974,-235.08783 z"
     id="path37006"
     style="fill:#ffffff;fill-opacity:0.75688076;fill-rule:nonzero;stroke:none;stroke-width:0.5;stroke-linecap:round;stroke-linejoin:round;stroke-miterlimit:4;stroke-dasharray:none;stroke-dashoffset:4;stroke-opacity:1" />
  <g
     transform="translate(423.56134,-90.506203)"
     id="g37008"
     style="display:inline" />
  <g
     transform="translate(423.56134,-90.506203)"
     id="g37010"
     style="display:inline" />
  <path
     d="M 487.20114,-169.33256 L 487.20114,-172.12727 L 487.20114,-169.33256 z"
     id="path37012"
     style="fill:#ffffff;fill-opacity:0.75688076;fill-rule:nonzero;stroke:none;stroke-width:0.5;stroke-linecap:round;stroke-linejoin:round;stroke-miterlimit:4;stroke-dasharray:none;stroke-dashoffset:4;stroke-opacity:1" />
  <path
     d="M 394.57669,-95.438887 L 394.57669,-96.965623 L 394.57669,-95.438887 z"
     id="path37014"
     style="fill:#ffffff;fill-opacity:0.75688076;fill-rule:nonzero;stroke:none;stroke-width:0.5;stroke-linecap:round;stroke-linejoin:round;stroke-miterlimit:4;stroke-dasharray:none;stroke-dashoffset:4;stroke-opacity:1" />
  <rect
     width="1"
     height="0"
     x="337.09195"
     y="-152.03889"
     id="rect37016"
     style="opacity:0.57786889;fill:#ffffff;fill-opacity:1;fill-rule:nonzero;stroke:none;stroke-width:3.63199997;stroke-linecap:round;stroke-linejoin:round;stroke-miterlimit:4;stroke-dasharray:none;stroke-dashoffset:4;stroke-opacity:1" />
  <rect
     width="1"
     height="0"
     x="301.96515"
     y="-179.5665"
     id="rect37018"
     style="opacity:0.57786889;fill:#ffffff;fill-opacity:1;fill-rule:nonzero;stroke:none;stroke-width:3.63199997;stroke-linecap:round;stroke-linejoin:round;stroke-miterlimit:4;stroke-dasharray:none;stroke-dashoffset:4;stroke-opacity:1" />
  <path
     d="M 143.02772,-252.78255 L 143.02772,-255.57726 L 143.02772,-252.78255 z"
     id="path37020"
     style="fill:#ffffff;fill-opacity:0.75688076;fill-rule:nonzero;stroke:none;stroke-width:0.5;stroke-linecap:round;stroke-linejoin:round;stroke-miterlimit:4;stroke-dasharray:none;stroke-dashoffset:4;stroke-opacity:1" />
  <g
     transform="matrix(-0.782995,0,0,0.650879,-2179.831,433.73508)"
     id="g37022"
     style="opacity:0.40163933" />
  <g
     transform="matrix(-0.782995,0,0,0.650879,-2179.831,433.73508)"
     id="g37024"
     style="opacity:0.40163933" />
  <g
     transform="matrix(1,0,0,0.650879,1021.1321,441.06288)"
     id="g37026"
     style="opacity:0.40163933" />
  <g
     transform="matrix(1,0,0,0.650879,1021.1321,441.06288)"
     id="g37028"
     style="opacity:0.40163933" />
  <path
     d="M 412.2426,34.493972 L 412.2426,31.699263 L 412.2426,34.493972 z"
     id="path37030"
     style="fill:#ffffff;fill-opacity:0.75688076;fill-rule:nonzero;stroke:none;stroke-width:0.5;stroke-linecap:round;stroke-linejoin:round;stroke-miterlimit:4;stroke-dasharray:none;stroke-dashoffset:4;stroke-opacity:1" />
  <g
     transform="translate(-2.31173e-6,0)"
     id="g31196"
     style="display:inline">
    <path
       d=""
       id="path31198"
       style="opacity:1" />
  </g>
  <path
     d=""
     id="path31200" />
  <g
     transform="translate(-2.31173e-6,0)"
     id="g31202"
     style="display:inline" />
  <g
     transform="translate(-2.31173e-6,0)"
     id="g31204"
     style="display:inline" />
  <g
     transform="translate(-2.31173e-6,0)"
     id="g31206"
     style="display:inline" />
  <g
     transform="translate(-6.93519e-6,0)"
     id="g8876"
     style="display:inline">
    <path
       d=""
       id="path8878"
       style="opacity:1" />
  </g>
  <path
     d=""
     id="path8880" />
  <g
     transform="translate(-6.93519e-6,0)"
     id="g8882"
     style="display:inline" />
  <g
     transform="translate(-6.93519e-6,0)"
     id="g8884"
     style="display:inline" />
  <g
     transform="translate(-6.93519e-6,0)"
     id="g8886"
     style="display:inline" />
  <g
     transform="translate(-5.4903364e-6,-1.735294e-6)"
     id="g6011"
     style="display:inline">
    <path
       d=""
       id="path6013"
       style="opacity:1" />
  </g>
  <path
     d=""
     id="path6015" />
  <g
     transform="translate(-5.4903364e-6,-1.735294e-6)"
     id="g31217"
     style="display:inline" />
  <g
     transform="translate(-5.4903364e-6,-1.735294e-6)"
     id="g6019"
     style="display:inline" />
  <g
     transform="translate(-5.4903364e-6,-1.735294e-6)"
     id="g31220"
     style="display:inline" />
  <path
     d=""
     id="path6025" />
  <g
     transform="translate(125.70844,4.0102288)"
     id="g21865"
     style="display:inline">
    <path
       d=""
       id="path21867"
       style="opacity:1" />
  </g>
  <path
     d=""
     id="path21869" />
  <g
     transform="translate(125.70844,4.0102288)"
     id="g21871"
     style="display:inline" />
  <g
     transform="translate(125.70844,4.0102288)"
     id="g21873"
     style="display:inline" />
  <g
     transform="translate(125.70844,4.0102288)"
     id="g21875"
     style="display:inline" />
  <g
     transform="translate(125.70844,4.0102288)"
     id="g21877"
     style="display:inline">
    <path
       d=""
       id="path21879"
       style="opacity:1" />
  </g>
  <path
     d=""
     id="path21881" />
  <g
     transform="translate(125.70844,4.0102288)"
     id="g21883"
     style="display:inline" />
  <g
     transform="translate(125.70844,4.0102288)"
     id="g21885"
     style="display:inline" />
  <g
     transform="translate(125.70844,4.0102288)"
     id="g21887"
     style="display:inline" />
  <g
     transform="translate(125.70844,4.0102271)"
     id="g21889"
     style="display:inline">
    <path
       d=""
       id="path21891"
       style="opacity:1" />
  </g>
  <path
     d=""
     id="path21893" />
  <g
     transform="translate(125.70844,4.0102271)"
     id="g21895"
     style="display:inline" />
  <g
     transform="translate(125.70844,4.0102271)"
     id="g21897"
     style="display:inline" />
  <g
     transform="translate(125.70844,4.0102271)"
     id="g21899"
     style="display:inline" />
  <path
     d=""
     id="path21901" />
  <path
     d="M 251.07761,-223.89152 L 251.07761,-226.68623 L 251.07761,-223.89152 z"
     id="path1987"
     style="fill:#ffffff;fill-opacity:0.75688076;fill-rule:nonzero;stroke:none;stroke-width:0.5;stroke-linecap:round;stroke-linejoin:round;stroke-miterlimit:4;stroke-dasharray:none;stroke-dashoffset:4;stroke-opacity:1" />
  <path
     d="M 298.87391,-339.21552 L 298.87391,-342.01023 L 298.87391,-339.21552 z"
     id="path1747"
     style="fill:#ffffff;fill-opacity:0.75688076;fill-rule:nonzero;stroke:none;stroke-width:0.5;stroke-linecap:round;stroke-linejoin:round;stroke-miterlimit:4;stroke-dasharray:none;stroke-dashoffset:4;stroke-opacity:1" />
  <rect
     width="1"
     height="0"
     x="287.72678"
     y="-311.4725"
     id="rect31253"
     style="opacity:0.57786889;fill:#ffffff;fill-opacity:1;fill-rule:nonzero;stroke:none;stroke-width:3.63199997;stroke-linecap:round;stroke-linejoin:round;stroke-miterlimit:4;stroke-dasharray:none;stroke-dashoffset:4;stroke-opacity:1" />
  <g
     transform="translate(129.54594,-20.044076)"
     id="g15719"
     style="display:inline">
    <path
       d=""
       id="path15721"
       style="opacity:1" />
  </g>
  <path
     d=""
     id="path15723" />
  <g
     transform="translate(129.54594,-20.044076)"
     id="g15725"
     style="display:inline" />
  <g
     transform="translate(129.54594,-20.044076)"
     id="g15727"
     style="display:inline" />
  <g
     transform="translate(129.54594,-20.044076)"
     id="g15729"
     style="display:inline" />
  <path
     d=""
     id="path31261" />
  <g
     transform="translate(207.61659,-63.029003)"
     id="g31263"
     style="display:inline">
    <path
       d=""
       id="path31265"
       style="opacity:1" />
  </g>
  <path
     d=""
     id="path31267" />
  <g
     transform="translate(207.61659,-63.029003)"
     id="g31269"
     style="display:inline" />
  <g
     transform="translate(207.61659,-63.029003)"
     id="g31271"
     style="display:inline" />
  <g
     transform="translate(207.61659,-63.029003)"
     id="g31273"
     style="display:inline" />
  <path
     d=""
     id="path31275" />
  <path
     d="M 496.89659,-96.417061 L 496.89659,-99.21177 L 496.89659,-96.417061 z"
     id="path31279"
     style="fill:#ffffff;fill-opacity:0.75688076;fill-rule:nonzero;stroke:none;stroke-width:0.5;stroke-linecap:round;stroke-linejoin:round;stroke-miterlimit:4;stroke-dasharray:none;stroke-dashoffset:4;stroke-opacity:1" />
  <path
     d="M 339.88829,-166.05217 L 339.88829,-168.84688 L 339.88829,-166.05217 z"
     id="path31281"
     style="fill:#ffffff;fill-opacity:0.75688076;fill-rule:nonzero;stroke:none;stroke-width:0.5;stroke-linecap:round;stroke-linejoin:round;stroke-miterlimit:4;stroke-dasharray:none;stroke-dashoffset:4;stroke-opacity:1" />
  <path
     d="M 220.38609,-252.68241 L 220.38609,-255.47712 L 220.38609,-252.68241 z"
     id="path31283"
     style="fill:#ffffff;fill-opacity:0.75688076;fill-rule:nonzero;stroke:none;stroke-width:0.5;stroke-linecap:round;stroke-linejoin:round;stroke-miterlimit:4;stroke-dasharray:none;stroke-dashoffset:4;stroke-opacity:1" />
  <g
     transform="translate(403.33769,-108.10078)"
     id="g31285"
     style="display:inline" />
  <g
     transform="translate(403.33769,-108.10078)"
     id="g31287"
     style="display:inline" />
  <path
     d="M 466.97749,-186.92714 L 466.97749,-189.72185 L 466.97749,-186.92714 z"
     id="path31289"
     style="fill:#ffffff;fill-opacity:0.75688076;fill-rule:nonzero;stroke:none;stroke-width:0.5;stroke-linecap:round;stroke-linejoin:round;stroke-miterlimit:4;stroke-dasharray:none;stroke-dashoffset:4;stroke-opacity:1" />
  <path
     d="M 374.35304,-113.03346 L 374.35304,-114.5602 L 374.35304,-113.03346 z"
     id="path31291"
     style="fill:#ffffff;fill-opacity:0.75688076;fill-rule:nonzero;stroke:none;stroke-width:0.5;stroke-linecap:round;stroke-linejoin:round;stroke-miterlimit:4;stroke-dasharray:none;stroke-dashoffset:4;stroke-opacity:1" />
  <rect
     width="1"
     height="0"
     x="316.86829"
     y="-169.63347"
     id="rect15769"
     style="opacity:0.57786889;fill:#ffffff;fill-opacity:1;fill-rule:nonzero;stroke:none;stroke-width:3.63199997;stroke-linecap:round;stroke-linejoin:round;stroke-miterlimit:4;stroke-dasharray:none;stroke-dashoffset:4;stroke-opacity:1" />
  <rect
     width="1"
     height="0"
     x="281.74149"
     y="-197.16107"
     id="rect31294"
     style="opacity:0.57786889;fill:#ffffff;fill-opacity:1;fill-rule:nonzero;stroke:none;stroke-width:3.63199997;stroke-linecap:round;stroke-linejoin:round;stroke-miterlimit:4;stroke-dasharray:none;stroke-dashoffset:4;stroke-opacity:1" />
  <path
     d="M 122.80407,-270.37713 L 122.80407,-273.17184 L 122.80407,-270.37713 z"
     id="path31296"
     style="fill:#ffffff;fill-opacity:0.75688076;fill-rule:nonzero;stroke:none;stroke-width:0.5;stroke-linecap:round;stroke-linejoin:round;stroke-miterlimit:4;stroke-dasharray:none;stroke-dashoffset:4;stroke-opacity:1" />
  <g
     transform="matrix(-0.782995,0,0,0.650879,-2200.0547,416.1405)"
     id="g31298"
     style="opacity:0.40163933" />
  <g
     transform="matrix(-0.782995,0,0,0.650879,-2200.0547,416.1405)"
     id="g31300"
     style="opacity:0.40163933" />
  <g
     transform="matrix(1,0,0,0.650879,1000.9085,423.4683)"
     id="g31302"
     style="opacity:0.40163933" />
  <g
     transform="matrix(1,0,0,0.650879,1000.9085,423.4683)"
     id="g31304"
     style="opacity:0.40163933" />
  <path
     d="M 392.01895,16.899398 L 392.01895,14.104689 L 392.01895,16.899398 z"
     id="path31306"
     style="fill:#ffffff;fill-opacity:0.75688076;fill-rule:nonzero;stroke:none;stroke-width:0.5;stroke-linecap:round;stroke-linejoin:round;stroke-miterlimit:4;stroke-dasharray:none;stroke-dashoffset:4;stroke-opacity:1" />
  <g
     transform="matrix(0.8229208,0,0,0.8229208,-85.9663,21.014001)"
     id="g19134">
    <g
       transform="matrix(0.6521693,-0.6521693,0.6521693,0.6521693,19.467495,134.39329)"
       id="g19068">
      <path
         d="M 127.93363,10.125463 L 127.93363,113.05676 C 127.93363,114.08983 128.77205,114.92825 129.80511,114.92825 L 217.52659,114.78531 L 217.76459,10.125463 L 127.93363,10.125463 z"
         id="path18131"
         style="opacity:0.1;fill:none;stroke:#000000;stroke-width:9.98121738;stroke-linejoin:round;stroke-miterlimit:4;stroke-dasharray:none;stroke-opacity:1" />
      <path
         d="M 127.93363,10.125463 L 127.93363,113.05676 C 127.93363,114.08983 128.77205,114.92825 129.80511,114.92825 L 217.70373,114.76684 L 217.76459,10.125463 L 127.93363,10.125463 z"
         id="path18133"
         style="opacity:0.15;fill:none;stroke:#000000;stroke-width:7.48591328;stroke-linejoin:round;stroke-miterlimit:4;stroke-dasharray:none;stroke-opacity:1" />
      <path
         d="M 127.93363,10.125463 L 127.93363,113.05676 C 127.93363,114.08983 128.77205,114.92825 129.80511,114.92825 L 217.66406,115.04451 L 217.76459,10.125463 L 127.93363,10.125463 z"
         id="path18135"
         style="opacity:0.2;fill:none;stroke:#000000;stroke-width:4.99060869;stroke-linejoin:round;stroke-miterlimit:4;stroke-dasharray:none;stroke-opacity:1" />
      <path
         d="M 127.93363,10.125463 L 127.93363,113.05676 C 127.93363,114.08983 128.77205,114.92825 129.80511,114.92825 L 217.66406,114.88584 L 217.76459,10.125463 L 127.93363,10.125463 z"
         id="path18137"
         style="opacity:0.25;fill:none;stroke:#000000;stroke-width:2.49530435;stroke-linejoin:round;stroke-miterlimit:4;stroke-dasharray:none;stroke-opacity:1" />
      <path
         d="M 127.93363,10.125463 L 127.93363,113.05676 C 127.93363,114.08983 128.77205,114.92825 129.80511,114.92825 L 217.66406,114.88584 L 217.76459,10.125463 L 127.93363,10.125463 z"
         id="path18139"
         style="fill:url(#radialGradient19216)" />
      <path
         d="M 131.33148,12.825152 C 130.83418,12.825152 130.42893,13.230898 130.42893,13.728819 L 130.42893,111.32488 C 130.42893,111.82372 130.83418,112.22856 131.33148,112.22856 L 215.00486,112.20485 L 215.26928,13.728819 C 215.26928,13.230898 214.86495,12.825152 214.36673,12.825152 L 131.33148,12.825152 z"
         id="path18141"
         style="fill:#ffffff;fill-opacity:1" />
      <rect
         width="85.09581"
         height="14.188109"
         rx="2.1360948"
         ry="2.1360948"
         x="130.37698"
         y="12.769751"
         id="rect18143"
         style="fill:#008200;fill-opacity:1;fill-rule:nonzero;stroke:none;stroke-width:2.70000005;stroke-linecap:round;stroke-linejoin:round;marker:none;marker-start:none;marker-mid:none;marker-end:none;stroke-miterlimit:4;stroke-dasharray:none;stroke-dashoffset:1.08779998;stroke-opacity:1;visibility:visible;display:inline;overflow:visible;enable-background:accumulate" />
    </g>
    <g
       transform="matrix(0.798741,-0.4611533,0.4611533,0.798741,3.9354492,87.564422)"
       id="g19080">
      <path
         d="M 127.93363,10.125463 L 127.93363,113.05676 C 127.93363,114.08983 128.77205,114.92825 129.80511,114.92825 L 217.52659,114.78531 L 217.76459,10.125463 L 127.93363,10.125463 z"
         id="path19082"
         style="opacity:0.1;fill:none;stroke:#000000;stroke-width:9.98121738;stroke-linejoin:round;stroke-miterlimit:4;stroke-dasharray:none;stroke-opacity:1" />
      <path
         d="M 127.93363,10.125463 L 127.93363,113.05676 C 127.93363,114.08983 128.77205,114.92825 129.80511,114.92825 L 217.70373,114.76684 L 217.76459,10.125463 L 127.93363,10.125463 z"
         id="path19084"
         style="opacity:0.15;fill:none;stroke:#000000;stroke-width:7.48591328;stroke-linejoin:round;stroke-miterlimit:4;stroke-dasharray:none;stroke-opacity:1" />
      <path
         d="M 127.93363,10.125463 L 127.93363,113.05676 C 127.93363,114.08983 128.77205,114.92825 129.80511,114.92825 L 217.66406,115.04451 L 217.76459,10.125463 L 127.93363,10.125463 z"
         id="path19086"
         style="opacity:0.2;fill:none;stroke:#000000;stroke-width:4.99060869;stroke-linejoin:round;stroke-miterlimit:4;stroke-dasharray:none;stroke-opacity:1" />
      <path
         d="M 127.93363,10.125463 L 127.93363,113.05676 C 127.93363,114.08983 128.77205,114.92825 129.80511,114.92825 L 217.66406,114.88584 L 217.76459,10.125463 L 127.93363,10.125463 z"
         id="path19088"
         style="opacity:0.25;fill:none;stroke:#000000;stroke-width:2.49530435;stroke-linejoin:round;stroke-miterlimit:4;stroke-dasharray:none;stroke-opacity:1" />
      <path
         d="M 127.93363,10.125463 L 127.93363,113.05676 C 127.93363,114.08983 128.77205,114.92825 129.80511,114.92825 L 217.66406,114.88584 L 217.76459,10.125463 L 127.93363,10.125463 z"
         id="path19090"
         style="fill:url(#radialGradient19218)" />
      <path
         d="M 131.33148,12.825152 C 130.83418,12.825152 130.42893,13.230898 130.42893,13.728819 L 130.42893,111.32488 C 130.42893,111.82372 130.83418,112.22856 131.33148,112.22856 L 215.00486,112.20485 L 215.26928,13.728819 C 215.26928,13.230898 214.86495,12.825152 214.36673,12.825152 L 131.33148,12.825152 z"
         id="path19092"
         style="fill:#ffffff;fill-opacity:1" />
      <rect
         width="85.09581"
         height="14.188109"
         rx="2.1360948"
         ry="2.1360948"
         x="130.37698"
         y="12.769751"
         id="rect19094"
         style="fill:#008200;fill-opacity:1;fill-rule:nonzero;stroke:none;stroke-width:2.70000005;stroke-linecap:round;stroke-linejoin:round;marker:none;marker-start:none;marker-mid:none;marker-end:none;stroke-miterlimit:4;stroke-dasharray:none;stroke-dashoffset:1.08779998;stroke-opacity:1;visibility:visible;display:inline;overflow:visible;enable-background:accumulate" />
    </g>
    <g
       transform="matrix(0.8908798,-0.2387105,0.2387105,0.8908798,4.6170605,40.208424)"
       id="g19098">
      <path
         d="M 127.93363,10.125463 L 127.93363,113.05676 C 127.93363,114.08983 128.77205,114.92825 129.80511,114.92825 L 217.52659,114.78531 L 217.76459,10.125463 L 127.93363,10.125463 z"
         id="path19100"
         style="opacity:0.1;fill:none;stroke:#000000;stroke-width:9.98121738;stroke-linejoin:round;stroke-miterlimit:4;stroke-dasharray:none;stroke-opacity:1" />
      <path
         d="M 127.93363,10.125463 L 127.93363,113.05676 C 127.93363,114.08983 128.77205,114.92825 129.80511,114.92825 L 217.70373,114.76684 L 217.76459,10.125463 L 127.93363,10.125463 z"
         id="path19102"
         style="opacity:0.15;fill:none;stroke:#000000;stroke-width:7.48591328;stroke-linejoin:round;stroke-miterlimit:4;stroke-dasharray:none;stroke-opacity:1" />
      <path
         d="M 127.93363,10.125463 L 127.93363,113.05676 C 127.93363,114.08983 128.77205,114.92825 129.80511,114.92825 L 217.66406,115.04451 L 217.76459,10.125463 L 127.93363,10.125463 z"
         id="path19104"
         style="opacity:0.2;fill:none;stroke:#000000;stroke-width:4.99060869;stroke-linejoin:round;stroke-miterlimit:4;stroke-dasharray:none;stroke-opacity:1" />
      <path
         d="M 127.93363,10.125463 L 127.93363,113.05676 C 127.93363,114.08983 128.77205,114.92825 129.80511,114.92825 L 217.66406,114.88584 L 217.76459,10.125463 L 127.93363,10.125463 z"
         id="path19106"
         style="opacity:0.25;fill:none;stroke:#000000;stroke-width:2.49530435;stroke-linejoin:round;stroke-miterlimit:4;stroke-dasharray:none;stroke-opacity:1" />
      <path
         d="M 127.93363,10.125463 L 127.93363,113.05676 C 127.93363,114.08983 128.77205,114.92825 129.80511,114.92825 L 217.66406,114.88584 L 217.76459,10.125463 L 127.93363,10.125463 z"
         id="path19108"
         style="fill:url(#radialGradient19220)" />
      <path
         d="M 131.33148,12.825152 C 130.83418,12.825152 130.42893,13.230898 130.42893,13.728819 L 130.42893,111.32488 C 130.42893,111.82372 130.83418,112.22856 131.33148,112.22856 L 215.00486,112.20485 L 215.26928,13.728819 C 215.26928,13.230898 214.86495,12.825152 214.36673,12.825152 L 131.33148,12.825152 z"
         id="path19110"
         style="fill:#ffffff;fill-opacity:1" />
      <rect
         width="85.09581"
         height="14.188109"
         rx="2.1360948"
         ry="2.1360948"
         x="130.37698"
         y="12.769751"
         id="rect19112"
         style="fill:#008200;fill-opacity:1;fill-rule:nonzero;stroke:none;stroke-width:2.70000005;stroke-linecap:round;stroke-linejoin:round;marker:none;marker-start:none;marker-mid:none;marker-end:none;stroke-miterlimit:4;stroke-dasharray:none;stroke-dashoffset:1.08779998;stroke-opacity:1;visibility:visible;display:inline;overflow:visible;enable-background:accumulate" />
    </g>
  </g>
  <g
     transform="matrix(0.9514455,0,0,0.9514455,18.338829,-2.557808)"
     id="g18067">
    <path
       d="M 19.084518,8.990607 L 19.084518,111.9219 C 19.084518,112.95497 19.922941,113.79339 20.955996,113.79339 L 76.325556,113.79339 C 76.821498,113.79339 77.297788,113.59595 77.648693,113.24505 L 108.36714,82.526601 C 108.71805,82.175698 108.91548,81.699407 108.91548,81.203464 L 108.91548,8.990607 L 19.084518,8.990607 z"
       id="path6210"
       style="opacity:0.1;fill:none;stroke:#000000;stroke-width:9.98121738;stroke-linejoin:round;stroke-miterlimit:4;stroke-dasharray:none;stroke-opacity:1" />
    <path
       d="M 19.084518,8.990607 L 19.084518,111.9219 C 19.084518,112.95497 19.922941,113.79339 20.955996,113.79339 L 76.325556,113.79339 C 76.821498,113.79339 77.297788,113.59595 77.648693,113.24505 L 108.36714,82.526601 C 108.71805,82.175698 108.91548,81.699407 108.91548,81.203464 L 108.91548,8.990607 L 19.084518,8.990607 z"
       id="path6212"
       style="opacity:0.15;fill:none;stroke:#000000;stroke-width:7.48591328;stroke-linejoin:round;stroke-miterlimit:4;stroke-dasharray:none;stroke-opacity:1" />
    <path
       d="M 19.084518,8.990607 L 19.084518,111.9219 C 19.084518,112.95497 19.922941,113.79339 20.955996,113.79339 L 76.325556,113.79339 C 76.821498,113.79339 77.297788,113.59595 77.648693,113.24505 L 108.36714,82.526601 C 108.71805,82.175698 108.91548,81.699407 108.91548,81.203464 L 108.91548,8.990607 L 19.084518,8.990607 z"
       id="path6214"
       style="opacity:0.2;fill:none;stroke:#000000;stroke-width:4.99060869;stroke-linejoin:round;stroke-miterlimit:4;stroke-dasharray:none;stroke-opacity:1" />
    <path
       d="M 19.084518,8.990607 L 19.084518,111.9219 C 19.084518,112.95497 19.922941,113.79339 20.955996,113.79339 L 76.325556,113.79339 C 76.821498,113.79339 77.297788,113.59595 77.648693,113.24505 L 108.36714,82.526601 C 108.71805,82.175698 108.91548,81.699407 108.91548,81.203464 L 108.91548,8.990607 L 19.084518,8.990607 z"
       id="path6216"
       style="opacity:0.25;fill:none;stroke:#000000;stroke-width:2.49530435;stroke-linejoin:round;stroke-miterlimit:4;stroke-dasharray:none;stroke-opacity:1" />
    <path
       d="M 19.084518,8.990607 L 19.084518,111.9219 C 19.084518,112.95497 19.922941,113.79339 20.955996,113.79339 L 76.325556,113.79339 C 76.821498,113.79339 77.297788,113.59595 77.648693,113.24505 L 108.36714,82.526601 C 108.71805,82.175698 108.91548,81.699407 108.91548,81.203464 L 108.91548,8.990607 L 19.084518,8.990607 z"
       id="path6218"
       style="fill:url(#radialGradient37494)" />
    <path
       d="M 22.482375,11.690296 C 21.985072,11.690296 21.579823,12.096042 21.579823,12.593963 L 21.579823,110.19002 C 21.579823,110.68886 21.985072,111.0937 22.482375,111.0937 L 75.888476,111.0937 C 76.125851,111.0937 76.358709,110.99791 76.526584,110.82893 L 106.15575,81.163331 C 106.3245,80.994345 106.42017,80.762099 106.42017,80.524438 L 106.42017,12.593963 C 106.42017,12.096042 106.01584,11.690296 105.51762,11.690296 L 22.482375,11.690296 z"
       id="path6220"
       style="fill:url(#radialGradient37491);fill-opacity:1" />
    <rect
       width="85.09581"
       height="14.188109"
       rx="2.1360948"
       ry="2.1360948"
       x="21.527874"
       y="11.634894"
       id="rect8976"
       style="fill:#008200;fill-opacity:1;fill-rule:nonzero;stroke:none;stroke-width:2.70000005;stroke-linecap:round;stroke-linejoin:round;marker:none;marker-start:none;marker-mid:none;marker-end:none;stroke-miterlimit:4;stroke-dasharray:none;stroke-dashoffset:1.08779998;stroke-opacity:1;visibility:visible;display:inline;overflow:visible;enable-background:accumulate" />
    <g
       transform="matrix(0.4902673,0,0,0.4902673,32.622895,33.173144)"
       id="g5538">
      <g
         transform="matrix(0.6898826,0,0,0.6898826,-89.134672,13.803924)"
         id="g11760">
        <g
           transform="matrix(0.793117,0,0,0.793117,21.009081,-175.14442)"
           id="g10643">
          <path
             d="M 345.31813,334.05203 C 344.96735,341.07167 347.95737,349.43201 342.56519,355.23066 C 335.13499,364.8115 323.09631,368.78565 312.02356,372.45319 C 284.80827,380.61993 255.90096,381.48586 227.78881,378.67919 C 214.43921,376.91177 201.06285,374.20008 188.5317,369.17951 C 180.3564,365.60994 171.47716,361.18274 167.24849,352.88586 C 164.673,346.29071 166.94804,339.16379 167.48344,332.41851 C 170.59148,323.0856 180.15534,318.22226 188.51708,314.37038 C 208.65897,306.22616 230.56433,303.2187 252.17228,302.63078 C 276.16339,302.50797 300.6949,304.45376 323.16799,313.47078 C 331.38853,316.89324 340.29072,321.53873 344.28305,329.96004 C 344.82646,331.26338 345.1801,332.64634 345.31813,334.05203 z"
             id="path10630"
             style="fill:#ffffff;fill-opacity:1;stroke:none" />
          <path
             d="M 9502.1602,1168.3706 C 9504.4209,1427.9286 9585.3704,1735.6037 9386.7114,1947.0412 C 8953.4849,2392.7652 8323.2091,2542.8571 7735.2236,2662.9163 C 6587.6238,2866.469 5387.8905,2834.7696 4267.3758,2501.9672 C 3897.2862,2380.3135 3504.817,2213.6055 3273.9157,1884.7252 C 3152.0512,1641.4471 3207.1137,1353.8691 3263.2973,1100.2848 C 3347.0979,808.98951 3634.1456,660.24038 3881.4611,526.12156 C 4379.6538,289.78709 4930.0831,190.30971 5472.8297,117.82105 C 6513.8747,-3.672657 7588.0757,62.91223 8587.6196,389.82573 C 8920.6273,509.66552 9272.3848,679.39523 9457.745,995.74029 C 9483.0348,1049.8472 9499.3815,1108.5512 9502.1602,1168.3706 z"
             transform="matrix(2.744246e-2,0,0,2.744246e-2,81.98045,299.7715)"
             id="path10632"
             style="fill:#000000;fill-opacity:1;stroke:none" />
          <path
             d="M 256.90307,302.50891 C 277.40077,302.34525 298.19612,304.88284 317.48852,312.04467 C 324.89389,315.11782 332.66227,319.11202 336.97058,326.16517 C 339.56257,331.14496 338.17786,337.25341 334.31737,341.15029 C 329.49075,346.65802 322.55382,349.68402 316.03288,352.67324 C 296.94651,359.7315 276.4296,362.07731 256.17957,362.27707 C 235.67471,362.23893 214.84895,359.93866 195.63732,352.42653 C 188.37392,349.39876 180.75972,345.46883 176.58597,338.50548 C 173.84605,333.89657 174.88507,327.9404 178.58594,324.171 C 184.94559,316.91854 194.20529,313.24738 203.07761,310.08587 C 220.50211,304.74929 238.72806,302.69716 256.90307,302.50891 z"
             id="path10633"
             style="fill:#ffffff;fill-opacity:1;stroke:none" />
        </g>
        <g
           transform="matrix(0.793117,0,0,0.793117,35.192991,-188.11271)"
           id="g10647">
          <path
             d="M 345.31813,334.05203 C 344.96735,341.07167 347.95737,349.43201 342.56519,355.23066 C 335.13499,364.8115 323.09631,368.78565 312.02356,372.45319 C 284.80827,380.61993 255.90096,381.48586 227.78881,378.67919 C 214.43921,376.91177 201.06285,374.20008 188.5317,369.17951 C 180.3564,365.60994 171.47716,361.18274 167.24849,352.88586 C 164.673,346.29071 166.94804,339.16379 167.48344,332.41851 C 170.59148,323.0856 180.15534,318.22226 188.51708,314.37038 C 208.65897,306.22616 230.56433,303.2187 252.17228,302.63078 C 276.16339,302.50797 300.6949,304.45376 323.16799,313.47078 C 331.38853,316.89324 340.29072,321.53873 344.28305,329.96004 C 344.82646,331.26338 345.1801,332.64634 345.31813,334.05203 z"
             id="path10648"
             style="fill:#ffffff;fill-opacity:1;stroke:none" />
          <path
             d="M 9502.1602,1168.3706 C 9504.4209,1427.9286 9585.3704,1735.6037 9386.7114,1947.0412 C 8953.4849,2392.7652 8323.2091,2542.8571 7735.2236,2662.9163 C 6587.6238,2866.469 5387.8905,2834.7696 4267.3758,2501.9672 C 3897.2862,2380.3135 3504.817,2213.6055 3273.9157,1884.7252 C 3152.0512,1641.4471 3207.1137,1353.8691 3263.2973,1100.2848 C 3347.0979,808.98951 3634.1456,660.24038 3881.4611,526.12156 C 4379.6538,289.78709 4930.0831,190.30971 5472.8297,117.82105 C 6513.8747,-3.672657 7588.0757,62.91223 8587.6196,389.82573 C 8920.6273,509.66552 9272.3848,679.39523 9457.745,995.74029 C 9483.0348,1049.8472 9499.3815,1108.5512 9502.1602,1168.3706 z"
             transform="matrix(2.744246e-2,0,0,2.744246e-2,81.98045,299.7715)"
             id="path10649"
             style="fill:#000000;fill-opacity:1;stroke:none" />
          <path
             d="M 256.90307,302.50891 C 277.40077,302.34525 298.19612,304.88284 317.48852,312.04467 C 324.89389,315.11782 332.66227,319.11202 336.97058,326.16517 C 339.56257,331.14496 338.17786,337.25341 334.31737,341.15029 C 329.49075,346.65802 322.55382,349.68402 316.03288,352.67324 C 296.94651,359.7315 276.4296,362.07731 256.17957,362.27707 C 235.67471,362.23893 214.84895,359.93866 195.63732,352.42653 C 188.37392,349.39876 180.75972,345.46883 176.58597,338.50548 C 173.84605,333.89657 174.88507,327.9404 178.58594,324.171 C 184.94559,316.91854 194.20529,313.24738 203.07761,310.08587 C 220.50211,304.74929 238.72806,302.69716 256.90307,302.50891 z"
             id="path10650"
             style="fill:#ffffff;fill-opacity:1;stroke:none" />
        </g>
        <g
           transform="matrix(0.793117,0,0,0.793117,18.172221,-201.08086)"
           id="g10651">
          <path
             d="M 345.31813,334.05203 C 344.96735,341.07167 347.95737,349.43201 342.56519,355.23066 C 335.13499,364.8115 323.09631,368.78565 312.02356,372.45319 C 284.80827,380.61993 255.90096,381.48586 227.78881,378.67919 C 214.43921,376.91177 201.06285,374.20008 188.5317,369.17951 C 180.3564,365.60994 171.47716,361.18274 167.24849,352.88586 C 164.673,346.29071 166.94804,339.16379 167.48344,332.41851 C 170.59148,323.0856 180.15534,318.22226 188.51708,314.37038 C 208.65897,306.22616 230.56433,303.2187 252.17228,302.63078 C 276.16339,302.50797 300.6949,304.45376 323.16799,313.47078 C 331.38853,316.89324 340.29072,321.53873 344.28305,329.96004 C 344.82646,331.26338 345.1801,332.64634 345.31813,334.05203 z"
             id="path10652"
             style="fill:#ffffff;fill-opacity:1;stroke:none" />
          <path
             d="M 9502.1602,1168.3706 C 9504.4209,1427.9286 9585.3704,1735.6037 9386.7114,1947.0412 C 8953.4849,2392.7652 8323.2091,2542.8571 7735.2236,2662.9163 C 6587.6238,2866.469 5387.8905,2834.7696 4267.3758,2501.9672 C 3897.2862,2380.3135 3504.817,2213.6055 3273.9157,1884.7252 C 3152.0512,1641.4471 3207.1137,1353.8691 3263.2973,1100.2848 C 3347.0979,808.98951 3634.1456,660.24038 3881.4611,526.12156 C 4379.6538,289.78709 4930.0831,190.30971 5472.8297,117.82105 C 6513.8747,-3.672657 7588.0757,62.91223 8587.6196,389.82573 C 8920.6273,509.66552 9272.3848,679.39523 9457.745,995.74029 C 9483.0348,1049.8472 9499.3815,1108.5512 9502.1602,1168.3706 z"
             transform="matrix(2.744246e-2,0,0,2.744246e-2,81.98045,299.7715)"
             id="path10653"
             style="fill:#000000;fill-opacity:1;stroke:none" />
          <path
             d="M 256.90307,302.50891 C 277.40077,302.34525 298.19612,304.88284 317.48852,312.04467 C 324.89389,315.11782 332.66227,319.11202 336.97058,326.16517 C 339.56257,331.14496 338.17786,337.25341 334.31737,341.15029 C 329.49075,346.65802 322.55382,349.68402 316.03288,352.67324 C 296.94651,359.7315 276.4296,362.07731 256.17957,362.27707 C 235.67471,362.23893 214.84895,359.93866 195.63732,352.42653 C 188.37392,349.39876 180.75972,345.46883 176.58597,338.50548 C 173.84605,333.89657 174.88507,327.9404 178.58594,324.171 C 184.94559,316.91854 194.20529,313.24738 203.07761,310.08587 C 220.50211,304.74929 238.72806,302.69716 256.90307,302.50891 z"
             id="path10654"
             style="fill:#ffffff;fill-opacity:1;stroke:none" />
        </g>
        <g
           transform="matrix(0.793117,0,0,0.793117,31.545711,-217.69634)"
           id="g10655">
          <path
             d="M 345.31813,334.05203 C 344.96735,341.07167 347.95737,349.43201 342.56519,355.23066 C 335.13499,364.8115 323.09631,368.78565 312.02356,372.45319 C 284.80827,380.61993 255.90096,381.48586 227.78881,378.67919 C 214.43921,376.91177 201.06285,374.20008 188.5317,369.17951 C 180.3564,365.60994 171.47716,361.18274 167.24849,352.88586 C 164.673,346.29071 166.94804,339.16379 167.48344,332.41851 C 170.59148,323.0856 180.15534,318.22226 188.51708,314.37038 C 208.65897,306.22616 230.56433,303.2187 252.17228,302.63078 C 276.16339,302.50797 300.6949,304.45376 323.16799,313.47078 C 331.38853,316.89324 340.29072,321.53873 344.28305,329.96004 C 344.82646,331.26338 345.1801,332.64634 345.31813,334.05203 z"
             id="path10656"
             style="fill:#ffffff;fill-opacity:1;stroke:none" />
          <path
             d="M 9502.1602,1168.3706 C 9504.4209,1427.9286 9585.3704,1735.6037 9386.7114,1947.0412 C 8953.4849,2392.7652 8323.2091,2542.8571 7735.2236,2662.9163 C 6587.6238,2866.469 5387.8905,2834.7696 4267.3758,2501.9672 C 3897.2862,2380.3135 3504.817,2213.6055 3273.9157,1884.7252 C 3152.0512,1641.4471 3207.1137,1353.8691 3263.2973,1100.2848 C 3347.0979,808.98951 3634.1456,660.24038 3881.4611,526.12156 C 4379.6538,289.78709 4930.0831,190.30971 5472.8297,117.82105 C 6513.8747,-3.672657 7588.0757,62.91223 8587.6196,389.82573 C 8920.6273,509.66552 9272.3848,679.39523 9457.745,995.74029 C 9483.0348,1049.8472 9499.3815,1108.5512 9502.1602,1168.3706 z"
             transform="matrix(2.744246e-2,0,0,2.744246e-2,81.98045,299.7715)"
             id="path10657"
             style="fill:#000000;fill-opacity:1;stroke:none" />
          <path
             d="M 256.90307,302.50891 C 277.40077,302.34525 298.19612,304.88284 317.48852,312.04467 C 324.89389,315.11782 332.66227,319.11202 336.97058,326.16517 C 339.56257,331.14496 338.17786,337.25341 334.31737,341.15029 C 329.49075,346.65802 322.55382,349.68402 316.03288,352.67324 C 296.94651,359.7315 276.4296,362.07731 256.17957,362.27707 C 235.67471,362.23893 214.84895,359.93866 195.63732,352.42653 C 188.37392,349.39876 180.75972,345.46883 176.58597,338.50548 C 173.84605,333.89657 174.88507,327.9404 178.58594,324.171 C 184.94559,316.91854 194.20529,313.24738 203.07761,310.08587 C 220.50211,304.74929 238.72806,302.69716 256.90307,302.50891 z"
             id="path10658"
             style="fill:#ffffff;fill-opacity:1;stroke:none" />
        </g>
        <g
           transform="matrix(0.793117,0,0,0.793117,14.525006,-231.47501)"
           id="g10659">
          <path
             d="M 345.31813,334.05203 C 344.96735,341.07167 347.95737,349.43201 342.56519,355.23066 C 335.13499,364.8115 323.09631,368.78565 312.02356,372.45319 C 284.80827,380.61993 255.90096,381.48586 227.78881,378.67919 C 214.43921,376.91177 201.06285,374.20008 188.5317,369.17951 C 180.3564,365.60994 171.47716,361.18274 167.24849,352.88586 C 164.673,346.29071 166.94804,339.16379 167.48344,332.41851 C 170.59148,323.0856 180.15534,318.22226 188.51708,314.37038 C 208.65897,306.22616 230.56433,303.2187 252.17228,302.63078 C 276.16339,302.50797 300.6949,304.45376 323.16799,313.47078 C 331.38853,316.89324 340.29072,321.53873 344.28305,329.96004 C 344.82646,331.26338 345.1801,332.64634 345.31813,334.05203 z"
             id="path10660"
             style="fill:#ffffff;fill-opacity:1;stroke:none" />
          <path
             d="M 9502.1602,1168.3706 C 9504.4209,1427.9286 9585.3704,1735.6037 9386.7114,1947.0412 C 8953.4849,2392.7652 8323.2091,2542.8571 7735.2236,2662.9163 C 6587.6238,2866.469 5387.8905,2834.7696 4267.3758,2501.9672 C 3897.2862,2380.3135 3504.817,2213.6055 3273.9157,1884.7252 C 3152.0512,1641.4471 3207.1137,1353.8691 3263.2973,1100.2848 C 3347.0979,808.98951 3634.1456,660.24038 3881.4611,526.12156 C 4379.6538,289.78709 4930.0831,190.30971 5472.8297,117.82105 C 6513.8747,-3.672657 7588.0757,62.91223 8587.6196,389.82573 C 8920.6273,509.66552 9272.3848,679.39523 9457.745,995.74029 C 9483.0348,1049.8472 9499.3815,1108.5512 9502.1602,1168.3706 z"
             transform="matrix(2.744246e-2,0,0,2.744246e-2,81.98045,299.7715)"
             id="path10661"
             style="fill:#000000;fill-opacity:1;stroke:none" />
          <path
             d="M 256.90307,302.50891 C 277.40077,302.34525 298.19612,304.88284 317.48852,312.04467 C 324.89389,315.11782 332.66227,319.11202 336.97058,326.16517 C 339.56257,331.14496 338.17786,337.25341 334.31737,341.15029 C 329.49075,346.65802 322.55382,349.68402 316.03288,352.67324 C 296.94651,359.7315 276.4296,362.07731 256.17957,362.27707 C 235.67471,362.23893 214.84895,359.93866 195.63732,352.42653 C 188.37392,349.39876 180.75972,345.46883 176.58597,338.50548 C 173.84605,333.89657 174.88507,327.9404 178.58594,324.171 C 184.94559,316.91854 194.20529,313.24738 203.07761,310.08587 C 220.50211,304.74929 238.72806,302.69716 256.90307,302.50891 z"
             id="path10662"
             style="fill:#ffffff;fill-opacity:1;stroke:none" />
        </g>
        <g
           transform="matrix(0.793117,0,0,0.793117,2.772486,-242.01173)"
           id="g10663">
          <path
             d="M 345.31813,334.05203 C 344.96735,341.07167 347.95737,349.43201 342.56519,355.23066 C 335.13499,364.8115 323.09631,368.78565 312.02356,372.45319 C 284.80827,380.61993 255.90096,381.48586 227.78881,378.67919 C 214.43921,376.91177 201.06285,374.20008 188.5317,369.17951 C 180.3564,365.60994 171.47716,361.18274 167.24849,352.88586 C 164.673,346.29071 166.94804,339.16379 167.48344,332.41851 C 170.59148,323.0856 180.15534,318.22226 188.51708,314.37038 C 208.65897,306.22616 230.56433,303.2187 252.17228,302.63078 C 276.16339,302.50797 300.6949,304.45376 323.16799,313.47078 C 331.38853,316.89324 340.29072,321.53873 344.28305,329.96004 C 344.82646,331.26338 345.1801,332.64634 345.31813,334.05203 z"
             id="path10664"
             style="fill:#ffffff;fill-opacity:1;stroke:none" />
          <path
             d="M 9502.1602,1168.3706 C 9504.4209,1427.9286 9585.3704,1735.6037 9386.7114,1947.0412 C 8953.4849,2392.7652 8323.2091,2542.8571 7735.2236,2662.9163 C 6587.6238,2866.469 5387.8905,2834.7696 4267.3758,2501.9672 C 3897.2862,2380.3135 3504.817,2213.6055 3273.9157,1884.7252 C 3152.0512,1641.4471 3207.1137,1353.8691 3263.2973,1100.2848 C 3347.0979,808.98951 3634.1456,660.24038 3881.4611,526.12156 C 4379.6538,289.78709 4930.0831,190.30971 5472.8297,117.82105 C 6513.8747,-3.672657 7588.0757,62.91223 8587.6196,389.82573 C 8920.6273,509.66552 9272.3848,679.39523 9457.745,995.74029 C 9483.0348,1049.8472 9499.3815,1108.5512 9502.1602,1168.3706 z"
             transform="matrix(2.744246e-2,0,0,2.744246e-2,81.98045,299.7715)"
             id="path10665"
             style="fill:#000000;fill-opacity:1;stroke:none" />
          <path
             d="M 256.90307,302.50891 C 277.40077,302.34525 298.19612,304.88284 317.48852,312.04467 C 324.89389,315.11782 332.66227,319.11202 336.97058,326.16517 C 339.56257,331.14496 338.17786,337.25341 334.31737,341.15029 C 329.49075,346.65802 322.55382,349.68402 316.03288,352.67324 C 296.94651,359.7315 276.4296,362.07731 256.17957,362.27707 C 235.67471,362.23893 214.84895,359.93866 195.63732,352.42653 C 188.37392,349.39876 180.75972,345.46883 176.58597,338.50548 C 173.84605,333.89657 174.88507,327.9404 178.58594,324.171 C 184.94559,316.91854 194.20529,313.24738 203.07761,310.08587 C 220.50211,304.74929 238.72806,302.69716 256.90307,302.50891 z"
             id="path10666"
             style="fill:#ffffff;fill-opacity:1;stroke:none" />
        </g>
        <path
           d="M 296.91301,10.772887 C 296.6348,16.340287 299.00623,22.971013 294.7296,27.570023 C 288.83659,35.168743 279.2885,38.320713 270.50652,41.229503 C 248.92161,47.706683 225.99473,48.393453 203.69851,46.167453 C 193.11071,44.765673 182.50169,42.614993 172.56302,38.633083 C 166.07905,35.802003 159.03678,32.290713 155.68295,25.710323 C 153.64028,20.479591 155.44466,14.827106 155.86929,9.477321 C 158.33433,2.075231 165.91959,-1.781966 172.55143,-4.83696 C 188.5263,-11.296283 205.89982,-13.681549 223.03745,-14.14784 C 242.06521,-14.245242 261.52156,-12.702006 279.34535,-5.550452 C 285.8652,-2.836039 292.92568,0.848375 296.09207,7.527464 C 296.52305,8.561158 296.80353,9.658014 296.91301,10.772887 z"
           id="path10672"
           style="fill:#ffffff;fill-opacity:1;stroke:none" />
        <path
           d="M 296.08646,6.987781 C 296.13567,12.637081 297.89754,19.333654 293.57371,23.935613 C 284.1445,33.636823 270.4265,36.903593 257.62894,39.516683 C 232.65134,43.947033 206.53905,43.257083 182.15095,36.013613 C 174.09592,33.365813 165.5538,29.737403 160.52821,22.579293 C 157.87582,17.284328 159.07426,11.025166 160.2971,5.505885 C 162.12103,-0.834182 168.36864,-4.071715 173.75149,-6.990826 C 184.59469,-12.13466 196.57483,-14.299797 208.38776,-15.877516 C 231.04619,-18.521839 254.42626,-17.072612 276.18141,-9.957316 C 283.42935,-7.348989 291.08538,-3.654811 295.11976,3.230463 C 295.6702,4.408107 296.02598,5.685805 296.08646,6.987781 z"
           id="path10674"
           style="fill:#000000;fill-opacity:1;stroke:none" />
        <path
           d="M 228.00528,-15.865555 C 244.26235,-15.99536 260.75549,-13.982753 276.05663,-8.302584 C 281.92995,-5.865221 288.09118,-2.697348 291.50817,2.896623 C 293.56393,6.846179 292.46569,11.690895 289.40387,14.781574 C 285.57579,19.149847 280.074,21.549823 274.90213,23.920623 C 259.76441,29.518643 243.4921,31.379153 227.43146,31.537583 C 211.1687,31.507333 194.65144,29.682953 179.41437,23.724953 C 173.65364,21.323573 167.61468,18.206684 164.30442,12.683927 C 162.13134,9.028528 162.9554,4.304588 165.89063,1.31501 C 170.93457,-4.437041 178.2786,-7.348697 185.31538,-9.856143 C 199.13506,-14.088676 213.59036,-15.716257 228.00528,-15.865555 z"
           id="path10675"
           style="fill:#ffffff;fill-opacity:1;stroke:none" />
      </g>
      <g
         transform="matrix(0.6898826,0,0,0.6898826,-56.349892,-85.884164)"
         id="g11823">
        <path
           d="M 212.74324,164.6375 C 209.38818,165.67067 205.93254,166.33448 202.42698,166.55199 C 198.63559,166.89823 194.84775,167.31192 191.03513,167.27513 C 185.33574,167.44779 179.6445,166.91694 173.9619,166.54753 C 167.89842,166.09655 161.8188,165.05585 156.19869,162.65649 C 154.55525,161.98542 152.83089,161.48287 151.42889,160.34783 C 149.56357,158.92958 147.9515,157.18636 146.68621,155.21321 C 143.89303,155.21321 141.09984,155.21321 138.30666,155.21321 C 139.39347,154.48267 140.36819,153.48351 141.46419,152.84082 C 143.02349,152.84082 144.58279,152.84082 146.14208,152.84082 C 146.16229,151.73651 145.98376,150.55432 146.55562,149.57445 C 146.29797,148.9965 144.99116,149.4677 144.30838,149.31488 C 141.77819,149.31488 139.248,149.31488 136.71781,149.31488 C 137.74689,148.48306 138.75853,147.63072 139.74315,146.7466 C 142.28241,146.7466 144.82167,146.7466 147.36093,146.7466 C 148.41298,145.24443 149.63617,143.85912 151.20686,142.88744 C 153.06421,141.33767 155.21104,140.21596 157.48789,139.42024 C 160.61307,138.21411 163.9307,137.59516 167.16667,136.75479 C 170.66418,136.06025 174.22799,135.76164 177.77709,135.47587 C 181.57263,135.3604 185.36593,135.05977 189.16074,135.01876 C 193.72381,135.15797 198.30213,135.20474 202.84463,135.66892 C 205.38551,136.06323 207.97527,136.21295 210.48376,136.76674 C 211.27332,136.98518 212.44876,137.00621 211.65368,138.0353 C 211.21779,138.55879 211.51172,140.08932 210.56804,139.71357 C 205.02427,138.66175 199.35994,138.43459 193.73165,138.68705 C 188.81632,138.80099 183.87897,139.27833 179.13021,140.60059 C 176.81576,141.18472 174.6865,142.32197 172.58762,143.42765 C 171.37689,144.16549 170.41901,145.19191 169.5731,146.30845 C 168.57496,147.10368 171.52742,146.88176 171.02021,146.7466 C 177.19086,146.72324 183.36373,146.82724 189.5311,146.616 C 193.14762,146.616 196.76415,146.616 200.38067,146.616 C 199.40062,147.3854 198.46582,148.20647 197.57298,149.07546 C 187.74241,149.07546 177.91185,149.07546 168.08129,149.07546 C 167.73022,150.17839 167.40665,151.43149 167.71128,152.58284 C 168.29344,152.82904 169.33258,152.61825 170.09072,152.68846 C 177.62634,152.68846 185.16197,152.68846 192.6976,152.68846 C 191.62714,153.43326 190.64071,154.40798 189.54006,155.03909 C 184.27148,154.94944 179.01014,155.30704 173.7415,155.21321 C 171.85476,155.21321 169.96802,155.21321 168.08129,155.21321 C 169.80122,157.30919 171.97895,159.02339 174.49775,160.04889 C 178.47453,161.57263 182.71524,162.28329 186.91203,162.90055 C 192.51669,163.35818 198.14692,163.42626 203.76014,163.08339 C 206.49693,163.00477 209.20298,162.50318 211.8291,161.74274 C 212.21076,162.68681 212.52095,163.64294 212.74324,164.6375 z"
           id="path10676"
           style="opacity:1;fill:url(#linearGradient5501);fill-opacity:1;fill-rule:nonzero;stroke:#000000;stroke-width:1;stroke-linecap:round;stroke-linejoin:round;marker:none;marker-start:none;marker-mid:none;marker-end:none;stroke-miterlimit:4;stroke-dasharray:none;stroke-dashoffset:1.08779994;stroke-opacity:1;visibility:visible;display:inline;overflow:visible;filter:url(#filter11799);enable-background:accumulate" />
        <path
           d="M 212.18182,165.16741 C 208.82676,166.20058 205.37112,166.86439 201.86556,167.0819 C 198.07417,167.42814 194.28633,167.84183 190.47371,167.80504 C 184.77432,167.9777 179.08308,167.44685 173.40048,167.07744 C 167.337,166.62646 161.25738,165.58576 155.63727,163.1864 C 153.99383,162.51533 152.26947,162.01278 150.86747,160.87774 C 149.00215,159.45949 147.39008,157.71627 146.12479,155.74312 C 143.33161,155.74312 140.53842,155.74312 137.74524,155.74312 C 138.83205,155.01258 139.80677,154.01342 140.90277,153.37073 C 142.46207,153.37073 144.02137,153.37073 145.58066,153.37073 C 145.60087,152.26642 145.42234,151.08423 145.9942,150.10436 C 145.73655,149.52641 144.42974,149.99761 143.74696,149.84479 C 141.21677,149.84479 138.68658,149.84479 136.15639,149.84479 C 137.18547,149.01297 138.19711,148.16063 139.18173,147.27651 C 141.72099,147.27651 144.26025,147.27651 146.79951,147.27651 C 147.85156,145.77434 149.07475,144.38903 150.64544,143.41735 C 152.50279,141.86758 154.64962,140.74587 156.92647,139.95015 C 160.05165,138.74402 163.36928,138.12507 166.60525,137.2847 C 170.10276,136.59016 173.66657,136.29155 177.21567,136.00578 C 181.01121,135.89031 184.80451,135.58968 188.59932,135.54867 C 193.16239,135.68788 197.74071,135.73465 202.28321,136.19883 C 204.82409,136.59314 207.41385,136.74286 209.92234,137.29665 C 210.7119,137.51509 211.88734,137.53612 211.09226,138.56521 C 210.65637,139.0887 210.9503,140.61923 210.00662,140.24348 C 204.46285,139.19166 198.79852,138.9645 193.17023,139.21696 C 188.2549,139.3309 183.31755,139.80824 178.56879,141.1305 C 176.25434,141.71463 174.12508,142.85188 172.0262,143.95756 C 170.81547,144.6954 169.85759,145.72182 169.01168,146.83836 C 168.01354,147.63359 170.966,147.41167 170.45879,147.27651 C 176.62944,147.25315 182.80231,147.35715 188.96968,147.14591 C 192.5862,147.14591 196.20273,147.14591 199.81925,147.14591 C 198.8392,147.91531 197.9044,148.73638 197.01156,149.60537 C 187.18099,149.60537 177.35043,149.60537 167.51987,149.60537 C 167.1688,150.7083 166.84523,151.9614 167.14986,153.11275 C 167.73202,153.35895 168.77116,153.14816 169.5293,153.21837 C 177.06492,153.21837 184.60055,153.21837 192.13618,153.21837 C 191.06572,153.96317 190.07929,154.93789 188.97864,155.569 C 183.71006,155.47935 178.44872,155.83695 173.18008,155.74312 C 171.29334,155.74312 169.4066,155.74312 167.51987,155.74312 C 169.2398,157.8391 171.41753,159.5533 173.93633,160.5788 C 177.91311,162.10254 182.15382,162.8132 186.35061,163.43046 C 191.95527,163.88809 197.5855,163.95617 203.19872,163.6133 C 205.93551,163.53468 208.64156,163.03309 211.26768,162.27265 C 211.64934,163.21672 211.95953,164.17285 212.18182,165.16741 z"
           id="path11815"
           style="opacity:0.85;fill:none;fill-opacity:1;fill-rule:nonzero;stroke:#ffffff;stroke-width:1;stroke-linecap:round;stroke-linejoin:round;marker:none;marker-start:none;marker-mid:none;marker-end:none;stroke-miterlimit:4;stroke-dasharray:none;stroke-dashoffset:1.08779994;stroke-opacity:1;visibility:visible;display:inline;overflow:visible;filter:url(#filter11819);enable-background:accumulate" />
      </g>
    </g>
    <path
       d="M 77.64874,113.24506 C 77.64874,113.24506 88.797148,103.96816 93.943712,98.821578 C 99.090287,93.675015 108.3672,82.526618 108.3672,82.526618 C 108.3672,82.526618 96.049125,91.335666 86.4578,91.335666 C 86.4578,100.92699 77.64874,113.24506 77.64874,113.24506 z"
       id="path6222"
       style="fill:url(#linearGradient37488)" />
  </g>
</svg>
