<?xml version="1.0" standalone="no"?>
<!DOCTYPE svg PUBLIC "-//W3C//DTD SVG 20010904//EN" "http://www.w3.org/TR/2001/REC-SVG-20010904/DTD/svg10.dtd">
<!-- Created using Karbon14, part of koffice: http://www.koffice.org/karbon -->
<svg xmlns="http://www.w3.org/2000/svg" xmlns:xlink="http://www.w3.org/1999/xlink" width="128px" height="128px">
  <defs>
    <radialGradient id="defitem0" gradientUnits="userSpaceOnUse" cx="64" cy="122.485" fx="64" fy="122.485" r="64" >
      <stop stop-color="#000000" offset="0" stop-opacity="1" />
      <stop stop-color="#000000" offset="1" stop-opacity="0" />
    </radialGradient>
    <linearGradient id="defitem1" gradientUnits="userSpaceOnUse" x1="28.3547" y1="122.198" x2="100.432" y2="40.9486" >
      <stop stop-color="#1f670d" offset="0" stop-opacity="1" />
      <stop stop-color="#26b511" offset="0.508346" stop-opacity="1" />
      <stop stop-color="#0e6908" offset="1" stop-opacity="1" />
    </linearGradient>
    <linearGradient id="defitem2" gradientUnits="userSpaceOnUse" x1="-33.629" y1="69.8771" x2="38.4486" y2="-11.373" >
      <stop stop-color="#1f670d" offset="0" stop-opacity="1" />
      <stop stop-color="#26b511" offset="0.508346" stop-opacity="1" />
      <stop stop-color="#0e6908" offset="1" stop-opacity="1" />
    </linearGradient>
  </defs>
  <g id="Layer">
    <g id="layer1">
      <path id="path3945" fill="#000000" d=""  />
    </g>
    <path id="path3081" fill="#000000" d=""  />
    <g id="layer2">
    </g>
    <g id="layer3">
    </g>
    <g id="layer4">
    </g>
    <g id="layer8">
      <path id="path2167" fill="#000000" d=""  />
      <g id="g3036">
        <path id="path4922" fill="#000000" d=""  />
      </g>
      <path id="path4924" fill="#000000" d=""  />
      <g id="g4926">
      </g>
      <g id="g4928">
      </g>
      <g id="g4930">
      </g>
      <path id="path10095" fill="#000000" d=""  />
      <path id="path2276" fill="#ffffff" fill-opacity="0.756881" stroke-width="0.5" stroke-linecap="round" stroke-linejoin="round" d="M72.7412 -14.182L72.7412 -16.977L72.7412 -14.182Z"  />
      <path id="path2191" fill="#ffffff" fill-opacity="0.756881" stroke-width="0.5" stroke-linecap="round" stroke-linejoin="round" d="M367.351 -76.373L367.351 -79.168L367.351 -76.373Z"  />
      <path id="path2985" fill="#ffffff" fill-opacity="0.756881" stroke-width="0.5" stroke-linecap="round" stroke-linejoin="round" d="M210.342 -146.008L210.342 -148.803L210.342 -146.008Z"  />
      <path id="path3206" fill="#ffffff" fill-opacity="0.756881" stroke-width="0.5" stroke-linecap="round" stroke-linejoin="round" d="M90.8401 -232.638L90.8401 -235.433L90.8401 -232.638Z"  />
      <g id="g2878">
      </g>
      <g id="g4938">
      </g>
      <path id="path3946" fill="#ffffff" fill-opacity="0.756881" stroke-width="0.5" stroke-linecap="round" stroke-linejoin="round" d="M337.432 -166.883L337.432 -169.678L337.432 -166.883Z"  />
      <path id="path1561" fill="#ffffff" fill-opacity="0.756881" stroke-width="0.5" stroke-linecap="round" stroke-linejoin="round" d="M244.807 -92.989L244.807 -94.516L244.807 -92.989Z"  />
      <path fill="#ffffff" stroke-width="3.632" stroke-linecap="round" stroke-linejoin="round" d="M187.322 -149.589L187.322 -149.589L188.322 -149.589L188.322 -149.589L187.322 -149.589Z"  />
      <path fill="#ffffff" stroke-width="3.632" stroke-linecap="round" stroke-linejoin="round" d="M152.196 -177.117L152.196 -177.117L153.196 -177.117L153.196 -177.117L152.196 -177.117Z"  />
      <path id="path2494" fill="#ffffff" fill-opacity="0.756881" stroke-width="0.5" stroke-linecap="round" stroke-linejoin="round" d="M-6.74187 -250.333L-6.74187 -253.128L-6.74187 -250.333Z"  />
      <g id="g4640">
      </g>
      <g id="g4646">
      </g>
      <g id="g4730">
      </g>
      <g id="g4748">
      </g>
      <g id="g12948">
        <path id="path12950" fill="#000000" d=""  />
      </g>
      <path id="path12952" fill="#000000" d=""  />
      <g id="g12954">
      </g>
      <g id="g12956">
      </g>
      <g id="g12958">
      </g>
      <path id="path12983" fill="#000000" d=""  />
      <g id="g12985">
        <path id="path12987" fill="#000000" d=""  />
      </g>
      <path id="path12989" fill="#000000" d=""  />
      <g id="g12991">
      </g>
      <g id="g12993">
      </g>
      <g id="g12995">
      </g>
      <path id="path12997" fill="#000000" d=""  />
      <path id="path12999" fill="#ffffff" fill-opacity="0.756881" stroke-width="0.5" stroke-linecap="round" stroke-linejoin="round" d="M215.711 -26.278L215.711 -29.073L215.711 -26.278Z"  />
      <path id="path13001" fill="#ffffff" fill-opacity="0.756881" stroke-width="0.5" stroke-linecap="round" stroke-linejoin="round" d="M510.32 -88.469L510.32 -91.263L510.32 -88.469Z"  />
      <path id="path13003" fill="#ffffff" fill-opacity="0.756881" stroke-width="0.5" stroke-linecap="round" stroke-linejoin="round" d="M353.312 -158.104L353.312 -160.899L353.312 -158.104Z"  />
      <path id="path13005" fill="#ffffff" fill-opacity="0.756881" stroke-width="0.5" stroke-linecap="round" stroke-linejoin="round" d="M233.81 -244.734L233.81 -247.529L233.81 -244.734Z"  />
      <g id="g13007">
      </g>
      <g id="g13009">
      </g>
      <path id="path13011" fill="#ffffff" fill-opacity="0.756881" stroke-width="0.5" stroke-linecap="round" stroke-linejoin="round" d="M480.401 -178.979L480.401 -181.774L480.401 -178.979Z"  />
      <path id="path13013" fill="#ffffff" fill-opacity="0.756881" stroke-width="0.5" stroke-linecap="round" stroke-linejoin="round" d="M387.777 -105.085L387.777 -106.612L387.777 -105.085Z"  />
      <path fill="#ffffff" stroke-width="3.632" stroke-linecap="round" stroke-linejoin="round" d="M330.292 -161.685L330.292 -161.685L331.292 -161.685L331.292 -161.685L330.292 -161.685Z"  />
      <path fill="#ffffff" stroke-width="3.632" stroke-linecap="round" stroke-linejoin="round" d="M295.165 -189.213L295.165 -189.213L296.165 -189.213L296.165 -189.213L295.165 -189.213Z"  />
      <path id="path13019" fill="#ffffff" fill-opacity="0.756881" stroke-width="0.5" stroke-linecap="round" stroke-linejoin="round" d="M136.228 -262.429L136.228 -265.224L136.228 -262.429Z"  />
      <g id="g13021">
      </g>
      <g id="g13023">
      </g>
      <g id="g13025">
      </g>
      <g id="g13027">
      </g>
      <path id="path4226" fill="#ffffff" fill-opacity="0.756881" stroke-width="0.5" stroke-linecap="round" stroke-linejoin="round" d="M405.442 24.848L405.442 22.053L405.442 24.848Z"  />
      <path id="path1563" fill="url(#defitem0)" stroke-width="0" stroke-linecap="round" stroke-linejoin="round" d="M128 122.485C128 125.35 99.3462 127.673 64 127.673C28.6538 127.673 -2.37106e-05 125.35 -2.3699e-05 122.485"  />
      <g id="g5678">
      </g>
      <g id="layer5">
      </g>
      <path id="path13199" fill="#ffffff" fill-opacity="0.756881" stroke-width="0.5" stroke-linecap="round" stroke-linejoin="round" d="M336.377 -77.923L336.377 -80.523L336.377 -77.923Z"  />
      <path id="path5682" fill="#000000" d=""  />
      <path id="path5684" fill="#000000" d=""  />
      <path id="path3143" fill="#000000" d=""  />
      <g id="g11965">
        <path id="path6044" fill="#ffffff" fill-opacity="0.756881" stroke-width="0.5" stroke-linecap="round" stroke-linejoin="round" d="M64 3.568L64 2L64 3.568Z"  />
        <g id="g11760">
          <g id="g10643">
            <path id="path10630" fill="#ffffff" stroke-width="0.547158" d="M114.303 75.7539C114.111 79.5948 115.747 84.1692 112.796 87.342C108.731 92.5842 102.144 94.7587 96.0852 96.7654C81.1941 101.234 65.3773 101.708 49.9955 100.172C42.6912 99.205 35.3722 97.7213 28.5157 94.9742C24.0425 93.0211 19.1842 90.5987 16.8704 86.059C15.4612 82.4504 16.706 78.5509 16.999 74.8602C18.6996 69.7536 23.9325 67.0926 28.5077 64.985C39.5285 60.5288 51.5142 58.8833 63.3371 58.5616C76.464 58.4944 89.8866 59.559 102.183 64.4928C106.681 66.3654 111.552 68.9072 113.736 73.515C114.034 74.2281 114.227 74.9848 114.303 75.7539Z"  />
            <path id="path10632" fill="#000000" stroke-width="0.0150154" d="M112.894 74.5406C112.928 78.4379 114.143 83.0578 111.16 86.2326C104.655 92.9253 95.1913 95.179 86.3625 96.9817C69.1308 100.038 51.1164 99.5622 34.2915 94.565C28.7345 92.7383 22.8414 90.2352 19.3743 85.2969C17.5445 81.644 18.3713 77.3259 19.2149 73.5183C20.4732 69.1444 24.7833 66.9108 28.4969 64.897C35.9774 61.3484 44.2423 59.8547 52.3918 58.7662C68.0235 56.942 84.153 57.9417 99.1615 62.8505C104.162 64.6499 109.443 67.1985 112.227 71.9485C112.606 72.7609 112.852 73.6424 112.894 74.5406Z"  />
            <path id="path10633" fill="#ffffff" stroke-width="0.547158" d="M65.9256 58.4949C77.1411 58.4053 88.5194 59.7938 99.0754 63.7125C103.127 65.394 107.378 67.5794 109.735 71.4386C111.153 74.1633 110.396 77.5056 108.283 79.6378C105.643 82.6514 101.847 84.3071 98.2789 85.9427C87.8357 89.8047 76.6097 91.0882 65.5297 91.1975C54.3103 91.1766 42.9154 89.918 32.4036 85.8077C28.4294 84.151 24.2632 82.0007 21.9795 78.1907C20.4803 75.6689 21.0488 72.4099 23.0738 70.3475C26.5535 66.3792 31.62 64.3705 36.4746 62.6407C46.0085 59.7207 55.981 58.5979 65.9256 58.4949Z"  />
          </g>
          <g id="g10647">
            <path id="path10648" fill="#ffffff" stroke-width="0.547158" d="M124.088 66.8074C123.896 70.6482 125.532 75.2226 122.582 78.3954C118.516 83.6376 111.929 85.8121 105.87 87.8188C90.9794 92.2873 75.1625 92.7611 59.7807 91.2254C52.4764 90.2584 45.1574 88.7747 38.3009 86.0276C33.8277 84.0745 28.9694 81.6521 26.6556 77.1124C25.2464 73.5038 26.4913 69.6043 26.7842 65.9136C28.4848 60.807 33.7177 58.146 38.2929 56.0384C49.3137 51.5822 61.2994 49.9367 73.1223 49.615C86.2493 49.5478 99.6719 50.6124 111.968 55.5462C116.466 57.4188 121.337 59.9606 123.521 64.5684C123.819 65.2815 124.012 66.0382 124.088 66.8074Z"  />
            <path id="path10649" fill="#000000" stroke-width="0.0150154" d="M122.679 65.594C122.713 69.4913 123.928 74.1112 120.945 77.286C114.44 83.9787 104.976 86.2324 96.1477 88.0351C78.9161 91.0915 60.9017 90.6156 44.0767 85.6184C38.5197 83.7917 32.6266 81.2886 29.1596 76.3503C27.3297 72.6974 28.1565 68.3793 29.0001 64.5717C30.2584 60.1978 34.5686 57.9642 38.2821 55.9504C45.7626 52.4018 54.0275 50.9081 62.177 49.8196C77.8087 47.9954 93.9382 48.9951 108.947 53.9039C113.947 55.7033 119.229 58.2519 122.012 63.0019C122.392 63.8143 122.637 64.6958 122.679 65.594Z"  />
            <path id="path10650" fill="#ffffff" stroke-width="0.547158" d="M75.7108 49.5483C86.9263 49.4587 98.3046 50.8472 108.861 54.7659C112.913 56.4474 117.163 58.6328 119.52 62.492C120.939 65.2167 120.181 68.559 118.069 70.6912C115.428 73.7048 111.632 75.3605 108.064 76.9961C97.6209 80.8581 86.3949 82.1416 75.315 82.2509C64.0956 82.23 52.7006 80.9714 42.1888 76.8611C38.2146 75.2044 34.0484 73.0541 31.7647 69.2441C30.2656 66.7223 30.8341 63.4633 32.859 61.4009C36.3387 57.4326 41.4053 55.4239 46.2598 53.6941C55.7938 50.7741 65.7662 49.6513 75.7108 49.5483Z"  />
          </g>
          <g id="g10651">
            <path id="path10652" fill="#ffffff" stroke-width="0.547158" d="M112.345 57.8609C112.154 61.7017 113.79 66.2761 110.839 69.4489C106.774 74.6911 100.187 76.8656 94.1281 78.8723C79.237 83.3408 63.4202 83.8146 48.0384 82.2789C40.7341 81.3119 33.4151 79.8282 26.5586 77.0811C22.0854 75.128 17.2271 72.7056 14.9133 68.1659C13.5041 64.5573 14.7489 60.6578 15.0419 56.9671C16.7425 51.8605 21.9754 49.1995 26.5506 47.0919C37.5714 42.6357 49.5571 40.9902 61.38 40.6685C74.5069 40.6013 87.9295 41.6659 100.226 46.5997C104.724 48.4723 109.595 51.0141 111.779 55.6219C112.076 56.335 112.27 57.0917 112.345 57.8609Z"  />
            <path id="path10653" fill="#000000" stroke-width="0.0150154" d="M110.937 56.6475C110.97 60.5448 112.186 65.1647 109.203 68.3395C102.698 75.0322 93.2342 77.2859 84.4054 79.0886C67.1737 82.145 49.1593 81.6691 32.3344 76.6719C26.7774 74.8452 20.8843 72.3421 17.4172 67.4038C15.5874 63.7509 16.4142 59.4328 17.2578 55.6252C18.5161 51.2513 22.8262 49.0177 26.5398 47.0039C34.0203 43.4553 42.2852 41.9616 50.4347 40.8731C66.0664 39.0489 82.1959 40.0486 97.2044 44.9574C102.205 46.7568 107.486 49.3054 110.27 54.0554C110.649 54.8678 110.895 55.7493 110.937 56.6475Z"  />
            <path id="path10654" fill="#ffffff" stroke-width="0.547158" d="M63.9685 40.6018C75.184 40.5122 86.5623 41.9007 97.1183 45.8194C101.17 47.5009 105.421 49.6863 107.778 53.5455C109.196 56.2702 108.439 59.6125 106.326 61.7447C103.685 64.7583 99.8898 66.414 96.3218 68.0496C85.8786 71.9116 74.6526 73.1951 63.5726 73.3044C52.3532 73.2835 40.9583 72.0249 30.4465 67.9146C26.4723 66.2579 22.3061 64.1076 20.0224 60.2976C18.5232 57.7758 19.0917 54.5168 21.1167 52.4544C24.5964 48.4861 29.6629 46.4774 34.5175 44.7476C44.0514 41.8276 54.0239 40.7048 63.9685 40.6018Z"  />
          </g>
          <g id="g10655">
            <path id="path10656" fill="#ffffff" stroke-width="0.547158" d="M121.572 46.3981C121.38 50.239 123.016 54.8134 120.065 57.9862C116 63.2284 109.413 65.4029 103.354 67.4096C88.4632 71.8781 72.6463 72.3519 57.2645 70.8162C49.9602 69.8492 42.6412 68.3654 35.7847 65.6184C31.3115 63.6653 26.4532 61.2429 24.1395 56.7032C22.7303 53.0946 23.9751 49.1951 24.268 45.5043C25.9686 40.3978 31.2015 37.7367 35.7767 35.6292C46.7975 31.173 58.7832 29.5274 70.6061 29.2057C83.7331 29.1385 97.1557 30.2032 109.452 35.1369C113.95 37.0096 118.821 39.5514 121.005 44.1592C121.303 44.8723 121.496 45.629 121.572 46.3981Z"  />
            <path id="path10657" fill="#000000" stroke-width="0.0150154" d="M120.163 45.1848C120.197 49.0821 121.412 53.702 118.429 56.8768C111.924 63.5695 102.46 65.8232 93.6315 67.6259C76.3999 70.6823 58.3855 70.2063 41.5605 65.2092C36.0035 63.3825 30.1105 60.8793 26.6434 55.9411C24.8135 52.2882 25.6403 47.9701 26.4839 44.1624C27.7422 39.7885 32.0524 37.555 35.7659 35.5412C43.2464 31.9925 51.5113 30.4988 59.6609 29.4104C75.2925 27.586 91.422 28.5859 106.431 33.4946C111.431 35.2941 116.713 37.8426 119.496 42.5927C119.875 43.4051 120.121 44.2866 120.163 45.1848Z"  />
            <path id="path10658" fill="#ffffff" stroke-width="0.547158" d="M73.1946 29.1391C84.4101 29.0495 95.7884 30.438 106.344 34.3566C110.396 36.0381 114.647 38.2236 117.004 42.0828C118.422 44.8075 117.665 48.1498 115.552 50.282C112.912 53.2956 109.116 54.9513 105.548 56.5869C95.1047 60.4488 83.8787 61.7324 72.7988 61.8417C61.5794 61.8208 50.1844 60.5622 39.6726 56.4519C35.6984 54.7952 31.5322 52.6449 29.2485 48.8349C27.7494 46.3131 28.3179 43.0541 30.3428 40.9916C33.8226 37.0234 38.8891 35.0147 43.7436 33.2849C53.2776 30.3649 63.25 29.2421 73.1946 29.1391Z"  />
          </g>
          <g id="g10659">
            <path id="path10660" fill="#ffffff" stroke-width="0.547158" d="M109.829 36.8925C109.637 40.7333 111.273 45.3077 108.323 48.4805C104.258 53.7227 97.6705 55.8972 91.6119 57.9039C76.7209 62.3724 60.904 62.8462 45.5223 61.3105C38.2179 60.3435 30.8989 58.8598 24.0424 56.1127C19.5693 54.1596 14.7109 51.7372 12.3972 47.1975C10.988 43.5889 12.2328 39.6894 12.5257 35.9987C14.2263 30.8921 19.4592 28.2311 24.0344 26.123C35.0552 21.667 47.0409 20.022 58.8639 19.7C71.9908 19.633 85.4134 20.698 97.7097 25.631C102.208 27.504 107.079 30.0457 109.263 34.6535C109.56 35.3666 109.754 36.1233 109.829 36.8925Z"  />
            <path id="path10661" fill="#000000" stroke-width="0.0150154" d="M108.42 35.6791C108.454 39.5765 109.67 44.1963 106.687 47.3711C100.182 54.0638 90.718 56.3175 81.8892 58.1202C64.6576 61.1766 46.6432 60.7007 29.8182 55.7035C24.2612 53.8768 18.3682 51.3737 14.9011 46.4354C13.0713 42.7825 13.898 38.4644 14.7417 34.6568C16 30.2829 20.3101 28.0493 24.0236 26.036C31.5041 22.487 39.769 20.993 47.9186 19.905C63.5502 18.08 79.6797 19.08 94.6882 23.989C99.6885 25.788 104.97 28.337 107.753 33.087C108.133 33.8994 108.379 34.7809 108.42 35.6791Z"  />
            <path id="path10662" fill="#ffffff" stroke-width="0.547158" d="M61.4523 19.633C72.6678 19.544 84.0462 20.932 94.6021 24.851C98.654 26.532 102.905 28.7179 105.262 32.5771C106.68 35.3018 105.922 38.6441 103.81 40.7763C101.169 43.7899 97.3737 45.4456 93.8057 47.0812C83.3624 50.9432 72.1364 52.2267 61.0565 52.336C49.8371 52.3151 38.4421 51.0565 27.9303 46.9462C23.9561 45.2895 19.7899 43.1392 17.5062 39.3292C16.0071 36.8074 16.5756 33.5484 18.6005 31.486C22.0803 27.518 27.1468 25.509 32.0013 23.779C41.5353 20.859 51.5078 19.736 61.4523 19.633Z"  />
          </g>
          <g id="g10663">
            <path id="path10664" fill="#ffffff" stroke-width="0.547158" d="M101.721 29.6234C101.53 33.4642 103.166 38.0386 100.215 41.2114C96.1497 46.4536 89.5626 48.6281 83.5041 50.6348C68.613 55.1033 52.7962 55.5771 37.4144 54.0414C30.1101 53.0744 22.7911 51.5907 15.9346 48.8436C11.4614 46.8905 6.60305 44.4681 4.2893 39.9284C2.8801 36.3198 4.12491 32.4203 4.41786 28.7296C6.11845 23.623 11.3514 20.962 15.9266 18.854C26.9474 14.398 38.933 12.753 50.756 12.431C63.8829 12.364 77.3055 13.428 89.6018 18.362C94.0998 20.235 98.9707 22.777 101.155 27.384C101.452 28.0975 101.646 28.8542 101.721 29.6234Z"  />
            <path id="path10665" fill="#000000" stroke-width="0.0150154" d="M100.313 28.41C100.346 32.3074 101.562 36.9272 98.579 40.102C92.074 46.7947 82.6102 49.0484 73.7813 50.8511C56.5497 53.9075 38.5353 53.4316 21.7104 48.4344C16.1534 46.6077 10.2603 44.1046 6.79324 39.1663C4.9634 35.5134 5.79018 31.1953 6.6338 27.388C7.8921 23.014 12.2022 20.78 15.9157 18.766C23.3963 15.218 31.6612 13.724 39.8107 12.636C55.4424 10.811 71.5719 11.811 86.5804 16.72C91.5806 18.519 96.8624 21.068 99.6456 25.818C100.025 26.63 100.271 27.512 100.313 28.41Z"  />
            <path id="path10666" fill="#ffffff" stroke-width="0.547158" d="M53.3445 12.364C64.56 12.275 75.9383 13.663 86.4943 17.582C90.5462 19.263 94.7967 21.449 97.154 25.308C98.5723 28.0327 97.8146 31.375 95.7023 33.5072C93.0614 36.5208 89.2658 38.1765 85.6978 39.8121C75.2546 43.6741 64.0286 44.9576 52.9486 45.0669C41.7292 45.046 30.3343 43.7874 19.8225 39.6771C15.8482 38.0204 11.6821 35.8701 9.39838 32.0601C7.89921 29.5383 8.46772 26.279 10.4927 24.217C13.9724 20.249 19.0389 18.24 23.8935 16.51C33.4274 13.59 43.3999 12.467 53.3445 12.364Z"  />
          </g>
          <path id="path10672" fill="#ffffff" stroke-width="0.689883" d="M115.7 21.236C115.509 25.077 117.145 29.6512 114.194 32.824C110.129 38.0662 103.542 40.2407 97.4831 42.2474C82.592 46.7159 66.7752 47.1897 51.3934 45.654C44.089 44.687 36.7701 43.2033 29.9136 40.4562C25.4404 38.5031 20.582 36.0807 18.2683 31.541C16.8591 27.932 18.1039 24.033 18.3968 20.342C20.0974 15.236 25.3304 12.575 29.9056 10.467C40.9263 6.011 52.912 4.365 64.735 4.044C77.8619 3.976 91.2845 5.041 103.581 9.975C108.079 11.847 112.95 14.389 115.134 18.997C115.431 19.71 115.625 20.467 115.7 21.236Z"  />
          <path id="path10674" fill="#000000" stroke-width="0.689883" d="M115.13 18.625C115.164 22.522 116.38 27.142 113.397 30.3167C106.892 37.0094 97.4279 39.2631 88.5991 41.0658C71.3674 44.1222 53.353 43.6462 36.5281 38.6491C30.9711 36.8224 25.078 34.3192 21.6109 29.381C19.7811 25.728 20.6079 21.41 21.4515 17.602C22.7098 13.228 27.0199 10.995 30.7335 8.981C38.214 5.432 46.4789 3.939 54.6284 2.85C70.2601 1.026 86.3896 2.026 101.398 6.935C106.398 8.734 111.68 11.283 114.463 16.033C114.843 16.845 115.089 17.726 115.13 18.625Z"  />
          <path id="path10675" fill="#ffffff" stroke-width="0.689883" d="M68.1622 2.859C79.3777 2.769 90.756 4.157 101.312 8.076C105.364 9.758 109.614 11.943 111.972 15.802C113.39 18.527 112.632 21.869 110.52 24.001C107.879 27.015 104.084 28.6708 100.516 30.3063C90.0723 34.1683 78.8463 35.4519 67.7663 35.5612C56.5469 35.5403 45.152 34.2817 34.6402 30.1714C30.666 28.5147 26.4998 26.364 24.2161 22.554C22.7169 20.033 23.2854 16.774 25.3104 14.711C28.7901 10.743 33.8566 8.734 38.7112 7.004C48.2451 4.084 58.2176 2.962 68.1622 2.859Z"  />
        </g>
        <g id="g11827">
          <path id="path1699" fill="url(#defitem1)" stroke="#000000" stroke-width="1.37977" stroke-linecap="round" stroke-linejoin="round" d="M64.3935 38.847C63.0796 38.847 61.7568 39.3397 60.7501 40.3465L29.8649 71.2457C27.8513 73.2592 27.8513 76.5049 29.8649 78.5185L47.3254 78.5185C47.2634 78.8386 47.1292 79.1327 47.1292 79.4714L47.1292 90.2476C47.1292 93.0952 49.4244 95.3905 52.272 95.3905L76.5009 95.3905C79.3486 95.3905 81.6438 93.0952 81.6438 90.2476L81.6438 79.4714C81.6438 79.1327 81.5096 78.8386 81.4476 78.5185L98.9221 78.5185C100.936 76.5049 100.936 73.2592 98.9221 71.2457L68.0229 40.3465C67.0161 39.3397 65.7074 38.847 64.3935 38.847ZM52.2757 95.3668L76.5113 95.3668C79.3589 95.3668 81.6514 97.6593 81.6514 100.507L81.6514 108.349C81.6514 111.197 79.3589 113.489 76.5113 113.489L52.2757 113.489C49.4281 113.489 47.1356 111.197 47.1356 108.349L47.1356 100.507C47.1356 97.6593 49.4281 95.3668 52.2757 95.3668ZM52.2757 113.47L76.5113 113.47C79.3589 113.47 81.6514 115.416 81.6514 117.834C81.6514 120.252 79.3589 122.198 76.5113 122.198L52.2757 122.198C49.4281 122.198 47.1356 120.252 47.1356 117.834C47.1356 115.416 49.4281 113.47 52.2757 113.47Z"  />
          <path id="path11803" fill="none" stroke="#ffffff" stroke-width="1.86268" stroke-linecap="round" stroke-linejoin="round" d="M63.848 39.1625C62.534 39.1625 61.2113 39.6551 60.2045 40.6619L29.3193 71.5611C27.3057 73.5747 27.3057 76.8204 29.3193 78.834L46.7798 78.834C46.7179 79.1541 46.5836 79.4482 46.5836 79.7869L46.5836 90.5631C46.5836 93.4107 48.8789 95.7059 51.7265 95.7059L75.9554 95.7059C78.803 95.7059 81.0983 93.4107 81.0983 90.5631L81.0983 79.7869C81.0983 79.4482 80.964 79.1541 80.9021 78.834L98.3766 78.834C100.39 76.8204 100.39 73.5747 98.3766 71.5611L67.4774 40.6619C66.4706 39.6551 65.1619 39.1625 63.848 39.1625ZM51.7302 95.6823L75.9657 95.6823C78.8133 95.6823 81.1059 97.9748 81.1059 100.822L81.1059 108.665C81.1059 111.512 78.8133 113.805 75.9657 113.805L51.7302 113.805C48.8826 113.805 46.5901 111.512 46.5901 108.665L46.5901 100.822C46.5901 97.9748 48.8826 95.6823 51.7302 95.6823ZM51.7302 113.785L75.9657 113.785C78.8133 113.785 81.1059 115.732 81.1059 118.149C81.1059 120.567 78.8133 122.514 75.9657 122.514L51.7302 122.514C48.8826 122.514 46.5901 120.567 46.5901 118.149C46.5901 115.732 48.8826 113.785 51.7302 113.785Z"  />
        </g>
        <g id="g11823">
          <path id="path10676" fill="url(#defitem2)" stroke="#000000" stroke-width="0.689883" stroke-linecap="round" stroke-linejoin="round" d="M90.418 27.696C88.1034 28.4091 85.7194 28.8671 83.301 29.0172C80.6853 29.256 78.0722 29.5414 75.4419 29.516C71.51 29.6352 67.5837 29.2689 63.6634 29.0141C59.4803 28.703 55.2861 27.985 51.4089 26.33C50.2751 25.867 49.0855 25.52 48.1183 24.737C46.8314 23.759 45.7193 22.556 44.8464 21.195C42.9194 21.195 40.9924 21.195 39.0655 21.195C39.8152 20.691 40.4877 20.001 41.2438 19.558C42.3195 19.558 43.3953 19.558 44.471 19.558C44.4849 18.796 44.3618 17.981 44.7563 17.305C44.5785 16.906 43.677 17.231 43.2059 17.126C41.4604 17.126 39.7149 17.126 37.9693 17.126C38.6793 16.552 39.3772 15.964 40.0565 15.354C41.8083 15.354 43.5601 15.354 45.3118 15.354C46.0376 14.317 46.8815 13.362 47.9651 12.691C49.2464 11.622 50.7275 10.848 52.2983 10.299C54.4543 9.467 56.743 9.04 58.9755 8.461C61.3884 7.981 63.847 7.775 66.2954 7.578C68.9139 7.499 71.5308 7.291 74.1488 7.263C77.2968 7.359 80.4553 7.391 83.5891 7.711C85.342 7.983 87.1286 8.087 88.8592 8.469C89.4039 8.62 90.2148 8.634 89.6663 9.344C89.3656 9.705 89.5684 10.761 88.9173 10.502C85.0928 9.776 81.1851 9.619 77.3022 9.794C73.9112 9.872 70.505 10.202 67.2289 11.114C65.6322 11.517 64.1633 12.301 62.7153 13.064C61.88 13.573 61.2192 14.281 60.6356 15.051C59.947 15.6 61.9839 15.447 61.634 15.354C65.891 15.338 70.1496 15.409 74.4043 15.264C76.8993 15.264 79.3943 15.264 81.8892 15.264C81.2131 15.794 80.5682 16.361 79.9523 16.96C73.1703 16.96 66.3884 16.96 59.6065 16.96C59.3643 17.721 59.141 18.586 59.3512 19.38C59.7528 19.55 60.4697 19.405 60.9927 19.453C66.1914 19.453 71.3901 19.453 76.5888 19.453C75.8503 19.967 75.1698 20.639 74.4105 21.075C70.7758 21.013 67.1461 21.259 63.5113 21.195C62.2097 21.195 60.9081 21.195 59.6065 21.195C60.793 22.641 62.2954 23.823 64.0331 24.531C66.7766 25.582 69.7022 26.072 72.5975 26.498C76.464 26.814 80.3482 26.861 84.2207 26.624C86.1087 26.57 87.9756 26.224 89.7873 25.699C90.0506 26.351 90.2646 27.01 90.418 27.696Z"  />
          <path id="path11815" fill="none" stroke="#ffffff" stroke-width="0.689883" stroke-linecap="round" stroke-linejoin="round" d="M90.0307 28.062C87.7161 28.7747 85.3321 29.2327 82.9136 29.3827C80.298 29.6216 77.6849 29.907 75.0546 29.8816C71.1227 30.0007 67.1964 29.6345 63.2761 29.3797C59.093 29.0685 54.8988 28.3506 51.0216 26.695C49.8878 26.232 48.6982 25.886 47.731 25.103C46.4441 24.124 45.332 22.922 44.4591 21.56C42.5321 21.56 40.6051 21.56 38.6782 21.56C39.4279 21.056 40.1004 20.367 40.8565 19.924C41.9322 19.924 43.0079 19.924 44.0837 19.924C44.0976 19.162 43.9744 18.346 44.369 17.67C44.1912 17.272 43.2897 17.597 42.8186 17.491C41.0731 17.491 39.3276 17.491 37.582 17.491C38.292 16.917 38.9899 16.329 39.6692 15.719C41.421 15.719 43.1727 15.719 44.9245 15.719C45.6503 14.683 46.4942 13.727 47.5778 13.057C48.8591 11.988 50.3402 11.214 51.9109 10.665C54.067 9.833 56.3557 9.406 58.5882 8.826C61.001 8.347 63.4597 8.141 65.9081 7.944C68.5266 7.864 71.1435 7.657 73.7615 7.629C76.9095 7.725 80.068 7.757 83.2018 8.077C84.9547 8.349 86.7413 8.452 88.4719 8.834C89.0166 8.985 89.8275 9 89.279 9.71C88.9783 10.071 89.181 11.127 88.53 10.867C84.7055 10.142 80.7977 9.985 76.9149 10.159C73.5239 10.238 70.1177 10.567 66.8416 11.479C65.2449 11.882 63.776 12.667 62.328 13.43C61.4927 13.939 60.8319 14.647 60.2483 15.417C59.5597 15.966 61.5966 15.813 61.2467 15.719C65.5037 15.703 69.7622 15.775 74.017 15.629C76.512 15.629 79.007 15.629 81.5019 15.629C80.8258 16.16 80.1809 16.726 79.565 17.326C72.783 17.326 66.0011 17.326 59.2192 17.326C58.977 18.087 58.7537 18.951 58.9639 19.746C59.3655 19.916 60.0824 19.77 60.6054 19.819C65.8041 19.819 71.0028 19.819 76.2015 19.819C75.463 20.332 74.7825 21.005 74.0232 21.44C70.3885 21.378 66.7588 21.625 63.124 21.56C61.8224 21.56 60.5208 21.56 59.2192 21.56C60.4057 23.006 61.9081 24.189 63.6458 24.896C66.3893 25.948 69.3149 26.438 72.2102 26.864C76.0767 27.179 79.9609 27.226 83.8334 26.99C85.7214 26.936 87.5883 26.59 89.4 26.065C89.6633 26.716 89.8773 27.376 90.0307 28.062Z"  />
        </g>
      </g>
    </g>
  </g>
</svg>
