<?xml version="1.0" standalone="no"?>
<!DOCTYPE svg PUBLIC "-//W3C//DTD SVG 20010904//EN" "http://www.w3.org/TR/2001/REC-SVG-20010904/DTD/svg10.dtd">
<!-- Created using Karbon14, part of koffice: http://www.koffice.org/karbon -->
<svg xmlns="http://www.w3.org/2000/svg" xmlns:xlink="http://www.w3.org/1999/xlink" width="128px" height="128px">
  <defs>
    <radialGradient id="defitem0" gradientUnits="userSpaceOnUse" cx="64.0002" cy="122.802" fx="64.0002" fy="122.802" r="61.5368" >
      <stop stop-color="#000000" offset="0" stop-opacity="1" />
      <stop stop-color="#000000" offset="1" stop-opacity="0" />
    </radialGradient>
    <linearGradient id="defitem1" gradientUnits="userSpaceOnUse" x1="64.0002" y1="128" x2="64.0002" y2="122.802" >
      <stop stop-color="#ffffff" offset="0" stop-opacity="1" />
      <stop stop-color="#ffffff" offset="1" stop-opacity="0" />
    </linearGradient>
    <linearGradient id="defitem2" gradientUnits="userSpaceOnUse" x1="64.0002" y1="117.18" x2="64.0002" y2="122.802" >
      <stop stop-color="#ffffff" offset="0" stop-opacity="1" />
      <stop stop-color="#ffffff" offset="1" stop-opacity="0" />
    </linearGradient>
    <linearGradient id="defitem3" gradientUnits="userSpaceOnUse" x1="113.047" y1="83.7461" x2="113.047" y2="54.0586" >
      <stop stop-color="#cacacd" offset="0" stop-opacity="1" />
      <stop stop-color="#dfdfe2" offset="0.5" stop-opacity="1" />
      <stop stop-color="#f2f2f2" offset="1" stop-opacity="1" />
    </linearGradient>
    <linearGradient id="defitem4" gradientUnits="userSpaceOnUse" x1="186.803" y1="157.762" x2="170.601" y2="110.87" >
      <stop stop-color="#dddddf" offset="0" stop-opacity="1" />
      <stop stop-color="#babcbc" offset="1" stop-opacity="0" />
    </linearGradient>
    <linearGradient id="defitem5" gradientUnits="userSpaceOnUse" x1="108.228" y1="23.984" x2="56.4481" y2="23.984" >
      <stop stop-color="#666666" offset="0" stop-opacity="1" />
      <stop stop-color="#666666" offset="1" stop-opacity="0" />
    </linearGradient>
    <linearGradient id="defitem6" gradientUnits="userSpaceOnUse" x1="101.923" y1="24.294" x2="56.4361" y2="24.294" >
      <stop stop-color="#ffffff" offset="0" stop-opacity="1" />
      <stop stop-color="#ffffff" offset="1" stop-opacity="0" />
    </linearGradient>
    <radialGradient id="defitem7" gradientUnits="userSpaceOnUse" cx="113.736" cy="24.203" fx="113.736" fy="24.203" r="5.81" >
      <stop stop-color="#000000" offset="0" stop-opacity="1" />
      <stop stop-color="#000000" offset="1" stop-opacity="0" />
    </radialGradient>
    <radialGradient id="defitem8" gradientUnits="userSpaceOnUse" cx="113.736" cy="22.778" fx="113.811" fy="21.099" r="7.82" >
      <stop stop-color="#ffffff" offset="0" stop-opacity="1" />
      <stop stop-color="#ffffff" offset="0.5" stop-opacity="0.608541" />
      <stop stop-color="#ffffff" offset="1" stop-opacity="0" />
    </radialGradient>
    <radialGradient id="defitem9" gradientUnits="userSpaceOnUse" cx="113.736" cy="22.457" fx="113.806" fy="20.876" r="7.362" >
      <stop stop-color="#ffffff" offset="0" stop-opacity="1" />
      <stop stop-color="#ffffff" offset="0.5" stop-opacity="0.608541" />
      <stop stop-color="#ffffff" offset="1" stop-opacity="0" />
    </radialGradient>
    <radialGradient id="defitem10" gradientUnits="userSpaceOnUse" cx="100.263" cy="24.203" fx="100.263" fy="24.203" r="5.81" >
      <stop stop-color="#000000" offset="0" stop-opacity="1" />
      <stop stop-color="#000000" offset="1" stop-opacity="0" />
    </radialGradient>
    <radialGradient id="defitem11" gradientUnits="userSpaceOnUse" cx="100.265" cy="24.243" fx="100.149" fy="26.833" r="5.111" >
      <stop stop-color="#e6e6e6" offset="0" stop-opacity="1" />
      <stop stop-color="#dbdbdb" offset="1" stop-opacity="1" />
    </radialGradient>
    <radialGradient id="defitem12" gradientUnits="userSpaceOnUse" cx="100.264" cy="22.778" fx="100.339" fy="21.099" r="7.82" >
      <stop stop-color="#ffffff" offset="0" stop-opacity="1" />
      <stop stop-color="#ffffff" offset="0.5" stop-opacity="0.608541" />
      <stop stop-color="#ffffff" offset="1" stop-opacity="0" />
    </radialGradient>
    <radialGradient id="defitem13" gradientUnits="userSpaceOnUse" cx="100.264" cy="22.457" fx="100.334" fy="20.876" r="7.362" >
      <stop stop-color="#ffffff" offset="0" stop-opacity="1" />
      <stop stop-color="#ffffff" offset="0.5" stop-opacity="0.608541" />
      <stop stop-color="#ffffff" offset="1" stop-opacity="0" />
    </radialGradient>
    <radialGradient id="defitem14" gradientUnits="userSpaceOnUse" cx="86.1345" cy="24.203" fx="86.1345" fy="24.203" r="5.8099" >
      <stop stop-color="#000000" offset="0" stop-opacity="1" />
      <stop stop-color="#000000" offset="1" stop-opacity="0" />
    </radialGradient>
    <radialGradient id="defitem15" gradientUnits="userSpaceOnUse" cx="86.1354" cy="24.243" fx="86.0192" fy="26.833" r="5.1116" >
      <stop stop-color="#e6e6e6" offset="0" stop-opacity="1" />
      <stop stop-color="#dbdbdb" offset="1" stop-opacity="1" />
    </radialGradient>
    <radialGradient id="defitem16" gradientUnits="userSpaceOnUse" cx="86.1348" cy="22.778" fx="86.2091" fy="21.099" r="7.8191" >
      <stop stop-color="#ffffff" offset="0" stop-opacity="1" />
      <stop stop-color="#ffffff" offset="0.5" stop-opacity="0.608541" />
      <stop stop-color="#ffffff" offset="1" stop-opacity="0" />
    </radialGradient>
    <radialGradient id="defitem17" gradientUnits="userSpaceOnUse" cx="86.1342" cy="22.457" fx="86.2042" fy="20.876" r="7.3624" >
      <stop stop-color="#ffffff" offset="0" stop-opacity="1" />
      <stop stop-color="#ffffff" offset="0.5" stop-opacity="0.608541" />
      <stop stop-color="#ffffff" offset="1" stop-opacity="0" />
    </radialGradient>
    <linearGradient id="defitem18" gradientUnits="userSpaceOnUse" x1="11.5467" y1="23.984" x2="38.0998" y2="23.984" >
      <stop stop-color="#666666" offset="0" stop-opacity="1" />
      <stop stop-color="#666666" offset="1" stop-opacity="0" />
    </linearGradient>
    <linearGradient id="defitem19" gradientUnits="userSpaceOnUse" x1="14.7799" y1="24.294" x2="38.106" y2="24.294" >
      <stop stop-color="#ffffff" offset="0" stop-opacity="1" />
      <stop stop-color="#ffffff" offset="1" stop-opacity="0" />
    </linearGradient>
    <radialGradient id="defitem20" gradientUnits="userSpaceOnUse" cx="11.6405" cy="24.203" fx="11.6405" fy="24.203" r="5.8099" >
      <stop stop-color="#000000" offset="0" stop-opacity="1" />
      <stop stop-color="#000000" offset="1" stop-opacity="0" />
    </radialGradient>
    <radialGradient id="defitem21" gradientUnits="userSpaceOnUse" cx="11.642" cy="24.243" fx="11.5258" fy="26.833" r="5.1116" >
      <stop stop-color="#e6e6e6" offset="0" stop-opacity="1" />
      <stop stop-color="#dbdbdb" offset="1" stop-opacity="1" />
    </radialGradient>
    <radialGradient id="defitem22" gradientUnits="userSpaceOnUse" cx="11.6416" cy="22.778" fx="11.7159" fy="21.099" r="7.8191" >
      <stop stop-color="#ffffff" offset="0" stop-opacity="1" />
      <stop stop-color="#ffffff" offset="0.5" stop-opacity="0.608541" />
      <stop stop-color="#ffffff" offset="1" stop-opacity="0" />
    </radialGradient>
    <radialGradient id="defitem23" gradientUnits="userSpaceOnUse" cx="11.6409" cy="22.457" fx="11.7109" fy="20.876" r="7.3624" >
      <stop stop-color="#ffffff" offset="0" stop-opacity="1" />
      <stop stop-color="#ffffff" offset="0.5" stop-opacity="0.608541" />
      <stop stop-color="#ffffff" offset="1" stop-opacity="0" />
    </radialGradient>
    <linearGradient id="defitem24" gradientUnits="userSpaceOnUse" x1="-0.185969" y1="76.2007" x2="27.3401" y2="45.1715" >
      <stop stop-color="#1f670d" offset="0" stop-opacity="1" />
      <stop stop-color="#26b511" offset="0.508346" stop-opacity="1" />
      <stop stop-color="#0e6908" offset="1" stop-opacity="1" />
    </linearGradient>
    <linearGradient id="defitem25" gradientUnits="userSpaceOnUse" x1="18.8478" y1="84.3182" x2="32.1301" y2="69.3455" >
      <stop stop-color="#1f670d" offset="0" stop-opacity="1" />
      <stop stop-color="#26b511" offset="0.508346" stop-opacity="1" />
      <stop stop-color="#0e6908" offset="1" stop-opacity="1" />
    </linearGradient>
    <linearGradient id="defitem26" gradientUnits="userSpaceOnUse" x1="52.7498" y1="76.2007" x2="80.2759" y2="45.1715" >
      <stop stop-color="#1f670d" offset="0" stop-opacity="1" />
      <stop stop-color="#26b511" offset="0.508346" stop-opacity="1" />
      <stop stop-color="#0e6908" offset="1" stop-opacity="1" />
    </linearGradient>
    <linearGradient id="defitem27" gradientUnits="userSpaceOnUse" x1="71.7836" y1="84.3182" x2="85.0659" y2="69.3455" >
      <stop stop-color="#1f670d" offset="0" stop-opacity="1" />
      <stop stop-color="#26b511" offset="0.508346" stop-opacity="1" />
      <stop stop-color="#0e6908" offset="1" stop-opacity="1" />
    </linearGradient>
  </defs>
  <g id="Layer">
    <g id="Layer">
      <g id="g3658">
        <g id="sombra">
          <path id="path1563" fill="url(#defitem0)" stroke-width="0" stroke-linecap="round" stroke-linejoin="round" d="M128 122.802C128 125.667 99.3468 127.99 64.0002 127.99C28.6539 127.99 0.000171 125.667 0.000171 122.802C0.000171 119.937 28.6539 117.614 64.0002 117.614C99.3468 117.614 128 119.937 128 122.802L128 122.802Z"  />
          <path id="path3251" fill="url(#defitem1)" stroke-width="0" stroke-linecap="round" stroke-linejoin="round" d="M128 122.802L0.00017 122.802C0.00017 125.673 28.6539 128 64.0002 128C99.3468 128 128 125.673 128 122.802L128 122.802Z"  />
          <path id="path2455" fill="url(#defitem2)" stroke-width="0" stroke-linecap="round" stroke-linejoin="round" d="M128 122.802L0.00017 122.802C0.00017 119.697 28.6539 117.18 64.0002 117.18C99.3468 117.18 128 119.697 128 122.802L128 122.802Z"  />
          <path id="path2440" fill="#ffffff" fill-opacity="0.5" stroke-width="0" stroke-linecap="round" stroke-linejoin="round" d="M64 117.184C29.7583 117.184 1.77662 119.526 0.0625 122.496C0.000125 122.59 0 122.714 0 122.809C0 122.988 0.094004 123.134 0.3125 123.309C0.425013 123.402 0.546842 123.499 0.71875 123.59C1.85178 124.191 4.27039 124.763 7.71875 125.278C9.68924 125.572 11.9852 125.833 14.5938 126.09C18.5066 126.474 23.1115 126.81 28.2188 127.09C33.326 127.37 38.9567 127.594 44.9688 127.746C50.9808 127.898 57.3726 127.996 64 127.996C70.6275 127.996 77.0192 127.898 83.0313 127.746C89.0433 127.594 94.6741 127.37 99.7813 127.09C104.888 126.81 109.462 126.474 113.375 126.09C115.984 125.833 118.311 125.572 120.281 125.278C123.73 124.763 126.117 124.191 127.25 123.59C127.422 123.499 127.544 123.402 127.656 123.309C127.766 123.222 127.851 123.147 127.906 123.059C127.962 122.97 128 122.898 128 122.809C128 122.714 127.969 122.59 127.906 122.496C126.192 119.526 98.242 117.184 64 117.184Z"  />
        </g>
      </g>
      <path id="path160" fill="none" stroke="#000000" stroke-width="4" stroke-linecap="round" stroke-linejoin="round" d="M6.38307 112.886C4.95906 112.886 3.80335 111.73 3.80335 110.306L3.80335 21.165C3.80335 19.741 4.95906 18.585 6.38307 18.585L119.772 18.585C121.196 18.585 122.351 19.741 122.351 21.165L122.351 110.306C122.351 111.73 121.196 112.886 119.772 112.886L6.38307 112.886Z"  />
      <g id="g2492">
        <path id="path163" fill="none" stroke="#000000" stroke-opacity="0.15" stroke-width="2.00111" stroke-linecap="round" stroke-linejoin="round" d="M4.86104 114.679C3.37563 114.679 2.17009 113.451 2.17009 111.937L2.17009 17.203C2.17009 15.69 3.37563 14.461 4.86104 14.461L123.139 14.461C124.624 14.461 125.83 15.69 125.83 17.203L125.83 111.937C125.83 113.451 124.624 114.679 123.139 114.679L4.86104 114.679Z"  />
        <path id="path165" fill="url(#defitem3)" stroke-width="2.07707" stroke-linecap="round" stroke-linejoin="round" d="M4.38033 114.85C3.20203 114.85 2.24573 113.831 2.24573 112.576L2.24573 16.854C2.24573 15.599 3.20203 14.581 4.38033 14.581L123.605 14.581C124.784 14.581 125.74 15.599 125.74 16.854L125.74 112.576C125.74 113.831 124.784 114.85 123.605 114.85L4.38033 114.85Z"  />
        <path id="path167" fill="url(#defitem4)" stroke-width="0.906947" stroke-linecap="round" stroke-linejoin="round" d="M4.86104 114.823C3.37563 114.823 2.17009 113.595 2.17009 112.082L2.17009 17.347C2.17009 15.834 3.37563 14.606 4.86104 14.606L123.139 14.606C124.624 14.606 125.83 15.834 125.83 17.347L125.83 112.082C125.83 113.595 124.624 114.823 123.139 114.823L4.86104 114.823Z"  />
        <path id="path169" fill="#ffffff" stroke-width="0.704926" stroke-linecap="round" stroke-linejoin="round" d="M11.7597 108.909C9.33412 108.909 7.36548 106.845 7.36548 104.303L7.36548 41.4924C7.36548 38.9495 9.33412 36.8857 11.7597 36.8857L114.952 36.8857C117.377 36.8857 119.346 38.9495 119.346 41.4924L119.346 104.303C119.346 106.845 117.377 108.909 114.952 108.909L11.7597 108.909Z"  />
      </g>
      <path id="path192" fill="#111414" stroke-width="3.727" stroke-linecap="round" stroke-linejoin="round" d="M91.2398 42.7451C91.5206 42.7451 91.7484 42.7778 91.7484 42.8181L91.7484 56.6721C91.7484 56.7124 91.5206 56.7451 91.2398 56.7451L88.4564 56.7451C88.1757 56.7451 87.9478 56.7124 87.9478 56.6721L87.9478 42.8181C87.9478 42.7778 88.1757 42.7451 88.4564 42.7451L91.2398 42.7451Z"  />
      <path id="path194" fill="#111414" stroke-width="3.727" stroke-linecap="round" stroke-linejoin="round" d="M91.7484 42.4477C91.7484 42.1669 91.5555 41.9391 91.3178 41.9391L7.82757 41.9391C7.58988 41.9391 7.39698 42.1669 7.39698 42.4477L7.39698 45.2311C7.39698 45.5118 7.58988 45.7397 7.82757 45.7397L91.3178 45.7397C91.5555 45.7397 91.7484 45.5118 91.7484 45.2311L91.7484 42.4477Z"  />
      <path id="path196" fill="#111414" stroke-width="3.727" stroke-linecap="round" stroke-linejoin="round" d="M38.3203 42.8513C38.601 42.8513 38.8289 42.884 38.8289 42.9243L38.8289 56.7784C38.8289 56.8186 38.601 56.8513 38.3203 56.8513L35.5369 56.8513C35.2561 56.8513 35.0283 56.8186 35.0283 56.7784L35.0283 42.9243C35.0283 42.884 35.2561 42.8513 35.5369 42.8513L38.3203 42.8513Z"  />
      <g id="g160">
        <g id="botons">
          <path id="path2958" fill="url(#defitem5)" d="M56.4478 23.829L56.4478 24.139L125.722 24.139L125.722 23.829L56.4478 23.829Z"  fill-rule="evenodd" />
          <path id="path2960" fill="url(#defitem6)" d="M56.4478 24.139L56.4478 24.448L125.722 24.448L125.722 24.139L56.4478 24.139Z"  fill-rule="evenodd" />
          <path id="path2962" fill="url(#defitem7)" stroke-width="4.42661" d="M119.546 24.203C119.546 27.454 116.945 30.0899 113.736 30.0899C110.528 30.0899 107.927 27.454 107.927 24.203C107.927 20.951 110.528 18.316 113.736 18.316C116.945 18.316 119.546 20.951 119.546 24.203Z"  />
          <path id="path2964" fill="#bf0000" stroke-width="3.89462" d="M118.849 24.243C118.849 27.104 116.56 29.423 113.737 29.423C110.914 29.423 108.625 27.104 108.625 24.243C108.625 21.383 110.914 19.064 113.737 19.064C116.56 19.064 118.849 21.383 118.849 24.243Z"  />
          <path id="path2966" fill="url(#defitem8)" stroke-width="2.9195" d="M117.838 22.778C117.838 24.699 116.001 26.257 113.736 26.257C111.471 26.257 109.635 24.699 109.635 22.778C109.635 20.857 111.471 19.299 113.736 19.299C116.001 19.299 117.838 20.857 117.838 22.778Z"  />
          <path id="path2968" fill="url(#defitem9)" stroke-width="2.74901" d="M117.598 22.458C117.598 24.267 115.869 25.733 113.736 25.733C111.603 25.733 109.874 24.267 109.874 22.458C109.874 20.648 111.603 19.182 113.736 19.182C115.869 19.182 117.598 20.648 117.598 22.458Z"  />
          <path id="path2972" fill="url(#defitem10)" stroke-width="4.42661" d="M106.073 24.203C106.073 27.454 103.472 30.0899 100.263 30.0899C97.0548 30.0899 94.4536 27.454 94.4536 24.203C94.4536 20.951 97.0548 18.316 100.263 18.316C103.472 18.316 106.073 20.951 106.073 24.203Z"  />
          <path id="path2974" fill="url(#defitem11)" stroke-width="3.89462" d="M105.376 24.243C105.376 27.104 103.088 29.423 100.265 29.423C97.4416 29.423 95.153 27.104 95.153 24.243C95.153 21.383 97.4416 19.064 100.265 19.064C103.088 19.064 105.376 21.383 105.376 24.243Z"  />
          <path id="path2976" fill="url(#defitem12)" stroke-width="2.9195" d="M104.366 22.778C104.366 24.699 102.529 26.257 100.264 26.257C97.999 26.257 96.1627 24.699 96.1627 22.778C96.1627 20.857 97.999 19.299 100.264 19.299C102.529 19.299 104.366 20.857 104.366 22.778Z"  />
          <path id="path2978" fill="url(#defitem13)" stroke-width="2.74901" d="M104.126 22.458C104.126 24.267 102.396 25.733 100.264 25.733C98.1307 25.733 96.4016 24.267 96.4016 22.458C96.4016 20.648 98.1307 19.182 100.264 19.182C102.396 19.182 104.126 20.648 104.126 22.458Z"  />
          <path id="path2980" fill="url(#defitem14)" stroke-width="4.42661" d="M91.9444 24.203C91.9444 27.454 89.3432 30.0899 86.1345 30.0899C82.9258 30.0899 80.3246 27.454 80.3246 24.203C80.3246 20.951 82.9258 18.316 86.1345 18.316C89.3432 18.316 91.9444 20.951 91.9444 24.203Z"  />
          <path id="path2982" fill="url(#defitem15)" stroke-width="3.89462" d="M91.2471 24.243C91.2471 27.104 88.9585 29.423 86.1354 29.423C83.3123 29.423 81.0237 27.104 81.0237 24.243C81.0237 21.383 83.3123 19.064 86.1354 19.064C88.9585 19.064 91.2471 21.383 91.2471 24.243Z"  />
          <path id="path2984" fill="url(#defitem16)" stroke-width="2.9195" d="M90.2362 22.778C90.2362 24.699 88.3999 26.257 86.1347 26.257C83.8695 26.257 82.0332 24.699 82.0332 22.778C82.0332 20.857 83.8695 19.299 86.1347 19.299C88.3999 19.299 90.2362 20.857 90.2362 22.778Z"  />
          <path id="path2986" fill="url(#defitem17)" stroke-width="2.74901" d="M89.9961 22.458C89.9961 24.267 88.267 25.733 86.1342 25.733C84.0013 25.733 82.2722 24.267 82.2722 22.458C82.2722 20.648 84.0013 19.182 86.1342 19.182C88.267 19.182 89.9961 20.648 89.9961 22.458Z"  />
          <path id="path2397" fill="url(#defitem18)" d="M38.0996 23.829L38.0996 24.139L2.5751 24.139L2.5751 23.829L38.0996 23.829Z"  fill-rule="evenodd" />
          <path id="path2399" fill="url(#defitem19)" d="M38.0996 24.139L38.0996 24.448L2.5751 24.448L2.5751 24.139L38.0996 24.139Z"  fill-rule="evenodd" />
          <path id="path2409" fill="url(#defitem20)" stroke-width="4.42661" d="M17.4504 24.203C17.4504 27.454 14.8492 30.0899 11.6405 30.0899C8.4318 30.0899 5.83059 27.454 5.83059 24.203C5.83059 20.951 8.4318 18.316 11.6405 18.316C14.8492 18.316 17.4504 20.951 17.4504 24.203Z"  />
          <path id="path2411" fill="url(#defitem21)" stroke-width="3.89462" d="M16.7537 24.243C16.7537 27.104 14.4651 29.423 11.642 29.423C8.81893 29.423 6.53034 27.104 6.53034 24.243C6.53034 21.383 8.81893 19.064 11.642 19.064C14.4651 19.064 16.7537 21.383 16.7537 24.243Z"  />
          <path id="path2413" fill="url(#defitem22)" stroke-width="2.9195" d="M15.743 22.778C15.743 24.699 13.9067 26.257 11.6415 26.257C9.37633 26.257 7.54 24.699 7.54 22.778C7.54 20.857 9.37633 19.299 11.6415 19.299C13.9067 19.299 15.743 20.857 15.743 22.778Z"  />
          <path id="path2415" fill="url(#defitem23)" stroke-width="2.74901" d="M15.5028 22.458C15.5028 24.267 13.7737 25.733 11.6409 25.733C9.50801 25.733 7.77894 24.267 7.77894 22.458C7.77894 20.648 9.50801 19.182 11.6409 19.182C13.7737 19.182 15.5028 20.648 15.5028 22.458Z"  />
        </g>
      </g>
    </g>
    <g id="g2868">
      <g id="g2714">
        <g id="monedes">
          <g id="g11760">
            <g id="g10643">
              <path id="path10630" fill="#ffffff" stroke-width="0.208956" d="M56.0942 87.0035C56.021 88.4703 56.6458 90.2173 55.5191 91.4289C53.9666 93.4309 51.4507 94.2613 49.1371 95.0277C43.4503 96.7342 37.41 96.9149 31.5358 96.3286C28.7463 95.9593 25.9512 95.3927 23.3328 94.3436C21.6245 93.5977 19.7691 92.6727 18.8855 90.9389C18.3473 89.5608 18.8227 88.0716 18.9346 86.6622C19.5841 84.712 21.5824 83.6958 23.3297 82.8909C27.5384 81.1891 32.1157 80.5607 36.6308 80.4378C41.6439 80.4121 46.77 80.8187 51.466 82.7029C53.1835 83.418 55.0437 84.3887 55.878 86.1485C55.9915 86.4208 56.0654 86.7098 56.0942 87.0035Z"  />
              <path id="path10632" fill="#000000" stroke-width="0.0057343" d="M55.5564 86.5401C55.5691 88.0285 56.0333 89.7928 54.8943 91.0052C52.4101 93.5611 48.7958 94.4218 45.4241 95.1102C38.8435 96.2775 31.9638 96.0956 25.5385 94.1873C23.4163 93.4897 21.1658 92.5338 19.8417 90.6479C19.1429 89.2529 19.4587 87.6038 19.7809 86.1497C20.2614 84.4793 21.9074 83.6264 23.3256 82.8573C26.1824 81.5021 29.3387 80.9317 32.4509 80.5159C38.4206 79.8193 44.5803 80.2011 50.3119 82.0757C52.2215 82.7629 54.2385 83.7362 55.3014 85.5502C55.4466 85.8605 55.5404 86.1971 55.5564 86.5401Z"  />
              <path id="path10633" fill="#ffffff" stroke-width="0.208956" d="M37.6194 80.4123C41.9025 80.3781 46.2479 80.9084 50.2791 82.4049C51.8264 83.0471 53.4498 83.8816 54.3502 85.3555C54.8917 86.396 54.6023 87.6724 53.7956 88.4867C52.7869 89.6376 51.3376 90.2699 49.975 90.8945C45.9868 92.3694 41.6995 92.8595 37.4682 92.9013C33.1836 92.8933 28.8319 92.4126 24.8175 90.843C23.2998 90.2103 21.7088 89.3891 20.8366 87.9341C20.2641 86.971 20.4812 85.7264 21.2545 84.9388C22.5834 83.4233 24.5183 82.6562 26.3722 81.9956C30.0132 80.8805 33.8216 80.4517 37.6194 80.4123Z"  />
            </g>
            <g id="g10647">
              <path id="path10648" fill="#ffffff" stroke-width="0.208956" d="M59.8313 83.5868C59.7577 85.0537 60.3825 86.8006 59.2558 88.0123C57.7034 90.0142 55.1878 90.8446 52.8739 91.611C47.1873 93.3175 41.1469 93.4984 35.2728 92.912C32.4832 92.5427 29.6881 91.976 27.0697 90.927C25.3614 90.181 23.5061 89.256 22.6224 87.5223C22.0842 86.1442 22.5596 84.655 22.6715 83.2455C23.321 81.2953 25.3194 80.2791 27.0667 79.4743C31.2754 77.7724 35.8527 77.144 40.3678 77.0212C45.3809 76.9955 50.507 77.4021 55.2028 79.2862C56.9206 80.0014 58.7808 80.9721 59.6147 82.7318C59.7286 83.0042 59.8026 83.2931 59.8313 83.5868Z"  />
              <path id="path10649" fill="#000000" stroke-width="0.0057343" d="M59.2932 83.1235C59.3062 84.6118 59.7704 86.3762 58.631 87.5886C56.1469 90.1445 52.5326 91.0052 49.161 91.6936C42.5804 92.8608 35.7008 92.679 29.2754 90.7707C27.1533 90.0731 24.9027 89.1171 23.5787 87.2312C22.8799 85.8362 23.1956 84.1871 23.5178 82.733C23.9983 81.0627 25.6443 80.2097 27.0625 79.4406C29.9192 78.0854 33.0756 77.515 36.1879 77.0993C42.1575 76.4026 48.3172 76.7845 54.0488 78.6591C55.9586 79.3463 57.9756 80.3195 59.0385 82.1335C59.1834 82.4438 59.2771 82.7804 59.2932 83.1235Z"  />
              <path id="path10650" fill="#ffffff" stroke-width="0.208956" d="M41.3563 76.9957C45.6394 76.9615 49.9848 77.4917 54.0159 78.9883C55.5635 79.6305 57.1865 80.465 58.0869 81.9389C58.6284 82.9794 58.3394 84.2558 57.5324 85.0701C56.524 86.2209 55.0743 86.8532 53.712 87.4778C49.7237 88.9527 45.4365 89.4429 41.2052 89.4847C36.9205 89.4767 32.5689 88.996 28.5545 87.4263C27.0368 86.7936 25.4457 85.9724 24.5735 84.5174C24.001 83.5543 24.2181 82.3098 24.9914 81.5221C26.3203 80.0067 28.2552 79.2396 30.1092 78.5789C33.7501 77.4639 37.5585 77.035 41.3563 76.9957Z"  />
            </g>
            <g id="g10651">
              <path id="path10652" fill="#ffffff" stroke-width="0.208956" d="M55.3469 80.1702C55.2737 81.637 55.8985 83.384 54.7714 84.5956C53.219 86.5976 50.7034 87.4281 48.3897 88.1944C42.7029 89.9009 36.6626 90.0818 30.7884 89.4953C27.9989 89.126 25.2038 88.5594 22.5853 87.5103C20.8771 86.7645 19.0217 85.8394 18.1381 84.1057C17.5999 82.7276 18.0753 81.2383 18.1872 79.8289C18.8366 77.8787 20.835 76.8625 22.5823 76.0576C26.7911 74.3558 31.3683 73.7274 35.8835 73.6046C40.8965 73.5788 46.0226 73.9854 50.7184 75.8697C52.4362 76.5847 54.2964 77.5555 55.1307 79.3152C55.2442 79.5875 55.3182 79.8765 55.3469 80.1702Z"  />
              <path id="path10653" fill="#000000" stroke-width="0.0057343" d="M54.8088 79.7069C54.8218 81.1952 55.286 82.9595 54.1466 84.1719C51.6625 86.7278 48.0484 87.5885 44.6767 88.277C38.096 89.4442 31.2164 89.2624 24.7911 87.354C22.6689 86.6564 20.4184 85.7005 19.0943 83.8147C18.3955 82.4196 18.7113 80.7705 19.0335 79.3165C19.514 77.646 21.16 76.7931 22.5782 76.024C25.435 74.6688 28.5913 74.0984 31.7035 73.6827C37.6731 72.986 43.833 73.3678 49.5646 75.2424C51.4742 75.9296 53.4912 76.903 54.5541 78.717C54.699 79.0272 54.7927 79.3638 54.8088 79.7069Z"  />
              <path id="path10654" fill="#ffffff" stroke-width="0.208956" d="M36.872 73.5791C41.1552 73.5449 45.5004 74.0751 49.5317 75.5716C51.0791 76.2138 52.7021 77.0484 53.6025 78.5222C54.1444 79.5627 53.855 80.8391 53.0483 81.6535C52.0396 82.8044 50.5903 83.4366 49.2276 84.0613C45.2393 85.5361 40.9522 86.0262 36.7208 86.068C32.4362 86.0601 28.0845 85.5794 24.0701 84.0097C22.5524 83.3771 20.9614 82.5558 20.0892 81.1008C19.5167 80.1377 19.7338 78.8931 20.5071 78.1055C21.836 76.59 23.7709 75.8229 25.6248 75.1623C29.2658 74.0472 33.0742 73.6184 36.872 73.5791Z"  />
            </g>
            <g id="g10655">
              <path id="path10656" fill="#ffffff" stroke-width="0.208956" d="M58.8704 75.7927C58.7969 77.2595 59.4216 79.0064 58.2949 80.2181C56.7425 82.2201 54.2269 83.0505 51.913 83.8168C46.2264 85.5234 40.186 85.7042 34.3118 85.1177C31.5223 84.7484 28.7272 84.1818 26.1088 83.1327C24.4005 82.3869 22.5451 81.4618 21.6615 79.7281C21.1233 78.35 21.5987 76.8608 21.7106 75.4514C22.3601 73.5012 24.3585 72.485 26.1057 71.6801C30.3145 69.9783 34.8918 69.3498 39.4069 69.227C44.42 69.2013 49.546 69.6079 54.2419 71.4921C55.9598 72.2072 57.8199 73.1779 58.6538 74.9376C58.7677 75.21 58.8413 75.499 58.8704 75.7927Z"  />
              <path id="path10657" fill="#000000" stroke-width="0.0057343" d="M58.3323 75.3293C58.3454 76.8177 58.8096 78.582 57.6702 79.7944C55.186 82.3503 51.5717 83.211 48.2001 83.8994C41.6195 85.0667 34.7399 84.8849 28.3145 82.9765C26.1923 82.2789 23.9418 81.3229 22.6177 79.437C21.9189 78.042 22.2347 76.393 22.5568 74.9389C23.0374 73.2685 24.6834 72.4156 26.1016 71.6464C28.9583 70.2913 32.1146 69.7208 35.2269 69.3051C41.1966 68.6085 47.3563 68.9902 53.0879 70.8649C54.9977 71.5521 57.0148 72.5254 58.0776 74.3394C58.2225 74.6497 58.3162 74.9863 58.3323 75.3293Z"  />
              <path id="path10658" fill="#ffffff" stroke-width="0.208956" d="M40.3955 69.2015C44.6785 69.1673 49.0239 69.6976 53.0551 71.1941C54.6026 71.8362 56.2256 72.6708 57.126 74.1447C57.6675 75.1852 57.3781 76.4616 56.5715 77.2759C55.5631 78.4268 54.1134 79.0591 52.7511 79.6837C48.7627 81.1586 44.4756 81.6487 40.2442 81.6904C35.9596 81.6825 31.6079 81.2018 27.5935 79.6322C26.0758 78.9995 24.4847 78.1783 23.6126 76.7233C23.0401 75.7602 23.2572 74.5156 24.0305 73.728C25.3594 72.2125 27.2943 71.4454 29.1482 70.7848C32.7892 69.6697 36.5976 69.2409 40.3955 69.2015Z"  />
            </g>
            <g id="g10659">
              <path id="path10660" fill="#ffffff" stroke-width="0.208956" d="M54.386 72.1625C54.3125 73.6293 54.9376 75.3763 53.8109 76.5879C52.2581 78.5899 49.7426 79.4203 47.4289 80.1867C41.7421 81.8932 35.7017 82.0741 29.8275 81.4876C27.038 81.1183 24.243 80.5517 21.6244 79.5026C19.9162 78.7568 18.0608 77.8316 17.1772 76.098C16.6391 74.7198 17.1144 73.2307 17.2263 71.8212C17.8757 69.871 19.8741 68.8546 21.6214 68.0498C25.8301 66.348 30.4074 65.7199 34.9225 65.597C39.9356 65.5712 45.0617 65.9779 49.7576 67.862C51.4754 68.5771 53.3355 69.5478 54.1698 71.3074C54.2833 71.5798 54.3573 71.8688 54.386 72.1625Z"  />
              <path id="path10661" fill="#000000" stroke-width="0.0057343" d="M53.8479 71.6991C53.861 73.1875 54.3252 74.9518 53.1858 76.1643C50.7016 78.7202 47.0875 79.5808 43.7158 80.2693C37.1352 81.4365 30.2555 81.2547 23.8302 79.3464C21.708 78.6487 19.4575 77.6928 18.1334 75.8069C17.4346 74.4119 17.7504 72.7628 18.0726 71.3087C18.5531 69.6384 20.1991 68.7855 21.6173 68.0162C24.4741 66.661 27.6304 66.0907 30.7426 65.6751C36.7123 64.9782 42.872 65.3602 48.6037 67.2346C50.5133 67.9221 52.5304 68.8953 53.5932 70.7092C53.7381 71.0195 53.8318 71.3561 53.8479 71.6991Z"  />
              <path id="path10662" fill="#ffffff" stroke-width="0.208956" d="M35.9111 65.5712C40.1942 65.5372 44.5395 66.0675 48.5708 67.564C50.1182 68.2059 51.7416 69.0407 52.6416 70.5145C53.1831 71.5551 52.8941 72.8314 52.0874 73.6458C51.0788 74.7966 49.6292 75.4289 48.2667 76.0535C44.2784 77.5284 39.9913 78.0186 35.7599 78.0603C31.4753 78.0524 27.1236 77.5717 23.1092 76.002C21.5915 75.3693 20.0005 74.5481 19.1283 73.0931C18.5558 72.13 18.7729 70.8855 19.5462 70.0978C20.8751 68.5824 22.81 67.8153 24.6639 67.1547C28.3049 66.0395 32.1133 65.6108 35.9111 65.5712Z"  />
            </g>
            <g id="g10663">
              <path id="path10664" fill="#ffffff" stroke-width="0.208956" d="M51.2898 69.3864C51.2162 70.8533 51.841 72.6002 50.7143 73.8119C49.1618 75.8139 46.6462 76.6443 44.3325 77.4107C38.6457 79.1171 32.6054 79.298 26.7312 78.7116C23.9417 78.3423 21.1465 77.7757 18.5281 76.7266C16.8199 75.9808 14.9645 75.0556 14.0808 73.3219C13.5427 71.9438 14.018 70.4546 14.1299 69.0451C14.7794 67.0949 16.7778 66.0788 18.5251 65.274C22.7338 63.5722 27.3111 62.9436 31.8262 62.8208C36.8393 62.795 41.9653 63.2017 46.6612 65.0857C48.379 65.8009 50.2391 66.7719 51.0735 68.5316C51.1871 68.8038 51.2606 69.0928 51.2898 69.3864Z"  />
              <path id="path10665" fill="#000000" stroke-width="0.0057343" d="M50.7516 68.923C50.7647 70.4115 51.2289 72.1758 50.0896 73.3882C47.6053 75.9441 43.9911 76.8048 40.6194 77.4932C34.0388 78.6605 27.1592 78.4787 20.7338 76.5703C18.6117 75.8727 16.3611 74.9168 15.0371 73.0309C14.3383 71.6358 14.6541 69.9868 14.9762 68.5327C15.4568 66.8622 17.1028 66.0093 18.5209 65.2404C21.3777 63.8851 24.534 63.3145 27.6463 62.8988C33.6159 62.2023 39.7757 62.584 45.5073 64.4587C47.4169 65.1459 49.434 66.1191 50.4969 67.9333C50.6418 68.2433 50.7356 68.5801 50.7516 68.923Z"  />
              <path id="path10666" fill="#ffffff" stroke-width="0.208956" d="M32.8148 62.7954C37.0979 62.761 41.4432 63.2913 45.4744 64.7877C47.0218 65.4301 48.6451 66.2647 49.5454 67.7384C50.087 68.7792 49.7976 70.0554 48.9909 70.8697C47.9824 72.0205 46.5329 72.6529 45.1703 73.2775C41.1821 74.7523 36.8949 75.2425 32.6636 75.2843C28.3789 75.2764 24.0273 74.7956 20.0129 73.226C18.4952 72.5932 16.9041 71.7721 16.0319 70.3171C15.4594 69.354 15.6766 68.1096 16.4499 67.3216C17.7788 65.8061 19.7136 65.0391 21.5676 64.3784C25.2085 63.2637 29.017 62.8346 32.8148 62.7954Z"  />
            </g>
            <path id="path10672" fill="#ffffff" stroke-width="0.263462" d="M56.6282 66.1833C56.555 67.6502 57.1794 69.3971 56.0527 70.6088C54.5003 72.6108 51.9847 73.4412 49.671 74.2075C43.9842 75.9141 37.9439 76.0949 32.0696 75.5085C29.2801 75.1391 26.4851 74.5725 23.8666 73.5235C22.1583 72.7776 20.303 71.8525 19.4194 70.1188C18.8812 68.7407 19.3566 67.2514 19.4684 65.842C20.1179 63.8918 22.1164 62.8757 23.8635 62.0709C28.0724 60.3691 32.6496 59.7405 37.1647 59.6177C42.1778 59.5919 47.3038 59.9986 51.9997 61.8827C53.7176 62.5978 55.5777 63.5688 56.412 65.3285C56.5255 65.6007 56.5991 65.8898 56.6282 66.1833Z"  />
            <path id="path10674" fill="#000000" stroke-width="0.263462" d="M56.4105 65.1862C56.4232 66.6744 56.8874 68.439 55.7484 69.6512C53.2642 72.2072 49.6499 73.0678 46.2782 73.7563C39.6976 74.9235 32.818 74.7418 26.3926 72.8334C24.2705 72.1357 22.0199 71.1798 20.6959 69.2939C19.9971 67.8989 20.3128 66.2498 20.635 64.7956C21.1155 63.1255 22.7615 62.2725 24.1797 61.5032C27.0365 60.148 30.1928 59.5777 33.305 59.1621C39.2747 58.4652 45.4345 58.8473 51.1661 60.7216C53.0756 61.4091 55.0926 62.3823 56.1558 64.1962C56.3007 64.5065 56.3944 64.843 56.4105 65.1862Z"  />
            <path id="path10675" fill="#ffffff" stroke-width="0.263462" d="M38.4735 59.1651C42.7567 59.1311 47.102 59.661 51.1333 61.1578C52.6805 61.7998 54.3039 62.6344 55.2043 64.1084C55.7458 65.1489 55.4563 66.4253 54.6497 67.2394C53.6414 68.3904 52.1916 69.0227 50.8289 69.6473C46.8409 71.1222 42.5538 71.6124 38.3224 71.6541C34.0377 71.6461 29.686 71.1655 25.6717 69.5958C24.1539 68.9629 22.5629 68.1421 21.6908 66.6867C21.1183 65.724 21.3354 64.4793 22.1087 63.6917C23.4376 62.1762 25.3724 61.4091 27.2264 60.7485C30.8673 59.6334 34.6758 59.2046 38.4735 59.1651Z"  />
          </g>
          <g id="g11823">
            <path id="path10676" fill="url(#defitem24)" stroke="#000000" stroke-width="0.263462" stroke-linecap="round" stroke-linejoin="round" d="M46.9729 68.6507C46.0889 68.9226 45.1785 69.0977 44.255 69.1549C43.256 69.2462 42.2581 69.3552 41.2536 69.3455C39.752 69.391 38.2526 69.2511 36.7555 69.1538C35.158 69.035 33.5563 68.7609 32.0755 68.1286C31.6425 67.952 31.1883 67.8194 30.8189 67.5203C30.3274 67.1468 29.9027 66.6875 29.5693 66.1676C28.8335 66.1676 28.0976 66.1676 27.3617 66.1676C27.648 65.9753 27.9048 65.712 28.1936 65.5425C28.6044 65.5425 29.0152 65.5425 29.426 65.5425C29.4313 65.2516 29.3843 64.9401 29.535 64.682C29.4671 64.5297 29.1228 64.654 28.9429 64.6137C28.2763 64.6137 27.6097 64.6137 26.943 64.6137C27.2142 64.3945 27.4807 64.17 27.7401 63.937C28.4091 63.937 29.0781 63.937 29.7471 63.937C30.0243 63.5412 30.3466 63.1763 30.7604 62.9201C31.2497 62.5119 31.8154 62.2165 32.4151 62.0066C33.2386 61.6888 34.1127 61.526 34.9652 61.3046C35.8866 61.1216 36.8256 61.0428 37.7606 60.9677C38.7606 60.9371 39.76 60.8579 40.7598 60.8471C41.962 60.8837 43.1682 60.896 44.365 61.0185C45.0344 61.1223 45.7167 61.1619 46.3776 61.3075C46.5856 61.3651 46.8953 61.3707 46.6859 61.6418C46.571 61.78 46.6485 62.1829 46.3998 62.0839C44.9392 61.8068 43.4469 61.7471 41.9641 61.8136C40.6691 61.8438 39.3682 61.9693 38.1172 62.3177C37.5073 62.4716 36.9464 62.7715 36.3934 63.0628C36.0744 63.257 35.8221 63.5273 35.5992 63.8216C35.3362 64.0311 36.1141 63.9725 35.9804 63.937C37.6062 63.9307 39.2325 63.9583 40.8574 63.9027C41.8102 63.9027 42.763 63.9027 43.7158 63.9027C43.4576 64.1054 43.2113 64.3217 42.9761 64.5506C40.3861 64.5506 37.7962 64.5506 35.2061 64.5506C35.1137 64.8411 35.0284 65.1713 35.1087 65.4745C35.2621 65.5395 35.5358 65.4838 35.7356 65.5025C37.7209 65.5025 39.7063 65.5025 41.6916 65.5025C41.4096 65.6986 41.1497 65.9555 40.8597 66.1217C39.4717 66.0982 38.0855 66.1923 36.6974 66.1676C36.2003 66.1676 35.7033 66.1676 35.2061 66.1676C35.6593 66.72 36.233 67.1715 36.8966 67.4415C37.9444 67.8433 39.0616 68.0304 40.1673 68.1929C41.6439 68.3135 43.1273 68.3314 44.6062 68.241C45.3272 68.2205 46.0402 68.0883 46.732 67.8877C46.8326 68.1365 46.9143 68.3885 46.9729 68.6507Z"  />
            <path id="path11815" fill="none" stroke="#ffffff" stroke-width="0.263462" stroke-linecap="round" stroke-linejoin="round" d="M46.825 68.79C45.941 69.0624 45.0306 69.2373 44.1071 69.2946C43.1081 69.3858 42.1102 69.4948 41.1057 69.4851C39.6041 69.5306 38.1047 69.3907 36.6075 69.2935C35.0101 69.1746 33.4083 68.9005 31.9276 68.2683C31.4947 68.0913 31.0403 67.9591 30.6709 67.6599C30.1795 67.2865 29.7548 66.8271 29.4214 66.3073C28.6855 66.3073 27.9497 66.3073 27.2137 66.3073C27.5001 66.1146 27.7569 65.8517 28.0456 65.6821C28.4565 65.6821 28.8673 65.6821 29.2781 65.6821C29.2834 65.3912 29.2363 65.0798 29.3871 64.8217C29.3191 64.6693 28.9748 64.7937 28.795 64.7534C28.1283 64.7534 27.4617 64.7534 26.7952 64.7534C27.0663 64.5342 27.3328 64.3097 27.5922 64.0767C28.2613 64.0767 28.9302 64.0767 29.5992 64.0767C29.8764 63.6808 30.1986 63.316 30.6124 63.0598C31.1018 62.6516 31.6675 62.3562 32.2673 62.1463C33.0907 61.8285 33.9647 61.6657 34.8173 61.4442C35.7387 61.2612 36.6777 61.1824 37.6127 61.1074C38.6127 61.0768 39.6121 60.9976 40.6119 60.9868C41.8141 61.0233 43.0203 61.0357 44.217 61.1582C44.8865 61.262 45.5688 61.3016 46.2297 61.4472C46.4377 61.5047 46.7474 61.5103 46.5379 61.7815C46.4231 61.9193 46.5005 62.3226 46.2519 62.2236C44.7913 61.9465 43.299 61.8868 41.8162 61.9532C40.5212 61.9831 39.2203 62.109 37.9693 62.4574C37.3595 62.6113 36.7985 62.9108 36.2455 63.2021C35.9265 63.3966 35.6741 63.667 35.4513 63.9613C35.1883 64.1708 35.9662 64.1122 35.8325 64.0767C37.4583 64.0703 39.0846 64.098 40.7094 64.0423C41.6622 64.0423 42.6151 64.0423 43.5679 64.0423C43.3097 64.2447 43.0634 64.4613 42.8282 64.6903C40.2382 64.6903 37.6482 64.6903 35.0582 64.6903C34.9657 64.9808 34.8805 65.3109 34.9608 65.6142C35.1142 65.6792 35.3879 65.6235 35.5877 65.6422C37.573 65.6422 39.5584 65.6422 41.5437 65.6422C41.2617 65.8382 41.0018 66.0952 40.7118 66.2614C39.3238 66.2378 37.9376 66.3319 36.5495 66.3073C36.0524 66.3073 35.5553 66.3073 35.0582 66.3073C35.5114 66.8596 36.0851 67.3111 36.7487 67.5811C37.7965 67.9826 38.9137 68.1701 40.0194 68.3325C41.496 68.4531 42.9794 68.4711 44.4583 68.3807C45.1793 68.3602 45.8923 68.228 46.5841 68.0274C46.6847 68.2761 46.7664 68.5282 46.825 68.79Z"  />
          </g>
        </g>
      </g>
      <g id="g2601">
        <path id="up" fill="url(#defitem25)" stroke="#a7a7a7" stroke-opacity="0.85" stroke-width="0.518618" stroke-linecap="round" stroke-linejoin="round" d="M36.9866 73.574C36.4927 73.574 35.9955 73.7592 35.6171 74.1376L24.0082 85.7518C23.2514 86.5086 23.2514 87.7286 24.0082 88.4854L30.5711 88.4854C30.5478 88.6057 30.4974 88.7163 30.4974 88.8436L30.4974 92.8941C30.4974 93.9644 31.3601 94.8271 32.4304 94.8271L41.5374 94.8271C42.6078 94.8271 43.4704 93.9644 43.4704 92.8941L43.4704 88.8436C43.4704 88.7163 43.42 88.6057 43.3967 88.4854L49.9649 88.4854C50.7217 87.7286 50.7217 86.5086 49.9649 85.7518L38.3507 74.1376C37.9723 73.7592 37.4804 73.574 36.9866 73.574ZM32.4318 94.8182L41.5413 94.8182C42.6116 94.8182 43.4733 95.6799 43.4733 96.7502L43.4733 99.6979C43.4733 100.768 42.6116 101.63 41.5413 101.63L32.4318 101.63C31.3615 101.63 30.4998 100.768 30.4998 99.6979L30.4998 96.7502C30.4998 95.6799 31.3615 94.8182 32.4318 94.8182ZM32.4318 101.623L41.5413 101.623C42.6116 101.623 43.4733 102.354 43.4733 103.263C43.4733 104.172 42.6116 104.903 41.5413 104.903L32.4318 104.903C31.3615 104.903 30.4998 104.172 30.4998 103.263C30.4998 102.354 31.3615 101.623 32.4318 101.623Z"  />
      </g>
    </g>
    <g id="g2909">
      <g id="g2911">
        <g id="g2913">
          <g id="g2915">
            <g id="g2917">
              <path id="path2919" fill="#ffffff" stroke-width="0.208956" d="M109.03 87.0035C108.957 88.4703 109.582 90.2173 108.455 91.4289C106.902 93.4309 104.387 94.2613 102.073 95.0277C96.3861 96.7342 90.3458 96.9149 84.4716 96.3286C81.6821 95.9593 78.887 95.3927 76.2686 94.3436C74.5603 93.5977 72.7049 92.6727 71.8213 90.9389C71.2831 89.5608 71.7585 88.0716 71.8704 86.6622C72.5199 84.712 74.5182 83.6958 76.2655 82.8909C80.4742 81.1891 85.0515 80.5607 89.5666 80.4378C94.5797 80.4121 99.7058 80.8187 104.402 82.7029C106.119 83.418 107.979 84.3887 108.814 86.1485C108.927 86.4208 109.001 86.7098 109.03 87.0035Z"  />
              <path id="path2921" fill="#000000" stroke-width="0.0057343" d="M108.492 86.5401C108.505 88.0285 108.969 89.7928 107.83 91.0052C105.346 93.5611 101.732 94.4218 98.3599 95.1102C91.7793 96.2775 84.8996 96.0956 78.4743 94.1873C76.3521 93.4897 74.1016 92.5338 72.7775 90.6479C72.0787 89.2529 72.3945 87.6038 72.7167 86.1497C73.1972 84.4793 74.8432 83.6264 76.2614 82.8573C79.1182 81.5021 82.2745 80.9317 85.3867 80.5159C91.3564 79.8193 97.5161 80.2011 103.248 82.0757C105.157 82.7629 107.174 83.7362 108.237 85.5502C108.382 85.8605 108.476 86.1971 108.492 86.5401Z"  />
              <path id="path2923" fill="#ffffff" stroke-width="0.208956" d="M90.5552 80.4123C94.8383 80.3781 99.1837 80.9084 103.215 82.4049C104.762 83.0471 106.386 83.8816 107.286 85.3555C107.827 86.396 107.538 87.6724 106.731 88.4867C105.723 89.6376 104.273 90.2699 102.911 90.8945C98.9226 92.3694 94.6353 92.8595 90.404 92.9013C86.1194 92.8933 81.7677 92.4126 77.7533 90.843C76.2356 90.2103 74.6446 89.3891 73.7724 87.9341C73.1999 86.971 73.417 85.7264 74.1903 84.9388C75.5192 83.4233 77.4541 82.6562 79.308 81.9956C82.949 80.8805 86.7574 80.4517 90.5552 80.4123Z"  />
            </g>
            <g id="g2925">
              <path id="path2927" fill="#ffffff" stroke-width="0.208956" d="M112.767 83.5868C112.694 85.0537 113.318 86.8006 112.192 88.0123C110.639 90.0142 108.124 90.8446 105.81 91.611C100.123 93.3175 94.0827 93.4984 88.2086 92.912C85.419 92.5427 82.6239 91.976 80.0055 90.927C78.2972 90.181 76.4419 89.256 75.5582 87.5223C75.02 86.1442 75.4954 84.655 75.6073 83.2455C76.2568 81.2953 78.2552 80.2791 80.0025 79.4743C84.2112 77.7724 88.7885 77.144 93.3036 77.0212C98.3167 76.9955 103.443 77.4021 108.139 79.2862C109.856 80.0014 111.717 80.9721 112.551 82.7318C112.664 83.0042 112.738 83.2931 112.767 83.5868Z"  />
              <path id="path2929" fill="#000000" stroke-width="0.0057343" d="M112.229 83.1235C112.242 84.6118 112.706 86.3762 111.567 87.5886C109.083 90.1445 105.468 91.0052 102.097 91.6936C95.5162 92.8608 88.6366 92.679 82.2112 90.7707C80.0891 90.0731 77.8385 89.1171 76.5145 87.2312C75.8157 85.8362 76.1314 84.1871 76.4536 82.733C76.9341 81.0627 78.5801 80.2097 79.9983 79.4406C82.855 78.0854 86.0114 77.515 89.1237 77.0993C95.0933 76.4026 101.253 76.7845 106.985 78.6591C108.894 79.3463 110.911 80.3195 111.974 82.1335C112.119 82.4438 112.213 82.7804 112.229 83.1235Z"  />
              <path id="path2931" fill="#ffffff" stroke-width="0.208956" d="M94.2921 76.9957C98.5752 76.9615 102.921 77.4917 106.952 78.9883C108.499 79.6305 110.122 80.465 111.023 81.9389C111.564 82.9794 111.275 84.2558 110.468 85.0701C109.46 86.2209 108.01 86.8532 106.648 87.4778C102.659 88.9527 98.3723 89.4429 94.141 89.4847C89.8563 89.4767 85.5047 88.996 81.4903 87.4263C79.9725 86.7936 78.3815 85.9724 77.5093 84.5174C76.9368 83.5543 77.1539 82.3098 77.9272 81.5221C79.2561 80.0067 81.191 79.2396 83.045 78.5789C86.6859 77.4639 90.4943 77.035 94.2921 76.9957Z"  />
            </g>
            <g id="g2933">
              <path id="path2935" fill="#ffffff" stroke-width="0.208956" d="M108.283 80.1702C108.21 81.637 108.834 83.384 107.707 84.5956C106.155 86.5976 103.639 87.4281 101.326 88.1944C95.6387 89.9009 89.5984 90.0818 83.7242 89.4953C80.9347 89.126 78.1396 88.5594 75.5211 87.5103C73.8129 86.7645 71.9575 85.8394 71.0739 84.1057C70.5357 82.7276 71.0111 81.2383 71.123 79.8289C71.7724 77.8787 73.7708 76.8625 75.5181 76.0576C79.7269 74.3558 84.3041 73.7274 88.8193 73.6046C93.8323 73.5788 98.9584 73.9854 103.654 75.8697C105.372 76.5847 107.232 77.5555 108.066 79.3152C108.18 79.5875 108.254 79.8765 108.283 80.1702Z"  />
              <path id="path2937" fill="#000000" stroke-width="0.0057343" d="M107.745 79.7069C107.758 81.1952 108.222 82.9595 107.082 84.1719C104.598 86.7278 100.984 87.5885 97.6125 88.277C91.0318 89.4442 84.1522 89.2624 77.7269 87.354C75.6047 86.6564 73.3542 85.7005 72.0301 83.8147C71.3313 82.4196 71.6471 80.7705 71.9693 79.3165C72.4498 77.646 74.0958 76.7931 75.514 76.024C78.3708 74.6688 81.5271 74.0984 84.6393 73.6827C90.6089 72.986 96.7688 73.3678 102.5 75.2424C104.41 75.9296 106.427 76.903 107.49 78.717C107.635 79.0272 107.729 79.3638 107.745 79.7069Z"  />
              <path id="path2939" fill="#ffffff" stroke-width="0.208956" d="M89.8078 73.5791C94.091 73.5449 98.4362 74.0751 102.467 75.5716C104.015 76.2138 105.638 77.0484 106.538 78.5222C107.08 79.5627 106.791 80.8391 105.984 81.6535C104.975 82.8044 103.526 83.4366 102.163 84.0613C98.1751 85.5361 93.888 86.0262 89.6566 86.068C85.372 86.0601 81.0203 85.5794 77.0059 84.0097C75.4882 83.3771 73.8972 82.5558 73.025 81.1008C72.4524 80.1377 72.6696 78.8931 73.4429 78.1055C74.7718 76.59 76.7067 75.8229 78.5606 75.1623C82.2016 74.0472 86.01 73.6184 89.8078 73.5791Z"  />
            </g>
            <g id="g2941">
              <path id="path2943" fill="#ffffff" stroke-width="0.208956" d="M111.806 75.7927C111.733 77.2595 112.357 79.0064 111.231 80.2181C109.678 82.2201 107.163 83.0505 104.849 83.8168C99.1622 85.5234 93.1218 85.7042 87.2476 85.1177C84.4581 84.7484 81.663 84.1818 79.0446 83.1327C77.3362 82.3869 75.4809 81.4618 74.5973 79.7281C74.0591 78.35 74.5345 76.8608 74.6464 75.4514C75.2959 73.5012 77.2943 72.485 79.0415 71.6801C83.2503 69.9783 87.8276 69.3498 92.3427 69.227C97.3558 69.2013 102.482 69.6079 107.178 71.4921C108.896 72.2072 110.756 73.1779 111.59 74.9376C111.704 75.21 111.777 75.499 111.806 75.7927Z"  />
              <path id="path2945" fill="#000000" stroke-width="0.0057343" d="M111.268 75.3293C111.281 76.8177 111.745 78.582 110.606 79.7944C108.122 82.3503 104.508 83.211 101.136 83.8994C94.5553 85.0667 87.6757 84.8849 81.2503 82.9765C79.1281 82.2789 76.8776 81.3229 75.5535 79.437C74.8547 78.042 75.1705 76.393 75.4926 74.9389C75.9732 73.2685 77.6192 72.4156 79.0374 71.6464C81.8941 70.2913 85.0504 69.7208 88.1627 69.3051C94.1324 68.6085 100.292 68.9902 106.024 70.8649C107.934 71.5521 109.951 72.5254 111.013 74.3394C111.158 74.6497 111.252 74.9863 111.268 75.3293Z"  />
              <path id="path2947" fill="#ffffff" stroke-width="0.208956" d="M93.3313 69.2015C97.6143 69.1673 101.96 69.6976 105.991 71.1941C107.538 71.8362 109.161 72.6708 110.062 74.1447C110.603 75.1852 110.314 76.4616 109.507 77.2759C108.499 78.4268 107.049 79.0591 105.687 79.6837C101.698 81.1586 97.4114 81.6487 93.18 81.6904C88.8954 81.6825 84.5437 81.2018 80.5293 79.6322C79.0116 78.9995 77.4205 78.1783 76.5484 76.7233C75.9759 75.7602 76.193 74.5156 76.9663 73.728C78.2952 72.2125 80.2301 71.4454 82.084 70.7848C85.725 69.6697 89.5334 69.2409 93.3313 69.2015Z"  />
            </g>
            <g id="g2949">
              <path id="path2951" fill="#ffffff" stroke-width="0.208956" d="M107.322 72.1625C107.248 73.6293 107.873 75.3763 106.747 76.5879C105.194 78.5899 102.678 79.4203 100.365 80.1867C94.6779 81.8932 88.6375 82.0741 82.7633 81.4876C79.9738 81.1183 77.1788 80.5517 74.5602 79.5026C72.852 78.7568 70.9966 77.8316 70.113 76.098C69.5749 74.7198 70.0502 73.2307 70.1621 71.8212C70.8115 69.871 72.8099 68.8546 74.5572 68.0498C78.7659 66.348 83.3432 65.7199 87.8583 65.597C92.8714 65.5712 97.9975 65.9779 102.693 67.862C104.411 68.5771 106.271 69.5478 107.106 71.3074C107.219 71.5798 107.293 71.8688 107.322 72.1625Z"  />
              <path id="path2953" fill="#000000" stroke-width="0.0057343" d="M106.784 71.6991C106.797 73.1875 107.261 74.9518 106.122 76.1643C103.637 78.7202 100.023 79.5808 96.6516 80.2693C90.071 81.4365 83.1913 81.2547 76.766 79.3464C74.6438 78.6487 72.3933 77.6928 71.0692 75.8069C70.3704 74.4119 70.6862 72.7628 71.0084 71.3087C71.4889 69.6384 73.1349 68.7855 74.5531 68.0162C77.4099 66.661 80.5662 66.0907 83.6784 65.6751C89.6481 64.9782 95.8078 65.3602 101.54 67.2346C103.449 67.9221 105.466 68.8953 106.529 70.7092C106.674 71.0195 106.768 71.3561 106.784 71.6991Z"  />
              <path id="path2955" fill="#ffffff" stroke-width="0.208956" d="M88.8469 65.5712C93.13 65.5372 97.4753 66.0675 101.507 67.564C103.054 68.2059 104.677 69.0407 105.577 70.5145C106.119 71.5551 105.83 72.8314 105.023 73.6458C104.015 74.7966 102.565 75.4289 101.202 76.0535C97.2142 77.5284 92.9271 78.0186 88.6957 78.0603C84.4111 78.0524 80.0594 77.5717 76.045 76.002C74.5273 75.3693 72.9363 74.5481 72.0641 73.0931C71.4916 72.13 71.7087 70.8855 72.482 70.0978C73.8109 68.5824 75.7458 67.8153 77.5997 67.1547C81.2407 66.0395 85.0491 65.6108 88.8469 65.5712Z"  />
            </g>
            <g id="g2957">
              <path id="path2959" fill="#ffffff" stroke-width="0.208956" d="M104.226 69.3864C104.152 70.8533 104.777 72.6002 103.65 73.8119C102.098 75.8139 99.582 76.6443 97.2683 77.4107C91.5815 79.1171 85.5412 79.298 79.667 78.7116C76.8775 78.3423 74.0823 77.7757 71.4639 76.7266C69.7557 75.9808 67.9003 75.0556 67.0166 73.3219C66.4785 71.9438 66.9538 70.4546 67.0657 69.0451C67.7152 67.0949 69.7136 66.0788 71.4609 65.274C75.6696 63.5722 80.2469 62.9436 84.762 62.8208C89.7751 62.795 94.9011 63.2017 99.597 65.0857C101.315 65.8009 103.175 66.7719 104.009 68.5316C104.123 68.8038 104.196 69.0928 104.226 69.3864Z"  />
              <path id="path2961" fill="#000000" stroke-width="0.0057343" d="M103.687 68.923C103.7 70.4115 104.165 72.1758 103.025 73.3882C100.541 75.9441 96.9269 76.8048 93.5552 77.4932C86.9746 78.6605 80.095 78.4787 73.6696 76.5703C71.5475 75.8727 69.2969 74.9168 67.9729 73.0309C67.2741 71.6358 67.5899 69.9868 67.912 68.5327C68.3926 66.8622 70.0386 66.0093 71.4567 65.2404C74.3135 63.8851 77.4698 63.3145 80.5821 62.8988C86.5517 62.2023 92.7115 62.584 98.4431 64.4587C100.353 65.1459 102.37 66.1191 103.433 67.9333C103.578 68.2433 103.671 68.5801 103.687 68.923Z"  />
              <path id="path2963" fill="#ffffff" stroke-width="0.208956" d="M85.7506 62.7954C90.0337 62.761 94.379 63.2913 98.4102 64.7877C99.9576 65.4301 101.581 66.2647 102.481 67.7384C103.023 68.7792 102.733 70.0554 101.927 70.8697C100.918 72.0205 99.4687 72.6529 98.1061 73.2775C94.1179 74.7523 89.8307 75.2425 85.5994 75.2843C81.3147 75.2764 76.9631 74.7956 72.9487 73.226C71.4309 72.5932 69.8399 71.7721 68.9677 70.3171C68.3952 69.354 68.6124 68.1096 69.3857 67.3216C70.7146 65.8061 72.6494 65.0391 74.5034 64.3784C78.1443 63.2637 81.9528 62.8346 85.7506 62.7954Z"  />
            </g>
            <path id="path2965" fill="#ffffff" stroke-width="0.263462" d="M109.564 66.1833C109.491 67.6502 110.115 69.3971 108.989 70.6088C107.436 72.6108 104.921 73.4412 102.607 74.2075C96.92 75.9141 90.8797 76.0949 85.0054 75.5085C82.2159 75.1391 79.4209 74.5725 76.8024 73.5235C75.0941 72.7776 73.2387 71.8525 72.3552 70.1188C71.817 68.7407 72.2924 67.2514 72.4042 65.842C73.0537 63.8918 75.0522 62.8757 76.7993 62.0709C81.0082 60.3691 85.5854 59.7405 90.1005 59.6177C95.1136 59.5919 100.24 59.9986 104.935 61.8827C106.653 62.5978 108.514 63.5688 109.348 65.3285C109.461 65.6007 109.535 65.8898 109.564 66.1833Z"  />
            <path id="path2967" fill="#000000" stroke-width="0.263462" d="M109.346 65.1862C109.359 66.6744 109.823 68.439 108.684 69.6512C106.2 72.2072 102.586 73.0678 99.214 73.7563C92.6334 74.9235 85.7538 74.7418 79.3284 72.8334C77.2063 72.1357 74.9557 71.1798 73.6317 69.2939C72.9329 67.8989 73.2486 66.2498 73.5708 64.7956C74.0513 63.1255 75.6973 62.2725 77.1155 61.5032C79.9723 60.148 83.1286 59.5777 86.2408 59.1621C92.2105 58.4652 98.3703 58.8473 104.102 60.7216C106.011 61.4091 108.028 62.3823 109.092 64.1962C109.237 64.5065 109.33 64.843 109.346 65.1862Z"  />
            <path id="path2969" fill="#ffffff" stroke-width="0.263462" d="M91.4093 59.1651C95.6925 59.1311 100.038 59.661 104.069 61.1578C105.616 61.7998 107.24 62.6344 108.14 64.1084C108.682 65.1489 108.392 66.4253 107.585 67.2394C106.577 68.3904 105.127 69.0227 103.765 69.6473C99.7767 71.1222 95.4896 71.6124 91.2582 71.6541C86.9735 71.6461 82.6218 71.1655 78.6075 69.5958C77.0897 68.9629 75.4987 68.1421 74.6266 66.6867C74.0541 65.724 74.2712 64.4793 75.0445 63.6917C76.3734 62.1762 78.3082 61.4091 80.1622 60.7485C83.8031 59.6334 87.6116 59.2046 91.4093 59.1651Z"  />
          </g>
          <g id="g2971">
            <path id="path2973" fill="url(#defitem26)" stroke="#000000" stroke-width="0.263462" stroke-linecap="round" stroke-linejoin="round" d="M99.9087 68.6507C99.0247 68.9226 98.1143 69.0977 97.1908 69.1549C96.1918 69.2462 95.1939 69.3552 94.1894 69.3455C92.6878 69.391 91.1884 69.2511 89.6913 69.1538C88.0938 69.035 86.4921 68.7609 85.0113 68.1286C84.5783 67.952 84.1241 67.8194 83.7547 67.5203C83.2632 67.1468 82.8385 66.6875 82.5051 66.1676C81.7693 66.1676 81.0334 66.1676 80.2975 66.1676C80.5838 65.9753 80.8406 65.712 81.1293 65.5425C81.5402 65.5425 81.951 65.5425 82.3618 65.5425C82.3671 65.2516 82.3201 64.9401 82.4708 64.682C82.4029 64.5297 82.0586 64.654 81.8787 64.6137C81.2121 64.6137 80.5455 64.6137 79.8788 64.6137C80.15 64.3945 80.4165 64.17 80.6759 63.937C81.3449 63.937 82.0139 63.937 82.6829 63.937C82.9601 63.5412 83.2824 63.1763 83.6962 62.9201C84.1855 62.5119 84.7512 62.2165 85.3509 62.0066C86.1744 61.6888 87.0485 61.526 87.901 61.3046C88.8224 61.1216 89.7614 61.0428 90.6964 60.9677C91.6964 60.9371 92.6958 60.8579 93.6956 60.8471C94.8978 60.8837 96.104 60.896 97.3008 61.0185C97.9702 61.1223 98.6525 61.1619 99.3134 61.3075C99.5214 61.3651 99.8311 61.3707 99.6217 61.6418C99.5068 61.78 99.5843 62.1829 99.3356 62.0839C97.875 61.8068 96.3827 61.7471 94.8999 61.8136C93.6049 61.8438 92.304 61.9693 91.053 62.3177C90.4431 62.4716 89.8822 62.7715 89.3292 63.0628C89.0102 63.257 88.7579 63.5273 88.535 63.8216C88.272 64.0311 89.0499 63.9725 88.9162 63.937C90.542 63.9307 92.1683 63.9583 93.7932 63.9027C94.746 63.9027 95.6988 63.9027 96.6516 63.9027C96.3934 64.1054 96.1471 64.3217 95.9119 64.5506C93.3219 64.5506 90.732 64.5506 88.1419 64.5506C88.0495 64.8411 87.9642 65.1713 88.0445 65.4745C88.1979 65.5395 88.4716 65.4838 88.6714 65.5025C90.6567 65.5025 92.6421 65.5025 94.6274 65.5025C94.3454 65.6986 94.0855 65.9555 93.7955 66.1217C92.4075 66.0982 91.0213 66.1923 89.6332 66.1676C89.1361 66.1676 88.6391 66.1676 88.1419 66.1676C88.5951 66.72 89.1688 67.1715 89.8324 67.4415C90.8802 67.8433 91.9974 68.0304 93.1031 68.1929C94.5797 68.3135 96.0631 68.3314 97.542 68.241C98.263 68.2205 98.976 68.0883 99.6678 67.8877C99.7684 68.1365 99.8501 68.3885 99.9087 68.6507Z"  />
            <path id="path2975" fill="none" stroke="#ffffff" stroke-width="0.263462" stroke-linecap="round" stroke-linejoin="round" d="M99.7608 68.79C98.8768 69.0624 97.9664 69.2373 97.0429 69.2946C96.0439 69.3858 95.046 69.4948 94.0415 69.4851C92.5399 69.5306 91.0405 69.3907 89.5433 69.2935C87.9459 69.1746 86.3441 68.9005 84.8634 68.2683C84.4305 68.0913 83.9761 67.9591 83.6067 67.6599C83.1153 67.2865 82.6906 66.8271 82.3572 66.3073C81.6213 66.3073 80.8854 66.3073 80.1495 66.3073C80.4359 66.1146 80.6927 65.8517 80.9814 65.6821C81.3923 65.6821 81.8031 65.6821 82.2139 65.6821C82.2192 65.3912 82.1721 65.0798 82.3229 64.8217C82.2549 64.6693 81.9106 64.7937 81.7308 64.7534C81.0641 64.7534 80.3975 64.7534 79.731 64.7534C80.0021 64.5342 80.2686 64.3097 80.528 64.0767C81.1971 64.0767 81.866 64.0767 82.535 64.0767C82.8122 63.6808 83.1344 63.316 83.5482 63.0598C84.0376 62.6516 84.6033 62.3562 85.2031 62.1463C86.0265 61.8285 86.9005 61.6657 87.7531 61.4442C88.6745 61.2612 89.6135 61.1824 90.5485 61.1074C91.5485 61.0768 92.5479 60.9976 93.5477 60.9868C94.7499 61.0233 95.9561 61.0357 97.1528 61.1582C97.8223 61.262 98.5045 61.3016 99.1655 61.4472C99.3735 61.5047 99.6832 61.5103 99.4737 61.7815C99.3589 61.9193 99.4363 62.3226 99.1877 62.2236C97.7271 61.9465 96.2348 61.8868 94.752 61.9532C93.457 61.9831 92.1561 62.109 90.9051 62.4574C90.2953 62.6113 89.7343 62.9108 89.1813 63.2021C88.8623 63.3966 88.6099 63.667 88.3871 63.9613C88.1241 64.1708 88.902 64.1122 88.7683 64.0767C90.3941 64.0703 92.0204 64.098 93.6452 64.0423C94.598 64.0423 95.5509 64.0423 96.5037 64.0423C96.2455 64.2447 95.9992 64.4613 95.764 64.6903C93.174 64.6903 90.584 64.6903 87.994 64.6903C87.9015 64.9808 87.8163 65.3109 87.8966 65.6142C88.0499 65.6792 88.3237 65.6235 88.5235 65.6422C90.5088 65.6422 92.4942 65.6422 94.4795 65.6422C94.1975 65.8382 93.9376 66.0952 93.6476 66.2614C92.2596 66.2378 90.8734 66.3319 89.4853 66.3073C88.9882 66.3073 88.4911 66.3073 87.994 66.3073C88.4472 66.8596 89.0209 67.3111 89.6845 67.5811C90.7323 67.9826 91.8495 68.1701 92.9552 68.3325C94.4318 68.4531 95.9152 68.4711 97.3941 68.3807C98.1151 68.3602 98.8281 68.228 99.5199 68.0274C99.6205 68.2761 99.7022 68.5282 99.7608 68.79Z"  />
          </g>
        </g>
      </g>
      <g id="g2977">
        <path id="path2979" fill="url(#defitem27)" stroke="#a7a7a7" stroke-opacity="0.85" stroke-width="0.518618" stroke-linecap="round" stroke-linejoin="round" d="M89.9224 73.574C89.4285 73.574 88.9313 73.7592 88.5529 74.1376L76.944 85.7518C76.1872 86.5086 76.1872 87.7286 76.944 88.4854L83.5069 88.4854C83.4836 88.6057 83.4332 88.7163 83.4332 88.8436L83.4332 92.8941C83.4332 93.9644 84.2959 94.8271 85.3662 94.8271L94.4732 94.8271C95.5436 94.8271 96.4062 93.9644 96.4062 92.8941L96.4062 88.8436C96.4062 88.7163 96.3558 88.6057 96.3325 88.4854L102.901 88.4854C103.658 87.7286 103.658 86.5086 102.901 85.7518L91.2865 74.1376C90.9081 73.7592 90.4162 73.574 89.9224 73.574ZM85.3676 94.8182L94.4771 94.8182C95.5474 94.8182 96.4091 95.6799 96.4091 96.7502L96.4091 99.6979C96.4091 100.768 95.5474 101.63 94.4771 101.63L85.3676 101.63C84.2973 101.63 83.4356 100.768 83.4356 99.6979L83.4356 96.7502C83.4356 95.6799 84.2973 94.8182 85.3676 94.8182ZM85.3676 101.623L94.4771 101.623C95.5474 101.623 96.4091 102.354 96.4091 103.263C96.4091 104.172 95.5474 104.903 94.4771 104.903L85.3676 104.903C84.2973 104.903 83.4356 104.172 83.4356 103.263C83.4356 102.354 84.2973 101.623 85.3676 101.623Z"  />
      </g>
    </g>
  </g>
</svg>
