<?xml version="1.0" standalone="no"?>
<!DOCTYPE svg PUBLIC "-//W3C//DTD SVG 20010904//EN" "http://www.w3.org/TR/2001/REC-SVG-20010904/DTD/svg10.dtd">
<!-- Created using Karbon14, part of koffice: http://www.koffice.org/karbon -->
<svg xmlns="http://www.w3.org/2000/svg" xmlns:xlink="http://www.w3.org/1999/xlink" width="128px" height="128px">
  <defs>
    <linearGradient id="defitem0" gradientUnits="userSpaceOnUse" x1="-35.5381" y1="47.2939" x2="38.1692" y2="-35.794" >
      <stop stop-color="#1f670d" offset="0" stop-opacity="1" />
      <stop stop-color="#26b511" offset="0.508346" stop-opacity="1" />
      <stop stop-color="#0e6908" offset="1" stop-opacity="1" />
    </linearGradient>
    <radialGradient id="defitem1" gradientUnits="userSpaceOnUse" cx="64.0002" cy="122.802" fx="64.0002" fy="122.802" r="61.5368" >
      <stop stop-color="#000000" offset="0" stop-opacity="1" />
      <stop stop-color="#000000" offset="1" stop-opacity="0" />
    </radialGradient>
    <linearGradient id="defitem2" gradientUnits="userSpaceOnUse" x1="64.0002" y1="128" x2="64.0002" y2="122.802" >
      <stop stop-color="#ffffff" offset="0" stop-opacity="1" />
      <stop stop-color="#ffffff" offset="1" stop-opacity="0" />
    </linearGradient>
    <linearGradient id="defitem3" gradientUnits="userSpaceOnUse" x1="64.0002" y1="117.18" x2="64.0002" y2="122.802" >
      <stop stop-color="#ffffff" offset="0" stop-opacity="1" />
      <stop stop-color="#ffffff" offset="1" stop-opacity="0" />
    </linearGradient>
    <linearGradient id="defitem4" gradientUnits="userSpaceOnUse" x1="15.4292" y1="69.0302" x2="50.9956" y2="28.9374" >
      <stop stop-color="#1f670d" offset="0" stop-opacity="1" />
      <stop stop-color="#26b511" offset="0.508346" stop-opacity="1" />
      <stop stop-color="#0e6908" offset="1" stop-opacity="1" />
    </linearGradient>
  </defs>
  <g id="Layer">
    <g id="Layer">
      <g id="monedes">
        <g id="g11760">
          <g id="g10643">
            <path id="path10630" fill="#ffffff" stroke-width="0.559528" d="M115.165 76.2209C114.969 80.1485 116.642 84.8264 113.625 88.0709C109.468 93.4316 102.731 95.6553 96.5359 97.7074C81.3081 102.277 65.1338 102.761 49.4043 101.191C41.9347 100.202 34.4502 98.6848 27.4387 95.8756C22.8645 93.8784 17.8963 91.4013 15.5301 86.7589C14.089 83.0686 15.362 79.081 15.6617 75.3069C17.4007 70.0848 22.7518 67.3637 27.4305 65.2084C38.7004 60.6515 50.9571 58.9687 63.0474 58.6397C76.4711 58.5709 90.1973 59.6597 102.772 64.7051C107.371 66.6199 112.352 69.2192 114.586 73.9313C114.89 74.6605 115.088 75.4343 115.165 76.2209Z"  />
            <path id="path10632" fill="#000000" stroke-width="0.0153549" d="M113.725 74.98C113.759 78.9654 115.002 83.6898 111.952 86.9364C105.3 93.7804 95.6219 96.085 86.5934 97.9285C68.9722 101.054 50.5504 100.567 33.3451 95.4572C27.6625 93.5891 21.6361 91.0294 18.0907 85.9796C16.2195 82.2441 17.0651 77.8282 17.9278 73.9346C19.2145 69.4618 23.622 67.1778 27.4195 65.1183C35.0692 61.4896 43.521 59.9621 51.8547 58.8489C67.8398 56.9834 84.334 58.0058 99.6817 63.0256C104.795 64.8657 110.196 67.4719 113.042 72.3294C113.431 73.1602 113.682 74.0614 113.725 74.98Z"  />
            <path id="path10633" fill="#ffffff" stroke-width="0.559528" d="M65.6945 58.5715C77.1636 58.4799 88.7992 59.8998 99.5937 63.907C103.737 65.6266 108.084 67.8613 110.495 71.8079C111.945 74.5942 111.17 78.012 109.01 80.1925C106.309 83.2743 102.428 84.9674 98.7794 86.64C88.1 90.5893 76.62 91.9017 65.2897 92.0135C53.8166 91.9922 42.164 90.705 31.4145 86.5019C27.3504 84.8078 23.0902 82.6087 20.7547 78.7126C19.2216 76.1339 19.8031 72.8012 21.8737 70.692C25.4321 66.634 30.6133 64.5799 35.5776 62.8109C45.3271 59.8251 55.5251 58.6769 65.6945 58.5715Z"  />
          </g>
          <g id="g10647">
            <path id="path10648" fill="#ffffff" stroke-width="0.559528" d="M125.172 67.0719C124.975 70.9997 126.648 75.6775 123.631 78.922C119.474 84.2828 112.738 86.5063 106.542 88.5585C91.3147 93.1279 75.1402 93.6125 59.4108 92.0421C51.9412 91.0532 44.4567 89.5359 37.4452 86.7268C32.8708 84.7294 27.9028 82.2523 25.5366 77.6101C24.0955 73.9198 25.3685 69.9321 25.668 66.1579C27.4072 60.9358 32.7584 58.2146 37.4371 56.0596C48.707 51.5025 60.9637 49.8198 73.0539 49.4909C86.4776 49.4221 100.204 50.5109 112.778 55.556C117.378 57.471 122.359 60.0704 124.592 64.7823C124.897 65.5117 125.095 66.2853 125.172 67.0719Z"  />
            <path id="path10649" fill="#000000" stroke-width="0.0153549" d="M123.731 65.8312C123.766 69.8166 125.009 74.541 121.958 77.7876C115.306 84.6316 105.628 86.9362 96.5999 88.7796C78.9787 91.9052 60.5569 91.4184 43.3516 86.3083C37.669 84.4403 31.6427 81.8806 28.0972 76.8306C26.226 73.0951 27.0714 68.6794 27.9341 64.7856C29.2208 60.313 33.6284 58.0288 37.426 55.9695C45.0755 52.3405 53.5273 50.8131 61.8612 49.7001C77.8463 47.8345 94.3403 48.857 109.688 53.8768C114.802 55.7169 120.203 58.3229 123.049 63.1803C123.437 64.0111 123.688 64.9126 123.731 65.8312Z"  />
            <path id="path10650" fill="#ffffff" stroke-width="0.559528" d="M75.701 49.4227C87.1699 49.3311 98.8057 50.7509 109.6 54.7582C113.744 56.4778 118.09 58.7125 120.501 62.6591C121.951 65.4453 121.177 68.8632 119.016 71.0437C116.316 74.1253 112.434 75.8185 108.786 77.491C98.1065 81.4402 86.6266 82.7529 75.2962 82.8647C63.8231 82.8434 52.1705 81.5562 41.421 77.3531C37.357 75.6588 33.0965 73.4599 30.7612 69.5638C29.2281 66.9849 29.8094 63.6524 31.8802 61.5432C35.4386 57.4852 40.6198 55.4311 45.5841 53.6621C55.3336 50.6763 65.5314 49.528 75.701 49.4227Z"  />
          </g>
          <g id="g10651">
            <path id="path10652" fill="#ffffff" stroke-width="0.559528" d="M113.164 57.9232C112.968 61.8508 114.641 66.5287 111.623 69.7732C107.466 75.134 100.73 77.3577 94.5345 79.4097C79.3068 83.9793 63.1325 84.4636 47.4029 82.8932C39.9334 81.9043 32.4488 80.3871 25.4373 77.5779C20.8631 75.5808 15.8949 73.1036 13.5288 68.4612C12.0877 64.771 13.3606 60.7833 13.6602 57.0092C15.3993 51.7872 20.7505 49.066 25.4292 46.9107C36.6991 42.3538 48.9558 40.671 61.0461 40.3421C74.4698 40.2732 88.1959 41.362 100.77 46.4074C105.37 48.3222 110.351 50.9216 112.585 55.6336C112.889 56.3628 113.087 57.1367 113.164 57.9232Z"  />
            <path id="path10653" fill="#000000" stroke-width="0.0153549" d="M111.723 56.6824C111.758 60.6678 113.001 65.3922 109.95 68.6387C103.298 75.4827 93.6205 77.7874 84.5921 79.6308C66.9708 82.7564 48.5491 82.2696 31.3438 77.1595C25.6611 75.2915 19.6348 72.7317 16.0893 67.682C14.2181 63.9465 15.0637 59.5306 15.9264 55.637C17.2132 51.1641 21.6207 48.8802 25.4181 46.8206C33.0679 43.1919 41.5196 41.6645 49.8533 40.5513C65.8384 38.6857 82.3327 39.7082 97.6804 44.7279C102.794 46.568 108.195 49.1743 111.041 54.0317C111.429 54.8625 111.68 55.7638 111.723 56.6824Z"  />
            <path id="path10654" fill="#ffffff" stroke-width="0.559528" d="M63.6932 40.2739C75.1623 40.1823 86.7978 41.6021 97.5923 45.6094C101.736 47.3289 106.082 49.5637 108.493 53.5103C109.944 56.2965 109.169 59.7143 107.009 61.8949C104.308 64.9767 100.427 66.6697 96.778 68.3423C86.0986 72.2916 74.6187 73.604 63.2883 73.7158C51.8153 73.6946 40.1626 72.4074 29.4131 68.2043C25.3491 66.5102 21.0888 64.3111 18.7533 60.415C17.2202 57.8361 17.8018 54.5035 19.8724 52.3944C23.4308 48.3364 28.612 46.2823 33.5762 44.5133C43.3258 41.5274 53.5237 40.3792 63.6932 40.2739Z"  />
          </g>
          <g id="g10655">
            <path id="path10656" fill="#ffffff" stroke-width="0.559528" d="M122.599 46.2013C122.402 50.1289 124.075 54.8068 121.058 58.0513C116.901 63.4121 110.165 65.6358 103.969 67.6878C88.7416 72.2574 72.5671 72.7417 56.8375 71.1713C49.3682 70.1824 41.8836 68.6652 34.8721 65.856C30.2977 63.8589 25.3297 61.3817 22.9636 56.7393C21.5225 53.0491 22.7954 49.0614 23.095 45.2873C24.8341 40.0653 30.1853 37.3441 34.864 35.1888C46.1339 30.6319 58.3906 28.9491 70.4808 28.6202C83.9046 28.5513 97.6307 29.6401 110.205 34.6855C114.805 36.6003 119.786 39.1997 122.019 43.9117C122.324 44.6409 122.521 45.4148 122.599 46.2013Z"  />
            <path id="path10657" fill="#000000" stroke-width="0.0153549" d="M121.158 44.9605C121.193 48.9459 122.436 53.6703 119.385 56.9168C112.733 63.7608 103.055 66.0655 94.0268 67.9089C76.4056 71.0345 57.9839 70.5477 40.7785 65.4376C35.0959 63.5696 29.0696 61.0098 25.5241 55.9599C23.6529 52.2244 24.4983 47.8087 25.361 43.9151C26.6477 39.4422 31.0553 37.1583 34.8529 35.0987C42.5025 31.47 50.9542 29.9424 59.2881 28.8294C75.2732 26.964 91.7673 27.986 107.115 33.006C112.229 34.8461 117.63 37.4524 120.476 42.3098C120.864 43.1406 121.115 44.0419 121.158 44.9605Z"  />
            <path id="path10658" fill="#ffffff" stroke-width="0.559528" d="M73.128 28.552C84.5969 28.4604 96.2326 29.8802 107.027 33.8875C111.171 35.607 115.517 37.8418 117.928 41.7884C119.378 44.5746 118.603 47.9924 116.443 50.173C113.743 53.2548 109.861 54.9478 106.213 56.6204C95.5332 60.5697 84.0535 61.8821 72.7231 61.9939C61.25 61.9727 49.5974 60.6855 38.8479 56.4824C34.7839 54.7883 30.5234 52.5892 28.1881 48.6931C26.655 46.1142 27.2364 42.7816 29.3072 40.6725C32.8656 36.6145 38.0467 34.5604 43.011 32.7914C52.7605 29.8055 62.9583 28.6573 73.128 28.552Z"  />
          </g>
          <g id="g10659">
            <path id="path10660" fill="#ffffff" stroke-width="0.559528" d="M110.591 36.4806C110.394 40.4084 112.068 45.0863 109.051 48.3308C104.893 53.6915 98.1572 55.915 91.9617 57.9673C76.7339 62.5367 60.5594 63.0212 44.8298 61.4508C37.3603 60.4619 29.876 58.9447 22.8643 56.1355C18.2901 54.1383 13.3218 51.661 10.9557 47.0188C9.5148 43.3285 10.7876 39.3409 11.0873 35.5666C12.8263 30.3447 18.1774 27.623 22.8561 25.468C34.126 20.911 46.3827 19.229 58.473 18.9C71.8967 18.831 85.6229 19.92 98.1972 24.965C102.797 26.88 107.778 29.4791 110.012 34.191C110.316 34.9204 110.514 35.6942 110.591 36.4806Z"  />
            <path id="path10661" fill="#000000" stroke-width="0.0153549" d="M109.15 35.2399C109.185 39.2253 110.428 43.9497 107.377 47.1963C100.725 54.0403 91.0475 56.3449 82.019 58.1884C64.3978 61.314 45.976 60.8271 28.7707 55.7171C23.0881 53.849 17.0617 51.2893 13.5162 46.2393C11.6451 42.5038 12.4906 38.0881 13.3533 34.1943C14.6401 29.7217 19.0476 27.438 22.8451 25.378C30.4948 21.749 38.9466 20.222 47.2803 19.109C63.2654 17.243 79.7596 18.266 95.1075 23.285C100.221 25.126 105.622 27.732 108.468 32.5891C108.856 33.4199 109.107 34.3213 109.15 35.2399Z"  />
            <path id="path10662" fill="#ffffff" stroke-width="0.559528" d="M61.1201 18.831C72.5892 18.74 84.2247 20.16 95.0193 24.167C99.163 25.886 103.51 28.1212 105.92 32.0678C107.37 34.8541 106.596 38.2719 104.436 40.4524C101.735 43.534 97.8535 45.2273 94.205 46.8997C83.5256 50.849 72.0458 52.1616 60.7152 52.2734C49.2422 52.2521 37.5895 50.9649 26.84 46.7618C22.776 45.0675 18.5157 42.8686 16.1803 38.9725C14.6474 36.3936 15.2287 33.0611 17.2993 30.9519C20.8577 26.894 26.0389 24.84 31.0031 23.071C40.7527 20.085 50.9507 18.937 61.1201 18.831Z"  />
          </g>
          <g id="g10663">
            <path id="path10664" fill="#ffffff" stroke-width="0.559528" d="M102.3 29.0471C102.103 32.9749 103.776 37.6528 100.759 40.8973C96.602 46.2581 89.8658 48.4816 83.6703 50.5338C68.4426 55.1032 52.2683 55.5877 36.5387 54.0173C29.0692 53.0284 21.5846 51.5112 14.5731 48.702C9.99892 46.7049 5.03071 44.2275 2.66455 39.5853C1.22346 35.8951 2.49643 31.9074 2.79596 28.1331C4.53511 22.911 9.88629 20.19 14.565 18.035C25.8349 13.478 38.0916 11.795 50.1818 11.466C63.6056 11.397 77.3317 12.486 89.9061 17.531C94.5058 19.446 99.4867 22.046 101.721 26.758C102.025 27.487 102.222 28.2608 102.3 29.0471Z"  />
            <path id="path10665" fill="#000000" stroke-width="0.0153549" d="M100.859 27.806C100.894 31.7919 102.137 36.5163 99.0862 39.7628C92.4341 46.6068 82.7563 48.9115 73.7278 50.7549C56.1066 53.8805 37.6849 53.3937 20.4795 48.2836C14.7969 46.4156 8.77058 43.8558 5.2251 38.8059C3.35391 35.0704 4.19951 30.6547 5.06199 26.761C6.34894 22.288 10.7565 20.004 14.5539 17.945C22.2035 14.316 30.6554 12.788 38.9891 11.675C54.9742 9.81 71.4685 10.832 86.8162 15.852C91.9296 17.692 97.3308 20.298 100.177 25.156C100.565 25.986 100.816 26.888 100.859 27.806Z"  />
            <path id="path10666" fill="#ffffff" stroke-width="0.559528" d="M52.829 11.398C64.2981 11.306 75.9336 12.726 86.7281 16.733C90.8716 18.453 95.2183 20.688 97.6291 24.634C99.0793 27.421 98.3044 30.8384 96.1444 33.019C93.4439 36.1005 89.5624 37.7938 85.9138 39.4662C75.2344 43.4155 63.7545 44.7281 52.4241 44.8399C40.951 44.8187 29.2984 43.5315 18.5489 39.3284C14.4849 37.634 10.2246 35.4352 7.88911 31.5391C6.35604 28.9602 6.93756 25.628 9.00816 23.518C12.5666 19.46 17.7477 17.406 22.712 15.637C32.4615 12.652 42.6595 11.503 52.829 11.398Z"  />
          </g>
          <path id="path10672" fill="#ffffff" stroke-width="0.705481" d="M116.595 20.47C116.399 24.398 118.071 29.0757 115.054 32.3202C110.897 37.681 104.161 39.9047 97.9655 41.9567C82.7378 46.5263 66.5633 47.0106 50.8337 45.4404C43.3641 44.4513 35.8798 42.9341 28.8683 40.1249C24.2939 38.1278 19.3257 35.6506 16.9597 31.0082C15.5186 27.318 16.7916 23.33 17.0911 19.556C18.8301 14.334 24.1815 11.613 28.86 9.458C40.1301 4.901 52.3868 3.218 64.477 2.889C77.9007 2.82 91.6267 3.909 104.201 8.954C108.801 10.869 113.782 13.469 116.016 18.181C116.32 18.91 116.517 19.684 116.595 20.47Z"  />
          <path id="path10674" fill="#000000" stroke-width="0.705481" d="M116.012 17.8C116.046 21.785 117.289 26.51 114.239 29.7561C107.587 36.6003 97.909 38.9049 88.8805 40.7484C71.2593 43.8738 52.8377 43.3872 35.6322 38.2771C29.9496 36.409 23.9232 33.8493 20.378 28.7993C18.5066 25.064 19.3522 20.648 20.2149 16.754C21.5016 12.282 25.9091 9.998 29.7066 7.938C37.3563 4.309 45.8081 2.782 54.1418 1.669C70.1269 -0.197 86.6211 0.826 101.969 5.845C107.082 7.686 112.483 10.292 115.33 15.149C115.718 15.98 115.969 16.881 116.012 17.8Z"  />
          <path id="path10675" fill="#ffffff" stroke-width="0.705481" d="M67.9816 1.677C79.4507 1.586 91.0863 3.005 101.881 7.013C106.024 8.732 110.371 10.967 112.782 14.914C114.232 17.7 113.457 21.118 111.297 23.298C108.597 26.38 104.715 28.0731 101.066 29.7457C90.3871 33.695 78.9074 35.0076 67.5768 35.1192C56.1037 35.0979 44.4511 33.8109 33.7018 29.6076C29.6376 27.913 25.3773 25.715 23.042 21.818C21.5089 19.24 22.0902 15.907 24.161 13.798C27.7194 9.74 32.9004 7.686 37.8647 5.917C47.6142 2.931 57.8122 1.783 67.9816 1.677Z"  />
        </g>
        <g id="g11823">
          <path id="path10676" fill="url(#defitem0)" stroke="#000000" stroke-width="0.705481" stroke-linecap="round" stroke-linejoin="round" d="M90.7406 27.077C88.3736 27.805 85.9357 28.2739 83.4628 28.4272C80.7879 28.6715 78.1158 28.9635 75.4259 28.9374C71.4051 29.0592 67.3901 28.6848 63.3811 28.4241C59.1035 28.106 54.8145 27.372 50.8495 25.679C49.69 25.206 48.4736 24.851 47.4845 24.05C46.1685 23.05 45.0313 21.82 44.1386 20.428C42.1681 20.428 40.1976 20.428 38.227 20.428C38.9937 19.913 39.6814 19.208 40.4546 18.754C41.5547 18.754 42.6547 18.754 43.7548 18.754C43.769 17.975 43.643 17.141 44.0466 16.45C43.8647 16.042 42.9428 16.375 42.4612 16.267C40.6761 16.267 38.8911 16.267 37.106 16.267C37.8321 15.68 38.5459 15.079 39.2405 14.455C41.0318 14.455 42.8233 14.455 44.6146 14.455C45.3569 13.395 46.2198 12.418 47.3278 11.732C48.6381 10.639 50.1529 9.848 51.7589 9.286C53.9639 8.435 56.3044 7.999 58.5873 7.406C61.0546 6.916 63.5689 6.705 66.0727 6.504C68.7502 6.422 71.4264 6.21 74.1037 6.181C77.3228 6.279 80.5527 6.312 83.7573 6.64C85.5499 6.918 87.3768 7.024 89.1467 7.414C89.7036 7.568 90.5329 7.583 89.972 8.309C89.6644 8.679 89.8719 9.758 89.2061 9.493C85.295 8.751 81.299 8.591 77.3284 8.769C73.8607 8.85 70.3774 9.186 67.0274 10.119C65.3944 10.531 63.8924 11.334 62.4116 12.114C61.5575 12.634 60.8817 13.358 60.2849 14.146C59.5808 14.707 61.6637 14.55 61.3057 14.455C65.6591 14.438 70.0138 14.512 74.3649 14.363C76.9162 14.363 79.4676 14.363 82.019 14.363C81.3277 14.906 80.6682 15.485 80.0383 16.098C73.1029 16.098 66.1678 16.098 59.2324 16.098C58.9848 16.876 58.7564 17.76 58.9715 18.572C59.3822 18.746 60.1152 18.597 60.6502 18.647C65.9663 18.647 71.2826 18.647 76.5988 18.647C75.8437 19.172 75.1477 19.86 74.3711 20.305C70.6544 20.242 66.9425 20.494 63.2255 20.428C61.8946 20.428 60.5636 20.428 59.2324 20.428C60.4458 21.907 61.9822 23.116 63.7591 23.839C66.5647 24.915 69.5564 25.416 72.5172 25.851C76.4711 26.174 80.4431 26.222 84.4033 25.98C86.3339 25.925 88.2431 25.571 90.0957 25.034C90.365 25.7 90.5838 26.375 90.7406 27.077Z"  />
          <path id="path11815" fill="none" stroke="#ffffff" stroke-width="0.705481" stroke-linecap="round" stroke-linejoin="round" d="M90.3445 27.45C87.9775 28.1794 85.5396 28.6477 83.0667 28.8012C80.3918 29.0455 77.7197 29.3373 75.0298 29.3112C71.009 29.433 66.994 29.0586 62.985 28.7981C58.7074 28.4798 54.4184 27.746 50.4534 26.053C49.2941 25.579 48.0775 25.225 47.0884 24.424C45.7724 23.424 44.6352 22.194 43.7425 20.802C41.772 20.802 39.8015 20.802 37.8309 20.802C38.5976 20.286 39.2853 19.582 40.0585 19.128C41.1586 19.128 42.2586 19.128 43.3587 19.128C43.3729 18.349 43.2469 17.515 43.6505 16.824C43.4686 16.416 42.5467 16.749 42.0651 16.641C40.28 16.641 38.495 16.641 36.7102 16.641C37.436 16.054 38.1498 15.453 38.8444 14.829C40.6359 14.829 42.4272 14.829 44.2185 14.829C44.9608 13.769 45.8237 12.792 46.9317 12.106C48.242 11.013 49.7568 10.222 51.363 9.66C53.5678 8.809 55.9083 8.373 58.1912 7.78C60.6585 7.29 63.1728 7.079 65.6766 6.878C68.3544 6.796 71.0305 6.584 73.7076 6.555C76.9267 6.653 80.1566 6.686 83.3612 7.014C85.1538 7.292 86.9807 7.398 88.7506 7.788C89.3075 7.942 90.1368 7.957 89.5759 8.683C89.2685 9.052 89.4758 10.132 88.81 9.867C84.8989 9.125 80.9029 8.965 76.9323 9.143C73.4646 9.223 69.9813 9.56 66.6313 10.493C64.9985 10.905 63.4963 11.707 62.0155 12.487C61.1614 13.008 60.4856 13.732 59.8888 14.52C59.1847 15.081 61.2676 14.924 60.9096 14.829C65.263 14.812 69.6179 14.886 73.9688 14.737C76.5201 14.737 79.0715 14.737 81.6229 14.737C80.9316 15.279 80.2721 15.859 79.6422 16.472C72.7068 16.472 65.7717 16.472 58.8363 16.472C58.5887 17.25 58.3604 18.134 58.5754 18.946C58.9861 19.12 59.7191 18.971 60.2541 19.021C65.5702 19.021 70.8865 19.021 76.2027 19.021C75.4476 19.546 74.7516 20.234 73.9752 20.679C70.2583 20.616 66.5466 20.868 62.8296 20.802C61.4985 20.802 60.1675 20.802 58.8363 20.802C60.0499 22.281 61.5861 23.49 63.363 24.213C66.1686 25.288 69.1603 25.79 72.1211 26.225C76.075 26.548 80.047 26.596 84.0072 26.354C85.9378 26.299 87.847 25.945 89.6996 25.408C89.9689 26.074 90.1877 26.749 90.3445 27.45Z"  />
        </g>
      </g>
    </g>
    <g id="g2532">
      <g id="sombra">
        <path id="path1563" fill="url(#defitem1)" stroke-width="0" stroke-linecap="round" stroke-linejoin="round" d="M128 122.802C128 125.667 99.3468 127.99 64.0002 127.99C28.6539 127.99 0.000171 125.667 0.000171 122.802C0.000171 119.937 28.6539 117.614 64.0002 117.614C99.3468 117.614 128 119.937 128 122.802L128 122.802Z"  />
        <path id="path3251" fill="url(#defitem2)" stroke-width="0" stroke-linecap="round" stroke-linejoin="round" d="M128 122.802L0.00017 122.802C0.00017 125.673 28.6539 128 64.0002 128C99.3468 128 128 125.673 128 122.802L128 122.802Z"  />
        <path id="path2455" fill="url(#defitem3)" stroke-width="0" stroke-linecap="round" stroke-linejoin="round" d="M128 122.802L0.00017 122.802C0.00017 119.697 28.6539 117.18 64.0002 117.18C99.3468 117.18 128 119.697 128 122.802L128 122.802Z"  />
        <path id="path2440" fill="#ffffff" fill-opacity="0.5" stroke-width="0" stroke-linecap="round" stroke-linejoin="round" d="M64 117.184C29.7583 117.184 1.77662 119.526 0.0625 122.496C0.000125 122.59 0 122.714 0 122.809C0 122.988 0.094004 123.134 0.3125 123.309C0.425013 123.402 0.546842 123.499 0.71875 123.59C1.85178 124.191 4.27039 124.763 7.71875 125.278C9.68924 125.572 11.9852 125.833 14.5938 126.09C18.5066 126.474 23.1115 126.81 28.2188 127.09C33.326 127.37 38.9567 127.594 44.9688 127.746C50.9808 127.898 57.3726 127.996 64 127.996C70.6275 127.996 77.0192 127.898 83.0313 127.746C89.0433 127.594 94.6741 127.37 99.7813 127.09C104.888 126.81 109.462 126.474 113.375 126.09C115.984 125.833 118.311 125.572 120.281 125.278C123.73 124.763 126.117 124.191 127.25 123.59C127.422 123.499 127.544 123.402 127.656 123.309C127.766 123.222 127.851 123.147 127.906 123.059C127.962 122.97 128 122.898 128 122.809C128 122.714 127.969 122.59 127.906 122.496C126.192 119.526 98.242 117.184 64 117.184Z"  />
      </g>
    </g>
    <g id="g2601">
      <path id="up" fill="url(#defitem4)" stroke="#a7a7a7" stroke-opacity="0.85" stroke-width="1.38872" stroke-linecap="round" stroke-linejoin="round" d="M63.9999 40.2603C62.6775 40.2603 61.3461 40.7562 60.3329 41.7695L29.2474 72.8691C27.2208 74.8956 27.2208 78.1624 29.2474 80.189L46.8211 80.189C46.7587 80.5112 46.6237 80.8072 46.6237 81.1481L46.6237 91.9942C46.6237 94.8602 48.9337 97.1704 51.7998 97.1704L76.1858 97.1704C79.052 97.1704 81.362 94.8602 81.362 91.9942L81.362 81.1481C81.362 80.8072 81.227 80.5112 81.1646 80.189L98.7524 80.189C100.779 78.1624 100.779 74.8956 98.7524 72.8691L67.6528 41.7695C66.6395 40.7562 65.3223 40.2603 63.9999 40.2603ZM51.8035 97.1466L76.1963 97.1466C79.0623 97.1466 81.3697 99.4539 81.3697 102.32L81.3697 110.213C81.3697 113.079 79.0623 115.386 76.1963 115.386L51.8035 115.386C48.9375 115.386 46.6301 113.079 46.6301 110.213L46.6301 102.32C46.6301 99.4539 48.9375 97.1466 51.8035 97.1466ZM51.8035 115.367L76.1963 115.367C79.0623 115.367 81.3697 117.326 81.3697 119.759C81.3697 122.193 79.0623 124.152 76.1963 124.152L51.8035 124.152C48.9375 124.152 46.6301 122.193 46.6301 119.759C46.6301 117.326 48.9375 115.367 51.8035 115.367Z"  />
    </g>
  </g>
</svg>
