<?xml version="1.0" standalone="no"?>
<!DOCTYPE svg PUBLIC "-//W3C//DTD SVG 20010904//EN" "http://www.w3.org/TR/2001/REC-SVG-20010904/DTD/svg10.dtd">
<!-- Created using Karbon14, part of koffice: http://www.koffice.org/karbon -->
<svg xmlns="http://www.w3.org/2000/svg" xmlns:xlink="http://www.w3.org/1999/xlink" width="102.4pt" height="102.4pt">
  <defs>
    <linearGradient id="defitem0" gradientUnits="userSpaceOnUse" gradientTransform="matrix(0 -0.0635264 -1.08067 0 130.931 7.13886)" x1="16" y1="64" x2="112" y2="64" spreadMethod="pad" >
      <stop stop-color="#000000" offset="0" stop-opacity="1" />
      <stop stop-color="#000000" offset="1" stop-opacity="0" />
    </linearGradient>
    <linearGradient id="defitem1" gradientUnits="userSpaceOnUse" gradientTransform="matrix(-0.0640555 0 0 1.04139 7.26343 -3.60003)" x1="16" y1="64" x2="112" y2="64" spreadMethod="pad" >
      <stop stop-color="#000000" offset="0" stop-opacity="1" />
      <stop stop-color="#000000" offset="1" stop-opacity="0" />
    </linearGradient>
    <radialGradient id="defitem2" gradientUnits="userSpaceOnUse" gradientTransform="matrix(1.22688 0 0 1.02073 -20.857 -9.18656)" cx="125.471" cy="127.047" fx="125.471" fy="127.047" r="139.559" spreadMethod="pad" >
      <stop stop-color="#b7b8b9" offset="0" stop-opacity="1" />
      <stop stop-color="#ececec" offset="0.18851" stop-opacity="1" />
      <stop stop-color="#fafafa" offset="0.257181" stop-opacity="1" />
      <stop stop-color="#ffffff" offset="0.301113" stop-opacity="1" />
      <stop stop-color="#fafafa" offset="0.5313" stop-opacity="1" />
      <stop stop-color="#ebecec" offset="0.8449" stop-opacity="1" />
      <stop stop-color="#e1e2e3" offset="1" stop-opacity="1" />
    </radialGradient>
    <linearGradient id="defitem3" gradientUnits="userSpaceOnUse" gradientTransform="translate(-151, -116)" x1="153" y1="119.557" x2="153" y2="116.444" spreadMethod="pad" >
      <stop stop-color="#ffffff" offset="0" stop-opacity="1" />
      <stop stop-color="#dddddd" offset="1" stop-opacity="1" />
    </linearGradient>
    <linearGradient id="defitem4" gradientUnits="userSpaceOnUse" gradientTransform="translate(-151.444, -116.444)" x1="154.101" y1="119.101" x2="151.9" y2="116.9" spreadMethod="pad" >
      <stop stop-color="#bbbbbb" offset="0" stop-opacity="1" />
      <stop stop-color="#616161" offset="1" stop-opacity="1" />
    </linearGradient>
    <linearGradient id="defitem5" gradientUnits="userSpaceOnUse" gradientTransform="translate(-151, -108)" x1="153" y1="111.557" x2="153" y2="108.444" spreadMethod="pad" >
      <stop stop-color="#ffffff" offset="0" stop-opacity="1" />
      <stop stop-color="#dddddd" offset="1" stop-opacity="1" />
    </linearGradient>
    <linearGradient id="defitem6" gradientUnits="userSpaceOnUse" gradientTransform="translate(-151.444, -108.444)" x1="154.101" y1="111.101" x2="151.9" y2="108.9" spreadMethod="pad" >
      <stop stop-color="#bbbbbb" offset="0" stop-opacity="1" />
      <stop stop-color="#616161" offset="1" stop-opacity="1" />
    </linearGradient>
    <linearGradient id="defitem7" gradientUnits="userSpaceOnUse" gradientTransform="translate(-151, -100)" x1="153" y1="103.557" x2="153" y2="100.444" spreadMethod="pad" >
      <stop stop-color="#ffffff" offset="0" stop-opacity="1" />
      <stop stop-color="#dddddd" offset="1" stop-opacity="1" />
    </linearGradient>
    <linearGradient id="defitem8" gradientUnits="userSpaceOnUse" gradientTransform="translate(-151.444, -100.444)" x1="154.101" y1="103.101" x2="151.9" y2="100.901" spreadMethod="pad" >
      <stop stop-color="#bbbbbb" offset="0" stop-opacity="1" />
      <stop stop-color="#616161" offset="1" stop-opacity="1" />
    </linearGradient>
    <linearGradient id="defitem9" gradientUnits="userSpaceOnUse" gradientTransform="translate(-151, -92)" x1="153" y1="95.5566" x2="153" y2="92.4442" spreadMethod="pad" >
      <stop stop-color="#ffffff" offset="0" stop-opacity="1" />
      <stop stop-color="#dddddd" offset="1" stop-opacity="1" />
    </linearGradient>
    <linearGradient id="defitem10" gradientUnits="userSpaceOnUse" gradientTransform="translate(-151.444, -92.444)" x1="154.101" y1="95.1006" x2="151.9" y2="92.9005" spreadMethod="pad" >
      <stop stop-color="#bbbbbb" offset="0" stop-opacity="1" />
      <stop stop-color="#616161" offset="1" stop-opacity="1" />
    </linearGradient>
    <linearGradient id="defitem11" gradientUnits="userSpaceOnUse" gradientTransform="translate(-151, -84)" x1="153" y1="87.5566" x2="153" y2="84.4442" spreadMethod="pad" >
      <stop stop-color="#ffffff" offset="0" stop-opacity="1" />
      <stop stop-color="#dddddd" offset="1" stop-opacity="1" />
    </linearGradient>
    <linearGradient id="defitem12" gradientUnits="userSpaceOnUse" gradientTransform="translate(-151.444, -84.444)" x1="154.101" y1="87.1006" x2="151.9" y2="84.9005" spreadMethod="pad" >
      <stop stop-color="#bbbbbb" offset="0" stop-opacity="1" />
      <stop stop-color="#616161" offset="1" stop-opacity="1" />
    </linearGradient>
    <linearGradient id="defitem13" gradientUnits="userSpaceOnUse" gradientTransform="translate(-151, -76)" x1="153" y1="79.5566" x2="153" y2="76.4442" spreadMethod="pad" >
      <stop stop-color="#ffffff" offset="0" stop-opacity="1" />
      <stop stop-color="#dddddd" offset="1" stop-opacity="1" />
    </linearGradient>
    <linearGradient id="defitem14" gradientUnits="userSpaceOnUse" gradientTransform="translate(-151.444, -76.444)" x1="154.101" y1="79.1006" x2="151.9" y2="76.9005" spreadMethod="pad" >
      <stop stop-color="#bbbbbb" offset="0" stop-opacity="1" />
      <stop stop-color="#616161" offset="1" stop-opacity="1" />
    </linearGradient>
    <linearGradient id="defitem15" gradientUnits="userSpaceOnUse" gradientTransform="matrix(1.46491 0 0 1.93107 -41.3837 -23.1729)" x1="60.125" y1="12" x2="60.125" y2="20" spreadMethod="pad" >
      <stop stop-color="#a3c8ff" offset="0" stop-opacity="1" />
      <stop stop-color="#bfd9ff" offset="1" stop-opacity="1" />
    </linearGradient>
    <linearGradient id="defitem16" gradientUnits="userSpaceOnUse" gradientTransform="matrix(0.974325 0 0 0.974325 -10.4595 -10.4595)" x1="58.7437" y1="78.4113" x2="58.7437" y2="-15.6886" spreadMethod="pad" >
      <stop stop-color="#810000" offset="0" stop-opacity="1" />
      <stop stop-color="#c50000" offset="1" stop-opacity="1" />
    </linearGradient>
    <filter id="defitem17" filterUnits="objectBoundingBox" primitiveUnits="objectBoundingBox" x="-0.11641854000" y="-0.14803563000" width="1.23283710000" height="1.29607130000">
     <feGaussianBlur result="" in="" x="-0.11641854000" y="-0.14803563000" width="1.23283710000" height="1.29607130000" stdDeviation="0.0618013, 0.0789982"/>
    </filter>
    <linearGradient id="defitem18" gradientUnits="userSpaceOnUse" gradientTransform="matrix(1.0976 0 0 0.911083 -28.6375 -11.0714)" x1="26.0911" y1="14.8567" x2="31.5007" y2="14.8567" spreadMethod="pad" >
      <stop stop-color="#ffffff" offset="0" stop-opacity="1" />
      <stop stop-color="#ffffff" offset="1" stop-opacity="0" />
    </linearGradient>
    <filter id="defitem19" filterUnits="objectBoundingBox" primitiveUnits="objectBoundingBox" x="-0.13991599000" y="-0.13874064000" width="1.27983200000" height="1.27748130000">
     <feGaussianBlur result="" in="" x="-0.13991599000" y="-0.13874064000" width="1.27983200000" height="1.27748130000" stdDeviation="0.0605996, 0.0730052"/>
    </filter>
    <linearGradient id="defitem20" gradientUnits="userSpaceOnUse" gradientTransform="matrix(1.0976 0 0 0.911083 -28.6375 -11.0714)" x1="26.0911" y1="14.8567" x2="31.5007" y2="14.8567" spreadMethod="pad" >
      <stop stop-color="#765c44" offset="0" stop-opacity="1" />
      <stop stop-color="#765c44" offset="1" stop-opacity="0" />
    </linearGradient>
    <filter id="defitem21" filterUnits="objectBoundingBox" primitiveUnits="objectBoundingBox" x="-0.13991599000" y="-0.13874064000" width="1.27983200000" height="1.27748130000">
     <feGaussianBlur result="" in="" x="-0.13991599000" y="-0.13874064000" width="1.27983200000" height="1.27748130000" stdDeviation="0.0605996, 0.0730052"/>
    </filter>
    <linearGradient id="defitem22" gradientUnits="userSpaceOnUse" gradientTransform="translate(-28.6375, -11.0714)" x1="304.887" y1="385.861" x2="345.62" y2="384.624" spreadMethod="pad" >
      <stop stop-color="#765c44" offset="0" stop-opacity="1" />
      <stop stop-color="#765c44" offset="1" stop-opacity="0" />
    </linearGradient>
    <filter id="defitem23" filterUnits="objectBoundingBox" primitiveUnits="objectBoundingBox" x="-0.13991599000" y="-0.13874064000" width="1.27983200000" height="1.27748130000">
     <feGaussianBlur result="" in="" x="-0.13991599000" y="-0.13874064000" width="1.27983200000" height="1.27748130000" stdDeviation="0.0605996, 0.0730052"/>
    </filter>
    <linearGradient id="defitem24" gradientUnits="userSpaceOnUse" gradientTransform="matrix(0.974325 0 0 0.974325 -17.8968 -17.8968)" x1="55.007" y1="88.461" x2="55.007" y2="36.6558" spreadMethod="pad" >
      <stop stop-color="#ff0000" offset="0" stop-opacity="1" />
      <stop stop-color="#7f0000" offset="1" stop-opacity="1" />
    </linearGradient>
    <linearGradient id="defitem25" gradientUnits="userSpaceOnUse" gradientTransform="translate(-28.9375, -11.0714)" x1="31.9062" y1="13.5103" x2="34.8751" y2="13.5103" spreadMethod="reflect" >
      <stop stop-color="#ff8787" offset="0" stop-opacity="1" />
      <stop stop-color="#ff8787" offset="1" stop-opacity="0" />
    </linearGradient>
    <filter id="defitem26" filterUnits="objectBoundingBox" primitiveUnits="objectBoundingBox" x="-0.13991599000" y="-0.13874064000" width="1.27983200000" height="1.27748130000">
     <feGaussianBlur result="" in="" x="-0.13991599000" y="-0.13874064000" width="1.27983200000" height="1.27748130000" stdDeviation="0.0605996, 0.0730052"/>
    </filter>
    <radialGradient id="defitem27" gradientUnits="userSpaceOnUse" gradientTransform="matrix(0.457606 0 0 0.782313 42.7313 -47.3075)" cx="-36.5928" cy="90.073" fx="-36.5928" fy="90.073" r="25.9862" spreadMethod="pad" >
      <stop stop-color="#000000" offset="0" stop-opacity="1" />
      <stop stop-color="#000000" offset="1" stop-opacity="0" />
    </radialGradient>
    <filter id="defitem28" filterUnits="objectBoundingBox" primitiveUnits="objectBoundingBox" x="-0.11641854000" y="-0.14803563000" width="1.23283710000" height="1.29607130000">
     <feGaussianBlur result="" in="" x="-0.11641854000" y="-0.14803563000" width="1.23283710000" height="1.29607130000" stdDeviation="0.0618013, 0.0789982"/>
    </filter>
    <linearGradient id="defitem29" gradientUnits="userSpaceOnUse" gradientTransform="matrix(1 0 0 1 -28.9375 -11.0714)" x1="31.9062" y1="13.5103" x2="34.8751" y2="13.5103" spreadMethod="reflect" >
      <stop stop-color="#ffffff" offset="0" stop-opacity="1" />
      <stop stop-color="#790000" offset="1" stop-opacity="0" />
    </linearGradient>
    <filter id="defitem30" filterUnits="objectBoundingBox" primitiveUnits="objectBoundingBox" x="-0.13991599000" y="-0.13874064000" width="1.27983200000" height="1.27748130000">
     <feGaussianBlur result="" in="" x="-0.13991599000" y="-0.13874064000" width="1.27983200000" height="1.27748130000" stdDeviation="0.0605996, 0.0730052"/>
    </filter>
    <linearGradient id="defitem31" gradientUnits="userSpaceOnUse" gradientTransform="matrix(1 0 0 1 -28.9375 -11.0714)" x1="31.9062" y1="13.5103" x2="34.8751" y2="13.5103" spreadMethod="reflect" >
      <stop stop-color="#ffffff" offset="0" stop-opacity="1" />
      <stop stop-color="#790000" offset="1" stop-opacity="0" />
    </linearGradient>
    <filter id="defitem32" filterUnits="objectBoundingBox" primitiveUnits="objectBoundingBox" x="-0.13991599000" y="-0.13874064000" width="1.27983200000" height="1.27748130000">
     <feGaussianBlur result="" in="" x="-0.13991599000" y="-0.13874064000" width="1.27983200000" height="1.27748130000" stdDeviation="0.0605996, 0.0730052"/>
    </filter>
    <linearGradient id="defitem33" gradientUnits="userSpaceOnUse" gradientTransform="matrix(1 0 0 1 -18.3684 -18.3684)" x1="60" y1="92.9731" x2="57.4344" y2="55.0794" spreadMethod="pad" >
      <stop stop-color="#fff5e4" offset="0" stop-opacity="1" />
      <stop stop-color="#ffecd0" offset="0.25" stop-opacity="1" />
      <stop stop-color="#ffd390" offset="0.5" stop-opacity="1" />
      <stop stop-color="#ffc46a" offset="1" stop-opacity="1" />
    </linearGradient>
    <filter id="defitem34" filterUnits="objectBoundingBox" primitiveUnits="objectBoundingBox" x="-0.10000000000" y="-0.10000000000" width="1.20000000000" height="1.20000000000">
     <feGaussianBlur result="" in="" x="-0.10000000000" y="-0.10000000000" width="1.20000000000" height="1.20000000000" stdDeviation="0.00686900460"/>
    </filter>
    <linearGradient id="defitem35" gradientUnits="userSpaceOnUse" gradientTransform="matrix(1.38127 0 0 0.687274 -17.8838 -17.8341)" x1="68.313" y1="109.976" x2="51.5448" y2="32.7509" spreadMethod="pad" >
      <stop stop-color="#f4f5f8" offset="0" stop-opacity="1" />
      <stop stop-color="#fdfdfe" offset="1" stop-opacity="1" />
    </linearGradient>
    <linearGradient id="defitem36" gradientUnits="userSpaceOnUse" gradientTransform="matrix(0.974325 0 0 0.974325 -17.9015 -17.9015)" x1="47.2641" y1="21.7385" x2="47.2641" y2="70.3573" spreadMethod="pad" >
      <stop stop-color="#ff8787" offset="0" stop-opacity="1" />
      <stop stop-color="#ff8787" offset="1" stop-opacity="0" />
    </linearGradient>
    <linearGradient id="defitem37" gradientUnits="userSpaceOnUse" gradientTransform="matrix(0.974325 0 0 0.974325 -17.8716 -16.6162)" x1="57.6542" y1="71.8249" x2="56.771" y2="20.3626" spreadMethod="pad" >
      <stop stop-color="#ffffff" offset="0" stop-opacity="0" />
      <stop stop-color="#ffffff" offset="1" stop-opacity="1" />
    </linearGradient>
  </defs>
  <g id="layer1">
    <path id="path7865-4" fill="url(#defitem0)" fill-rule="nonzero" d="M122.285 6.12243L4.99173 6.08897L0 0L36.7094 0.023951L36.7432 0.023951L122.285 0.023951L122.285 6.12248Z"  transform="translate(4.45122, 6.04531)" />
    <path id="path7865" fill="url(#defitem1)" fill-rule="nonzero" d="M6.23854 121.367C6.23854 121.367 2.19303 121.367 2.19303 121.367L2.19106 121.367L0.13626 120.547L0.089248 87.1965L0.089248 87.1639L0 0L6.31081 7.85018L6.23854 121.367Z"  transform="translate(3.97358, 5.16466)" />
    <path id="path34" fill="#ffffff" fill-opacity="1" fill-rule="nonzero" d="M0 0L0 114.184C0 114.184 77.8966 114.184 77.8966 114.184L119.087 114.645L118.424 80.69L118.424 5.32907e-15Z"  transform="translate(9.3939, 11.8281)" />
    <path id="path59" fill="url(#defitem2)" fill-rule="nonzero" d="M1.22688 0C0.550871 0 0 0.458307 0 1.02072L0 111.259C0 111.823 0.550871 112.28 1.22688 112.28L115.614 112.21L115.327 1.02072C115.327 0.458307 114.777 0 114.1 0Z"  transform="translate(11.3263, 13.7605)" />
    <g id="g201" transform="translate(17.1233, 104.581)">
      <circle id="circle208" r="1.6pt" cx="1.6pt" cy="1.6pt" transform="matrix(1.93235 0 0 1.93235 2.22045e-15 1.77636e-14)" fill="url(#defitem3)" fill-rule="nonzero"/>
      <circle id="circle215" r="1.2448pt" cx="1.2448pt" cy="1.2448pt" transform="matrix(1.93235 0 0 1.93235 0.857964 0.857964)" fill="url(#defitem4)" fill-rule="nonzero"/>
    </g>
    <g id="g217" transform="translate(17.1233, 89.1222)">
      <circle id="circle224" r="1.6pt" cx="1.6pt" cy="1.6pt" transform="matrix(1.93235 0 0 1.93235 2.22045e-15 1.77636e-14)" fill="url(#defitem5)" fill-rule="nonzero"/>
      <circle id="circle231" r="1.2448pt" cx="1.2448pt" cy="1.2448pt" transform="matrix(1.93235 0 0 1.93235 0.857964 0.857964)" fill="url(#defitem6)" fill-rule="nonzero"/>
    </g>
    <g id="g233" transform="translate(17.1233, 73.6634)">
      <circle id="circle240" r="1.6pt" cx="1.6pt" cy="1.6pt" transform="matrix(1.93235 0 0 1.93235 2.22045e-15 0)" fill="url(#defitem7)" fill-rule="nonzero"/>
      <circle id="circle247" r="1.2448pt" cx="1.2448pt" cy="1.2448pt" transform="matrix(1.93235 0 0 1.93235 0.857964 0.857964)" fill="url(#defitem8)" fill-rule="nonzero"/>
    </g>
    <g id="g249" transform="translate(17.1233, 58.2045)">
      <circle id="circle256" r="1.6pt" cx="1.6pt" cy="1.6pt" transform="matrix(1.93235 0 0 1.93235 2.22045e-15 8.88178e-15)" fill="url(#defitem9)" fill-rule="nonzero"/>
      <circle id="circle263" r="1.2448pt" cx="1.2448pt" cy="1.2448pt" transform="matrix(1.93235 0 0 1.93235 0.857964 0.857964)" fill="url(#defitem10)" fill-rule="nonzero"/>
    </g>
    <g id="g265" transform="translate(17.1233, 42.7457)">
      <circle id="circle272" r="1.6pt" cx="1.6pt" cy="1.6pt" transform="matrix(1.93235 0 0 1.93235 2.22045e-15 0)" fill="url(#defitem11)" fill-rule="nonzero"/>
      <circle id="circle279" r="1.2448pt" cx="1.2448pt" cy="1.2448pt" transform="matrix(1.93235 0 0 1.93235 0.857964 0.857964)" fill="url(#defitem12)" fill-rule="nonzero"/>
    </g>
    <g id="g281" transform="translate(17.1233, 27.2869)">
      <circle id="circle288" r="1.6pt" cx="1.6pt" cy="1.6pt" transform="matrix(1.93235 0 0 1.93235 2.22045e-15 0)" fill="url(#defitem13)" fill-rule="nonzero"/>
      <circle id="circle295" r="1.2448pt" cx="1.2448pt" cy="1.2448pt" transform="matrix(1.93235 0 0 1.93235 0.857964 0.857964)" fill="url(#defitem14)" fill-rule="nonzero"/>
    </g>
    <rect id="rect299" transform="translate(33.5483, 73.6634)" fill="#a7a7a7" fill-opacity="1" fill-rule="nonzero" width="74.6566pt" height="1.54588pt"/>
    <rect id="rect317" transform="translate(55.7703, 28.3183)" fill="#a7a7a7" fill-opacity="1" fill-rule="nonzero" width="1.54588pt" height="77.7464pt"/>
    <rect id="rect319" transform="translate(86.6879, 28.3183)" fill="#a7a7a7" fill-opacity="1" fill-rule="nonzero" width="1.54588pt" height="78.069pt"/>
    <rect id="rect321" transform="translate(117.606, 28.2531)" fill="#a7a7a7" fill-opacity="1" fill-rule="nonzero" width="1.54588pt" height="74.1137pt"/>
    <path id="path327" fill="#a7a7a7" fill-opacity="1" fill-rule="nonzero" d="M86.303 92.6206L1.13512 92.6206L1.13512 0.964798L85.1341 0.964798L85.1341 92.6329L86.2692 92.6329L86.2692 0L0 0L0 93.5854L86.303 93.5854Z"  transform="translate(32.5821, 27.2869)" />
    <rect id="rect297-9" transform="translate(33.742, 42.6068)" fill="#a7a7a7" fill-opacity="1" fill-rule="nonzero" width="74.5799pt" height="1.54486pt"/>
    <rect id="rect299-2" transform="translate(33.742, 58.0554)" fill="#a7a7a7" fill-opacity="1" fill-rule="nonzero" width="74.4186pt" height="1.54486pt"/>
    <rect id="rect66-8" transform="translate(32.9986, 89.0276)" fill="url(#defitem15)" fill-rule="nonzero" width="74.7104pt" height="12.3589pt"/>
    <rect id="rect385-49" transform="translate(117.373, 89.0276)" fill="#80b3ff" fill-opacity="1" fill-rule="nonzero" width="1.54486pt" height="13.9037pt"/>
    <rect id="rect297-7" transform="translate(32.6394, 104.492)" fill="#a7a7a7" fill-opacity="1" fill-rule="nonzero" width="26.1427pt" height="1.54486pt"/>
    <rect id="rect371-5" transform="translate(55.5994, 89.0276)" fill="#80b3ff" fill-opacity="1" fill-rule="nonzero" width="1.54486pt" height="13.8618pt"/>
    <rect id="rect385-0" transform="translate(86.4235, 89.5847)" fill="#80b3ff" fill-opacity="1" fill-rule="nonzero" width="1.54486pt" height="13.9037pt"/>
    <rect id="rect377-6" transform="translate(33.3403, 89.0276)" fill="#ff0000" fill-opacity="1" fill-rule="nonzero" width="74.8211pt" height="1.54486pt"/>
    <rect id="rect375-0" transform="translate(33.0594, 104.476)" fill="#ff0000" fill-opacity="1" fill-rule="nonzero" width="74.7378pt" height="1.54486pt"/>
    <rect id="rect385-44" transform="translate(117.491, 89.1725)" fill="#ff0000" fill-opacity="1" fill-rule="nonzero" width="1.54486pt" height="13.9037pt"/>
    <rect id="rect385-6" transform="translate(32.3134, 88.9717)" fill="#ff0000" fill-opacity="1" fill-rule="nonzero" width="1.54486pt" height="13.9037pt"/>
    <g id="g3770" transform="translate(68.4841, 64.5715)">
      <g id="g3232" transform="translate(-68.4841, -64.5715)">
      </g>
      <g id="g4591" transform="translate(-68.4841, -64.5715)">
      </g>
      <path id="path3300" fill="url(#defitem16)" fill-rule="nonzero" d="M20.384 0.0144768C19.3684 0.0225767 18.3961 0.426815 17.6741 1.14104L1.14104 17.6741C-0.380349 19.1961 -0.380344 21.6631 1.14104 23.1851L25.9254 48L1.14104 72.8149C-0.380344 74.3369 -0.380344 76.8039 1.14104 78.3259L17.6741 94.859C19.1961 96.3803 21.6631 96.3803 23.1852 94.859L48 70.0746L72.8149 94.859C74.3369 96.3803 76.8039 96.3803 78.3259 94.859L94.859 78.3259C96.3803 76.8039 96.3803 74.3369 94.859 72.8149L70.0746 48L94.859 23.1852C96.3803 21.6631 96.3803 19.1961 94.859 17.6741L78.3259 1.14104C76.8039 -0.380344 74.3369 -0.380348 72.8149 1.14104L48 25.9254L23.1852 1.14104C22.4407 0.404435 21.4311 -0.00158125 20.384 0.0144768ZM50.7707 61.7928C50.0386 61.0528 49.0409 60.6365 48 60.6365C46.9591 60.6365 45.9614 61.0528 45.2293 61.7928Z"  transform="matrix(0.50654 0 0 0.50654 0.342054 1.9803)" />
      <path id="path3507" fill="#000000" fill-opacity="1" fill-rule="evenodd" stroke="#000000" stroke-opacity="1" stroke-width="0.493731" stroke-linecap="butt" stroke-linejoin="miter" stroke-miterlimit="2" filter="url(#defitem17)" d="M0 40.6586L26.163 13.7886L51.9723 40.3051L26.163 0Z"  transform="matrix(0.493535 0 0 0.493535 11.6469 29.3187)" />
      <path id="path5159" fill="url(#defitem18)" fill-rule="evenodd" filter="url(#defitem19)" d="M3.0625 4.92855L5.9375 1.55355C4.88629 -0.142206 2.00236 -0.734466 0 1.24105L2.8125 4.61605Z"  transform="matrix(0 0.920068 -0.920068 0 48.1807 37.5376)" />
      <path id="path3485" fill="url(#defitem20)" fill-rule="evenodd" filter="url(#defitem21)" d="M3.0625 4.92855L5.9375 1.55355C4.88629 -0.142206 2.00236 -0.734466 0 1.24105L2.8125 4.61605Z"  transform="matrix(0.908641 0 0 -0.908641 7.98762 50.1441)" />
      <path id="path3493" fill="url(#defitem22)" fill-rule="evenodd" filter="url(#defitem23)" d="M3.0625 4.92855L5.9375 1.55355C4.88629 -0.142206 2.00236 -0.734466 0 1.24105L2.8125 4.61605Z"  transform="matrix(0 0.833167 0.833167 0 1.09486 37.7867)" />
      <path id="rect2323" fill="url(#defitem24)" fill-rule="nonzero" d="M68.1208 0L40.5627 27.5581L13.0047 4e-06L7e-06 13.0047L27.5581 40.5627L0 68.1208L13.0047 81.1255L40.5627 53.5674L68.1208 81.1255L81.1255 68.1208L53.5674 40.5627L81.1255 13.0046Z"  transform="matrix(0.50654 0 0 0.50654 4.10933 5.74757)" />
      <path id="path3487" fill="url(#defitem25)" fill-rule="evenodd" filter="url(#defitem26)" d="M3.0625 4.92855L5.9375 1.55355C4.8863 -0.142206 2.00236 -0.734466 0 1.24105L2.8125 4.61605Z"  transform="matrix(0.833167 0 0 -0.833167 36.3354 50.2668)" />
      <path id="path3565" fill="url(#defitem27)" fill-rule="evenodd" filter="url(#defitem28)" d="M0 40.6586L26.163 13.7886L51.9723 40.3051L26.163 0Z"  transform="matrix(0.493535 0 0 -0.493535 11.647 23.037)" />
      <path id="path3403" fill="url(#defitem29)" fill-rule="evenodd" filter="url(#defitem30)" d="M3.0625 4.92855L5.9375 1.55355C4.88629 -0.142206 2.00236 -0.734466 0 1.24105L2.8125 4.61605Z"  transform="matrix(0.757693 0 0 0.757693 8.4203 2.57563)" />
      <path id="path3481" fill="url(#defitem31)" fill-rule="evenodd" filter="url(#defitem32)" d="M3.0625 4.92855L5.9375 1.55355C4.8863 -0.142206 2.00236 -0.734466 0 1.24105L2.8125 4.61605Z"  transform="matrix(0.77789 0 0 0.77789 36.4939 2.60846)" />
      <path id="path3328" fill="none" stroke="url(#defitem33)" stroke-opacity="1" stroke-width="1.53953" stroke-linecap="round" stroke-linejoin="round" filter="url(#defitem34)" d="M69.9159 0L41.6316 28.2843L13.3473 0L0 13.3473L28.2843 41.6316L0 69.9159L13.3473 83.2632L41.6316 54.9789L69.9159 83.2632L83.2632 69.9159L54.9789 41.6316L83.2632 13.3473Z"  transform="matrix(0.493535 0 0 0.493535 4.10933 5.74757)" />
      <path id="path3374" fill="url(#defitem35)" fill-rule="nonzero" d="M13.0029 0L12.2721 0.730744L0 13.0029L12.7593 1.2179L40.577 27.6236L67.8696 1.2179L78.802 12.1503C78.7064 12.6449 78.5773 13.1245 78.4366 13.6118L66.5916 27.4055C55.9088 32.7313 41.0131 37.9846 24.9984 38.0013L25.2724 38.2753C25.7319 38.2807 26.1806 38.3058 26.6426 38.3058C42.7053 38.3058 53.7505 34.9979 64.4603 29.6586L80.2026 13.9163C80.2674 13.6917 80.3275 13.47 80.3853 13.2465C80.4529 12.9849 80.5164 12.7215 80.568 12.4548L68.1132 0L67.3824 0.730745L40.577 27.6236Z"  transform="matrix(0.50654 0 0 0.50654 4.10274 5.71582)" />
      <path id="path5167" fill="url(#defitem36)" fill-rule="nonzero" d="M13.0029 0L0 13.0029L25.2724 38.2753C25.7319 38.2807 26.1806 38.3058 26.6426 38.3058C42.7053 38.3058 53.7505 34.9979 64.4603 29.6586L80.2026 13.9163C80.3433 13.429 80.4724 12.9493 80.568 12.4548L68.1132 0L40.558 27.5551Z"  transform="matrix(0.50654 0 0 0.50654 4.11171 5.74996)" />
      <path id="path3399" fill="url(#defitem37)" fill-rule="nonzero" d="M13.0029 0L12.2721 0.730744L0 13.0029L12.7593 1.2179L40.5835 29.4618L40.5771 27.6236L40.5868 29.4477L67.8696 1.2179L78.802 12.1503C78.7064 12.6449 78.5773 13.1245 78.4367 13.6118L66.5917 27.4055C55.9088 32.7313 41.0131 37.9846 24.9984 38.0013L25.2724 38.2753C25.7319 38.2807 26.1806 38.3058 26.6426 38.3058C42.7053 38.3058 53.7505 34.9979 64.4603 29.6586L80.2026 13.9163C80.2674 13.6917 80.3275 13.47 80.3853 13.2465C80.4529 12.9849 80.5164 12.7215 80.568 12.4548L68.1132 0L67.3824 0.730745L40.577 27.6236Z"  transform="matrix(0.50654 0 0 0.50654 4.10274 5.71582)" />
      <g id="g5368" transform="translate(-68.4841, -64.5715)">
      </g>
    </g>
  </g>
</svg>
