<?xml version="1.0" standalone="no"?>
<!DOCTYPE svg PUBLIC "-//W3C//DTD SVG 20010904//EN" "http://www.w3.org/TR/2001/REC-SVG-20010904/DTD/svg10.dtd">
<!-- Created using Karbon14, part of koffice: http://www.koffice.org/karbon -->
<svg xmlns="http://www.w3.org/2000/svg" xmlns:xlink="http://www.w3.org/1999/xlink" width="128px" height="128px">
  <defs>
    <linearGradient id="defitem113" gradientUnits="userSpaceOnUse" x1="37.4135" y1="36.4431" x2="37.4135" y2="1.527" >
      <stop stop-color="#cacacd" offset="0" stop-opacity="1" />
      <stop stop-color="#dfdfe2" offset="0.5" stop-opacity="1" />
      <stop stop-color="#f2f2f2" offset="1" stop-opacity="1" />
    </linearGradient>
    <linearGradient id="defitem114" gradientUnits="userSpaceOnUse" x1="93.3226" y1="32.0814" x2="93.3226" y2="19.558" >
      <stop stop-color="#6e6e6e" offset="0" stop-opacity="1" />
      <stop stop-color="#ffffff" offset="1" stop-opacity="1" />
    </linearGradient>
    <linearGradient id="defitem115" gradientUnits="userSpaceOnUse" x1="20.7419" y1="53.2258" x2="20.7419" y2="40.3226" >
      <stop stop-color="#0056ae" offset="0" stop-opacity="1" />
      <stop stop-color="#0056ae" offset="1" stop-opacity="1" />
    </linearGradient>
    <linearGradient id="defitem116" gradientUnits="userSpaceOnUse" x1="20.7419" y1="52.1506" x2="20.7419" y2="40.3066" >
      <stop stop-color="#0867ef" offset="0" stop-opacity="1" />
      <stop stop-color="#aecffb" offset="1" stop-opacity="1" />
    </linearGradient>
    <linearGradient id="defitem117" gradientUnits="userSpaceOnUse" x1="22.3195" y1="48.9323" x2="19.2635" y2="36.5382" >
      <stop stop-color="#b3b3b3" offset="0" stop-opacity="1" />
      <stop stop-color="#ffffff" offset="0.528796" stop-opacity="1" />
      <stop stop-color="#c4c4c4" offset="1" stop-opacity="1" />
    </linearGradient>
    <linearGradient id="defitem118" gradientUnits="userSpaceOnUse" x1="63.9721" y1="26.799" x2="63.9721" y2="-4.626" >
      <stop stop-color="#cacacd" offset="0" stop-opacity="1" />
      <stop stop-color="#dfdfe2" offset="0.5" stop-opacity="1" />
      <stop stop-color="#f2f2f2" offset="1" stop-opacity="1" />
    </linearGradient>
    <linearGradient id="defitem119" gradientUnits="userSpaceOnUse" x1="114.29" y1="22.873" x2="114.29" y2="11.602" >
      <stop stop-color="#6e6e6e" offset="0" stop-opacity="1" />
      <stop stop-color="#ffffff" offset="1" stop-opacity="1" />
    </linearGradient>
    <linearGradient id="defitem120" gradientUnits="userSpaceOnUse" x1="48.9677" y1="41.9032" x2="48.9677" y2="30.2903" >
      <stop stop-color="#0056ae" offset="0" stop-opacity="1" />
      <stop stop-color="#0056ae" offset="1" stop-opacity="1" />
    </linearGradient>
    <linearGradient id="defitem121" gradientUnits="userSpaceOnUse" x1="48.9677" y1="40.9355" x2="48.9677" y2="30.2759" >
      <stop stop-color="#0867ef" offset="0" stop-opacity="1" />
      <stop stop-color="#aecffb" offset="1" stop-opacity="1" />
    </linearGradient>
    <linearGradient id="defitem122" gradientUnits="userSpaceOnUse" x1="50.3875" y1="38.0391" x2="47.6371" y2="26.884" >
      <stop stop-color="#b3b3b3" offset="0" stop-opacity="1" />
      <stop stop-color="#ffffff" offset="0.528796" stop-opacity="1" />
      <stop stop-color="#c4c4c4" offset="1" stop-opacity="1" />
    </linearGradient>
    <linearGradient id="defitem123" gradientUnits="userSpaceOnUse" x1="55.4783" y1="50.6296" x2="55.4783" y2="13.618" >
      <stop stop-color="#cacacd" offset="0" stop-opacity="1" />
      <stop stop-color="#dfdfe2" offset="0.5" stop-opacity="1" />
      <stop stop-color="#f2f2f2" offset="1" stop-opacity="1" />
    </linearGradient>
    <linearGradient id="defitem124" gradientUnits="userSpaceOnUse" x1="114.742" y1="46.0063" x2="114.742" y2="32.7312" >
      <stop stop-color="#6e6e6e" offset="0" stop-opacity="1" />
      <stop stop-color="#ffffff" offset="1" stop-opacity="1" />
    </linearGradient>
    <linearGradient id="defitem125" gradientUnits="userSpaceOnUse" x1="37.9677" y1="66.4194" x2="37.9677" y2="56.4194" >
      <stop stop-color="#0056ae" offset="0" stop-opacity="1" />
      <stop stop-color="#0056ae" offset="1" stop-opacity="1" />
    </linearGradient>
    <linearGradient id="defitem126" gradientUnits="userSpaceOnUse" x1="37.9677" y1="65.586" x2="37.9677" y2="56.407" >
      <stop stop-color="#0867ef" offset="0" stop-opacity="1" />
      <stop stop-color="#aecffb" offset="1" stop-opacity="1" />
    </linearGradient>
    <linearGradient id="defitem127" gradientUnits="userSpaceOnUse" x1="39.1904" y1="63.0919" x2="36.8219" y2="53.4865" >
      <stop stop-color="#b3b3b3" offset="0" stop-opacity="1" />
      <stop stop-color="#ffffff" offset="0.528796" stop-opacity="1" />
      <stop stop-color="#c4c4c4" offset="1" stop-opacity="1" />
    </linearGradient>
    <radialGradient id="defitem128" gradientUnits="userSpaceOnUse" cx="64" cy="122.812" fx="64" fy="122.812" r="64" >
      <stop stop-color="#000000" offset="0" stop-opacity="1" />
      <stop stop-color="#000000" offset="1" stop-opacity="0" />
    </radialGradient>
  </defs>
  <g id="Layer">
    <g id="layer1">
      <path id="path3945" fill="#000000" d=""  />
    </g>
    <path id="path3081" fill="#000000" d=""  />
    <g id="layer2">
    </g>
    <g id="layer3">
    </g>
    <g id="layer4">
    </g>
    <g id="layer8">
      <path id="path2167" fill="#000000" d=""  />
      <g id="g2466">
        <path fill="#000000" stroke-width="1.6158" stroke-linecap="round" stroke-linejoin="round" d="M4.72851 100C3.77437 100 3 99.0826 3 97.9522L3 11.725C3 10.595 3.77437 9.677 4.72851 9.677L101.271 9.677C102.226 9.677 103 10.595 103 11.725L103 97.9522C103 99.0826 102.226 100 101.271 100L4.72851 100Z"  />
        <path fill="url(#defitem113)" stroke-width="1.6129" stroke-linecap="round" stroke-linejoin="round" d="M6.28566 98.3871C5.3623 98.3871 4.6129 97.5024 4.6129 96.4124L4.6129 13.265C4.6129 12.175 5.3623 11.29 6.28566 11.29L99.7143 11.29C100.638 11.29 101.387 12.175 101.387 13.265L101.387 96.4124C101.387 97.5024 100.638 98.3871 99.7143 98.3871L6.28566 98.3871Z"  />
        <g id="g10952">
          <path id="path2972" fill="url(#defitem114)" stroke-width="3.66229" d="M98.1613 22.581C98.1613 25.253 95.995 27.419 93.3226 27.419C90.6503 27.419 88.4839 25.253 88.4839 22.581"  />
        </g>
        <path id="rect3821" fill="none" stroke-width="1.6129" stroke-linecap="round" stroke-linejoin="round" d="M6.27621 11.29C5.34951 11.29 4.61291 12.162 4.61291 13.256L4.61291 96.4214C4.61291 97.5154 5.34951 98.3871 6.27621 98.3871L99.7238 98.3871C100.651 98.3871 101.387 97.5154 101.387 96.4214L101.387 13.256C101.387 12.162 100.651 11.29 99.7238 11.29L6.27621 11.29ZM7.41029 14.239L98.5897 14.239C99.4701 14.239 100.177 15.065 100.177 16.091L100.177 95.3251C100.177 96.3516 99.4701 97.1774 98.5897 97.1774L7.41029 97.1774C6.52992 97.1774 5.82258 96.3516 5.82258 95.3251L5.82258 16.091C5.82258 15.065 6.52992 14.239 7.41029 14.239Z"  />
        <path id="rect8568" fill="#ffffff" stroke-width="0.547395" stroke-linecap="round" stroke-linejoin="round" d="M4.61291 37.0968L101.387 37.0968L101.387 98.3871L4.61291 98.3871L4.61291 37.0968Z"  />
        <g id="g3550">
          <path fill="url(#defitem115)" stroke-width="0.134409" stroke-linecap="round" stroke-linejoin="round" d="M15.3579 53.2258C14.7686 53.2258 14.2903 52.6776 14.2903 52.0021L14.2903 41.5463C14.2903 40.8708 14.7686 40.3226 15.3579 40.3226L26.1259 40.3226C26.7153 40.3226 27.1936 40.8708 27.1936 41.5463L27.1936 52.0021C27.1936 52.6776 26.7153 53.2258 26.1259 53.2258L15.3579 53.2258Z"  />
          <path fill="url(#defitem116)" stroke-width="0.134409" stroke-linecap="round" stroke-linejoin="round" d="M15.8396 52.1505C15.5779 52.1505 15.3656 51.9094 15.3656 51.6124L15.3656 41.936C15.3656 41.639 15.5779 41.3979 15.8396 41.3979L25.6443 41.3979C25.9059 41.3979 26.1183 41.639 26.1183 41.936L26.1183 51.6124C26.1183 51.9094 25.9059 52.1505 25.6443 52.1505L15.8396 52.1505Z"  />
          <path id="path15077" fill="url(#defitem117)" stroke-width="0.537634" d="M15.3656 41.3802L26.1151 41.4277L26.1183 44.6237L22.8925 44.6237L18.6829 46.7742L15.4472 46.7742L15.3656 41.3802Z"  fill-rule="evenodd" />
          <path id="path15079" fill="#0056ae" stroke-width="0.537634" d="M15.3181 48.9247L18.5914 48.9247L22.8925 46.7742L26.1626 46.7742L26.1183 44.6237L22.8925 44.6237L18.5914 46.7742L15.4116 46.7742L15.3181 48.9247Z"  fill-rule="evenodd" />
        </g>
      </g>
      <path fill="#ffffff" d="M35 104C35 104 35 81.6 35 54C35 26.4 35 4 35 4L123 4C123 4 123 26.4 123 54C123 81.6 123 104 123 104L35 104Z"  />
      <path id="path2276" fill="#ffffff" fill-opacity="0.756881" stroke-width="0.5" stroke-linecap="round" stroke-linejoin="round" d="M43.3717 -294.529L43.3717 -297.365L43.3717 -294.529Z"  />
      <path id="path3242" fill="#ffffff" fill-opacity="0.756881" stroke-width="0.5" stroke-linecap="round" stroke-linejoin="round" d="M-91.596 -286.899L-91.596 -289.735L-91.596 -286.899Z"  />
      <path id="path2985" fill="#ffffff" fill-opacity="0.756881" stroke-width="0.5" stroke-linecap="round" stroke-linejoin="round" d="M-250.94 -357.57L-250.94 -360.406L-250.94 -357.57Z"  />
      <path id="path3206" fill="#ffffff" fill-opacity="0.756881" stroke-width="0.5" stroke-linecap="round" stroke-linejoin="round" d="M-372.22 -445.489L-372.22 -448.325L-372.22 -445.489Z"  />
      <g id="g11367">
      </g>
      <g id="layer5">
      </g>
      <path id="path3946" fill="#ffffff" fill-opacity="0.756881" stroke-width="0.5" stroke-linecap="round" stroke-linejoin="round" d="M-121.96 -378.756L-121.96 -381.592L-121.96 -378.756Z"  />
      <path id="path1561" fill="#ffffff" fill-opacity="0.756881" stroke-width="0.5" stroke-linecap="round" stroke-linejoin="round" d="M-215.963 -303.763L-215.963 -305.312L-215.963 -303.763Z"  />
      <path fill="#ffffff" stroke-width="3.632" stroke-linecap="round" stroke-linejoin="round" d="M-274.302 -361.205L-274.302 -361.205L-273.288 -361.205L-273.288 -361.205L-274.302 -361.205Z"  />
      <path fill="#ffffff" stroke-width="3.632" stroke-linecap="round" stroke-linejoin="round" d="M-309.952 -389.142L-309.952 -389.142L-308.937 -389.142L-308.937 -389.142L-309.952 -389.142Z"  />
      <path id="path2494" fill="#ffffff" fill-opacity="0.756881" stroke-width="0.5" stroke-linecap="round" stroke-linejoin="round" d="M-471.254 -463.447L-471.254 -466.283L-471.254 -463.447Z"  />
      <g id="g4640">
      </g>
      <g id="g4646">
      </g>
      <g id="g4730">
      </g>
      <g id="g4748">
      </g>
      <path id="path6923" fill="#ffffff" fill-opacity="0.756881" stroke-width="0.5" stroke-linecap="round" stroke-linejoin="round" d="M50.9181 -127.778L50.9181 -130.614L50.9181 -127.778Z"  />
      <path id="path6925" fill="#ffffff" fill-opacity="0.756881" stroke-width="0.5" stroke-linecap="round" stroke-linejoin="round" d="M-108.426 -198.449L-108.426 -201.285L-108.426 -198.449Z"  />
      <path id="path6927" fill="#ffffff" fill-opacity="0.756881" stroke-width="0.5" stroke-linecap="round" stroke-linejoin="round" d="M-229.706 -286.368L-229.706 -289.204L-229.706 -286.368Z"  />
      <g id="g6929">
      </g>
      <g id="g6931">
      </g>
      <path id="path6933" fill="#ffffff" fill-opacity="0.756881" stroke-width="0.5" stroke-linecap="round" stroke-linejoin="round" d="M20.5539 -219.635L20.5539 -222.471L20.5539 -219.635Z"  />
      <path id="path6935" fill="#ffffff" fill-opacity="0.756881" stroke-width="0.5" stroke-linecap="round" stroke-linejoin="round" d="M-73.4485 -144.642L-73.4485 -146.191L-73.4485 -144.642Z"  />
      <path fill="#ffffff" stroke-width="3.632" stroke-linecap="round" stroke-linejoin="round" d="M-131.788 -202.084L-131.788 -202.084L-130.773 -202.084L-130.773 -202.084L-131.788 -202.084Z"  />
      <path fill="#ffffff" stroke-width="3.632" stroke-linecap="round" stroke-linejoin="round" d="M-167.438 -230.021L-167.438 -230.021L-166.423 -230.021L-166.423 -230.021L-167.438 -230.021Z"  />
      <path id="path6941" fill="#ffffff" fill-opacity="0.756881" stroke-width="0.5" stroke-linecap="round" stroke-linejoin="round" d="M-328.74 -304.326L-328.74 -307.162L-328.74 -304.326Z"  />
      <g id="g6943">
      </g>
      <g id="g6945">
      </g>
      <g id="g6947">
      </g>
      <g id="g6949">
      </g>
      <path id="path7559" fill="#ffffff" fill-opacity="0.756881" stroke-width="0.5" stroke-linecap="round" stroke-linejoin="round" d="M0.681684 -180.552L0.681684 -183.388L0.681684 -180.552Z"  />
      <path id="path7561" fill="#ffffff" fill-opacity="0.756881" stroke-width="0.5" stroke-linecap="round" stroke-linejoin="round" d="M-158.662 -251.223L-158.662 -254.059L-158.662 -251.223Z"  />
      <path id="path7563" fill="#ffffff" fill-opacity="0.756881" stroke-width="0.5" stroke-linecap="round" stroke-linejoin="round" d="M-279.942 -339.142L-279.942 -341.978L-279.942 -339.142Z"  />
      <g id="g7565">
      </g>
      <g id="g7567">
      </g>
      <path id="path7569" fill="#ffffff" fill-opacity="0.756881" stroke-width="0.5" stroke-linecap="round" stroke-linejoin="round" d="M-29.6825 -272.408L-29.6825 -275.244L-29.6825 -272.408Z"  />
      <path id="path7571" fill="#ffffff" fill-opacity="0.756881" stroke-width="0.5" stroke-linecap="round" stroke-linejoin="round" d="M-123.685 -197.415L-123.685 -198.965L-123.685 -197.415Z"  />
      <path fill="#ffffff" stroke-width="3.632" stroke-linecap="round" stroke-linejoin="round" d="M-182.025 -254.857L-182.025 -254.857L-181.01 -254.857L-181.01 -254.857L-182.025 -254.857Z"  />
      <path fill="#ffffff" stroke-width="3.632" stroke-linecap="round" stroke-linejoin="round" d="M-217.674 -282.794L-217.674 -282.794L-216.659 -282.794L-216.659 -282.794L-217.674 -282.794Z"  />
      <path id="path7577" fill="#ffffff" fill-opacity="0.756881" stroke-width="0.5" stroke-linecap="round" stroke-linejoin="round" d="M-378.976 -357.099L-378.976 -359.936L-378.976 -357.099Z"  />
      <g id="g7579">
      </g>
      <g id="g7581">
      </g>
      <g id="g7583">
      </g>
      <g id="g7585">
      </g>
      <path id="path8394" fill="#ffffff" fill-opacity="0.756881" stroke-width="0.5" stroke-linecap="round" stroke-linejoin="round" d="M-392.329 -54.961L-392.329 -57.797L-392.329 -54.961Z"  />
      <path id="path8396" fill="#ffffff" fill-opacity="0.756881" stroke-width="0.5" stroke-linecap="round" stroke-linejoin="round" d="M-551.673 -125.632L-551.673 -128.468L-551.673 -125.632Z"  />
      <path id="path8398" fill="#ffffff" fill-opacity="0.756881" stroke-width="0.5" stroke-linecap="round" stroke-linejoin="round" d="M-672.953 -213.551L-672.953 -216.387L-672.953 -213.551Z"  />
      <g id="g8400">
      </g>
      <g id="g8402">
      </g>
      <path id="path8404" fill="#ffffff" fill-opacity="0.756881" stroke-width="0.5" stroke-linecap="round" stroke-linejoin="round" d="M-422.693 -146.817L-422.693 -149.653L-422.693 -146.817Z"  />
      <path id="path8406" fill="#ffffff" fill-opacity="0.756881" stroke-width="0.5" stroke-linecap="round" stroke-linejoin="round" d="M-516.696 -71.824L-516.696 -73.374L-516.696 -71.824Z"  />
      <path fill="#ffffff" stroke-width="3.632" stroke-linecap="round" stroke-linejoin="round" d="M-575.036 -129.266L-575.036 -129.266L-574.021 -129.266L-574.021 -129.266L-575.036 -129.266Z"  />
      <path fill="#ffffff" stroke-width="3.632" stroke-linecap="round" stroke-linejoin="round" d="M-610.685 -157.203L-610.685 -157.203L-609.67 -157.203L-609.67 -157.203L-610.685 -157.203Z"  />
      <path id="path8412" fill="#ffffff" fill-opacity="0.756881" stroke-width="0.5" stroke-linecap="round" stroke-linejoin="round" d="M-771.987 -231.509L-771.987 -234.345L-771.987 -231.509Z"  />
      <g id="g8414">
      </g>
      <g id="g8416">
      </g>
      <g id="g8418">
      </g>
      <g id="g8420">
      </g>
      <path id="path9104" fill="#ffffff" fill-opacity="0.756881" stroke-width="0.5" stroke-linecap="round" stroke-linejoin="round" d="M-136.182 124.056L-136.182 121.219L-136.182 124.056Z"  />
      <path id="path9106" fill="#ffffff" fill-opacity="0.756881" stroke-width="0.5" stroke-linecap="round" stroke-linejoin="round" d="M-295.526 53.3846L-295.526 50.5483L-295.526 53.3846Z"  />
      <path id="path9108" fill="#ffffff" fill-opacity="0.756881" stroke-width="0.5" stroke-linecap="round" stroke-linejoin="round" d="M-416.806 -34.534L-416.806 -37.371L-416.806 -34.534Z"  />
      <g id="g9110">
      </g>
      <g id="g9112">
      </g>
      <path id="path9114" fill="#ffffff" fill-opacity="0.756881" stroke-width="0.5" stroke-linecap="round" stroke-linejoin="round" d="M-166.547 32.199L-166.547 29.3628L-166.547 32.199Z"  />
      <path id="path9116" fill="#ffffff" fill-opacity="0.756881" stroke-width="0.5" stroke-linecap="round" stroke-linejoin="round" d="M-260.549 107.192L-260.549 105.642L-260.549 107.192Z"  />
      <path fill="#ffffff" stroke-width="3.632" stroke-linecap="round" stroke-linejoin="round" d="M-318.889 49.75L-318.889 49.75L-317.874 49.75L-317.874 49.75L-318.889 49.75Z"  />
      <path fill="#ffffff" stroke-width="3.632" stroke-linecap="round" stroke-linejoin="round" d="M-354.538 21.813L-354.538 21.813L-353.523 21.813L-353.523 21.813L-354.538 21.813Z"  />
      <path id="path9122" fill="#ffffff" fill-opacity="0.756881" stroke-width="0.5" stroke-linecap="round" stroke-linejoin="round" d="M-515.84 -52.492L-515.84 -55.329L-515.84 -52.492Z"  />
      <g id="g9124">
      </g>
      <g id="g9126">
      </g>
      <g id="g9128">
      </g>
      <g id="g9130">
      </g>
      <path id="path3633" fill="#ffffff" fill-opacity="0.756881" stroke-width="0.5" stroke-linecap="round" stroke-linejoin="round" d="M-238.329 -112.983L-238.329 -115.819L-238.329 -112.983Z"  />
      <path id="path3635" fill="#ffffff" fill-opacity="0.756881" stroke-width="0.5" stroke-linecap="round" stroke-linejoin="round" d="M-397.673 -183.654L-397.673 -186.49L-397.673 -183.654Z"  />
      <path id="path3637" fill="#ffffff" fill-opacity="0.756881" stroke-width="0.5" stroke-linecap="round" stroke-linejoin="round" d="M-518.953 -271.573L-518.953 -274.409L-518.953 -271.573Z"  />
      <g id="g3639">
      </g>
      <g id="g3641">
      </g>
      <path id="path3643" fill="#ffffff" fill-opacity="0.756881" stroke-width="0.5" stroke-linecap="round" stroke-linejoin="round" d="M-268.693 -204.839L-268.693 -207.675L-268.693 -204.839Z"  />
      <path id="path3645" fill="#ffffff" fill-opacity="0.756881" stroke-width="0.5" stroke-linecap="round" stroke-linejoin="round" d="M-362.696 -129.846L-362.696 -131.396L-362.696 -129.846Z"  />
      <path fill="#ffffff" stroke-width="3.632" stroke-linecap="round" stroke-linejoin="round" d="M-421.036 -187.288L-421.036 -187.288L-420.021 -187.288L-420.021 -187.288L-421.036 -187.288Z"  />
      <path fill="#ffffff" stroke-width="3.632" stroke-linecap="round" stroke-linejoin="round" d="M-456.685 -215.225L-456.685 -215.225L-455.67 -215.225L-455.67 -215.225L-456.685 -215.225Z"  />
      <path id="path3651" fill="#ffffff" fill-opacity="0.756881" stroke-width="0.5" stroke-linecap="round" stroke-linejoin="round" d="M-617.987 -289.531L-617.987 -292.367L-617.987 -289.531Z"  />
      <g id="g3653">
      </g>
      <g id="g3655">
      </g>
      <g id="g3657">
      </g>
      <g id="g3659">
      </g>
      <path id="path10461" fill="#ffffff" fill-opacity="0.756881" stroke-width="0.5" stroke-linecap="round" stroke-linejoin="round" d="M-236.292 -113.921L-236.292 -116.757L-236.292 -113.921Z"  />
      <path id="path10463" fill="#ffffff" fill-opacity="0.756881" stroke-width="0.5" stroke-linecap="round" stroke-linejoin="round" d="M-395.636 -184.592L-395.636 -187.428L-395.636 -184.592Z"  />
      <path id="path10465" fill="#ffffff" fill-opacity="0.756881" stroke-width="0.5" stroke-linecap="round" stroke-linejoin="round" d="M-516.916 -272.511L-516.916 -275.347L-516.916 -272.511Z"  />
      <g id="g10467">
      </g>
      <g id="g10469">
      </g>
      <path id="path10471" fill="#ffffff" fill-opacity="0.756881" stroke-width="0.5" stroke-linecap="round" stroke-linejoin="round" d="M-266.656 -205.778L-266.656 -208.614L-266.656 -205.778Z"  />
      <path id="path10473" fill="#ffffff" fill-opacity="0.756881" stroke-width="0.5" stroke-linecap="round" stroke-linejoin="round" d="M-360.658 -130.785L-360.658 -132.334L-360.658 -130.785Z"  />
      <path fill="#ffffff" stroke-width="3.632" stroke-linecap="round" stroke-linejoin="round" d="M-418.998 -188.227L-418.998 -188.227L-417.983 -188.227L-417.983 -188.227L-418.998 -188.227Z"  />
      <path fill="#ffffff" stroke-width="3.632" stroke-linecap="round" stroke-linejoin="round" d="M-454.648 -216.164L-454.648 -216.164L-453.633 -216.164L-453.633 -216.164L-454.648 -216.164Z"  />
      <path id="path10479" fill="#ffffff" fill-opacity="0.756881" stroke-width="0.5" stroke-linecap="round" stroke-linejoin="round" d="M-615.95 -290.469L-615.95 -293.305L-615.95 -290.469Z"  />
      <g id="g10481">
      </g>
      <g id="g10483">
      </g>
      <g id="g10485">
      </g>
      <g id="g10487">
      </g>
      <path id="path2875" fill="#ffffff" fill-opacity="0.756881" stroke-width="0.5" stroke-linecap="round" stroke-linejoin="round" d="M67.5865 -167.944L67.5865 -170.78L67.5865 -167.944Z"  />
      <path id="path2879" fill="#ffffff" fill-opacity="0.756881" stroke-width="0.5" stroke-linecap="round" stroke-linejoin="round" d="M-67.3812 -160.314L-67.3812 -163.151L-67.3812 -160.314Z"  />
      <path id="path2881" fill="#ffffff" fill-opacity="0.756881" stroke-width="0.5" stroke-linecap="round" stroke-linejoin="round" d="M-226.725 -230.985L-226.725 -233.822L-226.725 -230.985Z"  />
      <path id="path2883" fill="#ffffff" fill-opacity="0.756881" stroke-width="0.5" stroke-linecap="round" stroke-linejoin="round" d="M-348.005 -318.904L-348.005 -321.741L-348.005 -318.904Z"  />
      <g id="g2885">
      </g>
      <g id="g2887">
      </g>
      <path id="path2889" fill="#ffffff" fill-opacity="0.756881" stroke-width="0.5" stroke-linecap="round" stroke-linejoin="round" d="M-97.7454 -252.171L-97.7454 -255.007L-97.7454 -252.171Z"  />
      <path id="path2891" fill="#ffffff" fill-opacity="0.756881" stroke-width="0.5" stroke-linecap="round" stroke-linejoin="round" d="M-191.748 -177.178L-191.748 -178.727L-191.748 -177.178Z"  />
      <path fill="#ffffff" stroke-width="3.632" stroke-linecap="round" stroke-linejoin="round" d="M-250.088 -234.62L-250.088 -234.62L-249.073 -234.62L-249.073 -234.62L-250.088 -234.62Z"  />
      <path fill="#ffffff" stroke-width="3.632" stroke-linecap="round" stroke-linejoin="round" d="M-285.737 -262.557L-285.737 -262.557L-284.722 -262.557L-284.722 -262.557L-285.737 -262.557Z"  />
      <path id="path2897" fill="#ffffff" fill-opacity="0.756881" stroke-width="0.5" stroke-linecap="round" stroke-linejoin="round" d="M-447.039 -336.862L-447.039 -339.699L-447.039 -336.862Z"  />
      <g id="g2899">
      </g>
      <g id="g2901">
      </g>
      <g id="g2903">
      </g>
      <g id="g2905">
      </g>
      <path id="path2907" fill="#ffffff" fill-opacity="0.756881" stroke-width="0.5" stroke-linecap="round" stroke-linejoin="round" d="M75.1329 -1.193L75.1329 -4.03L75.1329 -1.193Z"  />
      <path id="path2909" fill="#ffffff" fill-opacity="0.756881" stroke-width="0.5" stroke-linecap="round" stroke-linejoin="round" d="M-84.2111 -71.864L-84.2111 -74.701L-84.2111 -71.864Z"  />
      <path id="path2911" fill="#ffffff" fill-opacity="0.756881" stroke-width="0.5" stroke-linecap="round" stroke-linejoin="round" d="M-205.491 -159.783L-205.491 -162.62L-205.491 -159.783Z"  />
      <g id="g2913">
      </g>
      <g id="g2915">
      </g>
      <path id="path2917" fill="#ffffff" fill-opacity="0.756881" stroke-width="0.5" stroke-linecap="round" stroke-linejoin="round" d="M44.7687 -93.05L44.7687 -95.886L44.7687 -93.05Z"  />
      <path id="path2919" fill="#ffffff" fill-opacity="0.756881" stroke-width="0.5" stroke-linecap="round" stroke-linejoin="round" d="M-49.2336 -18.057L-49.2336 -19.606L-49.2336 -18.057Z"  />
      <path fill="#ffffff" stroke-width="3.632" stroke-linecap="round" stroke-linejoin="round" d="M-107.574 -75.499L-107.574 -75.499L-106.559 -75.499L-106.559 -75.499L-107.574 -75.499Z"  />
      <path fill="#ffffff" stroke-width="3.632" stroke-linecap="round" stroke-linejoin="round" d="M-143.223 -103.436L-143.223 -103.436L-142.208 -103.436L-142.208 -103.436L-143.223 -103.436Z"  />
      <path id="path2925" fill="#ffffff" fill-opacity="0.756881" stroke-width="0.5" stroke-linecap="round" stroke-linejoin="round" d="M-304.525 -177.741L-304.525 -180.578L-304.525 -177.741Z"  />
      <g id="g2927">
      </g>
      <g id="g2929">
      </g>
      <g id="g2931">
      </g>
      <g id="g2933">
      </g>
      <path id="path4109" fill="#ffffff" fill-opacity="0.756881" stroke-width="0.5" stroke-linecap="round" stroke-linejoin="round" d="M-301.675 -420.182L-301.675 -424.032L-301.675 -420.182Z"  />
      <path id="path4111" fill="#ffffff" fill-opacity="0.756881" stroke-width="0.5" stroke-linecap="round" stroke-linejoin="round" d="M-484.904 -409.824L-484.904 -413.675L-484.904 -409.824Z"  />
      <path id="path4113" fill="#ffffff" fill-opacity="0.756881" stroke-width="0.5" stroke-linecap="round" stroke-linejoin="round" d="M-701.226 -505.765L-701.226 -509.616L-701.226 -505.765Z"  />
      <path id="path4115" fill="#ffffff" fill-opacity="0.756881" stroke-width="0.5" stroke-linecap="round" stroke-linejoin="round" d="M-865.873 -625.122L-865.873 -628.973L-865.873 -625.122Z"  />
      <g id="g4117">
      </g>
      <g id="g4119">
      </g>
      <path id="path4121" fill="#ffffff" fill-opacity="0.756881" stroke-width="0.5" stroke-linecap="round" stroke-linejoin="round" d="M-526.126 -534.526L-526.126 -538.377L-526.126 -534.526Z"  />
      <path id="path4123" fill="#ffffff" fill-opacity="0.756881" stroke-width="0.5" stroke-linecap="round" stroke-linejoin="round" d="M-653.742 -432.718L-653.742 -434.821L-653.742 -432.718Z"  />
      <path fill="#ffffff" stroke-width="3.632" stroke-linecap="round" stroke-linejoin="round" d="M-732.942 -510.7L-732.942 -510.7L-731.565 -510.7L-731.565 -510.7L-732.942 -510.7Z"  />
      <path fill="#ffffff" stroke-width="3.632" stroke-linecap="round" stroke-linejoin="round" d="M-781.339 -548.626L-781.339 -548.626L-779.961 -548.626L-779.961 -548.626L-781.339 -548.626Z"  />
      <path id="path4129" fill="#ffffff" fill-opacity="0.756881" stroke-width="0.5" stroke-linecap="round" stroke-linejoin="round" d="M-1000.32 -649.501L-1000.32 -653.352L-1000.32 -649.501Z"  />
      <g id="g4131">
      </g>
      <g id="g4133">
      </g>
      <g id="g4135">
      </g>
      <g id="g4137">
      </g>
      <path id="path4139" fill="#ffffff" fill-opacity="0.756881" stroke-width="0.5" stroke-linecap="round" stroke-linejoin="round" d="M-291.431 -193.805L-291.431 -197.656L-291.431 -193.805Z"  />
      <path id="path4141" fill="#ffffff" fill-opacity="0.756881" stroke-width="0.5" stroke-linecap="round" stroke-linejoin="round" d="M-507.752 -289.746L-507.752 -293.597L-507.752 -289.746Z"  />
      <path id="path4143" fill="#ffffff" fill-opacity="0.756881" stroke-width="0.5" stroke-linecap="round" stroke-linejoin="round" d="M-672.399 -409.103L-672.399 -412.954L-672.399 -409.103Z"  />
      <g id="g4145">
      </g>
      <g id="g4147">
      </g>
      <path id="path4149" fill="#ffffff" fill-opacity="0.756881" stroke-width="0.5" stroke-linecap="round" stroke-linejoin="round" d="M-332.652 -318.507L-332.652 -322.358L-332.652 -318.507Z"  />
      <path id="path4151" fill="#ffffff" fill-opacity="0.756881" stroke-width="0.5" stroke-linecap="round" stroke-linejoin="round" d="M-460.268 -216.699L-460.268 -218.802L-460.268 -216.699Z"  />
      <path fill="#ffffff" stroke-width="3.632" stroke-linecap="round" stroke-linejoin="round" d="M-539.469 -294.681L-539.469 -294.681L-538.091 -294.681L-538.091 -294.681L-539.469 -294.681Z"  />
      <path fill="#ffffff" stroke-width="3.632" stroke-linecap="round" stroke-linejoin="round" d="M-587.865 -332.607L-587.865 -332.607L-586.488 -332.607L-586.488 -332.607L-587.865 -332.607Z"  />
      <path id="path4157" fill="#ffffff" fill-opacity="0.756881" stroke-width="0.5" stroke-linecap="round" stroke-linejoin="round" d="M-806.845 -433.482L-806.845 -437.333L-806.845 -433.482Z"  />
      <g id="g4159">
      </g>
      <g id="g4161">
      </g>
      <g id="g4163">
      </g>
      <g id="g4165">
      </g>
      <path id="path4167" fill="#ffffff" fill-opacity="0.756881" stroke-width="0.5" stroke-linecap="round" stroke-linejoin="round" d="M-359.63 -265.449L-359.63 -269.3L-359.63 -265.449Z"  />
      <path id="path4169" fill="#ffffff" fill-opacity="0.756881" stroke-width="0.5" stroke-linecap="round" stroke-linejoin="round" d="M-575.952 -361.391L-575.952 -365.241L-575.952 -361.391Z"  />
      <path id="path4171" fill="#ffffff" fill-opacity="0.756881" stroke-width="0.5" stroke-linecap="round" stroke-linejoin="round" d="M-740.599 -480.747L-740.599 -484.598L-740.599 -480.747Z"  />
      <g id="g4173">
      </g>
      <g id="g4175">
      </g>
      <path id="path4177" fill="#ffffff" fill-opacity="0.756881" stroke-width="0.5" stroke-linecap="round" stroke-linejoin="round" d="M-400.852 -390.152L-400.852 -394.002L-400.852 -390.152Z"  />
      <path id="path4179" fill="#ffffff" fill-opacity="0.756881" stroke-width="0.5" stroke-linecap="round" stroke-linejoin="round" d="M-528.467 -288.343L-528.467 -290.446L-528.467 -288.343Z"  />
      <path fill="#ffffff" stroke-width="3.632" stroke-linecap="round" stroke-linejoin="round" d="M-607.668 -366.325L-607.668 -366.325L-606.291 -366.325L-606.291 -366.325L-607.668 -366.325Z"  />
      <path fill="#ffffff" stroke-width="3.632" stroke-linecap="round" stroke-linejoin="round" d="M-656.065 -404.252L-656.065 -404.252L-654.687 -404.252L-654.687 -404.252L-656.065 -404.252Z"  />
      <path id="path4186" fill="#ffffff" fill-opacity="0.756881" stroke-width="0.5" stroke-linecap="round" stroke-linejoin="round" d="M-875.045 -505.127L-875.045 -508.977L-875.045 -505.127Z"  />
      <g id="g4188">
      </g>
      <g id="g4190">
      </g>
      <g id="g4192">
      </g>
      <g id="g4194">
      </g>
      <path id="path4196" fill="#ffffff" fill-opacity="0.756881" stroke-width="0.5" stroke-linecap="round" stroke-linejoin="round" d="M-893.173 -94.95L-893.173 -98.8L-893.173 -94.95Z"  />
      <path id="path4198" fill="#ffffff" fill-opacity="0.756881" stroke-width="0.5" stroke-linecap="round" stroke-linejoin="round" d="M-1109.49 -190.891L-1109.49 -194.742L-1109.49 -190.891Z"  />
      <path id="path4200" fill="#ffffff" fill-opacity="0.756881" stroke-width="0.5" stroke-linecap="round" stroke-linejoin="round" d="M-1274.14 -310.248L-1274.14 -314.098L-1274.14 -310.248Z"  />
      <g id="g4202">
      </g>
      <g id="g4204">
      </g>
      <path id="path4206" fill="#ffffff" fill-opacity="0.756881" stroke-width="0.5" stroke-linecap="round" stroke-linejoin="round" d="M-934.394 -219.652L-934.394 -223.503L-934.394 -219.652Z"  />
      <path id="path4208" fill="#ffffff" fill-opacity="0.756881" stroke-width="0.5" stroke-linecap="round" stroke-linejoin="round" d="M-1062.01 -117.844L-1062.01 -119.947L-1062.01 -117.844Z"  />
      <path fill="#ffffff" stroke-width="3.632" stroke-linecap="round" stroke-linejoin="round" d="M-1141.21 -195.825L-1141.21 -195.825L-1139.83 -195.825L-1139.83 -195.825L-1141.21 -195.825Z"  />
      <path fill="#ffffff" stroke-width="3.632" stroke-linecap="round" stroke-linejoin="round" d="M-1189.61 -233.752L-1189.61 -233.752L-1188.23 -233.752L-1188.23 -233.752L-1189.61 -233.752Z"  />
      <path id="path4214" fill="#ffffff" fill-opacity="0.756881" stroke-width="0.5" stroke-linecap="round" stroke-linejoin="round" d="M-1408.59 -334.627L-1408.59 -338.478L-1408.59 -334.627Z"  />
      <g id="g4216">
      </g>
      <g id="g4218">
      </g>
      <g id="g4220">
      </g>
      <g id="g4222">
      </g>
      <path id="path4224" fill="#ffffff" fill-opacity="0.756881" stroke-width="0.5" stroke-linecap="round" stroke-linejoin="round" d="M-545.434 148.078L-545.434 144.228L-545.434 148.078Z"  />
      <path id="path4226" fill="#ffffff" fill-opacity="0.756881" stroke-width="0.5" stroke-linecap="round" stroke-linejoin="round" d="M-761.755 52.1368L-761.755 48.2863L-761.755 52.1368Z"  />
      <path id="path4228" fill="#ffffff" fill-opacity="0.756881" stroke-width="0.5" stroke-linecap="round" stroke-linejoin="round" d="M-926.402 -67.22L-926.402 -71.07L-926.402 -67.22Z"  />
      <g id="g4230">
      </g>
      <g id="g4232">
      </g>
      <path id="path4234" fill="#ffffff" fill-opacity="0.756881" stroke-width="0.5" stroke-linecap="round" stroke-linejoin="round" d="M-586.655 23.376L-586.655 19.525L-586.655 23.376Z"  />
      <path id="path4236" fill="#ffffff" fill-opacity="0.756881" stroke-width="0.5" stroke-linecap="round" stroke-linejoin="round" d="M-714.271 125.184L-714.271 123.081L-714.271 125.184Z"  />
      <path fill="#ffffff" stroke-width="3.632" stroke-linecap="round" stroke-linejoin="round" d="M-793.472 47.2025L-793.472 47.2025L-792.094 47.2025L-792.094 47.2025L-793.472 47.2025Z"  />
      <path fill="#ffffff" stroke-width="3.632" stroke-linecap="round" stroke-linejoin="round" d="M-841.868 9.276L-841.868 9.276L-840.491 9.276L-840.491 9.276L-841.868 9.276Z"  />
      <path id="path4242" fill="#ffffff" fill-opacity="0.756881" stroke-width="0.5" stroke-linecap="round" stroke-linejoin="round" d="M-1060.85 -91.599L-1060.85 -95.45L-1060.85 -91.599Z"  />
      <g id="g4244">
      </g>
      <g id="g4246">
      </g>
      <g id="g4248">
      </g>
      <g id="g4250">
      </g>
      <path id="path4252" fill="#ffffff" fill-opacity="0.756881" stroke-width="0.5" stroke-linecap="round" stroke-linejoin="round" d="M-684.106 -173.719L-684.106 -177.57L-684.106 -173.719Z"  />
      <path id="path4254" fill="#ffffff" fill-opacity="0.756881" stroke-width="0.5" stroke-linecap="round" stroke-linejoin="round" d="M-900.428 -269.661L-900.428 -273.511L-900.428 -269.661Z"  />
      <path id="path4256" fill="#ffffff" fill-opacity="0.756881" stroke-width="0.5" stroke-linecap="round" stroke-linejoin="round" d="M-1065.07 -389.017L-1065.07 -392.868L-1065.07 -389.017Z"  />
      <g id="g4258">
      </g>
      <g id="g4260">
      </g>
      <path id="path4262" fill="#ffffff" fill-opacity="0.756881" stroke-width="0.5" stroke-linecap="round" stroke-linejoin="round" d="M-725.328 -298.422L-725.328 -302.272L-725.328 -298.422Z"  />
      <path id="path4264" fill="#ffffff" fill-opacity="0.756881" stroke-width="0.5" stroke-linecap="round" stroke-linejoin="round" d="M-852.943 -196.613L-852.943 -198.716L-852.943 -196.613Z"  />
      <path fill="#ffffff" stroke-width="3.632" stroke-linecap="round" stroke-linejoin="round" d="M-932.144 -274.595L-932.144 -274.595L-930.766 -274.595L-930.766 -274.595L-932.144 -274.595Z"  />
      <path fill="#ffffff" stroke-width="3.632" stroke-linecap="round" stroke-linejoin="round" d="M-980.541 -312.522L-980.541 -312.522L-979.163 -312.522L-979.163 -312.522L-980.541 -312.522Z"  />
      <path id="path4270" fill="#ffffff" fill-opacity="0.756881" stroke-width="0.5" stroke-linecap="round" stroke-linejoin="round" d="M-1199.52 -413.397L-1199.52 -417.247L-1199.52 -413.397Z"  />
      <g id="g4272">
      </g>
      <g id="g4274">
      </g>
      <g id="g4276">
      </g>
      <g id="g4278">
      </g>
      <path id="path4284" fill="#ffffff" fill-opacity="0.756881" stroke-width="0.5" stroke-linecap="round" stroke-linejoin="round" d="M-681.34 -174.993L-681.34 -178.844L-681.34 -174.993Z"  />
      <path id="path4286" fill="#ffffff" fill-opacity="0.756881" stroke-width="0.5" stroke-linecap="round" stroke-linejoin="round" d="M-897.662 -270.935L-897.662 -274.785L-897.662 -270.935Z"  />
      <path id="path4288" fill="#ffffff" fill-opacity="0.756881" stroke-width="0.5" stroke-linecap="round" stroke-linejoin="round" d="M-1062.31 -390.291L-1062.31 -394.142L-1062.31 -390.291Z"  />
      <g id="g4290">
      </g>
      <g id="g4292">
      </g>
      <path id="path4294" fill="#ffffff" fill-opacity="0.756881" stroke-width="0.5" stroke-linecap="round" stroke-linejoin="round" d="M-722.562 -299.696L-722.562 -303.546L-722.562 -299.696Z"  />
      <path id="path4296" fill="#ffffff" fill-opacity="0.756881" stroke-width="0.5" stroke-linecap="round" stroke-linejoin="round" d="M-850.177 -197.887L-850.177 -199.991L-850.177 -197.887Z"  />
      <path fill="#ffffff" stroke-width="3.632" stroke-linecap="round" stroke-linejoin="round" d="M-929.378 -275.869L-929.378 -275.869L-928 -275.869L-928 -275.869L-929.378 -275.869Z"  />
      <path fill="#ffffff" stroke-width="3.632" stroke-linecap="round" stroke-linejoin="round" d="M-977.775 -313.796L-977.775 -313.796L-976.397 -313.796L-976.397 -313.796L-977.775 -313.796Z"  />
      <path id="path4302" fill="#ffffff" fill-opacity="0.756881" stroke-width="0.5" stroke-linecap="round" stroke-linejoin="round" d="M-1196.75 -414.671L-1196.75 -418.521L-1196.75 -414.671Z"  />
      <g id="g4304">
      </g>
      <g id="g4306">
      </g>
      <g id="g4308">
      </g>
      <g id="g4310">
      </g>
      <path id="path4356" fill="#ffffff" fill-opacity="0.756881" stroke-width="0.5" stroke-linecap="round" stroke-linejoin="round" d="M-268.802 -248.334L-268.802 -260.903L-268.802 -252.184L-268.802 -248.334Z"  />
      <path id="path4358" fill="#ffffff" fill-opacity="0.756881" stroke-width="0.5" stroke-linecap="round" stroke-linejoin="round" d="M-452.031 -237.976L-452.031 -241.826L-452.031 -237.976Z"  />
      <path id="path4360" fill="#ffffff" fill-opacity="0.756881" stroke-width="0.5" stroke-linecap="round" stroke-linejoin="round" d="M-668.353 -333.917L-668.353 -337.768L-668.353 -333.917Z"  />
      <path id="path4362" fill="#ffffff" fill-opacity="0.756881" stroke-width="0.5" stroke-linecap="round" stroke-linejoin="round" d="M-832.999 -453.274L-832.999 -457.124L-832.999 -453.274Z"  />
      <g id="g4364">
      </g>
      <g id="g4366">
      </g>
      <path id="path4368" fill="#ffffff" fill-opacity="0.756881" stroke-width="0.5" stroke-linecap="round" stroke-linejoin="round" d="M-493.253 -362.678L-493.253 -366.529L-493.253 -362.678Z"  />
      <path id="path4370" fill="#ffffff" fill-opacity="0.756881" stroke-width="0.5" stroke-linecap="round" stroke-linejoin="round" d="M-620.868 -260.869L-620.868 -262.973L-620.868 -260.869Z"  />
      <path fill="#ffffff" stroke-width="3.632" stroke-linecap="round" stroke-linejoin="round" d="M-700.069 -338.851L-700.069 -338.851L-698.691 -338.851L-698.691 -338.851L-700.069 -338.851Z"  />
      <path fill="#ffffff" stroke-width="3.632" stroke-linecap="round" stroke-linejoin="round" d="M-748.466 -376.778L-748.466 -376.778L-747.088 -376.778L-747.088 -376.778L-748.466 -376.778Z"  />
      <path id="path4376" fill="#ffffff" fill-opacity="0.756881" stroke-width="0.5" stroke-linecap="round" stroke-linejoin="round" d="M-967.445 -477.653L-967.445 -481.504L-967.445 -477.653Z"  />
      <g id="g4378">
      </g>
      <g id="g4380">
      </g>
      <g id="g4382">
      </g>
      <g id="g4384">
      </g>
      <path id="path4386" fill="#ffffff" fill-opacity="0.756881" stroke-width="0.5" stroke-linecap="round" stroke-linejoin="round" d="M-258.557 -21.957L-258.557 -25.807L-258.557 -21.957Z"  />
      <path id="path4388" fill="#ffffff" fill-opacity="0.756881" stroke-width="0.5" stroke-linecap="round" stroke-linejoin="round" d="M-474.879 -117.898L-474.879 -121.749L-474.879 -117.898Z"  />
      <path id="path4390" fill="#ffffff" fill-opacity="0.756881" stroke-width="0.5" stroke-linecap="round" stroke-linejoin="round" d="M-639.526 -237.255L-639.526 -241.105L-639.526 -237.255Z"  />
      <g id="g4392">
      </g>
      <g id="g4394">
      </g>
      <path id="path4396" fill="#ffffff" fill-opacity="0.756881" stroke-width="0.5" stroke-linecap="round" stroke-linejoin="round" d="M-299.779 -146.659L-299.779 -150.51L-299.779 -146.659Z"  />
      <path id="path4398" fill="#ffffff" fill-opacity="0.756881" stroke-width="0.5" stroke-linecap="round" stroke-linejoin="round" d="M-427.394 -44.85L-427.394 -46.954L-427.394 -44.85Z"  />
      <path fill="#ffffff" stroke-width="3.632" stroke-linecap="round" stroke-linejoin="round" d="M-506.595 -122.832L-506.595 -122.832L-505.217 -122.832L-505.217 -122.832L-506.595 -122.832Z"  />
      <path fill="#ffffff" stroke-width="3.632" stroke-linecap="round" stroke-linejoin="round" d="M-554.992 -160.759L-554.992 -160.759L-553.614 -160.759L-553.614 -160.759L-554.992 -160.759Z"  />
      <path id="path4404" fill="#ffffff" fill-opacity="0.756881" stroke-width="0.5" stroke-linecap="round" stroke-linejoin="round" d="M-773.971 -261.634L-773.971 -265.485L-773.971 -261.634Z"  />
      <g id="g4406">
      </g>
      <g id="g4408">
      </g>
      <g id="g4410">
      </g>
      <g id="g4412">
      </g>
      <g id="g2554">
        <path fill="#000000" stroke-width="1.45422" stroke-linecap="round" stroke-linejoin="round" d="M34.5557 84C33.6969 84 33 83.1743 33 82.157L33 4.553C33 3.535 33.6969 2.71 34.5557 2.71L121.444 2.71C122.303 2.71 123 3.535 123 4.553L123 82.157C123 83.1743 122.303 84 121.444 84L34.5557 84Z"  />
        <path fill="url(#defitem118)" stroke-width="1.45161" stroke-linecap="round" stroke-linejoin="round" d="M35.9571 82.5484C35.1261 82.5484 34.4516 81.7522 34.4516 80.7712L34.4516 5.939C34.4516 4.958 35.1261 4.161 35.9571 4.161L120.043 4.161C120.874 4.161 121.548 4.958 121.548 5.939L121.548 80.7712C121.548 81.7522 120.874 82.5484 120.043 82.5484L35.9571 82.5484Z"  />
        <g id="g2560">
          <path id="path2562" fill="url(#defitem119)" stroke-width="3.29606" d="M118.645 14.323C118.645 16.728 116.695 18.677 114.29 18.677C111.885 18.677 109.936 16.728 109.936 14.323"  />
        </g>
        <path id="path2564" fill="none" stroke-width="1.45161" stroke-linecap="round" stroke-linejoin="round" d="M35.9486 4.161C35.1146 4.161 34.4516 4.946 34.4516 5.93L34.4516 80.7792C34.4516 81.7638 35.1146 82.5484 35.9486 82.5484L120.051 82.5484C120.885 82.5484 121.548 81.7638 121.548 80.7792L121.548 5.93C121.548 4.946 120.885 4.161 120.051 4.161L35.9486 4.161ZM36.9693 6.815L119.031 6.815C119.823 6.815 120.46 7.558 120.46 8.482L120.46 79.7926C120.46 80.7164 119.823 81.4597 119.031 81.4597L36.9693 81.4597C36.1769 81.4597 35.5403 80.7164 35.5403 79.7926L35.5403 8.482C35.5403 7.558 36.1769 6.815 36.9693 6.815Z"  />
        <path id="path2566" fill="#ffffff" stroke-width="0.492655" stroke-linecap="round" stroke-linejoin="round" d="M34.4516 27.387L121.548 27.387L121.548 82.5484L34.4516 82.5484L34.4516 27.387Z"  />
        <g id="g2574">
          <path fill="url(#defitem120)" stroke-width="0.120968" stroke-linecap="round" stroke-linejoin="round" d="M44.1221 41.9032C43.5918 41.9032 43.1613 41.4098 43.1613 40.8019L43.1613 31.3916C43.1613 30.7837 43.5918 30.2903 44.1221 30.2903L53.8133 30.2903C54.3437 30.2903 54.7742 30.7837 54.7742 31.3916L54.7742 40.8019C54.7742 41.4098 54.3437 41.9032 53.8133 41.9032L44.1221 41.9032Z"  />
          <path fill="url(#defitem121)" stroke-width="0.120968" stroke-linecap="round" stroke-linejoin="round" d="M44.5556 40.9355C44.3201 40.9355 44.129 40.7185 44.129 40.4511L44.129 31.7424C44.129 31.4751 44.3201 31.2581 44.5556 31.2581L53.3799 31.2581C53.6153 31.2581 53.8064 31.4751 53.8064 31.7424L53.8064 40.4511C53.8064 40.7185 53.6153 40.9355 53.3799 40.9355L44.5556 40.9355Z"  />
          <path id="path2580" fill="url(#defitem122)" stroke-width="0.483871" d="M44.129 31.2421L53.8036 31.2849L53.8064 34.1613L50.9032 34.1613L47.1146 36.0968L44.2024 36.0968L44.129 31.2421Z"  fill-rule="evenodd" />
          <path id="path2582" fill="#0056ae" stroke-width="0.483871" d="M44.0863 38.0323L47.0323 38.0323L50.9032 36.0968L53.8463 36.0968L53.8064 34.1613L50.9032 34.1613L47.0323 36.0968L44.1704 36.0968L44.0863 38.0323Z"  fill-rule="evenodd" />
        </g>
      </g>
      <g id="g2544">
        <path fill="#000000" stroke-width="1.71274" stroke-linecap="round" stroke-linejoin="round" d="M20.8322 118C19.8208 118 19 117.028 19 115.829L19 24.429C19 23.231 19.8208 22.258 20.8322 22.258L123.168 22.258C124.179 22.258 125 23.231 125 24.429L125 115.829C125 117.028 124.179 118 123.168 118L20.8322 118Z"  />
        <path fill="url(#defitem123)" stroke-width="2" stroke-linecap="round" stroke-linejoin="round" d="M22.4828 116.29C21.504 116.29 20.7097 115.353 20.7097 114.197L20.7097 26.061C20.7097 24.906 21.504 23.968 22.4828 23.968L121.517 23.968C122.496 23.968 123.29 24.906 123.29 26.061L123.29 114.197C123.29 115.353 122.496 116.29 121.517 116.29L22.4828 116.29Z"  />
        <g id="g2498">
          <path id="path2500" fill="url(#defitem124)" stroke-width="3.88203" d="M119.871 35.9355C119.871 38.7682 117.575 41.0646 114.742 41.0646C111.909 41.0646 109.613 38.7682 109.613 35.9355"  />
        </g>
        <path id="path2502" fill="none" stroke-width="2" stroke-linecap="round" stroke-linejoin="round" d="M22.4728 23.968C21.4905 23.968 20.7097 24.892 20.7097 26.051L20.7097 114.207C20.7097 115.366 21.4905 116.29 22.4728 116.29L121.527 116.29C122.51 116.29 123.29 115.366 123.29 114.207L123.29 26.051C123.29 24.892 122.51 23.968 121.527 23.968L22.4728 23.968ZM23.6749 27.093L120.325 27.093C121.258 27.093 122.008 27.969 122.008 29.0567L122.008 113.045C122.008 114.133 121.258 115.008 120.325 115.008L23.6749 115.008C22.7417 115.008 21.9919 114.133 21.9919 113.045L21.9919 29.0567C21.9919 27.969 22.7417 27.093 23.6749 27.093Z"  />
        <path id="path2504" fill="#ffffff" stroke-width="0.67877" stroke-linecap="round" stroke-linejoin="round" d="M20.7097 51.3226L123.29 51.3226L123.29 116.29L20.7097 116.29L20.7097 51.3226Z"  />
        <g id="g3656">
          <g id="g2512">
            <path fill="url(#defitem125)" stroke-width="0.104167" stroke-linecap="round" stroke-linejoin="round" d="M33.7951 66.4194C33.3384 66.4194 32.9677 65.9945 32.9677 65.471L32.9677 57.3677C32.9677 56.8442 33.3384 56.4194 33.7951 56.4194L42.1403 56.4194C42.5971 56.4194 42.9677 56.8442 42.9677 57.3677L42.9677 65.471C42.9677 65.9945 42.5971 66.4194 42.1403 66.4194L33.7951 66.4194Z"  />
            <path fill="url(#defitem126)" stroke-width="0.104167" stroke-linecap="round" stroke-linejoin="round" d="M34.1684 65.586C33.9656 65.586 33.8011 65.3992 33.8011 65.1689L33.8011 57.6698C33.8011 57.4395 33.9656 57.2527 34.1684 57.2527L41.7671 57.2527C41.9699 57.2527 42.1344 57.4395 42.1344 57.6698L42.1344 65.1689C42.1344 65.3992 41.9699 65.586 41.7671 65.586L34.1684 65.586Z"  />
            <path id="path2518" fill="url(#defitem127)" stroke-width="0.416667" d="M33.8011 57.239L42.132 57.2758L42.1344 59.7527L39.6344 59.7527L36.372 61.4194L33.8643 61.4194L33.8011 57.239Z"  fill-rule="evenodd" />
            <path id="path2520" fill="#0056ae" stroke-width="0.416667" d="M33.7642 63.086L36.3011 63.086L39.6344 61.4194L42.1687 61.4194L42.1344 59.7527L39.6344 59.7527L36.3011 61.4194L33.8367 61.4194L33.7642 63.086Z"  fill-rule="evenodd" />
          </g>
        </g>
        <g id="g3664">
        </g>
        <g id="g3668">
        </g>
      </g>
      <g id="g3670">
        <g id="g3672">
          <path id="path3674" fill="#000000" d=""  />
        </g>
        <path id="path3676" fill="#000000" d=""  />
        <g id="g3678">
        </g>
        <g id="g3680">
        </g>
        <g id="g3682">
        </g>
        <g id="g3684">
          <path id="path3686" fill="#000000" d=""  />
          <path id="path1563" fill="url(#defitem128)" stroke-width="0" stroke-linecap="round" stroke-linejoin="round" d="M-2.68214e-05 122.812C-2.6833e-05 125.677 28.6538 128 64 128C99.3462 128 128 125.677 128 122.812"  />
        </g>
      </g>
    </g>
  </g>
</svg>
