<?xml version="1.0" standalone="no"?>
<!DOCTYPE svg PUBLIC "-//W3C//DTD SVG 20010904//EN" "http://www.w3.org/TR/2001/REC-SVG-20010904/DTD/svg10.dtd">
<!-- Created using Karbon14, part of koffice: http://www.koffice.org/karbon -->
<svg xmlns="http://www.w3.org/2000/svg" xmlns:xlink="http://www.w3.org/1999/xlink" width="128px" height="128px">
  <defs>
    <radialGradient id="defitem0" gradientUnits="userSpaceOnUse" cx="64.0002" cy="122.802" fx="64.0002" fy="122.802" r="61.5368" >
      <stop stop-color="#000000" offset="0" stop-opacity="1" />
      <stop stop-color="#000000" offset="1" stop-opacity="0" />
    </radialGradient>
    <linearGradient id="defitem1" gradientUnits="userSpaceOnUse" x1="64.0002" y1="128" x2="64.0002" y2="122.802" >
      <stop stop-color="#ffffff" offset="0" stop-opacity="1" />
      <stop stop-color="#ffffff" offset="1" stop-opacity="0" />
    </linearGradient>
    <linearGradient id="defitem2" gradientUnits="userSpaceOnUse" x1="64.0002" y1="117.18" x2="64.0002" y2="122.802" >
      <stop stop-color="#ffffff" offset="0" stop-opacity="1" />
      <stop stop-color="#ffffff" offset="1" stop-opacity="0" />
    </linearGradient>
    <radialGradient id="defitem3" gradientUnits="userSpaceOnUse" cx="4" cy="2.25" fx="4" fy="2.25" r="128.035" >
      <stop stop-color="#f2f2f2" offset="0" stop-opacity="1" />
      <stop stop-color="#c3c3c3" offset="1" stop-opacity="1" />
    </radialGradient>
    <radialGradient id="defitem4" gradientUnits="userSpaceOnUse" cx="99" cy="102.75" fx="99" fy="102.75" r="103.251" >
      <stop stop-color="#525456" offset="0" stop-opacity="1" />
      <stop stop-color="#89898c" offset="0.113661" stop-opacity="1" />
      <stop stop-color="#ebebeb" offset="0.202967" stop-opacity="1" />
      <stop stop-color="#f9f9f9" offset="0.2363" stop-opacity="1" />
      <stop stop-color="#ffffff" offset="0.2722" stop-opacity="1" />
      <stop stop-color="#f9f9f9" offset="0.5313" stop-opacity="1" />
      <stop stop-color="#ebebeb" offset="0.8449" stop-opacity="1" />
      <stop stop-color="#e1e2e2" offset="1" stop-opacity="1" />
    </radialGradient>
    <linearGradient id="defitem5" gradientUnits="userSpaceOnUse" x1="93.9437" y1="98.8216" x2="86.458" y2="91.3359" >
      <stop stop-color="#878985" offset="0" stop-opacity="1" />
      <stop stop-color="#8c8e89" offset="0.0072" stop-opacity="1" />
      <stop stop-color="#aaaca8" offset="0.0673" stop-opacity="1" />
      <stop stop-color="#c3c6c3" offset="0.1347" stop-opacity="1" />
      <stop stop-color="#dbdbda" offset="0.265258" stop-opacity="1" />
      <stop stop-color="#ebebeb" offset="0.376461" stop-opacity="1" />
      <stop stop-color="#f6f6f6" offset="0.487403" stop-opacity="1" />
      <stop stop-color="#fdfdfd" offset="0.632409" stop-opacity="1" />
      <stop stop-color="#ffffff" offset="1" stop-opacity="1" />
    </linearGradient>
  </defs>
  <g id="Layer">
    <g id="g2694">
      <g id="sombra">
        <path id="path1563" fill="url(#defitem0)" stroke-width="0" stroke-linecap="round" stroke-linejoin="round" d="M128 122.802C128 125.667 99.3468 127.99 64.0002 127.99C28.6539 127.99 0.000171 125.667 0.000171 122.802C0.000171 119.937 28.6539 117.614 64.0002 117.614C99.3468 117.614 128 119.937 128 122.802L128 122.802Z"  />
        <path id="path3251" fill="url(#defitem1)" stroke-width="0" stroke-linecap="round" stroke-linejoin="round" d="M128 122.802L0.00017 122.802C0.00017 125.673 28.6539 128 64.0002 128C99.3468 128 128 125.673 128 122.802L128 122.802Z"  />
        <path id="path2455" fill="url(#defitem2)" stroke-width="0" stroke-linecap="round" stroke-linejoin="round" d="M128 122.802L0.00017 122.802C0.00017 119.697 28.6539 117.18 64.0002 117.18C99.3468 117.18 128 119.697 128 122.802L128 122.802Z"  />
        <path id="path2440" fill="#ffffff" fill-opacity="0.5" stroke-width="0" stroke-linecap="round" stroke-linejoin="round" d="M64 117.184C29.7583 117.184 1.77662 119.526 0.0625 122.496C0.000125 122.59 0 122.714 0 122.809C0 122.988 0.094004 123.134 0.3125 123.309C0.425013 123.402 0.546842 123.499 0.71875 123.59C1.85178 124.191 4.27039 124.763 7.71875 125.278C9.68924 125.572 11.9852 125.833 14.5938 126.09C18.5066 126.474 23.1115 126.81 28.2188 127.09C33.326 127.37 38.9567 127.594 44.9688 127.746C50.9808 127.898 57.3726 127.996 64 127.996C70.6275 127.996 77.0192 127.898 83.0313 127.746C89.0433 127.594 94.6741 127.37 99.7813 127.09C104.888 126.81 109.462 126.474 113.375 126.09C115.984 125.833 118.311 125.572 120.281 125.278C123.73 124.763 126.117 124.191 127.25 123.59C127.422 123.499 127.544 123.402 127.656 123.309C127.766 123.222 127.851 123.147 127.906 123.059C127.962 122.97 128 122.898 128 122.809C128 122.714 127.969 122.59 127.906 122.496C126.192 119.526 98.242 117.184 64 117.184Z"  />
      </g>
    </g>
    <g id="Layer">
      <g id="foli">
        <path id="path6210" fill="#f6f6f6" fill-opacity="0.75" stroke="#000000" stroke-opacity="0.05" stroke-width="9.98122" stroke-linejoin="round" d="M19.0845 8.991L19.0845 111.922C19.0845 112.955 19.9229 113.793 20.956 113.793L76.3256 113.793C76.8215 113.793 77.2978 113.596 77.6487 113.245L108.367 82.5266C108.718 82.1757 108.915 81.6994 108.915 81.2035L108.915 8.991L19.0845 8.991Z"  />
        <path id="path6212" fill="none" stroke="#000000" stroke-opacity="0.1" stroke-width="7.48591" stroke-linejoin="round" d="M19.0845 8.991L19.0845 111.922C19.0845 112.955 19.9229 113.793 20.956 113.793L76.3256 113.793C76.8215 113.793 77.2978 113.596 77.6487 113.245L108.367 82.5266C108.718 82.1757 108.915 81.6994 108.915 81.2035L108.915 8.991L19.0845 8.991Z"  />
        <path id="path6214" fill="none" stroke="#000000" stroke-opacity="0.15" stroke-width="4.99061" stroke-linejoin="round" d="M19.0845 8.991L19.0845 111.922C19.0845 112.955 19.9229 113.793 20.956 113.793L76.3256 113.793C76.8215 113.793 77.2978 113.596 77.6487 113.245L108.367 82.5266C108.718 82.1757 108.915 81.6994 108.915 81.2035L108.915 8.991L19.0845 8.991Z"  />
        <path id="path6216" fill="none" stroke="#000000" stroke-opacity="0.2" stroke-width="2.4953" stroke-linejoin="round" d="M19.0845 8.991L19.0845 111.922C19.0845 112.955 19.9229 113.793 20.956 113.793L76.3256 113.793C76.8215 113.793 77.2978 113.596 77.6487 113.245L108.367 82.5266C108.718 82.1757 108.915 81.6994 108.915 81.2035L108.915 8.991L19.0845 8.991Z"  />
        <path id="path6218" fill="url(#defitem3)" d="M19.0845 8.991L19.0845 111.922C19.0845 112.955 19.9229 113.793 20.956 113.793L76.3256 113.793C76.8215 113.793 77.2978 113.596 77.6487 113.245L108.367 82.5266C108.718 82.1757 108.915 81.6994 108.915 81.2035L108.915 8.991L19.0845 8.991Z"  />
        <path id="path6220" fill="url(#defitem4)" d="M22.4824 11.69C21.9851 11.69 21.5798 12.096 21.5798 12.594L21.5798 110.19C21.5798 110.689 21.9851 111.094 22.4824 111.094L75.8885 111.094C76.1259 111.094 76.3587 110.998 76.5266 110.829L106.156 81.1633C106.325 80.9943 106.42 80.7621 106.42 80.5244L106.42 12.594C106.42 12.096 106.016 11.69 105.518 11.69L22.4824 11.69Z"  />
        <path id="path6222" fill="url(#defitem5)" d="M77.6487 113.245C77.6487 113.245 88.7971 103.968 93.9437 98.8216C99.0903 93.675 108.367 82.5266 108.367 82.5266C108.367 82.5266 96.0491 91.3357 86.4578 91.3357C86.4578 100.927 77.6487 113.245 77.6487 113.245Z"  />
      </g>
    </g>
    <path id="text3688" fill="#000000" stroke-width="1.24768" d="M31.6281 19.908L32.3664 19.908L32.3664 24.696L35.0238 24.696L35.0238 25.311L31.6281 25.311L31.6281 19.908M37.2206 21.725C36.8599 21.725 36.5748 21.865 36.3653 22.145C36.1557 22.422 36.0509 22.803 36.0509 23.288C36.0509 23.773 36.1545 24.156 36.3616 24.435C36.5712 24.713 36.8575 24.852 37.2206 24.852C37.5788 24.852 37.8627 24.712 38.0722 24.432C38.2818 24.152 38.3866 23.771 38.3866 23.288C38.3866 22.808 38.2818 22.428 38.0722 22.148C37.8627 21.866 37.5788 21.725 37.2206 21.725M37.2206 21.16C37.8054 21.16 38.2648 21.349 38.5986 21.725C38.9324 22.101 39.0994 22.622 39.0994 23.288C39.0994 23.952 38.9324 24.473 38.5986 24.852C38.2648 25.228 37.8054 25.416 37.2206 25.416C36.6333 25.416 36.1727 25.228 35.8389 24.852C35.5075 24.473 35.3418 23.952 35.3418 23.288C35.3418 22.622 35.5075 22.101 35.8389 21.725C36.1727 21.349 36.6333 21.16 37.2206 21.16M42.5828 21.881C42.5073 21.837 42.4244 21.806 42.3342 21.786C42.2465 21.765 42.149 21.754 42.0418 21.754C41.6617 21.754 41.3693 21.877 41.1646 22.123C40.9623 22.367 40.8612 22.718 40.8612 23.176L40.8612 25.311L40.185 25.311L40.185 21.258L40.8612 21.258L40.8612 21.888C41.0025 21.642 41.1865 21.46 41.4131 21.341C41.6398 21.221 41.9151 21.16 42.2392 21.16C42.2855 21.16 42.3367 21.164 42.3927 21.171C42.4488 21.176 42.5109 21.185 42.5791 21.197L42.5828 21.881M46.7973 23.118L46.7973 23.444L43.705 23.444C43.7342 23.902 43.8731 24.252 44.1217 24.493C44.3726 24.732 44.7211 24.852 45.1671 24.852C45.4254 24.852 45.6751 24.82 45.9164 24.758C46.1601 24.695 46.4013 24.601 46.6401 24.475L46.6401 25.105C46.3989 25.206 46.1515 25.283 45.8981 25.337C45.6447 25.39 45.3876 25.416 45.1268 25.416C44.4738 25.416 43.9559 25.228 43.5734 24.852C43.1932 24.475 43.0032 23.966 43.0032 23.324C43.0032 22.661 43.1835 22.135 43.5441 21.747C43.9072 21.356 44.3958 21.16 45.0099 21.16C45.5606 21.16 45.9956 21.337 46.3148 21.689C46.6365 22.039 46.7973 22.515 46.7973 23.118M46.1247 22.923C46.1198 22.558 46.0163 22.268 45.814 22.051C45.6142 21.833 45.3486 21.725 45.0172 21.725C44.6419 21.725 44.341 21.83 44.1143 22.04C43.8902 22.25 43.761 22.545 43.7269 22.926L46.1247 22.923M51.0885 22.036C51.2567 21.737 51.4577 21.516 51.6916 21.374C51.9256 21.232 52.2009 21.16 52.5177 21.16C52.9442 21.16 53.2731 21.309 53.5046 21.606C53.7361 21.9 53.8519 22.32 53.8519 22.865L53.8519 25.311L53.1757 25.311L53.1757 22.887C53.1757 22.498 53.1062 22.21 52.9673 22.022C52.8284 21.833 52.6164 21.739 52.3313 21.739C51.9828 21.739 51.7075 21.854 51.5052 22.083C51.303 22.312 51.2018 22.625 51.2018 23.02L51.2018 25.311L50.5256 25.311L50.5256 22.887C50.5256 22.496 50.4562 22.207 50.3173 22.022C50.1784 21.833 49.9639 21.739 49.674 21.739C49.3304 21.739 49.0574 21.855 48.8552 22.087C48.6529 22.316 48.5518 22.627 48.5518 23.02L48.5518 25.311L47.8756 25.311L47.8756 21.258L48.5518 21.258L48.5518 21.888C48.7053 21.639 48.8893 21.456 49.1037 21.338C49.3182 21.219 49.5728 21.16 49.8677 21.16C50.165 21.16 50.4172 21.235 50.6243 21.385C50.8339 21.534 50.9886 21.751 51.0885 22.036M57.5802 21.258L58.2528 21.258L58.2528 25.311L57.5802 25.311L57.5802 21.258M57.5802 19.68L58.2528 19.68L58.2528 20.523L57.5802 20.523L57.5802 19.68M60.307 24.703L60.307 26.853L59.6308 26.853L59.6308 21.258L60.307 21.258L60.307 21.873C60.4484 21.632 60.6262 21.454 60.8407 21.338C61.0576 21.219 61.3159 21.16 61.6156 21.16C62.1127 21.16 62.516 21.356 62.8255 21.747C63.1374 22.137 63.2933 22.651 63.2933 23.288C63.2933 23.925 63.1374 24.439 62.8255 24.83C62.516 25.221 62.1127 25.416 61.6156 25.416C61.3159 25.416 61.0576 25.358 60.8407 25.242C60.6262 25.124 60.4484 24.944 60.307 24.703M62.5952 23.288C62.5952 22.799 62.4928 22.415 62.2882 22.137C62.0859 21.858 61.8069 21.718 61.4511 21.718C61.0953 21.718 60.8151 21.858 60.6104 22.137C60.4081 22.415 60.307 22.799 60.307 23.288C60.307 23.778 60.4081 24.163 60.6104 24.443C60.8151 24.72 61.0953 24.859 61.4511 24.859C61.8069 24.859 62.0859 24.72 62.2882 24.443C62.4928 24.163 62.5952 23.778 62.5952 23.288M67.018 21.378L67.018 22.007C66.8279 21.911 66.6306 21.838 66.4259 21.79C66.2212 21.742 66.0092 21.718 65.7899 21.718C65.456 21.718 65.205 21.768 65.0369 21.87C64.8712 21.971 64.7883 22.123 64.7883 22.326C64.7883 22.48 64.848 22.602 64.9674 22.691C65.0868 22.778 65.3269 22.861 65.6875 22.941L65.9178 22.992C66.3954 23.093 66.7341 23.236 66.934 23.422C67.1362 23.606 67.2373 23.862 67.2373 24.193C67.2373 24.569 67.0863 24.867 66.7841 25.087C66.4844 25.306 66.0713 25.416 65.545 25.416C65.3257 25.416 65.0966 25.394 64.8578 25.351C64.6214 25.31 64.3716 25.247 64.1085 25.163L64.1085 24.475C64.357 24.603 64.6019 24.7 64.8432 24.765C65.0844 24.827 65.3232 24.859 65.5596 24.859C65.8764 24.859 66.1201 24.806 66.2906 24.7C66.4612 24.591 66.5465 24.439 66.5465 24.244C66.5465 24.063 66.4844 23.924 66.3601 23.827C66.2382 23.731 65.969 23.638 65.5523 23.549L65.3183 23.495C64.9016 23.408 64.6007 23.275 64.4155 23.096C64.2303 22.916 64.1377 22.668 64.1377 22.355C64.1377 21.973 64.2742 21.679 64.5471 21.472C64.82 21.264 65.2075 21.16 65.7095 21.16C65.958 21.16 66.1919 21.178 66.4113 21.215C66.6306 21.251 66.8328 21.305 67.018 21.378M68.2425 23.712L68.2425 21.258L68.9151 21.258L68.9151 23.686C68.9151 24.07 68.9906 24.358 69.1417 24.551C69.2928 24.742 69.5194 24.837 69.8216 24.837C70.1847 24.837 70.471 24.723 70.6806 24.493C70.8926 24.264 70.9986 23.952 70.9986 23.556L70.9986 21.258L71.6711 21.258L71.6711 25.311L70.9986 25.311L70.9986 24.689C70.8353 24.935 70.6452 25.118 70.4284 25.239C70.2139 25.357 69.9641 25.416 69.679 25.416C69.2087 25.416 68.8517 25.271 68.608 24.982C68.3644 24.692 68.2425 24.269 68.2425 23.712M76.2511 22.036C76.4193 21.737 76.6203 21.516 76.8543 21.374C77.0882 21.232 77.3635 21.16 77.6803 21.16C78.1068 21.16 78.4357 21.309 78.6672 21.606C78.8987 21.9 79.0145 22.32 79.0145 22.865L79.0145 25.311L78.3383 25.311L78.3383 22.887C78.3383 22.498 78.2688 22.21 78.1299 22.022C77.991 21.833 77.779 21.739 77.4939 21.739C77.1454 21.739 76.8701 21.854 76.6678 22.083C76.4656 22.312 76.3644 22.625 76.3645 23.02L76.3645 25.311L75.6882 25.311L75.6882 22.887C75.6882 22.496 75.6188 22.207 75.4799 22.022C75.341 21.833 75.1265 21.739 74.8366 21.739C74.493 21.739 74.22 21.855 74.0178 22.087C73.8155 22.316 73.7144 22.627 73.7144 23.02L73.7144 25.311L73.0382 25.311L73.0382 21.258L73.7144 21.258L73.7144 21.888C73.8679 21.639 74.0519 21.456 74.2663 21.338C74.4808 21.219 74.7354 21.16 75.0303 21.16C75.3276 21.16 75.5798 21.235 75.7869 21.385C75.9965 21.534 76.1512 21.751 76.2511 22.036M85.4367 21.873L85.4367 19.68L86.1093 19.68L86.1093 25.311L85.4367 25.311L85.4367 24.703C85.2954 24.944 85.1163 25.124 84.8994 25.242C84.685 25.358 84.4267 25.416 84.1245 25.416C83.6298 25.416 83.2265 25.221 82.9146 24.83C82.6051 24.439 82.4504 23.925 82.4504 23.288C82.4504 22.651 82.6051 22.137 82.9146 21.747C83.2265 21.356 83.6298 21.16 84.1245 21.16C84.4267 21.16 84.685 21.219 84.8994 21.338C85.1163 21.454 85.2954 21.632 85.4367 21.873M83.1449 23.288C83.1449 23.778 83.246 24.163 83.4483 24.443C83.653 24.72 83.9332 24.859 84.289 24.859C84.6448 24.859 84.925 24.72 85.1297 24.443C85.3344 24.163 85.4367 23.778 85.4367 23.288C85.4367 22.799 85.3344 22.415 85.1297 22.137C84.925 21.858 84.6448 21.718 84.289 21.718C83.9332 21.718 83.653 21.858 83.4483 22.137C83.246 22.415 83.1449 22.799 83.1449 23.288M89.081 21.725C88.7203 21.725 88.4352 21.865 88.2257 22.145C88.0161 22.422 87.9113 22.803 87.9113 23.288C87.9113 23.773 88.0149 24.156 88.222 24.435C88.4316 24.713 88.7179 24.852 89.081 24.852C89.4392 24.852 89.7231 24.712 89.9327 24.432C90.1422 24.152 90.247 23.771 90.247 23.288C90.247 22.808 90.1422 22.428 89.9327 22.148C89.7231 21.866 89.4392 21.725 89.081 21.725M89.081 21.16C89.6658 21.16 90.1252 21.349 90.459 21.725C90.7929 22.101 90.9598 22.622 90.9598 23.288C90.9598 23.952 90.7929 24.473 90.459 24.852C90.1252 25.228 89.6658 25.416 89.081 25.416C88.4937 25.416 88.0332 25.228 87.6993 24.852C87.3679 24.473 87.2022 23.952 87.2022 23.288C87.2022 22.622 87.3679 22.101 87.6993 21.725C88.0332 21.349 88.4937 21.16 89.081 21.16M92.071 19.68L92.7435 19.68L92.7435 25.311L92.071 25.311L92.071 19.68M95.7335 21.725C95.3729 21.725 95.0878 21.865 94.8782 22.145C94.6686 22.422 94.5638 22.803 94.5638 23.288C94.5638 23.773 94.6674 24.156 94.8745 24.435C95.0841 24.713 95.3704 24.852 95.7335 24.852C96.0917 24.852 96.3756 24.712 96.5852 24.432C96.7947 24.152 96.8995 23.771 96.8995 23.288C96.8995 22.808 96.7947 22.428 96.5852 22.148C96.3756 21.866 96.0917 21.725 95.7335 21.725M95.7335 21.16C96.3183 21.16 96.7777 21.349 97.1115 21.725C97.4454 22.101 97.6123 22.622 97.6123 23.288C97.6123 23.952 97.4454 24.473 97.1115 24.852C96.7777 25.228 96.3183 25.416 95.7335 25.416C95.1462 25.416 94.6857 25.228 94.3518 24.852C94.0204 24.473 93.8547 23.952 93.8547 23.288C93.8547 22.622 94.0204 22.101 94.3518 21.725C94.6857 21.349 95.1462 21.16 95.7335 21.16M101.096 21.881C101.02 21.837 100.937 21.806 100.847 21.786C100.759 21.765 100.662 21.754 100.555 21.754C100.175 21.754 99.8822 21.877 99.6775 22.123C99.4753 22.367 99.3741 22.718 99.3741 23.176L99.3741 25.311L98.6979 25.311L98.6979 21.258L99.3741 21.258L99.3741 21.888C99.5155 21.642 99.6994 21.46 99.9261 21.341C100.153 21.221 100.428 21.16 100.752 21.16C100.798 21.16 100.85 21.164 100.906 21.171C100.962 21.176 101.024 21.185 101.092 21.197L101.096 21.881M34.2087 39.906L34.2087 40.5357C34.0186 40.4392 33.8212 40.3668 33.6165 40.3185C33.4118 40.2703 33.1998 40.2462 32.9805 40.2462C32.6467 40.2462 32.3957 40.2968 32.2275 40.3981C32.0618 40.4995 31.979 40.6515 31.979 40.8541C31.979 41.0085 32.0387 41.1304 32.1581 41.2196C32.2775 41.3065 32.5175 41.3897 32.8782 41.4693L33.1084 41.52C33.5861 41.6213 33.9248 41.7649 34.1246 41.9506C34.3269 42.134 34.428 42.3909 34.428 42.7214C34.428 43.0978 34.2769 43.3958 33.9747 43.6153C33.675 43.8348 33.262 43.9446 32.7356 43.9446C32.5163 43.9446 32.2872 43.9229 32.0484 43.8795C31.8121 43.8385 31.5623 43.7757 31.2991 43.6913L31.2991 43.0037C31.5477 43.1316 31.7926 43.2281 32.0338 43.2932C32.2751 43.3559 32.5139 43.3873 32.7502 43.3873C33.067 43.3873 33.3107 43.3342 33.4813 43.2281C33.6519 43.1195 33.7371 42.9675 33.7371 42.7721C33.7371 42.5912 33.675 42.4524 33.5507 42.3559C33.4289 42.2594 33.1596 42.1666 32.7429 42.0773L32.509 42.023C32.0923 41.9362 31.7913 41.8035 31.6061 41.6249C31.4209 41.444 31.3283 41.1967 31.3283 40.8831C31.3283 40.5019 31.4648 40.2076 31.7377 40.0001C32.0107 39.7926 32.3981 39.6889 32.9001 39.6889C33.1487 39.6889 33.3826 39.707 33.6019 39.7431C33.8212 39.7793 34.0235 39.8336 34.2087 39.906M35.5026 39.7866L36.1752 39.7866L36.1752 43.8397L35.5026 43.8397L35.5026 39.7866M35.5026 38.2088L36.1752 38.2088L36.1752 39.0519L35.5026 39.0519L35.5026 38.2088M38.244 38.6358L38.244 39.7866L39.6294 39.7866L39.6294 40.3041L38.244 40.3041L38.244 42.5043C38.244 42.8348 38.2891 43.0471 38.3793 43.1412C38.4719 43.2353 38.6583 43.2824 38.9385 43.2824L39.6294 43.2824L39.6294 43.8397L38.9385 43.8397C38.4195 43.8397 38.0613 43.7444 37.8639 43.5538C37.6665 43.3608 37.5678 43.011 37.5678 42.5043L37.5678 40.3041L37.0744 40.3041L37.0744 39.7866L37.5678 39.7866L37.5678 38.6358L38.244 38.6358M44.7613 41.8023C44.2179 41.8023 43.8414 41.8638 43.6319 41.9868C43.4223 42.1099 43.3175 42.3198 43.3175 42.6165C43.3175 42.8529 43.3955 43.0411 43.5514 43.181C43.7098 43.3186 43.9243 43.3873 44.1948 43.3873C44.5676 43.3873 44.8661 43.257 45.0903 42.9965C45.3169 42.7335 45.4302 42.3849 45.4302 41.9506L45.4302 41.8023L44.7613 41.8023M46.1028 41.5272L46.1028 43.8397L45.4302 43.8397L45.4302 43.2245C45.2767 43.4705 45.0854 43.6527 44.8564 43.7709C44.6273 43.8867 44.3471 43.9446 44.0157 43.9446C43.5965 43.9446 43.2627 43.8288 43.0141 43.5972C42.768 43.3632 42.6449 43.0508 42.6449 42.6599C42.6449 42.204 42.7985 41.8602 43.1055 41.6286C43.415 41.397 43.8755 41.2811 44.4872 41.2811L45.4302 41.2811L45.4302 41.216C45.4302 40.9096 45.3279 40.6732 45.1232 40.5067C44.9209 40.3378 44.6358 40.2534 44.2679 40.2534C44.0339 40.2534 43.8061 40.2811 43.5843 40.3366C43.3626 40.3921 43.1494 40.4754 42.9447 40.5863L42.9447 39.9711C43.1908 39.877 43.4296 39.8071 43.6611 39.7612C43.8926 39.713 44.118 39.6889 44.3373 39.6889C44.9295 39.6889 45.3717 39.8409 45.6642 40.1448C45.9566 40.4488 46.1028 40.9096 46.1028 41.5272M50.6791 40.5646C50.8473 40.2655 51.0483 40.0447 51.2823 39.9024C51.5162 39.76 51.7915 39.6889 52.1083 39.6889C52.5348 39.6889 52.8637 39.8372 53.0952 40.134C53.3267 40.4283 53.4425 40.8481 53.4425 41.3933L53.4425 43.8397L52.7663 43.8397L52.7663 41.415C52.7663 41.0266 52.6968 40.7383 52.5579 40.5501C52.419 40.362 52.207 40.2679 51.9219 40.2679C51.5734 40.2679 51.2981 40.3825 51.0958 40.6117C50.8936 40.8409 50.7924 41.1533 50.7925 41.5489L50.7925 43.8397L50.1162 43.8397L50.1162 41.415C50.1162 41.0242 50.0468 40.7359 49.9079 40.5501C49.769 40.362 49.5545 40.2679 49.2646 40.2679C48.921 40.2679 48.648 40.3837 48.4458 40.6153C48.2435 40.8445 48.1424 41.1557 48.1424 41.5489L48.1424 43.8397L47.4662 43.8397L47.4662 39.7866L48.1424 39.7866L48.1424 40.4162C48.2959 40.1678 48.4799 39.9844 48.6944 39.8662C48.9088 39.748 49.1634 39.6889 49.4583 39.6889C49.7556 39.6889 50.0078 39.7636 50.2149 39.9132C50.4245 40.0628 50.5792 40.2799 50.6791 40.5646M58.2893 41.6466L58.2893 41.9723L55.197 41.9723C55.2262 42.4307 55.3651 42.7806 55.6137 43.0218C55.8647 43.2607 56.2132 43.3801 56.6591 43.3801C56.9174 43.3801 57.1672 43.3487 57.4084 43.286C57.6521 43.2233 57.8933 43.1292 58.1322 43.0037L58.1322 43.6334C57.8909 43.7347 57.6436 43.8119 57.3901 43.865C57.1367 43.9181 56.8796 43.9446 56.6189 43.9446C55.9658 43.9446 55.448 43.7564 55.0654 43.3801C54.6853 43.0037 54.4952 42.4947 54.4952 41.8529C54.4952 41.1895 54.6755 40.6635 55.0362 40.2751C55.3993 39.8843 55.8878 39.6889 56.5019 39.6889C57.0526 39.6889 57.4876 39.865 57.8068 40.2172C58.1285 40.567 58.2893 41.0435 58.2893 41.6466M57.6168 41.4512C57.6119 41.0869 57.5083 40.7962 57.3061 40.5791C57.1063 40.362 56.8406 40.2534 56.5092 40.2534C56.134 40.2534 55.833 40.3583 55.6064 40.5682C55.3822 40.7781 55.2531 41.0737 55.2189 41.4549L57.6168 41.4512M60.0585 38.6358L60.0585 39.7866L61.4438 39.7866L61.4438 40.3041L60.0585 40.3041L60.0585 42.5043C60.0585 42.8348 60.1035 43.0471 60.1937 43.1412C60.2863 43.2353 60.4727 43.2824 60.753 43.2824L61.4438 43.2824L61.4438 43.8397L60.753 43.8397C60.2339 43.8397 59.8757 43.7444 59.6783 43.5538C59.4809 43.3608 59.3822 43.011 59.3822 42.5043L59.3822 40.3041L58.8888 40.3041L58.8888 39.7866L59.3822 39.7866L59.3822 38.6358L60.0585 38.6358M67.6613 39.9422L67.6613 40.5646C67.4713 40.4609 67.28 40.3837 67.0875 40.333C66.8974 40.2799 66.7049 40.2534 66.5099 40.2534C66.0738 40.2534 65.735 40.3909 65.4938 40.6659C65.2525 40.9386 65.1319 41.3222 65.1319 41.8167C65.1319 42.3113 65.2525 42.6961 65.4938 42.9711C65.735 43.2438 66.0738 43.3801 66.5099 43.3801C66.7049 43.3801 66.8974 43.3547 67.0875 43.3041C67.28 43.251 67.4713 43.1726 67.6613 43.0689L67.6613 43.6841C67.4737 43.7709 67.2788 43.836 67.0765 43.8795C66.8767 43.9229 66.6635 43.9446 66.4368 43.9446C65.8203 43.9446 65.3305 43.7528 64.9674 43.3692C64.6044 42.9856 64.4228 42.4681 64.4228 41.8167C64.4228 41.1557 64.6056 40.6358 64.9711 40.257C65.3391 39.8782 65.8423 39.6889 66.4807 39.6889C66.6878 39.6889 66.8901 39.7106 67.0875 39.754C67.2849 39.795 67.4761 39.8577 67.6613 39.9422M70.4247 40.2534C70.064 40.2534 69.7789 40.3933 69.5694 40.6732C69.3598 40.9506 69.255 41.3318 69.255 41.8167C69.255 42.3017 69.3586 42.6841 69.5657 42.9639C69.7753 43.2414 70.0616 43.3801 70.4247 43.3801C70.7829 43.3801 71.0668 43.2401 71.2764 42.9603C71.4859 42.6804 71.5907 42.2992 71.5907 41.8167C71.5907 41.3366 71.4859 40.9567 71.2764 40.6768C71.0668 40.3945 70.7829 40.2534 70.4247 40.2534M70.4247 39.6889C71.0095 39.6889 71.4689 39.877 71.8027 40.2534C72.1366 40.6298 72.3035 41.1509 72.3035 41.8167C72.3035 42.4802 72.1366 43.0013 71.8027 43.3801C71.4689 43.7564 71.0095 43.9446 70.4247 43.9446C69.8374 43.9446 69.3769 43.7564 69.043 43.3801C68.7116 43.0013 68.5459 42.4802 68.5459 41.8167C68.5459 41.1509 68.7116 40.6298 69.043 40.2534C69.3769 39.877 69.8374 39.6889 70.4247 39.6889M76.8177 41.3933L76.8177 43.8397L76.1451 43.8397L76.1451 41.415C76.1451 41.0314 76.0696 40.7444 75.9185 40.5538C75.7674 40.3632 75.5408 40.2679 75.2386 40.2679C74.8755 40.2679 74.5892 40.3825 74.3797 40.6117C74.1701 40.8409 74.0653 41.1533 74.0653 41.5489L74.0653 43.8397L73.3891 43.8397L73.3891 39.7866L74.0653 39.7866L74.0653 40.4162C74.2261 40.1726 74.415 39.9904 74.6319 39.8698C74.8512 39.7492 75.1034 39.6889 75.3885 39.6889C75.8588 39.6889 76.2146 39.8336 76.4558 40.1231C76.6971 40.4102 76.8177 40.8336 76.8177 41.3933M80.7763 39.906L80.7763 40.5357C80.5862 40.4392 80.3889 40.3668 80.1842 40.3185C79.9795 40.2703 79.7675 40.2462 79.5482 40.2462C79.2143 40.2462 78.9633 40.2968 78.7952 40.3981C78.6295 40.4995 78.5466 40.6515 78.5466 40.8541C78.5466 41.0085 78.6063 41.1304 78.7257 41.2196C78.8451 41.3065 79.0852 41.3897 79.4458 41.4693L79.6761 41.52C80.1537 41.6213 80.4924 41.7649 80.6922 41.9506C80.8945 42.134 80.9956 42.3909 80.9956 42.7214C80.9956 43.0978 80.8445 43.3958 80.5424 43.6153C80.2426 43.8348 79.8296 43.9446 79.3033 43.9446C79.0839 43.9446 78.8549 43.9229 78.6161 43.8795C78.3797 43.8385 78.1299 43.7757 77.8667 43.6913L77.8667 43.0037C78.1153 43.1316 78.3602 43.2281 78.6014 43.2932C78.8427 43.3559 79.0815 43.3873 79.3179 43.3873C79.6347 43.3873 79.8783 43.3342 80.0489 43.2281C80.2195 43.1195 80.3048 42.9675 80.3048 42.7721C80.3048 42.5912 80.2426 42.4524 80.1184 42.3559C79.9965 42.2594 79.7273 42.1666 79.3106 42.0773L79.0766 42.023C78.6599 41.9362 78.359 41.8035 78.1738 41.6249C77.9886 41.444 77.896 41.1967 77.896 40.8831C77.896 40.5019 78.0324 40.2076 78.3054 40.0001C78.5783 39.7926 78.9658 39.6889 79.4677 39.6889C79.7163 39.6889 79.9502 39.707 80.1695 39.7431C80.3889 39.7793 80.5911 39.8336 80.7763 39.906M85.572 41.6466L85.572 41.9723L82.4797 41.9723C82.5089 42.4307 82.6478 42.7806 82.8963 43.0218C83.1473 43.2607 83.4958 43.3801 83.9417 43.3801C84.2 43.3801 84.4498 43.3487 84.6911 43.286C84.9347 43.2233 85.176 43.1292 85.4148 43.0037L85.4148 43.6334C85.1736 43.7347 84.9262 43.8119 84.6728 43.865C84.4194 43.9181 84.1623 43.9446 83.9015 43.9446C83.2485 43.9446 82.7306 43.7564 82.3481 43.3801C81.9679 43.0037 81.7778 42.4947 81.7778 41.8529C81.7778 41.1895 81.9582 40.6635 82.3188 40.2751C82.6819 39.8843 83.1705 39.6889 83.7846 39.6889C84.3353 39.6889 84.7703 39.865 85.0895 40.2172C85.4111 40.567 85.572 41.0435 85.572 41.6466M84.8994 41.4512C84.8945 41.0869 84.791 40.7962 84.5887 40.5791C84.3889 40.362 84.1233 40.2534 83.7919 40.2534C83.4166 40.2534 83.1157 40.3583 82.889 40.5682C82.6648 40.7781 82.5357 41.0737 82.5016 41.4549L84.8994 41.4512M89.622 39.9422L89.622 40.5646C89.4319 40.4609 89.2406 40.3837 89.0481 40.333C88.858 40.2799 88.6655 40.2534 88.4706 40.2534C88.0344 40.2534 87.6957 40.3909 87.4544 40.6659C87.2132 40.9386 87.0925 41.3222 87.0926 41.8167C87.0925 42.3113 87.2132 42.6961 87.4544 42.9711C87.6957 43.2438 88.0344 43.3801 88.4706 43.3801C88.6655 43.3801 88.858 43.3547 89.0481 43.3041C89.2406 43.251 89.4319 43.1726 89.622 43.0689L89.622 43.6841C89.4343 43.7709 89.2394 43.836 89.0371 43.8795C88.8373 43.9229 88.6241 43.9446 88.3975 43.9446C87.781 43.9446 87.2912 43.7528 86.9281 43.3692C86.565 42.9856 86.3834 42.4681 86.3834 41.8167C86.3834 41.1557 86.5662 40.6358 86.9317 40.257C87.2997 39.8782 87.8029 39.6889 88.4413 39.6889C88.6485 39.6889 88.8507 39.7106 89.0481 39.754C89.2455 39.795 89.4368 39.8577 89.622 39.9422M91.4642 38.6358L91.4642 39.7866L92.8495 39.7866L92.8495 40.3041L91.4642 40.3041L91.4642 42.5043C91.4642 42.8348 91.5093 43.0471 91.5994 43.1412C91.692 43.2353 91.8785 43.2824 92.1587 43.2824L92.8495 43.2824L92.8495 43.8397L92.1587 43.8397C91.6397 43.8397 91.2814 43.7444 91.0841 43.5538C90.8867 43.3608 90.788 43.011 90.788 42.5043L90.788 40.3041L90.2945 40.3041L90.2945 39.7866L90.788 39.7866L90.788 38.6358L91.4642 38.6358M93.3978 41.5128L95.368 41.5128L95.368 42.1062L93.3978 42.1062L93.3978 41.5128M35.1005 60.1751L35.1005 60.5008L32.0082 60.5008C32.0375 60.9592 32.1764 61.309 32.4249 61.5503C32.6759 61.7891 33.0244 61.9085 33.4703 61.9085C33.7286 61.9085 33.9784 61.8772 34.2196 61.8145C34.4633 61.7517 34.7046 61.6576 34.9434 61.5322L34.9434 62.1619C34.7021 62.2632 34.4548 62.3404 34.2014 62.3935C33.9479 62.4465 33.6908 62.4731 33.4301 62.4731C32.777 62.4731 32.2592 62.2849 31.8766 61.9085C31.4965 61.5322 31.3064 61.0231 31.3064 60.3814C31.3064 59.7179 31.4867 59.192 31.8474 58.8036C32.2105 58.4127 32.6991 58.2173 33.3131 58.2173C33.8639 58.2173 34.2988 58.3934 34.6181 58.7457C34.9397 59.0955 35.1005 59.572 35.1005 60.1751M34.428 59.9797C34.4231 59.6154 34.3195 59.3247 34.1173 59.1076C33.9175 58.8904 33.6519 58.7819 33.3204 58.7819C32.9452 58.7819 32.6442 58.8868 32.4176 59.0967C32.1934 59.3066 32.0643 59.6021 32.0302 59.9833L34.428 59.9797M36.8697 57.1642L36.8697 58.315L38.255 58.315L38.255 58.8325L36.8697 58.8325L36.8697 61.0328C36.8697 61.3633 36.9148 61.5756 37.0049 61.6697C37.0975 61.7638 37.2839 61.8108 37.5642 61.8108L38.255 61.8108L38.255 62.3681L37.5642 62.3681C37.0451 62.3681 36.6869 62.2728 36.4895 62.0822C36.2922 61.8892 36.1935 61.5394 36.1935 61.0328L36.1935 58.8325L35.7 58.8325L35.7 58.315L36.1935 58.315L36.1935 57.1642L36.8697 57.1642M39.0738 60.7686L39.0738 58.315L39.7463 58.315L39.7463 60.7433C39.7463 61.1269 39.8219 61.4152 39.973 61.6082C40.1241 61.7988 40.3507 61.8941 40.6528 61.8941C41.0159 61.8941 41.3023 61.7795 41.5118 61.5503C41.7238 61.3211 41.8298 61.0087 41.8298 60.613L41.8298 58.315L42.5024 58.315L42.5024 62.3681L41.8298 62.3681L41.8298 61.7457C41.6666 61.9918 41.4765 62.1751 41.2596 62.2958C41.0452 62.414 40.7954 62.4731 40.5103 62.4731C40.04 62.4731 39.683 62.3283 39.4393 62.0388C39.1956 61.7493 39.0738 61.3259 39.0738 60.7686M47.3967 60.1751L47.3967 60.5008L44.3044 60.5008C44.3337 60.9592 44.4726 61.309 44.7211 61.5503C44.9721 61.7891 45.3206 61.9085 45.7665 61.9085C46.0248 61.9085 46.2746 61.8772 46.5158 61.8145C46.7595 61.7517 47.0008 61.6576 47.2396 61.5322L47.2396 62.1619C46.9983 62.2632 46.751 62.3404 46.4976 62.3935C46.2441 62.4465 45.987 62.4731 45.7263 62.4731C45.0732 62.4731 44.5554 62.2849 44.1728 61.9085C43.7927 61.5322 43.6026 61.0231 43.6026 60.3814C43.6026 59.7179 43.7829 59.192 44.1436 58.8036C44.5067 58.4127 44.9953 58.2173 45.6093 58.2173C46.1601 58.2173 46.595 58.3934 46.9143 58.7457C47.2359 59.0955 47.3967 59.572 47.3967 60.1751M46.7242 59.9797C46.7193 59.6154 46.6157 59.3247 46.4135 59.1076C46.2137 58.8904 45.948 58.7819 45.6166 58.7819C45.2414 58.7819 44.9404 58.8868 44.7138 59.0967C44.4896 59.3066 44.3605 59.6021 44.3263 59.9833L46.7242 59.9797M50.8729 58.9375C50.7973 58.8941 50.7145 58.8627 50.6243 58.8434C50.5366 58.8217 50.4391 58.8108 50.3319 58.8108C49.9517 58.8108 49.6593 58.9339 49.4546 59.1799C49.2524 59.4236 49.1513 59.7746 49.1513 60.233L49.1513 62.3681L48.475 62.3681L48.475 58.315L49.1513 58.315L49.1513 58.9447C49.2926 58.6986 49.4766 58.5165 49.7032 58.3983C49.9298 58.2776 50.2052 58.2173 50.5293 58.2173C50.5756 58.2173 50.6267 58.2209 50.6828 58.2282C50.7388 58.233 50.801 58.2415 50.8692 58.2535L50.8729 58.9375M55.8294 60.3307C55.2859 60.3307 54.9095 60.3923 54.6999 60.5153C54.4903 60.6383 54.3855 60.8482 54.3855 61.145C54.3855 61.3814 54.4635 61.5696 54.6195 61.7095C54.7779 61.847 54.9923 61.9158 55.2628 61.9158C55.6356 61.9158 55.9341 61.7855 56.1583 61.5249C56.385 61.262 56.4983 60.9134 56.4983 60.4791L56.4983 60.3307L55.8294 60.3307M57.1708 60.0557L57.1708 62.3681L56.4983 62.3681L56.4983 61.7529C56.3447 61.999 56.1535 62.1812 55.9244 62.2994C55.6953 62.4152 55.4151 62.4731 55.0837 62.4731C54.6646 62.4731 54.3307 62.3573 54.0822 62.1257C53.836 61.8917 53.713 61.5792 53.713 61.1884C53.713 60.7324 53.8665 60.3886 54.1735 60.157C54.483 59.9254 54.9436 59.8096 55.5552 59.8096L56.4983 59.8096L56.4983 59.7445C56.4983 59.4381 56.3959 59.2017 56.1912 59.0352C55.989 58.8663 55.7039 58.7819 55.3359 58.7819C55.102 58.7819 54.8741 58.8096 54.6524 58.8651C54.4306 58.9206 54.2174 59.0038 54.0127 59.1148L54.0127 58.4996C54.2588 58.4055 54.4976 58.3355 54.7291 58.2897C54.9606 58.2415 55.186 58.2173 55.4054 58.2173C55.9975 58.2173 56.4398 58.3693 56.7322 58.6733C57.0246 58.9773 57.1708 59.4381 57.1708 60.0557M61.2537 58.9302L61.2537 56.7372L61.9263 56.7372L61.9263 62.3681L61.2537 62.3681L61.2537 61.7602C61.1124 62.0014 60.9333 62.1812 60.7164 62.2994C60.502 62.4152 60.2437 62.4731 59.9415 62.4731C59.4468 62.4731 59.0435 62.2777 58.7316 61.8868C58.4221 61.496 58.2674 60.9821 58.2674 60.3452C58.2674 59.7083 58.4221 59.1944 58.7316 58.8036C59.0435 58.4127 59.4468 58.2173 59.9415 58.2173C60.2437 58.2173 60.502 58.2764 60.7164 58.3946C60.9333 58.5105 61.1124 58.689 61.2537 58.9302M58.9619 60.3452C58.9619 60.835 59.063 61.2198 59.2653 61.4996C59.47 61.7771 59.7502 61.9158 60.106 61.9158C60.4618 61.9158 60.742 61.7771 60.9467 61.4996C61.1514 61.2198 61.2537 60.835 61.2537 60.3452C61.2537 59.8555 61.1514 59.4719 60.9467 59.1944C60.742 58.9146 60.4618 58.7746 60.106 58.7746C59.7502 58.7746 59.47 58.9146 59.2653 59.1944C59.063 59.4719 58.9619 59.8555 58.9619 60.3452M63.3116 58.315L63.9842 58.315L63.9842 62.3681L63.3116 62.3681L63.3116 58.315M63.3116 56.7372L63.9842 56.7372L63.9842 57.5804L63.3116 57.5804L63.3116 56.7372M66.0384 61.7602L66.0384 63.9098L65.3622 63.9098L65.3622 58.315L66.0384 58.315L66.0384 58.9302C66.1798 58.689 66.3576 58.5105 66.5721 58.3946C66.789 58.2764 67.0473 58.2173 67.347 58.2173C67.8441 58.2173 68.2474 58.4127 68.5569 58.8036C68.8688 59.1944 69.0247 59.7083 69.0247 60.3452C69.0247 60.9821 68.8688 61.496 68.5569 61.8868C68.2474 62.2777 67.8441 62.4731 67.347 62.4731C67.0473 62.4731 66.789 62.4152 66.5721 62.2994C66.3576 62.1812 66.1798 62.0014 66.0384 61.7602M68.3266 60.3452C68.3266 59.8555 68.2242 59.4719 68.0196 59.1944C67.8173 58.9146 67.5383 58.7746 67.1825 58.7746C66.8267 58.7746 66.5465 58.9146 66.3418 59.1944C66.1395 59.4719 66.0384 59.8555 66.0384 60.3452C66.0384 60.835 66.1395 61.2198 66.3418 61.4996C66.5465 61.7771 66.8267 61.9158 67.1825 61.9158C67.5383 61.9158 67.8173 61.7771 68.0196 61.4996C68.2242 61.2198 68.3266 60.835 68.3266 60.3452M70.1396 58.315L70.8122 58.315L70.8122 62.3681L70.1396 62.3681L70.1396 58.315M70.1396 56.7372L70.8122 56.7372L70.8122 57.5804L70.1396 57.5804L70.1396 56.7372M74.8256 58.4345L74.8256 59.0641C74.6355 58.9676 74.4381 58.8953 74.2335 58.847C74.0288 58.7988 73.8168 58.7746 73.5974 58.7746C73.2636 58.7746 73.0126 58.8253 72.8445 58.9266C72.6788 59.0279 72.5959 59.1799 72.5959 59.3826C72.5959 59.537 72.6556 59.6588 72.775 59.7481C72.8944 59.8349 73.1344 59.9182 73.4951 59.9978L73.7254 60.0485C74.203 60.1498 74.5417 60.2933 74.7415 60.4791C74.9438 60.6625 75.0449 60.9194 75.0449 61.2499C75.0449 61.6263 74.8938 61.9242 74.5917 62.1438C74.2919 62.3633 73.8789 62.4731 73.3525 62.4731C73.1332 62.4731 72.9042 62.4514 72.6654 62.4079C72.429 62.3669 72.1792 62.3042 71.916 62.2198L71.916 61.5322C72.1646 61.66 72.4095 61.7566 72.6507 61.8217C72.892 61.8844 73.1308 61.9158 73.3672 61.9158C73.6839 61.9158 73.9276 61.8627 74.0982 61.7566C74.2688 61.648 74.3541 61.496 74.3541 61.3006C74.3541 61.1196 74.2919 60.9809 74.1677 60.8844C74.0458 60.7879 73.7765 60.695 73.3598 60.6058L73.1259 60.5515C72.7092 60.4646 72.4083 60.3319 72.2231 60.1534C72.0379 59.9725 71.9453 59.7252 71.9453 59.4115C71.9453 59.0304 72.0817 58.736 72.3547 58.5285C72.6276 58.3211 73.015 58.2173 73.517 58.2173C73.7656 58.2173 73.9995 58.2354 74.2188 58.2716C74.4381 58.3078 74.6404 58.3621 74.8256 58.4345M79.0657 58.4706L79.0657 59.0931C78.8756 58.9893 78.6843 58.9121 78.4918 58.8615C78.3017 58.8084 78.1092 58.7819 77.9143 58.7819C77.4781 58.7819 77.1394 58.9194 76.8981 59.1944C76.6569 59.467 76.5362 59.8506 76.5362 60.3452C76.5362 60.8398 76.6569 61.2246 76.8981 61.4996C77.1394 61.7722 77.4781 61.9085 77.9143 61.9085C78.1092 61.9085 78.3017 61.8832 78.4918 61.8325C78.6843 61.7795 78.8756 61.7011 79.0657 61.5973L79.0657 62.2125C78.878 62.2994 78.6831 62.3645 78.4808 62.4079C78.281 62.4514 78.0678 62.4731 77.8412 62.4731C77.2246 62.4731 76.7348 62.2813 76.3718 61.8977C76.0087 61.5141 75.8271 60.9966 75.8271 60.3452C75.8271 59.6842 76.0099 59.1643 76.3754 58.7855C76.7434 58.4067 77.2466 58.2173 77.885 58.2173C78.0922 58.2173 78.2944 58.239 78.4918 58.2825C78.6892 58.3235 78.8805 58.3862 79.0657 58.4706M80.2426 58.315L80.9152 58.315L80.9152 62.3681L80.2426 62.3681L80.2426 58.315M80.2426 56.7372L80.9152 56.7372L80.9152 57.5804L80.2426 57.5804L80.2426 56.7372M85.7218 59.9218L85.7218 62.3681L85.0493 62.3681L85.0493 59.9435C85.0493 59.5599 84.9737 59.2728 84.8227 59.0822C84.6716 58.8916 84.4449 58.7963 84.1428 58.7963C83.7797 58.7963 83.4934 58.9109 83.2838 59.1401C83.0742 59.3693 82.9695 59.6818 82.9695 60.0774L82.9695 62.3681L82.2932 62.3681L82.2932 58.315L82.9695 58.315L82.9695 58.9447C83.1303 58.701 83.3191 58.5189 83.536 58.3983C83.7553 58.2776 84.0075 58.2173 84.2926 58.2173C84.7629 58.2173 85.1187 58.3621 85.36 58.6516C85.6012 58.9387 85.7218 59.3621 85.7218 59.9218M89.7645 60.2945C89.7645 59.812 89.6634 59.4381 89.4611 59.1727C89.2613 58.9073 88.9799 58.7746 88.6168 58.7746C88.2561 58.7746 87.9747 58.9073 87.7724 59.1727C87.5726 59.4381 87.4727 59.812 87.4727 60.2945C87.4727 60.7746 87.5726 61.1474 87.7724 61.4128C87.9747 61.6781 88.2561 61.8108 88.6168 61.8108C88.9799 61.8108 89.2613 61.6781 89.4611 61.4128C89.6634 61.1474 89.7645 60.7746 89.7645 60.2945M90.4371 61.8651C90.4371 62.5551 90.2823 63.0678 89.9729 63.4031C89.6634 63.7409 89.1894 63.9098 88.551 63.9098C88.3146 63.9098 88.0916 63.8917 87.8821 63.8555C87.6725 63.8217 87.469 63.7686 87.2717 63.6963L87.2717 63.0485C87.469 63.1546 87.664 63.233 87.8565 63.2837C88.049 63.3344 88.2452 63.3597 88.445 63.3597C88.8861 63.3597 89.2162 63.2451 89.4356 63.0159C89.6549 62.7891 89.7645 62.4453 89.7645 61.9845L89.7645 61.6552C89.6256 61.8941 89.4477 62.0726 89.2309 62.1908C89.014 62.309 88.7545 62.3681 88.4523 62.3681C87.9503 62.3681 87.5458 62.1788 87.2388 61.8C86.9317 61.4212 86.7782 60.9194 86.7782 60.2945C86.7782 59.6673 86.9317 59.1643 87.2388 58.7855C87.5458 58.4067 87.9503 58.2173 88.4523 58.2173C88.7545 58.2173 89.014 58.2764 89.2309 58.3946C89.4477 58.5129 89.6256 58.6914 89.7645 58.9302L89.7645 58.315L90.4371 58.315L90.4371 61.8651M35.1005 78.7036L35.1005 79.0293L32.0082 79.0293C32.0375 79.4877 32.1764 79.8375 32.4249 80.0787C32.6759 80.3176 33.0244 80.437 33.4703 80.437C33.7286 80.437 33.9784 80.4057 34.2196 80.3429C34.4633 80.2802 34.7046 80.1861 34.9434 80.0607L34.9434 80.6903C34.7021 80.7917 34.4548 80.8689 34.2014 80.9219C33.9479 80.975 33.6908 81.0016 33.4301 81.0016C32.777 81.0016 32.2592 80.8134 31.8766 80.437C31.4965 80.0607 31.3064 79.5516 31.3064 78.9099C31.3064 78.2464 31.4867 77.7205 31.8474 77.332C32.2105 76.9412 32.6991 76.7458 33.3131 76.7458C33.8639 76.7458 34.2988 76.9219 34.6181 77.2741C34.9397 77.624 35.1005 78.1004 35.1005 78.7036M34.428 78.5082C34.4231 78.1439 34.3195 77.8532 34.1173 77.636C33.9175 77.4189 33.6519 77.3103 33.3204 77.3103C32.9452 77.3103 32.6442 77.4153 32.4176 77.6252C32.1934 77.8351 32.0643 78.1306 32.0302 78.5118L34.428 78.5082M36.2044 75.2657L36.877 75.2657L36.877 80.8966L36.2044 80.8966L36.2044 75.2657M38.2806 76.8435L38.9532 76.8435L38.9532 80.8966L38.2806 80.8966L38.2806 76.8435M38.2806 75.2657L38.9532 75.2657L38.9532 76.1089L38.2806 76.1089L38.2806 75.2657M41.022 75.6927L41.022 76.8435L42.4074 76.8435L42.4074 77.361L41.022 77.361L41.022 79.5613C41.022 79.8918 41.0671 80.1041 41.1573 80.1982C41.2499 80.2923 41.4363 80.3393 41.7165 80.3393L42.4074 80.3393L42.4074 80.8966L41.7165 80.8966C41.1975 80.8966 40.8393 80.8013 40.6419 80.6107C40.4445 80.4177 40.3458 80.0679 40.3458 79.5613L40.3458 77.361L39.8523 77.361L39.8523 76.8435L40.3458 76.8435L40.3458 75.6927L41.022 75.6927M43.3906 79.9774L44.1619 79.9774L44.1619 80.8966L43.3906 80.8966L43.3906 79.9774M48.8296 76.0944L48.8296 78.1246L49.758 78.1246C50.1016 78.1246 50.3672 78.0365 50.5549 77.8604C50.7425 77.6843 50.8363 77.4334 50.8363 77.1077C50.8363 76.7844 50.7425 76.5347 50.5549 76.3586C50.3672 76.1825 50.1016 76.0944 49.758 76.0944L48.8296 76.0944M48.0912 75.4937L49.758 75.4937C50.3697 75.4937 50.8314 75.6312 51.1434 75.9062C51.4577 76.1788 51.6149 76.5793 51.6149 77.1077C51.6149 77.6409 51.4577 78.0438 51.1434 78.3164C50.8314 78.589 50.3697 78.7253 49.758 78.7253L48.8296 78.7253L48.8296 80.8966L48.0912 80.8966L48.0912 75.4937M55.9829 78.4503L55.9829 80.8966L55.3103 80.8966L55.3103 78.472C55.3103 78.0884 55.2348 77.8013 55.0837 77.6107C54.9326 77.4201 54.706 77.3248 54.4038 77.3248C54.0407 77.3248 53.7544 77.4394 53.5448 77.6686C53.3353 77.8978 53.2305 78.2102 53.2305 78.6059L53.2305 80.8966L52.5543 80.8966L52.5543 75.2657L53.2305 75.2657L53.2305 77.4732C53.3913 77.2295 53.5802 77.0474 53.7971 76.9267C54.0164 76.8061 54.2686 76.7458 54.5537 76.7458C55.024 76.7458 55.3798 76.8906 55.621 77.1801C55.8623 77.4672 55.9829 77.8906 55.9829 78.4503M59.1922 78.8592C58.6488 78.8592 58.2723 78.9207 58.0627 79.0438C57.8531 79.1668 57.7484 79.3767 57.7484 79.6734C57.7484 79.9099 57.8263 80.098 57.9823 80.238C58.1407 80.3755 58.3551 80.4443 58.6256 80.4442C58.9984 80.4443 59.297 80.314 59.5211 80.0534C59.7478 79.7904 59.8611 79.4418 59.8611 79.0076L59.8611 78.8592L59.1922 78.8592M60.5336 78.5842L60.5336 80.8966L59.8611 80.8966L59.8611 80.2814C59.7076 80.5275 59.5163 80.7096 59.2872 80.8278C59.0581 80.9437 58.7779 81.0016 58.4465 81.0016C58.0274 81.0016 57.6935 80.8857 57.445 80.6541C57.1989 80.4201 57.0758 80.1077 57.0758 79.7169C57.0758 79.2609 57.2293 78.9171 57.5364 78.6855C57.8458 78.4539 58.3064 78.3381 58.918 78.3381L59.8611 78.3381L59.8611 78.2729C59.8611 77.9666 59.7587 77.7301 59.554 77.5637C59.3518 77.3948 59.0667 77.3103 58.6987 77.3103C58.4648 77.3103 58.2369 77.3381 58.0152 77.3936C57.7934 77.4491 57.5802 77.5323 57.3755 77.6433L57.3755 77.0281C57.6216 76.934 57.8604 76.864 58.0919 76.8182C58.3234 76.7699 58.5489 76.7458 58.7682 76.7458C59.3603 76.7458 59.8026 76.8978 60.095 77.2018C60.3874 77.5058 60.5336 77.9666 60.5336 78.5842M64.5325 76.9629L64.5325 77.5926C64.3424 77.4961 64.145 77.4237 63.9403 77.3755C63.7356 77.3272 63.5236 77.3031 63.3043 77.3031C62.9705 77.3031 62.7195 77.3538 62.5513 77.4551C62.3856 77.5564 62.3028 77.7084 62.3028 77.9111C62.3028 78.0655 62.3625 78.1873 62.4819 78.2766C62.6013 78.3634 62.8413 78.4467 63.202 78.5263L63.4322 78.5769C63.9099 78.6783 64.2486 78.8218 64.4484 79.0076C64.6506 79.1909 64.7518 79.4479 64.7518 79.7784C64.7518 80.1547 64.6007 80.4527 64.2985 80.6722C63.9988 80.8918 63.5858 81.0016 63.0594 81.0016C62.8401 81.0016 62.611 80.9798 62.3722 80.9364C62.1359 80.8954 61.8861 80.8327 61.6229 80.7482L61.6229 80.0607C61.8715 80.1885 62.1164 80.285 62.3576 80.3502C62.5988 80.4129 62.8377 80.4443 63.074 80.4442C63.3908 80.4443 63.6345 80.3912 63.8051 80.285C63.9757 80.1765 64.0609 80.0245 64.0609 79.829C64.0609 79.6481 63.9988 79.5094 63.8745 79.4129C63.7527 79.3164 63.4834 79.2235 63.0667 79.1342L62.8328 79.0799C62.4161 78.9931 62.1151 78.8604 61.9299 78.6819C61.7447 78.5009 61.6521 78.2536 61.6521 77.94C61.6521 77.5588 61.7886 77.2645 62.0615 77.057C62.3345 76.8495 62.7219 76.7458 63.2239 76.7458C63.4724 76.7458 63.7064 76.7639 63.9257 76.8001C64.145 76.8363 64.3473 76.8906 64.5325 76.9629M69.3281 78.7036L69.3281 79.0293L66.2358 79.0293C66.265 79.4877 66.4039 79.8375 66.6525 80.0787C66.9035 80.3176 67.252 80.437 67.6979 80.437C67.9562 80.437 68.206 80.4057 68.4472 80.3429C68.6909 80.2802 68.9321 80.1861 69.171 80.0607L69.171 80.6903C68.9297 80.7917 68.6824 80.8689 68.4289 80.9219C68.1755 80.975 67.9184 81.0016 67.6577 81.0016C67.0046 81.0016 66.4868 80.8134 66.1042 80.437C65.7241 80.0607 65.534 79.5516 65.534 78.9099C65.534 78.2464 65.7143 77.7205 66.075 77.332C66.4381 76.9412 66.9266 76.7458 67.5407 76.7458C68.0914 76.7458 68.5264 76.9219 68.8456 77.2741C69.1673 77.624 69.3281 78.1004 69.3281 78.7036M68.6556 78.5082C68.6507 78.1439 68.5471 77.8532 68.3449 77.636C68.145 77.4189 67.8794 77.3103 67.548 77.3103C67.1728 77.3103 66.8718 77.4153 66.6452 77.6252C66.421 77.8351 66.2918 78.1306 66.2577 78.5118L68.6556 78.5082M70.432 75.2657L71.1046 75.2657L71.1046 80.8966L70.432 80.8966L70.432 75.2657M72.5082 75.2657L73.1807 75.2657L73.1807 80.8966L72.5082 80.8966L72.5082 75.2657M74.5149 79.2971L74.5149 76.8435L75.1875 76.8435L75.1875 79.2717C75.1875 79.6553 75.263 79.9436 75.4141 80.1366C75.5652 80.3272 75.7918 80.4225 76.094 80.4225C76.457 80.4225 76.7434 80.3079 76.9529 80.0787C77.1649 79.8496 77.2709 79.5371 77.2709 79.1415L77.2709 76.8435L77.9435 76.8435L77.9435 80.8966L77.2709 80.8966L77.2709 80.2742C77.1077 80.5202 76.9176 80.7036 76.7007 80.8242C76.4863 80.9424 76.2365 81.0016 75.9514 81.0016C75.4811 81.0016 75.1241 80.8568 74.8804 80.5673C74.6367 80.2778 74.5149 79.8544 74.5149 79.2971M81.946 76.9629L81.946 77.5926C81.7559 77.4961 81.5585 77.4237 81.3538 77.3755C81.1491 77.3272 80.9371 77.3031 80.7178 77.3031C80.384 77.3031 80.133 77.3538 79.9649 77.4551C79.7991 77.5564 79.7163 77.7084 79.7163 77.9111C79.7163 78.0655 79.776 78.1873 79.8954 78.2766C80.0148 78.3634 80.2548 78.4467 80.6155 78.5263L80.8458 78.5769C81.3234 78.6783 81.6621 78.8218 81.8619 79.0076C82.0642 79.1909 82.1653 79.4479 82.1653 79.7784C82.1653 80.1547 82.0142 80.4527 81.7121 80.6722C81.4123 80.8918 80.9993 81.0016 80.4729 81.0016C80.2536 81.0016 80.0246 80.9798 79.7857 80.9364C79.5494 80.8954 79.2996 80.8327 79.0364 80.7482L79.0364 80.0607C79.285 80.1885 79.5299 80.285 79.7711 80.3502C80.0124 80.4129 80.2512 80.4443 80.4875 80.4442C80.8043 80.4443 81.048 80.3912 81.2186 80.285C81.3892 80.1765 81.4745 80.0245 81.4745 79.829C81.4745 79.6481 81.4123 79.5094 81.288 79.4129C81.1662 79.3164 80.8969 79.2235 80.4802 79.1342L80.2463 79.0799C79.8296 78.9931 79.5287 78.8604 79.3435 78.6819C79.1583 78.5009 79.0657 78.2536 79.0657 77.94C79.0657 77.5588 79.2021 77.2645 79.475 77.057C79.748 76.8495 80.1354 76.7458 80.6374 76.7458C80.886 76.7458 81.1199 76.7639 81.3392 76.8001C81.5585 76.8363 81.7608 76.8906 81.946 76.9629M89.0262 78.4503L89.0262 80.8966L88.3536 80.8966L88.3536 78.472C88.3536 78.0884 88.2781 77.8013 88.127 77.6107C87.9759 77.4201 87.7493 77.3248 87.4471 77.3248C87.084 77.3248 86.7977 77.4394 86.5881 77.6686C86.3786 77.8978 86.2738 78.2102 86.2738 78.6059L86.2738 80.8966L85.5976 80.8966L85.5976 75.2657L86.2738 75.2657L86.2738 77.4732C86.4346 77.2295 86.6235 77.0474 86.8403 76.9267C87.0596 76.8061 87.3119 76.7458 87.597 76.7458C88.0673 76.7458 88.423 76.8906 88.6643 77.1801C88.9055 77.4672 89.0262 77.8906 89.0262 78.4503M93.8767 78.7036L93.8767 79.0293L90.7843 79.0293C90.8136 79.4877 90.9525 79.8375 91.201 80.0787C91.452 80.3176 91.8005 80.437 92.2464 80.437C92.5047 80.437 92.7545 80.4057 92.9958 80.3429C93.2394 80.2802 93.4807 80.1861 93.7195 80.0607L93.7195 80.6903C93.4782 80.7917 93.2309 80.8689 92.9775 80.9219C92.724 80.975 92.467 81.0016 92.2062 81.0016C91.5532 81.0016 91.0353 80.8134 90.6527 80.437C90.2726 80.0607 90.0825 79.5516 90.0825 78.9099C90.0825 78.2464 90.2629 77.7205 90.6235 77.332C90.9866 76.9412 91.4752 76.7458 92.0893 76.7458C92.64 76.7458 93.0749 76.9219 93.3942 77.2741C93.7158 77.624 93.8767 78.1004 93.8767 78.7036M93.2041 78.5082C93.1992 78.1439 93.0957 77.8532 92.8934 77.636C92.6936 77.4189 92.428 77.3103 92.0966 77.3103C91.7213 77.3103 91.4203 77.4153 91.1937 77.6252C90.9695 77.8351 90.8404 78.1306 90.8063 78.5118L93.2041 78.5082M94.6406 78.5697L96.6108 78.5697L96.6108 79.1632L94.6406 79.1632L94.6406 78.5697M35.0019 96.9787L35.0019 99.4251L34.3293 99.4251L34.3293 97.0005C34.3293 96.6169 34.2537 96.3298 34.1027 96.1392C33.9516 95.9486 33.725 95.8533 33.4228 95.8533C33.0597 95.8533 32.7734 95.9679 32.5638 96.1971C32.3542 96.4263 32.2495 96.7387 32.2495 97.1343L32.2495 99.4251L31.5732 99.4251L31.5732 95.372L32.2495 95.372L32.2495 96.0017C32.4103 95.758 32.5991 95.5758 32.816 95.4552C33.0353 95.3346 33.2875 95.2743 33.5727 95.2743C34.043 95.2743 34.3987 95.419 34.64 95.7085C34.8812 95.9956 35.0019 96.419 35.0019 96.9787M39.0445 95.9872L39.0445 93.7942L39.7171 93.7942L39.7171 99.4251L39.0445 99.4251L39.0445 98.8171C38.9032 99.0584 38.7241 99.2381 38.5072 99.3563C38.2928 99.4721 38.0345 99.53 37.7323 99.53C37.2376 99.53 36.8343 99.3346 36.5224 98.9438C36.213 98.5529 36.0582 98.0391 36.0582 97.4021C36.0582 96.7652 36.213 96.2514 36.5224 95.8605C36.8343 95.4697 37.2376 95.2743 37.7323 95.2743C38.0345 95.2743 38.2928 95.3334 38.5072 95.4516C38.7241 95.5674 38.9032 95.7459 39.0445 95.9872M36.7527 97.4021C36.7527 97.8919 36.8538 98.2767 37.0561 98.5566C37.2608 98.834 37.541 98.9727 37.8968 98.9727C38.2526 98.9727 38.5328 98.834 38.7375 98.5566C38.9422 98.2767 39.0445 97.8919 39.0445 97.4021C39.0445 96.9124 38.9422 96.5288 38.7375 96.2514C38.5328 95.9715 38.2526 95.8316 37.8968 95.8316C37.541 95.8316 37.2608 95.9715 37.0561 96.2514C36.8538 96.5288 36.7527 96.9124 36.7527 97.4021M43.4747 95.9944C43.3991 95.951 43.3163 95.9196 43.2261 95.9003C43.1384 95.8786 43.0409 95.8678 42.9337 95.8678C42.5536 95.8678 42.2611 95.9908 42.0565 96.2369C41.8542 96.4805 41.7531 96.8316 41.7531 97.29L41.7531 99.4251L41.0768 99.4251L41.0768 95.372L41.7531 95.372L41.7531 96.0017C41.8944 95.7556 42.0784 95.5734 42.305 95.4552C42.5316 95.3346 42.807 95.2743 43.1311 95.2743C43.1774 95.2743 43.2286 95.2779 43.2846 95.2851C43.3407 95.2899 43.4028 95.2984 43.471 95.3105L43.4747 95.9944M47.5247 97.2321L47.5247 97.5578L44.4324 97.5578C44.4616 98.0161 44.6005 98.366 44.849 98.6072C45.1 98.8461 45.4485 98.9655 45.8944 98.9655C46.1527 98.9655 46.4025 98.9341 46.6438 98.8714C46.8874 98.8087 47.1287 98.7146 47.3675 98.5891L47.3675 99.2188C47.1263 99.3201 46.8789 99.3973 46.6255 99.4504C46.3721 99.5035 46.115 99.53 45.8542 99.53C45.2012 99.53 44.6833 99.3418 44.3008 98.9655C43.9206 98.5891 43.7305 98.0801 43.7305 97.4383C43.7305 96.7749 43.9109 96.2489 44.2715 95.8605C44.6346 95.4697 45.1232 95.2743 45.7373 95.2743C46.288 95.2743 46.723 95.4504 47.0422 95.8026C47.3638 96.1524 47.5247 96.6289 47.5247 97.2321M46.8521 97.0366C46.8472 96.6723 46.7437 96.3816 46.5414 96.1645C46.3416 95.9474 46.076 95.8388 45.7446 95.8388C45.3693 95.8388 45.0684 95.9438 44.8417 96.1536C44.6175 96.3635 44.4884 96.6591 44.4543 97.0403L46.8521 97.0366M51.0008 95.9944C50.9253 95.951 50.8424 95.9196 50.7522 95.9003C50.6645 95.8786 50.567 95.8678 50.4598 95.8678C50.0797 95.8678 49.7873 95.9908 49.5826 96.2369C49.3803 96.4805 49.2792 96.8316 49.2792 97.29L49.2792 99.4251L48.603 99.4251L48.603 95.372L49.2792 95.372L49.2792 96.0017C49.4205 95.7556 49.6045 95.5734 49.8311 95.4552C50.0577 95.3346 50.3331 95.2743 50.6572 95.2743C50.7035 95.2743 50.7547 95.2779 50.8107 95.2851C50.8668 95.2899 50.9289 95.2984 50.9971 95.3105L51.0008 95.9944M51.7136 95.372L52.3861 95.372L52.3861 99.4251L51.7136 99.4251L51.7136 95.372M51.7136 93.7942L52.3861 93.7942L52.3861 94.6373L51.7136 94.6373L51.7136 93.7942M54.455 94.2212L54.455 95.372L55.8403 95.372L55.8403 95.8895L54.455 95.8895L54.455 98.0897C54.455 98.4202 54.5001 98.6325 54.5902 98.7266C54.6828 98.8207 54.8693 98.8678 55.1495 98.8678L55.8403 98.8678L55.8403 99.4251L55.1495 99.4251C54.6304 99.4251 54.2722 99.3298 54.0748 99.1392C53.8775 98.9462 53.7788 98.5964 53.7788 98.0897L53.7788 95.8895L53.2853 95.8895L53.2853 95.372L53.7788 95.372L53.7788 94.2212L54.455 94.2212M56.8236 98.5059L57.5948 98.5059L57.5948 99.4251L56.8236 99.4251L56.8236 98.5059M61.5242 94.0221L62.5184 94.0221L64.9382 98.5421L64.9382 94.0221L65.6546 94.0221L65.6546 99.4251L64.6604 99.4251L62.2406 94.9051L62.2406 99.4251L61.5242 99.4251L61.5242 94.0221M68.9553 97.3877C68.4119 97.3877 68.0354 97.4492 67.8258 97.5722C67.6163 97.6953 67.5115 97.9052 67.5115 98.2019C67.5115 98.4383 67.5895 98.6265 67.7454 98.7664C67.9038 98.904 68.1182 98.9727 68.3887 98.9727C68.7616 98.9727 69.0601 98.8424 69.2843 98.5819C69.5109 98.3189 69.6242 97.9703 69.6242 97.536L69.6242 97.3877L68.9553 97.3877M70.2968 97.1126L70.2968 99.4251L69.6242 99.4251L69.6242 98.8099C69.4707 99.056 69.2794 99.2381 69.0503 99.3563C68.8213 99.4721 68.541 99.53 68.2096 99.53C67.7905 99.53 67.4566 99.4142 67.2081 99.1826C66.962 98.9486 66.8389 98.6362 66.8389 98.2453C66.8389 97.7894 66.9924 97.4456 67.2995 97.214C67.609 96.9824 68.0695 96.8666 68.6812 96.8666L69.6242 96.8666L69.6242 96.8014C69.6242 96.495 69.5219 96.2586 69.3172 96.0921C69.1149 95.9232 68.8298 95.8388 68.4618 95.8388C68.2279 95.8388 68.0001 95.8666 67.7783 95.922C67.5566 95.9775 67.3433 96.0608 67.1386 96.1717L67.1386 95.5565C67.3848 95.4624 67.6236 95.3925 67.8551 95.3466C68.0866 95.2984 68.312 95.2743 68.5313 95.2743C69.1234 95.2743 69.5657 95.4263 69.8581 95.7302C70.1506 96.0342 70.2968 96.495 70.2968 97.1126M74.8731 96.15C75.0413 95.8509 75.2423 95.6301 75.4762 95.4878C75.7102 95.3454 75.9855 95.2743 76.3023 95.2743C76.7287 95.2743 77.0577 95.4226 77.2892 95.7194C77.5207 96.0137 77.6365 96.4335 77.6365 96.9787L77.6365 99.4251L76.9603 99.4251L76.9603 97.0005C76.9602 96.612 76.8908 96.3237 76.7519 96.1355C76.613 95.9474 76.401 95.8533 76.1159 95.8533C75.7674 95.8533 75.4921 95.9679 75.2898 96.1971C75.0876 96.4263 74.9864 96.7387 74.9864 97.1343L74.9864 99.4251L74.3102 99.4251L74.3102 97.0005C74.3102 96.6096 74.2408 96.3213 74.1019 96.1355C73.963 95.9474 73.7485 95.8533 73.4585 95.8533C73.1149 95.8533 72.842 95.9691 72.6398 96.2007C72.4375 96.4299 72.3364 96.7411 72.3364 97.1343L72.3364 99.4251L71.6602 99.4251L71.6602 95.372L72.3364 95.372L72.3364 96.0017C72.4899 95.7532 72.6739 95.5698 72.8883 95.4516C73.1028 95.3334 73.3574 95.2743 73.6523 95.2743C73.9496 95.2743 74.2018 95.3491 74.4089 95.4986C74.6185 95.6482 74.7732 95.8653 74.8731 96.15M84.3109 95.5276L84.3109 96.15C84.1208 96.0463 83.9295 95.9691 83.737 95.9184C83.547 95.8653 83.3545 95.8388 83.1595 95.8388C82.7233 95.8388 82.3846 95.9763 82.1434 96.2514C81.9021 96.524 81.7815 96.9076 81.7815 97.4021C81.7815 97.8967 81.9021 98.2815 82.1434 98.5566C82.3846 98.8292 82.7233 98.9655 83.1595 98.9655C83.3545 98.9655 83.547 98.9401 83.737 98.8895C83.9295 98.8364 84.1208 98.758 84.3109 98.6543L84.3109 99.2695C84.1233 99.3563 83.9283 99.4215 83.7261 99.4649C83.5263 99.5083 83.313 99.53 83.0864 99.53C82.4699 99.53 81.9801 99.3382 81.617 98.9546C81.2539 98.571 81.0724 98.0535 81.0724 97.4021C81.0724 96.7411 81.2551 96.2212 81.6207 95.8424C81.9886 95.4637 82.4918 95.2743 83.1303 95.2743C83.3374 95.2743 83.5397 95.296 83.737 95.3394C83.9344 95.3804 84.1257 95.4431 84.3109 95.5276"  />
  </g>
</svg>
