<?xml version="1.0" standalone="no"?>
<!DOCTYPE svg PUBLIC "-//W3C//DTD SVG 20010904//EN" "http://www.w3.org/TR/2001/REC-SVG-20010904/DTD/svg10.dtd">
<!-- Created using Karbon14, part of koffice: http://www.koffice.org/karbon -->
<svg xmlns="http://www.w3.org/2000/svg" xmlns:xlink="http://www.w3.org/1999/xlink" width="128px" height="128px">
  <defs>
    <linearGradient id="defitem151" gradientUnits="userSpaceOnUse" x1="28.2633" y1="92.6043" x2="5.97949" y2="115.138" >
      <stop stop-color="#000000" offset="0" stop-opacity="1" />
      <stop stop-color="#000000" offset="1" stop-opacity="0" />
    </linearGradient>
    <radialGradient id="defitem152" gradientUnits="userSpaceOnUse" cx="55.8536" cy="46.47" fx="55.8536" fy="46.47" r="4.7953" >
      <stop stop-color="#b3932a" offset="0" stop-opacity="1" />
      <stop stop-color="#e4dbc8" offset="1" stop-opacity="1" />
    </radialGradient>
    <radialGradient id="defitem153" gradientUnits="userSpaceOnUse" cx="38.0842" cy="68.7701" fx="38.0842" fy="68.7701" r="4.40579" >
      <stop stop-color="#242424" offset="0" stop-opacity="1" />
      <stop stop-color="#242424" offset="0.5" stop-opacity="1" />
      <stop stop-color="#242424" offset="0.75" stop-opacity="1" />
      <stop stop-color="#000000" offset="1" stop-opacity="1" />
    </radialGradient>
    <radialGradient id="defitem154" gradientUnits="userSpaceOnUse" cx="30.1268" cy="74.482" fx="4.33249" fy="102.878" r="2.75079" >
      <stop stop-color="#9a7500" offset="0" stop-opacity="1" />
      <stop stop-color="#e2ac00" offset="0.0929204" stop-opacity="1" />
      <stop stop-color="#ffcd2b" offset="0.504317" stop-opacity="1" />
      <stop stop-color="#e2ac00" offset="0.915714" stop-opacity="1" />
      <stop stop-color="#b88c00" offset="1" stop-opacity="1" />
    </radialGradient>
    <linearGradient id="defitem155" gradientUnits="userSpaceOnUse" x1="34.0326" y1="78.9869" x2="31.8716" y2="77.008" >
      <stop stop-color="#9a7500" offset="0" stop-opacity="1" />
      <stop stop-color="#e2ac00" offset="0.0929204" stop-opacity="1" />
      <stop stop-color="#ffcd2b" offset="0.504317" stop-opacity="1" />
      <stop stop-color="#e2ac00" offset="0.915714" stop-opacity="1" />
      <stop stop-color="#b88c00" offset="1" stop-opacity="1" />
    </linearGradient>
    <radialGradient id="defitem156" gradientUnits="userSpaceOnUse" cx="27.7968" cy="83.6185" fx="27.7968" fy="83.6185" r="31.115" >
      <stop stop-color="#ffffff" offset="0" stop-opacity="0.683453" />
      <stop stop-color="#ffffff" offset="1" stop-opacity="0" />
    </radialGradient>
    <radialGradient id="defitem157" gradientUnits="userSpaceOnUse" cx="8.67769" cy="98.8051" fx="9.59604" fy="100.698" r="4.77026" >
      <stop stop-color="#ffffff" offset="0" stop-opacity="1" />
      <stop stop-color="#aeaeae" offset="1" stop-opacity="1" />
    </radialGradient>
    <radialGradient id="defitem158" gradientUnits="userSpaceOnUse" cx="3.86988" cy="103.905" fx="3.86988" fy="103.905" r="2.06965" >
      <stop stop-color="#ffffff" offset="0" stop-opacity="1" />
      <stop stop-color="#242424" offset="1" stop-opacity="0" />
    </radialGradient>
    <linearGradient id="defitem159" gradientUnits="userSpaceOnUse" x1="2.81569" y1="105.923" x2="3.88555" y2="104.377" >
      <stop stop-color="#ffffff" offset="0" stop-opacity="1" />
      <stop stop-color="#ffffff" offset="1" stop-opacity="0" />
    </linearGradient>
    <linearGradient id="defitem160" gradientUnits="userSpaceOnUse" x1="49.6805" y1="61.0006" x2="28.7253" y2="61.0006" >
      <stop stop-color="#b3932a" offset="0" stop-opacity="1" />
      <stop stop-color="#e4dbc8" offset="1" stop-opacity="1" />
    </linearGradient>
    <radialGradient id="defitem161" gradientUnits="userSpaceOnUse" cx="6.41817" cy="106.162" fx="6.41817" fy="106.162" r="1.41758" >
      <stop stop-color="#ffffff" offset="0" stop-opacity="1" />
      <stop stop-color="#242424" offset="1" stop-opacity="0" />
    </radialGradient>
  </defs>
  <g id="Layer">
    <path id="path6594" fill="#000000" stroke-width="1.03869" d="M14 6L14.0425 122L77.7208 122C78.2729 122 78.8031 121.781 79.1938 121.393L113.39 87.3925C113.78 87.0041 114 86.477 114 85.928L114 6L14 6Z"  />
    <path id="path34" fill="none" d="M16 8L16 120L77.172 120C77.702 120 78.211 119.789 78.586 119.414L111.414 86.586C111.789 86.211 112 85.702 112 85.172L112 8L16 8Z"  />
    <path id="path59" fill="none" d="M18.9787 10C18.4394 10 18 10.441 18 10.982L18 117.018C18 117.56 18.4394 118 18.9787 118L76.8917 118C77.1492 118 77.4017 117.896 77.5837 117.712L109.713 85.4812C109.896 85.2976 110 85.0453 110 84.7871L110 10.982C110 10.441 109.562 10 109.021 10L18.9787 10Z"  />
    <g id="g1973">
      <path id="path66" fill="none" d="M111.414 86.586C111.664 86.336 93.035 93 88 93C86.346 93 85 94.346 85 96C85 101.035 78.336 119.664 78.586 119.414L111.414 86.586Z"  />
      <path id="path73" fill="none" d="M111.414 86.586C111.789 86.211 97.444 94 88 94C86.897 94 86 94.897 86 96C86 105.444 78.211 119.789 78.586 119.414L111.414 86.586Z"  />
      <path id="path80" fill="none" d="M111.414 86.586C111.653 86.347 97.807 95 88 95C87.447 95 87 95.447 87 96C87 105.807 78.347 119.653 78.586 119.414L111.414 86.586Z"  />
      <path id="path101" fill="none" d="M78.586 119.414C78.586 119.414 90.5 109.5 96 104C101.5 98.5 111.414 86.586 111.414 86.586C111.414 86.586 98.25 96 88 96C88 106.25 78.586 119.414 78.586 119.414Z"  />
    </g>
    <g id="g6121">
      <path id="path4050" fill="url(#defitem151)" stroke-width="1.1196" d="M12.4684 111.221C11.64 111.305 9.99665 111.042 8.20323 109.85C5.78852 108.246 5.1702 106.518 5.53444 106.082C5.54411 106.071 5.55544 106.06 5.56511 106.048L50.6413 52.0752L50.7639 51.9384L50.7946 51.9042L50.8559 51.8359L68.2468 37.9851L58.3131 56.7334C58.3246 56.7411 58.2468 56.8553 58.2583 56.8629L58.1357 56.9997C58.1357 56.9997 12.7445 111.193 12.4684 111.221Z"  fill-rule="evenodd" />
      <g id="g2244">
        <path id="path3180" fill="#000000" stroke-width="0.789091" d="M7.38613 107.193C7.05011 107.55 4.88359 107.343 2.6084 105.266C0.310885 103.168 -0.124607 101.167 0.296306 100.72C0.570252 100.429 0.844214 100.138 1.11816 99.8477C3.48146 102.005 5.84473 104.163 8.20801 106.321C7.93406 106.612 7.6601 106.903 7.38613 107.193C7.38613 107.193 7.38613 107.193 7.38613 107.193"  fill-rule="evenodd" />
        <path id="path3299" fill="#000000" stroke="#000000" stroke-width="0" d="M72 31.4926L52.6786 45.0041L52.5691 45.1204L59.5426 51.7171L59.691 51.5595L72 31.4926Z"  fill-rule="evenodd" />
        <path id="path2247" fill="url(#defitem152)" stroke="#000000" stroke-width="0" d="M70.8833 32.595L52.8652 45.1874L52.7557 45.3037L59.3559 51.5339L59.5044 51.3763L70.8833 32.595Z"  fill-rule="evenodd" />
        <path id="rect2192" fill="url(#defitem153)" stroke-width="0.394545" stroke-linecap="round" stroke-linejoin="round" d="M56.6877 47.7478C55.8132 46.9494 54.919 47.2487 54.6064 46.9633C54.5559 46.9172 54.5224 46.8542 54.4986 46.7869L2.50636 102.089L5.94311 105.227L58.0341 49.82C57.8773 49.8324 57.7383 49.8228 57.6395 49.7326C57.3538 49.4717 57.5662 48.5499 56.6877 47.7478Z"  />
        <path id="path2233" fill="#000000" stroke-width="0.394545" stroke-linecap="round" stroke-linejoin="round" d="M52.6429 49.0047L54.6787 46.8435C54.4055 46.5487 54.7803 45.7368 54.2551 45.2573C53.6892 44.7405 53.0746 45.3262 52.7068 44.9944L50.6463 47.1818L52.6429 49.0047Z"  />
        <path id="rect2190" fill="url(#defitem154)" stroke-width="0.394545" stroke-linecap="round" stroke-linejoin="round" d="M2.63184 102.203L54.5846 46.9434C54.3099 46.6473 54.5895 45.9343 54.0616 45.4524C53.4927 44.9329 52.9721 45.4186 52.6025 45.085L0.625046 100.371L2.63184 102.203Z"  />
        <path id="path2231" fill="#242424" stroke-width="0.394545" stroke-linecap="round" stroke-linejoin="round" d="M56.6497 50.7823L57.6941 49.6737L57.7336 49.6326C57.5002 49.4052 57.8411 48.5791 57.0922 47.7598L57.0486 47.72L56.7376 47.4361L56.694 47.3963C55.7995 46.7151 54.9887 47.1265 54.6762 46.8411L53.5701 48.0214L56.6497 50.7823Z"  />
        <path id="path2229" fill="#121212" stroke-width="0.394545" stroke-linecap="round" stroke-linejoin="round" d="M58.6357 52.6174L59.6929 51.5566C59.682 51.5467 59.7683 51.4543 59.7573 51.4442C59.5329 51.2394 59.8441 50.4137 59.471 49.9318L59.4329 49.8969L59.2638 49.7425L59.2419 49.7226C58.7136 49.3758 58.0045 49.8073 57.7336 49.6326L56.6392 50.7945L58.6357 52.6174Z"  />
        <path id="rect1315" fill="url(#defitem155)" stroke-width="0.394545" stroke-linecap="round" stroke-linejoin="round" d="M59.1522 50.027C58.6016 49.5359 57.9309 49.9987 57.6395 49.7326L5.6867 104.993L7.71489 106.844L59.6923 51.5581C59.6812 51.548 59.6702 51.538 59.6591 51.5278C59.4312 51.3197 59.7069 50.5218 59.1522 50.027Z"  />
        <path fill="#000000" stroke-width="0.789091" stroke-linecap="round" stroke-linejoin="round" d="M8.95131 105.525L7.40169 107.161L0.308603 100.695L1.85823 99.0589L8.95131 105.525Z"  />
        <path id="path3301" fill="url(#defitem156)" stroke-width="0.248702" stroke-linecap="round" stroke-linejoin="round" d="M6.5065 106.207C7.00041 106.657 16.9328 96.9078 28.6911 84.4324C40.4494 71.9569 49.581 61.4792 49.0871 61.0298"  />
        <path id="path3321" fill="none" stroke-width="0.180501" stroke-linecap="round" stroke-linejoin="round" d="M5.40881 105.587C5.56373 105.729 17.508 93.2608 32.1627 77.6603C46.8174 62.0597 58.6975 49.1658 58.7728 48.7791C58.8481 48.3925 47.0904 60.6578 32.4369 76.2523C17.7834 91.8467 5.71861 104.933 5.41311 105.565"  />
        <path id="path2274" fill="url(#defitem157)" stroke-width="0.394545" stroke-linecap="round" stroke-linejoin="round" d="M11.0214 103.328C12.0233 102.711 12.9729 101.636 13.4831 100.715L7.78343 95.5582L5.32175 98.1715L11.0214 103.328ZM5.92078 98.7184L8.38247 96.1051L6.38573 94.2821C5.51295 94.7968 4.51155 95.8209 3.92404 96.8954L5.92078 98.7184Z"  />
        <path id="path2265" fill="#000000" stroke-width="0" d="M63.6917 37.2757C64.9884 37.4008 66.1027 39.3289 66.8198 39.9188L71.999 31.4969L63.6917 37.2757Z"  fill-rule="evenodd" />
        <path fill="url(#defitem158)" stroke-width="0" stroke-linecap="round" stroke-linejoin="round" d="M5.76982 104.906L5.14928 105.565L2.09245 102.774L2.71299 102.115L5.76982 104.906Z"  />
        <path id="path3233" fill="url(#defitem159)" stroke-width="0.789091" d="M3.31882 105.731C1.84673 104.578 0.8076 103.002 0.751475 102.851C0.695367 102.701 2.1155 104.468 3.33402 105.286C4.54321 106.098 6.25103 106.145 6.37563 106.244C6.50024 106.342 7.33904 107.242 6.56516 107.196C5.75572 107.149 4.45587 106.62 3.31882 105.731Z"  fill-rule="evenodd" />
        <path id="text3284" fill="url(#defitem160)" stroke-width="0.789091" d="M48.8199 51.5751C48.9799 51.4054 49.0703 51.243 49.091 51.0878C49.1117 50.9327 49.0609 50.7992 48.9385 50.6873C48.8165 50.5758 48.6778 50.5361 48.5221 50.5679C48.3665 50.5998 48.2087 50.7006 48.0487 50.8703C47.8878 51.0409 47.797 51.2038 47.7762 51.359C47.7555 51.5141 47.8061 51.6474 47.928 51.7589C48.0504 51.8708 48.1895 51.9108 48.3451 51.8789C48.5007 51.847 48.659 51.7457 48.8199 51.5751M49.037 51.7735C48.7097 52.1206 48.3999 52.3437 48.1076 52.4427C47.8153 52.5417 47.5749 52.5051 47.3866 52.333C47.1988 52.1613 47.1442 51.9283 47.2228 51.634C47.3014 51.3396 47.5043 51.0189 47.8316 50.6718C48.158 50.3257 48.4678 50.1027 48.761 50.0027C49.0533 49.9037 49.2934 49.94 49.4812 50.1117C49.6695 50.2838 49.7244 50.517 49.6458 50.8114C49.5663 51.1067 49.3634 51.4274 49.037 51.7735M45.968 53.8635L44.6687 54.0707L45.2155 53.4908L46.0883 53.3488L46.1632 52.4857L46.7128 51.9029L46.5994 53.1939L47.8473 52.9937L47.2992 53.575L46.4789 53.7058L46.4087 54.5194L45.8578 55.1036L45.968 53.8635M45.8005 55.1643L45.2264 55.7732L44.3488 55.8865L44.2991 56.7566L43.7237 57.3668L43.8272 55.9295L43.3377 55.4821L43.8627 54.9253L44.3522 55.3727L45.8005 55.1643M40.5932 58.5633C40.6878 58.3912 40.7965 58.2222 40.9192 58.0562C41.042 57.8901 41.1783 57.7276 41.3283 57.5685C41.6674 57.2089 41.99 56.9733 42.2961 56.8618C42.6027 56.7507 42.8486 56.7798 43.0338 56.9491C43.2211 57.1202 43.2676 57.3619 43.1731 57.6741C43.0787 57.9863 42.856 58.3284 42.5051 58.7006C42.3697 58.8442 42.2328 58.975 42.0947 59.0928C41.9556 59.2116 41.8168 59.3163 41.6783 59.4069L41.4378 59.1871C41.5883 59.1003 41.729 59.0054 41.8598 58.9024C41.9898 58.8004 42.1112 58.6897 42.2239 58.5701C42.433 58.3484 42.5609 58.1467 42.6076 57.965C42.6539 57.7847 42.6151 57.638 42.4911 57.5246C42.3682 57.4123 42.2187 57.3833 42.0426 57.4379C41.8666 57.4924 41.6782 57.6262 41.4773 57.8393C41.4227 57.8971 41.3741 57.9523 41.3313 58.0048C41.2882 58.0587 41.2522 58.1092 41.2232 58.1563L41.4489 58.3626L41.7693 58.0227L41.9701 58.2062L41.1519 59.0739L40.5932 58.5633M41.2077 60.035L39.7909 61.5375L39.5644 61.3306L40.4563 60.3848L40.2399 60.1871L39.4013 61.0764L39.1748 60.8695L40.0135 59.9801L39.7473 59.7368L38.8255 60.7144L38.5991 60.5075L40.0459 58.9731L41.2077 60.035M39.2986 62.0596L38.7122 62.6814L37.1749 62.7384L37.9718 63.4667L37.474 63.9945L36.3122 62.9327L36.8986 62.3108L38.4359 62.2539L37.639 61.5256L38.1368 60.9977L39.2986 62.0596M35.9931 65.565L35.4068 66.1869L33.8694 66.2439L34.6663 66.9721L34.1686 67.5L33.0067 66.4381L33.5931 65.8163L35.1304 65.7593L34.3336 65.031L34.8313 64.5032L35.9931 65.565M33.1477 68.6241C32.9541 68.8294 32.7726 68.9651 32.6032 69.031C32.4329 69.0979 32.2984 69.0863 32.1998 68.9963C32.1013 68.9062 32.0794 68.7757 32.1341 68.605C32.1889 68.4343 32.3135 68.2457 32.5081 68.0394C32.7026 67.8331 32.8848 67.6962 33.0546 67.6289C33.2235 67.5624 33.3572 67.5743 33.4558 67.6644C33.5543 67.7544 33.5765 67.8851 33.5223 68.0563C33.4671 68.2285 33.3423 68.4177 33.1477 68.6241M32.9726 67.3547L31.8503 68.5449L31.6947 68.4026L32.817 67.2125L32.9726 67.3547M33.0155 68.5031C33.0918 68.4222 33.1346 68.3446 33.1437 68.2703C33.1519 68.1971 33.1259 68.1329 33.0658 68.0779C33.0056 68.0229 32.939 68.0024 32.8659 68.0164C32.7919 68.0314 32.7167 68.0793 32.6404 68.1603C32.5649 68.2403 32.5228 68.3167 32.5141 68.3895C32.5044 68.4633 32.5297 68.5277 32.5899 68.5827C32.65 68.6377 32.7174 68.6579 32.7919 68.6434C32.8655 68.6299 32.94 68.5832 33.0155 68.5031M29.5368 71.3549C29.3793 71.482 29.2399 71.5601 29.1187 71.5893C28.997 71.62 28.8976 71.6 28.8203 71.5293C28.7051 71.4241 28.6947 71.262 28.7891 71.0431C28.8839 70.8247 29.0796 70.5583 29.3759 70.244C29.4805 70.1331 29.5904 70.0263 29.7057 69.9235C29.8196 69.8211 29.9375 69.7243 30.0594 69.6328L30.2906 69.8441C30.1644 69.9226 30.0458 70.0063 29.9349 70.0952C29.8236 70.1856 29.7212 70.2804 29.6275 70.3797C29.4885 70.5272 29.3958 70.6526 29.3497 70.7558C29.3027 70.86 29.3048 70.9356 29.3562 70.9825C29.4091 71.0309 29.4872 71.0269 29.5906 70.9706C29.6935 70.9157 29.8191 70.8097 29.9673 70.6525L30.1773 70.4298L30.3702 70.6062L30.1493 70.8405C30.0175 70.9803 29.931 71.095 29.8898 71.1848C29.8491 71.2751 29.8529 71.3423 29.9012 71.3864C29.9458 71.4272 30.0116 71.4254 30.0988 71.3812C30.1859 71.3369 30.2867 71.2541 30.4012 71.1326C30.4858 71.043 30.5658 70.9473 30.6413 70.8458C30.7167 70.7443 30.7866 70.6385 30.8507 70.5284L31.0702 70.729C30.9832 70.854 30.8929 70.9744 30.7994 71.0899C30.7058 71.2055 30.61 71.3153 30.5118 71.4195C30.2473 71.7 30.0246 71.8869 29.8439 71.9803C29.6628 72.075 29.5225 72.0769 29.4228 71.9858C29.3549 71.9237 29.3305 71.8395 29.3496 71.7331C29.3693 71.6272 29.4317 71.5012 29.5368 71.3549"  />
        <path fill="url(#defitem161)" stroke-width="0" stroke-linecap="round" stroke-linejoin="round" d="M7.69123 106.957L7.20385 107.338L5.24141 105.292L5.72878 104.911L7.69123 106.957Z"  />
        <path fill="none" stroke-width="0" stroke-linecap="round" stroke-linejoin="round" d="M0.377338 100.372L1.98402e-06 100.859L2.12841 102.738L2.50575 102.252L0.377338 100.372Z"  />
      </g>
    </g>
  </g>
</svg>
