<?xml version="1.0" standalone="no"?>
<!DOCTYPE svg PUBLIC "-//W3C//DTD SVG 20010904//EN" "http://www.w3.org/TR/2001/REC-SVG-20010904/DTD/svg10.dtd">
<!-- Created using Karbon14, part of koffice: http://www.koffice.org/karbon -->
<svg xmlns="http://www.w3.org/2000/svg" xmlns:xlink="http://www.w3.org/1999/xlink" width="128px" height="128px">
  <defs>
    <radialGradient id="defitem0" gradientUnits="userSpaceOnUse" cx="64.0002" cy="122.802" fx="64.0002" fy="122.802" r="61.5368" >
      <stop stop-color="#000000" offset="0" stop-opacity="1" />
      <stop stop-color="#000000" offset="1" stop-opacity="0" />
    </radialGradient>
    <linearGradient id="defitem1" gradientUnits="userSpaceOnUse" x1="64.0002" y1="128" x2="64.0002" y2="122.802" >
      <stop stop-color="#ffffff" offset="0" stop-opacity="1" />
      <stop stop-color="#ffffff" offset="1" stop-opacity="0" />
    </linearGradient>
    <linearGradient id="defitem2" gradientUnits="userSpaceOnUse" x1="64.0002" y1="117.18" x2="64.0002" y2="122.802" >
      <stop stop-color="#ffffff" offset="0" stop-opacity="1" />
      <stop stop-color="#ffffff" offset="1" stop-opacity="0" />
    </linearGradient>
    <radialGradient id="defitem3" gradientUnits="userSpaceOnUse" cx="14.9871" cy="0.327" fx="14.9871" fy="0.327" r="128.035" >
      <stop stop-color="#f2f2f2" offset="0" stop-opacity="1" />
      <stop stop-color="#c3c3c3" offset="1" stop-opacity="1" />
    </radialGradient>
    <radialGradient id="defitem4" gradientUnits="userSpaceOnUse" cx="109.987" cy="100.827" fx="109.987" fy="100.827" r="103.251" >
      <stop stop-color="#525456" offset="0" stop-opacity="1" />
      <stop stop-color="#89898c" offset="0.113661" stop-opacity="1" />
      <stop stop-color="#ebebeb" offset="0.202967" stop-opacity="1" />
      <stop stop-color="#f9f9f9" offset="0.2363" stop-opacity="1" />
      <stop stop-color="#ffffff" offset="0.2722" stop-opacity="1" />
      <stop stop-color="#f9f9f9" offset="0.5313" stop-opacity="1" />
      <stop stop-color="#ebebeb" offset="0.8449" stop-opacity="1" />
      <stop stop-color="#e1e2e2" offset="1" stop-opacity="1" />
    </radialGradient>
    <linearGradient id="defitem5" gradientUnits="userSpaceOnUse" x1="104.931" y1="96.8989" x2="97.4451" y2="89.4132" >
      <stop stop-color="#878985" offset="0" stop-opacity="1" />
      <stop stop-color="#8c8e89" offset="0.0072" stop-opacity="1" />
      <stop stop-color="#aaaca8" offset="0.0673" stop-opacity="1" />
      <stop stop-color="#c3c6c3" offset="0.1347" stop-opacity="1" />
      <stop stop-color="#dbdbda" offset="0.265258" stop-opacity="1" />
      <stop stop-color="#ebebeb" offset="0.376461" stop-opacity="1" />
      <stop stop-color="#f6f6f6" offset="0.487403" stop-opacity="1" />
      <stop stop-color="#fdfdfd" offset="0.632409" stop-opacity="1" />
      <stop stop-color="#ffffff" offset="1" stop-opacity="1" />
    </linearGradient>
    <radialGradient id="defitem6" gradientUnits="userSpaceOnUse" cx="50.6511" cy="36.114" fx="50.6511" fy="36.114" r="5.62001" >
      <stop stop-color="#b3932a" offset="0" stop-opacity="1" />
      <stop stop-color="#e4dbc8" offset="1" stop-opacity="1" />
    </radialGradient>
    <radialGradient id="defitem7" gradientUnits="userSpaceOnUse" cx="33.3134" cy="64.7551" fx="33.3134" fy="64.7551" r="5.15847" >
      <stop stop-color="#242424" offset="0" stop-opacity="1" />
      <stop stop-color="#242424" offset="0.5" stop-opacity="1" />
      <stop stop-color="#242424" offset="0.75" stop-opacity="1" />
      <stop stop-color="#000000" offset="1" stop-opacity="1" />
    </radialGradient>
    <radialGradient id="defitem8" gradientUnits="userSpaceOnUse" cx="30.2758" cy="75.7859" fx="9.50362" fy="115.693" r="3.2211" >
      <stop stop-color="#9a7500" offset="0" stop-opacity="1" />
      <stop stop-color="#e2ac00" offset="0.0929204" stop-opacity="1" />
      <stop stop-color="#ffcd2b" offset="0.504317" stop-opacity="1" />
      <stop stop-color="#e2ac00" offset="0.915714" stop-opacity="1" />
      <stop stop-color="#b88c00" offset="1" stop-opacity="1" />
    </radialGradient>
    <linearGradient id="defitem9" gradientUnits="userSpaceOnUse" x1="23.6849" y1="73.4416" x2="26.7636" y2="74.9545" >
      <stop stop-color="#9a7500" offset="0" stop-opacity="1" />
      <stop stop-color="#e2ac00" offset="0.0929204" stop-opacity="1" />
      <stop stop-color="#ffcd2b" offset="0.504317" stop-opacity="1" />
      <stop stop-color="#e2ac00" offset="0.915714" stop-opacity="1" />
      <stop stop-color="#b88c00" offset="1" stop-opacity="1" />
    </linearGradient>
    <radialGradient id="defitem10" gradientUnits="userSpaceOnUse" cx="21.1326" cy="82.1512" fx="21.1326" fy="82.1512" r="36.4669" >
      <stop stop-color="#ffffff" offset="0" stop-opacity="0.683453" />
      <stop stop-color="#ffffff" offset="1" stop-opacity="0" />
    </radialGradient>
    <radialGradient id="defitem11" gradientUnits="userSpaceOnUse" cx="26.484" cy="74.7893" fx="26.484" fy="74.7893" r="45.6905" >
      <stop stop-color="#ffffff" offset="0" stop-opacity="1" />
      <stop stop-color="#ffffff" offset="1" stop-opacity="0" />
    </radialGradient>
    <radialGradient id="defitem12" gradientUnits="userSpaceOnUse" cx="12.2172" cy="109.269" fx="9.74525" fy="109.068" r="5.58431" >
      <stop stop-color="#ffffff" offset="0" stop-opacity="1" />
      <stop stop-color="#aeaeae" offset="1" stop-opacity="1" />
    </radialGradient>
    <radialGradient id="defitem13" gradientUnits="userSpaceOnUse" cx="8.55858" cy="116.626" fx="8.55858" fy="116.626" r="2.42283" >
      <stop stop-color="#ffffff" offset="0" stop-opacity="1" />
      <stop stop-color="#242424" offset="1" stop-opacity="0" />
    </radialGradient>
    <linearGradient id="defitem14" gradientUnits="userSpaceOnUse" x1="6.08147" y1="113.82" x2="8.6112" y2="120.479" >
      <stop stop-color="#ffff00" offset="0" stop-opacity="1" />
      <stop stop-color="#ffb66d" offset="1" stop-opacity="1" />
    </linearGradient>
    <linearGradient id="defitem15" gradientUnits="userSpaceOnUse" x1="29.7905" y1="63.7424" x2="53.0973" y2="56.8135" >
      <stop stop-color="#b3932a" offset="0" stop-opacity="1" />
      <stop stop-color="#e4dbc8" offset="1" stop-opacity="1" />
    </linearGradient>
    <radialGradient id="defitem16" gradientUnits="userSpaceOnUse" cx="29.6036" cy="18.311" fx="29.6036" fy="18.311" r="49.203" >
      <stop stop-color="#ffffff" offset="0" stop-opacity="1" />
      <stop stop-color="#ffffff" offset="1" stop-opacity="0" />
    </radialGradient>
    <radialGradient id="defitem17" gradientUnits="userSpaceOnUse" cx="12.1975" cy="118.539" fx="12.1975" fy="118.539" r="1.66155" >
      <stop stop-color="#ffffff" offset="0" stop-opacity="1" />
      <stop stop-color="#242424" offset="1" stop-opacity="0" />
    </radialGradient>
  </defs>
  <g id="Layer">
    <g id="Layer">
      <g id="sombra">
        <path id="path1563" fill="url(#defitem0)" stroke-width="0" stroke-linecap="round" stroke-linejoin="round" d="M128 122.802C128 125.667 99.3468 127.99 64.0002 127.99C28.6539 127.99 0.000171 125.667 0.000171 122.802C0.000171 119.937 28.6539 117.614 64.0002 117.614C99.3468 117.614 128 119.937 128 122.802L128 122.802Z"  />
        <path id="path3251" fill="url(#defitem1)" stroke-width="0" stroke-linecap="round" stroke-linejoin="round" d="M128 122.802L0.00017 122.802C0.00017 125.673 28.6539 128 64.0002 128C99.3468 128 128 125.673 128 122.802L128 122.802Z"  />
        <path id="path2455" fill="url(#defitem2)" stroke-width="0" stroke-linecap="round" stroke-linejoin="round" d="M128 122.802L0.00017 122.802C0.00017 119.697 28.6539 117.18 64.0002 117.18C99.3468 117.18 128 119.697 128 122.802L128 122.802Z"  />
        <path id="path2440" fill="#ffffff" fill-opacity="0.5" stroke-width="0" stroke-linecap="round" stroke-linejoin="round" d="M64 117.184C29.7583 117.184 1.77662 119.526 0.0625 122.496C0.000125 122.59 0 122.714 0 122.809C0 122.988 0.094004 123.134 0.3125 123.309C0.425013 123.402 0.546842 123.499 0.71875 123.59C1.85178 124.191 4.27039 124.763 7.71875 125.278C9.68924 125.572 11.9852 125.833 14.5938 126.09C18.5066 126.474 23.1115 126.81 28.2188 127.09C33.326 127.37 38.9567 127.594 44.9688 127.746C50.9808 127.898 57.3726 127.996 64 127.996C70.6275 127.996 77.0192 127.898 83.0313 127.746C89.0433 127.594 94.6741 127.37 99.7813 127.09C104.888 126.81 109.462 126.474 113.375 126.09C115.984 125.833 118.311 125.572 120.281 125.278C123.73 124.763 126.117 124.191 127.25 123.59C127.422 123.499 127.544 123.402 127.656 123.309C127.766 123.222 127.851 123.147 127.906 123.059C127.962 122.97 128 122.898 128 122.809C128 122.714 127.969 122.59 127.906 122.496C126.192 119.526 98.242 117.184 64 117.184Z"  />
      </g>
    </g>
    <g id="g8783">
      <path id="path6210" fill="#f6f6f6" fill-opacity="0.75" stroke="#000000" stroke-opacity="0.05" stroke-width="9.98122" stroke-linejoin="round" d="M30.0716 7.068L30.0716 109.999C30.0716 111.032 30.91 111.87 31.9431 111.87L87.3127 111.87C87.8086 111.87 88.2849 111.673 88.6358 111.322L119.354 80.6039C119.705 80.253 119.902 79.7767 119.902 79.2808L119.902 7.068L30.0716 7.068Z"  />
      <path id="path6212" fill="none" stroke="#000000" stroke-opacity="0.1" stroke-width="7.48591" stroke-linejoin="round" d="M30.0716 7.068L30.0716 109.999C30.0716 111.032 30.91 111.87 31.9431 111.87L87.3127 111.87C87.8086 111.87 88.2849 111.673 88.6358 111.322L119.354 80.6039C119.705 80.253 119.902 79.7767 119.902 79.2808L119.902 7.068L30.0716 7.068Z"  />
      <path id="path6214" fill="none" stroke="#000000" stroke-opacity="0.15" stroke-width="4.99061" stroke-linejoin="round" d="M30.0716 7.068L30.0716 109.999C30.0716 111.032 30.91 111.87 31.9431 111.87L87.3127 111.87C87.8086 111.87 88.2849 111.673 88.6358 111.322L119.354 80.6039C119.705 80.253 119.902 79.7767 119.902 79.2808L119.902 7.068L30.0716 7.068Z"  />
      <path id="path6216" fill="none" stroke="#000000" stroke-opacity="0.2" stroke-width="2.4953" stroke-linejoin="round" d="M30.0716 7.068L30.0716 109.999C30.0716 111.032 30.91 111.87 31.9431 111.87L87.3127 111.87C87.8086 111.87 88.2849 111.673 88.6358 111.322L119.354 80.6039C119.705 80.253 119.902 79.7767 119.902 79.2808L119.902 7.068L30.0716 7.068Z"  />
      <path id="path6218" fill="url(#defitem3)" d="M30.0716 7.068L30.0716 109.999C30.0716 111.032 30.91 111.87 31.9431 111.87L87.3127 111.87C87.8086 111.87 88.2849 111.673 88.6358 111.322L119.354 80.6039C119.705 80.253 119.902 79.7767 119.902 79.2808L119.902 7.068L30.0716 7.068Z"  />
      <path id="path6220" fill="url(#defitem4)" d="M33.4695 9.767C32.9722 9.767 32.5669 10.173 32.5669 10.671L32.5669 108.267C32.5669 108.766 32.9722 109.171 33.4695 109.171L86.8756 109.171C87.113 109.171 87.3458 109.075 87.5137 108.906L117.143 79.2406C117.312 79.0716 117.407 78.8394 117.407 78.6017L117.407 10.671C117.407 10.173 117.003 9.767 116.505 9.767L33.4695 9.767Z"  />
      <path id="path6222" fill="url(#defitem5)" d="M88.6358 111.322C88.6358 111.322 99.7842 102.045 104.931 96.8989C110.077 91.7523 119.354 80.6039 119.354 80.6039C119.354 80.6039 107.036 89.413 97.4449 89.413C97.4449 99.0043 88.6358 111.322 88.6358 111.322Z"  />
    </g>
    <g id="g5752">
      <path id="path5754" fill="#000000" stroke-width="0.832339" d=""  />
    </g>
    <path id="path5756" fill="#000000" d=""  />
    <g id="g5758">
    </g>
    <g id="g5760">
    </g>
    <g id="g5762">
    </g>
    <g id="g5764">
      <path id="path5766" fill="#000000" stroke-width="0.832339" d=""  />
    </g>
    <path id="path5768" fill="#000000" d=""  />
    <g id="g5770">
    </g>
    <g id="g5772">
    </g>
    <g id="g5774">
    </g>
    <path id="path5776" fill="#000000" d=""  />
    <g id="g5778">
      <path id="path5780" fill="#000000" stroke-width="0.832339" d=""  />
    </g>
    <path id="path5782" fill="#000000" d=""  />
    <g id="g5784">
    </g>
    <g id="g5786">
    </g>
    <g id="g5788">
    </g>
    <path id="path5790" fill="#000000" d=""  />
    <g id="g5792">
    </g>
    <g id="g5794">
    </g>
    <g id="g5796">
    </g>
    <g id="g5798">
    </g>
    <g id="g5800">
    </g>
    <g id="g5802">
    </g>
    <g id="g5804">
      <path id="path5806" fill="#000000" stroke-width="0.832339" d=""  />
    </g>
    <path id="path5808" fill="#000000" d=""  />
    <g id="g5810">
    </g>
    <g id="g5812">
    </g>
    <g id="g5814">
    </g>
    <path id="path5816" fill="#000000" d=""  />
    <g id="g5818">
      <path id="path5820" fill="#000000" stroke-width="0.832339" d=""  />
    </g>
    <path id="path5822" fill="#000000" d=""  />
    <g id="g5824">
    </g>
    <g id="g5826">
    </g>
    <g id="g5828">
    </g>
    <path id="path5830" fill="#000000" d=""  />
    <g id="g5832">
    </g>
    <g id="g5834">
    </g>
    <g id="g5836">
    </g>
    <g id="g5838">
    </g>
    <g id="g5840">
    </g>
    <g id="g5842">
    </g>
    <g id="g5678">
      <path id="path5680" fill="#000000" stroke-width="1.10298" d=""  />
    </g>
    <path id="path5682" fill="#000000" d=""  />
    <g id="g5684">
    </g>
    <g id="g5686">
    </g>
    <g id="g5688">
    </g>
    <g id="g11264">
      <path id="path11266" fill="#000000" stroke-width="1.10298" d=""  />
    </g>
    <path id="path11268" fill="#000000" d=""  />
    <g id="g11270">
    </g>
    <g id="g11272">
    </g>
    <g id="g11274">
    </g>
    <path id="path5696" fill="#000000" d=""  />
    <g id="g5698">
      <path id="path5700" fill="#000000" stroke-width="1.10298" d=""  />
    </g>
    <path id="path5702" fill="#000000" d=""  />
    <g id="g5704">
    </g>
    <g id="g5706">
    </g>
    <g id="g5708">
    </g>
    <path id="path5710" fill="#000000" d=""  />
    <g id="g5712">
    </g>
    <g id="g5714">
    </g>
    <g id="g5716">
    </g>
    <g id="g5718">
    </g>
    <g id="g5720">
    </g>
    <g id="g5722">
    </g>
    <g id="g12948">
      <path id="path12950" fill="#000000" stroke-width="1.10298" d=""  />
    </g>
    <path id="path12952" fill="#000000" d=""  />
    <g id="g12954">
    </g>
    <g id="g12956">
    </g>
    <g id="g12958">
    </g>
    <path id="path12983" fill="#000000" d=""  />
    <g id="g12985">
      <path id="path12987" fill="#000000" stroke-width="1.10298" d=""  />
    </g>
    <path id="path12989" fill="#000000" d=""  />
    <g id="g12991">
    </g>
    <g id="g12993">
    </g>
    <g id="g12995">
    </g>
    <path id="path12997" fill="#000000" d=""  />
    <g id="g13007">
    </g>
    <g id="g13009">
    </g>
    <g id="g13021">
    </g>
    <g id="g13023">
    </g>
    <g id="g13025">
    </g>
    <g id="g13027">
    </g>
    <g id="layer1">
      <path id="path3945" fill="#000000" d=""  />
    </g>
    <path id="path3081" fill="#000000" d=""  />
    <g id="layer2">
    </g>
    <g id="layer3">
    </g>
    <g id="layer4">
    </g>
    <g id="g8762">
      <path id="path3180" fill="#000000" stroke-width="0.729486" d="M3.47365 114.194C3.21764 114.708 4.33953 116.971 7.57411 118.566C10.8404 120.177 13.2324 119.809 13.5531 119.165C13.7618 118.746 13.9705 118.326 14.1792 117.907C10.8194 116.25 7.45961 114.593 4.09981 112.936C3.89109 113.355 3.68237 113.774 3.47365 114.194C3.47365 114.194 3.47365 114.194 3.47365 114.194"  fill-rule="evenodd" />
      <path id="path3299" fill="#000000" stroke="#000000" stroke-width="0" d="M60.5599 12.308L53.5802 38.9412L53.4967 39.1089L43.3286 34.3158L43.4417 34.0886L60.5599 12.308Z"  fill-rule="evenodd" />
      <path id="path2247" fill="url(#defitem6)" stroke="#000000" stroke-width="0" d="M59.8011 13.982L53.3007 38.8158L53.2172 38.9835L43.6082 34.4413L43.7212 34.214L59.8011 13.982Z"  fill-rule="evenodd" />
      <path id="rect2192" fill="url(#defitem7)" stroke-width="0.364743" stroke-linecap="round" stroke-linejoin="round" d="M48.8942 35.7451C50.1375 36.3583 50.1749 37.454 50.6193 37.6732C50.6911 37.7086 50.7746 37.7185 50.8588 37.716L11.1289 117.343L6.24299 114.933L46.0481 35.1551C46.099 35.3304 46.1668 35.4771 46.3073 35.5465C46.7135 35.7468 47.6453 35.1291 48.8942 35.7451Z"  />
      <path id="path2233" fill="#000000" stroke-width="0.364743" stroke-linecap="round" stroke-linejoin="round" d="M49.171 40.6606L50.7221 37.5444C51.1606 37.7169 51.904 36.9693 52.6506 37.3375C53.4553 37.7344 53.0608 38.647 53.5794 38.9065L52.0095 42.0605L49.171 40.6606Z"  />
      <path id="rect2190" fill="url(#defitem8)" stroke-width="0.364743" stroke-linecap="round" stroke-linejoin="round" d="M10.9505 117.255L50.6504 37.6885C51.091 37.8621 51.7642 37.2593 52.5147 37.6294C53.3235 38.0283 53.0009 38.797 53.5221 39.0578L13.8035 118.662L10.9505 117.255Z"  />
      <path id="path2231" fill="#242424" stroke-width="0.364743" stroke-linecap="round" stroke-linejoin="round" d="M45.5543 37.061L46.35 35.4625L46.3791 35.4023C46.7267 35.56 47.4997 34.8432 48.7143 35.3114L48.7763 35.342L49.2184 35.56L49.2804 35.5906C50.4022 36.2747 50.2814 37.327 50.7257 37.5462L49.8763 39.2417L45.5543 37.061Z"  />
      <path id="path2229" fill="#121212" stroke-width="0.364743" stroke-linecap="round" stroke-linejoin="round" d="M42.7067 35.6776L43.4441 34.0853C43.4597 34.093 43.5263 33.9606 43.5419 33.9683C43.8609 34.1256 44.6457 33.4412 45.3324 33.6434L45.3866 33.6702L45.6271 33.7887L45.6581 33.8041C46.2593 34.2314 46.0743 35.1819 46.3791 35.4023L45.5452 37.0776L42.7067 35.6776Z"  />
      <path id="rect1315" fill="url(#defitem9)" stroke-width="0.364743" stroke-linecap="round" stroke-linejoin="round" d="M45.3585 34.0292C46.1284 34.4202 45.893 35.3421 46.3073 35.5465L6.6075 115.113L3.72411 113.691L43.4427 34.0866C43.4585 34.0944 43.4741 34.102 43.49 34.1099C43.814 34.2697 44.5827 33.6354 45.3585 34.0292Z"  />
      <path fill="#000000" stroke-width="0.729486" stroke-linecap="round" stroke-linejoin="round" d="M4.67356 111.795L3.5034 114.163L13.5764 119.141L14.7465 116.773L4.67356 111.795Z"  />
      <path id="path3301" fill="url(#defitem10)" stroke-width="0.280385" stroke-linecap="round" stroke-linejoin="round" d="M4.92644 114.734C4.2259 114.387 10.9138 99.5178 19.8642 81.523C28.8146 63.5282 36.6383 49.2218 37.3388 49.5688C38.0393 49.9157 31.3515 64.7846 22.4011 82.7794C13.4506 100.774 5.62697 115.081 4.92644 114.734Z"  />
      <path id="path3321" fill="url(#defitem11)" stroke-width="0.20424" stroke-linecap="round" stroke-linejoin="round" d="M6.06455 115.664C5.84416 115.555 14.7097 97.3619 25.9224 74.9127C37.1351 52.4634 46.4982 34.1607 46.8947 33.9166C47.2912 33.6725 38.5728 51.5784 27.3663 74.0238C16.1599 96.4693 6.65983 115.053 6.08724 115.65"  />
      <path id="path5549" fill="url(#defitem12)" stroke-width="0.364743" stroke-linecap="round" stroke-linejoin="round" d="M6.24997 108.627C6.51908 107.281 7.3165 105.799 8.12544 104.859L16.1761 108.875L14.3007 112.643L6.24997 108.627ZM13.449 112.223L15.3245 108.455L18.1632 109.855C17.9537 111.018 17.2339 112.535 16.2877 113.623L13.449 112.223Z"  />
      <path id="path2265" fill="#000000" stroke-width="0" d="M57.5884 23.749C56.9158 22.395 54.3245 21.996 53.3767 21.466L60.5557 12.31L57.5884 23.749Z"  fill-rule="evenodd" />
      <path fill="url(#defitem13)" stroke-width="0" stroke-linecap="round" stroke-linejoin="round" d="M6.66875 114.986L6.19598 115.936L10.5418 118.079L11.0145 117.13L6.66875 114.986Z"  />
      <path id="path3233" fill="url(#defitem14)" stroke-width="0.729486" d="M6.76722 117.991C8.64874 119.104 10.8191 119.569 11.0088 119.566C11.1984 119.564 8.6596 118.766 7.25273 117.788C5.85662 116.817 5.10042 114.985 4.94016 114.891C4.77991 114.797 3.43972 114.265 3.80861 115.085C4.19445 115.944 5.31484 117.131 6.76722 117.991Z"  fill-rule="evenodd" />
      <path id="path5554" fill="url(#defitem15)" stroke-width="0.729486" d="M33.9248 74.145C33.8041 74.3903 33.7583 74.6043 33.7875 74.7871C33.8168 74.9699 33.9183 75.1045 34.0922 75.1909C34.2654 75.2769 34.4332 75.2761 34.5955 75.1885C34.7578 75.1009 34.8994 74.9345 35.0202 74.6892C35.1416 74.4425 35.1877 74.2277 35.1585 74.045C35.1292 73.8622 35.028 73.7278 34.8549 73.6417C34.681 73.5553 34.5129 73.556 34.3505 73.6436C34.1882 73.7312 34.0463 73.8983 33.9248 74.145M33.6165 73.9918C33.8635 73.49 34.1329 73.1347 34.4246 72.9258C34.7164 72.7169 34.996 72.6789 35.2635 72.8118C35.5302 72.9443 35.6695 73.1904 35.6813 73.5502C35.6931 73.9099 35.5755 74.3406 35.3285 74.8424C35.0822 75.3427 34.8128 75.6981 34.5204 75.9084C34.2286 76.1173 33.9494 76.1555 33.6826 76.0229C33.4151 75.8901 33.2755 75.6438 33.2637 75.284C33.2526 74.9229 33.3702 74.4922 33.6165 73.9918M36.3254 70.6073L37.7007 69.9428L37.288 70.7811L36.3651 71.2307L36.5727 72.2341L36.1579 73.0766L35.8488 71.5752L34.5283 72.215L34.9421 71.3745L35.8103 70.955L35.6142 70.0093L36.03 69.1647L36.3254 70.6073M36.0732 69.0769L36.5065 68.1968L37.4444 67.7781L37.2063 66.7751L37.6407 65.8929L38.01 67.5569L38.7052 67.9023L38.309 68.7072L37.6137 68.3618L36.0732 69.0769M40.7192 63.5012C40.6719 63.7276 40.608 63.9551 40.5275 64.184C40.4469 64.4128 40.35 64.6422 40.2368 64.8722C39.9809 65.3921 39.7015 65.7658 39.3986 65.9935C39.0951 66.2209 38.8118 66.2692 38.5487 66.1385C38.2827 66.0063 38.1496 65.7477 38.1494 65.3625C38.1492 64.9773 38.2815 64.5157 38.5464 63.9777C38.6486 63.77 38.7567 63.5765 38.8706 63.3972C38.9853 63.2166 39.1044 63.052 39.2279 62.9034L39.5694 63.0731C39.4314 63.2214 39.3069 63.3755 39.196 63.5355C39.0858 63.6941 38.9882 63.8598 38.9031 64.0327C38.7453 64.3532 38.671 64.6242 38.6803 64.8457C38.6896 65.0653 38.7822 65.2189 38.9583 65.3064C39.133 65.3932 39.309 65.3765 39.4864 65.2565C39.6637 65.1365 39.8283 64.9225 39.9799 64.6145C40.0211 64.5308 40.0566 64.4522 40.0864 64.3786C40.1162 64.3032 40.1393 64.234 40.1556 64.171L39.8351 64.0117L39.5932 64.503L39.308 64.3613L39.9256 63.107L40.7192 63.5012M39.5395 62.0357L40.6089 59.8636L40.9305 60.0233L40.2574 61.3906L40.5647 61.5433L41.1976 60.2575L41.5193 60.4173L40.8863 61.7031L41.2643 61.8909L41.9601 60.4776L42.2817 60.6374L41.1897 62.8556L39.5395 62.0357M40.9804 59.1088L41.423 58.2099L43.1136 57.637L41.9818 57.0747L42.3575 56.3116L44.0077 57.1314L43.5651 58.0304L41.8745 58.6033L43.0063 59.1656L42.6306 59.9287L40.9804 59.1088M43.4752 54.0412L43.9178 53.1422L45.6084 52.5693L44.4766 52.007L44.8523 51.2439L46.5025 52.0638L46.0599 52.9627L44.3692 53.5356L45.501 54.0979L45.1254 54.861L43.4752 54.0412M45.6088 49.6318C45.7549 49.335 45.9111 49.1211 46.0773 48.9903C46.2441 48.8582 46.3976 48.8268 46.5376 48.8964C46.6776 48.966 46.7459 49.1066 46.7426 49.3183C46.7392 49.53 46.6641 49.785 46.5173 50.0832C46.3705 50.3815 46.214 50.5969 46.0478 50.7295C45.8824 50.8606 45.7297 50.8914 45.5897 50.8219C45.4497 50.7523 45.381 50.6115 45.3836 50.3994C45.3869 50.186 45.4619 49.9301 45.6088 49.6318M46.2314 51.0132L47.0785 49.2926L47.2995 49.4024L46.4525 51.123L46.2314 51.0132M45.7967 49.7252C45.739 49.8423 45.7176 49.9444 45.7325 50.0316C45.748 50.1174 45.7986 50.1815 45.884 50.2239C45.9695 50.2664 46.0505 50.2676 46.1271 50.2276C46.2043 50.1862 46.2718 50.107 46.3294 49.9899C46.3864 49.8742 46.4074 49.7736 46.3926 49.6882C46.3785 49.6014 46.3287 49.5368 46.2432 49.4943C46.1577 49.4519 46.076 49.4511 45.998 49.4922C45.9207 49.5319 45.8536 49.6095 45.7967 49.7252M48.7044 45.3415C48.8368 45.1453 48.9655 45.0106 49.0905 44.9374C49.2154 44.8624 49.3328 44.8522 49.4426 44.9068C49.6061 44.988 49.6723 45.1684 49.6412 45.4478C49.6093 45.7268 49.4815 46.0935 49.2578 46.5479C49.1789 46.7082 49.0926 46.8657 48.999 47.0204C48.9069 47.1741 48.8084 47.3229 48.7036 47.4669L48.3753 47.3038C48.4892 47.173 48.5928 47.0389 48.6862 46.9014C48.7795 46.7621 48.8615 46.6207 48.9322 46.4772C49.0372 46.2639 49.0979 46.0912 49.1144 45.9589C49.1316 45.8252 49.1038 45.7402 49.0308 45.704C48.9557 45.6666 48.8701 45.697 48.7742 45.795C48.6782 45.8913 48.5742 46.053 48.4624 46.2802L48.3039 46.6022L48.0298 46.466L48.1965 46.1273C48.296 45.9252 48.3536 45.7665 48.3691 45.651C48.3839 45.5352 48.3571 45.4603 48.2886 45.4263C48.2252 45.3948 48.1525 45.4185 48.0705 45.4975C47.9886 45.5764 47.9043 45.7037 47.8179 45.8793C47.7541 46.009 47.6973 46.1438 47.6476 46.2839C47.5979 46.424 47.5559 46.5671 47.5216 46.7131L47.2099 46.5582C47.2646 46.3876 47.3244 46.2214 47.3895 46.0594C47.4545 45.8974 47.5241 45.7412 47.5982 45.5907C47.7979 45.1851 47.9825 44.8995 48.152 44.734C48.3215 44.5667 48.477 44.5181 48.6185 44.5884C48.715 44.6364 48.7705 44.7238 48.7851 44.8507C48.7989 44.9773 48.772 45.1409 48.7044 45.3415"  />
      <path fill="url(#defitem16)" stroke-width="0" stroke-linecap="round" stroke-linejoin="round" d="M3.60874 113.764L3.38858 114.452L6.45982 115.722L6.67997 115.033L3.60874 113.764Z"  />
      <path fill="url(#defitem17)" stroke-width="0" stroke-linecap="round" stroke-linejoin="round" d="M13.9043 118.931L13.522 119.545L10.5664 118.026L10.9487 117.412L13.9043 118.931Z"  />
    </g>
    <path id="path2167" fill="#000000" d=""  />
    <g id="g3036">
      <path id="path4922" fill="#000000" d=""  />
    </g>
    <path id="path4924" fill="#000000" d=""  />
    <g id="g4926">
    </g>
    <g id="g4928">
    </g>
    <g id="g4930">
    </g>
    <path id="path10095" fill="#000000" d=""  />
    <path id="path2276" fill="#ffffff" fill-opacity="0.756881" stroke-width="0.5" stroke-linecap="round" stroke-linejoin="round" d="M199.957 -19.365L199.957 -22.159L199.957 -19.365Z"  />
    <path id="path2191" fill="#ffffff" fill-opacity="0.756881" stroke-width="0.5" stroke-linecap="round" stroke-linejoin="round" d="M494.566 -81.555L494.566 -84.35L494.566 -81.555Z"  />
    <path id="path2985" fill="#ffffff" fill-opacity="0.756881" stroke-width="0.5" stroke-linecap="round" stroke-linejoin="round" d="M337.558 -151.191L337.558 -153.985L337.558 -151.191Z"  />
    <path id="path3206" fill="#ffffff" fill-opacity="0.756881" stroke-width="0.5" stroke-linecap="round" stroke-linejoin="round" d="M218.056 -237.821L218.056 -240.616L218.056 -237.821Z"  />
    <g id="g2878">
    </g>
    <g id="g4938">
    </g>
    <path id="path3946" fill="#ffffff" fill-opacity="0.756881" stroke-width="0.5" stroke-linecap="round" stroke-linejoin="round" d="M464.647 -172.066L464.647 -174.86L464.647 -172.066Z"  />
    <path id="path1561" fill="#ffffff" fill-opacity="0.756881" stroke-width="0.5" stroke-linecap="round" stroke-linejoin="round" d="M372.023 -98.172L372.023 -99.699L372.023 -98.172Z"  />
    <path fill="#ffffff" stroke-width="3.632" stroke-linecap="round" stroke-linejoin="round" d="M314.538 -154.772L314.538 -154.772L315.538 -154.772L315.538 -154.772L314.538 -154.772Z"  />
    <path fill="#ffffff" stroke-width="3.632" stroke-linecap="round" stroke-linejoin="round" d="M279.411 -182.299L279.411 -182.299L280.411 -182.299L280.411 -182.299L279.411 -182.299Z"  />
    <path id="path2494" fill="#ffffff" fill-opacity="0.756881" stroke-width="0.5" stroke-linecap="round" stroke-linejoin="round" d="M120.474 -255.516L120.474 -258.31L120.474 -255.516Z"  />
    <g id="g4640">
    </g>
    <g id="g4646">
    </g>
    <g id="g4730">
    </g>
    <g id="g4748">
    </g>
    <path id="path4226" fill="#ffffff" fill-opacity="0.756881" stroke-width="0.5" stroke-linecap="round" stroke-linejoin="round" d="M389.688 31.761L389.688 28.9663L389.688 31.761Z"  />
  </g>
</svg>
