<?xml version="1.0" standalone="no"?>
<!DOCTYPE svg PUBLIC "-//W3C//DTD SVG 20010904//EN" "http://www.w3.org/TR/2001/REC-SVG-20010904/DTD/svg10.dtd">
<!-- Created using Karbon14, part of koffice: http://www.koffice.org/karbon -->
<svg xmlns="http://www.w3.org/2000/svg" xmlns:xlink="http://www.w3.org/1999/xlink" width="128px" height="128px">
  <defs>
    <linearGradient id="defitem80" gradientUnits="userSpaceOnUse" x1="65.0005" y1="116" x2="65.0005" y2="20" >
      <stop stop-color="#00469e" offset="0" stop-opacity="1" />
      <stop stop-color="#2b72c6" offset="0.0769" stop-opacity="1" />
      <stop stop-color="#6ea1df" offset="0.5858" stop-opacity="1" />
      <stop stop-color="#accaed" offset="0.9645" stop-opacity="1" />
    </linearGradient>
    <linearGradient id="defitem81" gradientUnits="userSpaceOnUse" x1="65.0025" y1="54.2578" x2="65.0025" y2="59.9583" >
      <stop stop-color="#70a8f4" offset="0.25" stop-opacity="0" />
      <stop stop-color="#0056ae" offset="1" stop-opacity="1" />
    </linearGradient>
    <radialGradient id="defitem82" gradientUnits="userSpaceOnUse" cx="95.5723" cy="93.7839" fx="95.5723" fy="93.7839" r="150.162" >
      <stop stop-color="#b6b8b8" offset="0" stop-opacity="1" />
      <stop stop-color="#ebebeb" offset="0.18851" stop-opacity="1" />
      <stop stop-color="#f9f9f9" offset="0.257181" stop-opacity="1" />
      <stop stop-color="#ffffff" offset="0.301113" stop-opacity="1" />
      <stop stop-color="#f9f9f9" offset="0.5313" stop-opacity="1" />
      <stop stop-color="#ebebeb" offset="0.8449" stop-opacity="1" />
      <stop stop-color="#e1e2e2" offset="1" stop-opacity="1" />
    </radialGradient>
    <linearGradient id="defitem83" gradientUnits="userSpaceOnUse" x1="92.7619" y1="88.9538" x2="86.623" y2="83.0483" >
      <stop stop-color="#a1a1a1" offset="0" stop-opacity="1" />
      <stop stop-color="#ffffff" offset="1" stop-opacity="1" />
    </linearGradient>
    <linearGradient id="defitem84" gradientUnits="userSpaceOnUse" x1="114.922" y1="116" x2="114.922" y2="60" >
      <stop stop-color="#72b3f4" offset="0" stop-opacity="1" />
      <stop stop-color="#b3d8ff" offset="0.130533" stop-opacity="1" />
      <stop stop-color="#b3d8ff" offset="0.346213" stop-opacity="1" />
      <stop stop-color="#70a8f4" offset="0.720062" stop-opacity="1" />
      <stop stop-color="#508ed8" offset="1" stop-opacity="1" />
    </linearGradient>
    <linearGradient id="defitem85" gradientUnits="userSpaceOnUse" x1="64.0009" y1="112.795" x2="64.0009" y2="59.9155" >
      <stop stop-color="#cfe6ff" offset="0" stop-opacity="1" />
      <stop stop-color="#70a8f4" offset="0.1" stop-opacity="1" />
      <stop stop-color="#2b72c6" offset="1" stop-opacity="1" />
    </linearGradient>
    <linearGradient id="defitem86" gradientUnits="userSpaceOnUse" x1="74.1325" y1="64" x2="74.1325" y2="70.0234" >
      <stop stop-color="#ffffff" offset="0" stop-opacity="1" />
      <stop stop-color="#ffffff" offset="1" stop-opacity="0" />
    </linearGradient>
  </defs>
  <g id="Layer">
    <path id="path15" fill="url(#defitem80)" d="M118.983 31C118.992 29.35 117.65 28 116 28L40.961 28C40.961 28 32.061 20 30.961 20L15 20C12.8 20 11 21.8 11 24L11 31C11 31 12 116 8 116L122 116C118 116 118.983 31 118.983 31Z"  />
    <g id="g17">
      <path id="path19" fill="#000000" fill-opacity="0.6" stroke-width="1.00167" d="M124.203 116C124.203 118.2 120.591 120 116.177 120L11.8293 120C7.41464 120 3.80262 118.2 3.80262 116C3.80262 113.8 7.41464 112 11.8293 112L116.177 112C120.591 112 124.203 113.8 124.203 116Z"  />
    </g>
    <path id="path50" fill="url(#defitem81)" fill-opacity="0.5" d="M10.8849 54C10.8939 55.75 10.9029 57.755 10.911 60L119.095 60C119.104 57.755 119.113 55.75 119.121 54L10.8849 54Z"  />
    <path id="path2896" fill="#5d95e2" d="M119.997 31C120.006 29.35 118.664 28 117.014 28L42.9752 28L36.3892 21.414C35.6112 20.636 34.0752 20 32.9752 20L12.0142 20C9.81422 20 8.01422 21.8 8.01422 24C8.01422 24 7.98222 54.4993 8.01422 60.0313L12.0142 60.0313C12.0142 53.2223 12.0142 24 12.0142 24L32.9012 23.997C33.0832 24.019 33.4702 24.179 33.5602 24.243L41.3182 32C41.3182 32 114.027 32 115.999 32C115.999 32.435 116 56.4003 116.002 60.0313L120.014 60.0313C120.045 54.4993 119.997 31 119.997 31Z"  />
    <g id="layer1">
      <path id="path7865" fill="#000000" stroke-width="0.874071" d="M21.8233 6.692L21.8233 104.069C21.8233 104.069 77.3175 104.069 77.3175 104.069L77.345 104.069C77.345 104.069 87.8068 95.4562 92.6396 90.6743C97.4723 85.8924 106.177 75.5407 106.177 75.5407L106.177 75.5135L106.177 6.692L21.8233 6.692Z"  />
      <path id="path34" fill="#ffffff" stroke-width="0.827855" d="M24.1192 7.777L24.1192 100.16C24.1192 100.16 76.5844 100.16 76.5844 100.16L103.881 73.0606L103.881 7.777L24.1192 7.777Z"  />
      <path id="path59" fill="url(#defitem82)" stroke-width="0.827855" d="M25.7809 8.601C25.3231 8.601 24.9501 8.972 24.9501 9.426L24.9501 98.4801C24.9501 98.9353 25.3231 99.3047 25.7809 99.3047L74.9439 99.3047C75.1625 99.3047 77.2393 99.4021 77.3939 99.2479L102.806 73.8424C102.962 73.6882 103.05 71.6278 103.05 71.411L103.05 9.426C103.05 8.972 102.678 8.601 102.219 8.601L25.7809 8.601Z"  />
      <path id="path5540" fill="#000000" stroke-width="0.827855" d="M78.8552 96.8461C78.8552 96.8461 99.0528 76.7942 99.0528 76.7942C99.0528 76.7942 91.2818 79.1971 82.7656 79.1971C82.7656 87.6519 78.8552 96.8461 78.8552 96.8461Z"  />
      <path id="path14523" fill="url(#defitem83)" stroke-width="0.827855" d="M76.6056 100.16C76.6056 100.16 86.5044 91.9823 91.0741 87.4456C95.6437 82.909 103.881 73.0817 103.881 73.0817C103.881 73.0817 92.4566 80.3635 83.9404 80.3635C83.9404 88.8182 76.6056 100.16 76.6056 100.16Z"  />
    </g>
    <path id="path30" fill="url(#defitem84)" d="M124.366 113.792C124.28 115.007 122.854 116 121.198 116L6.81291 116C5.15733 116 3.73152 115.007 3.64423 113.792L0.007982 62.2046C-0.112423 60.9925 1.14381 60 2.79938 60L125.212 60C126.867 60 128.118 60.9918 127.991 62.2039L124.366 113.792Z"  />
    <path id="path2894" fill="url(#defitem85)" d="M125.213 60L2.79993 60C1.14493 60 -0.112074 60.9925 0.00792607 62.2046L3.64393 113.792C3.73093 115.007 5.15693 116 6.81293 116L121.198 116C122.854 116 124.28 115.007 124.366 113.792L127.991 62.2039C128.119 60.9918 126.868 60 125.213 60ZM120.414 113.053C118.875 113.053 9.13493 113.053 7.59793 113.053C7.22993 107.837 4.52293 70.6276 4.06593 64.1492C6.51893 64.1492 121.458 64.1492 123.935 64.1492C123.814 65.8587 120.493 111.928 120.414 113.053Z"  />
    <path id="path2908" fill="url(#defitem86)" d="M4 64C4.02735 64.7759 4.18027 68.8011 4.22251 70C7.12392 70 122.789 70 125.715 70C125.743 69.1912 125.93 64.2047 125.938 64C123.418 64 6.4952 64 4 64Z"  />
  </g>
</svg>
