<?xml version="1.0" standalone="no"?>
<!DOCTYPE svg PUBLIC "-//W3C//DTD SVG 20010904//EN" "http://www.w3.org/TR/2001/REC-SVG-20010904/DTD/svg10.dtd">
<!-- Created using Karbon14, part of koffice: http://www.koffice.org/karbon -->
<svg xmlns="http://www.w3.org/2000/svg" xmlns:xlink="http://www.w3.org/1999/xlink" width="128px" height="128px">
  <defs>
    <radialGradient id="defitem0" gradientUnits="userSpaceOnUse" cx="89.5034" cy="49.0148" fx="89.5034" fy="49.0148" r="0.897368" >
      <stop stop-color="#ffffff" offset="0" stop-opacity="1" />
      <stop stop-color="#ffffff" offset="1" stop-opacity="0" />
    </radialGradient>
    <radialGradient id="defitem1" gradientUnits="userSpaceOnUse" cx="363.763" cy="24.748" fx="363.763" fy="24.748" r="1.17023" >
      <stop stop-color="#ffffff" offset="0" stop-opacity="1" />
      <stop stop-color="#ffffff" offset="1" stop-opacity="0" />
    </radialGradient>
    <linearGradient id="defitem2" gradientUnits="userSpaceOnUse" x1="58.6565" y1="102.896" x2="58.4731" y2="48.4047" >
      <stop stop-color="#ebc69e" offset="0" stop-opacity="1" />
      <stop stop-color="#efd1b1" offset="1" stop-opacity="1" />
    </linearGradient>
    <radialGradient id="defitem3" gradientUnits="userSpaceOnUse" cx="37.2351" cy="74.4936" fx="41.4097" fy="75.5052" r="16.4949" >
      <stop stop-color="#e6b683" offset="0" stop-opacity="1" />
      <stop stop-color="#e68e60" offset="1" stop-opacity="0" />
    </radialGradient>
    <radialGradient id="defitem4" gradientUnits="userSpaceOnUse" cx="36.4988" cy="77.2544" fx="30.792" fy="73.7571" r="14.7506" >
      <stop stop-color="#f2d8ba" offset="0" stop-opacity="1" />
      <stop stop-color="#f2d8ba" offset="1" stop-opacity="0" />
    </radialGradient>
    <radialGradient id="defitem5" gradientUnits="userSpaceOnUse" cx="65.033" cy="76.716" fx="65.033" fy="76.716" r="17.0911" >
      <stop stop-color="#e4ae77" offset="0" stop-opacity="1" />
      <stop stop-color="#e6b683" offset="1" stop-opacity="0" />
    </radialGradient>
    <radialGradient id="defitem6" gradientUnits="userSpaceOnUse" cx="77.3015" cy="75.7955" fx="77.3015" fy="75.7955" r="8.9525" >
      <stop stop-color="#f2d8ba" offset="0" stop-opacity="1" />
      <stop stop-color="#f2d8ba" offset="1" stop-opacity="0" />
    </radialGradient>
    <radialGradient id="defitem7" gradientUnits="userSpaceOnUse" cx="63.4849" cy="68.2883" fx="63.4849" fy="68.2883" r="4.6504" >
      <stop stop-color="#f6e8d6" offset="0" stop-opacity="1" />
      <stop stop-color="#f6e8d6" offset="1" stop-opacity="0" />
    </radialGradient>
    <radialGradient id="defitem8" gradientUnits="userSpaceOnUse" cx="54.1227" cy="77.3665" fx="54.1227" fy="77.3665" r="3.9817" >
      <stop stop-color="#f6e8d6" offset="0" stop-opacity="1" />
      <stop stop-color="#f6e8d6" offset="1" stop-opacity="0" />
    </radialGradient>
    <linearGradient id="defitem9" gradientUnits="userSpaceOnUse" x1="58.2132" y1="117.707" x2="41.4913" y2="94.1038" >
      <stop stop-color="#f6e8d6" offset="0" stop-opacity="1" />
      <stop stop-color="#f6e8d6" offset="1" stop-opacity="0" />
    </linearGradient>
    <radialGradient id="defitem10" gradientUnits="userSpaceOnUse" cx="43.5283" cy="70.9166" fx="43.5283" fy="70.9166" r="4.6505" >
      <stop stop-color="#f6e8d6" offset="0" stop-opacity="1" />
      <stop stop-color="#f6e8d6" offset="1" stop-opacity="0" />
    </radialGradient>
    <linearGradient id="defitem11" gradientUnits="userSpaceOnUse" x1="40.2429" y1="114.515" x2="60.5401" y2="97.3284" >
      <stop stop-color="#c39a7c" offset="0" stop-opacity="1" />
      <stop stop-color="#c39a7c" offset="1" stop-opacity="0" />
    </linearGradient>
    <linearGradient id="defitem12" gradientUnits="userSpaceOnUse" x1="53.3743" y1="144.576" x2="53.3743" y2="86.1554" >
      <stop stop-color="#8e8e8e" offset="0" stop-opacity="1" />
      <stop stop-color="#f8f8f8" offset="1" stop-opacity="1" />
    </linearGradient>
    <linearGradient id="defitem13" gradientUnits="userSpaceOnUse" x1="67.1945" y1="121.612" x2="71.9966" y2="46.567" >
      <stop stop-color="#000000" offset="0" stop-opacity="0" />
      <stop stop-color="#000000" offset="0.5" stop-opacity="0.676364" />
      <stop stop-color="#000000" offset="1" stop-opacity="0" />
    </linearGradient>
    <linearGradient id="defitem14" gradientUnits="userSpaceOnUse" x1="53.3743" y1="66.0771" x2="53.3743" y2="71.5501" >
      <stop stop-color="#8e8e8e" offset="0" stop-opacity="1" />
      <stop stop-color="#f8f8f8" offset="1" stop-opacity="0" />
    </linearGradient>
    <linearGradient id="defitem15" gradientUnits="userSpaceOnUse" x1="19.2567" y1="98.7585" x2="16.301" y2="97.5628" >
      <stop stop-color="#643308" offset="0" stop-opacity="1" />
      <stop stop-color="#aaaaaa" offset="1" stop-opacity="0" />
    </linearGradient>
    <linearGradient id="defitem16" gradientUnits="userSpaceOnUse" x1="87.5191" y1="97.9977" x2="90.4752" y2="96.802" >
      <stop stop-color="#643308" offset="0" stop-opacity="1" />
      <stop stop-color="#aaaaaa" offset="1" stop-opacity="0" />
    </linearGradient>
    <linearGradient id="defitem17" gradientUnits="userSpaceOnUse" x1="71.8152" y1="49.4452" x2="83.8449" y2="102.024" >
      <stop stop-color="#463a0e" offset="0" stop-opacity="1" />
      <stop stop-color="#743400" offset="0.5" stop-opacity="1" />
      <stop stop-color="#4d3117" offset="1" stop-opacity="1" />
    </linearGradient>
    <linearGradient id="defitem18" gradientUnits="userSpaceOnUse" x1="65.5033" y1="95.3033" x2="68.601" y2="64.6655" >
      <stop stop-color="#000000" offset="0" stop-opacity="0" />
      <stop stop-color="#000000" offset="0.5" stop-opacity="0.676364" />
      <stop stop-color="#000000" offset="1" stop-opacity="0" />
    </linearGradient>
    <linearGradient id="defitem19" gradientUnits="userSpaceOnUse" x1="65.866" y1="95.3033" x2="68.9637" y2="64.6655" >
      <stop stop-color="#ffffff" offset="0" stop-opacity="0.152727" />
      <stop stop-color="#ffffff" offset="1" stop-opacity="1" />
    </linearGradient>
    <linearGradient id="defitem20" gradientUnits="userSpaceOnUse" x1="71.2461" y1="61.2231" x2="79.9849" y2="90.3979" >
      <stop stop-color="#000000" offset="0" stop-opacity="0" />
      <stop stop-color="#000000" offset="0.5" stop-opacity="0.676364" />
      <stop stop-color="#000000" offset="1" stop-opacity="0" />
    </linearGradient>
    <linearGradient id="defitem21" gradientUnits="userSpaceOnUse" x1="70.7021" y1="61.2231" x2="79.4408" y2="90.3979" >
      <stop stop-color="#ffffff" offset="0" stop-opacity="0.152727" />
      <stop stop-color="#ffffff" offset="1" stop-opacity="1" />
    </linearGradient>
    <linearGradient id="defitem22" gradientUnits="userSpaceOnUse" x1="71.5749" y1="86.4318" x2="76.9491" y2="115.677" >
      <stop stop-color="#ffffff" offset="0" stop-opacity="1" />
      <stop stop-color="#ffffff" offset="1" stop-opacity="0" />
    </linearGradient>
    <linearGradient id="defitem23" gradientUnits="userSpaceOnUse" x1="40.9561" y1="13.918" x2="54.513" y2="8.183" >
      <stop stop-color="#463a0e" offset="0" stop-opacity="1" />
      <stop stop-color="#743400" offset="0.5" stop-opacity="1" />
      <stop stop-color="#4d3117" offset="1" stop-opacity="1" />
    </linearGradient>
    <linearGradient id="defitem24" gradientUnits="userSpaceOnUse" x1="33.9273" y1="11.716" x2="58.0709" y2="11.716" >
      <stop stop-color="#000000" offset="0" stop-opacity="0" />
      <stop stop-color="#000000" offset="0.5" stop-opacity="0.676364" />
      <stop stop-color="#000000" offset="1" stop-opacity="0" />
    </linearGradient>
    <linearGradient id="defitem25" gradientUnits="userSpaceOnUse" x1="36.8289" y1="2.048" x2="58.4338" y2="11.988" >
      <stop stop-color="#ffffff" offset="0" stop-opacity="0.152727" />
      <stop stop-color="#ffffff" offset="1" stop-opacity="1" />
    </linearGradient>
    <linearGradient id="defitem26" gradientUnits="userSpaceOnUse" x1="37.2903" y1="16.53" x2="62.0384" y2="6.824" >
      <stop stop-color="#f6e8d6" offset="0" stop-opacity="1" />
      <stop stop-color="#f6e8d6" offset="1" stop-opacity="0" />
    </linearGradient>
    <linearGradient id="defitem27" gradientUnits="userSpaceOnUse" x1="63.5203" y1="0.64" x2="18.4213" y2="24.739" >
      <stop stop-color="#ffffff" offset="0" stop-opacity="1" />
      <stop stop-color="#ffffff" offset="1" stop-opacity="0" />
    </linearGradient>
    <linearGradient id="defitem28" gradientUnits="userSpaceOnUse" x1="120.872" y1="124.281" x2="58.2663" y2="57.3366" >
      <stop stop-color="#000000" offset="0" stop-opacity="1" />
      <stop stop-color="#000000" offset="1" stop-opacity="0" />
    </linearGradient>
    <radialGradient id="defitem29" gradientUnits="userSpaceOnUse" cx="76.4415" cy="103.694" fx="76.4415" fy="103.694" r="6.01033" >
      <stop stop-color="#b3932a" offset="0" stop-opacity="1" />
      <stop stop-color="#e4dbc8" offset="1" stop-opacity="1" />
    </radialGradient>
    <radialGradient id="defitem30" gradientUnits="userSpaceOnUse" cx="90.7204" cy="70.931" fx="90.7204" fy="70.931" r="5.52213" >
      <stop stop-color="#242424" offset="0" stop-opacity="1" />
      <stop stop-color="#242424" offset="0.5" stop-opacity="1" />
      <stop stop-color="#242424" offset="0.75" stop-opacity="1" />
      <stop stop-color="#000000" offset="1" stop-opacity="1" />
    </radialGradient>
    <radialGradient id="defitem31" gradientUnits="userSpaceOnUse" cx="98.5012" cy="61.4344" fx="120.518" fy="18.688" r="3.44755" >
      <stop stop-color="#9a7500" offset="0" stop-opacity="1" />
      <stop stop-color="#e2ac00" offset="0.0929204" stop-opacity="1" />
      <stop stop-color="#ffcd2b" offset="0.504317" stop-opacity="1" />
      <stop stop-color="#e2ac00" offset="0.915714" stop-opacity="1" />
      <stop stop-color="#b88c00" offset="1" stop-opacity="1" />
    </radialGradient>
    <linearGradient id="defitem32" gradientUnits="userSpaceOnUse" x1="92.3112" y1="57.2475" x2="95.5694" y2="58.9422" >
      <stop stop-color="#9a7500" offset="0" stop-opacity="1" />
      <stop stop-color="#e2ac00" offset="0.0929204" stop-opacity="1" />
      <stop stop-color="#ffcd2b" offset="0.504317" stop-opacity="1" />
      <stop stop-color="#e2ac00" offset="0.915714" stop-opacity="1" />
      <stop stop-color="#b88c00" offset="1" stop-opacity="1" />
    </linearGradient>
    <radialGradient id="defitem33" gradientUnits="userSpaceOnUse" cx="98.3582" cy="49.6171" fx="98.3582" fy="49.6171" r="38.999" >
      <stop stop-color="#ffffff" offset="0" stop-opacity="0.683453" />
      <stop stop-color="#ffffff" offset="1" stop-opacity="0" />
    </radialGradient>
    <radialGradient id="defitem34" gradientUnits="userSpaceOnUse" cx="116.579" cy="25.029" fx="114.853" fy="23.035" r="5.97853" >
      <stop stop-color="#ffffff" offset="0" stop-opacity="1" />
      <stop stop-color="#aeaeae" offset="1" stop-opacity="1" />
    </radialGradient>
    <radialGradient id="defitem35" gradientUnits="userSpaceOnUse" cx="120.745" cy="17.295" fx="120.745" fy="17.295" r="2.59366" >
      <stop stop-color="#ffffff" offset="0" stop-opacity="1" />
      <stop stop-color="#ffffff" offset="1" stop-opacity="0" />
    </radialGradient>
    <linearGradient id="defitem36" gradientUnits="userSpaceOnUse" x1="121.367" y1="14.51" x2="120.573" y2="16.728" >
      <stop stop-color="#ffffff" offset="0" stop-opacity="1" />
      <stop stop-color="#ffffff" offset="1" stop-opacity="0" />
    </linearGradient>
    <radialGradient id="defitem37" gradientUnits="userSpaceOnUse" cx="116.928" cy="15.389" fx="116.928" fy="15.389" r="1.77588" >
      <stop stop-color="#ffffff" offset="0" stop-opacity="1" />
      <stop stop-color="#ffffff" offset="1" stop-opacity="0" />
    </radialGradient>
  </defs>
  <g id="Layer">
    <g id="g3232">
    </g>
    <g id="g4591">
    </g>
    <g id="g3342">
    </g>
    <path id="path19270" fill="url(#defitem0)" stroke-width="1.33452" stroke-linecap="round" stroke-linejoin="round" d=""  fill-rule="evenodd" />
    <g id="g8581">
    </g>
    <path id="path8601" fill="url(#defitem1)" stroke-width="1.7396" stroke-linecap="round" stroke-linejoin="round" d=""  fill-rule="evenodd" />
    <g id="g4199">
      <g id="g4139">
        <path id="path5457" fill="#a5aaca" stroke-width="0.907111" d="M101.908 93.9594L100.688 95.4043C85.999 103.767 66.0179 105.326 53.4627 105.326C40.9071 105.326 20.9836 104.731 6.2928 96.3685L5.0456 94.9516C4.99901 95.1433 4.87546 95.6593 4.87546 95.6593L6.2928 97.2753C20.9836 105.638 40.9071 106.234 53.4627 106.234C66.0179 106.234 85.999 104.675 100.688 96.311L102.079 94.6671C102.079 94.6671 101.953 94.151 101.908 93.9594Z"  fill-rule="evenodd" />
        <path id="path3409" fill="url(#defitem2)" stroke-width="0.951281" d="M37.9794 38.4406C39.2719 44.5882 42.6852 57.7104 39.5862 62.7558C39.1748 63.7081 38.5012 64.244 38.2523 64.4839C31.6009 67.1442 23.5618 66.9139 16.4232 70.4869C13.7735 71.8131 10.7527 75.8362 9.96538 77.9754C7.56447 84.4996 4.90229 95.6505 4.90229 95.6505L6.3273 97.2885C21.0181 105.651 40.9468 106.232 53.5023 106.232C66.0577 106.232 86.0167 104.681 100.708 96.3184L102.102 94.6803C102.102 94.6803 99.4706 83.5295 97.0688 77.0052C96.2829 74.866 93.2618 70.843 90.6124 69.5168C83.4733 65.9436 75.4334 67.1442 68.7824 64.4839C68.0349 63.9525 66.935 63.0932 66.9025 62.6042C66.8908 62.6232 66.8849 62.6458 66.8731 62.6648C63.855 57.5635 67.193 44.5568 68.4802 38.4406L53.2294 45.3835L37.9794 38.4406Z"  fill-rule="evenodd" />
        <path id="path4289" fill="url(#defitem3)" stroke-width="0.970181" d="M28.6749 69.7993C35.3685 72.9403 42.8467 75.4931 51.502 77.163L49.4771 79.1873C40.7345 77.5537 33.3064 74.869 27.0181 71.272L28.6749 69.7993Z"  fill-rule="evenodd" />
        <path id="path4235" fill="url(#defitem4)" stroke-width="0.970181" d="M28.8591 71.8242C27.1051 73.1372 45.1227 78.6654 46.7158 78.2673L42.4816 82.6861C36.2893 79.5663 30.0802 76.4535 26.2818 72.3765L28.8591 71.8242Z"  fill-rule="evenodd" />
        <path id="path4363" fill="url(#defitem5)" stroke-width="0.970181" d="M57.2088 79.2006L61.2588 76.0716L66.7816 75.7035L81.6922 68.1557L81.6922 70.549L67.886 77.7277L62.7315 77.7277L58.6816 79.7535L57.2088 79.2006Z"  fill-rule="evenodd" />
        <path id="path4441" fill="url(#defitem6)" stroke-width="0.970181" d="M85.769 71.2853L75.2757 74.0971L68.8325 76.808L69.9383 80.3049L85.6451 76.624L85.769 71.2853Z"  fill-rule="evenodd" />
        <path id="path4483" fill="#e8bf93" stroke-width="0.970181" d="M37.9414 38.5946C39.2338 44.7421 42.6472 57.8644 39.5482 62.9098C39.1368 63.862 38.463 64.3981 38.2143 64.638C31.5628 67.2981 23.5238 67.0678 16.3852 70.6408C13.7354 71.9672 10.7147 75.9903 9.92734 78.1287C7.52643 84.6544 4.86425 95.8053 4.86425 95.8053L5.62224 96.684C6.57072 92.9494 8.27881 86.49 9.92734 82.0108C10.7147 79.8715 13.7354 75.848 16.3852 74.5216C23.5238 70.9486 32.533 71.1789 39.1844 68.5186C39.4333 68.2787 40.107 67.7428 40.5185 66.7905C43.6174 61.7452 44.0847 48.6229 42.7923 42.4754L53.1914 49.4182L63.591 42.4754C62.3046 48.5915 62.8471 61.5982 65.8646 66.6995C65.8764 66.6806 65.8823 66.6579 65.8941 66.6389C65.9265 67.1279 67.0264 67.9872 67.7739 68.5186C74.4264 71.1789 83.435 69.9784 90.574 73.5515C93.2235 74.8777 96.2446 78.9013 97.0319 81.0407C98.6758 85.5096 100.395 91.9439 101.337 95.6844L102.064 94.8351C102.064 94.8351 99.4322 83.6843 97.0319 77.1586C96.2446 75.0201 93.2235 70.9971 90.574 69.6707C83.435 66.0976 75.3966 67.2981 68.7441 64.638C67.9966 64.1066 66.8966 63.2472 66.8642 62.7581C66.8524 62.7771 66.8465 62.7998 66.8347 62.8189C63.8166 57.7174 67.1561 44.7107 68.4418 38.5946L53.1914 45.5374L37.9414 38.5946Z"  fill-rule="evenodd" />
        <path id="path4496" fill="#dd9549" stroke-width="0.970181" d="M37.9414 38.5946C39.2338 44.7421 42.6472 57.8644 39.5482 62.9098C39.1368 63.862 38.463 64.3981 38.2143 64.638C31.5628 67.2982 23.5238 67.0678 16.3852 70.6408C13.7354 71.9672 10.7147 75.9903 9.92734 78.1287C7.52643 84.6544 4.86425 95.8053 4.86425 95.8053L5.04619 96.0176C5.50768 94.1171 7.77206 84.9567 9.92734 79.1004C10.7147 76.9604 13.7354 72.9374 16.3852 71.6111C23.5238 68.0379 32.442 68.147 39.0935 65.4868C39.3423 65.2469 40.016 64.711 40.4275 63.7586C43.5264 58.7134 40.113 45.5911 38.8206 39.4436L53.1914 46.5077L67.5616 40.0499C66.2759 46.166 62.938 59.1728 65.956 64.2741C65.9678 64.2551 65.9737 64.2325 65.9855 64.2135C66.0179 64.7026 67.1178 65.5618 67.8653 66.0932C74.5163 68.7535 83.435 67.0678 90.574 70.6408C93.2235 71.9672 96.2446 75.9903 97.0319 78.1287C99.1875 83.9865 101.426 93.147 101.883 95.0475L102.064 94.8351C102.064 94.8351 99.4322 83.6843 97.0319 77.1586C96.2446 75.0201 93.2235 70.9971 90.574 69.6707C83.435 66.0976 75.3966 67.2982 68.7441 64.638C67.9966 64.1066 66.8966 63.2472 66.8642 62.7581C66.8524 62.7771 66.8465 62.7998 66.8347 62.8189C63.8166 57.7174 67.1561 44.7107 68.4418 38.5946L53.1914 45.5374L37.9414 38.5946Z"  fill-rule="evenodd" />
        <path id="path4554" fill="url(#defitem7)" stroke-width="0.970181" d="M61.402 55.4013L59.3193 73.6253L67.6501 69.1833L61.402 55.4013Z"  fill-rule="evenodd" />
        <path id="path4600" fill="url(#defitem8)" stroke-width="1.44761" d="M50.141 75.0351L53.4429 81.0569L58.1044 73.6756L50.141 75.0351Z"  fill-rule="evenodd" />
        <path id="path4650" fill="url(#defitem9)" stroke-width="0.970181" d="M52.4002 90.0404L50.763 105.389L35.2755 104.408C37.7457 98.8647 40.5186 92.7725 52.4002 90.0404Z"  fill-rule="evenodd" />
        <path id="path4700" fill="url(#defitem10)" stroke-width="0.970181" d="M45.611 56.3085L47.6938 74.5324L39.3628 70.0903L45.611 56.3085Z"  fill-rule="evenodd" />
        <path id="path4766" fill="url(#defitem11)" stroke-width="0.907111" d="M56.1474 90.9295L53.7376 105.56L69.3486 105.216L56.1474 90.9295Z"  fill-rule="evenodd" />
        <path id="path5249" fill="#1a0000" stroke-width="0.907111" d="M28.2842 66.5584C25.6222 66.5929 21.2062 67.733 18.2208 68.8997C18.7074 80.1516 18.6384 91.2656 18.1075 102.265C30.4293 105.89 43.8764 106.234 53.2297 106.234C62.5187 106.234 75.8359 105.358 88.097 101.528C87.5898 90.7688 87.5073 79.1756 87.9835 68.1742C84.5423 66.8552 80.61 66.5072 77.9487 66.0771C77.6893 77.3635 77.0626 88.6589 75.5101 98.9767C67.9907 99.854 60.8186 99.9307 53.5982 99.6564L53.5982 99.6284C53.4372 99.6343 53.2773 99.6211 53.1163 99.6284C52.9553 99.6211 52.7955 99.6343 52.6343 99.6284L52.6343 99.6564C45.4141 99.9307 38.2427 99.854 30.722 98.9767C29.1703 88.6589 28.5434 77.8456 28.2842 66.5584Z"  fill-rule="evenodd" />
        <path id="path5205" fill="url(#defitem12)" stroke-width="0.951281" d="M28.5562 66.5584C25.8943 66.5929 21.4784 67.733 18.493 68.8999C18.9794 80.1516 18.9104 91.2656 18.3796 102.265C30.7013 105.89 44.1486 106.234 53.5019 106.234C62.7909 106.234 76.1087 105.358 88.3683 101.528C87.8611 90.7688 87.78 79.1756 88.2548 68.1742C84.8135 66.8552 80.8828 66.5072 78.22 66.0771C77.962 77.3635 77.3339 88.6589 75.7829 98.9767C68.2619 99.854 61.0908 99.9307 53.8703 99.6564L53.8703 99.6284C53.7093 99.6343 53.5495 99.6211 53.3885 99.6284C53.2273 99.6211 53.0677 99.6343 52.9065 99.6284L52.9065 99.6564C45.6861 99.9307 38.5148 99.854 30.9941 98.9767C29.4425 88.6589 28.8156 77.8456 28.5562 66.5584Z"  fill-rule="evenodd" />
        <path id="path5323" fill="none" stroke="url(#defitem13)" stroke-width="0.907111" d="M28.5981 66.5584C25.9361 66.5929 21.5201 67.733 18.5347 68.8997C19.0213 80.1516 18.9523 91.2656 18.4214 102.265C30.7432 105.89 44.1903 106.234 53.5436 106.234C62.8326 106.234 76.15 105.358 88.4111 101.528C87.9039 90.7688 87.8213 79.1756 88.2976 68.1742C84.8548 66.8552 80.9241 66.5072 78.2628 66.0771C78.0033 77.3635 77.3767 88.6589 75.8241 98.9767C68.3032 99.854 61.1325 99.9307 53.9122 99.6564L53.9122 99.6284C53.7511 99.6343 53.5912 99.6211 53.4302 99.6284C53.2692 99.6211 53.1094 99.6343 52.9484 99.6284L52.9484 99.6564C45.728 99.9307 38.5566 99.854 31.0359 98.9767C29.4842 88.6589 28.8573 77.8456 28.5981 66.5584Z"  fill-rule="evenodd" />
        <path id="path5236" fill="url(#defitem14)" stroke-width="0.951281" d="M78.22 66.065C78.1301 70.0023 77.9709 73.9602 77.7674 77.8574L87.9717 77.8574C88.0189 74.6057 88.1177 71.3497 88.2548 68.1628C84.8135 66.8438 80.8828 66.4951 78.22 66.065ZM28.5562 66.547C25.8943 66.5815 21.4784 67.733 18.493 68.8999C18.6225 71.8933 18.6956 74.8831 18.7481 77.8574L28.9814 77.8574C28.7876 74.1431 28.6441 70.3709 28.5562 66.547Z"  fill-rule="evenodd" />
        <path id="path5427" fill="#0d044f" fill-opacity="0.5" stroke-width="0.907111" d="M100.688 96.3553C85.999 104.719 66.0179 106.278 53.4627 106.278C40.9071 106.278 20.9836 105.682 6.2928 97.3195L6.2928 98.2263C20.9836 106.59 40.9071 107.185 53.4627 107.185C66.0179 107.185 85.999 105.626 100.688 97.2635L100.688 96.3553Z"  fill-rule="evenodd" />
        <path id="path5574" fill="url(#defitem15)" stroke-width="0.951281" d="M18.7134 92.8241C17.9914 93.1853 15.1034 101.15 15.1034 101.15L18.3976 102.302L18.7134 92.8241Z"  fill-rule="evenodd" />
        <path id="path5592" fill="url(#defitem16)" stroke-width="0.951281" d="M88.0631 92.0633C88.7841 92.4245 91.6724 100.389 91.6724 100.389L88.3786 101.541L88.0631 92.0633Z"  fill-rule="evenodd" />
      </g>
      <g id="g4086">
        <path id="path5092" fill="#460101" stroke-width="0.907111" d="M72.6453 41.3226C71.3228 44.6052 69.6862 47.8025 67.2313 50.7621C66.9851 66.2278 65.2807 78.5556 60.4568 94.1341C59.8455 100.362 82.1965 96.8381 81.7733 90.5056C80.0114 79.4092 74.1595 71.5628 72.9859 60.1167C72.3593 54.0064 72.1411 46.7259 72.6453 41.3226Z"  fill-rule="evenodd" />
        <path id="path5078" fill="url(#defitem17)" stroke-width="0.951281" d="M60.5008 93.9645C65.3249 78.386 67.0102 66.0406 67.2549 50.575C69.7098 47.6154 71.3567 44.4253 72.6792 41.1425C72.175 46.5461 72.3844 53.8151 73.011 59.9255C74.1831 71.3716 80.0365 79.2176 81.7999 90.3124C82.223 96.6464 59.8896 100.194 60.5008 93.9645Z"  fill-rule="evenodd" />
        <path id="path5151" fill="url(#defitem18)" stroke-width="0.951281" d="M69.1171 64.6655C67.9346 75.085 67.51 84.748 65.5033 95.9918C68.1882 85.7963 67.9125 75.1075 69.1171 64.6655Z"  fill-rule="evenodd" />
        <path id="path5161" fill="url(#defitem19)" stroke-width="0.951281" d="M69.4798 64.6655C68.2988 75.085 67.8727 84.748 65.866 95.9918C68.5509 85.7963 68.2752 75.1075 69.4798 64.6655Z"  fill-rule="evenodd" />
        <path id="path5165" fill="url(#defitem20)" stroke-width="0.951281" d="M71.6988 60.8788C73.4386 70.5885 78.018 77.9289 80.3918 91.001C77.042 75.0465 73.1569 73.6274 71.6988 60.8788Z"  fill-rule="evenodd" />
        <path id="path5175" fill="url(#defitem21)" stroke-width="0.951281" d="M71.5174 60.8788C73.2572 70.5885 77.7453 77.9289 80.1191 91.001C76.7707 75.0465 72.9756 73.6274 71.5174 60.8788Z"  fill-rule="evenodd" />
        <path id="path5596" fill="url(#defitem22)" stroke-width="0.951281" d="M72.0703 77.4333C72.2207 82.7989 71.6958 90.1208 72.5805 95.4301C73.0154 89.5752 72.2546 82.7871 72.0703 77.4333Z"  fill-rule="evenodd" />
      </g>
      <g id="g3722">
        <path id="path3706" fill="#ffffff" stroke="#000000" stroke-width="2.3346" d="M38.8355 8.559C37.801 3.474 17.5175 0.887 10.2666 6.673C3.01563 12.46 3.87271 30.5114 5.04807 39.4768C6.22343 48.4422 9.76503 62.2089 16.0462 64.206C22.3275 66.2031 31.7492 59.0175 32.4544 54.069C35.5154 54.352 38.1998 56.1371 39.949 58.8914C38.8128 62.2911 33.6279 64.1036 28.7834 66.1815C35.4709 68.8574 38.3528 68.3889 42.0605 67.2492C41.875 72.4605 38.7864 80.6915 43.4493 86.1269C48.1122 91.5623 53.7083 93.7086 59.358 89.4098C65.0077 85.1109 65.3585 71.5721 67.3672 66.7861C72.4794 69.6597 81.6616 69.8959 85.292 63.7836C72.4474 64.4649 70.2253 61.5829 71.2862 56.7394C75.1652 63.2213 87.1059 47.0798 89.9611 39.7095C92.8162 32.3393 92.9081 17.845 87.4349 12.407C81.9618 6.969 68.1008 5.378 63.5062 10.348C62.0225 5.876 55.7372 6.479 51.9072 6.162C48.0772 5.846 42.7952 3.315 38.8355 8.559Z"  fill-rule="evenodd" />
        <path id="path3720" fill="#0097c8" stroke="#ffffff" stroke-width="2.11823" d="M63.8807 13.303C62.6408 9.066 56.4712 8.465 53.1583 8.202C49.8454 7.939 42.6714 5.858 39.1906 10.884C32.2998 17.371 25.866 29.8961 32.9057 51.884C35.5531 52.1226 41.0756 55.8952 42.5625 58.497C44.5838 61.9285 44.5931 62.7386 44.0228 66.3908C43.8101 71.3483 41.0538 79.2064 45.0366 84.3286C49.0195 89.4508 53.8433 91.4359 58.7778 87.2915C63.7123 83.1471 64.1512 70.2689 65.9381 65.6976C66.9908 63.1177 69.446 56.8059 71.1504 53.709C79.4857 41.4487 75.2039 14.098 63.8807 13.303Z"  fill-rule="evenodd" />
        <path id="path3708" fill="#0097c8" stroke="#ffffff" stroke-width="2.3346" d="M71.3509 27.378C77.8585 26.661 77.9991 32.6105 77.7265 37.0531C77.454 41.4957 76.2568 50.042 72.5795 49.142C68.6262 48.1745 66.0286 41.9051 66.0511 38.2963C66.0719 34.9721 64.5661 28.126 71.3509 27.378Z"  fill-rule="evenodd" />
        <path id="path3710" fill="#0097c8" stroke="#ffffff" stroke-width="2.3346" d="M41.5461 27.387C35.3743 25.203 31.0877 32.6576 30.3382 37.045C29.5886 41.4324 29.2392 51.2299 36.0013 50.3852C43.2291 49.4822 46.3409 44.8149 47.0235 39.8412C47.7061 34.8674 47.9807 29.6652 41.5461 27.387Z"  fill-rule="evenodd" />
        <path id="path3704" fill="#0097c8" stroke="#ffffff" stroke-width="2.14323" d="M32.5966 52.0597C26.4074 45.7518 31.7108 16.616 38.4546 10.28C37.5049 5.612 18.884 3.237 12.2274 8.549C5.57087 13.862 6.35771 30.4332 7.43672 38.6637C8.51573 46.8941 11.767 59.5324 17.5334 61.3658C23.2997 63.1993 31.9491 56.6026 32.5966 52.0597Z"  fill-rule="evenodd" />
        <path id="path3718" fill="#0097c8" stroke="#ffffff" stroke-width="2.09002" d="M64.6177 12.224C73.9755 17.255 83.6829 38.1263 71.5827 53.7552C75.0553 59.558 85.7451 45.1075 88.3011 38.5094C90.8572 31.9112 90.9394 18.935 86.0396 14.067C81.1399 9.199 68.7309 7.775 64.6177 12.224Z"  fill-rule="evenodd" />
      </g>
      <g id="g4051">
        <path id="path4942" fill="#8c6b48" stroke-width="0.887094" d="M52.6867 2.094C43.8932 2.094 37.1362 7.211 34.2185 13.327C31.3394 19.362 30.9872 24.888 33.158 32.9344L33.329 32.9614L35.182 32.2616L35.2961 28.5479C40.2898 21.359 45.9816 18.217 54.6823 16.142C55.7489 15.888 56.8986 15.127 57.5902 14.312C59.6907 11.837 60.5812 9.389 61.1823 6.319C60.7073 9.451 59.9186 13.318 59.1867 14.527C58.9549 14.91 59.5114 15.466 59.871 15.711C65.7039 19.722 69.8469 24.572 70.562 32.0195L72.6144 32.2078C73.7025 24.407 74.5503 19.166 71.7651 13.327C69.9428 9.508 66.764 5.974 62.3949 3.987C62.1516 3.876 61.6395 3.827 61.4801 3.913C61.3747 3.598 60.9451 3.392 60.5793 3.268C58.3731 2.517 55.8852 2.094 53.1143 2.094L52.6867 2.094Z"  fill-rule="evenodd" />
        <path id="path4878" fill="url(#defitem23)" stroke-width="0.951281" d="M52.6447 2.094C43.8512 2.094 37.0942 7.211 34.1765 13.327C31.2974 19.362 30.9452 24.888 33.116 32.9344L33.287 32.9614L35.14 32.2616L35.2541 28.5479C40.2478 21.359 45.9395 18.217 54.6403 16.142C55.7068 15.888 56.8564 15.127 57.5482 14.312C59.6487 11.837 60.5392 9.389 61.1403 6.319C60.6651 9.451 59.8764 13.318 59.1447 14.527C58.9128 14.91 59.4692 15.466 59.829 15.711C65.6626 19.722 69.8042 24.572 70.5192 32.0195L72.5731 32.2078C73.6597 24.407 74.509 19.166 71.7224 13.327C69.9015 9.508 66.7227 5.974 62.3527 3.987C62.1096 3.876 61.5974 3.827 61.4381 3.913C61.3327 3.598 60.9029 3.392 60.5373 3.268C58.331 2.517 55.8432 2.094 53.0722 2.094L52.6447 2.094Z"  fill-rule="evenodd" />
        <path id="path4940" fill="#3a2311" stroke-width="0.887094" d="M52.1801 1.383C43.3868 1.383 36.624 6.489 33.7063 12.605C30.8272 18.64 30.4808 24.177 32.6514 32.2232L32.8224 32.25L33.136 32.1424C31.4949 25.064 31.9628 19.894 34.6185 14.327C37.5362 8.211 44.299 3.105 53.0924 3.105L53.52 3.105C56.291 3.105 58.7832 3.511 60.9895 4.262C61.3551 4.387 61.7963 4.593 61.9017 4.908C62.0611 4.822 62.5708 4.878 62.814 4.989C66.5222 6.675 69.3618 9.462 71.252 12.605C69.4311 8.786 66.2715 5.253 61.9017 3.267C61.6586 3.156 61.1489 3.1 60.9895 3.186C60.8841 2.87 60.4429 2.665 60.0771 2.54C57.871 1.789 55.3788 1.383 52.6078 1.383L52.1801 1.383ZM61.5881 7.33C61.0647 10.003 60.336 12.195 58.7658 14.354C58.9148 14.61 59.1565 14.858 59.3644 15C59.4865 15.084 59.6144 15.157 59.7351 15.242C60.4264 13.809 61.1427 10.266 61.5881 7.33ZM68.3165 24.796C69.2144 26.729 69.8233 28.8859 70.0548 31.3082L70.7389 31.362C70.3114 28.8997 69.4724 26.733 68.3165 24.796Z"  fill-rule="evenodd" />
        <path id="path5054" fill="url(#defitem24)" stroke-width="0.951281" d="M58.5639 4.955C47.6871 2.276 38.4537 10.633 33.9076 17.563C38.5933 10.33 47.2476 1.923 58.5639 4.955Z"  fill-rule="evenodd" />
        <path id="path5074" fill="url(#defitem25)" stroke-width="0.951281" d="M58.9268 5.227C48.05 2.548 38.4294 10.949 34.1843 17.448C38.2678 10.688 47.6105 2.195 58.9268 5.227Z"  fill-rule="evenodd" />
        <path id="path5333" fill="url(#defitem26)" stroke-width="0.907111" d="M61.0878 4.603C60.4867 7.672 59.5882 10.121 57.4876 12.597C56.796 13.412 55.6628 14.156 54.5963 14.411C45.8955 16.485 40.2004 19.638 35.2068 26.827L35.2068 27.564C40.2004 20.375 45.8955 17.222 54.5963 15.148C55.6628 14.894 56.796 14.12 57.4876 13.305C59.0412 11.475 59.9469 9.671 60.5492 7.607C60.555 7.578 60.5718 7.552 60.5775 7.522C60.7668 6.541 60.9451 5.543 61.0878 4.603ZM59.1602 13.334C59.1289 13.394 59.1062 13.481 59.0751 13.532C58.8432 13.915 59.4242 14.477 59.7839 14.723C75.9524 37.7901 80.3948 29.8099 59.7839 13.986C59.574 13.842 59.3084 13.592 59.1602 13.334Z"  fill-rule="evenodd" />
        <path id="path5408" fill="url(#defitem27)" stroke-width="0.951281" d="M56.1844 9.592C48.5122 10.399 42.502 14.89 37.9281 19.018C42.1496 14.495 48.9279 9.4 56.1844 9.592Z"  fill-rule="evenodd" />
      </g>
    </g>
    <path id="path4050" fill="url(#defitem28)" stroke-width="1.40039" d="M107.962 11.227C108.937 10.857 111.012 10.642 113.57 11.503C117.014 12.662 118.323 14.554 118.023 15.199C118.016 15.216 118.005 15.233 117.997 15.25L80.9336 95.2166L80.8295 95.422L80.8035 95.4733L80.7514 95.576L64.1899 117.986L70.1345 92.0658C70.118 92.0603 70.1751 91.8967 70.1587 91.8912L70.2628 91.6859C70.2628 91.6859 107.636 11.35 107.962 11.227Z"  fill-rule="evenodd" />
    <g id="g2244">
      <path id="path3180" fill="#000000" stroke-width="0.984258" d="M115.421 14.455C115.712 13.914 118.403 13.462 121.831 15.239C125.293 17.033 126.469 19.314 126.105 19.991C125.867 20.432 125.63 20.873 125.393 21.314C121.832 19.469 118.27 17.623 114.709 15.777C114.947 15.336 115.184 14.895 115.421 14.455C115.421 14.455 115.421 14.455 115.421 14.455"  fill-rule="evenodd" />
      <path id="path3299" fill="#000000" stroke="#000000" stroke-width="0" d="M61.7521 127.064L80.7609 104.438L80.8558 104.262L70.2733 98.5377L70.1446 98.7766L61.7521 127.064Z"  fill-rule="evenodd" />
      <path id="path2247" fill="url(#defitem29)" stroke="#000000" stroke-width="0" d="M62.7466 125.367L80.4756 104.277L80.5704 104.101L70.5586 98.699L70.43 98.9379L62.7466 125.367Z"  fill-rule="evenodd" />
      <path id="rect2192" fill="url(#defitem30)" stroke-width="0.492129" stroke-linecap="round" stroke-linejoin="round" d="M75.0172 102.417C76.3349 103.1 77.3204 102.448 77.7914 102.692C77.8676 102.731 77.9286 102.797 77.9792 102.87L122.985 19.051L117.806 16.367L72.715 100.345C72.9007 100.279 73.0721 100.246 73.2211 100.323C73.6516 100.546 73.6933 101.731 75.0172 102.417Z"  />
      <path id="path2233" fill="#000000" stroke-width="0.492129" stroke-linecap="round" stroke-linejoin="round" d="M79.5064 99.5833L77.7428 102.86C78.1692 103.129 77.9788 104.233 78.7701 104.643C79.623 105.085 80.177 104.177 80.73 104.459L82.515 101.142L79.5064 99.5833Z"  />
      <path id="rect2190" fill="url(#defitem31)" stroke-width="0.492129" stroke-linecap="round" stroke-linejoin="round" d="M122.796 18.953L77.8243 102.709C78.253 102.978 78.1458 103.932 78.9412 104.344C79.7984 104.789 80.2711 104.032 80.8269 104.316L125.82 20.521L122.796 18.953Z"  />
      <path id="path2231" fill="#242424" stroke-width="0.492129" stroke-linecap="round" stroke-linejoin="round" d="M74.0788 98.731L73.1741 100.412L73.1395 100.475C73.4958 100.674 73.3511 101.785 74.5236 102.534L74.5893 102.568L75.0579 102.811L75.1236 102.845C76.4275 103.379 77.2756 102.618 77.7466 102.862L78.7028 101.075L74.0788 98.731Z"  />
      <path id="path2229" fill="#121212" stroke-width="0.492129" stroke-linecap="round" stroke-linejoin="round" d="M71.0791 97.1536L70.1433 98.7808C70.1597 98.7893 70.0853 98.9291 70.1018 98.9377C70.4399 99.1129 70.3309 100.213 70.939 100.676L70.9965 100.706L71.2513 100.838L71.2842 100.855C72.0363 101.103 72.7549 100.351 73.1395 100.475L74.0876 98.7128L71.0791 97.1536Z"  />
      <path id="rect1315" fill="url(#defitem32)" stroke-width="0.492129" stroke-linecap="round" stroke-linejoin="round" d="M71.2941 100.457C72.12 100.873 72.7819 100.095 73.2211 100.323L118.193 16.568L115.136 14.984L70.1435 98.7788C70.1603 98.7874 70.1768 98.796 70.1936 98.8047C70.537 98.9827 70.462 100.038 71.2941 100.457Z"  />
      <path fill="#000000" stroke-width="0.984258" stroke-linecap="round" stroke-linejoin="round" d="M114.068 16.982L115.413 14.499L126.098 20.026L124.753 22.509L114.068 16.982Z"  />
      <path id="path3301" fill="url(#defitem33)" stroke-width="0.300963" stroke-linecap="round" stroke-linejoin="round" d="M116.806 15.363C116.062 14.979 107.2 30.0039 97.0115 48.922C86.8231 67.8401 79.1666 83.4874 79.9104 83.8714C80.6541 84.2553 89.5165 69.2304 99.7049 50.3123C109.893 31.3942 117.55 15.747 116.806 15.363Z"  />
      <path id="path3321" fill="none" stroke-width="0.219393" stroke-linecap="round" stroke-linejoin="round" d="M118.336 15.758C118.103 15.636 107.687 34.6058 95.0054 58.247C82.3241 81.8881 72.124 101.352 72.1583 101.845C72.1926 102.338 82.4484 83.6739 95.1302 60.0405C107.812 36.4071 118.173 16.65 118.338 15.786"  />
      <path id="path2274" fill="url(#defitem34)" stroke-width="0.492129" stroke-linecap="round" stroke-linejoin="round" d="M112.274 20.313C111.261 21.385 110.46 22.995 110.142 24.276L118.715 28.6697L120.847 24.707L112.274 20.313ZM119.945 24.24L117.812 28.2019L120.821 29.7613C121.711 28.8551 122.591 27.29 122.953 25.799L119.945 24.24Z"  />
      <path id="path2265" fill="#000000" stroke-width="0" d="M69.9347 117.368C68.3243 117.637 66.3497 115.664 65.2902 115.182L61.752 127.059L69.9347 117.368Z"  fill-rule="evenodd" />
      <path fill="url(#defitem35)" stroke-width="0" stroke-linecap="round" stroke-linejoin="round" d="M118.12 16.699L118.658 15.7L123.264 18.088L122.726 19.086L118.12 16.699Z"  />
      <path id="path3233" fill="url(#defitem36)" stroke-width="0.984258" d="M120.82 14.906C122.976 15.824 124.745 17.395 124.862 17.559C124.979 17.723 122.687 16.045 120.946 15.449C119.219 14.859 117.136 15.355 116.953 15.276C116.77 15.198 115.463 14.381 116.414 14.185C117.41 13.979 119.155 14.198 120.82 14.906Z"  fill-rule="evenodd" />
      <path id="text3284" fill="none" stroke-width="0.984258" d="M83.301 95.2312C83.1623 95.4885 83.1056 95.7145 83.1308 95.9091C83.156 96.1036 83.2609 96.2488 83.4455 96.3446C83.6292 96.4399 83.8101 96.443 83.9882 96.354C84.1663 96.2649 84.3246 96.0917 84.4633 95.8344C84.6028 95.5756 84.6599 95.3489 84.6346 95.1543C84.6094 94.9597 84.5049 94.8148 84.3212 94.7194C84.1366 94.6237 83.9553 94.6203 83.7773 94.7094C83.5992 94.7985 83.4404 94.9724 83.301 95.2312M82.9738 95.0614C83.2574 94.535 83.5601 94.1645 83.8819 93.9498C84.2037 93.7351 84.5065 93.7014 84.7904 93.8487C85.0734 93.9956 85.2151 94.26 85.2154 94.6418C85.2158 95.0237 85.0741 95.4778 84.7905 96.0042C84.5077 96.5291 84.205 96.8996 83.8824 97.1157C83.5606 97.3304 83.2581 97.3643 82.9751 97.2174C82.6913 97.0702 82.5492 96.8056 82.5488 96.4237C82.5493 96.0404 82.6909 95.5863 82.9738 95.0614M86.0113 91.5355L87.5172 90.8632L87.0433 91.7427L86.0327 92.1977L86.2219 93.267L85.7457 94.1508L85.4641 92.551L84.0182 93.1983L84.4933 92.3166L85.4439 91.8922L85.265 90.8845L85.7425 89.9984L86.0113 91.5355M85.7921 89.9063L86.2897 88.983L87.3154 88.5611L87.0933 87.4916L87.592 86.5661L87.9329 88.3399L88.6707 88.7227L88.2157 89.5671L87.4779 89.1842L85.7921 89.9063M90.9939 84.1021C90.9352 84.341 90.8584 84.5809 90.7637 84.8217C90.6689 85.0626 90.5566 85.3036 90.4266 85.5449C90.1327 86.0902 89.8185 86.4801 89.4842 86.7144C89.149 86.9484 88.8418 86.9929 88.5627 86.8481C88.2804 86.7016 88.1458 86.4241 88.1589 86.0155C88.1719 85.6069 88.3305 85.1204 88.6346 84.5561C88.752 84.3382 88.8752 84.1355 89.0043 83.948C89.1341 83.7591 89.2682 83.5873 89.4065 83.4327L89.7689 83.6208C89.6149 83.7747 89.4754 83.9353 89.3503 84.1024C89.2261 84.268 89.1151 84.4415 89.0174 84.6228C88.8362 84.9591 88.7468 85.2448 88.7491 85.4799C88.7515 85.7131 88.8462 85.8782 89.033 85.9752C89.2184 86.0714 89.4087 86.0579 89.6041 85.9348C89.7995 85.8117 89.9843 85.5885 90.1584 85.2654C90.2057 85.1777 90.2467 85.0951 90.2814 85.0177C90.3161 84.9384 90.3434 84.8656 90.3631 84.7991L90.023 84.6226L89.7453 85.138L89.4427 84.981L90.1518 83.6651L90.9939 84.1021M89.7725 82.5197L91.0004 80.241L91.3417 80.4181L90.5687 81.8524L90.8948 82.0216L91.6216 80.6728L91.9629 80.8499L91.2361 82.1987L91.6372 82.4069L92.4361 80.9243L92.7774 81.1014L91.5235 83.4284L89.7725 82.5197M91.427 79.4492L91.9352 78.5061L93.7779 77.9385L92.5769 77.3152L93.0083 76.5147L94.7593 77.4234L94.2512 78.3665L92.4084 78.9341L93.6094 79.5574L93.1781 80.3579L91.427 79.4492M94.2917 74.1329L94.7999 73.1899L96.6426 72.6222L95.4416 71.999L95.873 71.1985L97.624 72.1071L97.1159 73.0502L95.2731 73.6179L96.4741 74.2411L96.0428 75.0416L94.2917 74.1329M96.7442 69.5064C96.912 69.195 97.0878 68.9719 97.2715 68.8371C97.456 68.7008 97.6225 68.6712 97.771 68.7483C97.9196 68.8254 97.9884 68.9762 97.9775 69.2007C97.9666 69.4251 97.8769 69.6938 97.7083 70.0067C97.5397 70.3196 97.3635 70.5444 97.1798 70.6811C96.9969 70.8163 96.8311 70.8453 96.6826 70.7682C96.534 70.6911 96.4648 70.5402 96.4749 70.3153C96.4858 70.0889 96.5756 69.8193 96.7442 69.5064M97.368 70.9864L98.3406 69.1814L98.5752 69.3031L97.6025 71.1081L97.368 70.9864M96.9436 69.6099C96.8774 69.7327 96.8508 69.8405 96.8638 69.9334C96.8776 70.0247 96.9299 70.0939 97.0206 70.141C97.1113 70.1881 97.1986 70.1913 97.2825 70.1506C97.3673 70.1085 97.4427 70.0261 97.5089 69.9032C97.5743 69.7819 97.6005 69.6757 97.5874 69.5848C97.5752 69.4924 97.5237 69.4226 97.433 69.3756C97.3423 69.3285 97.2542 69.3258 97.1687 69.3675C97.084 69.4078 97.009 69.4885 96.9436 69.6099M100.23 65.0289C100.379 64.8239 100.523 64.6841 100.66 64.6094C100.797 64.5328 100.924 64.5248 101.041 64.5853C101.214 64.6753 101.28 64.8682 101.236 65.1638C101.192 65.459 101.042 65.845 100.785 66.3216C100.694 66.4898 100.596 66.6548 100.49 66.8167C100.385 66.9775 100.274 67.133 100.156 67.2833L99.8075 67.1025C99.9348 66.9665 100.051 66.8267 100.157 66.6831C100.262 66.5376 100.355 66.3895 100.436 66.2389C100.557 66.0152 100.628 65.8334 100.651 65.6935C100.674 65.5521 100.647 65.4613 100.569 65.4211C100.49 65.3797 100.396 65.4099 100.29 65.5116C100.183 65.6115 100.065 65.7805 99.9367 66.0189L99.7547 66.3566L99.4638 66.2057L99.6553 65.8504C99.7695 65.6384 99.837 65.4713 99.8578 65.3493C99.8777 65.2268 99.8514 65.1467 99.7787 65.109C99.7114 65.0741 99.6322 65.0975 99.5411 65.1793C99.45 65.2612 99.3548 65.3942 99.2555 65.5784C99.1823 65.7144 99.1164 65.8561 99.058 66.0035C98.9996 66.1509 98.9493 66.3017 98.9073 66.4557L98.5766 66.2841C98.6414 66.1045 98.7117 65.9295 98.7874 65.7592C98.8631 65.589 98.9435 65.4249 99.0286 65.267C99.2579 64.8415 99.4668 64.543 99.6553 64.3714C99.8438 64.1979 100.013 64.1502 100.163 64.2281C100.266 64.2812 100.323 64.3753 100.334 64.5103C100.344 64.6448 100.31 64.8177 100.23 65.0289"  />
      <path fill="url(#defitem37)" stroke-width="0" stroke-linecap="round" stroke-linejoin="round" d="M115.128 14.839L115.595 14.22L118.635 16.061L118.168 16.68L115.128 14.839Z"  />
      <path fill="none" stroke-width="0" stroke-linecap="round" stroke-linejoin="round" d="M126.119 20.439L126.418 19.728L123.232 18.142L122.933 18.854L126.119 20.439Z"  />
    </g>
  </g>
</svg>
