<?xml version="1.0" standalone="no"?>
<!DOCTYPE svg PUBLIC "-//W3C//DTD SVG 20010904//EN" "http://www.w3.org/TR/2001/REC-SVG-20010904/DTD/svg10.dtd">
<!-- Created using Karbon14, part of koffice: http://www.koffice.org/karbon -->
<svg xmlns="http://www.w3.org/2000/svg" xmlns:xlink="http://www.w3.org/1999/xlink" width="128px" height="128px">
  <defs>
    <radialGradient id="defitem0" gradientUnits="userSpaceOnUse" cx="64.0002" cy="122.802" fx="64.0002" fy="122.802" r="61.5368" >
      <stop stop-color="#000000" offset="0" stop-opacity="1" />
      <stop stop-color="#000000" offset="1" stop-opacity="0" />
    </radialGradient>
    <linearGradient id="defitem1" gradientUnits="userSpaceOnUse" x1="64.0002" y1="128" x2="64.0002" y2="122.802" >
      <stop stop-color="#ffffff" offset="0" stop-opacity="1" />
      <stop stop-color="#ffffff" offset="1" stop-opacity="0" />
    </linearGradient>
    <linearGradient id="defitem2" gradientUnits="userSpaceOnUse" x1="64.0002" y1="117.18" x2="64.0002" y2="122.802" >
      <stop stop-color="#ffffff" offset="0" stop-opacity="1" />
      <stop stop-color="#ffffff" offset="1" stop-opacity="0" />
    </linearGradient>
    <linearGradient id="defitem3" gradientUnits="userSpaceOnUse" x1="35.1436" y1="37.6149" x2="44.586" y2="40.2579" spreadMethod="reflect" >
      <stop stop-color="#dddbdb" offset="0" stop-opacity="1" />
      <stop stop-color="#878385" offset="0.743243" stop-opacity="1" />
      <stop stop-color="#4d4b4d" offset="0.809167" stop-opacity="1" />
      <stop stop-color="#2d2b2d" offset="1" stop-opacity="1" />
    </linearGradient>
    <linearGradient id="defitem4" gradientUnits="userSpaceOnUse" x1="34.7752" y1="35.1202" x2="36.2336" y2="35.6939" >
      <stop stop-color="#000000" offset="0" stop-opacity="0" />
      <stop stop-color="#000000" offset="0.25" stop-opacity="0.683274" />
      <stop stop-color="#000000" offset="0.5" stop-opacity="1" />
      <stop stop-color="#000000" offset="0.75" stop-opacity="0.729537" />
      <stop stop-color="#000000" offset="1" stop-opacity="0" />
    </linearGradient>
    <linearGradient id="defitem5" gradientUnits="userSpaceOnUse" x1="40.4021" y1="36.0592" x2="44.189" y2="35.8344" spreadMethod="reflect" >
      <stop stop-color="#ffffff" offset="0" stop-opacity="1" />
      <stop stop-color="#ffffff" offset="1" stop-opacity="0" />
    </linearGradient>
    <linearGradient id="defitem6" gradientUnits="userSpaceOnUse" x1="92.4064" y1="37.7819" x2="82.964" y2="40.4249" spreadMethod="reflect" >
      <stop stop-color="#dddbdb" offset="0" stop-opacity="1" />
      <stop stop-color="#878385" offset="0.743243" stop-opacity="1" />
      <stop stop-color="#4d4b4d" offset="0.809167" stop-opacity="1" />
      <stop stop-color="#2d2b2d" offset="1" stop-opacity="1" />
    </linearGradient>
    <linearGradient id="defitem7" gradientUnits="userSpaceOnUse" x1="92.7747" y1="35.2872" x2="91.3164" y2="35.8609" >
      <stop stop-color="#000000" offset="0" stop-opacity="0" />
      <stop stop-color="#000000" offset="0.25" stop-opacity="0.683274" />
      <stop stop-color="#000000" offset="0.5" stop-opacity="1" />
      <stop stop-color="#000000" offset="0.75" stop-opacity="0.729537" />
      <stop stop-color="#000000" offset="1" stop-opacity="0" />
    </linearGradient>
    <linearGradient id="defitem8" gradientUnits="userSpaceOnUse" x1="87.1479" y1="36.2262" x2="83.361" y2="36.0014" spreadMethod="reflect" >
      <stop stop-color="#ffffff" offset="0" stop-opacity="1" />
      <stop stop-color="#ffffff" offset="1" stop-opacity="0" />
    </linearGradient>
    <linearGradient id="defitem9" gradientUnits="userSpaceOnUse" x1="6.92534" y1="62.1782" x2="53.8224" y2="58.002" >
      <stop stop-color="#dddbdb" offset="0" stop-opacity="1" />
      <stop stop-color="#878385" offset="0.743243" stop-opacity="1" />
      <stop stop-color="#4d4b4d" offset="0.809167" stop-opacity="1" />
      <stop stop-color="#2d2b2d" offset="1" stop-opacity="1" />
    </linearGradient>
    <linearGradient id="defitem10" gradientUnits="userSpaceOnUse" x1="34.3512" y1="43.0843" x2="43.8816" y2="45.8538" >
      <stop stop-color="#000000" offset="0" stop-opacity="0" />
      <stop stop-color="#000000" offset="0.25" stop-opacity="0.683274" />
      <stop stop-color="#000000" offset="0.5" stop-opacity="1" />
      <stop stop-color="#000000" offset="0.75" stop-opacity="0.729537" />
      <stop stop-color="#000000" offset="1" stop-opacity="0" />
    </linearGradient>
    <linearGradient id="defitem11" gradientUnits="userSpaceOnUse" x1="34.5968" y1="27.557" x2="38.6991" y2="60.4228" >
      <stop stop-color="#ffffff" offset="0" stop-opacity="1" />
      <stop stop-color="#ffffff" offset="1" stop-opacity="0" />
    </linearGradient>
    <linearGradient id="defitem12" gradientUnits="userSpaceOnUse" x1="51.3821" y1="80.5329" x2="56.5417" y2="64.1943" >
      <stop stop-color="#dddbdb" offset="0" stop-opacity="1" />
      <stop stop-color="#878385" offset="0.743243" stop-opacity="1" />
      <stop stop-color="#4d4b4d" offset="0.809167" stop-opacity="1" />
      <stop stop-color="#2d2b2d" offset="1" stop-opacity="1" />
    </linearGradient>
    <linearGradient id="defitem13" gradientUnits="userSpaceOnUse" x1="51.3821" y1="80.5329" x2="55.7939" y2="66.5622" >
      <stop stop-color="#dddbdb" offset="0" stop-opacity="1" />
      <stop stop-color="#878385" offset="0.743243" stop-opacity="1" />
      <stop stop-color="#4d4b4d" offset="0.809167" stop-opacity="1" />
      <stop stop-color="#2d2b2d" offset="1" stop-opacity="1" />
    </linearGradient>
    <radialGradient id="defitem14" gradientUnits="userSpaceOnUse" cx="30.2027" cy="69.3043" fx="39.7614" fy="72.8713" r="22.5258" >
      <stop stop-color="#000000" offset="0" stop-opacity="1" />
      <stop stop-color="#000000" offset="1" stop-opacity="0" />
    </radialGradient>
    <linearGradient id="defitem15" gradientUnits="userSpaceOnUse" x1="29.1258" y1="51.4159" x2="35.2868" y2="84.1395" >
      <stop stop-color="#000000" offset="0" stop-opacity="1" />
      <stop stop-color="#000000" offset="1" stop-opacity="0" />
    </linearGradient>
    <linearGradient id="defitem16" gradientUnits="userSpaceOnUse" x1="39.5337" y1="52.6584" x2="40.3945" y2="49.9326" >
      <stop stop-color="#dddbdb" offset="0" stop-opacity="1" />
      <stop stop-color="#878385" offset="0.743243" stop-opacity="1" />
      <stop stop-color="#4d4b4d" offset="0.809167" stop-opacity="1" />
      <stop stop-color="#2d2b2d" offset="1" stop-opacity="1" />
    </linearGradient>
    <linearGradient id="defitem17" gradientUnits="userSpaceOnUse" x1="28.6176" y1="56.4614" x2="29.4784" y2="53.7356" >
      <stop stop-color="#dddbdb" offset="0" stop-opacity="1" />
      <stop stop-color="#878385" offset="0.743243" stop-opacity="1" />
      <stop stop-color="#4d4b4d" offset="0.809167" stop-opacity="1" />
      <stop stop-color="#2d2b2d" offset="1" stop-opacity="1" />
    </linearGradient>
    <linearGradient id="defitem18" gradientUnits="userSpaceOnUse" x1="31.2176" y1="47.5066" x2="19.4899" y2="50.9973" >
      <stop stop-color="#000000" offset="0" stop-opacity="1" />
      <stop stop-color="#000000" offset="1" stop-opacity="0" />
    </linearGradient>
    <radialGradient id="defitem19" gradientUnits="userSpaceOnUse" cx="40.2218" cy="37.7119" fx="40.2218" fy="37.7119" r="7.52403" >
      <stop stop-color="#ffffff" offset="0" stop-opacity="1" />
      <stop stop-color="#ffffff" offset="1" stop-opacity="0" />
    </radialGradient>
    <linearGradient id="defitem20" gradientUnits="userSpaceOnUse" x1="28.6906" y1="34.9424" x2="36.8874" y2="59.0374" >
      <stop stop-color="#000000" offset="0" stop-opacity="1" />
      <stop stop-color="#000000" offset="1" stop-opacity="0" />
    </linearGradient>
    <radialGradient id="defitem21" gradientUnits="userSpaceOnUse" cx="30.2884" cy="48.5357" fx="30.2884" fy="48.5357" r="4.52173" >
      <stop stop-color="#ffffff" offset="0" stop-opacity="1" />
      <stop stop-color="#ffffff" offset="1" stop-opacity="0" />
    </radialGradient>
    <linearGradient id="defitem22" gradientUnits="userSpaceOnUse" x1="11.5327" y1="61.6325" x2="17.3238" y2="48.7671" >
      <stop stop-color="#000000" offset="0" stop-opacity="1" />
      <stop stop-color="#000000" offset="1" stop-opacity="0" />
    </linearGradient>
    <linearGradient id="defitem23" gradientUnits="userSpaceOnUse" x1="120.744" y1="62.2839" x2="73.8698" y2="57.8752" >
      <stop stop-color="#dddbdb" offset="0" stop-opacity="1" />
      <stop stop-color="#878385" offset="0.743243" stop-opacity="1" />
      <stop stop-color="#4d4b4d" offset="0.809167" stop-opacity="1" />
      <stop stop-color="#2d2b2d" offset="1" stop-opacity="1" />
    </linearGradient>
    <linearGradient id="defitem24" gradientUnits="userSpaceOnUse" x1="93.4203" y1="43.0543" x2="83.8753" y2="45.7765" >
      <stop stop-color="#000000" offset="0" stop-opacity="0" />
      <stop stop-color="#000000" offset="0.25" stop-opacity="0.683274" />
      <stop stop-color="#000000" offset="0.5" stop-opacity="1" />
      <stop stop-color="#000000" offset="0.75" stop-opacity="0.729537" />
      <stop stop-color="#000000" offset="1" stop-opacity="0" />
    </linearGradient>
    <linearGradient id="defitem25" gradientUnits="userSpaceOnUse" x1="93.2576" y1="27.526" x2="88.98" y2="60.3709" >
      <stop stop-color="#ffffff" offset="0" stop-opacity="1" />
      <stop stop-color="#ffffff" offset="1" stop-opacity="0" />
    </linearGradient>
    <linearGradient id="defitem26" gradientUnits="userSpaceOnUse" x1="76.1898" y1="80.4179" x2="83.2762" y2="64.7644" >
      <stop stop-color="#dddbdb" offset="0" stop-opacity="1" />
      <stop stop-color="#878385" offset="0.743243" stop-opacity="1" />
      <stop stop-color="#4d4b4d" offset="0.809167" stop-opacity="1" />
      <stop stop-color="#2d2b2d" offset="1" stop-opacity="1" />
    </linearGradient>
    <linearGradient id="defitem27" gradientUnits="userSpaceOnUse" x1="76.1898" y1="80.4179" x2="82.2492" y2="67.0331" >
      <stop stop-color="#dddbdb" offset="0" stop-opacity="1" />
      <stop stop-color="#878385" offset="0.743243" stop-opacity="1" />
      <stop stop-color="#4d4b4d" offset="0.809167" stop-opacity="1" />
      <stop stop-color="#2d2b2d" offset="1" stop-opacity="1" />
    </linearGradient>
    <linearGradient id="defitem28" gradientUnits="userSpaceOnUse" x1="98.6012" y1="51.4117" x2="92.2656" y2="84.1043" >
      <stop stop-color="#000000" offset="0" stop-opacity="1" />
      <stop stop-color="#000000" offset="1" stop-opacity="0" />
    </linearGradient>
    <linearGradient id="defitem29" gradientUnits="userSpaceOnUse" x1="88.1868" y1="52.6026" x2="87.3406" y2="49.8725" >
      <stop stop-color="#dddbdb" offset="0" stop-opacity="1" />
      <stop stop-color="#878385" offset="0.743243" stop-opacity="1" />
      <stop stop-color="#4d4b4d" offset="0.809167" stop-opacity="1" />
      <stop stop-color="#2d2b2d" offset="1" stop-opacity="1" />
    </linearGradient>
    <linearGradient id="defitem30" gradientUnits="userSpaceOnUse" x1="99.0826" y1="56.4596" x2="98.2364" y2="53.7295" >
      <stop stop-color="#dddbdb" offset="0" stop-opacity="1" />
      <stop stop-color="#878385" offset="0.743243" stop-opacity="1" />
      <stop stop-color="#4d4b4d" offset="0.809167" stop-opacity="1" />
      <stop stop-color="#2d2b2d" offset="1" stop-opacity="1" />
    </linearGradient>
    <linearGradient id="defitem31" gradientUnits="userSpaceOnUse" x1="95.8168" y1="46.2358" x2="105.066" y2="49.782" >
      <stop stop-color="#000000" offset="0" stop-opacity="1" />
      <stop stop-color="#000000" offset="1" stop-opacity="0" />
    </linearGradient>
    <radialGradient id="defitem32" gradientUnits="userSpaceOnUse" cx="87.5785" cy="37.6528" fx="87.5785" fy="37.6528" r="7.52381" >
      <stop stop-color="#ffffff" offset="0" stop-opacity="1" />
      <stop stop-color="#ffffff" offset="1" stop-opacity="0" />
    </radialGradient>
    <linearGradient id="defitem33" gradientUnits="userSpaceOnUse" x1="99.1243" y1="34.9405" x2="90.7989" y2="58.9946" >
      <stop stop-color="#000000" offset="0" stop-opacity="1" />
      <stop stop-color="#000000" offset="1" stop-opacity="0" />
    </linearGradient>
    <radialGradient id="defitem34" gradientUnits="userSpaceOnUse" cx="97.491" cy="48.5411" fx="97.491" fy="48.5411" r="4.7567" >
      <stop stop-color="#ffffff" offset="0" stop-opacity="1" />
      <stop stop-color="#ffffff" offset="1" stop-opacity="0" />
    </radialGradient>
    <linearGradient id="defitem35" gradientUnits="userSpaceOnUse" x1="53.5328" y1="48.7624" x2="78.0734" y2="56.1398" spreadMethod="reflect" >
      <stop stop-color="#3a3a3b" offset="0" stop-opacity="1" />
      <stop stop-color="#5d5d60" offset="0.5" stop-opacity="1" />
      <stop stop-color="#97979a" offset="1" stop-opacity="1" />
    </linearGradient>
    <linearGradient id="defitem36" gradientUnits="userSpaceOnUse" x1="9.14073" y1="72.1189" x2="32.8391" y2="78.7744" spreadMethod="reflect" >
      <stop stop-color="#dddbdb" offset="0" stop-opacity="1" />
      <stop stop-color="#878385" offset="0.743243" stop-opacity="1" />
      <stop stop-color="#4d4b4d" offset="0.809167" stop-opacity="1" />
      <stop stop-color="#2d2b2d" offset="1" stop-opacity="1" />
    </linearGradient>
    <linearGradient id="defitem37" gradientUnits="userSpaceOnUse" x1="8.24784" y1="65.9432" x2="11.9058" y2="67.3804" >
      <stop stop-color="#000000" offset="0" stop-opacity="0" />
      <stop stop-color="#000000" offset="0.25" stop-opacity="0.683274" />
      <stop stop-color="#000000" offset="0.5" stop-opacity="1" />
      <stop stop-color="#000000" offset="0.75" stop-opacity="0.729537" />
      <stop stop-color="#000000" offset="1" stop-opacity="0" />
    </linearGradient>
    <radialGradient id="defitem38" gradientUnits="userSpaceOnUse" cx="23.0629" cy="102.896" fx="30.7904" fy="100.358" r="30.5879" >
      <stop stop-color="#ffffff" offset="0" stop-opacity="1" />
      <stop stop-color="#ffffff" offset="1" stop-opacity="0" />
    </radialGradient>
    <radialGradient id="defitem39" gradientUnits="userSpaceOnUse" cx="23.0011" cy="101.825" fx="18.7412" fy="100.642" r="29.5689" >
      <stop stop-color="#000000" offset="0" stop-opacity="1" />
      <stop stop-color="#000000" offset="1" stop-opacity="0" />
    </radialGradient>
    <linearGradient id="defitem40" gradientUnits="userSpaceOnUse" x1="22.3786" y1="68.3361" x2="31.9" y2="67.8272" spreadMethod="reflect" >
      <stop stop-color="#ffffff" offset="0" stop-opacity="1" />
      <stop stop-color="#ffffff" offset="1" stop-opacity="0" />
    </linearGradient>
    <radialGradient id="defitem41" gradientUnits="userSpaceOnUse" cx="22.1882" cy="87.7007" fx="20.3329" fy="97.2128" r="22.6941" >
      <stop stop-color="#eb7231" offset="0" stop-opacity="1" />
      <stop stop-color="#eb7231" offset="1" stop-opacity="0" />
    </radialGradient>
    <linearGradient id="defitem42" gradientUnits="userSpaceOnUse" x1="12.9991" y1="70.6928" x2="24.4047" y2="88.9909" >
      <stop stop-color="#ffffff" offset="0" stop-opacity="1" />
      <stop stop-color="#ffffff" offset="1" stop-opacity="0" />
    </linearGradient>
    <radialGradient id="defitem43" gradientUnits="userSpaceOnUse" cx="22.6225" cy="95.6851" fx="21.8751" fy="100.195" r="12.5293" >
      <stop stop-color="#a04d21" offset="0" stop-opacity="1" />
      <stop stop-color="#a04d21" offset="1" stop-opacity="0" />
    </radialGradient>
    <linearGradient id="defitem44" gradientUnits="userSpaceOnUse" x1="21.8153" y1="86.1765" x2="38.2419" y2="85.2985" spreadMethod="reflect" >
      <stop stop-color="#f4bda0" offset="0" stop-opacity="1" />
      <stop stop-color="#e4702f" offset="1" stop-opacity="0" />
    </linearGradient>
    <linearGradient id="defitem45" gradientUnits="userSpaceOnUse" x1="23.0834" y1="78.2833" x2="39.51" y2="77.4052" spreadMethod="reflect" >
      <stop stop-color="#f4bda0" offset="0" stop-opacity="1" />
      <stop stop-color="#e4702f" offset="1" stop-opacity="0" />
    </linearGradient>
    <radialGradient id="defitem46" gradientUnits="userSpaceOnUse" cx="33.4866" cy="84.2384" fx="33.0627" fy="82.9196" r="3.12656" >
      <stop stop-color="#ffefc3" offset="0" stop-opacity="1" />
      <stop stop-color="#c13d00" offset="1" stop-opacity="0" />
    </radialGradient>
    <linearGradient id="defitem47" gradientUnits="userSpaceOnUse" x1="37.1129" y1="55.317" x2="15.6274" y2="78.4556" >
      <stop stop-color="#ffffff" offset="0" stop-opacity="1" />
      <stop stop-color="#ffffff" offset="1" stop-opacity="0" />
    </linearGradient>
    <linearGradient id="defitem48" gradientUnits="userSpaceOnUse" x1="118.928" y1="72.2398" x2="95.1943" y2="78.7778" spreadMethod="reflect" >
      <stop stop-color="#dddbdb" offset="0" stop-opacity="1" />
      <stop stop-color="#878385" offset="0.743243" stop-opacity="1" />
      <stop stop-color="#4d4b4d" offset="0.809167" stop-opacity="1" />
      <stop stop-color="#2d2b2d" offset="1" stop-opacity="1" />
    </linearGradient>
    <linearGradient id="defitem49" gradientUnits="userSpaceOnUse" x1="119.854" y1="66.0688" x2="116.188" y2="67.4878" >
      <stop stop-color="#000000" offset="0" stop-opacity="0" />
      <stop stop-color="#000000" offset="0.25" stop-opacity="0.683274" />
      <stop stop-color="#000000" offset="0.5" stop-opacity="1" />
      <stop stop-color="#000000" offset="0.75" stop-opacity="0.729537" />
      <stop stop-color="#000000" offset="1" stop-opacity="0" />
    </linearGradient>
    <radialGradient id="defitem50" gradientUnits="userSpaceOnUse" cx="104.842" cy="102.947" fx="113.313" fy="101.317" r="30.5855" >
      <stop stop-color="#ffffff" offset="0" stop-opacity="1" />
      <stop stop-color="#ffffff" offset="1" stop-opacity="0" />
    </radialGradient>
    <radialGradient id="defitem51" gradientUnits="userSpaceOnUse" cx="116.927" cy="102.548" fx="121.193" fy="101.387" r="29.5664" >
      <stop stop-color="#000000" offset="0" stop-opacity="1" />
      <stop stop-color="#000000" offset="1" stop-opacity="0" />
    </radialGradient>
    <linearGradient id="defitem52" gradientUnits="userSpaceOnUse" x1="105.71" y1="68.3916" x2="96.1918" y2="67.8354" spreadMethod="reflect" >
      <stop stop-color="#ffffff" offset="0" stop-opacity="1" />
      <stop stop-color="#ffffff" offset="1" stop-opacity="0" />
    </linearGradient>
    <radialGradient id="defitem53" gradientUnits="userSpaceOnUse" cx="105.797" cy="87.7568" fx="107.602" fy="97.2779" r="22.6938" >
      <stop stop-color="#eb7231" offset="0" stop-opacity="1" />
      <stop stop-color="#eb7231" offset="1" stop-opacity="0" />
    </radialGradient>
    <linearGradient id="defitem54" gradientUnits="userSpaceOnUse" x1="102.779" y1="66.7552" x2="111.475" y2="88.7582" >
      <stop stop-color="#ffffff" offset="0" stop-opacity="1" />
      <stop stop-color="#ffffff" offset="1" stop-opacity="0" />
    </linearGradient>
    <radialGradient id="defitem55" gradientUnits="userSpaceOnUse" cx="105.32" cy="95.739" fx="105.754" fy="100.581" r="12.5272" >
      <stop stop-color="#a04d21" offset="0" stop-opacity="1" />
      <stop stop-color="#a04d21" offset="1" stop-opacity="0" />
    </radialGradient>
    <linearGradient id="defitem56" gradientUnits="userSpaceOnUse" x1="106.178" y1="86.2345" x2="89.7567" y2="85.275" spreadMethod="reflect" >
      <stop stop-color="#f4bda0" offset="0" stop-opacity="1" />
      <stop stop-color="#e4702f" offset="1" stop-opacity="0" />
    </linearGradient>
    <linearGradient id="defitem57" gradientUnits="userSpaceOnUse" x1="104.952" y1="78.3351" x2="88.5307" y2="77.3756" spreadMethod="reflect" >
      <stop stop-color="#f4bda0" offset="0" stop-opacity="1" />
      <stop stop-color="#e4702f" offset="1" stop-opacity="0" />
    </linearGradient>
    <radialGradient id="defitem58" gradientUnits="userSpaceOnUse" cx="117.078" cy="85.5567" fx="117.509" fy="84.2401" r="3.12632" >
      <stop stop-color="#ffefc3" offset="0" stop-opacity="1" />
      <stop stop-color="#c13d00" offset="1" stop-opacity="0" />
    </radialGradient>
    <linearGradient id="defitem59" gradientUnits="userSpaceOnUse" x1="135.156" y1="58.3512" x2="101.094" y2="82.3177" >
      <stop stop-color="#ffffff" offset="0" stop-opacity="1" />
      <stop stop-color="#ffffff" offset="1" stop-opacity="0" />
    </linearGradient>
    <linearGradient id="defitem60" gradientUnits="userSpaceOnUse" x1="60.4332" y1="50.798" x2="70.1698" y2="42.9221" >
      <stop stop-color="#000000" offset="0" stop-opacity="1" />
      <stop stop-color="#000000" offset="1" stop-opacity="0" />
    </linearGradient>
    <linearGradient id="defitem61" gradientUnits="userSpaceOnUse" x1="59.3903" y1="52.5914" x2="63.6771" y2="52.5914" spreadMethod="reflect" >
      <stop stop-color="#3a3a3b" offset="0" stop-opacity="1" />
      <stop stop-color="#5d5d60" offset="0.5" stop-opacity="1" />
      <stop stop-color="#97979a" offset="1" stop-opacity="1" />
    </linearGradient>
    <linearGradient id="defitem62" gradientUnits="userSpaceOnUse" x1="50.9601" y1="57.1062" x2="63.345" y2="57.1062" spreadMethod="reflect" >
      <stop stop-color="#3a3a3b" offset="0" stop-opacity="1" />
      <stop stop-color="#5d5d60" offset="0.5" stop-opacity="1" />
      <stop stop-color="#97979a" offset="1" stop-opacity="1" />
    </linearGradient>
    <linearGradient id="defitem63" gradientUnits="userSpaceOnUse" x1="64.2603" y1="62.7748" x2="66.4975" y2="49.6072" >
      <stop stop-color="#dddbdb" offset="0" stop-opacity="1" />
      <stop stop-color="#878385" offset="0.743243" stop-opacity="1" />
      <stop stop-color="#4d4b4d" offset="0.809167" stop-opacity="1" />
      <stop stop-color="#2d2b2d" offset="1" stop-opacity="1" />
    </linearGradient>
    <linearGradient id="defitem64" gradientUnits="userSpaceOnUse" x1="63.0617" y1="44.1919" x2="66.3533" y2="51.1267" >
      <stop stop-color="#000000" offset="0" stop-opacity="1" />
      <stop stop-color="#000000" offset="1" stop-opacity="0" />
    </linearGradient>
    <linearGradient id="defitem65" gradientUnits="userSpaceOnUse" x1="46.135" y1="81.455" x2="46.9958" y2="78.7292" >
      <stop stop-color="#dddbdb" offset="0" stop-opacity="1" />
      <stop stop-color="#878385" offset="0.743243" stop-opacity="1" />
      <stop stop-color="#4d4b4d" offset="0.809167" stop-opacity="1" />
      <stop stop-color="#2d2b2d" offset="1" stop-opacity="1" />
    </linearGradient>
    <linearGradient id="defitem66" gradientUnits="userSpaceOnUse" x1="82.3719" y1="81.5734" x2="83.2327" y2="78.8476" >
      <stop stop-color="#dddbdb" offset="0" stop-opacity="1" />
      <stop stop-color="#878385" offset="0.743243" stop-opacity="1" />
      <stop stop-color="#4d4b4d" offset="0.809167" stop-opacity="1" />
      <stop stop-color="#2d2b2d" offset="1" stop-opacity="1" />
    </linearGradient>
    <linearGradient id="defitem67" gradientUnits="userSpaceOnUse" x1="59.9802" y1="62.6922" x2="63.9727" y2="58.8353" >
      <stop stop-color="#000000" offset="0" stop-opacity="1" />
      <stop stop-color="#000000" offset="1" stop-opacity="0" />
    </linearGradient>
  </defs>
  <g id="Layer">
    <g id="Layer">
      <g id="sombra">
        <path id="path1563" fill="url(#defitem0)" stroke-width="0" stroke-linecap="round" stroke-linejoin="round" d="M128 122.802C128 125.667 99.3468 127.99 64.0002 127.99C28.6539 127.99 0.000171 125.667 0.000171 122.802C0.000171 119.937 28.6539 117.614 64.0002 117.614C99.3468 117.614 128 119.937 128 122.802L128 122.802Z"  />
        <path id="path3251" fill="url(#defitem1)" stroke-width="0" stroke-linecap="round" stroke-linejoin="round" d="M128 122.802L0.00017 122.802C0.00017 125.673 28.6539 128 64.0002 128C99.3468 128 128 125.673 128 122.802L128 122.802Z"  />
        <path id="path2455" fill="url(#defitem2)" stroke-width="0" stroke-linecap="round" stroke-linejoin="round" d="M128 122.802L0.00017 122.802C0.00017 119.697 28.6539 117.18 64.0002 117.18C99.3468 117.18 128 119.697 128 122.802L128 122.802Z"  />
        <path id="path2440" fill="#ffffff" fill-opacity="0.5" stroke-width="0" stroke-linecap="round" stroke-linejoin="round" d="M64 117.184C29.7583 117.184 1.77662 119.526 0.0625 122.496C0.000125 122.59 0 122.714 0 122.809C0 122.988 0.094004 123.134 0.3125 123.309C0.425013 123.402 0.546842 123.499 0.71875 123.59C1.85178 124.191 4.27039 124.763 7.71875 125.278C9.68924 125.572 11.9852 125.833 14.5938 126.09C18.5066 126.474 23.1115 126.81 28.2188 127.09C33.326 127.37 38.9567 127.594 44.9688 127.746C50.9808 127.898 57.3726 127.996 64 127.996C70.6275 127.996 77.0192 127.898 83.0313 127.746C89.0433 127.594 94.6741 127.37 99.7813 127.09C104.888 126.81 109.462 126.474 113.375 126.09C115.984 125.833 118.311 125.572 120.281 125.278C123.73 124.763 126.117 124.191 127.25 123.59C127.422 123.499 127.544 123.402 127.656 123.309C127.766 123.222 127.851 123.147 127.906 123.059C127.962 122.97 128 122.898 128 122.809C128 122.714 127.969 122.59 127.906 122.496C126.192 119.526 98.242 117.184 64 117.184Z"  />
      </g>
    </g>
    <path id="path10795" fill="url(#defitem3)" stroke-width="0.58999" stroke-linecap="round" stroke-linejoin="round" d="M40.416 32.0162C37.2686 32.2031 34.7252 33.9676 33.7586 36.3392L32.1909 39.9918L31.7796 41.0671C31.563 41.8208 31.484 42.6155 31.5658 43.4349C31.9743 47.5267 36.2232 50.615 41.0483 50.3285C45.6425 50.0558 49.1083 46.8194 49.0771 42.9783L49.0726 42.7791L48.7853 38.1397C48.7846 38.132 48.7847 38.1245 48.7839 38.1168C48.423 34.4965 44.6726 31.7635 40.416 32.0162Z"  />
    <path fill="url(#defitem4)" stroke-width="0.941027" stroke-linecap="round" stroke-linejoin="round" d="M33.2368 38.2273L36.0293 31.7077L37.8581 32.4589L35.0656 38.9785L33.2368 38.2273Z"  />
    <path id="path10799" fill="#312f2f" stroke-width="0.150667" stroke-linecap="round" stroke-linejoin="round" d="M49.0484 42.397C49.457 46.4909 45.8748 50.042 41.0473 50.3286C36.2198 50.6152 31.975 47.5288 31.5664 43.4349C31.1577 39.341 34.7399 35.7899 39.5675 35.5033C44.395 35.2167 48.6397 38.3031 49.0484 42.397L49.0484 42.397Z"  />
    <path id="path10801" fill="#000000" stroke="#000000" stroke-width="0.954233" stroke-linecap="round" stroke-linejoin="round" d="M48.4509 42.5859C48.8311 46.3934 45.4974 49.6962 41.005 49.9629C36.5126 50.2296 32.5625 47.3592 32.1824 43.5518C31.8023 39.7443 35.136 36.4415 39.6284 36.1748C44.1208 35.9081 48.0708 38.7784 48.4509 42.5859L48.4509 42.5859Z"  />
    <path id="path10803" fill="none" stroke="url(#defitem5)" stroke-width="0.349558" d="M44.0545 36.3924C42.4842 35.3595 38.6636 35.2146 36.7792 36.1027"  fill-rule="evenodd" />
    <path id="path10657" fill="url(#defitem6)" stroke-width="0.58999" stroke-linecap="round" stroke-linejoin="round" d="M87.134 32.1832C90.2813 32.3701 92.8247 34.1346 93.7914 36.5062L95.3591 40.1588L95.7704 41.2342C95.9869 41.9878 96.066 42.7825 95.9842 43.602C95.5757 47.6937 91.3268 50.782 86.5017 50.4955C81.9075 50.2228 78.4417 46.9864 78.4729 43.1454L78.4774 42.9462L78.7646 38.3067C78.7654 38.299 78.7653 38.2915 78.7661 38.2838C79.127 34.6635 82.8774 31.9305 87.134 32.1832Z"  />
    <path fill="url(#defitem7)" stroke-width="0.941027" stroke-linecap="round" stroke-linejoin="round" d="M94.3132 38.3943L91.5207 31.8748L89.6919 32.6259L92.4844 39.1455L94.3132 38.3943Z"  />
    <path id="path10661" fill="#312f2f" stroke-width="0.148519" stroke-linecap="round" stroke-linejoin="round" d="M78.5016 42.564C78.093 46.6579 81.6752 50.209 86.5027 50.4956C91.3302 50.7822 95.575 47.6958 95.9836 43.6019C96.3923 39.508 92.81 35.957 87.9825 35.6703C83.155 35.3837 78.9103 38.4701 78.5016 42.564L78.5016 42.564Z"  />
    <path id="path10663" fill="#000000" stroke="#000000" stroke-width="0.9407" stroke-linecap="round" stroke-linejoin="round" d="M79.099 42.7529C78.7189 46.5604 82.0526 49.8632 86.545 50.1299C91.0374 50.3966 94.9874 47.5262 95.3676 43.7188C95.7477 39.9113 92.414 36.6085 87.9216 36.3418C83.4292 36.0751 79.4792 38.9455 79.099 42.7529L79.099 42.7529Z"  />
    <path id="path10669" fill="none" stroke="url(#defitem8)" stroke-width="0.344515" d="M83.4955 36.5594C85.0658 35.5266 88.8864 35.3816 90.7708 36.2697"  fill-rule="evenodd" />
    <path id="path5585" fill="url(#defitem9)" stroke-width="0.982131" d="M37.7216 37.0467C36.0342 37.1124 34.3623 37.6299 32.9442 38.5162C30.9207 39.781 29.9047 42.0669 29.2076 44.3882C23.7894 44.9355 16.9466 46.6837 12.6627 54.8149L7.30854 67.8115L7.36738 67.8083C7.33176 67.8746 7.29584 67.9367 7.26058 68.0038L45.0085 83.6288L53.8784 83.1547C58.7537 82.8941 61.423 77.811 61.7245 73.0981L61.7441 73.0971L61.7375 72.9836C61.748 72.7979 61.7423 72.6172 61.7452 72.433L61.7561 72.2807C61.7573 72.0462 61.7661 71.8093 61.7551 71.5788L61.9089 59.5432C62.1009 56.8918 61.4712 54.3507 59.9603 53.0455L43.784 39.094C42.0716 37.6171 39.8912 36.9624 37.7216 37.0467Z"  fill-rule="evenodd" />
    <path fill="url(#defitem10)" stroke-width="0.167379" stroke-linecap="round" stroke-linejoin="round" d="M30.8381 54.5978L38.0276 31.6181L47.3948 34.3402L40.2053 57.3199L30.8381 54.5978Z"  />
    <path id="path5581" fill="#3d3b3b" stroke-width="0.982131" d="M44.9572 83.6226L53.8378 83.1479C61.7007 82.7276 63.8615 69.7862 59.5287 66.0436L41.6376 50.6131C38.2702 47.7088 33.2165 47.7348 29.6311 49.9757C27.3929 51.3747 26.2807 53.9111 25.5095 56.4787C19.5165 57.0841 11.9499 59.0134 7.21147 68.0074L44.9572 83.6226Z"  fill-rule="evenodd" />
    <path id="path5603" fill="url(#defitem11)" stroke-width="0.617634" d="M35.1117 47.4494C33.1502 47.5257 31.2075 48.1008 29.5592 49.1311C27.2071 50.6012 25.8643 52.9719 25.0539 55.6702C20.2982 56.1506 14.5055 58.4956 9.85565 63.1603L7.30852 67.8115C12.0532 58.9869 19.565 57.0812 25.5138 56.4803C26.285 53.9127 27.3895 51.3801 29.6278 49.9811C33.2131 47.7401 38.2646 47.7062 41.6319 50.6105L59.5273 66.0446C61.2897 67.567 61.993 70.6059 61.6611 73.7086C61.6858 73.5049 61.7114 73.3009 61.7245 73.0981L61.7441 73.0971L61.7375 72.9836C61.7479 72.7979 61.7423 72.6172 61.7452 72.433L61.7562 72.2807C61.7573 72.0462 61.7663 71.8093 61.7551 71.5788L61.8369 66.8437C61.5368 66.349 61.1888 65.9078 60.7784 65.5533L42.176 49.8036C40.1855 48.0868 37.6337 47.3513 35.1117 47.4494ZM59.1083 80.3141C58.8929 80.583 58.6663 80.8335 58.4236 81.0715C58.6664 80.8337 58.8931 80.5834 59.1083 80.3141ZM55.843 82.7461C55.6622 82.8129 55.4702 82.8574 55.2815 82.9089C55.4704 82.8585 55.6621 82.8118 55.843 82.7461ZM55.1855 82.952C55.0007 82.9994 54.8133 83.026 54.6208 83.0581C54.8102 83.0273 55.0036 82.9976 55.1855 82.952Z"  fill-rule="evenodd" />
    <path id="path5702" fill="#1f1f1f" stroke-width="0.228496" stroke-linecap="round" stroke-linejoin="round" d="M56.5938 75.0184C56.7529 77.7831 54.414 80.1562 51.3697 80.319C48.3255 80.4817 45.7286 78.3724 45.5695 75.6077C45.4104 72.843 47.7493 70.4698 50.7936 70.3071C53.8378 70.1444 56.4347 72.2537 56.5938 75.0184Z"  />
    <path id="path5704" fill="url(#defitem12)" stroke-width="0.205259" stroke-linecap="round" stroke-linejoin="round" d="M56.2755 75.5678C56.4245 78.1575 54.2337 80.3804 51.3821 80.5329C48.5305 80.6853 46.0981 78.7095 45.949 76.1198C45.8 73.5302 47.9908 71.3072 50.8424 71.1548C53.694 71.0024 56.1265 72.9782 56.2755 75.5678L56.2755 75.5678Z"  />
    <path id="path5636" fill="#3b3b3b" stroke-width="0.195381" stroke-linecap="round" stroke-linejoin="round" d="M55.7454 75.8225C55.8788 78.1399 53.9183 80.129 51.3667 80.2654C48.815 80.4018 46.6383 78.6338 46.5049 76.3165C46.3716 73.9991 48.3321 72.01 50.8837 71.8736C53.4354 71.7372 55.6121 73.5052 55.7454 75.8225L55.7454 75.8225Z"  />
    <path id="path5634" fill="url(#defitem13)" stroke-width="0.175512" stroke-linecap="round" stroke-linejoin="round" d="M55.5663 76.2874C55.6937 78.5018 53.8204 80.4025 51.3821 80.5329C48.9437 80.6632 46.8638 78.9738 46.7364 76.7594C46.6089 74.545 48.4822 72.6443 50.9206 72.5139C53.3589 72.3836 55.4388 74.073 55.5663 76.2874L55.5663 76.2874Z"  />
    <path id="path6971" fill="url(#defitem14)" stroke-width="0.982131" d="M44.9572 83.6226L53.8378 83.1479C61.7007 82.7276 63.8615 69.7862 59.5287 66.0436L41.6376 50.6131C38.2702 47.7088 33.2165 47.7348 29.6311 49.9757C27.3929 51.3747 26.2807 53.9111 25.5095 56.4787C19.5165 57.0841 11.9499 59.0134 7.21147 68.0074L44.9572 83.6226Z"  fill-rule="evenodd" />
    <path id="path5716" fill="url(#defitem15)" stroke-width="0.617634" d="M34.9241 48.9771C33.0892 49.0485 31.2623 49.6005 29.7204 50.5643C27.5201 51.9395 26.4365 54.4217 25.6784 56.9458C19.787 57.5409 12.3482 59.4428 7.69004 68.2844L8.26551 68.4628C12.7473 60.0841 20.2811 58.0469 25.9126 57.478C26.6414 55.0519 27.8068 52.6478 29.9217 51.3259C33.3094 49.2085 38.086 49.404 41.2677 52.1482L58.1873 67.0458C59.2473 68.1688 60.2481 82.8142 52.8187 83.2113L53.5251 83.1736C61.2547 82.7604 63.3712 70.0305 59.1118 66.3514L41.5272 51.1852C39.6652 49.5793 37.2832 48.8854 34.9241 48.9771Z"  fill-rule="evenodd" />
    <path fill="#000000" stroke-width="0.26945" stroke-linecap="round" stroke-linejoin="round" d="M48.0625 77.9679L53.1635 74.4222L54.1698 75.2174L49.0689 78.7631L48.0625 77.9679Z"  />
    <path id="path5779" fill="#000000" stroke-width="0.0381204" stroke-linecap="round" stroke-linejoin="round" d="M40.385 51.7394C40.411 52.1915 40.0285 52.5796 39.5306 52.6062C39.0328 52.6329 38.6081 52.2879 38.5821 51.8358C38.5561 51.3836 38.9386 50.9955 39.4364 50.9689C39.9343 50.9423 40.359 51.2873 40.385 51.7394L40.385 51.7394Z"  />
    <path id="path5781" fill="url(#defitem16)" stroke-width="0.0342437" stroke-linecap="round" stroke-linejoin="round" d="M40.3501 51.8301C40.375 52.2621 40.0095 52.633 39.5337 52.6584C39.058 52.6838 38.6522 52.3542 38.6273 51.9222C38.6025 51.4901 38.9679 51.1193 39.4437 51.0938C39.9194 51.0684 40.3252 51.398 40.3501 51.8301L40.3501 51.8301Z"  />
    <path fill="#000000" stroke-width="0.169482" stroke-linecap="round" stroke-linejoin="round" d="M38.886 52.158L39.8813 51.4662L40.0776 51.6214L39.0824 52.3132L38.886 52.158Z"  />
    <path id="path5796" fill="#000000" stroke-width="0.0381204" stroke-linecap="round" stroke-linejoin="round" d="M29.4688 55.5424C29.4949 55.9945 29.1123 56.3826 28.6145 56.4092C28.1166 56.4358 27.692 56.0909 27.6659 55.6387C27.6399 55.1866 28.0224 54.7985 28.5203 54.7719C29.0181 54.7453 29.4428 55.0902 29.4688 55.5424L29.4688 55.5424Z"  />
    <path id="path5798" fill="url(#defitem17)" stroke-width="0.0342437" stroke-linecap="round" stroke-linejoin="round" d="M29.4339 55.633C29.4588 56.0651 29.0933 56.4359 28.6176 56.4614C28.1418 56.4868 27.736 56.1572 27.7112 55.7251C27.6863 55.2931 28.0518 54.9222 28.5275 54.8968C29.0033 54.8714 29.4091 55.201 29.4339 55.633L29.4339 55.633Z"  />
    <path fill="#000000" stroke-width="0.169482" stroke-linecap="round" stroke-linejoin="round" d="M27.9699 55.961L28.9651 55.2692L29.1615 55.4243L28.1662 56.1161L27.9699 55.961Z"  />
    <path id="path5806" fill="url(#defitem18)" stroke-width="0.617634" d="M29.1486 44.3914C26.3407 44.6789 18.7765 45.8397 16.9771 49.4053L19.7663 55.8011L25.4321 56.7693L29.1486 44.3914Z"  fill-rule="evenodd" />
    <path id="path5923" fill="none" stroke="url(#defitem19)" stroke-width="0.617634" d="M33.0838 38.7623C36.3342 36.7144 40.9589 37.1337 43.3617 39.206L47.7435 42.9298"  fill-rule="evenodd" />
    <path id="path6056" fill="none" stroke="url(#defitem20)" stroke-width="0.370602" d="M60.0264 54.1954L43.6969 40.0896C41.9682 38.5963 39.7672 37.9342 37.5772 38.0193C35.8739 38.0855 34.1864 38.6086 32.755 39.5045C30.7126 40.783 29.6872 43.0939 28.9838 45.4406C23.5148 45.9934 16.3333 47.8286 12.0099 56.0486"  fill-rule="evenodd" />
    <path id="path6076" fill="none" stroke="url(#defitem21)" stroke-width="0.617634" d="M27.8858 50.7367C29.6619 48.7982 32.1911 47.7126 34.5624 47.6912"  fill-rule="evenodd" />
    <path id="path7027" fill="none" stroke="url(#defitem22)" stroke-width="0.617634" d="M16.7845 50.674L10.8135 63.0124"  fill-rule="evenodd" />
    <path id="path6237" fill="url(#defitem23)" stroke-width="0.617634" d="M90.0823 37.0001C91.7693 37.0741 93.4384 37.5999 94.8518 38.4933C96.8685 39.768 97.8723 42.059 98.557 44.3837C103.972 44.9578 110.806 46.7399 115.046 54.8922L120.331 67.9152L120.272 67.9118C120.307 67.9782 120.343 68.0405 120.378 68.1077L82.5468 83.5454L73.6795 83.0273C68.8057 82.7426 66.1636 77.6464 65.8873 72.932L65.8677 72.9309L65.8748 72.8174C65.8654 72.6316 65.872 72.451 65.8701 72.2668L65.8599 72.1144C65.8601 71.8799 65.8525 71.643 65.8648 71.4126L65.7752 59.3763C65.5973 56.724 66.2406 54.186 67.7585 52.8884L84.0089 39.0173C85.7292 37.5489 87.9131 36.905 90.0823 37.0001Z"  fill-rule="evenodd" />
    <path fill="url(#defitem24)" stroke-width="0.167379" stroke-linecap="round" stroke-linejoin="round" d="M96.872 54.5851L89.8053 31.5701L80.4236 34.2457L87.4904 57.2607L96.872 54.5851Z"  />
    <path id="path6241" fill="#3d3b3b" stroke-width="0.617634" d="M82.5982 83.5395L73.7201 83.0207C65.8596 82.5615 63.7679 69.6095 68.1207 65.8884L86.0939 50.5469C89.4767 47.6593 94.5303 47.7103 98.1036 49.969C100.334 51.379 101.433 53.9209 102.191 56.4923C108.18 57.1274 115.736 59.0942 120.427 68.1116L82.5982 83.5395Z"  fill-rule="evenodd" />
    <path id="path6243" fill="url(#defitem25)" stroke-width="0.617634" d="M92.6365 47.4156C94.5976 47.5016 96.5372 48.0863 98.18 49.1247C100.524 50.6065 101.854 52.9838 102.65 55.6861C107.403 56.1901 113.184 58.5638 117.808 63.2515L120.331 67.9152C115.633 59.0672 108.132 57.1243 102.186 56.4939C101.429 53.9225 100.338 51.3845 98.1069 49.9744C94.5336 47.7157 89.4824 47.6567 86.0995 50.5443L68.1221 65.8895C66.3516 67.4031 65.632 70.4385 65.9473 73.5428C65.9238 73.339 65.8992 73.1349 65.8873 72.932L65.8677 72.9309L65.8748 72.8174C65.8654 72.6316 65.872 72.451 65.8701 72.2668L65.8599 72.1144C65.8601 71.8799 65.8523 71.643 65.8648 71.4126L65.8082 66.6771C66.1109 66.1839 66.4613 65.7444 66.8736 65.392L85.5598 49.7347C87.5594 48.0278 90.1152 47.305 92.6365 47.4156ZM68.4649 80.1608C68.6788 80.4308 68.9041 80.6824 69.1455 80.9217C68.904 80.6827 68.6786 80.4312 68.4649 80.1608ZM71.7172 82.609C71.8976 82.6767 72.0893 82.7222 72.2778 82.7746C72.0891 82.7233 71.8977 82.6756 71.7172 82.609ZM72.3735 82.8182C72.5581 82.8664 72.7453 82.894 72.9377 82.927C72.7485 82.8953 72.5552 82.8647 72.3735 82.8182Z"  fill-rule="evenodd" />
    <path id="path6247" fill="#1f1f1f" stroke-width="0.230066" stroke-linecap="round" stroke-linejoin="round" d="M82.0286 75.5216C81.8547 78.2855 79.2466 80.3819 76.2033 80.2041C73.1599 80.0263 70.8337 77.6415 71.0075 74.8777C71.1814 72.1138 73.7895 70.0174 76.8329 70.1952C79.8762 70.373 82.2025 72.7577 82.0286 75.5216Z"  />
    <path id="path6249" fill="url(#defitem26)" stroke-width="0.206669" stroke-linecap="round" stroke-linejoin="round" d="M81.6464 76.0319C81.4835 78.6208 79.0406 80.5845 76.1898 80.4179C73.3391 80.2514 71.1601 78.0176 71.323 75.4287C71.4859 72.8398 73.9288 70.8761 76.7796 71.0427C79.6303 71.2092 81.8093 73.443 81.6464 76.0319L81.6464 76.0319Z"  />
    <path id="path6251" fill="#3b3b3b" stroke-width="0.196723" stroke-linecap="round" stroke-linejoin="round" d="M81.0894 76.2258C80.9437 78.5424 78.7576 80.2996 76.2067 80.1506C73.6558 80.0015 71.7059 78.0027 71.8517 75.686C71.9974 73.3694 74.1835 71.6122 76.7344 71.7613C79.2853 71.9103 81.2351 73.9091 81.0894 76.2258L81.0894 76.2258Z"  />
    <path id="path6253" fill="url(#defitem27)" stroke-width="0.176717" stroke-linecap="round" stroke-linejoin="round" d="M80.8556 76.6676C80.7164 78.8813 78.6274 80.5604 76.1898 80.4179C73.7522 80.2755 71.8891 78.3655 72.0283 76.1518C72.1676 73.9381 74.2565 72.259 76.6941 72.4014C79.1317 72.5438 80.9949 74.4539 80.8556 76.6676L80.8556 76.6676Z"  />
    <path id="path6255" fill="url(#defitem28)" stroke-width="0.617634" d="M92.816 48.9442C94.6505 49.0246 96.4744 49.5857 98.0112 50.5571C100.204 51.9432 101.274 54.4308 102.019 56.9586C107.907 57.5829 115.336 59.5217 119.947 68.3862L119.37 68.5618C114.933 60.1609 107.41 58.0864 101.782 57.4897C101.066 55.06 99.9137 52.6501 97.8058 51.3177C94.4295 49.1835 89.6519 49.3554 86.4556 52.0837L69.4567 66.8973C68.3907 68.015 67.3117 82.6553 74.739 83.0892L74.0327 83.0479C66.3055 82.5965 64.2569 69.8563 68.5358 66.1983L86.2012 51.1195C88.0717 49.5228 90.4574 48.8407 92.816 48.9442Z"  fill-rule="evenodd" />
    <path fill="#000000" stroke-width="0.174205" stroke-linecap="round" stroke-linejoin="round" d="M73.2005 77.5001L78.6928 74.547L79.5969 75.449L74.1046 78.4021L73.2005 77.5001Z"  />
    <path id="path6261" fill="#000000" stroke-width="0.0383822" stroke-linecap="round" stroke-linejoin="round" d="M87.3404 51.6793C87.312 52.1313 87.6924 52.5213 88.1901 52.5504C88.6878 52.5795 89.1143 52.2366 89.1428 51.7846C89.1712 51.3326 88.7908 50.9427 88.2931 50.9136C87.7954 50.8845 87.3688 51.2273 87.3404 51.6793L87.3404 51.6793Z"  />
    <path id="path6263" fill="url(#defitem29)" stroke-width="0.0344789" stroke-linecap="round" stroke-linejoin="round" d="M87.3749 51.7702C87.3477 52.2021 87.7112 52.5748 88.1868 52.6026C88.6624 52.6303 89.07 52.3027 89.0972 51.8708C89.1243 51.4389 88.7608 51.0663 88.2852 51.0385C87.8096 51.0107 87.4021 51.3383 87.3749 51.7702L87.3749 51.7702Z"  />
    <path fill="#000000" stroke-width="0.167063" stroke-linecap="round" stroke-linejoin="round" d="M88.8372 52.1054L87.8457 51.4086L87.6485 51.5628L88.64 52.2595L88.8372 52.1054Z"  />
    <path id="path6269" fill="#000000" stroke-width="0.0383822" stroke-linecap="round" stroke-linejoin="round" d="M98.2362 55.5363C98.2077 55.9883 98.5881 56.3783 99.0858 56.4074C99.5835 56.4365 100.01 56.0936 100.039 55.6416C100.067 55.1897 99.6865 54.7997 99.1888 54.7706C98.6911 54.7415 98.2646 55.0843 98.2362 55.5363L98.2362 55.5363Z"  />
    <path id="path6271" fill="url(#defitem30)" stroke-width="0.0344789" stroke-linecap="round" stroke-linejoin="round" d="M98.2707 55.6272C98.2435 56.0591 98.607 56.4318 99.0826 56.4596C99.5582 56.4874 99.9658 56.1597 99.9929 55.7278C100.02 55.2959 99.6566 54.9233 99.181 54.8955C98.7054 54.8677 98.2978 55.1953 98.2707 55.6272L98.2707 55.6272Z"  />
    <path fill="#000000" stroke-width="0.167063" stroke-linecap="round" stroke-linejoin="round" d="M99.733 55.9624L98.7414 55.2657L98.5443 55.4198L99.5358 56.1165L99.733 55.9624Z"  />
    <path id="path6275" fill="url(#defitem31)" stroke-width="0.617634" d="M98.6159 44.3871C101.422 44.6886 104.605 45.3276 107.607 46.9999L107.952 48.1017L102.266 56.7833L98.6159 44.3871Z"  fill-rule="evenodd" />
    <path id="path6277" fill="none" stroke="url(#defitem32)" stroke-width="0.617634" d="M94.7108 38.7387C91.4714 36.6746 86.8445 37.071 84.4307 39.1314L80.0291 42.8334"  fill-rule="evenodd" />
    <path id="path6279" fill="none" stroke="url(#defitem33)" stroke-width="0.370535" d="M67.6861 54.0379L84.0907 40.0132C85.8273 38.5286 88.0318 37.8774 90.2214 37.9734C91.9243 38.048 93.609 38.5794 95.0355 39.4825C97.0711 40.771 98.0841 43.087 98.775 45.4372C104.241 46.0171 111.139 47.8181 115.418 56.0594"  fill-rule="evenodd" />
    <path id="path6281" fill="none" stroke="url(#defitem34)" stroke-width="0.617634" d="M99.8449 50.7386C98.0791 48.7914 95.5557 47.6932 93.1846 47.6601"  fill-rule="evenodd" />
    <path id="path10217" fill="url(#defitem35)" stroke-width="0.982131" d="M53.5672 48.4256C53.5672 48.4256 58.5316 44.8044 63.7031 44.8044C69.4716 44.8044 73.7517 48.594 73.7517 48.594L67.9847 54.0678C67.9847 54.0678 66.1497 52.7204 63.9652 52.6362C61.7807 52.552 59.2469 53.7309 59.2469 53.7309L53.5672 48.4256Z"  fill-rule="evenodd" />
    <path id="path6542" fill="url(#defitem36)" stroke-width="0.37058" stroke-linecap="round" stroke-linejoin="round" d="M22.4667 58.3353C14.5535 58.7583 8.13744 63.0914 5.67657 68.9458L1.68778 77.9615L0.639815 80.6165C0.0856212 82.478 -0.123492 84.4429 0.071263 86.4709C1.04382 96.5975 11.6828 104.29 23.8143 103.641C35.3655 103.024 44.1194 95.0614 44.0916 85.5596L44.0829 85.0668L43.4223 73.5869C43.4205 73.5678 43.4209 73.5493 43.419 73.5302C42.5595 64.5703 33.1691 57.7632 22.4667 58.3353Z"  />
    <path fill="url(#defitem37)" stroke-width="2.34701" stroke-linecap="round" stroke-linejoin="round" d="M4.34001 73.61L11.445 57.5176L16.0317 59.3986L8.92675 75.4909L4.34001 73.61Z"  />
    <path id="path6544" fill="#312f2f" stroke-width="0.376472" stroke-linecap="round" stroke-linejoin="round" d="M44.0272 84.1213C45.0002 94.2532 35.9494 102.993 23.8118 103.641C11.6741 104.29 1.04569 96.6027 0.0726293 86.4708C-0.900435 76.3389 8.15034 67.5995 20.288 66.9507C32.4257 66.3019 43.0541 73.9894 44.0272 84.1213L44.0272 84.1213Z"  />
    <path id="path6567" fill="none" stroke="#000000" stroke-width="2.38437" stroke-linecap="round" stroke-linejoin="round" d="M42.5233 84.5811C43.4285 94.0041 35.0058 102.132 23.7106 102.736C12.4154 103.34 2.52503 96.1906 1.61983 86.7675C0.714631 77.3445 9.13742 69.2161 20.4326 68.6124C31.7277 68.0086 41.6181 75.158 42.5233 84.5811L42.5233 84.5811Z"  />
    <path id="path7270" fill="url(#defitem38)" stroke-width="0.885336" stroke-linecap="round" stroke-linejoin="round" d="M20.5983 70.7869C10.0067 71.3531 2.0938 78.9939 2.94291 87.8351C3.79202 96.6763 13.0843 103.397 23.6758 102.831C34.2673 102.265 42.1803 94.6243 41.3312 85.7831C40.4821 76.9419 31.1898 70.2207 20.5983 70.7869ZM20.6741 71.5762C30.7509 71.0375 39.5778 77.422 40.3857 85.8336C41.1935 94.2452 33.5166 100.653 23.4398 101.192C13.3629 101.731 4.69628 96.1962 3.88843 87.7845C3.08058 79.3729 10.5972 72.1148 20.6741 71.5762Z"  />
    <path id="path7338" fill="url(#defitem39)" stroke-width="0.855838" stroke-linecap="round" stroke-linejoin="round" d="M20.6186 70.7858C10.38 71.3331 2.73071 78.7193 3.55152 87.2659C4.37234 95.8126 13.355 102.31 23.5936 101.763C33.8323 101.215 41.4816 93.8289 40.6608 85.2823C39.8399 76.7357 30.8573 70.2385 20.6186 70.7858ZM20.6919 71.5488C30.433 71.0281 38.9658 77.1998 39.7467 85.3312C40.5277 93.4625 32.6659 96.8369 22.9247 97.3576C13.1836 97.8783 5.24648 95.3485 4.46554 87.2171C3.68461 79.0857 10.9508 72.0695 20.6919 71.5488Z"  />
    <path id="path7342" fill="none" stroke="url(#defitem40)" stroke-width="0.87085" d="M31.5546 69.2058C27.6212 66.6313 18.0199 66.2251 13.272 68.3985"  fill-rule="evenodd" />
    <path id="path7486" fill="#000000" stroke-width="0.294309" stroke-linecap="round" stroke-linejoin="round" d="M39.1922 83.709C39.9529 91.6297 32.8774 98.4618 23.3887 98.969C13.9 99.4763 5.59114 93.4665 4.83044 85.5458C4.06974 77.6251 11.1452 70.793 20.634 70.2858C30.1227 69.7786 38.4315 75.7884 39.1922 83.709L39.1922 83.709Z"  />
    <path id="path7396" fill="url(#defitem41)" stroke-width="0.294309" stroke-linecap="round" stroke-linejoin="round" d="M39.1922 83.709C39.9529 91.6297 32.8774 98.4618 23.3887 98.969C13.9 99.4763 5.59114 93.4665 4.83044 85.5458C4.06974 77.6251 11.1452 70.793 20.634 70.2858C30.1227 69.7786 38.4315 75.7884 39.1922 83.709L39.1922 83.709Z"  />
    <path id="path7400" fill="none" stroke="url(#defitem42)" stroke-width="0.670745" stroke-linecap="round" stroke-linejoin="round" d="M39.7995 83.8442C40.5867 92.0413 33.2651 99.1118 23.4462 99.6367C13.6274 100.162 5.02939 93.942 4.24217 85.7449C3.45496 77.5478 10.7766 70.4773 20.5955 69.9525C30.4143 69.4276 39.0123 75.6472 39.7995 83.8442L39.7995 83.8442Z"  />
    <path id="path7972" fill="url(#defitem43)" stroke-width="0.864688" stroke-linecap="round" stroke-linejoin="round" d="M35.1327 95.0164C35.2867 97.693 29.8106 100.162 22.9014 100.531C15.9923 100.901 10.2664 99.0304 10.1124 96.3538C9.95835 93.6773 15.4345 91.2081 22.3436 90.8388C29.2528 90.4695 34.9786 92.3399 35.1327 95.0164Z"  />
    <path id="path7849" fill="url(#defitem44)" stroke-width="0.268837" stroke-linecap="round" stroke-linejoin="round" d="M5.01153 79.4058C4.99195 79.917 4.99456 80.4405 5.04475 80.9632C5.77138 88.5289 13.7254 94.2779 22.7888 93.7934C31.8523 93.3089 38.6094 86.7736 37.8828 79.2079C37.8601 78.9715 37.8414 78.7377 37.8048 78.505C37.5301 85.385 31.3623 91.7488 22.9322 92.1994C14.152 92.6687 6.14676 86.6208 5.01153 79.4058Z"  />
    <path id="path8979" fill="url(#defitem45)" stroke-width="0.268837" stroke-linecap="round" stroke-linejoin="round" d="M6.27964 71.5126C6.26006 72.0238 6.26267 72.5473 6.31286 73.07C7.03949 80.6357 14.9935 86.3847 24.0569 85.9002C33.1204 85.4157 39.8776 78.8803 39.1509 71.3147C39.1282 71.0782 39.1095 70.8445 39.0729 70.6118C38.7983 77.4918 31.4311 84.3939 23.001 84.8445C14.2209 85.3139 7.41487 78.7276 6.27964 71.5126Z"  />
    <path id="path7962" fill="url(#defitem46)" stroke-width="0.864688" stroke-linecap="round" stroke-linejoin="round" d="M36.6087 84.0715C36.7043 85.7333 35.384 87.1552 33.6597 87.2474C31.9354 87.3396 30.4601 86.0671 30.3644 84.4053C30.2688 82.7435 31.5891 81.3216 33.3134 81.2294C35.0377 81.1373 36.513 82.4097 36.6087 84.0715Z"  />
    <path id="path9008" fill="url(#defitem47)" stroke-width="0.281306" stroke-linecap="round" stroke-linejoin="round" d="M20.3941 70.3028C14.7521 70.6044 9.94339 73.1394 7.14753 76.8159C9.23017 80.4793 15.231 82.9098 22.122 82.5414C28.3329 82.2094 33.5469 79.7107 35.724 76.3887C32.3089 72.4287 26.6013 69.971 20.3941 70.3028Z"  />
    <path id="path9045" fill="url(#defitem48)" stroke-width="0.589278" stroke-linecap="round" stroke-linejoin="round" d="M105.676 58.3904C113.586 58.8526 119.979 63.2175 122.409 69.084L126.35 78.1193L127.383 80.7795C127.928 82.6438 128.126 84.6096 127.921 86.6367C126.894 96.7584 116.214 104.398 104.086 103.689C92.5385 103.014 83.8272 95.0087 83.9057 85.5072L83.917 85.0144L84.6389 73.5379C84.6408 73.5189 84.6405 73.5003 84.6425 73.4812C85.5498 64.5258 94.9765 57.7653 105.676 58.3904Z"  />
    <path fill="url(#defitem49)" stroke-width="2.34701" stroke-linecap="round" stroke-linejoin="round" d="M123.721 73.7547L116.702 57.6274L112.105 59.4856L119.124 75.6129L123.721 73.7547Z"  />
    <path id="path9049" fill="#312f2f" stroke-width="0.370853" stroke-linecap="round" stroke-linejoin="round" d="M83.9779 84.0692C82.9508 94.1961 91.9548 102.98 104.089 103.689C116.223 104.398 126.892 96.7635 127.919 86.6366C128.946 76.5097 119.942 67.7254 107.808 67.0165C95.6744 66.3075 85.005 73.9423 83.9779 84.0692L83.9779 84.0692Z"  />
    <path id="path9051" fill="none" stroke="#000000" stroke-width="2.34894" stroke-linecap="round" stroke-linejoin="round" d="M85.4791 84.5364C84.5236 93.9549 92.9029 102.125 104.195 102.785C115.486 103.444 125.415 96.3441 126.37 86.9256C127.326 77.5072 118.947 69.3372 107.655 68.6774C96.363 68.0177 86.4346 75.118 85.4791 84.5364L85.4791 84.5364Z"  />
    <path id="path9055" fill="url(#defitem50)" stroke-width="0.872122" stroke-linecap="round" stroke-linejoin="round" d="M107.478 70.8511C118.066 71.4698 125.938 79.1497 125.042 87.9866C124.146 96.8234 114.818 103.498 104.229 102.88C93.6408 102.261 85.7687 94.5812 86.665 85.7443C87.5613 76.9074 96.8893 70.2324 107.478 70.8511ZM107.398 71.64C97.3238 71.0514 88.463 77.392 87.6103 85.7995C86.7575 94.207 94.4001 100.653 104.474 101.242C114.548 101.83 123.244 96.3389 124.097 87.9314C124.949 79.5238 117.472 72.2286 107.398 71.64Z"  />
    <path id="path9057" fill="url(#defitem51)" stroke-width="0.843064" stroke-linecap="round" stroke-linejoin="round" d="M107.457 70.8499C117.693 71.4479 125.302 78.872 124.436 87.4144C123.57 95.9569 114.552 102.41 104.317 101.811C94.0812 101.213 86.4714 93.7893 87.3378 85.2469C88.2042 76.7044 97.2214 70.2518 107.457 70.8499ZM107.38 71.6125C97.6415 71.0435 89.0759 77.1729 88.2516 85.3003C87.4272 93.4276 95.2709 96.8409 105.009 97.4099C114.747 97.9789 122.698 95.4884 123.522 87.361C124.347 79.2337 117.118 72.1815 107.38 71.6125Z"  />
    <path id="path9059" fill="none" stroke="url(#defitem52)" stroke-width="0.858655" d="M96.5299 69.2158C100.477 66.6608 110.08 66.3022 114.817 68.4991"  fill-rule="evenodd" />
    <path id="path9061" fill="#000000" stroke-width="0.289917" stroke-linecap="round" stroke-linejoin="round" d="M88.815 83.6809C88.012 91.5977 95.051 98.4648 104.537 99.0191C114.023 99.5733 122.364 93.6048 123.167 85.688C123.969 77.7712 116.931 70.9041 107.445 70.3498C97.9588 69.7956 89.618 75.7641 88.815 83.6809L88.815 83.6809Z"  />
    <path id="path9063" fill="url(#defitem53)" stroke-width="0.289917" stroke-linecap="round" stroke-linejoin="round" d="M88.815 83.6809C88.012 91.5977 95.051 98.4648 104.537 99.0191C114.023 99.5733 122.364 93.6048 123.167 85.688C123.969 77.7712 116.931 70.9041 107.445 70.3498C97.9588 69.7956 89.618 75.7641 88.815 83.6809L88.815 83.6809Z"  />
    <path id="path9065" fill="none" stroke="url(#defitem54)" stroke-width="0.660726" stroke-linecap="round" stroke-linejoin="round" d="M88.2068 83.8131C87.3759 92.0061 94.6597 99.1129 104.476 99.6864C114.292 100.26 122.923 94.0831 123.754 85.89C124.585 77.6969 117.301 70.5902 107.485 70.0167C97.6688 69.4432 89.0378 75.62 88.2068 83.8131L88.2068 83.8131Z"  />
    <path id="path9067" fill="url(#defitem55)" stroke-width="0.864688" stroke-linecap="round" stroke-linejoin="round" d="M92.8141 95.0083C92.6457 97.684 98.1086 100.18 105.016 100.584C111.923 100.987 117.659 99.1455 117.827 96.4697C117.995 93.7939 112.532 91.2976 105.625 90.8941C98.7181 90.4905 92.9824 92.3325 92.8141 95.0083Z"  />
    <path id="path9071" fill="url(#defitem56)" stroke-width="0.268837" stroke-linecap="round" stroke-linejoin="round" d="M123.018 79.5472C123.035 80.0585 123.03 80.5819 122.977 81.1044C122.21 88.6664 114.225 94.3758 105.164 93.8465C96.1035 93.3171 89.3813 86.7483 90.1483 79.1863C90.1723 78.95 90.1923 78.7164 90.2301 78.4838C90.468 85.3651 96.6018 91.7593 105.029 92.2517C113.807 92.7646 121.844 86.7564 123.018 79.5472Z"  />
    <path id="path9073" fill="url(#defitem57)" stroke-width="0.268837" stroke-linecap="round" stroke-linejoin="round" d="M121.792 71.6478C121.809 72.1591 121.804 72.6825 121.751 73.205C120.984 80.767 112.999 86.4764 103.938 85.9471C94.8776 85.4177 88.1553 78.8489 88.9223 71.2869C88.9463 71.0506 88.9663 70.817 89.0041 70.5844C89.242 77.4657 96.5722 84.4043 105 84.8967C113.777 85.4095 120.618 78.857 121.792 71.6478Z"  />
    <path id="path9077" fill="url(#defitem58)" stroke-width="0.864688" stroke-linecap="round" stroke-linejoin="round" d="M113.957 85.3744C113.853 87.0357 115.165 88.4641 116.889 88.5648C118.613 88.6655 120.095 87.4004 120.199 85.7391C120.304 84.0778 118.991 82.6494 117.268 82.5487C115.544 82.4479 114.062 83.7131 113.957 85.3744Z"  />
    <path id="path9079" fill="url(#defitem59)" stroke-width="0.447319" stroke-linecap="round" stroke-linejoin="round" d="M107.684 70.3681C113.325 70.6976 118.12 73.2564 120.896 76.9468C118.794 80.5998 112.78 83.0005 105.891 82.5979C99.6821 82.2352 94.4815 79.7106 92.3222 76.3779C95.7584 72.4348 101.479 70.0055 107.684 70.3681Z"  />
    <path id="path10221" fill="url(#defitem60)" stroke-width="0.190314" stroke-linecap="round" stroke-linejoin="round" d="M68.0548 48.8549C68.1851 51.1025 66.2688 53.0318 63.7746 53.1641C61.2804 53.2964 59.1527 51.5816 59.0224 49.334C58.892 47.0864 60.8083 45.1571 63.3025 45.0248C65.7967 44.8925 67.9244 46.6073 68.0548 48.8549L68.0548 48.8549Z"  />
    <path id="rect10165" fill="url(#defitem61)" stroke-width="1.37498" stroke-linecap="round" stroke-linejoin="round" d="M60.3368 47.6136C60.4475 46.9188 61.4138 45.9788 63.7116 45.9788C66.0126 45.9788 67.041 46.9007 67.0289 47.6136L67.9226 55.0205L59.3491 55.0205L60.3368 47.6136Z"  />
    <path id="path9180" fill="url(#defitem62)" stroke-width="0.982131" d="M51.0028 56.6889C51.0028 56.6889 57.1535 52.2026 63.5605 52.2026C70.7071 52.2026 76.0099 56.8976 76.0099 56.8976L68.8651 63.6792C68.8651 63.6792 66.5916 62.0099 63.8853 61.9055C61.1788 61.8012 58.0395 63.2618 58.0395 63.2618L51.0028 56.6889Z"  fill-rule="evenodd" />
    <path id="path10207" fill="#3b3b3b" stroke-width="0.243511" stroke-linecap="round" stroke-linejoin="round" d="M69.6988 56.9041C69.865 59.7923 67.4216 62.2715 64.2413 62.4415C61.0611 62.6115 58.3482 60.4079 58.182 57.5198C58.0158 54.6316 60.4592 52.1524 63.6394 51.9824C66.8197 51.8124 69.5326 54.016 69.6988 56.9041L69.6988 56.9041Z"  />
    <path id="path10209" fill="url(#defitem63)" stroke-width="0.218747" stroke-linecap="round" stroke-linejoin="round" d="M69.4752 57.4835C69.6341 60.2434 67.2993 62.6124 64.2603 62.7748C61.2213 62.9373 58.629 60.8316 58.4702 58.0718C58.3114 55.3119 60.6461 52.9429 63.6851 52.7805C66.7241 52.618 69.3164 54.7237 69.4752 57.4835L69.4752 57.4835Z"  />
    <path id="path10265" fill="url(#defitem64)" stroke-width="1.37498" stroke-linecap="round" stroke-linejoin="round" d="M60.3368 47.6136C60.4475 46.9188 61.4138 45.9788 63.7116 45.9788C66.0126 45.9788 67.041 46.9007 67.0289 47.6136L67.9226 55.0205L59.3491 55.0205L60.3368 47.6136Z"  />
    <path id="path10281" fill="#000000" stroke-width="0.0381204" stroke-linecap="round" stroke-linejoin="round" d="M46.9863 80.536C47.0123 80.9881 46.6298 81.3762 46.1319 81.4028C45.6341 81.4294 45.2094 81.0845 45.1834 80.6324C45.1574 80.1802 45.5399 79.7921 46.0377 79.7655C46.5356 79.7389 46.9603 80.0838 46.9863 80.536L46.9863 80.536Z"  />
    <path id="path10283" fill="url(#defitem65)" stroke-width="0.0342437" stroke-linecap="round" stroke-linejoin="round" d="M46.9514 80.6267C46.9762 81.0587 46.6108 81.4295 46.135 81.455C45.6593 81.4804 45.2535 81.1508 45.2286 80.7187C45.2037 80.2867 45.5692 79.9159 46.045 79.8904C46.5207 79.865 46.9265 80.1946 46.9514 80.6267L46.9514 80.6267Z"  />
    <path fill="#000000" stroke-width="0.169482" stroke-linecap="round" stroke-linejoin="round" d="M45.4873 80.9546L46.4826 80.2628L46.6789 80.4179L45.6837 81.1097L45.4873 80.9546Z"  />
    <path id="path10291" fill="#000000" stroke-width="0.0381204" stroke-linecap="round" stroke-linejoin="round" d="M83.2232 80.6544C83.2492 81.1065 82.8667 81.4946 82.3689 81.5212C81.871 81.5478 81.4463 81.2029 81.4203 80.7507C81.3943 80.2986 81.7768 79.9105 82.2746 79.8839C82.7725 79.8573 83.1972 80.2022 83.2232 80.6544L83.2232 80.6544Z"  />
    <path id="path10293" fill="url(#defitem66)" stroke-width="0.0342437" stroke-linecap="round" stroke-linejoin="round" d="M83.1883 80.745C83.2132 81.1771 82.8477 81.5479 82.3719 81.5734C81.8962 81.5988 81.4904 81.2692 81.4655 80.8371C81.4407 80.4051 81.8062 80.0342 82.2819 80.0088C82.7576 79.9834 83.1634 80.313 83.1883 80.745L83.1883 80.745Z"  />
    <path fill="#000000" stroke-width="0.169482" stroke-linecap="round" stroke-linejoin="round" d="M81.7242 81.073L82.7195 80.3812L82.9158 80.5363L81.9206 81.2281L81.7242 81.073Z"  />
    <path id="path11198" fill="url(#defitem67)" stroke-width="0.218747" stroke-linecap="round" stroke-linejoin="round" d="M69.4752 57.4835C69.6341 60.2434 67.2993 62.6124 64.2603 62.7748C61.2213 62.9373 58.629 60.8316 58.4702 58.0718C58.3114 55.3119 60.6461 52.9429 63.6851 52.7805C66.7241 52.618 69.3164 54.7237 69.4752 57.4835L69.4752 57.4835Z"  />
  </g>
</svg>
