<?xml version="1.0" encoding="UTF-8" standalone="no"?>
<!-- Created with Inkscape (http://www.inkscape.org/) -->
<svg
   xmlns:dc="http://purl.org/dc/elements/1.1/"
   xmlns:cc="http://creativecommons.org/ns#"
   xmlns:rdf="http://www.w3.org/1999/02/22-rdf-syntax-ns#"
   xmlns:svg="http://www.w3.org/2000/svg"
   xmlns="http://www.w3.org/2000/svg"
   xmlns:sodipodi="http://sodipodi.sourceforge.net/DTD/sodipodi-0.dtd"
   xmlns:inkscape="http://www.inkscape.org/namespaces/inkscape"
   width="1052.36"
   height="1052.3622"
   id="svg3302"
   sodipodi:version="0.32"
   inkscape:version="0.46"
   sodipodi:docname="pos_z.svg"
   inkscape:output_extension="org.inkscape.output.svg.inkscape"
   version="1.0">
  <defs
     id="defs3304">
    <inkscape:perspective
       sodipodi:type="inkscape:persp3d"
       inkscape:vp_x="0 : 526.18109 : 1"
       inkscape:vp_y="0 : 1000 : 0"
       inkscape:vp_z="744.09448 : 526.18109 : 1"
       inkscape:persp3d-origin="372.04724 : 350.78739 : 1"
       id="perspective3310" />
  </defs>
  <sodipodi:namedview
     id="base"
     pagecolor="#ffffff"
     bordercolor="#666666"
     borderopacity="1.0"
     inkscape:pageopacity="0.0"
     inkscape:pageshadow="2"
     inkscape:zoom="0.35"
     inkscape:cx="350"
     inkscape:cy="520"
     inkscape:document-units="px"
     inkscape:current-layer="layer1"
     showgrid="false"
     inkscape:window-width="1016"
     inkscape:window-height="779"
     inkscape:window-x="0"
     inkscape:window-y="0" />
  <metadata
     id="metadata3307">
    <rdf:RDF>
      <cc:Work
         rdf:about="">
        <dc:format>image/svg+xml</dc:format>
        <dc:type
           rdf:resource="http://purl.org/dc/dcmitype/StillImage" />
      </cc:Work>
    </rdf:RDF>
  </metadata>
  <g
     inkscape:label="Capa 1"
     inkscape:groupmode="layer"
     id="layer1">
    <path
       id="path2424"
       d="M 116.65981,1006.2381 L 116.65981,-24.244961 L 627.57157,374.09302 L 627.57157,755.11194 L 116.65981,1006.2381 z"
       style="fill:none;fill-rule:evenodd;stroke:none;stroke-width:1px;stroke-linecap:butt;stroke-linejoin:miter;stroke-opacity:1" />
    <path
       id="text2458"
       d="M 42.405606,1011.9208 C 42.405606,1011.9208 42.405606,884.65034 42.405606,884.65034 C 42.405606,884.65034 846.0983,425.61508 846.0983,425.61508 C 872.24402,410.68755 895.39998,399.13737 915.97014,390.58203 C 915.97014,390.58203 212.56716,154.7459 212.56716,154.7459 C 212.56716,154.7459 212.56716,46.016969 212.56716,46.016969 C 212.56716,46.016969 1000.0528,372.94709 1000.0528,372.94709 C 1000.0528,372.94709 1000.0528,418.77312 1000.0528,418.77312 C 1000.0528,418.77312 524.06475,752.08888 524.06475,752.08888 C 524.06475,752.08888 420.60111,820.8244 420.60111,820.8244 C 420.60111,820.8244 1007.54,714.0888 1007.54,714.0888 C 1007.54,714.0888 1007.54,759.31679 1007.54,759.31679 C 1007.54,759.31679 42.405606,1011.9208 42.405606,1011.9208"
       style="font-size:291.45974731px;font-style:normal;font-weight:normal;fill:#ff0000;fill-opacity:1;stroke:#960000;stroke-width:62.66836548;stroke-linecap:round;stroke-linejoin:round;stroke-miterlimit:4;stroke-dasharray:none;stroke-opacity:1;font-family:Bitstream Vera Sans"
       inkscape:export-filename="/home/fcojavmc/bulmages/svn/trunk/bulmages/images/oxygen/actions/48x48/pos_z.png"
       inkscape:export-xdpi="4.1999998"
       inkscape:export-ydpi="4.1999998" />
  </g>
</svg>
