<?xml version="1.0" encoding="UTF-8" standalone="no"?>
<!-- Created with Inkscape (http://www.inkscape.org/) -->
<svg
   xmlns:svg="http://www.w3.org/2000/svg"
   xmlns="http://www.w3.org/2000/svg"
   xmlns:xlink="http://www.w3.org/1999/xlink"
   version="1.0"
   width="128"
   height="128"
   id="svg16209">
  <defs
     id="defs16211">
    <linearGradient
       x1="181.9985"
       y1="-85.999496"
       x2="181.9985"
       y2="-17.9995"
       id="rect3244_12_"
       gradientUnits="userSpaceOnUse"
       gradientTransform="matrix(0,-1,1,0,-483.1434,-701.4306)">
      <stop
         id="stop174"
         style="stop-color:#a4c0e4;stop-opacity:1"
         offset="0" />
      <stop
         id="stop176"
         style="stop-color:#d1dff1;stop-opacity:1"
         offset="0.25" />
      <stop
         id="stop178"
         style="stop-color:#ffffff;stop-opacity:1"
         offset="0.85000002" />
    </linearGradient>
    <linearGradient
       x1="645.99847"
       y1="-532.10211"
       x2="645.99847"
       y2="-543.35211"
       id="polygon3293_12_"
       gradientUnits="userSpaceOnUse"
       gradientTransform="matrix(0,-4,-4,0,-2060.408,2643.994)">
      <stop
         id="stop182"
         style="stop-color:#6193cf;stop-opacity:1"
         offset="0" />
      <stop
         id="stop184"
         style="stop-color:#eeeeee;stop-opacity:1"
         offset="1" />
    </linearGradient>
    <linearGradient
       x1="84.965302"
       y1="60.0005"
       x2="47.999001"
       y2="60.0005"
       id="XMLID_1_"
       gradientUnits="userSpaceOnUse">
      <stop
         id="stop188"
         style="stop-color:#2c72c7;stop-opacity:1"
         offset="0" />
      <stop
         id="stop190"
         style="stop-color:#6193cf;stop-opacity:1"
         offset="0.15000001" />
      <stop
         id="stop192"
         style="stop-color:#a4c0e4;stop-opacity:1"
         offset="1" />
    </linearGradient>
    <linearGradient
       x1="3.9985001"
       y1="60"
       x2="47.998501"
       y2="60"
       id="XMLID_2_"
       gradientUnits="userSpaceOnUse">
      <stop
         id="stop197"
         style="stop-color:#6193cf;stop-opacity:1"
         offset="0" />
      <stop
         id="stop199"
         style="stop-color:#6897d1;stop-opacity:1"
         offset="0.1543" />
      <stop
         id="stop201"
         style="stop-color:#7aa4d7;stop-opacity:1"
         offset="0.37220001" />
      <stop
         id="stop203"
         style="stop-color:#98b9e0;stop-opacity:1"
         offset="0.62769997" />
      <stop
         id="stop205"
         style="stop-color:#c2d5ec;stop-opacity:1"
         offset="0.90979999" />
      <stop
         id="stop207"
         style="stop-color:#d1dff1;stop-opacity:1"
         offset="1" />
    </linearGradient>
    <linearGradient
       x1="47.998501"
       y1="60.0005"
       x2="3.9985001"
       y2="60.0005"
       id="XMLID_3_"
       gradientUnits="userSpaceOnUse"
       gradientTransform="translate(-617.1419,-943.4291)">
      <stop
         id="stop212"
         style="stop-color:#a4c0e4;stop-opacity:1"
         offset="0" />
      <stop
         id="stop214"
         style="stop-color:#ffffff;stop-opacity:1"
         offset="0.69999999" />
    </linearGradient>
    <linearGradient
       x1="100.936"
       y1="59.9995"
       x2="46.590199"
       y2="59.9995"
       id="XMLID_4_"
       gradientUnits="userSpaceOnUse">
      <stop
         id="stop227"
         style="stop-color:#a4c0e4;stop-opacity:1"
         offset="0" />
      <stop
         id="stop229"
         style="stop-color:#ffffff;stop-opacity:1"
         offset="1" />
    </linearGradient>
    <linearGradient
       x1="645.99847"
       y1="-532.10211"
       x2="645.99847"
       y2="-543.35211"
       id="linearGradient16283"
       xlink:href="#polygon3293_12_"
       gradientUnits="userSpaceOnUse"
       gradientTransform="matrix(0,-4,-4,0,-2060.408,2643.994)" />
    <linearGradient
       x1="84.965302"
       y1="60.0005"
       x2="47.999001"
       y2="60.0005"
       id="linearGradient16285"
       xlink:href="#XMLID_1_"
       gradientUnits="userSpaceOnUse" />
    <linearGradient
       x1="3.9985001"
       y1="60"
       x2="47.998501"
       y2="60"
       id="linearGradient16287"
       xlink:href="#XMLID_2_"
       gradientUnits="userSpaceOnUse" />
    <linearGradient
       x1="181.9985"
       y1="-85.999496"
       x2="181.9985"
       y2="-17.9995"
       id="linearGradient1940"
       xlink:href="#rect3244_12_"
       gradientUnits="userSpaceOnUse"
       gradientTransform="matrix(0,-0.999992,1.000017,0,138.0004,245.9962)" />
    <linearGradient
       x1="100.936"
       y1="59.9995"
       x2="46.590199"
       y2="59.9995"
       id="linearGradient1950"
       xlink:href="#XMLID_4_"
       gradientUnits="userSpaceOnUse"
       gradientTransform="matrix(0.9230769,0,0,0.9230698,14.154784,8.6150246)" />
    <linearGradient
       x1="47.998501"
       y1="60.0005"
       x2="11.786728"
       y2="60.000031"
       id="linearGradient5408"
       xlink:href="#XMLID_3_"
       gradientUnits="userSpaceOnUse"
       gradientTransform="matrix(1.000017,0,0,0.999992,3.999609,3.9996474)" />
  </defs>
  <g
     id="layer1">
    <path
       d="M 44,8 L 4,64 L 44,120 L 52,120 L 120,120 L 120,8 L 52,8 L 44,8 z"
       id="path6304"
       style="opacity:0.1;fill:none;stroke:#000000;stroke-width:8;stroke-linejoin:round;stroke-miterlimit:4;stroke-dasharray:none;stroke-opacity:1" />
    <path
       d="M 44,8 L 4,64 L 44,120 L 52,120 L 120,120 L 120,8 L 52,8 L 44,8 z"
       id="path6302"
       style="opacity:0.15;fill:none;stroke:#000000;stroke-width:6;stroke-linejoin:round;stroke-miterlimit:4;stroke-dasharray:none;stroke-opacity:1" />
    <path
       d="M 44,8 L 4,64 L 44,120 L 52,120 L 120,120 L 120,8 L 52,8 L 44,8 z"
       id="path6300"
       style="opacity:0.2;fill:none;stroke:#000000;stroke-width:4;stroke-linejoin:round;stroke-miterlimit:4;stroke-dasharray:none;stroke-opacity:1" />
    <path
       d="M 44,8 L 4,64 L 44,120 L 52,120 L 120,120 L 120,8 L 52,8 L 44,8 z"
       id="rect5410"
       style="opacity:0.25;fill:none;stroke:#000000;stroke-width:2;stroke-linejoin:round;stroke-miterlimit:4;stroke-dasharray:none;stroke-opacity:1" />
    <rect
       width="68.00116"
       height="111.99911"
       x="51.999443"
       y="7.9996386"
       id="rect3244_5_"
       style="fill:url(#linearGradient1940)" />
    <polygon
       points="112.999,4 108.999,4 67.999,60.003 108.999,116 112.999,116 71.999,60.003 112.999,4 "
       transform="matrix(1.000017,0,0,0.999992,3.999609,3.9996474)"
       id="polygon3293_5_"
       style="fill:url(#linearGradient16283)" />
    <polygon
       points="51.999,116 84.965,59.996 51.999,4 47.999,4 47.999,116 51.999,116 "
       transform="matrix(1.000017,0,0,0.999992,3.999609,3.9996474)"
       id="polygon194"
       style="fill:url(#linearGradient16285)" />
    <polygon
       points="39.999,116 3.999,59.996 39.999,4 47.999,4 47.999,116 39.999,116 "
       transform="matrix(1.000017,0,0,0.999992,3.999609,3.9996474)"
       id="polygon209"
       style="fill:url(#linearGradient16287)" />
    <path
       d="M 46.183366,115.99878 C 44.06133,112.69881 10.483043,67.86197 8,64 C 10.482043,60.138031 44.06133,15.298587 46.182366,11.999613 C 46.669374,11.999613 49.761427,11.999613 51.998465,11.999613 L 51.998465,7.9996454 L 43.998329,7.9996454 L 4,64 L 43.998329,119.99875 L 51.998465,119.99875 L 51.998465,115.99878 C 49.761427,115.99878 46.669374,115.99878 46.183366,115.99878 z"
       id="path216"
       style="fill:url(#linearGradient5408)" />
    <path
       d="M 80,63.999982 L 58.000563,15.999968 L 40,15.999583 L 40,111.99884 L 58.000563,112 L 80,63.999982 z"
       id="path2847"
       style="opacity:0.1;fill:none;stroke:#000000;stroke-width:8;stroke-linejoin:round;stroke-miterlimit:4;stroke-dasharray:none;stroke-opacity:1" />
    <path
       d="M 58.000563,16.230734 L 40,16.230351 L 40,111.76808 L 58.000563,111.76923 L 58.000563,16.230734 z"
       id="path2845"
       style="opacity:0.15;fill:none;stroke:#000000;stroke-width:6;stroke-linejoin:round;stroke-miterlimit:4;stroke-dasharray:none;stroke-opacity:1" />
    <path
       d="M 72,63.999985 L 58.000563,16.153813 L 40,16.153429 L 40,111.84501 L 58.000563,111.84616 L 72,63.999985 z"
       id="path2843"
       style="opacity:0.2;fill:none;stroke:#000000;stroke-width:3.99999976;stroke-linejoin:round;stroke-miterlimit:4;stroke-dasharray:none;stroke-opacity:1" />
    <path
       d="M 87.924524,63.999987 L 58.433027,16.076891 L 39.999998,16.076506 L 39.999998,111.92193 L 58.433027,111.92308 L 87.924524,63.999987 z"
       id="path1952"
       style="opacity:0.25;fill:none;stroke:#000000;stroke-width:1.99999988;stroke-linejoin:round;stroke-miterlimit:4;stroke-dasharray:none;stroke-opacity:1" />
    <path
       d="M 88,63.999984 L 58.462058,15.999968 L 40,15.999583 L 40,111.99885 L 58.462058,112 L 88,63.999984 z"
       id="polygon231"
       style="fill:url(#linearGradient1950)" />
    <path
       d="M 52.34247,118.47076 L 52.069466,119.47175 C 52.069466,119.47475 51.999465,119.99875 51.999465,119.99875 L 55.999533,119.99875 L 88.967093,63.995197 L 55.999533,7.9996454 L 51.999465,7.9996454 L 52.069466,8.5256412 L 52.34647,9.5416331 L 52.553474,10.030629 C 52.553474,10.030629 83.739004,62.999205 84.326014,63.995197 C 83.739004,64.991189 52.552474,117.97177 52.552474,117.97177 L 52.34247,118.47076 z"
       id="path233"
       style="opacity:0.1;fill:#00224d" />
    <path
       d="M 53.309487,118.72776 L 53.034482,119.73475 C 53.011482,119.82175 52.999482,119.90975 52.999482,119.99875 L 55.999533,119.99875 L 88.967093,63.995197 L 55.999533,7.9996454 L 52.999482,7.9996454 C 52.999482,8.0876447 53.011482,8.176644 53.034482,8.2626433 L 53.311487,9.2786352 C 53.334487,9.3646345 53.369488,9.4466339 53.414489,9.5226332 C 53.414489,9.5226332 84.899024,62.999205 85.486034,63.995197 C 84.899024,64.992189 53.413489,118.47776 53.413489,118.47776 C 53.368488,118.55476 53.332487,118.64276 53.309487,118.72776 z"
       id="path235"
       style="opacity:0.15;fill:#00224d" />
    <path
       d="M 54.999516,119.99875 L 55.999533,119.99875 L 88.967093,63.995197 L 55.999533,7.9996454 L 54.999516,7.9996454 C 54.999516,8.174644 59.907998,19.844001 60,20 C 60,20 87.220063,62.999205 87.806073,63.995197 C 87.219063,64.992189 55.137518,119.49175 55.137518,119.49175 C 55.044516,119.64775 54.999516,119.82275 54.999516,119.99875 z"
       id="path239"
       style="opacity:0.25;fill:#00224d" />
    <path
       d="M 53.999499,119.99875 L 55.999533,119.99875 L 88.967093,63.995197 L 55.999533,7.9996454 L 53.999499,7.9996454 L 54.276503,9.0156373 C 54.276503,9.0156373 86.059044,62.998205 86.646054,63.995197 C 86.059044,64.992189 54.275503,118.98476 54.275503,118.98476 C 54.275503,118.98576 53.999499,119.99875 53.999499,119.99875 z"
       id="path237"
       style="opacity:0.2;fill:#00224d" />
    <g
       transform="matrix(0.9181472,0,0,1,7.6015241,4)"
       id="g6306">
      <path
         d="M 47.976,25.158 C 47.901,25.383 47.812,25.547 47.709,25.65 C 47.606,25.753 47.347,25.841 46.931,25.919 C 46.515,25.995 46.077,26.033 45.614,26.033 C 44.886,26.033 44.523,25.785 44.523,25.288 C 44.523,25.148 44.562,24.886 44.639,24.498 L 45.308,21.142 C 45.347,20.948 45.367,20.809 45.367,20.725 C 45.367,20.647 45.339,20.576 45.282,20.509 C 45.588,20.395 45.8,20.338 45.919,20.338 C 46.062,20.338 46.133,20.419 46.133,20.581 C 46.133,20.622 46.095,20.822 46.02,21.183 L 45.42,24.183 C 45.333,24.614 45.289,24.914 45.289,25.082 C 45.289,25.367 45.604,25.51 46.236,25.51 C 46.799,25.51 47.379,25.393 47.976,25.158 z"
         id="path9570"
         style="opacity:0.5;fill:#000000;fill-opacity:1" />
      <path
         d="M 52.269,23.393 C 52.275,23.448 52.279,23.497 52.279,23.539 C 52.279,24.197 52.055,24.77 51.609,25.26 C 51.163,25.75 50.64,25.994 50.041,25.994 C 49.584,25.994 49.211,25.848 48.922,25.556 C 48.635,25.264 48.49,24.884 48.49,24.418 C 48.49,23.887 48.677,23.428 49.05,23.039 C 49.422,22.649 49.862,22.455 50.368,22.455 C 50.445,22.455 50.528,22.465 50.614,22.485 C 50.557,22.382 50.529,22.295 50.529,22.224 C 50.529,22.114 50.566,22.008 50.641,21.908 C 51.197,21.954 51.658,22.239 52.027,22.763 C 52.406,23.021 52.8,23.15 53.211,23.15 C 53.479,23.15 53.767,23.06 54.077,22.879 L 54.248,23.17 C 53.885,23.422 53.513,23.548 53.132,23.548 C 52.879,23.549 52.591,23.496 52.269,23.393 z M 51.495,23.103 C 51.307,23.045 51.132,22.955 50.973,22.829 C 50.858,22.806 50.761,22.793 50.684,22.792 C 50.298,22.793 49.955,22.967 49.658,23.314 C 49.361,23.661 49.211,24.058 49.21,24.503 C 49.211,24.826 49.302,25.092 49.481,25.299 C 49.66,25.506 49.893,25.611 50.177,25.611 C 50.561,25.61 50.891,25.416 51.168,25.029 C 51.444,24.642 51.583,24.18 51.584,23.644 C 51.583,23.458 51.554,23.277 51.495,23.103 z"
         id="path9577"
         style="opacity:0.5;fill:#000000;fill-opacity:1" />
      <path
         d="M 54.133,25.885 C 53.978,25.957 53.853,25.994 53.76,25.994 C 53.527,25.994 53.41,25.891 53.41,25.686 C 53.41,25.581 53.451,25.32 53.533,24.902 L 53.705,24.05 C 53.81,23.544 53.863,23.169 53.863,22.925 C 53.863,22.792 53.825,22.682 53.75,22.593 C 53.992,22.511 54.188,22.47 54.34,22.47 C 54.502,22.47 54.582,22.572 54.582,22.775 C 54.582,22.9 54.523,23.23 54.408,23.763 L 54.209,24.758 C 54.64,23.921 55.073,23.271 55.51,22.807 C 55.947,22.343 56.343,22.111 56.698,22.111 C 56.824,22.111 56.931,22.147 57.023,22.218 C 57.114,22.29 57.16,22.377 57.16,22.48 C 57.16,22.639 56.987,22.851 56.641,23.116 C 56.554,22.935 56.431,22.845 56.272,22.845 C 55.982,22.845 55.612,23.154 55.163,23.769 C 54.885,24.152 54.642,24.548 54.437,24.955 C 54.231,25.363 54.128,25.653 54.128,25.826 L 54.133,25.885 z"
         id="path9584"
         style="opacity:0.5;fill:#000000;fill-opacity:1" />
      <path
         d="M 57.783,24.484 C 57.783,25.152 58.065,25.486 58.631,25.486 C 59.12,25.486 59.659,25.253 60.249,24.785 C 60.839,24.318 61.371,23.703 61.845,22.939 L 62.135,23.099 C 61.689,23.935 61.108,24.625 60.394,25.173 C 59.68,25.72 59.003,25.993 58.363,25.993 C 57.953,25.993 57.629,25.86 57.391,25.597 C 57.153,25.332 57.034,24.97 57.034,24.512 C 57.034,23.851 57.25,23.285 57.681,22.816 C 58.114,22.345 58.633,22.111 59.243,22.111 C 59.537,22.111 59.772,22.185 59.949,22.334 C 60.126,22.483 60.214,22.68 60.214,22.929 C 60.214,23.337 59.969,23.699 59.478,24.013 C 58.985,24.328 58.421,24.484 57.783,24.484 z M 57.81,24.156 C 58.287,24.132 58.696,23.995 59.037,23.746 C 59.378,23.498 59.549,23.211 59.549,22.885 C 59.549,22.594 59.419,22.447 59.158,22.447 C 58.848,22.447 58.562,22.613 58.3,22.946 C 58.038,23.279 57.874,23.683 57.81,24.156 z"
         id="path9591"
         style="opacity:0.5;fill:#000000;fill-opacity:1" />
      <path
         d="M 64.5,22.125 C 63.869,22.125 63.1355,22.98975 62.3125,24.71875 L 62.40625,23.71875 C 62.46025,23.17775 62.499999,22.865249 62.5,22.78125 C 62.5,22.54525 62.387498,22.437499 62.1875,22.4375 C 62.0775,22.4375 61.889,22.49775 61.625,22.59375 C 61.735,22.72075 61.812499,22.9155 61.8125,23.1875 C 61.8125,23.4045 61.776,23.620001 61.75,23.875 L 61.6875,24.625 C 61.6195,25.256 61.59375,25.562751 61.59375,25.59375 C 61.59375,25.84975 61.700501,25.999999 61.9375,26 C 62.0425,26 62.155251,25.96225 62.28125,25.90625 C 62.24525,25.86025 62.218752,25.829251 62.21875,25.78125 C 62.21875,25.61325 62.460501,25.09275 62.9375,24.21875 C 63.4165,23.33675 63.785253,22.875001 64.03125,22.875 C 64.14325,22.875 64.187504,22.973 64.1875,23.125 C 64.1875,23.23 64.13725,23.541501 64.03125,24.0625 L 63.90625,24.78125 C 63.88125,24.90925 63.8375,25.014 63.8125,25.125 C 63.7425,25.435 63.71875,25.625501 63.71875,25.6875 C 63.71875,25.8895 63.818253,26 64.03125,26 C 64.09825,26 64.153504,25.978751 64.1875,25.96875 C 64.2665,25.94675 64.312754,25.9435 64.34375,25.9375 C 64.33475,25.9035 64.343754,25.889 64.34375,25.875 C 64.34375,25.748 64.642748,25.234751 65.21875,24.34375 C 65.37725,24.099 65.521906,23.870922 65.65625,23.6875 L 65.4375,23.34375 C 65.126527,23.781836 64.823494,24.290919 64.53125,24.90625 L 64.71875,23.875 C 64.84075,23.277 64.90625,22.88875 64.90625,22.71875 C 64.90625,22.619 64.892344,22.512266 64.875,22.4375 C 64.872398,22.426285 64.877991,22.416903 64.875,22.40625 L 64.71875,22.1875 C 64.705582,22.178578 64.702016,22.163219 64.6875,22.15625 C 64.635656,22.131359 64.569,22.125 64.5,22.125 z M 66.375,24.875 C 66.37163,24.924024 66.343751,25.022789 66.34375,25.0625 C 66.34375,25.6775 66.590503,26 67.0625,26 L 66.375,24.875 z"
         id="path9598"
         style="opacity:0.5;fill:#000000;fill-opacity:1" />
      <path
         d="M 47.219,35.907 C 46.864,36.548 46.491,37.056 46.103,37.431 C 45.715,37.806 45.368,37.993 45.063,37.993 C 44.819,37.993 44.625,37.887 44.481,37.673 C 44.338,37.46 44.266,37.175 44.266,36.817 C 44.266,36.096 44.48,35.465 44.909,34.923 C 45.338,34.382 45.836,34.111 46.404,34.111 C 46.743,34.111 47.114,34.219 47.515,34.437 L 47.883,32.596 C 47.682,32.637 47.515,32.658 47.382,32.658 C 47.18,32.658 47.032,32.611 46.939,32.516 C 46.846,32.421 46.77,32.245 46.712,31.986 C 46.877,32.095 47.129,32.15 47.471,32.15 C 47.894,32.15 48.302,32.072 48.696,31.916 L 47.948,35.664 C 47.863,36.083 47.821,36.439 47.821,36.734 C 47.821,37.126 47.932,37.322 48.155,37.322 C 48.374,37.322 48.737,37.066 49.246,36.552 C 49.755,36.04 50.179,35.503 50.517,34.943 L 50.797,35.121 C 50.392,35.864 49.885,36.529 49.277,37.115 C 48.669,37.701 48.185,37.994 47.823,37.994 C 47.363,37.994 47.133,37.625 47.133,36.886 C 47.133,36.58 47.161,36.254 47.219,35.907 z M 47.4,35.002 C 46.925,34.69 46.531,34.533 46.216,34.533 C 45.873,34.533 45.577,34.742 45.327,35.162 C 45.077,35.581 44.952,36.076 44.952,36.648 C 44.952,37.107 45.102,37.337 45.404,37.337 C 45.727,37.337 46.35,36.622 47.273,35.192 C 47.29,35.168 47.332,35.104 47.4,35.002 z"
         id="path9640"
         style="opacity:0.5;fill:#000000;fill-opacity:1" />
      <path
         d="M 53.51,35.393 C 53.516,35.448 53.52,35.497 53.52,35.539 C 53.52,36.197 53.296,36.77 52.85,37.26 C 52.404,37.75 51.881,37.994 51.282,37.994 C 50.825,37.994 50.452,37.848 50.163,37.556 C 49.876,37.264 49.731,36.884 49.731,36.418 C 49.731,35.887 49.918,35.428 50.291,35.039 C 50.663,34.649 51.103,34.455 51.609,34.455 C 51.686,34.455 51.769,34.465 51.855,34.485 C 51.798,34.382 51.77,34.295 51.77,34.224 C 51.77,34.114 51.807,34.008 51.882,33.908 C 52.438,33.954 52.899,34.239 53.268,34.763 C 53.647,35.021 54.041,35.15 54.452,35.15 C 54.72,35.15 55.008,35.06 55.318,34.879 L 55.489,35.17 C 55.126,35.422 54.754,35.548 54.373,35.548 C 54.119,35.549 53.831,35.496 53.51,35.393 z M 52.735,35.103 C 52.547,35.045 52.372,34.955 52.213,34.829 C 52.098,34.806 52.001,34.793 51.924,34.792 C 51.538,34.793 51.195,34.967 50.898,35.314 C 50.601,35.661 50.451,36.058 50.45,36.503 C 50.451,36.826 50.542,37.092 50.721,37.299 C 50.9,37.506 51.133,37.611 51.417,37.611 C 51.801,37.61 52.131,37.416 52.408,37.029 C 52.684,36.642 52.823,36.18 52.824,35.644 C 52.823,35.458 52.794,35.277 52.735,35.103 z"
         id="path9647"
         style="opacity:0.5;fill:#000000;fill-opacity:1" />
      <path
         d="M 58.33,35.127 C 57.858,36.022 57.385,36.723 56.908,37.231 C 56.431,37.739 56.011,37.994 55.643,37.994 C 55.376,37.994 55.162,37.89 54.997,37.685 C 54.833,37.478 54.751,37.208 54.751,36.876 C 54.751,36.689 54.785,36.425 54.854,36.083 L 55.533,32.66 C 55.444,32.674 55.367,32.681 55.302,32.681 C 54.78,32.681 54.518,32.46 54.518,32.018 L 54.518,31.939 C 54.791,32.095 55.1,32.173 55.444,32.173 C 55.788,32.173 56.089,32.087 56.346,31.915 L 55.553,36.034 C 55.483,36.403 55.448,36.658 55.448,36.798 C 55.448,37.183 55.589,37.376 55.872,37.376 C 56.145,37.376 56.42,37.222 56.696,36.913 C 56.973,36.603 57.426,35.945 58.057,34.937 L 58.33,35.127 z"
         id="path9654"
         style="opacity:0.5;fill:#000000;fill-opacity:1" />
      <path
         d="M 61.047,35.393 C 61.053,35.448 61.057,35.497 61.057,35.539 C 61.057,36.197 60.833,36.77 60.387,37.26 C 59.941,37.75 59.418,37.994 58.819,37.994 C 58.362,37.994 57.989,37.848 57.7,37.556 C 57.413,37.264 57.268,36.884 57.268,36.418 C 57.268,35.887 57.455,35.428 57.828,35.039 C 58.2,34.649 58.64,34.455 59.146,34.455 C 59.223,34.455 59.306,34.465 59.392,34.485 C 59.335,34.382 59.307,34.295 59.307,34.224 C 59.307,34.114 59.344,34.008 59.419,33.908 C 59.975,33.954 60.436,34.239 60.805,34.763 C 61.184,35.021 61.578,35.15 61.989,35.15 C 62.257,35.15 62.545,35.06 62.855,34.879 L 63.026,35.17 C 62.663,35.422 62.291,35.548 61.91,35.548 C 61.656,35.549 61.368,35.496 61.047,35.393 z M 60.272,35.103 C 60.084,35.045 59.909,34.955 59.75,34.829 C 59.635,34.806 59.538,34.793 59.461,34.792 C 59.075,34.793 58.732,34.967 58.435,35.314 C 58.138,35.661 57.988,36.058 57.987,36.503 C 57.988,36.826 58.079,37.092 58.258,37.299 C 58.437,37.506 58.67,37.611 58.954,37.611 C 59.338,37.61 59.668,37.416 59.945,37.029 C 60.221,36.642 60.36,36.18 60.361,35.644 C 60.36,35.458 60.331,35.277 60.272,35.103 z"
         id="path9661"
         style="opacity:0.5;fill:#000000;fill-opacity:1" />
      <path
         d="M 62.91,37.885 C 62.755,37.957 62.63,37.994 62.537,37.994 C 62.304,37.994 62.187,37.891 62.187,37.686 C 62.187,37.581 62.228,37.32 62.31,36.902 L 62.482,36.05 C 62.587,35.544 62.64,35.169 62.64,34.925 C 62.64,34.792 62.602,34.682 62.527,34.593 C 62.769,34.511 62.965,34.47 63.117,34.47 C 63.279,34.47 63.359,34.572 63.359,34.775 C 63.359,34.9 63.3,35.23 63.185,35.763 L 62.986,36.758 C 63.417,35.921 63.85,35.271 64.287,34.807 C 64.724,34.343 65.12,34.111 65.475,34.111 C 65.601,34.111 65.708,34.147 65.8,34.218 C 65.891,34.29 65.937,34.377 65.937,34.48 C 65.937,34.639 65.764,34.851 65.418,35.116 C 65.331,34.935 65.208,34.845 65.049,34.845 C 64.759,34.845 64.389,35.154 63.94,35.769 C 63.662,36.152 63.419,36.548 63.214,36.955 C 63.008,37.363 62.905,37.653 62.905,37.826 L 62.91,37.885 z"
         id="path9668"
         style="opacity:0.5;fill:#000000;fill-opacity:1" />
      <path
         d="M 70.259,36.707 C 70.336,36.881 70.375,37.046 70.375,37.203 C 70.375,37.552 70.229,37.855 69.938,38.114 C 69.647,38.373 69.305,38.502 68.915,38.502 C 68.686,38.502 68.489,38.442 68.328,38.324 C 68.167,38.205 68.086,38.063 68.086,37.896 C 68.086,37.718 68.196,37.539 68.418,37.357 C 68.64,37.174 69.011,36.959 69.53,36.707 L 69.257,36.266 C 68.924,35.731 68.758,35.312 68.758,35.01 C 68.758,34.576 69.01,34.228 69.514,33.963 C 69.824,34.082 69.979,34.231 69.979,34.411 C 69.979,34.667 69.783,34.912 69.391,35.146 L 69.779,35.865 L 70.082,36.42 C 70.518,36.16 70.847,35.938 71.067,35.751 C 71.289,35.565 71.569,35.278 71.907,34.891 L 72.18,35.059 C 71.688,35.715 71.049,36.266 70.259,36.707 z M 69.678,37.016 C 69.012,37.376 68.68,37.657 68.68,37.854 C 68.68,38.042 68.815,38.135 69.084,38.135 C 69.284,38.135 69.446,38.067 69.57,37.932 C 69.695,37.795 69.758,37.62 69.758,37.407 C 69.758,37.278 69.73,37.148 69.678,37.016 z"
         id="path9675"
         style="opacity:0.5;fill:#000000;fill-opacity:1" />
      <path
         d="M 72.1875,34.65625 C 72.1115,34.65625 71.953253,34.681999 71.65625,34.75 C 71.73425,34.832 71.749998,34.963748 71.75,35.09375 C 71.75,35.31275 71.704748,35.67575 71.59375,36.21875 L 71.53125,36.59375 C 71.48525,36.81675 71.437503,36.990749 71.4375,37.09375 C 71.4375,37.36475 71.531501,37.584001 71.6875,37.75 C 71.8425,37.917 72.057496,38.000001 72.3125,38 C 72.7315,38 73.192747,37.72875 73.71875,37.21875 C 73.772391,37.166843 73.821483,37.087272 73.875,37.03125 L 73.6875,36.71875 C 73.668401,36.738555 73.644148,36.76186 73.625,36.78125 C 73.151,37.26125 72.753753,37.5 72.46875,37.5 C 72.22975,37.5 72.124997,37.3455 72.125,37.0625 C 72.125,36.9665 72.151749,36.7575 72.21875,36.4375 L 72.34375,35.78125 C 72.41175,35.45325 72.468749,35.175001 72.46875,35 C 72.46875,34.763 72.356497,34.65625 72.1875,34.65625 z"
         id="path9682"
         style="opacity:0.5;fill:#000000;fill-opacity:1" />
      <path
         d="M 49.273,47.117 C 48.721,48.043 48.137,48.772 47.519,49.305 C 46.902,49.838 46.329,50.104 45.8,50.104 C 45.36,50.104 45.003,49.954 44.73,49.652 C 44.457,49.351 44.32,48.96 44.32,48.477 C 44.32,47.843 44.555,47.29 45.027,46.819 C 45.499,46.348 46.052,46.112 46.688,46.112 C 46.946,46.112 47.157,46.162 47.322,46.261 C 47.487,46.36 47.57,46.487 47.57,46.64 C 47.57,46.892 47.358,47.08 46.934,47.206 C 46.956,47.151 46.968,47.099 46.968,47.049 C 46.968,46.679 46.772,46.494 46.378,46.494 C 46.038,46.494 45.724,46.683 45.437,47.064 C 45.151,47.443 45.007,47.859 45.007,48.31 C 45.007,48.678 45.103,48.978 45.292,49.208 C 45.483,49.44 45.73,49.556 46.036,49.556 C 46.876,49.556 47.858,48.686 48.985,46.945 L 49.273,47.117 z"
         id="path9731"
         style="opacity:0.5;fill:#000000;fill-opacity:1" />
      <path
         d="M 51.988,47.393 C 51.996,47.448 51.999,47.497 51.999,47.539 C 51.999,48.197 51.775,48.77 51.329,49.26 C 50.883,49.75 50.36,49.994 49.761,49.994 C 49.303,49.994 48.93,49.848 48.643,49.556 C 48.354,49.264 48.21,48.884 48.21,48.418 C 48.21,47.887 48.397,47.428 48.77,47.039 C 49.143,46.649 49.582,46.455 50.088,46.455 C 50.166,46.455 50.248,46.465 50.334,46.485 C 50.277,46.382 50.249,46.295 50.249,46.224 C 50.249,46.114 50.286,46.008 50.361,45.908 C 50.917,45.954 51.378,46.239 51.747,46.763 C 52.125,47.021 52.52,47.15 52.931,47.15 C 53.198,47.15 53.487,47.06 53.797,46.879 L 53.968,47.17 C 53.605,47.422 53.233,47.548 52.852,47.548 C 52.598,47.549 52.31,47.496 51.988,47.393 z M 51.215,47.103 C 51.027,47.045 50.852,46.955 50.693,46.829 C 50.578,46.806 50.481,46.793 50.404,46.792 C 50.018,46.793 49.675,46.967 49.378,47.314 C 49.081,47.661 48.931,48.058 48.93,48.503 C 48.931,48.826 49.021,49.092 49.201,49.299 C 49.381,49.506 49.613,49.611 49.897,49.611 C 50.281,49.61 50.611,49.416 50.888,49.029 C 51.164,48.642 51.303,48.18 51.304,47.644 C 51.303,47.458 51.273,47.277 51.215,47.103 z"
         id="path9738"
         style="opacity:0.5;fill:#000000;fill-opacity:1" />
      <path
         d="M 54.152,48.676 C 54.964,46.967 55.693,46.112 56.34,46.112 C 56.845,46.112 57.098,46.612 57.098,47.613 L 57.105,48.026 C 57.105,48.504 57.129,48.834 57.178,49.017 C 57.227,49.2 57.317,49.291 57.447,49.291 C 57.643,49.291 57.866,49.136 58.116,48.825 C 58.365,48.515 58.771,47.89 59.335,46.953 L 59.622,47.119 C 59.12,48.064 58.671,48.765 58.273,49.223 C 57.877,49.68 57.52,49.909 57.206,49.909 C 56.916,49.909 56.713,49.769 56.595,49.489 C 56.478,49.21 56.419,48.725 56.419,48.036 L 56.419,47.743 C 56.419,47.37 56.395,47.107 56.347,46.956 C 56.299,46.806 56.215,46.729 56.096,46.729 C 55.794,46.729 55.307,47.329 54.636,48.527 C 54.471,48.821 54.365,49.009 54.317,49.093 C 54.14,49.398 54.052,49.618 54.052,49.755 C 54.052,49.81 54.068,49.861 54.097,49.912 C 53.966,49.967 53.855,49.994 53.763,49.994 C 53.534,49.994 53.419,49.867 53.419,49.611 C 53.419,49.539 53.449,49.211 53.509,48.628 L 53.586,47.887 C 53.62,47.573 53.638,47.328 53.638,47.156 C 53.638,46.915 53.582,46.724 53.471,46.586 C 53.519,46.569 53.599,46.542 53.711,46.502 C 53.853,46.45 53.966,46.425 54.05,46.425 C 54.229,46.425 54.318,46.555 54.318,46.814 C 54.318,46.951 54.3,47.185 54.265,47.517 C 54.258,47.589 54.251,47.66 54.244,47.725 L 54.152,48.676 z"
         id="path9745"
         style="opacity:0.5;fill:#000000;fill-opacity:1" />
      <path
         d="M 60.698,48.707 C 60.775,48.881 60.814,49.046 60.814,49.203 C 60.814,49.552 60.668,49.855 60.377,50.114 C 60.086,50.373 59.744,50.502 59.354,50.502 C 59.125,50.502 58.928,50.442 58.767,50.324 C 58.606,50.205 58.525,50.063 58.525,49.896 C 58.525,49.718 58.635,49.539 58.857,49.357 C 59.079,49.174 59.45,48.959 59.969,48.707 L 59.696,48.266 C 59.363,47.731 59.197,47.312 59.197,47.01 C 59.197,46.576 59.449,46.228 59.953,45.963 C 60.263,46.082 60.418,46.231 60.418,46.411 C 60.418,46.667 60.222,46.912 59.83,47.146 L 60.218,47.865 L 60.521,48.42 C 60.957,48.16 61.286,47.938 61.506,47.751 C 61.728,47.565 62.008,47.278 62.346,46.891 L 62.619,47.059 C 62.128,47.715 61.488,48.266 60.698,48.707 z M 60.117,49.016 C 59.451,49.376 59.119,49.657 59.119,49.854 C 59.119,50.042 59.254,50.135 59.523,50.135 C 59.723,50.135 59.885,50.067 60.009,49.932 C 60.134,49.795 60.197,49.62 60.197,49.407 C 60.197,49.278 60.17,49.148 60.117,49.016 z"
         id="path9752"
         style="opacity:0.5;fill:#000000;fill-opacity:1" />
      <path
         d="M 62.366,48.484 C 62.366,49.152 62.648,49.486 63.213,49.486 C 63.703,49.486 64.242,49.253 64.832,48.785 C 65.422,48.318 65.954,47.703 66.428,46.939 L 66.718,47.099 C 66.272,47.935 65.692,48.625 64.977,49.173 C 64.263,49.72 63.586,49.993 62.946,49.993 C 62.536,49.993 62.212,49.86 61.974,49.597 C 61.736,49.332 61.617,48.97 61.617,48.512 C 61.617,47.851 61.833,47.285 62.264,46.816 C 62.697,46.345 63.217,46.111 63.826,46.111 C 64.12,46.111 64.355,46.185 64.532,46.334 C 64.708,46.482 64.797,46.68 64.797,46.929 C 64.797,47.337 64.552,47.699 64.061,48.013 C 63.568,48.328 63.004,48.484 62.366,48.484 z M 62.393,48.156 C 62.87,48.132 63.279,47.995 63.62,47.746 C 63.961,47.498 64.132,47.211 64.132,46.885 C 64.132,46.594 64.002,46.447 63.742,46.447 C 63.431,46.447 63.145,46.613 62.883,46.946 C 62.621,47.279 62.457,47.683 62.393,48.156 z"
         id="path9759"
         style="opacity:0.5;fill:#000000;fill-opacity:1" />
      <path
         d="M 70.711,47.117 C 70.159,48.043 69.575,48.772 68.957,49.305 C 68.34,49.838 67.767,50.104 67.238,50.104 C 66.798,50.104 66.441,49.954 66.168,49.652 C 65.895,49.351 65.758,48.96 65.758,48.477 C 65.758,47.843 65.993,47.29 66.465,46.819 C 66.937,46.348 67.49,46.112 68.126,46.112 C 68.384,46.112 68.595,46.162 68.76,46.261 C 68.925,46.36 69.008,46.487 69.008,46.64 C 69.008,46.892 68.796,47.08 68.372,47.206 C 68.394,47.151 68.406,47.099 68.406,47.049 C 68.406,46.679 68.21,46.494 67.816,46.494 C 67.476,46.494 67.162,46.683 66.875,47.064 C 66.589,47.443 66.445,47.859 66.445,48.31 C 66.445,48.678 66.541,48.978 66.73,49.208 C 66.921,49.44 67.168,49.556 67.474,49.556 C 68.314,49.556 69.296,48.686 70.423,46.945 L 70.711,47.117 z"
         id="path9766"
         style="opacity:0.5;fill:#000000;fill-opacity:1" />
      <path
         d="M 72.349,48.562 C 72.411,48.673 72.441,48.771 72.441,48.854 C 72.441,49.077 72.253,49.323 71.876,49.591 C 71.499,49.859 71.156,49.994 70.847,49.994 C 70.574,49.994 70.351,49.872 70.179,49.629 C 70.007,49.385 69.921,49.07 69.921,48.686 C 69.921,48.258 70.032,47.649 70.255,46.858 L 70.41,46.284 L 69.837,46.284 C 69.598,46.284 69.407,46.318 69.265,46.387 C 69.396,46.149 69.504,45.999 69.59,45.939 C 69.676,45.877 69.821,45.847 70.027,45.847 L 70.539,45.847 L 70.608,45.609 C 70.713,45.255 70.839,45.013 70.986,44.881 C 71.133,44.749 71.353,44.683 71.647,44.683 C 71.681,44.683 71.737,44.685 71.812,44.69 C 71.634,44.919 71.449,45.305 71.257,45.847 L 73.063,45.847 C 73.38,45.847 73.622,45.806 73.789,45.723 C 73.731,45.955 73.656,46.107 73.561,46.178 C 73.466,46.249 73.29,46.284 73.032,46.284 L 71.109,46.284 C 71.087,46.359 71.069,46.415 71.057,46.452 C 70.779,47.393 70.64,48.103 70.64,48.583 C 70.64,49.113 70.83,49.378 71.212,49.378 C 71.408,49.378 71.622,49.294 71.855,49.128 C 72.086,48.96 72.251,48.771 72.349,48.562 z"
         id="path9773"
         style="opacity:0.5;fill:#000000;fill-opacity:1" />
      <path
         d="M 73.536,48.484 C 73.536,49.152 73.818,49.486 74.383,49.486 C 74.873,49.486 75.412,49.253 76.002,48.785 C 76.592,48.318 77.124,47.703 77.598,46.939 L 77.888,47.099 C 77.442,47.935 76.862,48.625 76.147,49.173 C 75.433,49.72 74.756,49.993 74.116,49.993 C 73.706,49.993 73.382,49.86 73.144,49.597 C 72.906,49.332 72.787,48.97 72.787,48.512 C 72.787,47.851 73.003,47.285 73.434,46.816 C 73.867,46.345 74.387,46.111 74.996,46.111 C 75.29,46.111 75.525,46.185 75.702,46.334 C 75.878,46.482 75.967,46.68 75.967,46.929 C 75.967,47.337 75.722,47.699 75.231,48.013 C 74.738,48.328 74.174,48.484 73.536,48.484 z M 73.563,48.156 C 74.04,48.132 74.449,47.995 74.79,47.746 C 75.131,47.498 75.302,47.211 75.302,46.885 C 75.302,46.594 75.172,46.447 74.912,46.447 C 74.601,46.447 74.315,46.613 74.053,46.946 C 73.791,47.279 73.627,47.683 73.563,48.156 z"
         id="path9780"
         style="opacity:0.5;fill:#000000;fill-opacity:1" />
      <path
         d="M 78.4375,44.71875 C 78.327375,44.75175 78.229751,44.809 78.15625,44.875 C 78.00925,45.007 77.88625,45.239749 77.78125,45.59375 L 77.71875,45.84375 L 77.1875,45.84375 C 76.9815,45.84375 76.835998,45.875501 76.75,45.9375 C 76.664,45.9975 76.568503,46.136999 76.4375,46.375 C 76.5795,46.306 76.760997,46.28125 77,46.28125 L 77.59375,46.28125 L 77.4375,46.84375 C 77.2145,47.63475 77.093747,48.259499 77.09375,48.6875 C 77.09375,49.0715 77.171752,49.380998 77.34375,49.625 C 77.51575,49.868 77.758252,50.000001 78.03125,50 C 78.34025,50 78.685503,49.86175 79.0625,49.59375 C 79.4395,49.32575 79.625,49.06675 79.625,48.84375 C 79.625,48.76075 79.593253,48.6735 79.53125,48.5625 C 79.43325,48.7715 79.262249,48.957002 79.03125,49.125 C 78.79825,49.291 78.570997,49.375002 78.375,49.375 C 77.993,49.375 77.812503,49.12375 77.8125,48.59375 C 77.8125,48.11375 77.940753,47.3785 78.21875,46.4375 C 78.23075,46.4005 78.259251,46.35625 78.28125,46.28125 L 79.5625,46.28125 L 79.28125,45.84375 L 78.4375,45.84375 C 78.558746,45.501484 78.665587,45.248846 78.78125,45.03125 L 78.59375,44.71875 C 78.54188,44.726755 78.483069,44.705095 78.4375,44.71875 z"
         id="path9787"
         style="opacity:0.5;fill:#000000;fill-opacity:1" />
      <path
         d="M 80.40625,47.65625 C 80.268315,48.272468 80.187498,48.759791 80.1875,49.03125 C 80.1875,49.31325 80.251253,49.54375 80.40625,49.71875 C 80.56125,49.89475 80.751,50.000001 81,50 C 81.196077,50 81.428046,49.883292 81.65625,49.71875 L 81.4375,49.3125 C 81.364934,49.341117 81.285163,49.375 81.21875,49.375 C 80.98575,49.375 80.874999,49.212002 80.875,48.875 C 80.875,48.7655 80.881,48.627375 80.90625,48.46875 L 80.40625,47.65625 z"
         id="path9794"
         style="opacity:0.5;fill:#000000;fill-opacity:1" />
      <path
         d="M 47.263,59.82 C 46.971,60.424 46.611,60.937 46.182,61.36 C 45.754,61.783 45.381,61.994 45.064,61.994 C 44.822,61.994 44.628,61.887 44.484,61.671 C 44.338,61.455 44.266,61.168 44.266,60.811 C 44.266,60.097 44.482,59.469 44.914,58.926 C 45.346,58.383 45.848,58.112 46.416,58.112 C 46.761,58.112 47.134,58.219 47.535,58.434 C 47.595,58.221 47.836,58.116 48.259,58.116 C 48.286,58.116 48.33,58.117 48.392,58.119 C 48.262,58.317 48.163,58.589 48.095,58.934 L 48.036,59.225 C 47.971,59.549 47.937,59.928 47.937,60.362 C 47.937,60.862 48.053,61.112 48.286,61.112 C 48.531,61.112 48.868,60.906 49.295,60.494 C 49.723,60.083 50.142,59.557 50.554,58.921 L 50.821,59.107 C 50.4,59.86 49.919,60.488 49.377,60.991 C 48.835,61.494 48.37,61.746 47.981,61.746 C 47.49,61.746 47.244,61.336 47.244,60.514 C 47.242,60.341 47.249,60.11 47.263,59.82 z M 47.423,59.002 C 46.943,58.69 46.544,58.533 46.226,58.533 C 45.881,58.533 45.582,58.742 45.33,59.16 C 45.079,59.578 44.953,60.074 44.953,60.648 C 44.953,61.107 45.103,61.337 45.406,61.337 C 45.732,61.337 46.358,60.622 47.282,59.192 C 47.294,59.176 47.341,59.111 47.423,59.002 z"
         id="path9815"
         style="opacity:0.5;fill:#000000;fill-opacity:1" />
      <path
         d="M 52.76,59.907 C 52.405,60.548 52.032,61.056 51.644,61.431 C 51.256,61.806 50.909,61.993 50.604,61.993 C 50.36,61.993 50.166,61.887 50.022,61.673 C 49.879,61.46 49.807,61.175 49.807,60.817 C 49.807,60.096 50.021,59.465 50.45,58.923 C 50.879,58.382 51.377,58.111 51.945,58.111 C 52.284,58.111 52.655,58.219 53.056,58.437 L 53.424,56.596 C 53.223,56.637 53.056,56.658 52.923,56.658 C 52.721,56.658 52.573,56.611 52.48,56.516 C 52.387,56.421 52.311,56.245 52.253,55.986 C 52.418,56.095 52.67,56.15 53.012,56.15 C 53.435,56.15 53.843,56.072 54.237,55.916 L 53.489,59.664 C 53.404,60.083 53.362,60.439 53.362,60.734 C 53.362,61.126 53.473,61.322 53.696,61.322 C 53.915,61.322 54.278,61.066 54.787,60.552 C 55.296,60.04 55.72,59.503 56.058,58.943 L 56.338,59.121 C 55.933,59.864 55.426,60.529 54.818,61.115 C 54.21,61.701 53.726,61.994 53.364,61.994 C 52.904,61.994 52.674,61.625 52.674,60.886 C 52.674,60.58 52.702,60.254 52.76,59.907 z M 52.941,59.002 C 52.466,58.69 52.072,58.533 51.757,58.533 C 51.414,58.533 51.118,58.742 50.868,59.162 C 50.618,59.581 50.493,60.076 50.493,60.648 C 50.493,61.107 50.643,61.337 50.945,61.337 C 51.268,61.337 51.891,60.622 52.814,59.192 C 52.831,59.168 52.873,59.104 52.941,59.002 z"
         id="path9822"
         style="opacity:0.5;fill:#000000;fill-opacity:1" />
      <path
         d="M 59.435,59.111 C 58.92,60.013 58.4,60.72 57.874,61.229 C 57.348,61.739 56.876,61.994 56.457,61.994 C 56.202,61.994 55.996,61.911 55.841,61.744 C 55.685,61.578 55.607,61.359 55.607,61.088 C 55.607,60.985 55.629,60.822 55.675,60.599 L 55.751,60.223 C 55.862,59.68 55.919,59.299 55.919,59.08 C 55.919,58.95 55.88,58.844 55.802,58.762 C 56.099,58.694 56.285,58.66 56.361,58.66 C 56.53,58.66 56.615,58.778 56.615,59.015 C 56.615,59.19 56.582,59.442 56.514,59.77 L 56.379,60.437 C 56.312,60.757 56.278,60.966 56.278,61.062 C 56.278,61.345 56.397,61.486 56.636,61.486 C 56.921,61.486 57.3,61.246 57.774,60.766 C 58.248,60.286 58.707,59.679 59.151,58.943 L 59.435,59.111 z M 56.397,57.389 L 56.445,57.392 C 56.597,57.385 56.816,57.309 57.103,57.162 C 57.388,57.016 57.613,56.866 57.774,56.714 C 57.674,57.028 57.496,57.291 57.241,57.503 C 56.853,57.825 56.591,57.987 56.454,57.987 C 56.363,57.987 56.317,57.931 56.317,57.819 C 56.317,57.659 56.344,57.516 56.397,57.389 z"
         id="path9829"
         style="opacity:0.5;fill:#000000;fill-opacity:1" />
      <path
         d="M 59.142,61.697 L 58.89,62.96 C 58.832,63.244 58.804,63.492 58.804,63.704 C 58.804,63.838 58.834,63.96 58.894,64.068 C 58.665,64.144 58.489,64.181 58.369,64.181 C 58.181,64.181 58.086,64.074 58.086,63.861 C 58.086,63.694 58.124,63.423 58.199,63.045 L 59.203,58.033 C 59.004,58.075 58.837,58.095 58.701,58.095 C 58.502,58.095 58.354,58.047 58.26,57.951 C 58.165,57.856 58.089,57.679 58.031,57.418 C 58.198,57.53 58.452,57.587 58.793,57.587 C 59.217,57.587 59.624,57.509 60.016,57.353 L 59.75,58.671 C 60.137,58.298 60.537,58.11 60.952,58.11 C 61.313,58.11 61.615,58.248 61.856,58.522 C 62.097,58.797 62.218,59.139 62.218,59.549 C 62.218,60.191 61.995,60.743 61.551,61.209 C 61.106,61.674 60.578,61.906 59.967,61.906 C 59.637,61.908 59.361,61.838 59.142,61.697 z M 59.25,61.168 C 59.48,61.438 59.764,61.572 60.099,61.572 C 60.5,61.572 60.842,61.403 61.124,61.065 C 61.406,60.727 61.547,60.316 61.547,59.833 C 61.547,59.483 61.467,59.2 61.308,58.983 C 61.149,58.766 60.941,58.658 60.686,58.658 C 60.367,58.658 60.021,58.839 59.647,59.199 L 59.25,61.168 z"
         id="path9836"
         style="opacity:0.5;fill:#000000;fill-opacity:1" />
      <path
         d="M 66.818,59.111 C 66.303,60.013 65.783,60.72 65.257,61.229 C 64.731,61.739 64.259,61.994 63.84,61.994 C 63.585,61.994 63.379,61.911 63.224,61.744 C 63.068,61.578 62.99,61.359 62.99,61.088 C 62.99,60.985 63.012,60.822 63.058,60.599 L 63.134,60.223 C 63.245,59.68 63.302,59.299 63.302,59.08 C 63.302,58.95 63.263,58.844 63.185,58.762 C 63.482,58.694 63.668,58.66 63.744,58.66 C 63.913,58.66 63.998,58.778 63.998,59.015 C 63.998,59.19 63.965,59.442 63.897,59.77 L 63.762,60.437 C 63.695,60.757 63.661,60.966 63.661,61.062 C 63.661,61.345 63.78,61.486 64.019,61.486 C 64.304,61.486 64.683,61.246 65.157,60.766 C 65.631,60.286 66.09,59.679 66.534,58.943 L 66.818,59.111 z M 63.78,57.389 L 63.828,57.392 C 63.98,57.385 64.199,57.309 64.486,57.162 C 64.771,57.016 64.996,56.866 65.157,56.714 C 65.057,57.028 64.879,57.291 64.624,57.503 C 64.236,57.825 63.974,57.987 63.837,57.987 C 63.746,57.987 63.7,57.931 63.7,57.819 C 63.7,57.659 63.726,57.516 63.78,57.389 z"
         id="path9843"
         style="opacity:0.5;fill:#000000;fill-opacity:1" />
      <path
         d="M 67.907,60.707 C 67.984,60.881 68.023,61.046 68.023,61.203 C 68.023,61.552 67.877,61.855 67.586,62.114 C 67.295,62.373 66.953,62.502 66.563,62.502 C 66.334,62.502 66.137,62.442 65.976,62.324 C 65.815,62.205 65.734,62.063 65.734,61.896 C 65.734,61.718 65.844,61.539 66.066,61.357 C 66.288,61.174 66.659,60.959 67.178,60.707 L 66.905,60.266 C 66.572,59.731 66.406,59.312 66.406,59.01 C 66.406,58.576 66.658,58.228 67.162,57.963 C 67.472,58.082 67.627,58.231 67.627,58.411 C 67.627,58.667 67.431,58.912 67.039,59.146 L 67.427,59.865 L 67.73,60.42 C 68.166,60.16 68.495,59.938 68.715,59.751 C 68.937,59.565 69.217,59.278 69.555,58.891 L 69.828,59.059 C 69.337,59.715 68.697,60.266 67.907,60.707 z M 67.326,61.016 C 66.66,61.376 66.328,61.657 66.328,61.854 C 66.328,62.042 66.463,62.135 66.732,62.135 C 66.932,62.135 67.094,62.067 67.218,61.932 C 67.343,61.795 67.406,61.62 67.406,61.407 C 67.406,61.278 67.379,61.148 67.326,61.016 z"
         id="path9850"
         style="opacity:0.5;fill:#000000;fill-opacity:1" />
      <path
         d="M 73.824,59.117 C 73.272,60.043 72.688,60.772 72.07,61.305 C 71.453,61.838 70.88,62.104 70.351,62.104 C 69.911,62.104 69.554,61.954 69.281,61.652 C 69.008,61.351 68.871,60.96 68.871,60.477 C 68.871,59.843 69.106,59.29 69.578,58.819 C 70.05,58.348 70.603,58.112 71.239,58.112 C 71.497,58.112 71.708,58.162 71.873,58.261 C 72.038,58.36 72.121,58.487 72.121,58.64 C 72.121,58.892 71.909,59.08 71.485,59.206 C 71.507,59.151 71.519,59.099 71.519,59.049 C 71.519,58.679 71.323,58.494 70.929,58.494 C 70.589,58.494 70.275,58.683 69.988,59.064 C 69.702,59.443 69.558,59.859 69.558,60.31 C 69.558,60.678 69.654,60.978 69.843,61.208 C 70.034,61.44 70.281,61.556 70.587,61.556 C 71.427,61.556 72.409,60.686 73.536,58.945 L 73.824,59.117 z"
         id="path9857"
         style="opacity:0.5;fill:#000000;fill-opacity:1" />
      <path
         d="M 76.926,59.111 C 76.411,60.013 75.891,60.72 75.365,61.229 C 74.839,61.739 74.367,61.994 73.948,61.994 C 73.693,61.994 73.487,61.911 73.332,61.744 C 73.176,61.578 73.098,61.359 73.098,61.088 C 73.098,60.985 73.12,60.822 73.166,60.599 L 73.242,60.223 C 73.353,59.68 73.41,59.299 73.41,59.08 C 73.41,58.95 73.371,58.844 73.293,58.762 C 73.59,58.694 73.776,58.66 73.852,58.66 C 74.021,58.66 74.106,58.778 74.106,59.015 C 74.106,59.19 74.073,59.442 74.005,59.77 L 73.87,60.437 C 73.803,60.757 73.769,60.966 73.769,61.062 C 73.769,61.345 73.888,61.486 74.127,61.486 C 74.412,61.486 74.791,61.246 75.265,60.766 C 75.739,60.286 76.198,59.679 76.642,58.943 L 76.926,59.111 z M 73.888,57.389 L 73.936,57.392 C 74.088,57.385 74.307,57.309 74.594,57.162 C 74.879,57.016 75.104,56.866 75.265,56.714 C 75.165,57.028 74.987,57.291 74.732,57.503 C 74.344,57.825 74.082,57.987 73.945,57.987 C 73.854,57.987 73.808,57.931 73.808,57.819 C 73.808,57.659 73.834,57.516 73.888,57.389 z"
         id="path9864"
         style="opacity:0.5;fill:#000000;fill-opacity:1" />
      <path
         d="M 77.115,60.676 C 77.927,58.967 78.656,58.112 79.303,58.112 C 79.808,58.112 80.061,58.612 80.061,59.613 L 80.068,60.026 C 80.068,60.504 80.092,60.834 80.141,61.017 C 80.19,61.2 80.28,61.291 80.41,61.291 C 80.606,61.291 80.829,61.136 81.079,60.825 C 81.328,60.515 81.734,59.89 82.298,58.953 L 82.585,59.119 C 82.083,60.064 81.634,60.765 81.236,61.223 C 80.84,61.68 80.483,61.909 80.169,61.909 C 79.879,61.909 79.676,61.769 79.558,61.489 C 79.441,61.21 79.382,60.725 79.382,60.036 L 79.382,59.743 C 79.382,59.37 79.358,59.107 79.31,58.956 C 79.262,58.806 79.178,58.729 79.059,58.729 C 78.757,58.729 78.27,59.329 77.599,60.527 C 77.434,60.821 77.328,61.009 77.28,61.093 C 77.103,61.398 77.015,61.618 77.015,61.755 C 77.015,61.81 77.031,61.861 77.06,61.912 C 76.929,61.967 76.818,61.994 76.726,61.994 C 76.497,61.994 76.382,61.867 76.382,61.611 C 76.382,61.539 76.412,61.211 76.472,60.628 L 76.549,59.887 C 76.583,59.573 76.601,59.328 76.601,59.156 C 76.601,58.915 76.545,58.724 76.434,58.586 C 76.482,58.569 76.562,58.542 76.674,58.502 C 76.816,58.45 76.929,58.425 77.013,58.425 C 77.192,58.425 77.281,58.555 77.281,58.814 C 77.281,58.951 77.263,59.185 77.228,59.517 C 77.221,59.589 77.214,59.66 77.207,59.725 L 77.115,60.676 z"
         id="path9871"
         style="opacity:0.5;fill:#000000;fill-opacity:1" />
      <path
         d="M 84.423,59.853 C 84.202,60.307 83.882,60.707 83.462,61.05 C 83.042,61.393 82.666,61.565 82.333,61.565 C 82.085,61.565 81.882,61.481 81.725,61.312 C 81.567,61.144 81.489,60.925 81.489,60.657 C 81.489,60.028 81.728,59.447 82.208,58.913 C 82.687,58.38 83.208,58.112 83.774,58.112 C 84.065,58.112 84.379,58.196 84.717,58.364 C 84.763,58.144 84.828,58.006 84.915,57.948 C 85.002,57.891 85.221,57.844 85.574,57.807 C 85.398,58.164 85.229,59.017 85.069,60.364 L 85.025,60.714 C 86,60.126 86.751,59.526 87.28,58.915 L 87.566,59.096 C 87.066,59.749 86.212,60.46 85.002,61.232 C 84.995,61.321 84.99,61.387 84.988,61.43 C 84.954,62.002 84.893,62.424 84.806,62.696 C 84.719,62.967 84.563,63.224 84.337,63.468 C 83.894,63.945 83.355,64.183 82.721,64.183 C 82.38,64.183 82.105,64.103 81.892,63.942 C 81.68,63.781 81.574,63.574 81.574,63.318 C 81.574,63.07 81.666,62.852 81.849,62.666 C 82.033,62.478 82.377,62.25 82.884,61.981 C 83.219,61.806 83.692,61.543 84.303,61.195 L 84.423,59.853 z M 84.598,58.965 C 84.301,58.652 83.975,58.494 83.619,58.494 C 83.281,58.494 82.963,58.705 82.664,59.127 C 82.365,59.549 82.216,59.998 82.216,60.474 C 82.216,60.811 82.34,60.979 82.589,60.979 C 82.831,60.979 83.152,60.778 83.553,60.376 C 83.954,59.974 84.301,59.504 84.598,58.965 z M 84.269,61.646 C 84.137,61.726 83.871,61.878 83.469,62.104 C 82.685,62.548 82.292,62.94 82.292,63.279 C 82.292,63.429 82.355,63.553 82.482,63.652 C 82.609,63.75 82.771,63.798 82.968,63.798 C 83.836,63.799 84.269,63.081 84.269,61.646 z"
         id="path9878"
         style="opacity:0.5;fill:#000000;fill-opacity:1" />
      <path
         d="M 44.082,82.675 C 44.027,82.557 44,82.435 44,82.309 C 44,81.9 44.313,81.533 44.939,81.207 C 45.566,80.883 46.275,80.721 47.068,80.721 C 47.902,80.721 48.558,80.906 49.038,81.276 C 49.517,81.645 49.758,82.151 49.758,82.795 C 49.758,83.649 49.386,84.403 48.641,85.056 C 48.246,85.401 47.754,85.683 47.163,85.902 C 46.572,86.121 46.006,86.23 45.467,86.23 C 44.947,86.23 44.688,86.035 44.688,85.644 C 44.688,85.503 44.732,85.21 44.821,84.768 L 45.263,82.533 C 45.301,82.342 45.321,82.203 45.321,82.119 C 45.321,82.039 45.294,81.966 45.239,81.899 C 45.544,81.785 45.755,81.728 45.874,81.728 C 46.016,81.728 46.087,81.81 46.087,81.974 C 46.087,82.013 46.05,82.212 45.978,82.574 L 45.603,84.446 C 45.509,84.924 45.462,85.223 45.462,85.346 C 45.462,85.483 45.508,85.575 45.601,85.624 C 45.693,85.673 45.867,85.697 46.122,85.698 C 46.95,85.697 47.643,85.444 48.201,84.94 C 48.759,84.436 49.039,83.811 49.04,83.065 C 49.039,82.488 48.836,82.026 48.431,81.68 C 48.026,81.333 47.486,81.159 46.812,81.159 C 46.262,81.16 45.75,81.293 45.275,81.557 C 44.798,81.82 44.401,82.193 44.082,82.675 z"
         id="path9920"
         style="opacity:0.5;fill:#000000;fill-opacity:1" />
      <path
         d="M 54.051,83.393 C 54.057,83.448 54.061,83.497 54.061,83.539 C 54.061,84.197 53.837,84.77 53.391,85.26 C 52.945,85.75 52.422,85.994 51.823,85.994 C 51.366,85.994 50.993,85.848 50.704,85.556 C 50.417,85.264 50.272,84.884 50.272,84.418 C 50.272,83.887 50.459,83.428 50.832,83.039 C 51.204,82.649 51.644,82.455 52.15,82.455 C 52.227,82.455 52.31,82.465 52.396,82.485 C 52.339,82.382 52.311,82.295 52.311,82.224 C 52.311,82.114 52.348,82.008 52.423,81.908 C 52.979,81.954 53.44,82.239 53.809,82.763 C 54.188,83.021 54.582,83.15 54.993,83.15 C 55.261,83.15 55.549,83.06 55.859,82.879 L 56.03,83.17 C 55.667,83.422 55.295,83.548 54.914,83.548 C 54.66,83.549 54.372,83.496 54.051,83.393 z M 53.276,83.103 C 53.088,83.045 52.913,82.955 52.754,82.829 C 52.639,82.806 52.542,82.793 52.465,82.792 C 52.079,82.793 51.736,82.967 51.439,83.314 C 51.142,83.661 50.992,84.058 50.991,84.503 C 50.992,84.826 51.083,85.092 51.262,85.299 C 51.441,85.506 51.674,85.611 51.958,85.611 C 52.342,85.61 52.672,85.416 52.949,85.029 C 53.225,84.642 53.364,84.18 53.365,83.644 C 53.364,83.458 53.335,83.277 53.276,83.103 z"
         id="path9927"
         style="opacity:0.5;fill:#000000;fill-opacity:1" />
      <path
         d="M 56.214,84.676 C 57.026,82.967 57.754,82.112 58.402,82.112 C 58.907,82.112 59.16,82.612 59.16,83.613 L 59.167,84.026 C 59.167,84.504 59.191,84.834 59.24,85.017 C 59.289,85.2 59.379,85.291 59.509,85.291 C 59.705,85.291 59.928,85.136 60.178,84.825 C 60.427,84.515 60.833,83.89 61.397,82.953 L 61.684,83.119 C 61.182,84.064 60.733,84.765 60.335,85.223 C 59.939,85.68 59.582,85.909 59.268,85.909 C 58.978,85.909 58.775,85.769 58.658,85.489 C 58.54,85.21 58.481,84.725 58.481,84.036 L 58.481,83.743 C 58.481,83.37 58.457,83.107 58.409,82.956 C 58.361,82.806 58.277,82.729 58.158,82.729 C 57.856,82.729 57.369,83.329 56.698,84.527 C 56.533,84.821 56.427,85.009 56.379,85.093 C 56.202,85.398 56.114,85.618 56.114,85.755 C 56.114,85.81 56.129,85.861 56.16,85.912 C 56.027,85.967 55.916,85.994 55.826,85.994 C 55.596,85.994 55.481,85.867 55.481,85.611 C 55.481,85.539 55.511,85.211 55.572,84.628 L 55.648,83.887 C 55.682,83.573 55.7,83.328 55.7,83.156 C 55.7,82.915 55.644,82.724 55.533,82.586 C 55.581,82.569 55.661,82.542 55.773,82.502 C 55.915,82.45 56.028,82.425 56.112,82.425 C 56.291,82.425 56.38,82.555 56.38,82.814 C 56.38,82.951 56.362,83.185 56.327,83.517 C 56.32,83.589 56.313,83.66 56.306,83.725 L 56.214,84.676 z"
         id="path9934"
         style="opacity:0.5;fill:#000000;fill-opacity:1" />
      <path
         d="M 61.423,84.484 C 61.423,85.152 61.705,85.486 62.27,85.486 C 62.76,85.486 63.299,85.253 63.889,84.785 C 64.479,84.318 65.011,83.703 65.485,82.939 L 65.775,83.099 C 65.329,83.935 64.749,84.625 64.034,85.173 C 63.32,85.72 62.643,85.993 62.003,85.993 C 61.593,85.993 61.269,85.86 61.031,85.597 C 60.793,85.332 60.674,84.97 60.674,84.512 C 60.674,83.851 60.89,83.285 61.321,82.816 C 61.754,82.345 62.274,82.111 62.883,82.111 C 63.177,82.111 63.412,82.185 63.589,82.334 C 63.765,82.482 63.854,82.68 63.854,82.929 C 63.854,83.337 63.609,83.699 63.118,84.013 C 62.625,84.328 62.06,84.484 61.423,84.484 z M 61.45,84.156 C 61.927,84.132 62.336,83.995 62.677,83.746 C 63.018,83.498 63.189,83.211 63.189,82.885 C 63.189,82.594 63.059,82.447 62.799,82.447 C 62.488,82.447 62.202,82.613 61.94,82.946 C 61.678,83.279 61.514,83.683 61.45,84.156 z"
         id="path9941"
         style="opacity:0.5;fill:#000000;fill-opacity:1" />
      <path
         d="M 69.767,83.117 C 69.215,84.043 68.631,84.772 68.013,85.305 C 67.396,85.838 66.823,86.104 66.294,86.104 C 65.854,86.104 65.497,85.954 65.224,85.652 C 64.951,85.351 64.814,84.96 64.814,84.477 C 64.814,83.843 65.049,83.29 65.521,82.819 C 65.993,82.348 66.546,82.112 67.182,82.112 C 67.44,82.112 67.651,82.162 67.816,82.261 C 67.981,82.36 68.064,82.487 68.064,82.64 C 68.064,82.892 67.852,83.08 67.428,83.206 C 67.45,83.151 67.462,83.099 67.462,83.049 C 67.462,82.679 67.266,82.494 66.872,82.494 C 66.532,82.494 66.218,82.683 65.931,83.064 C 65.645,83.443 65.501,83.859 65.501,84.31 C 65.501,84.678 65.597,84.978 65.786,85.208 C 65.977,85.44 66.224,85.556 66.53,85.556 C 67.37,85.556 68.352,84.686 69.479,82.945 L 69.767,83.117 z"
         id="path9948"
         style="opacity:0.5;fill:#000000;fill-opacity:1" />
      <path
         d="M 73.28125,82.125 C 72.71325,82.125 72.213253,82.394497 71.78125,82.9375 C 71.34925,83.4805 71.124998,84.098503 71.125,84.8125 C 71.125,85.1695 71.197753,85.440252 71.34375,85.65625 C 71.48775,85.87225 71.664251,85.999997 71.90625,86 C 71.935512,86 71.969785,86.003597 72,86 L 72.46875,85.21875 C 72.390642,85.265082 72.30868,85.34375 72.25,85.34375 C 71.947,85.34375 71.812501,85.115247 71.8125,84.65625 C 71.8125,84.08225 71.936502,83.574246 72.1875,83.15625 C 72.4395,82.73825 72.748749,82.531253 73.09375,82.53125 C 73.327723,82.53125 73.615828,82.643313 73.9375,82.8125 L 74.21875,82.375 C 73.87913,82.214827 73.57912,82.125 73.28125,82.125 z"
         id="path9955"
         style="opacity:0.5;fill:#000000;fill-opacity:1" />
      <path
         d="M 47.219,95.907 C 46.864,96.548 46.491,97.056 46.103,97.431 C 45.715,97.806 45.368,97.993 45.063,97.993 C 44.819,97.993 44.625,97.887 44.481,97.673 C 44.338,97.46 44.266,97.175 44.266,96.817 C 44.266,96.096 44.48,95.465 44.909,94.923 C 45.338,94.382 45.836,94.111 46.404,94.111 C 46.743,94.111 47.114,94.219 47.515,94.437 L 47.883,92.596 C 47.682,92.637 47.515,92.658 47.382,92.658 C 47.18,92.658 47.032,92.611 46.939,92.516 C 46.846,92.421 46.77,92.245 46.712,91.986 C 46.877,92.095 47.129,92.15 47.471,92.15 C 47.894,92.15 48.302,92.072 48.696,91.916 L 47.948,95.664 C 47.863,96.083 47.821,96.439 47.821,96.734 C 47.821,97.126 47.932,97.322 48.155,97.322 C 48.374,97.322 48.737,97.066 49.246,96.552 C 49.755,96.04 50.179,95.503 50.517,94.943 L 50.797,95.121 C 50.392,95.864 49.885,96.529 49.277,97.115 C 48.669,97.701 48.185,97.994 47.823,97.994 C 47.363,97.994 47.133,97.625 47.133,96.886 C 47.133,96.58 47.161,96.254 47.219,95.907 z M 47.4,95.002 C 46.925,94.69 46.531,94.533 46.216,94.533 C 45.873,94.533 45.577,94.742 45.327,95.162 C 45.077,95.581 44.952,96.076 44.952,96.648 C 44.952,97.107 45.102,97.337 45.404,97.337 C 45.727,97.337 46.35,96.622 47.273,95.192 C 47.29,95.168 47.332,95.104 47.4,95.002 z"
         id="path10004"
         style="opacity:0.5;fill:#000000;fill-opacity:1" />
      <path
         d="M 53.894,95.111 C 53.379,96.013 52.859,96.72 52.333,97.229 C 51.807,97.739 51.335,97.994 50.916,97.994 C 50.661,97.994 50.455,97.911 50.3,97.744 C 50.144,97.578 50.066,97.359 50.066,97.088 C 50.066,96.985 50.088,96.822 50.134,96.599 L 50.21,96.223 C 50.321,95.68 50.378,95.299 50.378,95.08 C 50.378,94.95 50.339,94.844 50.261,94.762 C 50.558,94.694 50.744,94.66 50.82,94.66 C 50.989,94.66 51.074,94.778 51.074,95.015 C 51.074,95.19 51.041,95.442 50.973,95.77 L 50.838,96.437 C 50.771,96.757 50.737,96.966 50.737,97.062 C 50.737,97.345 50.856,97.486 51.095,97.486 C 51.38,97.486 51.759,97.246 52.233,96.766 C 52.707,96.286 53.166,95.679 53.61,94.943 L 53.894,95.111 z M 50.856,93.389 L 50.904,93.392 C 51.056,93.385 51.275,93.309 51.562,93.162 C 51.847,93.016 52.072,92.866 52.233,92.714 C 52.133,93.028 51.955,93.291 51.7,93.503 C 51.312,93.825 51.05,93.987 50.913,93.987 C 50.822,93.987 50.776,93.931 50.776,93.819 C 50.776,93.659 50.803,93.516 50.856,93.389 z"
         id="path10011"
         style="opacity:0.5;fill:#000000;fill-opacity:1" />
      <path
         d="M 55.886,95.82 C 55.594,96.424 55.234,96.937 54.805,97.36 C 54.377,97.783 54.004,97.994 53.687,97.994 C 53.445,97.994 53.251,97.887 53.107,97.671 C 52.961,97.455 52.889,97.168 52.889,96.811 C 52.889,96.097 53.105,95.469 53.537,94.926 C 53.969,94.383 54.471,94.112 55.039,94.112 C 55.384,94.112 55.757,94.219 56.158,94.434 C 56.218,94.221 56.459,94.116 56.882,94.116 C 56.909,94.116 56.953,94.117 57.015,94.119 C 56.885,94.317 56.786,94.589 56.718,94.934 L 56.659,95.225 C 56.594,95.549 56.56,95.928 56.56,96.362 C 56.56,96.862 56.676,97.112 56.909,97.112 C 57.154,97.112 57.491,96.906 57.918,96.494 C 58.346,96.083 58.765,95.557 59.177,94.921 L 59.444,95.107 C 59.023,95.86 58.542,96.488 58,96.991 C 57.458,97.494 56.993,97.746 56.604,97.746 C 56.113,97.746 55.867,97.336 55.867,96.514 C 55.865,96.341 55.872,96.11 55.886,95.82 z M 56.046,95.002 C 55.566,94.69 55.167,94.533 54.849,94.533 C 54.504,94.533 54.205,94.742 53.953,95.16 C 53.702,95.578 53.576,96.074 53.576,96.648 C 53.576,97.107 53.726,97.337 54.029,97.337 C 54.355,97.337 54.981,96.622 55.905,95.192 C 55.917,95.176 55.964,95.111 56.046,95.002 z"
         id="path10018"
         style="opacity:0.5;fill:#000000;fill-opacity:1" />
      <path
         d="M 61.8125,94.125 C 61.1815,94.125 60.447999,94.989748 59.625,96.71875 L 59.71875,95.71875 C 59.77275,95.17775 59.812499,94.865249 59.8125,94.78125 C 59.8125,94.54525 59.700001,94.437503 59.5,94.4375 C 59.39,94.4375 59.201499,94.497748 58.9375,94.59375 C 59.0475,94.72075 59.125002,94.9155 59.125,95.1875 C 59.125,95.4045 59.088499,95.619999 59.0625,95.875 L 59,96.625 C 58.932,97.256 58.90625,97.562749 58.90625,97.59375 C 58.90625,97.84975 59.013001,98.000003 59.25,98 C 59.355,98 59.46775,97.962253 59.59375,97.90625 C 59.55775,97.86025 59.531251,97.829253 59.53125,97.78125 C 59.53125,97.61325 59.773001,97.092748 60.25,96.21875 C 60.729,95.33675 61.097748,94.874997 61.34375,94.875 C 61.45575,94.875 61.499999,94.973 61.5,95.125 C 61.5,95.23 61.449749,95.541497 61.34375,96.0625 L 61.21875,96.78125 C 61.19375,96.90925 61.149999,97.013996 61.125,97.125 C 61.055,97.435 61.03125,97.625497 61.03125,97.6875 C 61.03125,97.8895 61.130749,98.000004 61.34375,98 C 61.41075,98 61.465999,97.978753 61.5,97.96875 C 61.579,97.94675 61.625249,97.943502 61.65625,97.9375 C 61.64725,97.9035 61.656249,97.889 61.65625,97.875 C 61.65625,97.748 61.924001,97.234751 62.5,96.34375 C 63.134,95.36475 63.597751,94.875004 63.84375,94.875 C 63.94375,94.875 64,94.902 64,95 C 64,95.078 63.968252,95.305999 63.90625,95.625 L 63.8125,96.09375 C 63.7235,96.54775 63.656249,96.8575 63.65625,97.0625 C 63.65625,97.6775 63.902998,98.000004 64.375,98 C 64.46725,98 64.560066,97.967623 64.65625,97.9375 L 65.1875,97.0625 C 64.987492,97.245881 64.803465,97.375 64.65625,97.375 C 64.46325,97.375 64.375004,97.241747 64.375,96.96875 C 64.375,96.81475 64.405753,96.571001 64.46875,96.25 L 64.5625,95.71875 C 64.6635,95.19675 64.718748,94.864748 64.71875,94.71875 C 64.71875,94.31475 64.533503,94.125 64.1875,94.125 C 63.8735,94.125 63.526748,94.366 63.09375,94.875 C 62.66075,95.384 62.24175,96.068246 61.84375,96.90625 L 62.03125,95.875 C 62.15325,95.277 62.218749,94.88875 62.21875,94.71875 C 62.21875,94.31975 62.0885,94.125 61.8125,94.125 z"
         id="path10025"
         style="opacity:0.5;fill:#000000;fill-opacity:1" />
    </g>
  </g>
</svg>
