<?xml version="1.0" standalone="no"?>
<!DOCTYPE svg PUBLIC "-//W3C//DTD SVG 20010904//EN" "http://www.w3.org/TR/2001/REC-SVG-20010904/DTD/svg10.dtd">
<!-- Created using Karbon14, part of koffice: http://www.koffice.org/karbon -->
<svg xmlns="http://www.w3.org/2000/svg" xmlns:xlink="http://www.w3.org/1999/xlink" width="128px" height="128px">
  <defs>
    <radialGradient id="defitem230" gradientUnits="userSpaceOnUse" cx="64" cy="122.485" fx="64" fy="122.485" r="64" >
      <stop stop-color="#000000" offset="0" stop-opacity="1" />
      <stop stop-color="#000000" offset="1" stop-opacity="0" />
    </radialGradient>
    <linearGradient id="defitem231" gradientUnits="userSpaceOnUse" x1="38.1418" y1="29.1943" x2="90.5904" y2="6.918" >
      <stop stop-color="#670d0d" offset="0" stop-opacity="1" />
      <stop stop-color="#e21515" offset="0.377119" stop-opacity="1" />
      <stop stop-color="#690808" offset="1" stop-opacity="1" />
    </linearGradient>
    <linearGradient id="defitem232" gradientUnits="userSpaceOnUse" x1="30.5967" y1="119.581" x2="99.4932" y2="42.1536" >
      <stop stop-color="#670d0d" offset="0" stop-opacity="1" />
      <stop stop-color="#e21515" offset="0.333503" stop-opacity="1" />
      <stop stop-color="#690808" offset="1" stop-opacity="1" />
    </linearGradient>
  </defs>
  <g id="Layer">
    <g id="layer1">
      <path id="path3945" fill="#000000" d=""  />
    </g>
    <path id="path3081" fill="#000000" d=""  />
    <g id="layer2">
    </g>
    <g id="layer3">
    </g>
    <g id="layer4">
    </g>
    <g id="layer8">
      <path id="path2167" fill="#000000" d=""  />
      <g id="g3036">
        <path id="path4922" fill="#000000" d=""  />
      </g>
      <path id="path4924" fill="#000000" d=""  />
      <g id="g4926">
      </g>
      <g id="g4928">
      </g>
      <g id="g4930">
      </g>
      <path id="path10095" fill="#000000" d=""  />
      <path id="path2276" fill="#ffffff" fill-opacity="0.756881" stroke-width="0.5" stroke-linecap="round" stroke-linejoin="round" d="M72.7412 -14.182L72.7412 -16.977L72.7412 -14.182Z"  />
      <path id="path2191" fill="#ffffff" fill-opacity="0.756881" stroke-width="0.5" stroke-linecap="round" stroke-linejoin="round" d="M367.351 -76.373L367.351 -79.168L367.351 -76.373Z"  />
      <path id="path2985" fill="#ffffff" fill-opacity="0.756881" stroke-width="0.5" stroke-linecap="round" stroke-linejoin="round" d="M210.342 -146.008L210.342 -148.803L210.342 -146.008Z"  />
      <path id="path3206" fill="#ffffff" fill-opacity="0.756881" stroke-width="0.5" stroke-linecap="round" stroke-linejoin="round" d="M90.8401 -232.638L90.8401 -235.433L90.8401 -232.638Z"  />
      <g id="g2878">
      </g>
      <g id="g4938">
      </g>
      <path id="path3946" fill="#ffffff" fill-opacity="0.756881" stroke-width="0.5" stroke-linecap="round" stroke-linejoin="round" d="M337.432 -166.883L337.432 -169.678L337.432 -166.883Z"  />
      <path id="path1561" fill="#ffffff" fill-opacity="0.756881" stroke-width="0.5" stroke-linecap="round" stroke-linejoin="round" d="M244.807 -92.989L244.807 -94.516L244.807 -92.989Z"  />
      <path fill="#ffffff" stroke-width="3.632" stroke-linecap="round" stroke-linejoin="round" d="M187.322 -149.589L187.322 -149.589L188.322 -149.589L188.322 -149.589L187.322 -149.589Z"  />
      <path fill="#ffffff" stroke-width="3.632" stroke-linecap="round" stroke-linejoin="round" d="M152.196 -177.117L152.196 -177.117L153.196 -177.117L153.196 -177.117L152.196 -177.117Z"  />
      <path id="path2494" fill="#ffffff" fill-opacity="0.756881" stroke-width="0.5" stroke-linecap="round" stroke-linejoin="round" d="M-6.74187 -250.333L-6.74187 -253.128L-6.74187 -250.333Z"  />
      <g id="g4640">
      </g>
      <g id="g4646">
      </g>
      <g id="g4730">
      </g>
      <g id="g4748">
      </g>
      <g id="g12948">
        <path id="path12950" fill="#000000" d=""  />
      </g>
      <path id="path12952" fill="#000000" d=""  />
      <g id="g12954">
      </g>
      <g id="g12956">
      </g>
      <g id="g12958">
      </g>
      <path id="path12983" fill="#000000" d=""  />
      <g id="g12985">
        <path id="path12987" fill="#000000" d=""  />
      </g>
      <path id="path12989" fill="#000000" d=""  />
      <g id="g12991">
      </g>
      <g id="g12993">
      </g>
      <g id="g12995">
      </g>
      <path id="path12997" fill="#000000" d=""  />
      <path id="path12999" fill="#ffffff" fill-opacity="0.756881" stroke-width="0.5" stroke-linecap="round" stroke-linejoin="round" d="M215.711 -26.278L215.711 -29.073L215.711 -26.278Z"  />
      <path id="path13001" fill="#ffffff" fill-opacity="0.756881" stroke-width="0.5" stroke-linecap="round" stroke-linejoin="round" d="M510.32 -88.469L510.32 -91.263L510.32 -88.469Z"  />
      <path id="path13003" fill="#ffffff" fill-opacity="0.756881" stroke-width="0.5" stroke-linecap="round" stroke-linejoin="round" d="M353.312 -158.104L353.312 -160.899L353.312 -158.104Z"  />
      <path id="path13005" fill="#ffffff" fill-opacity="0.756881" stroke-width="0.5" stroke-linecap="round" stroke-linejoin="round" d="M233.81 -244.734L233.81 -247.529L233.81 -244.734Z"  />
      <g id="g13007">
      </g>
      <g id="g13009">
      </g>
      <path id="path13011" fill="#ffffff" fill-opacity="0.756881" stroke-width="0.5" stroke-linecap="round" stroke-linejoin="round" d="M480.401 -178.979L480.401 -181.774L480.401 -178.979Z"  />
      <path id="path13013" fill="#ffffff" fill-opacity="0.756881" stroke-width="0.5" stroke-linecap="round" stroke-linejoin="round" d="M387.777 -105.085L387.777 -106.612L387.777 -105.085Z"  />
      <path fill="#ffffff" stroke-width="3.632" stroke-linecap="round" stroke-linejoin="round" d="M330.292 -161.685L330.292 -161.685L331.292 -161.685L331.292 -161.685L330.292 -161.685Z"  />
      <path fill="#ffffff" stroke-width="3.632" stroke-linecap="round" stroke-linejoin="round" d="M295.165 -189.213L295.165 -189.213L296.165 -189.213L296.165 -189.213L295.165 -189.213Z"  />
      <path id="path13019" fill="#ffffff" fill-opacity="0.756881" stroke-width="0.5" stroke-linecap="round" stroke-linejoin="round" d="M136.228 -262.429L136.228 -265.224L136.228 -262.429Z"  />
      <g id="g13021">
      </g>
      <g id="g13023">
      </g>
      <g id="g13025">
      </g>
      <g id="g13027">
      </g>
      <path id="path4226" fill="#ffffff" fill-opacity="0.756881" stroke-width="0.5" stroke-linecap="round" stroke-linejoin="round" d="M405.442 24.848L405.442 22.053L405.442 24.848Z"  />
      <path id="path1563" fill="url(#defitem230)" stroke-width="0" stroke-linecap="round" stroke-linejoin="round" d="M128 122.485C128 125.35 99.3462 127.673 64 127.673C28.6538 127.673 -2.37106e-05 125.35 -2.3699e-05 122.485"  />
      <g id="g5678">
      </g>
      <g id="layer5">
      </g>
      <path id="path13199" fill="#ffffff" fill-opacity="0.756881" stroke-width="0.5" stroke-linecap="round" stroke-linejoin="round" d="M335.068 -76.941L335.068 -79.541L335.068 -76.941Z"  />
      <path id="path5682" fill="#000000" d=""  />
      <path id="path5684" fill="#000000" d=""  />
      <path id="path3143" fill="#000000" d=""  />
      <g id="g11927">
        <path id="path15420" fill="#ffffff" fill-opacity="0.756881" stroke-width="0.5" stroke-linecap="round" stroke-linejoin="round" d="M64 3.928L64 2L64 3.928Z"  />
        <path id="path2056" fill="#ffffff" fill-opacity="0.756881" stroke-width="0.5" stroke-linecap="round" stroke-linejoin="round" d="M64 3.204L64 2L64 3.204Z"  />
        <g id="g11849">
          <g id="g11851">
            <path id="path11853" fill="#ffffff" stroke-width="0.547158" d="M114.303 75.7539C114.111 79.5948 115.747 84.1692 112.796 87.342C108.731 92.5842 102.144 94.7587 96.0852 96.7654C81.1941 101.234 65.3773 101.708 49.9955 100.172C42.6912 99.205 35.3722 97.7213 28.5157 94.9742C24.0425 93.0211 19.1842 90.5987 16.8704 86.059C15.4612 82.4504 16.706 78.5509 16.999 74.8602C18.6996 69.7536 23.9325 67.0926 28.5077 64.985C39.5285 60.5288 51.5142 58.8833 63.3371 58.5616C76.464 58.4944 89.8866 59.559 102.183 64.4928C106.681 66.3654 111.552 68.9072 113.736 73.515C114.034 74.2281 114.227 74.9848 114.303 75.7539Z"  />
            <path id="path11855" fill="#000000" stroke-width="0.0150154" d="M112.894 74.5406C112.928 78.4379 114.143 83.0578 111.16 86.2326C104.655 92.9253 95.1913 95.179 86.3624 96.9817C69.1308 100.038 51.1164 99.5622 34.2915 94.565C28.7345 92.7383 22.8414 90.2352 19.3743 85.2969C17.5445 81.644 18.3713 77.3259 19.2149 73.5183C20.4732 69.1444 24.7833 66.9108 28.4969 64.897C35.9774 61.3484 44.2423 59.8547 52.3918 58.7662C68.0235 56.942 84.153 57.9417 99.1615 62.8505C104.162 64.6499 109.443 67.1985 112.227 71.9485C112.606 72.7609 112.852 73.6424 112.894 74.5406Z"  />
            <path id="path11857" fill="#ffffff" stroke-width="0.547158" d="M65.9256 58.4949C77.1411 58.4053 88.5194 59.7938 99.0754 63.7125C103.127 65.394 107.378 67.5794 109.735 71.4386C111.153 74.1633 110.396 77.5056 108.283 79.6378C105.642 82.6514 101.847 84.3071 98.2789 85.9427C87.8357 89.8047 76.6097 91.0882 65.5297 91.1975C54.3103 91.1766 42.9154 89.918 32.4036 85.8077C28.4293 84.151 24.2632 82.0007 21.9795 78.1907C20.4803 75.6689 21.0488 72.4099 23.0738 70.3475C26.5535 66.3792 31.62 64.3705 36.4746 62.6407C46.0085 59.7207 55.981 58.5979 65.9256 58.4949Z"  />
          </g>
          <g id="g11859">
            <path id="path11861" fill="#ffffff" stroke-width="0.547158" d="M124.088 66.8074C123.896 70.6482 125.532 75.2226 122.582 78.3954C118.516 83.6376 111.929 85.8121 105.87 87.8188C90.9794 92.2873 75.1625 92.7611 59.7807 91.2254C52.4764 90.2584 45.1574 88.7747 38.3009 86.0276C33.8277 84.0745 28.9694 81.6521 26.6556 77.1124C25.2464 73.5038 26.4912 69.6043 26.7842 65.9136C28.4848 60.807 33.7177 58.146 38.2929 56.0384C49.3137 51.5822 61.2994 49.9367 73.1223 49.615C86.2493 49.5478 99.6719 50.6124 111.968 55.5462C116.466 57.4188 121.337 59.9606 123.521 64.5684C123.819 65.2815 124.012 66.0382 124.088 66.8074Z"  />
            <path id="path11863" fill="#000000" stroke-width="0.0150154" d="M122.679 65.594C122.713 69.4913 123.928 74.1112 120.945 77.286C114.44 83.9787 104.976 86.2324 96.1477 88.0351C78.9161 91.0915 60.9017 90.6156 44.0767 85.6184C38.5197 83.7917 32.6266 81.2886 29.1596 76.3503C27.3297 72.6974 28.1565 68.3793 29.0001 64.5717C30.2584 60.1978 34.5686 57.9642 38.2821 55.9504C45.7626 52.4018 54.0275 50.9081 62.177 49.8196C77.8087 47.9954 93.9382 48.9951 108.947 53.9039C113.947 55.7033 119.229 58.2519 122.012 63.0019C122.392 63.8143 122.637 64.6958 122.679 65.594Z"  />
            <path id="path11865" fill="#ffffff" stroke-width="0.547158" d="M75.7108 49.5483C86.9263 49.4587 98.3046 50.8472 108.861 54.7659C112.913 56.4474 117.163 58.6328 119.52 62.492C120.939 65.2167 120.181 68.559 118.069 70.6912C115.428 73.7048 111.632 75.3605 108.064 76.9961C97.6209 80.8581 86.3949 82.1416 75.315 82.2509C64.0956 82.23 52.7006 80.9714 42.1888 76.8611C38.2146 75.2044 34.0484 73.0541 31.7647 69.2441C30.2655 66.7223 30.8341 63.4633 32.859 61.4009C36.3387 57.4326 41.4053 55.4239 46.2598 53.6941C55.7938 50.7741 65.7662 49.6513 75.7108 49.5483Z"  />
          </g>
          <g id="g11867">
            <path id="path11869" fill="#ffffff" stroke-width="0.547158" d="M112.345 57.8609C112.154 61.7017 113.79 66.2761 110.839 69.4489C106.774 74.6911 100.187 76.8656 94.1281 78.8723C79.237 83.3408 63.4202 83.8146 48.0384 82.2789C40.7341 81.3119 33.4151 79.8282 26.5586 77.0811C22.0854 75.128 17.2271 72.7056 14.9133 68.1659C13.5041 64.5573 14.7489 60.6578 15.0419 56.9671C16.7424 51.8605 21.9754 49.1995 26.5506 47.0919C37.5714 42.6357 49.5571 40.9902 61.38 40.6685C74.5069 40.6013 87.9295 41.6659 100.226 46.5997C104.724 48.4723 109.595 51.0141 111.779 55.6219C112.076 56.335 112.27 57.0917 112.345 57.8609Z"  />
            <path id="path11871" fill="#000000" stroke-width="0.0150154" d="M110.937 56.6475C110.97 60.5448 112.186 65.1647 109.203 68.3395C102.698 75.0322 93.2342 77.2859 84.4053 79.0886C67.1737 82.145 49.1593 81.6691 32.3344 76.6719C26.7774 74.8452 20.8843 72.3421 17.4172 67.4038C15.5874 63.7509 16.4142 59.4328 17.2578 55.6252C18.5161 51.2513 22.8262 49.0177 26.5398 47.0039C34.0203 43.4553 42.2852 41.9616 50.4347 40.8731C66.0664 39.0489 82.1959 40.0486 97.2044 44.9574C102.205 46.7568 107.486 49.3054 110.27 54.0554C110.649 54.8678 110.895 55.7493 110.937 56.6475Z"  />
            <path id="path11873" fill="#ffffff" stroke-width="0.547158" d="M63.9685 40.6018C75.184 40.5122 86.5623 41.9007 97.1183 45.8194C101.17 47.5009 105.421 49.6863 107.778 53.5455C109.196 56.2702 108.439 59.6125 106.326 61.7447C103.685 64.7583 99.8898 66.414 96.3218 68.0496C85.8786 71.9116 74.6526 73.1951 63.5726 73.3044C52.3532 73.2835 40.9583 72.0249 30.4465 67.9146C26.4722 66.2579 22.3061 64.1076 20.0224 60.2976C18.5232 57.7758 19.0917 54.5168 21.1167 52.4544C24.5964 48.4861 29.6629 46.4774 34.5175 44.7476C44.0514 41.8276 54.0239 40.7048 63.9685 40.6018Z"  />
          </g>
          <g id="g11875">
            <path id="path11877" fill="#ffffff" stroke-width="0.547158" d="M121.572 46.3981C121.38 50.239 123.016 54.8134 120.065 57.9862C116 63.2284 109.413 65.4029 103.354 67.4096C88.4632 71.8781 72.6463 72.3519 57.2645 70.8162C49.9602 69.8492 42.6412 68.3654 35.7847 65.6184C31.3115 63.6653 26.4532 61.2429 24.1394 56.7032C22.7302 53.0946 23.9751 49.1951 24.268 45.5043C25.9686 40.3978 31.2015 37.7367 35.7767 35.6292C46.7975 31.173 58.7832 29.5274 70.6061 29.2057C83.7331 29.1385 97.1557 30.2032 109.452 35.1369C113.95 37.0096 118.821 39.5514 121.005 44.1592C121.303 44.8723 121.496 45.629 121.572 46.3981Z"  />
            <path id="path11879" fill="#000000" stroke-width="0.0150154" d="M120.163 45.1848C120.197 49.0821 121.412 53.702 118.429 56.8768C111.924 63.5695 102.46 65.8232 93.6315 67.6259C76.3999 70.6823 58.3855 70.2063 41.5605 65.2092C36.0035 63.3825 30.1104 60.8793 26.6434 55.9411C24.8135 52.2882 25.6403 47.9701 26.4839 44.1624C27.7422 39.7885 32.0524 37.555 35.7659 35.5412C43.2464 31.9925 51.5113 30.4988 59.6608 29.4104C75.2925 27.586 91.422 28.5859 106.431 33.4946C111.431 35.2941 116.713 37.8426 119.496 42.5927C119.875 43.4051 120.121 44.2866 120.163 45.1848Z"  />
            <path id="path11881" fill="#ffffff" stroke-width="0.547158" d="M73.1946 29.1391C84.4101 29.0495 95.7884 30.438 106.344 34.3566C110.396 36.0381 114.647 38.2236 117.004 42.0828C118.422 44.8075 117.665 48.1498 115.552 50.282C112.912 53.2956 109.116 54.9513 105.548 56.5869C95.1047 60.4488 83.8787 61.7324 72.7988 61.8417C61.5794 61.8208 50.1844 60.5622 39.6726 56.4519C35.6984 54.7952 31.5322 52.6449 29.2485 48.8349C27.7494 46.3131 28.3179 43.0541 30.3428 40.9916C33.8225 37.0234 38.8891 35.0147 43.7436 33.2849C53.2776 30.3649 63.25 29.2421 73.1946 29.1391Z"  />
          </g>
          <g id="g11883">
            <path id="path11885" fill="#ffffff" stroke-width="0.547158" d="M109.829 36.8925C109.637 40.7333 111.273 45.3077 108.323 48.4805C104.258 53.7227 97.6705 55.8972 91.6119 57.9039C76.7209 62.3724 60.904 62.8462 45.5223 61.3105C38.2179 60.3435 30.8989 58.8598 24.0424 56.1127C19.5693 54.1596 14.7109 51.7372 12.3972 47.1975C10.988 43.5889 12.2328 39.6894 12.5257 35.9987C14.2263 30.8921 19.4592 28.2311 24.0344 26.123C35.0552 21.667 47.0409 20.022 58.8639 19.7C71.9908 19.633 85.4134 20.698 97.7097 25.631C102.208 27.504 107.079 30.0457 109.263 34.6535C109.56 35.3666 109.754 36.1233 109.829 36.8925Z"  />
            <path id="path11887" fill="#000000" stroke-width="0.0150154" d="M108.42 35.6791C108.454 39.5765 109.67 44.1963 106.687 47.3711C100.182 54.0638 90.718 56.3175 81.8892 58.1202C64.6576 61.1766 46.6432 60.7007 29.8182 55.7035C24.2612 53.8768 18.3682 51.3737 14.9011 46.4354C13.0713 42.7825 13.898 38.4644 14.7417 34.6568C15.9999 30.2829 20.3101 28.0493 24.0236 26.036C31.5041 22.487 39.769 20.993 47.9186 19.905C63.5502 18.08 79.6797 19.08 94.6882 23.989C99.6885 25.788 104.97 28.337 107.753 33.087C108.133 33.8994 108.379 34.7809 108.42 35.6791Z"  />
            <path id="path11889" fill="#ffffff" stroke-width="0.547158" d="M61.4523 19.633C72.6678 19.544 84.0462 20.932 94.6021 24.851C98.654 26.532 102.905 28.7179 105.262 32.5771C106.68 35.3018 105.922 38.6441 103.81 40.7763C101.169 43.7899 97.3737 45.4456 93.8057 47.0812C83.3624 50.9432 72.1364 52.2267 61.0565 52.336C49.8371 52.3151 38.4421 51.0565 27.9303 46.9462C23.9561 45.2895 19.7899 43.1392 17.5062 39.3292C16.0071 36.8074 16.5756 33.5484 18.6005 31.486C22.0803 27.518 27.1468 25.509 32.0013 23.779C41.5353 20.859 51.5077 19.736 61.4523 19.633Z"  />
          </g>
          <g id="g11891">
            <path id="path11893" fill="#ffffff" stroke-width="0.547158" d="M101.721 29.6234C101.53 33.4642 103.166 38.0386 100.215 41.2114C96.1497 46.4536 89.5626 48.6281 83.5041 50.6348C68.613 55.1033 52.7962 55.5771 37.4144 54.0414C30.1101 53.0744 22.7911 51.5907 15.9346 48.8436C11.4614 46.8905 6.60305 44.4681 4.2893 39.9284C2.8801 36.3198 4.1249 32.4203 4.41785 28.7296C6.11844 23.623 11.3514 20.962 15.9266 18.854C26.9474 14.398 38.933 12.753 50.756 12.431C63.8829 12.364 77.3055 13.428 89.6018 18.362C94.0998 20.235 98.9707 22.777 101.155 27.384C101.452 28.0975 101.646 28.8542 101.721 29.6234Z"  />
            <path id="path11895" fill="#000000" stroke-width="0.0150154" d="M100.313 28.41C100.346 32.3074 101.562 36.9272 98.579 40.102C92.074 46.7947 82.6101 49.0484 73.7813 50.8511C56.5497 53.9075 38.5353 53.4316 21.7104 48.4344C16.1534 46.6077 10.2603 44.1046 6.79323 39.1663C4.9634 35.5134 5.79018 31.1953 6.6338 27.388C7.89209 23.014 12.2022 20.78 15.9157 18.766C23.3963 15.218 31.6612 13.724 39.8107 12.636C55.4424 10.811 71.5719 11.811 86.5804 16.72C91.5806 18.519 96.8624 21.068 99.6456 25.818C100.025 26.63 100.271 27.512 100.313 28.41Z"  />
            <path id="path11897" fill="#ffffff" stroke-width="0.547158" d="M53.3445 12.364C64.56 12.275 75.9383 13.663 86.4943 17.582C90.5462 19.263 94.7967 21.449 97.154 25.308C98.5723 28.0327 97.8146 31.375 95.7023 33.5072C93.0614 36.5208 89.2658 38.1765 85.6978 39.8121C75.2546 43.6741 64.0286 44.9576 52.9486 45.0669C41.7292 45.046 30.3343 43.7874 19.8225 39.6771C15.8482 38.0204 11.6821 35.8701 9.39837 32.0601C7.8992 29.5383 8.46771 26.279 10.4927 24.217C13.9724 20.249 19.0389 18.24 23.8935 16.51C33.4274 13.59 43.3999 12.467 53.3445 12.364Z"  />
          </g>
          <path id="path11899" fill="#ffffff" stroke-width="0.689883" d="M115.7 21.236C115.509 25.077 117.145 29.6512 114.194 32.824C110.129 38.0662 103.542 40.2407 97.4831 42.2474C82.592 46.7159 66.7752 47.1897 51.3934 45.654C44.089 44.687 36.7701 43.2033 29.9135 40.4562C25.4404 38.5031 20.582 36.0807 18.2683 31.541C16.8591 27.932 18.1039 24.033 18.3968 20.342C20.0974 15.236 25.3304 12.575 29.9056 10.467C40.9263 6.011 52.912 4.365 64.735 4.044C77.8619 3.976 91.2845 5.041 103.581 9.975C108.079 11.847 112.95 14.389 115.134 18.997C115.431 19.71 115.625 20.467 115.7 21.236Z"  />
          <path id="path11901" fill="#000000" stroke-width="0.689883" d="M115.13 18.625C115.164 22.522 116.38 27.142 113.397 30.3167C106.892 37.0094 97.4279 39.2631 88.599 41.0658C71.3674 44.1222 53.353 43.6462 36.5281 38.6491C30.9711 36.8224 25.078 34.3192 21.6109 29.381C19.7811 25.728 20.6079 21.41 21.4515 17.602C22.7098 13.228 27.0199 10.995 30.7335 8.981C38.214 5.432 46.4789 3.939 54.6284 2.85C70.2601 1.026 86.3896 2.026 101.398 6.935C106.398 8.734 111.68 11.283 114.463 16.033C114.843 16.845 115.088 17.726 115.13 18.625Z"  />
          <path id="path11903" fill="#ffffff" stroke-width="0.689883" d="M68.1622 2.859C79.3777 2.769 90.756 4.157 101.312 8.076C105.364 9.758 109.614 11.943 111.972 15.802C113.39 18.527 112.632 21.869 110.52 24.001C107.879 27.015 104.084 28.6708 100.516 30.3063C90.0723 34.1683 78.8463 35.4519 67.7663 35.5612C56.5469 35.5403 45.152 34.2817 34.6402 30.1714C30.6659 28.5147 26.4998 26.364 24.2161 22.554C22.7169 20.033 23.2854 16.774 25.3104 14.711C28.7901 10.743 33.8566 8.734 38.7112 7.004C48.2451 4.084 58.2176 2.962 68.1622 2.859Z"  />
        </g>
        <g id="g11837">
          <path id="path11839" fill="url(#defitem231)" stroke-width="1.86268" stroke-linecap="round" stroke-linejoin="round" d="M90.5904 27.351C88.2758 28.0642 85.8918 28.5222 83.4734 28.6722C80.8578 28.9111 78.2446 29.1965 75.6144 29.1711C71.6825 29.2902 67.7562 28.924 63.8359 28.6691C59.6528 28.358 55.4585 27.64 51.5813 25.985C50.4475 25.522 49.2579 25.175 48.2907 24.392C47.0039 23.414 45.8917 22.211 45.0188 20.85C43.0919 20.85 41.1649 20.85 39.2379 20.85C39.9877 20.346 40.6601 19.656 41.4163 19.213C42.492 19.213 43.5677 19.213 44.6434 19.213C44.6574 18.451 44.5342 17.636 44.9287 16.96C44.751 16.561 43.8494 16.886 43.3784 16.781C41.6329 16.781 39.8873 16.781 38.1418 16.781C38.8518 16.207 39.5497 15.619 40.2289 15.009C41.9807 15.009 43.7325 15.009 45.4843 15.009C46.2101 13.973 47.054 13.017 48.1376 12.346C49.4189 11.277 50.9 10.503 52.4707 9.954C54.6267 9.122 56.9155 8.695 59.1479 8.116C61.5608 7.636 64.0194 7.43 66.4679 7.233C69.0864 7.154 71.7033 6.946 74.3213 6.918C77.4693 7.014 80.6278 7.046 83.7616 7.367C85.5145 7.639 87.3011 7.742 89.0317 8.124C89.5764 8.275 90.3873 8.289 89.8388 8.999C89.538 9.36 89.7408 10.416 89.0898 10.157C85.2652 9.431 81.3575 9.275 77.4747 9.449C74.0837 9.527 70.6775 9.857 67.4014 10.769C65.8047 11.172 64.3357 11.956 62.8878 12.719C62.0525 13.228 61.3917 13.936 60.8081 14.707C60.1195 15.255 62.1564 15.102 61.8064 15.009C66.0635 14.993 70.322 15.064 74.5768 14.919C77.0718 14.919 79.5667 14.919 82.0617 14.919C81.3856 15.45 80.7407 16.016 80.1247 16.615C73.3428 16.615 66.5609 16.615 59.7789 16.615C59.5367 17.376 59.3135 18.241 59.5237 19.035C59.9253 19.205 60.6422 19.06 61.1652 19.108C66.3639 19.108 71.5626 19.108 76.7613 19.108C76.0228 19.622 75.3423 20.294 74.583 20.73C70.9483 20.668 67.3186 20.915 63.6838 20.85C62.3822 20.85 61.0805 20.85 59.7789 20.85C60.9655 22.296 62.4679 23.478 64.2055 24.186C66.949 25.237 69.8746 25.727 72.7699 26.153C76.6365 26.469 80.5207 26.516 84.3931 26.279C86.2812 26.225 88.1481 25.879 89.9598 25.354C90.2231 26.006 90.4371 26.665 90.5904 27.351Z"  />
          <path id="path11841" fill="none" stroke="#ffffff" stroke-width="0.689883" stroke-linecap="round" stroke-linejoin="round" d="M90.2031 27.717C87.8885 28.4298 85.5045 28.8877 83.0861 29.0378C80.4705 29.2767 77.8573 29.5621 75.2271 29.5367C71.2952 29.6558 67.3689 29.2896 63.4485 29.0347C59.2655 28.7236 55.0712 28.0056 51.194 26.35C50.0602 25.887 48.8706 25.541 47.9034 24.758C46.6166 23.779 45.5044 22.577 44.6315 21.215C42.7046 21.215 40.7776 21.215 38.8506 21.215C39.6004 20.711 40.2728 20.022 41.0289 19.579C42.1047 19.579 43.1804 19.579 44.2561 19.579C44.2701 18.817 44.1469 18.001 44.5414 17.325C44.3637 16.927 43.4621 17.252 42.9911 17.146C41.2456 17.146 39.5 17.146 37.7545 17.146C38.4644 16.572 39.1624 15.984 39.8416 15.374C41.5934 15.374 43.3452 15.374 45.097 15.374C45.8228 14.338 46.6666 13.382 47.7502 12.712C49.0316 11.643 50.5127 10.869 52.0834 10.32C54.2394 9.488 56.5282 9.061 58.7606 8.481C61.1735 8.002 63.6321 7.796 66.0806 7.599C68.6991 7.519 71.316 7.312 73.934 7.284C77.0819 7.38 80.2404 7.412 83.3742 7.732C85.1271 8.004 86.9138 8.107 88.6443 8.489C89.189 8.64 90 8.655 89.4514 9.365C89.1507 9.726 89.3535 10.782 88.7025 10.522C84.8779 9.797 80.9702 9.64 77.0874 9.814C73.6963 9.893 70.2902 10.222 67.0141 11.134C65.4174 11.537 63.9484 12.322 62.5005 13.085C61.6652 13.594 61.0044 14.302 60.4208 15.072C59.7322 15.621 61.769 15.468 61.4191 15.374C65.6761 15.358 69.9347 15.43 74.1895 15.284C76.6844 15.284 79.1794 15.284 81.6744 15.284C80.9983 15.815 80.3534 16.382 79.7374 16.981C72.9555 16.981 66.1735 16.981 59.3916 16.981C59.1494 17.742 58.9262 18.606 59.1364 19.401C59.538 19.571 60.2549 19.425 60.7779 19.474C65.9766 19.474 71.1753 19.474 76.374 19.474C75.6355 19.987 74.955 20.66 74.1956 21.095C70.5609 21.033 66.9312 21.28 63.2965 21.215C61.9949 21.215 60.6932 21.215 59.3916 21.215C60.5782 22.661 62.0805 23.844 63.8182 24.551C66.5617 25.603 69.4873 26.093 72.3826 26.519C76.2492 26.834 80.1334 26.881 84.0058 26.645C85.8939 26.591 87.7608 26.245 89.5725 25.72C89.8358 26.371 90.0498 27.031 90.2031 27.717Z"  />
        </g>
        <g id="g11831">
          <path id="path11833" fill="url(#defitem232)" stroke-width="1.86268" stroke-linecap="round" stroke-linejoin="round" d="M63.4544 122.755C64.7684 122.755 66.0911 122.263 67.0979 121.256L97.9831 90.3568C99.9966 88.3432 99.9966 85.0975 97.9831 83.0839L80.5226 83.0839C80.5845 82.7638 80.7188 82.4697 80.7188 82.131L80.7188 71.3548C80.7188 68.5072 78.4235 66.212 75.5759 66.212L51.347 66.212C48.4994 66.212 46.2041 68.5072 46.2041 71.3548L46.2041 82.131C46.2041 82.4697 46.3384 82.7638 46.4003 83.0839L28.9258 83.0839C26.9122 85.0975 26.9122 88.3432 28.9258 90.3568L59.825 121.256C60.8318 122.263 62.1405 122.755 63.4544 122.755ZM75.5722 66.2356L51.3367 66.2356C48.4891 66.2356 46.1965 63.9431 46.1965 61.0955L46.1965 53.2531C46.1965 50.4055 48.4891 48.113 51.3367 48.113L75.5722 48.113C78.4198 48.113 80.7123 50.4055 80.7123 53.2531L80.7123 61.0955C80.7123 63.9431 78.4198 66.2356 75.5722 66.2356ZM75.5722 48.1329L51.3367 48.1329C48.4891 48.1329 46.1965 46.1863 46.1965 43.7684C46.1965 41.3505 48.4891 39.4039 51.3367 39.4039L75.5722 39.4039C78.4198 39.4039 80.7123 41.3505 80.7123 43.7684C80.7123 46.1863 78.4198 48.1329 75.5722 48.1329Z"  />
          <path id="path11835" fill="none" stroke="#ffffff" stroke-width="1.86268" stroke-linecap="round" stroke-linejoin="round" d="M64 122.44C65.3139 122.44 66.6366 121.947 67.6434 120.941L98.5286 90.0413C100.542 88.0277 100.542 84.782 98.5286 82.7684L81.0681 82.7684C81.1301 82.4483 81.2643 82.1543 81.2643 81.8155L81.2643 71.0394C81.2643 68.1917 78.9691 65.8965 76.1214 65.8965L51.8925 65.8965C49.0449 65.8965 46.7497 68.1917 46.7497 71.0394L46.7497 81.8155C46.7497 82.1543 46.8839 82.4483 46.9459 82.7684L29.4714 82.7684C27.4578 84.782 27.4578 88.0277 29.4714 90.0413L60.3706 120.941C61.3773 121.947 62.6861 122.44 64 122.44ZM76.1177 65.9201L51.8822 65.9201C49.0346 65.9201 46.7421 63.6276 46.7421 60.78L46.7421 52.9377C46.7421 50.09 49.0346 47.7975 51.8822 47.7975L76.1177 47.7975C78.9654 47.7975 81.2579 50.09 81.2579 52.9377L81.2579 60.78C81.2579 63.6276 78.9654 65.9201 76.1177 65.9201ZM76.1177 47.8174L51.8822 47.8174C49.0346 47.8174 46.7421 45.8709 46.7421 43.453C46.7421 41.035 49.0346 39.0885 51.8822 39.0885L76.1177 39.0885C78.9654 39.0885 81.2579 41.035 81.2579 43.453C81.2579 45.8709 78.9654 47.8174 76.1177 47.8174Z"  />
        </g>
      </g>
    </g>
  </g>
</svg>
