<?xml version="1.0" standalone="no"?>
<!DOCTYPE svg PUBLIC "-//W3C//DTD SVG 20010904//EN" "http://www.w3.org/TR/2001/REC-SVG-20010904/DTD/svg10.dtd">
<!-- Created using Karbon14, part of koffice: http://www.koffice.org/karbon -->
<svg xmlns="http://www.w3.org/2000/svg" xmlns:xlink="http://www.w3.org/1999/xlink" width="128px" height="128px">
  <defs>
    <radialGradient id="defitem0" gradientUnits="userSpaceOnUse" cx="64.0002" cy="122.802" fx="64.0002" fy="122.802" r="61.5368" >
      <stop stop-color="#000000" offset="0" stop-opacity="1" />
      <stop stop-color="#000000" offset="1" stop-opacity="0" />
    </radialGradient>
    <linearGradient id="defitem1" gradientUnits="userSpaceOnUse" x1="64.0002" y1="128" x2="64.0002" y2="122.802" >
      <stop stop-color="#ffffff" offset="0" stop-opacity="1" />
      <stop stop-color="#ffffff" offset="1" stop-opacity="0" />
    </linearGradient>
    <linearGradient id="defitem2" gradientUnits="userSpaceOnUse" x1="64.0002" y1="117.18" x2="64.0002" y2="122.802" >
      <stop stop-color="#ffffff" offset="0" stop-opacity="1" />
      <stop stop-color="#ffffff" offset="1" stop-opacity="0" />
    </linearGradient>
    <linearGradient id="defitem3" gradientUnits="userSpaceOnUse" x1="113.047" y1="83.7461" x2="113.047" y2="54.0586" >
      <stop stop-color="#cacacd" offset="0" stop-opacity="1" />
      <stop stop-color="#dfdfe2" offset="0.5" stop-opacity="1" />
      <stop stop-color="#f2f2f2" offset="1" stop-opacity="1" />
    </linearGradient>
    <linearGradient id="defitem4" gradientUnits="userSpaceOnUse" x1="186.803" y1="157.762" x2="170.601" y2="110.87" >
      <stop stop-color="#dddddf" offset="0" stop-opacity="1" />
      <stop stop-color="#babcbc" offset="1" stop-opacity="0" />
    </linearGradient>
    <linearGradient id="defitem5" gradientUnits="userSpaceOnUse" x1="108.228" y1="23.984" x2="56.4481" y2="23.984" >
      <stop stop-color="#666666" offset="0" stop-opacity="1" />
      <stop stop-color="#666666" offset="1" stop-opacity="0" />
    </linearGradient>
    <linearGradient id="defitem6" gradientUnits="userSpaceOnUse" x1="101.923" y1="24.294" x2="56.4361" y2="24.294" >
      <stop stop-color="#ffffff" offset="0" stop-opacity="1" />
      <stop stop-color="#ffffff" offset="1" stop-opacity="0" />
    </linearGradient>
    <radialGradient id="defitem7" gradientUnits="userSpaceOnUse" cx="113.736" cy="24.203" fx="113.736" fy="24.203" r="5.81" >
      <stop stop-color="#000000" offset="0" stop-opacity="1" />
      <stop stop-color="#000000" offset="1" stop-opacity="0" />
    </radialGradient>
    <radialGradient id="defitem8" gradientUnits="userSpaceOnUse" cx="113.736" cy="22.778" fx="113.811" fy="21.099" r="7.82" >
      <stop stop-color="#ffffff" offset="0" stop-opacity="1" />
      <stop stop-color="#ffffff" offset="0.5" stop-opacity="0.608541" />
      <stop stop-color="#ffffff" offset="1" stop-opacity="0" />
    </radialGradient>
    <radialGradient id="defitem9" gradientUnits="userSpaceOnUse" cx="113.736" cy="22.457" fx="113.806" fy="20.876" r="7.362" >
      <stop stop-color="#ffffff" offset="0" stop-opacity="1" />
      <stop stop-color="#ffffff" offset="0.5" stop-opacity="0.608541" />
      <stop stop-color="#ffffff" offset="1" stop-opacity="0" />
    </radialGradient>
    <radialGradient id="defitem10" gradientUnits="userSpaceOnUse" cx="100.263" cy="24.203" fx="100.263" fy="24.203" r="5.81" >
      <stop stop-color="#000000" offset="0" stop-opacity="1" />
      <stop stop-color="#000000" offset="1" stop-opacity="0" />
    </radialGradient>
    <radialGradient id="defitem11" gradientUnits="userSpaceOnUse" cx="100.265" cy="24.243" fx="100.149" fy="26.833" r="5.111" >
      <stop stop-color="#e6e6e6" offset="0" stop-opacity="1" />
      <stop stop-color="#dbdbdb" offset="1" stop-opacity="1" />
    </radialGradient>
    <radialGradient id="defitem12" gradientUnits="userSpaceOnUse" cx="100.264" cy="22.778" fx="100.339" fy="21.099" r="7.82" >
      <stop stop-color="#ffffff" offset="0" stop-opacity="1" />
      <stop stop-color="#ffffff" offset="0.5" stop-opacity="0.608541" />
      <stop stop-color="#ffffff" offset="1" stop-opacity="0" />
    </radialGradient>
    <radialGradient id="defitem13" gradientUnits="userSpaceOnUse" cx="100.264" cy="22.457" fx="100.334" fy="20.876" r="7.362" >
      <stop stop-color="#ffffff" offset="0" stop-opacity="1" />
      <stop stop-color="#ffffff" offset="0.5" stop-opacity="0.608541" />
      <stop stop-color="#ffffff" offset="1" stop-opacity="0" />
    </radialGradient>
    <radialGradient id="defitem14" gradientUnits="userSpaceOnUse" cx="86.1345" cy="24.203" fx="86.1345" fy="24.203" r="5.8099" >
      <stop stop-color="#000000" offset="0" stop-opacity="1" />
      <stop stop-color="#000000" offset="1" stop-opacity="0" />
    </radialGradient>
    <radialGradient id="defitem15" gradientUnits="userSpaceOnUse" cx="86.1354" cy="24.243" fx="86.0192" fy="26.833" r="5.1116" >
      <stop stop-color="#e6e6e6" offset="0" stop-opacity="1" />
      <stop stop-color="#dbdbdb" offset="1" stop-opacity="1" />
    </radialGradient>
    <radialGradient id="defitem16" gradientUnits="userSpaceOnUse" cx="86.1348" cy="22.778" fx="86.2091" fy="21.099" r="7.8191" >
      <stop stop-color="#ffffff" offset="0" stop-opacity="1" />
      <stop stop-color="#ffffff" offset="0.5" stop-opacity="0.608541" />
      <stop stop-color="#ffffff" offset="1" stop-opacity="0" />
    </radialGradient>
    <radialGradient id="defitem17" gradientUnits="userSpaceOnUse" cx="86.1342" cy="22.457" fx="86.2042" fy="20.876" r="7.3624" >
      <stop stop-color="#ffffff" offset="0" stop-opacity="1" />
      <stop stop-color="#ffffff" offset="0.5" stop-opacity="0.608541" />
      <stop stop-color="#ffffff" offset="1" stop-opacity="0" />
    </radialGradient>
    <linearGradient id="defitem18" gradientUnits="userSpaceOnUse" x1="11.5467" y1="23.984" x2="38.0998" y2="23.984" >
      <stop stop-color="#666666" offset="0" stop-opacity="1" />
      <stop stop-color="#666666" offset="1" stop-opacity="0" />
    </linearGradient>
    <linearGradient id="defitem19" gradientUnits="userSpaceOnUse" x1="14.7799" y1="24.294" x2="38.106" y2="24.294" >
      <stop stop-color="#ffffff" offset="0" stop-opacity="1" />
      <stop stop-color="#ffffff" offset="1" stop-opacity="0" />
    </linearGradient>
    <radialGradient id="defitem20" gradientUnits="userSpaceOnUse" cx="11.6405" cy="24.203" fx="11.6405" fy="24.203" r="5.8099" >
      <stop stop-color="#000000" offset="0" stop-opacity="1" />
      <stop stop-color="#000000" offset="1" stop-opacity="0" />
    </radialGradient>
    <radialGradient id="defitem21" gradientUnits="userSpaceOnUse" cx="11.642" cy="24.243" fx="11.5258" fy="26.833" r="5.1116" >
      <stop stop-color="#e6e6e6" offset="0" stop-opacity="1" />
      <stop stop-color="#dbdbdb" offset="1" stop-opacity="1" />
    </radialGradient>
    <radialGradient id="defitem22" gradientUnits="userSpaceOnUse" cx="11.6416" cy="22.778" fx="11.7159" fy="21.099" r="7.8191" >
      <stop stop-color="#ffffff" offset="0" stop-opacity="1" />
      <stop stop-color="#ffffff" offset="0.5" stop-opacity="0.608541" />
      <stop stop-color="#ffffff" offset="1" stop-opacity="0" />
    </radialGradient>
    <radialGradient id="defitem23" gradientUnits="userSpaceOnUse" cx="11.6409" cy="22.457" fx="11.7109" fy="20.876" r="7.3624" >
      <stop stop-color="#ffffff" offset="0" stop-opacity="1" />
      <stop stop-color="#ffffff" offset="0.5" stop-opacity="0.608541" />
      <stop stop-color="#ffffff" offset="1" stop-opacity="0" />
    </radialGradient>
    <linearGradient id="defitem24" gradientUnits="userSpaceOnUse" x1="73.7532" y1="28.0134" x2="73.7532" y2="68.8529" >
      <stop stop-color="#70a8f4" offset="0.25" stop-opacity="0.5" />
      <stop stop-color="#0056ae" offset="0.993648" stop-opacity="1" />
    </linearGradient>
  </defs>
  <g id="Layer">
    <g id="Layer">
      <g id="g3658">
        <g id="sombra">
          <path id="path1563" fill="url(#defitem0)" stroke-width="0" stroke-linecap="round" stroke-linejoin="round" d="M128 122.802C128 125.667 99.3468 127.99 64.0002 127.99C28.6539 127.99 0.000171 125.667 0.000171 122.802C0.000171 119.937 28.6539 117.614 64.0002 117.614C99.3468 117.614 128 119.937 128 122.802L128 122.802Z"  />
          <path id="path3251" fill="url(#defitem1)" stroke-width="0" stroke-linecap="round" stroke-linejoin="round" d="M128 122.802L0.00017 122.802C0.00017 125.673 28.6539 128 64.0002 128C99.3468 128 128 125.673 128 122.802L128 122.802Z"  />
          <path id="path2455" fill="url(#defitem2)" stroke-width="0" stroke-linecap="round" stroke-linejoin="round" d="M128 122.802L0.00017 122.802C0.00017 119.697 28.6539 117.18 64.0002 117.18C99.3468 117.18 128 119.697 128 122.802L128 122.802Z"  />
          <path id="path2440" fill="#ffffff" fill-opacity="0.5" stroke-width="0" stroke-linecap="round" stroke-linejoin="round" d="M64 117.184C29.7583 117.184 1.77662 119.526 0.0625 122.496C0.000125 122.59 0 122.714 0 122.809C0 122.988 0.094004 123.134 0.3125 123.309C0.425013 123.402 0.546842 123.499 0.71875 123.59C1.85178 124.191 4.27039 124.763 7.71875 125.278C9.68924 125.572 11.9852 125.833 14.5938 126.09C18.5066 126.474 23.1115 126.81 28.2188 127.09C33.326 127.37 38.9567 127.594 44.9688 127.746C50.9808 127.898 57.3726 127.996 64 127.996C70.6275 127.996 77.0192 127.898 83.0313 127.746C89.0433 127.594 94.6741 127.37 99.7813 127.09C104.888 126.81 109.462 126.474 113.375 126.09C115.984 125.833 118.311 125.572 120.281 125.278C123.73 124.763 126.117 124.191 127.25 123.59C127.422 123.499 127.544 123.402 127.656 123.309C127.766 123.222 127.851 123.147 127.906 123.059C127.962 122.97 128 122.898 128 122.809C128 122.714 127.969 122.59 127.906 122.496C126.192 119.526 98.242 117.184 64 117.184Z"  />
        </g>
      </g>
      <path id="path160" fill="none" stroke="#000000" stroke-width="4" stroke-linecap="round" stroke-linejoin="round" d="M6.38307 112.886C4.95906 112.886 3.80335 111.73 3.80335 110.306L3.80335 21.165C3.80335 19.741 4.95906 18.585 6.38307 18.585L119.772 18.585C121.196 18.585 122.351 19.741 122.351 21.165L122.351 110.306C122.351 111.73 121.196 112.886 119.772 112.886L6.38307 112.886Z"  />
      <g id="g2492">
        <path id="path163" fill="none" stroke="#000000" stroke-opacity="0.15" stroke-width="2.00111" stroke-linecap="round" stroke-linejoin="round" d="M4.86104 114.679C3.37563 114.679 2.17009 113.451 2.17009 111.937L2.17009 17.203C2.17009 15.69 3.37563 14.461 4.86104 14.461L123.139 14.461C124.624 14.461 125.83 15.69 125.83 17.203L125.83 111.937C125.83 113.451 124.624 114.679 123.139 114.679L4.86104 114.679Z"  />
        <path id="path165" fill="url(#defitem3)" stroke-width="2.07707" stroke-linecap="round" stroke-linejoin="round" d="M4.38033 114.85C3.20203 114.85 2.24573 113.831 2.24573 112.576L2.24573 16.854C2.24573 15.599 3.20203 14.581 4.38033 14.581L123.605 14.581C124.784 14.581 125.74 15.599 125.74 16.854L125.74 112.576C125.74 113.831 124.784 114.85 123.605 114.85L4.38033 114.85Z"  />
        <path id="path167" fill="url(#defitem4)" stroke-width="0.906947" stroke-linecap="round" stroke-linejoin="round" d="M4.86104 114.823C3.37563 114.823 2.17009 113.595 2.17009 112.082L2.17009 17.347C2.17009 15.834 3.37563 14.606 4.86104 14.606L123.139 14.606C124.624 14.606 125.83 15.834 125.83 17.347L125.83 112.082C125.83 113.595 124.624 114.823 123.139 114.823L4.86104 114.823Z"  />
        <path id="path169" fill="#ffffff" stroke-width="0.704926" stroke-linecap="round" stroke-linejoin="round" d="M11.7597 108.909C9.33412 108.909 7.36548 106.845 7.36548 104.303L7.36548 41.4924C7.36548 38.9495 9.33412 36.8857 11.7597 36.8857L114.952 36.8857C117.377 36.8857 119.346 38.9495 119.346 41.4924L119.346 104.303C119.346 106.845 117.377 108.909 114.952 108.909L11.7597 108.909Z"  />
      </g>
      <g id="g157">
        <g id="botons">
          <path id="path2958" fill="url(#defitem5)" d="M56.4478 23.829L56.4478 24.139L125.722 24.139L125.722 23.829L56.4478 23.829Z"  fill-rule="evenodd" />
          <path id="path2960" fill="url(#defitem6)" d="M56.4478 24.139L56.4478 24.448L125.722 24.448L125.722 24.139L56.4478 24.139Z"  fill-rule="evenodd" />
          <path id="path2962" fill="url(#defitem7)" stroke-width="4.42661" d="M119.546 24.203C119.546 27.454 116.945 30.0899 113.736 30.0899C110.528 30.0899 107.927 27.454 107.927 24.203C107.927 20.951 110.528 18.316 113.736 18.316C116.945 18.316 119.546 20.951 119.546 24.203Z"  />
          <path id="path2964" fill="#bf0000" stroke-width="3.89462" d="M118.849 24.243C118.849 27.104 116.56 29.423 113.737 29.423C110.914 29.423 108.625 27.104 108.625 24.243C108.625 21.383 110.914 19.064 113.737 19.064C116.56 19.064 118.849 21.383 118.849 24.243Z"  />
          <path id="path2966" fill="url(#defitem8)" stroke-width="2.9195" d="M117.838 22.778C117.838 24.699 116.001 26.257 113.736 26.257C111.471 26.257 109.635 24.699 109.635 22.778C109.635 20.857 111.471 19.299 113.736 19.299C116.001 19.299 117.838 20.857 117.838 22.778Z"  />
          <path id="path2968" fill="url(#defitem9)" stroke-width="2.74901" d="M117.598 22.458C117.598 24.267 115.869 25.733 113.736 25.733C111.603 25.733 109.874 24.267 109.874 22.458C109.874 20.648 111.603 19.182 113.736 19.182C115.869 19.182 117.598 20.648 117.598 22.458Z"  />
          <path id="path2972" fill="url(#defitem10)" stroke-width="4.42661" d="M106.073 24.203C106.073 27.454 103.472 30.0899 100.263 30.0899C97.0548 30.0899 94.4536 27.454 94.4536 24.203C94.4536 20.951 97.0548 18.316 100.263 18.316C103.472 18.316 106.073 20.951 106.073 24.203Z"  />
          <path id="path2974" fill="url(#defitem11)" stroke-width="3.89462" d="M105.376 24.243C105.376 27.104 103.088 29.423 100.265 29.423C97.4416 29.423 95.153 27.104 95.153 24.243C95.153 21.383 97.4416 19.064 100.265 19.064C103.088 19.064 105.376 21.383 105.376 24.243Z"  />
          <path id="path2976" fill="url(#defitem12)" stroke-width="2.9195" d="M104.366 22.778C104.366 24.699 102.529 26.257 100.264 26.257C97.999 26.257 96.1627 24.699 96.1627 22.778C96.1627 20.857 97.999 19.299 100.264 19.299C102.529 19.299 104.366 20.857 104.366 22.778Z"  />
          <path id="path2978" fill="url(#defitem13)" stroke-width="2.74901" d="M104.126 22.458C104.126 24.267 102.396 25.733 100.264 25.733C98.1307 25.733 96.4016 24.267 96.4016 22.458C96.4016 20.648 98.1307 19.182 100.264 19.182C102.396 19.182 104.126 20.648 104.126 22.458Z"  />
          <path id="path2980" fill="url(#defitem14)" stroke-width="4.42661" d="M91.9444 24.203C91.9444 27.454 89.3432 30.0899 86.1345 30.0899C82.9258 30.0899 80.3246 27.454 80.3246 24.203C80.3246 20.951 82.9258 18.316 86.1345 18.316C89.3432 18.316 91.9444 20.951 91.9444 24.203Z"  />
          <path id="path2982" fill="url(#defitem15)" stroke-width="3.89462" d="M91.2471 24.243C91.2471 27.104 88.9585 29.423 86.1354 29.423C83.3123 29.423 81.0237 27.104 81.0237 24.243C81.0237 21.383 83.3123 19.064 86.1354 19.064C88.9585 19.064 91.2471 21.383 91.2471 24.243Z"  />
          <path id="path2984" fill="url(#defitem16)" stroke-width="2.9195" d="M90.2362 22.778C90.2362 24.699 88.3999 26.257 86.1347 26.257C83.8695 26.257 82.0332 24.699 82.0332 22.778C82.0332 20.857 83.8695 19.299 86.1347 19.299C88.3999 19.299 90.2362 20.857 90.2362 22.778Z"  />
          <path id="path2986" fill="url(#defitem17)" stroke-width="2.74901" d="M89.9961 22.458C89.9961 24.267 88.267 25.733 86.1342 25.733C84.0013 25.733 82.2722 24.267 82.2722 22.458C82.2722 20.648 84.0013 19.182 86.1342 19.182C88.267 19.182 89.9961 20.648 89.9961 22.458Z"  />
          <path id="path2397" fill="url(#defitem18)" d="M38.0996 23.829L38.0996 24.139L2.5751 24.139L2.5751 23.829L38.0996 23.829Z"  fill-rule="evenodd" />
          <path id="path2399" fill="url(#defitem19)" d="M38.0996 24.139L38.0996 24.448L2.5751 24.448L2.5751 24.139L38.0996 24.139Z"  fill-rule="evenodd" />
          <path id="path2409" fill="url(#defitem20)" stroke-width="4.42661" d="M17.4504 24.203C17.4504 27.454 14.8492 30.0899 11.6405 30.0899C8.4318 30.0899 5.83059 27.454 5.83059 24.203C5.83059 20.951 8.4318 18.316 11.6405 18.316C14.8492 18.316 17.4504 20.951 17.4504 24.203Z"  />
          <path id="path2411" fill="url(#defitem21)" stroke-width="3.89462" d="M16.7537 24.243C16.7537 27.104 14.4651 29.423 11.642 29.423C8.81893 29.423 6.53034 27.104 6.53034 24.243C6.53034 21.383 8.81893 19.064 11.642 19.064C14.4651 19.064 16.7537 21.383 16.7537 24.243Z"  />
          <path id="path2413" fill="url(#defitem22)" stroke-width="2.9195" d="M15.743 22.778C15.743 24.699 13.9067 26.257 11.6415 26.257C9.37633 26.257 7.54 24.699 7.54 22.778C7.54 20.857 9.37633 19.299 11.6415 19.299C13.9067 19.299 15.743 20.857 15.743 22.778Z"  />
          <path id="path2415" fill="url(#defitem23)" stroke-width="2.74901" d="M15.5028 22.458C15.5028 24.267 13.7737 25.733 11.6409 25.733C9.50801 25.733 7.77894 24.267 7.77894 22.458C7.77894 20.648 9.50801 19.182 11.6409 19.182C13.7737 19.182 15.5028 20.648 15.5028 22.458Z"  />
        </g>
      </g>
      <g id="g180">
        <path id="path192" fill="#111414" stroke-width="3.727" stroke-linecap="round" stroke-linejoin="round" d="M36.2395 90.0596C36.2396 90.3404 36.207 90.5683 36.1667 90.5683L22.3127 90.5738C22.2724 90.5738 22.2396 90.346 22.2395 90.0652L22.2384 87.2818C22.2382 87.0011 22.2709 86.7732 22.3112 86.7732L36.1651 86.7677C36.2054 86.7677 36.2382 86.9955 36.2384 87.2762L36.2395 90.0596Z"  />
        <path id="path194" fill="#111414" stroke-width="3.727" stroke-linecap="round" stroke-linejoin="round" d="M24.5371 90.6863C24.8179 90.6863 25.0456 90.5631 25.0455 90.4114L25.0121 37.1233C25.012 36.9716 24.7841 36.8485 24.5033 36.8486L21.7199 36.8493C21.4392 36.8494 21.2114 36.9726 21.2115 37.1243L21.2449 90.4124C21.245 90.5641 21.473 90.6871 21.7537 90.6871L24.5371 90.6863Z"  />
        <path id="path196" fill="#111414" stroke-width="3.727" stroke-linecap="round" stroke-linejoin="round" d="M36.1121 57.1402C36.1122 57.4209 36.0796 57.6488 36.0393 57.6488L22.1852 57.6544C22.145 57.6544 22.1122 57.4265 22.1121 57.1458L22.111 54.3624C22.1109 54.0816 22.1435 53.8538 22.1837 53.8538L36.0378 53.8482C36.0781 53.8482 36.1109 54.076 36.111 54.3568L36.1121 57.1402Z"  />
      </g>
    </g>
    <g id="g3095">
      <g id="g1359">
        <g id="g1360">
          <path id="path1361" fill="#ffffff" stroke-width="0.313933" d="M102.387 87.9726C102.276 90.1763 103.215 92.8009 101.522 94.6212C99.1898 97.629 95.4104 98.8766 91.9343 100.028C83.3906 102.592 74.3156 102.864 65.4903 101.983C61.2994 101.428 57.1001 100.576 53.1662 99.0002C50.5997 97.8796 47.8122 96.4898 46.4847 93.8851C45.6762 91.8147 46.3904 89.5773 46.5585 87.4598C47.5342 84.5299 50.5366 83.0031 53.1616 81.7939C59.4848 79.2371 66.3616 78.293 73.1451 78.1084C80.6766 78.0699 88.3779 78.6807 95.4329 81.5114C98.0136 82.5859 100.808 84.0442 102.062 86.688C102.232 87.0971 102.343 87.5313 102.387 87.9726Z"  />
          <path id="path1362" fill="#000000" stroke-width="0.00861508" d="M101.578 87.2764C101.598 89.5125 102.295 92.1632 100.584 93.9847C96.8513 97.8247 91.4214 99.1177 86.3559 100.152C76.4692 101.906 66.1334 101.633 56.4801 98.7655C53.2917 97.7174 49.9106 96.2812 47.9213 93.4479C46.8715 91.352 47.3458 88.8745 47.8299 86.6898C48.5518 84.1803 51.0248 82.8988 53.1554 81.7434C57.4474 79.7073 62.1894 78.8503 66.8652 78.2258C75.8339 77.1792 85.0882 77.7528 93.6993 80.5692C96.5682 81.6016 99.5987 83.0638 101.196 85.7892C101.413 86.2553 101.554 86.7611 101.578 87.2764Z"  />
          <path id="path1363" fill="#ffffff" stroke-width="0.313933" d="M74.6302 78.0702C81.0651 78.0188 87.5934 78.8154 93.65 81.0637C95.9747 82.0285 98.4135 83.2824 99.766 85.4966C100.58 87.0599 100.145 88.9776 98.9331 90.2009C97.4178 91.93 95.2401 92.88 93.193 93.8184C87.2011 96.0342 80.7602 96.7706 74.4031 96.8333C67.9659 96.8214 61.428 96.0992 55.3969 93.7409C53.1167 92.7904 50.7263 91.5567 49.416 89.3707C48.5559 87.9238 48.8821 86.0539 50.0439 84.8706C52.0404 82.5938 54.9473 81.4413 57.7326 80.4488C63.2028 78.7735 68.9245 78.1293 74.6302 78.0702Z"  />
        </g>
        <g id="g1364">
          <path id="path1365" fill="#ffffff" stroke-width="0.00861508" d="M106.548 83.8035C106.438 86.0072 107.376 88.6318 105.684 90.4522C103.351 93.4599 99.5716 94.7075 96.0955 95.8589C87.5517 98.4227 78.4768 98.6945 69.6515 97.8134C65.4606 97.2586 61.2613 96.4073 57.3274 94.8312C54.7609 93.7106 51.9734 92.3207 50.6459 89.7161C49.8374 87.6456 50.5516 85.4082 50.7196 83.2907C51.6954 80.3608 54.6978 78.834 57.3228 77.6248C63.646 75.068 70.5228 74.1239 77.3062 73.9393C84.8378 73.9008 92.5391 74.5116 99.5941 77.3424C102.175 78.4168 104.969 79.8752 106.223 82.5189C106.393 82.928 106.504 83.3622 106.548 83.8035Z"  />
          <g id="g1366">
            <path id="path1367" fill="#000000" stroke-width="0.00861508" d="M106.221 82.3053C106.24 84.5414 106.937 87.192 105.226 89.0136C101.494 92.8535 96.0638 94.1466 90.9983 95.1809C81.1116 96.9345 70.7758 96.6614 61.1225 93.7943C57.9341 92.7463 54.553 91.3101 52.5637 88.4767C51.5139 86.3809 51.9882 83.9034 52.4723 81.7187C53.1942 79.2092 55.6672 77.9277 57.7978 76.7722C62.0898 74.7362 66.8318 73.8792 71.5076 73.2547C80.4763 72.208 89.7306 72.7816 98.3418 75.598C101.211 76.6305 104.241 78.0927 105.838 80.818C106.056 81.2842 106.197 81.7899 106.221 82.3053Z"  />
            <path id="path1368" fill="#ffffff" stroke-width="0.00861508" d="M79.2726 73.2594C85.7075 73.208 92.2358 74.0047 98.2924 76.253C100.617 77.2178 103.056 78.4717 104.408 80.6859C105.222 82.2492 104.787 84.1669 103.575 85.3902C102.06 87.1193 99.8825 88.0692 97.8354 89.0076C91.8436 91.2235 85.4026 91.9599 79.0455 92.0226C72.6083 92.0106 66.0705 91.2885 60.0393 88.9302C57.7591 87.9797 55.3687 86.746 54.0585 84.5599C53.1983 83.113 53.5245 81.2432 54.6863 80.0599C56.6828 77.7831 59.5897 76.6306 62.375 75.6381C67.8452 73.9628 73.5669 73.3185 79.2726 73.2594Z"  />
            <path id="path1369" fill="#000000" stroke-width="0.00861508" d="M91.9885 87.4485C90.6605 87.8574 89.2927 88.1202 87.9051 88.2063C86.4044 88.3433 84.9051 88.5071 83.3959 88.4925C81.14 88.5608 78.8873 88.3507 76.638 88.2045C74.2379 88.026 71.8315 87.6141 69.6069 86.6643C68.9564 86.3987 68.2739 86.1998 67.7189 85.7505C66.9806 85.1892 66.3425 84.4992 65.8417 83.7181C64.7361 83.7181 63.6305 83.7181 62.5249 83.7181C62.9551 83.429 63.3409 83.0335 63.7747 82.7791C64.3919 82.7791 65.0091 82.7791 65.6263 82.7791C65.6343 82.342 65.5637 81.8741 65.79 81.4862C65.688 81.2574 65.1708 81.4439 64.9005 81.3835C63.899 81.3835 62.8975 81.3835 61.896 81.3835C62.3033 81.0542 62.7037 80.7168 63.0935 80.3669C64.0986 80.3669 65.1037 80.3669 66.1088 80.3669C66.5252 79.7723 67.0094 79.2239 67.6311 78.8393C68.3662 78.2259 69.216 77.7819 70.1172 77.4669C71.3542 76.9895 72.6674 76.7445 73.9483 76.4119C75.3327 76.137 76.7433 76.0188 78.1481 75.9057C79.6505 75.86 81.152 75.741 82.654 75.7247C84.4602 75.7798 86.2724 75.7984 88.0704 75.9821C89.0761 76.1382 90.1012 76.1974 91.0941 76.4166C91.4067 76.5031 91.8719 76.5114 91.5572 76.9188C91.3847 77.126 91.501 77.7318 91.1275 77.5831C88.9331 77.1667 86.6911 77.0768 84.4633 77.1767C82.5177 77.2218 80.5634 77.4108 78.6837 77.9342C77.7676 78.1654 76.9248 78.6155 76.094 79.0532C75.6148 79.3452 75.2356 79.7515 74.9008 80.1934C74.5057 80.5082 75.6744 80.4204 75.4736 80.3669C77.9161 80.3576 80.3594 80.3988 82.8006 80.3152C84.2321 80.3152 85.6636 80.3152 87.0951 80.3152C86.7072 80.6197 86.3372 80.9447 85.9838 81.2887C82.0926 81.2887 78.2015 81.2887 74.3103 81.2887C74.1714 81.7253 74.0433 82.2213 74.1639 82.677C74.3943 82.7744 74.8056 82.691 75.1057 82.7188C78.0885 82.7188 81.0712 82.7188 84.054 82.7188C83.6303 83.0136 83.2398 83.3994 82.8042 83.6492C80.7187 83.6137 78.6362 83.7553 76.5508 83.7181C75.8039 83.7181 75.0571 83.7181 74.3103 83.7181C74.9911 84.5478 75.8531 85.2263 76.8501 85.6322C78.4242 86.2353 80.1028 86.5166 81.7639 86.761C83.9824 86.9421 86.2109 86.969 88.4328 86.8333C89.5161 86.8022 90.5872 86.6037 91.6266 86.3027C91.7777 86.6763 91.9005 87.0548 91.9885 87.4485Z"  />
          </g>
        </g>
      </g>
      <g id="g22300">
        <path fill="url(#defitem24)" stroke="#0000ff" stroke-width="0.5" d="M42.0575 68.2547L42.0575 38.9974L111.213 38.9974L111.213 68.2547L42.0575 68.2547Z"  fill-rule="evenodd" />
        <path id="text22193" fill="#000000" d="M44.7527 41.6767C44.8712 41.6767 44.961 41.6506 45.0222 41.5986C45.0834 41.5465 45.114 41.4697 45.114 41.3681C45.114 41.2678 45.0834 41.1917 45.0222 41.1396C44.961 41.0862 44.8712 41.0595 44.7527 41.0595L44.3367 41.0595L44.3367 41.6767L44.7527 41.6767M44.7781 42.9521C44.9291 42.9521 45.0424 42.9202 45.1179 42.8564C45.1947 42.7926 45.2331 42.6962 45.2332 42.5673C45.2331 42.441 45.1954 42.3466 45.1199 42.2841C45.0443 42.2203 44.9304 42.1884 44.7781 42.1884L44.3367 42.1884L44.3367 42.9521L44.7781 42.9521M45.4773 41.9032C45.6387 41.9501 45.7637 42.0367 45.8523 42.163C45.9408 42.2893 45.9851 42.4443 45.9851 42.6279C45.9851 42.9091 45.89 43.1187 45.6999 43.2568C45.5098 43.3948 45.2208 43.4638 44.8328 43.4638L43.5847 43.4638L43.5847 40.5478L44.7136 40.5478C45.1186 40.5478 45.4115 40.609 45.5925 40.7314C45.7748 40.8538 45.866 41.0497 45.866 41.3193C45.866 41.4612 45.8328 41.5823 45.7664 41.6825C45.6999 41.7815 45.6036 41.8551 45.4773 41.9032M47.5808 42.4794C47.435 42.4794 47.3249 42.5042 47.2507 42.5536C47.1778 42.6031 47.1414 42.676 47.1414 42.7724C47.1414 42.8609 47.1706 42.9306 47.2292 42.9814C47.2891 43.0308 47.3718 43.0556 47.4773 43.0556C47.6088 43.0556 47.7195 43.0087 47.8093 42.915C47.8992 42.8199 47.9441 42.7014 47.9441 42.5595L47.9441 42.4794L47.5808 42.4794M48.6492 42.2157L48.6492 43.4638L47.9441 43.4638L47.9441 43.1396C47.8503 43.2724 47.7449 43.3694 47.6277 43.4306C47.5105 43.4905 47.3679 43.5204 47.1999 43.5204C46.9734 43.5204 46.7891 43.4547 46.6472 43.3232C46.5066 43.1904 46.4363 43.0185 46.4363 42.8075C46.4363 42.551 46.5242 42.3629 46.6999 42.2431C46.877 42.1233 47.1544 42.0634 47.532 42.0634L47.9441 42.0634L47.9441 42.0087C47.9441 41.898 47.9005 41.8173 47.8132 41.7665C47.726 41.7144 47.5899 41.6884 47.405 41.6884C47.2553 41.6884 47.116 41.7034 46.9871 41.7333C46.8582 41.7633 46.7384 41.8082 46.6277 41.8681L46.6277 41.3349C46.7774 41.2984 46.9278 41.2711 47.0789 41.2529C47.2299 41.2333 47.3809 41.2236 47.532 41.2236C47.9265 41.2236 48.211 41.3017 48.3855 41.4579C48.5613 41.6129 48.6492 41.8655 48.6492 42.2157M51.5027 42.1318L51.5027 43.4638L50.7996 43.4638L50.7996 43.247L50.7996 42.4443C50.7996 42.2555 50.795 42.1253 50.7859 42.0536C50.7781 41.982 50.7637 41.9293 50.7429 41.8954C50.7156 41.8499 50.6785 41.8147 50.6316 41.79C50.5847 41.7639 50.5313 41.7509 50.4714 41.7509C50.3256 41.7509 50.211 41.8075 50.1277 41.9208C50.0443 42.0328 50.0027 42.1884 50.0027 42.3876L50.0027 43.4638L49.3035 43.4638L49.3035 41.2763L50.0027 41.2763L50.0027 41.5966C50.1081 41.469 50.2201 41.3753 50.3386 41.3154C50.4571 41.2542 50.588 41.2236 50.7312 41.2236C50.9838 41.2236 51.1752 41.301 51.3054 41.456C51.4369 41.6109 51.5027 41.8362 51.5027 42.1318M53.9226 41.3447L53.9226 41.915C53.8275 41.8499 53.7318 41.8017 53.6355 41.7704C53.5404 41.7392 53.4415 41.7236 53.3386 41.7236C53.1433 41.7236 52.991 41.7809 52.8816 41.8954C52.7735 42.0087 52.7195 42.1676 52.7195 42.372C52.7195 42.5764 52.7735 42.7359 52.8816 42.8505C52.991 42.9638 53.1433 43.0204 53.3386 43.0204C53.448 43.0204 53.5515 43.0042 53.6492 42.9716C53.7481 42.9391 53.8393 42.8909 53.9226 42.8271L53.9226 43.3993C53.8132 43.4397 53.7019 43.4697 53.5886 43.4892C53.4766 43.51 53.364 43.5204 53.2507 43.5204C52.8562 43.5204 52.5476 43.4195 52.3249 43.2177C52.1023 43.0146 51.991 42.7327 51.991 42.372C51.991 42.0113 52.1023 41.7301 52.3249 41.5282C52.5476 41.3251 52.8562 41.2236 53.2507 41.2236C53.3653 41.2236 53.4779 41.234 53.5886 41.2548C53.7006 41.2743 53.8119 41.3043 53.9226 41.3447M57.4089 41.5966L57.4089 40.4247L58.1121 40.4247L58.1121 43.4638L57.4089 43.4638L57.4089 43.1474C57.3126 43.2763 57.2065 43.3707 57.0906 43.4306C56.9747 43.4905 56.8406 43.5204 56.6882 43.5204C56.4187 43.5204 56.1973 43.4137 56.0242 43.2001C55.851 42.9853 55.7644 42.7092 55.7644 42.372C55.7644 42.0348 55.851 41.7594 56.0242 41.5458C56.1973 41.331 56.4187 41.2236 56.6882 41.2236C56.8393 41.2236 56.9727 41.2542 57.0886 41.3154C57.2058 41.3753 57.3126 41.469 57.4089 41.5966M56.948 43.0126C57.0977 43.0126 57.2117 42.9579 57.2898 42.8486C57.3692 42.7392 57.4089 42.5803 57.4089 42.372C57.4089 42.1637 57.3692 42.0048 57.2898 41.8954C57.2117 41.7861 57.0977 41.7314 56.948 41.7314C56.7996 41.7314 56.6856 41.7861 56.6062 41.8954C56.5281 42.0048 56.489 42.1637 56.489 42.372C56.489 42.5803 56.5281 42.7392 56.6062 42.8486C56.6856 42.9579 56.7996 43.0126 56.948 43.0126M59.2957 40.5478L59.2957 41.6318L58.8328 41.6318L58.8328 40.5478L59.2957 40.5478M60.0457 40.5478L62.0749 40.5478L62.0749 41.1161L60.7976 41.1161L60.7976 41.6591L61.9988 41.6591L61.9988 42.2275L60.7976 42.2275L60.7976 42.8954L62.1179 42.8954L62.1179 43.4638L60.0457 43.4638L60.0457 40.5478M62.7253 42.6122L62.7253 41.2763L63.4285 41.2763L63.4285 41.495C63.4285 41.6135 63.4278 41.7626 63.4265 41.9423C63.4252 42.1207 63.4246 42.2398 63.4246 42.2997C63.4246 42.4755 63.4291 42.6025 63.4382 42.6806C63.4473 42.7574 63.463 42.8134 63.4851 42.8486C63.5137 42.8941 63.5509 42.9293 63.5964 42.954C63.6433 42.9788 63.6967 42.9911 63.7566 42.9911C63.9024 42.9911 64.017 42.9351 64.1003 42.8232C64.1837 42.7112 64.2253 42.5556 64.2253 42.3564L64.2253 41.2763L64.9246 41.2763L64.9246 43.4638L64.2253 43.4638L64.2253 43.1474C64.1199 43.275 64.0079 43.3694 63.8894 43.4306C63.7722 43.4905 63.6427 43.5204 63.5007 43.5204C63.2481 43.5204 63.0554 43.443 62.9226 43.288C62.7911 43.1331 62.7253 42.9078 62.7253 42.6122M67.2253 41.872C67.1641 41.8434 67.1029 41.8225 67.0417 41.8095C66.9818 41.7952 66.9213 41.788 66.8601 41.788C66.6804 41.788 66.5417 41.846 66.4441 41.9618C66.3477 42.0764 66.2996 42.2411 66.2996 42.456L66.2996 43.4638L65.6003 43.4638L65.6003 41.2763L66.2996 41.2763L66.2996 41.6357C66.3894 41.4924 66.4923 41.3883 66.6082 41.3232C66.7253 41.2568 66.8653 41.2236 67.0281 41.2236C67.0515 41.2236 67.0769 41.2249 67.1042 41.2275C67.1316 41.2288 67.1713 41.2327 67.2234 41.2392L67.2253 41.872M68.6179 41.7236C68.463 41.7236 68.3445 41.7795 68.2624 41.8915C68.1817 42.0022 68.1414 42.1624 68.1414 42.372C68.1414 42.5816 68.1817 42.7424 68.2624 42.8544C68.3445 42.9651 68.463 43.0204 68.6179 43.0204C68.7703 43.0204 68.8868 42.9651 68.9675 42.8544C69.0483 42.7424 69.0886 42.5816 69.0886 42.372C69.0886 42.1624 69.0483 42.0022 68.9675 41.8915C68.8868 41.7795 68.7703 41.7236 68.6179 41.7236M68.6179 41.2236C68.9942 41.2236 69.2878 41.3251 69.4988 41.5282C69.711 41.7314 69.8171 42.0126 69.8171 42.372C69.8171 42.7314 69.711 43.0126 69.4988 43.2157C69.2878 43.4189 68.9942 43.5204 68.6179 43.5204C68.2403 43.5204 67.9447 43.4189 67.7312 43.2157C67.519 43.0126 67.4128 42.7314 67.4128 42.372C67.4128 42.0126 67.519 41.7314 67.7312 41.5282C67.9447 41.3251 68.2403 41.2236 68.6179 41.2236M71.0261 43.1474L71.0261 44.2958L70.3269 44.2958L70.3269 41.2763L71.0261 41.2763L71.0261 41.5966C71.1225 41.469 71.2292 41.3753 71.3464 41.3154C71.4636 41.2542 71.5984 41.2236 71.7507 41.2236C72.0203 41.2236 72.2416 41.331 72.4148 41.5458C72.588 41.7594 72.6746 42.0348 72.6746 42.372C72.6746 42.7092 72.588 42.9853 72.4148 43.2001C72.2416 43.4137 72.0203 43.5204 71.7507 43.5204C71.5984 43.5204 71.4636 43.4905 71.3464 43.4306C71.2292 43.3694 71.1225 43.275 71.0261 43.1474M71.491 41.7314C71.3412 41.7314 71.226 41.7867 71.1453 41.8974C71.0658 42.0068 71.0261 42.165 71.0261 42.372C71.0261 42.579 71.0658 42.7379 71.1453 42.8486C71.226 42.9579 71.3412 43.0126 71.491 43.0126C71.6407 43.0126 71.7546 42.9579 71.8328 42.8486C71.9122 42.7392 71.9519 42.5803 71.9519 42.372C71.9519 42.1637 71.9122 42.0048 71.8328 41.8954C71.7546 41.7861 71.6407 41.7314 71.491 41.7314M74.1746 42.4794C74.0287 42.4794 73.9187 42.5042 73.8445 42.5536C73.7716 42.6031 73.7351 42.676 73.7351 42.7724C73.7351 42.8609 73.7644 42.9306 73.823 42.9814C73.8829 43.0308 73.9656 43.0556 74.071 43.0556C74.2026 43.0556 74.3132 43.0087 74.4031 42.915C74.4929 42.8199 74.5378 42.7014 74.5378 42.5595L74.5378 42.4794L74.1746 42.4794M75.2429 42.2157L75.2429 43.4638L74.5378 43.4638L74.5378 43.1396C74.4441 43.2724 74.3386 43.3694 74.2214 43.4306C74.1042 43.4905 73.9617 43.5204 73.7937 43.5204C73.5671 43.5204 73.3829 43.4547 73.241 43.3232C73.1003 43.1904 73.03 43.0185 73.03 42.8075C73.03 42.551 73.1179 42.3629 73.2937 42.2431C73.4708 42.1233 73.7481 42.0634 74.1257 42.0634L74.5378 42.0634L74.5378 42.0087C74.5378 41.898 74.4942 41.8173 74.407 41.7665C74.3197 41.7144 74.1837 41.6884 73.9988 41.6884C73.849 41.6884 73.7097 41.7034 73.5808 41.7333C73.4519 41.7633 73.3321 41.8082 73.2214 41.8681L73.2214 41.3349C73.3712 41.2984 73.5216 41.2711 73.6726 41.2529C73.8236 41.2333 73.9747 41.2236 74.1257 41.2236C74.5203 41.2236 74.8048 41.3017 74.9792 41.4579C75.155 41.6129 75.2429 41.8655 75.2429 42.2157"  />
        <path id="text22197" fill="#000000" d="M88.3122 43.086C88.1885 43.1577 88.0589 43.2117 87.9235 43.2482C87.7894 43.2846 87.6494 43.3028 87.5036 43.3028C87.1625 43.3028 86.8747 43.2182 86.6403 43.0489C86.4073 42.8784 86.2419 42.6336 86.1442 42.3146L85.7204 42.3146L85.8923 41.9337L86.0837 41.9337C86.0824 41.9155 86.0811 41.8966 86.0798 41.8771C86.0798 41.8562 86.0798 41.8276 86.0798 41.7911C86.0798 41.7534 86.0798 41.7241 86.0798 41.7032C86.0811 41.6824 86.0824 41.6622 86.0837 41.6427L85.7204 41.6427L85.8923 41.2618L86.1442 41.2618C86.2445 40.9415 86.4105 40.6974 86.6423 40.5294C86.8754 40.3614 87.1625 40.2775 87.5036 40.2774C87.6494 40.2775 87.7894 40.2957 87.9235 40.3321C88.0589 40.3686 88.1885 40.4226 88.3122 40.4942L88.3122 41.0978C88.2067 40.9962 88.0941 40.92 87.9743 40.8692C87.8545 40.8172 87.7302 40.7911 87.6013 40.7911C87.4359 40.7911 87.2946 40.8315 87.1774 40.9122C87.0616 40.9916 86.9743 41.1082 86.9157 41.2618L87.9685 41.2618L87.8005 41.6427L86.8376 41.6427C86.835 41.6635 86.833 41.6857 86.8317 41.7091C86.8317 41.7325 86.8317 41.7677 86.8317 41.8146C86.8317 41.8315 86.8317 41.8504 86.8317 41.8712C86.833 41.8907 86.8343 41.9116 86.8356 41.9337L87.6735 41.9337L87.4997 42.3146L86.9157 42.3146C86.9808 42.4734 87.07 42.5926 87.1833 42.672C87.2979 42.7514 87.4372 42.7911 87.6013 42.7911C87.7302 42.7911 87.8532 42.7657 87.9704 42.7149C88.0889 42.6629 88.2028 42.5854 88.3122 42.4825L88.3122 43.086M90.5778 43.8185L90.5778 44.1896L88.5778 44.1896L88.5778 43.8185L90.5778 43.8185M92.5778 43.8185L92.5778 44.1896L90.5778 44.1896L90.5778 43.8185L92.5778 43.8185M94.5778 43.8185L94.5778 44.1896L92.5778 44.1896L92.5778 43.8185L94.5778 43.8185M96.5778 43.8185L96.5778 44.1896L94.5778 44.1896L94.5778 43.8185L96.5778 43.8185M98.5778 43.8185L98.5778 44.1896L96.5778 44.1896L96.5778 43.8185L98.5778 43.8185M100.578 43.8185L100.578 44.1896L98.5778 44.1896L98.5778 43.8185L100.578 43.8185M102.578 43.8185L102.578 44.1896L100.578 44.1896L100.578 43.8185L102.578 43.8185M104.578 43.8185L104.578 44.1896L102.578 44.1896L102.578 43.8185L104.578 43.8185M106.578 43.8185L106.578 44.1896L104.578 44.1896L104.578 43.8185L106.578 43.8185M108.578 43.8185L108.578 44.1896L106.578 44.1896L106.578 43.8185L108.578 43.8185"  />
        <path id="text22201" fill="#000000" d="M43.595 47.3729L43.973 47.3729L44.3597 48.449L44.7454 47.3729L45.1233 47.3729L44.5833 48.8309L44.1351 48.8309L43.595 47.3729M46.2825 48.2811L46.2825 48.3807L45.4651 48.3807C45.4736 48.4627 45.5032 48.5242 45.554 48.5652C45.6048 48.6063 45.6758 48.6268 45.7669 48.6268C45.8405 48.6268 45.9157 48.616 45.9925 48.5945C46.07 48.5724 46.1494 48.5392 46.2308 48.4949L46.2308 48.7645C46.1481 48.7957 46.0654 48.8191 45.9827 48.8348C45.9 48.851 45.8174 48.8592 45.7347 48.8592C45.5368 48.8592 45.3828 48.8091 45.2728 48.7088C45.1634 48.6079 45.1087 48.4666 45.1087 48.285C45.1087 48.1066 45.1624 47.9663 45.2698 47.8641C45.3779 47.7619 45.5263 47.7107 45.7151 47.7107C45.887 47.7107 46.0244 47.7625 46.1273 47.866C46.2308 47.9695 46.2825 48.1079 46.2825 48.2811M45.9232 48.1648C45.9232 48.0984 45.9036 48.0451 45.8646 48.0047C45.8261 47.9637 45.7757 47.9432 45.7132 47.9432C45.6455 47.9432 45.5905 47.9624 45.5482 48.0008C45.5058 48.0385 45.4795 48.0932 45.4691 48.1648L45.9232 48.1648M47.6458 48.1648L47.6458 48.8309L47.2942 48.8309L47.2942 48.7225L47.2942 48.3211C47.2942 48.2267 47.292 48.1616 47.2874 48.1258C47.2835 48.09 47.2763 48.0636 47.2659 48.0467C47.2523 48.0239 47.2337 48.0063 47.2103 47.9939C47.1868 47.9809 47.1601 47.9744 47.1302 47.9744C47.0573 47.9744 47 48.0027 46.9583 48.0594C46.9166 48.1154 46.8958 48.1932 46.8958 48.2928L46.8958 48.8309L46.5462 48.8309L46.5462 47.7371L46.8958 47.7371L46.8958 47.8973C46.9485 47.8335 47.0045 47.7866 47.0638 47.7566C47.123 47.726 47.1885 47.7107 47.2601 47.7107C47.3864 47.7107 47.4821 47.7495 47.5472 47.827C47.6129 47.9044 47.6458 48.0171 47.6458 48.1648M48.8558 47.7713L48.8558 48.0564C48.8082 48.0239 48.7604 47.9998 48.7122 47.9842C48.6647 47.9686 48.6152 47.9607 48.5638 47.9607C48.4661 47.9607 48.3899 47.9894 48.3353 48.0467C48.2812 48.1033 48.2542 48.1827 48.2542 48.285C48.2542 48.3872 48.2812 48.4669 48.3353 48.5242C48.3899 48.5809 48.4661 48.6092 48.5638 48.6092C48.6185 48.6092 48.6702 48.601 48.7191 48.5848C48.7685 48.5685 48.8141 48.5444 48.8558 48.5125L48.8558 48.7986C48.8011 48.8188 48.7454 48.8338 48.6888 48.8436C48.6328 48.854 48.5765 48.8592 48.5198 48.8592C48.3226 48.8592 48.1683 48.8087 48.0569 48.7078C47.9456 48.6063 47.8899 48.4653 47.89 48.285C47.8899 48.1046 47.9456 47.964 48.0569 47.8631C48.1683 47.7615 48.3226 47.7107 48.5198 47.7107C48.5771 47.7107 48.6334 47.716 48.6888 47.7264C48.7448 47.7361 48.8004 47.7511 48.8558 47.7713M49.1595 47.7371L49.5091 47.7371L49.5091 48.8309L49.1595 48.8309L49.1595 47.7371M49.1595 47.3113L49.5091 47.3113L49.5091 47.5965L49.1595 47.5965L49.1595 47.3113M50.8607 47.9188C50.9049 47.851 50.9573 47.7996 51.0179 47.7645C51.0791 47.7286 51.1461 47.7107 51.2191 47.7107C51.3447 47.7107 51.4404 47.7495 51.5062 47.827C51.5719 47.9044 51.6048 48.0171 51.6048 48.1648L51.6048 48.8309L51.2532 48.8309L51.2532 48.2605C51.2539 48.2521 51.2542 48.2433 51.2542 48.2342C51.2549 48.2251 51.2552 48.212 51.2552 48.1951C51.2552 48.1176 51.2438 48.0617 51.221 48.0272C51.1982 47.992 51.1614 47.9744 51.1107 47.9744C51.0442 47.9744 50.9928 48.0018 50.9564 48.0564C50.9205 48.1111 50.902 48.1902 50.9007 48.2938L50.9007 48.8309L50.5491 48.8309L50.5491 48.2605C50.5491 48.1395 50.5387 48.0617 50.5179 48.0272C50.497 47.992 50.4599 47.9744 50.4066 47.9744C50.3395 47.9744 50.2877 48.0021 50.2513 48.0574C50.2148 48.1121 50.1966 48.1906 50.1966 48.2928L50.1966 48.8309L49.845 48.8309L49.845 47.7371L50.1966 47.7371L50.1966 47.8973C50.2396 47.8354 50.2887 47.7889 50.3441 47.7576C50.4 47.7264 50.4616 47.7107 50.5286 47.7107C50.6041 47.7107 50.6709 47.729 50.7288 47.7654C50.7868 47.8019 50.8307 47.853 50.8607 47.9188M53.0247 48.2811L53.0247 48.3807L52.2073 48.3807C52.2158 48.4627 52.2454 48.5242 52.2962 48.5652C52.347 48.6063 52.4179 48.6268 52.5091 48.6268C52.5827 48.6268 52.6579 48.616 52.7347 48.5945C52.8121 48.5724 52.8916 48.5392 52.973 48.4949L52.973 48.7645C52.8903 48.7957 52.8076 48.8191 52.7249 48.8348C52.6422 48.851 52.5595 48.8592 52.4769 48.8592C52.2789 48.8592 52.125 48.8091 52.015 48.7088C51.9056 48.6079 51.8509 48.4666 51.8509 48.285C51.8509 48.1066 51.9046 47.9663 52.012 47.8641C52.1201 47.7619 52.2685 47.7107 52.4573 47.7107C52.6292 47.7107 52.7666 47.7625 52.8694 47.866C52.973 47.9695 53.0247 48.1079 53.0247 48.2811M52.6653 48.1648C52.6653 48.0984 52.6458 48.0451 52.6067 48.0047C52.5683 47.9637 52.5179 47.9432 52.4554 47.9432C52.3877 47.9432 52.3327 47.9624 52.2903 48.0008C52.248 48.0385 52.2217 48.0932 52.2112 48.1648L52.6653 48.1648M54.388 48.1648L54.388 48.8309L54.0364 48.8309L54.0364 48.7225L54.0364 48.3211C54.0364 48.2267 54.0342 48.1616 54.0296 48.1258C54.0257 48.09 54.0185 48.0636 54.0081 48.0467C53.9944 48.0239 53.9759 48.0063 53.9525 47.9939C53.929 47.9809 53.9023 47.9744 53.8724 47.9744C53.7995 47.9744 53.7422 48.0027 53.7005 48.0594C53.6588 48.1154 53.638 48.1932 53.638 48.2928L53.638 48.8309L53.2884 48.8309L53.2884 47.7371L53.638 47.7371L53.638 47.8973C53.6907 47.8335 53.7467 47.7866 53.806 47.7566C53.8652 47.726 53.9306 47.7107 54.0023 47.7107C54.1286 47.7107 54.2243 47.7495 54.2894 47.827C54.3551 47.9044 54.388 48.0171 54.388 48.1648M55.096 47.4266L55.096 47.7371L55.4564 47.7371L55.4564 47.9871L55.096 47.9871L55.096 48.451C55.096 48.5018 55.1061 48.5363 55.1263 48.5545C55.1465 48.5721 55.1865 48.5809 55.2464 48.5809L55.4261 48.5809L55.4261 48.8309L55.1263 48.8309C54.9883 48.8309 54.8903 48.8022 54.8323 48.7449C54.775 48.687 54.7464 48.589 54.7464 48.451L54.7464 47.9871L54.5726 47.9871L54.5726 47.7371L54.7464 47.7371L54.7464 47.4266L55.096 47.4266M56.5032 49.117L56.5032 49.3025L55.5032 49.3025L55.5032 49.117L56.5032 49.117M57.5032 49.117L57.5032 49.3025L56.5032 49.3025L56.5032 49.117L57.5032 49.117M58.5032 49.117L58.5032 49.3025L57.5032 49.3025L57.5032 49.117L58.5032 49.117M59.5032 49.117L59.5032 49.3025L58.5032 49.3025L58.5032 49.117L59.5032 49.117M60.5032 49.117L60.5032 49.3025L59.5032 49.3025L59.5032 49.117L60.5032 49.117M61.5032 49.117L61.5032 49.3025L60.5032 49.3025L60.5032 49.117L61.5032 49.117M62.5032 49.117L62.5032 49.3025L61.5032 49.3025L61.5032 49.117L62.5032 49.117M63.5032 49.117L63.5032 49.3025L62.5032 49.3025L62.5032 49.117L63.5032 49.117M64.5032 49.117L64.5032 49.3025L63.5032 49.3025L63.5032 49.117L64.5032 49.117M65.5032 49.117L65.5032 49.3025L64.5032 49.3025L64.5032 49.117L65.5032 49.117M66.5032 49.117L66.5032 49.3025L65.5032 49.3025L65.5032 49.117L66.5032 49.117M67.5032 49.117L67.5032 49.3025L66.5032 49.3025L66.5032 49.117L67.5032 49.117M68.5032 49.117L68.5032 49.3025L67.5032 49.3025L67.5032 49.117L68.5032 49.117M69.5032 49.117L69.5032 49.3025L68.5032 49.3025L68.5032 49.117L69.5032 49.117M70.5032 49.117L70.5032 49.3025L69.5032 49.3025L69.5032 49.117L70.5032 49.117M71.5032 49.117L71.5032 49.3025L70.5032 49.3025L70.5032 49.117L71.5032 49.117M72.5032 49.117L72.5032 49.3025L71.5032 49.3025L71.5032 49.117L72.5032 49.117M73.5032 49.117L73.5032 49.3025L72.5032 49.3025L72.5032 49.117L73.5032 49.117M74.5032 49.117L74.5032 49.3025L73.5032 49.3025L73.5032 49.117L74.5032 49.117M75.5032 49.117L75.5032 49.3025L74.5032 49.3025L74.5032 49.117L75.5032 49.117"  />
        <path id="text22205" fill="#000000" d="M43.6574 52.1393L44.2815 52.1393C44.467 52.1393 44.6093 52.1807 44.7082 52.2634C44.8078 52.3454 44.8576 52.4626 44.8576 52.6149C44.8576 52.7679 44.8078 52.8858 44.7082 52.9684C44.6093 53.0505 44.467 53.0915 44.2815 53.0915L44.0334 53.0915L44.0334 53.5974L43.6574 53.5974L43.6574 52.1393M44.0334 52.4118L44.0334 52.819L44.2414 52.819C44.3143 52.819 44.3706 52.8015 44.4104 52.7663C44.4501 52.7305 44.4699 52.68 44.4699 52.6149C44.4699 52.5498 44.4501 52.4997 44.4104 52.4645C44.3706 52.4294 44.3143 52.4118 44.2414 52.4118L44.0334 52.4118M45.5422 53.1052C45.4693 53.1052 45.4143 53.1175 45.3772 53.1423C45.3407 53.167 45.3225 53.2035 45.3225 53.2516C45.3225 53.2959 45.3371 53.3308 45.3664 53.3561C45.3964 53.3809 45.4377 53.3933 45.4904 53.3933C45.5562 53.3933 45.6115 53.3698 45.6565 53.3229C45.7014 53.2754 45.7238 53.2162 45.7238 53.1452L45.7238 53.1052L45.5422 53.1052M46.0764 52.9733L46.0764 53.5974L45.7238 53.5974L45.7238 53.4352C45.677 53.5016 45.6242 53.5502 45.5656 53.5808C45.507 53.6107 45.4358 53.6257 45.3518 53.6257C45.2385 53.6257 45.1464 53.5928 45.0754 53.527C45.0051 53.4606 44.9699 53.3747 44.9699 53.2692C44.9699 53.141 45.0139 53.0469 45.1018 52.987C45.1903 52.9271 45.329 52.8972 45.5178 52.8972L45.7238 52.8972L45.7238 52.8698C45.7238 52.8145 45.702 52.7741 45.6584 52.7487C45.6148 52.7227 45.5468 52.7097 45.4543 52.7097C45.3794 52.7097 45.3098 52.7171 45.2453 52.7321C45.1809 52.7471 45.121 52.7696 45.0656 52.7995L45.0656 52.5329C45.1405 52.5147 45.2157 52.501 45.2912 52.4919C45.3667 52.4821 45.4423 52.4772 45.5178 52.4772C45.715 52.4772 45.8573 52.5163 45.9445 52.5944C46.0324 52.6719 46.0764 52.7982 46.0764 52.9733M47.1477 53.4118C47.0995 53.4756 47.0464 53.5225 46.9885 53.5524C46.9305 53.5824 46.8635 53.5974 46.7873 53.5974C46.6539 53.5974 46.5435 53.5449 46.4563 53.4401C46.369 53.3347 46.3254 53.2005 46.3254 53.0378C46.3254 52.8744 46.369 52.7406 46.4563 52.6364C46.5435 52.5316 46.6539 52.4792 46.7873 52.4792C46.8635 52.4792 46.9305 52.4942 46.9885 52.5241C47.0464 52.5541 47.0995 52.6013 47.1477 52.6657L47.1477 52.5036L47.4992 52.5036L47.4992 53.487C47.4992 53.6628 47.4436 53.7969 47.3322 53.8893C47.2216 53.9824 47.0608 54.029 46.8498 54.029C46.7815 54.029 46.7154 54.0238 46.6516 54.0134C46.5878 54.003 46.5236 53.987 46.4592 53.9655L46.4592 53.6931C46.5204 53.7282 46.5803 53.7543 46.6389 53.7712C46.6975 53.7888 46.7564 53.7975 46.8156 53.7975C46.9302 53.7975 47.0142 53.7725 47.0676 53.7224C47.121 53.6722 47.1477 53.5938 47.1477 53.487L47.1477 53.4118M46.9172 52.7311C46.8449 52.7311 46.7886 52.7578 46.7483 52.8112C46.7079 52.8646 46.6877 52.9401 46.6877 53.0378C46.6877 53.138 46.7072 53.2142 46.7463 53.2663C46.7854 53.3177 46.8423 53.3434 46.9172 53.3434C46.9901 53.3434 47.0468 53.3168 47.0871 53.2634C47.1275 53.21 47.1477 53.1348 47.1477 53.0378C47.1477 52.9401 47.1275 52.8646 47.0871 52.8112C47.0468 52.7578 46.9901 52.7311 46.9172 52.7311M48.3274 53.1052C48.2544 53.1052 48.1994 53.1175 48.1623 53.1423C48.1259 53.167 48.1076 53.2035 48.1076 53.2516C48.1076 53.2959 48.1223 53.3308 48.1516 53.3561C48.1815 53.3809 48.2229 53.3933 48.2756 53.3933C48.3414 53.3933 48.3967 53.3698 48.4416 53.3229C48.4865 53.2754 48.509 53.2162 48.509 53.1452L48.509 53.1052L48.3274 53.1052M48.8615 52.9733L48.8615 53.5974L48.509 53.5974L48.509 53.4352C48.4621 53.5016 48.4094 53.5502 48.3508 53.5808C48.2922 53.6107 48.2209 53.6257 48.1369 53.6257C48.0236 53.6257 47.9315 53.5928 47.8606 53.527C47.7902 53.4606 47.7551 53.3747 47.7551 53.2692C47.7551 53.141 47.799 53.0469 47.8869 52.987C47.9755 52.9271 48.1141 52.8972 48.3029 52.8972L48.509 52.8972L48.509 52.8698C48.509 52.8145 48.4872 52.7741 48.4436 52.7487C48.3999 52.7227 48.3319 52.7097 48.2395 52.7097C48.1646 52.7097 48.0949 52.7171 48.0305 52.7321C47.966 52.7471 47.9061 52.7696 47.8508 52.7995L47.8508 52.5329C47.9257 52.5147 48.0009 52.501 48.0764 52.4919C48.1519 52.4821 48.2274 52.4772 48.3029 52.4772C48.5002 52.4772 48.6425 52.5163 48.7297 52.5944C48.8176 52.6719 48.8615 52.7982 48.8615 52.9733M50.0012 52.8015C49.9706 52.7871 49.94 52.7767 49.9094 52.7702C49.8794 52.763 49.8492 52.7595 49.8186 52.7595C49.7287 52.7595 49.6594 52.7884 49.6106 52.8464C49.5624 52.9037 49.5383 52.986 49.5383 53.0934L49.5383 53.5974L49.1887 53.5974L49.1887 52.5036L49.5383 52.5036L49.5383 52.6833C49.5832 52.6117 49.6346 52.5596 49.6926 52.527C49.7512 52.4938 49.8212 52.4772 49.9026 52.4772C49.9143 52.4772 49.927 52.4779 49.9406 52.4792C49.9543 52.4798 49.9742 52.4818 50.0002 52.485L50.0012 52.8015M51.2688 53.0475L51.2688 53.1472L50.4514 53.1472C50.4598 53.2292 50.4895 53.2907 50.5402 53.3317C50.591 53.3727 50.662 53.3933 50.7531 53.3933C50.8267 53.3933 50.9019 53.3825 50.9787 53.361C51.0562 53.3389 51.1356 53.3057 51.217 53.2614L51.217 53.5309C51.1343 53.5622 51.0516 53.5856 50.969 53.6013C50.8863 53.6175 50.8036 53.6257 50.7209 53.6257C50.523 53.6257 50.369 53.5755 50.259 53.4753C50.1496 53.3744 50.0949 53.2331 50.0949 53.0515C50.0949 52.8731 50.1486 52.7328 50.2561 52.6306C50.3641 52.5283 50.5126 52.4772 50.7014 52.4772C50.8733 52.4772 51.0106 52.529 51.1135 52.6325C51.217 52.736 51.2688 52.8744 51.2688 53.0475M50.9094 52.9313C50.9094 52.8649 50.8899 52.8115 50.8508 52.7712C50.8124 52.7302 50.7619 52.7097 50.6994 52.7097C50.6317 52.7097 50.5767 52.7289 50.5344 52.7673C50.4921 52.805 50.4657 52.8597 50.4553 52.9313L50.9094 52.9313M50.8527 51.9977L51.1291 51.9977L50.7688 52.3649L50.5774 52.3649L50.8527 51.9977M52.718 53.1052C52.6451 53.1052 52.59 53.1175 52.5529 53.1423C52.5165 53.167 52.4983 53.2035 52.4983 53.2516C52.4983 53.2959 52.5129 53.3308 52.5422 53.3561C52.5721 53.3809 52.6135 53.3933 52.6662 53.3933C52.732 53.3933 52.7873 53.3698 52.8322 53.3229C52.8772 53.2754 52.8996 53.2162 52.8996 53.1452L52.8996 53.1052L52.718 53.1052M53.2522 52.9733L53.2522 53.5974L52.8996 53.5974L52.8996 53.4352C52.8527 53.5016 52.8 53.5502 52.7414 53.5808C52.6828 53.6107 52.6115 53.6257 52.5276 53.6257C52.4143 53.6257 52.3221 53.5928 52.2512 53.527C52.1809 53.4606 52.1457 53.3747 52.1457 53.2692C52.1457 53.141 52.1897 53.0469 52.2776 52.987C52.3661 52.9271 52.5048 52.8972 52.6936 52.8972L52.8996 52.8972L52.8996 52.8698C52.8996 52.8145 52.8778 52.7741 52.8342 52.7487C52.7906 52.7227 52.7225 52.7097 52.6301 52.7097C52.5552 52.7097 52.4856 52.7171 52.4211 52.7321C52.3567 52.7471 52.2968 52.7696 52.2414 52.7995L52.2414 52.5329C52.3163 52.5147 52.3915 52.501 52.467 52.4919C52.5425 52.4821 52.618 52.4772 52.6936 52.4772C52.8908 52.4772 53.0331 52.5163 53.1203 52.5944C53.2082 52.6719 53.2522 52.7982 53.2522 52.9733M55.1067 53.8835L55.1067 54.069L54.1067 54.069L54.1067 53.8835L55.1067 53.8835M56.1067 53.8835L56.1067 54.069L55.1067 54.069L55.1067 53.8835L56.1067 53.8835M57.1067 53.8835L57.1067 54.069L56.1067 54.069L56.1067 53.8835L57.1067 53.8835M58.1067 53.8835L58.1067 54.069L57.1067 54.069L57.1067 53.8835L58.1067 53.8835M59.1067 53.8835L59.1067 54.069L58.1067 54.069L58.1067 53.8835L59.1067 53.8835M60.1067 53.8835L60.1067 54.069L59.1067 54.069L59.1067 53.8835L60.1067 53.8835M61.1067 53.8835L61.1067 54.069L60.1067 54.069L60.1067 53.8835L61.1067 53.8835M62.1067 53.8835L62.1067 54.069L61.1067 54.069L61.1067 53.8835L62.1067 53.8835M63.1067 53.8835L63.1067 54.069L62.1067 54.069L62.1067 53.8835L63.1067 53.8835M64.1067 53.8835L64.1067 54.069L63.1067 54.069L63.1067 53.8835L64.1067 53.8835M65.1067 53.8835L65.1067 54.069L64.1067 54.069L64.1067 53.8835L65.1067 53.8835M66.1067 53.8835L66.1067 54.069L65.1067 54.069L65.1067 53.8835L66.1067 53.8835M67.1067 53.8835L67.1067 54.069L66.1067 54.069L66.1067 53.8835L67.1067 53.8835M68.1067 53.8835L68.1067 54.069L67.1067 54.069L67.1067 53.8835L68.1067 53.8835M69.1067 53.8835L69.1067 54.069L68.1067 54.069L68.1067 53.8835L69.1067 53.8835M70.1067 53.8835L70.1067 54.069L69.1067 54.069L69.1067 53.8835L70.1067 53.8835M71.1067 53.8835L71.1067 54.069L70.1067 54.069L70.1067 53.8835L71.1067 53.8835M72.1067 53.8835L72.1067 54.069L71.1067 54.069L71.1067 53.8835L72.1067 53.8835M73.1067 53.8835L73.1067 54.069L72.1067 54.069L72.1067 53.8835L73.1067 53.8835M74.1067 53.8835L74.1067 54.069L73.1067 54.069L73.1067 53.8835L74.1067 53.8835M75.1067 53.8835L75.1067 54.069L74.1067 54.069L74.1067 53.8835L75.1067 53.8835M76.1067 53.8835L76.1067 54.069L75.1067 54.069L75.1067 53.8835L76.1067 53.8835M77.1067 53.8835L77.1067 54.069L76.1067 54.069L76.1067 53.8835L77.1067 53.8835M78.1067 53.8835L78.1067 54.069L77.1067 54.069L77.1067 53.8835L78.1067 53.8835M79.1067 53.8835L79.1067 54.069L78.1067 54.069L78.1067 53.8835L79.1067 53.8835M80.1067 53.8835L80.1067 54.069L79.1067 54.069L79.1067 53.8835L80.1067 53.8835M81.1067 53.8835L81.1067 54.069L80.1067 54.069L80.1067 53.8835L81.1067 53.8835M82.1067 53.8835L82.1067 54.069L81.1067 54.069L81.1067 53.8835L82.1067 53.8835M83.1067 53.8835L83.1067 54.069L82.1067 54.069L82.1067 53.8835L83.1067 53.8835M84.1067 53.8835L84.1067 54.069L83.1067 54.069L83.1067 53.8835L84.1067 53.8835M85.1067 53.8835L85.1067 54.069L84.1067 54.069L84.1067 53.8835L85.1067 53.8835M86.1067 53.8835L86.1067 54.069L85.1067 54.069L85.1067 53.8835L86.1067 53.8835M87.1067 53.8835L87.1067 54.069L86.1067 54.069L86.1067 53.8835L87.1067 53.8835M88.1067 53.8835L88.1067 54.069L87.1067 54.069L87.1067 53.8835L88.1067 53.8835M89.1067 53.8835L89.1067 54.069L88.1067 54.069L88.1067 53.8835L89.1067 53.8835M90.1067 53.8835L90.1067 54.069L89.1067 54.069L89.1067 53.8835L90.1067 53.8835M91.1067 53.8835L91.1067 54.069L90.1067 54.069L90.1067 53.8835L91.1067 53.8835M92.1067 53.8835L92.1067 54.069L91.1067 54.069L91.1067 53.8835L92.1067 53.8835M93.1067 53.8835L93.1067 54.069L92.1067 54.069L92.1067 53.8835L93.1067 53.8835M94.1067 53.8835L94.1067 54.069L93.1067 54.069L93.1067 53.8835L94.1067 53.8835M95.1067 53.8835L95.1067 54.069L94.1067 54.069L94.1067 53.8835L95.1067 53.8835M96.1067 53.8835L96.1067 54.069L95.1067 54.069L95.1067 53.8835L96.1067 53.8835M97.1067 53.8835L97.1067 54.069L96.1067 54.069L96.1067 53.8835L97.1067 53.8835M98.1067 53.8835L98.1067 54.069L97.1067 54.069L97.1067 53.8835L98.1067 53.8835M99.1067 53.8835L99.1067 54.069L98.1067 54.069L98.1067 53.8835L99.1067 53.8835M100.107 53.8835L100.107 54.069L99.1067 54.069L99.1067 53.8835L100.107 53.8835M101.107 53.8835L101.107 54.069L100.107 54.069L100.107 53.8835L101.107 53.8835M102.107 53.8835L102.107 54.069L101.107 54.069L101.107 53.8835L102.107 53.8835M103.107 53.8835L103.107 54.069L102.107 54.069L102.107 53.8835L103.107 53.8835M104.107 53.8835L104.107 54.069L103.107 54.069L103.107 53.8835L104.107 53.8835M105.107 53.8835L105.107 54.069L104.107 54.069L104.107 53.8835L105.107 53.8835M106.107 53.8835L106.107 54.069L105.107 54.069L105.107 53.8835L106.107 53.8835M107.107 53.8835L107.107 54.069L106.107 54.069L106.107 53.8835L107.107 53.8835M108.107 53.8835L108.107 54.069L107.107 54.069L107.107 53.8835L108.107 53.8835M109.107 53.8835L109.107 54.069L108.107 54.069L108.107 53.8835L109.107 53.8835"  />
        <path id="text22209" fill="#000000" d="M43.6574 55.2426L44.007 55.2426L44.007 56.7621L43.6574 56.7621L43.6574 55.2426M44.8352 56.2699C44.7622 56.2699 44.7072 56.2823 44.6701 56.307C44.6337 56.3317 44.6154 56.3682 44.6154 56.4164C44.6154 56.4607 44.6301 56.4955 44.6594 56.5209C44.6893 56.5456 44.7307 56.558 44.7834 56.558C44.8492 56.558 44.9045 56.5345 44.9494 56.4877C44.9943 56.4401 45.0168 56.3809 45.0168 56.3099L45.0168 56.2699L44.8352 56.2699M45.3693 56.1381L45.3693 56.7621L45.0168 56.7621L45.0168 56.6C44.9699 56.6664 44.9172 56.7149 44.8586 56.7455C44.8 56.7754 44.7287 56.7904 44.6447 56.7904C44.5315 56.7904 44.4393 56.7575 44.3684 56.6918C44.2981 56.6254 44.2629 56.5394 44.2629 56.434C44.2629 56.3057 44.3068 56.2116 44.3947 56.1517C44.4833 56.0918 44.622 56.0619 44.8108 56.0619L45.0168 56.0619L45.0168 56.0345C45.0168 55.9792 44.995 55.9388 44.9514 55.9134C44.9078 55.8874 44.8397 55.8744 44.7473 55.8744C44.6724 55.8744 44.6027 55.8819 44.5383 55.8968C44.4738 55.9118 44.4139 55.9343 44.3586 55.9642L44.3586 55.6976C44.4335 55.6794 44.5087 55.6657 44.5842 55.6566C44.6597 55.6468 44.7352 55.642 44.8108 55.642C45.008 55.642 45.1503 55.681 45.2375 55.7592C45.3254 55.8366 45.3693 55.9629 45.3693 56.1381M46.9055 55.8959C46.8313 55.8959 46.7743 55.9232 46.7346 55.9779C46.6955 56.0326 46.676 56.112 46.676 56.2162C46.676 56.3204 46.6955 56.3998 46.7346 56.4545C46.7743 56.5092 46.8313 56.5365 46.9055 56.5365C46.9803 56.5365 47.0373 56.5092 47.0764 56.4545C47.1161 56.3998 47.1359 56.3204 47.1359 56.2162C47.1359 56.112 47.1161 56.0326 47.0764 55.9779C47.0373 55.9232 46.9803 55.8959 46.9055 55.8959M47.1359 56.6039C47.0878 56.6683 47.0347 56.7155 46.9768 56.7455C46.9188 56.7754 46.8518 56.7904 46.7756 56.7904C46.6408 56.7904 46.5302 56.737 46.4436 56.6302C46.357 56.5228 46.3137 56.3848 46.3137 56.2162C46.3137 56.0476 46.357 55.9102 46.4436 55.8041C46.5302 55.6973 46.6408 55.6439 46.7756 55.6439C46.8518 55.6439 46.9188 55.6589 46.9768 55.6888C47.0347 55.7188 47.0878 55.766 47.1359 55.8304L47.1359 55.6683L47.4875 55.6683L47.4875 57.1781L47.1359 57.1781L47.1359 56.6039M47.8137 56.3363L47.8137 55.6683L48.1652 55.6683L48.1652 55.7777C48.1652 55.837 48.1649 55.9115 48.1643 56.0013C48.1636 56.0905 48.1633 56.1501 48.1633 56.1801C48.1633 56.2679 48.1656 56.3314 48.1701 56.3705C48.1747 56.4089 48.1825 56.4369 48.1936 56.4545C48.2079 56.4773 48.2264 56.4948 48.2492 56.5072C48.2727 56.5196 48.2994 56.5258 48.3293 56.5258C48.4022 56.5258 48.4595 56.4978 48.5012 56.4418C48.5428 56.3858 48.5637 56.308 48.5637 56.2084L48.5637 55.6683L48.9133 55.6683L48.9133 56.7621L48.5637 56.7621L48.5637 56.6039C48.5109 56.6677 48.455 56.7149 48.3957 56.7455C48.3371 56.7754 48.2723 56.7904 48.2014 56.7904C48.0751 56.7904 47.9787 56.7517 47.9123 56.6742C47.8466 56.5967 47.8137 56.4841 47.8137 56.3363M49.7414 56.2699C49.6685 56.2699 49.6135 56.2823 49.5764 56.307C49.5399 56.3317 49.5217 56.3682 49.5217 56.4164C49.5217 56.4607 49.5363 56.4955 49.5656 56.5209C49.5956 56.5456 49.6369 56.558 49.6897 56.558C49.7554 56.558 49.8108 56.5345 49.8557 56.4877C49.9006 56.4401 49.9231 56.3809 49.9231 56.3099L49.9231 56.2699L49.7414 56.2699M50.2756 56.1381L50.2756 56.7621L49.9231 56.7621L49.9231 56.6C49.8762 56.6664 49.8234 56.7149 49.7649 56.7455C49.7063 56.7754 49.635 56.7904 49.551 56.7904C49.4377 56.7904 49.3456 56.7575 49.2746 56.6918C49.2043 56.6254 49.1692 56.5394 49.1692 56.434C49.1692 56.3057 49.2131 56.2116 49.301 56.1517C49.3895 56.0918 49.5282 56.0619 49.717 56.0619L49.9231 56.0619L49.9231 56.0345C49.9231 55.9792 49.9012 55.9388 49.8576 55.9134C49.814 55.8874 49.746 55.8744 49.6535 55.8744C49.5787 55.8744 49.509 55.8819 49.4445 55.8968C49.3801 55.9118 49.3202 55.9343 49.2649 55.9642L49.2649 55.6976C49.3397 55.6794 49.4149 55.6657 49.4904 55.6566C49.566 55.6468 49.6415 55.642 49.717 55.642C49.9143 55.642 50.0565 55.681 50.1438 55.7592C50.2317 55.8366 50.2756 55.9629 50.2756 56.1381M51.7024 56.0961L51.7024 56.7621L51.3508 56.7621L51.3508 56.6537L51.3508 56.2523C51.3508 56.1579 51.3485 56.0928 51.344 56.057C51.34 56.0212 51.3329 55.9948 51.3225 55.9779C51.3088 55.9551 51.2902 55.9375 51.2668 55.9252C51.2434 55.9121 51.2167 55.9056 51.1867 55.9056C51.1138 55.9056 51.0565 55.934 51.0149 55.9906C50.9732 56.0466 50.9524 56.1244 50.9524 56.224L50.9524 56.7621L50.6027 56.7621L50.6027 55.6683L50.9524 55.6683L50.9524 55.8285C51.0051 55.7647 51.0611 55.7178 51.1203 55.6879C51.1796 55.6573 51.245 55.642 51.3166 55.642C51.4429 55.642 51.5386 55.6807 51.6037 55.7582C51.6695 55.8357 51.7024 55.9483 51.7024 56.0961M52.4104 55.3578L52.4104 55.6683L52.7707 55.6683L52.7707 55.9183L52.4104 55.9183L52.4104 56.3822C52.4104 56.433 52.4205 56.4675 52.4406 56.4857C52.4608 56.5033 52.5009 56.5121 52.5608 56.5121L52.7404 56.5121L52.7404 56.7621L52.4406 56.7621C52.3026 56.7621 52.2046 56.7334 52.1467 56.6761C52.0894 56.6182 52.0608 56.5202 52.0608 56.3822L52.0608 55.9183L51.8869 55.9183L51.8869 55.6683L52.0608 55.6683L52.0608 55.3578L52.4104 55.3578M52.9856 55.6683L53.3352 55.6683L53.3352 56.7621L52.9856 56.7621L52.9856 55.6683M52.9856 55.2426L53.3352 55.2426L53.3352 55.5277L52.9856 55.5277L52.9856 55.2426M54.0549 55.3578L54.0549 55.6683L54.4152 55.6683L54.4152 55.9183L54.0549 55.9183L54.0549 56.3822C54.0549 56.433 54.065 56.4675 54.0852 56.4857C54.1053 56.5033 54.1454 56.5121 54.2053 56.5121L54.385 56.5121L54.385 56.7621L54.0852 56.7621C53.9471 56.7621 53.8492 56.7334 53.7912 56.6761C53.7339 56.6182 53.7053 56.5202 53.7053 56.3822L53.7053 55.9183L53.5315 55.9183L53.5315 55.6683L53.7053 55.6683L53.7053 55.3578L54.0549 55.3578M55.1203 56.2699C55.0474 56.2699 54.9924 56.2823 54.9553 56.307C54.9188 56.3317 54.9006 56.3682 54.9006 56.4164C54.9006 56.4607 54.9152 56.4955 54.9445 56.5209C54.9745 56.5456 55.0158 56.558 55.0686 56.558C55.1343 56.558 55.1897 56.5345 55.2346 56.4877C55.2795 56.4401 55.302 56.3809 55.302 56.3099L55.302 56.2699L55.1203 56.2699M55.6545 56.1381L55.6545 56.7621L55.302 56.7621L55.302 56.6C55.2551 56.6664 55.2024 56.7149 55.1438 56.7455C55.0852 56.7754 55.0139 56.7904 54.9299 56.7904C54.8166 56.7904 54.7245 56.7575 54.6535 56.6918C54.5832 56.6254 54.5481 56.5394 54.5481 56.434C54.5481 56.3057 54.592 56.2116 54.6799 56.1517C54.7684 56.0918 54.9071 56.0619 55.0959 56.0619L55.302 56.0619L55.302 56.0345C55.302 55.9792 55.2802 55.9388 55.2365 55.9134C55.1929 55.8874 55.1249 55.8744 55.0324 55.8744C54.9576 55.8744 54.8879 55.8819 54.8234 55.8968C54.759 55.9118 54.6991 55.9343 54.6438 55.9642L54.6438 55.6976C54.7186 55.6794 54.7938 55.6657 54.8693 55.6566C54.9449 55.6468 55.0204 55.642 55.0959 55.642C55.2932 55.642 55.4354 55.681 55.5227 55.7592C55.6106 55.8366 55.6545 55.9629 55.6545 56.1381M56.3635 55.3578L56.3635 55.6683L56.7238 55.6683L56.7238 55.9183L56.3635 55.9183L56.3635 56.3822C56.3635 56.433 56.3736 56.4675 56.3938 56.4857C56.4139 56.5033 56.454 56.5121 56.5139 56.5121L56.6936 56.5121L56.6936 56.7621L56.3938 56.7621C56.2557 56.7621 56.1578 56.7334 56.0998 56.6761C56.0425 56.6182 56.0139 56.5202 56.0139 56.3822L56.0139 55.9183L55.8401 55.9183L55.8401 55.6683L56.0139 55.6683L56.0139 55.3578L56.3635 55.3578M58.3781 55.8285L58.3781 55.2426L58.7297 55.2426L58.7297 56.7621L58.3781 56.7621L58.3781 56.6039C58.33 56.6683 58.2769 56.7155 58.219 56.7455C58.161 56.7754 58.094 56.7904 58.0178 56.7904C57.883 56.7904 57.7723 56.737 57.6858 56.6302C57.5992 56.5228 57.5559 56.3848 57.5559 56.2162C57.5559 56.0476 57.5992 55.9099 57.6858 55.8031C57.7723 55.6957 57.883 55.642 58.0178 55.642C58.0933 55.642 58.16 55.6573 58.218 55.6879C58.2766 55.7178 58.33 55.7647 58.3781 55.8285M58.1477 56.5365C58.2225 56.5365 58.2795 56.5092 58.3186 56.4545C58.3583 56.3998 58.3781 56.3204 58.3781 56.2162C58.3781 56.112 58.3583 56.0326 58.3186 55.9779C58.2795 55.9232 58.2225 55.8959 58.1477 55.8959C58.0734 55.8959 58.0165 55.9232 57.9768 55.9779C57.9377 56.0326 57.9182 56.112 57.9182 56.2162C57.9182 56.3204 57.9377 56.3998 57.9768 56.4545C58.0165 56.5092 58.0734 56.5365 58.1477 56.5365M60.1594 56.2123L60.1594 56.3119L59.342 56.3119C59.3505 56.3939 59.3801 56.4554 59.4309 56.4965C59.4817 56.5375 59.5526 56.558 59.6438 56.558C59.7173 56.558 59.7925 56.5472 59.8693 56.5258C59.9468 56.5036 60.0262 56.4704 60.1076 56.4261L60.1076 56.6957C60.0249 56.7269 59.9423 56.7504 59.8596 56.766C59.7769 56.7823 59.6942 56.7904 59.6115 56.7904C59.4136 56.7904 59.2596 56.7403 59.1496 56.64C59.0402 56.5391 58.9856 56.3978 58.9856 56.2162C58.9856 56.0378 59.0393 55.8975 59.1467 55.7953C59.2548 55.6931 59.4032 55.642 59.592 55.642C59.7639 55.642 59.9012 55.6937 60.0041 55.7972C60.1076 55.9008 60.1594 56.0391 60.1594 56.2123M59.8 56.0961C59.8 56.0297 59.7805 55.9763 59.7414 55.9359C59.703 55.8949 59.6525 55.8744 59.5901 55.8744C59.5223 55.8744 59.4673 55.8936 59.425 55.932C59.3827 55.9698 59.3563 56.0245 59.3459 56.0961L59.8 56.0961M61.9504 57.0482L61.9504 57.2338L60.9504 57.2338L60.9504 57.0482L61.9504 57.0482M62.9504 57.0482L62.9504 57.2338L61.9504 57.2338L61.9504 57.0482L62.9504 57.0482M63.9504 57.0482L63.9504 57.2338L62.9504 57.2338L62.9504 57.0482L63.9504 57.0482M64.9504 57.0482L64.9504 57.2338L63.9504 57.2338L63.9504 57.0482L64.9504 57.0482M65.9504 57.0482L65.9504 57.2338L64.9504 57.2338L64.9504 57.0482L65.9504 57.0482M66.9504 57.0482L66.9504 57.2338L65.9504 57.2338L65.9504 57.0482L66.9504 57.0482M67.9504 57.0482L67.9504 57.2338L66.9504 57.2338L66.9504 57.0482L67.9504 57.0482M68.9504 57.0482L68.9504 57.2338L67.9504 57.2338L67.9504 57.0482L68.9504 57.0482M69.9504 57.0482L69.9504 57.2338L68.9504 57.2338L68.9504 57.0482L69.9504 57.0482M70.9504 57.0482L70.9504 57.2338L69.9504 57.2338L69.9504 57.0482L70.9504 57.0482M71.9504 57.0482L71.9504 57.2338L70.9504 57.2338L70.9504 57.0482L71.9504 57.0482M72.9504 57.0482L72.9504 57.2338L71.9504 57.2338L71.9504 57.0482L72.9504 57.0482M73.9504 57.0482L73.9504 57.2338L72.9504 57.2338L72.9504 57.0482L73.9504 57.0482M74.9504 57.0482L74.9504 57.2338L73.9504 57.2338L73.9504 57.0482L74.9504 57.0482M75.9504 57.0482L75.9504 57.2338L74.9504 57.2338L74.9504 57.0482L75.9504 57.0482M76.9504 57.0482L76.9504 57.2338L75.9504 57.2338L75.9504 57.0482L76.9504 57.0482M77.9504 57.0482L77.9504 57.2338L76.9504 57.2338L76.9504 57.0482L77.9504 57.0482M78.9504 57.0482L78.9504 57.2338L77.9504 57.2338L77.9504 57.0482L78.9504 57.0482M79.9504 57.0482L79.9504 57.2338L78.9504 57.2338L78.9504 57.0482L79.9504 57.0482M80.9504 57.0482L80.9504 57.2338L79.9504 57.2338L79.9504 57.0482L80.9504 57.0482M81.9504 57.0482L81.9504 57.2338L80.9504 57.2338L80.9504 57.0482L81.9504 57.0482M82.9504 57.0482L82.9504 57.2338L81.9504 57.2338L81.9504 57.0482L82.9504 57.0482M83.9504 57.0482L83.9504 57.2338L82.9504 57.2338L82.9504 57.0482L83.9504 57.0482M84.9504 57.0482L84.9504 57.2338L83.9504 57.2338L83.9504 57.0482L84.9504 57.0482M85.9504 57.0482L85.9504 57.2338L84.9504 57.2338L84.9504 57.0482L85.9504 57.0482M86.9504 57.0482L86.9504 57.2338L85.9504 57.2338L85.9504 57.0482L86.9504 57.0482M87.9504 57.0482L87.9504 57.2338L86.9504 57.2338L86.9504 57.0482L87.9504 57.0482M88.9504 57.0482L88.9504 57.2338L87.9504 57.2338L87.9504 57.0482L88.9504 57.0482M89.9504 57.0482L89.9504 57.2338L88.9504 57.2338L88.9504 57.0482L89.9504 57.0482M90.9504 57.0482L90.9504 57.2338L89.9504 57.2338L89.9504 57.0482L90.9504 57.0482M91.9504 57.0482L91.9504 57.2338L90.9504 57.2338L90.9504 57.0482L91.9504 57.0482M92.9504 57.0482L92.9504 57.2338L91.9504 57.2338L91.9504 57.0482L92.9504 57.0482M93.9504 57.0482L93.9504 57.2338L92.9504 57.2338L92.9504 57.0482L93.9504 57.0482M94.9504 57.0482L94.9504 57.2338L93.9504 57.2338L93.9504 57.0482L94.9504 57.0482M95.9504 57.0482L95.9504 57.2338L94.9504 57.2338L94.9504 57.0482L95.9504 57.0482M96.9504 57.0482L96.9504 57.2338L95.9504 57.2338L95.9504 57.0482L96.9504 57.0482M97.9504 57.0482L97.9504 57.2338L96.9504 57.2338L96.9504 57.0482L97.9504 57.0482M98.9504 57.0482L98.9504 57.2338L97.9504 57.2338L97.9504 57.0482L98.9504 57.0482M99.9504 57.0482L99.9504 57.2338L98.9504 57.2338L98.9504 57.0482L99.9504 57.0482M100.95 57.0482L100.95 57.2338L99.9504 57.2338L99.9504 57.0482L100.95 57.0482M101.95 57.0482L101.95 57.2338L100.95 57.2338L100.95 57.0482L101.95 57.0482M102.95 57.0482L102.95 57.2338L101.95 57.2338L101.95 57.0482L102.95 57.0482M103.95 57.0482L103.95 57.2338L102.95 57.2338L102.95 57.0482L103.95 57.0482M104.95 57.0482L104.95 57.2338L103.95 57.2338L103.95 57.0482L104.95 57.0482M105.95 57.0482L105.95 57.2338L104.95 57.2338L104.95 57.0482L105.95 57.0482M106.95 57.0482L106.95 57.2338L105.95 57.2338L105.95 57.0482L106.95 57.0482M107.95 57.0482L107.95 57.2338L106.95 57.2338L106.95 57.0482L107.95 57.0482M108.95 57.0482L108.95 57.2338L107.95 57.2338L107.95 57.0482L108.95 57.0482"  />
        <path id="text22213" fill="#000000" d="M44.6574 60.2129L44.6574 60.3985L43.6574 60.3985L43.6574 60.2129L44.6574 60.2129M45.6574 60.2129L45.6574 60.3985L44.6574 60.3985L44.6574 60.2129L45.6574 60.2129M46.6574 60.2129L46.6574 60.3985L45.6574 60.3985L45.6574 60.2129L46.6574 60.2129M47.6574 60.2129L47.6574 60.3985L46.6574 60.3985L46.6574 60.2129L47.6574 60.2129M48.6574 60.2129L48.6574 60.3985L47.6574 60.3985L47.6574 60.2129L48.6574 60.2129M49.6574 60.2129L49.6574 60.3985L48.6574 60.3985L48.6574 60.2129L49.6574 60.2129M50.6574 60.2129L50.6574 60.3985L49.6574 60.3985L49.6574 60.2129L50.6574 60.2129M51.6574 60.2129L51.6574 60.3985L50.6574 60.3985L50.6574 60.2129L51.6574 60.2129M52.6574 60.2129L52.6574 60.3985L51.6574 60.3985L51.6574 60.2129L52.6574 60.2129M53.6574 60.2129L53.6574 60.3985L52.6574 60.3985L52.6574 60.2129L53.6574 60.2129M54.6574 60.2129L54.6574 60.3985L53.6574 60.3985L53.6574 60.2129L54.6574 60.2129M55.6574 60.2129L55.6574 60.3985L54.6574 60.3985L54.6574 60.2129L55.6574 60.2129M56.6574 60.2129L56.6574 60.3985L55.6574 60.3985L55.6574 60.2129L56.6574 60.2129M57.6574 60.2129L57.6574 60.3985L56.6574 60.3985L56.6574 60.2129L57.6574 60.2129M58.6574 60.2129L58.6574 60.3985L57.6574 60.3985L57.6574 60.2129L58.6574 60.2129M59.6574 60.2129L59.6574 60.3985L58.6574 60.3985L58.6574 60.2129L59.6574 60.2129M60.6574 60.2129L60.6574 60.3985L59.6574 60.3985L59.6574 60.2129L60.6574 60.2129M61.6574 60.2129L61.6574 60.3985L60.6574 60.3985L60.6574 60.2129L61.6574 60.2129M62.6574 60.2129L62.6574 60.3985L61.6574 60.3985L61.6574 60.2129L62.6574 60.2129M63.6574 60.2129L63.6574 60.3985L62.6574 60.3985L62.6574 60.2129L63.6574 60.2129M64.6574 60.2129L64.6574 60.3985L63.6574 60.3985L63.6574 60.2129L64.6574 60.2129M65.6574 60.2129L65.6574 60.3985L64.6574 60.3985L64.6574 60.2129L65.6574 60.2129M66.6574 60.2129L66.6574 60.3985L65.6574 60.3985L65.6574 60.2129L66.6574 60.2129M67.6574 60.2129L67.6574 60.3985L66.6574 60.3985L66.6574 60.2129L67.6574 60.2129M68.6574 60.2129L68.6574 60.3985L67.6574 60.3985L67.6574 60.2129L68.6574 60.2129M69.6574 60.2129L69.6574 60.3985L68.6574 60.3985L68.6574 60.2129L69.6574 60.2129M70.6574 60.2129L70.6574 60.3985L69.6574 60.3985L69.6574 60.2129L70.6574 60.2129M71.6574 60.2129L71.6574 60.3985L70.6574 60.3985L70.6574 60.2129L71.6574 60.2129M72.6574 60.2129L72.6574 60.3985L71.6574 60.3985L71.6574 60.2129L72.6574 60.2129M73.6574 60.2129L73.6574 60.3985L72.6574 60.3985L72.6574 60.2129L73.6574 60.2129M74.6574 60.2129L74.6574 60.3985L73.6574 60.3985L73.6574 60.2129L74.6574 60.2129M75.6574 60.2129L75.6574 60.3985L74.6574 60.3985L74.6574 60.2129L75.6574 60.2129M76.6574 60.2129L76.6574 60.3985L75.6574 60.3985L75.6574 60.2129L76.6574 60.2129M77.6574 60.2129L77.6574 60.3985L76.6574 60.3985L76.6574 60.2129L77.6574 60.2129M78.6574 60.2129L78.6574 60.3985L77.6574 60.3985L77.6574 60.2129L78.6574 60.2129M79.6574 60.2129L79.6574 60.3985L78.6574 60.3985L78.6574 60.2129L79.6574 60.2129M80.6574 60.2129L80.6574 60.3985L79.6574 60.3985L79.6574 60.2129L80.6574 60.2129M81.6574 60.2129L81.6574 60.3985L80.6574 60.3985L80.6574 60.2129L81.6574 60.2129M82.6574 60.2129L82.6574 60.3985L81.6574 60.3985L81.6574 60.2129L82.6574 60.2129M83.6574 60.2129L83.6574 60.3985L82.6574 60.3985L82.6574 60.2129L83.6574 60.2129M84.6574 60.2129L84.6574 60.3985L83.6574 60.3985L83.6574 60.2129L84.6574 60.2129M85.6574 60.2129L85.6574 60.3985L84.6574 60.3985L84.6574 60.2129L85.6574 60.2129M86.6574 60.2129L86.6574 60.3985L85.6574 60.3985L85.6574 60.2129L86.6574 60.2129M87.6574 60.2129L87.6574 60.3985L86.6574 60.3985L86.6574 60.2129L87.6574 60.2129M88.6574 60.2129L88.6574 60.3985L87.6574 60.3985L87.6574 60.2129L88.6574 60.2129M89.6574 60.2129L89.6574 60.3985L88.6574 60.3985L88.6574 60.2129L89.6574 60.2129M90.6574 60.2129L90.6574 60.3985L89.6574 60.3985L89.6574 60.2129L90.6574 60.2129M91.6574 60.2129L91.6574 60.3985L90.6574 60.3985L90.6574 60.2129L91.6574 60.2129M92.6574 60.2129L92.6574 60.3985L91.6574 60.3985L91.6574 60.2129L92.6574 60.2129M93.6574 60.2129L93.6574 60.3985L92.6574 60.3985L92.6574 60.2129L93.6574 60.2129M94.6574 60.2129L94.6574 60.3985L93.6574 60.3985L93.6574 60.2129L94.6574 60.2129M95.6574 60.2129L95.6574 60.3985L94.6574 60.3985L94.6574 60.2129L95.6574 60.2129M96.6574 60.2129L96.6574 60.3985L95.6574 60.3985L95.6574 60.2129L96.6574 60.2129M97.6574 60.2129L97.6574 60.3985L96.6574 60.3985L96.6574 60.2129L97.6574 60.2129M98.6574 60.2129L98.6574 60.3985L97.6574 60.3985L97.6574 60.2129L98.6574 60.2129M99.6574 60.2129L99.6574 60.3985L98.6574 60.3985L98.6574 60.2129L99.6574 60.2129M100.657 60.2129L100.657 60.3985L99.6574 60.3985L99.6574 60.2129L100.657 60.2129M101.657 60.2129L101.657 60.3985L100.657 60.3985L100.657 60.2129L101.657 60.2129M102.657 60.2129L102.657 60.3985L101.657 60.3985L101.657 60.2129L102.657 60.2129M103.657 60.2129L103.657 60.3985L102.657 60.3985L102.657 60.2129L103.657 60.2129M104.657 60.2129L104.657 60.3985L103.657 60.3985L103.657 60.2129L104.657 60.2129M105.657 60.2129L105.657 60.3985L104.657 60.3985L104.657 60.2129L105.657 60.2129M106.657 60.2129L106.657 60.3985L105.657 60.3985L105.657 60.2129L106.657 60.2129M107.657 60.2129L107.657 60.3985L106.657 60.3985L106.657 60.2129L107.657 60.2129M108.657 60.2129L108.657 60.3985L107.657 60.3985L107.657 60.2129L108.657 60.2129"  />
        <path id="text22217" fill="#000000" d="M80.1218 61.9177L80.1218 62.8074L80.2565 62.8074C80.4102 62.8074 80.5274 62.7693 80.6081 62.6931C80.6895 62.6169 80.7302 62.5062 80.7302 62.3611C80.7302 62.2165 80.6898 62.1065 80.6091 62.031C80.5284 61.9555 80.4108 61.9177 80.2565 61.9177L80.1218 61.9177M79.7458 61.6335L80.1423 61.6335C80.3636 61.6335 80.5284 61.6495 80.6364 61.6814C80.7451 61.7126 80.8382 61.766 80.9157 61.8415C80.9841 61.9073 81.0349 61.9831 81.0681 62.0691C81.1013 62.155 81.1179 62.2523 81.1179 62.3611C81.1179 62.4711 81.1013 62.5694 81.0681 62.656C81.0349 62.7419 80.9841 62.8178 80.9157 62.8835C80.8376 62.959 80.7438 63.0128 80.6345 63.0447C80.5251 63.0759 80.361 63.0915 80.1423 63.0915L79.7458 63.0915L79.7458 61.6335M81.8806 62.5993C81.8076 62.5993 81.7526 62.6117 81.7155 62.6365C81.6791 62.6612 81.6608 62.6977 81.6608 62.7458C81.6608 62.7901 81.6755 62.8249 81.7048 62.8503C81.7347 62.8751 81.7761 62.8874 81.8288 62.8874C81.8946 62.8874 81.9499 62.864 81.9948 62.8171C82.0397 62.7696 82.0622 62.7103 82.0622 62.6394L82.0622 62.5993L81.8806 62.5993M82.4147 62.4675L82.4147 63.0915L82.0622 63.0915L82.0622 62.9294C82.0153 62.9958 81.9626 63.0443 81.904 63.0749C81.8454 63.1049 81.7741 63.1199 81.6901 63.1199C81.5769 63.1199 81.4847 63.087 81.4138 63.0212C81.3435 62.9548 81.3083 62.8689 81.3083 62.7634C81.3083 62.6352 81.3522 62.5411 81.4401 62.4812C81.5287 62.4213 81.6673 62.3913 81.8562 62.3913L82.0622 62.3913L82.0622 62.364C82.0622 62.3087 82.0404 62.2683 81.9968 62.2429C81.9532 62.2169 81.8851 62.2038 81.7927 62.2038C81.7178 62.2038 81.6481 62.2113 81.5837 62.2263C81.5192 62.2413 81.4593 62.2637 81.404 62.2937L81.404 62.0271C81.4789 62.0088 81.5541 61.9952 81.6296 61.9861C81.7051 61.9763 81.7806 61.9714 81.8562 61.9714C82.0534 61.9714 82.1957 62.0105 82.2829 62.0886C82.3708 62.1661 82.4147 62.2924 82.4147 62.4675M83.1237 61.6872L83.1237 61.9978L83.4841 61.9978L83.4841 62.2478L83.1237 62.2478L83.1237 62.7116C83.1237 62.7624 83.1338 62.7969 83.154 62.8152C83.1742 62.8327 83.2142 62.8415 83.2741 62.8415L83.4538 62.8415L83.4538 63.0915L83.154 63.0915C83.016 63.0915 82.918 63.0629 82.8601 63.0056C82.8028 62.9477 82.7741 62.8497 82.7741 62.7116L82.7741 62.2478L82.6003 62.2478L82.6003 61.9978L82.7741 61.9978L82.7741 61.6872L83.1237 61.6872M84.1892 62.5993C84.1162 62.5993 84.0612 62.6117 84.0241 62.6365C83.9877 62.6612 83.9694 62.6977 83.9694 62.7458C83.9694 62.7901 83.9841 62.8249 84.0134 62.8503C84.0433 62.8751 84.0847 62.8874 84.1374 62.8874C84.2032 62.8874 84.2585 62.864 84.3034 62.8171C84.3483 62.7696 84.3708 62.7103 84.3708 62.6394L84.3708 62.5993L84.1892 62.5993M84.7233 62.4675L84.7233 63.0915L84.3708 63.0915L84.3708 62.9294C84.3239 62.9958 84.2712 63.0443 84.2126 63.0749C84.154 63.1049 84.0827 63.1199 83.9987 63.1199C83.8854 63.1199 83.7933 63.087 83.7224 63.0212C83.6521 62.9548 83.6169 62.8689 83.6169 62.7634C83.6169 62.6352 83.6608 62.5411 83.7487 62.4812C83.8373 62.4213 83.9759 62.3913 84.1647 62.3913L84.3708 62.3913L84.3708 62.364C84.3708 62.3087 84.349 62.2683 84.3054 62.2429C84.2618 62.2169 84.1937 62.2038 84.1013 62.2038C84.0264 62.2038 83.9567 62.2113 83.8923 62.2263C83.8278 62.2413 83.7679 62.2637 83.7126 62.2937L83.7126 62.0271C83.7875 62.0088 83.8627 61.9952 83.9382 61.9861C84.0137 61.9763 84.0892 61.9714 84.1647 61.9714C84.362 61.9714 84.5043 62.0105 84.5915 62.0886C84.6794 62.1661 84.7233 62.2924 84.7233 62.4675M86.5778 63.3777L86.5778 63.5632L85.5778 63.5632L85.5778 63.3777L86.5778 63.3777M87.5778 63.3777L87.5778 63.5632L86.5778 63.5632L86.5778 63.3777L87.5778 63.3777M88.5778 63.3777L88.5778 63.5632L87.5778 63.5632L87.5778 63.3777L88.5778 63.3777M89.5778 63.3777L89.5778 63.5632L88.5778 63.5632L88.5778 63.3777L89.5778 63.3777M90.5778 63.3777L90.5778 63.5632L89.5778 63.5632L89.5778 63.3777L90.5778 63.3777M91.5778 63.3777L91.5778 63.5632L90.5778 63.5632L90.5778 63.3777L91.5778 63.3777M92.5778 63.3777L92.5778 63.5632L91.5778 63.5632L91.5778 63.3777L92.5778 63.3777M93.5778 63.3777L93.5778 63.5632L92.5778 63.5632L92.5778 63.3777L93.5778 63.3777M94.5778 63.3777L94.5778 63.5632L93.5778 63.5632L93.5778 63.3777L94.5778 63.3777M95.5778 63.3777L95.5778 63.5632L94.5778 63.5632L94.5778 63.3777L95.5778 63.3777M96.5778 63.3777L96.5778 63.5632L95.5778 63.5632L95.5778 63.3777L96.5778 63.3777M97.5778 63.3777L97.5778 63.5632L96.5778 63.5632L96.5778 63.3777L97.5778 63.3777M98.5778 63.3777L98.5778 63.5632L97.5778 63.5632L97.5778 63.3777L98.5778 63.3777M99.5778 63.3777L99.5778 63.5632L98.5778 63.5632L98.5778 63.3777L99.5778 63.3777M100.578 63.3777L100.578 63.5632L99.5778 63.5632L99.5778 63.3777L100.578 63.3777M101.578 63.3777L101.578 63.5632L100.578 63.5632L100.578 63.3777L101.578 63.3777M102.578 63.3777L102.578 63.5632L101.578 63.5632L101.578 63.3777L102.578 63.3777M103.578 63.3777L103.578 63.5632L102.578 63.5632L102.578 63.3777L103.578 63.3777M104.578 63.3777L104.578 63.5632L103.578 63.5632L103.578 63.3777L104.578 63.3777M105.578 63.3777L105.578 63.5632L104.578 63.5632L104.578 63.3777L105.578 63.3777M106.578 63.3777L106.578 63.5632L105.578 63.5632L105.578 63.3777L106.578 63.3777M107.578 63.3777L107.578 63.5632L106.578 63.5632L106.578 63.3777L107.578 63.3777M108.578 63.3777L108.578 63.5632L107.578 63.5632L107.578 63.3777L108.578 63.3777"  />
      </g>
    </g>
  </g>
</svg>
