<?xml version="1.0" standalone="no"?>
<!DOCTYPE svg PUBLIC "-//W3C//DTD SVG 20010904//EN" "http://www.w3.org/TR/2001/REC-SVG-20010904/DTD/svg10.dtd">
<!-- Created using Karbon14, part of koffice: http://www.koffice.org/karbon -->
<svg xmlns="http://www.w3.org/2000/svg" xmlns:xlink="http://www.w3.org/1999/xlink" width="128px" height="128px">
  <defs>
    <radialGradient id="defitem0" gradientUnits="userSpaceOnUse" cx="64.0002" cy="122.802" fx="64.0002" fy="122.802" r="61.5368" >
      <stop stop-color="#000000" offset="0" stop-opacity="1" />
      <stop stop-color="#000000" offset="1" stop-opacity="0" />
    </radialGradient>
    <linearGradient id="defitem1" gradientUnits="userSpaceOnUse" x1="64.0002" y1="128" x2="64.0002" y2="122.802" >
      <stop stop-color="#ffffff" offset="0" stop-opacity="1" />
      <stop stop-color="#ffffff" offset="1" stop-opacity="0" />
    </linearGradient>
    <linearGradient id="defitem2" gradientUnits="userSpaceOnUse" x1="64.0002" y1="117.179" x2="64.0002" y2="122.802" >
      <stop stop-color="#ffffff" offset="0" stop-opacity="1" />
      <stop stop-color="#ffffff" offset="1" stop-opacity="0" />
    </linearGradient>
    <radialGradient id="defitem3" gradientUnits="userSpaceOnUse" cx="64.0001" cy="85.7363" fx="4.00012" fy="4" r="69.5689" >
      <stop stop-color="#ededed" offset="0" stop-opacity="1" />
      <stop stop-color="#e4e4e4" offset="0.213" stop-opacity="1" />
      <stop stop-color="#cacaca" offset="0.5672" stop-opacity="1" />
      <stop stop-color="#bababa" offset="0.7515" stop-opacity="1" />
      <stop stop-color="#878787" offset="0.9704" stop-opacity="1" />
    </radialGradient>
    <linearGradient id="defitem4" gradientUnits="userSpaceOnUse" x1="64.0001" y1="28.6226" x2="64.0001" y2="71.3409" >
      <stop stop-color="#878787" offset="0" stop-opacity="1" />
      <stop stop-color="#bababa" offset="1" stop-opacity="1" />
    </linearGradient>
    <linearGradient id="defitem5" gradientUnits="userSpaceOnUse" x1="64.0011" y1="83.2705" x2="64.0011" y2="77.3035" >
      <stop stop-color="#000000" offset="0.3669" stop-opacity="1" />
      <stop stop-color="#ffffff" offset="1" stop-opacity="1" />
    </linearGradient>
    <linearGradient id="defitem6" gradientUnits="userSpaceOnUse" x1="63.9996" y1="59.8672" x2="63.9996" y2="103.868" >
      <stop stop-color="#bfc1bc" offset="0" stop-opacity="1" />
      <stop stop-color="#cfd1cc" offset="0.1635" stop-opacity="1" />
      <stop stop-color="#dbdbdd" offset="0.5601" stop-opacity="1" />
      <stop stop-color="#afafb6" offset="0.7343" stop-opacity="1" />
      <stop stop-color="#878790" offset="0.8757" stop-opacity="1" />
    </linearGradient>
    <linearGradient id="defitem7" gradientUnits="userSpaceOnUse" x1="64.0006" y1="103.867" x2="64.0006" y2="59.8677" >
      <stop stop-color="#878787" offset="0" stop-opacity="1" />
      <stop stop-color="#bababa" offset="0.071" stop-opacity="1" />
      <stop stop-color="#dddddd" offset="0.284" stop-opacity="1" />
      <stop stop-color="#ffffff" offset="0.5917" stop-opacity="1" />
      <stop stop-color="#ededed" offset="0.9467" stop-opacity="1" />
      <stop stop-color="#ffffff" offset="1" stop-opacity="1" />
    </linearGradient>
    <linearGradient id="defitem8" gradientUnits="userSpaceOnUse" x1="63.9669" y1="75.9824" x2="63.9669" y2="61.9829" >
      <stop stop-color="#313131" offset="0" stop-opacity="1" />
      <stop stop-color="#545454" offset="0.4438" stop-opacity="1" />
      <stop stop-color="#545454" offset="0.5917" stop-opacity="1" />
      <stop stop-color="#545454" offset="0.7811" stop-opacity="1" />
      <stop stop-color="#565656" offset="0.8168" stop-opacity="1" />
      <stop stop-color="#606060" offset="0.8429" stop-opacity="1" />
      <stop stop-color="#707070" offset="0.8659" stop-opacity="1" />
      <stop stop-color="#878787" offset="0.8872" stop-opacity="1" />
      <stop stop-color="#878787" offset="0.8876" stop-opacity="1" />
      <stop stop-color="#ededed" offset="0.9586" stop-opacity="1" />
    </linearGradient>
    <linearGradient id="defitem9" gradientUnits="userSpaceOnUse" x1="63.9669" y1="38.2354" x2="63.9669" y2="57.8077" >
      <stop stop-color="#313131" offset="0" stop-opacity="1" />
      <stop stop-color="#545454" offset="0.4438" stop-opacity="1" />
      <stop stop-color="#545454" offset="0.5917" stop-opacity="1" />
      <stop stop-color="#545454" offset="0.7811" stop-opacity="1" />
      <stop stop-color="#565656" offset="0.8168" stop-opacity="1" />
      <stop stop-color="#606060" offset="0.8429" stop-opacity="1" />
      <stop stop-color="#707070" offset="0.8659" stop-opacity="1" />
      <stop stop-color="#878787" offset="0.8872" stop-opacity="1" />
      <stop stop-color="#878787" offset="0.8876" stop-opacity="1" />
      <stop stop-color="#bababa" offset="1" stop-opacity="1" />
    </linearGradient>
    <linearGradient id="defitem10" gradientUnits="userSpaceOnUse" x1="27.5846" y1="75.9824" x2="27.5846" y2="44.1196" >
      <stop stop-color="#545454" offset="0.0059" stop-opacity="1" />
      <stop stop-color="#878787" offset="0.1183" stop-opacity="1" />
      <stop stop-color="#8c8c8c" offset="0.2215" stop-opacity="1" />
      <stop stop-color="#999999" offset="0.3335" stop-opacity="1" />
      <stop stop-color="#afafaf" offset="0.4491" stop-opacity="1" />
      <stop stop-color="#bababa" offset="0.5" stop-opacity="1" />
      <stop stop-color="#a7a7a7" offset="0.5612" stop-opacity="1" />
      <stop stop-color="#838383" offset="0.688" stop-opacity="1" />
      <stop stop-color="#696969" offset="0.8071" stop-opacity="1" />
      <stop stop-color="#595959" offset="0.9146" stop-opacity="1" />
      <stop stop-color="#545454" offset="1" stop-opacity="1" />
    </linearGradient>
    <linearGradient id="defitem11" gradientUnits="userSpaceOnUse" x1="100.416" y1="75.9824" x2="100.416" y2="44.1196" >
      <stop stop-color="#545454" offset="0.0059" stop-opacity="1" />
      <stop stop-color="#878787" offset="0.1183" stop-opacity="1" />
      <stop stop-color="#8c8c8c" offset="0.2215" stop-opacity="1" />
      <stop stop-color="#999999" offset="0.3335" stop-opacity="1" />
      <stop stop-color="#afafaf" offset="0.4491" stop-opacity="1" />
      <stop stop-color="#bababa" offset="0.5" stop-opacity="1" />
      <stop stop-color="#a7a7a7" offset="0.5612" stop-opacity="1" />
      <stop stop-color="#838383" offset="0.688" stop-opacity="1" />
      <stop stop-color="#696969" offset="0.8071" stop-opacity="1" />
      <stop stop-color="#595959" offset="0.9146" stop-opacity="1" />
      <stop stop-color="#545454" offset="1" stop-opacity="1" />
    </linearGradient>
    <linearGradient id="defitem12" gradientUnits="userSpaceOnUse" x1="63.9996" y1="69.9824" x2="63.9996" y2="75.9824" >
      <stop stop-color="#dddddd" offset="0" stop-opacity="1" />
      <stop stop-color="#000000" offset="1" stop-opacity="1" />
    </linearGradient>
    <linearGradient id="defitem13" gradientUnits="userSpaceOnUse" x1="64.0006" y1="77.3867" x2="64.0006" y2="70.9388" >
      <stop stop-color="#bababa" offset="0" stop-opacity="1" />
      <stop stop-color="#313131" offset="1" stop-opacity="1" />
    </linearGradient>
    <linearGradient id="defitem14" gradientUnits="userSpaceOnUse" x1="63.9995" y1="75.9824" x2="63.9995" y2="77.9824" >
      <stop stop-color="#313131" offset="0" stop-opacity="1" />
      <stop stop-color="#545454" offset="1" stop-opacity="1" />
    </linearGradient>
    <linearGradient id="defitem15" gradientUnits="userSpaceOnUse" x1="64.0001" y1="85.9668" x2="64.0001" y2="91.2188" >
      <stop stop-color="#878787" offset="0" stop-opacity="1" />
      <stop stop-color="#909090" offset="0.0225" stop-opacity="1" />
      <stop stop-color="#acacac" offset="0.1025" stop-opacity="1" />
      <stop stop-color="#c1c1c1" offset="0.1893" stop-opacity="1" />
      <stop stop-color="#d1d1d1" offset="0.285" stop-opacity="1" />
      <stop stop-color="#dadada" offset="0.3966" stop-opacity="1" />
      <stop stop-color="#dddddd" offset="0.5621" stop-opacity="1" />
    </linearGradient>
    <linearGradient id="defitem16" gradientUnits="userSpaceOnUse" x1="23.3307" y1="104" x2="23.3307" y2="89.4707" >
      <stop stop-color="#545454" offset="0" stop-opacity="1" />
      <stop stop-color="#bababa" offset="1" stop-opacity="1" />
    </linearGradient>
    <linearGradient id="defitem17" gradientUnits="userSpaceOnUse" x1="104.67" y1="104" x2="104.67" y2="89.4707" >
      <stop stop-color="#545454" offset="0" stop-opacity="1" />
      <stop stop-color="#bababa" offset="1" stop-opacity="1" />
    </linearGradient>
    <linearGradient id="defitem18" gradientUnits="userSpaceOnUse" x1="64.0006" y1="104" x2="64.0006" y2="88.0684" >
      <stop stop-color="#313131" offset="0" stop-opacity="1" />
      <stop stop-color="#282828" offset="0.245184" stop-opacity="1" />
      <stop stop-color="#0e0e0e" offset="0.532014" stop-opacity="1" />
      <stop stop-color="#000000" offset="1" stop-opacity="1" />
    </linearGradient>
    <linearGradient id="defitem19" gradientUnits="userSpaceOnUse" x1="23.0328" y1="89.6436" x2="104.968" y2="89.6436" >
      <stop stop-color="#ffffff" offset="0" stop-opacity="1" />
      <stop stop-color="#f6f6f6" offset="0.192" stop-opacity="1" />
      <stop stop-color="#dddddd" offset="0.5" stop-opacity="1" />
      <stop stop-color="#ffffff" offset="1" stop-opacity="1" />
    </linearGradient>
    <linearGradient id="defitem20" gradientUnits="userSpaceOnUse" x1="64.0006" y1="51.7319" x2="64.0006" y2="9.014" >
      <stop stop-color="#ffffff" offset="0" stop-opacity="1" />
      <stop stop-color="#f9f9f9" offset="0.1091" stop-opacity="1" />
      <stop stop-color="#e8e8e8" offset="0.2515" stop-opacity="1" />
      <stop stop-color="#cdcdcd" offset="0.4123" stop-opacity="1" />
      <stop stop-color="#a8a8a8" offset="0.5866" stop-opacity="1" />
      <stop stop-color="#777777" offset="0.7718" stop-opacity="1" />
      <stop stop-color="#3d3d3d" offset="0.9634" stop-opacity="1" />
      <stop stop-color="#313131" offset="1" stop-opacity="1" />
    </linearGradient>
    <linearGradient id="defitem21" gradientUnits="userSpaceOnUse" x1="63.9669" y1="59.9824" x2="63.9669" y2="45.9829" >
      <stop stop-color="#313131" offset="0" stop-opacity="1" />
      <stop stop-color="#545454" offset="0.4438" stop-opacity="1" />
      <stop stop-color="#545454" offset="0.5917" stop-opacity="1" />
      <stop stop-color="#545454" offset="0.7811" stop-opacity="1" />
      <stop stop-color="#565656" offset="0.8168" stop-opacity="1" />
      <stop stop-color="#606060" offset="0.8429" stop-opacity="1" />
      <stop stop-color="#707070" offset="0.8659" stop-opacity="1" />
      <stop stop-color="#878787" offset="0.8872" stop-opacity="1" />
      <stop stop-color="#878787" offset="0.8876" stop-opacity="1" />
      <stop stop-color="#ededed" offset="0.9586" stop-opacity="1" />
    </linearGradient>
    <linearGradient id="defitem22" gradientUnits="userSpaceOnUse" x1="63.9996" y1="28.4888" x2="63.9996" y2="76.6369" >
      <stop stop-color="#878787" offset="0.0355" stop-opacity="1" />
      <stop stop-color="#313131" offset="0.5" stop-opacity="1" />
    </linearGradient>
    <radialGradient id="defitem23" gradientUnits="userSpaceOnUse" cx="63.9978" cy="-12.825" fx="7.76023" fy="2.567" r="84.0162" >
      <stop stop-color="#ffffff" offset="0" stop-opacity="1" />
      <stop stop-color="#ffffff" offset="0.4556" stop-opacity="1" />
      <stop stop-color="#f4f4f6" offset="0.5192" stop-opacity="1" />
      <stop stop-color="#dbdbdd" offset="0.6267" stop-opacity="1" />
      <stop stop-color="#afafb6" offset="0.7641" stop-opacity="1" />
      <stop stop-color="#878790" offset="0.8757" stop-opacity="1" />
    </radialGradient>
    <linearGradient id="defitem24" gradientUnits="userSpaceOnUse" x1="114.772" y1="93.9395" x2="114.772" y2="88.3965" >
      <stop stop-color="#ededeb" offset="0" stop-opacity="1" />
      <stop stop-color="#ebebe8" offset="0.2406" stop-opacity="1" />
      <stop stop-color="#e2e2e2" offset="0.3786" stop-opacity="1" />
      <stop stop-color="#dddddd" offset="0.4379" stop-opacity="1" />
      <stop stop-color="#878787" offset="1" stop-opacity="1" />
    </linearGradient>
    <radialGradient id="defitem25" gradientUnits="userSpaceOnUse" cx="115.077" cy="94.6484" fx="4.00012" fy="4" r="5.781" >
      <stop stop-color="#878787" offset="0" stop-opacity="1" />
      <stop stop-color="#828282" offset="0.105" stop-opacity="1" />
      <stop stop-color="#545454" offset="1" stop-opacity="1" />
    </radialGradient>
    <radialGradient id="defitem26" gradientUnits="userSpaceOnUse" cx="113.943" cy="89.9258" fx="114.421" fy="90.4674" r="4.042" >
      <stop stop-color="#ffffff" offset="0" stop-opacity="1" />
      <stop stop-color="#fdfdfd" offset="0.1037" stop-opacity="1" />
      <stop stop-color="#f6f6f4" offset="0.1631" stop-opacity="1" />
      <stop stop-color="#ededeb" offset="0.1953" stop-opacity="1" />
      <stop stop-color="#ebebe8" offset="0.3286" stop-opacity="1" />
      <stop stop-color="#e2e2e2" offset="0.405" stop-opacity="1" />
      <stop stop-color="#dddddd" offset="0.4379" stop-opacity="1" />
      <stop stop-color="#878787" offset="0.8639" stop-opacity="1" />
    </radialGradient>
    <linearGradient id="defitem27" gradientUnits="userSpaceOnUse" x1="114.946" y1="86.9355" x2="114.946" y2="81.3945" >
      <stop stop-color="#ededeb" offset="0" stop-opacity="1" />
      <stop stop-color="#ebebe8" offset="0.2406" stop-opacity="1" />
      <stop stop-color="#e2e2e2" offset="0.3786" stop-opacity="1" />
      <stop stop-color="#dddddd" offset="0.4379" stop-opacity="1" />
      <stop stop-color="#878787" offset="1" stop-opacity="1" />
    </linearGradient>
    <radialGradient id="defitem28" gradientUnits="userSpaceOnUse" cx="115.339" cy="88.9336" fx="4.00012" fy="4" r="8.468" >
      <stop stop-color="#878787" offset="0" stop-opacity="1" />
      <stop stop-color="#828282" offset="0.105" stop-opacity="1" />
      <stop stop-color="#545454" offset="1" stop-opacity="1" />
    </radialGradient>
    <radialGradient id="defitem29" gradientUnits="userSpaceOnUse" cx="114.117" cy="82.9209" fx="114.596" fy="83.4627" r="4.044" >
      <stop stop-color="#ffffff" offset="0" stop-opacity="1" />
      <stop stop-color="#fdfdfd" offset="0.1037" stop-opacity="1" />
      <stop stop-color="#f6f6f4" offset="0.1631" stop-opacity="1" />
      <stop stop-color="#ededeb" offset="0.1953" stop-opacity="1" />
      <stop stop-color="#ebebe8" offset="0.3286" stop-opacity="1" />
      <stop stop-color="#e2e2e2" offset="0.405" stop-opacity="1" />
      <stop stop-color="#dddddd" offset="0.4379" stop-opacity="1" />
      <stop stop-color="#878787" offset="0.8639" stop-opacity="1" />
    </radialGradient>
    <linearGradient id="defitem30" gradientUnits="userSpaceOnUse" x1="68.3823" y1="116.005" x2="68.3823" y2="98" >
      <stop stop-color="#646464" offset="0.27704" stop-opacity="1" />
      <stop stop-color="#212121" offset="0.5" stop-opacity="1" />
    </linearGradient>
    <linearGradient id="defitem31" gradientUnits="userSpaceOnUse" x1="67.944" y1="116.005" x2="67.944" y2="91.7178" >
      <stop stop-color="#ffffff" offset="0.0355" stop-opacity="1" />
      <stop stop-color="#898989" offset="0.27704" stop-opacity="1" />
      <stop stop-color="#212121" offset="0.5" stop-opacity="1" />
    </linearGradient>
    <linearGradient id="defitem32" gradientUnits="userSpaceOnUse" x1="64.0006" y1="116" x2="64.0006" y2="95.9999" >
      <stop stop-color="#797979" offset="0" stop-opacity="1" />
      <stop stop-color="#909090" offset="0.2874" stop-opacity="1" />
      <stop stop-color="#acacac" offset="0.31" stop-opacity="1" />
      <stop stop-color="#cccccc" offset="0.3305" stop-opacity="1" />
      <stop stop-color="#efefef" offset="0.3486" stop-opacity="1" />
      <stop stop-color="#ffffff" offset="0.355" stop-opacity="1" />
      <stop stop-color="#efefef" offset="0.3723" stop-opacity="1" />
      <stop stop-color="#e6e6e6" offset="0.3977" stop-opacity="1" />
      <stop stop-color="#dfdfdf" offset="0.4334" stop-opacity="1" />
      <stop stop-color="#dddddd" offset="0.5325" stop-opacity="1" />
      <stop stop-color="#ffffff" offset="1" stop-opacity="1" />
    </linearGradient>
    <radialGradient id="defitem33" gradientUnits="userSpaceOnUse" cx="38.1972" cy="65.0471" fx="107.632" fy="129.387" r="95.0019" >
      <stop stop-color="#525456" offset="0" stop-opacity="1" />
      <stop stop-color="#89898c" offset="0.113661" stop-opacity="1" />
      <stop stop-color="#ebebeb" offset="0.202967" stop-opacity="1" />
      <stop stop-color="#f9f9f9" offset="0.2363" stop-opacity="1" />
      <stop stop-color="#ffffff" offset="0.2722" stop-opacity="1" />
      <stop stop-color="#f9f9f9" offset="0.5313" stop-opacity="1" />
      <stop stop-color="#ebebeb" offset="0.8449" stop-opacity="1" />
      <stop stop-color="#e1e2e2" offset="1" stop-opacity="1" />
    </radialGradient>
    <linearGradient id="defitem34" gradientUnits="userSpaceOnUse" x1="66.1073" y1="117.52" x2="65.6398" y2="109.857" >
      <stop stop-color="#000000" offset="0" stop-opacity="1" />
      <stop stop-color="#000000" offset="1" stop-opacity="0" />
    </linearGradient>
    <linearGradient id="defitem35" gradientUnits="userSpaceOnUse" x1="83.0237" y1="123.146" x2="84.6724" y2="127.443" >
      <stop stop-color="#545454" offset="0.0533" stop-opacity="1" />
      <stop stop-color="#bababa" offset="0.211134" stop-opacity="1" />
      <stop stop-color="#ffffff" offset="0.362655" stop-opacity="1" />
      <stop stop-color="#ffffff" offset="0.603228" stop-opacity="1" />
      <stop stop-color="#e8e8e8" offset="0.849766" stop-opacity="1" />
      <stop stop-color="#545454" offset="1" stop-opacity="1" />
    </linearGradient>
    <linearGradient id="defitem36" gradientUnits="userSpaceOnUse" x1="95.7123" y1="124.237" x2="94.542" y2="121.19" >
      <stop stop-color="#3a3a3a" offset="0" stop-opacity="1" />
      <stop stop-color="#ffffff" offset="0.601942" stop-opacity="1" />
      <stop stop-color="#878787" offset="1" stop-opacity="1" />
    </linearGradient>
    <linearGradient id="defitem37" gradientUnits="userSpaceOnUse" x1="70.8513" y1="134.051" x2="66.7101" y2="123.277" >
      <stop stop-color="#666666" offset="0.0947" stop-opacity="1" />
      <stop stop-color="#b6b6b6" offset="0.409632" stop-opacity="1" />
      <stop stop-color="#ffffff" offset="0.505307" stop-opacity="1" />
      <stop stop-color="#a3a3a3" offset="0.630431" stop-opacity="1" />
      <stop stop-color="#646464" offset="0.9349" stop-opacity="1" />
    </linearGradient>
    <linearGradient id="defitem38" gradientUnits="userSpaceOnUse" x1="74.0795" y1="127.525" x2="66.092" y2="129.349" >
      <stop stop-color="#aeaeae" offset="0" stop-opacity="1" />
      <stop stop-color="#b1b1b1" offset="0.0602" stop-opacity="1" />
      <stop stop-color="#d8d8d8" offset="0.181039" stop-opacity="1" />
      <stop stop-color="#ffffff" offset="0.3195" stop-opacity="1" />
      <stop stop-color="#f4f4f4" offset="0.4353" stop-opacity="1" />
      <stop stop-color="#d4d4d4" offset="0.6028" stop-opacity="1" />
      <stop stop-color="#bababa" offset="0.7633" stop-opacity="1" />
      <stop stop-color="#b8bcc1" offset="0.8079" stop-opacity="1" />
      <stop stop-color="#bcbfc3" offset="0.9297" stop-opacity="1" />
      <stop stop-color="#b5b8ba" offset="1" stop-opacity="1" />
    </linearGradient>
    <linearGradient id="defitem39" gradientUnits="userSpaceOnUse" x1="71.7763" y1="128.062" x2="60.4103" y2="130.661" >
      <stop stop-color="#3a3a3a" offset="0" stop-opacity="1" />
      <stop stop-color="#ffffff" offset="0.601942" stop-opacity="1" />
      <stop stop-color="#878787" offset="1" stop-opacity="1" />
    </linearGradient>
    <linearGradient id="defitem40" gradientUnits="userSpaceOnUse" x1="98.168" y1="123.676" x2="96.9977" y2="120.629" >
      <stop stop-color="#3a3a3a" offset="0" stop-opacity="1" />
      <stop stop-color="#ffffff" offset="0.601942" stop-opacity="1" />
      <stop stop-color="#878787" offset="1" stop-opacity="1" />
    </linearGradient>
    <linearGradient id="defitem41" gradientUnits="userSpaceOnUse" x1="99.4073" y1="122.528" x2="95.5659" y2="120.721" >
      <stop stop-color="#bababa" offset="0" stop-opacity="1" />
      <stop stop-color="#000000" offset="1" stop-opacity="1" />
    </linearGradient>
    <linearGradient id="defitem42" gradientUnits="userSpaceOnUse" x1="98.3734" y1="120.811" x2="81.4167" y2="124.687" >
      <stop stop-color="#000000" offset="0" stop-opacity="1" />
      <stop stop-color="#ffffff" offset="1" stop-opacity="0" />
    </linearGradient>
    <linearGradient id="defitem43" gradientUnits="userSpaceOnUse" x1="83.8831" y1="122.643" x2="85.7503" y2="127.501" >
      <stop stop-color="#efefef" offset="0.4083" stop-opacity="1" />
      <stop stop-color="#c3c3c3" offset="0.506285" stop-opacity="1" />
      <stop stop-color="#8a8a8a" offset="0.560082" stop-opacity="1" />
      <stop stop-color="#383838" offset="0.679446" stop-opacity="1" />
    </linearGradient>
    <linearGradient id="defitem44" gradientUnits="userSpaceOnUse" x1="74.8426" y1="134.384" x2="73.2996" y2="137.334" >
      <stop stop-color="#ffffff" offset="0" stop-opacity="1" />
      <stop stop-color="#ffffff" offset="0.7574" stop-opacity="0.0189873" />
    </linearGradient>
  </defs>
  <g id="Layer">
    <g id="Layer">
      <g id="sombra">
        <g id="g3225">
          <path id="path1563" fill="url(#defitem0)" stroke-width="0" stroke-linecap="round" stroke-linejoin="round" d="M128 122.802C128 125.667 99.3468 127.99 64.0002 127.99C28.6539 127.99 0.0001705 125.667 0.0001705 122.802C0.0001705 119.937 28.6539 117.614 64.0002 117.614C99.3468 117.614 128 119.937 128 122.802L128 122.802Z"  />
          <path id="path3251" fill="url(#defitem1)" stroke-width="0" stroke-linecap="round" stroke-linejoin="round" d="M128 122.802L0.0001695 122.802C0.0001695 125.673 28.6539 128 64.0002 128C99.3468 128 128 125.673 128 122.802L128 122.802Z"  />
          <path id="path2455" fill="url(#defitem2)" stroke-width="0" stroke-linecap="round" stroke-linejoin="round" d="M128 122.802L0.0001695 122.802C0.0001695 119.697 28.6539 117.18 64.0002 117.18C99.3468 117.18 128 119.697 128 122.802L128 122.802Z"  />
        </g>
        <path id="path2440" fill="#ffffff" fill-opacity="0.5" stroke-width="0" stroke-linecap="round" stroke-linejoin="round" d="M64 117.184C29.7583 117.184 1.77662 119.526 0.0624993 122.496C0.00012425 122.59 -7.5e-07 122.714 -7.5e-07 122.809C-7.5e-07 122.988 0.0940033 123.134 0.312499 123.309C0.425012 123.402 0.546841 123.499 0.718749 123.59C1.85178 124.191 4.27039 124.763 7.71875 125.278C9.68924 125.572 11.9852 125.833 14.5938 126.09C18.5066 126.474 23.1115 126.81 28.2188 127.09C33.326 127.37 38.9567 127.594 44.9688 127.746C50.9808 127.898 57.3726 127.996 64 127.996C70.6275 127.996 77.0192 127.898 83.0313 127.746C89.0433 127.594 94.6741 127.37 99.7813 127.09C104.888 126.81 109.462 126.474 113.375 126.09C115.984 125.833 118.311 125.572 120.281 125.278C123.73 124.763 126.117 124.191 127.25 123.59C127.422 123.499 127.544 123.402 127.656 123.309C127.766 123.222 127.851 123.147 127.906 123.059C127.962 122.97 128 122.898 128 122.809C128 122.714 127.969 122.59 127.906 122.496C126.192 119.526 98.242 117.184 64 117.184Z"  />
      </g>
      <path id="polygon76" fill="url(#defitem3)" d="M8.00013 43.982L120 43.982L122.932 59.867L5.06813 59.867L8.00013 43.982Z"  />
      <path id="path16" fill="url(#defitem4)" d="M29.1601 28.097C28.2911 28.097 27.5841 28.804 27.5841 29.673L27.5841 50.682C27.5841 51.551 28.2911 52.258 29.1601 52.258L98.8401 52.258C99.7091 52.258 100.416 51.551 100.416 50.682L100.416 29.673C100.416 28.804 99.7091 28.097 98.8401 28.097L29.1601 28.097Z"  />
      <path id="path23" fill="url(#defitem5)" d="M4.66713 81.139C17.0631 86.359 38.9951 89.834 64.0001 89.834C89.0051 89.834 110.935 86.359 123.333 81.139L123.333 77.403L4.66713 77.403L4.66713 81.139Z"  />
      <path id="path46" fill="url(#defitem6)" d="M5.06813 59.867C44.3561 59.867 83.6431 59.867 122.931 59.867C124.356 78.025 124.356 85.71 122.931 103.867C83.6431 103.867 44.3561 103.867 5.06813 103.867C3.64413 85.71 3.64413 78.025 5.06813 59.867Z"  />
      <g id="g48">
        <path id="path63" fill="url(#defitem7)" d="M7.03313 59.867C45.0111 59.867 82.9881 59.867 120.967 59.867C122.345 78.025 122.345 85.71 120.967 103.867C82.9881 103.867 45.0111 103.867 7.03313 103.867C5.65612 85.71 5.65612 78.025 7.03313 59.867Z"  />
      </g>
      <path id="path386" fill="url(#defitem8)" d="M27.9661 75.982L27.9661 61.982L99.9661 61.982L99.9661 75.982L27.9661 75.982Z"  />
      <path id="polygon122" fill="url(#defitem9)" d="M28.5001 38.236L99.4331 38.236L100.433 57.808L27.5001 57.808L28.5001 38.236Z"  />
      <g id="g124">
        <path id="path390" fill="url(#defitem10)" d="M27.0671 75.982L27.0671 44.119L28.1021 44.119L28.1021 75.982L27.0671 75.982Z"  />
      </g>
      <g id="g151">
        <path id="path393" fill="url(#defitem11)" d="M99.8981 75.982L99.8981 44.119L100.932 44.119L100.932 75.982L99.8981 75.982Z"  />
      </g>
      <path id="path183" fill="url(#defitem12)" d="M77.0001 74.697C77.0001 72.092 75.2701 69.982 73.1351 69.982L54.8651 69.982C52.7301 69.982 51.0001 72.091 51.0001 74.697L51.0001 74.697C51.0001 75.982 51.0001 75.982 51.0001 75.982L77.0001 75.982C77.0001 75.982 77.0001 75.982 77.0001 74.697L77.0001 74.697Z"  />
      <path id="path190" fill="url(#defitem13)" d="M77.0001 74.9C77.0001 72.707 75.2701 70.928 73.1351 70.928L54.8651 70.928C52.7301 70.929 51.0001 72.707 51.0001 74.9L51.0001 74.9C51.0001 75.982 51.0001 75.982 51.0001 75.982L77.0001 75.982C77.0001 75.982 77.0001 75.982 77.0001 74.9L77.0001 74.9Z"  />
      <path id="path197" fill="url(#defitem14)" d="M6 77.982L122 77.982C121.996 77.317 121.992 76.651 121.988 75.982L6.01257 75.982C6.00774 76.651 6.00387 77.317 6 77.982Z"  />
      <g id="g8211">
        <path id="path216" fill="url(#defitem15)" d="M100.671 85.967L27.3301 85.967C24.9571 85.967 23.0331 87.848 23.0331 90.168L23.0331 91.219C23.0331 88.899 24.9571 87.018 27.3301 87.018L100.671 87.018C103.044 87.018 104.968 88.899 104.968 91.219L104.968 90.168C104.968 87.848 103.044 85.967 100.671 85.967Z"  />
        <path id="path225" fill="url(#defitem16)" d="M23.8911 89.471C23.2021 90.342 22.7701 91.481 22.7701 92.742L22.7701 104C23.1201 104 23.4701 104 23.8201 104L23.8201 90.287C23.8211 90.008 23.8531 89.738 23.8911 89.471Z"  />
        <path id="path232" fill="url(#defitem17)" d="M104.109 89.471C104.147 89.739 104.179 90.008 104.179 90.287L104.179 104C104.529 104 104.879 104 105.23 104L105.23 92.742C105.23 91.48 104.798 90.342 104.109 89.471Z"  />
        <path id="path243" fill="url(#defitem18)" d="M99.9781 88.068L28.0221 88.068C25.7021 88.068 23.8201 89.949 23.8201 92.269L23.8201 103.999C47.1051 103.999 80.8941 103.999 104.179 103.999L104.179 92.269C104.18 89.949 102.298 88.068 99.9781 88.068Z"  />
        <path id="path254" fill="url(#defitem19)" d="M100.671 87.018L27.3301 87.018C24.9571 87.018 23.0331 88.899 23.0331 91.219L23.0331 92.27C23.0331 89.95 24.9571 88.069 27.3301 88.069L100.671 88.069C103.044 88.069 104.968 89.95 104.968 92.27L104.968 91.219C104.968 88.898 103.044 87.018 100.671 87.018Z"  />
      </g>
      <path id="path331" fill="url(#defitem20)" d="M29.1601 28.623C28.5801 28.623 28.1101 29.094 28.1101 29.673L28.1101 50.682C28.1101 51.263 28.5801 51.732 29.1601 51.732L98.8401 51.732C99.4211 51.732 99.8911 51.262 99.8911 50.682L99.8911 29.673C99.8911 29.093 99.4211 28.623 98.8401 28.623L29.1601 28.623Z"  />
      <path id="path405" fill="url(#defitem21)" d="M27.9661 59.982L27.9661 45.982L99.9661 45.982L99.9661 59.982L27.9661 59.982Z"  />
      <path id="polygon338" fill="url(#defitem22)" d="M29.1601 29.673L29.1601 52.346L64.0001 53.352L98.8401 52.346L98.8401 29.673L29.1601 29.673Z"  />
      <path id="path408" fill="none" stroke="#000000" stroke-opacity="0.1" stroke-width="8" stroke-linejoin="round" d="M32.0001 52L32.0001 8L96.0001 8L96.0001 52L32.0001 52Z"  />
      <path id="path410" fill="none" stroke="#000000" stroke-opacity="0.15" stroke-width="6" stroke-linejoin="round" d="M32.0001 51.732L32.0001 7.732L96.0001 7.732L96.0001 51.732L32.0001 51.732Z"  />
      <path id="path412" fill="none" stroke="#000000" stroke-opacity="0.2" stroke-width="4" stroke-linejoin="round" d="M32.0001 51.732L32.0001 7.732L96.0001 7.732L96.0001 51.732L32.0001 51.732Z"  />
      <path id="path346" fill="#313131" fill-opacity="0" d="M32.0001 6.732C31.4481 6.732 31.0001 7.18 31.0001 7.732L31.0001 51.732C31.0001 52.284 31.4481 52.732 32.0001 52.732L96.0001 52.732C96.5531 52.732 97.0001 52.284 97.0001 51.732L97.0001 7.732C97.0001 7.18 96.5531 6.732 96.0001 6.732L32.0001 6.732L32.0001 6.732Z"  />
      <path id="path415" fill="none" stroke="#000000" stroke-opacity="0.25" stroke-width="2" stroke-linejoin="round" d="M32.0001 51.732L32.0001 7.732L96.0001 7.732L96.0001 51.732L32.0001 51.732Z"  />
      <path id="path417" fill="url(#defitem23)" d="M32.0001 51.732L32.0001 7.732L96.0001 7.732L96.0001 51.732L32.0001 51.732Z"  />
      <path id="path3535" fill="url(#defitem24)" d="M112.001 91.168C112.001 92.697 113.244 93.939 114.772 93.939C116.3 93.939 117.543 92.697 117.543 91.168C117.543 89.641 116.3 88.397 114.772 88.397C113.244 88.396 112.001 89.641 112.001 91.168ZM112.641 91.168C112.641 89.994 113.597 89.037 114.772 89.037C115.948 89.037 116.904 89.994 116.904 91.168C116.904 92.344 115.948 93.299 114.772 93.299C113.597 93.299 112.641 92.344 112.641 91.168Z"  />
      <path id="path420" fill="url(#defitem25)" d="M117.092 91.168C117.092 92.4493 116.053 93.488 114.772 93.488C113.491 93.488 112.452 92.4493 112.452 91.168C112.452 89.8867 113.491 88.848 114.772 88.848C116.053 88.848 117.092 89.8867 117.092 91.168Z"  />
      <path id="path422" fill="url(#defitem26)" d="M116.882 91.168C116.882 92.3333 115.937 93.278 114.772 93.278C113.607 93.278 112.662 92.3333 112.662 91.168C112.662 90.0027 113.607 89.058 114.772 89.058C115.937 89.058 116.882 90.0027 116.882 91.168Z"  />
      <path id="path3576" fill="url(#defitem27)" d="M112.175 84.164C112.175 85.693 113.418 86.935 114.946 86.935C116.475 86.935 117.718 85.693 117.718 84.164C117.718 82.637 116.475 81.394 114.946 81.394C113.418 81.395 112.175 82.637 112.175 84.164ZM112.815 84.164C112.815 82.99 113.771 82.033 114.945 82.033C116.121 82.033 117.077 82.99 117.077 84.164C117.077 85.34 116.121 86.297 114.945 86.297C113.771 86.297 112.815 85.34 112.815 84.164Z"  />
      <path id="path425" fill="url(#defitem28)" d="M117.266 84.164C117.266 85.4453 116.227 86.484 114.946 86.484C113.665 86.484 112.626 85.4453 112.626 84.164C112.626 82.8827 113.665 81.844 114.946 81.844C116.227 81.844 117.266 82.8827 117.266 84.164Z"  />
      <path id="path3604" fill="url(#defitem29)" d="M112.837 84.164C112.837 85.328 113.782 86.275 114.945 86.275C116.109 86.275 117.055 85.328 117.055 84.164C117.055 83.002 116.109 82.055 114.945 82.055C113.782 82.055 112.837 83.002 112.837 84.164Z"  />
      <g id="g9392">
        <path id="path256" fill="url(#defitem30)" d="M24 98C24 98.8018 24 115.198 24 116C25.0221 116 102.979 116 104 116C104 115.198 104 98.8018 104 98C102.979 98 25.0231 98 24 98Z"  />
        <path id="path10007" fill="url(#defitem31)" d="M31.8499 100C31.8499 100.735 28 115.265 28 116C28.9199 116 99.081 116 100 116C100 115.265 96.1508 100.735 96.1508 100C95.2318 100 32.7707 100 31.8499 100Z"  />
        <path id="path289" fill="url(#defitem32)" d="M100 92C100 99.553 100 114.541 100 116C97.979 116 30.02 116 28 116C28 114.541 28 99.5522 28 92C27.377 92 24.064 92 24 92C24 92.808 24 119.19 24 120C25.03 120 102.971 120 104 120C104 119.19 104 92.808 104 92C103.936 92 100.622 92 100 92Z"  />
      </g>
      <path id="path12391" fill="none" stroke="#000000" stroke-opacity="0.1" stroke-width="8" stroke-linejoin="round" d="M32.0001 124L96.0001 124L92 96.268L36 96.268L32.0001 124Z"  />
      <path id="path12389" fill="none" stroke="#000000" stroke-opacity="0.15" stroke-width="6" stroke-linejoin="round" d="M32.0001 124L96.0001 124L92 96.268L36 96.268L32.0001 124Z"  />
      <path id="path12387" fill="none" stroke="#000000" stroke-opacity="0.2" stroke-width="4" stroke-linejoin="round" d="M32.0001 124L96.0001 124L92 96.268L36 96.268L32.0001 124Z"  />
      <path id="path11500" fill="none" stroke="#000000" stroke-opacity="0.25" stroke-width="2" stroke-linejoin="round" d="M32.0001 124L96.0001 124L92 96.268L36 96.268L32.0001 124Z"  />
    </g>
    <g id="g57759">
      <path id="path6220" fill="url(#defitem33)" d="M95.5883 123.146C95.9634 123.146 96.2691 122.889 96.2691 122.573L91.87 96.3873L36.398 96.0471L32.2803 122.573C32.2803 122.889 32.5853 123.146 32.961 123.146L95.5883 123.146Z"  />
      <path id="text3688" fill="#ff0000" stroke-width="0.777622" d="M87.4311 112.057L86.8742 112.057L87.7256 109.022L85.7214 109.022L85.8308 108.632L88.3919 108.632L87.4311 112.057M83.5362 110.906C83.8082 110.906 84.0481 110.817 84.2559 110.639C84.4633 110.463 84.6101 110.222 84.6964 109.914C84.7826 109.607 84.7725 109.364 84.666 109.187C84.5573 109.011 84.366 108.923 84.0922 108.923C83.822 108.923 83.583 109.012 83.3752 109.189C83.1674 109.367 83.0205 109.608 82.9347 109.914C82.8494 110.219 82.8608 110.46 82.9691 110.637C83.077 110.816 83.266 110.906 83.5362 110.906M83.4358 111.263C82.9947 111.263 82.6817 111.144 82.4968 110.906C82.312 110.667 82.2787 110.337 82.3972 109.914C82.5151 109.494 82.7337 109.163 83.0529 108.923C83.3716 108.685 83.7515 108.565 84.1926 108.565C84.6355 108.565 84.9494 108.685 85.1343 108.923C85.3169 109.163 85.3492 109.494 85.2312 109.914C85.1128 110.337 84.8951 110.667 84.5783 110.906C84.2595 111.144 83.8787 111.263 83.4358 111.263M79.5195 110.807C79.5688 110.834 79.6257 110.854 79.6902 110.867C79.7526 110.88 79.8241 110.887 79.905 110.887C80.1917 110.887 80.4341 110.809 80.6323 110.653C80.8282 110.499 80.9669 110.276 81.0484 109.986L81.4281 108.632L81.9381 108.632L81.2173 111.201L80.7073 111.201L80.8193 110.802C80.6689 110.958 80.4978 111.074 80.3058 111.149C80.1135 111.225 79.895 111.263 79.6506 111.263C79.6157 111.263 79.5777 111.261 79.5367 111.257C79.4953 111.254 79.45 111.248 79.4006 111.24L79.5195 110.807M76.5609 110.022L76.6189 109.816L78.9512 109.816C79.0106 109.525 78.9681 109.303 78.8235 109.15C78.6767 108.999 78.4351 108.923 78.0988 108.923C77.9039 108.923 77.71 108.943 77.5169 108.983C77.3219 109.023 77.1232 109.082 76.9208 109.162L77.0328 108.763C77.2328 108.698 77.433 108.65 77.6336 108.616C77.8342 108.582 78.0328 108.565 78.2295 108.565C78.722 108.565 79.0791 108.685 79.3008 108.923C79.5205 109.162 79.5734 109.485 79.4592 109.892C79.3413 110.312 79.1117 110.645 78.7706 110.892C78.4273 111.139 78.024 111.263 77.5609 111.263C77.1455 111.263 76.8488 111.152 76.6706 110.928C76.4903 110.707 76.4537 110.405 76.5609 110.022M77.0335 110.146C76.9723 110.377 76.9988 110.561 77.1127 110.699C77.2248 110.837 77.4058 110.906 77.6558 110.906C77.9388 110.906 78.1845 110.839 78.3927 110.706C78.5991 110.573 78.7491 110.386 78.8426 110.144L77.0335 110.146M73.132 110.708C72.9519 110.898 72.7611 111.038 72.5593 111.128C72.3576 111.218 72.1372 111.263 71.8983 111.263C71.5766 111.263 71.3549 111.169 71.2331 110.981C71.1108 110.795 71.0982 110.529 71.1951 110.183L71.6302 108.632L72.1402 108.632L71.709 110.169C71.64 110.415 71.6411 110.598 71.7123 110.717C71.7837 110.837 71.9268 110.896 72.1418 110.896C72.4047 110.896 72.6327 110.824 72.826 110.678C73.0193 110.533 73.1512 110.335 73.2215 110.084L73.6289 108.632L74.1389 108.632L73.7077 110.169C73.6382 110.417 73.6394 110.6 73.7111 110.717C73.7824 110.837 73.9274 110.896 74.1461 110.896C74.4052 110.896 74.6317 110.823 74.8254 110.676C75.0187 110.531 75.1503 110.334 75.2203 110.084L75.6276 108.632L76.1377 108.632L75.4169 111.201L74.9069 111.201L75.0188 110.802C74.8589 110.96 74.6875 111.076 74.5047 111.151C74.322 111.226 74.1194 111.263 73.897 111.263C73.6728 111.263 73.4959 111.216 73.3662 111.121C73.2348 111.026 73.1567 110.889 73.132 110.708M68.0974 111.201L67.5901 111.201L68.3109 108.632L68.8182 108.632L68.0974 111.201M67.8168 112.202L67.3095 112.202L67.4595 111.667L67.9668 111.667L67.8168 112.202M66.6534 109.017L67.0357 107.654L67.5457 107.654L66.5508 111.201L66.0408 111.201L66.1502 110.811C66.0007 110.964 65.8348 111.078 65.6524 111.151C65.4678 111.226 65.2625 111.263 65.0364 111.263C64.6615 111.263 64.3921 111.139 64.2282 110.892C64.0624 110.644 64.0362 110.318 64.1494 109.914C64.2627 109.511 64.4717 109.185 64.7765 108.937C65.0794 108.689 65.4183 108.565 65.7932 108.565C66.0193 108.565 66.2038 108.602 66.3468 108.675C66.4875 108.75 66.5897 108.864 66.6534 109.017M64.676 109.914C64.5889 110.225 64.5979 110.468 64.7029 110.644C64.8057 110.821 64.9913 110.91 65.2596 110.91C65.5279 110.91 65.7642 110.821 65.9683 110.644C66.1702 110.468 66.3147 110.225 66.4018 109.914C66.4889 109.604 66.4811 109.36 66.3783 109.183C66.2732 109.007 66.0865 108.919 65.8182 108.919C65.5499 108.919 65.3148 109.007 65.1129 109.183C64.9087 109.36 64.7631 109.604 64.676 109.914M61.0004 111.126L61.1124 110.727C61.2386 110.788 61.3746 110.834 61.5204 110.864C61.6662 110.895 61.8218 110.91 61.9872 110.91C62.239 110.91 62.4373 110.878 62.5821 110.814C62.7251 110.749 62.8147 110.653 62.8507 110.525C62.8782 110.427 62.8548 110.35 62.7806 110.293C62.706 110.238 62.5398 110.185 62.2819 110.135L62.1172 110.102C61.775 110.038 61.5451 109.947 61.4274 109.829C61.3075 109.713 61.2769 109.55 61.3357 109.341C61.4026 109.102 61.5695 108.913 61.8365 108.774C62.1016 108.635 62.4326 108.565 62.8296 108.565C62.995 108.565 63.1639 108.579 63.3363 108.607C63.5073 108.633 63.6845 108.672 63.868 108.726L63.7457 109.162C63.581 109.081 63.4135 109.02 63.2431 108.978C63.0723 108.939 62.8978 108.919 62.7195 108.919C62.4805 108.919 62.2873 108.952 62.1398 109.02C61.9918 109.088 61.9005 109.185 61.8657 109.309C61.8336 109.423 61.8557 109.511 61.9323 109.573C62.0071 109.634 62.1936 109.693 62.492 109.749L62.6588 109.784C62.9577 109.839 63.161 109.923 63.269 110.036C63.3765 110.151 63.4023 110.308 63.3466 110.506C63.2788 110.748 63.1235 110.935 62.8808 111.066C62.638 111.198 62.3274 111.263 61.9487 111.263C61.7613 111.263 61.5881 111.252 61.4291 111.229C61.2701 111.206 61.1272 111.172 61.0004 111.126M60.4919 109.646L60.0556 111.201L59.5483 111.201L59.9802 109.662C60.0484 109.419 60.0427 109.236 59.9631 109.114C59.883 108.993 59.729 108.933 59.5011 108.933C59.2273 108.933 58.9909 109.005 58.7921 109.15C58.5915 109.296 58.4559 109.494 58.3856 109.745L57.9769 111.201L57.4697 111.201L58.1904 108.632L58.6977 108.632L58.587 109.026C58.7539 108.87 58.9299 108.754 59.1149 108.678C59.2977 108.603 59.4966 108.565 59.7116 108.565C60.0663 108.565 60.3098 108.657 60.4421 108.841C60.5744 109.024 60.591 109.293 60.4919 109.646M54.1537 110.708C53.9737 110.898 53.7828 111.038 53.581 111.128C53.3793 111.218 53.1589 111.263 52.92 111.263C52.5984 111.263 52.3766 111.169 52.2548 110.981C52.1325 110.795 52.1199 110.529 52.2169 110.183L52.6519 108.632L53.1619 108.632L52.7307 110.169C52.6617 110.415 52.6628 110.598 52.7341 110.717C52.8054 110.837 52.9485 110.896 53.1636 110.896C53.4264 110.896 53.6545 110.824 53.8478 110.678C54.0411 110.533 54.1729 110.335 54.2433 110.084L54.6506 108.632L55.1606 108.632L54.7295 110.169C54.66 110.417 54.6611 110.6 54.7328 110.717C54.8041 110.837 54.9491 110.896 55.1678 110.896C55.427 110.896 55.6534 110.823 55.8471 110.676C56.0404 110.531 56.1721 110.334 56.242 110.084L56.6494 108.632L57.1594 108.632L56.4386 111.201L55.9286 111.201L56.0406 110.802C55.8806 110.96 55.7092 111.076 55.5264 111.151C55.3437 111.226 55.1411 111.263 54.9187 111.263C54.6945 111.263 54.5176 111.216 54.388 111.121C54.2565 111.026 54.1784 110.889 54.1537 110.708M47.1967 110.811L46.8067 112.202L46.2995 112.202L47.3008 108.632L47.8081 108.632L47.7 109.017C47.8495 108.864 48.0165 108.75 48.2011 108.675C48.3834 108.602 48.5886 108.565 48.8165 108.565C49.1895 108.565 49.459 108.689 49.6247 108.937C49.7886 109.185 49.814 109.511 49.7007 109.914C49.5874 110.318 49.3793 110.644 49.0764 110.892C48.7717 111.139 48.4327 111.263 48.0596 111.263C47.8318 111.263 47.6474 111.226 47.5067 111.151C47.3637 111.078 47.2604 110.964 47.1967 110.811M49.1769 109.914C49.264 109.604 49.2561 109.36 49.1534 109.183C49.0483 109.007 48.8616 108.919 48.5933 108.919C48.3249 108.919 48.0889 109.007 47.8852 109.183C47.6811 109.36 47.5354 109.604 47.4483 109.914C47.3612 110.225 47.3702 110.468 47.4753 110.644C47.5799 110.821 47.7663 110.91 48.0347 110.91C48.303 110.91 48.5393 110.821 48.7434 110.644C48.9453 110.468 49.0898 110.225 49.1769 109.914M44.4217 110.906C44.6937 110.906 44.9337 110.817 45.1415 110.639C45.3489 110.463 45.4957 110.222 45.5819 109.914C45.6682 109.607 45.6581 109.364 45.5516 109.187C45.4429 109.011 45.2516 108.923 44.9777 108.923C44.7076 108.923 44.4686 109.012 44.2608 109.189C44.0529 109.367 43.9061 109.608 43.8203 109.914C43.7349 110.219 43.7464 110.46 43.8547 110.637C43.9625 110.816 44.1516 110.906 44.4217 110.906M44.3213 111.263C43.8802 111.263 43.5673 111.144 43.3824 110.906C43.1975 110.667 43.1643 110.337 43.2827 109.914C43.4007 109.494 43.6193 109.163 43.9384 108.923C44.2571 108.685 44.637 108.565 45.0781 108.565C45.5211 108.565 45.835 108.685 46.0199 108.923C46.2024 109.163 46.2348 109.494 46.1168 109.914C45.9984 110.337 45.7807 110.667 45.4638 110.906C45.1451 111.144 44.7643 111.263 44.3213 111.263M41.803 112.202L41.2957 112.202L42.2971 108.632L42.8044 108.632L41.803 112.202M39.4042 110.906C39.6762 110.906 39.9162 110.817 40.124 110.639C40.3314 110.463 40.4782 110.222 40.5644 109.914C40.6507 109.607 40.6406 109.364 40.5341 109.187C40.4254 109.011 40.2341 108.923 39.9602 108.923C39.6901 108.923 39.4511 109.012 39.2433 109.189C39.0354 109.367 38.8886 109.608 38.8028 109.914C38.7174 110.219 38.7289 110.46 38.8372 110.637C38.945 110.816 39.134 110.906 39.4042 110.906M39.3038 111.263C38.8627 111.263 38.5498 111.144 38.3649 110.906C38.18 110.667 38.1468 110.337 38.2652 109.914C38.3832 109.494 38.6018 109.163 38.9209 108.923C39.2396 108.685 39.6195 108.565 40.0606 108.565C40.5036 108.565 40.8175 108.685 41.0023 108.923C41.1849 109.163 41.2172 109.494 41.0993 109.914C40.9809 110.337 40.7632 110.667 40.4463 110.906C40.1276 111.144 39.7468 111.263 39.3038 111.263M35.3876 110.807C35.4368 110.834 35.4937 110.854 35.5583 110.867C35.6206 110.88 35.6922 110.887 35.7731 110.887C36.0598 110.887 36.3022 110.809 36.5004 110.653C36.6962 110.499 36.8349 110.276 36.9164 109.986L37.2961 108.632L37.8062 108.632L37.0854 111.201L36.5754 111.201L36.6873 110.802C36.537 110.958 36.3658 111.074 36.1739 111.149C35.9815 111.225 35.7631 111.263 35.5186 111.263C35.4837 111.263 35.4458 111.261 35.4048 111.257C35.3634 111.254 35.318 111.248 35.2687 111.24L35.3876 110.807M88.5973 100.961L88.7092 100.562C88.8354 100.623 88.9714 100.669 89.1172 100.7C89.263 100.73 89.4187 100.745 89.5841 100.745C89.8359 100.745 90.0342 100.713 90.179 100.649C90.322 100.585 90.4115 100.488 90.4476 100.36C90.475 100.262 90.4517 100.185 90.3775 100.128C90.3029 100.073 90.1366 100.02 89.8788 99.9699L89.7141 99.9378C89.3719 99.8736 89.142 99.7826 89.0243 99.6648C88.9043 99.5486 88.8738 99.3857 88.9325 99.1761C88.9995 98.9375 89.1664 98.7486 89.4333 98.6094C89.6985 98.4703 90.0295 98.4007 90.4265 98.4007C90.5919 98.4007 90.7608 98.4144 90.9332 98.442C91.1042 98.468 91.2814 98.5077 91.4649 98.5613L91.3426 98.9972C91.1779 98.9161 91.0103 98.8549 90.84 98.8136C90.6692 98.7739 90.4946 98.754 90.3163 98.754C90.0774 98.754 89.8842 98.7876 89.7367 98.8549C89.5887 98.9238 89.4973 99.0201 89.4626 99.144C89.4304 99.2587 89.4526 99.3467 89.5292 99.4078C89.6039 99.469 89.7905 99.5279 90.0889 99.5845L90.2557 99.6189C90.5545 99.674 90.7579 99.7581 90.8658 99.8713C90.9734 99.986 90.9992 100.143 90.9434 100.342C90.8756 100.583 90.7204 100.77 90.4776 100.901C90.2349 101.033 89.9242 101.099 89.5456 101.099C89.3581 101.099 89.1849 101.087 89.0259 101.064C88.867 101.041 88.7241 101.007 88.5973 100.961M87.6001 101.037L87.0928 101.037L87.8136 98.4672L88.3209 98.4672L87.6001 101.037M87.3195 102.037L86.8122 102.037L86.9622 101.502L87.4695 101.502L87.3195 102.037M85.3278 101.766L85.5324 101.037L84.4876 101.037L84.5796 100.709L85.6245 100.709L86.0157 99.3138C86.0745 99.1042 86.0783 98.9696 86.027 98.91C85.9739 98.8503 85.8417 98.8205 85.6303 98.8205L85.1093 98.8205L85.2084 98.4672L85.7294 98.4672C86.1209 98.4672 86.3741 98.5276 86.4891 98.6484C86.6036 98.7708 86.6159 98.9926 86.5258 99.3138L86.1345 100.709L86.5067 100.709L86.4146 101.037L86.0425 101.037L85.8378 101.766L85.3278 101.766M80.9754 99.7589C81.3853 99.7589 81.6802 99.7199 81.8601 99.6419C82.04 99.5639 82.1564 99.4308 82.2092 99.2427C82.2512 99.0928 82.2259 98.9735 82.1331 98.8848C82.0381 98.7976 81.8886 98.754 81.6846 98.754C81.4034 98.754 81.1551 98.8366 80.9397 99.0018C80.722 99.1685 80.5745 99.3895 80.4973 99.6648L80.4709 99.7589L80.9754 99.7589M79.9147 99.9332L80.326 98.4672L80.8332 98.4672L80.7238 98.8572C80.8834 98.7012 81.06 98.5857 81.2538 98.5108C81.4472 98.4374 81.6688 98.4007 81.9188 98.4007C82.2349 98.4007 82.4661 98.4741 82.6124 98.6209C82.7564 98.7693 82.7937 98.9673 82.7242 99.2151C82.6431 99.5042 82.4661 99.7222 82.1934 99.869C81.9188 100.016 81.5508 100.089 81.0895 100.089L80.3782 100.089L80.3666 100.13C80.3122 100.325 80.3473 100.475 80.4721 100.58C80.5946 100.687 80.7946 100.741 81.0721 100.741C81.2486 100.741 81.4254 100.723 81.6025 100.688C81.7796 100.653 81.9552 100.6 82.1293 100.53L82.0199 100.92C81.8176 100.979 81.625 101.024 81.4423 101.053C81.2591 101.083 81.0848 101.099 80.9194 101.099C80.4728 101.099 80.1662 101.002 79.9997 100.81C79.8332 100.617 79.8049 100.325 79.9147 99.9332M76.2919 100.543C76.1119 100.733 75.921 100.873 75.7193 100.963C75.5175 101.054 75.2972 101.099 75.0583 101.099C74.7366 101.099 74.5149 101.005 74.3931 100.817C74.2708 100.63 74.2582 100.364 74.3551 100.018L74.7902 98.4672L75.3002 98.4672L74.869 100.004C74.7999 100.251 74.8011 100.433 74.8723 100.553C74.9436 100.672 75.0868 100.732 75.3018 100.732C75.5647 100.732 75.7927 100.659 75.986 100.514C76.1793 100.368 76.3112 100.17 76.3815 99.9195L76.7889 98.4672L77.2989 98.4672L76.8677 100.004C76.7982 100.252 76.7994 100.435 76.8711 100.553C76.9424 100.672 77.0874 100.732 77.3061 100.732C77.5652 100.732 77.7917 100.658 77.9854 100.511C78.1787 100.366 78.3103 100.169 78.3803 99.9195L78.7876 98.4672L79.2976 98.4672L78.5769 101.037L78.0668 101.037L78.1788 100.638C78.0189 100.795 77.8475 100.911 77.6647 100.986C77.482 101.061 77.2794 101.099 77.057 101.099C76.8328 101.099 76.6559 101.051 76.5262 100.957C76.3948 100.862 76.3167 100.724 76.2919 100.543M70.7446 99.8575L70.8025 99.651L73.1348 99.651C73.1943 99.3604 73.1517 99.1387 73.0071 98.9857C72.8603 98.8343 72.6187 98.7586 72.2824 98.7586C72.0876 98.7586 71.8936 98.7785 71.7005 98.8182C71.5056 98.858 71.3069 98.9176 71.1044 98.9972L71.2164 98.598C71.4164 98.5337 71.6167 98.4848 71.8172 98.4511C72.0178 98.4175 72.2165 98.4007 72.4131 98.4007C72.9057 98.4007 73.2628 98.52 73.4844 98.7586C73.7042 98.9972 73.757 99.3199 73.6429 99.7268C73.5249 100.147 73.2954 100.481 72.9543 100.727C72.6109 100.975 72.2077 101.099 71.7445 101.099C71.3291 101.099 71.0324 100.987 70.8543 100.764C70.6739 100.542 70.6373 100.24 70.7446 99.8575M71.2171 99.9814C71.156 100.212 71.1824 100.397 71.2963 100.534C71.4084 100.672 71.5894 100.741 71.8394 100.741C72.1224 100.741 72.3681 100.674 72.5763 100.541C72.7827 100.408 72.9327 100.221 73.0262 99.9791L71.2171 99.9814M68.8748 101.766L69.0795 101.037L68.0346 101.037L68.1266 100.709L69.1715 100.709L69.5628 99.3138C69.6215 99.1042 69.6253 98.9696 69.574 98.91C69.5209 98.8503 69.3887 98.8205 69.1773 98.8205L68.6563 98.8205L68.7554 98.4672L69.2764 98.4672C69.6679 98.4672 69.9211 98.5276 70.0361 98.6484C70.1507 98.7708 70.1629 98.9926 70.0728 99.3138L69.6815 100.709L70.0537 100.709L69.9617 101.037L69.5895 101.037L69.3848 101.766L68.8748 101.766M63.3728 100.938L63.4835 100.543C63.6085 100.609 63.739 100.658 63.8752 100.69C64.0091 100.724 64.1496 100.741 64.2966 100.741C64.6256 100.741 64.9055 100.654 65.1364 100.479C65.3668 100.306 65.526 100.063 65.614 99.7497C65.7019 99.4361 65.6794 99.1922 65.5463 99.0178C65.4128 98.845 65.1816 98.7586 64.8526 98.7586C64.7056 98.7586 64.5559 98.7746 64.4035 98.8067C64.2489 98.8404 64.0907 98.8901 63.9289 98.9559L64.0383 98.5658C64.1952 98.5108 64.3539 98.4695 64.5141 98.442C64.6726 98.4144 64.8372 98.4007 65.0082 98.4007C65.4732 98.4007 65.8085 98.5223 66.0141 98.7655C66.2197 99.0086 66.2646 99.3367 66.1488 99.7497C66.0312 100.169 65.8009 100.498 65.4579 100.739C65.113 100.979 64.6998 101.099 64.2183 101.099C64.062 101.099 63.9134 101.085 63.7722 101.057C63.6306 101.031 63.4975 100.992 63.3728 100.938M61.344 100.741C61.616 100.741 61.8559 100.652 62.0638 100.475C62.2712 100.299 62.418 100.057 62.5042 99.7497C62.5904 99.4423 62.5803 99.1998 62.4739 99.0224C62.3652 98.8465 62.1739 98.7586 61.9 98.7586C61.6299 98.7586 61.3909 98.8473 61.183 99.0247C60.9752 99.2021 60.8284 99.4438 60.7426 99.7497C60.6572 100.054 60.6687 100.295 60.7769 100.472C60.8848 100.651 61.0738 100.741 61.344 100.741M61.2436 101.099C60.8025 101.099 60.4895 100.979 60.3047 100.741C60.1198 100.502 60.0866 100.172 60.205 99.7497C60.323 99.3291 60.5415 98.9987 60.8607 98.7586C61.1794 98.52 61.5593 98.4007 62.0004 98.4007C62.4434 98.4007 62.7573 98.52 62.9421 98.7586C63.1247 98.9987 63.157 99.3291 63.039 99.7497C62.9206 100.172 62.703 100.502 62.3861 100.741C62.0674 100.979 61.6865 101.099 61.2436 101.099M56.725 100.018L57.16 98.4672L57.6673 98.4672L57.2361 100.004C57.1679 100.248 57.1738 100.43 57.2538 100.55C57.3339 100.671 57.4879 100.732 57.7158 100.732C57.9896 100.732 58.226 100.659 58.4248 100.514C58.6236 100.368 58.7582 100.17 58.8286 99.9195L59.2359 98.4672L59.7459 98.4672L59.0252 101.037L58.5151 101.037L58.6271 100.638C58.4625 100.792 58.2876 100.907 58.1026 100.984C57.9158 101.061 57.7148 101.099 57.4998 101.099C57.1451 101.099 56.9025 101.007 56.772 100.823C56.6411 100.641 56.6254 100.373 56.725 100.018M53.4748 100.961L53.5867 100.562C53.7129 100.623 53.8489 100.669 53.9947 100.7C54.1406 100.73 54.2962 100.745 54.4616 100.745C54.7134 100.745 54.9117 100.713 55.0565 100.649C55.1995 100.585 55.289 100.488 55.3251 100.36C55.3525 100.262 55.3292 100.185 55.255 100.128C55.1804 100.073 55.0141 100.02 54.7563 99.9699L54.5916 99.9378C54.2494 99.8736 54.0195 99.7826 53.9018 99.6648C53.7818 99.5486 53.7513 99.3857 53.81 99.1761C53.877 98.9375 54.0439 98.7486 54.3108 98.6094C54.576 98.4703 54.907 98.4007 55.304 98.4007C55.4694 98.4007 55.6383 98.4144 55.8107 98.442C55.9817 98.468 56.1589 98.5077 56.3424 98.5613L56.2201 98.9972C56.0554 98.9161 55.8878 98.8549 55.7175 98.8136C55.5467 98.7739 55.3721 98.754 55.1939 98.754C54.9549 98.754 54.7617 98.7876 54.6142 98.8549C54.4662 98.9238 54.3749 99.0201 54.3401 99.144C54.3079 99.2587 54.3301 99.3467 54.4067 99.4078C54.4814 99.469 54.668 99.5279 54.9664 99.5845L55.1332 99.6189C55.432 99.674 55.6354 99.7581 55.7433 99.8713C55.8509 99.986 55.8767 100.143 55.8209 100.342C55.7532 100.583 55.5979 100.77 55.3551 100.901C55.1124 101.033 54.8017 101.099 54.4231 101.099C54.2356 101.099 54.0624 101.087 53.9034 101.064C53.7445 101.041 53.6016 101.007 53.4748 100.961M50.1673 99.8575L50.2252 99.651L52.5575 99.651C52.617 99.3604 52.5744 99.1387 52.4299 98.9857C52.283 98.8343 52.0415 98.7586 51.7051 98.7586C51.5103 98.7586 51.3163 98.7785 51.1232 98.8182C50.9283 98.858 50.7296 98.9176 50.5272 98.9972L50.6391 98.598C50.8391 98.5337 51.0394 98.4848 51.24 98.4511C51.4406 98.4175 51.6392 98.4007 51.8358 98.4007C52.3284 98.4007 52.6855 98.52 52.9071 98.7586C53.1269 98.9972 53.1797 99.3199 53.0656 99.7268C52.9476 100.147 52.7181 100.481 52.377 100.727C52.0337 100.975 51.6304 101.099 51.1673 101.099C50.7519 101.099 50.4551 100.987 50.277 100.764C50.0966 100.542 50.0601 100.24 50.1673 99.8575M50.6398 99.9814C50.5787 100.212 50.6051 100.397 50.7191 100.534C50.8312 100.672 51.0122 100.741 51.2621 100.741C51.5452 100.741 51.7908 100.674 51.9991 100.541C52.2055 100.408 52.3555 100.221 52.449 99.9791L50.6398 99.9814M46.8096 100.938L46.9203 100.543C47.0452 100.609 47.1757 100.658 47.3119 100.69C47.4458 100.724 47.5863 100.741 47.7333 100.741C48.0623 100.741 48.3422 100.654 48.5731 100.479C48.8035 100.306 48.9627 100.063 49.0507 99.7497C49.1386 99.4361 49.1161 99.1922 48.9831 99.0178C48.8496 98.845 48.6184 98.7586 48.2894 98.7586C48.1423 98.7586 47.9926 98.7746 47.8403 98.8067C47.6856 98.8404 47.5274 98.8901 47.3656 98.9559L47.475 98.5658C47.632 98.5108 47.7906 98.4695 47.9509 98.442C48.1093 98.4144 48.274 98.4007 48.4449 98.4007C48.9099 98.4007 49.2452 98.5223 49.4508 98.7655C49.6565 99.0086 49.7014 99.3367 49.5855 99.7497C49.468 100.169 49.2377 100.498 48.8946 100.739C48.5497 100.979 48.1365 101.099 47.655 101.099C47.4988 101.099 47.3501 101.085 47.2089 101.057C47.0674 101.031 46.9343 100.992 46.8096 100.938M45.1878 101.766L45.3924 101.037L44.3476 101.037L44.4396 100.709L45.4845 100.709L45.8757 99.3138C45.9345 99.1042 45.9383 98.9696 45.887 98.91C45.8339 98.8503 45.7017 98.8205 45.4903 98.8205L44.9693 98.8205L45.0684 98.4672L45.5894 98.4672C45.9809 98.4672 46.2341 98.5276 46.3491 98.6484C46.4636 98.7708 46.4759 98.9926 46.3858 99.3138L45.9945 100.709L46.3667 100.709L46.2746 101.037L45.9025 101.037L45.6978 101.766L45.1878 101.766M44.241 99.9424L42.7551 99.9424L42.8606 99.5662L44.3466 99.5662L44.241 99.9424"  />
      <g id="g5130">
        <path id="path7783" fill="url(#defitem34)" stroke-width="0.736796" d="M63.0821 119.897L67.8858 115.548L77.8082 113.627L70.912 110.383L65.9717 111.257C64.1322 109.44 61.2863 108.652 58.34 109.196C58.0458 109.251 57.6879 109.362 57.2991 109.52L54.9999 113.219L58.9564 112.492C60.1344 112.274 61.3763 113.382 61.8122 114.359C62.247 115.335 62.1035 116.686 60.9258 116.904C60.9258 116.904 62.324 120.584 63.0821 119.897Z"  />
        <path id="path10166" fill="url(#defitem35)" stroke-width="0.736796" d="M64.3322 117.106C64.4562 117.385 64.6935 117.541 65.2736 117.409L90.6083 111.39C90.6198 111.387 90.6245 111.38 90.6357 111.376C91.9211 111.039 92.6146 109.892 92.1841 108.772C91.7538 107.653 90.3631 106.982 89.0467 107.239C89.035 107.241 89.0257 107.237 89.0146 107.24L63.5067 112.829C62.3463 113.094 63.1677 113.757 63.4348 114.454L64.0587 116.078C64.1927 116.427 64.2081 116.827 64.3322 117.106ZM87.4215 109.854C87.0768 108.957 87.6497 108.034 88.7017 107.794C89.7527 107.555 90.8845 108.086 91.2296 108.984C91.5748 109.881 91.0012 110.803 89.9494 111.043C88.8978 111.283 87.7666 110.751 87.4215 109.854Z"  />
        <path id="path10186" fill="url(#defitem36)" stroke-width="0.736796" d="M86.9454 109.963C87.2906 110.86 88.4218 111.392 89.4734 111.152C89.5543 111.134 89.6315 111.111 89.7065 111.085C88.7297 111.198 87.7399 110.682 87.4215 109.854C87.1034 109.026 87.568 108.176 88.4685 107.862C88.3871 107.871 88.3065 107.885 88.2257 107.903C87.1737 108.143 86.6008 109.066 86.9454 109.963Z"  />
        <path id="path64" fill="url(#defitem37)" stroke-width="0.736796" d="M52.4186 115.311L57.9931 114.037C59.2081 113.76 60.4218 114.908 60.8207 115.945C61.2184 116.981 61.0121 118.452 59.7973 118.73L54.222 120.003C56.3113 122.029 60.338 122.215 61.8586 121.868C65.8746 120.951 67.9172 118.061 66.5961 114.625C65.2765 111.19 61.536 109.599 57.5201 110.516C55.9994 110.863 52.7388 112.735 52.4186 115.311Z"  />
        <path id="path87" fill="url(#defitem38)" stroke-width="0.736796" d="M61.5257 121.002C63.2905 120.599 64.6527 119.75 65.3614 118.609L65.3617 118.609C66.0333 117.528 66.1092 116.231 65.5808 114.857C65.0484 113.471 64.0611 112.407 62.7262 111.779L62.7262 111.779C61.3331 111.123 59.6027 110.982 57.8531 111.382C56.8444 111.612 55.0563 112.632 54.1043 113.984C55.747 113.609 57.6603 113.172 57.6603 113.172C59.4765 112.757 61.2419 114.168 61.8361 115.712C62.1971 116.653 62.1598 117.734 61.6653 118.529C61.3471 119.041 60.8407 119.434 60.1306 119.596C60.1302 119.596 58.1587 120.047 56.5592 120.412C58.3907 121.186 60.668 121.198 61.5257 121.002Z"  />
        <path id="path117" fill="url(#defitem39)" stroke-width="0.736796" d="M60.3856 119.009C61.6754 118.714 61.8443 117.021 61.3819 115.818C60.9187 114.614 59.5813 113.266 58.2914 113.56C58.2914 113.56 52.4372 115.165 52.4189 115.311L57.9933 114.038C59.2083 113.76 60.422 114.908 60.8209 115.945C61.2186 116.981 61.0123 118.452 59.7975 118.73L54.2222 120.003L60.3856 119.009Z"  />
        <path id="path10190" fill="url(#defitem40)" stroke-width="0.736796" d="M90.1826 110.976C90.2646 110.967 90.3439 110.953 90.4254 110.934C91.4772 110.694 92.0509 109.772 91.7057 108.875C91.3605 107.978 90.2288 107.446 89.1777 107.686C89.0968 107.704 89.0197 107.727 88.9446 107.753C89.9215 107.639 90.911 108.155 91.2296 108.984C91.5483 109.812 91.083 110.661 90.1826 110.976Z"  />
        <path id="path124" fill="url(#defitem41)" stroke-width="0.736796" d="M92.0634 108.966C92.2687 109.5 92.2167 110.04 91.9687 110.495C92.3178 110.004 92.4199 109.384 92.184 108.772C91.7537 107.653 90.363 106.98 89.0467 107.237C89.0349 107.239 89.0224 107.238 89.0113 107.241L88.6524 107.323C89.9685 107.066 91.6331 107.847 92.0634 108.966Z"  />
        <path id="path2236" fill="url(#defitem42)" stroke-width="0.736796" d="M76.9193 114.638L90.6084 111.387C90.6199 111.385 90.6219 111.38 90.633 111.377C91.9184 111.039 92.6164 109.896 92.186 108.776C91.7557 107.657 90.3606 106.982 89.0442 107.24C89.0325 107.241 89.0273 107.239 89.0162 107.241L75.6231 110.176C75.7145 111.721 76.1583 113.241 76.9193 114.638ZM88.4197 110.872C87.9623 110.657 87.5937 110.3 87.4211 109.851C87.0765 108.954 87.6492 108.032 88.7012 107.792C89.7522 107.552 90.8837 108.083 91.2289 108.981C91.5741 109.878 91.0006 110.8 89.9488 111.04C89.423 111.16 88.8771 111.087 88.4197 110.872Z"  />
        <path id="path33" fill="url(#defitem43)" fill-opacity="0.5" stroke-width="0.736796" d="M86.5849 111.456C86.8918 111.37 87.1196 111.165 87.2423 110.897C87.3716 110.614 87.3832 110.258 87.245 109.9C86.9779 109.203 86.2478 108.755 85.5835 108.88C85.5831 108.875 69.9799 112.437 66.3079 113.275C66.3667 113.395 67.2572 115.705 67.3003 115.858C68.3525 115.618 86.5849 111.456 86.5849 111.456Z"  />
        <path id="path108" fill="url(#defitem44)" stroke-width="0.736796" d="M62.1363 111.775C63.4714 112.403 64.4585 113.468 64.9909 114.854C65.5193 116.228 65.4434 117.525 64.7718 118.606L64.7715 118.606C64.0628 119.746 62.7006 120.596 60.9358 120.999C60.6397 121.067 60.1722 121.108 59.6147 121.103C60.426 121.155 61.1202 121.11 61.5138 121.02C63.2786 120.617 64.6408 119.767 65.3495 118.627L65.3498 118.627C66.0214 117.546 66.0973 116.249 65.5689 114.875C65.0365 113.489 64.0492 112.424 62.7143 111.797C61.8382 111.384 60.8283 111.176 59.7645 111.177C60.6155 111.239 61.4205 111.439 62.1363 111.775Z"  />
      </g>
    </g>
  </g>
</svg>
