<?xml version="1.0" standalone="no"?>
<!DOCTYPE svg PUBLIC "-//W3C//DTD SVG 20010904//EN" "http://www.w3.org/TR/2001/REC-SVG-20010904/DTD/svg10.dtd">
<!-- Created using Karbon14, part of koffice: http://www.koffice.org/karbon -->
<svg xmlns="http://www.w3.org/2000/svg" xmlns:xlink="http://www.w3.org/1999/xlink" width="128px" height="128px">
  <defs>
    <radialGradient id="defitem0" gradientUnits="userSpaceOnUse" cx="64.0002" cy="122.802" fx="64.0002" fy="122.802" r="61.5368" >
      <stop stop-color="#000000" offset="0" stop-opacity="1" />
      <stop stop-color="#000000" offset="1" stop-opacity="0" />
    </radialGradient>
    <linearGradient id="defitem1" gradientUnits="userSpaceOnUse" x1="64.0002" y1="128" x2="64.0002" y2="122.802" >
      <stop stop-color="#ffffff" offset="0" stop-opacity="1" />
      <stop stop-color="#ffffff" offset="1" stop-opacity="0" />
    </linearGradient>
    <linearGradient id="defitem2" gradientUnits="userSpaceOnUse" x1="64.0002" y1="117.18" x2="64.0002" y2="122.802" >
      <stop stop-color="#ffffff" offset="0" stop-opacity="1" />
      <stop stop-color="#ffffff" offset="1" stop-opacity="0" />
    </linearGradient>
    <linearGradient id="defitem3" gradientUnits="userSpaceOnUse" x1="59.0999" y1="72.4853" x2="62.498" y2="69.0977" >
      <stop stop-color="#878787" offset="0" stop-opacity="1" />
      <stop stop-color="#878787" offset="1" stop-opacity="0" />
    </linearGradient>
    <linearGradient id="defitem4" gradientUnits="userSpaceOnUse" x1="20.9173" y1="121.364" x2="12.8206" y2="102.883" >
      <stop stop-color="#dddddd" offset="0" stop-opacity="1" />
      <stop stop-color="#ededed" offset="1" stop-opacity="1" />
    </linearGradient>
    <linearGradient id="defitem5" gradientUnits="userSpaceOnUse" x1="50.2584" y1="74.6015" x2="29.332" y2="106.423" >
      <stop stop-color="#ededed" offset="0" stop-opacity="1" />
      <stop stop-color="#dfdfdf" offset="1" stop-opacity="1" />
    </linearGradient>
    <linearGradient id="defitem6" gradientUnits="userSpaceOnUse" x1="54.6357" y1="61.5197" x2="54.6163" y2="62.6186" >
      <stop stop-color="#000000" offset="0" stop-opacity="1" />
      <stop stop-color="#000000" offset="1" stop-opacity="0" />
    </linearGradient>
    <linearGradient id="defitem7" gradientUnits="userSpaceOnUse" x1="33.0823" y1="87.7978" x2="33.0822" y2="61.7371" >
      <stop stop-color="#bf0202" offset="0" stop-opacity="1" />
      <stop stop-color="#e20800" offset="1" stop-opacity="1" />
    </linearGradient>
    <linearGradient id="defitem8" gradientUnits="userSpaceOnUse" x1="67.5384" y1="74.398" x2="66.173" y2="74.4163" >
      <stop stop-color="#000000" offset="0" stop-opacity="1" />
      <stop stop-color="#000000" offset="1" stop-opacity="0" />
    </linearGradient>
    <linearGradient id="defitem9" gradientUnits="userSpaceOnUse" x1="37.5863" y1="105.427" x2="37.5863" y2="78.285" >
      <stop stop-color="#bf0202" offset="0" stop-opacity="1" />
      <stop stop-color="#e20800" offset="1" stop-opacity="1" />
    </linearGradient>
    <radialGradient id="defitem10" gradientUnits="userSpaceOnUse" cx="56.2189" cy="54.2485" fx="60.2241" fy="51.6008" r="44.6182" >
      <stop stop-color="#ffffff" offset="0" stop-opacity="1" />
      <stop stop-color="#ffffff" offset="1" stop-opacity="0" />
    </radialGradient>
    <linearGradient id="defitem11" gradientUnits="userSpaceOnUse" x1="24.1457" y1="122.319" x2="23.5529" y2="121.74" >
      <stop stop-color="#000000" offset="0" stop-opacity="1" />
      <stop stop-color="#000000" offset="1" stop-opacity="0" />
    </linearGradient>
    <linearGradient id="defitem12" gradientUnits="userSpaceOnUse" x1="9.55073" y1="113.252" x2="10.3658" y2="112.515" >
      <stop stop-color="#000000" offset="0" stop-opacity="1" />
      <stop stop-color="#000000" offset="1" stop-opacity="0" />
    </linearGradient>
    <linearGradient id="defitem13" gradientUnits="userSpaceOnUse" x1="66.9433" y1="73.3346" x2="65.9091" y2="74.2905" >
      <stop stop-color="#000000" offset="0" stop-opacity="1" />
      <stop stop-color="#000000" offset="1" stop-opacity="0" />
    </linearGradient>
    <linearGradient id="defitem14" gradientUnits="userSpaceOnUse" x1="50.0415" y1="64.0226" x2="51.2917" y2="63.0497" >
      <stop stop-color="#ffffff" offset="0" stop-opacity="1" />
      <stop stop-color="#ffffff" offset="1" stop-opacity="0" />
    </linearGradient>
    <linearGradient id="defitem15" gradientUnits="userSpaceOnUse" x1="22.6407" y1="107.887" x2="21.6468" y2="108.882" >
      <stop stop-color="#000000" offset="0" stop-opacity="1" />
      <stop stop-color="#000000" offset="1" stop-opacity="0" />
    </linearGradient>
    <radialGradient id="defitem16" gradientUnits="userSpaceOnUse" cx="59.2708" cy="38.3031" fx="59.2708" fy="38.3031" r="36.8159" >
      <stop stop-color="#f2f2f2" offset="0" stop-opacity="1" />
      <stop stop-color="#c3c3c3" offset="1" stop-opacity="1" />
    </radialGradient>
    <linearGradient id="defitem17" gradientUnits="userSpaceOnUse" x1="69.3776" y1="13.632" x2="62.1773" y2="40.6859" >
      <stop stop-color="#b6b8b8" offset="0" stop-opacity="1" />
      <stop stop-color="#ebebeb" offset="0.18851" stop-opacity="1" />
      <stop stop-color="#f9f9f9" offset="0.257181" stop-opacity="1" />
      <stop stop-color="#ffffff" offset="0.301113" stop-opacity="1" />
      <stop stop-color="#f9f9f9" offset="0.5313" stop-opacity="1" />
      <stop stop-color="#ebebeb" offset="0.8449" stop-opacity="1" />
      <stop stop-color="#e1e2e2" offset="1" stop-opacity="1" />
    </linearGradient>
    <linearGradient id="defitem18" gradientUnits="userSpaceOnUse" x1="61.6116" y1="36.4654" x2="66.4226" y2="18.387" >
      <stop stop-color="#70a8f4" offset="0.25" stop-opacity="0" />
      <stop stop-color="#0056ae" offset="1" stop-opacity="1" />
    </linearGradient>
    <linearGradient id="defitem19" gradientUnits="userSpaceOnUse" x1="59.6808" y1="38.8787" x2="67.0081" y2="11.344" >
      <stop stop-color="#545454" offset="0.0533" stop-opacity="1" />
      <stop stop-color="#bababa" offset="0.211134" stop-opacity="1" />
      <stop stop-color="#ffffff" offset="0.362655" stop-opacity="1" />
      <stop stop-color="#ffffff" offset="0.603228" stop-opacity="1" />
      <stop stop-color="#e8e8e8" offset="0.849766" stop-opacity="1" />
      <stop stop-color="#545454" offset="1" stop-opacity="1" />
    </linearGradient>
    <linearGradient id="defitem20" gradientUnits="userSpaceOnUse" x1="66.0398" y1="42.2016" x2="71.9609" y2="19.951" >
      <stop stop-color="#efefef" offset="0.4083" stop-opacity="1" />
      <stop stop-color="#c3c3c3" offset="0.506285" stop-opacity="1" />
      <stop stop-color="#898989" offset="0.560082" stop-opacity="1" />
      <stop stop-color="#383838" offset="0.679446" stop-opacity="1" />
    </linearGradient>
    <linearGradient id="defitem21" gradientUnits="userSpaceOnUse" x1="65.187" y1="38.1449" x2="72.2927" y2="11.445" >
      <stop stop-color="#878985" offset="0" stop-opacity="1" />
      <stop stop-color="#8c8e89" offset="0.0072" stop-opacity="1" />
      <stop stop-color="#aaaca8" offset="0.0673" stop-opacity="1" />
      <stop stop-color="#c3c6c3" offset="0.1347" stop-opacity="1" />
      <stop stop-color="#dbdbda" offset="0.265258" stop-opacity="1" />
      <stop stop-color="#ebebeb" offset="0.376461" stop-opacity="1" />
      <stop stop-color="#f6f6f6" offset="0.487403" stop-opacity="1" />
      <stop stop-color="#fdfdfd" offset="0.632409" stop-opacity="1" />
      <stop stop-color="#ffffff" offset="1" stop-opacity="1" />
    </linearGradient>
    <linearGradient id="defitem22" gradientUnits="userSpaceOnUse" x1="58.551" y1="17.826" x2="67.6972" y2="24.464" >
      <stop stop-color="#ffffff" offset="0" stop-opacity="1" />
      <stop stop-color="#ffffff" offset="1" stop-opacity="0" />
    </linearGradient>
    <linearGradient id="defitem23" gradientUnits="userSpaceOnUse" x1="64.3582" y1="16.688" x2="60.5509" y2="30.9989" >
      <stop stop-color="#000000" offset="0" stop-opacity="1" />
      <stop stop-color="#000000" offset="0.5" stop-opacity="0.844765" />
      <stop stop-color="#000000" offset="1" stop-opacity="0" />
    </linearGradient>
    <linearGradient id="defitem24" gradientUnits="userSpaceOnUse" x1="71.3071" y1="25.993" x2="68.8961" y2="34.2502" spreadMethod="reflect" >
      <stop stop-color="#000000" offset="0" stop-opacity="1" />
      <stop stop-color="#000000" offset="0.5" stop-opacity="0.844765" />
      <stop stop-color="#000000" offset="1" stop-opacity="0" />
    </linearGradient>
    <linearGradient id="defitem25" gradientUnits="userSpaceOnUse" x1="74.0706" y1="20.624" x2="77.0476" y2="30.5347" >
      <stop stop-color="#ffffff" offset="0" stop-opacity="1" />
      <stop stop-color="#ffffff" offset="1" stop-opacity="0" />
    </linearGradient>
    <linearGradient id="defitem26" gradientUnits="userSpaceOnUse" x1="71.3071" y1="25.993" x2="68.8961" y2="34.2502" spreadMethod="reflect" >
      <stop stop-color="#000000" offset="0" stop-opacity="1" />
      <stop stop-color="#000000" offset="0.5" stop-opacity="0.844765" />
      <stop stop-color="#000000" offset="1" stop-opacity="0" />
    </linearGradient>
    <radialGradient id="defitem27" gradientUnits="userSpaceOnUse" cx="102.71" cy="78.2666" fx="102.71" fy="78.2666" r="6.01471" >
      <stop stop-color="#b3932a" offset="0" stop-opacity="1" />
      <stop stop-color="#e4dbc8" offset="1" stop-opacity="1" />
    </radialGradient>
    <radialGradient id="defitem28" gradientUnits="userSpaceOnUse" cx="72.493" cy="59.0088" fx="72.493" fy="59.0088" r="5.52104" >
      <stop stop-color="#232323" offset="0" stop-opacity="1" />
      <stop stop-color="#232323" offset="0.5" stop-opacity="1" />
      <stop stop-color="#232323" offset="0.75" stop-opacity="1" />
      <stop stop-color="#000000" offset="1" stop-opacity="1" />
    </radialGradient>
    <radialGradient id="defitem29" gradientUnits="userSpaceOnUse" cx="60.7652" cy="55.4864" fx="18.578" fy="32.276" r="3.44764" >
      <stop stop-color="#9a7500" offset="0" stop-opacity="1" />
      <stop stop-color="#e2ac00" offset="0.0929204" stop-opacity="1" />
      <stop stop-color="#ffcd2a" offset="0.504317" stop-opacity="1" />
      <stop stop-color="#e2ac00" offset="0.915714" stop-opacity="1" />
      <stop stop-color="#b88c00" offset="1" stop-opacity="1" />
    </radialGradient>
    <linearGradient id="defitem30" gradientUnits="userSpaceOnUse" x1="63.4363" y1="48.4921" x2="61.7413" y2="51.7488" >
      <stop stop-color="#9a7500" offset="0" stop-opacity="1" />
      <stop stop-color="#e2ac00" offset="0.0929204" stop-opacity="1" />
      <stop stop-color="#ffcd2a" offset="0.504317" stop-opacity="1" />
      <stop stop-color="#e2ac00" offset="0.915714" stop-opacity="1" />
      <stop stop-color="#b88c00" offset="1" stop-opacity="1" />
    </linearGradient>
    <radialGradient id="defitem31" gradientUnits="userSpaceOnUse" cx="54.18" cy="45.5461" fx="54.18" fy="45.5461" r="39.0293" >
      <stop stop-color="#ffffff" offset="0" stop-opacity="0.683453" />
      <stop stop-color="#ffffff" offset="1" stop-opacity="0" />
    </radialGradient>
    <radialGradient id="defitem32" gradientUnits="userSpaceOnUse" cx="61.925" cy="51.454" fx="61.925" fy="51.454" r="48.9006" >
      <stop stop-color="#ffffff" offset="0" stop-opacity="1" />
      <stop stop-color="#ffffff" offset="1" stop-opacity="0" />
    </radialGradient>
    <radialGradient id="defitem33" gradientUnits="userSpaceOnUse" cx="25.3846" cy="35.3378" fx="25.6606" fy="32.6977" r="5.9766" >
      <stop stop-color="#ffffff" offset="0" stop-opacity="1" />
      <stop stop-color="#ffffff" offset="1" stop-opacity="0" />
    </radialGradient>
    <radialGradient id="defitem34" gradientUnits="userSpaceOnUse" cx="17.6022" cy="31.2412" fx="17.6022" fy="31.2412" r="2.5931" >
      <stop stop-color="#ffffff" offset="0" stop-opacity="1" />
      <stop stop-color="#232323" offset="1" stop-opacity="0" />
    </radialGradient>
    <linearGradient id="defitem35" gradientUnits="userSpaceOnUse" x1="20.6662" y1="28.66" x2="13.4797" y2="31.203" >
      <stop stop-color="#ffff00" offset="0" stop-opacity="1" />
      <stop stop-color="#ffb66d" offset="1" stop-opacity="1" />
    </linearGradient>
    <linearGradient id="defitem36" gradientUnits="userSpaceOnUse" x1="73.6633" y1="55.2644" x2="80.5019" y2="80.3731" >
      <stop stop-color="#b3932a" offset="0" stop-opacity="1" />
      <stop stop-color="#e4dbc8" offset="1" stop-opacity="1" />
    </linearGradient>
    <radialGradient id="defitem37" gradientUnits="userSpaceOnUse" cx="122.278" cy="56.1857" fx="122.278" fy="56.1857" r="52.6613" >
      <stop stop-color="#ffffff" offset="0" stop-opacity="1" />
      <stop stop-color="#ffffff" offset="1" stop-opacity="0" />
    </radialGradient>
    <radialGradient id="defitem38" gradientUnits="userSpaceOnUse" cx="15.4671" cy="35.088" fx="15.4671" fy="35.088" r="1.77841" >
      <stop stop-color="#ffffff" offset="0" stop-opacity="1" />
      <stop stop-color="#232323" offset="1" stop-opacity="0" />
    </radialGradient>
    <radialGradient id="defitem39" gradientUnits="userSpaceOnUse" cx="103.867" cy="52.6228" fx="97.6375" fy="56.4341" r="7.63919" >
      <stop stop-color="#505050" offset="0" stop-opacity="1" />
      <stop stop-color="#000000" offset="1" stop-opacity="1" />
    </radialGradient>
    <linearGradient id="defitem40" gradientUnits="userSpaceOnUse" x1="79.7143" y1="117.218" x2="69.7355" y2="110.43" >
      <stop stop-color="#544411" offset="0" stop-opacity="1" />
      <stop stop-color="#b59e69" offset="1" stop-opacity="1" />
    </linearGradient>
    <radialGradient id="defitem41" gradientUnits="userSpaceOnUse" cx="76.5005" cy="112.83" fx="78.2952" fy="116.184" r="6.28784" >
      <stop stop-color="#b3932a" offset="0" stop-opacity="1" />
      <stop stop-color="#e4dbc8" offset="1" stop-opacity="1" />
    </radialGradient>
    <radialGradient id="defitem42" gradientUnits="userSpaceOnUse" cx="90.5931" cy="91.6394" fx="90.5931" fy="91.6394" r="4.56387" >
      <stop stop-color="#ffffff" offset="0" stop-opacity="1" />
      <stop stop-color="#ffffff" offset="1" stop-opacity="0" />
    </radialGradient>
    <linearGradient id="defitem43" gradientUnits="userSpaceOnUse" x1="113.656" y1="19.053" x2="121.44" y2="24.179" >
      <stop stop-color="#ffffff" offset="0" stop-opacity="1" />
      <stop stop-color="#ffffff" offset="1" stop-opacity="0" />
    </linearGradient>
    <radialGradient id="defitem44" gradientUnits="userSpaceOnUse" cx="117.592" cy="23.301" fx="116.256" fy="21.876" r="4.38762" >
      <stop stop-color="#ffffff" offset="0" stop-opacity="1" />
      <stop stop-color="#ffffff" offset="1" stop-opacity="0" />
    </radialGradient>
    <linearGradient id="defitem45" gradientUnits="userSpaceOnUse" x1="85.9729" y1="92.6692" x2="89.902" y2="84.4059" >
      <stop stop-color="#ffffff" offset="0" stop-opacity="1" />
      <stop stop-color="#ffffff" offset="1" stop-opacity="0" />
    </linearGradient>
    <linearGradient id="defitem46" gradientUnits="userSpaceOnUse" x1="84.4625" y1="100.477" x2="79.2578" y2="106.091" >
      <stop stop-color="#000000" offset="0" stop-opacity="1" />
      <stop stop-color="#000000" offset="1" stop-opacity="0" />
    </linearGradient>
    <radialGradient id="defitem47" gradientUnits="userSpaceOnUse" cx="81.8003" cy="99.8308" fx="80.5493" fy="98.5022" r="4.10042" >
      <stop stop-color="#ffffff" offset="0" stop-opacity="1" />
      <stop stop-color="#ffffff" offset="1" stop-opacity="0" />
    </radialGradient>
    <radialGradient id="defitem48" gradientUnits="userSpaceOnUse" cx="83.4964" cy="96.2465" fx="82.2431" fy="95.0172" r="4.17229" >
      <stop stop-color="#ffffff" offset="0" stop-opacity="1" />
      <stop stop-color="#ffffff" offset="1" stop-opacity="0" />
    </radialGradient>
    <radialGradient id="defitem49" gradientUnits="userSpaceOnUse" cx="85.2129" cy="92.6165" fx="84.5374" fy="91.5601" r="4.3158" >
      <stop stop-color="#ffffff" offset="0" stop-opacity="1" />
      <stop stop-color="#ffffff" offset="1" stop-opacity="0" />
    </radialGradient>
    <radialGradient id="defitem50" gradientUnits="userSpaceOnUse" cx="86.9244" cy="89.0001" fx="86.4886" fy="88.2586" r="4.387" >
      <stop stop-color="#ffffff" offset="0" stop-opacity="1" />
      <stop stop-color="#ffffff" offset="1" stop-opacity="0" />
    </radialGradient>
    <linearGradient id="defitem51" gradientUnits="userSpaceOnUse" x1="95.3127" y1="102.037" x2="86.8397" y2="94.184" >
      <stop stop-color="#c3c3c3" offset="0" stop-opacity="1" />
      <stop stop-color="#757575" offset="1" stop-opacity="1" />
    </linearGradient>
  </defs>
  <g id="Layer">
    <g id="g4090">
      <g id="g4092">
        <path id="path4094" fill="url(#defitem0)" stroke-width="0" stroke-linecap="round" stroke-linejoin="round" d="M128 122.802C128 125.667 99.3468 127.99 64.0002 127.99C28.6539 127.99 0.000171 125.667 0.000171 122.802C0.000171 119.937 28.6539 117.614 64.0002 117.614C99.3468 117.614 128 119.937 128 122.802L128 122.802Z"  />
        <path id="path4096" fill="url(#defitem1)" stroke-width="0" stroke-linecap="round" stroke-linejoin="round" d="M128 122.802L0.00017 122.802C0.00017 125.673 28.6539 128 64.0002 128C99.3468 128 128 125.673 128 122.802L128 122.802Z"  />
        <path id="path4098" fill="url(#defitem2)" stroke-width="0" stroke-linecap="round" stroke-linejoin="round" d="M128 122.802L0.00017 122.802C0.00017 119.697 28.6539 117.18 64.0002 117.18C99.3468 117.18 128 119.697 128 122.802L128 122.802Z"  />
        <path id="path4100" fill="#ffffff" fill-opacity="0.5" stroke-width="0" stroke-linecap="round" stroke-linejoin="round" d="M64 117.184C29.7583 117.184 1.77662 119.526 0.0625 122.496C0.000125 122.59 0 122.714 0 122.809C0 122.988 0.094004 123.134 0.3125 123.309C0.425013 123.402 0.546842 123.499 0.71875 123.59C1.85178 124.191 4.27039 124.763 7.71875 125.278C9.68924 125.572 11.9852 125.833 14.5938 126.09C18.5066 126.474 23.1115 126.81 28.2188 127.09C33.326 127.37 38.9567 127.594 44.9688 127.746C50.9808 127.898 57.3726 127.996 64 127.996C70.6275 127.996 77.0192 127.898 83.0313 127.746C89.0433 127.594 94.6741 127.37 99.7813 127.09C104.888 126.81 109.462 126.474 113.375 126.09C115.984 125.833 118.311 125.572 120.281 125.278C123.73 124.763 126.117 124.191 127.25 123.59C127.422 123.499 127.544 123.402 127.656 123.309C127.766 123.222 127.851 123.147 127.906 123.059C127.962 122.97 128 122.898 128 122.809C128 122.714 127.969 122.59 127.906 122.496C126.192 119.526 98.242 117.184 64 117.184Z"  />
      </g>
    </g>
    <g id="g5752">
      <path id="path5754" fill="#000000" stroke-width="0.832339" d=""  />
    </g>
    <path id="path5756" fill="#000000" d=""  />
    <g id="g5758">
    </g>
    <g id="g5760">
    </g>
    <g id="g5762">
    </g>
    <g id="g5764">
      <path id="path5766" fill="#000000" stroke-width="0.832339" d=""  />
    </g>
    <path id="path5768" fill="#000000" d=""  />
    <g id="g5770">
    </g>
    <g id="g5772">
    </g>
    <g id="g5774">
    </g>
    <path id="path5776" fill="#000000" d=""  />
    <g id="g5778">
      <path id="path5780" fill="#000000" stroke-width="0.832339" d=""  />
    </g>
    <path id="path5782" fill="#000000" d=""  />
    <g id="g5784">
    </g>
    <g id="g5786">
    </g>
    <g id="g5788">
    </g>
    <path id="path5790" fill="#000000" d=""  />
    <g id="g5792">
    </g>
    <g id="g5794">
    </g>
    <g id="g5796">
    </g>
    <g id="g5798">
    </g>
    <g id="g5800">
    </g>
    <g id="g5802">
    </g>
    <g id="g5804">
      <path id="path5806" fill="#000000" stroke-width="0.832339" d=""  />
    </g>
    <path id="path5808" fill="#000000" d=""  />
    <g id="g5810">
    </g>
    <g id="g5812">
    </g>
    <g id="g5814">
    </g>
    <path id="path5816" fill="#000000" d=""  />
    <g id="g5818">
      <path id="path5820" fill="#000000" stroke-width="0.832339" d=""  />
    </g>
    <path id="path5822" fill="#000000" d=""  />
    <g id="g5824">
    </g>
    <g id="g5826">
    </g>
    <g id="g5828">
    </g>
    <path id="path5830" fill="#000000" d=""  />
    <g id="g5832">
    </g>
    <g id="g5834">
    </g>
    <g id="g5836">
    </g>
    <g id="g5838">
    </g>
    <g id="g5840">
    </g>
    <g id="g5842">
    </g>
    <g id="g5678">
      <path id="path5680" fill="#000000" stroke-width="1.10298" d=""  />
    </g>
    <path id="path5682" fill="#000000" d=""  />
    <g id="g5684">
    </g>
    <g id="g5686">
    </g>
    <g id="g5688">
    </g>
    <g id="g11264">
      <path id="path11266" fill="#000000" stroke-width="1.10298" d=""  />
    </g>
    <path id="path11268" fill="#000000" d=""  />
    <g id="g11270">
    </g>
    <g id="g11272">
    </g>
    <g id="g11274">
    </g>
    <path id="path5696" fill="#000000" d=""  />
    <g id="g5698">
      <path id="path5700" fill="#000000" stroke-width="1.10298" d=""  />
    </g>
    <path id="path5702" fill="#000000" d=""  />
    <g id="g5704">
    </g>
    <g id="g5706">
    </g>
    <g id="g5708">
    </g>
    <path id="path5710" fill="#000000" d=""  />
    <g id="g5712">
    </g>
    <g id="g5714">
    </g>
    <g id="g5716">
    </g>
    <g id="g5718">
    </g>
    <g id="g5720">
    </g>
    <g id="g5722">
    </g>
    <g id="g12948">
      <path id="path12950" fill="#000000" stroke-width="1.10298" d=""  />
    </g>
    <path id="path12952" fill="#000000" d=""  />
    <g id="g12954">
    </g>
    <g id="g12956">
    </g>
    <g id="g12958">
    </g>
    <path id="path12983" fill="#000000" d=""  />
    <g id="g12985">
      <path id="path12987" fill="#000000" stroke-width="1.10298" d=""  />
    </g>
    <path id="path12989" fill="#000000" d=""  />
    <g id="g12991">
    </g>
    <g id="g12993">
    </g>
    <g id="g12995">
    </g>
    <path id="path12997" fill="#000000" d=""  />
    <g id="g13007">
    </g>
    <g id="g13009">
    </g>
    <g id="g13021">
    </g>
    <g id="g13023">
    </g>
    <g id="g13025">
    </g>
    <g id="g13027">
    </g>
    <path id="path4695" fill="#ffffff" stroke-width="0" stroke-linecap="round" stroke-linejoin="round" d="M70.5538 120.257C53.669 123.175 36.6334 125.694 16.2632 123.882L7.87398 116.912C22.1113 119.179 35.9955 118.645 50.0132 115.538"  />
    <g id="layer1">
      <path id="path3945" fill="#000000" d=""  />
    </g>
    <path id="path3081" fill="#000000" d=""  />
    <g id="layer2">
    </g>
    <g id="layer3">
    </g>
    <g id="layer4">
    </g>
    <path id="path2167" fill="#000000" d=""  />
    <g id="g3036">
      <path id="path4922" fill="#000000" d=""  />
    </g>
    <path id="path4924" fill="#000000" d=""  />
    <g id="g4926">
    </g>
    <g id="g4928">
    </g>
    <g id="g4930">
    </g>
    <path id="path10095" fill="#000000" d=""  />
    <path id="path2191" fill="#ffffff" fill-opacity="0.756881" stroke-width="0.5" stroke-linecap="round" stroke-linejoin="round" d="M497.548 -76.23L497.548 -79.024L497.548 -76.23Z"  />
    <path id="path2985" fill="#ffffff" fill-opacity="0.756881" stroke-width="0.5" stroke-linecap="round" stroke-linejoin="round" d="M340.54 -145.865L340.54 -148.66L340.54 -145.865Z"  />
    <path id="path3206" fill="#ffffff" fill-opacity="0.756881" stroke-width="0.5" stroke-linecap="round" stroke-linejoin="round" d="M221.038 -232.495L221.038 -235.29L221.038 -232.495Z"  />
    <g id="g2878">
    </g>
    <g id="g4938">
    </g>
    <path id="path3946" fill="#ffffff" fill-opacity="0.756881" stroke-width="0.5" stroke-linecap="round" stroke-linejoin="round" d="M467.629 -166.74L467.629 -169.535L467.629 -166.74Z"  />
    <path id="path1561" fill="#ffffff" fill-opacity="0.756881" stroke-width="0.5" stroke-linecap="round" stroke-linejoin="round" d="M375.005 -92.846L375.005 -94.373L375.005 -92.846Z"  />
    <path fill="#ffffff" stroke-width="3.632" stroke-linecap="round" stroke-linejoin="round" d="M317.52 -149.446L317.52 -149.446L318.52 -149.446L318.52 -149.446L317.52 -149.446Z"  />
    <path fill="#ffffff" stroke-width="3.632" stroke-linecap="round" stroke-linejoin="round" d="M282.393 -176.974L282.393 -176.974L283.393 -176.974L283.393 -176.974L282.393 -176.974Z"  />
    <path id="path2494" fill="#ffffff" fill-opacity="0.756881" stroke-width="0.5" stroke-linecap="round" stroke-linejoin="round" d="M123.456 -250.19L123.456 -252.984L123.456 -250.19Z"  />
    <g id="g4640">
    </g>
    <g id="g4646">
    </g>
    <g id="g4730">
    </g>
    <g id="g4748">
    </g>
    <path id="path4226" fill="#ffffff" fill-opacity="0.756881" stroke-width="0.5" stroke-linecap="round" stroke-linejoin="round" d="M392.67 37.0867L392.67 34.292L392.67 37.0867Z"  />
    <g id="goma">
      <path id="path5306" fill="#878787" stroke-width="0.10139" stroke-linecap="round" stroke-linejoin="round" d="M13.1351 98.7623L4.33952 107.558L21.6804 124.898L30.4758 116.103L13.1351 98.7623Z"  />
      <path id="path5308" fill="#bababa" stroke-width="1.0139" stroke-linecap="round" stroke-linejoin="round" d="M54.93 61.7869L49.0514 61.7869L67.2654 80.1661L67.265 73.8106L54.93 61.7869Z"  />
      <path id="path5310" fill="#4b4b4b" stroke-width="1.0139" stroke-linecap="round" stroke-linejoin="round" d="M49.2097 61.753L54.9946 61.754L51.2918 65.1673L48.5144 62.5063L49.2097 61.753Z"  />
      <path id="path5312" fill="url(#defitem3)" stroke-width="1.0139" stroke-linecap="round" stroke-linejoin="round" d="M54.9098 61.7532L49.0876 61.7527L67.1272 80.017L67.1277 73.7004L54.9098 61.7532Z"  />
      <path id="path5314" fill="url(#defitem4)" stroke-width="0.10139" stroke-linecap="round" stroke-linejoin="round" d="M13.4274 98.4805L4.72686 107.169L21.5992 124.089L30.2997 115.4L13.4274 98.4805Z"  />
      <path id="path5316" fill="url(#defitem5)" stroke-width="0.10139" stroke-linecap="round" stroke-linejoin="round" d="M55.3628 68.0848L18.7188 104.729L24.3949 110.405L60.9939 73.797L67.3039 80.1152L67.3486 80.0705L55.3628 68.0848Z"  />
      <path id="path5318" fill="url(#defitem6)" stroke-width="0.10139" stroke-linecap="round" stroke-linejoin="round" d="M49.1576 62.9112L54.0341 62.6782L54.9033 61.7657L49.1232 61.856L49.1576 62.9112Z"  />
      <path id="path5320" fill="url(#defitem7)" stroke-width="0.10139" stroke-linecap="round" stroke-linejoin="round" d="M49.0268 61.7488L12.3828 98.3928L18.7188 104.729L55.3628 68.0848L49.0268 61.7488Z"  />
      <path id="path5322" fill="#ffffff" stroke-width="1.0139" stroke-linecap="round" stroke-linejoin="round" d="M63.8761 77.6352L66.4799 80.4122L67.2319 79.7182L67.2321 73.932L63.8761 77.6352Z"  />
      <path id="path5324" fill="url(#defitem8)" stroke-width="0.10139" stroke-linecap="round" stroke-linejoin="round" d="M65.8083 79.876L66.2495 75.0181L67.2101 73.9154L67.1207 79.9103L65.8083 79.876Z"  />
      <path id="path5326" fill="url(#defitem9)" stroke-width="0.10139" stroke-linecap="round" stroke-linejoin="round" d="M60.9944 73.8003L24.351 110.444L30.6872 116.78L67.3305 80.1364L60.9944 73.8003Z"  />
      <path id="path5328" fill="url(#defitem10)" stroke-width="0.10139" stroke-linecap="round" stroke-linejoin="round" d="M49.026 61.7804L12.3829 98.4235L30.7128 116.903L67.3563 80.2596L49.026 61.7804Z"  />
      <path id="path5330" fill="#ffffff" stroke-width="0.10139" stroke-linecap="round" stroke-linejoin="round" d="M49.2001 62.0222L12.8645 98.7053L13.1143 98.9667L49.29 62.7782L67.2482 80.1597L67.252 80.131L55.2873 68.0932L49.2001 62.0222Z"  />
      <path id="path5332" fill="#eff8ff" stroke-width="1.0139" d="M59.9284 85.5606C59.7874 85.7018 59.6443 85.7862 59.4992 85.8135C59.3543 85.8401 59.2331 85.805 59.1358 85.7082C59.0378 85.6107 59.0027 85.4898 59.0303 85.3455C59.0581 85.2002 59.1441 85.0555 59.2884 84.9112C59.4322 84.7674 59.5766 84.6811 59.7216 84.6526C59.8666 84.6243 59.9879 84.6587 60.0854 84.7559C60.1852 84.8551 60.2209 84.977 60.1929 85.1217C60.1646 85.2664 60.0763 85.4126 59.9284 85.5606M59.8654 85.4936C59.9691 85.3896 60.0271 85.2867 60.0386 85.1848C60.0498 85.0828 60.0141 84.9905 59.9316 84.9083C59.8513 84.8286 59.7602 84.7949 59.6577 84.8072C59.5558 84.819 59.4545 84.8753 59.3536 84.9761C59.2524 85.0774 59.1962 85.1791 59.1848 85.2812C59.1733 85.3831 59.2077 85.4741 59.2885 85.5544C59.3689 85.6345 59.4605 85.6692 59.5625 85.6586C59.6652 85.6481 59.766 85.593 59.8654 85.4936M60.4772 84.9809L60.5054 84.3359L59.878 84.3519L60.0483 84.1813L60.525 84.1676L60.5497 83.6794L60.6857 83.5433L60.6581 84.1645L61.3096 84.1477L61.1393 84.3183L60.6368 84.3336L60.614 84.8441L60.4772 84.9809M61.6991 83.7579L61.442 83.5022L60.7442 83.4849L60.909 83.3198L61.4507 83.3324L61.457 82.7712L61.5911 82.6372L61.5846 83.3561L61.8433 83.6135L61.6991 83.7579M63.1029 82.3197C63.0011 82.4643 62.9045 82.5824 62.8128 82.674C62.6511 82.8357 62.4992 82.9323 62.3569 82.9633C62.2152 82.9941 62.0923 82.9578 61.9882 82.8542C61.8862 82.7525 61.8506 82.63 61.8816 82.4861C61.9122 82.342 62.0064 82.191 62.1644 82.0327C62.2679 81.9292 62.3848 81.8307 62.5152 81.7374L62.5958 81.8177C62.4268 81.9292 62.305 82.0224 62.2304 82.097C62.1206 82.2071 62.0576 82.315 62.042 82.421C62.0267 82.5264 62.06 82.6201 62.1422 82.7018C62.2236 82.7826 62.319 82.8131 62.4294 82.7929C62.5396 82.7726 62.6529 82.7037 62.7701 82.5864C62.8183 82.5382 62.8652 82.4811 62.9107 82.415L62.7103 82.2155L62.8537 82.0718L63.1029 82.3197M63.3724 82.0833L62.7569 81.4706L63.3248 80.9021L63.3901 80.967L62.9665 81.3912L63.164 81.5879L63.5191 81.2325L63.5837 81.2966L63.2284 81.6521L63.4514 81.874L63.9047 81.4202L63.97 81.4852L63.3724 82.0833M64.1362 81.3189L63.5206 80.706L63.6622 80.5644L64.6492 80.5257L64.1734 80.0526L64.298 79.9281L64.9136 80.541L64.7728 80.6818L63.7843 80.722L64.2598 81.195L64.1362 81.3189"  />
      <path id="path5334" fill="#00142d" stroke-width="0.10139" stroke-linecap="round" stroke-linejoin="round" d="M30.5354 116.906L66.3979 81.0098L66.3322 80.9956L30.548 116.42L13.9522 99.9468L13.9489 99.9749L30.5354 116.906Z"  />
      <path id="path5336" fill="#9c0e0e" stroke-width="1.0139" d="M29.6267 102.056L26.8457 99.275L29.7031 96.4176L29.9981 96.7126L27.8664 98.8443L28.7589 99.7368L30.545 97.9506L30.8364 98.242L29.0502 100.028L30.0574 101.035L32.3376 98.7551L32.6326 99.0501L29.6267 102.056M33.4687 98.214L30.6877 95.433L32.2355 93.8852C32.7261 93.3946 33.1604 93.078 33.5386 92.9355C33.9188 92.7906 34.2212 92.8304 34.4454 93.0546C34.8161 93.4253 34.735 94.0328 34.2014 94.8769L37.2104 94.4722L36.319 95.3636L33.6882 95.642L33.0111 96.3191L34.1874 97.4953L33.4687 98.214M32.716 96.0239L32.9509 95.789C33.863 94.8769 34.1244 94.2261 33.7348 93.8365C33.4479 93.5496 32.9222 93.7885 32.1574 94.5533L31.7014 95.0093L32.716 96.0239M39.4741 90.0816L37.4046 89.7534L37.7294 91.8264L39.4741 90.0816M41.3046 90.3781L39.978 90.1639L37.8117 92.3303L38.0188 93.6638L37.3451 94.3375L36.5923 89.5284L37.311 88.8097L42.0889 89.5938L41.3046 90.3781M43.8962 87.9254C43.5531 88.2685 43.0737 88.6667 42.4579 89.1197L42.0671 88.7288C42.7881 88.2983 43.3342 87.8977 43.705 87.5269C43.9905 87.2413 44.1791 86.9712 44.2705 86.7171C44.3638 86.4605 44.3444 86.266 44.2116 86.1332C44.1026 86.0242 43.9525 85.9891 43.7608 86.0278C43.5715 86.0644 43.2766 86.1887 42.8763 86.4011L42.4131 86.6425C41.8426 86.9428 41.4079 87.1233 41.1091 87.1838C40.8115 87.2409 40.5834 87.1899 40.4241 87.0307C40.21 86.8165 40.1766 86.4978 40.3246 86.0744C40.4711 85.6496 40.7654 85.2161 41.2076 84.7739C41.6015 84.38 42.0531 84.0001 42.562 83.6339L42.9227 83.9946C42.2685 84.4183 41.8092 84.7626 41.5443 85.0275C41.2932 85.2786 41.1219 85.5222 41.0313 85.7584C40.9404 85.9945 40.9501 86.1678 41.0603 86.278C41.1531 86.3708 41.2949 86.393 41.4861 86.3445C41.6773 86.296 41.9812 86.1624 42.398 85.9436L42.8771 85.69C43.456 85.3843 43.8936 85.2048 44.1902 85.1513C44.4867 85.0977 44.7201 85.1562 44.8904 85.3265C45.1322 85.5683 45.1618 85.9271 44.979 86.4031C44.7984 86.8767 44.4376 87.3843 43.8962 87.9254M46.6391 85.0436L43.8581 82.2626L46.7153 79.4053L47.0103 79.7004L44.8787 81.832L45.7711 82.7245L47.5573 80.9383L47.8487 81.2297L46.0625 83.0159L47.0696 84.023L49.35 81.7427L49.645 82.0377L46.6391 85.0436M50.481 81.2017L47.7 78.4207L49.2479 76.8728C49.7385 76.3821 50.1729 76.0656 50.5509 75.9232C50.931 75.7783 51.2335 75.8181 51.4577 76.0423C51.8284 76.413 51.7473 77.0205 51.2139 77.8645L54.2227 77.46L53.3313 78.3514L50.7006 78.6296L50.0234 79.3068L51.1996 80.483L50.481 81.2017M49.7283 79.0116L49.9633 78.7766C50.8754 77.8645 51.1367 77.2138 50.747 76.8242C50.4602 76.5373 49.9344 76.7763 49.1698 77.5409L48.7137 77.997L49.7283 79.0116"  />
      <path id="path5338" fill="url(#defitem11)" stroke-width="0.10139" stroke-linecap="round" stroke-linejoin="round" d="M29.1746 115.513L20.6884 123.989L21.6295 124.931L30.1496 116.371L29.1746 115.513Z"  />
      <path id="path5340" fill="url(#defitem12)" stroke-width="0.10139" stroke-linecap="round" stroke-linejoin="round" d="M22.3064 124.041L4.96447 106.853L4.26397 107.602L21.6326 124.86L22.3064 124.041Z"  />
      <path id="path5342" fill="url(#defitem13)" stroke-width="0.10139" stroke-linecap="round" stroke-linejoin="round" d="M53.9404 62.793L66.3013 74.8506L67.2489 73.854L54.8615 61.7266L53.9404 62.793Z"  />
      <path id="path5344" fill="url(#defitem14)" stroke-width="4.05558" stroke-linecap="round" stroke-linejoin="round" d="M50.1419 61.7536L67.2366 79.2166L67.3029 80.1901C67.3029 80.1901 66.8089 80.6762 66.7932 80.7228L48.4511 62.397L49.0234 61.6831L50.1419 61.7536Z"  />
      <path id="path5346" fill="url(#defitem15)" stroke-width="0.10139" stroke-linecap="round" stroke-linejoin="round" d="M13.0011 98.9729L12.3828 99.5913L29.7606 116.865L30.3602 116.265L13.0011 98.9729Z"  />
    </g>
    <g id="clip">
      <path id="path6274" fill="#313131" fill-opacity="0.23" stroke-width="0.995177" d="M56.7391 34.137L61.7803 15.2C62.7052 11.719 66.2913 9.641 69.7728 10.567C73.2525 11.493 75.3308 15.079 74.404 18.559L70.5738 32.9555C69.8246 35.7735 66.9205 37.4554 64.1037 36.7057C61.2851 35.9557 59.6035 33.0535 60.3527 30.2356L63.6248 17.944C63.6694 17.778 63.838 17.679 64.0051 17.723L65.2073 18.043C65.3744 18.088 65.4728 18.258 65.4282 18.424L62.1561 30.7153C61.6715 32.5387 62.7598 34.4167 64.5831 34.9022C66.4065 35.3873 68.2839 34.2984 68.7704 32.4757L72.6006 18.079C73.2629 15.593 71.7779 13.032 69.2916 12.37C66.8054 11.709 64.2441 13.193 63.5837 15.68L58.5425 34.6169C57.7045 37.7663 59.5863 41.0105 62.7354 41.8487C65.8845 42.6868 69.1278 40.8063 69.9658 37.657L74.4453 20.823C74.4898 20.657 74.6601 20.559 74.8272 20.603L76.0295 20.923C76.1947 20.967 76.2932 21.137 76.2486 21.303L71.7692 38.1369C70.6667 42.2808 66.3985 44.7548 62.2542 43.6519C58.1116 42.5495 55.6365 38.2809 56.7391 34.137Z"  />
      <g id="g6276">
        <path id="path6278" fill="#313131" fill-opacity="0.23" stroke-width="0.31106" d="M56.3232 33.6561L61.3625 14.718C62.2893 11.238 65.8754 9.16 69.3551 10.086C72.8366 11.012 74.9149 14.598 73.9881 18.078L70.1579 32.4746C69.4068 35.2921 66.5046 36.9745 63.6878 36.2248C60.8692 35.4746 59.1876 32.5726 59.9368 29.7545L63.2071 17.462C63.2517 17.296 63.422 17.198 63.5891 17.242L64.7914 17.562C64.9566 17.606 65.055 17.776 65.0123 17.943L61.7402 30.2344C61.2556 32.0578 62.3438 33.9358 64.1672 34.4211C65.9906 34.9063 67.868 33.8175 68.3526 31.9943L72.1848 17.598C72.847 15.112 71.3619 12.551 68.8757 11.889C66.3895 11.228 63.8282 12.712 63.1659 15.198L58.1266 34.136C57.2886 37.2854 59.1685 40.5291 62.3177 41.3671C65.4668 42.2053 68.7119 40.3254 69.5499 37.1761L74.0294 20.342C74.0739 20.176 74.2443 20.078 74.4095 20.122L75.6118 20.442C75.7789 20.486 75.8773 20.656 75.8328 20.822L71.3533 37.656C70.2508 41.7999 65.9826 44.2739 61.8382 43.171C57.6939 42.0679 55.2207 37.7998 56.3232 33.6561Z"  />
        <path id="path6286" fill="url(#defitem16)" stroke-width="0.31106" d="M61.9975 42.5695C58.0147 41.5097 55.6435 37.4199 56.7033 33.4354L61.7446 14.498C62.6265 11.177 66.0353 9.202 69.3551 10.086C72.6768 10.97 74.651 14.377 73.7672 17.698L69.8483 32.4247C69.1424 35.081 66.4153 36.6613 63.7584 35.954C61.1032 35.2476 59.5223 32.5212 60.2302 29.865L63.5891 17.242L64.7914 17.562L61.4324 30.185C60.9015 32.1736 62.0899 34.2227 64.0786 34.7518C66.0673 35.281 68.117 34.0937 68.646 32.1047L72.5649 17.378C73.2715 14.726 71.6882 11.994 69.0349 11.288C66.3834 10.582 63.6516 12.166 62.9468 14.818L57.9056 33.7554C57.0233 37.0701 59.0033 40.4852 62.3177 41.3671C65.6339 42.2498 69.0478 40.2701 69.9301 36.9554L74.4095 20.122L75.6118 20.442L71.1324 37.2752C70.0725 41.2599 65.9821 43.6298 61.9975 42.5695Z"  />
        <path id="path6294" fill="url(#defitem17)" stroke-width="0.31106" d="M64.6797 34.9117C64.6289 34.8983 64.5814 34.8795 64.531 34.8641C66.472 35.2953 68.4303 34.1226 68.9475 32.1851L72.5649 17.378C73.2579 14.777 72.046 12.184 69.4851 11.416C69.5363 11.428 69.587 11.435 69.636 11.448C72.2894 12.154 73.8727 14.886 73.166 17.538L69.2472 32.2648C68.7181 34.2538 66.6684 35.4411 64.6797 34.9117ZM62.3457 14.658L57.3045 33.5953C56.2581 37.5297 58.5566 41.564 62.4507 42.6861C62.3996 42.6733 62.3498 42.6633 62.299 42.6497C58.3144 41.5894 55.945 37.5001 57.0048 33.5156L61.7446 14.498C62.6265 11.177 66.3367 9.283 69.6566 10.166C69.7074 10.179 69.7548 10.199 69.8053 10.213C66.5329 9.429 63.2159 11.388 62.3457 14.658ZM60.5298 29.9447L63.8888 17.322L64.1902 17.402L60.8295 30.0246C60.1371 32.6305 61.6462 35.298 64.2126 36.067C64.1613 36.055 64.1107 36.048 64.0598 36.0344C61.4029 35.3273 59.8238 32.6014 60.5298 29.9447ZM62.9188 41.5272C62.868 41.5136 62.8206 41.4943 62.7719 41.48C66.0372 42.2622 69.3628 40.2998 70.2316 37.0356L74.711 20.202L75.0107 20.282L70.5312 37.1155C69.649 40.4298 66.235 42.4097 62.9188 41.5272Z"  />
        <path id="path6302" fill="url(#defitem18)" stroke-width="0.31106" d="M61.2817 30.1448L64.6406 17.522L64.9421 17.602L61.5813 30.2247C61.0659 32.163 62.1824 34.1536 64.0806 34.7444C64.0293 34.7326 63.9787 34.7253 63.9279 34.7116C61.9392 34.1825 60.7526 32.1339 61.2817 30.1448Z"  />
        <path id="path6310" fill="url(#defitem19)" stroke-width="0.31106" d="M63.0957 14.858L58.0564 33.7954C57.1876 37.0595 59.096 40.4151 62.3197 41.3597C62.2685 41.3473 62.2196 41.341 62.1688 41.3276C58.8525 40.445 56.8743 37.0306 57.7567 33.7157L62.796 14.778C63.5008 12.126 66.2326 10.542 68.886 11.248C68.9369 11.262 68.9842 11.281 69.0328 11.296C66.4306 10.689 63.7887 12.257 63.0957 14.858Z"  />
        <path id="path6318" fill="url(#defitem20)" stroke-width="0.31106" d="M62.1482 42.6097C62.0992 42.5965 62.0491 42.58 61.9985 42.5657C65.9355 43.5278 69.9352 41.1696 70.9816 37.2352L75.4629 20.402L75.7625 20.482L71.2831 37.3156C70.2232 41.2999 66.1327 43.6701 62.1482 42.6097Z"  />
        <path id="path6326" fill="url(#defitem21)" stroke-width="0.31106" d="M63.9977 35.6635C63.9469 35.65 63.8995 35.6309 63.849 35.6158C66.4566 36.2241 69.092 34.6591 69.7862 32.0539L73.6165 17.657C74.4867 14.388 72.5823 11.039 69.3531 10.093C69.4043 10.105 69.455 10.112 69.5058 10.126C72.8257 11.009 74.8017 14.417 73.9179 17.738L70.0876 32.1341C69.3799 34.7899 66.6529 36.3702 63.9977 35.6635Z"  />
        <path id="path6328" fill="url(#defitem22)" stroke-width="0.31106" d="M64.6797 34.9117C64.6289 34.8983 64.5814 34.8795 64.531 34.8641C66.472 35.2953 68.4303 34.1226 68.9475 32.1851L72.5649 17.378C73.2579 14.777 72.046 12.184 69.4851 11.416C69.5363 11.428 69.587 11.435 69.636 11.448C72.2894 12.154 73.8727 14.886 73.166 17.538L69.2472 32.2648C68.7181 34.2538 66.6684 35.4411 64.6797 34.9117ZM62.3457 14.658L57.3045 33.5953C56.2581 37.5297 58.5566 41.564 62.4507 42.6861C62.3996 42.6733 62.3498 42.6633 62.299 42.6497C58.3144 41.5894 55.945 37.5001 57.0048 33.5156L61.7446 14.498C62.6265 11.177 66.3367 9.283 69.6566 10.166C69.7074 10.179 69.7548 10.199 69.8053 10.213C66.5329 9.429 63.2159 11.388 62.3457 14.658ZM60.5298 29.9447L63.8888 17.322L64.1902 17.402L60.8295 30.0246C60.1371 32.6305 61.6462 35.298 64.2126 36.067C64.1613 36.055 64.1107 36.048 64.0598 36.0344C61.4029 35.3273 59.8238 32.6014 60.5298 29.9447ZM62.9188 41.5272C62.868 41.5136 62.8206 41.4943 62.7719 41.48C66.0372 42.2622 69.3628 40.2998 70.2316 37.0356L74.711 20.202L75.0107 20.282L70.5312 37.1155C69.649 40.4298 66.235 42.4097 62.9188 41.5272Z"  />
      </g>
      <path id="path514" fill="url(#defitem23)" stroke-width="5.1391" d="M65.4067 17.459C65.4067 17.459 65.0499 17.367 64.6112 17.254C64.1725 17.142 63.8157 17.05 63.8157 17.05L60.2107 31.0923C60.2107 31.0923 60.5675 31.1839 61.0062 31.2965C61.4449 31.4092 61.8017 31.5009 61.8017 31.5009L65.4067 17.459Z"  />
      <path id="path516" fill="url(#defitem24)" stroke-width="5.1391" d="M73.7381 17.45C73.7381 17.45 73.5524 17.403 73.3231 17.344L73.2703 17.33C73.0409 17.271 72.8552 17.224 72.8552 17.224L68.5553 33.9756C68.5553 33.9756 68.7409 34.0234 68.9703 34.0821L69.0212 34.0954C69.2506 34.1543 69.4363 34.2017 69.4363 34.2017L73.7381 17.45Z"  />
      <path id="path518" fill="url(#defitem25)" stroke-width="7.96142" d="M70.8819 34.514C70.8819 34.514 70.8003 34.4919 70.7005 34.4652L70.5608 34.4273C70.461 34.4004 70.3811 34.379 70.3811 34.379L74.1518 20.394C74.1518 20.394 74.2334 20.416 74.3333 20.443L74.473 20.48C74.5728 20.507 74.6526 20.529 74.6526 20.529L70.8819 34.514Z"  />
      <path id="path520" fill="url(#defitem26)" stroke-width="5.1391" d="M73.737 17.454C73.737 17.454 73.6442 17.431 73.5295 17.401L73.5295 17.401C73.4148 17.372 73.3238 17.348 73.3238 17.348L69.0231 34.0959C69.0231 34.0959 69.1159 34.1198 69.2306 34.1491L69.2306 34.1491C69.3435 34.178 69.4363 34.2017 69.4363 34.2017L73.737 17.454Z"  />
    </g>
    <g id="llapis">
      <path id="path4600" fill="#000000" stroke-width="1.07026" d="M20.3304 25.86C19.7874 25.574 17.3383 26.719 15.551 30.14C13.7462 33.595 14.0814 36.1635 14.7638 36.5231C15.2065 36.7564 15.6511 36.9905 16.094 37.2239C17.9495 33.6698 19.8051 30.1154 21.6623 26.562C21.2179 26.328 20.7749 26.095 20.3304 25.86C20.3304 25.86 20.3304 25.86 20.3304 25.86"  fill-rule="evenodd" />
      <path id="path4602" fill="#000000" stroke="#000000" stroke-width="0" d="M127.938 89.4562L99.613 81.3308L99.4354 81.2373L104.815 70.4761L105.055 70.6027L127.938 89.4562Z"  fill-rule="evenodd" />
      <path id="path4604" fill="url(#defitem27)" stroke="#000000" stroke-width="0" d="M126.165 88.6031L99.7542 81.0348L99.5766 80.9413L104.674 70.7721L104.914 70.8987L126.165 88.6031Z"  fill-rule="evenodd" />
      <path id="path4606" fill="url(#defitem28)" stroke-width="0.53513" stroke-linecap="round" stroke-linejoin="round" d="M103.148 76.396C102.462 77.711 101.288 77.724 101.043 78.1941C101.003 78.2701 100.99 78.3592 100.991 78.4493L16.773 33.974L19.4719 28.8056L103.85 73.3652C103.661 73.4152 103.502 73.4841 103.425 73.6328C103.2 74.0624 103.838 75.0747 103.148 76.396Z"  />
      <path id="path4608" fill="#000000" stroke-width="0.53513" stroke-linecap="round" stroke-linejoin="round" d="M97.882 76.5707L101.178 78.3073C100.983 78.7722 101.764 79.5861 101.352 80.3758C100.907 81.227 99.9404 80.7824 99.6501 81.3308L96.3139 79.5732L97.882 76.5707Z"  />
      <path id="path4610" fill="url(#defitem29)" stroke-width="0.53513" stroke-linecap="round" stroke-linejoin="round" d="M16.8719 33.7856L101.026 78.227C100.829 78.694 101.457 79.4292 101.043 80.223C100.596 81.0785 99.7816 80.7146 99.4896 81.2658L15.2958 36.8032L16.8719 33.7856Z"  />
      <path id="path4612" fill="#232323" stroke-width="0.53513" stroke-linecap="round" stroke-linejoin="round" d="M101.823 72.7899L103.513 73.6806L103.577 73.7132C103.4 74.0812 104.148 74.926 103.617 76.214L103.583 76.2797L103.338 76.7472L103.304 76.8128C102.544 77.9963 101.422 77.8411 101.176 78.3111L99.3829 77.3604L101.823 72.7899Z"  />
      <path id="path4614" fill="#111111" stroke-width="0.53513" stroke-linecap="round" stroke-linejoin="round" d="M103.373 69.777L105.059 70.6052C105.05 70.6216 105.19 70.6963 105.181 70.7127C105.005 71.0503 105.718 71.9069 105.485 72.6366L105.455 72.6939L105.322 72.9483L105.305 72.9811C104.833 73.6139 103.82 73.3925 103.577 73.7132L101.805 72.7797L103.373 69.777Z"  />
      <path id="path4616" fill="url(#defitem30)" stroke-width="0.53513" stroke-linecap="round" stroke-linejoin="round" d="M105.071 72.6551C104.634 73.4692 103.654 73.1943 103.425 73.6328L19.2699 29.1908L20.8642 26.142L105.057 70.6038C105.049 70.6206 105.04 70.6369 105.031 70.6538C104.852 70.9965 105.512 71.8346 105.071 72.6551Z"  />
      <path id="path451" fill="#000000" stroke-width="1.07026" stroke-linecap="round" stroke-linejoin="round" d="M22.8679 27.204L20.3632 25.893L14.7884 36.5485L17.293 37.8587L22.8679 27.204Z"  />
      <path id="path4620" fill="url(#defitem31)" stroke-width="0.25026" stroke-linecap="round" stroke-linejoin="round" d="M19.7177 27.402C20.1061 26.661 35.8505 34.1838 54.8836 44.2046C73.9166 54.2254 89.031 62.9496 88.6426 63.6906C88.254 64.4316 72.5097 56.9088 53.4766 46.888C34.4436 36.8671 19.329 28.1428 19.7177 27.402Z"  />
      <path id="path4622" fill="url(#defitem32)" stroke-width="0.18702" stroke-linecap="round" stroke-linejoin="round" d="M18.6942 28.5966C18.8159 28.3637 38.0634 38.2985 61.8068 50.85C85.5503 63.4011 104.903 73.8713 105.154 74.3014C105.405 74.7318 86.4617 64.9615 62.7224 52.4169C38.9828 39.8723 19.3336 29.249 18.7092 28.6218"  />
      <path id="path4624" fill="url(#defitem33)" stroke-width="0.53513" stroke-linecap="round" stroke-linejoin="round" d="M26.2191 28.9688C27.6526 29.29 29.2181 30.1796 30.2043 31.0685L25.7084 39.5836L21.7228 37.4838L26.2191 28.9688ZM22.1935 36.5829L26.1787 38.6825L24.6108 41.6853C23.3714 41.4326 21.7668 40.6249 20.6253 39.5857L22.1935 36.5829Z"  />
      <path id="path4626" fill="#000000" stroke-width="0" d="M115.77 85.9944C117.235 85.3082 117.725 82.5454 118.316 81.5444L127.935 89.4518L115.77 85.9944Z"  fill-rule="evenodd" />
      <path id="path457" fill="url(#defitem34)" stroke-width="0" stroke-linecap="round" stroke-linejoin="round" d="M19.4053 29.2604L18.4005 28.7309L15.9993 33.3278L17.0042 33.8572L19.4053 29.2604Z"  />
      <path id="path4630" fill="url(#defitem35)" stroke-width="1.07026" d="M16.1875 29.2916C14.9493 31.2765 14.3983 33.5876 14.3973 33.7909C14.3947 33.9936 15.3106 31.2967 16.3918 29.8153C17.465 28.3457 19.4444 27.582 19.549 27.413C19.6537 27.244 20.2562 25.823 19.3682 26.197C18.4411 26.589 17.1424 27.758 16.1875 29.2916Z"  fill-rule="evenodd" />
      <path id="path4632" fill="url(#defitem36)" stroke-width="1.07026" d="M62.4307 59.4312C62.1713 59.2959 61.9433 59.2418 61.7472 59.2685C61.5509 59.2953 61.4043 59.4007 61.3076 59.5846C61.2112 59.7677 61.2081 59.9472 61.2976 60.1232C61.3876 60.2989 61.562 60.4546 61.8213 60.5899C62.0825 60.7259 62.311 60.7805 62.5074 60.7537C62.7037 60.7269 62.8498 60.622 62.9464 60.4389C63.0429 60.2549 63.0465 60.075 62.9567 59.8991C62.867 59.7233 62.6918 59.5674 62.4307 59.4312M62.6025 59.105C63.1331 59.3819 63.5066 59.6787 63.7231 59.996C63.9393 60.3134 63.9731 60.6134 63.8243 60.8964C63.6759 61.1786 63.4092 61.3215 63.0239 61.3253C62.6387 61.329 62.1807 61.1926 61.6499 60.9161C61.1207 60.6401 60.7471 60.343 60.5293 60.0248C60.313 59.7076 60.279 59.4079 60.4275 59.1256C60.5761 58.843 60.8431 58.6995 61.2284 58.6957C61.615 58.6928 62.073 58.8292 62.6025 59.105M66.1567 62.0871L66.8338 63.5751L65.947 63.1128L65.4889 62.1142L64.41 62.3114L63.5189 61.847L65.1329 61.5532L64.4811 60.1246L65.3699 60.588L65.7974 61.5272L66.8141 61.3408L67.7075 61.8065L66.1567 62.0871M67.8004 61.8549L68.7315 62.3402L69.1565 63.3543L70.2355 63.1244L71.1685 63.6108L69.3791 63.9649L68.9924 64.7003L68.1408 64.2563L68.5277 63.5212L67.8004 61.8549M73.6518 66.9636C73.4108 66.9077 73.1688 66.8334 72.9257 66.7417C72.6829 66.65 72.4399 66.5406 72.1968 66.4136C71.6469 66.1271 71.2538 65.8191 71.0175 65.4891C70.7818 65.1589 70.7371 64.8545 70.8834 64.5763C71.0314 64.2949 71.3116 64.1589 71.7236 64.1681C72.1358 64.1774 72.6263 64.3305 73.1953 64.6272C73.4151 64.7416 73.6195 64.8621 73.8086 64.9885C73.999 65.1154 74.1722 65.2471 74.328 65.3828L74.138 65.7442C73.9829 65.5927 73.8211 65.4555 73.6525 65.333C73.4856 65.2114 73.3107 65.1027 73.1279 65.0074C72.7888 64.8307 72.5007 64.7445 72.2636 64.7491C72.0283 64.7534 71.8615 64.8488 71.7636 65.035C71.6666 65.2199 71.6799 65.4085 71.804 65.6013C71.9279 65.794 72.1531 65.9754 72.4787 66.1452C72.5673 66.1913 72.6506 66.2312 72.7287 66.2649C72.8086 66.2987 72.8819 66.325 72.949 66.3443L73.1274 66.0051L72.6076 65.7342L72.7663 65.4327L74.0932 66.1242L73.6518 66.9636M75.2488 65.7377L77.5466 66.9355L77.3677 67.2758L75.9215 66.5217L75.7507 66.8466L77.1106 67.5557L76.9317 67.8959L75.5716 67.1868L75.3613 67.5866L76.8564 68.366L76.6773 68.7062L74.3308 67.4831L75.2488 65.7377M78.345 67.3515L79.2959 67.8473L79.8672 69.6704L80.4969 68.4733L81.304 68.8941L80.3862 70.6396L79.4352 70.1438L78.8639 68.3207L78.2341 69.5179L77.4272 69.0971L78.345 67.3515M83.7058 70.146L84.6567 70.6418L85.2278 72.4648L85.8575 71.2677L86.6648 71.6885L85.7468 73.434L84.7959 72.9382L84.2246 71.1151L83.5949 72.3122L82.7878 71.8914L83.7058 70.146M88.371 72.5377C88.6849 72.7015 88.9099 72.8736 89.0456 73.0549C89.1832 73.2367 89.2128 73.4017 89.1349 73.5498C89.057 73.6979 88.9049 73.7675 88.6784 73.7586C88.4521 73.7498 88.1809 73.6632 87.8655 73.4987C87.5499 73.3343 87.3235 73.1614 87.1856 72.9804C87.0494 72.8002 87.0204 72.636 87.0983 72.4879C87.1762 72.3398 87.3284 72.2699 87.5551 72.2779C87.7834 72.2866 88.0555 72.3734 88.371 72.5377M86.8775 73.1698L88.6976 74.1188L88.5747 74.3524L86.7546 73.4038L86.8775 73.1698M88.2664 72.7365C88.1425 72.6719 88.0338 72.6465 87.9401 72.6604C87.8479 72.6749 87.7783 72.7273 87.7306 72.8175C87.683 72.908 87.6797 72.9947 87.7208 73.0776C87.763 73.1613 87.8462 73.2355 87.9701 73.3C88.0923 73.3637 88.1995 73.3887 88.2913 73.375C88.3845 73.362 88.4549 73.3104 88.5024 73.2201C88.55 73.1296 88.5527 73.0421 88.5109 72.9577C88.4703 72.8739 88.3888 72.8003 88.2664 72.7365M92.8852 75.9559C93.0918 76.1023 93.2327 76.2433 93.3079 76.379C93.3851 76.5145 93.393 76.6403 93.3319 76.7564C93.241 76.9294 93.0463 76.9958 92.7484 76.9556C92.4504 76.9146 92.0612 76.7687 91.5807 76.5182C91.4109 76.4299 91.2447 76.3336 91.0815 76.2298C90.9194 76.1274 90.7624 76.0181 90.611 75.9027L90.7935 75.5554C90.9308 75.6805 91.0717 75.7946 91.2165 75.8979C91.3632 76.0012 91.5126 76.0925 91.6644 76.1716C91.8899 76.289 92.0733 76.3585 92.2144 76.3793C92.357 76.4011 92.4486 76.3733 92.4893 76.2963C92.531 76.2168 92.5007 76.1245 92.3979 76.0194C92.2974 75.9142 92.1269 75.7991 91.8867 75.6739L91.5462 75.4963L91.6986 75.2062L92.0566 75.3931C92.2705 75.5045 92.439 75.57 92.5622 75.5894C92.6857 75.6083 92.7666 75.5812 92.8047 75.5088C92.8398 75.4418 92.8162 75.3634 92.7339 75.2738C92.6515 75.1842 92.5172 75.0909 92.3315 74.9942C92.1944 74.9226 92.0514 74.8587 91.9029 74.8019C91.7541 74.7453 91.602 74.6967 91.4468 74.6565L91.6201 74.3267C91.8013 74.3894 91.9778 74.4576 92.1494 74.5314C92.3211 74.6048 92.4867 74.6833 92.6459 74.7662C93.0748 74.9897 93.3759 75.1944 93.5488 75.3798C93.7237 75.5653 93.7716 75.7328 93.6931 75.8827C93.6391 75.9847 93.5443 76.0418 93.4082 76.0542C93.2725 76.0658 93.0979 76.0332 92.8852 75.9559"  />
      <path id="path461" fill="url(#defitem37)" stroke-width="0" stroke-linecap="round" stroke-linejoin="round" d="M20.7875 26.016L20.0563 25.763L18.6228 29.0182L19.3543 29.2708L20.7875 26.016Z"  />
      <path id="path463" fill="url(#defitem38)" stroke-width="0" stroke-linecap="round" stroke-linejoin="round" d="M15.0052 36.9046L14.3581 36.4803L16.0566 33.3556L16.7038 33.7797L15.0052 36.9046Z"  />
    </g>
    <g id="pincell">
      <path id="path4865" fill="url(#defitem39)" stroke="#000000" stroke-width="0.98681" d="M82.5508 91.4443C85.6841 82.1765 85.8231 76.8822 91.9508 63.6414C98.0785 50.4008 110.251 29.2416 119.316 12C119.894 10.902 121.669 10.341 123.219 11.058C124.828 11.803 125.442 13.611 125.026 14.642C117.756 32.7148 109.499 55.6859 103.371 68.9266C97.2437 82.1672 93.2977 85.7001 88.261 94.0867C86.3575 93.206 84.454 92.325 82.5508 91.4443Z"  fill-rule="evenodd" />
      <path id="path4867" fill="url(#defitem40)" stroke="#000000" stroke-width="0" stroke-linecap="round" stroke-linejoin="round" d="M83.2698 102.122C82.6393 106.397 83.6917 110.53 81.3783 114.948C78.1106 121.187 66.2563 125.984 59.5949 122.713C66.3223 120.18 68.4252 114.212 72.314 108.624C74.8287 105.01 77.9185 102.483 79.0167 100.118C80.4345 100.786 81.8521 101.454 83.2698 102.122Z"  fill-rule="evenodd" />
      <path id="path4869" fill="url(#defitem41)" stroke="#000000" stroke-width="0" stroke-linecap="round" stroke-linejoin="round" d="M82.1964 102.453C81.9181 105.575 81.4327 111.085 80.0392 114.25C78.0714 118.72 68.4043 123.351 63.8515 121.856C68.7175 119.66 70.9505 113.535 73.2289 109.469C74.0345 108.032 78.7668 102.733 79.4193 101.034C80.3845 101.577 81.2313 101.909 82.1964 102.453Z"  fill-rule="evenodd" />
      <path id="path4871" fill="url(#defitem42)" stroke-width="0.300366" d="M82.5508 91.4443C85.6841 82.1765 85.8231 76.8822 91.9508 63.6414C98.0785 50.4008 110.251 29.2416 119.316 12C119.894 10.902 121.669 10.341 123.219 11.058C124.828 11.803 125.442 13.611 125.026 14.642C117.756 32.7148 109.499 55.6859 103.371 68.9266C97.2437 82.1672 93.2977 85.7001 88.261 94.0867C86.3575 93.206 84.454 92.325 82.5508 91.4443Z"  fill-rule="evenodd" />
      <path id="path4873" fill="url(#defitem43)" stroke-width="0.300366" d="M120.288 11.05C119.865 11.27 119.542 11.62 119.343 11.998C113.829 22.485 101.823 44.1824 96.4566 55.3545C98.2608 54.5049 100.717 53.2336 102.626 50.7162C106.247 45.9428 118.566 18.086 120.649 14.441C121.958 12.152 123.648 13.56 125.045 13.242C124.824 12.395 124.236 11.504 123.23 11.038C122.213 10.568 121.097 10.629 120.288 11.05Z"  fill-rule="evenodd" />
      <path id="path4875" fill="url(#defitem44)" stroke-width="0.40049" stroke-linecap="round" stroke-linejoin="round" d="M114.481 20.007C113.791 20.833 113.067 21.984 112.889 22.944L119.294 25.934L120.675 22.929L114.481 20.007ZM120.001 22.61L118.619 25.615L120.868 26.677C121.475 25.977 121.825 24.691 122.026 23.573L120.001 22.61Z"  />
      <path id="path4877" fill="url(#defitem45)" stroke-width="0.300366" d="M82.5508 91.4443C85.6841 82.1765 85.8231 76.8822 91.9508 63.6414C98.0785 50.4008 110.251 29.2416 119.316 12C119.894 10.902 121.669 10.341 123.219 11.058C124.828 11.803 125.442 13.611 125.026 14.642C117.756 32.7148 109.499 55.6859 103.371 68.9266C97.2437 82.1672 93.2977 85.7001 88.261 94.0867C86.3575 93.206 84.454 92.325 82.5508 91.4443Z"  fill-rule="evenodd" />
      <path id="path4879" fill="#999999" stroke-width="0.800978" d="M112.018 43.0917C111.958 43.2235 111.937 43.3377 111.955 43.4343C111.973 43.5312 112.029 43.6014 112.122 43.6448C112.215 43.6884 112.304 43.6856 112.388 43.6372C112.473 43.5886 112.545 43.4983 112.605 43.3664C112.665 43.2338 112.686 43.1193 112.668 43.0225C112.65 42.9257 112.594 42.8556 112.502 42.8122C112.408 42.7684 112.32 42.7711 112.235 42.8198C112.151 42.8685 112.078 42.9591 112.018 43.0917M111.853 43.0141C111.975 42.7444 112.113 42.5524 112.264 42.4375C112.415 42.3229 112.562 42.2988 112.705 42.366C112.848 42.4329 112.925 42.5616 112.937 42.7528C112.948 42.9439 112.893 43.1741 112.77 43.4437C112.647 43.7129 112.511 43.9051 112.359 44.0206C112.208 44.1352 112.061 44.1591 111.918 44.0923C111.775 44.0252 111.698 43.8962 111.686 43.7052C111.674 43.5135 111.73 43.2834 111.853 43.0141M113.233 41.1813L113.949 40.8104L113.744 41.2609L113.263 41.5118L113.388 42.0422L113.181 42.4949L112.996 41.7016L112.307 42.0587L112.513 41.6069L112.966 41.3726L112.848 40.8728L113.054 40.4187L113.233 41.1813M113.076 40.3714L113.292 39.8982L113.781 39.6638L113.64 39.1341L113.856 38.6599L114.076 39.5389L114.449 39.7135L114.252 40.1462L113.879 39.9718L113.076 40.3714M115.446 37.3496C115.425 37.4704 115.394 37.5921 115.355 37.7146C115.316 37.8373 115.268 37.9604 115.212 38.0839C115.085 38.3634 114.943 38.5655 114.786 38.6905C114.629 38.8153 114.48 38.8445 114.339 38.7785C114.197 38.7118 114.123 38.5761 114.117 38.3714C114.111 38.1671 114.174 37.92 114.305 37.6308C114.356 37.5191 114.41 37.4149 114.468 37.3182C114.526 37.2208 114.586 37.1317 114.649 37.0513L114.832 37.137C114.761 37.2175 114.698 37.3011 114.642 37.3875C114.586 37.473 114.537 37.5624 114.494 37.6553C114.416 37.8278 114.381 37.9728 114.389 38.09C114.398 38.2068 114.449 38.287 114.543 38.3313C114.637 38.3751 114.729 38.3639 114.821 38.2978C114.913 38.2317 114.997 38.1159 115.072 37.9504C115.093 37.9056 115.111 37.8632 115.125 37.8239C115.14 37.7833 115.151 37.7462 115.159 37.7125L114.987 37.632L114.866 37.8963L114.714 37.8248L115.021 37.1503L115.446 37.3496M114.801 36.5864L115.333 35.4187L115.505 35.4993L115.17 36.2345L115.335 36.3115L115.65 35.6205L115.822 35.7011L115.507 36.3921L115.71 36.4871L116.056 35.7272L116.228 35.808L115.685 37.0003L114.801 36.5864M115.517 35.0131L115.738 34.5298L116.622 34.2033L116.016 33.9192L116.202 33.5093L117.087 33.9231L116.867 34.4064L115.982 34.7328L116.589 35.0168L116.402 35.4268L115.517 35.0131M116.759 32.2887L116.979 31.8053L117.863 31.479L117.257 31.1952L117.444 30.7847L118.328 31.199L118.108 31.6822L117.223 32.0083L117.83 32.2925L117.643 32.7026L116.759 32.2887M117.819 29.9188C117.892 29.7591 117.971 29.6435 118.057 29.5719C118.143 29.4996 118.223 29.4809 118.298 29.516C118.373 29.551 118.412 29.625 118.413 29.7374C118.415 29.85 118.379 29.9862 118.306 30.1469C118.233 30.3071 118.153 30.4235 118.067 30.4961C117.982 30.5678 117.902 30.5862 117.827 30.5512C117.752 30.5159 117.713 30.4419 117.712 30.3294C117.71 30.2162 117.746 30.0793 117.819 29.9188M118.169 30.6444L118.59 29.7196L118.709 29.7749L118.287 30.7L118.169 30.6444M117.92 29.9657C117.891 30.0289 117.881 30.0833 117.89 30.1295C117.9 30.1748 117.928 30.2081 117.973 30.2295C118.019 30.251 118.062 30.2508 118.102 30.2285C118.142 30.2054 118.176 30.1624 118.205 30.0997C118.233 30.0373 118.243 29.9837 118.234 29.9386C118.225 29.8927 118.198 29.859 118.152 29.8375C118.106 29.8158 118.063 29.8167 118.022 29.8396C117.982 29.8616 117.948 29.9037 117.92 29.9657M119.389 27.599C119.456 27.494 119.522 27.42 119.587 27.38C119.652 27.338 119.714 27.331 119.773 27.359C119.86 27.4 119.898 27.495 119.886 27.644C119.873 27.792 119.811 27.989 119.7 28.2332C119.661 28.3193 119.617 28.4042 119.57 28.4874C119.524 28.5702 119.474 28.6506 119.421 28.7286L119.245 28.6459C119.303 28.5753 119.356 28.5026 119.403 28.4283C119.451 28.3532 119.492 28.2769 119.527 28.1999C119.579 28.0851 119.608 27.992 119.615 27.922C119.622 27.851 119.606 27.806 119.567 27.788C119.527 27.769 119.482 27.786 119.433 27.84C119.384 27.892 119.332 27.979 119.276 28.1013L119.197 28.2745L119.05 28.2056L119.133 28.0235C119.182 27.915 119.21 27.83 119.217 27.768C119.223 27.707 119.207 27.667 119.171 27.65C119.137 27.634 119.099 27.648 119.057 27.691C119.015 27.734 118.972 27.802 118.929 27.897C118.897 27.966 118.869 28.0388 118.845 28.1138C118.821 28.1889 118.801 28.2655 118.785 28.3436L118.618 28.2652C118.645 28.174 118.674 28.0846 118.705 27.998C118.737 27.911 118.772 27.827 118.809 27.746C118.908 27.528 119.001 27.374 119.088 27.284C119.175 27.193 119.256 27.165 119.332 27.201C119.384 27.225 119.415 27.27 119.424 27.338C119.434 27.405 119.422 27.492 119.389 27.599"  />
      <path id="path4881" fill="url(#defitem46)" stroke="#000000" stroke-width="0" stroke-linecap="round" stroke-linejoin="round" d="M83.2698 102.122C82.6393 106.397 83.6917 110.53 81.3783 114.948C78.1106 121.187 69.635 113.901 73.3261 108.18C75.7943 104.354 77.9185 102.483 79.0167 100.118C80.4345 100.786 81.8521 101.454 83.2698 102.122Z"  fill-rule="evenodd" />
      <g id="g4883">
        <path id="path4885" fill="url(#defitem47)" stroke-width="0.40049" stroke-linecap="round" stroke-linejoin="round" d="M77.3686 99.969C77.6906 98.7012 78.2659 97.1338 78.9752 96.1844L84.9214 99.0634L83.1453 102.727L77.3686 99.969ZM82.5158 102.427L84.292 98.7632L86.3899 99.7635C86.1297 100.857 85.2396 102.223 84.4111 103.323L82.5158 102.427Z"  />
        <path id="path4887" fill="url(#defitem48)" stroke-width="0.40049" stroke-linecap="round" stroke-linejoin="round" d="M79.0027 96.3548C79.3204 95.0849 79.8933 93.5163 80.6061 92.5685L86.6562 95.4978L84.8801 99.1619L79.0027 96.3548ZM84.2395 98.8564L86.0159 95.1924L88.1504 96.2103C87.894 97.3053 87.0006 98.67 86.1679 99.7677L84.2395 98.8564Z"  />
        <path id="path4889" fill="url(#defitem49)" stroke-width="0.40049" stroke-linecap="round" stroke-linejoin="round" d="M80.5954 92.6649C80.9051 91.3913 81.473 89.8201 82.1932 88.876L88.451 91.9055L86.6741 95.5695L80.5954 92.6649ZM86.0116 95.2533L87.7888 91.5897L89.9964 92.643C89.7476 93.7415 88.8472 95.1029 88.006 96.1967L86.0116 95.2533Z"  />
        <path id="path4891" fill="url(#defitem50)" stroke-width="0.40049" stroke-linecap="round" stroke-linejoin="round" d="M82.245 89.0187C82.5508 87.7431 83.1163 86.1707 83.8399 85.2283L90.2017 88.3083L88.4242 91.972L82.245 89.0187ZM87.7511 91.6504L89.5284 87.9872L91.7723 89.058C91.5275 90.1582 90.6238 91.5183 89.7783 92.6099L87.7511 91.6504Z"  />
        <path id="path4893" fill="url(#defitem51)" stroke-width="0.40049" stroke-linecap="round" stroke-linejoin="round" d="M83.8491 85.2138C83.1479 86.1268 82.5894 87.6482 82.2779 88.901L82.1934 88.8689C81.496 89.7838 80.9379 91.3051 80.6224 92.5562L80.5964 92.5646C79.9127 93.4737 79.3727 94.9746 79.0479 96.2147L78.9635 96.1828C78.2544 97.1322 77.6982 98.6965 77.3763 99.9643L83.1586 102.727L84.4125 103.332C85.2409 102.231 86.1391 100.841 86.3991 99.7474L86.2564 99.6748C87.0658 98.5957 87.9006 97.2712 88.1488 96.2103L88.0351 96.1579C88.8688 95.07 89.7563 93.7268 90.0024 92.6394L89.8305 92.5468C90.6605 91.4671 91.5349 90.1429 91.775 89.0654L90.2062 88.2957L83.8491 85.2138Z"  />
      </g>
    </g>
  </g>
</svg>
