<?xml version="1.0" standalone="no"?>
<!DOCTYPE svg PUBLIC "-//W3C//DTD SVG 20010904//EN" "http://www.w3.org/TR/2001/REC-SVG-20010904/DTD/svg10.dtd">
<!-- Created using Karbon14, part of koffice: http://www.koffice.org/karbon -->
<svg xmlns="http://www.w3.org/2000/svg" xmlns:xlink="http://www.w3.org/1999/xlink" width="128px" height="128px">
  <defs>
    <radialGradient id="defitem0" gradientUnits="userSpaceOnUse" cx="64.0002" cy="122.802" fx="64.0002" fy="122.802" r="61.5368" >
      <stop stop-color="#000000" offset="0" stop-opacity="1" />
      <stop stop-color="#000000" offset="1" stop-opacity="0" />
    </radialGradient>
    <linearGradient id="defitem1" gradientUnits="userSpaceOnUse" x1="64.0002" y1="128" x2="64.0002" y2="122.802" >
      <stop stop-color="#ffffff" offset="0" stop-opacity="1" />
      <stop stop-color="#ffffff" offset="1" stop-opacity="0" />
    </linearGradient>
    <linearGradient id="defitem2" gradientUnits="userSpaceOnUse" x1="64.0002" y1="117.18" x2="64.0002" y2="122.802" >
      <stop stop-color="#ffffff" offset="0" stop-opacity="1" />
      <stop stop-color="#ffffff" offset="1" stop-opacity="0" />
    </linearGradient>
    <linearGradient id="defitem3" gradientUnits="userSpaceOnUse" x1="113.047" y1="83.7461" x2="113.047" y2="54.0586" >
      <stop stop-color="#cacacd" offset="0" stop-opacity="1" />
      <stop stop-color="#dfdfe2" offset="0.5" stop-opacity="1" />
      <stop stop-color="#f2f2f2" offset="1" stop-opacity="1" />
    </linearGradient>
    <linearGradient id="defitem4" gradientUnits="userSpaceOnUse" x1="186.803" y1="157.762" x2="170.601" y2="110.87" >
      <stop stop-color="#dddddf" offset="0" stop-opacity="1" />
      <stop stop-color="#babcbc" offset="1" stop-opacity="0" />
    </linearGradient>
    <linearGradient id="defitem5" gradientUnits="userSpaceOnUse" x1="108.228" y1="23.984" x2="56.4481" y2="23.984" >
      <stop stop-color="#666666" offset="0" stop-opacity="1" />
      <stop stop-color="#666666" offset="1" stop-opacity="0" />
    </linearGradient>
    <linearGradient id="defitem6" gradientUnits="userSpaceOnUse" x1="101.923" y1="24.294" x2="56.4361" y2="24.294" >
      <stop stop-color="#ffffff" offset="0" stop-opacity="1" />
      <stop stop-color="#ffffff" offset="1" stop-opacity="0" />
    </linearGradient>
    <radialGradient id="defitem7" gradientUnits="userSpaceOnUse" cx="113.736" cy="24.203" fx="113.736" fy="24.203" r="5.81" >
      <stop stop-color="#000000" offset="0" stop-opacity="1" />
      <stop stop-color="#000000" offset="1" stop-opacity="0" />
    </radialGradient>
    <radialGradient id="defitem8" gradientUnits="userSpaceOnUse" cx="113.736" cy="22.778" fx="113.811" fy="21.099" r="7.82" >
      <stop stop-color="#ffffff" offset="0" stop-opacity="1" />
      <stop stop-color="#ffffff" offset="0.5" stop-opacity="0.608541" />
      <stop stop-color="#ffffff" offset="1" stop-opacity="0" />
    </radialGradient>
    <radialGradient id="defitem9" gradientUnits="userSpaceOnUse" cx="113.736" cy="22.457" fx="113.806" fy="20.876" r="7.362" >
      <stop stop-color="#ffffff" offset="0" stop-opacity="1" />
      <stop stop-color="#ffffff" offset="0.5" stop-opacity="0.608541" />
      <stop stop-color="#ffffff" offset="1" stop-opacity="0" />
    </radialGradient>
    <radialGradient id="defitem10" gradientUnits="userSpaceOnUse" cx="100.263" cy="24.203" fx="100.263" fy="24.203" r="5.81" >
      <stop stop-color="#000000" offset="0" stop-opacity="1" />
      <stop stop-color="#000000" offset="1" stop-opacity="0" />
    </radialGradient>
    <radialGradient id="defitem11" gradientUnits="userSpaceOnUse" cx="100.265" cy="24.243" fx="100.149" fy="26.833" r="5.111" >
      <stop stop-color="#e6e6e6" offset="0" stop-opacity="1" />
      <stop stop-color="#dbdbdb" offset="1" stop-opacity="1" />
    </radialGradient>
    <radialGradient id="defitem12" gradientUnits="userSpaceOnUse" cx="100.264" cy="22.778" fx="100.339" fy="21.099" r="7.82" >
      <stop stop-color="#ffffff" offset="0" stop-opacity="1" />
      <stop stop-color="#ffffff" offset="0.5" stop-opacity="0.608541" />
      <stop stop-color="#ffffff" offset="1" stop-opacity="0" />
    </radialGradient>
    <radialGradient id="defitem13" gradientUnits="userSpaceOnUse" cx="100.264" cy="22.457" fx="100.334" fy="20.876" r="7.362" >
      <stop stop-color="#ffffff" offset="0" stop-opacity="1" />
      <stop stop-color="#ffffff" offset="0.5" stop-opacity="0.608541" />
      <stop stop-color="#ffffff" offset="1" stop-opacity="0" />
    </radialGradient>
    <radialGradient id="defitem14" gradientUnits="userSpaceOnUse" cx="86.1345" cy="24.203" fx="86.1345" fy="24.203" r="5.8099" >
      <stop stop-color="#000000" offset="0" stop-opacity="1" />
      <stop stop-color="#000000" offset="1" stop-opacity="0" />
    </radialGradient>
    <radialGradient id="defitem15" gradientUnits="userSpaceOnUse" cx="86.1354" cy="24.243" fx="86.0192" fy="26.833" r="5.1116" >
      <stop stop-color="#e6e6e6" offset="0" stop-opacity="1" />
      <stop stop-color="#dbdbdb" offset="1" stop-opacity="1" />
    </radialGradient>
    <radialGradient id="defitem16" gradientUnits="userSpaceOnUse" cx="86.1348" cy="22.778" fx="86.2091" fy="21.099" r="7.8191" >
      <stop stop-color="#ffffff" offset="0" stop-opacity="1" />
      <stop stop-color="#ffffff" offset="0.5" stop-opacity="0.608541" />
      <stop stop-color="#ffffff" offset="1" stop-opacity="0" />
    </radialGradient>
    <radialGradient id="defitem17" gradientUnits="userSpaceOnUse" cx="86.1342" cy="22.457" fx="86.2042" fy="20.876" r="7.3624" >
      <stop stop-color="#ffffff" offset="0" stop-opacity="1" />
      <stop stop-color="#ffffff" offset="0.5" stop-opacity="0.608541" />
      <stop stop-color="#ffffff" offset="1" stop-opacity="0" />
    </radialGradient>
    <linearGradient id="defitem18" gradientUnits="userSpaceOnUse" x1="11.5467" y1="23.984" x2="38.0998" y2="23.984" >
      <stop stop-color="#666666" offset="0" stop-opacity="1" />
      <stop stop-color="#666666" offset="1" stop-opacity="0" />
    </linearGradient>
    <linearGradient id="defitem19" gradientUnits="userSpaceOnUse" x1="14.7799" y1="24.294" x2="38.106" y2="24.294" >
      <stop stop-color="#ffffff" offset="0" stop-opacity="1" />
      <stop stop-color="#ffffff" offset="1" stop-opacity="0" />
    </linearGradient>
    <radialGradient id="defitem20" gradientUnits="userSpaceOnUse" cx="11.6405" cy="24.203" fx="11.6405" fy="24.203" r="5.8099" >
      <stop stop-color="#000000" offset="0" stop-opacity="1" />
      <stop stop-color="#000000" offset="1" stop-opacity="0" />
    </radialGradient>
    <radialGradient id="defitem21" gradientUnits="userSpaceOnUse" cx="11.642" cy="24.243" fx="11.5258" fy="26.833" r="5.1116" >
      <stop stop-color="#e6e6e6" offset="0" stop-opacity="1" />
      <stop stop-color="#dbdbdb" offset="1" stop-opacity="1" />
    </radialGradient>
    <radialGradient id="defitem22" gradientUnits="userSpaceOnUse" cx="11.6416" cy="22.778" fx="11.7159" fy="21.099" r="7.8191" >
      <stop stop-color="#ffffff" offset="0" stop-opacity="1" />
      <stop stop-color="#ffffff" offset="0.5" stop-opacity="0.608541" />
      <stop stop-color="#ffffff" offset="1" stop-opacity="0" />
    </radialGradient>
    <radialGradient id="defitem23" gradientUnits="userSpaceOnUse" cx="11.6409" cy="22.457" fx="11.7109" fy="20.876" r="7.3624" >
      <stop stop-color="#ffffff" offset="0" stop-opacity="1" />
      <stop stop-color="#ffffff" offset="0.5" stop-opacity="0.608541" />
      <stop stop-color="#ffffff" offset="1" stop-opacity="0" />
    </radialGradient>
    <linearGradient id="defitem24" gradientUnits="userSpaceOnUse" x1="114.796" y1="57.2248" x2="118.696" y2="57.207" >
      <stop stop-color="#878787" offset="0" stop-opacity="1" />
      <stop stop-color="#878787" offset="1" stop-opacity="0" />
    </linearGradient>
    <linearGradient id="defitem25" gradientUnits="userSpaceOnUse" x1="64.7945" y1="63.6786" x2="70.6694" y2="48.3666" >
      <stop stop-color="#dddddd" offset="0" stop-opacity="1" />
      <stop stop-color="#ededed" offset="1" stop-opacity="1" />
    </linearGradient>
    <linearGradient id="defitem26" gradientUnits="userSpaceOnUse" x1="108.474" y1="53.398" x2="78.1953" y2="59.8455" >
      <stop stop-color="#ededed" offset="0" stop-opacity="1" />
      <stop stop-color="#dfdfdf" offset="1" stop-opacity="1" />
    </linearGradient>
    <linearGradient id="defitem27" gradientUnits="userSpaceOnUse" x1="118.478" y1="48.3337" x2="117.839" y2="48.958" >
      <stop stop-color="#000000" offset="0" stop-opacity="1" />
      <stop stop-color="#000000" offset="1" stop-opacity="0" />
    </linearGradient>
    <linearGradient id="defitem28" gradientUnits="userSpaceOnUse" x1="91.0033" y1="51.2174" x2="105.89" y2="36.1473" >
      <stop stop-color="#bf0202" offset="0" stop-opacity="1" />
      <stop stop-color="#e20800" offset="1" stop-opacity="1" />
    </linearGradient>
    <linearGradient id="defitem29" gradientUnits="userSpaceOnUse" x1="118.583" y1="63.1512" x2="117.783" y2="62.3819" >
      <stop stop-color="#000000" offset="0" stop-opacity="1" />
      <stop stop-color="#000000" offset="1" stop-opacity="0" />
    </linearGradient>
    <linearGradient id="defitem30" gradientUnits="userSpaceOnUse" x1="83.5375" y1="63.9847" x2="99.0419" y2="48.2893" >
      <stop stop-color="#bf0202" offset="0" stop-opacity="1" />
      <stop stop-color="#e20800" offset="1" stop-opacity="1" />
    </linearGradient>
    <radialGradient id="defitem31" gradientUnits="userSpaceOnUse" cx="123.547" cy="45.0333" fx="127.376" fy="45.7902" r="36.2671" >
      <stop stop-color="#ffffff" offset="0" stop-opacity="1" />
      <stop stop-color="#ffffff" offset="1" stop-opacity="0" />
    </radialGradient>
    <linearGradient id="defitem32" gradientUnits="userSpaceOnUse" x1="66.1159" y1="66.0751" x2="66.1038" y2="65.4016" >
      <stop stop-color="#000000" offset="0" stop-opacity="1" />
      <stop stop-color="#000000" offset="1" stop-opacity="0" />
    </linearGradient>
    <linearGradient id="defitem33" gradientUnits="userSpaceOnUse" x1="62.8555" y1="52.4948" x2="63.7478" y2="52.5342" >
      <stop stop-color="#000000" offset="0" stop-opacity="1" />
      <stop stop-color="#000000" offset="1" stop-opacity="0" />
    </linearGradient>
    <linearGradient id="defitem34" gradientUnits="userSpaceOnUse" x1="118.846" y1="62.1964" x2="117.702" y2="62.1584" >
      <stop stop-color="#000000" offset="0" stop-opacity="1" />
      <stop stop-color="#000000" offset="1" stop-opacity="0" />
    </linearGradient>
    <linearGradient id="defitem35" gradientUnits="userSpaceOnUse" x1="114.392" y1="47.1566" x2="115.67" y2="47.3082" >
      <stop stop-color="#ffffff" offset="0" stop-opacity="1" />
      <stop stop-color="#ffffff" offset="1" stop-opacity="0" />
    </linearGradient>
    <linearGradient id="defitem36" gradientUnits="userSpaceOnUse" x1="73.4896" y1="56.8698" x2="72.3465" y2="56.8774" >
      <stop stop-color="#000000" offset="0" stop-opacity="1" />
      <stop stop-color="#000000" offset="1" stop-opacity="0" />
    </linearGradient>
    <radialGradient id="defitem37" gradientUnits="userSpaceOnUse" cx="19.4271" cy="86.765" fx="19.4271" fy="86.765" r="44.2897" >
      <stop stop-color="#f2f2f2" offset="0" stop-opacity="1" />
      <stop stop-color="#c3c3c3" offset="1" stop-opacity="1" />
    </radialGradient>
    <linearGradient id="defitem38" gradientUnits="userSpaceOnUse" x1="51.2666" y1="90.6309" x2="17.5887" y2="90.8957" >
      <stop stop-color="#b6b8b8" offset="0" stop-opacity="1" />
      <stop stop-color="#ebebeb" offset="0.18851" stop-opacity="1" />
      <stop stop-color="#f9f9f9" offset="0.257181" stop-opacity="1" />
      <stop stop-color="#ffffff" offset="0.301113" stop-opacity="1" />
      <stop stop-color="#f9f9f9" offset="0.5313" stop-opacity="1" />
      <stop stop-color="#ebebeb" offset="0.8449" stop-opacity="1" />
      <stop stop-color="#e1e2e2" offset="1" stop-opacity="1" />
    </linearGradient>
    <linearGradient id="defitem39" gradientUnits="userSpaceOnUse" x1="22.3045" y1="88.8951" x2="44.8092" y2="88.7175" >
      <stop stop-color="#70a8f4" offset="0.25" stop-opacity="0" />
      <stop stop-color="#0056ae" offset="1" stop-opacity="1" />
    </linearGradient>
    <linearGradient id="defitem40" gradientUnits="userSpaceOnUse" x1="18.8899" y1="87.424" x2="53.1661" y2="87.1533" >
      <stop stop-color="#545454" offset="0.0533" stop-opacity="1" />
      <stop stop-color="#bababa" offset="0.211134" stop-opacity="1" />
      <stop stop-color="#ffffff" offset="0.362655" stop-opacity="1" />
      <stop stop-color="#ffffff" offset="0.603228" stop-opacity="1" />
      <stop stop-color="#e8e8e8" offset="0.849766" stop-opacity="1" />
      <stop stop-color="#545454" offset="1" stop-opacity="1" />
    </linearGradient>
    <linearGradient id="defitem41" gradientUnits="userSpaceOnUse" x1="17.0607" y1="95.8593" x2="44.759" y2="95.6405" >
      <stop stop-color="#efefef" offset="0.4083" stop-opacity="1" />
      <stop stop-color="#c3c3c3" offset="0.506285" stop-opacity="1" />
      <stop stop-color="#898989" offset="0.560082" stop-opacity="1" />
      <stop stop-color="#383838" offset="0.679446" stop-opacity="1" />
    </linearGradient>
    <linearGradient id="defitem42" gradientUnits="userSpaceOnUse" x1="21.4951" y1="93.5778" x2="54.7322" y2="93.3159" >
      <stop stop-color="#878985" offset="0" stop-opacity="1" />
      <stop stop-color="#8c8e89" offset="0.0072" stop-opacity="1" />
      <stop stop-color="#aaaca8" offset="0.0673" stop-opacity="1" />
      <stop stop-color="#c3c6c3" offset="0.1347" stop-opacity="1" />
      <stop stop-color="#dbdbda" offset="0.265258" stop-opacity="1" />
      <stop stop-color="#ebebeb" offset="0.376461" stop-opacity="1" />
      <stop stop-color="#f6f6f6" offset="0.487403" stop-opacity="1" />
      <stop stop-color="#fdfdfd" offset="0.632409" stop-opacity="1" />
      <stop stop-color="#ffffff" offset="1" stop-opacity="1" />
    </linearGradient>
    <linearGradient id="defitem43" gradientUnits="userSpaceOnUse" x1="42.9526" y1="79.4072" x2="38.1655" y2="92.1319" >
      <stop stop-color="#ffffff" offset="0" stop-opacity="1" />
      <stop stop-color="#ffffff" offset="1" stop-opacity="0" />
    </linearGradient>
    <linearGradient id="defitem44" gradientUnits="userSpaceOnUse" x1="46.1226" y1="85.7815" x2="28.3082" y2="85.9233" >
      <stop stop-color="#000000" offset="0" stop-opacity="1" />
      <stop stop-color="#000000" offset="0.5" stop-opacity="0.844765" />
      <stop stop-color="#000000" offset="1" stop-opacity="0" />
    </linearGradient>
    <linearGradient id="defitem45" gradientUnits="userSpaceOnUse" x1="37.5416" y1="96.8067" x2="27.1947" y2="96.64" spreadMethod="reflect" >
      <stop stop-color="#000000" offset="0" stop-opacity="1" />
      <stop stop-color="#000000" offset="0.5" stop-opacity="0.844765" />
      <stop stop-color="#000000" offset="1" stop-opacity="0" />
    </linearGradient>
    <linearGradient id="defitem46" gradientUnits="userSpaceOnUse" x1="44.6503" y1="98.3023" x2="34.1015" y2="104.913" >
      <stop stop-color="#ffffff" offset="0" stop-opacity="1" />
      <stop stop-color="#ffffff" offset="1" stop-opacity="0" />
    </linearGradient>
    <linearGradient id="defitem47" gradientUnits="userSpaceOnUse" x1="37.5416" y1="96.8067" x2="27.1947" y2="96.64" spreadMethod="reflect" >
      <stop stop-color="#000000" offset="0" stop-opacity="1" />
      <stop stop-color="#000000" offset="0.5" stop-opacity="0.844765" />
      <stop stop-color="#000000" offset="1" stop-opacity="0" />
    </linearGradient>
    <radialGradient id="defitem48" gradientUnits="userSpaceOnUse" cx="109.925" cy="101.494" fx="109.925" fy="101.494" r="3.443" >
      <stop stop-color="#b3932a" offset="0" stop-opacity="1" />
      <stop stop-color="#e4dbc8" offset="1" stop-opacity="1" />
    </radialGradient>
    <radialGradient id="defitem49" gradientUnits="userSpaceOnUse" cx="92.626" cy="90.469" fx="92.626" fy="90.469" r="3.1607" >
      <stop stop-color="#232323" offset="0" stop-opacity="1" />
      <stop stop-color="#232323" offset="0.5" stop-opacity="1" />
      <stop stop-color="#232323" offset="0.75" stop-opacity="1" />
      <stop stop-color="#000000" offset="1" stop-opacity="1" />
    </radialGradient>
    <radialGradient id="defitem50" gradientUnits="userSpaceOnUse" cx="85.9121" cy="88.4525" fx="61.7607" fy="75.165" r="1.9737" >
      <stop stop-color="#9a7500" offset="0" stop-opacity="1" />
      <stop stop-color="#e2ac00" offset="0.0929204" stop-opacity="1" />
      <stop stop-color="#ffcd2a" offset="0.504317" stop-opacity="1" />
      <stop stop-color="#e2ac00" offset="0.915714" stop-opacity="1" />
      <stop stop-color="#b88c00" offset="1" stop-opacity="1" />
    </radialGradient>
    <linearGradient id="defitem51" gradientUnits="userSpaceOnUse" x1="87.4412" y1="84.4484" x2="86.4709" y2="86.3128" >
      <stop stop-color="#9a7500" offset="0" stop-opacity="1" />
      <stop stop-color="#e2ac00" offset="0.0929204" stop-opacity="1" />
      <stop stop-color="#ffcd2a" offset="0.504317" stop-opacity="1" />
      <stop stop-color="#e2ac00" offset="0.915714" stop-opacity="1" />
      <stop stop-color="#b88c00" offset="1" stop-opacity="1" />
    </linearGradient>
    <radialGradient id="defitem52" gradientUnits="userSpaceOnUse" cx="82.1422" cy="82.7618" fx="82.1422" fy="82.7618" r="22.3438" >
      <stop stop-color="#ffffff" offset="0" stop-opacity="0.683453" />
      <stop stop-color="#ffffff" offset="1" stop-opacity="0" />
    </radialGradient>
    <radialGradient id="defitem53" gradientUnits="userSpaceOnUse" cx="86.576" cy="86.144" fx="86.576" fy="86.144" r="27.995" >
      <stop stop-color="#ffffff" offset="0" stop-opacity="1" />
      <stop stop-color="#ffffff" offset="1" stop-opacity="0" />
    </radialGradient>
    <radialGradient id="defitem54" gradientUnits="userSpaceOnUse" cx="65.6574" cy="76.9178" fx="65.8154" fy="75.4064" r="3.4215" >
      <stop stop-color="#ffffff" offset="0" stop-opacity="1" />
      <stop stop-color="#ffffff" offset="1" stop-opacity="0" />
    </radialGradient>
    <radialGradient id="defitem55" gradientUnits="userSpaceOnUse" cx="61.2021" cy="74.5726" fx="61.2021" fy="74.5726" r="1.4845" >
      <stop stop-color="#ffffff" offset="0" stop-opacity="1" />
      <stop stop-color="#232323" offset="1" stop-opacity="0" />
    </radialGradient>
    <linearGradient id="defitem56" gradientUnits="userSpaceOnUse" x1="62.9562" y1="73.0949" x2="58.842" y2="74.5507" >
      <stop stop-color="#ffff00" offset="0" stop-opacity="1" />
      <stop stop-color="#ffb66d" offset="1" stop-opacity="1" />
    </linearGradient>
    <linearGradient id="defitem57" gradientUnits="userSpaceOnUse" x1="93.296" y1="88.3254" x2="97.2109" y2="102.7" >
      <stop stop-color="#b3932a" offset="0" stop-opacity="1" />
      <stop stop-color="#e4dbc8" offset="1" stop-opacity="1" />
    </linearGradient>
    <radialGradient id="defitem58" gradientUnits="userSpaceOnUse" cx="121.127" cy="88.8528" fx="121.127" fy="88.8528" r="30.148" >
      <stop stop-color="#ffffff" offset="0" stop-opacity="1" />
      <stop stop-color="#ffffff" offset="1" stop-opacity="0" />
    </radialGradient>
    <radialGradient id="defitem59" gradientUnits="userSpaceOnUse" cx="59.9798" cy="76.7748" fx="59.9798" fy="76.7748" r="1.0181" >
      <stop stop-color="#ffffff" offset="0" stop-opacity="1" />
      <stop stop-color="#232323" offset="1" stop-opacity="0" />
    </radialGradient>
    <radialGradient id="defitem60" gradientUnits="userSpaceOnUse" cx="49.841" cy="38.2922" fx="45.5712" fy="38.9746" r="4.52306" >
      <stop stop-color="#505050" offset="0" stop-opacity="1" />
      <stop stop-color="#000000" offset="1" stop-opacity="1" />
    </radialGradient>
    <linearGradient id="defitem61" gradientUnits="userSpaceOnUse" x1="22.0559" y1="68.2128" x2="18.1228" y2="62.2469" >
      <stop stop-color="#544411" offset="0" stop-opacity="1" />
      <stop stop-color="#b59e69" offset="1" stop-opacity="1" />
    </linearGradient>
    <radialGradient id="defitem62" gradientUnits="userSpaceOnUse" cx="21.2856" cy="65.0859" fx="21.5121" fy="67.3267" r="3.72292" >
      <stop stop-color="#b3932a" offset="0" stop-opacity="1" />
      <stop stop-color="#e4dbc8" offset="1" stop-opacity="1" />
    </radialGradient>
    <radialGradient id="defitem63" gradientUnits="userSpaceOnUse" cx="33.7782" cy="56.6611" fx="33.7782" fy="56.6611" r="2.70215" >
      <stop stop-color="#ffffff" offset="0" stop-opacity="1" />
      <stop stop-color="#ffffff" offset="1" stop-opacity="0" />
    </radialGradient>
    <linearGradient id="defitem64" gradientUnits="userSpaceOnUse" x1="62.7681" y1="22.12" x2="65.8742" y2="26.681" >
      <stop stop-color="#ffffff" offset="0" stop-opacity="1" />
      <stop stop-color="#ffffff" offset="1" stop-opacity="0" />
    </linearGradient>
    <radialGradient id="defitem65" gradientUnits="userSpaceOnUse" cx="63.9654" cy="25.333" fx="63.5552" fy="24.252" r="2.59782" >
      <stop stop-color="#ffffff" offset="0" stop-opacity="1" />
      <stop stop-color="#ffffff" offset="1" stop-opacity="0" />
    </radialGradient>
    <linearGradient id="defitem66" gradientUnits="userSpaceOnUse" x1="31.0165" y1="56.1834" x2="35.0304" y2="52.5451" >
      <stop stop-color="#ffffff" offset="0" stop-opacity="1" />
      <stop stop-color="#ffffff" offset="1" stop-opacity="0" />
    </linearGradient>
    <linearGradient id="defitem67" gradientUnits="userSpaceOnUse" x1="28.4294" y1="60.1176" x2="24.3143" y2="62.0179" >
      <stop stop-color="#000000" offset="0" stop-opacity="1" />
      <stop stop-color="#000000" offset="1" stop-opacity="0" />
    </linearGradient>
    <radialGradient id="defitem68" gradientUnits="userSpaceOnUse" cx="27.1176" cy="59.1637" fx="26.7322" fy="58.1543" r="2.42774" >
      <stop stop-color="#ffffff" offset="0" stop-opacity="1" />
      <stop stop-color="#ffffff" offset="1" stop-opacity="0" />
    </radialGradient>
    <radialGradient id="defitem69" gradientUnits="userSpaceOnUse" cx="28.8542" cy="57.5837" fx="28.4451" fy="56.6281" r="2.47034" >
      <stop stop-color="#ffffff" offset="0" stop-opacity="1" />
      <stop stop-color="#ffffff" offset="1" stop-opacity="0" />
    </radialGradient>
    <radialGradient id="defitem70" gradientUnits="userSpaceOnUse" cx="30.6123" cy="55.9832" fx="30.4806" fy="55.2526" r="2.55526" >
      <stop stop-color="#ffffff" offset="0" stop-opacity="1" />
      <stop stop-color="#ffffff" offset="1" stop-opacity="0" />
    </radialGradient>
    <radialGradient id="defitem71" gradientUnits="userSpaceOnUse" cx="32.3646" cy="54.3891" fx="32.2931" fy="53.8849" r="2.59745" >
      <stop stop-color="#ffffff" offset="0" stop-opacity="1" />
      <stop stop-color="#ffffff" offset="1" stop-opacity="0" />
    </radialGradient>
    <linearGradient id="defitem72" gradientUnits="userSpaceOnUse" x1="34.0181" y1="63.4177" x2="31.1496" y2="57.2081" >
      <stop stop-color="#c3c3c3" offset="0" stop-opacity="1" />
      <stop stop-color="#757575" offset="1" stop-opacity="1" />
    </linearGradient>
  </defs>
  <g id="Layer">
    <g id="Layer">
      <g id="g3658">
        <g id="sombra">
          <path id="path1563" fill="url(#defitem0)" stroke-width="0" stroke-linecap="round" stroke-linejoin="round" d="M128 122.802C128 125.667 99.3468 127.99 64.0002 127.99C28.6539 127.99 0.000171 125.667 0.000171 122.802C0.000171 119.937 28.6539 117.614 64.0002 117.614C99.3468 117.614 128 119.937 128 122.802L128 122.802Z"  />
          <path id="path3251" fill="url(#defitem1)" stroke-width="0" stroke-linecap="round" stroke-linejoin="round" d="M128 122.802L0.00017 122.802C0.00017 125.673 28.6539 128 64.0002 128C99.3468 128 128 125.673 128 122.802L128 122.802Z"  />
          <path id="path2455" fill="url(#defitem2)" stroke-width="0" stroke-linecap="round" stroke-linejoin="round" d="M128 122.802L0.00017 122.802C0.00017 119.697 28.6539 117.18 64.0002 117.18C99.3468 117.18 128 119.697 128 122.802L128 122.802Z"  />
          <path id="path2440" fill="#ffffff" fill-opacity="0.5" stroke-width="0" stroke-linecap="round" stroke-linejoin="round" d="M64 117.184C29.7583 117.184 1.77662 119.526 0.0625 122.496C0.000125 122.59 0 122.714 0 122.809C0 122.988 0.094004 123.134 0.3125 123.309C0.425013 123.402 0.546842 123.499 0.71875 123.59C1.85178 124.191 4.27039 124.763 7.71875 125.278C9.68924 125.572 11.9852 125.833 14.5938 126.09C18.5066 126.474 23.1115 126.81 28.2188 127.09C33.326 127.37 38.9567 127.594 44.9688 127.746C50.9808 127.898 57.3726 127.996 64 127.996C70.6275 127.996 77.0192 127.898 83.0313 127.746C89.0433 127.594 94.6741 127.37 99.7813 127.09C104.888 126.81 109.462 126.474 113.375 126.09C115.984 125.833 118.311 125.572 120.281 125.278C123.73 124.763 126.117 124.191 127.25 123.59C127.422 123.499 127.544 123.402 127.656 123.309C127.766 123.222 127.851 123.147 127.906 123.059C127.962 122.97 128 122.898 128 122.809C128 122.714 127.969 122.59 127.906 122.496C126.192 119.526 98.242 117.184 64 117.184Z"  />
        </g>
      </g>
      <path id="path160" fill="none" stroke="#000000" stroke-width="4" stroke-linecap="round" stroke-linejoin="round" d="M6.38307 112.886C4.95906 112.886 3.80335 111.73 3.80335 110.306L3.80335 21.165C3.80335 19.741 4.95906 18.585 6.38307 18.585L119.772 18.585C121.196 18.585 122.351 19.741 122.351 21.165L122.351 110.306C122.351 111.73 121.196 112.886 119.772 112.886L6.38307 112.886Z"  />
      <g id="g2492">
        <path id="path163" fill="none" stroke="#000000" stroke-opacity="0.15" stroke-width="2.00111" stroke-linecap="round" stroke-linejoin="round" d="M4.86104 114.679C3.37563 114.679 2.17009 113.451 2.17009 111.937L2.17009 17.203C2.17009 15.69 3.37563 14.461 4.86104 14.461L123.139 14.461C124.624 14.461 125.83 15.69 125.83 17.203L125.83 111.937C125.83 113.451 124.624 114.679 123.139 114.679L4.86104 114.679Z"  />
        <path id="path165" fill="url(#defitem3)" stroke-width="2.07707" stroke-linecap="round" stroke-linejoin="round" d="M4.38033 114.85C3.20203 114.85 2.24573 113.831 2.24573 112.576L2.24573 16.854C2.24573 15.599 3.20203 14.581 4.38033 14.581L123.605 14.581C124.784 14.581 125.74 15.599 125.74 16.854L125.74 112.576C125.74 113.831 124.784 114.85 123.605 114.85L4.38033 114.85Z"  />
        <path id="path167" fill="url(#defitem4)" stroke-width="0.906947" stroke-linecap="round" stroke-linejoin="round" d="M4.86104 114.823C3.37563 114.823 2.17009 113.595 2.17009 112.082L2.17009 17.347C2.17009 15.834 3.37563 14.606 4.86104 14.606L123.139 14.606C124.624 14.606 125.83 15.834 125.83 17.347L125.83 112.082C125.83 113.595 124.624 114.823 123.139 114.823L4.86104 114.823Z"  />
        <path id="path169" fill="#ffffff" stroke-width="0.704926" stroke-linecap="round" stroke-linejoin="round" d="M11.7597 108.909C9.33412 108.909 7.36548 106.845 7.36548 104.303L7.36548 41.4924C7.36548 38.9495 9.33412 36.8857 11.7597 36.8857L114.952 36.8857C117.377 36.8857 119.346 38.9495 119.346 41.4924L119.346 104.303C119.346 106.845 117.377 108.909 114.952 108.909L11.7597 108.909Z"  />
      </g>
      <g id="g160">
        <g id="botons">
          <path id="path2958" fill="url(#defitem5)" d="M56.4478 23.829L56.4478 24.139L125.722 24.139L125.722 23.829L56.4478 23.829Z"  fill-rule="evenodd" />
          <path id="path2960" fill="url(#defitem6)" d="M56.4478 24.139L56.4478 24.448L125.722 24.448L125.722 24.139L56.4478 24.139Z"  fill-rule="evenodd" />
          <path id="path2962" fill="url(#defitem7)" stroke-width="4.42661" d="M119.546 24.203C119.546 27.454 116.945 30.0899 113.736 30.0899C110.528 30.0899 107.927 27.454 107.927 24.203C107.927 20.951 110.528 18.316 113.736 18.316C116.945 18.316 119.546 20.951 119.546 24.203Z"  />
          <path id="path2964" fill="#bf0000" stroke-width="3.89462" d="M118.849 24.243C118.849 27.104 116.56 29.423 113.737 29.423C110.914 29.423 108.625 27.104 108.625 24.243C108.625 21.383 110.914 19.064 113.737 19.064C116.56 19.064 118.849 21.383 118.849 24.243Z"  />
          <path id="path2966" fill="url(#defitem8)" stroke-width="2.9195" d="M117.838 22.778C117.838 24.699 116.001 26.257 113.736 26.257C111.471 26.257 109.635 24.699 109.635 22.778C109.635 20.857 111.471 19.299 113.736 19.299C116.001 19.299 117.838 20.857 117.838 22.778Z"  />
          <path id="path2968" fill="url(#defitem9)" stroke-width="2.74901" d="M117.598 22.458C117.598 24.267 115.869 25.733 113.736 25.733C111.603 25.733 109.874 24.267 109.874 22.458C109.874 20.648 111.603 19.182 113.736 19.182C115.869 19.182 117.598 20.648 117.598 22.458Z"  />
          <path id="path2972" fill="url(#defitem10)" stroke-width="4.42661" d="M106.073 24.203C106.073 27.454 103.472 30.0899 100.263 30.0899C97.0548 30.0899 94.4536 27.454 94.4536 24.203C94.4536 20.951 97.0548 18.316 100.263 18.316C103.472 18.316 106.073 20.951 106.073 24.203Z"  />
          <path id="path2974" fill="url(#defitem11)" stroke-width="3.89462" d="M105.376 24.243C105.376 27.104 103.088 29.423 100.265 29.423C97.4416 29.423 95.153 27.104 95.153 24.243C95.153 21.383 97.4416 19.064 100.265 19.064C103.088 19.064 105.376 21.383 105.376 24.243Z"  />
          <path id="path2976" fill="url(#defitem12)" stroke-width="2.9195" d="M104.366 22.778C104.366 24.699 102.529 26.257 100.264 26.257C97.999 26.257 96.1627 24.699 96.1627 22.778C96.1627 20.857 97.999 19.299 100.264 19.299C102.529 19.299 104.366 20.857 104.366 22.778Z"  />
          <path id="path2978" fill="url(#defitem13)" stroke-width="2.74901" d="M104.126 22.458C104.126 24.267 102.396 25.733 100.264 25.733C98.1307 25.733 96.4016 24.267 96.4016 22.458C96.4016 20.648 98.1307 19.182 100.264 19.182C102.396 19.182 104.126 20.648 104.126 22.458Z"  />
          <path id="path2980" fill="url(#defitem14)" stroke-width="4.42661" d="M91.9444 24.203C91.9444 27.454 89.3432 30.0899 86.1345 30.0899C82.9258 30.0899 80.3246 27.454 80.3246 24.203C80.3246 20.951 82.9258 18.316 86.1345 18.316C89.3432 18.316 91.9444 20.951 91.9444 24.203Z"  />
          <path id="path2982" fill="url(#defitem15)" stroke-width="3.89462" d="M91.2471 24.243C91.2471 27.104 88.9585 29.423 86.1354 29.423C83.3123 29.423 81.0237 27.104 81.0237 24.243C81.0237 21.383 83.3123 19.064 86.1354 19.064C88.9585 19.064 91.2471 21.383 91.2471 24.243Z"  />
          <path id="path2984" fill="url(#defitem16)" stroke-width="2.9195" d="M90.2362 22.778C90.2362 24.699 88.3999 26.257 86.1347 26.257C83.8695 26.257 82.0332 24.699 82.0332 22.778C82.0332 20.857 83.8695 19.299 86.1347 19.299C88.3999 19.299 90.2362 20.857 90.2362 22.778Z"  />
          <path id="path2986" fill="url(#defitem17)" stroke-width="2.74901" d="M89.9961 22.458C89.9961 24.267 88.267 25.733 86.1342 25.733C84.0013 25.733 82.2722 24.267 82.2722 22.458C82.2722 20.648 84.0013 19.182 86.1342 19.182C88.267 19.182 89.9961 20.648 89.9961 22.458Z"  />
          <path id="path2397" fill="url(#defitem18)" d="M38.0996 23.829L38.0996 24.139L2.5751 24.139L2.5751 23.829L38.0996 23.829Z"  fill-rule="evenodd" />
          <path id="path2399" fill="url(#defitem19)" d="M38.0996 24.139L38.0996 24.448L2.5751 24.448L2.5751 24.139L38.0996 24.139Z"  fill-rule="evenodd" />
          <path id="path2409" fill="url(#defitem20)" stroke-width="4.42661" d="M17.4504 24.203C17.4504 27.454 14.8492 30.0899 11.6405 30.0899C8.4318 30.0899 5.83059 27.454 5.83059 24.203C5.83059 20.951 8.4318 18.316 11.6405 18.316C14.8492 18.316 17.4504 20.951 17.4504 24.203Z"  />
          <path id="path2411" fill="url(#defitem21)" stroke-width="3.89462" d="M16.7537 24.243C16.7537 27.104 14.4651 29.423 11.642 29.423C8.81893 29.423 6.53034 27.104 6.53034 24.243C6.53034 21.383 8.81893 19.064 11.642 19.064C14.4651 19.064 16.7537 21.383 16.7537 24.243Z"  />
          <path id="path2413" fill="url(#defitem22)" stroke-width="2.9195" d="M15.743 22.778C15.743 24.699 13.9067 26.257 11.6415 26.257C9.37633 26.257 7.54 24.699 7.54 22.778C7.54 20.857 9.37633 19.299 11.6415 19.299C13.9067 19.299 15.743 20.857 15.743 22.778Z"  />
          <path id="path2415" fill="url(#defitem23)" stroke-width="2.74901" d="M15.5028 22.458C15.5028 24.267 13.7737 25.733 11.6409 25.733C9.50801 25.733 7.77894 24.267 7.77894 22.458C7.77894 20.648 9.50801 19.182 11.6409 19.182C13.7737 19.182 15.5028 20.648 15.5028 22.458Z"  />
        </g>
      </g>
    </g>
    <g id="g12414">
      <path id="path11504" fill="#0087cc" stroke-width="0.230878" stroke-linecap="round" stroke-linejoin="round" d="M69.1712 106.997C66.8551 106.997 64.9752 105.636 64.9752 103.96L64.9752 78.0099C64.9752 76.3335 66.8551 74.973 69.1712 74.973L111.492 74.973C113.808 74.973 115.689 76.3335 115.689 78.0099L115.689 103.96C115.689 105.636 113.808 106.997 111.492 106.997L69.1712 106.997Z"  />
      <path id="path11506" fill="#ffffff" stroke-width="0.230878" stroke-linecap="round" stroke-linejoin="round" d="M69.6083 104.328C68.5024 104.328 67.6049 103.729 67.6049 102.992L67.6049 78.9773C67.6049 78.24 68.5024 77.6416 69.6083 77.6416L111.055 77.6416C112.161 77.6416 113.058 78.24 113.058 78.9773L113.058 102.992C113.058 103.729 112.161 104.328 111.055 104.328L69.6083 104.328Z"  />
      <path id="path11509" fill="#0087cc" stroke-width="0.230878" stroke-linecap="round" stroke-linejoin="round" d="M69.1712 72.2546C66.8551 72.2546 64.9752 70.894 64.9752 69.2175L64.9752 43.2676C64.9752 41.5913 66.8551 40.2307 69.1712 40.2307L111.492 40.2307C113.808 40.2307 115.689 41.5913 115.689 43.2676L115.689 69.2175C115.689 70.894 113.808 72.2546 111.492 72.2546L69.1712 72.2546Z"  />
      <path id="path11511" fill="#ffffff" stroke-width="0.230878" stroke-linecap="round" stroke-linejoin="round" d="M69.6083 69.5859C68.5024 69.5859 67.6049 68.9875 67.6049 68.2503L67.6049 44.235C67.6049 43.4977 68.5024 42.8993 69.6083 42.8993L111.055 42.8993C112.161 42.8993 113.058 43.4977 113.058 44.235L113.058 68.2503C113.058 68.9875 112.161 69.5859 111.055 69.5859L69.6083 69.5859Z"  />
      <path id="path11515" fill="#0087cc" stroke-width="0.230878" stroke-linecap="round" stroke-linejoin="round" d="M13.7606 106.997C11.4444 106.997 9.5646 105.636 9.5646 103.96L9.5646 78.0099C9.5646 76.3335 11.4444 74.973 13.7606 74.973L56.0818 74.973C58.3979 74.973 60.2777 76.3335 60.2777 78.0099L60.2777 103.96C60.2777 105.636 58.3979 106.997 56.0818 106.997L13.7606 106.997Z"  />
      <path id="path11517" fill="#ffffff" stroke-width="0.230878" stroke-linecap="round" stroke-linejoin="round" d="M14.1977 104.328C13.0918 104.328 12.1942 103.729 12.1942 102.992L12.1942 78.9773C12.1942 78.24 13.0918 77.6416 14.1977 77.6416L55.6446 77.6416C56.7506 77.6416 57.6481 78.24 57.6481 78.9773L57.6481 102.992C57.6481 103.729 56.7506 104.328 55.6446 104.328L14.1977 104.328Z"  />
      <path id="path11520" fill="#0087cc" stroke-width="0.230878" stroke-linecap="round" stroke-linejoin="round" d="M13.7606 72.2546C11.4444 72.2546 9.5646 70.894 9.5646 69.2175L9.5646 43.2676C9.5646 41.5913 11.4444 40.2307 13.7606 40.2307L56.0818 40.2307C58.3979 40.2307 60.2777 41.5913 60.2777 43.2676L60.2777 69.2175C60.2777 70.894 58.3979 72.2546 56.0818 72.2546L13.7606 72.2546Z"  />
      <path id="path11522" fill="#ffffff" stroke-width="0.230878" stroke-linecap="round" stroke-linejoin="round" d="M14.1977 69.5859C13.0918 69.5859 12.1942 68.9875 12.1942 68.2503L12.1942 44.235C12.1942 43.4977 13.0918 42.8993 14.1977 42.8993L55.6446 42.8993C56.7506 42.8993 57.6481 43.4977 57.6481 44.235L57.6481 68.2503C57.6481 68.9875 56.7506 69.5859 55.6446 69.5859L14.1977 69.5859Z"  />
    </g>
    <g id="g5752">
      <path id="path5754" fill="#000000" stroke-width="0.832339" d=""  />
    </g>
    <path id="path5756" fill="#000000" d=""  />
    <g id="g5758">
    </g>
    <g id="g5760">
    </g>
    <g id="g5762">
    </g>
    <g id="g5764">
      <path id="path5766" fill="#000000" stroke-width="0.832339" d=""  />
    </g>
    <path id="path5768" fill="#000000" d=""  />
    <g id="g5770">
    </g>
    <g id="g5772">
    </g>
    <g id="g5774">
    </g>
    <path id="path5776" fill="#000000" d=""  />
    <g id="g5778">
      <path id="path5780" fill="#000000" stroke-width="0.832339" d=""  />
    </g>
    <path id="path5782" fill="#000000" d=""  />
    <g id="g5784">
    </g>
    <g id="g5786">
    </g>
    <g id="g5788">
    </g>
    <path id="path5790" fill="#000000" d=""  />
    <g id="g5792">
    </g>
    <g id="g5794">
    </g>
    <g id="g5796">
    </g>
    <g id="g5798">
    </g>
    <g id="g5800">
    </g>
    <g id="g5802">
    </g>
    <g id="g5804">
      <path id="path5806" fill="#000000" stroke-width="0.832339" d=""  />
    </g>
    <path id="path5808" fill="#000000" d=""  />
    <g id="g5810">
    </g>
    <g id="g5812">
    </g>
    <g id="g5814">
    </g>
    <path id="path5816" fill="#000000" d=""  />
    <g id="g5818">
      <path id="path5820" fill="#000000" stroke-width="0.832339" d=""  />
    </g>
    <path id="path5822" fill="#000000" d=""  />
    <g id="g5824">
    </g>
    <g id="g5826">
    </g>
    <g id="g5828">
    </g>
    <path id="path5830" fill="#000000" d=""  />
    <g id="g5832">
    </g>
    <g id="g5834">
    </g>
    <g id="g5836">
    </g>
    <g id="g5838">
    </g>
    <g id="g5840">
    </g>
    <g id="g5842">
    </g>
    <g id="g5678">
      <path id="path5680" fill="#000000" stroke-width="1.10298" d=""  />
    </g>
    <path id="path5682" fill="#000000" d=""  />
    <g id="g5684">
    </g>
    <g id="g5686">
    </g>
    <g id="g5688">
    </g>
    <g id="g11264">
      <path id="path11266" fill="#000000" stroke-width="1.10298" d=""  />
    </g>
    <path id="path11268" fill="#000000" d=""  />
    <g id="g11270">
    </g>
    <g id="g11272">
    </g>
    <g id="g11274">
    </g>
    <path id="path5696" fill="#000000" d=""  />
    <g id="g5698">
      <path id="path5700" fill="#000000" stroke-width="1.10298" d=""  />
    </g>
    <path id="path5702" fill="#000000" d=""  />
    <g id="g5704">
    </g>
    <g id="g5706">
    </g>
    <g id="g5708">
    </g>
    <path id="path5710" fill="#000000" d=""  />
    <g id="g5712">
    </g>
    <g id="g5714">
    </g>
    <g id="g5716">
    </g>
    <g id="g5718">
    </g>
    <g id="g5720">
    </g>
    <g id="g5722">
    </g>
    <g id="g12948">
      <path id="path12950" fill="#000000" stroke-width="1.10298" d=""  />
    </g>
    <path id="path12952" fill="#000000" d=""  />
    <g id="g12954">
    </g>
    <g id="g12956">
    </g>
    <g id="g12958">
    </g>
    <path id="path12983" fill="#000000" d=""  />
    <g id="g12985">
      <path id="path12987" fill="#000000" stroke-width="1.10298" d=""  />
    </g>
    <path id="path12989" fill="#000000" d=""  />
    <g id="g12991">
    </g>
    <g id="g12993">
    </g>
    <g id="g12995">
    </g>
    <path id="path12997" fill="#000000" d=""  />
    <g id="g13007">
    </g>
    <g id="g13009">
    </g>
    <g id="g13021">
    </g>
    <g id="g13023">
    </g>
    <g id="g13025">
    </g>
    <g id="g13027">
    </g>
    <g id="layer1">
      <path id="path3945" fill="#000000" d=""  />
    </g>
    <path id="path3081" fill="#000000" d=""  />
    <g id="layer2">
    </g>
    <g id="layer3">
    </g>
    <g id="layer4">
    </g>
    <path id="path2167" fill="#000000" d=""  />
    <g id="g3036">
      <path id="path4922" fill="#000000" d=""  />
    </g>
    <path id="path4924" fill="#000000" d=""  />
    <g id="g4926">
    </g>
    <g id="g4928">
    </g>
    <g id="g4930">
    </g>
    <path id="path10095" fill="#000000" d=""  />
    <path id="path2191" fill="#ffffff" fill-opacity="0.756881" stroke-width="0.5" stroke-linecap="round" stroke-linejoin="round" d="M632.964 -76.768L632.964 -79.562L632.964 -76.768Z"  />
    <path id="path2985" fill="#ffffff" fill-opacity="0.756881" stroke-width="0.5" stroke-linecap="round" stroke-linejoin="round" d="M475.956 -146.403L475.956 -149.198L475.956 -146.403Z"  />
    <path id="path3206" fill="#ffffff" fill-opacity="0.756881" stroke-width="0.5" stroke-linecap="round" stroke-linejoin="round" d="M356.454 -233.033L356.454 -235.828L356.454 -233.033Z"  />
    <g id="g2878">
    </g>
    <g id="g4938">
    </g>
    <path id="path3946" fill="#ffffff" fill-opacity="0.756881" stroke-width="0.5" stroke-linecap="round" stroke-linejoin="round" d="M603.045 -167.278L603.045 -170.073L603.045 -167.278Z"  />
    <path id="path1561" fill="#ffffff" fill-opacity="0.756881" stroke-width="0.5" stroke-linecap="round" stroke-linejoin="round" d="M510.421 -93.384L510.421 -94.911L510.421 -93.384Z"  />
    <path id="path7110" fill="#ffffff" stroke-width="3.632" stroke-linecap="round" stroke-linejoin="round" d="M452.936 -149.984L452.936 -149.984L453.936 -149.984L453.936 -149.984L452.936 -149.984Z"  />
    <path id="path7112" fill="#ffffff" stroke-width="3.632" stroke-linecap="round" stroke-linejoin="round" d="M417.809 -177.512L417.809 -177.512L418.809 -177.512L418.809 -177.512L417.809 -177.512Z"  />
    <path id="path2494" fill="#ffffff" fill-opacity="0.756881" stroke-width="0.5" stroke-linecap="round" stroke-linejoin="round" d="M258.872 -250.728L258.872 -253.522L258.872 -250.728Z"  />
    <g id="g4640">
    </g>
    <g id="g4646">
    </g>
    <g id="g4730">
    </g>
    <g id="g4748">
    </g>
    <path id="path4226" fill="#ffffff" fill-opacity="0.756881" stroke-width="0.5" stroke-linecap="round" stroke-linejoin="round" d="M528.086 36.5487L528.086 33.754L528.086 36.5487Z"  />
    <g id="goma">
      <path id="path5306" fill="#878787" stroke-width="0.0824135" stroke-linecap="round" stroke-linejoin="round" d="M73.2052 46.1633L63.0946 46.2253L63.2171 66.1582L73.3272 66.0965L73.2052 46.1633Z"  />
      <path id="path5308" fill="#bababa" stroke-width="0.824135" stroke-linecap="round" stroke-linejoin="round" d="M118.495 48.6563L115.096 45.2982L115.13 66.3308L118.76 62.6554L118.495 48.6563Z"  />
      <path id="path5310" fill="#4b4b4b" stroke-width="0.824135" stroke-linecap="round" stroke-linejoin="round" d="M115.207 45.3691L118.552 48.6742L114.461 48.5328L114.375 45.4075L115.207 45.3691Z"  />
      <path id="path5312" fill="url(#defitem24)" stroke-width="0.824135" stroke-linecap="round" stroke-linejoin="round" d="M118.503 48.6253L115.137 45.2991L115.135 66.1656L118.744 62.5132L118.503 48.6253Z"  />
      <path id="path5314" fill="url(#defitem25)" stroke-width="0.0824135" stroke-linecap="round" stroke-linejoin="round" d="M73.5352 46.1673L63.5408 46.2216L63.6322 65.644L73.6269 65.5894L73.5352 46.1673Z"  />
      <path id="path5316" fill="url(#defitem26)" stroke-width="0.0824135" stroke-linecap="round" stroke-linejoin="round" d="M115.148 52.5454L73.0257 52.8033L73.0657 59.3279L115.141 59.0653L115.181 66.3234L115.233 66.3231L115.148 52.5454Z"  />
      <path id="path5318" fill="url(#defitem27)" stroke-width="0.0824135" stroke-linecap="round" stroke-linejoin="round" d="M114.515 46.009L117.468 48.6599L118.492 48.6288L115.098 45.3792L114.515 46.009Z"  />
      <path id="path5320" fill="url(#defitem28)" stroke-width="0.0824135" stroke-linecap="round" stroke-linejoin="round" d="M115.104 45.2622L72.9812 45.5199L73.0257 52.8033L115.148 52.5454L115.104 45.2622Z"  />
      <path id="path5322" fill="#ffffff" stroke-width="0.824135" stroke-linecap="round" stroke-linejoin="round" d="M114.616 62.9312L114.535 66.0244L115.366 66.0527L118.672 62.7068L114.616 62.9312Z"  />
      <path id="path5324" fill="url(#defitem29)" stroke-width="0.0824135" stroke-linecap="round" stroke-linejoin="round" d="M114.453 65.3307L117.483 62.7736L118.668 62.6846L115.192 66.1002L114.453 65.3307Z"  />
      <path id="path5326" fill="url(#defitem30)" stroke-width="0.0824135" stroke-linecap="round" stroke-linejoin="round" d="M115.14 59.0675L73.018 59.3254L73.0627 66.6088L115.184 66.3508L115.14 59.0675Z"  />
      <path id="path5328" fill="url(#defitem31)" stroke-width="0.0824135" stroke-linecap="round" stroke-linejoin="round" d="M115.085 45.28L72.9638 45.5377L73.0072 66.6945L115.129 66.4368L115.085 45.28Z"  />
      <path id="path5330" fill="#ffffff" stroke-width="0.0824135" stroke-linecap="round" stroke-linejoin="round" d="M115.048 45.5192L73.0813 45.9758L73.0764 46.2696L114.668 46.0078L115.124 66.3173L115.142 66.3029L115.1 52.5071L115.048 45.5192Z"  />
      <path id="path5332" fill="#eff8ff" stroke-width="0.824135" d="M107.806 65.2591C107.643 65.2602 107.512 65.2273 107.413 65.1602C107.314 65.0928 107.264 65.0033 107.263 64.8917C107.262 64.7794 107.311 64.6894 107.409 64.6217C107.508 64.5536 107.641 64.519 107.806 64.518C107.972 64.517 108.105 64.5496 108.205 64.6159C108.305 64.6824 108.355 64.7716 108.356 64.8835C108.357 64.9979 108.308 65.0887 108.209 65.1564C108.11 65.2239 107.976 65.258 107.806 65.2591M107.807 65.1844C107.927 65.1835 108.019 65.1571 108.084 65.1048C108.149 65.0522 108.181 64.9784 108.18 64.8838C108.179 64.7918 108.146 64.7203 108.079 64.6688C108.014 64.6174 107.923 64.5921 107.807 64.5928C107.691 64.5936 107.6 64.6203 107.535 64.6728C107.47 64.7252 107.438 64.7974 107.439 64.89C107.44 64.9823 107.473 65.0547 107.538 65.1068C107.603 65.1594 107.693 65.1851 107.807 65.1844M108.454 65.2374L108.839 64.8805L108.467 64.5314L108.663 64.53L108.946 64.7944L109.239 64.5262L109.396 64.5252L109.025 64.8686L109.411 65.2311L109.215 65.2325L108.916 64.9543L108.611 65.2364L108.454 65.2374M109.859 65.2282L109.857 64.9334L109.463 64.5248L109.653 64.5235L109.959 64.8402L110.283 64.5193L110.437 64.5184L110.023 64.9304L110.025 65.227L109.859 65.2282M111.493 65.1984C111.351 65.2239 111.228 65.237 111.122 65.2376C110.937 65.2387 110.794 65.2078 110.694 65.1444C110.594 65.0813 110.544 64.9901 110.543 64.8707C110.542 64.7537 110.591 64.6625 110.691 64.597C110.791 64.5311 110.932 64.4976 111.114 64.4963C111.233 64.4956 111.357 64.5054 111.485 64.526L111.486 64.6184C111.325 64.5864 111.201 64.5707 111.115 64.5712C110.989 64.5722 110.891 64.5986 110.821 64.651C110.752 64.7032 110.718 64.7764 110.719 64.8706C110.72 64.9638 110.757 65.0359 110.833 65.0873C110.908 65.1385 111.013 65.1634 111.148 65.1625C111.203 65.1622 111.263 65.156 111.327 65.1437L111.325 64.9139L111.49 64.9127L111.493 65.1984M111.783 65.2157L111.778 64.5098L112.431 64.5054L112.431 64.5802L111.944 64.5836L111.946 64.8101L112.354 64.8075L112.355 64.8814L111.947 64.884L111.949 65.1397L112.47 65.1363L112.471 65.2112L111.783 65.2157M112.662 65.2099L112.656 64.5039L112.819 64.5029L113.412 65.0443L113.407 64.4989L113.55 64.4981L113.556 65.2042L113.394 65.2052L112.799 64.6637L112.804 65.2089L112.662 65.2099"  />
      <path id="path5334" fill="#00142d" stroke-width="0.0824135" stroke-linecap="round" stroke-linejoin="round" d="M72.9029 66.5949L114.146 66.3232L114.116 66.2774L73.1878 66.3211L73.0011 47.315L72.9831 47.3294L72.9029 66.5949Z"  />
      <path id="path5336" fill="#9c0e0e" stroke-width="0.824135" d="M80.8603 57.4885L80.8407 54.2918L84.1253 54.2717L84.1274 54.6108L81.677 54.6258L81.6833 55.6517L83.7365 55.6391L83.7385 55.974L81.6854 55.9865L81.6926 57.1442L84.3135 57.1283L84.3156 57.4674L80.8603 57.4885M85.2767 57.4615L85.2571 54.2647L87.0363 54.2539C87.6003 54.2504 88.0323 54.3154 88.3324 54.4491C88.635 54.5824 88.7871 54.7782 88.7887 55.0359C88.7913 55.462 88.3974 55.767 87.6066 55.9503L89.5778 57.4351L88.5532 57.4414L86.8728 56.0996L86.0945 56.1044L86.1028 57.4565L85.2767 57.4615M86.0925 55.7651L86.3625 55.7634C87.411 55.757 87.9339 55.53 87.9311 55.0821C87.9291 54.7524 87.4887 54.5902 86.6095 54.5956L86.0853 54.5988L86.0925 55.7651M93.3949 56.1893L92.3857 54.8173L91.3893 56.2016L93.3949 56.1893M94.2841 57.4064L93.6393 56.5247L91.1491 56.54L90.5071 57.4294L89.7327 57.4342L92.0445 54.2232L92.8706 54.2182L95.1856 57.4009L94.2841 57.4064M97.1838 57.4685C96.7894 57.4709 96.2847 57.4273 95.6698 57.3375L95.6671 56.8882C96.33 57.0511 96.8746 57.1314 97.3009 57.1288C97.6291 57.1268 97.8924 57.0783 98.0905 56.9836C98.291 56.8885 98.3909 56.7649 98.3899 56.6123C98.3892 56.487 98.3224 56.3809 98.1895 56.2938C98.0591 56.2068 97.8176 56.1103 97.4647 56.0044L97.059 55.8794C96.5575 55.7272 96.2031 55.5833 95.9957 55.4476C95.791 55.3106 95.6882 55.1508 95.6871 54.9677C95.6856 54.7216 95.8483 54.5182 96.1758 54.3579C96.5032 54.1959 96.921 54.1134 97.4293 54.1103C97.8821 54.1075 98.3602 54.1458 98.8637 54.2247L98.8662 54.6393C98.2459 54.5106 97.7836 54.4474 97.4791 54.4492C97.1905 54.451 96.9523 54.494 96.765 54.5788C96.5775 54.6635 96.4841 54.7692 96.4849 54.8959C96.4856 55.0026 96.5549 55.0964 96.6932 55.1776C96.8314 55.2587 97.0835 55.3551 97.4495 55.4666L97.8714 55.5937C98.3808 55.7476 98.7364 55.8938 98.9385 56.0323C99.1405 56.1706 99.2421 56.3378 99.2433 56.5335C99.245 56.8115 99.0571 57.0359 98.6795 57.2067C98.3046 57.3774 97.806 57.4648 97.1838 57.4685M100.416 57.3689L100.397 54.1721L103.681 54.1519L103.683 54.4911L101.233 54.5061L101.239 55.532L103.292 55.5194L103.294 55.8544L101.241 55.8669L101.248 57.0246L103.869 57.0086L103.871 57.3477L100.416 57.3689M104.832 57.3418L104.813 54.1451L106.592 54.1342C107.156 54.1307 107.588 54.1958 107.888 54.3294C108.191 54.4627 108.343 54.6585 108.344 54.9162C108.347 55.3424 107.953 55.6473 107.163 55.8307L109.133 57.3155L108.109 57.3218L106.429 55.9799L105.65 55.9847L105.658 57.3367L104.832 57.3418M105.648 55.6454L105.918 55.6438C106.967 55.6373 107.49 55.4103 107.487 54.9624C107.485 54.6327 107.044 54.4705 106.165 54.4759L105.641 54.4791L105.648 55.6454"  />
      <path id="path5338" fill="url(#defitem32)" stroke-width="0.0824135" stroke-linecap="round" stroke-linejoin="round" d="M72.9118 65.012L63.1627 65.0658L63.1688 66.1482L72.9855 66.0652L72.9118 65.012Z"  />
      <path id="path5340" fill="url(#defitem33)" stroke-width="0.0824135" stroke-linecap="round" stroke-linejoin="round" d="M64.0686 66.0202L63.8587 46.1746L63.0258 46.2076L63.2111 66.1089L64.0686 66.0202Z"  />
      <path id="path5342" fill="url(#defitem34)" stroke-width="0.0824135" stroke-linecap="round" stroke-linejoin="round" d="M117.349 48.6728L117.609 62.7063L118.726 62.6713L118.49 48.5823L117.349 48.6728Z"  />
      <path id="path5344" fill="url(#defitem35)" stroke-width="3.29652" stroke-linecap="round" stroke-linejoin="round" d="M115.746 45.9019L115.656 65.7653L115.138 66.3661C115.138 66.3661 114.574 66.365 114.539 66.383L114.4 45.3081L115.139 45.2222L115.746 45.9019Z"  />
      <path id="path5346" fill="url(#defitem36)" stroke-width="0.0824135" stroke-linecap="round" stroke-linejoin="round" d="M73.0074 46.2086L72.2966 46.213L72.4783 66.1286L73.1678 66.1242L73.0074 46.2086Z"  />
    </g>
    <g id="clip">
      <path id="path6274" fill="#313131" fill-opacity="0.23" stroke-width="1.1972" d="M23.4536 82.501L47.0276 82.317C51.3604 82.2811 54.9133 85.7793 54.9481 90.113C54.9823 94.4447 51.4843 97.9979 47.152 98.0313L29.2311 98.1738C25.7234 98.2023 22.8472 95.3691 22.8196 91.8627C22.7918 88.354 25.6229 85.4788 29.1305 85.4503L44.4319 85.3308C44.6387 85.3296 44.8072 85.4937 44.8094 85.7015L44.8211 87.1981C44.8222 87.4063 44.6563 87.5746 44.4495 87.5757L29.1485 87.6951C26.8789 87.7138 25.0469 89.5745 25.0645 91.8443C25.0826 94.1141 26.9438 95.9451 29.2132 95.9289L47.1344 95.7863C50.2293 95.7627 52.7272 93.2243 52.7032 90.1291C52.6781 87.0344 50.1406 84.5358 47.0452 84.5619L23.4713 84.7459C19.5509 84.777 16.3868 87.9934 16.4175 91.9136C16.4484 95.8337 19.663 98.9971 23.5834 98.9661L44.5388 98.8003C44.7456 98.7991 44.9135 98.9654 44.9157 99.1733L44.9274 100.67C44.929 100.876 44.7632 101.044 44.5564 101.045L23.6011 101.211C18.4427 101.252 14.2131 97.0887 14.1724 91.9297C14.1317 86.7729 18.2951 82.5419 23.4536 82.501Z"  />
      <g id="g6276">
        <path id="path6278" fill="#313131" fill-opacity="0.23" stroke-width="0.374207" d="M23.879 81.8653L47.4536 81.6787C51.7859 81.6454 55.3388 85.1436 55.373 89.4752C55.4078 93.809 51.9098 97.3622 47.5776 97.3956L29.6565 97.5382C26.1487 97.5643 23.2726 94.7335 23.245 91.227C23.2175 87.7183 26.0483 84.8431 29.5562 84.8145L44.858 84.6927C45.0648 84.6915 45.2327 84.8579 45.2349 85.0657L45.2466 86.5624C45.2482 86.7681 45.0824 86.9364 44.875 86.94L29.5739 87.0595C27.3043 87.0781 25.4723 88.9387 25.4901 91.2086C25.5081 93.4784 27.3692 95.3095 29.6386 95.2909L47.56 95.1507C50.6548 95.127 53.1527 92.5884 53.1287 89.4934C53.1036 86.3987 50.5662 83.9001 47.4713 83.9237L23.8967 84.1103C19.9763 84.1413 16.8122 87.3554 16.8432 91.2756C16.8739 95.1958 20.0884 98.3615 24.0087 98.3305L44.9643 98.1647C45.1711 98.1634 45.339 98.3299 45.3406 98.5355L45.3524 100.032C45.3546 100.24 45.1887 100.408 44.9819 100.41L24.0265 100.575C18.8681 100.616 14.6385 96.4531 14.5978 91.294C14.5573 86.1349 18.7208 81.9063 23.879 81.8653Z"  />
        <path id="path6286" fill="url(#defitem37)" stroke-width="0.374207" d="M15.3463 91.2872C15.3071 86.3293 19.2962 82.2758 24.2561 82.236L47.8306 82.0519C51.9641 82.0171 55.341 85.3424 55.373 89.4752C55.4056 93.6102 52.0821 96.9857 47.948 97.0183L29.6157 97.1631C26.3094 97.1904 23.6075 94.5301 23.5816 91.2226C23.5553 87.9174 26.2146 85.215 29.5214 85.1901L45.2349 85.0657L45.2466 86.5624L29.5332 86.6867C27.0571 86.7042 25.0586 88.7356 25.0783 91.2111C25.0978 93.6867 27.1281 95.6863 29.604 95.6664L47.9363 95.5216C51.2378 95.4965 53.9028 92.7896 53.8766 89.4867C53.851 86.1859 51.1433 83.5213 47.8423 83.5485L24.2678 83.7327C20.1415 83.765 16.8105 87.1498 16.8432 91.2756C16.8755 95.4038 20.2596 98.7335 24.3859 98.7012L45.3406 98.5355L45.3524 100.032L24.3979 100.198C19.4377 100.237 15.3855 96.2473 15.3463 91.2872Z"  />
        <path id="path6294" fill="url(#defitem38)" stroke-width="0.374207" d="M25.0843 91.9594C25.0836 91.8962 25.0903 91.8351 25.0921 91.7717C25.2102 94.1608 27.1944 96.059 29.6068 96.0418L47.9363 95.5216C51.1743 95.497 53.7964 93.2651 53.8715 90.0497C53.8739 90.1129 53.882 90.174 53.8825 90.2349C53.9087 93.5379 51.2437 96.2449 47.9421 96.2699L29.6098 96.4149C27.1338 96.4346 25.1036 94.4351 25.0843 91.9594ZM47.8364 82.8002L24.2621 82.9843C19.3646 83.0237 15.4167 86.9752 15.3554 91.8501C15.354 91.7867 15.3497 91.7257 15.3493 91.6625C15.3101 86.7023 19.2992 82.6511 24.2591 82.6113L47.8306 82.0519C51.9641 82.0171 55.3431 85.7179 55.3763 89.8505C55.3774 89.9135 55.3693 89.9749 55.3691 90.0379C55.2362 85.992 51.907 82.7681 47.8364 82.8002ZM29.5244 85.5631L45.2376 85.4389L45.2408 85.814L29.5272 85.9362C26.2836 85.963 23.6698 88.5634 23.5952 91.7855C23.5928 91.7222 23.5848 91.6613 23.5844 91.5979C23.5583 88.2905 26.2176 85.5903 29.5244 85.5631ZM16.8489 92.0239C16.8485 91.9607 16.8558 91.8995 16.8569 91.8385C16.9896 95.8756 20.3254 99.1084 24.3889 99.0765L45.3438 98.9108L45.3465 99.2839L24.3916 99.4495C20.2658 99.4818 16.8815 96.152 16.8489 92.0239Z"  />
        <path id="path6302" fill="url(#defitem39)" stroke-width="0.374207" d="M29.5318 86.499L45.245 86.3747L45.2483 86.75L29.5345 86.8721C27.1218 86.8916 25.1682 88.8209 25.0875 91.2111C25.0848 91.1478 25.0772 91.0868 25.0769 91.0235C25.0572 88.548 27.0558 86.5189 29.5318 86.499Z"  />
        <path id="path6310" fill="url(#defitem40)" stroke-width="0.374207" d="M47.8433 83.734L24.2695 83.9203C20.2061 83.9522 16.9213 87.235 16.8524 91.2756C16.8505 91.2122 16.8422 91.1535 16.8416 91.0903C16.8091 86.962 20.1399 83.5796 24.2665 83.5473L47.8407 83.3608C51.1417 83.3337 53.8494 85.9982 53.8756 89.3012C53.8756 89.3647 53.8686 89.4256 53.8667 89.4868C53.7419 86.2747 51.0814 83.7094 47.8433 83.734Z"  />
        <path id="path6318" fill="url(#defitem41)" stroke-width="0.374207" d="M15.3477 91.4748C15.3474 91.4137 15.3506 91.3504 15.351 91.2871C15.489 96.1608 19.4988 100.049 24.3962 100.01L45.3513 99.8467L45.354 100.22L24.399 100.386C19.4393 100.425 15.3868 96.4349 15.3477 91.4748Z"  />
        <path id="path6326" fill="url(#defitem42)" stroke-width="0.374207" d="M23.9949 91.4077C23.9944 91.3445 24.0014 91.2834 24.0028 91.22C24.1278 94.4388 26.7828 96.9975 30.0261 96.973L47.9476 96.8304C52.017 96.7986 55.2955 93.5226 55.3643 89.4751C55.3667 89.5384 55.3747 89.5994 55.3746 89.6628C55.4078 93.7954 52.0837 97.1732 47.9496 97.2058L30.0291 97.3481C26.7227 97.3731 24.0208 94.713 23.9949 91.4077Z"  />
        <path id="path6328" fill="url(#defitem43)" stroke-width="0.374207" d="M25.0843 91.9594C25.0836 91.8962 25.0903 91.8351 25.0921 91.7717C25.2102 94.1608 27.1944 96.059 29.6068 96.0418L47.9363 95.5216C51.1743 95.497 53.7964 93.2651 53.8715 90.0497C53.8739 90.1129 53.882 90.174 53.8825 90.2349C53.9087 93.5379 51.2437 96.2449 47.9421 96.2699L29.6098 96.4149C27.1338 96.4346 25.1036 94.4351 25.0843 91.9594ZM47.8364 82.8002L24.2621 82.9843C19.3646 83.0237 15.4167 86.9752 15.3554 91.8501C15.354 91.7867 15.3497 91.7257 15.3493 91.6625C15.3101 86.7023 19.2992 82.6511 24.2591 82.6113L47.8306 82.0519C51.9641 82.0171 55.3431 85.7179 55.3763 89.8505C55.3774 89.9135 55.3693 89.9749 55.3691 90.0379C55.2362 85.992 51.907 82.7681 47.8364 82.8002ZM29.5244 85.5631L45.2376 85.4389L45.2408 85.814L29.5272 85.9362C26.2836 85.963 23.6698 88.5634 23.5952 91.7855C23.5928 91.7222 23.5848 91.6613 23.5844 91.5979C23.5583 88.2905 26.2176 85.5903 29.5244 85.5631ZM16.8489 92.0239C16.8485 91.9607 16.8558 91.8995 16.8569 91.8385C16.9896 95.8756 20.3254 99.1084 24.3889 99.0765L45.3438 98.9108L45.3465 99.2839L24.3916 99.4495C20.2658 99.4818 16.8815 96.152 16.8489 92.0239Z"  />
      </g>
      <path id="path514" fill="url(#defitem44)" stroke-width="6.18237" d="M45.5621 87.2434C45.5621 87.2434 45.5552 86.8002 45.5465 86.2553C45.5367 85.7107 45.5298 85.2675 45.5298 85.2675L28.0915 85.5584C28.0915 85.5584 28.0989 86.0015 28.108 86.5463C28.117 87.0911 28.1243 87.5343 28.1243 87.5343L45.5621 87.2434Z"  />
      <path id="path516" fill="url(#defitem45)" stroke-width="6.18237" d="M48.2264 96.9055C48.2264 96.9055 48.2218 96.6751 48.2172 96.3903L48.2166 96.3246C48.212 96.0397 48.2074 95.8093 48.2074 95.8093L27.4047 96.1572C27.4047 96.1572 27.4084 96.3877 27.4134 96.6725L27.4142 96.7358C27.4189 97.0207 27.4231 97.2512 27.4231 97.2512L48.2264 96.9055Z"  />
      <path id="path518" fill="url(#defitem46)" stroke-width="9.57763" d="M27.5213 99.0277C27.5213 99.0277 27.5209 98.926 27.5201 98.8017L27.5195 98.6276C27.519 98.5032 27.5183 98.4037 27.5183 98.4037L44.943 98.3232C44.943 98.3232 44.9435 98.4249 44.944 98.5494L44.9455 98.7232C44.946 98.8476 44.9459 98.9472 44.9459 98.9472L27.5213 99.0277Z"  />
      <path id="path520" fill="url(#defitem47)" stroke-width="6.18237" d="M48.2215 96.9055C48.2215 96.9055 48.2186 96.7905 48.2168 96.6479L48.2168 96.6479C48.2139 96.5056 48.2128 96.3924 48.2128 96.3924L27.4142 96.7382C27.4142 96.7382 27.416 96.8534 27.4186 96.9958L27.4186 96.9958C27.421 97.136 27.4231 97.2512 27.4231 97.2512L48.2215 96.9055Z"  />
    </g>
    <g id="llapis">
      <path id="path4600" fill="#000000" stroke-width="0.612703" d="M62.7639 71.4919C62.4531 71.3282 61.051 71.9837 60.0278 73.9421C58.9946 75.9201 59.1865 77.3905 59.5772 77.5963C59.8306 77.7299 60.0851 77.8639 60.3387 77.9975C61.4009 75.9629 62.4632 73.9281 63.5264 71.8938C63.272 71.7598 63.0184 71.6265 62.7639 71.4919C62.7639 71.4919 62.7639 71.4919 62.7639 71.4919"  fill-rule="evenodd" />
      <path id="path4602" fill="#000000" stroke="#000000" stroke-width="0" d="M124.367 107.9L108.152 103.248L108.05 103.194L111.13 97.0338L111.267 97.1062L124.367 107.9Z"  fill-rule="evenodd" />
      <path id="path4604" fill="url(#defitem48)" stroke="#000000" stroke-width="0" d="M123.352 107.411L108.233 103.078L108.131 103.025L111.049 97.2032L111.186 97.2757L123.352 107.411Z"  fill-rule="evenodd" />
      <path id="path4606" fill="url(#defitem49)" stroke-width="0.306352" stroke-linecap="round" stroke-linejoin="round" d="M110.175 100.423C109.783 101.176 109.111 101.183 108.97 101.452C108.947 101.496 108.94 101.547 108.941 101.598L60.7274 76.137L62.2725 73.1782L110.577 98.6877C110.469 98.7163 110.378 98.7558 110.334 98.8409C110.205 99.0869 110.57 99.6664 110.175 100.423Z"  />
      <path id="path4608" fill="#000000" stroke-width="0.306352" stroke-linecap="round" stroke-linejoin="round" d="M107.161 100.523L109.048 101.517C108.936 101.783 109.383 102.249 109.147 102.701C108.892 103.189 108.339 102.934 108.173 103.248L106.263 102.242L107.161 100.523Z"  />
      <path id="path4610" fill="url(#defitem50)" stroke-width="0.306352" stroke-linecap="round" stroke-linejoin="round" d="M60.784 76.0292L108.961 101.471C108.848 101.738 109.207 102.159 108.97 102.614C108.714 103.103 108.248 102.895 108.081 103.211L59.8817 77.7567L60.784 76.0292Z"  />
      <path id="path4612" fill="#232323" stroke-width="0.306352" stroke-linecap="round" stroke-linejoin="round" d="M109.417 98.3584L110.384 98.8683L110.421 98.8869C110.32 99.0976 110.748 99.5813 110.444 100.319L110.424 100.356L110.284 100.624L110.265 100.661C109.83 101.339 109.187 101.25 109.046 101.519L108.02 100.975L109.417 98.3584Z"  />
      <path id="path4614" fill="#111111" stroke-width="0.306352" stroke-linecap="round" stroke-linejoin="round" d="M110.304 96.6336L111.269 97.1077C111.264 97.1171 111.344 97.1598 111.339 97.1692C111.238 97.3625 111.647 97.8529 111.513 98.2706L111.496 98.3034L111.42 98.4491L111.41 98.4678C111.14 98.8301 110.56 98.7034 110.421 98.8869L109.407 98.3525L110.304 96.6336Z"  />
      <path id="path4616" fill="url(#defitem51)" stroke-width="0.306352" stroke-linecap="round" stroke-linejoin="round" d="M111.276 98.2812C111.026 98.7473 110.465 98.5899 110.334 98.8409L62.1568 73.3987L63.0695 71.6534L111.268 97.1069C111.264 97.1165 111.259 97.1258 111.253 97.1355C111.151 97.3317 111.529 97.8115 111.276 98.2812Z"  />
      <path id="path451" fill="#000000" stroke-width="0.612703" stroke-linecap="round" stroke-linejoin="round" d="M64.2166 72.2613L62.7827 71.5108L59.5913 77.6109L61.0251 78.3609L64.2166 72.2613Z"  />
      <path id="path4620" fill="url(#defitem52)" stroke-width="0.143269" stroke-linecap="round" stroke-linejoin="round" d="M62.4132 72.3747C62.6355 71.9505 71.6489 76.2571 82.545 81.9939C93.441 87.7306 102.094 92.725 101.871 93.1492C101.649 93.5734 92.6356 89.2668 81.7395 83.53C70.8435 77.7933 62.1907 72.7988 62.4132 72.3747Z"  />
      <path id="path4622" fill="url(#defitem53)" stroke-width="0.107065" stroke-linecap="round" stroke-linejoin="round" d="M61.8272 73.0586C61.8969 72.9252 72.9157 78.6127 86.5084 85.7982C100.101 92.9835 111.18 98.9775 111.324 99.2237C111.467 99.4701 100.623 93.8768 87.0325 86.6952C73.4421 79.5137 62.1933 73.4321 61.8358 73.073"  />
      <path id="path4624" fill="url(#defitem54)" stroke-width="0.306352" stroke-linecap="round" stroke-linejoin="round" d="M66.1351 73.2717C66.9558 73.4555 67.852 73.9648 68.4166 74.4737L65.8427 79.3484L63.5611 78.1463L66.1351 73.2717ZM63.8305 77.6306L66.112 78.8326L65.2144 80.5516C64.5049 80.4069 63.5862 79.9445 62.9328 79.3496L63.8305 77.6306Z"  />
      <path id="path4626" fill="#000000" stroke-width="0" d="M117.401 105.918C118.24 105.525 118.52 103.943 118.859 103.37L124.365 107.897L117.401 105.918Z"  fill-rule="evenodd" />
      <path id="path457" fill="url(#defitem55)" stroke-width="0" stroke-linecap="round" stroke-linejoin="round" d="M62.2343 73.4386L61.6591 73.1355L60.2845 75.7671L60.8598 76.0702L62.2343 73.4386Z"  />
      <path id="path4630" fill="url(#defitem56)" stroke-width="0.612703" d="M60.3922 73.4564C59.6834 74.5928 59.3679 75.9158 59.3674 76.0322C59.3659 76.1483 59.8902 74.6043 60.5092 73.7563C61.1236 72.9149 62.2567 72.4777 62.3166 72.381C62.3765 72.2842 62.7215 71.4707 62.2131 71.6849C61.6824 71.9093 60.9389 72.5785 60.3922 73.4564Z"  fill-rule="evenodd" />
      <path id="path4632" fill="url(#defitem57)" stroke-width="0.612703" d="M86.8655 90.7108C86.717 90.6333 86.5865 90.6024 86.4742 90.6176C86.3619 90.633 86.2779 90.6933 86.2226 90.7986C86.1674 90.9034 86.1656 91.0062 86.2169 91.1069C86.2684 91.2075 86.3682 91.2967 86.5167 91.3741C86.6662 91.452 86.797 91.4832 86.9094 91.4679C87.0218 91.4525 87.1055 91.3925 87.1608 91.2877C87.216 91.1823 87.2181 91.0793 87.1667 90.9786C87.1153 90.878 87.015 90.7888 86.8655 90.7108M86.9639 90.524C87.2676 90.6826 87.4815 90.8525 87.6054 91.0341C87.7292 91.2158 87.7485 91.3876 87.6633 91.5496C87.5784 91.7111 87.4257 91.7929 87.2051 91.7951C86.9846 91.7972 86.7224 91.7191 86.4185 91.5609C86.1156 91.4029 85.9017 91.2328 85.777 91.0506C85.6532 90.869 85.6337 90.6974 85.7187 90.5358C85.8038 90.374 85.9567 90.2919 86.1772 90.2897C86.3986 90.2881 86.6608 90.3661 86.9639 90.524M88.9986 92.2312L89.3862 93.0831L88.8786 92.8184L88.6163 92.2467L87.9986 92.3596L87.4885 92.0938L88.4125 91.9256L88.0394 91.1077L88.5482 91.373L88.7929 91.9107L89.3749 91.804L89.8864 92.0706L88.9986 92.2312M89.9396 92.0983L90.4726 92.3761L90.7159 92.9567L91.3336 92.8251L91.8678 93.1035L90.8434 93.3062L90.622 93.7272L90.1345 93.4731L90.356 93.0522L89.9396 92.0983M93.2894 95.0229C93.1514 94.9909 93.0129 94.9484 92.8737 94.8959C92.7347 94.8434 92.5956 94.7808 92.4564 94.7081C92.1416 94.5441 91.9166 94.3677 91.7813 94.1788C91.6464 93.9898 91.6208 93.8155 91.7045 93.6563C91.7893 93.4952 91.9497 93.4173 92.1855 93.4226C92.4215 93.4279 92.7023 93.5155 93.0281 93.6854C93.1539 93.7509 93.2709 93.8199 93.3792 93.8922C93.4882 93.9649 93.5873 94.0403 93.6765 94.118L93.5677 94.3249C93.4789 94.2381 93.3863 94.1596 93.2898 94.0894C93.1943 94.0198 93.0941 93.9576 92.9895 93.903C92.7953 93.8019 92.6304 93.7525 92.4947 93.7552C92.36 93.7576 92.2645 93.8123 92.2084 93.9188C92.1529 94.0247 92.1605 94.1327 92.2316 94.243C92.3025 94.3534 92.4314 94.4572 92.6178 94.5544C92.6685 94.5808 92.7162 94.6036 92.7609 94.6229C92.8067 94.6423 92.8486 94.6573 92.8871 94.6684L92.9892 94.4742L92.6916 94.3191L92.7825 94.1465L93.5421 94.5424L93.2894 95.0229M94.2037 94.3211L95.5191 95.0068L95.4167 95.2017L94.5888 94.77L94.491 94.956L95.2695 95.3619L95.1671 95.5567L94.3884 95.1507L94.2681 95.3796L95.124 95.8258L95.0214 96.0205L93.6781 95.3203L94.2037 94.3211M95.9762 95.245L96.5205 95.5288L96.8476 96.5725L97.2081 95.8872L97.6701 96.1281L97.1447 97.1274L96.6003 96.8435L96.2732 95.7998L95.9127 96.4852L95.4507 96.2443L95.9762 95.245M99.0451 96.8448L99.5895 97.1286L99.9164 98.1723L100.277 97.4869L100.739 97.7278L100.214 98.7271L99.6692 98.4433L99.3421 97.3996L98.9816 98.0849L98.5196 97.844L99.0451 96.8448M101.716 98.214C101.896 98.3078 102.024 98.4063 102.102 98.5101C102.181 98.6142 102.198 98.7086 102.153 98.7934C102.109 98.8782 102.022 98.918 101.892 98.9129C101.762 98.9079 101.607 98.8583 101.426 98.7642C101.246 98.67 101.116 98.5711 101.037 98.4674C100.959 98.3643 100.943 98.2703 100.987 98.1855C101.032 98.1007 101.119 98.0607 101.249 98.0653C101.379 98.0702 101.535 98.1199 101.716 98.214M100.861 98.5759L101.903 99.1191L101.832 99.2529L100.79 98.7098L100.861 98.5759M101.656 98.3278C101.585 98.2908 101.523 98.2763 101.469 98.2842C101.416 98.2925 101.377 98.3225 101.349 98.3742C101.322 98.426 101.32 98.4756 101.344 98.5231C101.368 98.571 101.415 98.6135 101.486 98.6504C101.556 98.6869 101.618 98.7012 101.67 98.6933C101.724 98.6859 101.764 98.6564 101.791 98.6047C101.818 98.5528 101.82 98.5028 101.796 98.4544C101.773 98.4065 101.726 98.3643 101.656 98.3278M104.3 100.171C104.418 100.255 104.499 100.335 104.542 100.413C104.586 100.491 104.591 100.563 104.556 100.629C104.504 100.728 104.392 100.766 104.222 100.743C104.051 100.72 103.828 100.636 103.553 100.493C103.456 100.442 103.361 100.387 103.268 100.328C103.175 100.269 103.085 100.207 102.998 100.14L103.103 99.9416C103.181 100.013 103.262 100.078 103.345 100.138C103.429 100.197 103.514 100.249 103.601 100.294C103.73 100.362 103.835 100.401 103.916 100.413C103.998 100.426 104.05 100.41 104.074 100.366C104.097 100.32 104.08 100.267 104.021 100.207C103.964 100.147 103.866 100.081 103.729 100.009L103.534 99.9077L103.621 99.7417L103.826 99.8487C103.948 99.9124 104.045 99.9499 104.115 99.961C104.186 99.9719 104.232 99.9563 104.254 99.9149C104.274 99.8765 104.261 99.8317 104.214 99.7804C104.166 99.7291 104.089 99.6757 103.983 99.6203C103.905 99.5793 103.823 99.5427 103.738 99.5102C103.653 99.4778 103.566 99.45 103.477 99.427L103.576 99.2382C103.68 99.2741 103.781 99.3131 103.879 99.3554C103.977 99.3974 104.072 99.4423 104.163 99.4898C104.409 99.6177 104.581 99.7349 104.68 99.841C104.78 99.9472 104.808 100.043 104.763 100.129C104.732 100.187 104.677 100.22 104.6 100.227C104.522 100.234 104.422 100.215 104.3 100.171"  />
      <path id="path461" fill="url(#defitem58)" stroke-width="0" stroke-linecap="round" stroke-linejoin="round" d="M63.0256 71.5812L62.607 71.4364L61.7864 73.2999L62.2051 73.4445L63.0256 71.5812Z"  />
      <path id="path463" fill="url(#defitem59)" stroke-width="0" stroke-linecap="round" stroke-linejoin="round" d="M59.7154 77.8147L59.3449 77.5718L60.3173 75.783L60.6878 76.0258L59.7154 77.8147Z"  />
    </g>
    <g id="pincell">
      <path id="path4865" fill="url(#defitem60)" stroke="#000000" stroke-width="0.584276" d="M29.419 54.7413C33.2237 50.3736 34.4933 47.5064 40.8331 41.6385C47.1728 35.7708 58.6071 26.93 67.4568 19.534C68.0208 19.063 69.1191 19.156 69.8061 19.898C70.519 20.669 70.4476 21.797 69.9874 22.268C61.933 30.5238 52.234 41.2389 45.8941 47.1066C39.5546 52.9744 36.5978 54.0191 31.9497 57.4753C31.106 56.564 30.2625 55.6525 29.419 54.7413Z"  fill-rule="evenodd" />
      <path id="path4867" fill="url(#defitem61)" stroke="#000000" stroke-width="0" stroke-linecap="round" stroke-linejoin="round" d="M27.4056 60.7494C26.0967 62.9477 25.7412 65.4478 23.4787 67.3451C20.2832 70.0242 12.7116 69.9782 9.80197 66.6857C14.0562 66.8155 16.5529 64.0221 19.9417 61.8394C22.1331 60.4276 24.3944 59.7407 25.5288 58.6934C26.1545 59.3787 26.78 60.064 27.4056 60.7494Z"  fill-rule="evenodd" />
      <path id="path4869" fill="url(#defitem62)" stroke="#000000" stroke-width="0" stroke-linecap="round" stroke-linejoin="round" d="M26.7433 60.6886C25.8872 62.3351 24.3793 65.2424 22.9029 66.6611C20.8178 68.6647 14.4812 69.0209 12.3256 67.1761C15.4848 67.0707 18.0881 64.2207 20.2521 62.5082C21.0171 61.9031 24.8025 60.0688 25.5428 59.2857C25.9488 59.8005 26.3376 60.1732 26.7433 60.6886Z"  fill-rule="evenodd" />
      <path id="path4871" fill="url(#defitem63)" stroke-width="0.177842" d="M29.419 54.7413C33.2237 50.3736 34.4933 47.5064 40.8331 41.6385C47.1728 35.7708 58.6071 26.93 67.4568 19.534C68.0208 19.063 69.1191 19.156 69.8061 19.898C70.519 20.669 70.4476 21.797 69.9874 22.268C61.933 30.5238 52.234 41.2389 45.8941 47.1066C39.5546 52.9744 36.5978 54.0191 31.9497 57.4753C31.106 56.564 30.2625 55.6525 29.419 54.7413Z"  fill-rule="evenodd" />
      <path id="path4873" fill="url(#defitem64)" stroke-width="0.177842" d="M68.2032 19.233C67.922 19.258 67.6662 19.377 67.4721 19.539C62.0891 24.038 50.6247 33.2104 45.1681 38.1173C46.3474 38.0589 47.9787 37.9165 49.5914 36.9686C52.6499 35.1715 65.6743 22.697 67.6364 21.171C68.869 20.213 69.4769 21.365 70.3134 21.506C70.3834 20.992 70.2623 20.372 69.8166 19.89C69.3657 19.403 68.741 19.185 68.2032 19.233Z"  fill-rule="evenodd" />
      <path id="path4875" fill="url(#defitem65)" stroke-width="0.237124" stroke-linecap="round" stroke-linejoin="round" d="M63.0047 22.828C62.4407 23.125 61.7849 23.592 61.471 24.077L64.3036 27.158L65.7372 25.824L63.0047 22.828ZM65.4401 25.498L64.006 26.831L64.9979 27.92C65.488 27.673 65.9696 27.048 66.3316 26.481L65.4401 25.498Z"  />
      <path id="path4877" fill="url(#defitem66)" stroke-width="0.177842" d="M29.419 54.7413C33.2237 50.3736 34.4933 47.5064 40.8331 41.6385C47.1728 35.7708 58.6071 26.93 67.4568 19.534C68.0208 19.063 69.1191 19.156 69.8061 19.898C70.519 20.669 70.4476 21.797 69.9874 22.268C61.933 30.5238 52.234 41.2389 45.8941 47.1066C39.5546 52.9744 36.5978 54.0191 31.9497 57.4753C31.106 56.564 30.2625 55.6525 29.419 54.7413Z"  fill-rule="evenodd" />
      <path id="path4879" fill="#999999" stroke-width="0.474247" d="M56.4522 34.9115C56.3897 34.9702 56.3524 35.028 56.3405 35.0849C56.3285 35.142 56.3434 35.1931 56.3845 35.2378C56.4256 35.2826 56.4749 35.3012 56.5318 35.2936C56.5893 35.2862 56.6491 35.2529 56.7117 35.1943C56.7744 35.1352 56.8117 35.0772 56.8237 35.0202C56.8357 34.9631 56.8208 34.9121 56.7802 34.8676C56.7386 34.8224 56.6898 34.8041 56.6323 34.8116C56.5754 34.8193 56.515 34.8525 56.4522 34.9115M56.3794 34.8319C56.507 34.7117 56.6258 34.6377 56.7344 34.6088C56.8429 34.5801 56.9288 34.6001 56.992 34.6691C57.0552 34.738 57.0683 34.8258 57.0318 34.9332C56.9947 35.0403 56.9127 35.1539 56.7846 35.2738C56.6566 35.3934 56.5388 35.468 56.4295 35.497C56.321 35.5257 56.2351 35.5056 56.1719 35.4368C56.1088 35.3678 56.0957 35.2799 56.1322 35.1726C56.1688 35.0649 56.2513 34.9516 56.3794 34.8319M57.5481 34.1395L58.0237 34.0979L57.8099 34.2983L57.49 34.3272L57.4389 34.6458L57.2235 34.847L57.301 34.3709L56.8433 34.4111L57.058 34.2102L57.3588 34.1841L57.4069 33.8838L57.622 33.6816L57.5481 34.1395M57.6447 33.6607L57.8696 33.4503L58.1902 33.4322L58.2324 33.1104L58.4576 32.8995L58.3799 33.4303L58.5447 33.61L58.3393 33.8025L58.1744 33.6229L57.6447 33.6607M59.6235 32.5406C59.5847 32.602 59.5403 32.6616 59.4914 32.7199C59.4424 32.7783 59.3883 32.8348 59.3298 32.8898C59.1973 33.0142 59.074 33.0929 58.9599 33.1259C58.8458 33.1588 58.7576 33.1412 58.6953 33.0733C58.6326 33.0048 58.6227 32.9138 58.6655 32.8004C58.7083 32.6872 58.7985 32.5661 58.9354 32.4373C58.9885 32.3876 59.0416 32.3428 59.0951 32.3029C59.1488 32.2627 59.2018 32.2274 59.2544 32.1976L59.3352 32.2858C59.2782 32.3138 59.2249 32.3454 59.1747 32.3801C59.1248 32.4143 59.0778 32.4522 59.0333 32.4933C58.9518 32.5702 58.8999 32.6417 58.8779 32.7076C58.8565 32.7736 58.8663 32.829 58.9078 32.8745C58.9494 32.9196 59.0023 32.9342 59.0675 32.9188C59.1328 32.9034 59.2049 32.8589 59.2833 32.7852C59.3049 32.7654 59.3243 32.7462 59.3408 32.7279C59.3582 32.709 59.3726 32.6912 59.3845 32.6745L59.3085 32.5917L59.1827 32.7091L59.1156 32.6357L59.4357 32.3356L59.6235 32.5406M59.4424 31.9773L59.9969 31.4579L60.0729 31.5408L59.7237 31.8678L59.7967 31.9472L60.125 31.6399L60.201 31.7228L59.8727 32.0301L59.9624 32.1279L60.3232 31.7898L60.3991 31.8728L59.8331 32.4032L59.4424 31.9773M60.1891 31.2774L60.419 31.0626L60.9766 31.0831L60.7089 30.7909L60.9031 30.6085L61.2943 31.0345L61.0649 31.2495L60.5068 31.2287L60.7751 31.521L60.5803 31.7034L60.1891 31.2774M61.4832 30.0658L61.7126 29.8507L62.2702 29.8713L62.0024 29.5793L62.1973 29.3968L62.5879 29.8229L62.3585 30.0378L61.8005 30.0168L62.0687 30.3093L61.8739 30.4916L61.4832 30.0658M62.5978 29.0072C62.6738 28.9362 62.7431 28.8908 62.8063 28.8709C62.8697 28.8507 62.9177 28.8585 62.9509 28.8947C62.984 28.9307 62.9887 28.98 62.9639 29.0418C62.9396 29.1039 62.8892 29.1704 62.813 29.2419C62.7369 29.3131 62.6669 29.3588 62.6034 29.3792C62.5407 29.3993 62.4928 29.3913 62.4596 29.3553C62.4265 29.319 62.4218 29.2697 62.4467 29.2079C62.4711 29.1455 62.5217 29.0786 62.5978 29.0072M62.6259 29.4834L63.0648 29.072L63.1175 29.1291L62.6779 29.5404L62.6259 29.4834M62.6425 29.0557C62.6124 29.0837 62.5947 29.1113 62.5892 29.1386C62.5844 29.1656 62.5923 29.1902 62.6121 29.212C62.6324 29.2342 62.656 29.2438 62.6829 29.2406C62.71 29.2369 62.7383 29.2211 62.7684 29.1933C62.7977 29.1654 62.8153 29.1383 62.8205 29.1116C62.826 29.0845 62.8188 29.0599 62.7984 29.0378C62.7782 29.0155 62.7544 29.0063 62.7268 29.0096C62.6999 29.0126 62.6718 29.028 62.6425 29.0557M63.9803 28.0911C64.0407 28.0487 64.0935 28.0231 64.1381 28.0158C64.1831 28.0075 64.2187 28.0176 64.2447 28.0462C64.283 28.0883 64.2824 28.1489 64.2423 28.2277C64.2018 28.3058 64.1234 28.3997 64.0076 28.5084C63.9669 28.5467 63.9236 28.5833 63.8791 28.6183C63.8353 28.6532 63.7898 28.686 63.7432 28.7167L63.6655 28.6318C63.7131 28.6062 63.7585 28.5783 63.801 28.5483C63.8442 28.518 63.8839 28.4854 63.9204 28.4512C63.9748 28.4 64.0116 28.3556 64.0312 28.3189C64.0511 28.2816 64.0525 28.2533 64.0352 28.2347C64.0175 28.2153 63.9891 28.2144 63.9501 28.2329C63.9115 28.2504 63.8634 28.2863 63.8052 28.3406L63.7229 28.4176L63.658 28.3468L63.7445 28.2658C63.7957 28.2174 63.8302 28.1772 63.848 28.1448C63.8651 28.1128 63.8653 28.0873 63.8495 28.0699C63.8345 28.0534 63.8105 28.0525 63.7778 28.0666C63.7451 28.0807 63.7062 28.1082 63.6613 28.1505C63.6282 28.1811 63.5965 28.2146 63.5664 28.2503C63.5364 28.286 63.5081 28.3234 63.4818 28.3626L63.408 28.282C63.4434 28.2382 63.4794 28.1958 63.5159 28.1553C63.553 28.1149 63.5911 28.0768 63.6296 28.0408C63.733 27.944 63.8186 27.88 63.8865 27.851C63.9547 27.821 64.0053 27.823 64.0388 27.86C64.0619 27.885 64.0687 27.917 64.0583 27.956C64.0487 27.995 64.0225 28.0399 63.9803 28.0911"  />
      <path id="path4881" fill="url(#defitem67)" stroke="#000000" stroke-width="0" stroke-linecap="round" stroke-linejoin="round" d="M27.4056 60.7494C26.0967 62.9477 25.7412 65.4478 23.4787 67.3451C20.2832 70.0242 17.2853 64.1246 20.5959 61.8244C22.8097 60.2862 24.3944 59.7407 25.5288 58.6934C26.1545 59.3787 26.78 60.064 27.4056 60.7494Z"  fill-rule="evenodd" />
      <g id="g4883">
        <path id="path4885" fill="url(#defitem68)" stroke-width="0.237124" stroke-linecap="round" stroke-linejoin="round" d="M24.6601 58.2403C25.1222 57.6188 25.7905 56.8903 26.3929 56.5304L28.9993 59.4471L27.2011 61.0525L24.6601 58.2403ZM26.924 60.7464L28.7224 59.1409L29.6455 60.1615C29.2565 60.7015 28.4613 61.2487 27.7597 61.6642L26.924 60.7464Z"  />
        <path id="path4887" fill="url(#defitem69)" stroke-width="0.237124" stroke-linecap="round" stroke-linejoin="round" d="M26.3695 56.6299C26.8297 56.0063 27.497 55.2767 28.1009 54.9184L30.7529 57.8861L28.9545 59.4917L26.3695 56.6299ZM28.6727 59.1801L30.4712 57.5745L31.4104 58.613C31.0232 59.1547 30.2264 59.7005 29.523 60.1137L28.6727 59.1801Z"  />
        <path id="path4889" fill="url(#defitem70)" stroke-width="0.237124" stroke-linecap="round" stroke-linejoin="round" d="M28.0733 54.9688C28.53 54.3413 29.1951 53.6091 29.8022 53.2546L32.5454 56.3239L30.7466 57.9294L28.0733 54.9688ZM30.4551 57.6069L32.254 56.0017L33.2252 57.0761C32.8414 57.6214 32.0415 58.1638 31.3344 58.573L30.4551 57.6069Z"  />
        <path id="path4891" fill="url(#defitem71)" stroke-width="0.237124" stroke-linecap="round" stroke-linejoin="round" d="M29.7984 53.3444C30.2534 52.715 30.9175 51.9816 31.5261 51.6287L34.3148 54.7491L32.5157 56.3543L29.7984 53.3444ZM32.2197 56.0265L34.0186 54.4216L35.0057 55.5137C34.6236 56.0608 33.8223 56.6017 33.1133 57.0088L32.2197 56.0265Z"  />
        <path id="path4893" fill="url(#defitem72)" stroke-width="0.237124" stroke-linecap="round" stroke-linejoin="round" d="M31.5344 51.6229C30.9447 51.9647 30.2959 52.6717 29.843 53.2874L29.8039 53.2508C29.2159 53.5944 28.5674 54.3015 28.1126 54.9154L28.0965 54.9141C27.5172 55.2577 26.8832 55.9577 26.4258 56.5634L26.3868 56.5269C25.7846 56.8869 25.1274 57.6179 24.6654 58.2395L27.2083 61.0555L27.7585 61.6694C28.4602 61.2534 29.2653 60.6949 29.6542 60.1547L29.5924 60.0828C30.2788 59.6745 31.0345 59.1375 31.4095 58.6126L31.3591 58.5583C32.0607 58.1506 32.8494 57.6153 33.2293 57.0755L33.1561 56.986C33.8539 56.582 34.6311 56.0541 35.0055 55.5183L34.3201 54.7433L31.5344 51.6229Z"  />
      </g>
    </g>
  </g>
</svg>
