<?xml version="1.0" standalone="no"?>
<!DOCTYPE svg PUBLIC "-//W3C//DTD SVG 20010904//EN" "http://www.w3.org/TR/2001/REC-SVG-20010904/DTD/svg10.dtd">
<!-- Created using Karbon14, part of koffice: http://www.koffice.org/karbon -->
<svg xmlns="http://www.w3.org/2000/svg" xmlns:xlink="http://www.w3.org/1999/xlink" width="128px" height="128px">
  <defs>
    <radialGradient id="defitem118" gradientUnits="userSpaceOnUse" cx="98.1093" cy="75.3685" fx="98.1093" fy="75.3685" r="5.62001" >
      <stop stop-color="#b3932a" offset="0" stop-opacity="1" />
      <stop stop-color="#e4dbc8" offset="1" stop-opacity="1" />
    </radialGradient>
    <radialGradient id="defitem119" gradientUnits="userSpaceOnUse" cx="69.4682" cy="58.0308" fx="69.4682" fy="58.0308" r="5.15847" >
      <stop stop-color="#242424" offset="0" stop-opacity="1" />
      <stop stop-color="#242424" offset="0.5" stop-opacity="1" />
      <stop stop-color="#242424" offset="0.75" stop-opacity="1" />
      <stop stop-color="#000000" offset="1" stop-opacity="1" />
    </radialGradient>
    <radialGradient id="defitem120" gradientUnits="userSpaceOnUse" cx="58.4374" cy="54.9932" fx="18.5299" fy="34.221" r="3.2211" >
      <stop stop-color="#9a7500" offset="0" stop-opacity="1" />
      <stop stop-color="#e2ac00" offset="0.0929204" stop-opacity="1" />
      <stop stop-color="#ffcd2b" offset="0.504317" stop-opacity="1" />
      <stop stop-color="#e2ac00" offset="0.915714" stop-opacity="1" />
      <stop stop-color="#b88c00" offset="1" stop-opacity="1" />
    </radialGradient>
    <linearGradient id="defitem121" gradientUnits="userSpaceOnUse" x1="60.7817" y1="48.4023" x2="59.2688" y2="51.481" >
      <stop stop-color="#9a7500" offset="0" stop-opacity="1" />
      <stop stop-color="#e2ac00" offset="0.0929204" stop-opacity="1" />
      <stop stop-color="#ffcd2b" offset="0.504317" stop-opacity="1" />
      <stop stop-color="#e2ac00" offset="0.915714" stop-opacity="1" />
      <stop stop-color="#b88c00" offset="1" stop-opacity="1" />
    </linearGradient>
    <radialGradient id="defitem122" gradientUnits="userSpaceOnUse" cx="52.0721" cy="45.85" fx="52.0721" fy="45.85" r="36.467" >
      <stop stop-color="#ffffff" offset="0" stop-opacity="0.683453" />
      <stop stop-color="#ffffff" offset="1" stop-opacity="0" />
    </radialGradient>
    <radialGradient id="defitem123" gradientUnits="userSpaceOnUse" cx="59.434" cy="51.2014" fx="59.434" fy="51.2014" r="45.6904" >
      <stop stop-color="#ffffff" offset="0" stop-opacity="1" />
      <stop stop-color="#ffffff" offset="1" stop-opacity="0" />
    </radialGradient>
    <radialGradient id="defitem124" gradientUnits="userSpaceOnUse" cx="24.9542" cy="36.9346" fx="25.155" fy="34.4626" r="5.58431" >
      <stop stop-color="#ffffff" offset="0" stop-opacity="1" />
      <stop stop-color="#aeaeae" offset="1" stop-opacity="1" />
    </radialGradient>
    <radialGradient id="defitem125" gradientUnits="userSpaceOnUse" cx="17.5968" cy="33.276" fx="17.5968" fy="33.276" r="2.42282" >
      <stop stop-color="#ffffff" offset="0" stop-opacity="1" />
      <stop stop-color="#242424" offset="1" stop-opacity="0" />
    </radialGradient>
    <linearGradient id="defitem126" gradientUnits="userSpaceOnUse" x1="20.4035" y1="30.7989" x2="13.7441" y2="33.3286" >
      <stop stop-color="#ffff00" offset="0" stop-opacity="1" />
      <stop stop-color="#ffb66d" offset="1" stop-opacity="1" />
    </linearGradient>
    <linearGradient id="defitem127" gradientUnits="userSpaceOnUse" x1="70.4809" y1="54.5079" x2="77.4098" y2="77.8147" >
      <stop stop-color="#b3932a" offset="0" stop-opacity="1" />
      <stop stop-color="#e4dbc8" offset="1" stop-opacity="1" />
    </linearGradient>
    <radialGradient id="defitem128" gradientUnits="userSpaceOnUse" cx="115.912" cy="54.321" fx="115.912" fy="54.321" r="49.2039" >
      <stop stop-color="#ffffff" offset="0" stop-opacity="1" />
      <stop stop-color="#ffffff" offset="1" stop-opacity="0" />
    </radialGradient>
    <radialGradient id="defitem129" gradientUnits="userSpaceOnUse" cx="15.6845" cy="36.9149" fx="15.6845" fy="36.9149" r="1.66155" >
      <stop stop-color="#ffffff" offset="0" stop-opacity="1" />
      <stop stop-color="#242424" offset="1" stop-opacity="0" />
    </radialGradient>
    <radialGradient id="defitem130" gradientUnits="userSpaceOnUse" cx="57.4203" cy="38.2029" fx="57.4203" fy="38.2029" r="36.9955" >
      <stop stop-color="#f2f2f2" offset="0" stop-opacity="1" />
      <stop stop-color="#c3c3c3" offset="1" stop-opacity="1" />
    </radialGradient>
    <linearGradient id="defitem131" gradientUnits="userSpaceOnUse" x1="67.6178" y1="13.43" x2="60.337" y2="40.6023" >
      <stop stop-color="#b6b8b8" offset="0" stop-opacity="1" />
      <stop stop-color="#ebebeb" offset="0.18851" stop-opacity="1" />
      <stop stop-color="#f9f9f9" offset="0.257181" stop-opacity="1" />
      <stop stop-color="#ffffff" offset="0.301113" stop-opacity="1" />
      <stop stop-color="#f9f9f9" offset="0.5313" stop-opacity="1" />
      <stop stop-color="#ebebeb" offset="0.8449" stop-opacity="1" />
      <stop stop-color="#e1e2e2" offset="1" stop-opacity="1" />
    </linearGradient>
    <linearGradient id="defitem132" gradientUnits="userSpaceOnUse" x1="59.7748" y1="36.3601" x2="64.6401" y2="18.202" >
      <stop stop-color="#70a8f4" offset="0.25" stop-opacity="0" />
      <stop stop-color="#0056ae" offset="1" stop-opacity="1" />
    </linearGradient>
    <linearGradient id="defitem133" gradientUnits="userSpaceOnUse" x1="57.8314" y1="38.782" x2="65.2417" y2="11.127" >
      <stop stop-color="#545454" offset="0.0533" stop-opacity="1" />
      <stop stop-color="#bababa" offset="0.211134" stop-opacity="1" />
      <stop stop-color="#ffffff" offset="0.362655" stop-opacity="1" />
      <stop stop-color="#ffffff" offset="0.603228" stop-opacity="1" />
      <stop stop-color="#e8e8e8" offset="0.849766" stop-opacity="1" />
      <stop stop-color="#545454" offset="1" stop-opacity="1" />
    </linearGradient>
    <linearGradient id="defitem134" gradientUnits="userSpaceOnUse" x1="64.2148" y1="42.1316" x2="70.2029" y2="19.784" >
      <stop stop-color="#efefef" offset="0.4083" stop-opacity="1" />
      <stop stop-color="#c3c3c3" offset="0.506285" stop-opacity="1" />
      <stop stop-color="#8a8a8a" offset="0.560082" stop-opacity="1" />
      <stop stop-color="#383838" offset="0.679446" stop-opacity="1" />
    </linearGradient>
    <linearGradient id="defitem135" gradientUnits="userSpaceOnUse" x1="63.3658" y1="38.0541" x2="70.5515" y2="11.237" >
      <stop stop-color="#878985" offset="0" stop-opacity="1" />
      <stop stop-color="#8c8e89" offset="0.0072" stop-opacity="1" />
      <stop stop-color="#aaaca8" offset="0.0673" stop-opacity="1" />
      <stop stop-color="#c4c6c3" offset="0.1347" stop-opacity="1" />
      <stop stop-color="#dbdbda" offset="0.265258" stop-opacity="1" />
      <stop stop-color="#ebebeb" offset="0.376461" stop-opacity="1" />
      <stop stop-color="#f6f6f6" offset="0.487403" stop-opacity="1" />
      <stop stop-color="#fdfdfd" offset="0.632409" stop-opacity="1" />
      <stop stop-color="#ffffff" offset="1" stop-opacity="1" />
    </linearGradient>
    <linearGradient id="defitem136" gradientUnits="userSpaceOnUse" x1="56.7325" y1="17.626" x2="65.9117" y2="24.311" >
      <stop stop-color="#ffffff" offset="0" stop-opacity="1" />
      <stop stop-color="#ffffff" offset="1" stop-opacity="0" />
    </linearGradient>
    <linearGradient id="defitem137" gradientUnits="userSpaceOnUse" x1="62.5695" y1="16.492" x2="58.7182" y2="30.8652" >
      <stop stop-color="#000000" offset="0" stop-opacity="1" />
      <stop stop-color="#000000" offset="0.5" stop-opacity="0.844765" />
      <stop stop-color="#000000" offset="1" stop-opacity="0" />
    </linearGradient>
    <linearGradient id="defitem138" gradientUnits="userSpaceOnUse" x1="69.5356" y1="25.854" x2="67.0985" y2="34.1465" spreadMethod="reflect" >
      <stop stop-color="#000000" offset="0" stop-opacity="1" />
      <stop stop-color="#000000" offset="0.5" stop-opacity="0.844765" />
      <stop stop-color="#000000" offset="1" stop-opacity="0" />
    </linearGradient>
    <linearGradient id="defitem139" gradientUnits="userSpaceOnUse" x1="72.3216" y1="20.463" x2="75.2965" y2="30.4273" >
      <stop stop-color="#ffffff" offset="0" stop-opacity="1" />
      <stop stop-color="#ffffff" offset="1" stop-opacity="0" />
    </linearGradient>
    <linearGradient id="defitem140" gradientUnits="userSpaceOnUse" x1="69.5356" y1="25.854" x2="67.0985" y2="34.1465" spreadMethod="reflect" >
      <stop stop-color="#000000" offset="0" stop-opacity="1" />
      <stop stop-color="#000000" offset="0.5" stop-opacity="0.844765" />
      <stop stop-color="#000000" offset="1" stop-opacity="0" />
    </linearGradient>
    <radialGradient id="defitem141" gradientUnits="userSpaceOnUse" cx="101.666" cy="51.8714" fx="95.4115" fy="55.6435" r="7.64128" >
      <stop stop-color="#505050" offset="0" stop-opacity="1" />
      <stop stop-color="#000000" offset="1" stop-opacity="1" />
    </radialGradient>
    <linearGradient id="defitem142" gradientUnits="userSpaceOnUse" x1="77.0984" y1="116.32" x2="67.1617" y2="109.468" >
      <stop stop-color="#544412" offset="0" stop-opacity="1" />
      <stop stop-color="#b59e69" offset="1" stop-opacity="1" />
    </linearGradient>
    <radialGradient id="defitem143" gradientUnits="userSpaceOnUse" cx="73.9124" cy="111.912" fx="75.6857" fy="115.277" r="6.28859" >
      <stop stop-color="#b3932a" offset="0" stop-opacity="1" />
      <stop stop-color="#e4dbc8" offset="1" stop-opacity="1" />
    </radialGradient>
    <radialGradient id="defitem144" gradientUnits="userSpaceOnUse" cx="88.1418" cy="90.8084" fx="88.1418" fy="90.8084" r="4.56457" >
      <stop stop-color="#ffffff" offset="0" stop-opacity="1" />
      <stop stop-color="#ffffff" offset="1" stop-opacity="0" />
    </radialGradient>
    <linearGradient id="defitem145" gradientUnits="userSpaceOnUse" x1="111.671" y1="18.36" x2="119.423" y2="23.536" >
      <stop stop-color="#ffffff" offset="0" stop-opacity="1" />
      <stop stop-color="#ffffff" offset="1" stop-opacity="0" />
    </linearGradient>
    <radialGradient id="defitem146" gradientUnits="userSpaceOnUse" cx="115.579" cy="22.634" fx="114.252" fy="21.2" r="4.38818" >
      <stop stop-color="#ffffff" offset="0" stop-opacity="1" />
      <stop stop-color="#aeaeae" offset="1" stop-opacity="1" />
    </radialGradient>
    <linearGradient id="defitem147" gradientUnits="userSpaceOnUse" x1="83.5145" y1="91.8087" x2="87.4966" y2="83.5694" >
      <stop stop-color="#ffffff" offset="0" stop-opacity="1" />
      <stop stop-color="#ffffff" offset="1" stop-opacity="0" />
    </linearGradient>
    <linearGradient id="defitem148" gradientUnits="userSpaceOnUse" x1="81.9541" y1="99.6083" x2="76.7129" y2="105.189" >
      <stop stop-color="#000000" offset="0" stop-opacity="1" />
      <stop stop-color="#000000" offset="1" stop-opacity="0" />
    </linearGradient>
    <radialGradient id="defitem149" gradientUnits="userSpaceOnUse" cx="79.2958" cy="98.9444" fx="78.0531" fy="97.6079" r="4.10126" >
      <stop stop-color="#ffffff" offset="0" stop-opacity="1" />
      <stop stop-color="#aeaeae" offset="1" stop-opacity="1" />
    </radialGradient>
    <radialGradient id="defitem150" gradientUnits="userSpaceOnUse" cx="81.0148" cy="95.3706" fx="79.7692" fy="94.1332" r="4.17282" >
      <stop stop-color="#ffffff" offset="0" stop-opacity="1" />
      <stop stop-color="#aeaeae" offset="1" stop-opacity="1" />
    </radialGradient>
    <radialGradient id="defitem151" gradientUnits="userSpaceOnUse" cx="82.7547" cy="91.751" fx="82.0858" fy="90.6903" r="4.31615" >
      <stop stop-color="#ffffff" offset="0" stop-opacity="1" />
      <stop stop-color="#aeaeae" offset="1" stop-opacity="1" />
    </radialGradient>
    <radialGradient id="defitem152" gradientUnits="userSpaceOnUse" cx="84.4896" cy="88.1453" fx="84.0584" fy="87.4007" r="4.38775" >
      <stop stop-color="#ffffff" offset="0" stop-opacity="1" />
      <stop stop-color="#aeaeae" offset="1" stop-opacity="1" />
    </radialGradient>
    <linearGradient id="defitem153" gradientUnits="userSpaceOnUse" x1="92.7957" y1="101.237" x2="84.3716" y2="93.3291" >
      <stop stop-color="#c3c3c3" offset="0" stop-opacity="1" />
      <stop stop-color="#757575" offset="1" stop-opacity="1" />
    </linearGradient>
    <radialGradient id="defitem154" gradientUnits="userSpaceOnUse" cx="38.8023" cy="120.241" fx="18.0733" fy="122.537" r="37.8021" >
      <stop stop-color="#000000" offset="0" stop-opacity="1" />
      <stop stop-color="#000000" offset="1" stop-opacity="0" />
    </radialGradient>
    <linearGradient id="defitem155" gradientUnits="userSpaceOnUse" x1="57.9261" y1="73.187" x2="61.2788" y2="69.8449" >
      <stop stop-color="#878787" offset="0" stop-opacity="1" />
      <stop stop-color="#878787" offset="1" stop-opacity="0" />
    </linearGradient>
    <linearGradient id="defitem156" gradientUnits="userSpaceOnUse" x1="20.2672" y1="121.395" x2="12.2814" y2="103.168" >
      <stop stop-color="#dddddd" offset="0" stop-opacity="1" />
      <stop stop-color="#ededed" offset="1" stop-opacity="1" />
    </linearGradient>
    <linearGradient id="defitem157" gradientUnits="userSpaceOnUse" x1="49.2063" y1="75.274" x2="28.5665" y2="106.659" >
      <stop stop-color="#ededed" offset="0" stop-opacity="1" />
      <stop stop-color="#dfdfdf" offset="1" stop-opacity="1" />
    </linearGradient>
    <linearGradient id="defitem158" gradientUnits="userSpaceOnUse" x1="10.2868" y1="101.551" x2="10.8624" y2="102.148" >
      <stop stop-color="#000000" offset="0" stop-opacity="1" />
      <stop stop-color="#000000" offset="1" stop-opacity="0" />
    </linearGradient>
    <linearGradient id="defitem159" gradientUnits="userSpaceOnUse" x1="53.5229" y1="62.3719" x2="53.5049" y2="63.4546" >
      <stop stop-color="#000000" offset="0" stop-opacity="1" />
      <stop stop-color="#000000" offset="1" stop-opacity="0" />
    </linearGradient>
    <linearGradient id="defitem160" gradientUnits="userSpaceOnUse" x1="32.2655" y1="88.2892" x2="32.2655" y2="62.5858" >
      <stop stop-color="#bf0202" offset="0" stop-opacity="1" />
      <stop stop-color="#e20800" offset="1" stop-opacity="1" />
    </linearGradient>
    <linearGradient id="defitem161" gradientUnits="userSpaceOnUse" x1="66.2489" y1="75.0737" x2="64.9024" y2="75.0916" >
      <stop stop-color="#000000" offset="0" stop-opacity="1" />
      <stop stop-color="#000000" offset="1" stop-opacity="0" />
    </linearGradient>
    <linearGradient id="defitem162" gradientUnits="userSpaceOnUse" x1="36.7078" y1="105.677" x2="36.7078" y2="78.9068" >
      <stop stop-color="#bf0202" offset="0" stop-opacity="1" />
      <stop stop-color="#e20800" offset="1" stop-opacity="1" />
    </linearGradient>
    <radialGradient id="defitem163" gradientUnits="userSpaceOnUse" cx="59.0347" cy="52.5892" fx="59.0347" fy="52.5892" r="100.586" >
      <stop stop-color="#ffffff" offset="0" stop-opacity="1" />
      <stop stop-color="#ffffff" offset="1" stop-opacity="0" />
    </radialGradient>
    <linearGradient id="defitem164" gradientUnits="userSpaceOnUse" x1="23.4514" y1="122.338" x2="22.8667" y2="121.766" >
      <stop stop-color="#000000" offset="0" stop-opacity="1" />
      <stop stop-color="#000000" offset="1" stop-opacity="0" />
    </linearGradient>
    <linearGradient id="defitem165" gradientUnits="userSpaceOnUse" x1="9.05632" y1="113.395" x2="9.86043" y2="112.668" >
      <stop stop-color="#000000" offset="0" stop-opacity="1" />
      <stop stop-color="#000000" offset="1" stop-opacity="0" />
    </linearGradient>
    <linearGradient id="defitem166" gradientUnits="userSpaceOnUse" x1="65.6629" y1="74.0239" x2="64.6421" y2="74.9676" >
      <stop stop-color="#000000" offset="0" stop-opacity="1" />
      <stop stop-color="#000000" offset="1" stop-opacity="0" />
    </linearGradient>
    <linearGradient id="defitem167" gradientUnits="userSpaceOnUse" x1="48.9929" y1="64.8392" x2="50.225" y2="63.8805" >
      <stop stop-color="#ffffff" offset="0" stop-opacity="1" />
      <stop stop-color="#ffffff" offset="1" stop-opacity="0" />
    </linearGradient>
    <linearGradient id="defitem168" gradientUnits="userSpaceOnUse" x1="21.9669" y1="108.104" x2="20.9866" y2="109.084" >
      <stop stop-color="#000000" offset="0" stop-opacity="1" />
      <stop stop-color="#000000" offset="1" stop-opacity="0" />
    </linearGradient>
    <radialGradient id="defitem169" gradientUnits="userSpaceOnUse" cx="91.7442" cy="122.435" fx="91.7442" fy="122.435" r="36.7468" >
      <stop stop-color="#000000" offset="0" stop-opacity="1" />
      <stop stop-color="#000000" offset="1" stop-opacity="0" />
    </radialGradient>
  </defs>
  <g id="Layer">
    <g id="layer1">
      <path id="path3945" fill="#000000" d=""  />
    </g>
    <path id="path3081" fill="#000000" d=""  />
    <g id="layer2">
    </g>
    <g id="layer3">
    </g>
    <g id="layer4">
    </g>
    <g id="layer8">
      <g id="g5680">
        <path id="path5533" fill="#ffffff" fill-opacity="0.756881" stroke-width="0.364743" stroke-linecap="round" stroke-linejoin="round" d="M65.4649 13.175L64.7409 11.269L65.4649 13.175Z"  />
        <path id="path3180" fill="#000000" stroke-width="0.729486" d="M20.0296 28.191C19.5153 27.935 17.2523 29.0569 15.657 32.2915C14.046 35.5578 14.4141 37.9498 15.0584 38.2705C15.4777 38.4792 15.897 38.6879 16.3164 38.8966C17.9734 35.5368 19.6305 32.177 21.2876 28.8172C20.8683 28.6085 20.4489 28.3998 20.0296 28.191C20.0296 28.191 20.0296 28.191 20.0296 28.191"  fill-rule="evenodd" />
        <path id="path3299" fill="#000000" stroke="#000000" stroke-width="0" d="M121.916 85.2773L95.2821 78.2976L95.1144 78.2141L99.9075 68.046L100.135 68.1591L121.916 85.2773Z"  fill-rule="evenodd" />
        <path id="path2247" fill="url(#defitem118)" stroke="#000000" stroke-width="0" d="M120.241 84.5185L95.4075 78.0181L95.2398 77.9346L99.782 68.3256L100.009 68.4386L120.241 84.5185Z"  fill-rule="evenodd" />
        <path id="rect2192" fill="url(#defitem119)" stroke-width="0.364743" stroke-linecap="round" stroke-linejoin="round" d="M98.4782 73.6116C97.865 74.8549 96.7693 74.8923 96.5501 75.3367C96.5147 75.4085 96.5048 75.492 96.5073 75.5762L16.8807 35.8463L19.2905 30.9604L99.0682 70.7655C98.893 70.8164 98.7462 70.8842 98.6768 71.0247C98.4765 71.4309 99.0942 72.3627 98.4782 73.6116Z"  />
        <path id="path2233" fill="#000000" stroke-width="0.364743" stroke-linecap="round" stroke-linejoin="round" d="M93.5628 73.8884L96.6789 75.4395C96.5064 75.878 97.254 76.6214 96.8858 77.368C96.4889 78.1727 95.5763 77.7782 95.3168 78.2968L92.1628 76.7269L93.5628 73.8884Z"  />
        <path id="rect2190" fill="url(#defitem120)" stroke-width="0.364743" stroke-linecap="round" stroke-linejoin="round" d="M16.9687 35.6679L96.5348 75.3678C96.3613 75.8084 96.964 76.4816 96.5939 77.2321C96.195 78.0409 95.4264 77.7183 95.1655 78.2395L15.5616 38.5209L16.9687 35.6679Z"  />
        <path id="path2231" fill="#242424" stroke-width="0.364743" stroke-linecap="round" stroke-linejoin="round" d="M97.1623 70.2717L98.7608 71.0674L98.821 71.0965C98.6634 71.4441 99.3801 72.2171 98.9119 73.4317L98.8813 73.4937L98.6633 73.9358L98.6327 73.9978C97.9486 75.1196 96.8963 74.9988 96.6772 75.4431L94.9816 74.5937L97.1623 70.2717Z"  />
        <path id="path2229" fill="#121212" stroke-width="0.364743" stroke-linecap="round" stroke-linejoin="round" d="M98.5457 67.4241L100.138 68.1615C100.13 68.1771 100.263 68.2437 100.255 68.2593C100.098 68.5783 100.782 69.3631 100.58 70.0498L100.553 70.104L100.435 70.3445L100.419 70.3755C99.9919 70.9767 99.0414 70.7917 98.821 71.0965L97.1457 70.2626L98.5457 67.4241Z"  />
        <path id="rect1315" fill="url(#defitem121)" stroke-width="0.364743" stroke-linecap="round" stroke-linejoin="round" d="M100.194 70.0759C99.8031 70.8458 98.8812 70.6104 98.6768 71.0247L19.1107 31.3249L20.5328 28.4415L100.137 68.1601C100.129 68.1759 100.121 68.1915 100.113 68.2074C99.9537 68.5314 100.588 69.3001 100.194 70.0759Z"  />
        <path fill="#000000" stroke-width="0.729486" stroke-linecap="round" stroke-linejoin="round" d="M22.4281 29.391L20.0601 28.2208L15.0824 38.2938L17.4504 39.4639L22.4281 29.391Z"  />
        <path id="path3301" fill="url(#defitem122)" stroke-width="0.172603" stroke-linecap="round" stroke-linejoin="round" d="M19.4897 29.6438C19.8366 28.9433 34.7055 35.6312 52.7003 44.5816C70.6951 53.532 85.0015 61.3557 84.6545 62.0562"  />
        <path id="path3321" fill="url(#defitem123)" stroke-width="0.138462" stroke-linecap="round" stroke-linejoin="round" d="M18.5594 30.782C18.668 30.5616 36.8614 39.4271 59.3106 50.6398C81.7599 61.8525 100.063 71.2155 100.307 71.6121C100.551 72.0086 82.6449 63.2902 60.1995 52.0837C37.754 40.8773 19.1701 31.3772 18.5734 30.8046"  />
        <path id="path5549" fill="url(#defitem124)" stroke-width="0.364743" stroke-linecap="round" stroke-linejoin="round" d="M25.5964 30.9674C26.9423 31.2365 28.4239 32.0339 29.3644 32.8428L25.3481 40.8935L21.5801 39.0181L25.5964 30.9674ZM22.0001 38.1664L25.7681 40.0419L24.368 42.8806C23.2051 42.6711 21.6887 41.9512 20.6001 41.0051L22.0001 38.1664Z"  />
        <path id="path2265" fill="#000000" stroke-width="0" d="M110.474 82.3058C111.828 81.6332 112.227 79.0419 112.757 78.0941L121.913 85.2731L110.474 82.3058Z"  fill-rule="evenodd" />
        <path fill="url(#defitem125)" stroke-width="0" stroke-linecap="round" stroke-linejoin="round" d="M19.2372 31.3861L18.2873 30.9134L16.144 35.2592L17.0938 35.7319L19.2372 31.3861Z"  />
        <path id="path3233" fill="url(#defitem126)" stroke-width="0.729486" d="M16.2323 31.4846C15.1198 33.3661 14.6545 35.5365 14.6568 35.7262C14.6592 35.9158 15.4575 33.377 16.4356 31.9701C17.4061 30.574 19.2386 29.8178 19.3324 29.6576C19.4262 29.4973 19.9582 28.1571 19.1378 28.526C18.2797 28.9118 17.0919 30.0322 16.2323 31.4846Z"  fill-rule="evenodd" />
        <path id="path5554" fill="url(#defitem127)" stroke-width="0.729486" d="M60.0783 58.6422C59.833 58.5215 59.619 58.4757 59.4362 58.5049C59.2534 58.5342 59.1188 58.6357 59.0324 58.8096C58.9464 58.9828 58.9472 59.1505 59.0348 59.3129C59.1224 59.4752 59.2888 59.6168 59.5341 59.7376C59.7808 59.859 59.9956 59.9051 60.1784 59.8759C60.3611 59.8466 60.4955 59.7454 60.5816 59.5723C60.668 59.3984 60.6674 59.2303 60.5798 59.0679C60.4922 58.9056 60.325 58.7637 60.0783 58.6422M60.2315 58.3339C60.7333 58.5809 61.0886 58.8503 61.2975 59.142C61.5064 59.4338 61.5444 59.7134 61.4115 59.9809C61.279 60.2476 61.0329 60.3869 60.6732 60.3987C60.3134 60.4105 59.8827 60.2929 59.3809 60.0459C58.8806 59.7996 58.5252 59.5302 58.3149 59.2378C58.106 58.946 58.0678 58.6668 58.2004 58.4C58.3332 58.1325 58.5796 57.9929 58.9393 57.9811C59.3004 57.97 59.7312 58.0876 60.2315 58.3339M63.616 61.0427L64.2806 62.4181L63.4422 62.0054L62.9926 61.0825L61.9892 61.2901L61.1467 60.8753L62.6481 60.5662L62.0084 59.2457L62.8488 59.6595L63.2683 60.5277L64.214 60.3316L65.0586 60.7474L63.616 61.0427M65.1464 60.7906L66.0265 61.2239L66.4452 62.1618L67.4482 61.9237L68.3304 62.3581L66.6664 62.7274L66.321 63.4226L65.5161 63.0264L65.8615 62.3311L65.1464 60.7906M70.7221 65.4365C70.4958 65.3893 70.2682 65.3254 70.0393 65.2449C69.8105 65.1643 69.5811 65.0674 69.3511 64.9542C68.8312 64.6983 68.4575 64.4189 68.2298 64.116C68.0024 63.8125 67.9541 63.5292 68.0848 63.2661C68.217 63.0001 68.4757 62.867 68.8608 62.8668C69.246 62.8666 69.7076 62.9989 70.2456 63.2638C70.4533 63.366 70.6468 63.4741 70.8261 63.588C71.0068 63.7027 71.1713 63.8218 71.3199 63.9453L71.1502 64.2868C71.002 64.1487 70.8478 64.0243 70.6878 63.9134C70.5292 63.8032 70.3635 63.7056 70.1907 63.6205C69.8701 63.4627 69.5991 63.3884 69.3777 63.3977C69.158 63.407 69.0044 63.4996 68.9169 63.6757C68.8301 63.8504 68.8468 64.0264 68.9668 64.2038C69.0868 64.3811 69.3008 64.5457 69.6088 64.6973C69.6925 64.7385 69.7711 64.774 69.8448 64.8038C69.9201 64.8336 69.9894 64.8567 70.0524 64.873L70.2116 64.5525L69.7203 64.3106L69.862 64.0254L71.1163 64.643L70.7221 65.4365M72.1876 64.2569L74.3598 65.3263L74.2 65.6479L72.8327 64.9748L72.68 65.2821L73.9658 65.915L73.806 66.2367L72.5202 65.6037L72.3324 65.9817L73.7457 66.6775L73.5859 66.9991L71.3677 65.9071L72.1876 64.2569M75.1145 65.6978L76.0134 66.1404L76.5864 67.831L77.1487 66.6992L77.9117 67.0749L77.0919 68.7251L76.1929 68.2825L75.62 66.5919L75.0577 67.7237L74.2946 67.348L75.1145 65.6978M80.1822 68.1926L81.0811 68.6352L81.654 70.3258L82.2163 69.194L82.9794 69.5697L82.1595 71.2199L81.2606 70.7773L80.6877 69.0866L80.1254 70.2184L79.3623 69.8428L80.1822 68.1926M84.5915 70.3262C84.8883 70.4723 85.1022 70.6285 85.233 70.7947C85.3651 70.9615 85.3965 71.115 85.3269 71.255C85.2574 71.395 85.1167 71.4633 84.905 71.46C84.6933 71.4566 84.4383 71.3815 84.1401 71.2347C83.8418 71.0879 83.6264 70.9314 83.4939 70.7652C83.3627 70.5998 83.3319 70.4471 83.4014 70.3071C83.471 70.1671 83.6118 70.0984 83.8239 70.101C84.0373 70.1043 84.2932 70.1793 84.5915 70.3262M83.2101 70.9488L84.9307 71.7959L84.8209 72.0169L83.1003 71.1699L83.2101 70.9488M84.4981 70.5141C84.381 70.4564 84.2789 70.435 84.1917 70.4499C84.106 70.4654 84.0418 70.516 83.9994 70.6014C83.9569 70.6869 83.9557 70.7679 83.9957 70.8445C84.0371 70.9217 84.1164 70.9892 84.2334 71.0468C84.3491 71.1038 84.4497 71.1248 84.5351 71.11C84.6219 71.0959 84.6865 71.0461 84.729 70.9606C84.7715 70.8751 84.7722 70.7934 84.7311 70.7154C84.6915 70.6381 84.6138 70.571 84.4981 70.5141M88.8818 73.4218C89.078 73.5542 89.2127 73.6829 89.2859 73.8079C89.3609 73.9328 89.3711 74.0502 89.3165 74.16C89.2353 74.3235 89.0549 74.3897 88.7755 74.3586C88.4965 74.3267 88.1298 74.1989 87.6754 73.9752C87.5151 73.8963 87.3576 73.81 87.2029 73.7164C87.0492 73.6243 86.9004 73.5258 86.7565 73.421L86.9196 73.0927C87.0503 73.2066 87.1844 73.3102 87.3219 73.4036C87.4612 73.4969 87.6026 73.5789 87.7461 73.6496C87.9594 73.7546 88.1321 73.8153 88.2644 73.8318C88.3981 73.849 88.4831 73.8212 88.5193 73.7482C88.5567 73.6731 88.5263 73.5875 88.4283 73.4916C88.332 73.3956 88.1703 73.2916 87.9431 73.1798L87.6211 73.0213L87.7573 72.7472L88.096 72.9139C88.2981 73.0134 88.4568 73.0709 88.5723 73.0865C88.6881 73.1013 88.763 73.0745 88.797 73.006C88.8285 72.9426 88.8048 72.8699 88.7258 72.7879C88.6469 72.706 88.5196 72.6217 88.344 72.5353C88.2143 72.4715 88.0795 72.4147 87.9394 72.365C87.7993 72.3153 87.6562 72.2733 87.5102 72.239L87.6651 71.9273C87.8357 71.982 88.002 72.0418 88.1639 72.1069C88.3259 72.1719 88.4821 72.2415 88.6326 72.3156C89.0382 72.5153 89.3238 72.6999 89.4893 72.8694C89.6567 73.0389 89.7052 73.1944 89.6349 73.3359C89.5869 73.4324 89.4995 73.4879 89.3726 73.5025C89.246 73.5163 89.0824 73.4894 88.8818 73.4218"  />
        <path fill="url(#defitem128)" stroke-width="0" stroke-linecap="round" stroke-linejoin="round" d="M20.4596 28.3261L19.771 28.106L18.5019 31.1772L19.1904 31.3974L20.4596 28.3261Z"  />
        <path fill="url(#defitem129)" stroke-width="0" stroke-linecap="round" stroke-linejoin="round" d="M15.2923 38.6217L14.6787 38.2394L16.1978 35.2838L16.8114 35.6661L15.2923 38.6217Z"  />
      </g>
      <path id="path2167" fill="#000000" d=""  />
      <g id="g3036">
        <path id="path4922" fill="#000000" d=""  />
      </g>
      <path id="path4924" fill="#000000" d=""  />
      <g id="g4926">
      </g>
      <g id="g4928">
      </g>
      <g id="g4930">
      </g>
      <path id="path10095" fill="#000000" d=""  />
      <path id="path2276" fill="#ffffff" fill-opacity="0.756881" stroke-width="0.5" stroke-linecap="round" stroke-linejoin="round" d="M72.7412 -14.182L72.7412 -16.977L72.7412 -14.182Z"  />
      <path id="path2191" fill="#ffffff" fill-opacity="0.756881" stroke-width="0.5" stroke-linecap="round" stroke-linejoin="round" d="M367.351 -76.373L367.351 -79.168L367.351 -76.373Z"  />
      <path id="path2985" fill="#ffffff" fill-opacity="0.756881" stroke-width="0.5" stroke-linecap="round" stroke-linejoin="round" d="M210.342 -146.008L210.342 -148.803L210.342 -146.008Z"  />
      <path id="path3206" fill="#ffffff" fill-opacity="0.756881" stroke-width="0.5" stroke-linecap="round" stroke-linejoin="round" d="M90.8401 -232.638L90.8401 -235.433L90.8401 -232.638Z"  />
      <g id="g2878">
      </g>
      <g id="g4938">
      </g>
      <path id="path3946" fill="#ffffff" fill-opacity="0.756881" stroke-width="0.5" stroke-linecap="round" stroke-linejoin="round" d="M337.432 -166.883L337.432 -169.678L337.432 -166.883Z"  />
      <path id="path1561" fill="#ffffff" fill-opacity="0.756881" stroke-width="0.5" stroke-linecap="round" stroke-linejoin="round" d="M244.807 -92.989L244.807 -94.516L244.807 -92.989Z"  />
      <path fill="#ffffff" stroke-width="3.632" stroke-linecap="round" stroke-linejoin="round" d="M187.322 -149.589L187.322 -149.589L188.322 -149.589L188.322 -149.589L187.322 -149.589Z"  />
      <path fill="#ffffff" stroke-width="3.632" stroke-linecap="round" stroke-linejoin="round" d="M152.196 -177.117L152.196 -177.117L153.196 -177.117L153.196 -177.117L152.196 -177.117Z"  />
      <path id="path2494" fill="#ffffff" fill-opacity="0.756881" stroke-width="0.5" stroke-linecap="round" stroke-linejoin="round" d="M-6.74187 -250.333L-6.74187 -253.128L-6.74187 -250.333Z"  />
      <g id="g4640">
      </g>
      <g id="g4646">
      </g>
      <g id="g4730">
      </g>
      <g id="g4748">
      </g>
      <g id="g5604">
        <path id="path3413" fill="#ffffff" fill-opacity="0.756881" stroke-width="0.121645" stroke-linecap="round" stroke-linejoin="round" d="M54.6616 15.891L54.3217 15.302L54.6616 15.891Z"  />
        <path id="path11" fill="#313131" fill-opacity="0.23" stroke-width="0.24329" d="M54.8838 34.0124L59.9805 14.992C60.9172 11.496 64.5234 9.413 68.0196 10.35C71.5158 11.287 73.5977 14.893 72.661 18.389L68.7866 32.8486C68.0283 35.6788 65.1089 37.3643 62.2788 36.6059C59.4486 35.8476 57.7631 32.9282 58.5214 30.0981L61.8295 17.752C61.8742 17.585 62.0454 17.486 62.2123 17.531L63.42 17.855C63.587 17.899 63.6858 18.071 63.641 18.238L60.3329 30.5835C59.8423 32.4146 60.933 34.3038 62.7642 34.7944C64.5953 35.2851 66.4845 34.1944 66.9751 32.3632L70.8495 17.904C71.5186 15.407 70.0314 12.831 67.5342 12.162C65.037 11.493 62.4611 12.98 61.792 15.477L56.6954 34.4978C55.8478 37.661 57.7315 40.9237 60.8947 41.7713C64.0579 42.6188 67.3206 40.7351 68.1682 37.5719L72.6985 20.665C72.7433 20.498 72.9144 20.399 73.0814 20.444L74.289 20.767C74.456 20.812 74.5548 20.983 74.5101 21.15L69.9797 38.0573C68.8645 42.2192 64.5713 44.698 60.4093 43.5828C56.2474 42.4676 53.7687 38.1743 54.8838 34.0124Z"  />
        <g id="g2244">
          <path id="path2250" fill="#313131" fill-opacity="0.23" stroke-width="0.312568" d="M54.4662 33.5282L59.5628 14.507C60.4995 11.011 64.1057 8.929 67.6019 9.866C71.0981 10.803 73.1801 14.409 72.2433 17.905L68.369 32.3645C67.6106 35.1946 64.6913 36.8801 61.8611 36.1218C59.0309 35.3634 57.3454 32.4441 58.1038 29.6139L61.4118 17.268C61.4566 17.101 61.6277 17.002 61.7947 17.047L63.0023 17.371C63.1693 17.415 63.2681 17.586 63.2233 17.753L59.9153 30.0993C59.4246 31.9304 60.5154 33.8196 62.3465 34.3103C64.1776 34.8009 66.0668 33.7102 66.5575 31.8791L70.4318 17.42C71.1009 14.923 69.6137 12.347 67.1165 11.678C64.6194 11.008 62.0434 12.496 61.3743 14.993L56.2777 34.0136C55.4301 37.1768 57.3139 40.4395 60.477 41.2871C63.6402 42.1347 66.903 40.2509 67.7506 37.0878L72.2809 20.18C72.3256 20.013 72.4967 19.915 72.6637 19.959L73.8714 20.283C74.0383 20.328 74.1371 20.499 74.0924 20.666L69.5621 37.5731C68.4469 41.7351 64.1536 44.2138 59.9917 43.0986C55.8297 41.9834 53.351 37.6901 54.4662 33.5282Z"  />
          <path id="path2258" fill="url(#defitem130)" stroke-width="0.312568" d="M60.1535 42.4948C56.1515 41.4225 53.7767 37.3091 54.849 33.3072L59.9456 14.286C60.8392 10.951 64.267 8.972 67.6019 9.866C70.9369 10.76 72.9159 14.187 72.0223 17.522L68.0589 32.314C67.3441 34.9817 64.6016 36.5651 61.9338 35.8503C59.2661 35.1355 57.6826 32.3933 58.3975 29.7252L61.7947 17.047L63.0023 17.371L59.6052 30.0488C59.0699 32.0466 60.2596 34.1073 62.2574 34.6426C64.2552 35.1779 66.3159 33.9882 66.8512 31.9904L70.8146 17.199C71.5283 14.535 69.9419 11.787 67.2783 11.074C64.6148 10.36 61.867 11.946 61.1533 14.61L56.0567 33.6308C55.1645 36.9603 57.1478 40.395 60.477 41.2871C63.8066 42.1793 67.2413 40.196 68.1334 36.8667L72.6637 19.959L73.8714 20.283L69.341 37.1903C68.2687 41.1922 64.1554 43.5671 60.1535 42.4948Z"  />
          <path id="path2266" fill="url(#defitem131)" stroke-width="0.312568" d="M62.8613 34.8044C62.8102 34.7907 62.7623 34.7717 62.7123 34.7564C64.6613 35.1926 66.6316 34.0178 67.1531 32.0713L70.8146 17.199C71.5147 14.586 70.301 11.978 67.7292 11.203C67.7802 11.215 67.8312 11.222 67.8822 11.235C70.5457 11.949 72.1322 14.697 71.4185 17.361L67.4551 32.1522C66.9198 34.15 64.8591 35.3397 62.8613 34.8044ZM60.5494 14.448L55.4528 33.469C54.394 37.4205 56.697 41.4784 60.6074 42.6122C60.5567 42.5996 60.5058 42.5892 60.4554 42.5757C56.4535 41.5034 54.0786 37.39 55.1509 33.3881L59.9456 14.286C60.8392 10.951 64.5689 9.053 67.9039 9.947C67.9549 9.961 68.0024 9.98 68.0528 9.995C64.7668 9.201 61.4294 11.164 60.5494 14.448ZM58.6995 29.8061L62.0966 17.128L62.3985 17.209L59.0014 29.887C58.3001 32.504 59.8126 35.1874 62.3887 35.9641C62.3379 35.9521 62.2868 35.9449 62.2358 35.9312C59.568 35.2164 57.9846 32.4742 58.6995 29.8061ZM61.0809 41.4489C61.0299 41.4352 60.9823 41.4157 60.9319 41.4009C64.2133 42.1928 67.5568 40.2262 68.4353 36.9476L72.9656 20.04L73.2675 20.121L68.7372 37.0285C67.8451 40.3578 64.4104 42.3411 61.0809 41.4489Z"  />
          <path id="path2274" fill="url(#defitem132)" stroke-width="0.312568" d="M59.4542 30.0084L62.8514 17.33L63.1533 17.411L59.7562 30.0893C59.2345 32.036 60.3535 34.0383 62.2595 34.6351C62.2086 34.6234 62.1575 34.6158 62.1065 34.6022C60.1087 34.0669 58.9189 32.0062 59.4542 30.0084Z"  />
          <path id="path2282" fill="url(#defitem133)" stroke-width="0.312568" d="M61.3042 14.65L56.2076 33.6712C55.3291 36.9498 57.2416 40.3251 60.4791 41.2796C60.428 41.2672 60.3771 41.2603 60.3261 41.2467C56.9968 40.3546 55.0136 36.9199 55.9057 33.5903L61.0023 14.57C61.716 11.906 64.4639 10.32 67.1274 11.033C67.1784 11.047 67.2259 11.066 67.2763 11.081C64.6612 10.467 62.0043 12.038 61.3042 14.65Z"  />
          <path id="path2290" fill="url(#defitem134)" stroke-width="0.312568" d="M60.3044 42.5352C60.254 42.5217 60.2047 42.5053 60.1545 42.4909C64.1079 43.4641 68.1313 41.1014 69.1901 37.1499L73.7204 20.242L74.0223 20.323L69.492 37.2308C68.4197 41.2327 64.3063 43.6075 60.3044 42.5352Z"  />
          <path id="path2298" fill="url(#defitem135)" stroke-width="0.312568" d="M62.1738 35.5584C62.1228 35.5447 62.0749 35.5254 62.0249 35.5104C64.6439 36.1258 67.2958 34.5582 67.997 31.9412L71.8714 17.482C72.7513 14.198 70.8426 10.829 67.5999 9.874C67.651 9.886 67.7019 9.893 67.7529 9.906C71.0879 10.8 73.0669 14.228 72.1733 17.563L68.2989 32.0221C67.5841 34.6898 64.8416 36.2732 62.1738 35.5584Z"  />
          <path id="path2367" fill="url(#defitem136)" stroke-width="0.312568" d="M62.8613 34.8044C62.8102 34.7907 62.7623 34.7717 62.7123 34.7564C64.6613 35.1926 66.6316 34.0178 67.1531 32.0713L70.8146 17.199C71.5147 14.586 70.301 11.978 67.7292 11.203C67.7802 11.215 67.8312 11.222 67.8822 11.235C70.5457 11.949 72.1322 14.697 71.4185 17.361L67.4551 32.1522C66.9198 34.15 64.8591 35.3397 62.8613 34.8044ZM60.5494 14.448L55.4528 33.469C54.394 37.4205 56.697 41.4784 60.6074 42.6122C60.5567 42.5996 60.5058 42.5892 60.4554 42.5757C56.4535 41.5034 54.0786 37.39 55.1509 33.3881L59.9456 14.286C60.8392 10.951 64.5689 9.053 67.9039 9.947C67.9549 9.961 68.0024 9.98 68.0528 9.995C64.7668 9.201 61.4294 11.164 60.5494 14.448ZM58.6995 29.8061L62.0966 17.128L62.3985 17.209L59.0014 29.887C58.3001 32.504 59.8126 35.1874 62.3887 35.9641C62.3379 35.9521 62.2868 35.9449 62.2358 35.9312C59.568 35.2164 57.9846 32.4742 58.6995 29.8061ZM61.0809 41.4489C61.0299 41.4352 60.9823 41.4157 60.9319 41.4009C64.2133 42.1928 67.5568 40.2262 68.4353 36.9476L72.9656 20.04L73.2675 20.121L68.7372 37.0285C67.8451 40.3578 64.4104 42.3411 61.0809 41.4489Z"  />
        </g>
        <path fill="url(#defitem137)" stroke-width="1.25635" d="M63.6213 17.268C63.6213 17.268 63.2634 17.175 62.8225 17.061L62.8225 17.061C62.3815 16.947 62.0237 16.855 62.0237 16.855L58.3768 30.9587C58.3768 30.9587 58.7347 31.0512 59.1756 31.1652L59.1756 31.1652C59.6166 31.2792 59.9744 31.3718 59.9744 31.3718L63.6213 17.268Z"  />
        <path fill="url(#defitem138)" stroke-width="1.25635" d="M71.9928 17.274C71.9928 17.274 71.806 17.225 71.5759 17.166L71.5235 17.152C71.2934 17.093 71.1066 17.044 71.1066 17.044L66.756 33.87C66.756 33.87 66.9428 33.9183 67.1729 33.9778L67.2253 33.9914C67.4554 34.0509 67.6422 34.0992 67.6422 34.0992L71.9928 17.274Z"  />
        <path fill="url(#defitem139)" stroke-width="1.94632" d="M69.0933 34.415C69.0933 34.415 69.0122 34.393 68.9123 34.3659L68.7712 34.3276C68.6713 34.3004 68.5902 34.2784 68.5902 34.2784L72.4044 20.232C72.4044 20.232 72.4855 20.254 72.5854 20.281L72.7265 20.32C72.8264 20.347 72.9075 20.369 72.9075 20.369L69.0933 34.415Z"  />
        <path fill="url(#defitem140)" stroke-width="1.25635" d="M71.9917 17.278C71.9917 17.278 71.8986 17.254 71.7839 17.224C71.6691 17.194 71.576 17.17 71.576 17.17L67.2264 33.9917C67.2264 33.9917 67.3196 34.0157 67.4343 34.0454C67.5491 34.0751 67.6422 34.0992 67.6422 34.0992L71.9917 17.278Z"  />
      </g>
      <path id="path4226" fill="#ffffff" fill-opacity="0.756881" stroke-width="0.5" stroke-linecap="round" stroke-linejoin="round" d="M262.473 36.9435L262.473 34.1488L262.473 36.9435Z"  />
      <g id="g5735">
        <path id="path1324" fill="url(#defitem141)" stroke="#000000" stroke-width="0.986951" d="M80.0997 90.5616C83.2926 81.3129 83.4655 76.0187 89.6783 62.8154C95.8911 49.6122 108.2 28.5281 117.377 11.342C117.961 10.247 119.74 9.698 121.285 10.425C122.89 11.18 123.492 12.993 123.071 14.021C115.684 32.0496 107.279 54.9709 101.066 68.1741C94.8536 81.3774 90.8846 84.8853 85.7937 93.2409C83.8957 92.3478 81.9977 91.4547 80.0997 90.5616Z"  fill-rule="evenodd" />
        <path id="path1330" fill="url(#defitem142)" stroke="#000000" stroke-width="0" stroke-linecap="round" stroke-linejoin="round" d="M80.7506 101.245C80.0927 105.517 81.1192 109.657 78.777 114.061C75.4693 120.28 63.5827 125.002 56.9412 121.688C63.6858 119.198 65.8271 113.243 69.7521 107.678C72.29 104.08 75.3963 101.572 76.5097 99.214C77.9234 99.8911 79.337 100.568 80.7506 101.245Z"  fill-rule="evenodd" />
        <path id="path3530" fill="url(#defitem143)" stroke="#000000" stroke-width="0" stroke-linecap="round" stroke-linejoin="round" d="M79.6751 101.569C79.3768 104.69 78.8562 110.197 77.4424 113.354C75.4459 117.813 65.748 122.382 61.204 120.858C66.0847 118.693 68.357 112.581 70.6618 108.53C71.4766 107.097 76.2434 101.828 76.9068 100.132C77.8686 100.682 78.7133 101.02 79.6751 101.569Z"  fill-rule="evenodd" />
        <path id="path3534" fill="url(#defitem144)" stroke-width="0.30041" d="M80.0997 90.5616C83.2926 81.3129 83.4655 76.0187 89.6783 62.8154C95.8911 49.6122 108.2 28.5281 117.377 11.342C117.961 10.247 119.74 9.698 121.285 10.425C122.89 11.18 123.492 12.993 123.071 14.021C115.684 32.0496 107.279 54.9709 101.066 68.1741C94.8536 81.3774 90.8846 84.8853 85.7937 93.2409C83.8957 92.3478 81.9977 91.4547 80.0997 90.5616Z"  fill-rule="evenodd" />
        <path id="path3560" fill="url(#defitem145)" stroke-width="0.30041" d="M118.355 10.398C117.929 10.616 117.604 10.964 117.404 11.34C111.822 21.793 99.6756 43.417 94.2374 54.5561C96.0473 53.718 98.5121 52.4622 100.438 49.9568C104.089 45.2058 116.587 17.424 118.694 13.792C120.017 11.511 121.699 12.93 123.097 12.621C122.883 11.773 122.3 10.877 121.297 10.405C120.283 9.928 119.166 9.983 118.355 10.398Z"  fill-rule="evenodd" />
        <path id="path4228" fill="url(#defitem146)" stroke-width="0.400547" stroke-linecap="round" stroke-linejoin="round" d="M112.49 19.319C111.794 20.141 111.062 21.288 110.879 22.247L117.265 25.278L118.666 22.281L112.49 19.319ZM117.993 21.958L116.593 24.955L118.835 26.031C119.447 25.335 119.805 24.05 120.013 22.934L117.993 21.958Z"  />
        <path id="path3263" fill="url(#defitem147)" stroke-width="0.30041" d="M80.0997 90.5616C83.2926 81.3129 83.4655 76.0187 89.6783 62.8154C95.8911 49.6122 108.2 28.5281 117.377 11.342C117.961 10.247 119.74 9.698 121.285 10.425C122.89 11.18 123.492 12.993 123.071 14.021C115.684 32.0496 107.279 54.9709 101.066 68.1741C94.8536 81.3774 90.8846 84.8853 85.7937 93.2409C83.8957 92.3478 81.9977 91.4547 80.0997 90.5616Z"  fill-rule="evenodd" />
        <path id="text3284" fill="#999999" stroke-width="0.801094" d="M109.879 42.3911C109.818 42.5226 109.796 42.6368 109.814 42.7336C109.832 42.8305 109.887 42.901 109.98 42.9452C110.072 42.9893 110.161 42.9872 110.246 42.9391C110.33 42.891 110.403 42.8012 110.464 42.6697C110.525 42.5375 110.547 42.4229 110.53 42.3261C110.512 42.2292 110.457 42.1588 110.364 42.1148C110.272 42.0705 110.183 42.0725 110.098 42.1206C110.013 42.1687 109.94 42.2589 109.879 42.3911M109.714 42.3127C109.839 42.0437 109.977 41.8523 110.129 41.7385C110.28 41.6247 110.428 41.6018 110.571 41.6698C110.713 41.7377 110.79 41.8671 110.8 42.0581C110.811 42.2492 110.754 42.4792 110.629 42.7482C110.505 43.0164 110.366 43.2078 110.214 43.3223C110.063 43.4362 109.916 43.4591 109.773 43.3913C109.63 43.3233 109.553 43.1937 109.543 43.0027C109.533 42.8109 109.59 42.5809 109.714 42.3127M111.106 40.4882L111.825 40.1219L111.617 40.5713L111.134 40.8191L111.256 41.3503L111.046 41.8019L110.865 41.0072L110.175 41.3598L110.384 40.9092L110.838 40.678L110.723 40.1774L110.933 39.7246L111.106 40.4882M110.955 39.6775L111.173 39.2057L111.664 38.9742L111.526 38.4436L111.745 37.9706L111.96 38.8512L112.332 39.0281L112.132 39.4596L111.76 39.2827L110.955 39.6775M113.344 36.6702C113.322 36.7909 113.291 36.9124 113.251 37.0348C113.211 37.1572 113.162 37.28 113.105 37.4033C112.976 37.682 112.833 37.8833 112.676 38.0072C112.518 38.1309 112.369 38.1593 112.228 38.0924C112.086 38.0247 112.013 37.8885 112.008 37.6839C112.003 37.4792 112.068 37.2327 112.201 36.9443C112.253 36.8329 112.308 36.7291 112.366 36.6327C112.424 36.5356 112.485 36.447 112.549 36.3669L112.731 36.4538C112.66 36.5339 112.596 36.617 112.539 36.703C112.483 36.7884 112.433 36.8774 112.391 36.97C112.311 37.1419 112.275 37.2866 112.282 37.4042C112.29 37.5208 112.341 37.6015 112.435 37.6463C112.528 37.6907 112.621 37.6802 112.713 37.6147C112.806 37.5492 112.89 37.4339 112.966 37.2688C112.987 37.224 113.005 37.1818 113.02 37.1424C113.035 37.1021 113.046 37.0651 113.054 37.0314L112.883 36.9499L112.761 37.2133L112.608 37.1408L112.92 36.4683L113.344 36.6702M112.703 35.9028L113.243 34.7384L113.415 34.8202L113.075 35.5531L113.239 35.6313L113.559 34.942L113.731 35.0238L113.411 35.7131L113.613 35.8093L113.964 35.0516L114.136 35.1334L113.585 36.3226L112.703 35.9028M113.43 34.3338L113.654 33.8518L114.54 33.5312L113.936 33.2433L114.125 32.8342L115.007 33.2539L114.784 33.7359L113.897 34.0565L114.502 34.3444L114.312 34.7535L113.43 34.3338M114.689 31.6171L114.912 31.1351L115.799 30.8144L115.194 30.5266L115.384 30.1175L116.265 30.5372L116.042 31.0191L115.156 31.3398L115.76 31.6277L115.571 32.0368L114.689 31.6171M115.765 29.2536C115.838 29.0945 115.918 28.9794 116.005 28.9083C116.091 28.8364 116.172 28.8183 116.247 28.8539C116.322 28.8895 116.359 28.9636 116.36 29.0761C116.361 29.1886 116.324 29.3248 116.25 29.4847C116.176 29.6446 116.096 29.7606 116.01 29.8326C115.924 29.9039 115.843 29.9217 115.769 29.8861C115.694 29.8505 115.656 29.7764 115.655 29.6637C115.654 29.5502 115.691 29.4135 115.765 29.2536M116.11 29.9816L116.537 29.0592L116.655 29.1155L116.228 30.0378L116.11 29.9816M115.865 29.3014C115.836 29.3642 115.826 29.4187 115.835 29.4648C115.844 29.5103 115.871 29.5439 115.917 29.5656C115.963 29.5873 116.006 29.5872 116.045 29.5652C116.086 29.5425 116.121 29.4997 116.15 29.4369C116.178 29.3749 116.188 29.3213 116.179 29.276C116.171 29.2301 116.144 29.1962 116.098 29.1745C116.053 29.1527 116.009 29.1531 115.969 29.1757C115.928 29.1975 115.894 29.2394 115.865 29.3014M117.35 26.944C117.418 26.839 117.484 26.766 117.549 26.726C117.614 26.685 117.676 26.678 117.735 26.706C117.822 26.748 117.859 26.843 117.846 26.992C117.833 27.14 117.769 27.336 117.657 27.58C117.617 27.666 117.573 27.75 117.525 27.833C117.479 27.916 117.428 27.996 117.375 28.0735L117.199 27.99C117.258 27.919 117.311 27.847 117.359 27.773C117.406 27.698 117.448 27.622 117.484 27.545C117.537 27.431 117.567 27.339 117.574 27.268C117.581 27.197 117.566 27.152 117.527 27.134C117.487 27.115 117.442 27.131 117.392 27.184C117.343 27.237 117.29 27.323 117.233 27.445L117.153 27.618L117.007 27.548L117.091 27.367C117.141 27.258 117.17 27.173 117.176 27.112C117.183 27.05 117.168 27.011 117.131 26.993C117.097 26.977 117.059 26.99 117.017 27.033C116.974 27.076 116.931 27.144 116.888 27.238C116.856 27.308 116.827 27.38 116.803 27.455C116.778 27.53 116.757 27.606 116.741 27.684L116.575 27.605C116.601 27.514 116.631 27.425 116.664 27.338C116.696 27.252 116.731 27.168 116.768 27.087C116.869 26.87 116.963 26.716 117.051 26.627C117.138 26.536 117.22 26.509 117.296 26.545C117.347 26.569 117.378 26.615 117.387 26.683C117.396 26.75 117.383 26.837 117.35 26.944"  />
        <path id="path2624" fill="url(#defitem148)" stroke="#000000" stroke-width="0" stroke-linecap="round" stroke-linejoin="round" d="M80.7506 101.245C80.0927 105.517 81.1192 109.657 78.777 114.061C75.4693 120.28 67.039 112.939 70.7673 107.24C73.2602 103.43 75.3963 101.572 76.5097 99.214C77.9234 99.8911 79.337 100.568 80.7506 101.245Z"  fill-rule="evenodd" />
        <g id="g2634">
          <path id="path3213" fill="url(#defitem149)" stroke-width="0.400547" stroke-linecap="round" stroke-linejoin="round" d="M74.8626 99.0545C75.1925 97.7886 75.7781 96.2246 76.4934 95.2796L82.4219 98.1968L80.6222 101.85L74.8626 99.0545ZM79.9947 101.546L81.7944 97.8926L83.8862 98.9064C83.6192 99.998 82.7202 101.359 81.8846 102.453L79.9947 101.546Z"  />
          <path id="path3217" fill="url(#defitem150)" stroke-width="0.400547" stroke-linecap="round" stroke-linejoin="round" d="M76.5198 95.4502C76.8457 94.1823 77.4288 92.6171 78.1477 91.6739L84.1799 94.642L82.3799 98.2951L76.5198 95.4502ZM81.7414 97.9856L83.5414 94.3325L85.6697 95.3642C85.4063 96.4576 84.504 97.8167 83.6641 98.9094L81.7414 97.9856Z"  />
          <path id="path3221" fill="url(#defitem151)" stroke-width="0.400547" stroke-linecap="round" stroke-linejoin="round" d="M78.1363 91.77C78.4541 90.4981 79.0323 88.9305 79.7584 87.9908L85.9977 91.0608L84.1971 94.7136L78.1363 91.77ZM83.5367 94.3934L85.3373 90.7405L87.5385 91.808C87.2826 92.9051 86.3736 94.2609 85.5252 95.3494L83.5367 94.3934Z"  />
          <path id="path3225" fill="url(#defitem152)" stroke-width="0.400547" stroke-linecap="round" stroke-linejoin="round" d="M79.8095 88.1339C80.1232 86.86 80.6989 85.2912 81.4286 84.3533L87.7714 87.4742L85.9706 91.1269L79.8095 88.1339ZM85.2993 90.8013L87.1001 87.1486L89.3377 88.234C89.0856 89.333 88.1732 90.6871 87.3206 91.7735L85.2993 90.8013Z"  />
          <path id="path3271" fill="url(#defitem153)" stroke-width="0.400547" stroke-linecap="round" stroke-linejoin="round" d="M81.4378 84.3388C80.7309 85.2474 80.1627 86.7654 79.843 88.0165L79.7587 87.9839C79.0553 88.8942 78.4875 90.4123 78.164 91.6615L78.138 91.6698C77.4482 92.5746 76.8986 94.0724 76.5661 95.3105L76.4819 95.2779C75.7665 96.2228 75.2002 97.7838 74.8703 99.0498L80.6355 101.85L81.8857 102.462C82.7213 101.368 83.6285 99.982 83.8955 98.8904L83.7531 98.817C84.5698 97.7428 85.413 96.4233 85.6681 95.3641L85.5547 95.311C86.3955 94.2284 87.2915 92.8904 87.5447 91.8047L87.3731 91.7108C88.2102 90.6363 89.0933 89.3175 89.3402 88.2414L87.776 87.4617L81.4378 84.3388Z"  />
        </g>
      </g>
      <g id="g4984">
        <path id="path4986" fill="#ffffff" fill-opacity="0.756881" stroke-width="0.295735" stroke-linecap="round" stroke-linejoin="round" d="M31.1017 53.7433L31.1017 52.0903L31.1017 53.7433Z"  />
        <path id="path4988" fill="url(#defitem154)" stroke-width="0" stroke-linecap="round" stroke-linejoin="round" d="M38.7988 113.666C28.2173 113.666 18.6584 114.47 11.7945 115.774C27.6312 117.96 41.7047 117.711 54.3064 114.295C49.5706 113.898 44.3289 113.666 38.7988 113.666ZM11.203 115.903C4.89114 117.159 1.00015 118.837 1.00015 120.69C1.00015 124.569 17.932 127.714 38.7988 127.714C59.6655 127.714 76.5974 124.569 76.5974 120.69C76.5974 120.093 76.2069 119.506 75.4514 118.953C58.4167 121.904 41.1129 124.478 20.5556 122.649L11.203 115.903Z"  />
        <path id="path4106" fill="#878787" stroke-width="0.059147" stroke-linecap="round" stroke-linejoin="round" d="M12.5916 99.1035L3.91675 107.778L21.02 124.882L29.6948 116.207L12.5916 99.1035Z"  />
        <path id="path4108" fill="#bababa" stroke-width="0.59147" stroke-linecap="round" stroke-linejoin="round" d="M53.8141 62.6347L48.0159 62.6347L65.98 80.7624L65.98 74.4935L53.8141 62.6347Z"  />
        <path id="rect4127" fill="#4b4b4b" stroke-width="0.59147" stroke-linecap="round" stroke-linejoin="round" d="M48.1713 62.602L53.8777 62.602L50.2256 65.9688L47.4865 63.3439L48.1713 62.602Z"  />
        <path id="path4119" fill="url(#defitem155)" stroke-width="0.59147" stroke-linecap="round" stroke-linejoin="round" d="M53.794 62.6015L48.051 62.6015L65.8439 80.6151L65.8439 74.3856L53.794 62.6015Z"  />
        <path id="path3467" fill="url(#defitem156)" stroke-width="0.059147" stroke-linecap="round" stroke-linejoin="round" d="M12.8801 98.8257L4.29866 107.395L20.9398 124.083L29.5212 115.513L12.8801 98.8257Z"  />
        <path id="rect4110" fill="url(#defitem157)" stroke-width="0.059147" stroke-linecap="round" stroke-linejoin="round" d="M54.2403 68.8468L18.099 104.988L23.6973 110.586L59.7952 74.4798L66.0184 80.7116L66.0618 80.6683L54.2403 68.8468Z"  />
        <path id="path3547" fill="url(#defitem158)" stroke-width="0.059147" stroke-linecap="round" stroke-linejoin="round" d="M5.32669 108.265L13.6966 99.9044L12.7684 98.9756L4.3652 107.418L5.32669 108.265Z"  />
        <path id="path3498" fill="#ffffff" stroke-width="0.059147" stroke-linecap="round" stroke-linejoin="round" d="M13.6141 99.0681L4.63119 108.042L5.44446 108.051L14.0392 99.4933L13.6141 99.0681Z"  />
        <path id="path3537" fill="url(#defitem159)" stroke-width="0.059147" stroke-linecap="round" stroke-linejoin="round" d="M48.1203 63.7438L52.9305 63.5135L53.7881 62.6132L48.0869 62.7026L48.1203 63.7438Z"  />
        <path id="rect4112" fill="url(#defitem160)" stroke-width="0.059147" stroke-linecap="round" stroke-linejoin="round" d="M47.9911 62.5976L11.8498 98.7389L18.099 104.988L54.2403 68.8468L47.9911 62.5976Z"  />
        <path id="rect4129" fill="#ffffff" stroke-width="0.59147" stroke-linecap="round" stroke-linejoin="round" d="M62.6372 78.2661L65.2051 81.0052L65.9469 80.3205L65.9469 74.614L62.6372 78.2661Z"  />
        <path id="path3541" fill="url(#defitem161)" stroke-width="0.059147" stroke-linecap="round" stroke-linejoin="round" d="M64.5429 80.4761L64.9778 75.685L65.9251 74.5976L65.8378 80.5094L64.5429 80.4761Z"  />
        <path id="path4117" fill="url(#defitem162)" stroke-width="0.059147" stroke-linecap="round" stroke-linejoin="round" d="M59.7952 74.4835L23.6539 110.625L29.9031 116.874L66.0445 80.7327L59.7952 74.4835Z"  />
        <path id="path3523" fill="url(#defitem163)" stroke-width="0.059147" stroke-linecap="round" stroke-linejoin="round" d="M47.9911 62.628L11.8497 98.7693L29.9283 116.996L66.0697 80.8545L47.9911 62.628Z"  />
        <path id="path4186" fill="#ffffff" stroke-width="0.059147" stroke-linecap="round" stroke-linejoin="round" d="M48.1617 62.8675L12.3249 99.0472L12.5712 99.3051L48.2515 63.6122L65.9632 80.7557L65.9665 80.7279L54.1665 68.8541L48.1617 62.8675Z"  />
        <path id="text2494" fill="#eff8ff" stroke-width="0.59147" d="M58.7438 86.0828C58.6047 86.222 58.4636 86.3051 58.3204 86.3321C58.1774 86.3584 58.0579 86.3238 57.9619 86.2283C57.8653 86.1322 57.8307 86.0129 57.8579 85.8705C57.8853 85.7273 57.9701 85.5846 58.1123 85.4422C58.2542 85.3002 58.3967 85.2153 58.5397 85.1873C58.6828 85.1593 58.8025 85.1932 58.8988 85.289C58.9969 85.3868 59.0322 85.507 59.0046 85.6499C58.9767 85.7925 58.8897 85.9368 58.7438 86.0828M58.6815 86.0167C58.784 85.914 58.841 85.8125 58.8524 85.7121C58.8636 85.6114 58.8283 85.5205 58.7468 85.4394C58.6678 85.3607 58.5778 85.3275 58.4767 85.3396C58.3761 85.3513 58.2762 85.4069 58.1768 85.5063C58.077 85.6062 58.0215 85.7065 58.0103 85.8072C57.9989 85.9076 58.033 85.9974 58.1126 86.0766C58.1919 86.1556 58.282 86.1898 58.383 86.1794C58.484 86.169 58.5834 86.1148 58.6815 86.0167M59.2849 85.511L59.3127 84.8747L58.6939 84.8904L58.862 84.7223L59.3321 84.7087L59.3565 84.2273L59.4906 84.0931L59.4636 84.7057L60.106 84.6892L59.938 84.8574L59.4424 84.8727L59.4197 85.3761L59.2849 85.511M60.4901 84.3048L60.2366 84.0525L59.5483 84.0354L59.7108 83.8727L60.2451 83.8851L60.2515 83.3316L60.3836 83.1994L60.3772 83.9084L60.6324 84.1624L60.4901 84.3048M61.8748 82.8863C61.7744 83.0288 61.679 83.1453 61.5886 83.2357C61.4292 83.3953 61.2793 83.4904 61.1389 83.5211C60.9991 83.5514 60.8779 83.5155 60.7753 83.4134C60.6746 83.3133 60.6396 83.1922 60.67 83.0504C60.7002 82.9082 60.7932 82.7592 60.949 82.6032C61.0511 82.5011 61.1665 82.404 61.295 82.3119L61.3745 82.3911C61.2079 82.5011 61.0878 82.593 61.0141 82.6667C60.9057 82.7752 60.8438 82.8816 60.8283 82.9861C60.8133 83.0902 60.8462 83.1825 60.9272 83.263C61.0073 83.3428 61.1017 83.3728 61.2105 83.3529C61.3189 83.3328 61.431 83.2649 61.5466 83.1492C61.594 83.1018 61.6402 83.0454 61.6852 82.9802L61.4874 82.7834L61.629 82.6417L61.8748 82.8863M62.1405 82.6531L61.5333 82.0488L62.0936 81.488L62.1581 81.5522L61.7401 81.9705L61.9349 82.1644L62.2852 81.8139L62.3487 81.8772L61.9985 82.2277L62.2184 82.4466L62.6655 81.9991L62.7299 82.0632L62.1405 82.6531M62.8939 81.8991L62.2867 81.2948L62.4263 81.1551L63.3999 81.1167L62.931 80.65L63.0529 80.5279L63.6601 81.1322L63.5213 81.2712L62.5469 81.3103L63.0159 81.777L62.8939 81.8991"  />
        <path id="path3489" fill="#00142d" stroke-width="0.059147" stroke-linecap="round" stroke-linejoin="round" d="M29.7536 116.998L65.1239 81.595L65.0599 81.5801L29.7659 116.519L13.3977 100.272L13.3944 100.299L29.7536 116.998Z"  />
        <path id="text3492" fill="#9c0e0e" stroke-width="0.436194" d="M28.8573 102.352L26.1144 99.6091L28.9325 96.791L29.2235 97.0819L27.121 99.1845L28.0013 100.065L29.763 98.303L30.0503 98.5903L28.2886 100.352L29.282 101.345L31.531 99.0964L31.8219 99.3873L28.8573 102.352M32.6466 98.5627L29.9037 95.8198L31.4303 94.2932C31.9142 93.8093 32.3426 93.4971 32.7154 93.3565C33.0906 93.2137 33.3887 93.2528 33.6098 93.474C33.9756 93.8397 33.8954 94.4388 33.3694 95.2713L36.3371 94.8722L35.4579 95.7514L32.8631 96.0258L32.1952 96.6937L33.3554 97.8539L32.6466 98.5627M31.9042 96.4028L32.136 96.171C33.0356 95.2714 33.2933 94.6295 32.909 94.2452C32.6261 93.9623 32.1075 94.198 31.3533 94.9522L30.9035 95.402L31.9042 96.4028M38.5697 90.5417L36.5285 90.218L36.8488 92.2625L38.5697 90.5417M40.3751 90.8342L39.0667 90.623L36.9301 92.7595L37.1344 94.0748L36.47 94.7393L35.7274 89.9961L36.4361 89.2874L41.1486 90.0606L40.3751 90.8342M42.9313 88.4152C42.5928 88.7537 42.1199 89.1463 41.5125 89.593L41.127 89.2075C41.8383 88.7829 42.3768 88.3877 42.7425 88.022C43.0242 87.7403 43.2101 87.4741 43.3002 87.2234C43.3925 86.9704 43.3732 86.7785 43.2422 86.6475C43.1348 86.54 42.9865 86.5054 42.7976 86.5436C42.6109 86.5795 42.3202 86.7022 41.9254 86.9117L41.4684 87.1499C40.9056 87.4459 40.4769 87.6237 40.1824 87.6836C39.8888 87.7399 39.6636 87.6896 39.5067 87.5327C39.2954 87.3214 39.2627 87.0069 39.4085 86.5894C39.553 86.1705 39.8434 85.743 40.2796 85.3068C40.668 84.9183 41.1133 84.5435 41.6153 84.1823L41.9712 84.5381C41.3259 84.956 40.8727 85.2957 40.6114 85.5569C40.3638 85.8045 40.1951 86.0448 40.1055 86.2778C40.0159 86.5107 40.0254 86.6815 40.1342 86.7903C40.2256 86.8817 40.3656 86.9036 40.5542 86.8559C40.7427 86.8082 41.0425 86.6764 41.4537 86.4605L41.9261 86.2105C42.4969 85.9089 42.9286 85.7318 43.2211 85.679C43.5136 85.6262 43.7438 85.6838 43.9119 85.8518C44.1504 86.0903 44.1794 86.4442 43.9991 86.9136C43.8211 87.3808 43.4651 87.8813 42.9313 88.4152M45.6365 85.5728L42.8936 82.8299L45.7117 80.0118L46.0027 80.3027L43.9002 82.4052L44.7805 83.2856L46.5423 81.5238L46.8295 81.8111L45.0678 83.5728L46.0612 84.5662L48.3102 82.3172L48.6012 82.6081L45.6365 85.5728M49.4258 81.7835L46.6829 79.0406L48.2095 77.514C48.6934 77.0301 49.1218 76.7179 49.4946 76.5773C49.8698 76.4344 50.1679 76.4736 50.3891 76.6948C50.7548 77.0605 50.6746 77.6596 50.1486 78.492L53.1163 78.093L52.2371 78.9722L49.6423 79.2466L48.9744 79.9145L50.1346 81.0747L49.4258 81.7835M48.6835 79.6236L48.9152 79.3918C49.8148 78.4922 50.0725 77.8503 49.6882 77.466C49.4053 77.1831 48.8867 77.4187 48.1325 78.173L47.6827 78.6228L48.6835 79.6236"  />
        <path id="path3519" fill="url(#defitem164)" stroke-width="0.059147" stroke-linecap="round" stroke-linejoin="round" d="M28.4115 115.624L20.0415 123.985L20.9697 124.914L29.373 116.471L28.4115 115.624Z"  />
        <path id="path3529" fill="url(#defitem165)" stroke-width="0.059147" stroke-linecap="round" stroke-linejoin="round" d="M21.6373 124.036L4.53312 107.083L3.84211 107.822L20.9728 124.844L21.6373 124.036Z"  />
        <path id="path3533" fill="url(#defitem166)" stroke-width="0.059147" stroke-linecap="round" stroke-linejoin="round" d="M52.8381 63.6268L65.0298 75.5189L65.9646 74.5362L53.7465 62.575L52.8381 63.6268Z"  />
        <path id="rect2498" fill="url(#defitem167)" stroke-width="2.36588" stroke-linecap="round" stroke-linejoin="round" d="M49.0912 62.6019L65.9511 79.8264L66.0174 80.7854C66.0174 80.7854 65.5294 81.2657 65.5142 81.3113L47.424 63.2363L47.9876 62.533L49.0912 62.6019Z"  />
        <path id="path3480" fill="url(#defitem168)" stroke-width="0.059147" stroke-linecap="round" stroke-linejoin="round" d="M12.4596 99.3112L11.8497 99.9211L28.9893 116.958L29.5808 116.366L12.4596 99.3112Z"  />
      </g>
      <g id="g7923">
        <g id="g7925">
          <path id="path7927" fill="#000000" stroke-width="0.815374" d=""  />
        </g>
        <path id="path7929" fill="#000000" stroke-width="0.815374" d=""  />
        <g id="g7931">
        </g>
        <g id="g7933">
        </g>
        <g id="g7935">
        </g>
        <g id="g7937">
          <path id="path7939" fill="#000000" stroke-width="0.815374" d=""  />
          <g id="g2963">
            <g id="g2965">
              <path id="path2967" fill="#000000" stroke-width="0.815374" d=""  />
            </g>
            <path id="path2969" fill="#000000" stroke-width="0.815374" d=""  />
            <g id="g2971">
            </g>
            <g id="g2973">
            </g>
            <g id="g2975">
            </g>
            <g id="g2977">
              <path id="path2979" fill="#000000" stroke-width="0.815374" d=""  />
              <path id="path1563" fill="url(#defitem169)" stroke-width="0" stroke-linecap="round" stroke-linejoin="round" d="M54.9974 122.435C54.9974 125.3 71.4495 127.623 91.7442 127.623C112.039 127.623 128.491 125.3 128.491 122.435"  />
            </g>
          </g>
          <g id="g7951">
            <path id="path7953" fill="#000000" stroke-width="0.815374" d=""  />
          </g>
          <path id="path7955" fill="#000000" stroke-width="0.815374" d=""  />
          <g id="g7957">
          </g>
          <g id="g7959">
          </g>
          <g id="g7961">
          </g>
          <path id="path7963" fill="#000000" stroke-width="0.815374" d=""  />
          <path id="path7965" fill="#ffffff" fill-opacity="0.756881" stroke-width="0.407687" stroke-linecap="round" stroke-linejoin="round" d="M96.7632 -14.559L96.7632 -17.354L96.7632 -14.559Z"  />
          <path id="path7967" fill="#ffffff" fill-opacity="0.756881" stroke-width="0.407687" stroke-linecap="round" stroke-linejoin="round" d="M265.919 -76.75L265.919 -79.545L265.919 -76.75Z"  />
          <path id="path7969" fill="#ffffff" fill-opacity="0.756881" stroke-width="0.407687" stroke-linecap="round" stroke-linejoin="round" d="M175.769 -146.385L175.769 -149.18L175.769 -146.385Z"  />
          <path id="path7971" fill="#ffffff" fill-opacity="0.756881" stroke-width="0.407687" stroke-linecap="round" stroke-linejoin="round" d="M107.155 -233.016L107.155 -235.81L107.155 -233.016Z"  />
          <g id="g7973">
          </g>
          <g id="g7975">
          </g>
          <path id="path7977" fill="#ffffff" fill-opacity="0.756881" stroke-width="0.407687" stroke-linecap="round" stroke-linejoin="round" d="M248.74 -167.26L248.74 -170.055L248.74 -167.26Z"  />
          <path id="path7979" fill="#ffffff" fill-opacity="0.756881" stroke-width="0.407687" stroke-linecap="round" stroke-linejoin="round" d="M195.558 -93.367L195.558 -94.893L195.558 -93.367Z"  />
          <path fill="#ffffff" stroke-width="2.96144" stroke-linecap="round" stroke-linejoin="round" d="M162.552 -149.967L162.552 -149.967L163.126 -149.967L163.126 -149.967L162.552 -149.967Z"  />
          <path fill="#ffffff" stroke-width="2.96144" stroke-linecap="round" stroke-linejoin="round" d="M142.383 -177.494L142.383 -177.494L142.958 -177.494L142.958 -177.494L142.383 -177.494Z"  />
          <path id="path7985" fill="#ffffff" fill-opacity="0.756881" stroke-width="0.407687" stroke-linecap="round" stroke-linejoin="round" d="M51.1265 -250.71L51.1265 -253.505L51.1265 -250.71Z"  />
          <g id="g7987">
          </g>
          <g id="g7989">
          </g>
          <g id="g7991">
          </g>
          <g id="g7993">
          </g>
        </g>
      </g>
    </g>
  </g>
</svg>
