<?xml version="1.0" standalone="no"?>
<!DOCTYPE svg PUBLIC "-//W3C//DTD SVG 20010904//EN" "http://www.w3.org/TR/2001/REC-SVG-20010904/DTD/svg10.dtd">
<!-- Created using Karbon14, part of koffice: http://www.koffice.org/karbon -->
<svg xmlns="http://www.w3.org/2000/svg" xmlns:xlink="http://www.w3.org/1999/xlink" width="128px" height="128px">
  <defs>
    <radialGradient id="defitem0" gradientUnits="userSpaceOnUse" cx="64" cy="122.812" fx="64" fy="122.812" r="64" >
      <stop stop-color="#000000" offset="0" stop-opacity="1" />
      <stop stop-color="#000000" offset="1" stop-opacity="0" />
    </radialGradient>
    <radialGradient id="defitem1" gradientUnits="userSpaceOnUse" cx="98.4004" cy="104.526" fx="6.06255" fy="2.734" r="126.339" >
      <stop stop-color="#525456" offset="0" stop-opacity="1" />
      <stop stop-color="#89898c" offset="0.113661" stop-opacity="1" />
      <stop stop-color="#ebebeb" offset="0.202967" stop-opacity="1" />
      <stop stop-color="#f9f9f9" offset="0.2363" stop-opacity="1" />
      <stop stop-color="#ffffff" offset="0.2722" stop-opacity="1" />
      <stop stop-color="#f9f9f9" offset="0.5313" stop-opacity="1" />
      <stop stop-color="#ebebeb" offset="0.8449" stop-opacity="1" />
      <stop stop-color="#e1e2e2" offset="1" stop-opacity="1" />
    </radialGradient>
    <linearGradient id="defitem2" gradientUnits="userSpaceOnUse" x1="94.0338" y1="98.2851" x2="86.5255" y2="90.7769" >
      <stop stop-color="#878985" offset="0" stop-opacity="1" />
      <stop stop-color="#8c8e89" offset="0.0072" stop-opacity="1" />
      <stop stop-color="#aaaca8" offset="0.0673" stop-opacity="1" />
      <stop stop-color="#c4c6c3" offset="0.1347" stop-opacity="1" />
      <stop stop-color="#dbdbda" offset="0.265258" stop-opacity="1" />
      <stop stop-color="#ebebeb" offset="0.376461" stop-opacity="1" />
      <stop stop-color="#f6f6f6" offset="0.487403" stop-opacity="1" />
      <stop stop-color="#fdfdfd" offset="0.632409" stop-opacity="1" />
      <stop stop-color="#ffffff" offset="1" stop-opacity="1" />
    </linearGradient>
    <linearGradient id="defitem3" gradientUnits="userSpaceOnUse" x1="61.4439" y1="21.509" x2="61.4003" y2="33.6327" >
      <stop stop-color="#000000" offset="0" stop-opacity="1" />
      <stop stop-color="#000000" offset="1" stop-opacity="0" />
    </linearGradient>
    <linearGradient id="defitem4" gradientUnits="userSpaceOnUse" x1="39.4359" y1="12.608" x2="37.6164" y2="5.811" >
      <stop stop-color="#545454" offset="0.0533" stop-opacity="1" />
      <stop stop-color="#bababa" offset="0.211134" stop-opacity="1" />
      <stop stop-color="#ffffff" offset="0.362655" stop-opacity="1" />
      <stop stop-color="#ffffff" offset="0.603228" stop-opacity="1" />
      <stop stop-color="#e8e8e8" offset="0.849766" stop-opacity="1" />
      <stop stop-color="#545454" offset="1" stop-opacity="1" />
    </linearGradient>
    <linearGradient id="defitem5" gradientUnits="userSpaceOnUse" x1="22.6567" y1="10.882" x2="23.9486" y2="15.703" >
      <stop stop-color="#3a3a3a" offset="0" stop-opacity="1" />
      <stop stop-color="#ffffff" offset="0.601942" stop-opacity="1" />
      <stop stop-color="#878787" offset="1" stop-opacity="1" />
    </linearGradient>
    <linearGradient id="defitem6" gradientUnits="userSpaceOnUse" x1="56.5702" y1="-4.644" x2="61.1421" y2="12.401" >
      <stop stop-color="#666666" offset="0.0947" stop-opacity="1" />
      <stop stop-color="#b6b6b6" offset="0.409632" stop-opacity="1" />
      <stop stop-color="#ffffff" offset="0.505307" stop-opacity="1" />
      <stop stop-color="#a3a3a3" offset="0.630431" stop-opacity="1" />
      <stop stop-color="#646464" offset="0.9349" stop-opacity="1" />
    </linearGradient>
    <linearGradient id="defitem7" gradientUnits="userSpaceOnUse" x1="51.7106" y1="5.681" x2="62.4911" y2="2.795" >
      <stop stop-color="#aeaeae" offset="0" stop-opacity="1" />
      <stop stop-color="#b1b1b1" offset="0.0602" stop-opacity="1" />
      <stop stop-color="#d8d8d8" offset="0.181039" stop-opacity="1" />
      <stop stop-color="#ffffff" offset="0.3195" stop-opacity="1" />
      <stop stop-color="#f4f4f4" offset="0.4353" stop-opacity="1" />
      <stop stop-color="#d4d4d4" offset="0.6028" stop-opacity="1" />
      <stop stop-color="#bababa" offset="0.7633" stop-opacity="1" />
      <stop stop-color="#b8bcc1" offset="0.8079" stop-opacity="1" />
      <stop stop-color="#bcbfc3" offset="0.9297" stop-opacity="1" />
      <stop stop-color="#b5b8ba" offset="1" stop-opacity="1" />
    </linearGradient>
    <linearGradient id="defitem8" gradientUnits="userSpaceOnUse" x1="54.8202" y1="4.83" x2="70.1608" y2="0.72" >
      <stop stop-color="#3a3a3a" offset="0" stop-opacity="1" />
      <stop stop-color="#ffffff" offset="0.601942" stop-opacity="1" />
      <stop stop-color="#878787" offset="1" stop-opacity="1" />
    </linearGradient>
    <linearGradient id="defitem9" gradientUnits="userSpaceOnUse" x1="19.3422" y1="11.77" x2="20.6341" y2="16.591" >
      <stop stop-color="#3a3a3a" offset="0" stop-opacity="1" />
      <stop stop-color="#ffffff" offset="0.601942" stop-opacity="1" />
      <stop stop-color="#878787" offset="1" stop-opacity="1" />
    </linearGradient>
    <linearGradient id="defitem10" gradientUnits="userSpaceOnUse" x1="17.5945" y1="13.587" x2="22.5461" y2="16.446" >
      <stop stop-color="#bababa" offset="0" stop-opacity="1" />
      <stop stop-color="#000000" offset="1" stop-opacity="1" />
    </linearGradient>
    <linearGradient id="defitem11" gradientUnits="userSpaceOnUse" x1="18.8204" y1="16.302" x2="41.7068" y2="10.17" >
      <stop stop-color="#000000" offset="0" stop-opacity="1" />
      <stop stop-color="#ffffff" offset="1" stop-opacity="0" />
    </linearGradient>
    <linearGradient id="defitem12" gradientUnits="userSpaceOnUse" x1="38.2494" y1="13.404" x2="36.1881" y2="5.718" >
      <stop stop-color="#efefef" offset="0.4083" stop-opacity="1" />
      <stop stop-color="#c3c3c3" offset="0.506285" stop-opacity="1" />
      <stop stop-color="#8a8a8a" offset="0.560082" stop-opacity="1" />
      <stop stop-color="#383838" offset="0.679446" stop-opacity="1" />
    </linearGradient>
    <linearGradient id="defitem13" gradientUnits="userSpaceOnUse" x1="51.2912" y1="-5.172" x2="53.5992" y2="-9.838" >
      <stop stop-color="#ffffff" offset="0" stop-opacity="1" />
      <stop stop-color="#ffffff" offset="0.7574" stop-opacity="0.0189873" />
    </linearGradient>
  </defs>
  <g id="Layer">
    <g id="layer1">
      <path id="path3945" fill="#000000" d=""  />
    </g>
    <path id="path3081" fill="#000000" d=""  />
    <g id="layer2">
    </g>
    <g id="layer3">
    </g>
    <g id="layer4">
    </g>
    <g id="layer8">
      <path id="path2167" fill="#000000" d=""  />
      <g id="g2963">
        <g id="g2965">
          <path id="path2967" fill="#000000" d=""  />
        </g>
        <path id="path2969" fill="#000000" d=""  />
        <g id="g2971">
        </g>
        <g id="g2973">
        </g>
        <g id="g2975">
        </g>
        <g id="g2977">
          <path id="path2979" fill="#000000" d=""  />
          <path id="path1563" fill="url(#defitem0)" stroke-width="0" stroke-linecap="round" stroke-linejoin="round" d="M-2.68214e-05 122.812C-2.6833e-05 125.677 28.6538 128 64 128C99.3462 128 128 125.677 128 122.812"  />
        </g>
      </g>
      <g id="g3036">
        <path id="path4922" fill="#000000" d=""  />
      </g>
      <path id="path4924" fill="#000000" d=""  />
      <g id="g4926">
      </g>
      <g id="g4928">
      </g>
      <g id="g4930">
      </g>
      <path id="path10095" fill="#000000" d=""  />
      <path id="path2276" fill="#ffffff" fill-opacity="0.756881" stroke-width="0.5" stroke-linecap="round" stroke-linejoin="round" d="M72.7412 -14.182L72.7412 -16.977L72.7412 -14.182Z"  />
      <path id="path2191" fill="#ffffff" fill-opacity="0.756881" stroke-width="0.5" stroke-linecap="round" stroke-linejoin="round" d="M367.351 -76.373L367.351 -79.168L367.351 -76.373Z"  />
      <path id="path2985" fill="#ffffff" fill-opacity="0.756881" stroke-width="0.5" stroke-linecap="round" stroke-linejoin="round" d="M210.342 -146.008L210.342 -148.803L210.342 -146.008Z"  />
      <path id="path3206" fill="#ffffff" fill-opacity="0.756881" stroke-width="0.5" stroke-linecap="round" stroke-linejoin="round" d="M90.8401 -232.638L90.8401 -235.433L90.8401 -232.638Z"  />
      <g id="g2878">
      </g>
      <g id="g4938">
      </g>
      <path id="path3946" fill="#ffffff" fill-opacity="0.756881" stroke-width="0.5" stroke-linecap="round" stroke-linejoin="round" d="M337.432 -166.883L337.432 -169.678L337.432 -166.883Z"  />
      <path id="path1561" fill="#ffffff" fill-opacity="0.756881" stroke-width="0.5" stroke-linecap="round" stroke-linejoin="round" d="M244.807 -92.989L244.807 -94.516L244.807 -92.989Z"  />
      <path fill="#ffffff" stroke-width="3.632" stroke-linecap="round" stroke-linejoin="round" d="M187.322 -149.589L187.322 -149.589L188.322 -149.589L188.322 -149.589L187.322 -149.589Z"  />
      <path fill="#ffffff" stroke-width="3.632" stroke-linecap="round" stroke-linejoin="round" d="M152.196 -177.117L152.196 -177.117L153.196 -177.117L153.196 -177.117L152.196 -177.117Z"  />
      <path id="path2494" fill="#ffffff" fill-opacity="0.756881" stroke-width="0.5" stroke-linecap="round" stroke-linejoin="round" d="M-6.74187 -250.333L-6.74187 -253.128L-6.74187 -250.333Z"  />
      <g id="g4640">
      </g>
      <g id="g4646">
      </g>
      <g id="g4730">
      </g>
      <g id="g4748">
      </g>
      <g id="g5165">
        <g id="g3962">
          <path id="path6210" fill="none" stroke="#000000" stroke-width="10.0112" stroke-linejoin="round" d="M18.9494 8.184L18.9494 111.425C18.9494 112.461 19.7903 113.302 20.8265 113.302L76.3626 113.302C76.8601 113.302 77.3378 113.104 77.6898 112.752L108.501 81.9411C108.853 81.5892 109.051 81.1114 109.051 80.614L109.051 8.184L18.9494 8.184Z"  />
          <path id="path6212" fill="none" stroke="#000000" stroke-width="7.50844" stroke-linejoin="round" d="M18.9494 8.184L18.9494 111.425C18.9494 112.461 19.7903 113.302 20.8265 113.302L76.3626 113.302C76.8601 113.302 77.3378 113.104 77.6898 112.752L108.501 81.9411C108.853 81.5892 109.051 81.1114 109.051 80.614L109.051 8.184L18.9494 8.184Z"  />
          <path id="path6214" fill="none" stroke="#000000" stroke-width="5.00562" stroke-linejoin="round" d="M18.9494 8.184L18.9494 111.425C18.9494 112.461 19.7903 113.302 20.8265 113.302L76.3626 113.302C76.8601 113.302 77.3378 113.104 77.6898 112.752L108.501 81.9411C108.853 81.5892 109.051 81.1114 109.051 80.614L109.051 8.184L18.9494 8.184Z"  />
          <path id="path6216" fill="none" stroke="#000000" stroke-width="2.50281" stroke-linejoin="round" d="M18.9494 8.184L18.9494 111.425C18.9494 112.461 19.7903 113.302 20.8265 113.302L76.3626 113.302C76.8601 113.302 77.3378 113.104 77.6898 112.752L108.501 81.9411C108.853 81.5892 109.051 81.1114 109.051 80.614L109.051 8.184L18.9494 8.184Z"  />
          <path id="path6218" fill="none" stroke-width="1.25141" d="M18.9494 8.184L18.9494 111.425C18.9494 112.461 19.7903 113.302 20.8265 113.302L76.3626 113.302C76.8601 113.302 77.3378 113.104 77.6898 112.752L108.501 81.9411C108.853 81.5892 109.051 81.1114 109.051 80.614L109.051 8.184L18.9494 8.184Z"  />
          <path id="path6220" fill="url(#defitem1)" stroke-width="1.25141" d="M22.3575 10.892C21.8587 10.892 21.4522 11.299 21.4522 11.798L21.4522 109.688C21.4522 110.188 21.8587 110.594 22.3575 110.594L75.9242 110.594C76.1623 110.594 76.3959 110.498 76.5643 110.329L106.283 80.5737C106.452 80.4043 106.548 80.1713 106.548 79.9329L106.548 11.798C106.548 11.299 106.142 10.892 105.643 10.892L22.3575 10.892Z"  />
          <path id="text3688" fill="#ff0000" stroke-width="1.25141" d="M34.2889 28.435L35.0295 28.435L35.0295 33.2372L37.6948 33.2372L37.6948 33.8542L34.2889 33.8542L34.2889 28.435M39.8982 30.2572C39.5365 30.2572 39.2505 30.3975 39.0403 30.6782C38.8301 30.9565 38.725 31.3388 38.725 31.8252C38.725 32.3116 38.8289 32.6951 39.0366 32.9758C39.2468 33.2541 39.534 33.3933 39.8982 33.3933C40.2575 33.3933 40.5422 33.2529 40.7524 32.9722C40.9626 32.6915 41.0677 32.3092 41.0677 31.8252C41.0677 31.3437 40.9626 30.9625 40.7524 30.6818C40.5422 30.3987 40.2575 30.2572 39.8982 30.2572M39.8982 29.6909C40.4848 29.6909 40.9455 29.8797 41.2804 30.2572C41.6152 30.6347 41.7826 31.1573 41.7826 31.8252C41.7826 32.4907 41.6152 33.0133 41.2804 33.3933C40.9455 33.7707 40.4848 33.9595 39.8982 33.9595C39.3092 33.9595 38.8472 33.7707 38.5124 33.3933C38.18 33.0133 38.0138 32.4907 38.0138 31.8252C38.0138 31.1573 38.18 30.6347 38.5124 30.2572C38.8472 29.8797 39.3092 29.6909 39.8982 29.6909M45.2766 30.4132C45.2008 30.3697 45.1177 30.3382 45.0273 30.3189C44.9393 30.2971 44.8415 30.2862 44.734 30.2862C44.3527 30.2862 44.0594 30.4096 43.8541 30.6564C43.6512 30.9008 43.5498 31.2529 43.5498 31.7127L43.5498 33.8542L42.8715 33.8542L42.8715 29.7889L43.5498 29.7889L43.5498 30.4205C43.6915 30.1737 43.8761 29.991 44.1034 29.8724C44.3307 29.7514 44.6069 29.6909 44.9319 29.6909C44.9784 29.6909 45.0297 29.6946 45.0859 29.7018C45.1421 29.7067 45.2045 29.7151 45.2729 29.7272L45.2766 30.4132M49.5037 31.6546L49.5037 31.9813L46.4021 31.9813C46.4314 32.4411 46.5707 32.7919 46.82 33.0339C47.0718 33.2735 47.4213 33.3933 47.8686 33.3933C48.1277 33.3933 48.3782 33.3618 48.6202 33.2989C48.8646 33.236 49.1065 33.1416 49.3461 33.0158L49.3461 33.6473C49.1041 33.749 48.856 33.8264 48.6018 33.8796C48.3476 33.9329 48.0898 33.9595 47.8283 33.9595C47.1732 33.9595 46.6538 33.7707 46.2701 33.3933C45.8888 33.0158 45.6982 32.5052 45.6982 31.8615C45.6982 31.1961 45.879 30.6685 46.2408 30.2789C46.605 29.8869 47.095 29.6909 47.7109 29.6909C48.2633 29.6909 48.6996 29.8676 49.0198 30.2209C49.3424 30.5717 49.5037 31.0497 49.5037 31.6546M48.8291 31.4586C48.8242 31.0932 48.7204 30.8016 48.5175 30.5838C48.3171 30.3661 48.0507 30.2572 47.7183 30.2572C47.3419 30.2572 47.04 30.3624 46.8127 30.573C46.5878 30.7835 46.4583 31.0799 46.4241 31.4622L48.8291 31.4586M53.8079 30.5693C53.9765 30.2693 54.1782 30.0479 54.4128 29.9051C54.6474 29.7623 54.9236 29.6909 55.2414 29.6909C55.6691 29.6909 55.9991 29.8398 56.2313 30.1374C56.4634 30.4326 56.5795 30.8537 56.5795 31.4005L56.5795 33.8542L55.9013 33.8542L55.9013 31.4223C55.9013 31.0327 55.8316 30.7436 55.6923 30.5548C55.553 30.3661 55.3404 30.2717 55.0544 30.2717C54.7049 30.2717 54.4287 30.3866 54.2258 30.6165C54.023 30.8464 53.9215 31.1598 53.9215 31.5566L53.9215 33.8542L53.2433 33.8542L53.2433 31.4223C53.2433 31.0303 53.1736 30.7411 53.0343 30.5548C52.895 30.3661 52.6799 30.2717 52.3891 30.2717C52.0444 30.2717 51.7707 30.3878 51.5678 30.6201C51.3649 30.85 51.2635 31.1622 51.2635 31.5566L51.2635 33.8542L50.5853 33.8542L50.5853 29.7889L51.2635 29.7889L51.2635 30.4205C51.4175 30.1713 51.602 29.9874 51.8171 29.8688C52.0322 29.7502 52.2876 29.6909 52.5834 29.6909C52.8815 29.6909 53.1345 29.7659 53.3423 29.916C53.5525 30.066 53.7077 30.2838 53.8079 30.5693M60.3191 29.7889L60.9937 29.7889L60.9937 33.8542L60.3191 33.8542L60.3191 29.7889M60.3191 28.2064L60.9937 28.2064L60.9937 29.0521L60.3191 29.0521L60.3191 28.2064M63.0541 33.2444L63.0541 35.4005L62.3759 35.4005L62.3759 29.7889L63.0541 29.7889L63.0541 30.406C63.1959 30.164 63.3743 29.9849 63.5894 29.8688C63.8069 29.7502 64.066 29.6909 64.3666 29.6909C64.8652 29.6909 65.2697 29.8869 65.5801 30.2789C65.893 30.671 66.0494 31.1864 66.0494 31.8252C66.0494 32.464 65.893 32.9795 65.5801 33.3715C65.2697 33.7635 64.8652 33.9595 64.3666 33.9595C64.066 33.9595 63.8069 33.9014 63.5894 33.7853C63.3743 33.6667 63.1959 33.4864 63.0541 33.2444M65.3492 31.8252C65.3492 31.334 65.2465 30.9492 65.0412 30.671C64.8383 30.3903 64.5585 30.2499 64.2016 30.2499C63.8448 30.2499 63.5637 30.3903 63.3584 30.671C63.1555 30.9492 63.0541 31.334 63.0541 31.8252C63.0541 32.3164 63.1555 32.7024 63.3584 32.9831C63.5637 33.2614 63.8448 33.4005 64.2016 33.4005C64.5585 33.4005 64.8383 33.2614 65.0412 32.9831C65.2465 32.7024 65.3492 32.3164 65.3492 31.8252M69.7853 29.9087L69.7853 30.5403C69.5947 30.4435 69.3967 30.3709 69.1914 30.3225C68.9861 30.2741 68.7734 30.2499 68.5535 30.2499C68.2186 30.2499 67.9669 30.3007 67.7982 30.4024C67.632 30.504 67.5489 30.6564 67.5489 30.8597C67.5489 31.0146 67.6088 31.1368 67.7285 31.2263C67.8483 31.3134 68.0891 31.3969 68.4508 31.4768L68.6818 31.5276C69.1608 31.6292 69.5006 31.7732 69.701 31.9595C69.9038 32.1434 70.0053 32.4011 70.0053 32.7326C70.0053 33.1101 69.8537 33.409 69.5507 33.6292C69.25 33.8494 68.8357 33.9595 68.3078 33.9595C68.0878 33.9595 67.8581 33.9377 67.6186 33.8942C67.3815 33.853 67.131 33.7901 66.867 33.7054L66.867 33.0158C67.1163 33.144 67.3619 33.2408 67.6039 33.3061C67.8459 33.3691 68.0854 33.4005 68.3225 33.4005C68.6402 33.4005 68.8846 33.3473 69.0557 33.2408C69.2268 33.1319 69.3124 32.9795 69.3124 32.7835C69.3124 32.602 69.25 32.4628 69.1254 32.366C69.0032 32.2692 68.7331 32.1761 68.3151 32.0866L68.0805 32.0321C67.6626 31.945 67.3607 31.8119 67.175 31.6328C66.9892 31.4514 66.8963 31.2033 66.8963 30.8887C66.8963 30.5064 67.0332 30.2112 67.3069 30.0031C67.5807 29.795 67.9693 29.6909 68.4728 29.6909C68.7221 29.6909 68.9567 29.7091 69.1767 29.7454C69.3967 29.7817 69.5996 29.8361 69.7853 29.9087M71.0135 32.2499L71.0135 29.7889L71.6881 29.7889L71.6881 32.2245C71.6881 32.6092 71.7638 32.8984 71.9154 33.092C72.0669 33.2832 72.2942 33.3787 72.5973 33.3787C72.9615 33.3787 73.2487 33.2638 73.4589 33.0339C73.6715 32.804 73.7778 32.4907 73.7778 32.0938L73.7778 29.7889L74.4524 29.7889L74.4524 33.8542L73.7778 33.8542L73.7778 33.2299C73.6141 33.4767 73.4234 33.6606 73.2059 33.7816C72.9908 33.9002 72.7403 33.9595 72.4543 33.9595C71.9826 33.9595 71.6245 33.8143 71.3801 33.5239C71.1357 33.2335 71.0135 32.8089 71.0135 32.2499M79.0462 30.5693C79.2148 30.2693 79.4165 30.0479 79.6511 29.9051C79.8858 29.7623 80.1619 29.6909 80.4797 29.6909C80.9074 29.6909 81.2374 29.8398 81.4696 30.1374C81.7018 30.4326 81.8179 30.8537 81.8179 31.4005L81.8179 33.8542L81.1396 33.8542L81.1396 31.4223C81.1396 31.0327 81.07 30.7436 80.9306 30.5548C80.7913 30.3661 80.5787 30.2717 80.2927 30.2717C79.9432 30.2717 79.667 30.3866 79.4641 30.6165C79.2613 30.8464 79.1598 31.1598 79.1599 31.5566L79.1599 33.8542L78.4816 33.8542L78.4816 31.4223C78.4816 31.0303 78.4119 30.7411 78.2726 30.5548C78.1333 30.3661 77.9182 30.2717 77.6274 30.2717C77.2827 30.2717 77.009 30.3878 76.8061 30.6201C76.6033 30.85 76.5018 31.1622 76.5018 31.5566L76.5018 33.8542L75.8236 33.8542L75.8236 29.7889L76.5018 29.7889L76.5018 30.4205C76.6558 30.1713 76.8403 29.9874 77.0554 29.8688C77.2705 29.7502 77.5259 29.6909 77.8217 29.6909C78.1199 29.6909 78.3728 29.7659 78.5806 29.916C78.7908 30.066 78.946 30.2838 79.0462 30.5693M88.2594 30.406L88.2594 28.2064L88.934 28.2064L88.934 33.8542L88.2594 33.8542L88.2594 33.2444C88.1177 33.4864 87.938 33.6667 87.7205 33.7853C87.5054 33.9014 87.2463 33.9595 86.9433 33.9595C86.4471 33.9595 86.0426 33.7635 85.7297 33.3715C85.4193 32.9795 85.2641 32.464 85.2641 31.8252C85.2641 31.1864 85.4193 30.671 85.7297 30.2789C86.0426 29.8869 86.4471 29.6909 86.9433 29.6909C87.2463 29.6909 87.5054 29.7502 87.7205 29.8688C87.938 29.9849 88.1177 30.164 88.2594 30.406M85.9607 31.8252C85.9607 32.3164 86.0621 32.7024 86.265 32.9831C86.4703 33.2614 86.7514 33.4005 87.1082 33.4005C87.4651 33.4005 87.7462 33.2614 87.9515 32.9831C88.1568 32.7024 88.2594 32.3164 88.2594 31.8252C88.2594 31.334 88.1568 30.9492 87.9515 30.671C87.7462 30.3903 87.4651 30.2499 87.1082 30.2499C86.7514 30.2499 86.4703 30.3903 86.265 30.671C86.0621 30.9492 85.9607 31.334 85.9607 31.8252M91.9147 30.2572C91.5529 30.2572 91.267 30.3975 91.0568 30.6782C90.8466 30.9565 90.7415 31.3388 90.7415 31.8252C90.7415 32.3116 90.8453 32.6951 91.0531 32.9758C91.2633 33.2541 91.5505 33.3933 91.9147 33.3933C92.2739 33.3933 92.5587 33.2529 92.7689 32.9722C92.9791 32.6915 93.0842 32.3092 93.0842 31.8252C93.0842 31.3437 92.9791 30.9625 92.7689 30.6818C92.5587 30.3987 92.2739 30.2572 91.9147 30.2572M91.9147 29.6909C92.5013 29.6909 92.962 29.8797 93.2968 30.2572C93.6317 30.6347 93.7991 31.1573 93.7991 31.8252C93.7991 32.4907 93.6317 33.0133 93.2968 33.3933C92.962 33.7707 92.5013 33.9595 91.9147 33.9595C91.3256 33.9595 90.8637 33.7707 90.5288 33.3933C90.1964 33.0133 90.0302 32.4907 90.0302 31.8252C90.0302 31.1573 90.1964 30.6347 90.5288 30.2572C90.8637 29.8797 91.3256 29.6909 91.9147 29.6909M94.9136 28.2064L95.5882 28.2064L95.5882 33.8542L94.9136 33.8542L94.9136 28.2064M98.5872 30.2572C98.2255 30.2572 97.9395 30.3975 97.7293 30.6782C97.5191 30.9565 97.414 31.3388 97.414 31.8252C97.414 32.3116 97.5179 32.6951 97.7256 32.9758C97.9358 33.2541 98.223 33.3933 98.5872 33.3933C98.9465 33.3933 99.2312 33.2529 99.4414 32.9722C99.6516 32.6915 99.7567 32.3092 99.7567 31.8252C99.7567 31.3437 99.6516 30.9625 99.4414 30.6818C99.2312 30.3987 98.9465 30.2572 98.5872 30.2572M98.5872 29.6909C99.1738 29.6909 99.6345 29.8797 99.9694 30.2572C100.304 30.6347 100.472 31.1573 100.472 31.8252C100.472 32.4907 100.304 33.0133 99.9694 33.3933C99.6345 33.7707 99.1738 33.9595 98.5872 33.9595C97.9982 33.9595 97.5362 33.7707 97.2014 33.3933C96.869 33.0133 96.7028 32.4907 96.7028 31.8252C96.7028 31.1573 96.869 30.6347 97.2014 30.2572C97.5362 29.8797 97.9982 29.6909 98.5872 29.6909M103.966 30.4132C103.89 30.3697 103.807 30.3382 103.716 30.3189C103.628 30.2971 103.531 30.2862 103.423 30.2862C103.042 30.2862 102.748 30.4096 102.543 30.6564C102.34 30.9008 102.239 31.2529 102.239 31.7127L102.239 33.8542L101.56 33.8542L101.56 29.7889L102.239 29.7889L102.239 30.4205C102.381 30.1737 102.565 29.991 102.792 29.8724C103.02 29.7514 103.296 29.6909 103.621 29.6909C103.667 29.6909 103.719 29.6946 103.775 29.7018C103.831 29.7067 103.893 29.7151 103.962 29.7272L103.966 30.4132M36.8772 45.9901L36.8772 46.6217C36.6866 46.5249 36.4886 46.4523 36.2833 46.4039C36.078 46.3555 35.8653 46.3313 35.6454 46.3313C35.3105 46.3313 35.0588 46.3821 34.8901 46.4838C34.7239 46.5854 34.6408 46.7378 34.6408 46.9411C34.6408 47.096 34.7007 47.2182 34.8205 47.3077C34.9402 47.3948 35.181 47.4783 35.5427 47.5582L35.7737 47.609C36.2527 47.7106 36.5925 47.8546 36.7929 48.0409C36.9958 48.2248 37.0972 48.4825 37.0972 48.814C37.0972 49.1915 36.9457 49.4904 36.6426 49.7106C36.342 49.9308 35.9277 50.0409 35.3997 50.0409C35.1798 50.0409 34.95 50.0191 34.7105 49.9756C34.4734 49.9344 34.2229 49.8715 33.9589 49.7868L33.9589 49.0972C34.2082 49.2254 34.4539 49.3222 34.6958 49.3875C34.9378 49.4505 35.1773 49.4819 35.4144 49.4819C35.7321 49.4819 35.9766 49.4287 36.1477 49.3222C36.3187 49.2133 36.4043 49.0609 36.4043 48.8649C36.4043 48.6834 36.342 48.5442 36.2173 48.4474C36.0951 48.3507 35.825 48.2575 35.4071 48.168L35.1724 48.1135C34.7545 48.0264 34.4526 47.8933 34.2669 47.7142C34.0811 47.5328 33.9882 47.2847 33.9882 46.9701C33.9882 46.5878 34.1251 46.2926 34.3989 46.0845C34.6726 45.8764 35.0612 45.7723 35.5647 45.7723C35.814 45.7723 36.0487 45.7905 36.2686 45.8268C36.4886 45.8631 36.6915 45.9175 36.8772 45.9901M38.1751 45.8703L38.8497 45.8703L38.8497 49.9356L38.1751 49.9356L38.1751 45.8703M38.1751 44.2878L38.8497 44.2878L38.8497 45.1335L38.1751 45.1335L38.1751 44.2878M40.9248 44.7161L40.9248 45.8703L42.3143 45.8703L42.3143 46.3894L40.9248 46.3894L40.9248 48.5963C40.9247 48.9278 40.97 49.1407 41.0604 49.2351C41.1533 49.3295 41.3403 49.3767 41.6213 49.3767L42.3143 49.3767L42.3143 49.9356L41.6213 49.9356C41.1007 49.9356 40.7414 49.8401 40.5435 49.6489C40.3455 49.4553 40.2465 49.1044 40.2465 48.5963L40.2465 46.3894L39.7516 46.3894L39.7516 45.8703L40.2465 45.8703L40.2465 44.7161L40.9248 44.7161M47.4616 47.8921C46.9166 47.8921 46.539 47.9538 46.3288 48.0772C46.1186 48.2006 46.0135 48.4111 46.0135 48.7088C46.0135 48.9459 46.0917 49.1347 46.2481 49.275C46.407 49.413 46.6221 49.4819 46.8934 49.4819C47.2673 49.4819 47.5667 49.3512 47.7916 49.0899C48.0189 48.8261 48.1326 48.4765 48.1326 48.0409L48.1326 47.8921L47.4616 47.8921M48.8071 47.6162L48.8071 49.9356L48.1326 49.9356L48.1326 49.3186C47.9786 49.5654 47.7867 49.7481 47.557 49.8667C47.3272 49.9828 47.0461 50.0409 46.7137 50.0409C46.2933 50.0409 45.9585 49.9247 45.7092 49.6924C45.4623 49.4577 45.3389 49.1444 45.3389 48.7523C45.3389 48.295 45.4929 47.9502 45.8008 47.7179C46.1112 47.4856 46.5732 47.3694 47.1867 47.3694L48.1326 47.3694L48.1326 47.3041C48.1326 46.9968 48.0299 46.7596 47.8246 46.5927C47.6217 46.4233 47.3358 46.3386 46.9667 46.3386C46.7321 46.3386 46.5035 46.3664 46.2811 46.4221C46.0587 46.4777 45.8448 46.5612 45.6395 46.6725L45.6395 46.0555C45.8864 45.9611 46.1259 45.8909 46.3581 45.8449C46.5903 45.7965 46.8164 45.7723 47.0363 45.7723C47.6303 45.7723 48.0739 45.9248 48.3672 46.2297C48.6605 46.5346 48.8071 46.9968 48.8071 47.6162M53.3973 46.6507C53.5659 46.3507 53.7675 46.1293 54.0022 45.9865C54.2368 45.8437 54.513 45.7723 54.8308 45.7723C55.2585 45.7723 55.5884 45.9212 55.8206 46.2188C56.0528 46.514 56.1689 46.9351 56.1689 47.4819L56.1689 49.9356L55.4907 49.9356L55.4907 47.5037C55.4907 47.1141 55.421 46.825 55.2817 46.6362C55.1424 46.4475 54.9297 46.3531 54.6438 46.3531C54.2943 46.3531 54.0181 46.468 53.8152 46.6979C53.6123 46.9278 53.5109 47.2412 53.5109 47.638L53.5109 49.9356L52.8327 49.9356L52.8327 47.5037C52.8327 47.1117 52.763 46.8225 52.6237 46.6362C52.4844 46.4475 52.2693 46.3531 51.9784 46.3531C51.6338 46.3531 51.3601 46.4692 51.1572 46.7015C50.9543 46.9314 50.8529 47.2436 50.8529 47.638L50.8529 49.9356L50.1746 49.9356L50.1746 45.8703L50.8529 45.8703L50.8529 46.5019C51.0069 46.2527 51.1914 46.0688 51.4065 45.9502C51.6216 45.8316 51.877 45.7723 52.1727 45.7723C52.4709 45.7723 52.7239 45.8474 52.9316 45.9974C53.1418 46.1474 53.297 46.3652 53.3973 46.6507M61.0303 47.736L61.0303 48.0627L57.9287 48.0627C57.958 48.5225 58.0974 48.8733 58.3467 49.1153C58.5984 49.3549 58.9479 49.4747 59.3952 49.4747C59.6543 49.4747 59.9048 49.4432 60.1468 49.3803C60.3912 49.3174 60.6332 49.223 60.8727 49.0972L60.8727 49.7287C60.6307 49.8304 60.3826 49.9078 60.1285 49.961C59.8743 50.0143 59.6164 50.0409 59.3549 50.0409C58.6999 50.0409 58.1805 49.8522 57.7967 49.4747C57.4154 49.0972 57.2248 48.5866 57.2248 47.9429C57.2248 47.2775 57.4057 46.7499 57.7674 46.3604C58.1316 45.9683 58.6216 45.7723 59.2376 45.7723C59.7899 45.7723 60.2262 45.949 60.5464 46.3023C60.869 46.6532 61.0303 47.1311 61.0303 47.736M60.3558 47.54C60.3509 47.1746 60.247 46.883 60.0441 46.6652C59.8437 46.4475 59.5773 46.3386 59.2449 46.3386C58.8685 46.3386 58.5666 46.4438 58.3393 46.6544C58.1145 46.8649 57.9849 47.1613 57.9507 47.5436L60.3558 47.54M62.8048 44.7161L62.8048 45.8703L64.1943 45.8703L64.1943 46.3894L62.8048 46.3894L62.8048 48.5963C62.8048 48.9278 62.85 49.1407 62.9405 49.2351C63.0333 49.3295 63.2203 49.3767 63.5014 49.3767L64.1943 49.3767L64.1943 49.9356L63.5014 49.9356C62.9808 49.9356 62.6215 49.8401 62.4235 49.6489C62.2255 49.4553 62.1266 49.1044 62.1266 48.5963L62.1266 46.3894L61.6316 46.3894L61.6316 45.8703L62.1266 45.8703L62.1266 44.7161L62.8048 44.7161M70.4306 46.0264L70.4306 46.6507C70.2399 46.5467 70.048 46.4692 69.855 46.4184C69.6643 46.3652 69.4712 46.3386 69.2757 46.3386C68.8382 46.3386 68.4985 46.4765 68.2565 46.7524C68.0145 47.0258 67.8935 47.4106 67.8935 47.9066C67.8935 48.4027 68.0145 48.7886 68.2565 49.0645C68.4985 49.3379 68.8382 49.4747 69.2757 49.4747C69.4712 49.4747 69.6643 49.4492 69.855 49.3984C70.048 49.3452 70.2399 49.2666 70.4306 49.1625L70.4306 49.7796C70.2424 49.8667 70.0468 49.932 69.844 49.9756C69.6435 50.0191 69.4297 50.0409 69.2024 50.0409C68.584 50.0409 68.0927 49.8485 67.7285 49.4638C67.3644 49.079 67.1823 48.56 67.1823 47.9066C67.1823 47.2436 67.3656 46.7221 67.7322 46.3422C68.1013 45.9623 68.606 45.7723 69.2464 45.7723C69.4541 45.7723 69.657 45.7941 69.855 45.8377C70.0529 45.8788 70.2448 45.9417 70.4306 46.0264M73.2022 46.3386C72.8405 46.3386 72.5545 46.4789 72.3443 46.7596C72.1341 47.0379 72.029 47.4202 72.029 47.9066C72.029 48.393 72.1329 48.7765 72.3407 49.0572C72.5509 49.3355 72.8381 49.4747 73.2022 49.4747C73.5615 49.4747 73.8463 49.3343 74.0565 49.0536C74.2667 48.7729 74.3718 48.3906 74.3718 47.9066C74.3718 47.4251 74.2667 47.044 74.0565 46.7633C73.8463 46.4801 73.5615 46.3386 73.2022 46.3386M73.2022 45.7723C73.7888 45.7723 74.2496 45.9611 74.5844 46.3386C74.9192 46.7161 75.0867 47.2387 75.0867 47.9066C75.0867 48.5721 74.9192 49.0947 74.5844 49.4747C74.2496 49.8522 73.7888 50.0409 73.2022 50.0409C72.6132 50.0409 72.1512 49.8522 71.8164 49.4747C71.484 49.0947 71.3178 48.5721 71.3178 47.9066C71.3178 47.2387 71.484 46.7161 71.8164 46.3386C72.1512 45.9611 72.6132 45.7723 73.2022 45.7723M79.6145 47.4819L79.6145 49.9356L78.9399 49.9356L78.9399 47.5037C78.9399 47.119 78.8641 46.831 78.7126 46.6398C78.561 46.4487 78.3337 46.3531 78.0306 46.3531C77.6665 46.3531 77.3793 46.468 77.1691 46.6979C76.9589 46.9278 76.8538 47.2412 76.8538 47.638L76.8538 49.9356L76.1755 49.9356L76.1755 45.8703L76.8538 45.8703L76.8538 46.5019C77.0151 46.2575 77.2045 46.0748 77.4221 45.9538C77.642 45.8328 77.895 45.7723 78.181 45.7723C78.6527 45.7723 79.0095 45.9175 79.2515 46.2079C79.4935 46.4959 79.6145 46.9205 79.6145 47.4819M83.585 45.9901L83.585 46.6217C83.3943 46.5249 83.1964 46.4523 82.9911 46.4039C82.7857 46.3555 82.5731 46.3313 82.3531 46.3313C82.0183 46.3313 81.7665 46.3821 81.5979 46.4838C81.4317 46.5854 81.3486 46.7378 81.3486 46.9411C81.3486 47.096 81.4085 47.2182 81.5282 47.3077C81.648 47.3948 81.8887 47.4783 82.2505 47.5582L82.4814 47.609C82.9605 47.7106 83.3002 47.8546 83.5007 48.0409C83.7035 48.2248 83.8049 48.4825 83.805 48.814C83.8049 49.1915 83.6534 49.4904 83.3504 49.7106C83.0497 49.9308 82.6354 50.0409 82.1075 50.0409C81.8875 50.0409 81.6578 50.0191 81.4182 49.9756C81.1812 49.9344 80.9306 49.8715 80.6667 49.7868L80.6667 49.0972C80.916 49.2254 81.1616 49.3222 81.4036 49.3875C81.6455 49.4505 81.8851 49.4819 82.1222 49.4819C82.4399 49.4819 82.6843 49.4287 82.8554 49.3222C83.0265 49.2133 83.112 49.0609 83.112 48.8649C83.112 48.6834 83.0497 48.5442 82.9251 48.4474C82.8028 48.3507 82.5328 48.2575 82.1148 48.168L81.8802 48.1135C81.4622 48.0264 81.1604 47.8933 80.9746 47.7142C80.7889 47.5328 80.696 47.2847 80.696 46.9701C80.696 46.5878 80.8329 46.2926 81.1066 46.0845C81.3804 45.8764 81.769 45.7723 82.2725 45.7723C82.5218 45.7723 82.7564 45.7905 82.9764 45.8268C83.1964 45.8631 83.3992 45.9175 83.585 45.9901M88.3951 47.736L88.3951 48.0627L85.2935 48.0627C85.3228 48.5225 85.4621 48.8733 85.7114 49.1153C85.9631 49.3549 86.3127 49.4747 86.7599 49.4747C87.019 49.4747 87.2696 49.4432 87.5115 49.3803C87.7559 49.3174 87.9979 49.223 88.2374 49.0972L88.2374 49.7287C87.9955 49.8304 87.7474 49.9078 87.4932 49.961C87.239 50.0143 86.9811 50.0409 86.7196 50.0409C86.0646 50.0409 85.5452 49.8522 85.1615 49.4747C84.7802 49.0972 84.5895 48.5866 84.5895 47.9429C84.5895 47.2775 84.7704 46.7499 85.1321 46.3604C85.4963 45.9683 85.9864 45.7723 86.6023 45.7723C87.1547 45.7723 87.591 45.949 87.9111 46.3023C88.2338 46.6532 88.3951 47.1311 88.3951 47.736M87.7205 47.54C87.7156 47.1746 87.6117 46.883 87.4089 46.6652C87.2084 46.4475 86.942 46.3386 86.6096 46.3386C86.2332 46.3386 85.9314 46.4438 85.7041 46.6544C85.4792 46.8649 85.3497 47.1613 85.3154 47.5436L87.7205 47.54M92.4573 46.0264L92.4573 46.6507C92.2666 46.5467 92.0748 46.4692 91.8817 46.4184C91.691 46.3652 91.4979 46.3386 91.3024 46.3386C90.8649 46.3386 90.5252 46.4765 90.2832 46.7524C90.0412 47.0258 89.9202 47.4106 89.9202 47.9066C89.9202 48.4027 90.0412 48.7886 90.2832 49.0645C90.5252 49.3379 90.8649 49.4747 91.3024 49.4747C91.4979 49.4747 91.691 49.4492 91.8817 49.3984C92.0748 49.3452 92.2666 49.2666 92.4573 49.1625L92.4573 49.7796C92.2691 49.8667 92.0735 49.932 91.8707 49.9756C91.6702 50.0191 91.4564 50.0409 91.2291 50.0409C90.6107 50.0409 90.1194 49.8485 89.7553 49.4638C89.3911 49.079 89.209 48.56 89.209 47.9066C89.209 47.2436 89.3923 46.7221 89.7589 46.3422C90.128 45.9623 90.6327 45.7723 91.2731 45.7723C91.4808 45.7723 91.6837 45.7941 91.8817 45.8377C92.0796 45.8788 92.2715 45.9417 92.4573 46.0264M94.305 44.7161L94.305 45.8703L95.6945 45.8703L95.6945 46.3894L94.305 46.3894L94.305 48.5963C94.305 48.9278 94.3503 49.1407 94.4407 49.2351C94.5336 49.3295 94.7206 49.3767 95.0016 49.3767L95.6945 49.3767L95.6945 49.9356L95.0016 49.9356C94.481 49.9356 94.1217 49.8401 93.9238 49.6489C93.7258 49.4553 93.6268 49.1044 93.6268 48.5963L93.6268 46.3894L93.1318 46.3894L93.1318 45.8703L93.6268 45.8703L93.6268 44.7161L94.305 44.7161M96.2445 47.6017L98.2206 47.6017L98.2206 48.197L96.2445 48.197L96.2445 47.6017M37.7718 63.8174L37.7718 64.1441L34.6702 64.1441C34.6995 64.6039 34.8388 64.9547 35.0881 65.1967C35.3399 65.4363 35.6894 65.5561 36.1367 65.5561C36.3957 65.5561 36.6463 65.5246 36.8882 65.4617C37.1326 65.3988 37.3746 65.3044 37.6141 65.1786L37.6141 65.8101C37.3722 65.9118 37.1241 65.9892 36.8699 66.0424C36.6157 66.0957 36.3578 66.1223 36.0963 66.1223C35.4413 66.1223 34.9219 65.9336 34.5382 65.5561C34.1569 65.1786 33.9662 64.668 33.9662 64.0243C33.9662 63.3589 34.1471 62.8313 34.5088 62.4418C34.873 62.0497 35.3631 61.8537 35.979 61.8537C36.5314 61.8537 36.9677 62.0304 37.2878 62.3837C37.6105 62.7346 37.7718 63.2125 37.7718 63.8174M37.0972 63.6214C37.0923 63.256 36.9884 62.9644 36.7856 62.7467C36.5852 62.5289 36.3187 62.42 35.9863 62.42C35.6099 62.42 35.3081 62.5252 35.0808 62.7358C34.8559 62.9463 34.7264 63.2427 34.6922 63.625L37.0972 63.6214M39.5462 60.7975L39.5462 61.9517L40.9357 61.9517L40.9357 62.4708L39.5462 62.4708L39.5462 64.6777C39.5462 65.0092 39.5915 65.2221 39.6819 65.3165C39.7748 65.4109 39.9617 65.4581 40.2428 65.4581L40.9357 65.4581L40.9357 66.017L40.2428 66.017C39.7222 66.017 39.3629 65.9215 39.165 65.7303C38.967 65.5367 38.868 65.1858 38.868 64.6777L38.868 62.4708L38.3731 62.4708L38.3731 61.9517L38.868 61.9517L38.868 60.7975L39.5462 60.7975M41.757 64.4127L41.757 61.9517L42.4316 61.9517L42.4316 64.3873C42.4316 64.772 42.5073 65.0612 42.6589 65.2548C42.8104 65.446 43.0377 65.5415 43.3408 65.5415C43.705 65.5415 43.9922 65.4266 44.2024 65.1967C44.415 64.9668 44.5213 64.6535 44.5213 64.2566L44.5213 61.9517L45.1959 61.9517L45.1959 66.017L44.5213 66.017L44.5213 65.3927C44.3576 65.6395 44.1669 65.8235 43.9494 65.9444C43.7343 66.063 43.4838 66.1223 43.1978 66.1223C42.7261 66.1223 42.368 65.9771 42.1236 65.6867C41.8792 65.3964 41.757 64.9717 41.757 64.4127M50.105 63.8174L50.105 64.1441L47.0034 64.1441C47.0327 64.6039 47.172 64.9547 47.4213 65.1967C47.6731 65.4363 48.0226 65.5561 48.4698 65.5561C48.7289 65.5561 48.9795 65.5246 49.2214 65.4617C49.4658 65.3988 49.7078 65.3044 49.9473 65.1786L49.9473 65.8101C49.7054 65.9118 49.4573 65.9892 49.2031 66.0424C48.9489 66.0957 48.691 66.1223 48.4295 66.1223C47.7745 66.1223 47.2551 65.9336 46.8714 65.5561C46.4901 65.1786 46.2994 64.668 46.2994 64.0243C46.2994 63.3589 46.4803 62.8313 46.842 62.4418C47.2062 62.0497 47.6963 61.8537 48.3122 61.8537C48.8646 61.8537 49.3009 62.0304 49.621 62.3837C49.9437 62.7346 50.105 63.2125 50.105 63.8174M49.4304 63.6214C49.4255 63.256 49.3216 62.9644 49.1188 62.7467C48.9184 62.5289 48.6519 62.42 48.3195 62.42C47.9431 62.42 47.6413 62.5252 47.414 62.7358C47.1891 62.9463 47.0596 63.2427 47.0253 63.625L49.4304 63.6214M53.5916 62.5761C53.5158 62.5325 53.4327 62.501 53.3423 62.4817C53.2543 62.4599 53.1565 62.449 53.049 62.449C52.6677 62.449 52.3744 62.5724 52.1691 62.8192C51.9662 63.0637 51.8648 63.4157 51.8648 63.8755L51.8648 66.017L51.1865 66.017L51.1865 61.9517L51.8648 61.9517L51.8648 62.5833C52.0065 62.3365 52.1911 62.1538 52.4184 62.0352C52.6457 61.9142 52.9219 61.8537 53.247 61.8537C53.2934 61.8537 53.3447 61.8574 53.4009 61.8646C53.4571 61.8695 53.5195 61.8779 53.5879 61.89L53.5916 62.5761M58.563 63.9735C58.0179 63.9735 57.6403 64.0352 57.4301 64.1586C57.2199 64.282 57.1148 64.4926 57.1148 64.7902C57.1148 65.0273 57.193 65.2161 57.3495 65.3564C57.5083 65.4944 57.7234 65.5633 57.9947 65.5633C58.3687 65.5633 58.6681 65.4327 58.8929 65.1713C59.1202 64.9076 59.2339 64.5579 59.2339 64.1223L59.2339 63.9735L58.563 63.9735M59.9085 63.6976L59.9085 66.017L59.2339 66.017L59.2339 65.4C59.0799 65.6468 58.8881 65.8295 58.6583 65.9481C58.4285 66.0642 58.1475 66.1223 57.8151 66.1223C57.3947 66.1223 57.0598 66.0061 56.8105 65.7738C56.5637 65.5391 56.4402 65.2258 56.4402 64.8337C56.4402 64.3764 56.5942 64.0316 56.9022 63.7993C57.2126 63.567 57.6745 63.4508 58.288 63.4508L59.2339 63.4508L59.2339 63.3855C59.2339 63.0782 59.1312 62.841 58.9259 62.6741C58.7231 62.5047 58.4371 62.42 58.068 62.42C57.8334 62.42 57.6049 62.4478 57.3824 62.5035C57.16 62.5591 56.9462 62.6426 56.7409 62.7539L56.7409 62.1369C56.9877 62.0425 57.2272 61.9723 57.4594 61.9263C57.6916 61.8779 57.9177 61.8537 58.1377 61.8537C58.7316 61.8537 59.1752 62.0062 59.4685 62.3111C59.7618 62.616 59.9085 63.0782 59.9085 63.6976M64.0037 62.5688L64.0037 60.3692L64.6782 60.3692L64.6782 66.017L64.0037 66.017L64.0037 65.4072C63.8619 65.6492 63.6823 65.8295 63.4647 65.9481C63.2496 66.0642 62.9906 66.1223 62.6875 66.1223C62.1913 66.1223 61.7868 65.9263 61.474 65.5343C61.1636 65.1423 61.0083 64.6269 61.0083 63.988C61.0083 63.3492 61.1636 62.8338 61.474 62.4418C61.7868 62.0497 62.1913 61.8537 62.6875 61.8537C62.9906 61.8537 63.2496 61.913 63.4647 62.0316C63.6823 62.1477 63.8619 62.3268 64.0037 62.5688M61.7049 63.988C61.7049 64.4792 61.8064 64.8652 62.0092 65.1459C62.2145 65.4242 62.4956 65.5633 62.8525 65.5633C63.2093 65.5633 63.4904 65.4242 63.6957 65.1459C63.901 64.8652 64.0037 64.4792 64.0037 63.988C64.0037 63.4968 63.901 63.112 63.6957 62.8338C63.4904 62.5531 63.2093 62.4127 62.8525 62.4127C62.4956 62.4127 62.2145 62.5531 62.0092 62.8338C61.8064 63.112 61.7049 63.4968 61.7049 63.988M66.0677 61.9517L66.7423 61.9517L66.7423 66.017L66.0677 66.017L66.0677 61.9517M66.0677 60.3692L66.7423 60.3692L66.7423 61.2149L66.0677 61.2149L66.0677 60.3692M68.8028 65.4072L68.8028 67.5633L68.1245 67.5633L68.1245 61.9517L68.8028 61.9517L68.8028 62.5688C68.9445 62.3268 69.1229 62.1477 69.338 62.0316C69.5556 61.913 69.8146 61.8537 70.1153 61.8537C70.6139 61.8537 71.0184 62.0497 71.3288 62.4418C71.6416 62.8338 71.7981 63.3492 71.7981 63.988C71.7981 64.6269 71.6416 65.1423 71.3288 65.5343C71.0184 65.9263 70.6139 66.1223 70.1153 66.1223C69.8146 66.1223 69.5556 66.0642 69.338 65.9481C69.1229 65.8295 68.9445 65.6492 68.8028 65.4072M71.0978 63.988C71.0978 63.4968 70.9952 63.112 70.7899 62.8338C70.587 62.5531 70.3071 62.4127 69.9503 62.4127C69.5934 62.4127 69.3124 62.5531 69.107 62.8338C68.9042 63.112 68.8028 63.4968 68.8028 63.988C68.8028 64.4792 68.9042 64.8652 69.107 65.1459C69.3124 65.4242 69.5934 65.5633 69.9503 65.5633C70.3071 65.5633 70.587 65.4242 70.7899 65.1459C70.9952 64.8652 71.0978 64.4792 71.0978 63.988M72.9163 61.9517L73.5908 61.9517L73.5908 66.017L72.9163 66.017L72.9163 61.9517M72.9163 60.3692L73.5908 60.3692L73.5908 61.2149L72.9163 61.2149L72.9163 60.3692M77.6164 62.0715L77.6164 62.7031C77.4257 62.6063 77.2277 62.5337 77.0224 62.4853C76.8171 62.4369 76.6045 62.4127 76.3845 62.4127C76.0497 62.4127 75.7979 62.4635 75.6293 62.5652C75.4631 62.6668 75.38 62.8192 75.38 63.0225C75.38 63.1774 75.4399 63.2996 75.5596 63.3891C75.6794 63.4762 75.9201 63.5597 76.2819 63.6396L76.5128 63.6904C76.9919 63.792 77.3316 63.936 77.5321 64.1223C77.7349 64.3062 77.8363 64.5639 77.8363 64.8955C77.8363 65.2729 77.6848 65.5718 77.3817 65.792C77.0811 66.0122 76.6668 66.1223 76.1389 66.1223C75.9189 66.1223 75.6892 66.1005 75.4496 66.057C75.2125 66.0158 74.962 65.9529 74.6981 65.8682L74.6981 65.1786C74.9474 65.3068 75.193 65.4036 75.435 65.4689C75.6769 65.5319 75.9165 65.5633 76.1535 65.5633C76.4713 65.5633 76.7157 65.5101 76.8868 65.4036C77.0579 65.2947 77.1434 65.1423 77.1434 64.9463C77.1434 64.7648 77.0811 64.6256 76.9564 64.5288C76.8342 64.4321 76.5642 64.3389 76.1462 64.2494L75.9116 64.1949C75.4936 64.1078 75.1918 63.9747 75.006 63.7956C74.8203 63.6142 74.7274 63.3661 74.7274 63.0515C74.7274 62.6692 74.8643 62.374 75.138 62.1659C75.4117 61.9578 75.8004 61.8537 76.3039 61.8537C76.5532 61.8537 76.7878 61.8719 77.0078 61.9082C77.2277 61.9445 77.4306 61.9989 77.6164 62.0715M81.8692 62.1078L81.8692 62.7321C81.6785 62.6281 81.4867 62.5506 81.2936 62.4998C81.103 62.4466 80.9099 62.42 80.7143 62.42C80.2768 62.42 79.9371 62.5579 79.6951 62.8338C79.4531 63.1072 79.3322 63.492 79.3322 63.988C79.3322 64.4841 79.4531 64.87 79.6951 65.1459C79.9371 65.4193 80.2768 65.5561 80.7143 65.5561C80.9099 65.5561 81.103 65.5307 81.2936 65.4798C81.4867 65.4266 81.6785 65.348 81.8692 65.2439L81.8692 65.861C81.681 65.9481 81.4855 66.0134 81.2826 66.057C81.0822 66.1005 80.8683 66.1223 80.641 66.1223C80.0226 66.1223 79.5314 65.9299 79.1672 65.5452C78.803 65.1604 78.6209 64.6414 78.6209 63.988C78.6209 63.325 78.8042 62.8035 79.1709 62.4236C79.5399 62.0437 80.0446 61.8537 80.685 61.8537C80.8928 61.8537 81.0956 61.8755 81.2936 61.9191C81.4916 61.9602 81.6834 62.0231 81.8692 62.1078M83.0497 61.9517L83.7243 61.9517L83.7243 66.017L83.0497 66.017L83.0497 61.9517M83.0497 60.3692L83.7243 60.3692L83.7243 61.2149L83.0497 61.2149L83.0497 60.3692M88.5454 63.5633L88.5454 66.017L87.8708 66.017L87.8708 63.5851C87.8708 63.2004 87.795 62.9124 87.6435 62.7212C87.492 62.5301 87.2647 62.4345 86.9616 62.4345C86.5974 62.4345 86.3102 62.5494 86.1 62.7793C85.8898 63.0092 85.7847 63.3226 85.7847 63.7194L85.7847 66.017L85.1065 66.017L85.1065 61.9517L85.7847 61.9517L85.7847 62.5833C85.946 62.3389 86.1355 62.1562 86.353 62.0352C86.573 61.9142 86.8259 61.8537 87.1119 61.8537C87.5836 61.8537 87.9405 61.9989 88.1824 62.2893C88.4244 62.5773 88.5454 63.0019 88.5454 63.5633M92.6002 63.9372C92.6002 63.4532 92.4988 63.0782 92.296 62.812C92.0955 62.5458 91.8132 62.4127 91.4491 62.4127C91.0873 62.4127 90.805 62.5458 90.6021 62.812C90.4017 63.0782 90.3015 63.4532 90.3015 63.9372C90.3015 64.4187 90.4017 64.7926 90.6021 65.0588C90.805 65.325 91.0873 65.4581 91.4491 65.4581C91.8132 65.4581 92.0955 65.325 92.296 65.0588C92.4988 64.7926 92.6002 64.4187 92.6002 63.9372M93.2748 65.5125C93.2748 66.2046 93.1196 66.7188 92.8092 67.0551C92.4988 67.3939 92.0234 67.5633 91.3831 67.5633C91.146 67.5633 90.9223 67.5452 90.7121 67.5089C90.5019 67.475 90.2979 67.4217 90.0999 67.3491L90.0999 66.6994C90.2979 66.8059 90.4934 66.8845 90.6865 66.9354C90.8796 66.9862 91.0763 67.0116 91.2767 67.0116C91.7191 67.0116 92.0503 66.8966 92.2703 66.6668C92.4902 66.4393 92.6002 66.0945 92.6002 65.6323L92.6002 65.302C92.4609 65.5415 92.2825 65.7206 92.065 65.8392C91.8474 65.9578 91.5871 66.017 91.2841 66.017C90.7806 66.017 90.3748 65.8271 90.0669 65.4472C89.7589 65.0673 89.6049 64.5639 89.6049 63.9372C89.6049 63.3081 89.7589 62.8035 90.0669 62.4236C90.3748 62.0437 90.7806 61.8537 91.2841 61.8537C91.5871 61.8537 91.8474 61.913 92.065 62.0316C92.2825 62.1502 92.4609 62.3292 92.6002 62.5688L92.6002 61.9517L93.2748 61.9517L93.2748 65.5125M37.7718 79.8988L37.7718 80.2255L34.6702 80.2255C34.6995 80.6853 34.8388 81.0361 35.0881 81.2781C35.3399 81.5177 35.6894 81.6375 36.1367 81.6375C36.3957 81.6375 36.6463 81.606 36.8882 81.5431C37.1326 81.4802 37.3746 81.3858 37.6141 81.26L37.6141 81.8915C37.3722 81.9932 37.1241 82.0706 36.8699 82.1238C36.6157 82.1771 36.3578 82.2037 36.0963 82.2037C35.4413 82.2037 34.9219 82.015 34.5382 81.6375C34.1569 81.26 33.9662 80.7494 33.9662 80.1057C33.9662 79.4403 34.1471 78.9128 34.5088 78.5232C34.873 78.1312 35.3631 77.9351 35.979 77.9351C36.5314 77.9351 36.9677 78.1118 37.2878 78.4651C37.6105 78.816 37.7718 79.2939 37.7718 79.8988M37.0972 79.7028C37.0923 79.3374 36.9884 79.0458 36.7856 78.8281C36.5852 78.6103 36.3187 78.5014 35.9863 78.5014C35.6099 78.5014 35.3081 78.6066 35.0808 78.8172C34.8559 79.0277 34.7264 79.3241 34.6922 79.7065L37.0972 79.7028M38.879 76.4506L39.5536 76.4506L39.5536 82.0984L38.879 82.0984L38.879 76.4506M40.9614 78.0331L41.636 78.0331L41.636 82.0984L40.9614 82.0984L40.9614 78.0331M40.9614 76.4506L41.636 76.4506L41.636 77.2963L40.9614 77.2963L40.9614 76.4506M43.7111 76.8789L43.7111 78.0331L45.1006 78.0331L45.1006 78.5522L43.7111 78.5522L43.7111 80.7591C43.7111 81.0906 43.7563 81.3035 43.8467 81.3979C43.9396 81.4923 44.1266 81.5395 44.4077 81.5395L45.1006 81.5395L45.1006 82.0984L44.4077 82.0984C43.8871 82.0984 43.5278 82.0029 43.3298 81.8117C43.1318 81.6181 43.0328 81.2672 43.0328 80.7591L43.0328 78.5522L42.5379 78.5522L42.5379 78.0331L43.0328 78.0331L43.0328 76.8789L43.7111 76.8789M46.0868 81.1765L46.8604 81.1765L46.8604 82.0984L46.0868 82.0984L46.0868 81.1765M51.5421 77.2818L51.5421 79.3181L52.4734 79.3181C52.818 79.3181 53.0844 79.2297 53.2726 79.0531C53.4608 78.8765 53.5549 78.6248 53.5549 78.2981C53.5549 77.9739 53.4608 77.7234 53.2726 77.5468C53.0844 77.3701 52.818 77.2818 52.4734 77.2818L51.5421 77.2818M50.8016 76.6793L52.4734 76.6793C53.0868 76.6793 53.55 76.8172 53.8629 77.093C54.1782 77.3665 54.3358 77.7682 54.3358 78.2981C54.3358 78.8329 54.1782 79.237 53.8629 79.5104C53.55 79.7839 53.0868 79.9206 52.4734 79.9206L51.5421 79.9206L51.5421 82.0984L50.8016 82.0984L50.8016 76.6793M58.717 79.6447L58.717 82.0984L58.0424 82.0984L58.0424 79.6665C58.0424 79.2818 57.9666 78.9938 57.8151 78.8026C57.6635 78.6115 57.4362 78.5159 57.1331 78.5159C56.769 78.5159 56.4818 78.6308 56.2716 78.8607C56.0614 79.0906 55.9563 79.404 55.9563 79.8008L55.9563 82.0984L55.278 82.0984L55.278 76.4506L55.9563 76.4506L55.9563 78.6647C56.1176 78.4203 56.307 78.2376 56.5246 78.1166C56.7445 77.9956 56.9975 77.9351 57.2835 77.9351C57.7552 77.9351 58.112 78.0803 58.354 78.3707C58.596 78.6587 58.7169 79.0833 58.717 79.6447M61.9359 80.0549C61.3909 80.0549 61.0132 80.1166 60.803 80.24C60.5928 80.3634 60.4877 80.574 60.4877 80.8716C60.4877 81.1087 60.566 81.2975 60.7224 81.4378C60.8813 81.5758 61.0963 81.6447 61.3676 81.6447C61.7416 81.6447 62.041 81.5141 62.2659 81.2527C62.4932 80.989 62.6068 80.6393 62.6068 80.2037L62.6068 80.0549L61.9359 80.0549M63.2814 79.779L63.2814 82.0984L62.6068 82.0984L62.6068 81.4814C62.4528 81.7282 62.261 81.9109 62.0312 82.0295C61.8015 82.1456 61.5204 82.2037 61.188 82.2037C60.7676 82.2037 60.4328 82.0876 60.1834 81.8553C59.9366 81.6205 59.8132 81.3072 59.8132 80.9152C59.8132 80.4578 59.9671 80.113 60.2751 79.8807C60.5855 79.6484 61.0475 79.5322 61.6609 79.5322L62.6068 79.5322L62.6068 79.4669C62.6068 79.1596 62.5042 78.9224 62.2989 78.7555C62.096 78.5861 61.81 78.5014 61.441 78.5014C61.2063 78.5014 60.9778 78.5292 60.7554 78.5849C60.533 78.6405 60.3191 78.724 60.1138 78.8353L60.1138 78.2183C60.3606 78.1239 60.6002 78.0537 60.8324 78.0077C61.0646 77.9593 61.2907 77.9351 61.5106 77.9351C62.1046 77.9351 62.5482 78.0876 62.8415 78.3925C63.1348 78.6974 63.2814 79.1596 63.2814 79.779M67.2923 78.1529L67.2923 78.7845C67.1016 78.6877 66.9036 78.6151 66.6983 78.5667C66.493 78.5183 66.2804 78.4941 66.0604 78.4941C65.7256 78.4941 65.4738 78.5449 65.3052 78.6466C65.139 78.7482 65.0559 78.9007 65.0559 79.1039C65.0559 79.2588 65.1157 79.381 65.2355 79.4705C65.3553 79.5576 65.596 79.6411 65.9578 79.721L66.1887 79.7718C66.6678 79.8734 67.0075 80.0174 67.2079 80.2037C67.4108 80.3876 67.5122 80.6453 67.5122 80.9769C67.5122 81.3543 67.3607 81.6532 67.0576 81.8734C66.757 82.0936 66.3427 82.2037 65.8148 82.2037C65.5948 82.2037 65.3651 82.1819 65.1255 82.1384C64.8884 82.0972 64.6379 82.0343 64.374 81.9496L64.374 81.26C64.6232 81.3882 64.8689 81.485 65.1109 81.5504C65.3528 81.6133 65.5924 81.6447 65.8294 81.6447C66.1472 81.6447 66.3916 81.5915 66.5627 81.485C66.7338 81.3761 66.8193 81.2237 66.8193 81.0277C66.8193 80.8462 66.757 80.707 66.6323 80.6103C66.5101 80.5135 66.2401 80.4203 65.8221 80.3308L65.5875 80.2763C65.1695 80.1892 64.8677 80.0561 64.6819 79.877C64.4962 79.6956 64.4033 79.4475 64.4033 79.133C64.4033 78.7506 64.5402 78.4554 64.8139 78.2473C65.0876 78.0392 65.4763 77.9351 65.9798 77.9351C66.2291 77.9351 66.4637 77.9533 66.6837 77.9896C66.9036 78.0259 67.1065 78.0803 67.2923 78.1529M72.1024 79.8988L72.1024 80.2255L69.0007 80.2255C69.0301 80.6853 69.1694 81.0361 69.4187 81.2781C69.6704 81.5177 70.0199 81.6375 70.4672 81.6375C70.7263 81.6375 70.9768 81.606 71.2188 81.5431C71.4632 81.4802 71.7052 81.3858 71.9447 81.26L71.9447 81.8915C71.7027 81.9932 71.4547 82.0706 71.2005 82.1238C70.9463 82.1771 70.6884 82.2037 70.4269 82.2037C69.7719 82.2037 69.2525 82.015 68.8687 81.6375C68.4875 81.26 68.2968 80.7494 68.2968 80.1057C68.2968 79.4403 68.4777 78.9128 68.8394 78.5232C69.2036 78.1312 69.6936 77.9351 70.3096 77.9351C70.8619 77.9351 71.2982 78.1118 71.6184 78.4651C71.941 78.816 72.1024 79.2939 72.1024 79.8988M71.4278 79.7028C71.4229 79.3374 71.319 79.0458 71.1161 78.8281C70.9157 78.6103 70.6493 78.5014 70.3169 78.5014C69.9405 78.5014 69.6387 78.6066 69.4114 78.8172C69.1865 79.0277 69.0569 79.3241 69.0227 79.7065L71.4278 79.7028M73.2096 76.4506L73.8842 76.4506L73.8842 82.0984L73.2096 82.0984L73.2096 76.4506M75.292 76.4506L75.9666 76.4506L75.9666 82.0984L75.292 82.0984L75.292 76.4506M77.3047 80.4941L77.3047 78.0331L77.9793 78.0331L77.9793 80.4687C77.9793 80.8534 78.0551 81.1426 78.2066 81.3362C78.3582 81.5274 78.5855 81.6229 78.8886 81.6229C79.2527 81.6229 79.5399 81.508 79.7501 81.2781C79.9627 81.0482 80.0691 80.7349 80.0691 80.338L80.0691 78.0331L80.7437 78.0331L80.7437 82.0984L80.0691 82.0984L80.0691 81.4741C79.9053 81.721 79.7147 81.9049 79.4971 82.0258C79.2821 82.1444 79.0315 82.2037 78.7456 82.2037C78.2738 82.2037 77.9158 82.0585 77.6714 81.7681C77.4269 81.4778 77.3047 81.0531 77.3047 80.4941M84.7582 78.1529L84.7582 78.7845C84.5675 78.6877 84.3696 78.6151 84.1643 78.5667C83.9589 78.5183 83.7463 78.4941 83.5263 78.4941C83.1915 78.4941 82.9397 78.5449 82.7711 78.6466C82.6049 78.7482 82.5218 78.9007 82.5218 79.1039C82.5218 79.2588 82.5817 79.381 82.7014 79.4705C82.8212 79.5576 83.0619 79.6411 83.4237 79.721L83.6546 79.7718C84.1337 79.8734 84.4734 80.0174 84.6739 80.2037C84.8767 80.3876 84.9782 80.6453 84.9782 80.9769C84.9782 81.3543 84.8266 81.6532 84.5235 81.8734C84.2229 82.0936 83.8086 82.2037 83.2807 82.2037C83.0607 82.2037 82.831 82.1819 82.5914 82.1384C82.3544 82.0972 82.1038 82.0343 81.8399 81.9496L81.8399 81.26C82.0892 81.3882 82.3348 81.485 82.5768 81.5504C82.8187 81.6133 83.0583 81.6447 83.2954 81.6447C83.6131 81.6447 83.8575 81.5915 84.0286 81.485C84.1997 81.3761 84.2852 81.2237 84.2852 81.0277C84.2852 80.8462 84.2229 80.707 84.0983 80.6103C83.9761 80.5135 83.706 80.4203 83.288 80.3308L83.0534 80.2763C82.6354 80.1892 82.3336 80.0561 82.1478 79.877C81.9621 79.6956 81.8692 79.4475 81.8692 79.133C81.8692 78.7506 82.0061 78.4554 82.2798 78.2473C82.5536 78.0392 82.9422 77.9351 83.4457 77.9351C83.695 77.9351 83.9296 77.9533 84.1496 77.9896C84.3696 78.0259 84.5724 78.0803 84.7582 78.1529M91.8597 79.6447L91.8597 82.0984L91.1851 82.0984L91.1851 79.6665C91.1851 79.2818 91.1093 78.9938 90.9578 78.8026C90.8062 78.6115 90.5789 78.5159 90.2758 78.5159C89.9117 78.5159 89.6245 78.6308 89.4143 78.8607C89.2041 79.0906 89.099 79.404 89.099 79.8008L89.099 82.0984L88.4207 82.0984L88.4207 76.4506L89.099 76.4506L89.099 78.6647C89.2603 78.4203 89.4497 78.2376 89.6673 78.1166C89.8872 77.9956 90.1402 77.9351 90.4262 77.9351C90.8979 77.9351 91.2547 78.0803 91.4967 78.3707C91.7387 78.6587 91.8597 79.0833 91.8597 79.6447M96.7248 79.8988L96.7248 80.2255L93.6231 80.2255C93.6525 80.6853 93.7918 81.0361 94.0411 81.2781C94.2928 81.5177 94.6423 81.6375 95.0896 81.6375C95.3487 81.6375 95.5992 81.606 95.8412 81.5431C96.0856 81.4802 96.3276 81.3858 96.5671 81.26L96.5671 81.8915C96.3251 81.9932 96.0771 82.0706 95.8229 82.1238C95.5687 82.1771 95.3108 82.2037 95.0493 82.2037C94.3943 82.2037 93.8749 82.015 93.4911 81.6375C93.1098 81.26 92.9192 80.7494 92.9192 80.1057C92.9192 79.4403 93.1001 78.9128 93.4618 78.5232C93.826 78.1312 94.316 77.9351 94.932 77.9351C95.4843 77.9351 95.9206 78.1118 96.2408 78.4651C96.5634 78.816 96.7248 79.2939 96.7248 79.8988M96.0502 79.7028C96.0453 79.3374 95.9414 79.0458 95.7385 78.8281C95.5381 78.6103 95.2717 78.5014 94.9393 78.5014C94.5629 78.5014 94.261 78.6066 94.0337 78.8172C93.8089 79.0277 93.6793 79.3241 93.6451 79.7065L96.0502 79.7028M97.491 79.7645L99.4671 79.7645L99.4671 80.3598L97.491 80.3598L97.491 79.7645M37.6728 95.7261L37.6728 98.1798L36.9982 98.1798L36.9982 95.7479C36.9982 95.3632 36.9224 95.0752 36.7709 94.8841C36.6194 94.6929 36.3921 94.5973 36.089 94.5973C35.7248 94.5973 35.4376 94.7122 35.2274 94.9421C35.0172 95.172 34.9121 95.4854 34.9121 95.8822L34.9121 98.1798L34.2339 98.1798L34.2339 94.1145L34.9121 94.1145L34.9121 94.7461C35.0734 94.5017 35.2629 94.319 35.4804 94.198C35.7004 94.077 35.9533 94.0166 36.2393 94.0165C36.711 94.0166 37.0679 94.1617 37.3098 94.4521C37.5518 94.7401 37.6728 95.1648 37.6728 95.7261M41.7277 94.7316L41.7277 92.532L42.4022 92.532L42.4022 98.1798L41.7277 98.1798L41.7277 97.5701C41.5859 97.812 41.4062 97.9923 41.1887 98.1109C40.9736 98.227 40.7145 98.2851 40.4115 98.2851C39.9153 98.2851 39.5108 98.0891 39.198 97.6971C38.8875 97.3051 38.7323 96.7897 38.7323 96.1508C38.7323 95.512 38.8875 94.9966 39.198 94.6046C39.5108 94.2126 39.9153 94.0166 40.4115 94.0165C40.7145 94.0166 40.9736 94.0758 41.1887 94.1944C41.4062 94.3106 41.5859 94.4896 41.7277 94.7316M39.4289 96.1508C39.4289 96.6421 39.5304 97.028 39.7332 97.3087C39.9385 97.587 40.2196 97.7261 40.5765 97.7261C40.9333 97.7261 41.2144 97.587 41.4197 97.3087C41.625 97.028 41.7276 96.6421 41.7277 96.1508C41.7276 95.6596 41.625 95.2749 41.4197 94.9966C41.2144 94.7159 40.9333 94.5755 40.5765 94.5755C40.2196 94.5755 39.9385 94.7159 39.7332 94.9966C39.5304 95.2749 39.4289 95.6596 39.4289 96.1508M46.1711 94.7389C46.0954 94.6953 46.0122 94.6639 45.9218 94.6445C45.8338 94.6227 45.7361 94.6118 45.6285 94.6118C45.2472 94.6118 44.9539 94.7352 44.7486 94.9821C44.5458 95.2265 44.4443 95.5785 44.4443 96.0383L44.4443 98.1798L43.7661 98.1798L43.7661 94.1145L44.4443 94.1145L44.4443 94.7461C44.5861 94.4993 44.7706 94.3166 44.9979 94.198C45.2252 94.077 45.5014 94.0166 45.8265 94.0165C45.8729 94.0166 45.9243 94.0202 45.9805 94.0274C46.0367 94.0323 46.099 94.0407 46.1675 94.0528L46.1711 94.7389M50.2333 95.9802L50.2333 96.3069L47.1317 96.3069C47.161 96.7667 47.3003 97.1175 47.5496 97.3595C47.8014 97.5991 48.1509 97.7189 48.5982 97.7189C48.8572 97.7189 49.1078 97.6874 49.3497 97.6245C49.5942 97.5616 49.8361 97.4672 50.0757 97.3414L50.0757 97.973C49.8337 98.0746 49.5856 98.152 49.3314 98.2053C49.0772 98.2585 48.8194 98.2851 48.5578 98.2851C47.9028 98.2851 47.3834 98.0964 46.9997 97.7189C46.6184 97.3414 46.4278 96.8308 46.4278 96.1871C46.4278 95.5217 46.6086 94.9942 46.9704 94.6046C47.3345 94.2126 47.8246 94.0166 48.4405 94.0165C48.9929 94.0166 49.4292 94.1932 49.7494 94.5465C50.072 94.8974 50.2333 95.3753 50.2333 95.9802M49.5587 95.7842C49.5538 95.4188 49.4499 95.1272 49.2471 94.9095C49.0467 94.6917 48.7803 94.5828 48.4478 94.5828C48.0714 94.5828 47.7696 94.6881 47.5423 94.8986C47.3174 95.1091 47.1879 95.4055 47.1537 95.7879L49.5587 95.7842M53.7199 94.7389C53.6441 94.6953 53.561 94.6639 53.4706 94.6445C53.3826 94.6227 53.2848 94.6118 53.1773 94.6118C52.796 94.6118 52.5027 94.7352 52.2974 94.9821C52.0945 95.2265 51.9931 95.5785 51.9931 96.0383L51.9931 98.1798L51.3148 98.1798L51.3148 94.1145L51.9931 94.1145L51.9931 94.7461C52.1349 94.4993 52.3194 94.3166 52.5467 94.198C52.774 94.077 53.0502 94.0166 53.3753 94.0165C53.4217 94.0166 53.473 94.0202 53.5292 94.0274C53.5855 94.0323 53.6478 94.0407 53.7162 94.0528L53.7199 94.7389M54.4348 94.1145L55.1094 94.1145L55.1094 98.1798L54.4348 98.1798L54.4348 94.1145M54.4348 92.532L55.1094 92.532L55.1094 93.3777L54.4348 93.3777L54.4348 92.532M57.1845 92.9603L57.1845 94.1145L58.574 94.1145L58.574 94.6336L57.1845 94.6336L57.1845 96.8405C57.1845 97.172 57.2297 97.3849 57.3201 97.4793C57.413 97.5737 57.6 97.6209 57.8811 97.6209L58.574 97.6209L58.574 98.1798L57.8811 98.1798C57.3604 98.1798 57.0012 98.0843 56.8032 97.8931C56.6052 97.6995 56.5062 97.3486 56.5062 96.8405L56.5062 94.6336L56.0113 94.6336L56.0113 94.1145L56.5062 94.1145L56.5062 92.9603L57.1845 92.9603M59.5602 97.2579L60.3338 97.2579L60.3338 98.1798L59.5602 98.1798L59.5602 97.2579M64.275 92.7607L65.2722 92.7607L67.6992 97.2942L67.6992 92.7607L68.4178 92.7607L68.4178 98.1798L67.4206 98.1798L64.9935 93.6463L64.9935 98.1798L64.275 98.1798L64.275 92.7607M71.7284 96.1363C71.1834 96.1363 70.8057 96.198 70.5955 96.3214C70.3853 96.4448 70.2802 96.6554 70.2802 96.953C70.2802 97.1901 70.3585 97.3789 70.5149 97.5192C70.6738 97.6572 70.8888 97.7261 71.1601 97.7261C71.5341 97.7261 71.8335 97.5955 72.0584 97.3341C72.2857 97.0704 72.3993 96.7207 72.3993 96.2851L72.3993 96.1363L71.7284 96.1363M73.0739 95.8604L73.0739 98.1798L72.3993 98.1798L72.3993 97.5628C72.2453 97.8096 72.0535 97.9923 71.8237 98.1109C71.594 98.227 71.3129 98.2851 70.9805 98.2851C70.5601 98.2851 70.2253 98.169 69.9759 97.9367C69.7291 97.7019 69.6057 97.3886 69.6057 96.9966C69.6057 96.5392 69.7596 96.1944 70.0676 95.9621C70.378 95.7298 70.84 95.6136 71.4534 95.6136L72.3993 95.6136L72.3993 95.5483C72.3993 95.241 72.2967 95.0038 72.0914 94.8369C71.8885 94.6675 71.6025 94.5828 71.2335 94.5828C70.9988 94.5828 70.7703 94.6106 70.5479 94.6663C70.3255 94.7219 70.1116 94.8054 69.9063 94.9167L69.9063 94.2997C70.1531 94.2053 70.3927 94.1351 70.6249 94.0891C70.8571 94.0407 71.0831 94.0166 71.3031 94.0165C71.897 94.0166 72.3407 94.169 72.634 94.4739C72.9273 94.7788 73.0739 95.241 73.0739 95.8604M77.664 94.8949C77.8327 94.5949 78.0343 94.3735 78.269 94.2307C78.5036 94.0879 78.7798 94.0166 79.0975 94.0165C79.5252 94.0166 79.8552 94.1654 80.0874 94.463C80.3196 94.7582 80.4357 95.1793 80.4357 95.7261L80.4357 98.1798L79.7574 98.1798L79.7574 95.7479C79.7574 95.3583 79.6878 95.0692 79.5485 94.8804C79.4091 94.6917 79.1965 94.5973 78.9106 94.5973C78.561 94.5973 78.2848 94.7122 78.082 94.9421C77.8791 95.172 77.7777 95.4854 77.7777 95.8822L77.7777 98.1798L77.0994 98.1798L77.0994 95.7479C77.0994 95.3559 77.0298 95.0668 76.8905 94.8804C76.7511 94.6917 76.536 94.5973 76.2452 94.5973C75.9006 94.5973 75.6268 94.7135 75.424 94.9458C75.2211 95.1756 75.1197 95.4878 75.1197 95.8822L75.1197 98.1798L74.4414 98.1798L74.4414 94.1145L75.1197 94.1145L75.1197 94.7461C75.2737 94.4969 75.4582 94.313 75.6733 94.1944C75.8884 94.0758 76.1438 94.0166 76.4395 94.0165C76.7377 94.0166 76.9907 94.0916 77.1984 94.2416C77.4086 94.3916 77.5638 94.6094 77.664 94.8949M87.1302 94.2706L87.1302 94.8949C86.9396 94.7909 86.7477 94.7135 86.5546 94.6626C86.364 94.6094 86.1709 94.5828 85.9754 94.5828C85.5379 94.5828 85.1981 94.7207 84.9562 94.9966C84.7142 95.27 84.5932 95.6548 84.5932 96.1508C84.5932 96.6469 84.7142 97.0329 84.9562 97.3087C85.1981 97.5822 85.5379 97.7189 85.9754 97.7189C86.1709 97.7189 86.364 97.6935 86.5546 97.6426C86.7477 97.5894 86.9396 97.5108 87.1302 97.4067L87.1302 98.0238C86.942 98.1109 86.7465 98.1762 86.5436 98.2198C86.3432 98.2633 86.1293 98.2851 85.902 98.2851C85.2837 98.2851 84.7924 98.0927 84.4282 97.708C84.064 97.3232 83.8819 96.8042 83.8819 96.1508C83.8819 95.4878 84.0653 94.9663 84.4319 94.5864C84.801 94.2065 85.3057 94.0166 85.946 94.0165C86.1538 94.0166 86.3567 94.0383 86.5546 94.0819C86.7526 94.123 86.9445 94.1859 87.1302 94.2706"  />
          <path id="path6222" fill="url(#defitem2)" stroke-width="1.25141" d="M77.6898 112.752C77.6898 112.752 88.8718 103.447 94.0338 98.2851C99.1959 93.1231 108.501 81.9411 108.501 81.9411C108.501 81.9411 96.1456 90.7767 86.5254 90.7767C86.5254 100.397 77.6898 112.752 77.6898 112.752Z"  />
        </g>
        <g id="g5130">
          <path id="path7783" fill="url(#defitem3)" stroke-width="1.03231" d="M66.0463 16.032L59.2804 22.913L45.9184 25.951L54.8077 31.0833L61.4534 29.701C63.7419 32.576 67.4581 33.823 71.4235 32.9611C71.8195 32.875 72.3051 32.6996 72.8358 32.4499L76.2145 26.598L70.8898 27.748C69.3044 28.0923 67.7491 26.339 67.2541 24.794C66.7608 23.249 67.0689 21.112 68.654 20.767C68.654 20.767 67.114 14.946 66.0463 16.032Z"  />
          <path id="path10166" fill="url(#defitem4)" stroke-width="1.03231" d="M64.1415 20.447C64.0007 20.006 63.6988 19.759 62.9158 19.969L28.7018 29.4913C28.6863 29.4954 28.6794 29.5065 28.6643 29.5121C26.9256 30.046 25.9038 31.8612 26.379 33.632C26.8541 35.4031 28.6453 36.4647 30.4182 36.0574C30.4339 36.055 30.446 36.0607 30.461 36.0567L64.868 27.214C66.434 26.795 65.3994 25.746 65.1046 24.644L64.4159 22.074C64.268 21.522 64.2823 20.889 64.1415 20.447ZM32.8066 31.9206C33.187 33.3403 32.3451 34.7995 30.9253 35.1791C29.5067 35.5588 28.0478 34.7173 27.6667 33.2978C27.2855 31.8782 28.1284 30.4196 29.548 30.0392C30.9673 29.6593 32.4254 30.501 32.8066 31.9206Z"  />
          <path id="path10186" fill="url(#defitem5)" stroke-width="1.03231" d="M33.4491 31.7484C33.0679 30.3289 31.6098 29.4872 30.1905 29.8671C30.0812 29.8963 29.9767 29.9317 29.8746 29.9732C31.1835 29.7939 32.455 30.6111 32.8066 31.9206C33.1577 33.231 32.4661 34.5754 31.2411 35.0729C31.3502 35.0579 31.4586 35.0362 31.5677 35.0069C32.9876 34.6273 33.8295 33.1681 33.4491 31.7484Z"  />
          <path id="path64" fill="url(#defitem6)" stroke-width="1.03231" d="M79.8289 23.288L72.3052 25.302C70.6653 25.741 69.1509 23.925 68.7104 22.285C68.2715 20.646 68.6736 18.318 70.3132 17.878L77.838 15.864C75.2354 12.659 69.8968 12.364 67.8444 12.913C62.4241 14.364 59.4568 18.937 60.9153 24.373C62.3721 29.8068 67.2082 32.3247 72.6284 30.8739C74.6809 30.3242 79.1795 27.363 79.8289 23.288Z"  />
          <path id="path87" fill="url(#defitem7)" stroke-width="1.03231" d="M68.2119 14.283C65.8301 14.921 63.9447 16.265 62.9033 18.069L62.9029 18.069C61.9159 19.779 61.7023 21.832 62.2857 24.006C62.8735 26.198 64.094 27.882 65.8147 28.8757L65.8147 28.8757C67.6105 29.9125 69.8993 30.1355 72.2608 29.5034C73.6223 29.139 76.0887 27.525 77.472 25.387C75.2549 25.98 72.6725 26.672 72.6725 26.672C70.2212 27.328 67.9959 25.096 67.3399 22.652C66.9415 21.164 67.085 19.454 67.8117 18.196C68.2791 17.387 68.9868 16.765 69.9452 16.508C69.9456 16.507 72.6065 15.795 74.7653 15.218C72.397 13.993 69.3695 13.974 68.2119 14.283Z"  />
          <path id="path117" fill="url(#defitem8)" stroke-width="1.03231" d="M69.555 17.437C67.8142 17.903 67.4426 20.582 67.9532 22.485C68.4646 24.39 70.126 26.523 71.867 26.058C71.867 26.058 79.7916 23.518 79.8286 23.288L72.3049 25.302C70.665 25.741 69.1506 23.925 68.7101 22.285C68.2712 20.646 68.6733 18.317 70.3129 17.878L77.8377 15.864L69.555 17.437Z"  />
          <path id="path10190" fill="url(#defitem9)" stroke-width="1.03231" d="M29.2321 30.1454C29.1222 30.1604 29.0155 30.1819 28.9055 30.2114C27.4859 30.5918 26.643 32.0504 27.0242 33.4699C27.4053 34.8894 28.8642 35.731 30.2828 35.3512C30.392 35.322 30.4965 35.2866 30.5986 35.2451C29.2896 35.4255 28.0185 34.608 27.6667 33.2978C27.3148 31.9875 28.0074 30.6434 29.2321 30.1454Z"  />
          <path id="path124" fill="url(#defitem10)" stroke-width="1.03231" d="M26.5564 33.3255C26.3298 32.4807 26.4457 31.6272 26.8151 30.9058C26.3082 31.6838 26.1186 32.6642 26.3791 33.6326C26.8542 35.4037 28.6452 36.4677 30.4181 36.0603C30.4339 36.058 30.4505 36.059 30.4655 36.0549L30.9498 35.9256C29.1773 36.3323 27.0314 35.0966 26.5564 33.3255Z"  />
          <path id="path2236" fill="url(#defitem11)" stroke-width="1.03231" d="M47.1882 24.352L28.7015 29.4952C28.686 29.4994 28.683 29.5062 28.6679 29.5119C26.9292 30.0458 25.9017 31.8547 26.3769 33.6255C26.8519 35.3966 28.6487 36.464 30.4216 36.0567C30.4373 36.0543 30.444 36.0583 30.459 36.0543L48.5246 31.4116C48.5373 28.9662 48.079 26.562 47.1882 24.352ZM31.5674 30.3098C32.157 30.6502 32.6162 31.2157 32.8068 31.9254C33.1872 33.3452 32.3455 34.804 30.9257 35.1836C29.5071 35.5633 28.0486 34.722 27.6674 33.3025C27.2863 31.883 28.1289 30.4247 29.5485 30.0443C30.2582 29.8544 30.9778 29.9695 31.5674 30.3098Z"  />
          <path id="path33" fill="url(#defitem12)" fill-opacity="0.5" stroke-width="1.03231" d="M34.0581 29.387C33.6426 29.5222 33.3218 29.847 33.1354 30.271C32.9388 30.7192 32.8926 31.2808 33.0453 31.8473C33.3399 32.9499 34.272 33.6593 35.1663 33.4621C35.1663 33.4699 56.2254 27.835 61.1815 26.508C61.1136 26.319 60.13 22.664 60.086 22.422C58.6658 22.802 34.0581 29.387 34.0581 29.387Z"  />
          <path id="path108" fill="url(#defitem13)" stroke-width="1.03231" d="M66.5989 28.8809C64.8779 27.887 63.6577 26.203 63.0699 24.011C62.4866 21.837 62.7001 19.784 63.6871 18.074L63.6875 18.074C64.7289 16.27 66.6143 14.926 68.9961 14.289C69.3958 14.182 70.0211 14.116 70.762 14.123C69.6877 14.042 68.7606 14.113 68.2292 14.255C65.8474 14.893 63.9621 16.237 62.9207 18.041L62.9202 18.041C61.9332 19.751 61.7197 21.804 62.3031 23.978C62.8909 26.17 64.1114 27.854 65.8321 28.8476C66.9614 29.4996 68.2863 29.8293 69.7011 29.8273C68.5748 29.7298 67.5215 29.4135 66.5989 28.8809Z"  />
        </g>
      </g>
    </g>
  </g>
</svg>
