<?xml version="1.0" standalone="no"?>
<!DOCTYPE svg PUBLIC "-//W3C//DTD SVG 20010904//EN" "http://www.w3.org/TR/2001/REC-SVG-20010904/DTD/svg10.dtd">
<!-- Created using Karbon14, part of koffice: http://www.koffice.org/karbon -->
<svg xmlns="http://www.w3.org/2000/svg" xmlns:xlink="http://www.w3.org/1999/xlink" width="128px" height="128px">
  <defs>
    <radialGradient id="defitem0" gradientUnits="userSpaceOnUse" cx="64.0002" cy="122.802" fx="64.0002" fy="122.802" r="61.5368" >
      <stop stop-color="#000000" offset="0" stop-opacity="1" />
      <stop stop-color="#000000" offset="1" stop-opacity="0" />
    </radialGradient>
    <linearGradient id="defitem1" gradientUnits="userSpaceOnUse" x1="64.0002" y1="128" x2="64.0002" y2="122.802" >
      <stop stop-color="#ffffff" offset="0" stop-opacity="1" />
      <stop stop-color="#ffffff" offset="1" stop-opacity="0" />
    </linearGradient>
    <linearGradient id="defitem2" gradientUnits="userSpaceOnUse" x1="64.0002" y1="117.18" x2="64.0002" y2="122.802" >
      <stop stop-color="#ffffff" offset="0" stop-opacity="1" />
      <stop stop-color="#ffffff" offset="1" stop-opacity="0" />
    </linearGradient>
    <radialGradient id="defitem3" gradientUnits="userSpaceOnUse" cx="3.32515" cy="-2.445" fx="3.32515" fy="-2.445" r="129.475" >
      <stop stop-color="#f2f2f2" offset="0" stop-opacity="1" />
      <stop stop-color="#c3c3c3" offset="1" stop-opacity="1" />
    </radialGradient>
    <radialGradient id="defitem4" gradientUnits="userSpaceOnUse" cx="99.3937" cy="99.1858" fx="99.3937" fy="99.1858" r="104.412" >
      <stop stop-color="#525456" offset="0" stop-opacity="1" />
      <stop stop-color="#89898c" offset="0.113661" stop-opacity="1" />
      <stop stop-color="#ebebeb" offset="0.202967" stop-opacity="1" />
      <stop stop-color="#f9f9f9" offset="0.2363" stop-opacity="1" />
      <stop stop-color="#ffffff" offset="0.2722" stop-opacity="1" />
      <stop stop-color="#f9f9f9" offset="0.5313" stop-opacity="1" />
      <stop stop-color="#ebebeb" offset="0.8449" stop-opacity="1" />
      <stop stop-color="#e1e2e2" offset="1" stop-opacity="1" />
    </radialGradient>
    <linearGradient id="defitem5" gradientUnits="userSpaceOnUse" x1="94.2805" y1="95.2133" x2="86.7106" y2="87.6434" >
      <stop stop-color="#878985" offset="0" stop-opacity="1" />
      <stop stop-color="#8c8e89" offset="0.0072" stop-opacity="1" />
      <stop stop-color="#aaaca8" offset="0.0673" stop-opacity="1" />
      <stop stop-color="#c3c6c3" offset="0.1347" stop-opacity="1" />
      <stop stop-color="#dbdbda" offset="0.265258" stop-opacity="1" />
      <stop stop-color="#ebebeb" offset="0.376461" stop-opacity="1" />
      <stop stop-color="#f6f6f6" offset="0.487403" stop-opacity="1" />
      <stop stop-color="#fdfdfd" offset="0.632409" stop-opacity="1" />
      <stop stop-color="#ffffff" offset="1" stop-opacity="1" />
    </linearGradient>
    <radialGradient id="defitem6" gradientUnits="userSpaceOnUse" cx="34.5704" cy="45.0557" fx="34.5704" fy="45.0557" r="3.4399" >
      <stop stop-color="#b3932a" offset="0" stop-opacity="1" />
      <stop stop-color="#e4dbc8" offset="1" stop-opacity="1" />
    </radialGradient>
    <radialGradient id="defitem7" gradientUnits="userSpaceOnUse" cx="32.67" cy="65.4606" fx="32.67" fy="65.4606" r="3.1576" >
      <stop stop-color="#232323" offset="0" stop-opacity="1" />
      <stop stop-color="#232323" offset="0.5" stop-opacity="1" />
      <stop stop-color="#232323" offset="0.75" stop-opacity="1" />
      <stop stop-color="#000000" offset="1" stop-opacity="1" />
    </radialGradient>
    <radialGradient id="defitem8" gradientUnits="userSpaceOnUse" cx="33.9429" cy="72.3473" fx="33.1598" fy="99.8745" r="1.9717" >
      <stop stop-color="#9a7500" offset="0" stop-opacity="1" />
      <stop stop-color="#e2ac00" offset="0.0929204" stop-opacity="1" />
      <stop stop-color="#ffcd2a" offset="0.504317" stop-opacity="1" />
      <stop stop-color="#e2ac00" offset="0.915714" stop-opacity="1" />
      <stop stop-color="#b88c00" offset="1" stop-opacity="1" />
    </radialGradient>
    <linearGradient id="defitem9" gradientUnits="userSpaceOnUse" x1="29.6867" y1="72.8163" x2="31.7864" y2="72.8274" >
      <stop stop-color="#9a7500" offset="0" stop-opacity="1" />
      <stop stop-color="#e2ac00" offset="0.0929204" stop-opacity="1" />
      <stop stop-color="#ffcd2a" offset="0.504317" stop-opacity="1" />
      <stop stop-color="#e2ac00" offset="0.915714" stop-opacity="1" />
      <stop stop-color="#b88c00" offset="1" stop-opacity="1" />
    </linearGradient>
    <radialGradient id="defitem10" gradientUnits="userSpaceOnUse" cx="30.607" cy="78.295" fx="30.607" fy="78.295" r="22.3215" >
      <stop stop-color="#ffffff" offset="0" stop-opacity="0.683453" />
      <stop stop-color="#ffffff" offset="1" stop-opacity="0" />
    </radialGradient>
    <radialGradient id="defitem11" gradientUnits="userSpaceOnUse" cx="31.5884" cy="72.811" fx="31.5884" fy="72.811" r="27.9672" >
      <stop stop-color="#ffffff" offset="0" stop-opacity="1" />
      <stop stop-color="#ffffff" offset="1" stop-opacity="0" />
    </radialGradient>
    <radialGradient id="defitem12" gradientUnits="userSpaceOnUse" cx="32.9388" cy="95.6117" fx="31.5236" fy="96.1612" r="3.4181" >
      <stop stop-color="#ffffff" offset="0" stop-opacity="1" />
      <stop stop-color="#ffffff" offset="1" stop-opacity="0" />
    </radialGradient>
    <radialGradient id="defitem13" gradientUnits="userSpaceOnUse" cx="32.8885" cy="100.641" fx="32.8885" fy="100.641" r="1.483" >
      <stop stop-color="#ffffff" offset="0" stop-opacity="1" />
      <stop stop-color="#232323" offset="1" stop-opacity="0" />
    </radialGradient>
    <linearGradient id="defitem14" gradientUnits="userSpaceOnUse" x1="30.7746" y1="99.7572" x2="33.9464" y2="102.749" >
      <stop stop-color="#ffff00" offset="0" stop-opacity="1" />
      <stop stop-color="#ffb66d" offset="1" stop-opacity="1" />
    </linearGradient>
    <linearGradient id="defitem15" gradientUnits="userSpaceOnUse" x1="30.4593" y1="65.8437" x2="41.4456" y2="55.8032" >
      <stop stop-color="#b3932a" offset="0" stop-opacity="1" />
      <stop stop-color="#e4dbc8" offset="1" stop-opacity="1" />
    </linearGradient>
    <radialGradient id="defitem16" gradientUnits="userSpaceOnUse" cx="18.2236" cy="40.8715" fx="18.2236" fy="40.8715" r="30.1181" >
      <stop stop-color="#ffffff" offset="0" stop-opacity="1" />
      <stop stop-color="#ffffff" offset="1" stop-opacity="0" />
    </radialGradient>
    <radialGradient id="defitem17" gradientUnits="userSpaceOnUse" cx="35.4034" cy="100.722" fx="35.4034" fy="100.722" r="1.0171" >
      <stop stop-color="#ffffff" offset="0" stop-opacity="1" />
      <stop stop-color="#232323" offset="1" stop-opacity="0" />
    </radialGradient>
    <radialGradient id="defitem18" gradientUnits="userSpaceOnUse" cx="52.1532" cy="69.4645" fx="54.0288" fy="66.444" r="3.7191" >
      <stop stop-color="#505050" offset="0" stop-opacity="1" />
      <stop stop-color="#000000" offset="1" stop-opacity="1" />
    </radialGradient>
    <linearGradient id="defitem19" gradientUnits="userSpaceOnUse" x1="48.5264" y1="36.0889" x2="54.3511" y2="36.8581" >
      <stop stop-color="#544411" offset="0" stop-opacity="1" />
      <stop stop-color="#b59e69" offset="1" stop-opacity="1" />
    </linearGradient>
    <radialGradient id="defitem20" gradientUnits="userSpaceOnUse" cx="50.8838" cy="37.294" fx="49.3697" fy="36.228" r="3.061" >
      <stop stop-color="#b3932a" offset="0" stop-opacity="1" />
      <stop stop-color="#e4dbc8" offset="1" stop-opacity="1" />
    </radialGradient>
    <radialGradient id="defitem21" gradientUnits="userSpaceOnUse" cx="49.3908" cy="49.5925" fx="49.3908" fy="49.5925" r="2.2218" >
      <stop stop-color="#ffffff" offset="0" stop-opacity="1" />
      <stop stop-color="#ffffff" offset="1" stop-opacity="0" />
    </radialGradient>
    <linearGradient id="defitem22" gradientUnits="userSpaceOnUse" x1="55.2399" y1="86.2053" x2="50.7335" y2="85.6786" >
      <stop stop-color="#ffffff" offset="0" stop-opacity="1" />
      <stop stop-color="#ffffff" offset="1" stop-opacity="0" />
    </linearGradient>
    <radialGradient id="defitem23" gradientUnits="userSpaceOnUse" cx="52.5992" cy="85.2185" fx="53.4917" fy="85.5458" r="2.1356" >
      <stop stop-color="#ffffff" offset="0" stop-opacity="1" />
      <stop stop-color="#ffffff" offset="1" stop-opacity="0" />
    </radialGradient>
    <linearGradient id="defitem24" gradientUnits="userSpaceOnUse" x1="51.1748" y1="48.134" x2="51.2738" y2="52.5871" >
      <stop stop-color="#ffffff" offset="0" stop-opacity="1" />
      <stop stop-color="#ffffff" offset="1" stop-opacity="0" />
    </linearGradient>
    <linearGradient id="defitem25" gradientUnits="userSpaceOnUse" x1="50.1235" y1="44.4078" x2="51.1591" y2="40.8281" >
      <stop stop-color="#000000" offset="0" stop-opacity="1" />
      <stop stop-color="#000000" offset="1" stop-opacity="0" />
    </linearGradient>
    <radialGradient id="defitem26" gradientUnits="userSpaceOnUse" cx="51.4227" cy="44.1067" fx="52.2574" fy="44.4108" r="1.9962" >
      <stop stop-color="#ffffff" offset="0" stop-opacity="1" />
      <stop stop-color="#ffffff" offset="1" stop-opacity="0" />
    </radialGradient>
    <radialGradient id="defitem27" gradientUnits="userSpaceOnUse" cx="51.4693" cy="46.0365" fx="52.2832" fy="46.2969" r="2.0311" >
      <stop stop-color="#ffffff" offset="0" stop-opacity="1" />
      <stop stop-color="#ffffff" offset="1" stop-opacity="0" />
    </radialGradient>
    <radialGradient id="defitem28" gradientUnits="userSpaceOnUse" cx="51.5169" cy="47.9907" fx="52.0417" fy="48.3022" r="2.101" >
      <stop stop-color="#ffffff" offset="0" stop-opacity="1" />
      <stop stop-color="#ffffff" offset="1" stop-opacity="0" />
    </radialGradient>
    <radialGradient id="defitem29" gradientUnits="userSpaceOnUse" cx="51.5636" cy="49.9377" fx="51.9154" fy="50.165" r="2.1358" >
      <stop stop-color="#ffffff" offset="0" stop-opacity="1" />
      <stop stop-color="#ffffff" offset="1" stop-opacity="0" />
    </radialGradient>
    <linearGradient id="defitem30" gradientUnits="userSpaceOnUse" x1="45.0637" y1="46.1032" x2="50.4665" y2="47.6648" >
      <stop stop-color="#c3c3c3" offset="0" stop-opacity="1" />
      <stop stop-color="#757575" offset="1" stop-opacity="1" />
    </linearGradient>
    <linearGradient id="defitem31" gradientUnits="userSpaceOnUse" x1="74.2613" y1="32.218" x2="74.2659" y2="29.3204" >
      <stop stop-color="#878787" offset="0" stop-opacity="1" />
      <stop stop-color="#878787" offset="1" stop-opacity="0" />
    </linearGradient>
    <linearGradient id="defitem32" gradientUnits="userSpaceOnUse" x1="78.8273" y1="69.3832" x2="67.4817" y2="64.9504" >
      <stop stop-color="#dddddd" offset="0" stop-opacity="1" />
      <stop stop-color="#ededed" offset="1" stop-opacity="1" />
    </linearGradient>
    <linearGradient id="defitem33" gradientUnits="userSpaceOnUse" x1="71.3904" y1="36.8954" x2="76.0412" y2="59.4129" >
      <stop stop-color="#ededed" offset="0" stop-opacity="1" />
      <stop stop-color="#dfdfdf" offset="1" stop-opacity="1" />
    </linearGradient>
    <linearGradient id="defitem34" gradientUnits="userSpaceOnUse" x1="67.6745" y1="29.4428" x2="68.1353" y2="29.9192" >
      <stop stop-color="#000000" offset="0" stop-opacity="1" />
      <stop stop-color="#000000" offset="1" stop-opacity="0" />
    </linearGradient>
    <linearGradient id="defitem35" gradientUnits="userSpaceOnUse" x1="69.6914" y1="49.8611" x2="58.5664" y2="38.736" >
      <stop stop-color="#bf0202" offset="0" stop-opacity="1" />
      <stop stop-color="#e20800" offset="1" stop-opacity="1" />
    </linearGradient>
    <linearGradient id="defitem36" gradientUnits="userSpaceOnUse" x1="78.6801" y1="29.4324" x2="78.1051" y2="30.023" >
      <stop stop-color="#000000" offset="0" stop-opacity="1" />
      <stop stop-color="#000000" offset="1" stop-opacity="0" />
    </linearGradient>
    <linearGradient id="defitem37" gradientUnits="userSpaceOnUse" x1="79.1401" y1="55.4644" x2="67.5532" y2="43.8775" >
      <stop stop-color="#bf0202" offset="0" stop-opacity="1" />
      <stop stop-color="#e20800" offset="1" stop-opacity="1" />
    </linearGradient>
    <radialGradient id="defitem38" gradientUnits="userSpaceOnUse" cx="65.2464" cy="25.662" fx="65.8258" fy="22.823" r="26.9368" >
      <stop stop-color="#ffffff" offset="0" stop-opacity="1" />
      <stop stop-color="#ffffff" offset="1" stop-opacity="0" />
    </radialGradient>
    <linearGradient id="defitem39" gradientUnits="userSpaceOnUse" x1="80.6135" y1="68.413" x2="80.113" y2="68.4186" >
      <stop stop-color="#000000" offset="0" stop-opacity="1" />
      <stop stop-color="#000000" offset="1" stop-opacity="0" />
    </linearGradient>
    <linearGradient id="defitem40" gradientUnits="userSpaceOnUse" x1="70.5122" y1="70.7727" x2="70.5456" y2="70.1101" >
      <stop stop-color="#000000" offset="0" stop-opacity="1" />
      <stop stop-color="#000000" offset="1" stop-opacity="0" />
    </linearGradient>
    <linearGradient id="defitem41" gradientUnits="userSpaceOnUse" x1="77.9722" y1="29.2317" x2="77.9388" y2="30.0818" >
      <stop stop-color="#000000" offset="0" stop-opacity="1" />
      <stop stop-color="#000000" offset="1" stop-opacity="0" />
    </linearGradient>
    <linearGradient id="defitem42" gradientUnits="userSpaceOnUse" x1="66.7817" y1="32.4714" x2="66.9001" y2="31.5231" >
      <stop stop-color="#ffffff" offset="0" stop-opacity="1" />
      <stop stop-color="#ffffff" offset="1" stop-opacity="0" />
    </linearGradient>
    <linearGradient id="defitem43" gradientUnits="userSpaceOnUse" x1="73.81" y1="62.8946" x2="73.8101" y2="63.7433" >
      <stop stop-color="#000000" offset="0" stop-opacity="1" />
      <stop stop-color="#000000" offset="1" stop-opacity="0" />
    </linearGradient>
    <radialGradient id="defitem44" gradientUnits="userSpaceOnUse" cx="96.1476" cy="40.1738" fx="96.1476" fy="40.1738" r="22.6444" >
      <stop stop-color="#f2f2f2" offset="0" stop-opacity="1" />
      <stop stop-color="#c3c3c3" offset="1" stop-opacity="1" />
    </radialGradient>
    <linearGradient id="defitem45" gradientUnits="userSpaceOnUse" x1="94.0707" y1="56.4399" x2="94.0415" y2="39.2208" >
      <stop stop-color="#b6b8b8" offset="0" stop-opacity="1" />
      <stop stop-color="#ebebeb" offset="0.18851" stop-opacity="1" />
      <stop stop-color="#f9f9f9" offset="0.257181" stop-opacity="1" />
      <stop stop-color="#ffffff" offset="0.301113" stop-opacity="1" />
      <stop stop-color="#f9f9f9" offset="0.5313" stop-opacity="1" />
      <stop stop-color="#ebebeb" offset="0.8449" stop-opacity="1" />
      <stop stop-color="#e1e2e2" offset="1" stop-opacity="1" />
    </linearGradient>
    <linearGradient id="defitem46" gradientUnits="userSpaceOnUse" x1="95.05" y1="41.6382" x2="95.0696" y2="53.1446" >
      <stop stop-color="#70a8f4" offset="0.25" stop-opacity="0" />
      <stop stop-color="#0056ae" offset="1" stop-opacity="1" />
    </linearGradient>
    <linearGradient id="defitem47" gradientUnits="userSpaceOnUse" x1="95.8123" y1="39.8971" x2="95.8421" y2="57.4221" >
      <stop stop-color="#545454" offset="0.0533" stop-opacity="1" />
      <stop stop-color="#bababa" offset="0.211134" stop-opacity="1" />
      <stop stop-color="#ffffff" offset="0.362655" stop-opacity="1" />
      <stop stop-color="#ffffff" offset="0.603228" stop-opacity="1" />
      <stop stop-color="#e8e8e8" offset="0.849766" stop-opacity="1" />
      <stop stop-color="#545454" offset="1" stop-opacity="1" />
    </linearGradient>
    <linearGradient id="defitem48" gradientUnits="userSpaceOnUse" x1="91.5059" y1="38.9352" x2="91.53" y2="53.097" >
      <stop stop-color="#efefef" offset="0.4083" stop-opacity="1" />
      <stop stop-color="#c3c3c3" offset="0.506285" stop-opacity="1" />
      <stop stop-color="#898989" offset="0.560082" stop-opacity="1" />
      <stop stop-color="#383838" offset="0.679446" stop-opacity="1" />
    </linearGradient>
    <linearGradient id="defitem49" gradientUnits="userSpaceOnUse" x1="92.6577" y1="41.2096" x2="92.6866" y2="58.2036" >
      <stop stop-color="#878985" offset="0" stop-opacity="1" />
      <stop stop-color="#8c8e89" offset="0.0072" stop-opacity="1" />
      <stop stop-color="#aaaca8" offset="0.0673" stop-opacity="1" />
      <stop stop-color="#c3c6c3" offset="0.1347" stop-opacity="1" />
      <stop stop-color="#dbdbda" offset="0.265258" stop-opacity="1" />
      <stop stop-color="#ebebeb" offset="0.376461" stop-opacity="1" />
      <stop stop-color="#f6f6f6" offset="0.487403" stop-opacity="1" />
      <stop stop-color="#fdfdfd" offset="0.632409" stop-opacity="1" />
      <stop stop-color="#ffffff" offset="1" stop-opacity="1" />
    </linearGradient>
    <linearGradient id="defitem50" gradientUnits="userSpaceOnUse" x1="99.8351" y1="52.2246" x2="93.3443" y2="49.7374" >
      <stop stop-color="#ffffff" offset="0" stop-opacity="1" />
      <stop stop-color="#ffffff" offset="1" stop-opacity="0" />
    </linearGradient>
    <linearGradient id="defitem51" gradientUnits="userSpaceOnUse" x1="96.5659" y1="53.8253" x2="96.5504" y2="44.7171" >
      <stop stop-color="#000000" offset="0" stop-opacity="1" />
      <stop stop-color="#000000" offset="0.5" stop-opacity="0.844765" />
      <stop stop-color="#000000" offset="1" stop-opacity="0" />
    </linearGradient>
    <linearGradient id="defitem52" gradientUnits="userSpaceOnUse" x1="90.9566" y1="49.4035" x2="91.0748" y2="44.114" spreadMethod="reflect" >
      <stop stop-color="#000000" offset="0" stop-opacity="1" />
      <stop stop-color="#000000" offset="0.5" stop-opacity="0.844765" />
      <stop stop-color="#000000" offset="1" stop-opacity="0" />
    </linearGradient>
    <linearGradient id="defitem53" gradientUnits="userSpaceOnUse" x1="90.1694" y1="53.033" x2="86.8229" y2="47.619" >
      <stop stop-color="#ffffff" offset="0" stop-opacity="1" />
      <stop stop-color="#ffffff" offset="1" stop-opacity="0" />
    </linearGradient>
    <linearGradient id="defitem54" gradientUnits="userSpaceOnUse" x1="90.9566" y1="49.4035" x2="91.0748" y2="44.114" spreadMethod="reflect" >
      <stop stop-color="#000000" offset="0" stop-opacity="1" />
      <stop stop-color="#000000" offset="0.5" stop-opacity="0.844765" />
      <stop stop-color="#000000" offset="1" stop-opacity="0" />
    </linearGradient>
  </defs>
  <g id="Layer">
    <g id="Layer">
      <g id="g4090">
        <g id="g4092">
          <path id="path4094" fill="url(#defitem0)" stroke-width="0" stroke-linecap="round" stroke-linejoin="round" d="M128 122.802C128 125.667 99.3468 127.99 64.0002 127.99C28.6539 127.99 0.000171 125.667 0.000171 122.802C0.000171 119.937 28.6539 117.614 64.0002 117.614C99.3468 117.614 128 119.937 128 122.802L128 122.802Z"  />
          <path id="path4096" fill="url(#defitem1)" stroke-width="0" stroke-linecap="round" stroke-linejoin="round" d="M128 122.802L0.00017 122.802C0.00017 125.673 28.6539 128 64.0002 128C99.3468 128 128 125.673 128 122.802L128 122.802Z"  />
          <path id="path4098" fill="url(#defitem2)" stroke-width="0" stroke-linecap="round" stroke-linejoin="round" d="M128 122.802L0.00017 122.802C0.00017 119.697 28.6539 117.18 64.0002 117.18C99.3468 117.18 128 119.697 128 122.802L128 122.802Z"  />
          <path id="path4100" fill="#ffffff" fill-opacity="0.5" stroke-width="0" stroke-linecap="round" stroke-linejoin="round" d="M64 117.184C29.7583 117.184 1.77662 119.526 0.0625 122.496C0.000125 122.59 0 122.714 0 122.809C0 122.988 0.094004 123.134 0.3125 123.309C0.425013 123.402 0.546842 123.499 0.71875 123.59C1.85178 124.191 4.27039 124.763 7.71875 125.278C9.68924 125.572 11.9852 125.833 14.5938 126.09C18.5066 126.474 23.1115 126.81 28.2188 127.09C33.326 127.37 38.9567 127.594 44.9688 127.746C50.9808 127.898 57.3726 127.996 64 127.996C70.6275 127.996 77.0192 127.898 83.0313 127.746C89.0433 127.594 94.6741 127.37 99.7813 127.09C104.888 126.81 109.462 126.474 113.375 126.09C115.984 125.833 118.311 125.572 120.281 125.278C123.73 124.763 126.117 124.191 127.25 123.59C127.422 123.499 127.544 123.402 127.656 123.309C127.766 123.222 127.851 123.147 127.906 123.059C127.962 122.97 128 122.898 128 122.809C128 122.714 127.969 122.59 127.906 122.496C126.192 119.526 98.242 117.184 64 117.184Z"  />
        </g>
      </g>
      <g id="g4103">
        <g id="foli">
          <path id="path6210" fill="#f6f6f6" fill-opacity="0.75" stroke="#000000" stroke-opacity="0.05" stroke-width="10.0935" stroke-linejoin="round" d="M18.5796 7.01L18.5796 111.098C18.5796 112.143 19.4274 112.99 20.4721 112.99L76.4645 112.99C76.966 112.99 77.4476 112.791 77.8025 112.436L108.866 81.3723C109.221 81.0175 109.42 80.5358 109.42 80.0343L109.42 7.01L18.5796 7.01Z"  />
          <path id="path6212" fill="none" stroke="#000000" stroke-opacity="0.1" stroke-width="7.57011" stroke-linejoin="round" d="M18.5796 7.01L18.5796 111.098C18.5796 112.143 19.4274 112.99 20.4721 112.99L76.4645 112.99C76.966 112.99 77.4476 112.791 77.8025 112.436L108.866 81.3723C109.221 81.0175 109.42 80.5358 109.42 80.0343L109.42 7.01L18.5796 7.01Z"  />
          <path id="path6214" fill="none" stroke="#000000" stroke-opacity="0.15" stroke-width="5.04674" stroke-linejoin="round" d="M18.5796 7.01L18.5796 111.098C18.5796 112.143 19.4274 112.99 20.4721 112.99L76.4645 112.99C76.966 112.99 77.4476 112.791 77.8025 112.436L108.866 81.3723C109.221 81.0175 109.42 80.5358 109.42 80.0343L109.42 7.01L18.5796 7.01Z"  />
          <path id="path6216" fill="none" stroke="#000000" stroke-opacity="0.2" stroke-width="2.52337" stroke-linejoin="round" d="M18.5796 7.01L18.5796 111.098C18.5796 112.143 19.4274 112.99 20.4721 112.99L76.4645 112.99C76.966 112.99 77.4476 112.791 77.8025 112.436L108.866 81.3723C109.221 81.0175 109.42 80.5358 109.42 80.0343L109.42 7.01L18.5796 7.01Z"  />
          <path id="path6218" fill="url(#defitem3)" stroke-width="1.01125" d="M18.5796 7.01L18.5796 111.098C18.5796 112.143 19.4274 112.99 20.4721 112.99L76.4645 112.99C76.966 112.99 77.4476 112.791 77.8025 112.436L108.866 81.3723C109.221 81.0175 109.42 80.5358 109.42 80.0343L109.42 7.01L18.5796 7.01Z"  />
          <path id="path6220" fill="url(#defitem4)" stroke-width="1.01125" d="M22.0157 9.739C21.5128 9.739 21.1029 10.15 21.1029 10.653L21.1029 109.347C21.1029 109.852 21.5128 110.261 22.0157 110.261L76.0225 110.261C76.2625 110.261 76.498 110.164 76.6677 109.993L106.63 79.9937C106.801 79.8228 106.897 79.588 106.897 79.3476L106.897 10.653C106.897 10.15 106.489 9.739 105.985 9.739L22.0157 9.739Z"  />
          <path id="path6222" fill="url(#defitem5)" stroke-width="1.01125" d="M77.8025 112.436C77.8025 112.436 89.0763 103.055 94.2807 97.8506C99.4852 92.6461 108.866 81.3723 108.866 81.3723C108.866 81.3723 96.4098 90.2805 86.7106 90.2805C86.7106 99.9797 77.8025 112.436 77.8025 112.436Z"  />
          <path id="path439" fill="#800000" stroke-width="2.73037" stroke-linecap="round" stroke-linejoin="round" d="M23.2106 24.031C22.0181 24.031 21.0504 23.063 21.0504 21.871L21.0504 11.843C21.0504 10.651 22.0181 9.683 23.2106 9.683L104.944 9.683C106.136 9.683 107.104 10.651 107.104 11.843L107.104 21.871C107.104 23.063 106.136 24.031 104.944 24.031L23.2106 24.031Z"  />
        </g>
      </g>
      <g id="g3422">
        <g id="llapis">
          <path id="path4600" fill="#000000" stroke-width="0.612104" d="M29.4381 100.66C29.4345 101.011 30.6568 101.957 32.8643 101.973C35.0936 101.988 36.3127 101.146 36.3172 100.705C36.3203 100.419 36.3232 100.132 36.3261 99.8452C34.0332 99.83 31.7401 99.8148 29.4471 99.7987C29.4441 100.086 29.4412 100.372 29.4381 100.66C29.4381 100.66 29.4381 100.66 29.4381 100.66"  fill-rule="evenodd" />
          <path id="path4602" fill="#000000" stroke="#000000" stroke-width="0" d="M33.6701 29.2975L36.9386 45.8306L36.9374 45.9453L30.0571 46.0209L30.0587 45.8655L33.6701 29.2975Z"  fill-rule="evenodd" />
          <path id="path4604" fill="url(#defitem6)" stroke="#000000" stroke-width="0" d="M33.6993 30.4225L36.7511 45.8362L36.7499 45.9509L30.2445 46.0153L30.2461 45.86L33.6993 30.4225Z"  fill-rule="evenodd" />
          <path id="path4606" fill="url(#defitem7)" stroke-width="0.306052" stroke-linecap="round" stroke-linejoin="round" d="M33.5042 45.3218C34.3527 45.3274 34.666 45.921 34.9692 45.923C35.0182 45.9233 35.0669 45.9065 35.1126 45.8826L34.4954 100.349L31.1609 100.327L31.7791 45.7569C31.8538 45.8398 31.9304 45.9025 32.0263 45.9032C32.3035 45.9051 32.6517 45.316 33.5042 45.3218Z"  />
          <path id="path4608" fill="#000000" stroke-width="0.306052" stroke-linecap="round" stroke-linejoin="round" d="M34.9693 47.9551L34.9914 45.8246C35.279 45.8025 35.4888 45.1922 35.9984 45.1956C36.5475 45.1994 36.574 45.8074 36.9289 45.8118L36.9065 47.9682L34.9693 47.9551Z"  />
          <path id="path4610" fill="url(#defitem8)" stroke-width="0.306052" stroke-linecap="round" stroke-linejoin="round" d="M34.3737 100.348L34.9904 45.9231C35.2794 45.901 35.4892 45.3892 36.0014 45.3927C36.5534 45.3964 36.5811 45.9059 36.9378 45.9103L36.3208 100.361L34.3737 100.348Z"  />
          <path id="path4612" fill="#232323" stroke-width="0.306052" stroke-linecap="round" stroke-linejoin="round" d="M32.0161 46.9385L32.0274 45.8456L32.0273 45.8046C32.2609 45.7987 32.4953 45.1974 33.2892 45.131L33.3315 45.1312L33.6333 45.1332L33.6756 45.1335C34.4762 45.2107 34.6906 45.8225 34.9939 45.8247L34.9789 46.9853L32.0161 46.9385Z"  />
          <path id="path4614" fill="#111111" stroke-width="0.306052" stroke-linecap="round" stroke-linejoin="round" d="M30.0782 46.937L30.0591 45.8631C30.0697 45.8632 30.071 45.7725 30.0817 45.7726C30.2994 45.774 30.5489 45.1874 30.9811 45.1154L31.0181 45.1157L31.1822 45.1168L31.2034 45.1169C31.6487 45.1918 31.8006 45.7647 32.0273 45.8046L32.0155 46.95L30.0782 46.937Z"  />
          <path id="path4616" fill="url(#defitem9)" stroke-width="0.306052" stroke-linecap="round" stroke-linejoin="round" d="M31.0985 45.321C31.627 45.3307 31.7434 45.9013 32.0263 45.9032L31.4096 100.329L29.4418 100.315L30.0587 45.8641C30.0695 45.8642 30.0801 45.8643 30.0909 45.8643C30.3121 45.8658 30.566 45.3112 31.0985 45.321Z"  />
          <path id="path451" fill="#000000" stroke-width="0.612104" stroke-linecap="round" stroke-linejoin="round" d="M29.4586 99.0177L29.4464 100.634L36.3237 100.686L36.3358 99.0693L29.4586 99.0177Z"  />
          <path id="path4620" fill="url(#defitem10)" stroke-width="0.143129" stroke-linecap="round" stroke-linejoin="round" d="M30.3825 100.569C29.9041 100.564 29.6167 90.5891 29.7406 78.2877C29.8646 65.9864 30.353 56.0175 30.8315 56.0214C31.31 56.0254 31.5974 66.0008 31.4734 78.3022C31.3494 90.6035 30.861 100.573 30.3825 100.569Z"  />
          <path id="path4622" fill="url(#defitem11)" stroke-width="0.106961" stroke-linecap="round" stroke-linejoin="round" d="M31.2578 100.777C31.1074 100.776 31.1316 88.388 31.312 73.0291C31.4923 57.6702 31.7614 45.089 31.9145 44.8487C32.0678 44.6084 32.0478 56.7987 31.8699 72.1538C31.692 87.5089 31.4226 100.281 31.2666 100.763"  />
          <path id="path4624" fill="url(#defitem12)" stroke-width="0.306052" stroke-linecap="round" stroke-linejoin="round" d="M29.4806 96.8516C29.2694 96.0384 29.3129 95.0095 29.5073 94.2755L35.0141 94.3375L34.9873 96.9137L29.4806 96.8516ZM34.4061 96.9097L34.4328 94.3336L36.3701 94.3466C36.5654 95.0431 36.5739 96.0705 36.3435 96.9228L34.4061 96.9097Z"  />
          <path id="path4626" fill="#000000" stroke-width="0" d="M35.0889 36.3927C34.3569 35.8266 32.8232 36.2989 32.1596 36.2602L33.6685 29.3003L35.0889 36.3927Z"  fill-rule="evenodd" />
          <path id="path457" fill="url(#defitem13)" stroke-width="0" stroke-linecap="round" stroke-linejoin="round" d="M31.4096 100.242L31.4028 100.891L34.3688 100.912L34.3755 100.262L31.4096 100.242Z"  />
          <path id="path4630" fill="url(#defitem14)" stroke-width="0.612104" d="M32.2664 101.87C33.5997 101.982 34.9194 101.658 35.0232 101.605C35.127 101.554 33.5155 101.793 32.4794 101.63C31.4513 101.468 30.5454 100.661 30.4321 100.651C30.3188 100.642 29.4385 100.707 29.8608 101.061C30.3025 101.43 31.2368 101.785 32.2664 101.87Z"  fill-rule="evenodd" />
          <path id="path4632" fill="url(#defitem15)" stroke-width="0.612104" d="M35.5145 70.4691C35.5135 70.6364 35.5455 70.7665 35.6103 70.8594C35.6753 70.9523 35.7671 70.9993 35.886 71.0004C36.0043 71.0015 36.0965 70.9563 36.1626 70.8648C36.2285 70.7731 36.2621 70.6436 36.2631 70.4763C36.2641 70.308 36.2322 70.1774 36.1672 70.0845C36.1023 69.9916 36.0107 69.9447 35.8924 69.9435C35.7735 69.9424 35.681 69.9876 35.6151 70.0792C35.549 70.1708 35.5155 70.3008 35.5145 70.4691M35.3037 70.467C35.3058 70.1248 35.3592 69.8571 35.4641 69.6641C35.569 69.4711 35.7129 69.3755 35.8957 69.3773C36.078 69.379 36.2204 69.4774 36.323 69.6724C36.4256 69.8674 36.4759 70.136 36.4738 70.4783C36.4718 70.8197 36.4183 71.0873 36.3134 71.2813C36.2085 71.4743 36.0649 71.5699 35.8825 71.5681C35.6998 71.5663 35.5571 71.468 35.4545 71.273C35.3519 71.0771 35.3017 70.8084 35.3037 70.467M35.8918 67.8795L36.4719 67.1462L36.4685 67.7182L36.0802 68.2123L36.4625 68.7095L36.4591 69.2843L35.8879 68.5399L35.3314 69.2448L35.3348 68.6716L35.701 68.2086L35.3404 67.7401L35.3438 67.1639L35.8918 67.8795M35.3443 67.104L35.3478 66.5035L35.7526 66.0224L35.3537 65.5336L35.3573 64.9318L36.0051 65.7496L36.4802 65.7541L36.4769 66.3033L36.0018 66.2987L35.3443 67.104M36.4141 62.7923C36.4486 62.9295 36.474 63.072 36.4908 63.2196C36.5076 63.3671 36.5155 63.5193 36.5145 63.6762C36.5124 64.0309 36.4584 64.3113 36.3523 64.5177C36.2459 64.724 36.1028 64.8262 35.923 64.8245C35.7411 64.8227 35.5988 64.7158 35.4958 64.5037C35.3928 64.2916 35.3424 64.0021 35.3447 63.635C35.3455 63.4933 35.3534 63.3579 35.3682 63.2287C35.3831 63.0986 35.4047 62.9761 35.4331 62.8613L35.6666 62.8636C35.63 62.982 35.6026 63.1002 35.5843 63.2179C35.566 63.3347 35.5565 63.452 35.5558 63.57C35.5545 63.7887 35.5859 63.9578 35.6502 64.0772C35.7139 64.1958 35.806 64.2557 35.9263 64.2568C36.0457 64.2579 36.1382 64.2018 36.2038 64.0883C36.2695 63.9748 36.303 63.813 36.3042 63.6029C36.3046 63.5458 36.3031 63.493 36.2998 63.4444C36.2961 63.395 36.2903 63.3508 36.2825 63.3116L36.0634 63.3096L36.0615 63.6448L35.8666 63.6428L35.8717 62.7871L36.4141 62.7923M35.373 62.3002L35.3819 60.8183L35.6017 60.8203L35.5961 61.7531L35.8061 61.7551L35.8113 60.8779L36.0312 60.8801L36.0259 61.7572L36.2843 61.7598L36.29 60.7956L36.5099 60.7977L36.5009 62.311L35.373 62.3002M35.3849 60.3033L35.3887 59.69L36.1668 58.923L35.3932 58.9155L35.3964 58.3949L36.5242 58.4057L36.5205 59.0191L35.7423 59.7861L36.5159 59.7936L36.5128 60.3142L35.3849 60.3033M35.4057 56.8459L35.4093 56.2326L36.1874 55.4656L35.414 55.4581L35.4171 54.9375L36.5449 54.9484L36.5412 55.5617L35.7631 56.3287L36.5366 56.3362L36.5334 56.8568L35.4057 56.8459M35.4032 53.8476C35.4044 53.6451 35.4333 53.4856 35.4899 53.3692C35.5465 53.2518 35.6227 53.1936 35.7184 53.1945C35.8141 53.1954 35.8892 53.2546 35.9439 53.3721C35.9986 53.4896 36.0254 53.6501 36.0242 53.8536C36.023 54.0571 35.9942 54.2175 35.9382 54.3349C35.882 54.4513 35.8062 54.509 35.7105 54.5081C35.6148 54.5072 35.5394 54.448 35.4842 54.3305C35.4289 54.2121 35.402 54.051 35.4032 53.8476M36.115 54.4421L36.1221 53.2682L36.2731 53.2698L36.2662 54.4436L36.115 54.4421M35.5316 53.8488C35.5311 53.9287 35.5467 53.9906 35.5781 54.0348C35.6096 54.0778 35.6545 54.0996 35.7129 54.1002C35.7714 54.1008 35.8163 54.0798 35.8477 54.0373C35.8793 53.9939 35.8953 53.9322 35.8957 53.8524C35.8962 53.7734 35.8809 53.7124 35.85 53.6694C35.819 53.6252 35.7743 53.603 35.7159 53.6024C35.6575 53.6019 35.6122 53.6233 35.5803 53.6667C35.5483 53.7092 35.5321 53.7699 35.5316 53.8488M35.9625 50.6578C35.9829 50.5145 36.0178 50.4059 36.0672 50.3322C36.1159 50.2575 36.1778 50.2206 36.2529 50.2213C36.3647 50.2224 36.4493 50.3041 36.5067 50.4662C36.5637 50.6285 36.5912 50.8646 36.5894 51.1746C36.5888 51.2839 36.5833 51.3937 36.5731 51.5039C36.5634 51.6131 36.5488 51.7215 36.5296 51.8287L36.3052 51.8266C36.333 51.7241 36.3543 51.6225 36.3689 51.5219C36.3832 51.4203 36.3906 51.3204 36.3912 51.2225C36.392 51.077 36.3794 50.9657 36.3532 50.8884C36.3269 50.8102 36.2888 50.7708 36.239 50.7703C36.1877 50.7698 36.1486 50.8094 36.122 50.8891C36.0948 50.9677 36.0807 51.0845 36.0798 51.2395L36.0785 51.4591L35.8911 51.4574L35.8926 51.2264C35.8934 51.0885 35.8826 50.9856 35.8604 50.9179C35.8376 50.8501 35.8028 50.816 35.756 50.8156C35.7127 50.8152 35.679 50.8477 35.6549 50.9131C35.6308 50.9784 35.6185 51.0711 35.6178 51.1909C35.6173 51.2793 35.622 51.3687 35.6321 51.4591C35.6421 51.5496 35.6572 51.6396 35.6773 51.7291L35.4642 51.7271C35.4488 51.6186 35.4373 51.511 35.4299 51.4044C35.4225 51.2979 35.4191 51.1932 35.4197 51.0905C35.4213 50.8138 35.4467 50.6072 35.4959 50.4708C35.5446 50.3334 35.6173 50.2651 35.714 50.266C35.78 50.2667 35.8339 50.3 35.8758 50.3661C35.9171 50.432 35.9461 50.5293 35.9625 50.6578"  />
          <path id="path461" fill="url(#defitem16)" stroke-width="0" stroke-linecap="round" stroke-linejoin="round" d="M29.3978 100.386L29.4604 100.825L31.4908 100.703L31.4282 100.265L29.3978 100.386Z"  />
          <path id="path463" fill="url(#defitem17)" stroke-width="0" stroke-linecap="round" stroke-linejoin="round" d="M36.4482 100.483L36.4015 100.923L34.368 100.875L34.4147 100.435L36.4482 100.483Z"  />
        </g>
        <g id="pincell">
          <path id="path4865" fill="url(#defitem18)" stroke="#000000" stroke-width="0.480392" d="M52.9311 47.9181C53.5958 52.6339 54.6935 54.9669 54.9252 62.0657C55.1569 69.1644 54.492 81.0291 54.3213 90.5107C54.3103 91.1145 53.661 91.7466 52.8301 91.7737C51.9676 91.8019 51.305 91.1499 51.2599 90.6105C50.4682 81.1606 49.0341 69.3642 48.8023 62.2655C48.5706 55.1668 49.5139 52.7672 49.8697 48.0181C50.8901 47.9847 51.9106 47.9514 52.9311 47.9181Z"  fill-rule="evenodd" />
          <path id="path4867" fill="url(#defitem19)" stroke="#000000" stroke-width="0" stroke-linecap="round" stroke-linejoin="round" d="M50.2825 43.4316C49.6214 41.4345 48.2596 39.8674 48.2993 37.4399C48.3556 34.0119 52.4615 29.3322 56.0741 29.2975C53.7023 31.8707 54.0934 34.9262 53.6247 38.2076C53.3218 40.3293 52.5309 42.1042 52.5705 43.3728C51.8079 43.3924 51.0452 43.412 50.2825 43.4316Z"  fill-rule="evenodd" />
          <path id="path4869" fill="url(#defitem20)" stroke="#000000" stroke-width="0" stroke-linecap="round" stroke-linejoin="round" d="M50.677 43.0531C50.115 41.6344 49.1208 39.1321 49.0343 37.4506C48.9122 35.076 52.1033 30.9474 54.4104 30.6016C52.7745 32.6209 53.1434 35.7734 53.0418 38.0398C53.0059 38.8411 52.1071 42.1809 52.1951 43.0628C51.6565 43.0376 51.2155 43.0783 50.677 43.0531Z"  fill-rule="evenodd" />
          <path id="path4871" fill="url(#defitem21)" stroke-width="0.146222" d="M52.9311 47.9181C53.5958 52.6339 54.6935 54.9669 54.9252 62.0657C55.1569 69.1644 54.492 81.0291 54.3213 90.5107C54.3103 91.1145 53.661 91.7466 52.8301 91.7737C51.9676 91.8019 51.305 91.1499 51.2599 90.6105C50.4682 81.1606 49.0341 69.3642 48.8023 62.2655C48.5706 55.1668 49.5139 52.7672 49.8697 48.0181C50.8901 47.9847 51.9106 47.9514 52.9311 47.9181Z"  fill-rule="evenodd" />
          <path id="path4873" fill="url(#defitem22)" stroke-width="0.146222" d="M54.1064 91.1364C54.2424 90.9478 54.3062 90.7249 54.3099 90.5173C54.4138 84.7505 54.8888 72.6878 54.7785 66.6553C54.1797 67.4195 53.3895 68.5097 53.11 70.0221C52.5797 72.8901 53.3161 87.6996 53.2077 89.7404C53.1395 91.0223 52.0962 90.7797 51.5583 91.2234C51.8393 91.5435 52.2904 91.8025 52.8295 91.7849C53.3747 91.7671 53.8466 91.4963 54.1064 91.1364Z"  fill-rule="evenodd" />
          <path id="path4875" fill="url(#defitem23)" stroke-width="0.194964" stroke-linecap="round" stroke-linejoin="round" d="M54.6725 85.9708C54.7918 85.4604 54.8549 84.8012 54.7221 84.3449L51.2828 84.4459L51.3396 86.055L54.6725 85.9708ZM51.7026 86.046L51.6459 84.4369L50.4357 84.467C50.3246 84.9043 50.454 85.5403 50.6111 86.0701L51.7026 86.046Z"  />
          <path id="path4877" fill="url(#defitem24)" stroke-width="0.146222" d="M52.9311 47.9181C53.5958 52.6339 54.6935 54.9669 54.9252 62.0657C55.1569 69.1644 54.492 81.0291 54.3213 90.5107C54.3103 91.1145 53.661 91.7466 52.8301 91.7737C51.9676 91.8019 51.305 91.1499 51.2599 90.6105C50.4682 81.1606 49.0341 69.3642 48.8023 62.2655C48.5706 55.1668 49.5139 52.7672 49.8697 48.0181C50.8901 47.9847 51.9106 47.9514 52.9311 47.9181Z"  fill-rule="evenodd" />
          <path id="path4879" fill="#999999" stroke-width="0.389926" d="M50.6936 75.3924C50.6909 75.3219 50.675 75.2677 50.646 75.2297C50.6169 75.1915 50.5773 75.1732 50.5272 75.1746C50.4774 75.176 50.4394 75.1966 50.4133 75.2361C50.3872 75.2758 50.3756 75.3308 50.3783 75.4013C50.381 75.4722 50.3969 75.5267 50.426 75.5648C50.4551 75.6028 50.4946 75.6212 50.5444 75.6198C50.5945 75.6184 50.6325 75.5979 50.6586 75.5582C50.6847 75.5186 50.6964 75.4633 50.6936 75.3924M50.7825 75.39C50.788 75.5342 50.7705 75.6477 50.73 75.7306C50.6894 75.8136 50.6306 75.8562 50.5536 75.8583C50.4769 75.8605 50.415 75.8214 50.3681 75.7408C50.3213 75.6603 50.2951 75.548 50.2895 75.4039C50.2839 75.26 50.3014 75.1465 50.342 75.0631C50.3826 74.9802 50.4412 74.9377 50.518 74.9355C50.595 74.9334 50.6569 74.9725 50.7039 75.0529C50.7507 75.1339 50.7769 75.2461 50.7825 75.39M50.5834 76.4889L50.3529 76.807L50.3436 76.5661L50.4978 76.3519L50.3274 76.1485L50.3181 75.9064L50.5727 76.2108L50.7937 75.905L50.803 76.1466L50.6575 76.3473L50.8182 76.5389L50.8276 76.7816L50.5834 76.4889M50.8285 76.8069L50.8383 77.0598L50.6769 77.2688L50.8541 77.4683L50.8638 77.7218L50.5757 77.3878L50.3755 77.3933L50.3666 77.1621L50.5668 77.1564L50.8285 76.8069M50.4589 78.6396C50.4418 78.5823 50.4284 78.5227 50.4186 78.4609C50.4088 78.399 50.4026 78.3351 50.4001 78.269C50.3943 78.1196 50.4118 78.0006 50.4526 77.912C50.4935 77.8235 50.5519 77.7782 50.6276 77.776C50.7042 77.7738 50.7662 77.8166 50.8135 77.9043C50.8609 77.9919 50.8875 78.1131 50.8935 78.2677C50.8958 78.3274 50.8951 78.3845 50.8912 78.4392C50.8874 78.4942 50.8806 78.5461 50.8708 78.595L50.7724 78.5977C50.7856 78.5472 50.7949 78.497 50.8004 78.4472C50.8059 78.3977 50.8078 78.3481 50.8058 78.2984C50.8022 78.2063 50.7858 78.1356 50.7566 78.0863C50.7274 78.0374 50.6876 78.0137 50.6369 78.0151C50.5866 78.0165 50.5487 78.0417 50.5232 78.0905C50.4977 78.1393 50.4866 78.208 50.49 78.2965C50.4909 78.3205 50.4925 78.3428 50.4949 78.3631C50.4973 78.3839 50.5006 78.4024 50.5046 78.4188L50.5969 78.4162L50.5915 78.275L50.6735 78.2726L50.6875 78.6332L50.4589 78.6396M50.9066 78.8303L50.9307 79.4544L50.8381 79.4571L50.8229 79.0641L50.7344 79.0667L50.7487 79.4361L50.6561 79.4388L50.6418 79.0693L50.533 79.0723L50.5487 79.4785L50.4561 79.481L50.4315 78.8436L50.9066 78.8303M50.9391 79.6713L50.949 79.9297L50.6358 80.2651L50.9616 80.256L50.9701 80.4752L50.495 80.4886L50.4849 80.2303L50.7982 79.8948L50.4724 79.904L50.4639 79.6848L50.9391 79.6713M50.9952 81.1277L51.0052 81.3859L50.6919 81.7214L51.0178 81.7122L51.0263 81.9315L50.5511 81.9449L50.5412 81.6865L50.8545 81.3511L50.5285 81.3604L50.5201 81.141L50.9952 81.1277M51.0526 82.3903C51.0559 82.4756 51.0467 82.5432 51.0251 82.5931C51.0034 82.6434 50.9724 82.6692 50.9321 82.6703C50.8918 82.6714 50.859 82.6477 50.8339 82.5991C50.8086 82.5504 50.7943 82.4834 50.791 82.3976C50.7877 82.3119 50.7967 82.2439 50.8182 82.1935C50.8396 82.1437 50.8705 82.1182 50.9107 82.117C50.9511 82.1158 50.984 82.1396 51.0094 82.1882C51.0349 82.2371 51.0492 82.3045 51.0526 82.3903M50.7417 82.1512L50.7607 82.6456L50.6971 82.6475L50.678 82.153L50.7417 82.1512M50.9984 82.3918C50.9971 82.3581 50.9894 82.3323 50.9754 82.3142C50.9613 82.2966 50.942 82.2881 50.9174 82.2888C50.8928 82.2895 50.8742 82.299 50.8618 82.3175C50.8493 82.3363 50.8438 82.3625 50.8451 82.3961C50.8464 82.4293 50.854 82.4547 50.8677 82.4724C50.8816 82.4904 50.9009 82.4991 50.9255 82.4984C50.9501 82.4978 50.9687 82.488 50.9814 82.4692C50.9941 82.4508 50.9998 82.425 50.9984 82.3918M50.877 83.7424C50.871 83.8031 50.8583 83.8494 50.839 83.8812C50.8199 83.9134 50.7945 83.93 50.7628 83.9308C50.7158 83.9322 50.6786 83.8991 50.6514 83.8318C50.6243 83.7644 50.6083 83.6654 50.6033 83.5348C50.6015 83.4887 50.6017 83.4424 50.6039 83.3959C50.606 83.3497 50.6101 83.3039 50.6162 83.2584L50.7107 83.2557C50.7009 83.2992 50.6938 83.3423 50.6896 83.385C50.6854 83.428 50.6842 83.4702 50.6859 83.5114C50.6882 83.5727 50.6957 83.6194 50.7081 83.6515C50.7207 83.6841 50.7373 83.7001 50.7584 83.6994C50.78 83.6988 50.7957 83.6815 50.8054 83.6475C50.8154 83.6141 50.8191 83.5646 50.8167 83.4993L50.813 83.4068L50.8919 83.4046L50.8958 83.5019C50.898 83.5599 50.9044 83.6031 50.9151 83.6313C50.9259 83.6594 50.9412 83.6732 50.9609 83.6726C50.9792 83.6721 50.9928 83.658 51.0017 83.63C51.0106 83.6021 51.014 83.5629 51.0121 83.5125C51.0107 83.4752 51.0069 83.4376 51.0011 83.3997C50.9951 83.3618 50.9871 83.3241 50.9769 83.2867L51.0666 83.2842C51.0752 83.3297 51.0821 83.3748 51.0872 83.4195C51.0923 83.4642 51.0957 83.5083 51.0974 83.5515C51.1018 83.6681 51.0951 83.7555 51.077 83.8138C51.059 83.8724 51.0297 83.9023 50.9889 83.9034C50.9611 83.9042 50.9379 83.891 50.9189 83.8639C50.9002 83.8367 50.8863 83.7963 50.877 83.7424"  />
          <path id="path4881" fill="url(#defitem25)" stroke="#000000" stroke-width="0" stroke-linecap="round" stroke-linejoin="round" d="M50.2825 43.4316C49.6214 41.4345 48.2596 39.8674 48.2993 37.4399C48.3556 34.0119 53.6354 35.3262 53.2817 38.6219C53.0452 40.8256 52.5309 42.1042 52.5705 43.3728C51.8079 43.3924 51.0452 43.412 50.2825 43.4316Z"  fill-rule="evenodd" />
          <g id="g4883">
            <path id="path4885" fill="url(#defitem26)" stroke-width="0.194964" stroke-linecap="round" stroke-linejoin="round" d="M53.3198 43.0771C53.4572 43.6988 53.5499 44.5064 53.4491 45.0744L50.2334 45.1232L50.2042 43.1412L53.3198 43.0771ZM50.5436 43.134L50.5728 45.116L49.4415 45.14C49.3155 44.6077 49.4038 43.8188 49.5235 43.1592L50.5436 43.134Z"  />
            <path id="path4887" fill="url(#defitem27)" stroke-width="0.194964" stroke-linecap="round" stroke-linejoin="round" d="M53.3999 45.0063C53.5395 45.6281 53.6334 46.4356 53.5308 47.0037L50.2588 47.0533L50.2298 45.0713L53.3999 45.0063ZM50.5752 45.064L50.6041 47.0461L49.4532 47.0703C49.3251 46.5381 49.4151 45.7491 49.5371 45.0895L50.5752 45.064Z"  />
            <path id="path4889" fill="url(#defitem28)" stroke-width="0.194964" stroke-linecap="round" stroke-linejoin="round" d="M53.5144 46.9595C53.6583 47.5811 53.755 48.3886 53.6484 48.9568L50.2642 49.0082L50.2355 47.0261L53.5144 46.9595ZM50.5927 47.0187L50.6213 49.0007L49.4308 49.0256C49.2987 48.4933 49.3924 47.7044 49.519 47.0447L50.5927 47.0187Z"  />
            <path id="path4891" fill="url(#defitem29)" stroke-width="0.194964" stroke-linecap="round" stroke-linejoin="round" d="M53.5946 48.9061C53.7408 49.5276 53.8388 50.3352 53.7303 50.9033L50.2898 50.9555L50.2613 48.9735L53.5946 48.9061ZM50.6243 48.966L50.6529 50.948L49.4427 50.9732C49.3085 50.441 49.404 49.652 49.5329 48.9923L50.6243 48.966Z"  />
            <path id="path4893" fill="url(#defitem30)" stroke-width="0.194964" stroke-linecap="round" stroke-linejoin="round" d="M53.7295 50.9116C53.8346 50.3612 53.7446 49.5774 53.606 48.9644L53.6498 48.9599C53.753 48.4095 53.6629 47.6258 53.5264 47.0126L53.5359 47.0033C53.6344 46.4583 53.5409 45.6875 53.4108 45.0772L53.4545 45.0726C53.5552 44.5046 53.4549 43.7026 53.3175 43.0808L50.1984 43.1441L49.521 43.1557C49.4013 43.8152 49.315 44.6167 49.441 45.149L49.519 45.1493C49.403 45.7957 49.3298 46.5543 49.4539 47.07L49.5148 47.0678C49.3902 47.7234 49.2981 48.5017 49.4289 49.0284L49.524 49.0311C49.3993 49.6822 49.3086 50.4494 49.4399 50.9705L50.2906 50.962L53.7295 50.9116Z"  />
          </g>
        </g>
        <g id="goma">
          <path id="path5306" fill="#878787" stroke-width="0.0612104" stroke-linecap="round" stroke-linejoin="round" d="M65.8568 63.057L65.8567 70.5663L80.662 70.5663L80.662 63.057L65.8568 63.057Z"  />
          <path id="path5308" fill="#bababa" stroke-width="0.612104" stroke-linecap="round" stroke-linejoin="round" d="M67.9143 29.4304L65.4047 31.9401L81.026 32.0109L78.3127 29.2975L67.9143 29.4304Z"  />
          <path id="path5310" fill="#4b4b4b" stroke-width="0.612104" stroke-linecap="round" stroke-linejoin="round" d="M65.4578 31.8587L67.9277 29.3888L67.8042 32.4268L65.4825 32.4762L65.4578 31.8587Z"  />
          <path id="path5312" fill="url(#defitem31)" stroke-width="0.612104" stroke-linecap="round" stroke-linejoin="round" d="M67.8912 29.4249L65.4055 31.9106L80.9034 32.0061L78.2071 29.3098L67.8912 29.4249Z"  />
          <path id="path5314" fill="url(#defitem32)" stroke-width="0.0612104" stroke-linecap="round" stroke-linejoin="round" d="M65.8613 62.812L65.8563 70.2353L80.2818 70.2555L80.2868 62.8321L65.8613 62.812Z"  />
          <path id="path5316" fill="url(#defitem33)" stroke-width="0.0612104" stroke-linecap="round" stroke-linejoin="round" d="M70.7875 31.9347L70.7875 63.2204L75.6336 63.2204L75.6299 31.9685L81.0207 31.9723L81.0207 31.9347L70.7875 31.9347Z"  />
          <path id="path5318" fill="url(#defitem34)" stroke-width="0.0612104" stroke-linecap="round" stroke-linejoin="round" d="M65.9299 32.3749L67.9122 30.1933L67.8937 29.4325L65.4648 31.9387L65.9299 32.3749Z"  />
          <path id="path5320" fill="url(#defitem35)" stroke-width="0.0612104" stroke-linecap="round" stroke-linejoin="round" d="M65.3779 31.9347L65.3779 63.2204L70.7875 63.2204L70.7875 31.9347L65.3779 31.9347Z"  />
          <path id="path5322" fill="#ffffff" stroke-width="0.612104" stroke-linecap="round" stroke-linejoin="round" d="M78.4988 32.3773L80.7958 32.4514L80.8204 31.8339L78.3505 29.364L78.4988 32.3773Z"  />
          <path id="path5324" fill="url(#defitem36)" stroke-width="0.0612104" stroke-linecap="round" stroke-linejoin="round" d="M80.28 32.5089L78.3947 30.247L78.334 29.3664L80.855 31.963L80.28 32.5089Z"  />
          <path id="path5326" fill="url(#defitem37)" stroke-width="0.0612104" stroke-linecap="round" stroke-linejoin="round" d="M75.6315 31.9701L75.6315 63.2557L81.0411 63.2557L81.0411 31.9701L75.6315 31.9701Z"  />
          <path id="path5328" fill="url(#defitem38)" stroke-width="0.0612104" stroke-linecap="round" stroke-linejoin="round" d="M65.391 31.9479L65.391 63.2335L81.1047 63.2975L81.1047 32.0119L65.391 31.9479Z"  />
          <path id="path5330" fill="#ffffff" stroke-width="0.0612104" stroke-linecap="round" stroke-linejoin="round" d="M65.5686 31.9777L65.717 63.1481L65.9352 63.1532L65.9297 32.2612L81.0159 32.0153L81.0053 32.0018L70.7588 31.9698L65.5686 31.9777Z"  />
          <path id="path5332" fill="#eff8ff" stroke-width="0.612104" d="M80.1968 37.4457C80.1969 37.5662 80.1718 37.6632 80.1215 37.7369C80.0709 37.8101 80.0043 37.8468 79.9214 37.847C79.838 37.8472 79.7714 37.8106 79.7215 37.7373C79.6714 37.6634 79.6463 37.5649 79.6462 37.4417C79.6462 37.3189 79.6711 37.2204 79.7209 37.1464C79.7707 37.0723 79.8371 37.0352 79.9203 37.0351C80.0052 37.0349 80.0724 37.0716 80.1223 37.1455C80.172 37.2192 80.1968 37.3194 80.1968 37.4457M80.1412 37.444C80.1411 37.3553 80.1219 37.2867 80.0834 37.2382C80.0446 37.1899 79.99 37.1657 79.9197 37.1659C79.8514 37.1661 79.7981 37.1906 79.7596 37.2396C79.7211 37.2882 79.7019 37.3555 79.7019 37.4416C79.7019 37.5281 79.7213 37.5954 79.7601 37.6439C79.7986 37.6922 79.8522 37.7164 79.9209 37.7162C79.9895 37.716 80.0433 37.6918 80.0825 37.6437C80.1217 37.5954 80.1412 37.5289 80.1412 37.444M80.1835 36.964L79.9202 36.6766L79.6592 36.9512L79.6591 36.8056L79.8568 36.5963L79.6589 36.3774L79.6589 36.2612L79.9123 36.5382L80.1832 36.2529L80.1833 36.3985L79.9754 36.6195L80.1835 36.8472L80.1835 36.964M80.1831 35.9203L79.9642 35.9208L79.6589 36.2113L79.6588 36.0705L79.8954 35.8447L79.6586 35.6023L79.6586 35.4879L79.9627 35.7976L80.183 35.7971L80.1831 35.9203M80.1685 34.707C80.1867 34.8121 80.1958 34.9039 80.1959 34.9821C80.1959 35.1202 80.1722 35.2262 80.1248 35.3002C80.0773 35.3739 80.0093 35.4108 79.9207 35.411C79.8338 35.4112 79.7662 35.3741 79.7181 35.2994C79.6696 35.2249 79.6453 35.1201 79.6452 34.9851C79.6452 34.8968 79.6531 34.8048 79.6689 34.7093L79.7376 34.7091C79.7131 34.8289 79.7009 34.9207 79.7009 34.9844C79.701 35.0783 79.7202 35.1512 79.7587 35.2031C79.7973 35.2547 79.8515 35.2804 79.9214 35.2802C79.9906 35.28 80.0444 35.2522 80.0829 35.1965C80.1212 35.1408 80.1402 35.063 80.1402 34.9629C80.1402 34.9218 80.1358 34.8774 80.1271 34.8297L79.9563 34.8301L79.9562 34.7075L80.1685 34.707M80.1825 34.491L79.6582 34.4922L79.658 34.0071L79.7136 34.007L79.7138 34.3689L79.8821 34.3685L79.882 34.0652L79.9369 34.065L79.937 34.3684L80.1269 34.3679L80.1267 33.9808L80.1823 33.9806L80.1825 34.491M80.1823 33.8386L79.6579 33.8398L79.6579 33.719L80.0626 33.2809L79.6577 33.2819L79.6577 33.1763L80.182 33.175L80.1821 33.2953L79.7773 33.734L80.1822 33.733L80.1823 33.8386"  />
          <path id="path5334" fill="#00142d" stroke-width="0.0612104" stroke-linecap="round" stroke-linejoin="round" d="M81.0301 63.3741L81.0158 32.7418L80.9817 32.7631L80.8282 63.1616L66.7112 63.2138L66.7218 63.2273L81.0301 63.3741Z"  />
          <path id="path5336" fill="#9c0e0e" stroke-width="0.612104" d="M74.303 57.4229L71.9286 57.4229L71.9286 54.9834L72.1805 54.9834L72.1805 56.8034L72.9425 56.8034L72.9425 55.2784L73.1912 55.2784L73.1912 56.8034L74.0511 56.8034L74.0511 54.8566L74.303 54.8566L74.303 57.4229M74.303 54.1427L71.9286 54.1427L71.9286 52.8212C71.9286 52.4023 71.9789 52.0818 72.0794 51.8595C72.1799 51.6354 72.326 51.5233 72.5174 51.5233C72.8339 51.5233 73.0586 51.8173 73.1912 52.4053L74.303 50.9481L74.303 51.7091L73.2987 52.951L73.2987 53.5291L74.303 53.5291L74.303 54.1427M73.0468 53.5291L73.0468 53.3285C73.0468 52.5498 72.8805 52.1604 72.5478 52.1604C72.3029 52.1604 72.1805 52.4869 72.1805 53.1398L72.1805 53.5291L73.0468 53.5291M73.395 48.1074L72.3714 48.8507L73.395 49.597L73.395 48.1074M74.303 47.4526L73.6452 47.9274L73.6452 49.777L74.303 50.2578L74.303 50.833L71.9286 49.1015L71.9286 48.4879L74.303 46.783L74.303 47.4526M74.3623 45.2992C74.3623 45.5922 74.3276 45.9668 74.2581 46.423L73.9244 46.423C74.0485 45.9314 74.1105 45.5273 74.1105 45.2107C74.1105 44.9669 74.0757 44.7711 74.0062 44.6236C73.9366 44.4742 73.8452 44.3995 73.7318 44.3995C73.6388 44.3995 73.5597 44.4486 73.4944 44.547C73.4292 44.6434 73.3564 44.8223 73.2762 45.0838L73.1815 45.3847C73.0661 45.7564 72.9575 46.019 72.8559 46.1724C72.7532 46.3238 72.634 46.3995 72.4982 46.3995C72.3153 46.3995 72.1649 46.2776 72.0474 46.0337C71.9286 45.7899 71.8692 45.4791 71.8692 45.1015C71.8692 44.7653 71.8998 44.4103 71.9607 44.0367L72.2687 44.0367C72.1703 44.4969 72.1211 44.84 72.1211 45.0661C72.1211 45.2805 72.1521 45.4575 72.2142 45.5971C72.2762 45.7367 72.3543 45.8065 72.4484 45.8065C72.5276 45.8065 72.5976 45.7555 72.6586 45.6532C72.7195 45.5509 72.7922 45.3641 72.8767 45.0927L72.973 44.78C73.0896 44.4024 73.1997 44.139 73.3035 43.9895C73.4072 43.84 73.5318 43.7653 73.6773 43.7653C73.8837 43.7653 74.0495 43.9059 74.1746 44.1871C74.2998 44.4663 74.3624 44.8371 74.3623 45.2992M74.303 42.898L71.9286 42.898L71.9286 40.4586L72.1805 40.4586L72.1805 42.2786L72.9425 42.2786L72.9425 40.7535L73.1912 40.7535L73.1912 42.2786L74.0511 42.2786L74.0511 40.3317L74.303 40.3317L74.303 42.898M74.303 39.6179L71.9286 39.6179L71.9286 38.2964C71.9286 37.8775 71.9789 37.5569 72.0794 37.3347C72.1799 37.1106 72.326 36.9985 72.5174 36.9985C72.8339 36.9985 73.0586 37.2924 73.1912 37.8804L74.303 36.4233L74.303 37.1843L73.2987 38.4262L73.2987 39.0043L74.303 39.0043L74.303 39.6179M73.0468 39.0043L73.0468 38.8037C73.0468 38.025 72.8805 37.6356 72.5478 37.6356C72.3029 37.6356 72.1805 37.962 72.1805 38.615L72.1805 39.0043L73.0468 39.0043"  />
          <path id="path5338" fill="url(#defitem39)" stroke-width="0.0612104" stroke-linecap="round" stroke-linejoin="round" d="M79.8544 63.3604L79.8504 70.6017L80.6541 70.6019L80.637 63.3106L79.8544 63.3604Z"  />
          <path id="path5340" fill="url(#defitem40)" stroke-width="0.0612104" stroke-linecap="round" stroke-linejoin="round" d="M80.5632 69.9331L65.8226 69.9987L65.8434 70.6176L80.6252 70.5704L80.5632 69.9331Z"  />
          <path id="path5342" fill="url(#defitem41)" stroke-width="0.0612104" stroke-linecap="round" stroke-linejoin="round" d="M67.9212 30.2823L78.3453 30.1527L78.3244 29.3227L67.8592 29.434L67.9212 30.2823Z"  />
          <path id="path5344" fill="url(#defitem42)" stroke-width="2.44841" stroke-linecap="round" stroke-linejoin="round" d="M65.856 31.4605L80.6084 31.6182L81.0522 32.0046C81.0522 32.0046 81.0489 32.4238 81.062 32.4501L65.4088 32.4566L65.3484 31.9083L65.856 31.4605Z"  />
          <path id="path5346" fill="url(#defitem43)" stroke-width="0.0612104" stroke-linecap="round" stroke-linejoin="round" d="M65.8896 63.2041L65.8896 63.7321L80.6818 63.6874L80.6818 63.1755L65.8896 63.2041Z"  />
        </g>
        <g id="clip">
          <path id="path6274" fill="#313131" fill-opacity="0.23" stroke-width="0.612104" d="M98.3147 42.2459L98.3352 54.2993C98.339 56.5147 96.5398 58.3201 94.3242 58.324C92.1087 58.3277 90.3034 56.5283 90.2996 54.313L90.2841 45.1502C90.2809 43.3567 91.7375 41.8952 93.531 41.8921C95.3244 41.8891 96.786 43.3456 96.7891 45.1391L96.8023 52.9626C96.8025 53.0684 96.7171 53.1541 96.6113 53.1543L95.846 53.1555C95.7402 53.1557 95.6545 53.0704 95.6544 52.9645L95.6411 45.1411C95.6391 43.9806 94.6934 43.0381 93.5329 43.04C92.3726 43.0421 91.4299 43.9878 91.432 45.1482L91.4475 54.311C91.4503 55.8934 92.7398 57.1787 94.3223 57.176C95.9047 57.1733 97.19 55.8837 97.1872 54.3012L97.1668 42.2478C97.1634 40.2434 95.5299 38.6155 93.5254 38.6189C91.5209 38.6222 89.8931 40.2557 89.8964 42.2602L89.9147 52.9744C89.9148 53.0802 89.8294 53.1658 89.7236 53.166L88.9584 53.1673C88.8526 53.1675 88.7669 53.0821 88.7667 52.9763L88.7485 42.2622C88.7441 39.6248 90.8861 37.4755 93.5235 37.4709C96.1608 37.4664 98.3103 39.6085 98.3147 42.2459Z"  />
          <g id="g6276">
            <path id="path6278" fill="#313131" fill-opacity="0.23" stroke-width="0.191324" d="M98.6387 42.4654L98.6593 54.5188C98.663 56.7342 96.8638 58.5397 94.6482 58.5435C92.4327 58.5472 90.6274 56.7479 90.6236 54.5325L90.608 45.3697C90.605 43.5762 92.0615 42.1147 93.855 42.1117C95.6484 42.1086 97.11 43.5652 97.1131 45.3586L97.1263 53.1822C97.1265 53.288 97.0412 53.3737 96.9353 53.3739L96.17 53.3752C96.0642 53.3753 95.9785 53.2899 95.9784 53.1841L95.9651 45.3606C95.9632 44.2002 95.0174 43.2576 93.8569 43.2596C92.6966 43.2616 91.754 44.2074 91.756 45.3677L91.7716 54.5306C91.7742 56.1129 93.0638 57.3982 94.6463 57.3955C96.2287 57.3929 97.514 56.1032 97.5113 54.5207L97.4908 42.4673C97.4874 40.4629 95.8539 38.835 93.8495 38.8384C91.8449 38.8419 90.2171 40.4752 90.2204 42.4797L90.2386 53.1939C90.2388 53.2997 90.1535 53.3854 90.0476 53.3855L89.2823 53.3868C89.1766 53.387 89.0909 53.3016 89.0907 53.1958L89.0725 42.4817C89.0681 39.8443 91.2101 37.695 93.8475 37.6904C96.4849 37.686 98.6343 39.828 98.6387 42.4654Z"  />
            <path id="path6286" fill="url(#defitem44)" stroke-width="0.191324" d="M93.8481 38.0731C96.3841 38.0688 98.4434 40.1211 98.4477 42.657L98.4682 54.7105C98.4718 56.8238 96.7616 58.5399 94.6482 58.5435C92.5348 58.547 90.8188 56.8369 90.8153 54.7235L90.7993 45.3501C90.7965 43.6596 92.1648 42.2866 93.8553 42.2837C95.5459 42.2808 96.9189 43.6489 96.9217 45.3397L96.9353 53.3739L96.17 53.3752L96.1564 45.341C96.1543 44.075 95.1226 43.0468 93.8566 43.049C92.5906 43.0512 91.5625 44.0828 91.5646 45.3488L91.5806 54.7222C91.5834 56.4101 92.9591 57.781 94.6469 57.7782C96.3348 57.7753 97.7058 56.3996 97.703 54.7117L97.6824 42.6583C97.6789 40.5485 95.9592 38.8348 93.8495 38.8384C91.7395 38.842 90.0259 40.5616 90.0294 42.6714L90.0476 53.3855L89.2823 53.3868L89.2641 42.6727C89.2599 40.1367 91.3122 38.0775 93.8481 38.0731Z"  />
            <path id="path6294" fill="url(#defitem45)" stroke-width="0.191324" d="M93.4739 43.0496C93.5063 43.0495 93.5377 43.0532 93.5696 43.0543C92.3483 43.1072 91.3712 44.1156 91.3733 45.3491L91.5806 54.7222C91.5834 56.3777 92.7164 57.7254 94.3599 57.7738C94.3278 57.7747 94.2966 57.7788 94.2643 57.7788C92.5764 57.7817 91.2008 56.4107 91.1979 54.7229L91.182 45.3494C91.1799 44.0834 92.208 43.0518 93.4739 43.0496ZM98.0856 54.7111L98.065 42.6577C98.0608 40.1536 96.0529 38.1227 93.5611 38.0761C93.5931 38.0755 93.6249 38.0735 93.6568 38.0734C96.1928 38.0691 98.2521 40.1214 98.2564 42.6574L98.4682 54.7105C98.4718 56.8238 96.5702 58.5402 94.4569 58.5438C94.4246 58.5438 94.3934 58.5399 94.3612 58.5391C96.4297 58.4844 98.0891 56.7922 98.0856 54.7111ZM96.7304 45.34L96.744 53.3742L96.5527 53.3745L96.5391 45.3403C96.5363 43.6819 95.2146 42.3373 93.5683 42.289C93.6003 42.288 93.6317 42.284 93.664 42.284C95.3546 42.2811 96.7275 43.6492 96.7304 45.34ZM93.4668 38.839C93.4991 38.839 93.5303 38.843 93.5625 38.8437C91.497 38.8988 89.8346 40.5941 89.8381 42.6717L89.8563 53.3859L89.665 53.3862L89.6468 42.672C89.6432 40.5623 91.3569 38.8427 93.4668 38.839Z"  />
            <path id="path6302" fill="url(#defitem46)" stroke-width="0.191324" d="M96.2521 45.3408L96.2657 53.375L96.0743 53.3753L96.0607 45.3411C96.0587 44.1075 95.0781 43.1026 93.8566 43.0538C93.8886 43.0526 93.92 43.0489 93.9522 43.0488C95.2183 43.0467 96.2499 44.0748 96.2521 45.3408Z"  />
            <path id="path6310" fill="url(#defitem47)" stroke-width="0.191324" d="M97.6073 54.7119L97.5867 42.6585C97.5832 40.581 95.9149 38.8911 93.8495 38.8432C93.8816 38.8424 93.9128 38.8383 93.9452 38.8382C96.0548 38.8347 97.7745 40.5483 97.7781 42.6582L97.7986 54.7116C97.8015 56.3994 96.4304 57.7752 94.7426 57.778C94.7103 57.7781 94.6791 57.774 94.6469 57.7733C96.2903 57.7193 97.6101 56.3675 97.6073 54.7119Z"  />
            <path id="path6318" fill="url(#defitem48)" stroke-width="0.191324" d="M93.7524 38.0732C93.7844 38.0732 93.8162 38.075 93.8481 38.0756C91.3566 38.1307 89.3556 40.1685 89.3598 42.6725L89.378 53.3867L89.1867 53.387L89.1685 42.6728C89.1642 40.1369 91.2165 38.0776 93.7524 38.0732Z"  />
            <path id="path6326" fill="url(#defitem49)" stroke-width="0.191324" d="M93.76 42.4945C93.7923 42.4944 93.8238 42.4982 93.8556 42.4991C92.2098 42.5529 90.8926 43.9021 90.8954 45.5605L90.911 54.7234C90.9144 56.8044 92.5796 58.4909 94.6482 58.5386C94.6161 58.5396 94.5849 58.5436 94.5525 58.5436C92.4392 58.5472 90.7232 56.837 90.7196 54.7237L90.704 45.5608C90.7012 43.8703 92.0695 42.4973 93.76 42.4945Z"  />
            <path id="path6328" fill="url(#defitem50)" stroke-width="0.191324" d="M93.4739 43.0496C93.5063 43.0495 93.5377 43.0532 93.5696 43.0543C92.3483 43.1072 91.3712 44.1156 91.3733 45.3491L91.5806 54.7222C91.5834 56.3777 92.7164 57.7254 94.3599 57.7738C94.3278 57.7747 94.2966 57.7788 94.2643 57.7788C92.5764 57.7817 91.2008 56.4107 91.1979 54.7229L91.182 45.3494C91.1799 44.0834 92.208 43.0518 93.4739 43.0496ZM98.0856 54.7111L98.065 42.6577C98.0608 40.1536 96.0529 38.1227 93.5611 38.0761C93.5931 38.0755 93.6249 38.0735 93.6568 38.0734C96.1928 38.0691 98.2521 40.1214 98.2564 42.6574L98.4682 54.7105C98.4718 56.8238 96.5702 58.5402 94.4569 58.5438C94.4246 58.5438 94.3934 58.5399 94.3612 58.5391C96.4297 58.4844 98.0891 56.7922 98.0856 54.7111ZM96.7304 45.34L96.744 53.3742L96.5527 53.3745L96.5391 45.3403C96.5363 43.6819 95.2146 42.3373 93.5683 42.289C93.6003 42.288 93.6317 42.284 93.664 42.284C95.3546 42.2811 96.7275 43.6492 96.7304 45.34ZM93.4668 38.839C93.4991 38.839 93.5303 38.843 93.5625 38.8437C91.497 38.8988 89.8346 40.5941 89.8381 42.6717L89.8563 53.3859L89.665 53.3862L89.6468 42.672C89.6432 40.5623 91.3569 38.8427 93.4668 38.839Z"  />
          </g>
          <path id="path514" fill="url(#defitem51)" stroke-width="3.1609" d="M95.8206 53.5345C95.8206 53.5345 96.0469 53.5322 96.3256 53.5292C96.6044 53.5263 96.8306 53.524 96.8306 53.524L96.7373 44.6075C96.7373 44.6075 96.5111 44.6098 96.2323 44.6127C95.9536 44.6157 95.7273 44.618 95.7273 44.618L95.8206 53.5345Z"  />
          <path id="path516" fill="url(#defitem52)" stroke-width="3.1609" d="M90.8723 54.8658C90.8723 54.8658 90.9905 54.8646 91.136 54.8631L91.169 54.8628C91.3145 54.8612 91.4326 54.8599 91.4326 54.8599L91.3212 44.2228C91.3212 44.2228 91.2031 44.224 91.0577 44.2256L91.0245 44.2259C90.879 44.2274 90.7609 44.2287 90.7609 44.2287L90.8723 54.8658Z"  />
          <path id="path518" fill="url(#defitem53)" stroke-width="4.89683" d="M89.853 44.2733C89.853 44.2733 89.9045 44.2734 89.9678 44.2735L90.0574 44.2737C90.1207 44.2738 90.1722 44.2738 90.1722 44.2738L90.1574 53.1829C90.1574 53.1829 90.106 53.1829 90.0426 53.1828L89.9531 53.1826C89.8897 53.1825 89.8383 53.1824 89.8383 53.1824L89.853 44.2733Z"  />
          <path id="path520" fill="url(#defitem54)" stroke-width="3.1609" d="M90.8723 54.8632C90.8723 54.8632 90.9312 54.8626 91.0037 54.8619L91.0037 54.8619C91.0763 54.8611 91.1352 54.8604 91.1352 54.8604L91.0239 44.2259C91.0239 44.2259 90.965 44.2265 90.8924 44.2273L90.8924 44.2273C90.8198 44.228 90.7609 44.2287 90.7609 44.2287L90.8723 54.8632Z"  />
        </g>
      </g>
    </g>
  </g>
</svg>
