<?xml version="1.0" standalone="no"?>
<!DOCTYPE svg PUBLIC "-//W3C//DTD SVG 20010904//EN" "http://www.w3.org/TR/2001/REC-SVG-20010904/DTD/svg10.dtd">
<!-- Created using Karbon14, part of koffice: http://www.koffice.org/karbon -->
<svg xmlns="http://www.w3.org/2000/svg" xmlns:xlink="http://www.w3.org/1999/xlink" width="128px" height="128px">
  <defs>
    <radialGradient id="defitem909" gradientUnits="userSpaceOnUse" cx="64" cy="122.812" fx="64" fy="122.812" r="64" >
      <stop stop-color="#000000" offset="0" stop-opacity="1" />
      <stop stop-color="#000000" offset="1" stop-opacity="0" />
    </radialGradient>
    <radialGradient id="defitem910" gradientUnits="userSpaceOnUse" cx="99.5581" cy="106.593" fx="4.11268" fy="1.505" r="130.591" >
      <stop stop-color="#f2f2f2" offset="0" stop-opacity="1" />
      <stop stop-color="#c3c3c3" offset="1" stop-opacity="1" />
    </radialGradient>
    <radialGradient id="defitem911" gradientUnits="userSpaceOnUse" cx="98.2972" cy="105.043" fx="6.23635" fy="3.557" r="125.96" >
      <stop stop-color="#525456" offset="0" stop-opacity="1" />
      <stop stop-color="#89898c" offset="0.113661" stop-opacity="1" />
      <stop stop-color="#ebebeb" offset="0.202967" stop-opacity="1" />
      <stop stop-color="#f9f9f9" offset="0.2363" stop-opacity="1" />
      <stop stop-color="#ffffff" offset="0.2722" stop-opacity="1" />
      <stop stop-color="#f9f9f9" offset="0.5313" stop-opacity="1" />
      <stop stop-color="#ebebeb" offset="0.8449" stop-opacity="1" />
      <stop stop-color="#e1e2e2" offset="1" stop-opacity="1" />
    </radialGradient>
    <linearGradient id="defitem912" gradientUnits="userSpaceOnUse" x1="16.1357" y1="67.4316" x2="51.473" y2="27.597" >
      <stop stop-color="#670d0d" offset="0" stop-opacity="1" />
      <stop stop-color="#e21515" offset="0.333503" stop-opacity="1" />
      <stop stop-color="#690808" offset="1" stop-opacity="1" />
    </linearGradient>
    <linearGradient id="defitem913" gradientUnits="userSpaceOnUse" x1="93.9437" y1="98.8216" x2="86.458" y2="91.3359" >
      <stop stop-color="#878985" offset="0" stop-opacity="1" />
      <stop stop-color="#8c8e89" offset="0.0072" stop-opacity="1" />
      <stop stop-color="#aaaca8" offset="0.0673" stop-opacity="1" />
      <stop stop-color="#c4c6c3" offset="0.1347" stop-opacity="1" />
      <stop stop-color="#dbdbda" offset="0.265258" stop-opacity="1" />
      <stop stop-color="#ebebeb" offset="0.376461" stop-opacity="1" />
      <stop stop-color="#f6f6f6" offset="0.487403" stop-opacity="1" />
      <stop stop-color="#fdfdfd" offset="0.632409" stop-opacity="1" />
      <stop stop-color="#ffffff" offset="1" stop-opacity="1" />
    </linearGradient>
  </defs>
  <g id="Layer">
    <g id="layer1">
      <path id="path3945" fill="#000000" d=""  />
    </g>
    <path id="path3081" fill="#000000" d=""  />
    <g id="layer2">
    </g>
    <g id="layer3">
    </g>
    <g id="layer4">
    </g>
    <path id="path2167" fill="#000000" d=""  />
    <g id="g3036">
      <path id="path4922" fill="#000000" d=""  />
    </g>
    <path id="path4924" fill="#000000" d=""  />
    <g id="g4926">
    </g>
    <g id="g4928">
    </g>
    <g id="g4930">
    </g>
    <path id="path10095" fill="#000000" d=""  />
    <path id="path2191" fill="#ffffff" fill-opacity="0.756881" stroke-width="0.5" stroke-linecap="round" stroke-linejoin="round" d="M367.351 -76.373L367.351 -79.168L367.351 -76.373Z"  />
    <path id="path2985" fill="#ffffff" fill-opacity="0.756881" stroke-width="0.5" stroke-linecap="round" stroke-linejoin="round" d="M210.342 -146.008L210.342 -148.803L210.342 -146.008Z"  />
    <path id="path3206" fill="#ffffff" fill-opacity="0.756881" stroke-width="0.5" stroke-linecap="round" stroke-linejoin="round" d="M90.8401 -232.638L90.8401 -235.433L90.8401 -232.638Z"  />
    <g id="g2878">
    </g>
    <g id="g4938">
    </g>
    <path id="path3946" fill="#ffffff" fill-opacity="0.756881" stroke-width="0.5" stroke-linecap="round" stroke-linejoin="round" d="M337.432 -166.883L337.432 -169.678L337.432 -166.883Z"  />
    <path id="path1561" fill="#ffffff" fill-opacity="0.756881" stroke-width="0.5" stroke-linecap="round" stroke-linejoin="round" d="M244.807 -92.989L244.807 -94.516L244.807 -92.989Z"  />
    <path fill="#ffffff" stroke-width="3.632" stroke-linecap="round" stroke-linejoin="round" d="M187.322 -149.589L187.322 -149.589L188.322 -149.589L188.322 -149.589L187.322 -149.589Z"  />
    <path fill="#ffffff" stroke-width="3.632" stroke-linecap="round" stroke-linejoin="round" d="M152.196 -177.117L152.196 -177.117L153.196 -177.117L153.196 -177.117L152.196 -177.117Z"  />
    <path id="path2494" fill="#ffffff" fill-opacity="0.756881" stroke-width="0.5" stroke-linecap="round" stroke-linejoin="round" d="M-6.74187 -250.333L-6.74187 -253.128L-6.74187 -250.333Z"  />
    <g id="g4640">
    </g>
    <g id="g4646">
    </g>
    <g id="g4730">
    </g>
    <g id="g4748">
    </g>
    <g id="g12948">
      <path id="path12950" fill="#000000" d=""  />
    </g>
    <path id="path12952" fill="#000000" d=""  />
    <g id="g12954">
    </g>
    <g id="g12956">
    </g>
    <g id="g12958">
    </g>
    <path id="path12983" fill="#000000" d=""  />
    <g id="g12985">
      <path id="path12987" fill="#000000" d=""  />
    </g>
    <path id="path12989" fill="#000000" d=""  />
    <g id="g12991">
    </g>
    <g id="g12993">
    </g>
    <g id="g12995">
    </g>
    <path id="path12997" fill="#000000" d=""  />
    <path id="path13001" fill="#ffffff" fill-opacity="0.756881" stroke-width="0.5" stroke-linecap="round" stroke-linejoin="round" d="M510.32 -88.469L510.32 -91.263L510.32 -88.469Z"  />
    <path id="path13003" fill="#ffffff" fill-opacity="0.756881" stroke-width="0.5" stroke-linecap="round" stroke-linejoin="round" d="M353.312 -158.104L353.312 -160.899L353.312 -158.104Z"  />
    <path id="path13005" fill="#ffffff" fill-opacity="0.756881" stroke-width="0.5" stroke-linecap="round" stroke-linejoin="round" d="M233.81 -244.734L233.81 -247.529L233.81 -244.734Z"  />
    <g id="g13007">
    </g>
    <g id="g13009">
    </g>
    <path id="path13011" fill="#ffffff" fill-opacity="0.756881" stroke-width="0.5" stroke-linecap="round" stroke-linejoin="round" d="M480.401 -178.979L480.401 -181.774L480.401 -178.979Z"  />
    <path id="path13013" fill="#ffffff" fill-opacity="0.756881" stroke-width="0.5" stroke-linecap="round" stroke-linejoin="round" d="M387.777 -105.085L387.777 -106.612L387.777 -105.085Z"  />
    <path fill="#ffffff" stroke-width="3.632" stroke-linecap="round" stroke-linejoin="round" d="M330.292 -161.685L330.292 -161.685L331.292 -161.685L331.292 -161.685L330.292 -161.685Z"  />
    <path fill="#ffffff" stroke-width="3.632" stroke-linecap="round" stroke-linejoin="round" d="M295.165 -189.213L295.165 -189.213L296.165 -189.213L296.165 -189.213L295.165 -189.213Z"  />
    <path id="path13019" fill="#ffffff" fill-opacity="0.756881" stroke-width="0.5" stroke-linecap="round" stroke-linejoin="round" d="M136.228 -262.429L136.228 -265.224L136.228 -262.429Z"  />
    <g id="g13021">
    </g>
    <g id="g13023">
    </g>
    <g id="g13025">
    </g>
    <g id="g13027">
    </g>
    <path id="path4226" fill="#ffffff" fill-opacity="0.756881" stroke-width="0.5" stroke-linecap="round" stroke-linejoin="round" d="M405.442 24.848L405.442 22.053L405.442 24.848Z"  />
    <g id="g5678">
    </g>
    <g id="layer5">
    </g>
    <path id="path13199" fill="#ffffff" fill-opacity="0.756881" stroke-width="0.5" stroke-linecap="round" stroke-linejoin="round" d="M336.377 -77.923L336.377 -80.523L336.377 -77.923Z"  />
    <path id="path5682" fill="#000000" d=""  />
    <path id="path5684" fill="#000000" d=""  />
    <path id="path3143" fill="#000000" d=""  />
    <g id="g36974">
      <path id="path36976" fill="#000000" d=""  />
    </g>
    <path id="path36978" fill="#000000" d=""  />
    <g id="g36980">
    </g>
    <g id="g36982">
    </g>
    <g id="g36984">
    </g>
    <path id="path36986" fill="#000000" d=""  />
    <g id="g36988">
      <path id="path36990" fill="#000000" d=""  />
    </g>
    <path id="path36992" fill="#000000" d=""  />
    <g id="g36994">
    </g>
    <g id="g36996">
    </g>
    <g id="g36998">
    </g>
    <path id="path37000" fill="#000000" d=""  />
    <path id="path37002" fill="#ffffff" fill-opacity="0.756881" stroke-width="0.5" stroke-linecap="round" stroke-linejoin="round" d="M517.12 -78.822L517.12 -81.617L517.12 -78.822Z"  />
    <path id="path37004" fill="#ffffff" fill-opacity="0.756881" stroke-width="0.5" stroke-linecap="round" stroke-linejoin="round" d="M360.112 -148.458L360.112 -151.252L360.112 -148.458Z"  />
    <path id="path37006" fill="#ffffff" fill-opacity="0.756881" stroke-width="0.5" stroke-linecap="round" stroke-linejoin="round" d="M240.61 -235.088L240.61 -237.883L240.61 -235.088Z"  />
    <g id="g37008">
    </g>
    <g id="g37010">
    </g>
    <path id="path37012" fill="#ffffff" fill-opacity="0.756881" stroke-width="0.5" stroke-linecap="round" stroke-linejoin="round" d="M487.201 -169.333L487.201 -172.127L487.201 -169.333Z"  />
    <path id="path37014" fill="#ffffff" fill-opacity="0.756881" stroke-width="0.5" stroke-linecap="round" stroke-linejoin="round" d="M394.577 -95.439L394.577 -96.966L394.577 -95.439Z"  />
    <path fill="#ffffff" stroke-width="3.632" stroke-linecap="round" stroke-linejoin="round" d="M337.092 -152.039L337.092 -152.039L338.092 -152.039L338.092 -152.039L337.092 -152.039Z"  />
    <path fill="#ffffff" stroke-width="3.632" stroke-linecap="round" stroke-linejoin="round" d="M301.965 -179.567L301.965 -179.567L302.965 -179.567L302.965 -179.567L301.965 -179.567Z"  />
    <path id="path37020" fill="#ffffff" fill-opacity="0.756881" stroke-width="0.5" stroke-linecap="round" stroke-linejoin="round" d="M143.028 -252.783L143.028 -255.577L143.028 -252.783Z"  />
    <g id="g37022">
    </g>
    <g id="g37024">
    </g>
    <g id="g37026">
    </g>
    <g id="g37028">
    </g>
    <path id="path37030" fill="#ffffff" fill-opacity="0.756881" stroke-width="0.5" stroke-linecap="round" stroke-linejoin="round" d="M412.243 34.494L412.243 31.6993L412.243 34.494Z"  />
    <g id="g31196">
      <path id="path31198" fill="#000000" d=""  />
    </g>
    <path id="path31200" fill="#000000" d=""  />
    <g id="g31202">
    </g>
    <g id="g31204">
    </g>
    <g id="g31206">
    </g>
    <g id="g8876">
      <path id="path8878" fill="#000000" d=""  />
    </g>
    <path id="path8880" fill="#000000" d=""  />
    <g id="g8882">
    </g>
    <g id="g8884">
    </g>
    <g id="g8886">
    </g>
    <g id="g6011">
      <path id="path6013" fill="#000000" d=""  />
    </g>
    <path id="path6015" fill="#000000" d=""  />
    <g id="g31217">
    </g>
    <g id="g6019">
    </g>
    <g id="g31220">
    </g>
    <path id="path6025" fill="#000000" d=""  />
    <path id="path6028" fill="url(#defitem909)" stroke-width="0" stroke-linecap="round" stroke-linejoin="round" d="M-2.76883e-05 122.812C-2.76883e-05 125.677 28.6538 128 64 128C99.3462 128 128 125.677 128 122.812C128 119.947 99.3462 117.624 64 117.624C28.6538 117.624 -2.76883e-05 119.947 -2.76883e-05 122.812L-2.76883e-05 122.812Z"  />
    <path id="path6210" fill="none" stroke="#000000" stroke-width="9.98122" stroke-linejoin="round" d="M19.0845 8.991L19.0845 111.922C19.0845 112.955 19.9229 113.793 20.956 113.793L76.3256 113.793C76.8215 113.793 77.2978 113.596 77.6487 113.245L108.367 82.5266C108.718 82.1757 108.915 81.6994 108.915 81.2035L108.915 8.991L19.0845 8.991Z"  />
    <path id="path6212" fill="none" stroke="#000000" stroke-width="7.48591" stroke-linejoin="round" d="M19.0845 8.991L19.0845 111.922C19.0845 112.955 19.9229 113.793 20.956 113.793L76.3256 113.793C76.8215 113.793 77.2978 113.596 77.6487 113.245L108.367 82.5266C108.718 82.1757 108.915 81.6994 108.915 81.2035L108.915 8.991L19.0845 8.991Z"  />
    <path id="path6214" fill="none" stroke="#000000" stroke-width="4.99061" stroke-linejoin="round" d="M19.0845 8.991L19.0845 111.922C19.0845 112.955 19.9229 113.793 20.956 113.793L76.3256 113.793C76.8215 113.793 77.2978 113.596 77.6487 113.245L108.367 82.5266C108.718 82.1757 108.915 81.6994 108.915 81.2035L108.915 8.991L19.0845 8.991Z"  />
    <path id="path6216" fill="none" stroke="#000000" stroke-width="2.4953" stroke-linejoin="round" d="M19.0845 8.991L19.0845 111.922C19.0845 112.955 19.9229 113.793 20.956 113.793L76.3256 113.793C76.8215 113.793 77.2978 113.596 77.6487 113.245L108.367 82.5266C108.718 82.1757 108.915 81.6994 108.915 81.2035L108.915 8.991L19.0845 8.991Z"  />
    <path id="path6218" fill="url(#defitem910)" d="M19.0845 8.991L19.0845 111.922C19.0845 112.955 19.9229 113.793 20.956 113.793L76.3256 113.793C76.8215 113.793 77.2978 113.596 77.6487 113.245L108.367 82.5266C108.718 82.1757 108.915 81.6994 108.915 81.2035L108.915 8.991L19.0845 8.991Z"  />
    <path id="path6220" fill="url(#defitem911)" d="M22.4824 11.69C21.9851 11.69 21.5798 12.096 21.5798 12.594L21.5798 110.19C21.5798 110.689 21.9851 111.094 22.4824 111.094L75.8885 111.094C76.1259 111.094 76.3587 110.998 76.5266 110.829L106.156 81.1633C106.325 80.9943 106.42 80.7621 106.42 80.5244L106.42 12.594C106.42 12.096 106.016 11.69 105.518 11.69L22.4824 11.69Z"  />
    <path fill="#800000" stroke-width="2.7" stroke-linecap="round" stroke-linejoin="round" d="M23.664 25.823C22.4848 25.823 21.5279 24.866 21.5279 23.687L21.5279 13.771C21.5279 12.592 22.4848 11.635 23.664 11.635L104.488 11.635C105.667 11.635 106.624 12.592 106.624 13.771L106.624 23.687C106.624 24.866 105.667 25.823 104.488 25.823L23.664 25.823Z"  />
    <g id="g21865">
      <path id="path21867" fill="#000000" d=""  />
    </g>
    <path id="path21869" fill="#000000" d=""  />
    <g id="g21871">
    </g>
    <g id="g21873">
    </g>
    <g id="g21875">
    </g>
    <g id="g21877">
      <path id="path21879" fill="#000000" d=""  />
    </g>
    <path id="path21881" fill="#000000" d=""  />
    <g id="g21883">
    </g>
    <g id="g21885">
    </g>
    <g id="g21887">
    </g>
    <g id="g21889">
      <path id="path21891" fill="#000000" d=""  />
    </g>
    <path id="path21893" fill="#000000" d=""  />
    <g id="g21895">
    </g>
    <g id="g21897">
    </g>
    <g id="g21899">
    </g>
    <path id="path21901" fill="#000000" d=""  />
    <path id="path1987" fill="#ffffff" fill-opacity="0.756881" stroke-width="0.5" stroke-linecap="round" stroke-linejoin="round" d="M251.078 -223.892L251.078 -226.686L251.078 -223.892Z"  />
    <path id="path1747" fill="#ffffff" fill-opacity="0.756881" stroke-width="0.5" stroke-linecap="round" stroke-linejoin="round" d="M298.874 -339.216L298.874 -342.01L298.874 -339.216Z"  />
    <path fill="#ffffff" stroke-width="3.632" stroke-linecap="round" stroke-linejoin="round" d="M287.727 -311.473L287.727 -311.473L288.727 -311.473L288.727 -311.473L287.727 -311.473Z"  />
    <g id="g15719">
      <path id="path15721" fill="#000000" d=""  />
    </g>
    <path id="path15723" fill="#000000" d=""  />
    <g id="g15725">
    </g>
    <g id="g15727">
    </g>
    <g id="g15729">
    </g>
    <path id="path31261" fill="#000000" d=""  />
    <g id="g31263">
      <path id="path31265" fill="#000000" d=""  />
    </g>
    <path id="path31267" fill="#000000" d=""  />
    <g id="g31269">
    </g>
    <g id="g31271">
    </g>
    <g id="g31273">
    </g>
    <path id="path31275" fill="#000000" d=""  />
    <path id="path31279" fill="#ffffff" fill-opacity="0.756881" stroke-width="0.5" stroke-linecap="round" stroke-linejoin="round" d="M496.897 -96.417L496.897 -99.212L496.897 -96.417Z"  />
    <path id="path31281" fill="#ffffff" fill-opacity="0.756881" stroke-width="0.5" stroke-linecap="round" stroke-linejoin="round" d="M339.888 -166.052L339.888 -168.847L339.888 -166.052Z"  />
    <path id="path31283" fill="#ffffff" fill-opacity="0.756881" stroke-width="0.5" stroke-linecap="round" stroke-linejoin="round" d="M220.386 -252.682L220.386 -255.477L220.386 -252.682Z"  />
    <g id="g31285">
    </g>
    <g id="g31287">
    </g>
    <path id="path31289" fill="#ffffff" fill-opacity="0.756881" stroke-width="0.5" stroke-linecap="round" stroke-linejoin="round" d="M466.977 -186.927L466.977 -189.722L466.977 -186.927Z"  />
    <path id="path31291" fill="#ffffff" fill-opacity="0.756881" stroke-width="0.5" stroke-linecap="round" stroke-linejoin="round" d="M374.353 -113.033L374.353 -114.56L374.353 -113.033Z"  />
    <path fill="#ffffff" stroke-width="3.632" stroke-linecap="round" stroke-linejoin="round" d="M316.868 -169.633L316.868 -169.633L317.868 -169.633L317.868 -169.633L316.868 -169.633Z"  />
    <path fill="#ffffff" stroke-width="3.632" stroke-linecap="round" stroke-linejoin="round" d="M281.741 -197.161L281.741 -197.161L282.741 -197.161L282.741 -197.161L281.741 -197.161Z"  />
    <path id="path31296" fill="#ffffff" fill-opacity="0.756881" stroke-width="0.5" stroke-linecap="round" stroke-linejoin="round" d="M122.804 -270.377L122.804 -273.172L122.804 -270.377Z"  />
    <g id="g31298">
    </g>
    <g id="g31300">
    </g>
    <g id="g31302">
    </g>
    <g id="g31304">
    </g>
    <path id="path31306" fill="#ffffff" fill-opacity="0.756881" stroke-width="0.5" stroke-linecap="round" stroke-linejoin="round" d="M392.019 16.899L392.019 14.105L392.019 16.899Z"  />
    <g id="g5538">
      <g id="g11760">
        <g id="g10643">
          <path id="path10630" fill="#ffffff" stroke-width="0.268253" d="M88.6617 70.3128C88.5676 72.1959 89.3697 74.4386 87.9232 75.9941C85.93 78.5642 82.7006 79.6302 79.7303 80.6141C72.4297 82.8048 64.6752 83.0371 57.1341 82.2842C53.553 81.8101 49.9647 81.0827 46.6032 79.7359C44.4101 78.7783 42.0283 77.5907 40.8939 75.3651C40.203 73.5959 40.8133 71.6841 40.9569 69.8746C41.7907 67.371 44.3562 66.0664 46.5993 65.0332C52.0024 62.8484 57.8786 62.0417 63.675 61.884C70.1107 61.851 76.6914 62.373 82.7199 64.7918C84.925 65.7099 87.3131 66.9561 88.384 69.2151C88.5298 69.5648 88.6247 69.9357 88.6617 70.3128Z"  />
          <path id="path10632" fill="#000000" stroke-width="0.00736154" d="M87.9709 69.718C87.9876 71.6287 88.5835 73.8937 87.1211 75.4502C83.9319 78.7314 79.2921 79.8363 74.9636 80.7201C66.5155 82.2186 57.6836 81.9852 49.4349 79.5353C46.7105 78.6397 43.8213 77.4125 42.1215 74.9914C41.2244 73.2005 41.6297 71.0835 42.0433 69.2167C42.6602 67.0724 44.7733 65.9773 46.594 64.99C50.2614 63.2502 54.3134 62.5179 58.3089 61.9843C65.9726 61.0899 73.8803 61.5801 81.2385 63.9867C83.69 64.8689 86.2794 66.1183 87.644 68.4471C87.8302 68.8454 87.9505 69.2776 87.9709 69.718Z"  />
          <path id="path10633" fill="#ffffff" stroke-width="0.268253" d="M64.9441 61.8513C70.4426 61.8074 76.0211 62.4881 81.1963 64.4093C83.1828 65.2337 85.2667 66.3051 86.4224 68.1972C87.1178 69.533 86.7463 71.1716 85.7107 72.217C84.416 73.6944 82.5551 74.5062 80.8058 75.308C75.6859 77.2014 70.1821 77.8307 64.75 77.8843C59.2495 77.8741 53.6629 77.257 48.5093 75.2419C46.5609 74.4296 44.5183 73.3754 43.3987 71.5075C42.6637 70.2711 42.9424 68.6734 43.9352 67.6622C45.6412 65.7167 48.1252 64.7319 50.5052 63.8838C55.1794 62.4523 60.0686 61.9018 64.9441 61.8513Z"  />
        </g>
        <g id="g10647">
          <path id="path10648" fill="#ffffff" stroke-width="0.268253" d="M93.4591 65.9266C93.365 67.8096 94.1671 70.0523 92.7206 71.6078C90.7274 74.1779 87.498 75.244 84.5277 76.2278C77.2271 78.4186 69.4726 78.6509 61.9314 77.898C58.3504 77.4239 54.7621 76.6965 51.4006 75.3497C49.2075 74.3921 46.8256 73.2045 45.6913 70.9788C45.0004 69.2097 45.6107 67.2979 45.7543 65.4884C46.5881 62.9848 49.1536 61.6802 51.3967 60.6469C56.7998 58.4622 62.676 57.6555 68.4724 57.4977C74.9081 57.4648 81.4888 57.9868 87.5172 60.4056C89.7224 61.3237 92.1105 62.5699 93.1814 64.8289C93.3272 65.1785 93.4221 65.5495 93.4591 65.9266Z"  />
          <path id="path10649" fill="#000000" stroke-width="0.00736154" d="M92.7683 65.3317C92.785 67.2425 93.3809 69.5074 91.9184 71.0639C88.7292 74.3452 84.0894 75.4501 79.761 76.3339C71.3129 77.8323 62.481 77.599 54.2323 75.1491C51.5078 74.2535 48.6187 73.0263 46.9189 70.6052C46.0218 68.8143 46.4271 66.6973 46.8407 64.8305C47.4576 62.6861 49.5707 61.5911 51.3914 60.6038C55.0588 58.864 59.1108 58.1317 63.1063 57.5981C70.77 56.7037 78.6777 57.1939 86.0359 59.6004C88.4874 60.4827 91.0768 61.7321 92.4414 64.0609C92.6275 64.4592 92.7479 64.8914 92.7683 65.3317Z"  />
          <path id="path10650" fill="#ffffff" stroke-width="0.268253" d="M69.7414 57.4651C75.24 57.4211 80.8184 58.1019 85.9937 60.0231C87.9802 60.8474 90.0641 61.9189 91.2198 63.8109C91.9151 65.1468 91.5437 66.7854 90.5081 67.8307C89.2133 69.3082 87.3525 70.1199 85.6032 70.9218C80.4832 72.8152 74.9795 73.4445 69.5474 73.4981C64.0469 73.4878 58.4603 72.8708 53.3067 70.8556C51.3583 70.0434 49.3157 68.9892 48.1961 67.1213C47.4611 65.8849 47.7398 64.2871 48.7326 63.276C50.4386 61.3305 52.9225 60.3457 55.3026 59.4976C59.9768 58.066 64.8659 57.5156 69.7414 57.4651Z"  />
        </g>
        <g id="g10651">
          <path id="path10652" fill="#ffffff" stroke-width="0.268253" d="M87.7022 61.5404C87.6081 63.4235 88.4102 65.6662 86.9637 67.2217C84.9705 69.7918 81.7411 70.8578 78.7708 71.8417C71.4702 74.0324 63.7157 74.2647 56.1746 73.5118C52.5935 73.0377 49.0052 72.3103 45.6437 70.9635C43.4506 70.0059 41.0688 68.8183 39.9344 66.5927C39.2435 64.8235 39.8538 62.9117 39.9974 61.1022C40.8312 58.5986 43.3967 57.294 45.6398 56.2608C51.0429 54.076 56.9191 53.2693 62.7155 53.1116C69.1512 53.0786 75.7319 53.6006 81.7604 56.0194C83.9655 56.9375 86.3536 58.1837 87.4245 60.4427C87.5703 60.7924 87.6652 61.1633 87.7022 61.5404Z"  />
          <path id="path10653" fill="#000000" stroke-width="0.00736154" d="M87.0114 60.9456C87.0281 62.8563 87.624 65.1213 86.1616 66.6778C82.9724 69.959 78.3326 71.0639 74.0041 71.9477C65.556 73.4462 56.7241 73.2128 48.4754 70.7629C45.751 69.8673 42.8618 68.6401 41.162 66.219C40.2649 64.4281 40.6702 62.3111 41.0838 60.4443C41.7007 58.3 43.8138 57.2049 45.6345 56.2176C49.3019 54.4778 53.3539 53.7455 57.3494 53.2119C65.0131 52.3175 72.9208 52.8077 80.279 55.2143C82.7305 56.0965 85.3199 57.3459 86.6845 59.6747C86.8707 60.073 86.991 60.5052 87.0114 60.9456Z"  />
          <path id="path10654" fill="#ffffff" stroke-width="0.268253" d="M63.9846 53.0789C69.4831 53.035 75.0616 53.7157 80.2368 55.6369C82.2233 56.4613 84.3072 57.5327 85.4629 59.4247C86.1583 60.7606 85.7868 62.3992 84.7512 63.4446C83.4565 64.922 81.5956 65.7338 79.8463 66.5356C74.7264 68.429 69.2226 69.0583 63.7905 69.1119C58.29 69.1017 52.7034 68.4846 47.5498 66.4695C45.6014 65.6572 43.5588 64.603 42.4392 62.7351C41.7042 61.4987 41.9829 59.901 42.9757 58.8898C44.6817 56.9443 47.1657 55.9595 49.5457 55.1114C54.2199 53.6799 59.109 53.1294 63.9846 53.0789Z"  />
        </g>
        <g id="g10655">
          <path id="path10656" fill="#ffffff" stroke-width="0.268253" d="M92.2255 55.9206C92.1314 57.8037 92.9335 60.0464 91.487 61.6019C89.4938 64.172 86.2644 65.238 83.2941 66.2219C75.9935 68.4126 68.239 68.6449 60.6978 67.892C57.1168 67.4179 53.5285 66.6905 50.167 65.3437C47.9739 64.3861 45.592 63.1985 44.4577 60.9729C43.7668 59.2037 44.3771 57.2919 44.5207 55.4824C45.3544 52.9788 47.92 51.6742 50.1631 50.641C55.5662 48.4562 61.4424 47.6495 67.2388 47.4918C73.6745 47.4588 80.2551 47.9808 86.2836 50.3996C88.4888 51.3177 90.8769 52.5639 91.9478 54.8229C92.0936 55.1726 92.1885 55.5435 92.2255 55.9206Z"  />
          <path id="path10657" fill="#000000" stroke-width="0.00736154" d="M91.5347 55.3258C91.5514 57.2365 92.1473 59.5015 90.6848 61.058C87.4956 64.3392 82.8558 65.4441 78.5274 66.3279C70.0793 67.8264 61.2474 67.593 52.9987 65.1431C50.2742 64.2475 47.3851 63.0203 45.6853 60.5992C44.7882 58.8083 45.1935 56.6913 45.6071 54.8245C46.224 52.6802 48.3371 51.5851 50.1577 50.5978C53.8252 48.858 57.8772 48.1257 61.8727 47.5921C69.5363 46.6977 77.4441 47.1879 84.8023 49.5945C87.2537 50.4767 89.8432 51.7261 91.2078 54.0549C91.3939 54.4532 91.5143 54.8854 91.5347 55.3258Z"  />
          <path id="path10658" fill="#ffffff" stroke-width="0.268253" d="M68.5078 47.4591C74.0064 47.4152 79.5848 48.0959 84.7601 50.0171C86.7466 50.8415 88.8305 51.9129 89.9862 53.8049C90.6815 55.1408 90.3101 56.7794 89.2745 57.8248C87.9797 59.3022 86.1189 60.114 84.3696 60.9158C79.2496 62.8092 73.7459 63.4385 68.3138 63.4921C62.8133 63.4819 57.2267 62.8648 52.0731 60.8496C50.1246 60.0374 48.0821 58.9832 46.9625 57.1153C46.2275 55.8789 46.5062 54.2812 47.499 53.27C49.205 51.3245 51.6889 50.3397 54.069 49.4916C58.7431 48.0601 63.6323 47.5096 68.5078 47.4591Z"  />
        </g>
        <g id="g10659">
          <path id="path10660" fill="#ffffff" stroke-width="0.268253" d="M86.4686 51.2603C86.3745 53.1434 87.1766 55.386 85.7301 56.9415C83.737 59.5116 80.5075 60.5777 77.5372 61.5616C70.2366 63.7523 62.4822 63.9846 54.941 63.2317C51.3599 62.7576 47.7716 62.0302 44.4101 60.6834C42.2171 59.7258 39.8352 58.5382 38.7008 56.3125C38.0099 54.5434 38.6202 52.6316 38.7638 50.8221C39.5976 48.3185 42.1631 47.0139 44.4062 45.9806C49.8093 43.7959 55.6855 42.9892 61.4819 42.8314C67.9176 42.7985 74.4983 43.3205 80.5268 45.7393C82.732 46.6574 85.12 47.9036 86.191 50.1626C86.3367 50.5122 86.4316 50.8832 86.4686 51.2603Z"  />
          <path id="path10661" fill="#000000" stroke-width="0.00736154" d="M85.7779 50.6654C85.7945 52.5762 86.3904 54.8411 84.928 56.3976C81.7388 59.6789 77.099 60.7838 72.7705 61.6676C64.3224 63.1661 55.4905 62.9327 47.2418 60.4828C44.5174 59.5872 41.6282 58.36 39.9284 55.9389C39.0313 54.148 39.4367 52.031 39.8502 50.1642C40.4671 48.0198 42.5803 46.9248 44.4009 45.9375C48.0683 44.1977 52.1204 43.4654 56.1158 42.9318C63.7795 42.0374 71.6873 42.5276 79.0454 44.9342C81.4969 45.8164 84.0864 47.0658 85.4509 49.3946C85.6371 49.7929 85.7574 50.2251 85.7779 50.6654Z"  />
          <path id="path10662" fill="#ffffff" stroke-width="0.268253" d="M62.751 42.7988C68.2496 42.7549 73.828 43.4356 79.0032 45.3568C80.9897 46.1811 83.0736 47.2526 84.2294 49.1446C84.9247 50.4805 84.5532 52.1191 83.5176 53.1644C82.2229 54.6419 80.362 55.4536 78.6127 56.2555C73.4928 58.1489 67.989 58.7782 62.5569 58.8318C57.0564 58.8215 51.4698 58.2045 46.3162 56.1893C44.3678 55.3771 42.3253 54.3229 41.2056 52.455C40.4706 51.2186 40.7494 49.6208 41.7421 48.6097C43.4481 46.6642 45.9321 45.6794 48.3121 44.8313C52.9863 43.3997 57.8755 42.8493 62.751 42.7988Z"  />
        </g>
        <g id="g10663">
          <path id="path10664" fill="#ffffff" stroke-width="0.268253" d="M82.4936 47.6965C82.3995 49.5795 83.2016 51.8222 81.7551 53.3777C79.7619 55.9478 76.5325 57.0139 73.5622 57.9978C66.2616 60.1885 58.5071 60.4208 50.966 59.6679C47.3849 59.1938 43.7966 58.4664 40.4351 57.1196C38.242 56.162 35.8602 54.9744 34.7258 52.7487C34.0349 50.9796 34.6452 49.0678 34.7888 47.2583C35.6226 44.7547 38.1881 43.4501 40.4312 42.4168C45.8343 40.2321 51.7105 39.4254 57.5069 39.2676C63.9426 39.2347 70.5233 39.7567 76.5517 42.1755C78.7569 43.0936 81.145 44.3398 82.2159 46.5988C82.3617 46.9484 82.4566 47.3194 82.4936 47.6965Z"  />
          <path id="path10665" fill="#000000" stroke-width="0.00736154" d="M81.8028 47.1016C81.8195 49.0124 82.4154 51.2773 80.953 52.8338C77.7637 56.1151 73.124 57.22 68.7955 58.1038C60.3474 59.6022 51.5155 59.3689 43.2668 56.919C40.5424 56.0234 37.6532 54.7962 35.9534 52.3751C35.0563 50.5842 35.4616 48.4672 35.8752 46.6004C36.4921 44.456 38.6052 43.361 40.4259 42.3737C44.0933 40.6339 48.1453 39.9016 52.1408 39.368C59.8045 38.4736 67.7122 38.9638 75.0704 41.3704C77.5219 42.2526 80.1113 43.502 81.4759 45.8308C81.662 46.2291 81.7824 46.6613 81.8028 47.1016Z"  />
          <path id="path10666" fill="#ffffff" stroke-width="0.268253" d="M58.776 39.235C64.2745 39.1911 69.853 39.8718 75.0282 41.793C77.0147 42.6173 79.0986 43.6888 80.2543 45.5808C80.9497 46.9167 80.5782 48.5553 79.5426 49.6006C78.2479 51.0781 76.387 51.8898 74.6377 52.6917C69.5177 54.5851 64.014 55.2144 58.5819 55.268C53.0814 55.2577 47.4948 54.6407 42.3412 52.6255C40.3928 51.8133 38.3502 50.7591 37.2306 48.8912C36.4956 47.6548 36.7743 46.057 37.7671 45.0459C39.4731 43.1004 41.9571 42.1156 44.3371 41.2675C49.0113 39.8359 53.9004 39.2855 58.776 39.235Z"  />
        </g>
        <path id="path10672" fill="#ffffff" stroke-width="0.338227" d="M89.347 43.5844C89.2529 45.4675 90.055 47.7102 88.6086 49.2657C86.6154 51.8358 83.386 52.9019 80.4157 53.8857C73.1151 56.0764 65.3606 56.3087 57.8194 55.5558C54.2383 55.0817 50.6501 54.3543 47.2885 53.0075C45.0955 52.05 42.7136 50.8623 41.5792 48.6367C40.8884 46.8675 41.4986 44.9557 41.6423 43.1462C42.476 40.6427 45.0415 39.338 47.2846 38.3048C52.6877 36.12 58.5639 35.3133 64.3603 35.1556C70.796 35.1226 77.3767 35.6446 83.4052 38.0634C85.6104 38.9815 87.9984 40.2277 89.0694 42.4867C89.2151 42.8364 89.31 43.2074 89.347 43.5844Z"  />
        <path id="path10674" fill="#000000" stroke-width="0.338227" d="M89.0675 42.3042C89.0841 44.215 89.68 46.4799 88.2176 48.0364C85.0284 51.3176 80.3886 52.4225 76.0601 53.3064C67.612 54.8048 58.7801 54.5715 50.5314 52.1215C47.807 51.226 44.9178 49.9987 43.218 47.5777C42.3209 45.7868 42.7263 43.6698 43.1399 41.803C43.7568 39.6586 45.8699 38.5636 47.6905 37.5763C51.358 35.8365 55.41 35.1042 59.4054 34.5706C67.0691 33.6762 74.9769 34.1663 82.3351 36.5729C84.7865 37.4551 87.376 38.7046 88.7405 41.0334C88.9267 41.4317 89.047 41.8638 89.0675 42.3042Z"  />
        <path id="path10675" fill="#ffffff" stroke-width="0.338227" d="M66.0406 34.5746C71.5392 34.5307 77.1176 35.2114 82.2929 37.1326C84.2794 37.957 86.3633 39.0284 87.519 40.9205C88.2143 42.2563 87.8428 43.8949 86.8072 44.9403C85.5125 46.4177 83.6516 47.2295 81.9024 48.0314C76.7824 49.9248 71.2787 50.554 65.8465 50.6076C60.346 50.5974 54.7594 49.9803 49.6058 47.9652C47.6574 47.153 45.6149 46.0987 44.4953 44.2308C43.7603 42.9944 44.039 41.3967 45.0318 40.3855C46.7377 38.44 49.2217 37.4552 51.6017 36.6071C56.2759 35.1756 61.1651 34.6251 66.0406 34.5746Z"  />
      </g>
      <g id="g11823">
        <path id="path10676" fill="url(#defitem912)" stroke="#000000" stroke-width="0.338227" stroke-linecap="round" stroke-linejoin="round" d="M76.9519 46.7518C75.8171 47.1012 74.6483 47.3257 73.4626 47.3993C72.1803 47.5164 70.8991 47.6563 69.6096 47.6439C67.6819 47.7023 65.757 47.5227 63.835 47.3978C61.7841 47.2453 59.7279 46.8933 57.827 46.0817C57.2711 45.8548 56.6879 45.6848 56.2137 45.3009C55.5828 44.8212 55.0376 44.2316 54.6096 43.5642C53.6649 43.5642 52.7201 43.5642 51.7754 43.5642C52.143 43.3171 52.4727 42.9792 52.8434 42.7618C53.3708 42.7618 53.8982 42.7618 54.4256 42.7618C54.4324 42.3883 54.372 41.9885 54.5654 41.657C54.4783 41.4616 54.0363 41.6209 53.8054 41.5693C52.9496 41.5693 52.0938 41.5693 51.238 41.5693C51.5861 41.2879 51.9283 40.9996 52.2613 40.7006C53.1201 40.7006 53.979 40.7006 54.8378 40.7006C55.1936 40.1925 55.6074 39.724 56.1386 39.3953C56.7668 38.8711 57.4929 38.4918 58.263 38.2226C59.32 37.8147 60.4422 37.6053 61.5366 37.3211C62.7196 37.0862 63.925 36.9852 65.1254 36.8885C66.4091 36.8495 67.6921 36.7478 68.9756 36.7339C70.519 36.781 72.0675 36.7968 73.6039 36.9538C74.4633 37.0872 75.3392 37.1378 76.1877 37.3251C76.4547 37.399 76.8523 37.4061 76.5833 37.7542C76.4359 37.9313 76.5353 38.4489 76.2162 38.3218C74.3411 37.9661 72.4253 37.8892 70.5216 37.9746C68.8591 38.0132 67.1892 38.1746 65.583 38.6218C64.8002 38.8194 64.0801 39.2041 63.3702 39.578C62.9607 39.8276 62.6367 40.1748 62.3506 40.5524C62.013 40.8214 63.0116 40.7463 62.84 40.7006C64.9271 40.6927 67.0149 40.7279 69.1009 40.6564C70.3241 40.6564 71.5473 40.6564 72.7705 40.6564C72.439 40.9167 72.1229 41.1944 71.8209 41.4883C68.4959 41.4883 65.171 41.4883 61.846 41.4883C61.7273 41.8613 61.6178 42.2851 61.7208 42.6746C61.9178 42.7578 62.2692 42.6865 62.5256 42.7103C65.0744 42.7103 67.6231 42.7103 70.1719 42.7103C69.8098 42.9622 69.4762 43.2919 69.1039 43.5053C67.322 43.475 65.5424 43.596 63.7604 43.5642C63.1223 43.5642 62.4841 43.5642 61.846 43.5642C62.4277 44.2731 63.1643 44.8529 64.0162 45.1998C65.3613 45.7152 66.7956 45.9555 68.2151 46.1643C70.1107 46.3191 72.015 46.3421 73.9135 46.2261C74.8392 46.1995 75.7545 46.0299 76.6427 45.7727C76.7718 46.092 76.8767 46.4154 76.9519 46.7518Z"  />
        <path id="path11815" fill="none" stroke="#ffffff" stroke-width="0.338227" stroke-linecap="round" stroke-linejoin="round" d="M76.762 46.931C75.6272 47.2805 74.4584 47.505 73.2727 47.5785C71.9904 47.6956 70.7092 47.8356 69.4197 47.8231C67.492 47.8815 65.5671 47.702 63.6451 47.577C61.5943 47.4245 59.538 47.0725 57.6371 46.261C57.0812 46.034 56.498 45.864 56.0238 45.4801C55.3929 45.0004 54.8477 44.4108 54.4197 43.7435C53.475 43.7435 52.5303 43.7435 51.5855 43.7435C51.9531 43.4964 52.2828 43.1584 52.6535 42.9411C53.1809 42.9411 53.7083 42.9411 54.2357 42.9411C54.2425 42.5675 54.1821 42.1677 54.3755 41.8363C54.2884 41.6408 53.8464 41.8002 53.6155 41.7485C52.7597 41.7485 51.9039 41.7485 51.0481 41.7485C51.3962 41.4671 51.7384 41.1789 52.0714 40.8798C52.9302 40.8798 53.7891 40.8798 54.6479 40.8798C55.0038 40.3717 55.4175 39.9032 55.9487 39.5745C56.5769 39.0504 57.303 38.671 58.0731 38.4018C59.1302 37.9939 60.2523 37.7846 61.3468 37.5003C62.5297 37.2654 63.7351 37.1644 64.9355 37.0678C66.2192 37.0287 67.5022 36.927 68.7857 36.9132C70.3291 36.9602 71.8776 36.9761 73.414 37.1331C74.2734 37.2664 75.1493 37.3171 75.9978 37.5044C76.2648 37.5782 76.6624 37.5854 76.3935 37.9334C76.246 38.1105 76.3454 38.6282 76.0263 38.5011C74.1512 38.1453 72.2354 38.0685 70.3317 38.1539C68.6693 38.1924 66.9993 38.3539 65.3932 38.8011C64.6103 38.9986 63.8902 39.3833 63.1803 39.7573C62.7708 40.0068 62.4468 40.354 62.1607 40.7316C61.8231 41.0006 62.8217 40.9255 62.6501 40.8798C64.7372 40.8719 66.825 40.9071 68.911 40.8356C70.1342 40.8356 71.3574 40.8356 72.5806 40.8356C72.2491 41.0959 71.933 41.3736 71.631 41.6675C68.306 41.6675 64.9811 41.6675 61.6561 41.6675C61.5374 42.0405 61.4279 42.4644 61.531 42.8538C61.7279 42.9371 62.0793 42.8658 62.3358 42.8895C64.8845 42.8895 67.4333 42.8895 69.982 42.8895C69.6199 43.1414 69.2863 43.4711 68.914 43.6846C67.1321 43.6542 65.3525 43.7752 63.5705 43.7435C62.9324 43.7435 62.2943 43.7435 61.6561 43.7435C62.2378 44.4524 62.9744 45.0322 63.8263 45.379C65.1714 45.8944 66.6057 46.1347 68.0252 46.3435C69.9208 46.4983 71.8251 46.5213 73.7237 46.4054C74.6493 46.3788 75.5646 46.2091 76.4528 45.9519C76.5819 46.2712 76.6868 46.5946 76.762 46.931Z"  />
      </g>
    </g>
    <path id="path6222" fill="url(#defitem913)" d="M77.6487 113.245C77.6487 113.245 88.7971 103.968 93.9437 98.8216C99.0903 93.675 108.367 82.5266 108.367 82.5266C108.367 82.5266 96.0491 91.3357 86.4578 91.3357C86.4578 100.927 77.6487 113.245 77.6487 113.245Z"  />
  </g>
</svg>
