<?xml version="1.0" standalone="no"?>
<!DOCTYPE svg PUBLIC "-//W3C//DTD SVG 20010904//EN" "http://www.w3.org/TR/2001/REC-SVG-20010904/DTD/svg10.dtd">
<!-- Created using Karbon14, part of koffice: http://www.koffice.org/karbon -->
<svg xmlns="http://www.w3.org/2000/svg" xmlns:xlink="http://www.w3.org/1999/xlink" width="128px" height="128px">
  <defs>
    <radialGradient id="defitem491" gradientUnits="userSpaceOnUse" cx="64" cy="122.812" fx="64" fy="122.812" r="64" >
      <stop stop-color="#000000" offset="0" stop-opacity="1" />
      <stop stop-color="#000000" offset="1" stop-opacity="0" />
    </radialGradient>
    <radialGradient id="defitem492" gradientUnits="userSpaceOnUse" cx="65.1572" cy="112.344" fx="-3.20323" fy="37.0773" r="93.5318" >
      <stop stop-color="#f2f2f2" offset="0" stop-opacity="1" />
      <stop stop-color="#c3c3c3" offset="1" stop-opacity="1" />
    </radialGradient>
    <radialGradient id="defitem493" gradientUnits="userSpaceOnUse" cx="64.2541" cy="111.234" fx="-1.68221" fy="38.5474" r="90.2149" >
      <stop stop-color="#525456" offset="0" stop-opacity="1" />
      <stop stop-color="#89898c" offset="0.113661" stop-opacity="1" />
      <stop stop-color="#ebebeb" offset="0.202967" stop-opacity="1" />
      <stop stop-color="#f9f9f9" offset="0.2363" stop-opacity="1" />
      <stop stop-color="#ffffff" offset="0.2722" stop-opacity="1" />
      <stop stop-color="#f9f9f9" offset="0.5313" stop-opacity="1" />
      <stop stop-color="#ebebeb" offset="0.8449" stop-opacity="1" />
      <stop stop-color="#e1e2e2" offset="1" stop-opacity="1" />
    </radialGradient>
    <linearGradient id="defitem494" gradientUnits="userSpaceOnUse" x1="61.136" y1="106.778" x2="55.7745" y2="101.416" >
      <stop stop-color="#878985" offset="0" stop-opacity="1" />
      <stop stop-color="#8c8e89" offset="0.0072" stop-opacity="1" />
      <stop stop-color="#aaaca8" offset="0.0673" stop-opacity="1" />
      <stop stop-color="#c4c6c3" offset="0.1347" stop-opacity="1" />
      <stop stop-color="#dbdbda" offset="0.265258" stop-opacity="1" />
      <stop stop-color="#ebebeb" offset="0.376461" stop-opacity="1" />
      <stop stop-color="#f6f6f6" offset="0.487403" stop-opacity="1" />
      <stop stop-color="#fdfdfd" offset="0.632409" stop-opacity="1" />
      <stop stop-color="#ffffff" offset="1" stop-opacity="1" />
    </linearGradient>
    <radialGradient id="defitem495" gradientUnits="userSpaceOnUse" cx="152.948" cy="93.0047" fx="23.6123" fy="-49.397" r="176.96" >
      <stop stop-color="#f2f2f2" offset="0" stop-opacity="1" />
      <stop stop-color="#c3c3c3" offset="1" stop-opacity="1" />
    </radialGradient>
    <radialGradient id="defitem496" gradientUnits="userSpaceOnUse" cx="151.24" cy="90.9053" fx="26.49" fy="-46.616" r="170.684" >
      <stop stop-color="#525456" offset="0" stop-opacity="1" />
      <stop stop-color="#89898c" offset="0.113661" stop-opacity="1" />
      <stop stop-color="#ebebeb" offset="0.202967" stop-opacity="1" />
      <stop stop-color="#f9f9f9" offset="0.2363" stop-opacity="1" />
      <stop stop-color="#ffffff" offset="0.2722" stop-opacity="1" />
      <stop stop-color="#f9f9f9" offset="0.5313" stop-opacity="1" />
      <stop stop-color="#ebebeb" offset="0.8449" stop-opacity="1" />
      <stop stop-color="#e1e2e2" offset="1" stop-opacity="1" />
    </radialGradient>
    <linearGradient id="defitem497" gradientUnits="userSpaceOnUse" x1="46.5742" y1="85.8889" x2="86.1043" y2="79.6263" >
      <stop stop-color="#000000" offset="0" stop-opacity="1" />
      <stop stop-color="#000000" offset="1" stop-opacity="0" />
    </linearGradient>
    <linearGradient id="defitem498" gradientUnits="userSpaceOnUse" x1="38.6288" y1="87.1554" x2="21.0042" y2="108.158" >
      <stop stop-color="#ffdd00" offset="0" stop-opacity="1" />
      <stop stop-color="#ffeb69" offset="1" stop-opacity="1" />
    </linearGradient>
    <linearGradient id="defitem499" gradientUnits="userSpaceOnUse" x1="93.2099" y1="97.6157" x2="82.3998" y2="41.4709" >
      <stop stop-color="#000000" offset="0" stop-opacity="1" />
      <stop stop-color="#000000" offset="1" stop-opacity="0" />
    </linearGradient>
    <linearGradient id="defitem500" gradientUnits="userSpaceOnUse" x1="76.7029" y1="72.6077" x2="82.6886" y2="70.3149" >
      <stop stop-color="#313131" offset="0" stop-opacity="1" />
      <stop stop-color="#dfe1e1" offset="0.0769231" stop-opacity="1" />
      <stop stop-color="#b6b1b1" offset="0.262891" stop-opacity="1" />
      <stop stop-color="#8c8282" offset="0.5" stop-opacity="1" />
      <stop stop-color="#ffffff" offset="0.782016" stop-opacity="1" />
      <stop stop-color="#dfd8df" offset="0.90059" stop-opacity="1" />
      <stop stop-color="#3a3a3a" offset="1" stop-opacity="1" />
    </linearGradient>
    <linearGradient id="defitem501" gradientUnits="userSpaceOnUse" x1="65.401" y1="42.1988" x2="70.8719" y2="40.1032" >
      <stop stop-color="#313131" offset="0" stop-opacity="1" />
      <stop stop-color="#dfe1e1" offset="0.0769231" stop-opacity="1" />
      <stop stop-color="#b6b1b1" offset="0.262891" stop-opacity="1" />
      <stop stop-color="#8c8282" offset="0.5" stop-opacity="1" />
      <stop stop-color="#ffffff" offset="0.782016" stop-opacity="1" />
      <stop stop-color="#dfd8df" offset="0.90059" stop-opacity="1" />
      <stop stop-color="#3a3a3a" offset="1" stop-opacity="1" />
    </linearGradient>
    <linearGradient id="defitem502" gradientUnits="userSpaceOnUse" x1="117.015" y1="82.5331" x2="82.6885" y2="70.3147" >
      <stop stop-color="#000000" offset="0" stop-opacity="1" />
      <stop stop-color="#000000" offset="1" stop-opacity="0" />
    </linearGradient>
    <linearGradient id="defitem503" gradientUnits="userSpaceOnUse" x1="71.8565" y1="60.6792" x2="78.6956" y2="58.0595" >
      <stop stop-color="#313131" offset="0" stop-opacity="1" />
      <stop stop-color="#dfe1e1" offset="0.0769231" stop-opacity="1" />
      <stop stop-color="#b6b1b1" offset="0.262891" stop-opacity="1" />
      <stop stop-color="#8c8282" offset="0.5" stop-opacity="1" />
      <stop stop-color="#ffffff" offset="0.782016" stop-opacity="1" />
      <stop stop-color="#dfd8df" offset="0.90059" stop-opacity="1" />
      <stop stop-color="#3a3a3a" offset="1" stop-opacity="1" />
    </linearGradient>
    <linearGradient id="defitem504" gradientUnits="userSpaceOnUse" x1="68.1713" y1="37.0208" x2="65.5014" y2="33.6459" >
      <stop stop-color="#242424" offset="0" stop-opacity="1" />
      <stop stop-color="#242424" offset="1" stop-opacity="0" />
    </linearGradient>
    <linearGradient id="defitem505" gradientUnits="userSpaceOnUse" x1="64.0492" y1="30.7176" x2="64.5309" y2="32.0193" >
      <stop stop-color="#000000" offset="0" stop-opacity="1" />
      <stop stop-color="#000000" offset="1" stop-opacity="0" />
    </linearGradient>
    <linearGradient id="defitem506" gradientUnits="userSpaceOnUse" x1="62.371" y1="35.9154" x2="62.4276" y2="36.063" >
      <stop stop-color="#000000" offset="0" stop-opacity="1" />
      <stop stop-color="#000000" offset="1" stop-opacity="0" />
    </linearGradient>
    <linearGradient id="defitem507" gradientUnits="userSpaceOnUse" x1="51.3335" y1="81.6013" x2="72.5882" y2="62.6507" >
      <stop stop-color="#000000" offset="0" stop-opacity="1" />
      <stop stop-color="#000000" offset="1" stop-opacity="0" />
    </linearGradient>
    <linearGradient id="defitem508" gradientUnits="userSpaceOnUse" x1="76.859" y1="21.432" x2="82.7575" y2="60.0699" >
      <stop stop-color="#000000" offset="0" stop-opacity="1" />
      <stop stop-color="#000000" offset="1" stop-opacity="0" />
    </linearGradient>
    <linearGradient id="defitem509" gradientUnits="userSpaceOnUse" x1="68.9217" y1="36.4441" x2="69.7161" y2="38.5178" >
      <stop stop-color="#0000ff" offset="0" stop-opacity="1" />
      <stop stop-color="#0000ff" offset="1" stop-opacity="0" />
    </linearGradient>
    <linearGradient id="defitem510" gradientUnits="userSpaceOnUse" x1="74.6316" y1="45.4594" x2="72.6712" y2="46.5001" >
      <stop stop-color="#313131" offset="0" stop-opacity="1" />
      <stop stop-color="#dfe1e1" offset="0.0769231" stop-opacity="1" />
      <stop stop-color="#e2dbdb" offset="0.5" stop-opacity="1" />
      <stop stop-color="#ffffff" offset="0.782016" stop-opacity="1" />
      <stop stop-color="#dfd8df" offset="0.90059" stop-opacity="1" />
      <stop stop-color="#3a3a3a" offset="1" stop-opacity="1" />
    </linearGradient>
    <linearGradient id="defitem511" gradientUnits="userSpaceOnUse" x1="78.3139" y1="57.3344" x2="77.8778" y2="56.6123" >
      <stop stop-color="#000000" offset="0" stop-opacity="1" />
      <stop stop-color="#000000" offset="1" stop-opacity="0" />
    </linearGradient>
    <radialGradient id="defitem512" gradientUnits="userSpaceOnUse" cx="87.5337" cy="92.1167" fx="87.7068" fy="92.0922" r="0.238036" >
      <stop stop-color="#ffffff" offset="0" stop-opacity="1" />
      <stop stop-color="#b8aab8" offset="0.35989" stop-opacity="1" />
      <stop stop-color="#dfd8df" offset="0.71978" stop-opacity="1" />
      <stop stop-color="#3a3a3a" offset="1" stop-opacity="1" />
    </radialGradient>
    <linearGradient id="defitem513" gradientUnits="userSpaceOnUse" x1="87.535" y1="92.0388" x2="87.5784" y2="92.1536" >
      <stop stop-color="#000000" offset="0" stop-opacity="1" />
      <stop stop-color="#000000" offset="1" stop-opacity="0" />
    </linearGradient>
    <linearGradient id="defitem514" gradientUnits="userSpaceOnUse" x1="84.7338" y1="87.3613" x2="86.5552" y2="86.6635" >
      <stop stop-color="#313131" offset="0" stop-opacity="1" />
      <stop stop-color="#dfe1e1" offset="0.0769231" stop-opacity="1" />
      <stop stop-color="#b6b1b1" offset="0.262891" stop-opacity="1" />
      <stop stop-color="#8c8282" offset="0.5" stop-opacity="1" />
      <stop stop-color="#ffffff" offset="0.782016" stop-opacity="1" />
      <stop stop-color="#dfd8df" offset="0.90059" stop-opacity="1" />
      <stop stop-color="#3a3a3a" offset="1" stop-opacity="1" />
    </linearGradient>
    <linearGradient id="defitem515" gradientUnits="userSpaceOnUse" x1="86.0792" y1="91.3037" x2="87.9871" y2="90.7154" >
      <stop stop-color="#313131" offset="0" stop-opacity="1" />
      <stop stop-color="#dfe1e1" offset="0.0769231" stop-opacity="1" />
      <stop stop-color="#b6b1b1" offset="0.262891" stop-opacity="1" />
      <stop stop-color="#8c8282" offset="0.5" stop-opacity="1" />
      <stop stop-color="#ffffff" offset="0.782016" stop-opacity="1" />
      <stop stop-color="#dfd8df" offset="0.90059" stop-opacity="1" />
      <stop stop-color="#3a3a3a" offset="1" stop-opacity="1" />
    </linearGradient>
    <linearGradient id="defitem516" gradientUnits="userSpaceOnUse" x1="86.3689" y1="91.1396" x2="86.5491" y2="91.0272" >
      <stop stop-color="#000000" offset="0" stop-opacity="1" />
      <stop stop-color="#000000" offset="0.258242" stop-opacity="0.494585" />
      <stop stop-color="#000000" offset="1" stop-opacity="0" />
    </linearGradient>
    <linearGradient id="defitem517" gradientUnits="userSpaceOnUse" x1="85.9459" y1="91.5328" x2="86.6595" y2="90.857" >
      <stop stop-color="#000000" offset="0" stop-opacity="1" />
      <stop stop-color="#000000" offset="0.258242" stop-opacity="0.494585" />
      <stop stop-color="#000000" offset="1" stop-opacity="0" />
    </linearGradient>
    <linearGradient id="defitem518" gradientUnits="userSpaceOnUse" x1="81.1094" y1="85.8353" x2="87.4121" y2="84.1251" >
      <stop stop-color="#313131" offset="0" stop-opacity="1" />
      <stop stop-color="#dfe1e1" offset="0.0769231" stop-opacity="1" />
      <stop stop-color="#b6b1b1" offset="0.262891" stop-opacity="1" />
      <stop stop-color="#8c8282" offset="0.5" stop-opacity="1" />
      <stop stop-color="#ffffff" offset="0.782016" stop-opacity="1" />
      <stop stop-color="#dfd8df" offset="0.90059" stop-opacity="1" />
      <stop stop-color="#3a3a3a" offset="1" stop-opacity="1" />
    </linearGradient>
    <linearGradient id="defitem519" gradientUnits="userSpaceOnUse" x1="94.1332" y1="110.885" x2="82.5815" y2="80.728" >
      <stop stop-color="#000000" offset="0" stop-opacity="1" />
      <stop stop-color="#000000" offset="0.258242" stop-opacity="0.494585" />
      <stop stop-color="#000000" offset="1" stop-opacity="0" />
    </linearGradient>
    <linearGradient id="defitem520" gradientUnits="userSpaceOnUse" x1="82.3169" y1="85.5869" x2="82.9362" y2="85.2006" >
      <stop stop-color="#000000" offset="0" stop-opacity="1" />
      <stop stop-color="#000000" offset="0.258242" stop-opacity="0.494585" />
      <stop stop-color="#000000" offset="1" stop-opacity="0" />
    </linearGradient>
    <linearGradient id="defitem521" gradientUnits="userSpaceOnUse" x1="82.2081" y1="80.9182" x2="82.7584" y2="82.355" >
      <stop stop-color="#000000" offset="0" stop-opacity="1" />
      <stop stop-color="#000000" offset="0.258242" stop-opacity="0.494585" />
      <stop stop-color="#000000" offset="1" stop-opacity="0" />
    </linearGradient>
    <linearGradient id="defitem522" gradientUnits="userSpaceOnUse" x1="78.0886" y1="85.3498" x2="85.2335" y2="84.3398" >
      <stop stop-color="#000000" offset="0" stop-opacity="1" />
      <stop stop-color="#000000" offset="0.258242" stop-opacity="0.494585" />
      <stop stop-color="#000000" offset="1" stop-opacity="0" />
    </linearGradient>
    <linearGradient id="defitem523" gradientUnits="userSpaceOnUse" x1="85.6721" y1="75.3918" x2="81.6699" y2="78.0784" >
      <stop stop-color="#f9f9f9" offset="0" stop-opacity="1" />
      <stop stop-color="#f9f9f9" offset="1" stop-opacity="0" />
    </linearGradient>
  </defs>
  <g id="Layer">
    <g id="layer1">
      <path id="path3945" fill="#000000" d=""  />
    </g>
    <path id="path3081" fill="#000000" d=""  />
    <g id="layer2">
    </g>
    <g id="layer3">
    </g>
    <g id="layer4">
    </g>
    <g id="g8876">
      <path id="path8878" fill="#000000" d=""  />
    </g>
    <path id="path8880" fill="#000000" d=""  />
    <g id="g8882">
    </g>
    <g id="g8884">
    </g>
    <g id="g8886">
    </g>
    <g id="g6011">
      <path id="path6013" fill="#000000" d=""  />
    </g>
    <path id="path6015" fill="#000000" d=""  />
    <g id="g6017">
    </g>
    <g id="g6019">
    </g>
    <g id="g6021">
    </g>
    <path id="path6025" fill="#000000" d=""  />
    <path id="path6028" fill="url(#defitem491)" stroke-width="0" stroke-linecap="round" stroke-linejoin="round" d="M-2.53765e-05 122.812C-2.53765e-05 125.677 28.6538 128 64 128C99.3462 128 128 125.677 128 122.812C128 119.947 99.3462 117.624 64 117.624C28.6538 117.624 -2.53765e-05 119.947 -2.53765e-05 122.812L-2.53765e-05 122.812Z"  />
    <g id="g5437">
      <path id="path6210" fill="none" stroke="#000000" stroke-width="7.14879" stroke-linejoin="round" d="M7.51997 42.4388L7.51997 116.161C7.51997 116.901 8.12047 117.501 8.86037 117.501L48.5174 117.501C48.8726 117.501 49.2137 117.36 49.4651 117.108L71.4664 95.1071C71.7177 94.8558 71.8591 94.5147 71.8591 94.1595L71.8591 42.4388L7.51997 42.4388Z"  />
      <path id="path6212" fill="none" stroke="#000000" stroke-width="5.36159" stroke-linejoin="round" d="M7.51997 42.4388L7.51997 116.161C7.51997 116.901 8.12047 117.501 8.86037 117.501L48.5174 117.501C48.8726 117.501 49.2137 117.36 49.4651 117.108L71.4664 95.1071C71.7177 94.8558 71.8591 94.5147 71.8591 94.1595L71.8591 42.4388L7.51997 42.4388Z"  />
      <path id="path6214" fill="none" stroke="#000000" stroke-width="3.5744" stroke-linejoin="round" d="M7.51997 42.4388L7.51997 116.161C7.51997 116.901 8.12047 117.501 8.86037 117.501L48.5174 117.501C48.8726 117.501 49.2137 117.36 49.4651 117.108L71.4664 95.1071C71.7177 94.8558 71.8591 94.5147 71.8591 94.1595L71.8591 42.4388L7.51997 42.4388Z"  />
      <path id="path6216" fill="none" stroke="#000000" stroke-width="1.7872" stroke-linejoin="round" d="M7.51997 42.4388L7.51997 116.161C7.51997 116.901 8.12047 117.501 8.86037 117.501L48.5174 117.501C48.8726 117.501 49.2137 117.36 49.4651 117.108L71.4664 95.1071C71.7177 94.8558 71.8591 94.5147 71.8591 94.1595L71.8591 42.4388L7.51997 42.4388Z"  />
      <path id="path6218" fill="url(#defitem492)" stroke-width="0.716224" d="M7.51997 42.4388L7.51997 116.161C7.51997 116.901 8.12047 117.501 8.86037 117.501L48.5174 117.501C48.8726 117.501 49.2137 117.36 49.4651 117.108L71.4664 95.1071C71.7177 94.8558 71.8591 94.5147 71.8591 94.1595L71.8591 42.4388L7.51997 42.4388Z"  />
      <path id="path6220" fill="url(#defitem493)" stroke-width="0.716224" d="M9.9536 44.3724C9.59742 44.3724 9.30717 44.663 9.30717 45.0197L9.30717 114.92C9.30717 115.278 9.59742 115.568 9.9536 115.568L48.2044 115.568C48.3744 115.568 48.5411 115.499 48.6614 115.378L69.8825 94.1307C70.0034 94.0097 70.0719 93.8433 70.0719 93.6731L70.0719 45.0197C70.0719 44.663 69.7823 44.3724 69.4255 44.3724L9.9536 44.3724Z"  />
      <path id="path6222" fill="url(#defitem494)" stroke-width="0.716224" d="M49.4651 117.108C49.4651 117.108 57.4499 110.464 61.136 106.778C64.8221 103.092 71.4664 95.1071 71.4664 95.1071C71.4664 95.1071 62.6439 101.416 55.7744 101.416C55.7744 108.286 49.4651 117.108 49.4651 117.108Z"  />
      <path fill="#800000" stroke-width="1.93381" stroke-linecap="round" stroke-linejoin="round" d="M10.1217 115.573C9.65156 115.573 9.26996 115.192 9.26996 114.723L9.26996 45.2226C9.26996 44.753 9.65156 44.3718 10.1217 44.3718L16.3763 44.3718C16.8464 44.3718 17.228 44.753 17.228 45.2226L17.228 114.723C17.228 115.192 16.8464 115.573 16.3763 115.573L10.1217 115.573Z"  />
      <path id="text3688" fill="#800000" stroke-width="0.716224" d="M18.4735 49.7509L19.0024 49.7509L19.0024 53.18L20.9056 53.18L20.9056 53.6206L18.4735 53.6206L18.4735 49.7509M22.479 51.0521C22.2207 51.0521 22.0165 51.1523 21.8664 51.3527C21.7163 51.5514 21.6413 51.8245 21.6413 52.1718C21.6413 52.5191 21.7155 52.793 21.8638 52.9934C22.0139 53.1921 22.219 53.2915 22.479 53.2915C22.7356 53.2915 22.9389 53.1912 23.089 52.9908C23.2391 52.7904 23.3142 52.5174 23.3142 52.1718C23.3142 51.8279 23.2391 51.5558 23.089 51.3553C22.9389 51.1531 22.7356 51.0521 22.479 51.0521M22.479 50.6477C22.8979 50.6477 23.2269 50.7825 23.466 51.0521C23.7051 51.3216 23.8247 51.6949 23.8247 52.1718C23.8247 52.6469 23.7051 53.0202 23.466 53.2915C23.2269 53.561 22.8979 53.6958 22.479 53.6958C22.0584 53.6958 21.7285 53.561 21.4894 53.2915C21.2521 53.0202 21.1334 52.6469 21.1334 52.1718C21.1334 51.6949 21.2521 51.3216 21.4894 51.0521C21.7285 50.7825 22.0584 50.6477 22.479 50.6477M26.3196 51.1635C26.2655 51.1324 26.2061 51.11 26.1416 51.0961C26.0787 51.0806 26.0089 51.0728 25.9321 51.0728C25.6599 51.0728 25.4504 51.1609 25.3038 51.3372C25.1589 51.5117 25.0865 51.7631 25.0865 52.0914L25.0865 53.6206L24.6022 53.6206L24.6022 50.7177L25.0865 50.7177L25.0865 51.1687C25.1877 50.9925 25.3195 50.862 25.4818 50.7773C25.6441 50.6909 25.8414 50.6477 26.0735 50.6477C26.1067 50.6477 26.1433 50.6503 26.1834 50.6555C26.2236 50.659 26.2681 50.665 26.317 50.6736L26.3196 51.1635M29.3381 52.0499L29.3381 52.2832L27.1233 52.2832C27.1442 52.6115 27.2437 52.8621 27.4217 53.0349C27.6015 53.2059 27.8511 53.2915 28.1705 53.2915C28.3555 53.2915 28.5344 53.269 28.7072 53.2241C28.8817 53.1792 29.0545 53.1118 29.2255 53.0219L29.2255 53.4729C29.0527 53.5455 28.8756 53.6008 28.6941 53.6388C28.5126 53.6768 28.3284 53.6958 28.1417 53.6958C27.6739 53.6958 27.3031 53.561 27.029 53.2915C26.7568 53.0219 26.6206 52.6573 26.6206 52.1977C26.6206 51.7225 26.7498 51.3458 27.0081 51.0676C27.2682 50.7877 27.6181 50.6477 28.0579 50.6477C28.4523 50.6477 28.7639 50.7739 28.9925 51.0261C29.2229 51.2767 29.3381 51.618 29.3381 52.0499M28.8564 51.91C28.8529 51.6491 28.7787 51.4409 28.6339 51.2853C28.4907 51.1298 28.3005 51.0521 28.0631 51.0521C27.7944 51.0521 27.5788 51.1272 27.4165 51.2776C27.2559 51.4279 27.1634 51.6396 27.139 51.9126L28.8564 51.91M32.4116 51.275C32.532 51.0607 32.676 50.9026 32.8436 50.8006C33.0111 50.6987 33.2083 50.6477 33.4352 50.6477C33.7406 50.6477 33.9763 50.754 34.1421 50.9665C34.3079 51.1773 34.3908 51.478 34.3908 51.8685L34.3908 53.6206L33.9064 53.6206L33.9064 51.8841C33.9064 51.6059 33.8567 51.3994 33.7572 51.2646C33.6577 51.1298 33.5059 51.0624 33.3017 51.0624C33.0521 51.0624 32.8549 51.1445 32.71 51.3087C32.5652 51.4728 32.4927 51.6966 32.4927 51.98L32.4927 53.6206L32.0084 53.6206L32.0084 51.8841C32.0084 51.6041 31.9587 51.3977 31.8592 51.2646C31.7597 51.1298 31.6061 51.0624 31.3984 51.0624C31.1523 51.0624 30.9569 51.1454 30.812 51.3113C30.6671 51.4754 30.5947 51.6983 30.5947 51.98L30.5947 53.6206L30.1104 53.6206L30.1104 50.7177L30.5947 50.7177L30.5947 51.1687C30.7047 50.9907 30.8364 50.8594 30.99 50.7747C31.1436 50.6901 31.326 50.6477 31.5372 50.6477C31.7501 50.6477 31.9308 50.7013 32.0791 50.8084C32.2292 50.9156 32.34 51.0711 32.4116 51.275M37.0611 50.7177L37.5428 50.7177L37.5428 53.6206L37.0611 53.6206L37.0611 50.7177M37.0611 49.5876L37.5428 49.5876L37.5428 50.1916L37.0611 50.1916L37.0611 49.5876M39.0141 53.1852L39.0141 54.7248L38.5298 54.7248L38.5298 50.7177L39.0141 50.7177L39.0141 51.1583C39.1153 50.9855 39.2427 50.8577 39.3963 50.7747C39.5517 50.6901 39.7367 50.6477 39.9513 50.6477C40.3074 50.6477 40.5962 50.7877 40.8179 51.0676C41.0413 51.3475 41.153 51.7156 41.153 52.1718C41.153 52.6279 41.0413 52.996 40.8179 53.2759C40.5962 53.5558 40.3074 53.6958 39.9513 53.6958C39.7367 53.6958 39.5517 53.6543 39.3963 53.5714C39.2427 53.4867 39.1153 53.358 39.0141 53.1852M40.6529 52.1718C40.6529 51.821 40.5796 51.5463 40.433 51.3475C40.2882 51.1471 40.0883 51.0469 39.8335 51.0469C39.5787 51.0469 39.378 51.1471 39.2314 51.3475C39.0865 51.5463 39.0141 51.821 39.0141 52.1718C39.0141 52.5225 39.0865 52.7981 39.2314 52.9986C39.378 53.1973 39.5787 53.2967 39.8335 53.2967C40.0883 53.2967 40.2882 53.1973 40.433 52.9986C40.5796 52.7981 40.6529 52.5225 40.6529 52.1718M43.8207 50.8032L43.8207 51.2542C43.6845 51.1851 43.5432 51.1333 43.3966 51.0987C43.25 51.0642 43.0981 51.0469 42.941 51.0469C42.7019 51.0469 42.5222 51.0832 42.4017 51.1557C42.2831 51.2283 42.2237 51.3372 42.2237 51.4823C42.2237 51.5929 42.2665 51.6802 42.352 51.7441C42.4375 51.8063 42.6094 51.8659 42.8677 51.9229L43.0327 51.9592C43.3748 52.0318 43.6174 52.1346 43.7605 52.2677C43.9053 52.399 43.9778 52.583 43.9778 52.8197C43.9778 53.0893 43.8696 53.3027 43.6531 53.4599C43.4385 53.6172 43.1426 53.6958 42.7656 53.6958C42.6086 53.6958 42.4445 53.6803 42.2735 53.6492C42.1042 53.6198 41.9253 53.5748 41.7368 53.5144L41.7368 53.0219C41.9148 53.1135 42.0902 53.1826 42.263 53.2293C42.4358 53.2742 42.6068 53.2967 42.7761 53.2967C43.003 53.2967 43.1775 53.2586 43.2997 53.1826C43.4219 53.1049 43.483 52.996 43.483 52.856C43.483 52.7264 43.4385 52.6271 43.3495 52.558C43.2622 52.4888 43.0693 52.4223 42.7709 52.3584L42.6033 52.3195C42.3049 52.2573 42.0893 52.1623 41.9567 52.0344C41.824 51.9048 41.7577 51.7277 41.7577 51.5031C41.7577 51.23 41.8555 51.0192 42.0509 50.8706C42.2464 50.722 42.5239 50.6477 42.8835 50.6477C43.0615 50.6477 43.229 50.6607 43.3861 50.6866C43.5432 50.7125 43.688 50.7514 43.8207 50.8032M44.6977 52.475L44.6977 50.7177L45.1794 50.7177L45.1794 52.4569C45.1794 52.7316 45.2335 52.9381 45.3417 53.0763C45.4499 53.2128 45.6122 53.2811 45.8287 53.2811C46.0887 53.2811 46.2938 53.199 46.4439 53.0349C46.5957 52.8707 46.6716 52.6469 46.6716 52.3636L46.6716 50.7177L47.1534 50.7177L47.1534 53.6206L46.6716 53.6206L46.6716 53.1748C46.5547 53.3511 46.4186 53.4824 46.2632 53.5688C46.1097 53.6535 45.9308 53.6958 45.7266 53.6958C45.3897 53.6958 45.134 53.5921 44.9595 53.3848C44.785 53.1774 44.6977 52.8742 44.6977 52.475M50.4337 51.275C50.5541 51.0607 50.6981 50.9026 50.8656 50.8006C51.0332 50.6987 51.2304 50.6477 51.4573 50.6477C51.7627 50.6477 51.9983 50.754 52.1641 50.9665C52.3299 51.1773 52.4128 51.478 52.4128 51.8685L52.4128 53.6206L51.9285 53.6206L51.9285 51.8841C51.9285 51.6059 51.8788 51.3994 51.7793 51.2646C51.6798 51.1298 51.528 51.0624 51.3238 51.0624C51.0742 51.0624 50.877 51.1445 50.7321 51.3087C50.5873 51.4728 50.5148 51.6966 50.5148 51.98L50.5148 53.6206L50.0305 53.6206L50.0305 51.8841C50.0305 51.6041 49.9808 51.3977 49.8813 51.2646C49.7818 51.1298 49.6282 51.0624 49.4205 51.0624C49.1744 51.0624 48.9789 51.1454 48.8341 51.3113C48.6892 51.4754 48.6168 51.6983 48.6168 51.98L48.6168 53.6206L48.1325 53.6206L48.1325 50.7177L48.6168 50.7177L48.6168 51.1687C48.7268 50.9907 48.8585 50.8594 49.0121 50.7747C49.1657 50.6901 49.3481 50.6477 49.5593 50.6477C49.7722 50.6477 49.9528 50.7013 50.1012 50.8084C50.2513 50.9156 50.3621 51.0711 50.4337 51.275M57.0126 51.1583L57.0126 49.5876L57.4943 49.5876L57.4943 53.6206L57.0126 53.6206L57.0126 53.1852C56.9114 53.358 56.7831 53.4867 56.6278 53.5714C56.4742 53.6543 56.2892 53.6958 56.0728 53.6958C55.7185 53.6958 55.4296 53.5558 55.2062 53.2759C54.9846 52.996 54.8737 52.6279 54.8737 52.1718C54.8737 51.7156 54.9846 51.3475 55.2062 51.0676C55.4296 50.7877 55.7185 50.6477 56.0728 50.6477C56.2892 50.6477 56.4742 50.6901 56.6278 50.7747C56.7831 50.8577 56.9114 50.9855 57.0126 51.1583M55.3712 52.1718C55.3712 52.5225 55.4436 52.7981 55.5884 52.9986C55.735 53.1973 55.9358 53.2967 56.1906 53.2967C56.4454 53.2967 56.6461 53.1973 56.7927 52.9986C56.9393 52.7981 57.0126 52.5225 57.0126 52.1718C57.0126 51.821 56.9393 51.5463 56.7927 51.3475C56.6461 51.1471 56.4454 51.0469 56.1906 51.0469C55.9358 51.0469 55.735 51.1471 55.5884 51.3475C55.4436 51.5463 55.3712 51.821 55.3712 52.1718M59.6227 51.0521C59.3644 51.0521 59.1602 51.1523 59.0101 51.3527C58.86 51.5514 58.785 51.8245 58.785 52.1718C58.785 52.5191 58.8592 52.793 59.0075 52.9934C59.1576 53.1921 59.3627 53.2915 59.6227 53.2915C59.8793 53.2915 60.0826 53.1912 60.2327 52.9908C60.3828 52.7904 60.4579 52.5174 60.4579 52.1718C60.4579 51.8279 60.3828 51.5558 60.2327 51.3553C60.0826 51.1531 59.8793 51.0521 59.6227 51.0521M59.6227 50.6477C60.0416 50.6477 60.3706 50.7825 60.6097 51.0521C60.8488 51.3216 60.9684 51.6949 60.9684 52.1718C60.9684 52.6469 60.8488 53.0202 60.6097 53.2915C60.3706 53.561 60.0416 53.6958 59.6227 53.6958C59.2021 53.6958 58.8722 53.561 58.6331 53.2915C58.3958 53.0202 58.2771 52.6469 58.2771 52.1718C58.2771 51.6949 58.3958 51.3216 58.6331 51.0521C58.8722 50.7825 59.2021 50.6477 59.6227 50.6477M61.7642 49.5876L62.2459 49.5876L62.2459 53.6206L61.7642 53.6206L61.7642 49.5876M64.3874 51.0521C64.1291 51.0521 63.9249 51.1523 63.7748 51.3527C63.6247 51.5514 63.5497 51.8245 63.5497 52.1718C63.5497 52.5191 63.6238 52.793 63.7722 52.9934C63.9223 53.1921 64.1274 53.2915 64.3874 53.2915C64.644 53.2915 64.8473 53.1912 64.9974 52.9908C65.1475 52.7904 65.2226 52.5174 65.2226 52.1718C65.2226 51.8279 65.1475 51.5558 64.9974 51.3553C64.8473 51.1531 64.644 51.0521 64.3874 51.0521M64.3874 50.6477C64.8063 50.6477 65.1353 50.7825 65.3744 51.0521C65.6135 51.3216 65.7331 51.6949 65.7331 52.1718C65.7331 52.6469 65.6135 53.0202 65.3744 53.2915C65.1353 53.561 64.8063 53.6958 64.3874 53.6958C63.9668 53.6958 63.6369 53.561 63.3978 53.2915C63.1605 53.0202 63.0418 52.6469 63.0418 52.1718C63.0418 51.6949 63.1605 51.3216 63.3978 51.0521C63.6369 50.7825 63.9668 50.6477 64.3874 50.6477M68.228 51.1635C68.1739 51.1324 68.1145 51.11 68.05 51.0961C67.9871 51.0806 67.9173 51.0728 67.8405 51.0728C67.5683 51.0728 67.3588 51.1609 67.2122 51.3372C67.0673 51.5117 66.9949 51.7631 66.9949 52.0914L66.9949 53.6206L66.5106 53.6206L66.5106 50.7177L66.9949 50.7177L66.9949 51.1687C67.0961 50.9925 67.2279 50.862 67.3902 50.7773C67.5525 50.6909 67.7498 50.6477 67.9819 50.6477C68.015 50.6477 68.0517 50.6503 68.0918 50.6555C68.132 50.659 68.1765 50.665 68.2254 50.6736L68.228 51.1635M20.3218 64.0738L20.3218 64.5248C20.1857 64.4557 20.0443 64.4038 19.8977 64.3693C19.7511 64.3347 19.5993 64.3174 19.4422 64.3174C19.2031 64.3174 19.0233 64.3537 18.9029 64.4263C18.7842 64.4989 18.7249 64.6077 18.7249 64.7529C18.7249 64.8635 18.7676 64.9507 18.8531 65.0146C18.9387 65.0769 19.1106 65.1365 19.3689 65.1935L19.5338 65.2298C19.8759 65.3023 20.1185 65.4052 20.2616 65.5382C20.4065 65.6695 20.4789 65.8536 20.4789 66.0903C20.4789 66.3598 20.3707 66.5732 20.1543 66.7305C19.9396 66.8877 19.6438 66.9663 19.2668 66.9663C19.1097 66.9663 18.9456 66.9508 18.7746 66.9197C18.6053 66.8903 18.4264 66.8454 18.2379 66.7849L18.2379 66.2925C18.4159 66.384 18.5913 66.4532 18.7641 66.4998C18.9369 66.5447 19.108 66.5672 19.2773 66.5672C19.5041 66.5672 19.6787 66.5292 19.8008 66.4532C19.923 66.3754 19.9841 66.2665 19.9841 66.1266C19.9841 65.997 19.9396 65.8976 19.8506 65.8285C19.7633 65.7594 19.5705 65.6929 19.272 65.6289L19.1045 65.59C18.806 65.5278 18.5905 65.4328 18.4578 65.3049C18.3252 65.1753 18.2589 64.9982 18.2589 64.7736C18.2589 64.5006 18.3566 64.2898 18.5521 64.1412C18.7475 63.9926 19.0251 63.9183 19.3846 63.9183C19.5626 63.9183 19.7302 63.9312 19.8872 63.9571C20.0443 63.9831 20.1892 64.0219 20.3218 64.0738M21.2486 63.9883L21.7303 63.9883L21.7303 66.8912L21.2486 66.8912L21.2486 63.9883M21.2486 62.8582L21.7303 62.8582L21.7303 63.4621L21.2486 63.4621L21.2486 62.8582M23.2121 63.164L23.2121 63.9883L24.2043 63.9883L24.2043 64.3589L23.2121 64.3589L23.2121 65.9348C23.2121 66.1715 23.2443 66.3236 23.3089 66.3909C23.3752 66.4583 23.5088 66.492 23.7095 66.492L24.2043 66.492L24.2043 66.8912L23.7095 66.8912C23.3377 66.8912 23.0812 66.8229 22.9398 66.6864C22.7984 66.5482 22.7277 66.2976 22.7277 65.9348L22.7277 64.3589L22.3743 64.3589L22.3743 63.9883L22.7277 63.9883L22.7277 63.164L23.2121 63.164M27.8799 65.4319C27.4907 65.4319 27.221 65.476 27.0709 65.5641C26.9208 65.6523 26.8458 65.8026 26.8458 66.0151C26.8458 66.1845 26.9016 66.3192 27.0133 66.4195C27.1268 66.5179 27.2804 66.5672 27.4741 66.5672C27.7411 66.5672 27.9549 66.4739 28.1155 66.2873C28.2778 66.0989 28.359 65.8492 28.359 65.5382L28.359 65.4319L27.8799 65.4319M28.8407 65.235L28.8407 66.8912L28.359 66.8912L28.359 66.4506C28.249 66.6268 28.112 66.7573 27.948 66.8419C27.7839 66.9249 27.5832 66.9663 27.3458 66.9663C27.0456 66.9663 26.8065 66.8834 26.6285 66.7175C26.4522 66.5499 26.3641 66.3261 26.3641 66.0462C26.3641 65.7196 26.474 65.4734 26.694 65.3075C26.9156 65.1416 27.2455 65.0587 27.6835 65.0587L28.359 65.0587L28.359 65.0121C28.359 64.7926 28.2857 64.6233 28.1391 64.504C27.9942 64.3831 27.79 64.3226 27.5265 64.3226C27.3589 64.3226 27.1957 64.3425 27.0369 64.3822C26.8781 64.422 26.7254 64.4816 26.5788 64.5611L26.5788 64.1204C26.755 64.0531 26.9261 64.0029 27.0919 63.9701C27.2577 63.9356 27.4191 63.9183 27.5762 63.9183C28.0003 63.9183 28.3171 64.0271 28.5265 64.2448C28.736 64.4626 28.8407 64.7926 28.8407 65.235M32.1184 64.5455C32.2388 64.3312 32.3828 64.1731 32.5503 64.0712C32.7179 63.9692 32.9151 63.9183 33.142 63.9183C33.4474 63.9183 33.683 64.0245 33.8489 64.2371C34.0147 64.4479 34.0976 64.7485 34.0976 65.1391L34.0976 66.8912L33.6132 66.8912L33.6132 65.1546C33.6132 64.8764 33.5635 64.6699 33.464 64.5351C33.3645 64.4004 33.2127 64.333 33.0085 64.333C32.7589 64.333 32.5617 64.4151 32.4168 64.5792C32.272 64.7434 32.1995 64.9671 32.1995 65.2505L32.1995 66.8912L31.7152 66.8912L31.7152 65.1546C31.7152 64.8747 31.6655 64.6682 31.566 64.5351C31.4665 64.4004 31.3129 64.333 31.1052 64.333C30.8591 64.333 30.6637 64.4159 30.5188 64.5818C30.3739 64.746 30.3015 64.9689 30.3015 65.2505L30.3015 66.8912L29.8172 66.8912L29.8172 63.9883L30.3015 63.9883L30.3015 64.4392C30.4115 64.2613 30.5432 64.1299 30.6968 64.0453C30.8504 63.9606 31.0328 63.9183 31.244 63.9183C31.4569 63.9183 31.6375 63.9718 31.7859 64.079C31.936 64.1861 32.0468 64.3416 32.1184 64.5455M37.569 65.3205L37.569 65.5538L35.3542 65.5538C35.3751 65.8821 35.4746 66.1326 35.6526 66.3054C35.8324 66.4765 36.082 66.562 36.4014 66.562C36.5864 66.562 36.7653 66.5395 36.9381 66.4946C37.1126 66.4497 37.2854 66.3823 37.4564 66.2925L37.4564 66.7434C37.2836 66.816 37.1065 66.8713 36.925 66.9093C36.7434 66.9473 36.5593 66.9663 36.3726 66.9663C35.9048 66.9663 35.5339 66.8316 35.2599 66.562C34.9877 66.2925 34.8515 65.9279 34.8515 65.4682C34.8515 64.993 34.9807 64.6164 35.239 64.3382C35.499 64.0582 35.849 63.9183 36.2888 63.9183C36.6832 63.9183 36.9948 64.0444 37.2234 64.2967C37.4538 64.5472 37.569 64.8885 37.569 65.3205M37.0873 65.1805C37.0838 64.9196 37.0096 64.7114 36.8647 64.5559C36.7216 64.4004 36.5314 64.3226 36.294 64.3226C36.0253 64.3226 35.8097 64.3978 35.6474 64.5481C35.4868 64.6984 35.3943 64.9101 35.3699 65.1831L37.0873 65.1805M38.8361 63.164L38.8361 63.9883L39.8283 63.9883L39.8283 64.3589L38.8361 64.3589L38.8361 65.9348C38.8361 66.1715 38.8684 66.3236 38.9329 66.3909C38.9993 66.4583 39.1328 66.492 39.3335 66.492L39.8283 66.492L39.8283 66.8912L39.3335 66.8912C38.9617 66.8912 38.7052 66.8229 38.5638 66.6864C38.4224 66.5482 38.3518 66.2976 38.3518 65.9348L38.3518 64.3589L37.9983 64.3589L37.9983 63.9883L38.3518 63.9883L38.3518 63.164L38.8361 63.164M44.2814 64.0997L44.2814 64.5455C44.1453 64.4712 44.0083 64.4159 43.8704 64.3796C43.7343 64.3416 43.5964 64.3226 43.4568 64.3226C43.1444 64.3226 42.9018 64.4211 42.729 64.6181C42.5562 64.8133 42.4698 65.0881 42.4698 65.4423C42.4698 65.7965 42.5562 66.0721 42.729 66.2691C42.9018 66.4644 43.1444 66.562 43.4568 66.562C43.5964 66.562 43.7343 66.5439 43.8704 66.5076C44.0083 66.4696 44.1453 66.4134 44.2814 66.3391L44.2814 66.7797C44.1471 66.8419 44.0074 66.8886 43.8626 66.9197C43.7195 66.9508 43.5667 66.9663 43.4044 66.9663C42.9629 66.9663 42.6121 66.829 42.352 66.5542C42.092 66.2795 41.9619 65.9089 41.9619 65.4423C41.9619 64.9689 42.0928 64.5965 42.3546 64.3252C42.6182 64.0539 42.9786 63.9183 43.4358 63.9183C43.5842 63.9183 43.7291 63.9338 43.8704 63.9649C44.0118 63.9943 44.1488 64.0392 44.2814 64.0997M46.2606 64.3226C46.0023 64.3226 45.7981 64.4228 45.648 64.6233C45.4979 64.822 45.4229 65.095 45.4229 65.4423C45.4229 65.7896 45.4971 66.0635 45.6454 66.2639C45.7955 66.4627 46.0006 66.562 46.2606 66.562C46.5172 66.562 46.7205 66.4618 46.8706 66.2613C47.0207 66.0609 47.0958 65.7879 47.0958 65.4423C47.0958 65.0985 47.0207 64.8263 46.8706 64.6259C46.7205 64.4237 46.5172 64.3226 46.2606 64.3226M46.2606 63.9183C46.6795 63.9183 47.0085 64.0531 47.2476 64.3226C47.4867 64.5922 47.6063 64.9654 47.6063 65.4423C47.6063 65.9175 47.4867 66.2907 47.2476 66.562C47.0085 66.8316 46.6795 66.9663 46.2606 66.9663C45.84 66.9663 45.5101 66.8316 45.271 66.562C45.0337 66.2907 44.915 65.9175 44.915 65.4423C44.915 64.9654 45.0337 64.5922 45.271 64.3226C45.5101 64.0531 45.84 63.9183 46.2606 63.9183M50.8395 65.1391L50.8395 66.8912L50.3577 66.8912L50.3577 65.1546C50.3577 64.8799 50.3036 64.6742 50.1954 64.5377C50.0872 64.4012 49.9249 64.333 49.7085 64.333C49.4484 64.333 49.2434 64.4151 49.0933 64.5792C48.9432 64.7434 48.8681 64.9671 48.8681 65.2505L48.8681 66.8912L48.3838 66.8912L48.3838 63.9883L48.8681 63.9883L48.8681 64.4392C48.9833 64.2647 49.1186 64.1343 49.2739 64.0479C49.431 63.9615 49.6116 63.9183 49.8158 63.9183C50.1527 63.9183 50.4075 64.0219 50.5803 64.2293C50.7531 64.4349 50.8394 64.7382 50.8395 65.1391M53.6747 64.0738L53.6747 64.5248C53.5386 64.4557 53.3972 64.4038 53.2506 64.3693C53.104 64.3347 52.9521 64.3174 52.7951 64.3174C52.556 64.3174 52.3762 64.3537 52.2558 64.4263C52.1371 64.4989 52.0777 64.6077 52.0777 64.7529C52.0777 64.8635 52.1205 64.9507 52.206 65.0146C52.2915 65.0769 52.4635 65.1365 52.7218 65.1935L52.8867 65.2298C53.2288 65.3023 53.4714 65.4052 53.6145 65.5382C53.7594 65.6695 53.8318 65.8536 53.8318 66.0903C53.8318 66.3598 53.7236 66.5732 53.5072 66.7305C53.2925 66.8877 52.9967 66.9663 52.6197 66.9663C52.4626 66.9663 52.2985 66.9508 52.1275 66.9197C51.9582 66.8903 51.7793 66.8454 51.5908 66.7849L51.5908 66.2925C51.7688 66.384 51.9442 66.4532 52.117 66.4998C52.2898 66.5447 52.4608 66.5672 52.6301 66.5672C52.857 66.5672 53.0316 66.5292 53.1537 66.4532C53.2759 66.3754 53.337 66.2665 53.337 66.1266C53.337 65.997 53.2925 65.8976 53.2035 65.8285C53.1162 65.7594 52.9233 65.6929 52.6249 65.6289L52.4574 65.59C52.1589 65.5278 51.9434 65.4328 51.8107 65.3049C51.6781 65.1753 51.6117 64.9982 51.6117 64.7736C51.6117 64.5006 51.7095 64.2898 51.905 64.1412C52.1004 63.9926 52.3779 63.9183 52.7375 63.9183C52.9155 63.9183 53.083 63.9312 53.2401 63.9571C53.3972 63.9831 53.5421 64.0219 53.6747 64.0738M57.1095 65.3205L57.1095 65.5538L54.8947 65.5538C54.9156 65.8821 55.0151 66.1326 55.1931 66.3054C55.3729 66.4765 55.6225 66.562 55.9419 66.562C56.1269 66.562 56.3058 66.5395 56.4785 66.4946C56.6531 66.4497 56.8259 66.3823 56.9969 66.2925L56.9969 66.7434C56.8241 66.816 56.647 66.8713 56.4655 66.9093C56.2839 66.9473 56.0998 66.9663 55.9131 66.9663C55.4453 66.9663 55.0744 66.8316 54.8004 66.562C54.5282 66.2925 54.392 65.9279 54.392 65.4682C54.392 64.993 54.5212 64.6164 54.7795 64.3382C55.0395 64.0582 55.3895 63.9183 55.8293 63.9183C56.2237 63.9183 56.5353 64.0444 56.7639 64.2967C56.9943 64.5472 57.1095 64.8885 57.1095 65.3205M56.6278 65.1805C56.6243 64.9196 56.5501 64.7114 56.4052 64.5559C56.2621 64.4004 56.0719 64.3226 55.8345 64.3226C55.5657 64.3226 55.3502 64.3978 55.1879 64.5481C55.0273 64.6984 54.9348 64.9101 54.9104 65.1831L56.6278 65.1805M60.0102 64.0997L60.0102 64.5455C59.8741 64.4712 59.737 64.4159 59.5992 64.3796C59.463 64.3416 59.3251 64.3226 59.1855 64.3226C58.8731 64.3226 58.6305 64.4211 58.4577 64.6181C58.2849 64.8133 58.1986 65.0881 58.1986 65.4423C58.1986 65.7965 58.2849 66.0721 58.4577 66.2691C58.6305 66.4644 58.8731 66.562 59.1855 66.562C59.3251 66.562 59.463 66.5439 59.5992 66.5076C59.737 66.4696 59.8741 66.4134 60.0102 66.3391L60.0102 66.7797C59.8758 66.8419 59.7362 66.8886 59.5913 66.9197C59.4482 66.9508 59.2955 66.9663 59.1332 66.9663C58.6916 66.9663 58.3408 66.829 58.0807 66.5542C57.8207 66.2795 57.6907 65.9089 57.6907 65.4423C57.6907 64.9689 57.8216 64.5965 58.0834 64.3252C58.3469 64.0539 58.7073 63.9183 59.1646 63.9183C59.3129 63.9183 59.4578 63.9338 59.5992 63.9649C59.7405 63.9943 59.8775 64.0392 60.0102 64.0997M61.3296 63.164L61.3296 63.9883L62.3219 63.9883L62.3219 64.3589L61.3296 64.3589L61.3296 65.9348C61.3296 66.1715 61.3619 66.3236 61.4265 66.3909C61.4928 66.4583 61.6263 66.492 61.8271 66.492L62.3219 66.492L62.3219 66.8912L61.8271 66.8912C61.4553 66.8912 61.1987 66.8229 61.0574 66.6864C60.916 66.5482 60.8453 66.2976 60.8453 65.9348L60.8453 64.3589L60.4919 64.3589L60.4919 63.9883L60.8453 63.9883L60.8453 63.164L61.3296 63.164M62.7145 65.2246L64.1256 65.2246L64.1256 65.6497L62.7145 65.6497L62.7145 65.2246M20.9606 78.591L20.9606 78.8243L18.7458 78.8243C18.7667 79.1526 18.8662 79.4032 19.0443 79.576C19.224 79.747 19.4736 79.8326 19.793 79.8326C19.978 79.8326 20.1569 79.8101 20.3297 79.7652C20.5042 79.7202 20.677 79.6528 20.848 79.563L20.848 80.014C20.6752 80.0866 20.4981 80.1419 20.3166 80.1799C20.1351 80.2179 19.9509 80.2369 19.7642 80.2369C19.2964 80.2369 18.9256 80.1021 18.6516 79.8326C18.3793 79.563 18.2432 79.1984 18.2432 78.7388C18.2432 78.2636 18.3723 77.8869 18.6306 77.6087C18.8907 77.3288 19.2406 77.1888 19.6804 77.1888C20.0749 77.1888 20.3864 77.315 20.615 77.5672C20.8454 77.8178 20.9606 78.1591 20.9606 78.591M20.4789 78.4511C20.4754 78.1902 20.4012 77.9819 20.2564 77.8264C20.1133 77.6709 19.923 77.5932 19.6857 77.5931C19.4169 77.5932 19.2013 77.6683 19.039 77.8186C18.8784 77.969 18.7859 78.1806 18.7615 78.4537L20.4789 78.4511M22.2277 76.4346L22.2277 77.2588L23.2199 77.2588L23.2199 77.6294L22.2277 77.6294L22.2277 79.2053C22.2277 79.442 22.26 79.5941 22.3246 79.6615C22.3909 79.7289 22.5244 79.7626 22.7251 79.7626L23.2199 79.7626L23.2199 80.1617L22.7251 80.1617C22.3534 80.1617 22.0968 80.0935 21.9554 79.957C21.8141 79.8187 21.7434 79.5682 21.7434 79.2053L21.7434 77.6294L21.39 77.6294L21.39 77.2588L21.7434 77.2588L21.7434 76.4346L22.2277 76.4346M23.8063 79.0161L23.8063 77.2588L24.288 77.2588L24.288 78.998C24.288 79.2727 24.3421 79.4792 24.4504 79.6174C24.5586 79.7539 24.7209 79.8222 24.9373 79.8222C25.1973 79.8222 25.4024 79.7401 25.5525 79.576C25.7044 79.4118 25.7803 79.188 25.7803 78.9047L25.7803 77.2588L26.262 77.2588L26.262 80.1617L25.7803 80.1617L25.7803 79.7159C25.6633 79.8922 25.5272 80.0235 25.3719 80.1099C25.2183 80.1946 25.0394 80.2369 24.8352 80.2369C24.4983 80.2369 24.2427 80.1332 24.0681 79.9259C23.8936 79.7185 23.8063 79.4153 23.8063 79.0161M29.7674 78.591L29.7674 78.8243L27.5526 78.8243C27.5736 79.1526 27.6731 79.4032 27.8511 79.576C28.0309 79.747 28.2804 79.8326 28.5998 79.8326C28.7848 79.8326 28.9637 79.8101 29.1365 79.7652C29.311 79.7202 29.4838 79.6528 29.6549 79.563L29.6549 80.014C29.4821 80.0866 29.3049 80.1419 29.1234 80.1799C28.9419 80.2179 28.7578 80.2369 28.571 80.2369C28.1033 80.2369 27.7324 80.1021 27.4584 79.8326C27.1861 79.563 27.05 79.1984 27.05 78.7388C27.05 78.2636 27.1791 77.8869 27.4375 77.6087C27.6975 77.3288 28.0474 77.1888 28.4873 77.1888C28.8817 77.1888 29.1932 77.315 29.4219 77.5672C29.6522 77.8178 29.7674 78.1591 29.7674 78.591M29.2857 78.4511C29.2822 78.1902 29.2081 77.9819 29.0632 77.8264C28.9201 77.6709 28.7299 77.5932 28.4925 77.5931C28.2237 77.5932 28.0082 77.6683 27.8459 77.8186C27.6853 77.969 27.5928 78.1806 27.5683 78.4537L29.2857 78.4511M32.2571 77.7046C32.203 77.6735 32.1437 77.651 32.0791 77.6372C32.0163 77.6217 31.9465 77.6139 31.8697 77.6139C31.5974 77.6139 31.388 77.702 31.2414 77.8783C31.0965 78.0528 31.0241 78.3042 31.0241 78.6325L31.0241 80.1617L30.5397 80.1617L30.5397 77.2588L31.0241 77.2588L31.0241 77.7098C31.1253 77.5335 31.2571 77.4031 31.4194 77.3184C31.5817 77.232 31.7789 77.1888 32.011 77.1888C32.0442 77.1888 32.0809 77.1914 32.121 77.1966C32.1611 77.2 32.2056 77.2061 32.2545 77.2147L32.2571 77.7046M35.8071 78.7025C35.4179 78.7025 35.1482 78.7465 34.9981 78.8347C34.848 78.9228 34.773 79.0731 34.773 79.2857C34.773 79.455 34.8288 79.5898 34.9405 79.69C35.054 79.7885 35.2076 79.8377 35.4013 79.8377C35.6683 79.8377 35.8821 79.7444 36.0427 79.5578C36.205 79.3695 36.2862 79.1198 36.2862 78.8088L36.2862 78.7025L35.8071 78.7025M36.7679 78.5055L36.7679 80.1617L36.2862 80.1617L36.2862 79.7211C36.1762 79.8974 36.0392 80.0278 35.8752 80.1125C35.7111 80.1954 35.5104 80.2369 35.273 80.2369C34.9728 80.2369 34.7337 80.1539 34.5557 79.9881C34.3794 79.8205 34.2913 79.5967 34.2913 79.3168C34.2913 78.9902 34.4012 78.744 34.6212 78.5781C34.8428 78.4122 35.1727 78.3293 35.6107 78.3293L36.2862 78.3293L36.2862 78.2826C36.2862 78.0632 36.2129 77.8938 36.0663 77.7746C35.9214 77.6536 35.7172 77.5932 35.4537 77.5931C35.2861 77.5932 35.1229 77.613 34.9641 77.6528C34.8053 77.6925 34.6526 77.7521 34.506 77.8316L34.506 77.391C34.6822 77.3236 34.8533 77.2735 35.0191 77.2407C35.1849 77.2061 35.3463 77.1888 35.5034 77.1888C35.9275 77.1888 36.2443 77.2977 36.4537 77.5154C36.6632 77.7331 36.7679 78.0632 36.7679 78.5055M39.6922 77.6994L39.6922 76.1287L40.1739 76.1287L40.1739 80.1617L39.6922 80.1617L39.6922 79.7263C39.5909 79.8991 39.4626 80.0278 39.3073 80.1125C39.1537 80.1954 38.9687 80.2369 38.7523 80.2369C38.398 80.2369 38.1092 80.0969 37.8858 79.817C37.6641 79.5371 37.5533 79.169 37.5533 78.7129C37.5533 78.2567 37.6641 77.8886 37.8858 77.6087C38.1092 77.3288 38.398 77.1888 38.7523 77.1888C38.9687 77.1888 39.1537 77.2312 39.3073 77.3158C39.4626 77.3988 39.5909 77.5266 39.6922 77.6994M38.0507 78.7129C38.0507 79.0636 38.1231 79.3392 38.268 79.5397C38.4146 79.7384 38.6153 79.8377 38.8701 79.8377C39.1249 79.8377 39.3256 79.7384 39.4722 79.5397C39.6188 79.3392 39.6921 79.0636 39.6922 78.7129C39.6921 78.3621 39.6188 78.0873 39.4722 77.8886C39.3256 77.6882 39.1249 77.588 38.8701 77.588C38.6153 77.588 38.4146 77.6882 38.268 77.8886C38.1231 78.0873 38.0507 78.3621 38.0507 78.7129M41.1661 77.2588L41.6478 77.2588L41.6478 80.1617L41.1661 80.1617L41.1661 77.2588M41.1661 76.1287L41.6478 76.1287L41.6478 76.7326L41.1661 76.7326L41.1661 76.1287M43.1191 79.7263L43.1191 81.2659L42.6347 81.2659L42.6347 77.2588L43.1191 77.2588L43.1191 77.6994C43.2203 77.5266 43.3477 77.3988 43.5013 77.3158C43.6566 77.2312 43.8416 77.1888 44.0563 77.1888C44.4123 77.1888 44.7012 77.3288 44.9228 77.6087C45.1462 77.8886 45.2579 78.2567 45.2579 78.7129C45.2579 79.169 45.1462 79.5371 44.9228 79.817C44.7012 80.0969 44.4123 80.2369 44.0563 80.2369C43.8416 80.2369 43.6566 80.1954 43.5013 80.1125C43.3477 80.0278 43.2203 79.8991 43.1191 79.7263M44.7579 78.7129C44.7579 78.3621 44.6846 78.0873 44.538 77.8886C44.3931 77.6882 44.1933 77.588 43.9385 77.588C43.6837 77.588 43.483 77.6882 43.3364 77.8886C43.1915 78.0873 43.1191 78.3621 43.1191 78.7129C43.1191 79.0636 43.1915 79.3392 43.3364 79.5397C43.483 79.7384 43.6837 79.8377 43.9385 79.8377C44.1933 79.8377 44.3931 79.7384 44.538 79.5397C44.6846 79.3392 44.7579 79.0636 44.7579 78.7129M46.0564 77.2588L46.5381 77.2588L46.5381 80.1617L46.0564 80.1617L46.0564 77.2588M46.0564 76.1287L46.5381 76.1287L46.5381 76.7326L46.0564 76.7326L46.0564 76.1287M49.4127 77.3443L49.4127 77.7953C49.2765 77.7262 49.1352 77.6744 48.9886 77.6398C48.8419 77.6052 48.6901 77.588 48.533 77.588C48.2939 77.588 48.1141 77.6243 47.9937 77.6968C47.875 77.7694 47.8157 77.8783 47.8157 78.0234C47.8157 78.134 47.8585 78.2213 47.944 78.2852C48.0295 78.3474 48.2014 78.407 48.4597 78.464L48.6247 78.5003C48.9667 78.5729 49.2093 78.6757 49.3524 78.8088C49.4973 78.9401 49.5697 79.1241 49.5697 79.3608C49.5697 79.6304 49.4615 79.8438 49.2451 80.001C49.0304 80.1583 48.7346 80.2369 48.3576 80.2369C48.2005 80.2369 48.0365 80.2213 47.8654 80.1902C47.6961 80.1609 47.5173 80.1159 47.3288 80.0555L47.3288 79.563C47.5068 79.6546 47.6822 79.7237 47.855 79.7703C48.0278 79.8153 48.1988 79.8377 48.3681 79.8377C48.595 79.8377 48.7695 79.7997 48.8917 79.7237C49.0139 79.6459 49.0749 79.5371 49.0749 79.3971C49.0749 79.2675 49.0304 79.1682 48.9414 79.099C48.8542 79.0299 48.6613 78.9634 48.3629 78.8995L48.1953 78.8606C47.8969 78.7984 47.6813 78.7033 47.5487 78.5755C47.416 78.4459 47.3497 78.2688 47.3497 78.0441C47.3497 77.7711 47.4474 77.5603 47.6429 77.4117C47.8384 77.2631 48.1159 77.1888 48.4754 77.1888C48.6534 77.1888 48.821 77.2018 48.9781 77.2277C49.1352 77.2536 49.28 77.2925 49.4127 77.3443M52.4495 77.3702L52.4495 77.8161C52.3134 77.7418 52.1764 77.6865 52.0385 77.6502C51.9023 77.6122 51.7645 77.5932 51.6248 77.5931C51.3124 77.5932 51.0698 77.6916 50.897 77.8886C50.7243 78.0839 50.6379 78.3586 50.6379 78.7129C50.6379 79.0671 50.7243 79.3427 50.897 79.5397C51.0698 79.7349 51.3124 79.8326 51.6248 79.8326C51.7645 79.8326 51.9023 79.8144 52.0385 79.7781C52.1764 79.7401 52.3134 79.684 52.4495 79.6097L52.4495 80.0503C52.3151 80.1125 52.1755 80.1591 52.0306 80.1902C51.8875 80.2213 51.7348 80.2369 51.5725 80.2369C51.1309 80.2369 50.7801 80.0995 50.5201 79.8248C50.26 79.55 50.13 79.1794 50.13 78.7129C50.13 78.2394 50.2609 77.867 50.5227 77.5957C50.7862 77.3245 51.1466 77.1888 51.6039 77.1888C51.7522 77.1888 51.8971 77.2044 52.0385 77.2355C52.1798 77.2648 52.3169 77.3098 52.4495 77.3702M53.2925 77.2588L53.7742 77.2588L53.7742 80.1617L53.2925 80.1617L53.2925 77.2588M53.2925 76.1287L53.7742 76.1287L53.7742 76.7326L53.2925 76.7326L53.2925 76.1287M57.2168 78.4096L57.2168 80.1617L56.7351 80.1617L56.7351 78.4252C56.7351 78.1504 56.681 77.9448 56.5728 77.8083C56.4646 77.6718 56.3023 77.6035 56.0859 77.6035C55.8258 77.6035 55.6207 77.6856 55.4706 77.8497C55.3205 78.0139 55.2455 78.2377 55.2455 78.5211L55.2455 80.1617L54.7612 80.1617L54.7612 77.2588L55.2455 77.2588L55.2455 77.7098C55.3607 77.5353 55.4959 77.4048 55.6513 77.3184C55.8084 77.232 55.989 77.1888 56.1932 77.1888C56.53 77.1888 56.7848 77.2925 56.9576 77.4998C57.1304 77.7055 57.2168 78.0087 57.2168 78.4096M60.1123 78.6766C60.1123 78.331 60.0399 78.0632 59.895 77.8731C59.7519 77.683 59.5503 77.588 59.2902 77.588C59.0319 77.588 58.8304 77.683 58.6855 77.8731C58.5424 78.0632 58.4708 78.331 58.4708 78.6766C58.4708 79.0204 58.5424 79.2874 58.6855 79.4775C58.8304 79.6675 59.0319 79.7626 59.2902 79.7626C59.5503 79.7626 59.7519 79.6675 59.895 79.4775C60.0399 79.2874 60.1123 79.0204 60.1123 78.6766M60.594 79.8015C60.594 80.2956 60.4832 80.6628 60.2615 80.903C60.0399 81.1449 59.7004 81.2659 59.2431 81.2659C59.0738 81.2659 58.9141 81.2529 58.764 81.227C58.6139 81.2028 58.4682 81.1648 58.3268 81.113L58.3268 80.649C58.4682 80.725 58.6078 80.7812 58.7457 80.8175C58.8836 80.8538 59.0241 80.8719 59.1672 80.8719C59.4831 80.8719 59.7196 80.7898 59.8767 80.6257C60.0337 80.4633 60.1123 80.217 60.1123 79.887L60.1123 79.6511C60.0128 79.8222 59.8854 79.9501 59.7301 80.0347C59.5747 80.1194 59.3889 80.1617 59.1724 80.1617C58.8129 80.1617 58.5232 80.0261 58.3033 79.7548C58.0834 79.4835 57.9734 79.1241 57.9734 78.6766C57.9734 78.2273 58.0834 77.867 58.3033 77.5957C58.5232 77.3245 58.8129 77.1888 59.1724 77.1888C59.3889 77.1888 59.5747 77.2312 59.7301 77.3158C59.8854 77.4005 60.0128 77.5284 60.1123 77.6994L60.1123 77.2588L60.594 77.2588L60.594 79.8015"  />
      <path fill="#ffffff" stroke="#000000" stroke-width="0.80921" stroke-linecap="round" stroke-linejoin="round" d="M19.2037 113.452L19.2037 97.6288L45.8138 97.6288L45.8138 113.452L19.2037 113.452Z"  />
      <path id="text9764" fill="#000000" stroke-width="0.716224" d="M20.3148 94.9991L20.3148 95.324C20.2305 95.2863 20.1482 95.2578 20.068 95.2386C19.9878 95.2195 19.9121 95.2099 19.8408 95.2099C19.7462 95.2099 19.6763 95.2229 19.6311 95.2489C19.5858 95.275 19.5632 95.3154 19.5632 95.3702C19.5632 95.4114 19.5783 95.4436 19.6084 95.4669C19.6393 95.4895 19.6948 95.509 19.775 95.5255L19.9436 95.5594C20.1143 95.5937 20.2356 95.6458 20.3076 95.7157C20.3796 95.7856 20.4155 95.885 20.4155 96.0139C20.4155 96.1832 20.3652 96.3093 20.2644 96.3922C20.1643 96.4745 20.0111 96.5156 19.8048 96.5156C19.7075 96.5156 19.6098 96.5064 19.5118 96.4878C19.4138 96.4693 19.3158 96.4419 19.2177 96.4056L19.2177 96.0714C19.3158 96.1235 19.4104 96.163 19.5015 96.1897C19.5934 96.2157 19.6818 96.2288 19.7668 96.2288C19.8531 96.2288 19.9193 96.2144 19.9652 96.1856C20.0111 96.1568 20.0341 96.1157 20.0341 96.0622C20.0341 96.0142 20.0183 95.9772 19.9868 95.9512C19.956 95.9251 19.8939 95.9018 19.8007 95.8812L19.6475 95.8473C19.494 95.8144 19.3816 95.762 19.3103 95.69C19.2397 95.618 19.2044 95.521 19.2044 95.399C19.2044 95.2462 19.2537 95.1286 19.3524 95.0464C19.4511 94.9641 19.593 94.923 19.7781 94.923C19.8624 94.923 19.9491 94.9295 20.0382 94.9425C20.1273 94.9549 20.2195 94.9737 20.3148 94.9991M20.7476 95.3343L21.1157 95.3343L21.1157 96.4858L20.7476 96.4858L20.7476 95.3343M20.7476 94.886L21.1157 94.886L21.1157 95.1862L20.7476 95.1862L20.7476 94.886M22.2549 96.2904C22.2042 96.3576 22.1483 96.407 22.0873 96.4385C22.0263 96.47 21.9557 96.4858 21.8755 96.4858C21.735 96.4858 21.6188 96.4306 21.527 96.3203C21.4351 96.2092 21.3892 96.068 21.3892 95.8967C21.3892 95.7246 21.4351 95.5838 21.527 95.4741C21.6188 95.3637 21.735 95.3086 21.8755 95.3086C21.9557 95.3086 22.0263 95.3243 22.0873 95.3559C22.1483 95.3874 22.2042 95.4371 22.2549 95.5049L22.2549 95.3343L22.625 95.3343L22.625 96.3696C22.625 96.5547 22.5664 96.6959 22.4492 96.7932C22.3327 96.8912 22.1634 96.9402 21.9413 96.9402C21.8693 96.9402 21.7998 96.9347 21.7326 96.9238C21.6654 96.9128 21.5979 96.896 21.5301 96.8734L21.5301 96.5866C21.5945 96.6236 21.6575 96.651 21.7192 96.6688C21.7809 96.6873 21.843 96.6966 21.9053 96.6966C22.026 96.6966 22.1144 96.6702 22.1706 96.6174C22.2268 96.5646 22.2549 96.482 22.2549 96.3696L22.2549 96.2904M22.0123 95.5738C21.9362 95.5738 21.8769 95.6019 21.8344 95.6581C21.7919 95.7143 21.7706 95.7938 21.7706 95.8967C21.7706 96.0022 21.7912 96.0824 21.8323 96.1372C21.8735 96.1914 21.9334 96.2185 22.0123 96.2185C22.089 96.2185 22.1487 96.1904 22.1912 96.1342C22.2337 96.078 22.2549 95.9988 22.2549 95.8967C22.2549 95.7938 22.2337 95.7143 22.1912 95.6581C22.1487 95.6019 22.089 95.5738 22.0123 95.5738M24.1385 95.7846L24.1385 96.4858L23.7683 96.4858L23.7683 96.3717L23.7683 95.9491C23.7683 95.8497 23.7659 95.7812 23.7611 95.7435C23.757 95.7058 23.7495 95.678 23.7385 95.6602C23.7241 95.6362 23.7046 95.6177 23.6799 95.6047C23.6552 95.591 23.6271 95.5841 23.5956 95.5841C23.5188 95.5841 23.4585 95.6139 23.4147 95.6736C23.3708 95.7325 23.3489 95.8144 23.3489 95.9193L23.3489 96.4858L22.9808 96.4858L22.9808 95.3343L23.3489 95.3343L23.3489 95.5029C23.4044 95.4357 23.4633 95.3864 23.5257 95.3548C23.5881 95.3226 23.657 95.3065 23.7324 95.3065C23.8653 95.3065 23.9661 95.3473 24.0346 95.4289C24.1039 95.5104 24.1385 95.629 24.1385 95.7846M25.1265 95.4669L25.547 95.9296C25.5834 95.8816 25.6108 95.8278 25.6293 95.7681C25.6485 95.7085 25.6598 95.641 25.6632 95.5656L25.983 95.5656C25.9727 95.6903 25.9484 95.8014 25.91 95.8987C25.8723 95.996 25.8195 96.0814 25.7516 96.1547L26.0529 96.4858L25.617 96.4858L25.5162 96.3737C25.4442 96.4217 25.3685 96.4573 25.289 96.4807C25.2095 96.504 25.1252 96.5156 25.036 96.5156C24.8558 96.5156 24.7098 96.4683 24.5981 96.3737C24.487 96.2784 24.4315 96.1558 24.4315 96.0056C24.4315 95.9056 24.4558 95.8172 24.5045 95.7404C24.5538 95.6629 24.634 95.5879 24.7451 95.5152C24.7163 95.4789 24.695 95.4426 24.6813 95.4062C24.6676 95.3699 24.6608 95.3319 24.6608 95.2921C24.6608 95.1804 24.7043 95.0909 24.7913 95.0238C24.8784 94.9566 24.9942 94.923 25.1389 94.923C25.2012 94.923 25.266 94.9281 25.3332 94.9384C25.401 94.948 25.4716 94.9628 25.545 94.9826L25.545 95.2685C25.4805 95.2356 25.4195 95.2112 25.362 95.1955C25.3044 95.1797 25.2482 95.1718 25.1934 95.1718C25.1406 95.1718 25.0994 95.1821 25.07 95.2027C25.0412 95.2225 25.0268 95.251 25.0268 95.288C25.0268 95.3113 25.035 95.338 25.0515 95.3682C25.0686 95.3977 25.0936 95.4306 25.1265 95.4669M24.9219 95.7219C24.8774 95.7541 24.8438 95.7908 24.8212 95.8319C24.7985 95.8723 24.7872 95.9169 24.7872 95.9655C24.7872 96.0444 24.8164 96.1115 24.8746 96.1671C24.9329 96.2226 25.0028 96.2503 25.0844 96.2503C25.1303 96.2503 25.1731 96.2435 25.2129 96.2298C25.2526 96.2154 25.2897 96.1941 25.3239 96.166L24.9219 95.7219M26.8363 95.9676C26.7596 95.9676 26.7016 95.9806 26.6626 96.0067C26.6242 96.0327 26.605 96.0711 26.605 96.1218C26.605 96.1684 26.6204 96.2051 26.6513 96.2318C26.6828 96.2579 26.7263 96.2709 26.7818 96.2709C26.8511 96.2709 26.9093 96.2462 26.9566 96.1969C27.0039 96.1468 27.0276 96.0845 27.0276 96.0098L27.0276 95.9676L26.8363 95.9676M27.3987 95.8288L27.3987 96.4858L27.0276 96.4858L27.0276 96.3151C26.9782 96.385 26.9227 96.4361 26.861 96.4683C26.7993 96.4998 26.7243 96.5156 26.6358 96.5156C26.5166 96.5156 26.4196 96.481 26.3449 96.4118C26.2709 96.3419 26.2338 96.2514 26.2338 96.1403C26.2338 96.0053 26.2801 95.9063 26.3726 95.8432C26.4659 95.7801 26.6119 95.7486 26.8106 95.7486L27.0276 95.7486L27.0276 95.7198C27.0276 95.6616 27.0046 95.6191 26.9587 95.5923C26.9128 95.5649 26.8411 95.5512 26.7438 95.5512C26.665 95.5512 26.5916 95.5591 26.5238 95.5749C26.4559 95.5906 26.3929 95.6143 26.3346 95.6458L26.3346 95.3651C26.4134 95.3459 26.4926 95.3315 26.5721 95.3219C26.6516 95.3116 26.7311 95.3065 26.8106 95.3065C27.0183 95.3065 27.1681 95.3476 27.2599 95.4299C27.3525 95.5114 27.3987 95.6444 27.3987 95.8288M28.6736 95.3702L28.6736 95.6705C28.6236 95.6362 28.5732 95.6108 28.5225 95.5944C28.4725 95.5779 28.4204 95.5697 28.3662 95.5697C28.2634 95.5697 28.1832 95.5999 28.1256 95.6602C28.0687 95.7198 28.0403 95.8034 28.0403 95.9111C28.0403 96.0187 28.0687 96.1026 28.1256 96.163C28.1832 96.2226 28.2634 96.2524 28.3662 96.2524C28.4238 96.2524 28.4783 96.2438 28.5297 96.2267C28.5818 96.2096 28.6298 96.1842 28.6736 96.1506L28.6736 96.4519C28.6161 96.4731 28.5575 96.4889 28.4978 96.4992C28.4389 96.5101 28.3796 96.5156 28.32 96.5156C28.1123 96.5156 27.9498 96.4625 27.8326 96.3562C27.7154 96.2493 27.6568 96.1009 27.6568 95.9111C27.6568 95.7212 27.7154 95.5731 27.8326 95.4669C27.9498 95.36 28.1123 95.3065 28.32 95.3065C28.3803 95.3065 28.4396 95.312 28.4978 95.323C28.5568 95.3332 28.6154 95.349 28.6736 95.3702M29.9239 95.3702L29.9239 95.6705C29.8738 95.6362 29.8235 95.6108 29.7727 95.5944C29.7227 95.5779 29.6706 95.5697 29.6165 95.5697C29.5136 95.5697 29.4334 95.5999 29.3759 95.6602C29.319 95.7198 29.2905 95.8034 29.2905 95.9111C29.2905 96.0187 29.319 96.1026 29.3759 96.163C29.4334 96.2226 29.5136 96.2524 29.6165 96.2524C29.674 96.2524 29.7285 96.2438 29.7799 96.2267C29.832 96.2096 29.88 96.1842 29.9239 96.1506L29.9239 96.4519C29.8663 96.4731 29.8077 96.4889 29.7481 96.4992C29.6891 96.5101 29.6298 96.5156 29.5702 96.5156C29.3625 96.5156 29.2001 96.4625 29.0828 96.3562C28.9656 96.2493 28.907 96.1009 28.907 95.9111C28.907 95.7212 28.9656 95.5731 29.0828 95.4669C29.2001 95.36 29.3625 95.3065 29.5702 95.3065C29.6305 95.3065 29.6898 95.312 29.7481 95.323C29.807 95.3332 29.8656 95.349 29.9239 95.3702M31.3931 95.9069L31.3931 96.0118L30.5325 96.0118C30.5414 96.0982 30.5726 96.163 30.6261 96.2061C30.6796 96.2493 30.7543 96.2709 30.8502 96.2709C30.9277 96.2709 31.0069 96.2596 31.0877 96.237C31.1693 96.2137 31.2529 96.1787 31.3386 96.1321L31.3386 96.4159C31.2516 96.4488 31.1645 96.4735 31.0775 96.4899C30.9904 96.507 30.9034 96.5156 30.8163 96.5156C30.6079 96.5156 30.4458 96.4628 30.33 96.3573C30.2148 96.251 30.1573 96.1023 30.1573 95.9111C30.1573 95.7232 30.2138 95.5755 30.3269 95.4679C30.4407 95.3603 30.597 95.3065 30.7957 95.3065C30.9767 95.3065 31.1213 95.361 31.2296 95.47C31.3386 95.579 31.3931 95.7246 31.3931 95.9069M31.0147 95.7846C31.0147 95.7147 30.9942 95.6585 30.9531 95.616C30.9126 95.5728 30.8595 95.5512 30.7937 95.5512C30.7224 95.5512 30.6645 95.5714 30.6199 95.6119C30.5754 95.6516 30.5476 95.7092 30.5366 95.7846L31.0147 95.7846M32.0388 96.3192L32.0388 96.9238L31.6707 96.9238L31.6707 95.3343L32.0388 95.3343L32.0388 95.5029C32.0895 95.4357 32.1457 95.3864 32.2074 95.3548C32.2691 95.3226 32.34 95.3065 32.4202 95.3065C32.5621 95.3065 32.6786 95.3631 32.7698 95.4761C32.861 95.5886 32.9065 95.7335 32.9065 95.9111C32.9065 96.0886 32.861 96.2339 32.7698 96.347C32.6786 96.4594 32.5621 96.5156 32.4202 96.5156C32.34 96.5156 32.2691 96.4998 32.2074 96.4683C32.1457 96.4361 32.0895 96.3864 32.0388 96.3192M32.2835 95.5738C32.2047 95.5738 32.144 95.603 32.1015 95.6612C32.0597 95.7188 32.0388 95.8021 32.0388 95.9111C32.0388 96.02 32.0597 96.1037 32.1015 96.1619C32.144 96.2195 32.2047 96.2483 32.2835 96.2483C32.3623 96.2483 32.4223 96.2195 32.4634 96.1619C32.5052 96.1043 32.5261 96.0207 32.5261 95.9111C32.5261 95.8014 32.5052 95.7178 32.4634 95.6602C32.4223 95.6026 32.3623 95.5738 32.2835 95.5738M33.582 95.0073L33.582 95.3343L33.9614 95.3343L33.9614 95.5975L33.582 95.5975L33.582 96.0858C33.582 96.1393 33.5927 96.1756 33.6139 96.1948C33.6352 96.2133 33.6773 96.2226 33.7404 96.2226L33.9295 96.2226L33.9295 96.4858L33.6139 96.4858C33.4686 96.4858 33.3654 96.4556 33.3044 96.3953C33.2441 96.3343 33.214 96.2312 33.214 96.0858L33.214 95.5975L33.0309 95.5975L33.0309 95.3343L33.214 95.3343L33.214 95.0073L33.582 95.0073"  />
    </g>
    <path id="path5975" fill="none" stroke="#000000" stroke-width="13.5253" d="M43.9003 9.262L43.9003 100.226C43.9003 101.626 45.0364 102.762 46.4363 102.762L113.488 102.762L113.208 9.68L43.9003 9.262Z"  />
    <path id="path5977" fill="none" stroke="#000000" stroke-width="10.144" d="M43.9003 7.819L43.9003 100.226C43.9003 101.626 45.0364 102.762 46.4363 102.762L115.3 102.762L115.476 7.68L43.9003 7.819Z"  />
    <path id="path5979" fill="none" stroke="#000000" stroke-width="6.76265" d="M43.9003 5.959L43.9003 100.226C43.9003 101.626 45.0364 102.762 46.4363 102.762L116.973 102.762L117.094 6.377L43.9003 5.959Z"  />
    <path id="path5981" fill="none" stroke="#000000" stroke-width="3.381" d="M43.9003 4.377L43.9003 100.226C43.9003 101.626 45.0364 102.762 46.4363 102.762L118.785 102.762L118.67 4.516L43.9003 4.377Z"  />
    <path id="path5983" fill="url(#defitem495)" d="M43.9003 2.128L43.9003 100.226C43.9003 101.626 45.0364 102.762 46.4363 102.762L120.318 102.762L120.471 2.128L43.9003 2.128Z"  />
    <path id="path5985" fill="url(#defitem496)" d="M47.2816 2.128L47.2816 97.8795C47.2816 98.5555 47.8307 99.1041 48.5046 99.1041L120.471 99.2435L120.471 2.128L47.2816 2.128Z"  />
    <path id="rect5989" fill="#800000" stroke-width="2.7" stroke-linecap="round" stroke-linejoin="round" d="M62.2677 2.128L62.2677 97.4471C62.2677 98.3711 61.5489 99.115 60.6561 99.115L48.8228 99.115C47.93 99.115 47.2112 98.3711 47.2112 97.4471L47.2112 2.128L62.2677 2.128Z"  />
    <path id="path5991" fill="#800000" d="M120.213 31.3767L120.233 32.1711C119.912 32.1156 119.574 32.0306 119.217 31.9161L119.217 30.9844C119.554 31.1577 119.886 31.2885 120.213 31.3767ZM69.3296 29.1455L69.3296 29.5868L65.1392 29.5868C65.1788 30.208 65.3671 30.682 65.7039 31.0089C66.044 31.3326 66.5162 31.4944 67.1205 31.4944C67.4705 31.4944 67.8089 31.4519 68.1359 31.3669C68.4661 31.2819 68.793 31.1544 69.1166 30.9844L69.1166 31.8377C68.7897 31.975 68.4545 32.0796 68.1111 32.1515C67.7677 32.2234 67.4193 32.2594 67.066 32.2594C66.181 32.2594 65.4793 32.0044 64.9609 31.4944C64.4458 30.9844 64.1882 30.2946 64.1882 29.425C64.1882 28.526 64.4326 27.813 64.9213 27.287C65.4133 26.757 66.0754 26.493 66.9075 26.493C67.6537 26.493 68.2432 26.731 68.6757 27.208C69.1116 27.683 69.3295 28.3282 69.3296 29.1455M68.4182 28.8807C68.4116 28.387 68.2712 27.993 67.9972 27.699C67.7264 27.405 67.3665 27.258 66.9174 27.258C66.4089 27.258 66.0011 27.4 65.694 27.684C65.3902 27.969 65.2152 28.3691 65.1689 28.8856L68.4182 28.8807M71.7269 25.066L71.7269 26.625L73.6041 26.625L73.6041 27.326L71.7269 27.326L71.7269 30.3077C71.7269 30.7556 71.7879 31.0433 71.9101 31.1708C72.0356 31.2983 72.2882 31.362 72.668 31.362L73.6041 31.362L73.6041 32.1172L72.668 32.1172C71.9646 32.1172 71.4792 31.9881 71.2117 31.7298C70.9443 31.4683 70.8105 30.9942 70.8105 30.3077L70.8105 27.326L70.1419 27.326L70.1419 26.625L70.8105 26.625L70.8105 25.066L71.7269 25.066M74.7136 29.9497L74.7136 26.625L75.625 26.625L75.625 29.9154C75.625 30.4352 75.7273 30.8259 75.9321 31.0874C76.1368 31.3457 76.4439 31.4748 76.8533 31.4748C77.3453 31.4748 77.7333 31.3195 78.0173 31.0089C78.3046 30.6984 78.4482 30.275 78.4482 29.7389L78.4482 26.625L79.3596 26.625L79.3596 32.1172L78.4482 32.1172L78.4482 31.2737C78.227 31.6072 77.9694 31.8557 77.6756 32.0191C77.385 32.1793 77.0465 32.2594 76.6602 32.2594C76.0229 32.2594 75.5391 32.0633 75.2089 31.671C74.8787 31.2787 74.7136 30.7049 74.7136 29.9497M85.9918 29.1455L85.9918 29.5868L81.8015 29.5868C81.8411 30.208 82.0293 30.682 82.3662 31.0089C82.7063 31.3326 83.1785 31.4944 83.7827 31.4944C84.1328 31.4944 84.4712 31.4519 84.7981 31.3669C85.1283 31.2819 85.4552 31.1544 85.7788 30.9844L85.7788 31.8377C85.4519 31.975 85.1168 32.0796 84.7734 32.1515C84.4299 32.2234 84.0816 32.2594 83.7283 32.2594C82.8433 32.2594 82.1416 32.0044 81.6232 31.4944C81.1081 30.9844 80.8505 30.2946 80.8505 29.425C80.8505 28.526 81.0949 27.813 81.5836 27.287C82.0756 26.757 82.7376 26.493 83.5698 26.493C84.316 26.493 84.9054 26.731 85.338 27.208C85.7739 27.683 85.9918 28.3282 85.9918 29.1455M85.0805 28.8807C85.0738 28.387 84.9335 27.993 84.6594 27.699C84.3887 27.405 84.0287 27.258 83.5797 27.258C83.0711 27.258 82.6633 27.4 82.3562 27.684C82.0525 27.969 81.8774 28.3691 81.8312 28.8856L85.0805 28.8807M90.7022 27.468C90.5999 27.41 90.4876 27.367 90.3654 27.341C90.2466 27.311 90.1145 27.297 89.9692 27.297C89.4541 27.297 89.0578 27.463 88.7804 27.797C88.5064 28.1271 88.3693 28.6028 88.3693 29.224L88.3693 32.1172L87.453 32.1172L87.453 26.625L88.3693 26.625L88.3693 27.478C88.5608 27.145 88.8102 26.898 89.1172 26.738C89.4243 26.574 89.7975 26.493 90.2367 26.493C90.2994 26.493 90.3687 26.497 90.4447 26.507C90.5206 26.514 90.6048 26.525 90.6973 26.542L90.7022 27.468M97.4187 29.3564C96.6823 29.3564 96.1721 29.4397 95.8882 29.6065C95.6042 29.7732 95.4622 30.0576 95.4622 30.4597C95.4622 30.7801 95.5679 31.0351 95.7792 31.2247C95.9938 31.4111 96.2844 31.5042 96.6509 31.5042C97.1562 31.5042 97.5607 31.3277 97.8645 30.9746C98.1715 30.6183 98.3251 30.1459 98.3251 29.5574L98.3251 29.3564L97.4187 29.3564M99.2365 28.9837L99.2365 32.1172L98.3251 32.1172L98.3251 31.2836C98.1171 31.617 97.8578 31.8638 97.5475 32.024C97.2371 32.181 96.8573 32.2594 96.4082 32.2594C95.8403 32.2594 95.3879 32.1025 95.0511 31.7886C94.7176 31.4715 94.5508 31.0482 94.5508 30.5186C94.5508 29.9007 94.7588 29.4348 95.1749 29.121C95.5943 28.8071 96.2184 28.6502 97.0472 28.6502L98.3251 28.6502L98.3251 28.5619C98.3251 28.1468 98.1864 27.826 97.909 27.601C97.635 27.372 97.2486 27.258 96.75 27.258C96.433 27.258 96.1243 27.295 95.8238 27.37C95.5233 27.446 95.2343 27.558 94.957 27.709L94.957 26.875C95.2905 26.748 95.6141 26.653 95.9278 26.591C96.2415 26.525 96.5469 26.493 96.8441 26.493C97.6465 26.493 98.2458 26.699 98.6421 27.11C99.0383 27.522 99.2365 28.1468 99.2365 28.9837M104.769 27.459L104.769 24.487L105.68 24.487L105.68 32.1172L104.769 32.1172L104.769 31.2934C104.578 31.6203 104.335 31.8638 104.041 32.024C103.75 32.181 103.4 32.2594 102.991 32.2594C102.321 32.2594 101.774 31.9946 101.351 31.465C100.932 30.9354 100.722 30.239 100.722 29.376C100.722 28.5129 100.932 27.817 101.351 27.287C101.774 26.757 102.321 26.493 102.991 26.493C103.4 26.493 103.75 26.573 104.041 26.733C104.335 26.89 104.578 27.132 104.769 27.459M101.663 29.376C101.663 30.0396 101.801 30.5611 102.075 30.9403C102.352 31.3162 102.732 31.5042 103.214 31.5042C103.696 31.5042 104.076 31.3162 104.353 30.9403C104.63 30.5611 104.769 30.0396 104.769 29.376C104.769 28.7123 104.63 28.1925 104.353 27.817C104.076 27.437 103.696 27.248 103.214 27.248C102.732 27.248 102.352 27.437 102.075 27.817C101.801 28.1925 101.663 28.7123 101.663 29.376M107.558 26.625L108.469 26.625L108.469 32.1172L107.558 32.1172L107.558 26.625M107.558 24.487L108.469 24.487L108.469 25.629L107.558 25.629L107.558 24.487M111.253 31.2934L111.253 34.2062L110.336 34.2062L110.336 26.625L111.253 26.625L111.253 27.459C111.444 27.132 111.685 26.89 111.976 26.733C112.27 26.573 112.62 26.493 113.026 26.493C113.7 26.493 114.246 26.757 114.665 27.287C115.088 27.817 115.299 28.5129 115.299 29.376C115.299 30.239 115.088 30.9354 114.665 31.465C114.246 31.9946 113.7 32.2594 113.026 32.2594C112.62 32.2594 112.27 32.181 111.976 32.024C111.685 31.8638 111.444 31.6203 111.253 31.2934M114.353 29.376C114.353 28.7123 114.215 28.1925 113.937 27.817C113.663 27.437 113.285 27.248 112.803 27.248C112.321 27.248 111.941 27.437 111.664 27.817C111.39 28.1925 111.253 28.7123 111.253 29.376C111.253 30.0396 111.39 30.5611 111.664 30.9403C111.941 31.3162 112.321 31.5042 112.803 31.5042C113.285 31.5042 113.663 31.3162 113.937 30.9403C114.215 30.5611 114.353 30.0396 114.353 29.376M116.81 26.625L117.721 26.625L117.721 32.1172L116.81 32.1172L116.81 26.625M116.81 24.487L117.721 24.487L117.721 25.629L116.81 25.629L116.81 24.487M120.285 26.66L120.309 27.59C120.195 27.716 120.139 27.876 120.139 28.0716C120.139 28.2497 120.197 28.3958 120.314 28.51L120.278 29.4933C120.003 29.3913 119.788 29.2662 119.633 29.1161C119.382 28.8715 119.257 28.5358 119.257 28.1108C119.257 27.594 119.442 27.195 119.812 26.914C119.948 26.81 120.106 26.726 120.285 26.66Z"  />
    <path fill="#ffffff" stroke="#000000" stroke-width="1.531" stroke-linecap="round" stroke-linejoin="round" d="M66.0056 95.1015L66.0056 65.1644L116.351 65.1644L116.351 95.1015L66.0056 95.1015Z"  />
    <path id="path5995" fill="#000000" d="M68.1077 60.1891L68.1077 60.8037C67.9482 60.7324 67.7925 60.6786 67.6408 60.6423C67.4891 60.606 67.3458 60.5878 67.2109 60.5878C67.032 60.5878 66.8997 60.6125 66.8141 60.6617C66.7285 60.711 66.6857 60.7875 66.6857 60.8913C66.6857 60.9691 66.7142 61.03 66.7713 61.0741C66.8297 61.1169 66.9347 61.1539 67.0864 61.185L67.4054 61.2492C67.7284 61.3141 67.9579 61.4126 68.0941 61.5449C68.2302 61.6772 68.2983 61.8652 68.2983 62.109C68.2983 62.4293 68.203 62.6679 68.0124 62.8248C67.823 62.9805 67.5332 63.0583 67.1428 63.0583C66.9587 63.0583 66.7739 63.0408 66.5884 63.0058C66.403 62.9707 66.2176 62.9189 66.0321 62.8501L66.0321 62.2179C66.2176 62.3165 66.3965 62.3911 66.569 62.4416C66.7428 62.4909 66.9101 62.5156 67.0709 62.5156C67.2343 62.5156 67.3594 62.4883 67.4463 62.4339C67.5332 62.3794 67.5766 62.3016 67.5766 62.2004C67.5766 62.1096 67.5468 62.0396 67.4871 61.9903C67.4288 61.9411 67.3114 61.897 67.1351 61.8581L66.8452 61.7939C66.5547 61.7316 66.3421 61.6324 66.2072 61.4963C66.0736 61.3601 66.0068 61.1766 66.0068 60.9458C66.0068 60.6566 66.1002 60.4342 66.2869 60.2785C66.4737 60.1229 66.7421 60.0451 67.0923 60.0451C67.2518 60.0451 67.4158 60.0574 67.5844 60.0821C67.753 60.1054 67.9274 60.1411 68.1077 60.1891M68.9266 60.8232L69.623 60.8232L69.623 63.0019L68.9266 63.0019L68.9266 60.8232M68.9266 59.9751L69.623 59.9751L69.623 60.5431L68.9266 60.5431L68.9266 59.9751M71.7783 62.6323C71.6824 62.7594 71.5767 62.8527 71.4612 62.9124C71.3458 62.972 71.2123 63.0019 71.0605 63.0019C70.7947 63.0019 70.5749 62.8975 70.4011 62.6887C70.2273 62.4786 70.1404 62.2114 70.1404 61.8872C70.1404 61.5617 70.2273 61.2952 70.4011 61.0878C70.5749 60.879 70.7947 60.7746 71.0605 60.7746C71.2123 60.7746 71.3458 60.8044 71.4612 60.8641C71.5767 60.9237 71.6824 61.0177 71.7783 61.1461L71.7783 60.8232L72.4786 60.8232L72.4786 62.782C72.4786 63.1322 72.3677 63.3993 72.146 63.5835C71.9255 63.7689 71.6052 63.8616 71.185 63.8617C71.0489 63.8616 70.9172 63.8513 70.7901 63.8305C70.6631 63.8098 70.5353 63.778 70.4069 63.7352L70.4069 63.1925C70.5288 63.2625 70.6481 63.3144 70.7649 63.3481C70.8816 63.3831 70.9989 63.4006 71.1169 63.4006C71.3452 63.4006 71.5125 63.3507 71.6188 63.2508C71.7251 63.151 71.7783 62.9947 71.7783 62.782L71.7783 62.6323M71.3192 61.2764C71.1753 61.2764 71.0631 61.3296 70.9827 61.4359C70.9023 61.5423 70.8621 61.6927 70.8621 61.8872C70.8621 62.087 70.901 62.2387 70.9788 62.3424C71.0566 62.4449 71.1701 62.4961 71.3192 62.4961C71.4645 62.4961 71.5773 62.4429 71.6577 62.3366C71.7381 62.2303 71.7783 62.0805 71.7783 61.8872C71.7783 61.6927 71.7381 61.5423 71.6577 61.4359C71.5773 61.3296 71.4645 61.2764 71.3192 61.2764M75.342 61.6752L75.342 63.0019L74.6417 63.0019L74.6417 62.7859L74.6417 61.9864C74.6417 61.7984 74.6372 61.6687 74.6281 61.5974C74.6203 61.5261 74.606 61.4736 74.5853 61.4398C74.5581 61.3945 74.5211 61.3594 74.4744 61.3348C74.4277 61.3089 74.3746 61.2959 74.3149 61.2959C74.1697 61.2959 74.0555 61.3523 73.9725 61.4651C73.8895 61.5767 73.848 61.7316 73.848 61.93L73.848 63.0019L73.1517 63.0019L73.1517 60.8232L73.848 60.8232L73.848 61.1422C73.9531 61.0151 74.0646 60.9218 74.1826 60.8621C74.3006 60.8012 74.431 60.7707 74.5736 60.7707C74.8252 60.7707 75.0158 60.8478 75.1455 61.0022C75.2765 61.1565 75.342 61.3808 75.342 61.6752M77.2113 61.0741L78.0069 61.9495C78.0757 61.8587 78.1276 61.7569 78.1626 61.6441C78.1989 61.5313 78.2203 61.4035 78.2268 61.2609L78.8317 61.2609C78.8123 61.4969 78.7662 61.707 78.6936 61.8911C78.6223 62.0753 78.5224 62.2367 78.394 62.3755L78.964 63.0019L78.1392 63.0019L77.9486 62.7898C77.8124 62.8806 77.6691 62.948 77.5187 62.9921C77.3683 63.0362 77.2088 63.0583 77.0402 63.0583C76.6991 63.0583 76.4229 62.9688 76.2115 62.7898C76.0014 62.6096 75.8964 62.3774 75.8964 62.0934C75.8964 61.9041 75.9424 61.7368 76.0345 61.5916C76.1279 61.445 76.2796 61.303 76.4897 61.1656C76.4352 61.0968 76.395 61.0281 76.3691 60.9594C76.3431 60.8906 76.3302 60.8187 76.3302 60.7434C76.3302 60.5321 76.4125 60.3628 76.5772 60.2357C76.7419 60.1087 76.9611 60.0451 77.2347 60.0451C77.3527 60.0451 77.4753 60.0548 77.6023 60.0743C77.7307 60.0924 77.8643 60.1203 78.0031 60.1579L78.0031 60.6987C77.8812 60.6365 77.7657 60.5904 77.6568 60.5606C77.5479 60.5308 77.4415 60.5159 77.3378 60.5159C77.2379 60.5159 77.1601 60.5353 77.1044 60.5742C77.0499 60.6118 77.0227 60.6656 77.0227 60.7357C77.0227 60.7798 77.0382 60.8303 77.0693 60.8874C77.1018 60.9432 77.1491 61.0054 77.2113 61.0741M76.8243 61.5566C76.74 61.6175 76.6764 61.6869 76.6336 61.7647C76.5908 61.8412 76.5694 61.9255 76.5694 62.0176C76.5694 62.1667 76.6245 62.2938 76.7348 62.3988C76.845 62.5039 76.9773 62.5564 77.1316 62.5564C77.2185 62.5564 77.2995 62.5434 77.3747 62.5175C77.45 62.4903 77.52 62.4501 77.5848 62.3969L76.8243 61.5566M80.4463 62.0215C80.301 62.0215 80.1914 62.0461 80.1175 62.0954C80.0449 62.1447 80.0086 62.2173 80.0086 62.3132C80.0086 62.4014 80.0378 62.4708 80.0961 62.5214C80.1558 62.5707 80.2381 62.5953 80.3432 62.5953C80.4741 62.5953 80.5844 62.5486 80.6739 62.4553C80.7633 62.3606 80.8081 62.2426 80.8081 62.1012L80.8081 62.0215L80.4463 62.0215M81.5103 61.7589L81.5103 63.0019L80.8081 63.0019L80.8081 62.679C80.7147 62.8112 80.6097 62.9078 80.493 62.9688C80.3762 63.0284 80.2342 63.0583 80.0669 63.0583C79.8413 63.0583 79.6578 62.9928 79.5164 62.8618C79.3764 62.7295 79.3064 62.5583 79.3064 62.3483C79.3064 62.0928 79.3939 61.9054 79.569 61.7861C79.7453 61.6668 80.0216 61.6071 80.3976 61.6071L80.8081 61.6071L80.8081 61.5527C80.8081 61.4424 80.7646 61.362 80.6778 61.3115C80.5909 61.2596 80.4553 61.2336 80.2712 61.2336C80.1221 61.2336 79.9833 61.2486 79.8549 61.2784C79.7265 61.3082 79.6072 61.353 79.497 61.4126L79.497 60.8816C79.6461 60.8452 79.7959 60.818 79.9463 60.7999C80.0968 60.7804 80.2472 60.7707 80.3976 60.7707C80.7906 60.7707 81.0739 60.8485 81.2477 61.0041C81.4228 61.1584 81.5103 61.41 81.5103 61.7589M83.9224 60.8913L83.9224 61.4593C83.8277 61.3945 83.7324 61.3465 83.6364 61.3153C83.5418 61.2842 83.4432 61.2687 83.3408 61.2687C83.1462 61.2687 82.9945 61.3257 82.8856 61.4398C82.778 61.5527 82.7241 61.7109 82.7241 61.9145C82.7241 62.1181 82.778 62.2769 82.8856 62.3911C82.9945 62.5039 83.1462 62.5603 83.3408 62.5603C83.4497 62.5603 83.5528 62.5441 83.6501 62.5117C83.7486 62.4792 83.8394 62.4313 83.9224 62.3677L83.9224 62.9377C83.8135 62.9779 83.7026 63.0077 83.5898 63.0271C83.4782 63.0479 83.3661 63.0583 83.2532 63.0583C82.8603 63.0583 82.553 62.9578 82.3312 62.7568C82.1094 62.5545 81.9986 62.2737 81.9986 61.9145C81.9986 61.5553 82.1094 61.2751 82.3312 61.0741C82.553 60.8718 82.8603 60.7707 83.2532 60.7707C83.3674 60.7707 83.4795 60.7811 83.5898 60.8018C83.7013 60.8213 83.8122 60.8511 83.9224 60.8913M86.2878 60.8913L86.2878 61.4593C86.1931 61.3945 86.0978 61.3465 86.0018 61.3153C85.9072 61.2842 85.8086 61.2687 85.7062 61.2687C85.5116 61.2687 85.3599 61.3257 85.251 61.4398C85.1433 61.5527 85.0895 61.7109 85.0895 61.9145C85.0895 62.1181 85.1433 62.2769 85.251 62.3911C85.3599 62.5039 85.5116 62.5603 85.7062 62.5603C85.8151 62.5603 85.9182 62.5441 86.0155 62.5117C86.114 62.4792 86.2048 62.4313 86.2878 62.3677L86.2878 62.9377C86.1789 62.9779 86.068 63.0077 85.9552 63.0271C85.8436 63.0479 85.7315 63.0583 85.6186 63.0583C85.2257 63.0583 84.9184 62.9578 84.6966 62.7568C84.4748 62.5545 84.364 62.2737 84.364 61.9145C84.364 61.5553 84.4748 61.2751 84.6966 61.0741C84.9184 60.8718 85.2257 60.7707 85.6186 60.7707C85.7328 60.7707 85.8449 60.7811 85.9552 60.8018C86.0667 60.8213 86.1776 60.8511 86.2878 60.8913M89.0675 61.9067L89.0675 62.1051L87.4394 62.1051C87.4562 62.2685 87.5152 62.3911 87.6164 62.4728C87.7175 62.5545 87.8589 62.5953 88.0404 62.5953C88.187 62.5953 88.3368 62.5739 88.4898 62.5311C88.6441 62.487 88.8023 62.4209 88.9644 62.3327L88.9644 62.8696C88.7997 62.9318 88.635 62.9785 88.4703 63.0096C88.3056 63.0421 88.1409 63.0583 87.9763 63.0583C87.582 63.0583 87.2753 62.9584 87.0562 62.7587C86.8383 62.5577 86.7294 62.2763 86.7294 61.9145C86.7294 61.5591 86.8363 61.2797 87.0503 61.0761C87.2656 60.8725 87.5613 60.7707 87.9373 60.7707C88.2797 60.7707 88.5533 60.8738 88.7582 61.08C88.9644 61.2862 89.0675 61.5617 89.0675 61.9067M88.3517 61.6752C88.3517 61.5429 88.3128 61.4366 88.235 61.3562C88.1585 61.2745 88.058 61.2336 87.9335 61.2336C87.7986 61.2336 87.689 61.2719 87.6047 61.3484C87.5204 61.4236 87.4679 61.5326 87.4472 61.6752L88.3517 61.6752M90.2891 62.6867L90.2891 63.8305L89.5927 63.8305L89.5927 60.8232L90.2891 60.8232L90.2891 61.1422C90.3851 61.0151 90.4914 60.9218 90.6082 60.8621C90.7249 60.8012 90.8591 60.7707 91.0108 60.7707C91.2793 60.7707 91.4997 60.8777 91.6722 61.0916C91.8447 61.3043 91.9309 61.5786 91.9309 61.9145C91.9309 62.2504 91.8447 62.5253 91.6722 62.7393C91.4997 62.9519 91.2793 63.0583 91.0108 63.0583C90.8591 63.0583 90.7249 63.0284 90.6082 62.9688C90.4914 62.9078 90.3851 62.8138 90.2891 62.6867M90.7521 61.2764C90.603 61.2764 90.4882 61.3316 90.4078 61.4418C90.3287 61.5507 90.2891 61.7083 90.2891 61.9145C90.2891 62.1207 90.3287 62.2789 90.4078 62.3891C90.4882 62.498 90.603 62.5525 90.7521 62.5525C90.9012 62.5525 91.0147 62.498 91.0925 62.3891C91.1716 62.2802 91.2112 62.122 91.2112 61.9145C91.2112 61.707 91.1716 61.5488 91.0925 61.4398C91.0147 61.3309 90.9012 61.2764 90.7521 61.2764M93.2089 60.2046L93.2089 60.8232L93.9267 60.8232L93.9267 61.3212L93.2089 61.3212L93.2089 62.2452C93.2089 62.3463 93.229 62.415 93.2692 62.4514C93.3094 62.4864 93.3892 62.5039 93.5085 62.5039L93.8664 62.5039L93.8664 63.0019L93.2692 63.0019C92.9943 63.0019 92.7991 62.9448 92.6837 62.8307C92.5696 62.7153 92.5125 62.5201 92.5125 62.2452L92.5125 61.3212L92.1663 61.3212L92.1663 60.8232L92.5125 60.8232L92.5125 60.2046L93.2089 60.2046"  />
    <g id="g5959">
      <path id="path2275" fill="url(#defitem497)" stroke-width="0.642027" d="M79.2861 83.2453L54.1113 100.037L52.8514 89.0393C52.961 90.001 53.0707 90.962 53.1809 91.9233C34.3938 94.1862 21.8432 111.109 20.5345 113.242C19.4667 110.542 25.4209 87.2409 51.9378 81.0647L51.0018 72.891L79.2861 83.2453Z"  />
      <g id="g3579">
        <path id="path3269" fill="none" stroke="#000000" stroke-width="2.56811" stroke-linejoin="round" d="M72.2716 78.5766L50.0556 97.4633L48.3783 83.8828C48.5245 85.0703 48.6707 86.2568 48.8173 87.4439C31.7478 88.9391 21.0806 108.847 19.986 111.374C18.8807 107.99 23.2121 79.8056 47.1622 74.0359L45.916 63.9432L72.2716 78.5766Z"  />
        <path id="path8" fill="url(#defitem498)" stroke-width="0.642027" d="M72.3181 79.9055L50.1021 98.7923L48.4249 85.2118C48.571 86.3993 48.7172 87.5858 48.8639 88.7729C31.7944 90.2681 21.1272 110.176 20.0325 112.704C18.9272 109.319 23.2586 81.1346 47.2088 75.3649L45.9626 65.2722L72.3181 79.9055Z"  />
      </g>
    </g>
    <path id="path1987" fill="#ffffff" fill-opacity="0.756881" stroke-width="0.5" stroke-linecap="round" stroke-linejoin="round" d="M125.369 -227.902L125.369 -230.696L125.369 -227.902Z"  />
    <path id="path1747" fill="#ffffff" fill-opacity="0.756881" stroke-width="0.5" stroke-linecap="round" stroke-linejoin="round" d="M173.165 -343.226L173.165 -346.02L173.165 -343.226Z"  />
    <path fill="#ffffff" stroke-width="3.632" stroke-linecap="round" stroke-linejoin="round" d="M162.018 -315.483L162.018 -315.483L163.018 -315.483L163.018 -315.483L162.018 -315.483Z"  />
    <path id="path10038" fill="#000000" stroke="#000000" d="M97.2699 60.0211C95.9526 60.0241 94.4901 60.1279 92.8825 60.3323C91.0694 60.5628 89.0548 60.9149 86.8388 61.3887C84.8579 61.8369 82.9777 62.3299 81.1982 62.8677C79.4523 63.3928 77.7902 63.9819 76.2122 64.635C73.0561 65.9156 71.4278 66.9657 71.327 67.7852C71.2263 68.6304 71.9817 69.1106 73.5933 69.2259C74.4327 69.2899 75.4399 69.2515 76.6151 69.1107C77.018 69.0723 77.2195 69.021 77.2195 68.9569C77.2195 68.8801 77.018 68.8545 76.6151 68.8801C76.145 68.9186 75.6415 68.9377 75.1043 68.9377C74.6006 68.9249 74.097 68.8994 73.5933 68.8609C72.7204 68.7969 72.2839 68.592 72.2839 68.2463C72.2839 67.2858 73.9627 66.146 77.3203 64.827C78.8647 64.2123 80.5266 63.6489 82.3061 63.1366C84.0856 62.6244 86.033 62.1314 88.1483 61.6576C92.3452 60.7612 95.602 60.3387 97.9187 60.3899C100.37 60.4667 101.595 61.0366 101.595 62.0994C101.595 62.2787 101.545 62.4644 101.444 62.6565C101.377 62.8486 101.26 63.0471 101.092 63.252C99.6479 64.9936 94.8465 68.4255 86.6877 73.5478C86.6206 73.6118 86.5535 73.6695 86.4863 73.7207C86.4528 73.7592 86.4359 73.7975 86.4359 73.8359C86.4359 73.9768 86.6542 74.0473 87.0907 74.0473C87.5608 74.0473 87.9804 73.9448 88.3498 73.7399C88.8534 73.4198 89.5584 73.0228 90.465 72.549C91.405 72.0752 92.5635 71.5053 93.9401 70.8394C95.5853 70.0455 97.2305 69.3027 98.8757 68.6112C100.521 67.9197 102.2 67.2602 103.912 66.6327C108.142 65.1344 111.752 64.1419 114.74 63.6553C115.445 63.5401 116.049 63.4825 116.553 63.4825C117.325 63.4825 117.711 63.6169 117.712 63.8858C117.711 64.1035 117.527 64.3469 117.157 64.6158L109.855 70.2632C109.318 70.6858 108.663 71.2556 107.891 71.9728C107.118 72.6899 106.296 73.471 105.423 74.3162C104.583 75.1742 103.744 76.0513 102.905 76.9478C102.065 77.857 101.31 78.7022 100.638 79.4833C99.9669 80.2773 99.4128 80.9625 98.9764 81.5387C98.5957 82.0952 98.3799 82.4802 98.3289 82.6939C93.7729 84.526 90.7287 87.2465 89.2715 90.795C90.778 88.5134 95.0579 85.1516 98.9171 83.5883C98.92 83.5902 98.923 83.5921 98.926 83.594C99.1274 83.7221 99.3625 83.8309 99.6312 83.9206C99.8997 84.0102 100.219 84.055 100.588 84.055C101.495 84.055 102.837 83.7862 104.617 83.2483C106.202 82.7548 107.288 82.3326 107.876 81.9817C116.624 77.6236 109.114 78.4969 99.3045 82.3079C99.3232 82.111 99.4153 81.8674 99.5807 81.5771C99.9501 81.0009 100.487 80.3157 101.192 79.5217C101.931 78.7278 102.787 77.8698 103.761 76.9478C104.768 76.0385 105.775 75.1486 106.783 74.2778C107.79 73.407 108.747 72.6066 109.653 71.8766C110.593 71.1467 111.366 70.5705 111.97 70.1479C113.145 69.2899 114.337 68.4511 115.546 67.6315C116.754 66.7991 117.963 65.9539 119.172 65.0959C119.239 65.0447 119.273 64.9808 119.273 64.9039C119.306 64.8271 119.323 64.7503 119.323 64.6734C119.323 64.4941 119.289 64.3212 119.222 64.1548C119.155 63.9755 118.887 63.7834 118.417 63.5785C118.047 63.412 117.695 63.284 117.359 63.1944C117.023 63.0919 116.62 63.0598 116.15 63.0982C113.195 63.2775 108.999 64.3853 103.559 66.4214C101.545 67.1641 99.6983 67.8813 98.0195 68.5728C96.3743 69.2643 94.8634 69.943 93.4868 70.6089C93.1846 70.8138 92.916 70.9162 92.681 70.9162C92.5466 70.9162 92.4796 70.8907 92.4796 70.8394C92.4796 70.7498 92.597 70.6345 92.832 70.4936C95.5181 68.7776 97.6165 67.3306 99.1275 66.1525C100.672 64.9615 101.679 64.0203 102.149 63.3288C102.317 63.0342 102.401 62.7397 102.401 62.4452C102.401 61.7665 102.015 61.2222 101.243 60.8124C100.403 60.313 99.2449 60.0504 97.7676 60.0248C97.6041 60.0219 97.4382 60.0207 97.2699 60.0211ZM110.694 79.448C111.472 79.4568 110.706 80.1539 107.618 81.7389C107.592 81.7486 107.566 81.7587 107.538 81.7692C104.046 83.0881 101.595 83.7476 100.185 83.7477C99.7509 83.7476 99.4922 83.6222 99.409 83.3713C104.892 80.9674 109.527 79.4348 110.694 79.448Z"  fill-rule="evenodd" />
    <g id="g7894">
      <path id="path4759" fill="url(#defitem499)" d="M95.1592 61.6909C93.8418 61.6939 92.3794 61.7977 90.7717 62.0021C88.9586 62.2326 86.9441 62.5847 84.7281 63.0585C82.7471 63.5067 80.8669 63.9997 79.0875 64.5375C77.3415 65.0626 75.6795 65.6517 74.1015 66.3048C70.9454 67.5854 69.317 68.6355 69.2163 69.455C69.1156 70.3002 69.871 70.7804 71.4826 70.8957C72.322 70.9597 73.3292 70.9213 74.5044 70.7805C74.9073 70.7421 75.1087 70.6908 75.1087 70.6268C75.1087 70.5499 74.9073 70.5243 74.5044 70.55C74.0343 70.5884 73.5307 70.6076 72.9935 70.6076C72.4899 70.5948 71.9862 70.5692 71.4826 70.5307C70.6097 70.4667 70.1732 70.2619 70.1732 69.9161C70.1732 68.9557 71.852 67.8158 75.2095 66.4968C76.754 65.8822 78.4159 65.3187 80.1954 64.8065C81.9749 64.2942 83.9223 63.8012 86.0375 63.3274C90.2344 62.431 93.4913 62.0085 95.808 62.0597C98.259 62.1365 99.4845 62.7064 99.4845 63.7693C99.4845 63.9486 99.4341 64.1342 99.3334 64.3263C99.2662 64.5184 99.1488 64.7169 98.981 64.9218C97.5372 66.6634 92.7358 70.0953 84.577 75.2176C84.5098 75.2817 84.4428 75.3393 84.3756 75.3905C84.342 75.429 84.3252 75.4673 84.3252 75.5058C84.3252 75.6466 84.5435 75.7171 84.98 75.7171C85.45 75.7171 85.8697 75.6146 86.239 75.4097C86.7426 75.0896 87.4477 74.6926 88.3542 74.2188C89.2943 73.745 90.4528 73.1752 91.8294 72.5093C93.4746 71.7153 95.1197 70.9725 96.765 70.281C98.4101 69.5895 100.089 68.93 101.801 68.3025C106.032 66.8042 109.641 65.8117 112.629 65.3251C113.334 65.2099 113.939 65.1523 114.442 65.1523C115.215 65.1523 115.601 65.2867 115.601 65.5556C115.601 65.7733 115.416 66.0167 115.047 66.2856L107.744 71.933C107.207 72.3556 106.552 72.9254 105.78 73.6426C105.008 74.3597 104.185 75.1408 103.312 75.986C102.473 76.844 101.633 77.7212 100.794 78.6176C99.9545 79.5268 99.1992 80.372 98.5277 81.1531C97.8561 81.9471 97.3021 82.6323 96.8656 83.2086C96.485 83.765 96.2692 84.1501 96.2182 84.3637C91.6621 86.1958 88.618 88.9163 87.1608 92.4648C88.6673 90.1832 92.9472 86.8214 96.8063 85.2581C96.8093 85.26 96.8123 85.262 96.8152 85.2639C97.0167 85.3919 97.2518 85.5007 97.5204 85.5904C97.789 85.68 98.1079 85.7248 98.4773 85.7248C99.3838 85.7248 100.727 85.456 102.506 84.9181C104.091 84.4246 105.178 84.0024 105.765 83.6515C114.513 79.2934 107.004 80.1667 97.1938 83.9777C97.2125 83.7808 97.3046 83.5372 97.47 83.247C97.8393 82.6707 98.3765 81.9855 99.0816 81.1915C99.8203 80.3976 100.676 79.5396 101.65 78.6176C102.657 77.7084 103.665 76.8184 104.672 75.9476C105.679 75.0768 106.636 74.2764 107.543 73.5464C108.483 72.8165 109.255 72.2403 109.859 71.8177C111.034 70.9597 112.226 70.1209 113.435 69.3013C114.644 68.4689 115.853 67.6238 117.061 66.7658C117.128 66.7145 117.162 66.6506 117.162 66.5737C117.196 66.4969 117.212 66.4201 117.212 66.3432C117.212 66.1639 117.179 65.991 117.112 65.8246C117.044 65.6453 116.776 65.4532 116.306 65.2483C115.936 65.0818 115.584 64.9538 115.248 64.8642C114.912 64.7617 114.509 64.7296 114.039 64.7681C111.085 64.9473 106.888 66.0551 101.449 68.0912C99.4342 68.8339 97.5875 69.5511 95.9088 70.2426C94.2636 70.9341 92.7527 71.6128 91.3761 72.2787C91.0739 72.4836 90.8052 72.5861 90.5702 72.5861C90.4359 72.5861 90.3688 72.5605 90.3689 72.5093C90.3688 72.4196 90.4863 72.3043 90.7213 72.1634C93.4073 70.4474 95.5058 69.0004 97.0167 67.8223C98.5612 66.6313 99.5684 65.6901 100.038 64.9986C100.206 64.7041 100.29 64.4095 100.29 64.115C100.29 63.4363 99.9043 62.892 99.132 62.4822C98.2926 61.9828 97.1342 61.7203 95.6569 61.6946C95.4933 61.6917 95.3274 61.6905 95.1592 61.6909ZM108.583 81.1178C109.362 81.1266 108.595 81.8237 105.508 83.4087C105.482 83.4184 105.455 83.4285 105.427 83.439C101.935 84.758 99.4845 85.4175 98.0744 85.4175C97.6402 85.4175 97.3815 85.292 97.2982 85.0411C102.781 82.6372 107.416 81.1046 108.583 81.1178Z"  fill-rule="evenodd" />
      <path id="path2276" fill="#ffffff" fill-opacity="0.756881" stroke-width="0.5" stroke-linecap="round" stroke-linejoin="round" d="M89.1603 28.1582L89.1603 26.653L89.1603 28.1582Z"  />
      <path fill="url(#defitem500)" stroke-width="0.8" stroke-linecap="round" stroke-linejoin="round" d="M81.411 82.8627C81.0356 83.0065 80.6311 82.8625 80.5081 82.5414L72.8979 62.674C72.7748 62.3528 72.9797 61.9754 73.355 61.8316L77.9807 60.0598C78.3561 59.916 78.7606 60.0599 78.8836 60.3811L86.4938 80.2485C86.6168 80.5697 86.412 80.9471 86.0367 81.0909L81.411 82.8627Z"  />
      <path fill="url(#defitem501)" stroke-width="0.8" stroke-linecap="round" stroke-linejoin="round" d="M69.7627 51.5494C69.3873 51.6932 68.9828 51.5492 68.8598 51.228L61.9424 33.1694C61.8194 32.8482 62.0242 32.4708 62.3996 32.327L66.5105 30.7523C66.8858 30.6086 67.2903 30.7525 67.4134 31.0737L74.3307 49.1324C74.4538 49.4536 74.249 49.8309 73.8736 49.9747L69.7627 51.5494Z"  />
      <path fill="url(#defitem502)" stroke-width="0.8" stroke-linecap="round" stroke-linejoin="round" d="M81.411 82.8627C81.0356 83.0065 80.6311 82.8625 80.5081 82.5414L72.8979 62.674C72.7748 62.3528 72.9797 61.9754 73.355 61.8316L77.9807 60.0598C78.3561 59.916 78.7606 60.0599 78.8836 60.3811L86.4938 80.2485C86.6168 80.5697 86.412 80.9471 86.0367 81.0909L81.411 82.8627Z"  />
      <path fill="url(#defitem503)" stroke-width="0.8" stroke-linecap="round" stroke-linejoin="round" d="M78.5258 78.0896L62.371 35.9156L68.9291 33.4035L85.0839 75.5776L78.5258 78.0896Z"  />
      <path fill="url(#defitem504)" stroke-width="0.8" stroke-linecap="round" stroke-linejoin="round" d="M63.0612 35.6525L62.0694 33.0633L67.3438 31.0429L68.3356 33.6322L63.0612 35.6525Z"  />
      <path fill="url(#defitem505)" stroke-width="0.8" stroke-linecap="round" stroke-linejoin="round" d="M62.8012 33.3755C62.4258 33.5192 62.0312 33.4011 61.9204 33.1117C61.8095 32.8224 62.0242 32.4708 62.3996 32.327L66.5105 30.7523C66.8858 30.6086 67.2805 30.7267 67.3913 31.0161C67.5021 31.3055 67.2874 31.657 66.9121 31.8008L62.8012 33.3755Z"  />
      <path fill="url(#defitem506)" stroke-width="0.8" stroke-linecap="round" stroke-linejoin="round" d="M62.5942 36.4983L62.371 35.9156L68.9291 33.4035L69.1523 33.9862L62.5942 36.4983Z"  />
      <path fill="url(#defitem507)" stroke-width="0.8" stroke-linecap="round" stroke-linejoin="round" d="M78.6941 78.0248L65.5397 43.6834L71.8911 41.2505L85.0455 75.5919L78.6941 78.0248Z"  />
      <path fill="url(#defitem508)" stroke-width="0.773064" stroke-linecap="round" stroke-linejoin="round" d="M78.3258 56.2041L70.0772 35.5224L68.3656 36.4162L76.6141 57.098L78.3258 56.2041Z"  />
      <path fill="url(#defitem509)" stroke-width="0.8" stroke-linecap="round" stroke-linejoin="round" d="M68.6113 36.563L69.2322 36.3252L70.0265 38.3989L69.4056 38.6367L68.6113 36.563Z"  />
      <g id="g3828">
        <path id="rect2826" fill="url(#defitem510)" stroke-width="0.276391" stroke-linecap="round" stroke-linejoin="round" d="M70.302 34.5609L78.53 56.0411L78.5161 56.0464L78.5478 56.1291C78.5496 56.1336 78.5543 56.1462 78.5569 56.1527C78.558 56.1557 78.5607 56.1622 78.5614 56.1645C78.5629 56.1686 78.5683 56.1833 78.5705 56.1881C78.571 56.1897 78.5746 56.1986 78.575 56.2C78.5755 56.2106 78.5742 56.2322 78.5748 56.2407C78.5749 56.244 78.5792 56.2492 78.5793 56.2525C78.5787 56.3284 78.5532 56.4229 78.5136 56.4945C78.5029 56.5129 78.485 56.5343 78.4719 56.5511C78.4679 56.5549 78.4529 56.5696 78.4489 56.5734C78.4429 56.5793 78.4296 56.592 78.4258 56.5958C78.4206 56.6008 78.4081 56.6134 78.4027 56.6182C78.3987 56.6222 78.3836 56.6367 78.3796 56.6406C78.3708 56.6472 78.3519 56.6623 78.3427 56.6683C78.3379 56.6701 78.3199 56.6772 78.3151 56.6789L77.2509 57.2491C77.2446 57.2531 77.2342 57.2668 77.2278 57.2715C77.2257 57.2731 77.2161 57.2753 77.214 57.2768C77.2119 57.2782 77.2023 57.281 77.2002 57.2821C77.1977 57.283 77.1892 57.2866 77.1864 57.2874C77.1738 57.2901 77.153 57.2894 77.1404 57.2914C77.1376 57.2919 77.1291 57.2962 77.1266 57.2967C77.1218 57.2987 77.1038 57.3054 77.099 57.3073C77.0934 57.3071 77.0725 57.3064 77.0669 57.3061C77.0657 57.3066 77.0544 57.3107 77.0531 57.3114C77.0467 57.3114 77.0272 57.3104 77.0209 57.3101C77.0177 57.3089 77.0058 57.3048 77.0026 57.3036C76.9949 57.3026 76.9793 57.3036 76.9704 57.3024C76.9683 57.302 76.9541 57.2962 76.9521 57.2958C76.9492 57.295 76.9366 57.2902 76.9338 57.2893C76.9309 57.2883 76.9182 57.2838 76.9154 57.2828C76.9127 57.2816 76.8998 57.2775 76.8971 57.2763C76.8938 57.2751 76.882 57.2709 76.8788 57.2697C76.8749 57.2667 76.8597 57.2546 76.8559 57.2514C76.8511 57.248 76.8377 57.2367 76.833 57.233C76.8297 57.2302 76.8162 57.2195 76.8102 57.2147C76.8007 57.2038 76.7861 57.1835 76.7783 57.1727C76.7762 57.1712 76.7624 57.1678 76.7599 57.1662L76.7418 57.1189C76.7406 57.116 76.7385 57.1102 76.7373 57.1071L76.6106 56.7763L68.3504 35.4464L70.302 34.5609ZM76.7286 53.7774C76.7266 53.7783 76.7215 53.7934 76.7193 53.7945C76.7125 53.7984 76.6981 53.8014 76.6917 53.8051C76.6788 53.812 76.6529 53.8293 76.641 53.8381C76.6193 53.8557 76.5898 53.8814 76.5717 53.9053C76.4057 54.1411 76.3972 54.6483 76.5831 55.1338C76.7691 55.6194 77.0948 55.9403 77.3547 55.9493C77.3818 55.9491 77.4211 55.9487 77.4466 55.9412C77.4604 55.935 77.486 55.9142 77.4973 55.9082C77.5247 55.8899 77.5596 55.8598 77.5804 55.8358C77.7606 55.6098 77.7742 55.1016 77.5828 54.6019C77.4033 54.1334 77.092 53.8059 76.8389 53.7758C76.8263 53.7748 76.8052 53.7794 76.7929 53.7799C76.7855 53.7801 76.7684 53.7787 76.7608 53.7787C76.7582 53.7787 76.7494 53.7837 76.747 53.7839C76.7458 53.7842 76.7298 53.7771 76.7286 53.7774Z"  />
        <path id="path3792" fill="url(#defitem511)" stroke-width="0.276391" stroke-linecap="round" stroke-linejoin="round" d="M78.5571 56.112L78.53 56.0411L78.5161 56.0464L78.5478 56.1291C78.5496 56.1336 78.5543 56.1462 78.5569 56.1527C78.558 56.1557 78.5607 56.1622 78.5614 56.1645C78.5629 56.1686 78.5683 56.1833 78.5705 56.1881C78.571 56.1897 78.5746 56.1986 78.575 56.2C78.5755 56.2106 78.5742 56.2322 78.5748 56.2407C78.5749 56.244 78.5792 56.2492 78.5793 56.2525C78.5787 56.3284 78.5532 56.4229 78.5136 56.4945C78.5029 56.5129 78.485 56.5343 78.4719 56.5511C78.4679 56.5549 78.4529 56.5696 78.4489 56.5734C78.4429 56.5793 78.4296 56.592 78.4258 56.5958C78.4206 56.6008 78.4081 56.6134 78.4027 56.6182C78.3987 56.6222 78.3836 56.6367 78.3796 56.6406C78.3708 56.6472 78.3519 56.6623 78.3427 56.6683C78.3379 56.6701 78.3199 56.6772 78.3151 56.6789L77.2509 57.2491C77.2446 57.2531 77.2342 57.2668 77.2278 57.2715C77.2257 57.2731 77.2161 57.2753 77.214 57.2768C77.2119 57.2782 77.2023 57.281 77.2002 57.2821C77.1977 57.283 77.1892 57.2866 77.1864 57.2874C77.1738 57.2901 77.153 57.2894 77.1404 57.2914C77.1376 57.2919 77.1291 57.2962 77.1266 57.2967C77.1218 57.2987 77.1038 57.3054 77.099 57.3073C77.0934 57.3071 77.0725 57.3064 77.0669 57.3061C77.0657 57.3066 77.0544 57.3107 77.0531 57.3114C77.0467 57.3114 77.0272 57.3104 77.0209 57.3101C77.0177 57.3089 77.0058 57.3048 77.0026 57.3036C76.9949 57.3026 76.9793 57.3036 76.9704 57.3024C76.9683 57.302 76.9541 57.2962 76.9521 57.2958C76.9492 57.295 76.9366 57.2902 76.9338 57.2893C76.9309 57.2883 76.9182 57.2838 76.9154 57.2828C76.9127 57.2816 76.8998 57.2775 76.8971 57.2763C76.8938 57.2751 76.882 57.2709 76.8788 57.2697C76.8749 57.2667 76.8597 57.2546 76.8559 57.2514C76.8511 57.248 76.8377 57.2367 76.833 57.233C76.8297 57.2302 76.8162 57.2195 76.8102 57.2147C76.8007 57.2038 76.7861 57.1835 76.7783 57.1727C76.7762 57.1712 76.7624 57.1678 76.7599 57.1662L76.7418 57.1189C76.7406 57.116 76.7385 57.1102 76.7373 57.1071L76.6106 56.7763L76.7283 57.0835L78.5571 56.112Z"  />
      </g>
      <path id="path3897" fill="url(#defitem512)" stroke-width="0.296606" stroke-linecap="round" stroke-linejoin="round" d="M87.5874 91.8848C87.7288 91.898 87.8194 92.0125 87.7897 92.1405C87.7601 92.2686 87.6213 92.3617 87.4799 92.3485C87.3385 92.3353 87.2479 92.2208 87.2776 92.0928C87.3073 91.9647 87.446 91.8716 87.5874 91.8848Z"  />
      <path id="path2902" fill="url(#defitem513)" stroke-width="0.296606" stroke-linecap="round" stroke-linejoin="round" d="M87.5874 91.8848C87.7288 91.898 87.8194 92.0125 87.7897 92.1405C87.7601 92.2686 87.6213 92.3617 87.4799 92.3485C87.3385 92.3353 87.2479 92.2208 87.2776 92.0928C87.3073 91.9647 87.446 91.8716 87.5874 91.8848Z"  />
      <g id="g3953">
        <path fill="url(#defitem514)" stroke-width="0.0804047" stroke-linecap="round" stroke-linejoin="round" d="M86.1034 90.3445C85.9942 90.3864 85.8765 90.3445 85.8407 90.251L83.6268 84.4715C83.591 84.378 83.6506 84.2682 83.7598 84.2264L85.1055 83.711C85.2147 83.6691 85.3323 83.711 85.3681 83.8044L87.582 89.584C87.6178 89.6775 87.5582 89.7873 87.449 89.8291L86.1034 90.3445Z"  />
        <path id="path3947" fill="url(#defitem515)" stroke-width="0.0804047" stroke-linecap="round" stroke-linejoin="round" d="M87.2705 92.2257C86.6976 91.443 85.9285 90.3827 85.8552 90.2822C85.8552 90.2822 87.5922 89.6276 87.5922 89.6279C87.603 89.7514 87.7174 91.0457 87.8024 92.018L87.2705 92.2257Z"  />
        <path id="path3949" fill="url(#defitem516)" stroke-width="0.0804047" stroke-linecap="round" stroke-linejoin="round" d="M87.2705 92.2257C86.6976 91.443 85.9285 90.3827 85.8552 90.2822C85.8552 90.2822 87.1883 89.9891 87.1883 89.9894C87.1991 90.1129 87.7174 91.0457 87.8024 92.018L87.2705 92.2257Z"  />
        <path id="path3951" fill="url(#defitem517)" stroke-width="0.0804047" stroke-linecap="round" stroke-linejoin="round" d="M87.804 92.0171C87.7073 91.052 87.3999 89.8927 87.2608 89.9287L85.8357 90.2977L87.2711 92.2259L87.804 92.0171Z"  />
      </g>
      <path id="path3836" fill="url(#defitem518)" stroke-width="0.8" stroke-linecap="round" stroke-linejoin="round" d="M85.4229 89.3293C83.4537 86.6385 80.8099 82.9937 80.5577 82.6484C80.5579 82.6483 86.5288 80.398 86.5289 80.3993C86.5659 80.8239 86.9593 85.273 87.2512 88.6153L85.4229 89.3293Z"  />
      <path id="path1701" fill="url(#defitem519)" stroke-width="0.8" stroke-linecap="round" stroke-linejoin="round" d="M87.2442 88.6352L86.4948 80.4395L80.5014 82.6552L85.4067 89.3255L87.2442 88.6352Z"  />
      <path id="path3875" fill="url(#defitem520)" stroke-width="0.8" stroke-linecap="round" stroke-linejoin="round" d="M85.4156 89.3202C83.4465 86.6294 80.8026 82.9847 80.5505 82.6394C80.5506 82.6393 86.5216 80.389 86.5217 80.3902C86.5587 80.8148 86.9521 85.2639 87.244 88.6063L85.4156 89.3202Z"  />
      <path id="path1705" fill="url(#defitem521)" stroke-width="0.8" stroke-linecap="round" stroke-linejoin="round" d="M87.3181 88.6126L86.5688 80.4168L80.5753 82.6325L85.4807 89.3028L87.3181 88.6126Z"  />
      <path id="path3937" fill="url(#defitem522)" stroke-width="0.8" stroke-linecap="round" stroke-linejoin="round" d="M87.3244 88.5162L86.5005 80.4307L80.5788 82.6408L85.4432 89.314L87.3244 88.5162Z"  />
      <path id="rect2592" fill="url(#defitem523)" stroke-width="0.8" stroke-linecap="round" stroke-linejoin="round" d="M84.684 75.8065L80.1165 78.9998L80.5228 82.6035L86.422 80.3438L84.684 75.8065Z"  />
      <path fill="#dfdfdf" stroke-width="5.8" d="M73.5983 65.1769L80.1713 62.6592L83.9138 72.4295L77.3408 74.9473L73.5983 65.1769Z"  />
    </g>
  </g>
</svg>
