<?xml version="1.0" standalone="no"?>
<!DOCTYPE svg PUBLIC "-//W3C//DTD SVG 20010904//EN" "http://www.w3.org/TR/2001/REC-SVG-20010904/DTD/svg10.dtd">
<!-- Created using Karbon14, part of koffice: http://www.koffice.org/karbon -->
<svg xmlns="http://www.w3.org/2000/svg" xmlns:xlink="http://www.w3.org/1999/xlink" width="128px" height="128px">
  <defs>
    <radialGradient id="defitem0" gradientUnits="userSpaceOnUse" cx="89.5034" cy="49.0148" fx="89.5034" fy="49.0148" r="0.897368" >
      <stop stop-color="#ffffff" offset="0" stop-opacity="1" />
      <stop stop-color="#ffffff" offset="1" stop-opacity="0" />
    </radialGradient>
    <radialGradient id="defitem1" gradientUnits="userSpaceOnUse" cx="363.763" cy="24.748" fx="363.763" fy="24.748" r="1.17023" >
      <stop stop-color="#ffffff" offset="0" stop-opacity="1" />
      <stop stop-color="#ffffff" offset="1" stop-opacity="0" />
    </radialGradient>
    <radialGradient id="defitem2" gradientUnits="userSpaceOnUse" cx="41.1713" cy="101.341" fx="41.1713" fy="101.341" r="26.9267" >
      <stop stop-color="#313131" offset="0" stop-opacity="0.801802" />
      <stop stop-color="#7e7e7e" offset="1" stop-opacity="0" />
    </radialGradient>
    <linearGradient id="defitem3" gradientUnits="userSpaceOnUse" x1="43.7638" y1="63.8952" x2="105.712" y2="63.8952" >
      <stop stop-color="#545454" offset="0" stop-opacity="0.759494" />
      <stop stop-color="#666666" offset="0.5" stop-opacity="0.240506" />
      <stop stop-color="#333333" offset="0.898745" stop-opacity="0.810127" />
    </linearGradient>
    <linearGradient id="defitem4" gradientUnits="userSpaceOnUse" x1="74.7379" y1="37.9434" x2="74.7379" y2="62.4545" >
      <stop stop-color="#e1e1e1" offset="0" stop-opacity="1" />
      <stop stop-color="#f8f8f8" offset="0.454743" stop-opacity="1" />
      <stop stop-color="#ffffff" offset="1" stop-opacity="1" />
    </linearGradient>
    <linearGradient id="defitem5" gradientUnits="userSpaceOnUse" x1="106.432" y1="48.7683" x2="45.271" y2="48.7683" >
      <stop stop-color="#626262" offset="0" stop-opacity="1" />
      <stop stop-color="#7b7b7b" offset="0.1235" stop-opacity="1" />
      <stop stop-color="#bfbfbf" offset="0.2759" stop-opacity="1" />
      <stop stop-color="#b6b6b6" offset="0.401607" stop-opacity="1" />
      <stop stop-color="#bfbfbf" offset="0.669785" stop-opacity="1" />
      <stop stop-color="#595959" offset="1" stop-opacity="1" />
    </linearGradient>
    <radialGradient id="defitem6" gradientUnits="userSpaceOnUse" cx="74.7374" cy="50.3103" fx="74.7374" fy="50.3103" r="68.6146" >
      <stop stop-color="#000000" offset="0" stop-opacity="0" />
      <stop stop-color="#000000" offset="0.555562" stop-opacity="0.348101" />
      <stop stop-color="#000000" offset="0.840157" stop-opacity="0.740506" />
      <stop stop-color="#000000" offset="1" stop-opacity="1" />
    </radialGradient>
    <linearGradient id="defitem7" gradientUnits="userSpaceOnUse" x1="74.7379" y1="37.9434" x2="74.7379" y2="62.4545" >
      <stop stop-color="#e1e1e1" offset="0" stop-opacity="1" />
      <stop stop-color="#f8f8f8" offset="0.454743" stop-opacity="1" />
      <stop stop-color="#ffffff" offset="1" stop-opacity="1" />
    </linearGradient>
    <linearGradient id="defitem8" gradientUnits="userSpaceOnUse" x1="43.0435" y1="86.1239" x2="106.432" y2="86.1239" >
      <stop stop-color="#666666" offset="0" stop-opacity="1" />
      <stop stop-color="#ffffff" offset="0.271304" stop-opacity="1" />
      <stop stop-color="#cacaca" offset="0.45939" stop-opacity="1" />
      <stop stop-color="#ffffff" offset="0.653317" stop-opacity="1" />
      <stop stop-color="#f0f0f0" offset="0.765595" stop-opacity="1" />
      <stop stop-color="#666666" offset="1" stop-opacity="1" />
    </linearGradient>
    <linearGradient id="defitem9" gradientUnits="userSpaceOnUse" x1="15.5244" y1="133.547" x2="54.2386" y2="85.165" >
      <stop stop-color="#545454" offset="0" stop-opacity="0.759494" />
      <stop stop-color="#666666" offset="0.5" stop-opacity="0.240506" />
      <stop stop-color="#333333" offset="0.898745" stop-opacity="0.810127" />
    </linearGradient>
    <linearGradient id="defitem10" gradientUnits="userSpaceOnUse" x1="14.6131" y1="93.1374" x2="33.7564" y2="108.456" >
      <stop stop-color="#e1e1e1" offset="0" stop-opacity="1" />
      <stop stop-color="#f8f8f8" offset="0.454743" stop-opacity="1" />
      <stop stop-color="#ffffff" offset="1" stop-opacity="1" />
    </linearGradient>
    <linearGradient id="defitem11" gradientUnits="userSpaceOnUse" x1="6.02346" y1="122.356" x2="41.2364" y2="78.3494" >
      <stop stop-color="#cccccc" offset="0" stop-opacity="1" />
      <stop stop-color="#ffffff" offset="0.4664" stop-opacity="0" />
      <stop stop-color="#cdcdcd" offset="1" stop-opacity="1" />
    </linearGradient>
    <linearGradient id="defitem12" gradientUnits="userSpaceOnUse" x1="27.0056" y1="103.053" x2="17.7796" y2="95.6708" >
      <stop stop-color="#878787" offset="0" stop-opacity="1" />
      <stop stop-color="#bfbfbf" offset="0.4525" stop-opacity="1" />
      <stop stop-color="#c3c3c3" offset="0.5917" stop-opacity="1" />
      <stop stop-color="#b6b6b6" offset="0.866" stop-opacity="1" />
      <stop stop-color="#7b7b7b" offset="0.9678" stop-opacity="1" />
      <stop stop-color="#5d5d5d" offset="1" stop-opacity="1" />
    </linearGradient>
    <linearGradient id="defitem13" gradientUnits="userSpaceOnUse" x1="16.1719" y1="98.1407" x2="22.9943" y2="103.6" >
      <stop stop-color="#000000" offset="0" stop-opacity="1" />
      <stop stop-color="#000000" offset="1" stop-opacity="0" />
    </linearGradient>
    <linearGradient id="defitem14" gradientUnits="userSpaceOnUse" x1="16.1719" y1="98.1407" x2="22.9943" y2="103.6" >
      <stop stop-color="#000000" offset="0" stop-opacity="1" />
      <stop stop-color="#000000" offset="1" stop-opacity="0" />
    </linearGradient>
    <linearGradient id="defitem15" gradientUnits="userSpaceOnUse" x1="21.3394" y1="96.2956" x2="20.4393" y2="95.5754" >
      <stop stop-color="#878787" offset="0" stop-opacity="1" />
      <stop stop-color="#878787" offset="0.722377" stop-opacity="0.537975" />
      <stop stop-color="#bababa" offset="1" stop-opacity="0" />
    </linearGradient>
    <radialGradient id="defitem16" gradientUnits="userSpaceOnUse" cx="15.6473" cy="93.6067" fx="8.55117" fy="103.052" r="11.24" >
      <stop stop-color="#f8f8f8" offset="0.4083" stop-opacity="1" />
      <stop stop-color="#e1e1e1" offset="0.6036" stop-opacity="1" />
      <stop stop-color="#d4d4d4" offset="0.7515" stop-opacity="1" />
      <stop stop-color="#959595" offset="1" stop-opacity="1" />
    </radialGradient>
    <radialGradient id="defitem17" gradientUnits="userSpaceOnUse" cx="13.5035" cy="92.2496" fx="8.55117" fy="103.052" r="6.917" >
      <stop stop-color="#bababa" offset="0" stop-opacity="1" />
      <stop stop-color="#ffffff" offset="1" stop-opacity="0" />
    </radialGradient>
    <radialGradient id="defitem18" gradientUnits="userSpaceOnUse" cx="18.2565" cy="109.374" fx="18.2565" fy="109.374" r="3.4671" >
      <stop stop-color="#000000" offset="0" stop-opacity="1" />
      <stop stop-color="#000000" offset="1" stop-opacity="0" />
    </radialGradient>
    <radialGradient id="defitem19" gradientUnits="userSpaceOnUse" cx="31.2537" cy="93.1314" fx="31.2537" fy="93.1314" r="3.4671" >
      <stop stop-color="#000000" offset="0" stop-opacity="1" />
      <stop stop-color="#000000" offset="1" stop-opacity="0" />
    </radialGradient>
  </defs>
  <g id="Layer">
    <g id="g3232">
    </g>
    <g id="g4591">
    </g>
    <g id="g3342">
    </g>
    <path id="path19270" fill="url(#defitem0)" stroke-width="1.33452" stroke-linecap="round" stroke-linejoin="round" d=""  fill-rule="evenodd" />
    <g id="g8581">
    </g>
    <path id="path8601" fill="url(#defitem1)" stroke-width="1.7396" stroke-linecap="round" stroke-linejoin="round" d=""  fill-rule="evenodd" />
    <g id="g8797">
      <path id="path8787" fill="url(#defitem2)" stroke-width="27.0213" stroke-linecap="round" d="M68.098 101.341C68.098 116.212 56.0425 128.267 41.1713 128.267C26.3001 128.267 14.2446 116.212 14.2446 101.341"  />
      <g id="g6564">
        <path id="path4081" fill="url(#defitem3)" d="M105.712 50.9293C105.712 58.0865 91.8356 63.8952 74.7379 63.8952C57.6402 63.8952 43.7638 58.0865 43.7638 50.9293C43.7638 43.7721 57.6296 37.9634 74.7273 37.9634C91.825 37.9634 105.712 43.7721 105.712 50.9293Z"  />
        <path id="ellipse2523" fill="url(#defitem4)" d="M43.0435 49.4886C43.0435 42.3315 57.2318 36.5228 74.7271 36.5228C92.2223 36.5228 106.432 42.3315 106.432 49.4886"  />
        <path fill="url(#defitem5)" stroke-width="0.180732" d="M104.205 48.7683C104.205 54.7357 91.0119 59.5732 74.7379 59.5732C58.4639 59.5732 45.2712 54.7357 45.2712 48.7683C45.2712 42.8009 58.4639 37.9634 74.7379 37.9634C91.0119 37.9634 104.205 42.8009 104.205 48.7683Z"  />
        <path id="ellipse3931" fill="url(#defitem6)" stroke-width="0.714776" d="M54.6481 41.0473C49.2727 43.0105 45.9163 45.7345 45.9163 48.7683C45.9163 54.7326 58.822 59.5732 74.7268 59.5732C90.6316 59.5732 103.559 54.7326 103.559 48.7683C103.559 45.7345 100.203 43.0105 94.8277 41.0473C97.1734 42.5537 98.5509 44.3308 98.5509 46.2472C98.5509 51.615 87.8667 55.9716 74.7268 55.9716C61.5869 55.9716 50.9249 51.615 50.9249 46.2472C50.9249 44.3308 52.3023 42.5537 54.6481 41.0473Z"  />
        <path fill="#bababa" stroke-width="0.183105" d="M97.9455 40.8447C97.9455 48.6566 90.1524 54.9893 80.5391 54.9893C70.9258 54.9893 63.1326 48.6566 63.1326 40.8447C63.1326 33.0329 70.9258 26.7 80.5391 26.7C90.1524 26.7 97.9455 33.0329 97.9455 40.8447Z"  />
        <g id="g6372">
          <path id="path6374" fill="#ffffff" stroke="#000000" stroke-width="1.89036" d="M59.878 36.1216C55.8674 34.8704 46.1126 48.2487 47.3867 55.6516C48.6608 63.0545 61.8003 69.4942 68.619 72.1607C75.4376 74.8272 86.5861 77.6898 90.4551 74.0138C94.3242 70.3378 92.9054 60.8489 89.6704 58.4166C91.0662 56.3557 93.3805 55.1485 96.0173 54.983C97.9854 57.1163 97.2468 61.5019 96.8294 65.7497C101.339 62.0505 98.1497 50.6655 105.956 46.3959C109.58 48.5621 108.639 61.93 115.111 63.1334C121.487 64.3189 126.088 58.816 125.244 53.1299C124.4 47.4438 114.933 41.909 112.322 38.6156C116.357 36.111 120.109 29.6897 117.191 24.728C112.659 34.1056 109.747 34.5566 106.726 31.913C112.838 31.6921 106.05 16.92 101.936 12.017C97.8227 7.114 87.5768 1.39 81.5823 3.149C75.5878 4.908 69.0479 14.12 70.7794 19.32C67.0278 18.626 65.0017 23.32 63.2817 25.913C61.5616 28.5066 57.7044 31.2655 59.878 36.1216Z"  fill-rule="evenodd" />
          <path id="path6376" fill="#0097c8" stroke="#ffffff" stroke-width="1.71517" d="M73.0221 20.208C69.5318 19.433 66.6971 23.575 65.2172 25.822C63.7372 28.0698 59.4601 32.3463 61.6663 36.7777C63.5775 44.1984 69.9506 53.6525 88.2966 57.2434C89.4994 55.4586 94.3318 53.014 96.758 52.975C99.185 50.4919 104.939 44.4309 107.308 46.2615C110.741 51.135 110.552 59.7672 116.048 61.3052C121.635 62.8687 124.528 57.8329 123.515 52.7145C122.501 47.596 113.537 42.2567 110.992 39.2043C109.573 37.4504 106.054 33.2444 104.523 30.8263C99.0801 20.127 78.0063 12.485 73.0221 20.208Z"  fill-rule="evenodd" />
          <path id="path6378" fill="#0097c8" stroke="#ffffff" stroke-width="1.89036" d="M85.9229 20.404C87.9549 15.508 92.2301 17.731 95.2752 19.658C98.3203 21.586 103.915 25.772 101.841 28.0294C99.6114 30.4561 94.1498 29.851 91.5987 28.426C89.2487 27.113 83.8044 25.509 85.9229 20.404Z"  fill-rule="evenodd" />
          <path id="path6380" fill="#0097c8" stroke="#ffffff" stroke-width="1.89036" d="M74.2928 41.5501C70.3334 45.0751 73.9482 51.0266 76.7678 53.2712C79.5875 55.5159 86.4011 59.5889 88.442 54.4623C90.6233 48.9826 88.5275 44.9529 85.2657 42.5268C82.004 40.1007 78.4209 37.8749 74.2928 41.5501Z"  fill-rule="evenodd" />
          <path id="path6382" fill="#0097c8" stroke="#ffffff" stroke-width="1.73541" d="M88.3006 57.5313C81.4095 59.4589 62.8119 44.3214 60.9503 37.0639C57.2684 35.9152 48.3133 48.1968 49.4829 54.993C50.6525 61.7891 62.715 67.7008 68.9748 70.1488C75.2345 72.5968 85.4691 75.2247 89.021 71.85C92.5729 68.4754 91.2704 59.7642 88.3006 57.5313Z"  fill-rule="evenodd" />
          <path id="path6384" fill="#0097c8" stroke="#ffffff" stroke-width="1.69232" d="M72.544 19.263C79.7667 14.59 98.362 15.852 104.724 30.5376C110.197 30.3398 104.119 17.115 100.437 12.726C96.7542 8.336 87.5817 3.212 82.2152 4.787C76.8487 6.362 70.9939 14.609 72.544 19.263Z"  fill-rule="evenodd" />
        </g>
        <g id="g6537">
          <path id="path6535" fill="url(#defitem7)" stroke-width="0.938973" d="M43.0435 49.4886L45.4791 49.4C53.1463 62.9086 95.4424 63.2587 104.05 49.5173L106.432 49.4886C106.432 56.6458 92.2332 62.4545 74.7379 62.4545C57.2426 62.4545 43.0435 56.6458 43.0435 49.4886Z"  />
          <g id="g11">
            <path id="path13" fill="#000000" stroke-width="0.182355" d="M47.4458 112.048C45.9608 119.331 58.1112 125.843 74.7379 125.843C91.3643 125.843 103.515 119.331 102.03 112.048C100.69 105.48 88.5226 100.611 74.7379 100.611C60.9531 100.611 48.7852 105.48 47.4458 112.048Z"  />
          </g>
          <path id="path36" fill="url(#defitem8)" stroke-width="0.938973" d="M43.0435 49.2859C43.0435 85.3578 49.5657 111.598 49.5657 111.598C49.5657 117.874 60.8357 122.962 74.7379 122.962C88.64 122.962 99.91 117.874 99.91 111.598C99.91 111.598 106.432 85.3578 106.432 49.2859C100.483 66.7235 48.3809 66.0146 43.0435 49.2859L43.0435 49.2859Z"  />
          <path id="path11409" fill="#bababa" stroke-width="2.81692" stroke-linecap="round" stroke-linejoin="round" d="M51.6874 111.437C52.0656 116.234 62.2415 120.081 74.7379 120.081C87.2342 120.081 97.4101 116.234 97.7883 111.437C94.5984 115.59 85.484 118.594 74.7379 118.594C63.9918 118.594 54.8773 115.59 51.6874 111.437Z"  fill-rule="evenodd" />
          <g id="g2660">
            <g id="g2662">
              <path id="path2664" fill="#545454" fill-opacity="0.8" stroke-width="2.86525" d="M91.8989 92.1416C91.8989 92.1416 90.1196 94.1874 88.9334 94.1874C87.7472 94.1874 80.8763 94.1874 80.8763 94.1874L80.8763 90.3451L77.0025 97.9895L80.8763 105.674L80.8763 101.703L84.9622 101.703C84.9622 101.703 88.3689 102.666 91.8989 92.1416Z"  />
              <path id="path2666" fill="#545454" fill-opacity="0.8" stroke-width="2.86525" d="M81.2402 84.0644L87.7357 80.3138L91.5924 87.0844C91.5924 87.0844 93.1367 90.0872 90.3947 92.0241C87.7357 93.9094 85.3089 90.9267 85.3089 90.9267L81.2402 84.0644Z"  />
            </g>
            <g id="g2668">
              <path id="path2670" fill="#545454" fill-opacity="0.8" stroke-width="2.86525" d="M63.639 100.03C63.639 100.03 62.851 97.6199 63.3467 96.4308C63.851 95.2532 67.3867 89.4626 67.3867 89.4626L70.7104 91.3937L66.0401 84.1934L57.45 83.7034L60.8797 85.6948L58.8425 89.2305C58.8425 89.2305 56.1865 91.8149 63.639 100.03Z"  />
              <path id="path2672" fill="#545454" fill-opacity="0.8" stroke-width="2.86525" d="M76.3865 94.8865L76.375 102.376L68.5844 102.328C68.5844 102.328 65.2149 102.161 64.914 98.8291C64.6132 95.577 68.4067 94.9724 68.4067 94.9724L76.3865 94.8865Z"  />
            </g>
            <g id="g2674">
              <path id="path2676" fill="#545454" fill-opacity="0.8" stroke-width="2.86525" d="M70.9711 71.6178C70.9711 71.6178 73.6588 72.2539 74.2175 73.1765C74.7819 74.0905 78.2346 80.1562 78.2346 80.1562L74.9051 82.0645L83.4722 81.6261L88.1942 74.4458L84.7473 76.4228L82.7215 72.8785C82.7215 72.8785 82.286 70.125 70.9711 71.6178Z"  />
              <path id="path2678" fill="#545454" fill-opacity="0.8" stroke-width="2.86525" d="M69.2291 84.7177L62.7536 80.9585L66.6991 74.2338C66.6991 74.2338 68.53 71.4143 71.5786 72.8212C74.5384 74.1936 73.1573 77.7695 73.1573 77.7695L69.2291 84.7177Z"  />
            </g>
          </g>
        </g>
      </g>
      <g id="g8742">
        <path id="path8576" fill="url(#defitem9)" stroke-width="0.720517" d="M44.1122 77.062C49.702 81.5348 45.5667 96.0025 34.8815 109.356C24.1964 122.709 10.9878 129.917 5.39798 125.444C-0.191814 120.971 3.93692 106.512 14.622 93.1582C25.3072 79.8048 38.5224 72.5891 44.1122 77.062Z"  />
        <path id="path8579" fill="url(#defitem10)" stroke-width="0.720517" d="M43.4372 75.599C37.8474 71.1262 24.4371 78.5856 13.5035 92.2496C2.56988 105.913 -1.76714 120.633 3.82265 125.106C9.41244 129.579 22.816 122.128 33.7496 108.464C44.6832 94.8001 49.027 80.0719 43.4372 75.599Z"  />
        <path id="path47805" fill="none" stroke="url(#defitem11)" stroke-width="0.720517" d="M41.2364 78.3494C46.2051 82.3253 42.35 95.4095 32.6312 107.555C22.9124 119.701 10.9922 126.332 6.02346 122.356C1.05476 118.38 4.90387 105.303 14.6226 93.1574C24.3414 81.0117 36.2677 74.3736 41.2364 78.3494Z"  />
        <g id="g6088">
          <path id="path2228" fill="url(#defitem12)" stroke-width="0.718951" d="M16.7427 106.653C15.505 105.663 15.1406 104.043 15.9329 103.052L24.576 92.2508C25.3683 91.2607 27.0292 91.2608 28.2669 92.2512L30.5172 94.0519L31.9577 92.2516L27.4571 88.6503C26.2194 87.6599 24.5585 87.6597 23.7663 88.6499L12.242 103.052C11.4497 104.042 11.8141 105.662 13.0518 106.653L17.5524 110.254L18.993 108.454L16.7427 106.653Z"  />
          <g id="g2230">
            <path id="path2238" fill="url(#defitem13)" stroke-width="0.718937" d="M12.5301 102.692L12.242 103.052C11.4497 104.042 11.8141 105.662 13.0518 106.653L19.8028 112.055L13.4119 106.203C12.1743 105.212 11.7774 103.632 12.5301 102.692Z"  />
            <path id="path2246" fill="url(#defitem14)" stroke-width="0.718937" d="M23.7663 88.6499L23.4782 89.0099C24.2308 88.0693 25.8593 88.11 27.097 89.1004L34.2081 94.0523L27.4571 88.6503C26.2194 87.6599 24.5585 87.6597 23.7663 88.6499Z"  />
          </g>
          <path id="path2248" fill="url(#defitem15)" fill-opacity="0.5" stroke-width="0.718951" d="M19.3543 96.9313C16.7686 100.163 15.076 103.105 15.5727 103.502L24.9362 91.8007C24.4394 91.4032 21.9401 93.6998 19.3543 96.9313Z"  />
          <path id="path2250" fill="url(#defitem16)" stroke-width="0.718951" d="M21.5159 86.8492L9.9917 101.251C9.19941 102.241 9.56381 103.862 10.8015 104.852L13.0518 106.653C11.8141 105.662 11.4497 104.042 12.242 103.052L23.7663 88.6499C24.5585 87.6597 26.2194 87.6599 27.4571 88.6503L25.2068 86.8496C23.9691 85.8593 22.3082 85.8591 21.5159 86.8492Z"  />
          <path id="path2252" fill="url(#defitem17)" stroke-width="0.718951" d="M16.879 94.9506C20.0615 90.9734 22.137 87.3462 21.5159 86.8492L9.9917 101.251C10.6128 101.748 13.6968 98.9273 16.879 94.9506Z"  />
          <path id="path4918" fill="url(#defitem18)" stroke-width="2.15685" stroke-linecap="round" stroke-linejoin="round" d="M20.4227 106.667C21.6655 107.662 21.7031 109.68 20.5068 111.175C19.3104 112.67 17.3331 113.076 16.0903 112.082"  fill-rule="evenodd" />
          <path id="path4928" fill="url(#defitem19)" stroke-width="2.15685" stroke-linecap="round" stroke-linejoin="round" d="M33.4199 90.4243C34.6628 91.4188 34.7004 93.437 33.504 94.9321C32.3077 96.4272 30.3303 96.8331 29.0875 95.8386"  fill-rule="evenodd" />
        </g>
      </g>
    </g>
  </g>
</svg>
