<?xml version="1.0" standalone="no"?>
<!DOCTYPE svg PUBLIC "-//W3C//DTD SVG 20010904//EN" "http://www.w3.org/TR/2001/REC-SVG-20010904/DTD/svg10.dtd">
<!-- Created using Karbon14, part of koffice: http://www.koffice.org/karbon -->
<svg xmlns="http://www.w3.org/2000/svg" xmlns:xlink="http://www.w3.org/1999/xlink" width="128px" height="128px">
  <defs>
    <linearGradient id="defitem0" gradientUnits="userSpaceOnUse" x1="64.0889" y1="9.679" x2="64.0889" y2="123.906" >
      <stop stop-color="#008c00" offset="0" stop-opacity="1" />
      <stop stop-color="#34ac1c" offset="0.3553" stop-opacity="1" />
      <stop stop-color="#0e9508" offset="0.6194" stop-opacity="1" />
      <stop stop-color="#008c00" offset="0.7574" stop-opacity="1" />
      <stop stop-color="#004d00" offset="1" stop-opacity="1" />
    </linearGradient>
    <radialGradient id="defitem1" gradientUnits="userSpaceOnUse" cx="64.0889" cy="86.4062" fx="64.0889" fy="86.4062" r="40.4981" >
      <stop stop-color="#52bd2b" offset="0" stop-opacity="1" />
      <stop stop-color="#52bd2b" offset="1" stop-opacity="0" />
    </radialGradient>
    <radialGradient id="defitem2" gradientUnits="userSpaceOnUse" cx="97.2893" cy="80.4063" fx="97.2893" fy="80.4063" r="35.1613" >
      <stop stop-color="#000000" offset="0" stop-opacity="1" />
      <stop stop-color="#000000" offset="1" stop-opacity="0" />
    </radialGradient>
    <radialGradient id="defitem3" gradientUnits="userSpaceOnUse" cx="15.7893" cy="66.9063" fx="15.7893" fy="66.9063" r="27.4952" >
      <stop stop-color="#000000" offset="0" stop-opacity="1" />
      <stop stop-color="#000000" offset="1" stop-opacity="0" />
    </radialGradient>
    <radialGradient id="defitem4" gradientUnits="userSpaceOnUse" cx="64.0889" cy="48.9032" fx="64.0889" fy="48.9032" r="66.5528" >
      <stop stop-color="#000000" offset="0" stop-opacity="1" />
      <stop stop-color="#000000" offset="1" stop-opacity="0" />
    </radialGradient>
    <radialGradient id="defitem5" gradientUnits="userSpaceOnUse" cx="64.0889" cy="7.406" fx="64.0889" fy="7.406" r="18.5617" >
      <stop stop-color="#ffffff" offset="0" stop-opacity="1" />
      <stop stop-color="#ffffff" offset="1" stop-opacity="0" />
    </radialGradient>
    <linearGradient id="defitem6" gradientUnits="userSpaceOnUse" x1="120.062" y1="12.569" x2="125.304" y2="14.444" spreadMethod="reflect" >
      <stop stop-color="#ffffff" offset="0" stop-opacity="1" />
      <stop stop-color="#ffffff" offset="1" stop-opacity="0" />
    </linearGradient>
    <linearGradient id="defitem7" gradientUnits="userSpaceOnUse" x1="72.9331" y1="59.6989" x2="74.8081" y2="64.9401" spreadMethod="reflect" >
      <stop stop-color="#baff62" offset="0" stop-opacity="1" />
      <stop stop-color="#ffffff" offset="1" stop-opacity="0" />
    </linearGradient>
    <radialGradient id="defitem8" gradientUnits="userSpaceOnUse" cx="67.0938" cy="116.906" fx="67.0938" fy="116.906" r="71.5912" >
      <stop stop-color="#00ff00" offset="0" stop-opacity="1" />
      <stop stop-color="#34ac1c" offset="0.3553" stop-opacity="1" />
      <stop stop-color="#0e9508" offset="0.6194" stop-opacity="1" />
      <stop stop-color="#008c00" offset="0.7574" stop-opacity="1" />
      <stop stop-color="#004d00" offset="1" stop-opacity="1" />
    </radialGradient>
    <radialGradient id="defitem9" gradientUnits="userSpaceOnUse" cx="102.129" cy="44.4818" fx="76.344" fy="59.9164" r="38.9877" >
      <stop stop-color="#00ff00" offset="0" stop-opacity="1" />
      <stop stop-color="#004d00" offset="1" stop-opacity="0" />
    </radialGradient>
    <linearGradient id="defitem10" gradientUnits="userSpaceOnUse" x1="75.0938" y1="4.532" x2="75.0938" y2="80.1725" >
      <stop stop-color="#bfffbf" offset="0" stop-opacity="1" />
      <stop stop-color="#bfffbf" offset="1" stop-opacity="0" />
    </linearGradient>
    <linearGradient id="defitem11" gradientUnits="userSpaceOnUse" x1="75.098" y1="4.534" x2="75.098" y2="80.1745" >
      <stop stop-color="#ffffff" offset="0" stop-opacity="1" />
      <stop stop-color="#ffffff" offset="1" stop-opacity="0" />
    </linearGradient>
    <linearGradient id="defitem12" gradientUnits="userSpaceOnUse" x1="71.5938" y1="130.406" x2="71.5938" y2="63.4268" >
      <stop stop-color="#efff80" offset="0" stop-opacity="1" />
      <stop stop-color="#efff80" offset="1" stop-opacity="0" />
    </linearGradient>
    <linearGradient id="defitem13" gradientUnits="userSpaceOnUse" x1="90.9123" y1="79.1779" x2="83.719" y2="90.1669" >
      <stop stop-color="#ffffff" offset="0" stop-opacity="1" />
      <stop stop-color="#ffffff" offset="1" stop-opacity="0" />
    </linearGradient>
  </defs>
  <g id="Layer">
    <path id="rect3204" fill="url(#defitem0)" stroke-width="2" stroke-linecap="round" stroke-linejoin="round" d="M64.0938 3.906C30.9686 3.906 4.09375 30.7811 4.09375 63.9062C4.09375 97.0314 30.9686 123.906 64.0938 123.906C94.3829 123.906 119.43 101.69 123.5 72.5625L88.4688 67.5312C86.8441 79.4924 76.5387 88.5 64.0938 88.5C50.5221 88.5 39.5 77.4779 39.5 63.9062C39.5 50.3346 50.5221 39.3125 64.0938 39.3125C70.8796 39.3125 77.015 42.0775 81.4688 46.5312L71.1416 56.8584C69.0857 58.9143 68.8978 60.1642 69.462 61.474C69.9705 62.6547 70.9827 64 73.6717 64L117.625 64C121.471 64 124.084 61.3456 124.084 57.7499L124.015 13.672C124.015 11.191 123.113 9.829 121.834 9.322C120.519 8.802 118.8 9.2 116.727 11.273L106.531 21.469C95.6719 10.609 80.6563 3.906 64.0938 3.906Z"  />
    <path id="path3749" fill="url(#defitem1)" stroke-width="2" stroke-linecap="round" stroke-linejoin="round" d="M64.0938 3.906C30.9686 3.906 4.09375 30.7811 4.09375 63.9062C4.09375 97.0314 30.9686 123.906 64.0938 123.906C94.3829 123.906 119.43 101.69 123.5 72.5625L88.4688 67.5312C86.8441 79.4924 76.5387 88.5 64.0938 88.5C50.5221 88.5 39.5 77.4779 39.5 63.9062C39.5 50.3346 50.5221 39.3125 64.0938 39.3125C70.8796 39.3125 77.015 42.0775 81.4688 46.5312L71.1416 56.8584C69.0857 58.9143 68.8978 60.1642 69.462 61.474C69.9705 62.6547 70.9827 64 73.6717 64L117.625 64C121.471 64 124.084 61.3456 124.084 57.7499L124.015 13.672C124.015 11.191 123.113 9.829 121.834 9.322C120.519 8.802 118.8 9.2 116.727 11.273L106.531 21.469C95.6719 10.609 80.6563 3.906 64.0938 3.906Z"  />
    <path id="path3656" fill="url(#defitem2)" stroke-width="2" stroke-linecap="round" stroke-linejoin="round" d="M64.0938 3.906C30.9686 3.906 4.09375 30.7811 4.09375 63.9062C4.09375 97.0314 30.9686 123.906 64.0938 123.906C94.3829 123.906 119.43 101.69 123.5 72.5625L88.4688 67.5312C86.8441 79.4924 76.5387 88.5 64.0938 88.5C50.5221 88.5 39.5 77.4779 39.5 63.9062C39.5 50.3346 50.5221 39.3125 64.0938 39.3125C70.8796 39.3125 77.015 42.0775 81.4688 46.5312L71.1416 56.8584C69.0857 58.9143 68.8978 60.1642 69.462 61.474C69.9705 62.6547 70.9827 64 73.6717 64L117.625 64C121.471 64 124.084 61.3456 124.084 57.7499L124.015 13.672C124.015 11.191 123.113 9.829 121.834 9.322C120.519 8.802 118.8 9.2 116.727 11.273L106.531 21.469C95.6719 10.609 80.6563 3.906 64.0938 3.906Z"  />
    <path id="path3643" fill="url(#defitem3)" stroke-width="2" stroke-linecap="round" stroke-linejoin="round" d="M64.0938 3.906C30.9686 3.906 4.09375 30.7811 4.09375 63.9062C4.09375 97.0314 30.9686 123.906 64.0938 123.906C94.3829 123.906 119.43 101.69 123.5 72.5625L88.4688 67.5312C86.8441 79.4924 76.5387 88.5 64.0938 88.5C50.5221 88.5 39.5 77.4779 39.5 63.9062C39.5 50.3346 50.5221 39.3125 64.0938 39.3125C70.8796 39.3125 77.015 42.0775 81.4688 46.5312L71.1416 56.8584C69.0857 58.9143 68.8978 60.1642 69.462 61.474C69.9705 62.6547 70.9827 64 73.6717 64L117.625 64C121.471 64 124.084 61.3456 124.084 57.7499L124.015 13.672C124.015 11.191 123.113 9.829 121.834 9.322C120.519 8.802 118.8 9.2 116.727 11.273L106.531 21.469C95.6719 10.609 80.6563 3.906 64.0938 3.906Z"  />
    <path id="path3742" fill="url(#defitem4)" stroke-width="2" stroke-linecap="round" stroke-linejoin="round" d="M64.0938 3.906C30.9686 3.906 4.09375 30.7811 4.09375 63.9062C4.09375 97.0314 30.9686 123.906 64.0938 123.906C94.3829 123.906 119.43 101.69 123.5 72.5625L88.4688 67.5312C86.8441 79.4924 76.5387 88.5 64.0938 88.5C50.5221 88.5 39.5 77.4779 39.5 63.9062C39.5 50.3346 50.5221 39.3125 64.0938 39.3125C70.8796 39.3125 77.015 42.0775 81.4688 46.5312L71.1416 56.8584C69.0857 58.9143 68.8978 60.1642 69.462 61.474C69.9705 62.6547 70.9827 64 73.6717 64L117.625 64C121.471 64 124.084 61.3456 124.084 57.7499L124.015 13.672C124.015 11.191 123.113 9.829 121.834 9.322C120.519 8.802 118.8 9.2 116.727 11.273L106.531 21.469C95.6719 10.609 80.6563 3.906 64.0938 3.906Z"  />
    <path id="path3759" fill="url(#defitem5)" stroke-width="2" stroke-linecap="round" stroke-linejoin="round" d="M64.0938 4.206C30.9686 4.206 4.09375 30.7811 4.09375 63.9062C4.09375 97.0314 30.9686 123.906 64.0938 123.906C94.3829 123.906 119.43 101.69 123.5 72.5625L88.4688 67.5312C86.8441 79.4924 76.5387 88.5 64.0938 88.5C50.5221 88.5 39.5 77.4779 39.5 63.9062C39.5 50.3346 50.5221 39.3125 64.0938 39.3125C70.8796 39.3125 77.015 42.0775 81.4688 46.5312L71.1416 56.8584C69.0857 58.9143 68.8978 60.1642 69.462 61.474C69.9705 62.6547 70.9827 64 73.6717 64L117.625 64C121.471 64 124.084 61.3456 124.084 57.7499L124.015 13.672C124.015 11.191 123.113 9.829 121.834 9.322C120.519 8.802 118.8 9.2 116.727 11.273L106.531 21.469C95.6719 10.609 80.6563 4.206 64.0938 4.206Z"  />
    <path id="path3660" fill="url(#defitem6)" d="M117.688 10.75L118.625 15.125L119.875 16L123.875 13.375C124.122 11.651 123.524 10.028 121.938 9.375C120.351 8.722 118.776 9.502 117.688 10.75Z"  fill-rule="evenodd" />
    <path id="path3769" fill="url(#defitem7)" d="M71.1136 57.3239L74.2386 59.5114L74.1136 60.0114L73.7386 63.5114C72.0148 63.7583 70.3912 63.1602 69.7386 61.5739C69.086 59.9876 69.8653 58.4126 71.1136 57.3239Z"  fill-rule="evenodd" />
    <path id="path3494" fill="url(#defitem8)" stroke-width="4" stroke-linecap="round" stroke-linejoin="round" d="M64.0938 7.906C33.1321 7.906 8.09375 32.9445 8.09375 63.9062C8.09375 94.8679 33.1321 119.906 64.0938 119.906C91.0266 119.906 113.215 101.1 118.625 75.9062L91.5 72.0312C88.0614 83.9286 77.0596 92.5 64.0938 92.5C48.3564 92.5 35.5 79.6436 35.5 63.9062C35.5 48.1689 48.3564 35.3125 64.0938 35.3125C71.9662 35.3125 79.1453 38.5203 84.3125 43.6875C85.072 44.4389 85.5 45.4629 85.5 46.5312C85.5 47.5996 85.072 48.6236 84.3125 49.375L73.6875 60L117.625 60C119.63 60 120.094 59.4078 120.094 57.75L120 13.656L109.375 24.312C108.624 25.072 107.6 25.5 106.531 25.5C105.463 25.5 104.439 25.072 103.688 24.312C93.5498 14.175 79.5771 7.906 64.0938 7.906Z"  />
    <path id="path3526" fill="url(#defitem9)" stroke-width="4" stroke-linecap="round" stroke-linejoin="round" d="M64.0938 7.906C33.1321 7.906 8.09375 32.9445 8.09375 63.9062C8.09375 94.8679 33.1321 119.906 64.0938 119.906C91.0266 119.906 113.215 101.1 118.625 75.9062L91.5 72.0312C88.0614 83.9286 77.0596 92.5 64.0938 92.5C48.3564 92.5 35.5 79.6436 35.5 63.9062C35.5 48.1689 48.3564 35.3125 64.0938 35.3125C71.9662 35.3125 79.1453 38.5203 84.3125 43.6875C85.072 44.4389 85.5 45.4629 85.5 46.5312C85.5 47.5996 85.072 48.6236 84.3125 49.375L73.6875 60L117.625 60C119.63 60 120.094 59.4078 120.094 57.75L120 13.656L109.375 24.312C108.624 25.072 107.6 25.5 106.531 25.5C105.463 25.5 104.439 25.072 103.688 24.312C93.5498 14.175 79.5771 7.906 64.0938 7.906Z"  />
    <path id="path3537" fill="url(#defitem10)" stroke-width="8" stroke-linecap="round" stroke-linejoin="round" d="M64.0938 7.906C33.1321 7.906 8.09375 32.9445 8.09375 63.9062C8.09375 64.4741 8.10827 65.03 8.125 65.5938C14.1145 66.2714 20.2662 66.7439 26.5312 67C26.2605 56.541 30.2029 46.0251 38.3438 38.2188C53.6831 23.51 78.0723 24.004 92.7812 39.3438C95.5451 42.226 97.5379 45.0321 99.3438 48.5938L78.8438 59L98 59C105.928 56.9734 113.186 55.563 120.094 52.8125L120 13.656L109.375 24.312C108.624 25.072 107.6 25.5 106.531 25.5C105.463 25.5 104.439 25.072 103.688 24.312C93.5498 14.175 79.5771 7.906 64.0938 7.906Z"  />
    <path id="path3553" fill="url(#defitem11)" stroke-width="8" stroke-linecap="round" stroke-linejoin="round" d="M64.0999 7.909C33.1382 7.909 8.09987 32.9471 8.09987 63.9088C8.09988 64.0875 8.09738 64.2631 8.09987 64.44C8.35311 33.6965 33.2958 8.909 64.0999 8.909C79.5832 8.909 93.5559 15.177 103.694 25.315C104.445 26.074 105.469 26.503 106.537 26.503C107.606 26.503 108.63 26.074 109.381 25.315L119.506 15.159L120 52.7088C113.092 55.4593 105.434 56.5696 97.5061 58.5963L78.8499 59.0025L98.0061 59.0025C105.934 56.9759 113.192 55.5655 120.1 52.815L120.006 14.659L120.006 13.659L119.506 14.159L109.381 24.315C108.63 25.074 107.606 25.503 106.537 25.503C105.469 25.503 104.445 25.074 103.694 24.315C103.683 24.305 103.673 24.294 103.662 24.284C103.61 24.231 103.559 24.18 103.506 24.128C102.932 23.56 102.355 23.012 101.756 22.471C101.675 22.397 101.588 22.326 101.506 22.253C91.5901 13.342 78.4965 7.909 64.0999 7.909ZM63.4436 27.128C54.2054 27.378 45.0402 30.9202 37.8499 37.815C30.2178 45.1334 26.7223 55.1879 26.5374 65.0338C26.7772 55.2319 30.7178 45.5397 38.3499 38.2213C51.666 25.452 71.8032 24.123 86.5061 34.0338C79.6271 29.2287 71.5187 26.909 63.4436 27.128Z"  />
    <path id="path3603" fill="none" stroke="url(#defitem12)" stroke-linecap="round" stroke-linejoin="round" d="M63.5938 7.906C32.632 7.906 7.59375 32.9445 7.59375 63.9062C7.59375 94.8679 32.632 119.906 63.5938 119.906C90.5267 119.906 112.715 101.1 118.125 75.9062L91 72.0312C87.5614 83.9286 76.5596 92.5 63.5938 92.5C47.8564 92.5 35 79.6436 35 63.9062C35 48.1689 47.8564 35.3125 63.5938 35.3125C71.4662 35.3125 78.6453 38.5203 83.8125 43.6875C84.572 44.4389 85 45.4629 85 46.5312C85 47.5996 84.572 48.6236 83.8125 49.375L73.1875 60L117.125 60C119.13 60 119.594 59.4078 119.594 57.75L119.5 13.656L108.875 24.312C108.124 25.072 107.1 25.5 106.031 25.5C104.963 25.5 103.939 25.072 103.188 24.312C93.0498 14.175 79.0771 7.906 63.5938 7.906Z"  />
    <path id="path2779" fill="url(#defitem13)" stroke-width="0.1" d="M88.188 67.1529C86.6021 76.0001 81.9305 83.3406 72.2962 86.6994C92.1677 91.1111 98.5995 102.863 101.379 111.287C115.881 99.5228 121.449 87.6773 123.84 72.2183L88.188 67.1529Z"  fill-rule="evenodd" />
  </g>
</svg>
